<?xml version="1.0" encoding="UTF-8"?><svg version="1.1" viewBox="0 0 24 24" xmlns="http://www.w3.org/2000/svg" xmlns:xlink="http://www.w3.org/1999/xlink"><!--Generated by IJSVG (https://github.com/iconjar/IJSVG)--><g stroke-linecap="round" stroke-width="1.5" stroke="#323232" fill="none" stroke-linejoin="round"><path d="M19.761,13.006l1.246,1.246l1.246,-1.246"></path><path d="M4.239,10.994l-1.246,-1.246l-1.246,1.246"></path><path stroke-width="1.5259" d="M7.587,10.729c0,-0.811 0.658,-1.469 1.469,-1.469c0.811,0 1.469,0.658 1.469,1.469c0,1.836 -2.937,1.836 -2.937,4.01h2.937"></path><path stroke-width="1.5259" d="M15.894,12.03l-2.512,-0.027c-0.142,-0.002 -0.257,-0.117 -0.257,-0.26v-2.482"></path><path stroke-width="1.5259" d="M15.89,9.32v5.42"></path><path d="M19.023,17.628c-1.651,2.054 -4.18,3.372 -7.021,3.372h-0.002h-0.002c-4.974,0 -9.005,-4.03 -9.005,-9.002c0,-0.694 0.086,-1.367 0.235,-2.016"></path><path d="M4.981,6.372c1.65,-2.054 4.18,-3.372 7.021,-3.372c4.974,0 9.005,4.03 9.005,9.002c0,0.694 -0.086,1.367 -0.235,2.016"></path></g><path fill="none" d="M0,0h24v24h-24Z"></path></svg>