<?xml version="1.0" encoding="UTF-8"?><svg version="1.1" viewBox="0 0 24 24" xmlns="http://www.w3.org/2000/svg" xmlns:xlink="http://www.w3.org/1999/xlink"><!--Generated by IJSVG (https://github.com/iconjar/IJSVG)--><defs><path d="M0,0h24v24h-24v-24Z" id="a"></path></defs><g fill="none"><use xlink:href="#a"></use><use xlink:href="#a"></use><path stroke="#323232" stroke-linecap="round" stroke-linejoin="round" stroke-width="1.5" d="M20.736,5.537v2h-2h2"></path><path stroke="#323232" stroke-linecap="round" stroke-linejoin="round" stroke-width="1.5" d="M7.587,10.729c0,-0.811 0.658,-1.469 1.469,-1.469c0.811,0 1.469,0.658 1.469,1.469c0,1.836 -2.937,1.836 -2.937,4.01h2.937"></path><path stroke="#323232" stroke-linecap="round" stroke-linejoin="round" stroke-width="1.5" d="M15.894,12.03l-2.512,-0.027c-0.142,-0.002 -0.257,-0.117 -0.257,-0.26v-2.482"></path><path stroke="#323232" stroke-linecap="round" stroke-linejoin="round" stroke-width="1.5" d="M15.89,9.32v5.42"></path><path stroke="#323232" stroke-linecap="round" stroke-linejoin="round" stroke-width="1.5" d="M20.3,7.538c-1.603,-2.902 -4.718,-4.871 -8.3,-4.871c-5.155,0 -9.333,4.179 -9.333,9.333c0,5.154 4.178,9.333 9.333,9.333c5.155,0 9.333,-4.179 9.333,-9.333"></path></g></svg>