<svg id="Layer_3" data-name="Layer 3" xmlns="http://www.w3.org/2000/svg" viewBox="0 0 24 24"><rect id="_Transparent_Rectangle_" data-name=" Transparent Rectangle " width="24" height="24" fill="none"/><line x1="12" y1="17" x2="12" y2="11.11555" fill="none" stroke="#323232" stroke-linecap="round" stroke-linejoin="round" stroke-width="1.5"/><polyline points="16.814 9.19 12 11.116 7.186 9.19" fill="none" stroke="#323232" stroke-linecap="round" stroke-linejoin="round" stroke-width="1.5"/><path d="M7.94291,8.50728l3.5-1.4a1.50009,1.50009,0,0,1,1.11418,0l3.5,1.4A1.5,1.5,0,0,1,17,9.9v4.2a1.5,1.5,0,0,1-.94291,1.39272l-3.5,1.4a1.50009,1.50009,0,0,1-1.11418,0l-3.5-1.4A1.5,1.5,0,0,1,7,14.1V9.9A1.5,1.5,0,0,1,7.94291,8.50728Z" fill="none" stroke="#323232" stroke-linecap="round" stroke-linejoin="round" stroke-width="1.5"/><rect x="3" y="3" width="18" height="18" rx="5" stroke-width="1.5" stroke="#323232" stroke-linecap="round" stroke-linejoin="round" fill="none"/></svg>