<?xml version="1.0" encoding="UTF-8"?><svg version="1.1" viewBox="0 0 24 24" xmlns="http://www.w3.org/2000/svg" xmlns:xlink="http://www.w3.org/1999/xlink"><g stroke-linecap="round" stroke-width="1.5" stroke="#323232" fill="none" stroke-linejoin="round"><circle cx="12" cy="12" r="9"></circle><path d="M15.165 3.573v6.791l8.20323e-08.000572825c0 .530736-.210954 1.03971-.586405 1.41483l-1.96859 1.9676 -1.95296e-09 1.956e-09c-.33637.336894-.882158.337318-1.21905.000948274 -.000316339-.000315847-.000632431-.00063194-.000948278-.000948278l-1.969-1.968 1.32132e-07 1.32092e-07c-.375344-.37523-.586152-.884264-.586-1.415v-6.791"></path><line x1="15.16" x2="8.84" y1="9" y2="9"></line><line x1="9" x2="4" y1="16" y2="16"></line><polyline points="12,14 12,16 20,16"></polyline></g><g transform="matrix(1 0 0 1 24 24)"><rect width="24" height="24" fill="none" transform="matrix(-1 1.22465e-16 -1.22465e-16 -1 0 0)"></rect></g></svg>