<?xml version="1.0" encoding="UTF-8"?><svg version="1.1" viewBox="0 0 24 24" xmlns="http://www.w3.org/2000/svg" xmlns:xlink="http://www.w3.org/1999/xlink"><g stroke-linecap="round" stroke-width="1.5" stroke="#323232" fill="none" stroke-linejoin="round"><rect width="18" height="18" x="3" y="3" rx="2.7614" ry="0"></rect><line x1="20.9" x2="3.1" y1="7" y2="7"></line><path d="M13.356 16.214v-3.427l2.10051e-08-4.077e-05c.000132832-.272039-.145714-.52323-.382035-.657979l-2.66896-1.52898 2.21919e-08 1.26341e-08c-.233722-.13306-.520278-.13306-.754-5.19457e-08l-2.669 1.529 4.26467e-08-2.42764e-08c-.236467.134608-.382357.385905-.382.658v3.426l-1.73932e-08 8.37387e-06c-.000563771.272152.145386.523545.382007.657996l2.66899 1.529 -8.00837e-08-4.55925e-08c.233722.13306.520278.133061.754 1.17862e-07l2.669-1.529 3.56625e-08-2.02644e-08c.236309-.134277.382206-.385206.382-.657Z"></path><path d="M9.928 14.31v4.19"></path><path d="M6.592 12.46l3.355 1.849 3.279-1.981"></path><line x1="21" x2="13.36" y1="16" y2="16"></line><line x1="6.5" x2="3" y1="16" y2="16"></line><path d="M17.5 7v2.464l6.4659e-09 1.06235e-05c.000104661.175013-.0913047.337342-.241009.427995l-1.25899.760994 -1.259-.761 -3.33546e-08-2.01988e-08c-.149702-.0906566-.241108-.252987-.241-.428v-2.464"></path></g><g transform="matrix(1 0 0 1 24 24)"><rect width="24" height="24" fill="none" transform="matrix(-1 1.22465e-16 -1.22465e-16 -1 0 0)"></rect></g></svg>