<svg viewBox="0 0 24 24" xmlns="http://www.w3.org/2000/svg"><g fill="none"><path d="M0 0h24v24H0Z"/><g stroke-linecap="round" stroke-width="1.5" stroke="#323232" fill="none" stroke-linejoin="round"><path d="M11.58 16.81l-4-1.82 -.01-.01c-.36-.17-.59-.52-.59-.92V9.89l-.001-.01c-.01-.4.22-.75.58-.92l4.41-2.01 4.41 2 -.01-.01c.35.16.58.51.58.91v4.16l0 0c0 .39-.23.74-.59.91l-4 1.81 -.01 0c-.27.11-.57.11-.83-.01Z"/><path d="M3.05 16.52l4.13-1.87"/><path d="M16.82 14.65l4.13 1.87"/><path d="M12 3l0 4"/><rect width="18" height="18" x="3" y="3" rx="5"/><path d="M7.18 9.35l4.82 2.2"/><path d="M16.82 9.35L12 11.55"/><path d="M12 11.55l0 5.35"/></g></g></svg>