<?xml version="1.0" encoding="UTF-8"?><svg version="1.1" viewBox="0 0 24 24" xmlns="http://www.w3.org/2000/svg" xmlns:xlink="http://www.w3.org/1999/xlink"><g stroke-linecap="round" stroke-width="1.5" stroke="#323232" fill="none" stroke-linejoin="round"><path d="M10.667 17.222l1.333-1.333 -1.333-1.333"></path><path d="M13.333 6.778l-1.333 1.333 1.333 1.333"></path><path d="M8.278 8.392c-3.678.575-6.278 1.972-6.278 3.608 0 2.148 4.477 3.889 10 3.889"></path><path d="M12 8.111c5.523 0 10 1.741 10 3.889 0 1.636-2.6 3.033-6.278 3.608"></path><path d="M18.694 6c-1.645-1.839-4.031-3-6.694-3 -2.663 0-5.049 1.161-6.694 3"></path><path d="M5.306 18c1.645 1.839 4.031 3 6.694 3 2.663 0 5.049-1.161 6.694-3"></path></g><path fill="none" d="M0 0h24v24h-24v-24Z"></path></svg>