<?xml version="1.0" encoding="UTF-8"?><svg version="1.1" viewBox="0 0 24 24" xmlns="http://www.w3.org/2000/svg" xmlns:xlink="http://www.w3.org/1999/xlink"><g fill="none"><path d="M0 0h24v24h-24Z"></path><path stroke="#323232" stroke-linecap="round" stroke-linejoin="round" stroke-width="1.5" d="M3 10.432v-2.255l-6.93341e-08-.000526325c-1.0972e-07-.72664.394112-1.39611 1.02946-1.74873l1.97054-1.09474"></path><path stroke="#323232" stroke-linecap="round" stroke-linejoin="round" stroke-width="1.5" d="M21 13.568v2.255l5.60187e-08-.000473365c0 .726282-.393727 1.39548-1.02859 1.74824l-1.97141 1.09623"></path><path stroke="#323232" stroke-linecap="round" stroke-linejoin="round" stroke-width="1.5" d="M9.376 10.546l2.624 1.454 2.624-1.454"></path><path stroke="#323232" stroke-linecap="round" stroke-linejoin="round" stroke-width="1.5" d="M12 12v3"></path><path stroke="#323232" stroke-linecap="round" stroke-linejoin="round" stroke-width="1.5" d="M21 10.432v-2.255l5.60187e-08.000473365c0-.726282-.393727-1.39548-1.02859-1.74824l-1.97141-1.09623"></path><path stroke="#323232" stroke-linecap="round" stroke-linejoin="round" stroke-width="1.5" d="M3 13.568v2.255l-5.60186e-08-.000473063c1.09666e-07.726282.393728 1.39548 1.02859 1.74824l1.97141 1.09623"></path><path stroke="#323232" stroke-linecap="round" stroke-linejoin="round" stroke-width="1.5" d="M15 20.333l-2.029 1.127 1.19072e-07-6.61702e-08c-.604156.335739-1.33884.335739-1.943 2.04362e-07l-2.028-1.127"></path><path stroke="#323232" stroke-linecap="round" stroke-linejoin="round" stroke-width="1.5" d="M9 3.667l2.029-1.127 -2.71904e-07 1.51101e-07c.604156-.335739 1.33884-.335739 1.943-3.74224e-07l2.028 1.127"></path></g></svg>