<?xml version="1.0" encoding="UTF-8"?><svg version="1.1" viewBox="0 0 24 24" xmlns="http://www.w3.org/2000/svg" xmlns:xlink="http://www.w3.org/1999/xlink"><!--Generated by IJSVG (https://github.com/iconjar/IJSVG)--><g fill="none"><path d="M0,0h24v24h-24Z"></path><path stroke="#323232" stroke-linecap="round" stroke-linejoin="round" stroke-width="1.5" d="M18.515,5.669l2.583,10.238c0.234,0.926 -0.22,1.888 -1.083,2.297l-7.159,3.391c-0.542,0.257 -1.17,0.257 -1.712,0l-7.159,-3.391c-0.863,-0.409 -1.317,-1.371 -1.083,-2.297l2.583,-10.238c0.151,-0.596 0.567,-1.09 1.13,-1.339l4.575,-2.026c0.516,-0.228 1.104,-0.228 1.619,0l4.575,2.026c0.563,0.248 0.98,0.742 1.131,1.339Z"></path><path stroke="#323232" stroke-linecap="round" stroke-linejoin="round" stroke-width="1.5" d="M3.033,17.248l8.111,-3.842c0.542,-0.257 1.17,-0.257 1.712,0l8.112,3.842"></path><path stroke="#323232" stroke-linecap="round" stroke-linejoin="round" stroke-width="1.5" d="M18.06,4.82l-5.25,2.324c-0.516,0.228 -1.104,0.228 -1.619,0l-5.252,-2.325"></path><path stroke="#323232" stroke-linecap="round" stroke-linejoin="round" stroke-width="1.5" d="M12,7.32v14.47"></path></g></svg>