<?xml version="1.0" encoding="UTF-8"?><svg version="1.1" viewBox="0 0 24 24" xmlns="http://www.w3.org/2000/svg" xmlns:xlink="http://www.w3.org/1999/xlink"><!--Generated by IJSVG (https://github.com/iconjar/IJSVG)--><g fill="none"><path d="M0,0h24v24h-24Z"></path><path stroke="#323232" stroke-linecap="round" stroke-linejoin="round" stroke-width="1.5" d="M18.364,3.87175c3.51472,1.393 3.51472,3.6515 0,5.0445c-3.51472,1.393 -9.2132,1.393 -12.7279,1.77636e-15c-3.51472,-1.393 -3.51472,-3.6515 -1.77636e-15,-5.0445c3.51472,-1.393 9.2132,-1.393 12.7279,-8.88178e-16"></path><path stroke="#323232" stroke-linecap="round" stroke-linejoin="round" stroke-width="1.5" d="M18.364,15.0838c3.51472,1.393 3.51472,3.6515 0,5.0445c-3.51472,1.393 -9.2132,1.393 -12.7279,0c-3.51472,-1.393 -3.51472,-3.6515 -1.77636e-15,-5.0445c3.51472,-1.393 9.2132,-1.393 12.7279,-1.77636e-15"></path><path stroke="#323232" stroke-linecap="round" stroke-linejoin="round" stroke-width="1.5" d="M21,6.39v11.22"></path><path stroke="#323232" stroke-linecap="round" stroke-linejoin="round" stroke-width="1.5" d="M3,6.39v11.22"></path></g></svg>