<?xml version="1.0" encoding="UTF-8"?><svg version="1.1" viewBox="0 0 24 24" xmlns="http://www.w3.org/2000/svg" xmlns:xlink="http://www.w3.org/1999/xlink"><!--Generated by IJSVG (https://github.com/iconjar/IJSVG)--><g fill="none"><path d="M0,0h24v24h-24Z"></path><path stroke="#323232" stroke-linecap="round" stroke-linejoin="round" stroke-width="1.5" d="M12.859,21.54l8.845,-8.845c0.395,-0.395 0.395,-0.996 0,-1.391l-8.845,-8.844c-0.459,-0.459 -1.259,-0.459 -1.718,-8.88178e-16l-8.845,8.845c-0.395,0.395 -0.395,0.996 0,1.391l8.845,8.845c0.459,0.458 1.259,0.458 1.718,-0.001Z"></path><path stroke="#323232" stroke-linecap="round" stroke-linejoin="round" stroke-width="1.5" d="M12.859,15.378l8.845,-3.132c0.395,-0.14 0.395,-0.353 0,-0.493l-8.845,-3.132c-0.459,-0.163 -1.259,-0.163 -1.718,0l-8.845,3.132c-0.395,0.14 -0.395,0.353 0,0.493l8.845,3.132c0.459,0.163 1.259,0.163 1.718,0Z"></path><path stroke="#323232" stroke-linecap="round" stroke-linejoin="round" stroke-width="1.5" d="M12,2.12v19.76"></path></g></svg>