<svg id="Layer_3" data-name="Layer 3" xmlns="http://www.w3.org/2000/svg" viewBox="0 0 24 24"><path d="M24,24H0V0H24Z" fill="none"/><path d="M7.07,13.5l3.86.0001" fill="none" stroke="#323232" stroke-linecap="round" stroke-linejoin="round" stroke-width="1.5"/><path d="M13.75,9.5h1.5a2,2,0,0,1,2,2v1a2,2,0,0,1-2,2h-1.5a0,0,0,0,1,0,0v-5A0,0,0,0,1,13.75,9.5Z" fill="none" stroke="#323232" stroke-linecap="round" stroke-linejoin="round" stroke-width="1.5"/><path d="M11.25,14.5,9.70562,9.67381A.24465.24465,0,0,0,9.47189,9.5l-.94379,0a.24463.24463,0,0,0-.23371.1738L6.75,14.49994" fill="none" stroke="#323232" stroke-linecap="round" stroke-linejoin="round" stroke-width="1.5"/><circle cx="19" cy="5" r="2" fill="none" stroke="#323232" stroke-linecap="round" stroke-linejoin="round" stroke-width="1.5"/><path d="M14.11111,2.77935A9.30913,9.30913,0,0,0,12,2.5,9.5,9.5,0,1,0,21.5,12a9.30868,9.30868,0,0,0-.27935-2.11111" fill="none" stroke="#323232" stroke-linecap="round" stroke-linejoin="round" stroke-width="1.5"/></svg>