<?xml version="1.0" encoding="UTF-8"?><svg version="1.1" viewBox="0 0 24 24" xmlns="http://www.w3.org/2000/svg" xmlns:xlink="http://www.w3.org/1999/xlink"><g stroke-linecap="round" stroke-width="1.5" stroke="#323232" fill="none" stroke-linejoin="round"><path d="M12 14.748l.34.533 -4.96184e-08-7.79044e-08c.483659.759379 1.32168 1.21912 2.222 1.219l-9.63465e-08-4.69125e-10c1.33762.00651311 2.42725-1.07256 2.43376-2.41018 .00202701-.416294-.103282-.826083-.305764-1.18982l-3.029-5.425 1.96451e-08 3.53703e-08c-.509504-.917345-1.66619-1.24797-2.58354-.738461 -.310299.172344-.566117.428162-.738461.738461l-3.029 5.425 -1.19684e-07 2.14999e-07c-.650607 1.16875-.23057 2.64363.938179 3.29424 .363739.202482.773528.307791 1.18982.305764l5.61578e-08 9.34364e-12c.90008.00014972 1.73797-.459145 2.222-1.218l.34-.534"></path><path d="M12 14.748l1.135-1.781 3.78418e-08-5.93626e-08c.399593-.626843.21537-1.45893-.411473-1.85853 -.626843-.399593-1.45893-.21537-1.85853.411473 -.281333.441329-.281333 1.00572 7.56835e-08 1.44705l1.135 1.781"></path><circle cx="12" cy="12" r="9"></circle></g><path fill="none" d="M0 24v-24h24v24Z"></path></svg>