<?xml version="1.0" encoding="UTF-8"?><svg version="1.1" viewBox="0 0 24 24" xmlns="http://www.w3.org/2000/svg" xmlns:xlink="http://www.w3.org/1999/xlink"><g fill="none"><path d="M0 0h24v24h-24v-24Z"></path><path stroke="#323232" stroke-linecap="round" stroke-linejoin="round" stroke-width="1.5" d="M5.121 6.203c-1.322 1.566-2.121 3.587-2.121 5.797 0 2.207.797 4.226 2.116 5.792"></path><path stroke="#323232" stroke-linecap="round" stroke-linejoin="round" stroke-width="1.5" d="M7.141 8.49c-.715.988-1.141 2.198-1.141 3.51 0 1.309.424 2.517 1.136 3.503"></path><path stroke="#323232" stroke-linecap="round" stroke-linejoin="round" stroke-width="1.5" d="M7.55 19.615l3.826-4.333c.332-.376.918-.376 1.25 0l3.826 4.333c.474.538.091 1.385-.626 1.385h-7.652c-.717 0-1.1-.847-.624-1.385Z"></path><path stroke="#323232" stroke-linecap="round" stroke-linejoin="round" stroke-width="1.5" d="M16.45 4.385l-3.826 4.333c-.332.376-.918.376-1.25 0l-3.826-4.333c-.474-.538-.091-1.385.626-1.385h7.652c.717 0 1.1.847.624 1.385Z"></path><path stroke="#323232" stroke-linecap="round" stroke-linejoin="round" stroke-width="1.5" d="M18.884 6.208c1.319 1.566 2.116 3.585 2.116 5.792 0 2.21-.799 4.231-2.121 5.797"></path><path stroke="#323232" stroke-linecap="round" stroke-linejoin="round" stroke-width="1.5" d="M16.864 8.497c.712.986 1.136 2.194 1.136 3.503 0 1.312-.426 2.522-1.141 3.51"></path></g></svg>