<svg id="Layer_3" data-name="Layer 3" xmlns="http://www.w3.org/2000/svg" viewBox="0 0 24 24"><path d="M14,9h1.29176a3.00013,3.00013,0,0,1,1.34167.31672l.58516.29258a3,3,0,0,1,1.23087,1.13981L21,15" fill="none" stroke="#323232" stroke-linecap="round" stroke-linejoin="round" stroke-width="1.5"/><path d="M11,18H5a2,2,0,0,1-2-2V5A2,2,0,0,1,5,3h7a2,2,0,0,1,2,2v9" fill="none" stroke="#323232" stroke-linecap="round" stroke-linejoin="round" stroke-width="1.5"/><path d="M16,21l-2.75139-1.058a4,4,0,0,1-1.95718-1.61478L8.24269,13.44518a1.5985,1.5985,0,0,1,.22554-1.977h0a1.59851,1.59851,0,0,1,2.31936.062L13.00677,14H15" fill="none" stroke="#323232" stroke-linecap="round" stroke-linejoin="round" stroke-width="1.5"/><line x1="6" y1="7" x2="6" y2="7" fill="none" stroke="#323232" stroke-linecap="round" stroke-linejoin="round" stroke-width="1.5"/><line x1="8.5" y1="7" x2="8.5" y2="7" fill="none" stroke="#323232" stroke-linecap="round" stroke-linejoin="round" stroke-width="1.5"/><line x1="11" y1="7" x2="11" y2="7" fill="none" stroke="#323232" stroke-linecap="round" stroke-linejoin="round" stroke-width="1.5"/><rect width="24" height="24" fill="none"/></svg>