<svg id="Layer_3" data-name="Layer 3" xmlns="http://www.w3.org/2000/svg" viewBox="0 0 24 24"><path d="M15.5,14H16a1.5,1.5,0,0,0,1.5-1.5v-3A1.5,1.5,0,0,0,16,8H8A1.5,1.5,0,0,0,6.5,9.5v3A1.5,1.5,0,0,0,8,14h.5" fill="none" stroke="#323232" stroke-linecap="round" stroke-linejoin="round" stroke-width="1.5"/><path d="M11.60081,14.0489l-1.99907,2.65a.5.5,0,0,0,.39919.80108h3.99814a.5.5,0,0,0,.39919-.80108l-1.99907-2.65A.5.5,0,0,0,11.60081,14.0489Z" fill="none" stroke="#323232" stroke-linecap="round" stroke-linejoin="round" stroke-width="1.5"/><rect x="3" y="3" width="18" height="18" rx="5" stroke-width="1.5" stroke="#323232" stroke-linecap="round" stroke-linejoin="round" fill="none"/><path d="M0,24V0H24V24Z" fill="none"/></svg>