<?xml version="1.0" encoding="UTF-8"?><svg version="1.1" viewBox="0 0 24 24" xmlns="http://www.w3.org/2000/svg" xmlns:xlink="http://www.w3.org/1999/xlink"><g stroke-linecap="round" stroke-width="1.5" stroke="#323232" fill="none" stroke-linejoin="round"><path d="M7.755 19.314l3.488-3.971 -1.43554e-08 1.63641e-08c.36676-.41808 1.003-.459682 1.42108-.0929217 .032964.0289177.064004.0599577.0929217.0929217l3.488 3.971 2.24885e-08 2.55228e-08c.370591.420594.330056 1.06198-.0905382 1.43257 -.183936.162069-.420315.25209-.665462.253431h-6.978l-1.58375e-08-8.66507e-11c-.560561-.00306708-1.0125-.459978-1.00943-1.02054 .00134131-.245147.0913625-.481525.253431-.665462Z"></path><path d="M17 16h2l-8.74228e-08-1.77636e-15c1.10457 4.82823e-08 2-.89543 2-2v-8 0c0-1.10457-.895431-2-2-2h-14l-8.74228e-08 1.77636e-15c-1.10457 4.82823e-08-2 .895431-2 2 0 0 0 8.88178e-16 0 8.88178e-16v8l2.30926e-14 3.01992e-07c1.66785e-07 1.10457.895431 2 2 2h2"></path></g><path fill="none" d="M0 0h24v24h-24Z"></path></svg>