<svg id="Layer_3" data-name="Layer 3" xmlns="http://www.w3.org/2000/svg" viewBox="0 0 24 24"><rect width="24" height="24" fill="none"/><line x1="21" y1="10" x2="3" y2="10" fill="none" stroke="#323232" stroke-linecap="round" stroke-linejoin="round" stroke-width="1.5"/><path d="M21,9.09023v5.81952A4.99607,4.99607,0,0,1,16.23827,19.903c-2.73753.12934-5.739.12934-8.47653,0A4.99606,4.99606,0,0,1,3,14.90977V9.09025A4.99607,4.99607,0,0,1,7.76173,4.097c2.73753-.12934,5.739-.12934,8.47653,0A4.99606,4.99606,0,0,1,21,9.09023Z" fill="none" stroke="#323232" stroke-linecap="round" stroke-linejoin="round" stroke-width="1.5"/><path d="M12,13.995l.005.005L12,14.005,11.995,14,12,13.995" fill="none" stroke="#323232" stroke-linecap="round" stroke-linejoin="round" stroke-width="1.5"/></svg>