<svg id="Layer_3" data-name="Layer 3" xmlns="http://www.w3.org/2000/svg" viewBox="0 0 24 24"><path d="M0,0H24V24H0Z" fill="none"/><path d="M15.3587,13,11.6516,9.29289A1,1,0,0,0,10.94449,9h-.94315A1,1,0,0,0,9.113,10.4592L10.42642,13" fill="none" stroke="#323232" stroke-linecap="round" stroke-linejoin="round" stroke-width="1.5"/><path d="M9.42642,17,8.113,19.5408A1,1,0,0,0,9.00134,21h.94315a1,1,0,0,0,.70711-.29289L14.3587,17H19a2,2,0,0,0,2-2h0a2,2,0,0,0-2-2H6.61334l-.72361-1.44721A1,1,0,0,0,4.99531,11H4.00077a1,1,0,0,0-.94869,1.31623l1.10541,3.31623A2,2,0,0,0,6.05486,17Z" fill="none" stroke="#323232" stroke-linecap="round" stroke-linejoin="round" stroke-width="1.5"/><circle cx="5" cy="5" r="2" fill="none" stroke="#323232" stroke-linecap="round" stroke-linejoin="round" stroke-width="1.5"/><path d="M20.22917,8H16.45833a1.45834,1.45834,0,0,1,0-2.91667,2.07768,2.07768,0,0,1,4.07-.59487A1.7683,1.7683,0,0,1,20.22917,8Z" fill="none" stroke="#323232" stroke-linecap="round" stroke-linejoin="round" stroke-width="1.5"/></svg>