<?xml version="1.0" encoding="UTF-8"?><svg version="1.1" viewBox="0 0 24 24" xmlns="http://www.w3.org/2000/svg" xmlns:xlink="http://www.w3.org/1999/xlink"><g stroke-linecap="round" stroke-width="1.5" stroke="#323232" fill="none" stroke-linejoin="round"><path d="M7.545 19.615l3.826-4.333c.332-.376.918-.376 1.25 0l3.826 4.333c.474.538.091 1.385-.626 1.385h-7.652c-.717 0-1.1-.847-.624-1.385Z"></path><path d="M18.879 17.797c1.322-1.566 2.121-3.587 2.121-5.797 0-4.971-4.029-9-9-9 -4.971 0-9 4.029-9 9 0 2.207.797 4.226 2.116 5.792"></path><path d="M16.859 15.51c.715-.988 1.141-2.198 1.141-3.51 0-3.314-2.686-6-6-6 -3.314 0-6 2.686-6 6 0 1.309.424 2.517 1.136 3.503"></path><path d="M14.771 13.145c.146-.353.229-.739.229-1.145 0-1.657-1.343-3-3-3 -1.657 0-3 1.343-3 3 0 .403.082.785.226 1.136"></path></g><path fill="none" d="M0 0h24v24h-24v-24Z"></path></svg>