<?xml version="1.0" encoding="UTF-8"?><svg version="1.1" viewBox="0 0 24 24" xmlns="http://www.w3.org/2000/svg" xmlns:xlink="http://www.w3.org/1999/xlink"><g stroke-linecap="round" stroke-width="1.5" stroke="#323232" fill="none" stroke-linejoin="round"><path d="M13.208 15.4l3.438 2.578 1.13367e-07 8.44255e-08c.742826.553192.896555 1.60382.343362 2.34665 -.317387.426187-.81798.676732-1.34936.675351h-7.28l-1.5457e-08 3.0731e-12c-.926182.000184233-1.67715-.750485-1.67733-1.67667 -.000105068-.5282.248648-1.02558.671334-1.34233l3.439-2.581 1.12377e-07-8.42497e-08c.715611-.5365 1.69939-.5365 2.415 1.68499e-07Z"></path><path d="M7 15h-1l-1.31134e-07-3.55271e-15c-1.65685-7.24234e-08-3-1.34315-3-3 0 0 0-1.77636e-15 0-1.77636e-15v-6l3.37508e-14 4.52987e-07c-2.50178e-07-1.65685 1.34315-3 3-3h12l-1.31134e-07 3.55271e-15c1.65685-7.24234e-08 3 1.34315 3 3v6 0c0 1.65685-1.34315 3-3 3h-1"></path></g><rect width="24" height="24" fill="none"></rect></svg>