<svg id="Layer_3" data-name="Layer 3" xmlns="http://www.w3.org/2000/svg" viewBox="0 0 24 24"><path d="M13.5,13.31312l-.00006,2.577,1.1.82476A1,1,0,0,1,15,17.515v.98476a.5.5,0,0,1-.62123.48508L12,18.39035l-2.37877.59449A.5.5,0,0,1,9,18.49976V17.515a1,1,0,0,1,.4001-.80008l1.1-.82476L10.5,13.31312,6.71177,15.08428A.5.5,0,0,1,6,14.63134V13.00205A1,1,0,0,1,6.4453,12.17L10.5,9.46686V6.5A1.5,1.5,0,0,1,12,5h0a1.5,1.5,0,0,1,1.5,1.5V9.46686L17.5547,12.17A1,1,0,0,1,18,13.00205v1.62929a.5.5,0,0,1-.71177.45294Z" fill="none" stroke="#323232" stroke-linecap="round" stroke-linejoin="round" stroke-width="1.5"/><rect x="2" y="2.00001" width="20" height="20" rx="5" stroke-width="1.5" stroke="#323232" stroke-linecap="round" stroke-linejoin="round" fill="none"/><path d="M24,0H0V24H24Z" fill="none"/></svg>