<svg id="Layer_3" data-name="Layer 3" xmlns="http://www.w3.org/2000/svg" viewBox="0 0 24 24"><circle cx="12" cy="12" r="9" fill="none" stroke="#323232" stroke-linecap="round" stroke-linejoin="round" stroke-width="1.5"/><path d="M11.77016,9.86424c-.312,0-.79862-.36424-1.30455-.36424a1.93214,1.93214,0,0,0-1.63445,1.014,4.11321,4.11321,0,0,0,.50092,3.98379c.33419.47874.72778,1.0176,1.24946,1.00185.50092-.02147.68841-.32488,1.296-.32488s.775.32488,1.30527.312.88163-.48733,1.21081-.97036a4.30587,4.30587,0,0,0,.54745-1.12566,1.74536,1.74536,0,0,1-1.06125-1.6001,1.77539,1.77539,0,0,1,.85873-1.50277A1.85271,1.85271,0,0,0,13.293,9.505C12.63032,9.45349,12.07859,9.86424,11.77016,9.86424Z" fill="none" stroke="#323232" stroke-linecap="round" stroke-linejoin="round" stroke-width="1.5"/><line x1="11.86989" y1="7.5" x2="12.28923" y2="7" fill="none" stroke="#323232" stroke-linecap="round" stroke-linejoin="round" stroke-width="1.5"/><path d="M0,24V0H24V24Z" fill="none"/></svg>