<?xml version="1.0" encoding="UTF-8"?><svg version="1.1" viewBox="0 0 24 24" xmlns="http://www.w3.org/2000/svg" xmlns:xlink="http://www.w3.org/1999/xlink"><g stroke-linecap="round" stroke-width="1.5" stroke="#323232" fill="none" stroke-linejoin="round"><path d="M3.469 6.383l7.794-3.091 1.15279e-07-4.55118e-08c.473549-.186956 1.00045-.186955 1.474 9.10236e-08l7.794 3.091 -1.90136e-08-7.51467e-09c.102725.0405995.153088.156787.112488.259512 -.0203292.0514369-.0610512.0921589-.112488.112488l-7.794 3.091 -5.59405e-08 2.20851e-08c-.473549.186956-1.00045.186956-1.474-4.41703e-08l-7.794-3.091 2.75301e-09 1.08806e-09c-.102725-.0405995-.153088-.156787-.112488-.259512 .0203292-.0514369.0610512-.0921589.112488-.112488Z"></path><path d="M3 9.937v7.609l-9.00084e-09-9.64896e-06c.000126133.138071.112157.249898.250228.249772 .030696-2.80418e-05.0611244-.00570892.0897627-.0167584l7-2.717 -1.17725e-08 4.50544e-09c.0965175-.0369382.160186-.129656.16-.233v-2.116l-2.94986e-09 3.25247e-06c9.36132e-05-.102478-.0626077-.194549-.157997-.232002l-7-2.776 -6.18384e-09-2.44723e-09c-.128383-.0508071-.273646.0120808-.324453.140464 -.0115329.0291423-.0174833.0601933-.0175409.0915346Z"></path><path d="M13.5 20.546v-7.8l-3.7163e-09-2.06672e-06c-.000185401-.103344.0634841-.196061.160002-.232999l7-2.717 1.96283e-08-7.57401e-09c.128814-.0497057.273532.0144241.323238.143238 .0110506.0286379.0167326.0590661.0167618.0897621v7.8l3.69499e-09 2.05484e-06c.000185406.103344-.0634841.196061-.160002.232999l-7 2.717 -2.3313e-08 8.99584e-09c-.128814.0497057-.273532-.0144241-.323238-.143238 -.0110506-.0286379-.0167326-.0590661-.0167618-.0897621Z"></path></g><path fill="none" d="M0 24v-24h24v24Z"></path></svg>