<?xml version="1.0" encoding="UTF-8"?><svg version="1.1" viewBox="0 0 24 24" xmlns="http://www.w3.org/2000/svg" xmlns:xlink="http://www.w3.org/1999/xlink"><g fill="none"><path d="M0 0h24v24h-24Z"></path><path stroke="#323232" stroke-linecap="round" stroke-linejoin="round" stroke-width="1.5" d="M12.718 6.985v4.651l3.656 2.229"></path><path stroke="#323232" stroke-linecap="round" stroke-linejoin="round" stroke-width="1.5" d="M4.059 10l-4.0707e-07 3.64095e-06c.552283-4.93979 5.00448-8.49656 9.94427-7.94428 4.93979.552283 8.49656 5.00448 7.94428 9.94427 -.509425 4.55645-4.3627 8.00167-8.94754 8"></path><path stroke="#323232" stroke-linecap="round" stroke-linejoin="round" stroke-width="1.5" d="M6.833 16.167l-1.666 1.666"></path><path stroke="#323232" stroke-linecap="round" stroke-linejoin="round" stroke-width="1.5" d="M5.167 16.167l1.666 1.666"></path><path stroke="#323232" stroke-linecap="round" stroke-linejoin="round" stroke-width="1.5" d="M8 21h-4l-8.74228e-08-3.55271e-15c-1.10457-4.82823e-08-2-.895431-2-2 0 0 0 0 0 0v-4l2.30926e-14 3.01992e-07c-1.66785e-07-1.10457.89543-2 2-2h4l-8.74228e-08 1.77636e-15c1.10457-4.82823e-08 2 .89543 2 2v4l3.55271e-15 8.74228e-08c0 1.10457-.895431 2-2 2 -2.70922e-08 0-6.03305e-08 0-8.74228e-08-3.55271e-15Z"></path></g></svg>