<?xml version="1.0" encoding="UTF-8"?><svg version="1.1" viewBox="0 0 24 24" xmlns="http://www.w3.org/2000/svg" xmlns:xlink="http://www.w3.org/1999/xlink"><g stroke-linecap="round" stroke-width="1.5" stroke="#323232" fill="none" stroke-linejoin="round"><path d="M5.636 5.636c3.515-3.515 9.213-3.515 12.728 0 3.515 3.515 3.515 9.213 0 12.728 -3.515 3.515-9.213 3.515-12.728 0 -3.515-3.515-3.515-9.213-8.88178e-16-12.728"></path><path d="M12.008 10c-1.112 0-2.008.896-2.008 2 0 1.104.896 2 2 2 1.104 0 2-.896 2-2 .008-1.104-.888-2-1.992-2"></path><path d="M17.518 10.982c.066.33.107.668.107 1.018"></path><path d="M12 6.375c.35 0 .688.04 1.018.107"></path><path d="M6.375 12c0-3.106 2.519-5.625 5.625-5.625"></path><path d="M13.42 10.58l2.56-2.56"></path></g><path fill="none" d="M0 0h24v24h-24Z"></path></svg>