<?xml version="1.0" encoding="UTF-8"?><svg version="1.1" viewBox="0 0 24 24" xmlns="http://www.w3.org/2000/svg" xmlns:xlink="http://www.w3.org/1999/xlink"><g fill="none"><path d="M0 0h24v24h-24v-24Z"></path><path stroke="#323232" stroke-linecap="round" stroke-linejoin="round" stroke-width="1.5" d="M20 20.83l-2.26-2.26"></path><path stroke="#323232" stroke-linecap="round" stroke-linejoin="round" stroke-width="1.5" d="M6.26 18.57l-2.26 2.26"></path><path stroke="#323232" stroke-linecap="round" stroke-linejoin="round" stroke-width="1.5" d="M8.939 5.611c4.082-1.691 8.761.247 10.452 4.329 1.691 4.082-.248 8.761-4.329 10.451 -4.082 1.691-8.761-.248-10.451-4.329 -1.691-4.081.247-8.761 4.328-10.451"></path><path stroke="#323232" stroke-linecap="round" stroke-linejoin="round" stroke-width="1.5" d="M11.75 9.432v4.135l3.25 1.982"></path><path stroke="#323232" stroke-linecap="round" stroke-linejoin="round" stroke-width="1.5" d="M7.514 3.1c-1.197-.34-2.534-.055-3.476.887 -.811.812-1.133 1.918-.993 2.975"></path><path stroke="#323232" stroke-linecap="round" stroke-linejoin="round" stroke-width="1.5" d="M16.499 3.1c1.197-.34 2.533-.055 3.475.887 .812.812 1.134 1.918.994 2.975"></path></g></svg>