<?xml version="1.0" encoding="UTF-8"?><svg version="1.1" viewBox="0 0 24 24" xmlns="http://www.w3.org/2000/svg" xmlns:xlink="http://www.w3.org/1999/xlink"><!--Generated by IJSVG (https://github.com/iconjar/IJSVG)--><g stroke-linecap="round" stroke-width="1.5" stroke="#323232" fill="none" stroke-linejoin="round"><path d="M4.8,6.6v5.4"></path><path d="M13.8,12v-5.4"></path><path d="M14.7,15.6h-1.8c-0.497,0 -0.9,-0.403 -0.9,-0.9v-1.8c0,-0.497 0.403,-0.9 0.9,-0.9h1.8c0.497,0 0.9,0.403 0.9,0.9v1.8c0,0.497 -0.403,0.9 -0.9,0.9Z"></path><path d="M5.7,15.6h-1.8c-0.497,0 -0.9,-0.403 -0.9,-0.9v-1.8c0,-0.497 0.403,-0.9 0.9,-0.9h1.8c0.497,0 0.9,0.403 0.9,0.9v1.8c-8.88178e-16,0.497 -0.403,0.9 -0.9,0.9Z"></path><path d="M14.7,6.6h-1.8c-0.497,0 -0.9,-0.403 -0.9,-0.9v-1.8c1.77636e-15,-0.497 0.403,-0.9 0.9,-0.9h1.8c0.497,0 0.9,0.403 0.9,0.9v1.8c-1.77636e-15,0.497 -0.403,0.9 -0.9,0.9Z"></path><path d="M5.7,6.6h-1.8c-0.497,0 -0.9,-0.403 -0.9,-0.9v-1.8c0,-0.497 0.403,-0.9 0.9,-0.9h1.8c0.497,0 0.9,0.403 0.9,0.9v1.8c-8.88178e-16,0.497 -0.403,0.9 -0.9,0.9Z"></path><path d="M6.6,13.8h5.4"></path><path d="M9.3,13.8v3.6"></path><path d="M19.2,17.4v-6.3"></path><path d="M20.1,21h-1.8c-0.497,0 -0.9,-0.403 -0.9,-0.9v-1.8c0,-0.497 0.403,-0.9 0.9,-0.9h1.8c0.497,0 0.9,0.403 0.9,0.9v1.8c0,0.497 -0.403,0.9 -0.9,0.9Z"></path><path d="M10.2,21h-1.8c-0.497,0 -0.9,-0.403 -0.9,-0.9v-1.8c0,-0.497 0.403,-0.9 0.9,-0.9h1.8c0.497,0 0.9,0.403 0.9,0.9v1.8c-1.77636e-15,0.497 -0.403,0.9 -0.9,0.9Z"></path><path d="M20.1,11.1h-1.8c-0.497,0 -0.9,-0.403 -0.9,-0.9v-1.8c0,-0.497 0.403,-0.9 0.9,-0.9h1.8c0.497,0 0.9,0.403 0.9,0.9v1.8c0,0.497 -0.403,0.9 -0.9,0.9Z"></path><path d="M11.1,19.2h6.3"></path><path d="M12,4.8h-5.4"></path><path d="M17.4,9.3h-3.6"></path></g><path fill="none" d="M0,0h24v24h-24Z"></path></svg>