<?xml version="1.0" encoding="UTF-8"?><svg version="1.1" viewBox="0 0 24 24" xmlns="http://www.w3.org/2000/svg" xmlns:xlink="http://www.w3.org/1999/xlink"><!--Generated by IJSVG (https://github.com/iconjar/IJSVG)--><g stroke-linecap="round" stroke-width="1.5" stroke="#323232" fill="none" stroke-linejoin="round"><path d="M13,7h-2c-0.552,0 -1,-0.448 -1,-1v-2c0,-0.552 0.448,-1 1,-1h2c0.552,0 1,0.448 1,1v2c0,0.552 -0.448,1 -1,1Z"></path><path d="M20,14h-2c-0.552,0 -1,-0.448 -1,-1v-2c0,-0.552 0.448,-1 1,-1h2c0.552,0 1,0.448 1,1v2c0,0.552 -0.448,1 -1,1Z"></path><path d="M13,21h-2c-0.552,0 -1,-0.448 -1,-1v-2c0,-0.552 0.448,-1 1,-1h2c0.552,0 1,0.448 1,1v2c0,0.552 -0.448,1 -1,1Z"></path><path d="M6,14h-2c-0.552,0 -1,-0.448 -1,-1v-2c0,-0.552 0.448,-1 1,-1h2c0.552,0 1,0.448 1,1v2c0,0.552 -0.448,1 -1,1Z"></path><path d="M18.937,14c-0.686,2.383 -2.554,4.25 -4.937,4.937"></path><path d="M5.063,10c0.687,-2.383 2.555,-4.25 4.937,-4.937"></path><path d="M10,18.937c-2.382,-0.687 -4.25,-2.554 -4.937,-4.937"></path><path d="M18.937,10c-0.687,-2.383 -2.555,-4.25 -4.937,-4.937"></path></g><path fill="none" d="M0,0h24v24h-24Z"></path></svg>