<svg viewBox="0 0 24 24" xmlns="http://www.w3.org/2000/svg"><g stroke-linecap="round" stroke-width="1.5" stroke="#323232" fill="none" stroke-linejoin="round"><path d="M14.991 14.5v0l-3-7v0l-3.01 7v0"/><path d="M12.99 20.66l5.35-2.97 0-.01c.57-.33.96-.9 1.04-1.56l1-8.68 0-.01c.1-.95-.45-1.85-1.35-2.17l-6.36-2.27 -.01-.01c-.45-.16-.94-.16-1.38 0L4.92 5.24l0-.01c-.9.31-1.46 1.21-1.35 2.16l1 8.67 -.01-.01c.07.65.46 1.23 1.04 1.55l5.35 2.96 -.01-.01c.61.34 1.36.34 1.98 0Z"/><path d="M9.66 12.93l4.66 0"/></g><path fill="none" d="M0 0h24v24H0Z"/></svg>