<?xml version="1.0" encoding="UTF-8"?><svg version="1.1" viewBox="0 0 24 24" xmlns="http://www.w3.org/2000/svg" xmlns:xlink="http://www.w3.org/1999/xlink"><g stroke-linecap="round" stroke-width="1.5" stroke="#323232" fill="none" stroke-linejoin="round"><rect width="18" height="16" x="3" y="4" rx="2.20912" ry="0"></rect><path d="M12 11.625v0l-1.31134e-07 3.55271e-15c1.65685-7.24234e-08 3 1.34315 3 3v0 0c0 .552285-.447715 1-1 1h-4l-4.37114e-08-1.77636e-15c-.552285-2.41411e-08-1-.447715-1-1 0 0 0 0 0 0v0l2.84217e-14-2.78142e-07c2.50178e-07-1.65685 1.34315-3 3-3Z"></path><path d="M9 9.375l4.6214e-09-1.84865e-11c-.13807.000552282-.24955.112928-.248998.250998 .000552282.13807.112928.24955.250998.248998 .137679-.000550718.248999-.112316.249-.249996l7.21973e-09-1.78492e-06c.000555747-.137518-.110474-.249448-.247992-.250004 -.00100337-4.05488e-06-.00200675-2.04494e-06-.00301009 6.02972e-06"></path><path d="M15 9.375l4.6214e-09-1.84865e-11c-.13807.000552282-.24955.112928-.248998.250998 .000552282.13807.112928.24955.250998.248998 .137679-.000550718.248999-.112316.249-.249996l7.21973e-09-1.78492e-06c.000555747-.137518-.110474-.249448-.247992-.250004 -.00100337-4.05488e-06-.00200675-2.04494e-06-.00301009 6.02972e-06"></path><path d="M12 8.375l4.6214e-09-1.84865e-11c-.13807.000552282-.24955.112928-.248998.250998 .000552282.13807.112928.24955.250998.248998 .137679-.000550718.248999-.112316.249-.249996l7.21973e-09-1.78492e-06c.000555747-.137518-.110474-.249448-.247992-.250004 -.00100337-4.05488e-06-.00200675-2.04494e-06-.00301009 6.02972e-06"></path></g><rect width="24" height="24" fill="none"></rect></svg>