<?xml version="1.0" encoding="UTF-8"?><svg version="1.1" viewBox="0 0 24 24" xmlns="http://www.w3.org/2000/svg" xmlns:xlink="http://www.w3.org/1999/xlink"><g stroke-linecap="round" stroke-width="1.5" stroke="#323232" fill="none" stroke-linejoin="round"><path d="M9 18h-4l-8.74228e-08-3.55271e-15c-1.10457-4.82823e-08-2-.895431-2-2 0 0 0 0 0 0v-10l2.30926e-14 3.01992e-07c-1.66785e-07-1.10457.89543-2 2-2h12l-8.74228e-08 1.77636e-15c1.10457-4.82823e-08 2 .89543 2 2v5"></path><line x1="19" x2="3" y1="9" y2="9"></line><line x1="7.5" x2="7.5" y1="2.5" y2="5.5"></line><line x1="14.5" x2="14.5" y1="2.5" y2="5.5"></line><path d="M16 17v0l-1.31134e-07 3.55271e-15c1.65685-7.24234e-08 3 1.34315 3 3v0 0c0 .552285-.447715 1-1 1h-4 -4.37114e-08c-.552285-2.41411e-08-1-.447715-1-1 0 0 0-3.55271e-15 0-3.55271e-15v0l3.19744e-14 4.52987e-07c-2.50178e-07-1.65685 1.34315-3 3-3Z"></path><path d="M13 14.75l4.6214e-09-1.84848e-11c-.13807.000552282-.24955.112928-.248998.250998 .000552282.13807.112928.24955.250998.248998 .137679-.000550718.248999-.112316.249-.249996l7.21973e-09-1.78492e-06c.000555747-.137518-.110474-.249448-.247992-.250004 -.00100337-4.05488e-06-.00200675-2.04494e-06-.00301009 6.02972e-06"></path><path d="M19 14.75l4.62141e-09-1.84848e-11c-.13807.000552282-.24955.112928-.248998.250998 .000552282.13807.112928.24955.250998.248998 .137679-.000550718.248999-.112316.249-.249996l7.21973e-09-1.78492e-06c.000555747-.137518-.110474-.249448-.247992-.250004 -.00100337-4.05488e-06-.00200675-2.04494e-06-.00301009 6.02972e-06"></path><path d="M16 13.75l4.62141e-09-1.84848e-11c-.13807.000552282-.24955.112928-.248998.250998 .000552282.13807.112928.24955.250998.248998 .137679-.000550718.248999-.112316.249-.249996l7.21973e-09-1.78492e-06c.000555747-.137518-.110474-.249448-.247992-.250004 -.00100337-4.05488e-06-.00200675-2.04494e-06-.00301009 6.02972e-06"></path></g><rect width="24" height="24" fill="none"></rect></svg>