<?xml version="1.0" encoding="UTF-8"?><svg version="1.1" viewBox="0 0 24 24" xmlns="http://www.w3.org/2000/svg" xmlns:xlink="http://www.w3.org/1999/xlink"><g stroke-linecap="round" stroke-width="1.5" stroke="#323232" fill="none" stroke-linejoin="round"><path d="M12 10.25v0l-1.31134e-07 3.55271e-15c1.65685-7.24234e-08 3 1.34315 3 3v0 0c0 .552285-.447715 1-1 1h-4l-4.37114e-08-1.77636e-15c-.552285-2.41411e-08-1-.447715-1-1 0 0 0 0 0 0v0l3.37508e-14 4.52987e-07c-2.50178e-07-1.65685 1.34315-3 3-3Z"></path><path d="M17.778 21h-11.556l-9.71267e-08-3.55271e-15c-1.22718-5.36416e-08-2.222-.994823-2.222-2.222 0 0 0 0 0 0v-13.556l2.4869e-14-3.35513e-07c1.85299e-07-1.22718.994824-2.222 2.222-2.222h11.556l-9.71267e-08 1.77636e-15c1.22718-5.36416e-08 2.222.994823 2.222 2.222v13.556 0c0 1.22718-.994823 2.222-2.222 2.222Z"></path><path d="M15 17.5h-6"></path><path d="M9 8l4.6214e-09-1.84848e-11c-.13807.000552282-.24955.112928-.248998.250998 .000552282.13807.112928.24955.250998.248998 .137679-.000550718.248999-.112316.249-.249996l7.21973e-09-1.78492e-06c.000555747-.137518-.110474-.249448-.247992-.250004 -.00100337-4.05488e-06-.00200675-2.04494e-06-.00301009 6.02972e-06"></path><path d="M15 8l4.6214e-09-1.84848e-11c-.13807.000552282-.24955.112928-.248998.250998 .000552282.13807.112928.24955.250998.248998 .137679-.000550718.248999-.112316.249-.249996l7.21973e-09-1.78492e-06c.000555747-.137518-.110474-.249448-.247992-.250004 -.00100337-4.05488e-06-.00200675-2.04494e-06-.00301009 6.02972e-06"></path><path d="M12 7l4.6214e-09-1.84857e-11c-.13807.000552282-.24955.112928-.248998.250998 .000552282.13807.112928.24955.250998.248998 .137679-.000550718.248999-.112316.249-.249996l7.21973e-09-1.78492e-06c.000555747-.137518-.110474-.249448-.247992-.250004 -.00100337-4.05488e-06-.00200675-2.04494e-06-.00301009 6.02972e-06"></path></g><rect width="24" height="24" fill="none"></rect></svg>