<svg id="Layer_3" data-name="Layer 3" xmlns="http://www.w3.org/2000/svg" viewBox="0 0 24 24"><rect x="3" y="3" width="18" height="18" rx="5" stroke-width="1.5" stroke="#323232" stroke-linecap="round" stroke-linejoin="round" fill="none"/><path d="M11.99968,11.5h0a3,3,0,0,1,3,3v0a1,1,0,0,1-1,1h-4a1,1,0,0,1-1-1v0a3,3,0,0,1,3-3Z" fill="none" stroke="#323232" stroke-linecap="round" stroke-linejoin="round" stroke-width="1.5"/><path d="M12.25,8.50032A.25.25,0,1,1,11.99968,8.25a.25.25,0,0,1,.25032.25031" fill="none" stroke="#323232" stroke-linecap="round" stroke-linejoin="round" stroke-width="1.5"/><path d="M15.25,9.50032A.25.25,0,1,1,14.99968,9.25a.25.25,0,0,1,.25032.25031" fill="none" stroke="#323232" stroke-linecap="round" stroke-linejoin="round" stroke-width="1.5"/><path d="M9.25,9.50032A.25.25,0,1,1,8.99968,9.25.25.25,0,0,1,9.25,9.50032" fill="none" stroke="#323232" stroke-linecap="round" stroke-linejoin="round" stroke-width="1.5"/><rect width="24" height="24" fill="none"/></svg>