<svg viewBox="0 0 24 24" xmlns="http://www.w3.org/2000/svg"><g stroke-linecap="round" stroke-width="1.5" stroke="#323232" fill="none" stroke-linejoin="round"><path d="M19.04 17.25l-6.02 3.46 0-.01c-.65.36-1.43.36-2.07 0l-6.02-3.47 -.01-.01c-.65-.37-1.04-1.06-1.04-1.8V8.49l-.001-.01c-.01-.75.39-1.43 1.03-1.8l6.01-3.47 -.01 0c.64-.37 1.42-.37 2.06-.01l6.01 3.46 -.01-.01c.64.36 1.03 1.05 1.03 1.79v6.92l0 0c0 .74-.4 1.42-1.04 1.79Z"/><path d="M15.64 14.72l-3.12 1.79 0-.01c-.34.19-.74.19-1.08 0l-3.12-1.8 -.01-.01c-.34-.2-.54-.55-.54-.93v-3.59l-.01 0c0-.39.2-.74.53-.93l3.11-1.8 -.01 0c.33-.2.73-.2 1.07-.01l3.11 1.79 0 0c.33.19.53.54.53.92v3.58l0-.01c0 .38-.21.73-.54.92Z"/><path d="M19.8 7.5L12 12"/><path d="M4.2 7.5L12 12"/><path d="M12 12l0 9"/><path d="M12 3l0 4.34"/><path d="M16.04 14.33l3.76 2.17"/><path d="M4.2 16.5l3.76-2.17"/></g><path fill="none" d="M0 0h24v24H0Z"/></svg>