<?xml version="1.0" encoding="UTF-8"?><svg version="1.1" viewBox="0 0 24 24" xmlns="http://www.w3.org/2000/svg" xmlns:xlink="http://www.w3.org/1999/xlink"><!--Generated by IJSVG (https://github.com/iconjar/IJSVG)--><g stroke-linecap="round" stroke-width="1.5" stroke="#323232" fill="none" stroke-linejoin="round"><path d="M19,13h-14c-1.657,0 -3,-1.343 -3,-3v-4c0,-1.657 1.343,-3 3,-3h14c1.657,0 3,1.343 3,3v4c0,1.657 -1.343,3 -3,3Z"></path><path d="M18,6h-2"></path><path d="M18,13v-1c0,-1.105 -0.895,-2 -2,-2h-8c-1.105,0 -2,0.895 -2,2v1"></path><path d="M12,19.5v1.5"></path><path d="M17.25,18.75l-0.75,-0.75"></path><path d="M6.75,18.75l0.75,-0.75"></path></g><path fill="none" d="M0,0h24v24h-24Z" transform="matrix(-1,-4.50201e-11,4.50201e-11,-1,24,24)"></path></svg>