<?xml version="1.0" encoding="UTF-8"?><svg version="1.1" viewBox="0 0 24 24" xmlns="http://www.w3.org/2000/svg" xmlns:xlink="http://www.w3.org/1999/xlink"><!--Generated by IJSVG (https://github.com/iconjar/IJSVG)--><g stroke-linecap="round" stroke-width="1.5" stroke="#323232" fill="none" stroke-linejoin="round"><path d="M11.592,9.168c-0.656,0 -1.678,-0.764 -2.74,-0.764c-1.412,0 -2.704,0.863 -3.432,2.129c-1.464,2.542 -0.377,6.298 1.051,8.364c0.701,1.006 1.527,2.138 2.623,2.102c1.051,-0.045 1.446,-0.683 2.722,-0.683c1.267,0 1.626,0.683 2.74,0.656c1.132,-0.018 1.851,-1.024 2.542,-2.039c0.8,-1.168 1.132,-2.3 1.15,-2.363c-0.027,-0.009 -2.201,-0.844 -2.228,-3.36c-0.018,-2.102 1.716,-3.108 1.797,-3.153c-0.988,-1.446 -2.506,-1.608 -3.036,-1.644c-1.384,-0.108 -2.542,0.755 -3.189,0.755Z"></path><path d="M14.8072,3.77627c0.806433,0.457694 0.806433,1.19976 0,1.65746c-0.806433,0.457694 -2.11392,0.457694 -2.92035,0c-0.806433,-0.457694 -0.806433,-1.19976 -1.77636e-15,-1.65746c0.806433,-0.457694 2.11392,-0.457694 2.92035,-4.44089e-16" transform="matrix(0.6428,-0.766,0.766,0.6428,1.24,11.8693)"></path></g><path fill="none" d="M0,0h24v24h-24Z" transform="matrix(6.12323e-17,-1,1,6.12323e-17,0,24)"></path></svg>