<?xml version="1.0" encoding="UTF-8"?><svg version="1.1" viewBox="0 0 24 24" xmlns="http://www.w3.org/2000/svg" xmlns:xlink="http://www.w3.org/1999/xlink"><g stroke-linecap="round" stroke-width="1.5" stroke="#323232" fill="none" stroke-linejoin="round"><path d="M18 18.5v0c-1.657 0-3-1.343-3-3v-7c0-1.657 1.343-3 3-3v0c1.657 0 3 1.343 3 3v7c0 1.657-1.343 3-3 3Z"></path><path d="M13.756 4.497c-.86-.317-1.786-.497-2.756-.497 -4.418 0-8 3.582-8 8 0 4.418 3.582 8 8 8 .97 0 1.896-.18 2.756-.497"></path><path d="M18.25 10.352c0-.138-.112-.25-.25-.25 -.138.001-.25.112-.25.25 0 .138.112.25.25.25 .138-1.77636e-15.25-.111.25-.25"></path></g><rect width="24" height="24" fill="none"></rect></svg>