<?xml version="1.0" encoding="UTF-8"?><svg version="1.1" viewBox="0 0 24 24" xmlns="http://www.w3.org/2000/svg" xmlns:xlink="http://www.w3.org/1999/xlink"><g stroke-linecap="round" stroke-width="1.5" stroke="#323232" fill="none" stroke-linejoin="round"><path d="M13.98 20.3l-6.12396e-08 2.79801e-08c-1.01371.463161-2.11549.701937-3.23.7l2.86695e-07 2.19433e-10c-4.32302-.0033087-7.82669-3.50698-7.83-7.83 0-3.42 1.57-5.88 4.7-5.88v.00999971l-6.4058e-07-5.77085e-08c1.05354.0949109 2.09932.26197 3.13.5l-2.3311e-06 5.38359e-07c1.03068-.238031 2.07646-.405089 3.13-.5v-.0100001c3.13 0 4.69 2.44 4.7 5.84"></path><circle cx="17.5" cy="17.5" r="4.5"></circle><path d="M19.017 16.743l-1.895 1.9 -1.139-1.143"></path><path d="M12.842 7h-1.842v-1.842l2.98679e-08 9.02097e-05c-.000602194-1.74356 1.41235-3.15749 3.15591-3.15809 .000666772-2.30291e-07.00133354-2.49343e-07.00200032-5.7158e-08h1.84209v1.842l-3.00632e-08 9.08567e-05c-.000602107 1.74389-1.4142 3.15741-3.15809 3.15791Z"></path><path d="M11 7v-.5 0c0-1.38071-1.11929-2.5-2.5-2.5h-.5"></path></g><rect width="24" height="24" fill="none"></rect></svg>