<svg id="Layer_3" data-name="Layer 3" xmlns="http://www.w3.org/2000/svg" viewBox="0 0 24 24"><path d="M0,0H24V24H0Z" fill="none"/><path d="M8.86291,6h6.27418a2.8629,2.8629,0,0,1,1.537.44758h0A2.86292,2.86292,0,0,1,18,8.86291v6.27418a2.86292,2.86292,0,0,1-1.32589,2.41533h0A2.8629,2.8629,0,0,1,15.13709,18H8.86291a2.8629,2.8629,0,0,1-1.537-.44758h0A2.86292,2.86292,0,0,1,6,15.13709V8.86291A2.86292,2.86292,0,0,1,7.32589,6.44758h0A2.8629,2.8629,0,0,1,8.86291,6Z" fill="none" stroke="#323232" stroke-linecap="round" stroke-linejoin="round" stroke-width="1.5"/><path d="M16.00324,17.86534l-.57139,2.36912A1,1,0,0,1,14.45973,21H9.54027a1,1,0,0,1-.97212-.76554l-.57139-2.36912" fill="none" stroke="#323232" stroke-linecap="round" stroke-linejoin="round" stroke-width="1.5"/><path d="M7.99676,6.13466l.57139-2.36912A1,1,0,0,1,9.54027,3h4.91946a1,1,0,0,1,.97213.76554l.57138,2.36912" fill="none" stroke="#323232" stroke-linecap="round" stroke-linejoin="round" stroke-width="1.5"/></svg>