<svg id="Layer_3" data-name="Layer 3" xmlns="http://www.w3.org/2000/svg" viewBox="0 0 24 24"><path d="M0,0H24V24H0Z" fill="none"/><path d="M5,18.19605V21" fill="none" stroke="#323232" stroke-linecap="round" stroke-linejoin="round" stroke-width="1.5"/><path d="M19,18.19605V21" fill="none" stroke="#323232" stroke-linecap="round" stroke-linejoin="round" stroke-width="1.5"/><path d="M20,11V8a2,2,0,0,0-2-2H6A2,2,0,0,0,4,8v3" fill="none" stroke="#323232" stroke-linecap="round" stroke-linejoin="round" stroke-width="1.5"/><path d="M16,15H8a2,2,0,0,1-2-2H6a2,2,0,0,0-2-2H4a2,2,0,0,0-2,2H2a6,6,0,0,0,6,6h8a6,6,0,0,0,6-6h0a2,2,0,0,0-2-2h0a2,2,0,0,0-2,2h0A2,2,0,0,1,16,15Z" fill="none" stroke="#323232" stroke-linecap="round" stroke-linejoin="round" stroke-width="1.5"/></svg>