<?xml version="1.0" encoding="UTF-8"?><svg version="1.1" viewBox="0 0 24 24" xmlns="http://www.w3.org/2000/svg" xmlns:xlink="http://www.w3.org/1999/xlink"><g transform="matrix(1 0 0 1 5 29)"><rect width="14" height="6" x="10" y="9" fill="none" rx=".55228" ry="0" stroke="#323232" stroke-linecap="round" stroke-linejoin="round" stroke-width="1.5" transform="matrix(6.12323e-17 -1 1 6.12323e-17 0 0)"></rect></g><g transform="matrix(1 0 0 1 -5 19)"><rect width="8" height="6" x="3" y="9" fill="none" rx=".55228" ry="0" stroke="#323232" stroke-linecap="round" stroke-linejoin="round" stroke-width="1.5" transform="matrix(6.12323e-17 -1 1 6.12323e-17 0 0)"></rect></g><g stroke-linecap="round" stroke-width="1.5" stroke="#323232" fill="none" stroke-linejoin="round"><line x1="14" x2="10" y1="12" y2="12"></line><line x1="17" x2="17" y1="21" y2="19"></line><line x1="7" x2="7" y1="8" y2="3"></line><line x1="7" x2="7" y1="16" y2="21"></line><line x1="17" x2="17" y1="5" y2="3"></line></g><g transform="matrix(1 0 0 1 24 24)"><rect width="24" height="24" fill="none" transform="matrix(-1 1.22465e-16 -1.22465e-16 -1 0 0)"></rect></g></svg>