<?xml version="1.0" encoding="UTF-8"?><svg version="1.1" viewBox="0 0 24 24" xmlns="http://www.w3.org/2000/svg" xmlns:xlink="http://www.w3.org/1999/xlink"><g stroke-linecap="round" stroke-width="1.5" stroke="#323232" fill="none" stroke-linejoin="round"><line x1="14" x2="14" y1="3" y2="21"></line><line x1="3" x2="3" y1="3" y2="21"></line></g><g transform="matrix(1 0 0 1 -4 20)"><rect width="8" height="4" x="4" y="10" fill="none" rx=".55228" ry="0" stroke="#323232" stroke-linecap="round" stroke-linejoin="round" stroke-width="1.5" transform="matrix(6.12323e-17 -1 1 6.12323e-17 0 0)"></rect></g><g transform="matrix(1 0 0 1 7 31)"><rect width="14" height="4" x="12" y="10" fill="none" rx=".55228" ry="0" stroke="#323232" stroke-linecap="round" stroke-linejoin="round" stroke-width="1.5" transform="matrix(6.12323e-17 -1 1 6.12323e-17 0 0)"></rect></g><g transform="matrix(1 0 0 1 24 24)"><rect width="24" height="24" fill="none" transform="matrix(-1 1.22465e-16 -1.22465e-16 -1 0 0)"></rect></g></svg>