<?xml version="1.0" encoding="UTF-8"?><svg version="1.1" viewBox="0 0 24 24" xmlns="http://www.w3.org/2000/svg" xmlns:xlink="http://www.w3.org/1999/xlink"><g fill="none"><path d="M0 0h24v24h-24Z"></path><path stroke="#323232" stroke-linecap="round" stroke-linejoin="round" stroke-width="1.5" d="M9.6 7.2l2.4 2.4 -2.4 2.4"></path><path stroke="#323232" stroke-linecap="round" stroke-linejoin="round" stroke-width="1.5" d="M14.4 12l-2.4 2.4 2.4 2.4"></path><path stroke="#323232" stroke-linecap="round" stroke-linejoin="round" stroke-width="1.5" d="M3 16v-8l5.68434e-14 7.54979e-07c-4.16963e-07-2.76142 2.23858-5 5-5h8l-2.18557e-07 5.32907e-15c2.76142-1.20706e-07 5 2.23858 5 5v8 1.77636e-15c0 2.76142-2.23858 5-5 5 0 0-1.77636e-15 0-1.77636e-15 0h-8l-2.18557e-07-7.10543e-15c-2.76142-1.20706e-07-5-2.23858-5-5Z"></path></g></svg>