<?xml version="1.0" encoding="UTF-8"?><svg version="1.1" viewBox="0 0 24 24" xmlns="http://www.w3.org/2000/svg" xmlns:xlink="http://www.w3.org/1999/xlink"><!--Generated by IJSVG (https://github.com/iconjar/IJSVG)--><g fill="none"><path d="M0,0h24v24h-24Z"></path><path stroke="#323232" stroke-linecap="round" stroke-linejoin="round" stroke-width="1.5" d="M12.38,14.266l4.207,4.908c0.304,0.355 -0.001,0.895 -0.462,0.819l-4.125,-0.688l-4.125,0.687c-0.461,0.077 -0.766,-0.464 -0.462,-0.819l4.207,-4.908c0.2,-0.232 0.56,-0.232 0.76,0.001Z"></path><path stroke="#323232" stroke-linecap="round" stroke-linejoin="round" stroke-width="1.5" d="M7.455,14.06c-0.286,-0.63 -0.455,-1.323 -0.455,-2.06c0,-2.761 2.239,-5 5,-5c2.761,0 5,2.239 5,5c0,0.737 -0.169,1.43 -0.455,2.06"></path><path stroke="#323232" stroke-linecap="round" stroke-linejoin="round" stroke-width="1.5" d="M19.486,17c2.459,-3.673 1.927,-8.755 -1.602,-11.815c-3.323,-2.882 -8.445,-2.882 -11.768,0c-3.529,3.06 -4.061,8.142 -1.602,11.815"></path></g></svg>