<?xml version="1.0" encoding="UTF-8"?><svg version="1.1" viewBox="0 0 24 24" xmlns="http://www.w3.org/2000/svg" xmlns:xlink="http://www.w3.org/1999/xlink"><g stroke-linecap="round" stroke-width="1.5" stroke="#323232" fill="none" stroke-linejoin="round"><polyline points="11.257,13.414 7.757,13.414 7.757,9.914"></polyline><path d="M7.75736 13.4142l3.53554-3.53553 2.07183e-07-2.07182e-07c1.17157-1.17157 3.07106-1.17157 4.24263 4.14365e-07v0l-1.06009e-08-1.06009e-08c1.17157 1.17157 1.17157 3.07107 2.12018e-08 4.24264l-.70711.70711"></path><path d="M21 8v8 0c0 2.76142-2.23858 5-5 5h-8l-2.18557e-07-7.10543e-15c-2.76142-1.20706e-07-5-2.23858-5-5 0 0 0-1.77636e-15 0-1.77636e-15v-8l5.68434e-14 7.54979e-07c-4.16963e-07-2.76142 2.23858-5 5-5h8l-5.96244e-08 9.76996e-15c2.76142-4.49893e-07 5 2.23858 5 5 4.26326e-14 2.54893e-07 6.39488e-14 5.00086e-07 6.75016e-14 7.54979e-07Z"></path></g><path fill="none" d="M0 24v-24h24v24Z"></path></svg>