<?xml version="1.0" encoding="UTF-8"?><svg version="1.1" viewBox="0 0 24 24" xmlns="http://www.w3.org/2000/svg" xmlns:xlink="http://www.w3.org/1999/xlink"><g fill="none"><path d="M0 0h24v24h-24Z" transform="matrix(-1.83697e-16 1 -1 -1.83697e-16 24 -5.40238e-10)"></path><path stroke="#323232" stroke-linecap="round" stroke-linejoin="round" stroke-width="1.5" d="M9.751 10.006h4.243v4.243"></path><path stroke="#323232" stroke-linecap="round" stroke-linejoin="round" stroke-width="1.5" d="M14 10l-7.525 7.525c-.528.528-1.385.528-1.913 0v0c-1.33-1.33-2.079-3.134-2.083-5.015v0c0-1.23.238-2.46.711-3.617 .466-1.139 1.159-2.206 2.084-3.13 1.659-1.659 3.951-2.685 6.482-2.685 2.531 0 4.823 1.026 6.482 2.685 1.659 1.659 2.685 3.95 2.685 6.482 0 2.531-1.026 4.823-2.685 6.482 -1.659 1.659-3.95 2.685-6.482 2.685 -.987 0-1.972-.17-2.917-.488"></path></g></svg>