<?xml version="1.0" encoding="UTF-8"?><svg version="1.1" viewBox="0 0 24 24" xmlns="http://www.w3.org/2000/svg" xmlns:xlink="http://www.w3.org/1999/xlink"><g stroke-linecap="round" stroke-width="1.5" stroke="#323232" fill="none" stroke-linejoin="round"><path d="M5.959 19.072c-1.492-1.308-2.559-3.087-2.959-5.111"></path><path d="M3 10.392c.399-2.024 1.466-3.802 2.959-5.111"></path><path d="M18.041 5.281c1.492 1.308 2.559 3.087 2.959 5.111"></path><path d="M14.953 3.495c-.928-.317-1.919-.495-2.953-.495 -1.034 0-2.025.178-2.953.495"></path><path d="M21 13.961c-.399 2.024-1.466 3.802-2.959 5.111"></path><line x1="12" x2="12" y1="12" y2="7"></line><polyline points="14.5,9.5 12,7 9.5,9.5"></polyline><path d="M9.919 21h4.162c.706 0 1.148-.765.794-1.376l-2.081-3.604c-.353-.612-1.236-.612-1.59 0l-2.081 3.604c-.351.611.09 1.376.796 1.376Z"></path></g><path fill="none" d="M0 0h24v24h-24v-24Z"></path></svg>