<?xml version="1.0" encoding="UTF-8"?><svg version="1.1" viewBox="0 0 24 24" xmlns="http://www.w3.org/2000/svg" xmlns:xlink="http://www.w3.org/1999/xlink"><g stroke-linecap="round" stroke-width="1.5" stroke="#323232" fill="none" stroke-linejoin="round"><path d="M18.364 5.63604c3.51472 3.51472 3.51472 9.2132 0 12.7279 -3.51472 3.51472-9.2132 3.51472-12.7279 0 -3.51472-3.51472-3.51472-9.2132-1.77636e-15-12.7279 3.51472-3.51472 9.2132-3.51472 12.7279-1.77636e-15"></path><path d="M13 14l2 2 2-2"></path><path d="M15 8v8"></path><path d="M11 10l-2-2 -2 2"></path><path d="M9 16v-8"></path></g><path fill="none" d="M0 0h24v24h-24Z" transform="matrix(-1.83697e-16 1 -1 -1.83697e-16 24 9.11271e-13)"></path></svg>