<?xml version="1.0" encoding="UTF-8"?><svg version="1.1" viewBox="0 0 24 24" xmlns="http://www.w3.org/2000/svg" xmlns:xlink="http://www.w3.org/1999/xlink"><g fill="none"><path d="M0 0h24v24h-24Z"></path><path stroke="#323232" stroke-linecap="round" stroke-linejoin="round" stroke-width="1.5" d="M19.207 17.5l1.478 2.92 1.37768e-08 2.7129e-08c.134036.263941.0287274.586565-.235214.720601 -.000261996.000133049-.000524102.000265882-.000786317.000398499l-1.593.806 3.74376e-08-1.90118e-08c-.263941.134036-.586565.0287274-.720602-.235214 -.000133049-.000261996-.000265882-.000524102-.000398499-.000786317l-1.478-2.921 -2.548 1.59 .006-8.844 -9.11674e-09 9.87997e-06c.000270428-.296025.240465-.535781.536489-.53551 .115975.000105947.228787.0378246.321503.107494l7.02701 5.27801Z"></path><path stroke="#323232" stroke-linecap="round" stroke-linejoin="round" stroke-width="1.5" d="M10 20h-2l-2.18557e-07-7.10543e-15c-2.76142-1.20706e-07-5-2.23858-5-5 0 0 0-1.77636e-15 0-1.77636e-15v-7l5.68434e-14 7.54979e-07c-4.16963e-07-2.76142 2.23858-5 5-5h8l-2.18557e-07 5.32907e-15c2.76142-1.20706e-07 5 2.23858 5 5v3"></path><line x1="7" x2="13" y1="8" y2="8" stroke="#323232" stroke-linecap="round" stroke-linejoin="round" stroke-width="1.5"></line><line x1="7" x2="10.4" y1="11" y2="11" stroke="#323232" stroke-linecap="round" stroke-linejoin="round" stroke-width="1.5"></line><line x1="7" x2="10.4" y1="14" y2="14" stroke="#323232" stroke-linecap="round" stroke-linejoin="round" stroke-width="1.5"></line></g></svg>