<?xml version="1.0" encoding="UTF-8"?><svg version="1.1" viewBox="0 0 24 24" xmlns="http://www.w3.org/2000/svg" xmlns:xlink="http://www.w3.org/1999/xlink"><!--Generated by IJSVG (https://github.com/iconjar/IJSVG)--><g fill="none"><path d="M0,0h24v24h-24Z"></path><path stroke="#323232" stroke-linecap="round" stroke-linejoin="round" stroke-width="1.5" d="M14.5,17h-5c-1.381,0 -2.5,-1.119 -2.5,-2.5v-5c0,-1.381 1.119,-2.5 2.5,-2.5h5c1.381,0 2.5,1.119 2.5,2.5v5c0,1.381 -1.119,2.5 -2.5,2.5Z"></path><path stroke="#323232" stroke-linecap="round" stroke-linejoin="round" stroke-width="1.5" d="M18,21v-2c0,-0.552 0.448,-1 1,-1h2"></path><path stroke="#323232" stroke-linecap="round" stroke-linejoin="round" stroke-width="1.5" d="M6,3v2c0,0.552 -0.448,1 -1,1h-2"></path><path stroke="#323232" stroke-linecap="round" stroke-linejoin="round" stroke-width="1.5" d="M3,18h2c0.552,0 1,0.448 1,1v2"></path><path stroke="#323232" stroke-linecap="round" stroke-linejoin="round" stroke-width="1.5" d="M21,6h-2c-0.552,0 -1,-0.448 -1,-1v-2"></path></g></svg>