<?xml version="1.0" encoding="UTF-8"?><svg version="1.1" viewBox="0 0 24 24" xmlns="http://www.w3.org/2000/svg" xmlns:xlink="http://www.w3.org/1999/xlink"><g stroke-linecap="round" stroke-width="1.5" stroke="#323232" fill="none" stroke-linejoin="round"><rect width="18" height="18" x="3" y="3" rx="2.7614" ry="0"></rect><path d="M12 10.5l-3.65208e-08-4.86947e-08c.828423 1.10457.60456 2.67158-.500013 3.5 -1.10457.828423-2.67158.60456-3.5-.500013 -.828423-1.10457-.60456-2.67158.500013-3.5 .434383-.325785.963023-.501292 1.506-.499987l-1.74525e-08 3.58291e-12c.785267-.000161233 1.52448.370559 1.994 1Z"></path><path d="M12 10.5l1.28283e-07-1.71044e-07c.828427-1.10457 2.39543-1.32843 3.5-.5 1.10457.828427 1.32843 2.39543.5 3.5 -.828427 1.10457-2.39543 1.32843-3.5.5 -.189514-.142136-.357864-.310486-.5-.5"></path></g><path fill="none" d="M0 24v-24h24v24Z"></path></svg>