<svg id="Layer_3" data-name="Layer 3" xmlns="http://www.w3.org/2000/svg" viewBox="0 0 24 24"><path d="M10.1,10.75H8.15a.65.65,0,0,1-.65-.65V8.15a.65.65,0,0,1,.65-.65H10.1a.65.65,0,0,1,.65.65V10.1A.65.65,0,0,1,10.1,10.75Z" fill="none" stroke="#323232" stroke-linecap="round" stroke-linejoin="round" stroke-width="1.5"/><path d="M15.85,10.75H13.9a.65.65,0,0,1-.65-.65V8.15a.65.65,0,0,1,.65-.65h1.95a.65.65,0,0,1,.65.65V10.1A.65.65,0,0,1,15.85,10.75Z" fill="none" stroke="#323232" stroke-linecap="round" stroke-linejoin="round" stroke-width="1.5"/><path d="M10.1,16.5H8.15a.65.65,0,0,1-.65-.65V13.9a.65.65,0,0,1,.65-.65H10.1a.65.65,0,0,1,.65.65v1.95A.65.65,0,0,1,10.1,16.5Z" fill="none" stroke="#323232" stroke-linecap="round" stroke-linejoin="round" stroke-width="1.5"/><path d="M15.85,16.5H13.9a.65.65,0,0,1-.65-.65V13.9a.65.65,0,0,1,.65-.65h1.95a.65.65,0,0,1,.65.65v1.95A.65.65,0,0,1,15.85,16.5Z" fill="none" stroke="#323232" stroke-linecap="round" stroke-linejoin="round" stroke-width="1.5"/><rect x="3" y="3" width="18" height="18" rx="5" stroke-width="1.5" stroke="#323232" stroke-linecap="round" stroke-linejoin="round" fill="none"/><rect width="24" height="24" fill="none"/></svg>