<svg id="Layer_3" data-name="Layer 3" xmlns="http://www.w3.org/2000/svg" viewBox="0 0 24 24"><rect width="24" height="24" fill="none"/><path d="M5.03,10.05A5.21537,5.21537,0,0,1,6.22,6.34.97342.97342,0,0,1,7.02,6a7.4331,7.4331,0,0,1,6.87,6.23" fill="none" stroke="#323232" stroke-linecap="round" stroke-linejoin="round" stroke-width="1.5"/><path d="M14,18.75152V21a1,1,0,0,1-1,1H11a1,1,0,0,1-1-1V18.75152" fill="none" stroke="#323232" stroke-linecap="round" stroke-linejoin="round" stroke-width="1.5"/><path d="M9.60865,18.63544a11.6079,11.6079,0,0,1,9.82468-8.62227.99391.99391,0,0,1,1.05863,1.1296A8.73983,8.73983,0,0,1,12.00051,19a8.74045,8.74045,0,0,1-8.49259-7.86627.994.994,0,0,1,1.04357-1.1301,12.94387,12.94387,0,0,1,7.827,3.61332" fill="none" stroke="#323232" stroke-linecap="round" stroke-linejoin="round" stroke-width="1.5"/><path d="M12,8.37A7.46971,7.46971,0,0,1,16.98,6a.97342.97342,0,0,1,.8.34,5.234,5.234,0,0,1,1.18,3.74" fill="none" stroke="#323232" stroke-linecap="round" stroke-linejoin="round" stroke-width="1.5"/><path d="M8.26,6.18a6.73147,6.73147,0,0,1,2.68-2.87,1.98074,1.98074,0,0,1,2.12,0,6.77984,6.77984,0,0,1,2.69,2.88" fill="none" stroke="#323232" stroke-linecap="round" stroke-linejoin="round" stroke-width="1.5"/></svg>