<svg id="Layer_3" data-name="Layer 3" xmlns="http://www.w3.org/2000/svg" viewBox="0 0 24 24"><path d="M16,3.5l-5,6" fill="none" stroke="#323232" stroke-linecap="round" stroke-linejoin="round" stroke-width="1.5"/><path d="M20,5.5l-5,4" fill="none" stroke="#323232" stroke-linecap="round" stroke-linejoin="round" stroke-width="1.5"/><path d="M19.8,18.6h0A6,6,0,0,1,15,21H9a6,6,0,0,1-4.8-2.4h0A6,6,0,0,1,3,15H3a2,2,0,0,1,2-2H19a2,2,0,0,1,2,2h0A6,6,0,0,1,19.8,18.6Z" fill="none" stroke="#323232" stroke-linecap="round" stroke-linejoin="round" stroke-width="1.5"/><path d="M0,0H24V24H0Z" fill="none"/></svg>