<?xml version="1.0" encoding="UTF-8"?><svg version="1.1" viewBox="0 0 24 24" xmlns="http://www.w3.org/2000/svg" xmlns:xlink="http://www.w3.org/1999/xlink"><g stroke-linecap="round" stroke-width="1.5" stroke="#323232" fill="none" stroke-linejoin="round"><path d="M6.722 19.278l-8.91231e-07-6.43368e-07c-.575847-.415697-1.1002-.898421-1.562-1.438"></path><path d="M3.523 9l4.21498e-07-1.19209e-06c.554645-1.56867 1.53278-2.95314 2.826-4"></path><path d="M3 12l5.18414e-08 2.94722e-05c.00180029 1.02252.178694 2.03719.52301 3"></path><path d="M19.559 4.407l3.01523e-08 3.01474e-08c.659258.659152.659344 1.72793.000192425 2.38719 -.659152.659258-1.72793.659344-2.38719.000192425 -.659258-.659152-.659344-1.72793-.000192425-2.38719 6.41567e-05-6.4167e-05.000128319-.000128329.000192486-.000192486l-6.33585e-08 6.33483e-08c.659183-.659077 1.72782-.659077 2.387-1.26697e-07"></path><path d="M12 21l3.10071e-07 1.21567e-09c4.95119.0194117 8.98067-3.97859 9.00008-8.92978 .0021804-.556136-.0473931-1.11127-.14808-1.65822"></path><path d="M17.053 4.553l-1.47873e-07-1.0034e-07c-2.25056-1.52713-5.07099-1.95462-7.673-1.163"></path><path d="M7 12h2.318l1.20943e-08-7.69163e-12c.867411-.000551619 1.57045-.703589 1.571-1.571v0l5.56723e-08-.000142511c.000143874-.416704-.165378-.816372-.460101-1.11096l-1.3639-1.3639"></path><path d="M15.5 15.576l-.988-1.48 6.79896e-09 1.02528e-08c-.177817-.268147-.478252-.429256-.8-.429v0l-7.1786e-09 7.10543e-12c-.365213.00036147-.699135-.206112-.862-.533l-.074-.147 2.92025e-08 5.87271e-08c-.134994-.271478-.134994-.590522-5.8405e-08-.862l.63-1.258 -1.3474e-10 2.70438e-10c.162705-.326565.496147-.532982.861-.533h2.449"></path><path d="M12 7l-2.18557e-07 5.32907e-15c-2.76142 1.20706e-07-5 2.23858-5 5 1.20706e-07 2.76142 2.23858 5 5 5 2.76142-1.20706e-07 5-2.23858 5-5l1.71729e-07-.000107802c.00436217-2.757-2.22709-4.99553-4.9841-4.99989 -.00533754-8.44513e-06-.0106751-8.32974e-06-.0160126 3.46144e-07Z"></path></g><path fill="none" d="M0 0h24v24h-24Z"></path></svg>