<svg id="Layer_3" data-name="Layer 3" xmlns="http://www.w3.org/2000/svg" viewBox="0 0 24 24"><path d="M24,24H0V0H24Z" fill="none"/><path d="M24,24H0V0H24Z" fill="none"/><path d="M7,13.76357H5a2,2,0,0,1-2-2v-6a2,2,0,0,1,2-2H19a2,2,0,0,1,2,2v6a2,2,0,0,1-2,2H17" fill="none" stroke="#323232" stroke-linecap="round" stroke-linejoin="round" stroke-width="1.5"/><path d="M17,8.76357H7V19.2907a1.47222,1.47222,0,0,0,1.47287,1.47287h7.05426A1.47222,1.47222,0,0,0,17,19.2907Z" fill="none" stroke="#323232" stroke-linecap="round" stroke-linejoin="round" stroke-width="1.5"/><path d="M10.50017,13.314a1.5,1.5,0,1,1,1.5,1.5,1.50065,1.50065,0,0,1-1.5-1.5" fill="none" stroke="#323232" stroke-linecap="round" stroke-linejoin="round" stroke-width="1.5"/><line x1="10.5" y1="17.81395" x2="13.5" y2="17.81395" fill="none" stroke="#323232" stroke-linecap="round" stroke-linejoin="round" stroke-width="1.5"/></svg>