<svg id="Layer_3" data-name="Layer 3" xmlns="http://www.w3.org/2000/svg" viewBox="0 0 24 24"><rect width="24" height="24" fill="none"/><path d="M6,3H18a3,3,0,0,1,3,3V20a1,1,0,0,1-1,1H4a1,1,0,0,1-1-1V6A3,3,0,0,1,6,3Z" fill="none" stroke="#323232" stroke-linecap="round" stroke-linejoin="round" stroke-width="1.5"/><line x1="15" y1="15" x2="18" y2="15" fill="none" stroke="#323232" stroke-linecap="round" stroke-linejoin="round" stroke-width="1.5"/><path d="M7,6H17a1,1,0,0,1,1,1v5a0,0,0,0,1,0,0H6a0,0,0,0,1,0,0V7A1,1,0,0,1,7,6Z" fill="none" stroke="#323232" stroke-linecap="round" stroke-linejoin="round" stroke-width="1.5"/><path d="M12,14.995l.005.005L12,15.005,11.995,15,12,14.995" fill="none" stroke="#323232" stroke-linecap="round" stroke-linejoin="round" stroke-width="1.5"/><path d="M9.5,14.995,9.505,15l-.005.005L9.495,15l.005-.005" fill="none" stroke="#323232" stroke-linecap="round" stroke-linejoin="round" stroke-width="1.5"/><path d="M7,14.995,7.005,15,7,15.005,6.995,15,7,14.995" fill="none" stroke="#323232" stroke-linecap="round" stroke-linejoin="round" stroke-width="1.5"/><path d="M12,17.495l.005.005L12,17.505l-.005-.005L12,17.495" fill="none" stroke="#323232" stroke-linecap="round" stroke-linejoin="round" stroke-width="1.5"/><path d="M9.5,17.495l.005.005-.005.005L9.495,17.5l.005-.005" fill="none" stroke="#323232" stroke-linecap="round" stroke-linejoin="round" stroke-width="1.5"/><path d="M7,17.495l.005.005L7,17.505,6.995,17.5,7,17.495" fill="none" stroke="#323232" stroke-linecap="round" stroke-linejoin="round" stroke-width="1.5"/></svg>