<?xml version="1.0" encoding="UTF-8"?><svg version="1.1" viewBox="0 0 24 24" xmlns="http://www.w3.org/2000/svg" xmlns:xlink="http://www.w3.org/1999/xlink"><!--Generated by IJSVG (https://github.com/iconjar/IJSVG)--><g stroke-linecap="round" stroke-width="1.5" stroke="#323232" fill="none" stroke-linejoin="round"><path d="M10.124,9h-4.248c-0.552,0 -1,-0.448 -1,-1v-2c0,-0.552 0.448,-1 1,-1h4.248c0.552,0 1,0.448 1,1v2c0,0.552 -0.448,1 -1,1Z"></path><path d="M17,6.326v0c0.732,0.732 0.732,1.919 0,2.652v0"></path><path d="M20.094,5c1.464,1.464 1.464,3.839 0,5.303"></path><path d="M18,22h-9c-0.552,0 -1,-0.448 -1,-1v-5c0,-0.552 0.448,-1 1,-1h9c0.552,0 1,0.448 1,1v5c0,0.552 -0.448,1 -1,1Z"></path><path d="M14,15v-11c0,-1.105 -0.895,-2 -2,-2h-8c-1.105,0 -2,0.895 -2,2v12c0,1.105 0.895,2 2,2h4"></path><path d="M8,18h11"></path><path d="M5,11.99c-0.003,0 -0.005,0.002 -0.005,0.005c0,0.003 0.002,0.005 0.005,0.005c0.003,0 0.005,-0.002 0.005,-0.005c0,-0.003 -0.002,-0.005 -0.005,-0.005"></path><path d="M8,12c-0.003,0 -0.005,0.002 -0.005,0.005c0,0.003 0.002,0.005 0.005,0.005c0.003,0 0.005,-0.002 0.005,-0.005c0,-0.003 -0.002,-0.005 -0.005,-0.005"></path><path d="M11.005,11.995c-0.003,0 -0.005,0.002 -0.005,0.005c0,0.003 0.002,0.005 0.005,0.005c0.003,0 0.005,-0.002 0.005,-0.005c-1.77636e-15,-0.003 -0.002,-0.005 -0.005,-0.005"></path></g><path fill="none" d="M0,0h24v24h-24Z"></path></svg>