<?xml version="1.0" encoding="UTF-8"?><svg version="1.1" viewBox="0 0 24 24" xmlns="http://www.w3.org/2000/svg" xmlns:xlink="http://www.w3.org/1999/xlink"><g fill="none"><path d="M0 0h24v24h-24Z"></path><path stroke="#323232" stroke-linecap="round" stroke-linejoin="round" stroke-width="1.5" d="M12 21l-3.93403e-07-7.10543e-15c-4.97056-2.1727e-07-9-4.02944-9-9 2.1727e-07-4.97056 4.02944-9 9-9 4.97056 2.1727e-07 9 4.02944 9 9"></path><path stroke="#323232" stroke-linecap="round" stroke-linejoin="round" stroke-width="1.5" d="M21 12l6.63454e-09-1.35644e-05c-.000163227.334289-.0208684.668251-.0619983 1"></path><path stroke="#323232" stroke-linecap="round" stroke-linejoin="round" stroke-width="1.5" d="M13 20.938l-5.12224e-08 6.3506e-09c-.331749.0411305-.665711.0618362-1 .062"></path><path stroke="#323232" stroke-linecap="round" stroke-linejoin="round" stroke-width="1.5" d="M19.487 17.012l-2.475 2.475"></path><path stroke="#323232" stroke-linecap="round" stroke-linejoin="round" stroke-width="1.5" d="M17.013 17.012l2.475 2.475"></path><path stroke="#323232" stroke-linecap="round" stroke-linejoin="round" stroke-width="1.5" d="M16.173 11.853l1.48113e-07-1.44747e-07c1.12453-1.09897 1.14525-2.90147.0462815-4.026 -1.09897-1.12453-2.90147-1.14525-4.026-.0462815 -.0156041.0152494-.0310323.0306777-.0462817.0462817l-1.147 1.147 1.25642e-07-1.25571e-07c-1.11175 1.11111-1.11226 2.9131-.00114862 4.02485 .000382679.000382898.000765468.000765686.00114837.00114837"></path><path stroke="#323232" stroke-linecap="round" stroke-linejoin="round" stroke-width="1.5" d="M7.827 12.147l-2.04755e-07 2.00101e-07c-1.12453 1.09897-1.14525 2.90147-.0462813 4.026 1.09897 1.12453 2.90147 1.14525 4.026.0462813 .0156041-.0152494.0310323-.0306777.0462817-.0462818l1.23-1.23 5.8328e-08-5.82947e-08c1.11175-1.11112 1.11226-2.9131.00114825-4.02485 -.000382679-.000382898-.000765468-.000765686-.00114837-.00114837"></path></g></svg>