<?xml version="1.0" encoding="UTF-8"?><svg version="1.1" viewBox="0 0 24 24" xmlns="http://www.w3.org/2000/svg" xmlns:xlink="http://www.w3.org/1999/xlink"><g stroke-linecap="round" stroke-width="1.5" stroke="#323232" fill="none" stroke-linejoin="round"><path d="M19.337 9.072l.741-.741 4.69973e-09-4.69698e-09c1.22895-1.22823 1.22953-3.22017.0013019-4.44912 -.0400409-.0400643-.0811565-.07904-.123302-.116884l1.6142e-08 1.35034e-08c-1.31732-1.10198-3.26286-.996252-4.453.242l-.615.616"></path><path d="M12.663 6.848l-.741.741 -1.99234e-07 1.99117e-07c-1.22895 1.22823-1.22953 3.22017-.00130152 4.44912 .0400409.0400643.0811565.07904.123302.116884l2.2403e-07 1.87437e-07c1.31741 1.10222 3.26335.996031 4.453-.243l.615-.615"></path><path d="M21 12v5 0c0 2.20914-1.79086 4-4 4h-10l-1.74846e-07-3.55271e-15c-2.20914-9.65645e-08-4-1.79086-4-4 0 0 0 0 0 0v-10l4.52971e-14 6.03983e-07c-3.33571e-07-2.20914 1.79086-4 4-4h5"></path><line x1="17.85" x2="14.15" y1="6.11" y2="9.81"></line></g><path fill="none" d="M0 0h24v24h-24Z"></path></svg>