<?xml version="1.0" encoding="UTF-8"?><svg version="1.1" viewBox="0 0 24 24" xmlns="http://www.w3.org/2000/svg" xmlns:xlink="http://www.w3.org/1999/xlink"><g fill="none"><path d="M0 0h24v24h-24Z"></path><path stroke="#323232" stroke-linecap="round" stroke-linejoin="round" stroke-width="1.5" d="M11 15h2c1.657 0 3-1.343 3-3v-4c0-1.657-1.343-3-3-3h-8c-1.657 0-3 1.343-3 3v4c0 1.657 1.343 3 3 3v0"></path><path stroke="#323232" stroke-linecap="round" stroke-linejoin="round" stroke-width="1.5" d="M13 9h-2c-1.657 0-3 1.343-3 3v4c0 1.657 1.343 3 3 3h8c1.657 0 3-1.343 3-3v-4c0-1.657-1.343-3-3-3v0"></path></g></svg>