<?xml version="1.0" encoding="UTF-8"?><svg version="1.1" viewBox="0 0 24 24" xmlns="http://www.w3.org/2000/svg" xmlns:xlink="http://www.w3.org/1999/xlink"><g fill="none"><rect width="24" height="24"></rect><line x1="3" x2="10" y1="3" y2="3" stroke="#323232" stroke-linecap="round" stroke-linejoin="round" stroke-width="1.5"></line><line x1="3" x2="10" y1="6" y2="6" stroke="#323232" stroke-linecap="round" stroke-linejoin="round" stroke-width="1.5"></line><line x1="3" x2="6" y1="9" y2="9" stroke="#323232" stroke-linecap="round" stroke-linejoin="round" stroke-width="1.5"></line><path stroke="#323232" stroke-linecap="round" stroke-linejoin="round" stroke-width="1.5" d="M15.869 9.131c1.174-1.174 3.076-1.174 4.25 0v0c1.174 1.174 1.174 3.076 0 4.25l-4.997 4.997c-1.174 1.174-3.076 1.174-4.25 0v0c-1.174-1.174-1.174-3.076 0-4.25l.747-.747"></path><path stroke="#323232" stroke-linecap="round" stroke-linejoin="round" stroke-width="1.5" d="M9.131 20.12c-1.174 1.174-3.076 1.174-4.25 0v0c-1.174-1.174-1.174-3.076 0-4.25l4.997-4.997c1.174-1.174 3.076-1.174 4.25 0v0c1.174 1.174 1.174 3.076 0 4.25l-.778.777"></path><path d="M0 0h24v24h-24v-24Z"></path></g></svg>