<?xml version="1.0" encoding="UTF-8"?><svg version="1.1" viewBox="0 0 24 24" xmlns="http://www.w3.org/2000/svg" xmlns:xlink="http://www.w3.org/1999/xlink"><g stroke-linecap="round" stroke-width="1.5" stroke="#323232" fill="none" stroke-linejoin="round"><path d="M11.293 12.707l3.182-3.182c.585-.585 1.536-.585 2.121 0v0c.585.585.585 1.536 0 2.121l-3.889 3.889c-1.172 1.172-3.071 1.172-4.243 0v0c-1.172-1.172-1.172-3.071 0-4.243l3.536-3.535"></path><path d="M18 21h-12c-1.657 0-3-1.343-3-3v-12c0-1.657 1.343-3 3-3h12c1.657 0 3 1.343 3 3v12c0 1.657-1.343 3-3 3Z"></path></g><path fill="none" d="M0 0h24v24h-24v-24Z"></path></svg>