<?xml version="1.0" encoding="UTF-8"?><svg version="1.1" viewBox="0 0 24 24" xmlns="http://www.w3.org/2000/svg" xmlns:xlink="http://www.w3.org/1999/xlink"><g stroke-linecap="round" stroke-width="1.5" stroke="#323232" fill="none" stroke-linejoin="round"><path d="M15.869 9.131c1.174-1.174 3.076-1.174 4.25 0v0c1.174 1.174 1.174 3.076 0 4.25l-4.997 4.997c-1.174 1.174-3.076 1.174-4.25 0v0c-1.174-1.174-1.174-3.076 0-4.25l.747-.747"></path><path d="M9.131 20.12c-1.174 1.174-3.076 1.174-4.25 0v0c-1.174-1.174-1.174-3.076 0-4.25l4.997-4.997c1.174-1.174 3.076-1.174 4.25 0v0c1.174 1.174 1.174 3.076 0 4.25l-.778.777"></path><line x1="4" x2="9" y1="5.5" y2="5.5"></line><line x1="6.5" x2="6.5" y1="8" y2="3"></line></g><rect width="24" height="24" fill="none"></rect><path d="M0 0h24v24h-24v-24Z" fill="none"></path></svg>