<?xml version="1.0" encoding="UTF-8"?><svg version="1.1" viewBox="0 0 24 24" xmlns="http://www.w3.org/2000/svg" xmlns:xlink="http://www.w3.org/1999/xlink"><g stroke-linecap="round" stroke-width="1.5" stroke="#323232" fill="none" stroke-linejoin="round"><path d="M15.869 9.13c1.174-1.174 3.076-1.174 4.25 0v0c1.174 1.174 1.174 3.076 0 4.25l-4.997 4.997c-1.174 1.174-3.076 1.174-4.25 0v0c-1.174-1.174-1.174-3.076 0-4.25l.747-.747"></path><path d="M9.131 20.119c-1.174 1.174-3.076 1.174-4.25 0v0c-1.174-1.174-1.174-3.076 0-4.25l4.997-4.997c1.174-1.174 3.076-1.174 4.25 0v0c1.174 1.174 1.174 3.076 0 4.25l-.778.777"></path></g><rect width="24" height="24" fill="none"></rect><g fill="none"><path d="M0 0h24v24h-24v-24Z"></path><line x1="5" x2="8" y1="4" y2="7" stroke="#323232" stroke-linecap="round" stroke-linejoin="round" stroke-width="1.5"></line><line x1="5" x2="8" y1="7" y2="4" stroke="#323232" stroke-linecap="round" stroke-linejoin="round" stroke-width="1.5"></line></g></svg>