<?xml version="1.0" encoding="UTF-8"?><svg version="1.1" viewBox="0 0 24 24" xmlns="http://www.w3.org/2000/svg" xmlns:xlink="http://www.w3.org/1999/xlink"><g stroke-linecap="round" stroke-width="1.5" stroke="#323232" fill="none" stroke-linejoin="round"><path d="M3 6.5v11.358c0 1.382 2.063 2.573 5.052 3.142v-11.358c-2.989-.57-5.052-1.761-5.052-3.142 0-1.933 4.029-3.5 9-3.5 4.971 0 9 1.567 9 3.5 0 1.387-2.079 2.582-5.087 3.148l.023 11.344h.053c2.967-.572 5.011-1.758 5.011-3.134v-11.358"></path><path d="M15.936 14.715l1.43603e-06 2.667e-07c-1.29805-.241075-2.61576-.360593-3.936-.357l-4.09357e-07-1.23358e-09c-1.32433-.0039908-2.64611.116202-3.94799.358999"></path></g><rect width="24" height="24" fill="none"></rect></svg>