<?xml version="1.0" encoding="UTF-8"?><svg version="1.1" viewBox="0 0 24 24" xmlns="http://www.w3.org/2000/svg" xmlns:xlink="http://www.w3.org/1999/xlink"><g stroke-linecap="round" stroke-width="1.5" stroke="#323232" fill="none" stroke-linejoin="round"><path d="M3 11l-7.50138e-07 6.28791e-07c5.20641-4.36419 12.7936-4.36419 18-1.25758e-06"></path><circle cx="12" cy="3.5" r="1.5"></circle><line x1="12" x2="12" y1="7.73" y2="5"></line></g><g transform="matrix(1 0 0 1 14.298 -4.019)"><rect width="3.875" height="3.875" x="10.062" y="13.312" fill="none" rx=".653347" ry="0" stroke="#323232" stroke-linecap="round" stroke-linejoin="round" stroke-width="1.5" transform="matrix(.707107 .707107 -.707107 .707107 0 0)"></rect></g><g stroke-linecap="round" stroke-width="1.5" stroke="#323232" fill="none" stroke-linejoin="round"><line x1="5" x2="5" y1="13" y2="17"></line><path d="M5.782 20.176l1.48627e-09-1.48761e-09c-.207328.207516-.488661.324078-.782.324h-6.78715e-08l-3.74214e-08 9.95826e-12c-.293339 7.80724e-05-.574672-.116484-.782-.324l-1.325-1.325 7.76923e-08 7.9769e-08c-.536008-.550336-.524394-1.43099.0259421-1.967 .540099-.526039 1.40096-.526039 1.94106-1.55385e-07l.14.14 .14-.14 1.45925e-07-1.42126e-07c.550336-.536008 1.43099-.524393 1.967.0259425 .526038.5401.526038 1.40096-2.84253e-07 1.94106Z"></path><line x1="19" x2="19" y1="13" y2="16"></line><circle cx="19" cy="18.25" r="2.25"></circle><line x1="12" x2="12" y1="10.59" y2="13"></line></g><rect width="24" height="24" fill="none"></rect></svg>