<?xml version="1.0" encoding="UTF-8"?><svg version="1.1" viewBox="0 0 24 24" xmlns="http://www.w3.org/2000/svg" xmlns:xlink="http://www.w3.org/1999/xlink"><g stroke-linecap="round" stroke-width="1.5" stroke="#323232" fill="none" stroke-linejoin="round"><rect width="18" height="18" x="3" y="3" rx="2.7614" ry="0"></rect><path d="M12 16.953l-6.65712e-08 5.53975e-11c2.25228-.00187425 4.2253-1.50938 4.819-3.682l3.76313e-08-4.1525e-09c.727911-.0803228 1.25289-.735526 1.17256-1.46344 -.0681044-.617184-.555378-1.10446-1.17256-1.17256l3.73128e-08 1.36816e-07c-.725842-2.66146-3.47179-4.23059-6.13325-3.50475 -1.70635.465362-3.03938 1.79839-3.50475 3.50475l4.26333e-09-4.70445e-10c-.727911.0803228-1.25289.735526-1.17256 1.46344 .0681044.617184.555378 1.10446 1.17256 1.17256l-3.50529e-07-1.28275e-06c.5937 2.17262 2.56672 3.68013 4.819 3.682Z"></path><path d="M13.333 13.757l-2.21406e-08 1.93273e-08c-.763654.666618-1.90235.666618-2.666-3.86546e-08"></path></g><rect width="24" height="24" fill="none"></rect></svg>