<?xml version="1.0" encoding="UTF-8"?><svg version="1.1" viewBox="0 0 24 24" xmlns="http://www.w3.org/2000/svg" xmlns:xlink="http://www.w3.org/1999/xlink"><g stroke-linecap="round" stroke-width="1.5" stroke="#323232" fill="none" stroke-linejoin="round"><line x1="12" x2="5" y1="5" y2="5"></line><path d="M12 5l-3.49691e-07 7.99361e-15c4.41828-1.93129e-07 8 3.58172 8 8 1.93129e-07 4.41828-3.58172 8-8 8 -4.41828 1.93129e-07-8-3.58172-8-8"></path><line x1="8" x2="5" y1="2" y2="5"></line><line x1="8" x2="5" y1="8" y2="5"></line><path d="M12 12.82l5.40364e-09-3.00204e-11c-.0994097.000552282-.17955.0815875-.178997.180997 .000552282.0994097.0815875.17955.180997.178997 .0990183-.000550107.178998-.0809746.179-.179994l7.61569e-09-1.34897e-06c.000557731-.0988574-.0791299-.179449-.177987-.180007 -.00100469-5.66826e-06-.00200942-2.87754e-06-.00301407 8.37189e-06"></path><path d="M12 15.941l5.40364e-09-3.00204e-11c-.0994097.000552282-.17955.0815875-.178997.180997 .000552282.0994097.0815875.17955.180997.178997 .0990183-.000550107.178998-.0809746.179-.179994l7.58516e-09-1.34357e-06c.000557731-.0988574-.0791299-.179449-.177987-.180007 -.00100469-5.66825e-06-.00200942-2.87755e-06-.00301406 8.37183e-06"></path><path d="M14.6 14.44h-7.86805e-09c-.0994113 4.3454e-09-.18.0805888-.18.18 4.3454e-09.0994113.0805888.18.18.18 .0994113-4.3454e-09.18-.0805888.18-.18 0 0 0-1.77636e-15 0-1.77636e-15v0c0-.0994113-.0805887-.18-.18-.18"></path><path d="M9.4 14.44l5.40364e-09-3.00204e-11c-.0994097.000552282-.17955.0815875-.178997.180997 .000552282.0994097.0815875.17955.180997.178997 .0990183-.000550107.178998-.0809746.179-.179994l7.58516e-09-1.34357e-06c.000557731-.0988574-.0791299-.179449-.177987-.180007 -.00100469-5.66825e-06-.00200942-2.87755e-06-.00301406 8.37183e-06"></path><path d="M9.4 11.439l5.40364e-09-3.00204e-11c-.0994097.000552282-.17955.0815875-.178997.180997 .000552282.0994097.0815875.17955.180997.178997 .0990183-.000550107.178998-.0809746.179-.179994l2.14353e-11-2.7778e-06c0-.0994113-.0805887-.18-.18-.18 -.000334261 0-.000668522 9.31088e-07-.00100278 2.79325e-06"></path><path d="M14.6 11.441h1.81165e-09c-.0994113 4.3454e-09-.18.0805888-.18.18 4.3454e-09.0994112.0805887.18.18.18h1.81165e-09c.0994113 4.3454e-09.18-.0805887.18-.18 4.3454e-09-.0994113-.0805887-.18-.18-.18 -6.81338e-09 0-1.28968e-08 0-1.97101e-08 0"></path><path d="M12 9.941l5.40364e-09-3.00204e-11c-.0994097.000552282-.17955.0815875-.178997.180997 .000552282.0994097.0815875.17955.180997.178997 .0990183-.000550107.178998-.0809746.179-.179994l7.61569e-09-1.34897e-06c.000557731-.0988574-.0791299-.179449-.177987-.180007 -.00100469-5.66826e-06-.00200942-2.87754e-06-.00301407 8.37189e-06"></path><path d="M12 9.941h-7.86805e-09c-.0994113 4.3454e-09-.18.0805888-.18.18 4.3454e-09.0994113.0805888.18.18.18 .0994113-4.3454e-09.18-.0805888.18-.18 0 0 0-1.77636e-15 0-1.77636e-15v0c0-.0994113-.0805887-.18-.18-.18"></path></g><path fill="none" d="M0 0h24v24h-24Z"></path></svg>