<svg xmlns="http://www.w3.org/2000/svg" viewBox="0 0 24 24"><g id="Layer_2" data-name="Layer 2"><rect width="24" height="24" fill="none"/><path d="M9.43961,5h5.12078a5,5,0,0,1,4.99026,4.68811l.4414,7.06238A4,4,0,0,1,15.99984,21H8.00016A4,4,0,0,1,4.008,16.75049l.4414-7.06238A5,5,0,0,1,9.43961,5Z" fill="none" stroke="#323232" stroke-linecap="round" stroke-linejoin="round" stroke-width="1.5"/><line x1="10" y1="18" x2="14" y2="18" fill="none" stroke="#323232" stroke-linecap="round" stroke-linejoin="round" stroke-width="1.5"/><path d="M19.62477,10.87524h0A2,2,0,0,1,17.62867,13H6.37133a2,2,0,0,1-1.9961-2.12476h0A.93347.93347,0,0,1,5.30688,10H18.69312A.93347.93347,0,0,1,19.62477,10.87524Z" fill="none" stroke="#323232" stroke-linecap="round" stroke-linejoin="round" stroke-width="1.5"/><path d="M8,5.21068v-.544H8A2.66667,2.66667,0,0,1,10.66666,2h2.66668A2.66667,2.66667,0,0,1,16,4.66666h0v.544" fill="none" stroke="#323232" stroke-linecap="round" stroke-linejoin="round" stroke-width="1.5"/></g></svg>