<?xml version="1.0" encoding="UTF-8"?><svg version="1.1" viewBox="0 0 24 24" xmlns="http://www.w3.org/2000/svg" xmlns:xlink="http://www.w3.org/1999/xlink"><g stroke-linecap="round" stroke-width="1.5" stroke="#323232" fill="none" stroke-linejoin="round"><path d="M6 11v-2.375l2.30926e-14 3.01992e-07c-1.66785e-07-1.10457.89543-2 2-2h11l-8.74228e-08 1.77636e-15c1.10457-4.82823e-08 2 .89543 2 2v10.375 0c0 1.10457-.895431 2-2 2h-6"></path><path d="M10.121 18.747l-5.43339e-08 5.43247e-08c-1.17167 1.17147-3.07117 1.17131-4.24264-.000359437 -1.17147-1.17167-1.17131-3.07117.000359437-4.24264 1.17153-1.17133 3.07075-1.17133 4.24228 1.08649e-07l-5.43339e-08-5.43247e-08c1.17167 1.17147 1.17183 3.07097.000359437 4.24264 -.000119766.000119786-.000239542.000239562-.000359328.000359328"></path><path d="M4 20.626l1.88-1.88"></path><path d="M10 6.625v-.75l3.90799e-14 5.28485e-07c-2.91874e-07-1.933 1.567-3.5 3.5-3.5v0l-1.5299e-07 3.55271e-15c1.933-8.4494e-08 3.5 1.567 3.5 3.5 0 0 0 2.66454e-15 0 2.66454e-15v.75"></path></g><path fill="none" d="M0 0h24v24h-24Z"></path></svg>