<?xml version="1.0" encoding="UTF-8"?><svg version="1.1" viewBox="0 0 24 24" xmlns="http://www.w3.org/2000/svg" xmlns:xlink="http://www.w3.org/1999/xlink"><g stroke-linecap="round" stroke-width="1.5" stroke="#323232" fill="none" stroke-linejoin="round"><path d="M6 11v-2.375l2.30926e-14 3.01992e-07c-1.66785e-07-1.10457.89543-2 2-2h11l-8.74228e-08 1.77636e-15c1.10457-4.82823e-08 2 .89543 2 2v10.375 0c0 1.10457-.895431 2-2 2h-6"></path><circle cx="7" cy="17.625" r="4"></circle><path d="M13.5 2.375v0l-1.5299e-07 3.9968e-15c1.933-8.4494e-08 3.5 1.567 3.5 3.5 0 0 0 8.88178e-16 0 8.88178e-16v.75h-7v-.75l3.90799e-14 5.28485e-07c-2.91874e-07-1.933 1.567-3.5 3.5-3.5Z"></path><line x1="7" x2="7" y1="16.12" y2="19.12"></line><line x1="5.5" x2="8.5" y1="17.62" y2="17.62"></line></g><path fill="none" d="M0 0h24v24h-24Z"></path></svg>