<?xml version="1.0" encoding="UTF-8"?><svg version="1.1" viewBox="0 0 24 24" xmlns="http://www.w3.org/2000/svg" xmlns:xlink="http://www.w3.org/1999/xlink"><!--Generated by IJSVG (https://github.com/iconjar/IJSVG)--><g fill="none"><path d="M0,0h24v24h-24Z"></path><path d="M24,0v24h-24v-24h24Z"></path><path stroke="#323232" stroke-linecap="round" stroke-linejoin="round" stroke-width="1.5" d="M4.5,12.75l-1.5,1.5l-1.5,-1.5"></path><path stroke="#323232" stroke-linecap="round" stroke-linejoin="round" stroke-width="1.5" d="M19.5,11.25l1.5,-1.5l1.5,1.5"></path><path stroke="#323232" stroke-linecap="round" stroke-linejoin="round" stroke-width="1.5" d="M19.371,6.845c-1.627,-2.323 -4.319,-3.845 -7.371,-3.845c-4.971,0 -9,4.029 -9,9c0,0.694 0.086,1.366 0.235,2.015"></path><path stroke="#323232" stroke-linecap="round" stroke-linejoin="round" stroke-width="1.5" d="M4.629,17.155c1.627,2.323 4.319,3.845 7.371,3.845c4.971,0 9,-4.029 9,-9c0,-0.694 -0.086,-1.366 -0.235,-2.015"></path><path stroke="#323232" stroke-linecap="round" stroke-linejoin="round" stroke-width="1.5" d="M13.706,9.091v-0.776c0,-0.998 -0.768,-1.815 -1.706,-1.815c-0.938,0 -1.706,0.817 -1.706,1.815v0.776"></path><path stroke="#323232" stroke-linecap="round" stroke-linejoin="round" stroke-width="1.5" d="M14.669,9.091h-5.338c-0.445,0 -0.817,0.338 -0.86,0.782l-0.495,5.182c-0.049,0.506 0.35,0.945 0.86,0.945h6.329c0.509,0 0.908,-0.439 0.86,-0.946l-0.495,-5.182c-0.043,-0.443 -0.415,-0.781 -0.861,-0.781Z"></path></g></svg>