<svg id="Layer_3" data-name="Layer 3" xmlns="http://www.w3.org/2000/svg" viewBox="0 0 24 24"><path d="M11,21H6a1.99945,1.99945,0,0,1-2-2V8.5A1.50055,1.50055,0,0,1,5.5,7h13A1.50055,1.50055,0,0,1,20,8.5V11" fill="none" stroke="#323232" stroke-linecap="round" stroke-linejoin="round" stroke-width="1.5"/><path d="M18.243,20.4852A1.75869,1.75869,0,0,1,17,21h0a1.75869,1.75869,0,0,1-1.243-.5148l-2.10638-2.10638a2.2107,2.2107,0,0,1,3.12024-3.13255l.00615.00615.223.223.223-.223a2.2107,2.2107,0,1,1,3.13254,3.12025l-.00615.00615Z" fill="none" stroke="#323232" stroke-linecap="round" stroke-linejoin="round" stroke-width="1.5"/><path d="M8,7V6.75H8A3.75009,3.75009,0,0,1,11.75,3h.5A3.75009,3.75009,0,0,1,16,6.75h0V7" fill="none" stroke="#323232" stroke-linecap="round" stroke-linejoin="round" stroke-width="1.5"/><path d="M0,0H24V24H0Z" fill="none"/></svg>