<svg id="Layer_3" data-name="Layer 3" xmlns="http://www.w3.org/2000/svg" viewBox="0 0 24 24"><path id="a-2" d="M0,0H24V24H0Z" fill="none"/><path d="M7.5,3H6A3,3,0,0,0,3,6V7.5" fill="none" stroke="#323232" stroke-linecap="round" stroke-linejoin="round" stroke-width="1.5"/><path d="M3,16.5V18a3,3,0,0,0,3,3H7.5" fill="none" stroke="#323232" stroke-linecap="round" stroke-linejoin="round" stroke-width="1.5"/><path d="M16.5,21H18a3,3,0,0,0,3-3V16.5" fill="none" stroke="#323232" stroke-linecap="round" stroke-linejoin="round" stroke-width="1.5"/><path d="M21,7.5V6a3,3,0,0,0-3-3H16.5" fill="none" stroke="#323232" stroke-linecap="round" stroke-linejoin="round" stroke-width="1.5"/><rect x="7.5" y="8.969" width="9" height="7.875" rx="1.101" stroke-width="1.5" stroke="#323232" stroke-linecap="round" stroke-linejoin="round" fill="none"/><path d="M13.772,8.969V7.927A1.772,1.772,0,0,0,12,6.155h0a1.772,1.772,0,0,0-1.772,1.772h0V8.969" fill="none" stroke="#323232" stroke-linecap="round" stroke-linejoin="round" stroke-width="1.5"/></svg>