<?xml version="1.0" encoding="UTF-8"?><svg version="1.1" viewBox="0 0 24 24" xmlns="http://www.w3.org/2000/svg" xmlns:xlink="http://www.w3.org/1999/xlink"><!--Generated by IJSVG (https://github.com/iconjar/IJSVG)--><g stroke-linecap="round" stroke-width="1.5566" stroke="#323232" fill="none" stroke-linejoin="round"><path d="M19,20h-14c-1.105,0 -2,-0.895 -2,-2v-8.5c0,-1.105 0.895,-2 2,-2h14c1.105,0 2,0.895 2,2v8.5c0,1.105 -0.895,2 -2,2Z"></path><path stroke-width="1.3416" d="M15.645,7.5v-1.573c0,-1.105 -0.895,-2 -2,-2h-3.291c-1.105,0 -2,0.895 -2,2v1.573"></path><path stroke-width="1.5" d="M7.5,7.5v12.5"></path><path stroke-width="1.5" d="M16.5,13v-5.5"></path><path stroke-width="1.5" d="M13,13h5v3h-5Z"></path><path stroke-width="1.5" d="M16.5,20v-4"></path></g><path fill="none" d="M0,0h24v24h-24Z"></path></svg>