<?xml version="1.0" encoding="UTF-8"?><svg version="1.1" viewBox="0 0 24 24" xmlns="http://www.w3.org/2000/svg" xmlns:xlink="http://www.w3.org/1999/xlink"><g fill="none"><path d="M0 0h24v24h-24Z"></path><path stroke="#323232" stroke-linecap="round" stroke-linejoin="round" stroke-width="1.5" d="M6 21h-1l-8.74228e-08-3.55271e-15c-1.10457-4.82823e-08-2-.895431-2-2 0 0 0 0 0 0v-10.375l2.30926e-14 3.01992e-07c-1.66785e-07-1.10457.89543-2 2-2h11l-8.74228e-08 1.77636e-15c1.10457-4.82823e-08 2 .89543 2 2v.375"></path><path stroke="#323232" stroke-linecap="round" stroke-linejoin="round" stroke-width="1.5" d="M10.714 12h9l4.2231e-08-3.28768e-11c.709686-.000552476 1.28545.574314 1.286 1.284 5.19189e-07.000666926 5.19167e-07.00133385-6.57536e-11.00200078v6.429l4.9738e-14 3.46874e-07c0 .709686-.575314 1.285-1.285 1.285 -.000333449 0-.000666898-1.29792e-07-.00100035-3.89375e-07h-9l-5.62128e-08-3.55271e-15c-.710238-3.10455e-08-1.286-.575762-1.286-1.286 0 0 0 0 0 0v-6.429l-5.43557e-09 7.01474e-06c.000548109-.709848.576145-1.285 1.28599-1.28501Z"></path><path stroke="#323232" stroke-linecap="round" stroke-linejoin="round" stroke-width="1.5" d="M12.964 15l2.30926e-14-2.80505e-07c-1.87634e-07 1.24264 1.00736 2.25 2.25 2.25 1.24264 1.87634e-07 2.25-1.00736 2.25-2.25 3.55271e-15-3.58425e-08 1.06581e-14-8.96063e-08 1.42109e-14-1.25449e-07"></path><path stroke="#323232" stroke-linecap="round" stroke-linejoin="round" stroke-width="1.5" d="M14 6.625v-.75 0c0-1.933-1.567-3.5-3.5-3.5v0l-1.5299e-07 3.55271e-15c-1.933 8.4494e-08-3.5 1.567-3.5 3.5 0 0 0 8.88178e-16 0 8.88178e-16v.75"></path></g></svg>