<?xml version="1.0" encoding="UTF-8"?><svg version="1.1" viewBox="0 0 24 24" xmlns="http://www.w3.org/2000/svg" xmlns:xlink="http://www.w3.org/1999/xlink"><g stroke-linecap="round" stroke-width="1.5" stroke="#323232" fill="none" stroke-linejoin="round"><path d="M19.451 4.549v0l1.17589e-07 1.17551e-07c-2.06574-2.06508-5.41426-2.06508-7.48-2.35102e-07l-7.422 7.422 -4.59294e-08 4.5944e-08c-2.06508 2.06574-2.06508 5.41426 9.18588e-08 7.48v0l1.33078e-09 1.33035e-09c2.06574 2.06508 5.41426 2.06508 7.48-2.66071e-09l7.422-7.422 1.63481e-07-1.63533e-07c2.06508-2.06574 2.06508-5.41426-3.74221e-07-7.48Z"></path><line x1="4.55" x2="12.03" y1="11.97" y2="19.45"></line><line x1="19.45" x2="11.97" y1="12.03" y2="4.55"></line><path d="M14.459 11.959h-1.79217e-09c-.0226437 9.89786e-10-.041.0183563-.041.041 9.89786e-10.0226437.0183563.041.041.041 .0226437-9.89786e-10.041-.0183563.041-.041 0 0 0-3.55271e-15 0-3.55271e-15v0c0-.0226437-.0183563-.041-.041-.041 0 0 0 0 0 0"></path><path d="M12 11.959h-1.79217e-09c-.0226437 9.89786e-10-.041.0183563-.041.041 9.89786e-10.0226437.0183563.041.041.041 .0226437-9.89786e-10.041-.0183563.041-.041v1.79217e-09c0-.0226437-.0183563-.041-.041-.041"></path><path d="M9.541 11.959h-1.79216e-09c-.0226437 9.89786e-10-.041.0183563-.041.041 9.89786e-10.0226437.0183563.041.041.041 .0226437-9.89786e-10.041-.0183563.041-.041v0c0-.0226437-.0183563-.041-.041-.041 0 0 0 0 0 0"></path><path d="M11.959 9.541v-6.19083e-09c-3.4191e-09.0226437.0183563.041.041.041 .0226437 3.4191e-09.041-.0183563.041-.041 3.4191e-09-.0226437-.0183563-.041-.041-.041 0 0-1.77636e-15 0-1.77636e-15 0h-1.79217e-09c-.0226437 9.89786e-10-.041.0183563-.041.041 0 0 0 1.77636e-15 0 1.77636e-15"></path><path d="M11.959 14.459v6.19083e-09c3.4191e-09.0226437.0183563.041.041.041 .0226437-3.4191e-09.041-.0183563.041-.041 -3.4191e-09-.0226437-.0183563-.041-.041-.041h-1.79217e-09c-.0226437 9.89786e-10-.041.0183563-.041.041 0 0 0 1.77636e-15 0 1.77636e-15"></path></g><path fill="none" d="M0 0h24v24h-24Z"></path></svg>