<?xml version="1.0" encoding="UTF-8"?><svg version="1.1" viewBox="0 0 24 24" xmlns="http://www.w3.org/2000/svg" xmlns:xlink="http://www.w3.org/1999/xlink"><g stroke-linecap="round" stroke-width="1.5" stroke="#323232" fill="none" stroke-linejoin="round"><path d="M12 6h-10v-1.6l5-2.4 5 2.4v1.6Z"></path><path d="M2 12h7"></path><path d="M3 12v-6"></path><path d="M6 12v-6"></path><path d="M9 12v-6"></path><path d="M8 21h-3.286c-.946 0-1.714-.768-1.714-1.714v-3.286"></path><path d="M16 4h3.286c.946 0 1.714.768 1.714 1.714v3.286"></path><path d="M12 15v4c0 1.105.895 2 2 2h6c1.105 0 2-.895 2-2v-4c0-1.105-.895-2-2-2h-6c-1.105 0-2 .895-2 2Z"></path><path d="M22 16h-10"></path></g><path fill="none" d="M0 0h24v24h-24v-24Z"></path></svg>