<?xml version="1.0" encoding="UTF-8"?><svg version="1.1" viewBox="0 0 24 24" xmlns="http://www.w3.org/2000/svg" xmlns:xlink="http://www.w3.org/1999/xlink"><defs><path d="M3 12h7" id="b"></path><path d="M13 6h-10v-1.6l5-2.4 5 2.4v1.6Z" id="a"></path></defs><g stroke-linecap="round" stroke-width="1.5" stroke="#323232" fill="none" stroke-linejoin="round"><use xlink:href="#a"></use><use xlink:href="#b"></use><use xlink:href="#a"></use><use xlink:href="#b"></use><path d="M4 12v-6"></path><path d="M7 12v-6"></path><path d="M10 12v-6"></path><path d="M18.902 16.801l-1.75 1.751 -1.05-1.05"></path><path d="M13.249 18.233l.598.782 .129.973c.072.54.496.965 1.036 1.037l.976.13 .781.597c.432.33 1.032.331 1.465 0l.782-.597h-.002l.974-.129c.54-.072.965-.496 1.037-1.036l.13-.976c0 0 .302-.395.598-.781 .33-.432.33-1.032 0-1.464l-.598-.782 -.129-.973c-.072-.54-.496-.965-1.036-1.037l-.976-.13 -.781-.597c-.432-.33-1.032-.331-1.465 0l-.782.597h.001l-.974.129c-.54.072-.965.496-1.037 1.036l-.13.976c0 0-.302.395-.598.781 -.33.432-.33 1.032.001 1.464Z"></path><path d="M9 21h-4.286c-.946 0-1.714-.768-1.714-1.714v-3.286"></path><path d="M16 4h3.286c.946 0 1.714.768 1.714 1.714v3.286"></path></g><path fill="none" d="M0 0h24v24h-24v-24Z"></path></svg>