<?xml version="1.0" encoding="UTF-8"?><svg version="1.1" viewBox="0 0 24 24" xmlns="http://www.w3.org/2000/svg" xmlns:xlink="http://www.w3.org/1999/xlink"><g fill="none"><path d="M0 0h24v24h-24Z"></path><path stroke="#323232" stroke-linecap="round" stroke-linejoin="round" stroke-width="1.5" d="M15.643 9v8"></path><path stroke="#323232" stroke-linecap="round" stroke-linejoin="round" stroke-width="1.5" d="M20 17v-8"></path><path stroke="#323232" stroke-linecap="round" stroke-linejoin="round" stroke-width="1.5" d="M12 20h10v-1l-1-2h-8"></path><path stroke="#323232" stroke-linecap="round" stroke-linejoin="round" stroke-width="1.5" d="M3 16.6171v-1.89409l-2.29003e-08-2.18487e-05c-.000402448-.388522.251582-.732285.622211-.848835l2.66655-.83286 -1.76165e-09 5.58286e-10c.173518-.0549897.359792-.0549897.53331-1.11657e-09l2.66655.83286 -1.27444e-08-4.00767e-09c.370632.116551.622612.460324.62219.84885v1.89414l2.24903e-08.000447107c0 1.85259-1.1492 3.51084-2.88384 4.1613l-.51553.19288 -2.22976e-08 8.38417e-09c-.100847.0379195-.212033.0379195-.31288-1.67684e-08l-.51553-.19288 -1.01279e-07-3.80002e-08c-1.73449-.650787-2.88336-2.30923-2.88303-4.16179Z"></path><polygon stroke="#323232" stroke-linecap="round" stroke-linejoin="round" stroke-width="1.5" points="4,9 22,9 22,5.928 13,2 4,5.928 4,9"></polygon></g></svg>