<?xml version="1.0" encoding="UTF-8"?><svg version="1.1" viewBox="0 0 24 24" xmlns="http://www.w3.org/2000/svg" xmlns:xlink="http://www.w3.org/1999/xlink"><g fill="none"><path d="M0 0h24v24h-24Z"></path><path stroke="#323232" stroke-linecap="round" stroke-linejoin="round" stroke-width="1.5" d="M16 3h3.286l-7.49213e-08 1.33227e-15c.946616-4.13779e-08 1.714.767384 1.714 1.714v3.286"></path><path stroke="#323232" stroke-linecap="round" stroke-linejoin="round" stroke-width="1.5" d="M8 21h-3.286 -7.49213e-08c-.946616-4.13779e-08-1.714-.767384-1.714-1.714 0 0 0-3.55271e-15 0-3.55271e-15v-3.286"></path><path stroke="#323232" stroke-linecap="round" stroke-linejoin="round" stroke-width="1.5" d="M18.694 12.605l3.046 5.413 -2.3315e-08-4.13668e-08c.542344.962256.201939 2.18198-.760317 2.72432 -.299037.168542-.63642.257282-.979683.25768h-6.095l7.21298e-08-4.24194e-12c-1.10457 6.49991e-05-2.00005-.895313-2.00012-1.99988 -2.02252e-05-.343699.0885331-.681604.257118-.981118l3.046-5.414 1.10284e-07-1.9599e-07c.541676-.962632 1.76116-1.30388 2.72379-.762209 .319039.179524.582685.44317.762209.762209Z"></path><path stroke="#323232" stroke-linecap="round" stroke-linejoin="round" stroke-width="1.5" d="M16.951 16.42v-1.835"></path><path stroke="#323232" stroke-linecap="round" stroke-linejoin="round" stroke-width="1.5" d="M16.95 18.445l-2.12589e-09-1.3145e-13c-.0497056-3.06717e-06-.0900025.0402888-.0900056.0899944 -2.06837e-08.000335193 1.83121e-06.000670384 5.55558e-06.00100556l-1.65887e-10-5.48093e-06c7.58873e-09.0502579.0407421.091.091.091 .0502579-7.58873e-09.091-.0407421.091-.091 -7.58873e-09-.0502579-.0407421-.091-.091-.091 -.000331509 5.00542e-11-.000663016 1.81161e-06-.000994505 5.4346e-06"></path><path stroke="#323232" stroke-linecap="round" stroke-linejoin="round" stroke-width="1.5" d="M12 6h-10v-1.6l5-2.4 5 2.4Z"></path><path stroke="#323232" stroke-linecap="round" stroke-linejoin="round" stroke-width="1.5" d="M2 12h7"></path><path stroke="#323232" stroke-linecap="round" stroke-linejoin="round" stroke-width="1.5" d="M3 12v-6"></path><path stroke="#323232" stroke-linecap="round" stroke-linejoin="round" stroke-width="1.5" d="M6 12v-6"></path><path stroke="#323232" stroke-linecap="round" stroke-linejoin="round" stroke-width="1.5" d="M9 12v-6"></path></g></svg>