<svg id="Layer_3" data-name="Layer 3" xmlns="http://www.w3.org/2000/svg" viewBox="0 0 24 24"><rect width="24" height="24" fill="none"/><path d="M9,17V9" fill="none" stroke="#323232" stroke-linecap="round" stroke-linejoin="round" stroke-width="1.5"/><path d="M5,9v8" fill="none" stroke="#323232" stroke-linecap="round" stroke-linejoin="round" stroke-width="1.5"/><path d="M10,17H4L3,19v1h7" fill="none" stroke="#323232" stroke-linecap="round" stroke-linejoin="round" stroke-width="1.5"/><polygon points="21 5.928 12 2 3 5.928 3 9 21 9 21 5.928" fill="none" stroke="#323232" stroke-linecap="round" stroke-linejoin="round" stroke-width="1.5"/><path d="M13,15.75v3.5A1.75,1.75,0,0,0,14.75,21h5.5A1.75,1.75,0,0,0,22,19.25v-3.5A1.75,1.75,0,0,0,20.25,14h-5.5A1.75,1.75,0,0,0,13,15.75Z" fill="none" stroke="#323232" stroke-linecap="round" stroke-linejoin="round" stroke-width="1.5"/><path d="M15.5,16.65l1.49982.866a1.00039,1.00039,0,0,0,1.00041,0L19.5,16.65" fill="none" stroke="#323232" stroke-linecap="round" stroke-linejoin="round" stroke-width="1.5"/><line x1="15.00002" y1="9.00019" x2="15.00002" y2="11.00011" fill="none" stroke="#323232" stroke-linecap="round" stroke-linejoin="round" stroke-width="1.5"/><line x1="19.00002" y1="9.00019" x2="19.00002" y2="11.00011" fill="none" stroke="#323232" stroke-linecap="round" stroke-linejoin="round" stroke-width="1.5"/></svg>