<?xml version="1.0" encoding="UTF-8"?><svg version="1.1" viewBox="0 0 24 24" xmlns="http://www.w3.org/2000/svg" xmlns:xlink="http://www.w3.org/1999/xlink"><!--Generated by IJSVG (https://github.com/iconjar/IJSVG)--><g stroke-linecap="round" stroke-width="1.5" stroke="#323232" fill="none" stroke-linejoin="round"><path d="M16,18.5h2"></path><path d="M19,21h-4c-1.105,0 -2,-0.895 -2,-2v-7c0,-1.105 0.895,-2 2,-2h4c1.105,0 2,0.895 2,2v7c0,1.105 -0.895,2 -2,2Z"></path><path d="M13,7h-10v-1.6l5,-2.4l5,2.4Z"></path><path d="M3,13h7"></path><path d="M4,13v-6"></path><path d="M7,13v-6"></path><path d="M10,13v-6"></path><path d="M9,21h-4.286c-0.946,0 -1.714,-0.768 -1.714,-1.714v-2.286"></path><path d="M16,3h3.286c0.946,0 1.714,0.768 1.714,1.714v2.286"></path></g><path fill="none" d="M0,0h24v24h-24v-24Z"></path></svg>