<svg viewBox="0 0 24 24" xmlns="http://www.w3.org/2000/svg"><g fill="none"><path d="M0 0h24v24H0Z"/><g stroke-linecap="round" stroke-width="1.5" stroke="#323232" fill="none" stroke-linejoin="round"><path d="M16.75 19.5L9 19.5"/><path d="M8.79 15.64l-.82 2.44"/><path d="M7.5 18a1.5 1.5 0 1 0 0 3 1.5 1.5 0 1 0 0-3Z"/><path d="M15.25 15.63L17.33 21"/><path d="M5 8h14l-.01 0c.55-.01 1 .44 1 .99v0 0c0 3.31-2.69 6-6 6h-4l-.01-.001c-3.32-.01-6-2.69-6-6 0 0 0-.001 0-.001v0l0 0c-.01-.56.44-1.01.99-1.01Z"/><path d="M8.25 5l0 0c-.34-.45-.34-1.06-.01-1.5l0-.01c.33-.45.33-1.06-.01-1.5"/><path d="M15.75 5l0 0c-.34-.45-.34-1.06-.01-1.5l0-.01c.33-.45.33-1.06-.01-1.5"/><path d="M12 5l0 0c-.34-.45-.34-1.06-.01-1.5l0-.01c.33-.45.33-1.06 0-1.51"/></g></g></svg>