<svg id="Layer_3" data-name="Layer 3" xmlns="http://www.w3.org/2000/svg" viewBox="0 0 24 24"><path d="M8,7V9" fill="none" stroke="#323232" stroke-linecap="round" stroke-linejoin="round" stroke-width="1.5"/><path d="M11,7V9" fill="none" stroke="#323232" stroke-linecap="round" stroke-linejoin="round" stroke-width="1.5"/><line x1="14" y1="7" x2="14" y2="9" fill="none" stroke="#323232" stroke-linecap="round" stroke-linejoin="round" stroke-width="1.5"/><path d="M14,20h4.5A2.5,2.5,0,0,0,21,17.5V5.5A2.5,2.5,0,0,0,18.5,3H5.5A2.5,2.5,0,0,0,3,5.5V10" fill="none" stroke="#323232" stroke-linecap="round" stroke-linejoin="round" stroke-width="1.5"/><path d="M4.5,18h6.299a1,1,0,0,0,.92848-.62861l1.2-3A1,1,0,0,0,11.999,13H4.5A2.5,2.5,0,0,0,2,15.5H2A2.5,2.5,0,0,0,4.5,18Z" fill="none" stroke="#323232" stroke-linecap="round" stroke-linejoin="round" stroke-width="1.5"/><path d="M8.61188,18,7.47749,20.8624A1.80121,1.80121,0,0,1,5.803,22h0a1.80122,1.80122,0,0,1-1.67609-2.46084L4.7326,18" fill="none" stroke="#323232" stroke-linecap="round" stroke-linejoin="round" stroke-width="1.5"/><path d="M17,7v8" fill="none" stroke="#323232" stroke-linecap="round" stroke-linejoin="round" stroke-width="1.5"/><path d="M24,0H0V24H24Z" fill="none"/><path d="M24,0H0V24H24Z" fill="none"/></svg>