<?xml version="1.0" encoding="UTF-8"?><svg version="1.1" viewBox="0 0 24 24" xmlns="http://www.w3.org/2000/svg" xmlns:xlink="http://www.w3.org/1999/xlink"><!--Generated by IJSVG (https://github.com/iconjar/IJSVG)--><g stroke-linecap="round" stroke-width="1.5" stroke="#323232" fill="none" stroke-linejoin="round"><path d="M21.064,19.784l-2.655,-12c-0.101,-0.458 -0.507,-0.784 -0.976,-0.784h-10.866c-0.469,0 -0.875,0.326 -0.976,0.784l-2.655,12c-0.138,0.624 0.337,1.216 0.976,1.216h16.176c0.639,0 1.114,-0.592 0.976,-1.216Z"></path><path d="M14.5,7v-2.5v0v0c0,-1.381 -1.119,-2.5 -2.5,-2.5h-0.001c-1.381,0 -2.5,1.119 -2.5,2.5v0v0v2.5"></path><path d="M18.16,7.34l-3.02,13.66"></path></g><path fill="none" d="M0,0h24v24h-24Z"></path></svg>