<?xml version="1.0" encoding="UTF-8"?><svg version="1.1" viewBox="0 0 24 24" xmlns="http://www.w3.org/2000/svg" xmlns:xlink="http://www.w3.org/1999/xlink"><g stroke-linecap="round" stroke-width="1.5" stroke="#323232" fill="none" stroke-linejoin="round"><path d="M11 20l-3.93403e-07-7.10543e-15c-4.97056-2.1727e-07-9-4.02944-9-9 2.1727e-07-4.97056 4.02944-9 9-9 4.97056 2.1727e-07 9 4.02944 9 9"></path><path d="M15 11l6.87077e-07-.000254018c.0075337-2.79375-.741326-5.53743-2.16713-7.93996l-4.05371e-09-7.04776e-09c-.582114-1.01206-1.87445-1.3606-2.88651-.778489 -.323699.186184-.592305.45479-.778489.778489l-3.00488e-07 5.09419e-07c-2.88989 4.89926-2.88989 10.9817 6.00976e-07 15.881l-4.07619e-08-7.0444e-08c.378513.65414 1.07637 1.0576 1.83213 1.05922"></path><path d="M19.559 21h-4.118l-5.69286e-09 1.49711e-11c-.330341.000868626-.620908-.21818-.711-.536l-.7-2.545 -6.30257e-10-2.35125e-09c-.104385-.38942.126682-.789728.516102-.894113 .0625783-.0167742.127111-.0251433.191898-.0248866h5.525l2.02654e-08-1.6372e-10c.403155-.00325691.732616.320924.735873.724079 .000531551.0657977-.00783535.131365-.0248734.194921l-.7 2.545 5.58003e-09-1.9687e-08c-.0904892.319257-.383178.538671-.715.536Z"></path><path d="M14.59 16.948l2.352-2.7 4.14246e-09-4.74616e-09c.267289-.306242.732227-.33782 1.03847-.0705312 .0250783.0218884.0486428.0454529.0705313.0705313l2.359 2.7"></path><line x1="2.51" x2="19" y1="8" y2="8"></line><line x1="2.51" x2="11" y1="14" y2="14"></line></g><rect width="24" height="24" fill="none"></rect></svg>