<?xml version="1.0" encoding="UTF-8"?><svg version="1.1" viewBox="0 0 24 24" xmlns="http://www.w3.org/2000/svg" xmlns:xlink="http://www.w3.org/1999/xlink"><!--Generated by IJSVG (https://github.com/iconjar/IJSVG)--><g fill="none"><path d="M0,0h24v24h-24Z"></path><path stroke="#323232" stroke-linecap="round" stroke-linejoin="round" stroke-width="1.5" d="M4.31,6.527l2.09,-2.74c0.378,-0.496 0.966,-0.787 1.59,-0.787h8.02c0.624,0 1.212,0.291 1.59,0.787l2.09,2.74c0.266,0.348 0.41,0.775 0.41,1.213v11.26c0,1.105 -0.895,2 -2,2h-12.2c-1.105,0 -2,-0.895 -2,-2v-11.26c-4.44089e-16,-0.438 0.144,-0.864 0.41,-1.213Z"></path><path stroke="#323232" stroke-linecap="round" stroke-linejoin="round" stroke-width="1.5" d="M16,10c0,2.209 -1.791,4 -4,4c-2.209,0 -4,-1.791 -4,-4"></path><path stroke="#323232" stroke-linecap="round" stroke-linejoin="round" stroke-width="1.5" d="M4.02,7.07h15.96"></path></g></svg>