<?xml version="1.0" encoding="UTF-8"?><svg version="1.1" viewBox="0 0 24 24" xmlns="http://www.w3.org/2000/svg" xmlns:xlink="http://www.w3.org/1999/xlink"><defs><path d="M21 18v0c0 1.65685-1.34315 3-3 3" id="a"></path><path d="M3 6l3.41949e-14 4.52987e-07c-2.50178e-07-1.65685 1.34315-3 3-3" id="b"></path></defs><g stroke-linecap="round" stroke-width="1.5" stroke="#323232" fill="none" stroke-linejoin="round"><use xlink:href="#a"></use><use xlink:href="#a"></use><path d="M15.045 16.5h-6.09l8.05674e-10-1.66978e-13c-.451072 9.20917e-05-.846368-.301808-.965-.737l-.955-3.5 -5.20669e-09-1.91003e-08c-.145251-.532842.168954-1.08254.701796-1.2278 .0857796-.0233832.174295-.0352223.263204-.0352041h8l4.23438e-08-8.64198e-12c.552285-.000112738 1.00009.447511 1.0002.999796 1.81491e-05.0889096-.0118209.177425-.0352042.263204l-.955 3.5 -2.54789e-09 9.34673e-09c-.118632.435192-.513928.737092-.965.737Z"></path><path d="M8.051 11l3.192-3.658 4.68379e-08-5.35985e-08c.363415-.41587.99515-.458394 1.41102-.0949794 .0337527.0294954.0654841.0612267.0949795.0949795l3.201 3.658"></path><use xlink:href="#b"></use><use xlink:href="#b"></use><path d="M6 21l-1.31134e-07-3.55271e-15c-1.65685-7.24234e-08-3-1.34315-3-3 0 0 0-3.55271e-15 0-3.55271e-15"></path><path d="M18 3l-1.31134e-07 3.10862e-15c1.65685-7.24234e-08 3 1.34315 3 3"></path><path d="M3 13.625v1.25"></path><path d="M3 9.125v1.25"></path><path d="M21 10.375v-1.25"></path><path d="M21 14.875v-1.25"></path><path d="M13.625 21h1.25"></path><path d="M9.125 21h1.25"></path><path d="M10.375 3h-1.25"></path><path d="M14.875 3h-1.25"></path></g><rect width="24" height="24" fill="none"></rect></svg>