<svg id="Layer_3" data-name="Layer 3" xmlns="http://www.w3.org/2000/svg" viewBox="0 0 24 24"><path d="M0,0H24V24H0Z" fill="none"/><path d="M14.18749,9.5V7.75a.75.75,0,0,0-.75-.75h-2.875a.75.75,0,0,0-.75.75V9.5" fill="none" stroke="#323232" stroke-linecap="round" stroke-linejoin="round" stroke-width="1.5"/><line x1="16.5" y1="9.5" x2="7.5" y2="9.5" fill="none" stroke="#323232" stroke-linecap="round" stroke-linejoin="round" stroke-width="1.5"/><path d="M8.25,9.5l.4881,6.34583A1.25,1.25,0,0,0,9.98444,17h4.03112a1.25,1.25,0,0,0,1.24634-1.15417L15.75,9.5" fill="none" stroke="#323232" stroke-linecap="round" stroke-linejoin="round" stroke-width="1.5"/><path d="M14,21H9a6,6,0,0,1-6-6V9A6,6,0,0,1,9,3h6a6,6,0,0,1,6,6v5" fill="none" stroke="#323232" stroke-linecap="round" stroke-linejoin="round" stroke-width="1.5"/><line x1="18" y1="18" x2="21" y2="21" fill="none" stroke="#323232" stroke-linecap="round" stroke-linejoin="round" stroke-width="1.5"/><line x1="18" y1="21" x2="21" y2="18" fill="none" stroke="#323232" stroke-linecap="round" stroke-linejoin="round" stroke-width="1.5"/></svg>