<?xml version="1.0" encoding="UTF-8"?><svg version="1.1" viewBox="0 0 24 24" xmlns="http://www.w3.org/2000/svg" xmlns:xlink="http://www.w3.org/1999/xlink"><g fill="none"><path d="M0 0h24v24h-24v-24Z"></path><path stroke="#323232" stroke-linecap="round" stroke-linejoin="round" stroke-width="1.5" d="M10 20h-5c-1.105 0-2-.895-2-2v-10.5c0-.828.672-1.5 1.5-1.5h13c.828 0 1.5.672 1.5 1.5v2.5"></path><path stroke="#323232" stroke-linecap="round" stroke-linejoin="round" stroke-width="1.5" d="M13.561 18.306c-.32-.485-.32-1.125 0-1.61 .99-1.497 2.544-2.696 4.099-2.696 1.555 0 3.108 1.199 4.099 2.695 .321.485.321 1.126 0 1.61 -.992 1.496-2.545 2.695-4.099 2.695 -1.555.001-3.109-1.198-4.099-2.694Z"></path><path stroke="#323232" stroke-linecap="round" stroke-linejoin="round" stroke-width="1.5" d="M17.776 17.384c.065.065.065.169 0 .234 -.065.065-.169.065-.234 0 -.065-.065-.065-.169 0-.234 .065-.065.17-.065.234 0"></path><path stroke="#323232" stroke-linecap="round" stroke-linejoin="round" stroke-width="1.5" d="M7 6v-.25 0c0-2.071 1.679-3.75 3.75-3.75h.5c2.071 0 3.75 1.679 3.75 3.75v0 .25"></path></g></svg>