<?xml version="1.0" encoding="UTF-8"?><svg version="1.1" viewBox="0 0 24 24" xmlns="http://www.w3.org/2000/svg" xmlns:xlink="http://www.w3.org/1999/xlink"><g stroke-linecap="round" stroke-width="1.5" stroke="#323232" fill="none" stroke-linejoin="round"><path d="M12.989 14h-3.989l8.05674e-10-1.66978e-13c-.451072 9.20917e-05-.846368-.301808-.965-.737l-.5-1.851 -4.9948e-09-1.8323e-08c-.145251-.532842.168954-1.08254.701796-1.2278 .0857796-.0233832.174295-.0352223.263204-.0352041h5l5.04033e-08 4.01119e-11c.552285.000439507.999643.448511.999204 1.0008 -7.04877e-05.0885749-.0119087.176748-.0352039.262205l-.5 1.851 -1.56376e-08 5.73774e-08c-.11959.4388-.520219.741634-.975.737Z"></path><path d="M8.131 10.224l2.051-2.813 -1.11263e-08 1.52314e-08c.325775-.44597.951398-.543407 1.39737-.217632 .0833401.0608788.156754.134292.217632.217632l2.057 2.813"></path></g><path fill="none" d="M24 24h-24v-24h24Z"></path><g fill="none"><path d="M24 0v24h-24"></path><path stroke="#323232" stroke-linecap="round" stroke-linejoin="round" stroke-width="1.5" d="M11 20l5.80162e-08-2.10889e-11c-4.97056.00180702-9.00146-4.02617-9.00327-8.99673 -.00180702-4.97056 4.02617-9.00146 8.99673-9.00327 4.58484-.00166679 8.43812 3.44355 8.94754 8"></path><path stroke="#323232" stroke-linecap="round" stroke-linejoin="round" stroke-width="1.5" d="M15.293 17.839l3.542-3.545 -7.07842e-09 7.11648e-09c.389476-.39157 1.02264-.393267 1.41421-.00379153 .00126723.00126045.00253107.00252429.00379152.00379152l1.453 1.453 2.46363e-08 2.45393e-08c.391294.389753.392542 1.02292.00278914 1.41421 -.000927895.000931562-.00185763.00186129-.00278919.00278919l-3.546 3.543 3.0874e-08-3.08833e-08c-.187493.187549-.441805.292943-.707.293h-2.453v-2.454l-2.28059e-08.000213418c4.00433e-08-.265195.10534-.51953.292849-.707063Z"></path></g></svg>