<svg viewBox="0 0 24 24" xmlns="http://www.w3.org/2000/svg"><g stroke-linecap="round" stroke-width="1.5" stroke="#323232" fill="none" stroke-linejoin="round"><path d="M17 21l-.01-.001c-2.21-.01-4-1.8-4-4.01s1.79-4 4-4c2.2 0 4 1.79 3.99 4l0-.01c0 2.2-1.8 3.99-4 4"/><path d="M18.08 16.95h-.01c-.03 0-.05.01-.05.04 0 .02.01.04.04.04 .02-.01.04-.02.04-.05 -.001-.01-.001-.01-.01-.01v0l0-.01c0-.03-.02-.05-.05-.05 -.01 0-.01 0-.01 0"/><path d="M15.91 16.95l0 0c-.03-.01-.05.01-.05.04 -.01 0-.01 0-.01 0v0l-.01 0c-.01.02.01.04.04.04 .02 0 .04-.02.04-.05 0-.03-.02-.05-.05-.05 -.01-.001-.01 0-.01 0v0"/><path d="M16.99 9h-.01l-4.72-5.42 0 0c-.62-.72-1.7-.79-2.41-.18 -.07.05-.13.11-.18.17C8.08 5.4 6.3 7.46 4.96 8.98v0"/><path d="M18.4 13.25l.53-1.96 0-.01c.26-.97-.31-1.97-1.28-2.24 -.16-.05-.32-.07-.48-.07H4.8l-.01 0c-1.01 0-1.82.81-1.82 1.81 0 .16.02.32.06.47l1.73 6.36 -.01-.01c.21.79.93 1.33 1.75 1.33h6.98"/></g><path fill="none" d="M0 0h24v24H0Z"/></svg>