<?xml version="1.0" encoding="UTF-8"?><svg version="1.1" viewBox="0 0 24 24" xmlns="http://www.w3.org/2000/svg" xmlns:xlink="http://www.w3.org/1999/xlink"><g stroke-linecap="round" stroke-width="1.5" stroke="#323232" fill="none" stroke-linejoin="round"><path d="M15.006 16.542c-.126 0-.229.102-.227.229 0 .126.102.229.229.229 .127 0 .229-.102.229-.229 -.002-.127-.105-.229-.231-.229"></path><path d="M9.748 16.542c-.126 0-.229.102-.227.229 -.001.126.102.229.228.229 .126 0 .229-.102.229-.229 1.77636e-15-.127-.103-.229-.23-.229"></path><path d="M17 21h-10c-2.209 0-4-1.791-4-4v-10c0-2.209 1.791-4 4-4h10c2.209 0 4 1.791 4 4v10c0 2.209-1.791 4-4 4Z"></path><path d="M7.984 8.875h7.891c.407 0 .705.382.606.777l-.842 3.37c-.128.512-.563.888-1.088.941l-4.26.426c-.635.063-1.216-.361-1.347-.985l-1.366-6.404h-1.078"></path></g><path fill="none" d="M0 0h24v24h-24v-24Z"></path></svg>