<?xml version="1.0" encoding="UTF-8"?><svg version="1.1" viewBox="0 0 24 24" xmlns="http://www.w3.org/2000/svg" xmlns:xlink="http://www.w3.org/1999/xlink"><g fill="none"><path d="M0 0h24v24h-24Z"></path><path stroke="#323232" stroke-linecap="round" stroke-linejoin="round" stroke-width="1.5" d="M14.123 13.5h-4.261l-2.13939e-08-1.1747e-11c-.315593-.000173299-.592044-.211505-.675-.516l-.668-2.45 -1.96557e-08-7.21468e-08c-.101621-.373004.118378-.757764.491383-.859385 .0595219-.0162161.120926-.0244927.182617-.0246147h5.6l1.76875e-08 9.70957e-12c.386599.000212256.699828.313785.699616.700384 -3.40541e-05.0620255-.00831173.123771-.0246156.183616l-.668 2.45 -1.09759e-08 4.02883e-08c-.0831506.305213-.360664.51673-.677.516Z"></path><path stroke="#323232" stroke-linecap="round" stroke-linejoin="round" stroke-width="1.5" d="M20.993 6.162v7.647l-3.18241e-08-9.64106e-05c.000605618 1.75406-1.42085 3.17649-3.1749 3.1771 -1.04331e-07 3.6021e-11-2.10531e-07 7.26814e-11-3.14861e-07 1.08695e-10h-4.8241l-5 4v-4h-1.825l-1.38827e-07-3.55271e-15c-1.75406-7.66722e-08-3.176-1.42194-3.176-3.176v0 -7.648l3.55271e-14-4.79563e-07c2.64855e-07-1.75406 1.42194-3.176 3.176-3.176h11.648l-1.38827e-07 3.10862e-15c1.75406-7.66722e-08 3.176 1.42194 3.176 3.176Z"></path><path stroke="#323232" stroke-linecap="round" stroke-linejoin="round" stroke-width="1.5" d="M9.122 9.667l1.978-2.715 -5.84534e-08 7.98261e-08c.358919-.490153 1.04723-.596539 1.53738-.23762 .0909093.0665692.171051.146711.23762.23762l1.987 2.717"></path></g></svg>