<?xml version="1.0" encoding="UTF-8"?><svg version="1.1" viewBox="0 0 24 24" xmlns="http://www.w3.org/2000/svg" xmlns:xlink="http://www.w3.org/1999/xlink"><g stroke-linecap="round" stroke-width="1.5" stroke="#323232" fill="none" stroke-linejoin="round"><path d="M8 3l-2.11 3.777"></path><path d="M15 3l2.3 3.777"></path><path d="M16 21c-2.761 0-5-2.239-5-5 0-2.761 2.239-5 5-5 2.762 0 5 2.239 5 5 0 2.761-2.238 5-5 5"></path><path d="M18.222 14.889l-2.778 2.778 -1.666-1.667"></path><path d="M19.441 12.375l.703-3.246c.262-1.209-.657-2.352-1.896-2.352h-13.308c-1.236 0-2.157 1.143-1.896 2.352l1.471 6.792c.192.893.982 1.529 1.896 1.529h4.804"></path></g><path fill="none" d="M0 0h24v24h-24v-24Z"></path></svg>