<?xml version="1.0" encoding="UTF-8"?><svg version="1.1" viewBox="0 0 24 24" xmlns="http://www.w3.org/2000/svg" xmlns:xlink="http://www.w3.org/1999/xlink"><g stroke-linecap="round" stroke-width="1.5" stroke="#323232" fill="none" stroke-linejoin="round"><path d="M14.56 15.509h6.44l-.7 3.522h-5.035l-1.007-5.031h-1.258"></path><path d="M19.828 21.413l-1.51771e-09-1.5302e-09c.019446.0196061.0193162.0512641-.000289913.0707101 -.0196061.019446-.0512641.0193162-.0707101-.000289913 -.0193333-.0194925-.0193333-.0509276-3.03541e-09-.0704202l-1.56045e-09 1.57331e-09c.019446-.0196061.051104-.0197359.0707101-.000289919 9.70346e-05 9.62421e-05.000193674.000192882.000289916.000289916"></path><path d="M15.8 21.413l-1.5177e-09-1.5302e-09c.019446.0196061.0193162.0512641-.000289913.0707101 -.0196061.019446-.0512641.0193162-.0707101-.000289913 -.0193333-.0194925-.0193333-.0509276-3.03541e-09-.0704202l-1.56046e-09 1.57331e-09c.019446-.0196061.051104-.0197359.0707101-.000289919 9.70346e-05 9.62421e-05.000193674.000192882.000289916.000289916"></path><path d="M20 12v-7 0c0-1.10457-.895431-2-2-2h-13l-8.74228e-08 1.77636e-15c-1.10457 4.82823e-08-2 .895431-2 2 0 0 0 0 0 0v14l2.30926e-14 3.01992e-07c1.66785e-07 1.10457.895431 2 2 2h7"></path></g><path fill="none" d="M0 0h24v24h-24Z"></path></svg>