<svg id="Layer_3" data-name="Layer 3" xmlns="http://www.w3.org/2000/svg" viewBox="0 0 24 24"><path d="M10.76327,14a1.39284,1.39284,0,0,1-1.3739-1.16387L8.5,7.5" fill="none" stroke="#323232" stroke-linecap="round" stroke-linejoin="round" stroke-width="1.5"/><path d="M8.83334,9.5h6.04077a1.125,1.125,0,0,1,1.065,1.48734l-.71357,2.09747A1.35,1.35,0,0,1,13.94753,14H10.76327" fill="none" stroke="#323232" stroke-linecap="round" stroke-linejoin="round" stroke-width="1.5"/><path d="M14.627,16.42012a.046.046,0,1,1-.00027-.00028l.00027.00028" fill="none" stroke="#323232" stroke-linecap="round" stroke-linejoin="round" stroke-width="1.5"/><path d="M9.93953,16.42012a.046.046,0,1,1-.00027-.00028l.00027.00028" fill="none" stroke="#323232" stroke-linecap="round" stroke-linejoin="round" stroke-width="1.5"/><circle cx="12" cy="12" r="9.5" fill="none" stroke="#323232" stroke-linecap="round" stroke-linejoin="round" stroke-width="1.5"/><path d="M24,24H0V0H24Z" fill="none"/></svg>