<?xml version="1.0" encoding="UTF-8"?><svg version="1.1" viewBox="0 0 24 24" xmlns="http://www.w3.org/2000/svg" xmlns:xlink="http://www.w3.org/1999/xlink"><g stroke-linecap="round" stroke-width="1.5" stroke="#323232" fill="none" stroke-linejoin="round"><path d="M10 20h-5c-1.105 0-2-.895-2-2v-10.5c0-.828.672-1.5 1.5-1.5h13c.828 0 1.5.672 1.5 1.5v2.5"></path><path d="M7 6v-.25 0c0-2.071 1.679-3.75 3.75-3.75h.5c2.071 0 3.75 1.679 3.75 3.75v0 .25"></path><path d="M19.688 13.34c1.993 1.993 1.716 5.397-.832 6.997 -1.406.884-3.266.884-4.673 0 -2.547-1.601-2.825-5.004-.832-6.997 1.75-1.749 4.587-1.749 6.337 0"></path><path d="M15.677 15.667l.842-.843v3.37"></path><path d="M15.68 18.196h1.679"></path></g><path fill="none" d="M0 0h24v24h-24v-24Z"></path></svg>