<?xml version="1.0" encoding="UTF-8"?><svg version="1.1" viewBox="0 0 24 24" xmlns="http://www.w3.org/2000/svg" xmlns:xlink="http://www.w3.org/1999/xlink"><!--Generated by IJSVG (https://github.com/iconjar/IJSVG)--><g stroke-linecap="round" stroke-width="1.5" stroke="#323232" fill="none" stroke-linejoin="round"><path d="M19,6v-1c0,-1.105 -0.895,-2 -2,-2v0c-1.105,0 -2,0.895 -2,2v14c0,1.105 -0.895,2 -2,2h-6c-1.105,0 -2,-0.895 -2,-2v-13c0,-1.657 1.343,-3 3,-3h9"></path><path d="M19,9v6c0,1.105 -0.895,2 -2,2h-2"></path><path d="M15,9h5.5c0.828,0 1.5,-0.672 1.5,-1.5v0c0,-0.828 -0.672,-1.5 -1.5,-1.5h-5.5"></path><path d="M5,6h-1.5c-0.828,0 -1.5,0.672 -1.5,1.5v0c0,0.828 0.672,1.5 1.5,1.5h1.5"></path></g><path fill="none" d="M0,0h24v24h-24Z"></path></svg>