<?xml version="1.0" encoding="UTF-8"?><svg version="1.1" viewBox="0 0 24 24" xmlns="http://www.w3.org/2000/svg" xmlns:xlink="http://www.w3.org/1999/xlink"><!--Generated by IJSVG (https://github.com/iconjar/IJSVG)--><g stroke-linecap="round" stroke-width="1.5" stroke="#323232" fill="none" stroke-linejoin="round"><path d="M17,7v-2c0,-0.552 0.448,-1 1,-1h2c0.552,0 1,0.448 1,1v2"></path><path d="M17,11.5v3"></path><path d="M18.5,13h-3"></path><path d="M8.5,13h-3"></path><path d="M3,7v-2c0,-0.552 0.448,-1 1,-1h2c0.552,0 1,0.448 1,1v2"></path><path d="M17,7h4c0.552,0 1,0.448 1,1v10c0,1.105 -0.895,2 -2,2h-16c-1.105,0 -2,-0.895 -2,-2v-10c0,-0.552 0.448,-1 1,-1h4l1.707,-1.707c0.188,-0.188 0.442,-0.293 0.707,-0.293h5.172c0.265,0 0.52,0.105 0.707,0.293l1.707,1.707Z"></path></g><path fill="none" d="M0,0h24v24h-24Z"></path></svg>