<svg id="Layer_3" data-name="Layer 3" xmlns="http://www.w3.org/2000/svg" viewBox="0 0 24 24"><path d="M6,18a6,6,0,0,1,8.48528,0" fill="none" stroke="#323232" stroke-linecap="round" stroke-linejoin="round" stroke-width="1.5"/><path d="M14.81537,6.41639h0a5.225,5.225,0,0,1,2.98426,6.23982l-.04564.16128a1.25,1.25,0,0,1-1.69122.8102L8.76192,10.5282a1.25,1.25,0,0,1-.594-1.77564L8.25424,8.603A5.22533,5.22533,0,0,1,14.81537,6.41639Z" fill="none" stroke="#323232" stroke-linecap="round" stroke-linejoin="round" stroke-width="1.5"/><line x1="12.44519" y1="12.09193" x2="10.67911" y2="16.25805" fill="none" stroke="#323232" stroke-linecap="round" stroke-linejoin="round" stroke-width="1.5"/><rect x="2" y="2.00001" width="20" height="20" rx="5" stroke-width="1.5" stroke="#323232" stroke-linecap="round" stroke-linejoin="round" fill="none"/><path d="M0,0H24V24H0Z" fill="none"/></svg>