<svg xmlns="http://www.w3.org/2000/svg" viewBox="0 0 24 24"><g id="Layer_2" data-name="Layer 2"><path d="M6.98248,10c0-3.866,1.79865-7,4.01741-7s4.01742,3.134,4.01742,7" fill="none" stroke="#323232" stroke-linecap="round" stroke-linejoin="round" stroke-width="1.5"/><path d="M2.99977,10H19.00023a1.01086,1.01086,0,0,0,.97112-1.25874C19.19909,5.476,15.4762,3,11,3S2.80091,5.476,2.02865,8.74125A1.01086,1.01086,0,0,0,2.99977,10Z" fill="none" stroke="#323232" stroke-linecap="round" stroke-linejoin="round" stroke-width="1.5"/><line x1="10.99989" y1="15" x2="10.99989" y2="11" fill="none" stroke="#323232" stroke-linecap="round" stroke-linejoin="round" stroke-width="1.5"/><path d="M21,14l-2.4,3.2A2,2,0,0,1,17,18H5.44152a2,2,0,0,0-1.89737,1.36754L3,21" fill="none" stroke="#323232" stroke-linecap="round" stroke-linejoin="round" stroke-width="1.5"/><line x1="19" y1="21" x2="18" y2="18" fill="none" stroke="#323232" stroke-linecap="round" stroke-linejoin="round" stroke-width="1.5"/><rect width="24" height="24" fill="none"/></g></svg>