<svg id="Layer_3" data-name="Layer 3" xmlns="http://www.w3.org/2000/svg" viewBox="0 0 24 24"><rect width="24" height="24" fill="none"/><path d="M14.46089,9.501a5.12011,5.12011,0,0,0,5.84154.99277,1.28356,1.28356,0,0,0,.10612-2.224,5.03071,5.03071,0,0,0-1.39007-.63891l-.00827-.00312.00827.00312-.00827-.00312.00827.00312.00365-.00806-.00365.00806.00365-.00806a5.02972,5.02972,0,0,0,.59951-1.86134,1.26149,1.26149,0,0,0-1.383-1.383,5.02972,5.02972,0,0,0-1.86134.59951l-.00806.00365.00806-.00365-.00806.00365.00312.00827-.00312-.00827.00312.00827-.00312-.00827a5.03071,5.03071,0,0,0-.63891-1.39007,1.28356,1.28356,0,0,0-2.224.10612A5.12011,5.12011,0,0,0,14.499,9.53911" fill="none" stroke="#323232" stroke-linecap="round" stroke-linejoin="round" stroke-width="1.5"/><path d="M15.99,18.90955c-3.4132,3.4132-9.20936-.69014-10.88944.98994,1.68008-1.68008-2.42326-7.47624.98994-10.88944h0C8.27754,6.823,12.26633,7.26633,15,10h0C17.73367,12.73367,18.177,16.72246,15.99,18.90955Z" fill="none" stroke="#323232" stroke-linecap="round" stroke-linejoin="round" stroke-width="1.5"/><path d="M5.10051,19.89949,5,20H5a1.4142,1.4142,0,0,1-2,0" fill="none" stroke="#323232" stroke-linecap="round" stroke-linejoin="round" stroke-width="1.5"/></svg>