<?xml version="1.0" encoding="UTF-8"?><svg version="1.1" viewBox="0 0 24 24" xmlns="http://www.w3.org/2000/svg" xmlns:xlink="http://www.w3.org/1999/xlink"><!--Generated by IJSVG (https://github.com/iconjar/IJSVG)--><g fill="none"><path d="M0,0h24v24h-24Z"></path><path stroke="#323232" stroke-linecap="round" stroke-linejoin="round" stroke-width="1.5" d="M14.63,8.243h2.743"></path><path stroke="#323232" stroke-linecap="round" stroke-linejoin="round" stroke-width="1.5" d="M13.63,13.12v0"></path><path stroke="#323232" stroke-linecap="round" stroke-linejoin="round" stroke-width="1.5" d="M18.149,12.993h-4.522v-0.268c0,-1.312 1.063,-2.375 2.375,-2.375v0c1.312,0 2.375,1.063 2.375,2.375v0.04c-0.001,0.126 -0.102,0.228 -0.228,0.228Z"></path><path stroke="#323232" stroke-linecap="round" stroke-linejoin="round" stroke-width="1.5" d="M13.626,12.993v0.131c0,1.365 1.107,2.471 2.472,2.471c0.629,0 1.258,-0.24 1.74,-0.717"></path><path stroke="#323232" stroke-linecap="round" stroke-linejoin="round" stroke-width="1.5" d="M19.0711,4.92893c3.90524,3.90524 3.90524,10.2369 0,14.1421c-3.90524,3.90524 -10.2369,3.90524 -14.1421,0c-3.90524,-3.90524 -3.90524,-10.2369 -1.77636e-15,-14.1421c3.90524,-3.90524 10.2369,-3.90524 14.1421,-1.77636e-15"></path><path stroke="#323232" stroke-linecap="round" stroke-linejoin="round" stroke-width="1.5" d="M6.124,11.501v-3c0,-0.138 0.112,-0.25 0.25,-0.25h2.321c0.897,0 1.625,0.728 1.625,1.625v0c0,0.897 -0.728,1.625 -1.625,1.625"></path><path stroke="#323232" stroke-linecap="round" stroke-linejoin="round" stroke-width="1.5" d="M9.322,11.501h-3.198v3.843c0,0.138 0.112,0.25 0.25,0.25h2.949c1.13,0 2.047,-0.916 2.047,-2.047v0c-0.001,-1.13 -0.917,-2.046 -2.048,-2.046Z"></path></g></svg>