<?xml version="1.0" encoding="UTF-8"?><svg version="1.1" viewBox="0 0 24 24" xmlns="http://www.w3.org/2000/svg" xmlns:xlink="http://www.w3.org/1999/xlink"><!--Generated by IJSVG (https://github.com/iconjar/IJSVG)--><g stroke-linecap="round" stroke-width="1.5" stroke="#323232" fill="none" stroke-linejoin="round"><path d="M6.545,11.091c1.506,0 2.727,-1.221 2.727,-2.727c0,-1.506 -1.22,-2.728 -2.727,-2.728h-4.545v12.727"></path><path d="M2,18.364h5.455c2.008,0 3.636,-1.628 3.636,-3.636c0,-2.008 -1.628,-3.636 -3.636,-3.636h-5.455"></path><path d="M15.64,7.45h4.54"></path><path d="M20.802,17.165c-0.799,0.799 -1.846,1.198 -2.893,1.198c-2.259,0 -4.091,-1.832 -4.091,-4.091c0,-2.259 1.832,-4.091 4.091,-4.091c2.259,0 4.091,1.832 4.091,4.092h-8.182"></path></g><path fill="none" d="M0,0h24v24h-24Z" transform="matrix(6.12323e-17,-1,1,6.12323e-17,0,24)"></path></svg>