<svg id="Layer_3" data-name="Layer 3" xmlns="http://www.w3.org/2000/svg" viewBox="0 0 24 24"><path d="M0,0H24V24H0Z" fill="none"/><path d="M13.25,17.5a3.25,3.25,0,0,1-2.5,0" fill="none" stroke="#323232" stroke-linecap="round" stroke-linejoin="round" stroke-width="1.5"/><line x1="12" y1="6" x2="12" y2="7" fill="none" stroke="#323232" stroke-linecap="round" stroke-linejoin="round" stroke-width="1.5"/><g id="Layer_22" data-name="Layer 22"><rect x="2.5" y="2.5" width="19" height="19" rx="9.49999" transform="translate(24 0) rotate(90)" stroke-width="1.5" stroke="#323232" stroke-linecap="round" stroke-linejoin="round" fill="none"/></g><path d="M15.5,10.84707V10.5A3.5,3.5,0,0,0,12,7h0a3.5,3.5,0,0,0-3.5,3.5v.34709" fill="none" stroke="#323232" stroke-linecap="round" stroke-linejoin="round" stroke-width="1.5"/><path d="M15.5,10.84709a5.62487,5.62487,0,0,0,1.43342,3.736.24659.24659,0,0,1-.17623.41675L7.2428,15a.24674.24674,0,0,1-.17623-.41693A5.62493,5.62493,0,0,0,8.5,10.84709" fill="none" stroke="#323232" stroke-linecap="round" stroke-linejoin="round" stroke-width="1.5"/></svg>