<svg id="Layer_3" data-name="Layer 3" xmlns="http://www.w3.org/2000/svg" viewBox="0 0 24 24"><path d="M13.7226,20a1.98368,1.98368,0,0,1-3.4452,0" fill="none" stroke="#323232" stroke-linecap="round" stroke-linejoin="round" stroke-width="1.5"/><path d="M6.50092,9v-.5009A5.4991,5.4991,0,0,1,12,3h0a5.4991,5.4991,0,0,1,5.49909,5.4991l0,.50088h0a12.00006,12.00006,0,0,0,2.4,7.2h0a.5.5,0,0,1-.4.8H4.50091a.5.5,0,0,1-.4-.8h0a12,12,0,0,0,2.4-7.2Z" fill="none" stroke="#323232" stroke-linecap="round" stroke-linejoin="round" stroke-width="1.5"/><rect width="24" height="24" fill="none"/></svg>