<?xml version="1.0" encoding="UTF-8"?><svg version="1.1" viewBox="0 0 24 24" xmlns="http://www.w3.org/2000/svg" xmlns:xlink="http://www.w3.org/1999/xlink"><g fill="none"><path d="M0 0h24v24h-24Z"></path><path stroke="#323232" stroke-linecap="round" stroke-linejoin="round" stroke-width="1.5" d="M21 10v6 0c0 2.76142-2.23858 5-5 5h-8l-2.18557e-07-7.10543e-15c-2.76142-1.20706e-07-5-2.23858-5-5 0 0 0-1.77636e-15 0-1.77636e-15v-8l5.68434e-14 7.54979e-07c-4.16963e-07-2.76142 2.23858-5 5-5h6"></path><circle cx="19.5" cy="4.5" r="2.5" stroke="#323232" stroke-linecap="round" stroke-linejoin="round" stroke-width="1.5"></circle><path stroke="#323232" stroke-linecap="round" stroke-linejoin="round" stroke-width="1.5" d="M10.444 15.709v.57l1.77636e-14 2.34798e-07c1.29676e-07.858803.696197 1.555 1.555 1.555h.000999765 -6.80149e-08c.859355 3.75636e-08 1.556-.696645 1.556-1.556 0 0 0-3.55271e-15 0-3.55271e-15v-.569"></path><path stroke="#323232" stroke-linecap="round" stroke-linejoin="round" stroke-width="1.5" d="M15.717 15.709l-6.72452e-08-5.24736e-11c.708029.000552537 1.28245-.57297 1.283-1.281 2.02999e-10-2.60123e-07 4.05652e-10-5.19908e-07 6.08491e-10-7.80031e-07v-.002 0l-1.94735e-08-1.26499e-05c-.000556522-.360422-.144475-.705817-.400009-.959996l-.852-.852v-2.53l9.21929e-12 8.31567e-06c0-2.07028-1.6777-3.74889-3.74798-3.75v0l-1.63918e-07 3.55271e-15c-2.07107 9.05293e-08-3.75 1.67893-3.75 3.75 0 0 0 1.77636e-15 0 1.77636e-15v2.53l-.852.852 -1.49244e-08 1.48456e-08c-.255532.254181-.399447.599578-.4.96h.00199168l-8.14516e-09 1.04931e-05c-.000546705.708029.572981 1.28244 1.28101 1.28299 2.60123e-07 2.00854e-10 5.19908e-07 4.01368e-10 7.80031e-07 6.02064e-10h7.436Z"></path></g></svg>