<svg id="Layer_3" data-name="Layer 3" xmlns="http://www.w3.org/2000/svg" viewBox="0 0 24 24"><path d="M0,0H24V24H0Z" fill="none"/><path d="M10,11.3547l4-.00107" fill="none" stroke="#323232" stroke-linecap="round" stroke-linejoin="round" stroke-width="1.5"/><path d="M9.51,18v.512A2.488,2.488,0,0,0,11.998,21H12a2.489,2.489,0,0,0,2.49-2.488V18" fill="none" stroke="#323232" stroke-linecap="round" stroke-linejoin="round" stroke-width="1.5"/><path d="M17.947,18A2.053,2.053,0,0,0,20,15.947h0a2.177,2.177,0,0,0-.636-1.536L18,13.048V9a6,6,0,0,0-6-6h0A6,6,0,0,0,6,9v4.048L4.636,14.411A2.177,2.177,0,0,0,4,15.947H4A2.053,2.053,0,0,0,6.053,18H17.947Z" fill="none" stroke="#323232" stroke-linecap="round" stroke-linejoin="round" stroke-width="1.5"/></svg>