<?xml version="1.0" encoding="UTF-8"?><svg version="1.1" viewBox="0 0 24 24" xmlns="http://www.w3.org/2000/svg" xmlns:xlink="http://www.w3.org/1999/xlink"><g fill="none"><path d="M0 0h24v24h-24Z"></path><path stroke="#323232" stroke-linecap="round" stroke-linejoin="round" stroke-width="1.5" d="M13.6 20h-3.2"></path><path stroke="#323232" stroke-linecap="round" stroke-linejoin="round" stroke-width="1.5" d="M12 5v0c-2.761 0-5 2.239-5 5v0 .032 2.472c0 .324-.183.619-.472.764l-.503.251c-.628.315-1.025.957-1.025 1.659v0c0 1.024.83 1.854 1.854 1.854h10.292c1.024 0 1.854-.83 1.854-1.854v0c0-.702-.397-1.344-1.025-1.658l-.503-.251c-.289-.146-.472-.441-.472-.765v-2.472 -.032 0"></path><path stroke="#323232" stroke-linecap="round" stroke-linejoin="round" stroke-width="1.5" d="M13.139 5.142c-.367-.086-.745-.142-1.139-.142"></path><path stroke="#323232" stroke-linecap="round" stroke-linejoin="round" stroke-width="1.5" d="M16.858 8.861c.086.367.142.745.142 1.139"></path><path stroke="#323232" stroke-linecap="round" stroke-linejoin="round" stroke-width="1.5" d="M18.1213 3.87868c1.17157 1.17157 1.17157 3.07107 0 4.24264 -1.17157 1.17157-3.07107 1.17157-4.24264 0 -1.17157-1.17157-1.17157-3.07107 0-4.24264 1.17157-1.17157 3.07107-1.17157 4.24264-8.88178e-16"></path></g></svg>