<?xml version="1.0" encoding="UTF-8"?><svg version="1.1" viewBox="0 0 24 24" xmlns="http://www.w3.org/2000/svg" xmlns:xlink="http://www.w3.org/1999/xlink"><g fill="none"><path d="M0 0h24v24h-24Z"></path><path stroke="#323232" stroke-linecap="round" stroke-linejoin="round" stroke-width="1.5" d="M15.043 7.923l5.45572e-08 7.49252e-08c.457252.62796.704668 1.38421.707 2.161v2.53l.852.852 -1.18389e-08-1.17763e-08c.255532.254181.399447.599578.4.96v0l8.25388e-09 1.06339e-05c.000546627.708029-.572981 1.28244-1.28101 1.28299 -2.60123e-07 2.00826e-10-5.19908e-07 4.01311e-10-7.80031e-07 6.01979e-10h-8.46399"></path><line x1="5.14" x2="17.83" y1="17.83" y2="5.14" stroke="#323232" stroke-linecap="round" stroke-linejoin="round" stroke-width="1.5"></line><path stroke="#323232" stroke-linecap="round" stroke-linejoin="round" stroke-width="1.5" d="M12 21v0l-3.93403e-07-7.10543e-15c-4.97056-2.1727e-07-9-4.02944-9-9 0 0 0-5.32907e-15 0-5.32907e-15h-8.88178e-15l1.03029e-13 1.35896e-06c-7.50534e-07-4.97056 4.02944-9 9-9v0l-3.93403e-07 8.88178e-15c4.97056-2.1727e-07 9 4.02944 9 9v0l3.55271e-14 7.86805e-07c0 4.97056-4.02944 9-9 9Z"></path><path stroke="#323232" stroke-linecap="round" stroke-linejoin="round" stroke-width="1.5" d="M11 17.834h2"></path><path stroke="#323232" stroke-linecap="round" stroke-linejoin="round" stroke-width="1.5" d="M12.605 6.4l8.61968e-08 1.5962e-08c-2.00006-.370373-3.92168.95075-4.29205 2.95081 -.0450712.24339-.065491.490703-.0609498.73819v.911"></path></g></svg>