<?xml version="1.0" encoding="UTF-8"?><svg version="1.1" viewBox="0 0 24 24" xmlns="http://www.w3.org/2000/svg" xmlns:xlink="http://www.w3.org/1999/xlink"><g stroke-linecap="round" stroke-width="1.5" stroke="#323232" fill="none" stroke-linejoin="round"><path d="M9.51 18v.512l-1.01252e-13 4.28181e-07c-2.07481e-07 1.37408 1.11392 2.488 2.488 2.488 .000666935 1.00705e-10.00133387-2.67967e-07.0020008-8.04203e-07v0l-2.79468e-08-1.12266e-11c1.37464.0005523 2.48945-1.11336 2.49-2.488 1.33953e-07-.0003334 2.00918e-07-.000666801 2.00895e-07-.0010002v-.511"></path><path d="M17.947 18h-8.97395e-08c1.13384 4.95617e-08 2.053-.919159 2.053-2.053 0 0 0-1.77636e-15 0-1.77636e-15v0l4.80827e-08 6.11669e-05c-.000444676-.575974-.229124-1.1283-.635957-1.53602l-1.36404-1.36304v-4.048 0c0-3.31371-2.68629-6-6-6v0l-2.62268e-07 5.32907e-15c-3.31371 1.44847e-07-6 2.68629-6 6 0 0 0 1.77636e-15 0 1.77636e-15v4.048l-1.364 1.363 -1.18154e-07 1.18404e-07c-.406844.407706-.635539.960026-.636 1.536h1.33834e-10l1.77636e-14 1.42722e-07c1.71205e-07 1.13384.91916 2.053 2.053 2.053Z"></path></g><path fill="none" d="M0 0h24v24h-24Z"></path></svg>