<svg viewBox="0 0 24 24" xmlns="http://www.w3.org/2000/svg"><g fill="none"><path d="M0 0h24v24H0Z"/><g stroke-linecap="round" stroke-width="1.5" stroke="#323232" fill="none" stroke-linejoin="round"><path d="M11.99 9.35l0 4"/><path d="M10 11.35l4-.01"/><path d="M9.51 18v.51l0 0c0 1.37 1.11 2.48 2.48 2.48h0l-.01-.001c1.37 0 2.48-1.12 2.49-2.49 0-.01 0-.01 0-.01v-.52"/><path d="M17.947 18h-.01c1.13 0 2.05-.92 2.05-2.06 0 0 0-.001 0-.001v0l0 0c-.01-.58-.23-1.13-.64-1.54l-1.37-1.37v-4.05 0c0-3.32-2.69-6-6-6v0l-.01 0c-3.32 0-6 2.68-6 6 0 0 0 0 0 0v4.048l-1.37 1.36 -.01 0c-.41.4-.64.96-.64 1.53h0l0 0c0 1.13.91 2.05 2.05 2.05h11.89Z"/></g></g></svg>