<svg id="Layer_3" data-name="Layer 3" xmlns="http://www.w3.org/2000/svg" viewBox="0 0 24 24"><path d="M9,15.5H8a1.00036,1.00036,0,0,1-1-1v-1a1.00036,1.00036,0,0,1,1-1H9a1.00036,1.00036,0,0,1,1,1v1A1.00036,1.00036,0,0,1,9,15.5Z" fill="none" stroke="#323232" stroke-linecap="round" stroke-linejoin="round" stroke-width="1.5"/><path d="M14.5,10h-1a1.00036,1.00036,0,0,1-1-1V8a1.00036,1.00036,0,0,1,1-1h1a1.00036,1.00036,0,0,1,1,1V9A1.00036,1.00036,0,0,1,14.5,10Z" fill="none" stroke="#323232" stroke-linecap="round" stroke-linejoin="round" stroke-width="1.5"/><line x1="13.5" y1="13.5" x2="16" y2="16" fill="none" stroke="#323232" stroke-linecap="round" stroke-linejoin="round" stroke-width="1.5"/><line x1="16" y1="13.5" x2="13.5" y2="16" fill="none" stroke="#323232" stroke-linecap="round" stroke-linejoin="round" stroke-width="1.5"/><path d="M12.5,8.5H11A2.5,2.5,0,0,0,8.5,11v1.5" fill="none" stroke="#323232" stroke-linecap="round" stroke-linejoin="round" stroke-width="1.5"/><rect x="3" y="3" width="18" height="18" rx="5" stroke-width="1.5" stroke="#323232" stroke-linecap="round" stroke-linejoin="round" fill="none"/><path d="M0,0H24V24H0Z" fill="none"/></svg>