<svg id="Layer_3" data-name="Layer 3" xmlns="http://www.w3.org/2000/svg" viewBox="0 0 24 24"><path d="M13.25,8.875H12.24A3.3646,3.3646,0,0,0,8.875,12.24v1.01" fill="none" stroke="#323232" stroke-linecap="round" stroke-linejoin="round" stroke-width="1.5"/><path d="M9.5,17H8.25A1.25046,1.25046,0,0,1,7,15.75V14.5a1.25046,1.25046,0,0,1,1.25-1.25H9.5a1.25046,1.25046,0,0,1,1.25,1.25v1.25A1.25046,1.25046,0,0,1,9.5,17Z" fill="none" stroke="#323232" stroke-linecap="round" stroke-linejoin="round" stroke-width="1.5"/><path d="M15.75,10.75H14.5A1.25046,1.25046,0,0,1,13.25,9.5V8.25A1.25046,1.25046,0,0,1,14.5,7h1.25A1.25046,1.25046,0,0,1,17,8.25V9.5A1.25046,1.25046,0,0,1,15.75,10.75Z" fill="none" stroke="#323232" stroke-linecap="round" stroke-linejoin="round" stroke-width="1.5"/><rect x="3" y="3" width="18" height="18" rx="5" stroke-width="1.5" stroke="#323232" stroke-linecap="round" stroke-linejoin="round" fill="none"/><rect width="24" height="24" fill="none"/></svg>