<?xml version="1.0" encoding="UTF-8"?><svg version="1.1" viewBox="0 0 24 24" xmlns="http://www.w3.org/2000/svg" xmlns:xlink="http://www.w3.org/1999/xlink"><!--Generated by IJSVG (https://github.com/iconjar/IJSVG)--><g fill="none"><path d="M0,0h24v24h-24Z"></path><path stroke="#323232" stroke-linecap="round" stroke-linejoin="round" stroke-width="1.5" d="M17.03,15.22v-5.72"></path><path stroke="#323232" stroke-linecap="round" stroke-linejoin="round" stroke-width="1.5" d="M19.418,18.5l1.582,-3.208l-3.969,-5.792l-3.97,5.792l1.582,3.208"></path><path stroke="#323232" stroke-linecap="round" stroke-linejoin="round" stroke-width="1.5" d="M14.643,18.5h4.775v3h-4.775Z"></path><path stroke="#323232" stroke-width="1.5" d="M14.844,4.197c-3.929,0.979 -6.844,4.519 -6.844,8.75"></path><path stroke="#323232" stroke-linecap="round" stroke-linejoin="round" stroke-width="1.5" d="M15.25,4.2l-9.25,-0.01"></path><path stroke="#323232" stroke-linecap="round" stroke-linejoin="round" stroke-width="1.5" d="M4.5,5.694v0c-0.828,0 -1.5,-0.672 -1.5,-1.5v0c0,-0.828 0.672,-1.5 1.5,-1.5v0c0.828,0 1.5,0.672 1.5,1.5v0c0,0.829 -0.672,1.5 -1.5,1.5Z"></path><path stroke="#323232" stroke-linecap="round" stroke-linejoin="round" stroke-width="1.5" d="M17.75,6h-1.5c-0.552,0 -1,-0.448 -1,-1v-1.5c0,-0.552 0.448,-1 1,-1h1.5c0.552,0 1,0.448 1,1v1.5c0,0.552 -0.448,1 -1,1Z"></path><path stroke="#323232" stroke-linecap="round" stroke-linejoin="round" stroke-width="1.5" d="M8.75,16.447h-1.5c-0.552,0 -1,-0.448 -1,-1v-1.5c0,-0.552 0.448,-1 1,-1h1.5c0.552,0 1,0.448 1,1v1.5c0,0.553 -0.448,1 -1,1Z"></path></g></svg>