<svg id="Layer_3" data-name="Layer 3" xmlns="http://www.w3.org/2000/svg" viewBox="0 0 24 24"><path d="M20,15v1.27778A4.72222,4.72222,0,0,1,15.27778,21H7.72222A4.72222,4.72222,0,0,1,3,16.27778V8.72222A4.72222,4.72222,0,0,1,7.72222,4H9" fill="none" stroke="#323232" stroke-linecap="round" stroke-linejoin="round" stroke-width="1.5"/><path d="M20,8.375V7.365A3.3646,3.3646,0,0,0,16.6358,4H15.625" fill="none" stroke="#323232" stroke-linecap="round" stroke-linejoin="round" stroke-width="1.5"/><path d="M11.625,4.65V3.35A1.35,1.35,0,0,1,12.975,2h1.3a1.35,1.35,0,0,1,1.35,1.35v1.3A1.35,1.35,0,0,1,14.275,6h-1.3A1.35,1.35,0,0,1,11.625,4.65Z" fill="none" stroke="#323232" stroke-linecap="round" stroke-linejoin="round" stroke-width="1.5"/><path d="M18,11.025v-1.3a1.35,1.35,0,0,1,1.35-1.35h1.3A1.35,1.35,0,0,1,22,9.725v1.3a1.35,1.35,0,0,1-1.35,1.35h-1.3A1.35,1.35,0,0,1,18,11.025Z" fill="none" stroke="#323232" stroke-linecap="round" stroke-linejoin="round" stroke-width="1.5"/><rect width="24" height="24" fill="none"/></svg>