<?xml version="1.0" encoding="UTF-8"?><svg version="1.1" viewBox="0 0 24 24" xmlns="http://www.w3.org/2000/svg" xmlns:xlink="http://www.w3.org/1999/xlink"><!--Generated by IJSVG (https://github.com/iconjar/IJSVG)--><g stroke-linecap="round" stroke-width="1.5" stroke="#323232" fill="none" stroke-linejoin="round"><path d="M5,3h14c1.105,0 2,0.895 2,2v14c0,1.105 -0.895,2 -2,2h-14c-1.105,0 -2,-0.895 -2,-2v-14c0,-1.105 0.895,-2 2,-2Z"></path><path d="M8.71,10.29l1.58,-1.58"></path><path d="M12,9h-1c-0.552,0 -1,-0.448 -1,-1v-1c0,-0.552 0.448,-1 1,-1h1c0.552,0 1,0.448 1,1v1c0,0.552 -0.448,1 -1,1Z"></path><path d="M8,13h-1c-0.552,0 -1,-0.448 -1,-1v-1c0,-0.552 0.448,-1 1,-1h1c0.552,0 1,0.448 1,1v1c0,0.552 -0.448,1 -1,1Z"></path><path d="M15,11.5h-0.808c-1.487,0 -2.692,1.205 -2.692,2.692v0.808"></path><path d="M12,18h-1c-0.552,0 -1,-0.448 -1,-1v-1c0,-0.552 0.448,-1 1,-1h1c0.552,0 1,0.448 1,1v1c0,0.552 -0.448,1 -1,1Z"></path><path d="M17,13h-1c-0.552,0 -1,-0.448 -1,-1v-1c0,-0.552 0.448,-1 1,-1h1c0.552,0 1,0.448 1,1v1c0,0.552 -0.448,1 -1,1Z"></path></g><path fill="none" d="M0,0h24v24h-24Z"></path></svg>