<?xml version="1.0" encoding="UTF-8"?><svg version="1.1" viewBox="0 0 24 24" xmlns="http://www.w3.org/2000/svg" xmlns:xlink="http://www.w3.org/1999/xlink"><g fill="none"><path d="M0 0h24v24h-24Z"></path><path stroke="#323232" stroke-linecap="round" stroke-linejoin="round" stroke-width="1.5" d="M20.525 8h-17.05l-3.80653e-08 3.91012e-11c-.537925.000552548-.974447-.435074-.975-.972999 -6.8514e-07-.000667009-6.85114e-07-.00133402 7.82023e-11-.00200103v-2.05l8.6601e-09 8.39537e-06c-.000557205-.537925.435066-.974451.972991-.975008 .000667009-6.90916e-07.00133402-6.96665e-07.00200103-1.72479e-08h17.051l6.33287e-09-3.55271e-15c.537925-2.80016e-07.974.436074.974001.973999 1.73603e-10.000333505-1.70944e-07.000667009-5.13354e-07.00100051v2.051l1.38556e-13 5.13347e-07c0 .537925-.436075.974-.974.974 -.000333505 0-.000667009-1.71291e-07-.00100051-5.13874e-07Z"></path><path stroke="#323232" stroke-linecap="round" stroke-linejoin="round" stroke-width="1.5" d="M17.16 20h-10.32l6.34468e-08 3.1406e-12c-1.04017-5.15048e-05-1.90667-.797415-1.993-1.834l-.847-10.166h16l-.847 10.166 -1.56776e-09 1.88236e-08c-.0863345 1.03659-.952826 1.83395-1.993 1.834Z"></path><path stroke="#323232" stroke-linecap="round" stroke-linejoin="round" stroke-width="1.5" d="M13.556 12.556l-1.944 1.944 -1.168-1.167"></path></g></svg>