<svg id="Layer_3" data-name="Layer 3" xmlns="http://www.w3.org/2000/svg" viewBox="0 0 24 24"><path d="M24,0H0V24H24Z" fill="none"/><path d="M8,21H6.5A2.5,2.5,0,0,1,4,18.5V8.37167a3,3,0,0,1,.87868-2.12132L7.25035,3.87868A3,3,0,0,1,9.37167,3H16.5A2.5,2.5,0,0,1,19,5.5V10" fill="none" stroke="#323232" stroke-linecap="round" stroke-linejoin="round" stroke-width="1.5" fill-rule="evenodd"/><path d="M4.02357,8H7.5A1.5,1.5,0,0,0,9,6.5V3.02362" fill="none" stroke="#323232" stroke-linecap="round" stroke-linejoin="round" stroke-width="1.5" fill-rule="evenodd"/><path d="M19.5,13.633H16.52859a1,1,0,0,1-.82685-.43757l-.51549-.75785A1,1,0,0,0,14.3594,12H12.5A1.5,1.5,0,0,0,11,13.5v6A1.5,1.5,0,0,0,12.5,21h7A1.5,1.5,0,0,0,21,19.5V15.133A1.5,1.5,0,0,0,19.5,13.633Z" fill="none" stroke="#323232" stroke-linecap="round" stroke-linejoin="round" stroke-width="1.5"/></svg>