<svg id="Layer_3" data-name="Layer 3" xmlns="http://www.w3.org/2000/svg" viewBox="0 0 24 24"><path d="M9,3V7A1,1,0,0,1,8,8H4" fill="none" stroke="#323232" stroke-linecap="round" stroke-linejoin="round" stroke-width="1.5"/><path d="M9.167,21H6a2,2,0,0,1-2-2V7.82873A2.00072,2.00072,0,0,1,4.586,6.414L7.414,3.586A2.00072,2.00072,0,0,1,8.82873,3H17a2,2,0,0,1,2,2V9" fill="none" stroke="#323232" stroke-linecap="round" stroke-linejoin="round" stroke-width="1.5"/><path d="M13.01517,15.1225V20a1,1,0,0,0,1,1h6.05965a1,1,0,0,0,1-1V15.2003" fill="none" stroke="#323232" stroke-linecap="round" stroke-linejoin="round" stroke-width="1.5"/><path d="M22,16l-4.34606-3.75655a1,1,0,0,0-1.30788,0L12,16" fill="none" stroke="#323232" stroke-linecap="round" stroke-linejoin="round" stroke-width="1.5"/><path d="M24,24H0V0H24Z" fill="none"/></svg>