<?xml version="1.0" encoding="UTF-8"?><svg version="1.1" viewBox="0 0 24 24" xmlns="http://www.w3.org/2000/svg" xmlns:xlink="http://www.w3.org/1999/xlink"><defs><path d="M0 24v-24h24v24Z" id="a"></path></defs><g stroke-linecap="round" stroke-width="1.5" stroke="#323232" fill="none" stroke-linejoin="round"><path d="M12.327 11.79h-4.327v-1.89l2.13163e-14 2.86892e-07c-1.58446e-07-1.04934.850659-1.9 1.9-1.9h2.431l-7.29677e-08 3.85256e-11c1.04603-.000552325 1.89445.846972 1.895 1.893 1.76054e-07.000333421 2.64064e-07.000666843 2.6403e-07.00100026v0l1.96207e-08-9.33148e-06c-.0021997 1.04739-.8516 1.89546-1.89899 1.89601Z"></path><path d="M8 11.79h6.106 -8.27894e-08c1.04603-4.57233e-08 1.894.847973 1.894 1.894v.421l3.82529e-08 7.52781e-05c.000510756 1.04603-.847048 1.89441-1.89307 1.89492 -.000333449 1.62817e-07-.000666898 2.37575e-07-.00100035 2.24276e-07h-4.20592l-8.30516e-08-1.77636e-15c-1.04934-4.58682e-08-1.9-.850659-1.9-1.9Z"></path><circle cx="12" cy="12" r="9"></circle></g><use fill="none" xlink:href="#a"></use><use xlink:href="#a" fill="none"></use></svg>