<svg id="Layer_3" data-name="Layer 3" xmlns="http://www.w3.org/2000/svg" viewBox="0 0 24 24"><path d="M0,0H24V24H0Z" fill="none"/><path d="M16,21H8a5,5,0,0,1-5-5V8A5,5,0,0,1,8,3h8a5,5,0,0,1,5,5v8A5,5,0,0,1,16,21Z" fill="none" stroke="#323232" stroke-linecap="round" stroke-linejoin="round" stroke-width="1.5"/><path d="M17.591,11.95a.05.05,0,1,0,.05.05.051.051,0,0,0-.05-.05" fill="none" stroke="#323232" stroke-linecap="round" stroke-linejoin="round" stroke-width="1.5"/><path d="M6.409,12.05a.05.05,0,1,0-.05-.05.051.051,0,0,0,.05.05" fill="none" stroke="#323232" stroke-linecap="round" stroke-linejoin="round" stroke-width="1.5"/><polyline points="9 9.318 15 14.5 11.667 17 11.667 7 15 9.5 9 14.682" fill="none" stroke="#323232" stroke-linecap="round" stroke-linejoin="round" stroke-width="1.5"/></svg>