<?xml version="1.0" encoding="UTF-8"?><svg version="1.1" viewBox="0 0 24 24" xmlns="http://www.w3.org/2000/svg" xmlns:xlink="http://www.w3.org/1999/xlink"><g stroke-linecap="round" stroke-width="1.5" stroke="#323232" fill="none" stroke-linejoin="round"><path d="M8.5 9.083l6.417 5.542 -3.5 2.625v-10.5l3.5 2.625 -6.417 5.542"></path><path d="M16 21h-8l-2.18557e-07-7.10543e-15c-2.76142-1.20706e-07-5-2.23858-5-5 0 0 0-1.77636e-15 0-1.77636e-15v-8l5.68434e-14 7.54979e-07c-4.16963e-07-2.76142 2.23858-5 5-5h8l-2.18557e-07 5.32907e-15c2.76142-1.20706e-07 5 2.23858 5 5v8l3.55271e-15 2.18557e-07c0 2.76142-2.23858 5-5 5Z"></path><path d="M17.591 6.994h2.0918e-09c-.0276142 1.20706e-09-.05.0223858-.05.05 1.20706e-09.0276142.0223858.05.05.05l-2.18557e-09-8.88178e-16c.0276142 1.20706e-09.05-.0223858.05-.05 0 0 0 0 0 0l-8.81297e-10-4.53729e-08c-.000532035-.0273908-.0226092-.049468-.05-.05"></path></g><path fill="none" d="M0 0h24v24h-24Z"></path></svg>