<?xml version="1.0" encoding="UTF-8"?><svg version="1.1" viewBox="0 0 24 24" xmlns="http://www.w3.org/2000/svg" xmlns:xlink="http://www.w3.org/1999/xlink"><g fill="none"><path d="M0 0h24v24h-24v-24Z"></path><path stroke="#323232" stroke-linecap="round" stroke-linejoin="round" stroke-width="1.5" d="M3 18.625v0c1.1-.5 2.5-.5 3.6 0v0c1.1.5 2.5.5 3.6 0v0c1.1-.5 2.5-.5 3.6 0v0c1.1.5 2.5.5 3.6 0v0c1.1-.5 2.5-.5 3.6 0v0"></path><path stroke="#323232" stroke-linecap="round" stroke-linejoin="round" stroke-width="1.5" d="M6.6 21.625v0c1.1.5 2.5.5 3.6 0v0c1.1-.5 2.5-.5 3.6 0v0c1.1.5 2.5.5 3.6 0v0"></path><path stroke="#323232" stroke-linecap="round" stroke-linejoin="round" stroke-width="1.5" d="M14 12v-8.259c0-.86 1.116-1.198 1.593-.482l4.926 7.39c.386.577-.028 1.351-.723 1.351h-5.796Z"></path><path stroke="#323232" stroke-linecap="round" stroke-linejoin="round" stroke-width="1.5" d="M11 15v-12.046c0-.942-1.222-1.312-1.745-.528l-5.395 8.093c-.422.633.031 1.481.792 1.481h6.348"></path><polyline stroke="#323232" stroke-linecap="round" stroke-linejoin="round" stroke-width="1.5" points="19.9,18.3 21,15 3.75,15 5.394,18.289"></polyline></g></svg>