<svg viewBox="0 0 24 24" xmlns="http://www.w3.org/2000/svg"><g stroke-linecap="round" stroke-width="1.5" stroke="#323232" fill="none" stroke-linejoin="round"><path d="M11.5 9h-4V7l0 0c-.01-.56.44-1.01.99-1.01h2l-.01 0c.55-.01 1 .44 1 .99Z"/><path d="M15 12.71l0 0c0-2.06-1.67-3.72-3.72-3.72H7.7l-.01 0c-2.06 0-3.72 1.66-3.72 3.71v6.28l0 0c0 1.1.89 1.99 2 1.99h2.99"/><path d="M17.5 18l-.01-.001c1.1 0 2-.9 2-2 0-1.11-.9-2-2-2.01 0 .82-.9 1.5-2 1.5h-.75 -.01c-.7 0-1.25.55-1.25 1.25 0 .69.55 1.24 1.24 1.24h-1.26 -.01c-.83 0-1.5.67-1.5 1.5 0 0 0 0 0 0v0l0 0c0 .82.67 1.49 1.5 1.49h6l-.01 0c.82-.01 1.49-.68 1.49-1.5v0 -.01c0-.83-.68-1.5-1.5-1.5 -.01 0-.01 0-.01 0Z"/><path d="M13.5 4l-.42-.42 0 0c-.38-.38-.89-.59-1.42-.59H6.48"/><path d="M9.5 6l0-3"/></g><path fill="none" d="M0 0h24v24H0Z"/></svg>