<?xml version="1.0" encoding="UTF-8"?><svg version="1.1" viewBox="0 0 24 24" xmlns="http://www.w3.org/2000/svg" xmlns:xlink="http://www.w3.org/1999/xlink"><g stroke-linecap="round" stroke-width="1.5" stroke="#323232" fill="none" stroke-linejoin="round"><rect width="14" height="4" x="5" y="7" rx=".82842" ry="0"></rect><path d="M9.25 7c1.125 0 2.25-1.125 2.25-4.5 4.5 0 4.5 4.5 4.5 4.5"></path><path d="M6.5 11h11l-1.31134e-07 3.55271e-15c1.65685-7.24234e-08 3 1.34315 3 3v3 0c0 2.20914-1.79086 4-4 4h-9l-1.74846e-07-3.55271e-15c-2.20914-9.65645e-08-4-1.79086-4-4 0 0 0 0 0 0v-3l3.37508e-14 4.52987e-07c-2.50178e-07-1.65685 1.34315-3 3-3Z"></path><rect width="9" height="3" x="7.5" y="14.5" rx=".460049" ry="0"></rect></g><path fill="none" d="M0 0h24v24h-24Z"></path></svg>