<svg id="Layer_3" data-name="Layer 3" xmlns="http://www.w3.org/2000/svg" viewBox="0 0 24 24"><path d="M0,24V0H24V24Z" fill="none"/><line x1="16.707" y1="4.293" x2="16" y2="5" fill="none" stroke="#323232" stroke-linecap="round" stroke-linejoin="round" stroke-width="1.5"/><path d="M16.088,10,17.48488,8.603a2.05913,2.05913,0,0,1,2.91205,2.912L19.912,12l.48493.48492a2.05911,2.05911,0,1,1-2.91205,2.912L16.088,14,13,13.99984l1-4Z" fill="none" stroke="#323232" stroke-linecap="round" stroke-linejoin="round" stroke-width="1.5"/><line x1="12" y1="3" x2="12" y2="4" fill="none" stroke="#323232" stroke-linecap="round" stroke-linejoin="round" stroke-width="1.5"/><line x1="7.293" y1="4.293" x2="8" y2="5" fill="none" stroke="#323232" stroke-linecap="round" stroke-linejoin="round" stroke-width="1.5"/><line x1="7.293" y1="19.707" x2="8" y2="19" fill="none" stroke="#323232" stroke-linecap="round" stroke-linejoin="round" stroke-width="1.5"/><line x1="12" y1="21" x2="12" y2="20" fill="none" stroke="#323232" stroke-linecap="round" stroke-linejoin="round" stroke-width="1.5"/><line x1="16.707" y1="19.707" x2="16" y2="19" fill="none" stroke="#323232" stroke-linecap="round" stroke-linejoin="round" stroke-width="1.5"/><path d="M7.91205,14,6.51514,15.39691a2.05913,2.05913,0,0,1-2.912-2.91205L4.088,12l-.48492-.48492a2.05911,2.05911,0,1,1,2.912-2.912L7.91205,10,11,10.00011l-1,4Z" fill="none" stroke="#323232" stroke-linecap="round" stroke-linejoin="round" stroke-width="1.5"/></svg>