<svg id="Layer_3" data-name="Layer 3" xmlns="http://www.w3.org/2000/svg" viewBox="0 0 24 24"><polyline points="0 0 24 0 24 24 0 24" fill="none"/><path d="M0,0H24V24H0" fill="none"/><line x1="15" y1="16.5" x2="9" y2="16.5" fill="none" stroke="#323232" stroke-linecap="round" stroke-linejoin="round" stroke-width="1.5"/><rect x="3" y="3" width="18" height="18" rx="5" stroke-width="1.5" stroke="#323232" stroke-linecap="round" stroke-linejoin="round" fill="none"/><path d="M15,8.78564v4.45847a.25.25,0,0,1-.39533.20342l-2.47955-1.77141a.2145.2145,0,0,0-.24961.00016L9.39559,13.45279A.25.25,0,0,1,9,13.24956V8.78571A1.28571,1.28571,0,0,1,10.28571,7.5h3.42865A1.28564,1.28564,0,0,1,15,8.78564Z" fill="none" stroke="#323232" stroke-linecap="round" stroke-linejoin="round" stroke-width="1.5"/></svg>