<svg id="Layer_3" data-name="Layer 3" xmlns="http://www.w3.org/2000/svg" viewBox="0 0 24 24"><path d="M0,0H24V24H0Z" fill="none"/><path d="M21,15.7a1,1,0,0,0-1-1H18.3V13a1,1,0,0,0-1-1H15.7a1,1,0,0,0-1,1v1.7H13a1,1,0,0,0-1,1v1.6a1,1,0,0,0,1,1h1.7V20a1,1,0,0,0,1,1h1.6a1,1,0,0,0,1-1V18.3H20a1,1,0,0,0,1-1Z" fill="none" stroke="#323232" stroke-linecap="round" stroke-linejoin="round" stroke-width="1.5"/><path d="M9,15.26621a5.99908,5.99908,0,0,0-4.47743.59332A1.00181,1.00181,0,0,1,3,15.01276L3.00007,5.635a1.43342,1.43342,0,0,1,.45475-1.07838A6.05042,6.05042,0,0,1,12,5a6.05046,6.05046,0,0,1,8.54518-.44341A1.43344,1.43344,0,0,1,20.99993,5.635L21,11" fill="none" stroke="#323232" stroke-linecap="round" stroke-linejoin="round" stroke-width="1.5"/><line x1="12" y1="10.00001" x2="12" y2="5.00001" fill="none" stroke="#323232" stroke-linecap="round" stroke-linejoin="round" stroke-width="1.5"/></svg>