<svg id="Layer_3" data-name="Layer 3" xmlns="http://www.w3.org/2000/svg" viewBox="0 0 24 24"><path d="M0,0H24V24H0Z" fill="none"/><line x1="12" y1="7.99993" x2="12" y2="4.86393" fill="none" stroke="#323232" stroke-linecap="round" stroke-linejoin="round" stroke-width="1.5"/><path d="M19.55585,21H14.958a2,2,0,0,1-1.66413-.89069L11.26117,17.06a1.55449,1.55449,0,0,1,.3598-2.10529,1.63221,1.63221,0,0,1,2.10956.22162L14.5542,16V10.5a1.5,1.5,0,1,1,3,0v2.52191l2.76758.45136a2,2,0,0,1,1.6626,2.22192l-.444,3.5528A2,2,0,0,1,19.55585,21Z" fill="none" stroke="#323232" stroke-linecap="round" stroke-linejoin="round" stroke-width="1.5"/><path d="M8,15.17292a6.29382,6.29382,0,0,0-3.492.69873A1.00537,1.00537,0,0,1,3,15.01265V5.79393a1.982,1.982,0,0,1,.812-1.617,6.36462,6.36462,0,0,1,8.188.687,6.36462,6.36462,0,0,1,8.188-.687A1.982,1.982,0,0,1,21,5.79393v4.206" fill="none" stroke="#323232" stroke-linecap="round" stroke-linejoin="round" stroke-width="1.5"/></svg>