<svg viewBox="0 0 24 24" xmlns="http://www.w3.org/2000/svg"><g stroke-linecap="round" stroke-width="1.5" stroke="#323232" fill="none" stroke-linejoin="round"><path d="M11.95 7.91h2.78l0-.001c.73-.01 1.33.59 1.33 1.33 0 0 0 0 0 0v2.78l0-.01c-.01.35-.15.69-.4.94l-3.54 3.53 0-.01c-.53.52-1.37.52-1.9 0l-2.79-2.79 0 0c-.53-.53-.53-1.37-.01-1.9l3.53-3.54 0-.01c.25-.26.59-.4.94-.4Z"/><path d="M13.53 10.46l0 0c.01.01.01.05 0 .07 -.02.01-.06.01-.08 0 -.02-.02-.02-.06-.01-.08 0-.01 0-.01 0-.01l0-.01c.01-.02.05-.02.07-.01 0 0 0 0 0 0"/><path d="M20.58 9.35l0 0c.27.85.41 1.74.41 2.64v0c0 4.97-4.03 9-9 9 -4.98 0-9-4.03-9-9 0-4.98 4.02-9 9-9l0 0c.89 0 1.79.14 2.64.41"/><path d="M19.012 6.262l-1.28-1.28"/><path d="M21 4.27l-1.99 1.99"/></g><path fill="none" d="M0 0h24v24H0Z"/></svg>