<?xml version="1.0" encoding="UTF-8"?><svg version="1.1" viewBox="0 0 24 24" xmlns="http://www.w3.org/2000/svg" xmlns:xlink="http://www.w3.org/1999/xlink"><g stroke-linecap="round" stroke-width="1.5" stroke="#323232" fill="none" stroke-linejoin="round"><path d="M19 8v-3 0c0-1.10457-.895431-2-2-2h-12l-8.74228e-08 1.77636e-15c-1.10457 4.82823e-08-2 .895431-2 2 0 0 0 8.88178e-16 0 8.88178e-16v13"></path><path d="M7 3v13"></path><path d="M11 16h-6l-8.74228e-08 3.55271e-15c-1.10457 4.82823e-08-2 .895431-2 2 0 0 0 0 0 0h-1.77636e-15l2.30926e-14 3.01992e-07c1.66785e-07 1.10457.895431 2 2 2h5"></path><line x1="19.85" x2="15.35" y1="11" y2="11"></line><path d="M19.1 11v3.782l2.593 4.16 -2.77202e-08-4.44685e-08c.58432.93736.298124 2.17093-.639236 2.75525 -.316195.197106-.681165.301965-1.05376.302755h-4.795l-7.62279e-08 1.051e-10c-1.10457.0015229-2.00123-.892672-2.00276-1.99724 -.000516992-.374977.104392-.742546.302756-1.06076l2.593-4.16v-3.782"></path><line x1="19.24" x2="15.97" y1="15" y2="15"></line></g><path fill="none" d="M0 0h24v24h-24Z"></path></svg>