<svg id="Layer_3" data-name="Layer 3" xmlns="http://www.w3.org/2000/svg" viewBox="0 0 24 24"><path d="M18.5,7V5a2,2,0,0,0-2-2H5.5a2,2,0,0,0-2,2h0a2,2,0,0,0,2,2h13a2,2,0,0,1,2,2V19a2,2,0,0,1-2,2H5.5a2,2,0,0,1-2-2V5" fill="none" stroke="#323232" stroke-linecap="round" stroke-linejoin="round" stroke-width="1.5"/><path d="M9.5,12,11,13.5,9.5,15" fill="none" stroke="#323232" stroke-linecap="round" stroke-linejoin="round" stroke-width="1.5"/><path d="M13,16h1.5" fill="none" stroke="#323232" stroke-linecap="round" stroke-linejoin="round" stroke-width="1.5"/><path d="M0,0H24V24H0Z" fill="none"/></svg>