<svg id="Layer_3" data-name="Layer 3" xmlns="http://www.w3.org/2000/svg" viewBox="0 0 24 24"><path d="M13.36754,2.10417l-8,2.66666A2,2,0,0,0,4,6.6682V18.99847a2,2,0,0,0,2.63246,1.89736l8-2.66666A2,2,0,0,0,16,16.3318V4.00153A2,2,0,0,0,13.36754,2.10417Z" fill="none" stroke="#323232" stroke-linecap="round" stroke-linejoin="round" stroke-width="1.5"/><path d="M6,21H18a2,2,0,0,0,2-2V7a2,2,0,0,0-2-2H16" fill="none" stroke="#323232" stroke-linecap="round" stroke-linejoin="round" stroke-width="1.5"/><path d="M24,24H0V0H24Z" fill="none"/></svg>