<?xml version="1.0" encoding="UTF-8"?><svg version="1.1" viewBox="0 0 24 24" xmlns="http://www.w3.org/2000/svg" xmlns:xlink="http://www.w3.org/1999/xlink"><g fill="none"><path d="M0 0h24v24h-24v-24Z"></path><path stroke="#323232" stroke-linecap="round" stroke-linejoin="round" stroke-width="1.5" d="M16 16v5l-5.992-3 -6.008 3v-16c0-1.105.895-2 2-2h8c1.105 0 2 .895 2 2v2"></path><path stroke="#323232" stroke-linecap="round" stroke-linejoin="round" stroke-width="1.5" d="M16 16c-2.485 0-4.5-2.015-4.5-4.5 0-2.434 2.07-4.502 4.503-4.5 2.484.002 4.497 2.016 4.497 4.5 0 2.485-2.014 4.5-4.5 4.5"></path><path stroke="#323232" stroke-linecap="round" stroke-linejoin="round" stroke-width="1.5" d="M17.074 10.425l-2.147 2.147"></path><path stroke="#323232" stroke-linecap="round" stroke-linejoin="round" stroke-width="1.5" d="M17.074 12.574l-2.147-2.147"></path></g></svg>