<svg id="Layer_3" data-name="Layer 3" xmlns="http://www.w3.org/2000/svg" viewBox="0 0 24 24"><path d="M11,7h4.5A1.5,1.5,0,0,1,17,8.5V15" fill="none" stroke="#323232" stroke-linecap="round" stroke-linejoin="round" stroke-width="1.5"/><path d="M14,11.5v4.99911a.5.5,0,0,1-.79062.40687L10.79062,15.1783a.5.5,0,0,0-.58124,0L7.79062,16.906A.5.5,0,0,1,7,16.49912V11.5A1.5,1.5,0,0,1,8.5,10h4A1.5,1.5,0,0,1,14,11.5Z" fill="none" stroke="#323232" stroke-linecap="round" stroke-linejoin="round" stroke-width="1.5"/><rect x="3" y="3" width="18" height="18" rx="5" stroke-width="1.5" stroke="#323232" stroke-linecap="round" stroke-linejoin="round" fill="none"/><path d="M0,0H24V24H0Z" fill="none"/></svg>