<svg id="Layer_3" data-name="Layer 3" xmlns="http://www.w3.org/2000/svg" viewBox="0 0 24 24"><path d="M0,0H24V24H0Z" fill="none"/><rect x="4" y="6" width="16" height="15" rx="3" stroke-width="1.5" stroke="#323232" stroke-linecap="round" stroke-linejoin="round" fill="none"/><path d="M4,18V8.11117A3,3,0,0,1,5.94026,5.30458l8.37995-3.16419a1.84949,1.84949,0,0,1,1.24307-.05816A2.04762,2.04762,0,0,1,17,4.02068V6" fill="none" stroke="#323232" stroke-linecap="round" stroke-linejoin="round" stroke-width="1.5"/><path d="M10.21985,11.19019a1.78334,1.78334,0,0,1,3.56177-.00074" fill="none" stroke="#323232" stroke-linecap="round" stroke-linejoin="round" stroke-width="1.5"/><path d="M13.78162,11.18945a1.73327,1.73327,0,0,1,2.19116.28174,1.95562,1.95562,0,0,1,0,2.67139A1.75778,1.75778,0,0,1,15,14.66553" fill="none" stroke="#323232" stroke-linecap="round" stroke-linejoin="round" stroke-width="1.5"/><path d="M10.21985,11.19019a1.73344,1.73344,0,0,0-2.19269.281,1.95562,1.95562,0,0,0,0,2.67139A1.75814,1.75814,0,0,0,9,14.66553" fill="none" stroke="#323232" stroke-linecap="round" stroke-linejoin="round" stroke-width="1.5"/><path d="M15,14.66553V16.5a1,1,0,0,1-1,1H10a1,1,0,0,1-1-1V14.66553" fill="none" stroke="#323232" stroke-linecap="round" stroke-linejoin="round" stroke-width="1.5"/></svg>