<svg id="Layer_3" data-name="Layer 3" xmlns="http://www.w3.org/2000/svg" viewBox="0 0 24 24"><path d="M20,21H6a2,2,0,0,1-2-2H4a2,2,0,0,1,2-2H20" fill="none" stroke="#323232" stroke-linecap="round" stroke-linejoin="round" stroke-width="1.5"/><path d="M8.66526,11.43444A2.007,2.007,0,0,1,7.36532,8.3016a2.08173,2.08173,0,0,1,2.60883-.651,2.06918,2.06918,0,0,1,4.05278,0,2.082,2.082,0,0,1,2.60444.64443,2.0217,2.0217,0,0,1,.11,2.14842,1.99912,1.99912,0,0,1-1.405.98826l-.00419,1.56986a1,1,0,0,1-.99975.99733L9.66133,14a1,1,0,0,1-1.00025-1.00268Z" fill="none" stroke="#323232" stroke-linecap="round" stroke-linejoin="round" stroke-width="1.5"/><line x1="19" y1="21" x2="19" y2="17" fill="none" stroke="#323232" stroke-linecap="round" stroke-linejoin="round" stroke-width="1.5"/><path d="M20,17V5a2,2,0,0,0-2-2H6A2,2,0,0,0,4,5V19" fill="none" stroke="#323232" stroke-linecap="round" stroke-linejoin="round" stroke-width="1.5"/><rect width="24" height="24" fill="none"/></svg>