<svg id="Layer_3" data-name="Layer 3" xmlns="http://www.w3.org/2000/svg" viewBox="0 0 24 24"><path d="M10,21H6a2,2,0,0,1-2-2H4a2,2,0,0,1,2-2H9" fill="none" stroke="#323232" stroke-linecap="round" stroke-linejoin="round" stroke-width="1.5"/><path d="M14.71986,14.69019a1.78334,1.78334,0,0,1,3.56177-.00074" fill="none" stroke="#323232" stroke-linecap="round" stroke-linejoin="round" stroke-width="1.5"/><path d="M18.28163,14.68945a1.73327,1.73327,0,0,1,2.19116.28174,1.9556,1.9556,0,0,1,0,2.67139,1.75779,1.75779,0,0,1-.97277.523" fill="none" stroke="#323232" stroke-linecap="round" stroke-linejoin="round" stroke-width="1.5"/><path d="M14.71986,14.69019a1.73342,1.73342,0,0,0-2.19268.281,1.9556,1.9556,0,0,0,0,2.67139,1.75814,1.75814,0,0,0,.97284.523" fill="none" stroke="#323232" stroke-linecap="round" stroke-linejoin="round" stroke-width="1.5"/><path d="M19.5,18.16553V20a1,1,0,0,1-1,1h-4a1,1,0,0,1-1-1V18.16553" fill="none" stroke="#323232" stroke-linecap="round" stroke-linejoin="round" stroke-width="1.5"/><path d="M20,11V5a2,2,0,0,0-2-2H6A2,2,0,0,0,4,5V19" fill="none" stroke="#323232" stroke-linecap="round" stroke-linejoin="round" stroke-width="1.5"/><rect width="24" height="24" fill="none"/></svg>