<?xml version="1.0" encoding="UTF-8"?><svg version="1.1" viewBox="0 0 24 24" xmlns="http://www.w3.org/2000/svg" xmlns:xlink="http://www.w3.org/1999/xlink"><g stroke-linecap="round" stroke-width="1.5" stroke="#323232" fill="none" stroke-linejoin="round"><path d="M16.05 12c0-.028-.022-.05-.05-.05 -.028 0-.05.022-.05.05 0 .028.022.05.05.05 .028 0 .05-.022.05-.05"></path><path d="M8.05 12c0-.028-.022-.05-.05-.05 -.028 0-.05.022-.05.05 0 .028.022.05.05.05 .028 0 .05-.022.05-.05"></path><path d="M12.05 12c0-.028-.022-.05-.05-.05 -.028 0-.05.022-.05.05 0 .028.022.05.05.05 .028 0 .05-.022.05-.05"></path><path d="M12 16.05c.028 0 .05-.022.05-.05 0-.028-.022-.05-.05-.05 -.028 0-.05.022-.05.05 0 .028.022.05.05.05"></path><path d="M12.05 20c0-.028-.022-.05-.05-.05 -.028 0-.05.022-.05.05 0 .028.022.05.05.05 .028 0 .05-.022.05-.05"></path><path d="M12 8.05c.028 0 .05-.022.05-.05 0-.028-.022-.05-.05-.05 -.028 0-.05.022-.05.05 0 .028.022.05.05.05"></path><path d="M16.05 20c0-.028-.022-.05-.05-.05 -.028 0-.05.022-.05.05 0 .028.022.05.05.05 .028 0 .05-.022.05-.05"></path><path d="M8.05 20c0-.028-.022-.05-.05-.05 -.028 0-.05.022-.05.05 0 .028.022.05.05.05 .028 0 .05-.022.05-.05"></path><path d="M20.05 12c0-.028-.022-.05-.05-.05 -.028 0-.05.022-.05.05 0 .028.022.05.05.05 .028 0 .05-.022.05-.05"></path><path d="M20 16.05c.028 0 .05-.022.05-.05 0-.028-.022-.05-.05-.05 -.028 0-.05.022-.05.05 0 .028.022.05.05.05"></path><path d="M20 8.05c.028 0 .05-.022.05-.05 0-.028-.022-.05-.05-.05 -.028 0-.05.022-.05.05 0 .028.022.05.05.05"></path><path d="M20.05 20c0-.028-.022-.05-.05-.05 -.028 0-.05.022-.05.05 0 .028.022.05.05.05 .028 0 .05-.022.05-.05"></path><path d="M4.05 12c0-.028-.022-.05-.05-.05 -.028 0-.05.022-.05.05 0 .028.022.05.05.05 .028 0 .05-.022.05-.05"></path><path d="M4 16.05c.028 0 .05-.022.05-.05 0-.028-.022-.05-.05-.05 -.028 0-.05.022-.05.05 0 .028.022.05.05.05"></path><path d="M4 8.05c.028 0 .05-.022.05-.05 0-.028-.022-.05-.05-.05 -.028 0-.05.022-.05.05 0 .028.022.05.05.05"></path><path d="M4.05 20c0-.028-.022-.05-.05-.05 -.028 0-.05.022-.05.05 0 .028.022.05.05.05 .028 0 .05-.022.05-.05"></path><path d="M4 4h16"></path></g><path fill="none" d="M0 0h24v24h-24Z" transform="matrix(-1.83697e-16 1 -1 -1.83697e-16 24 1.77636e-15)"></path></svg>