<?xml version="1.0" encoding="UTF-8"?><svg version="1.1" viewBox="0 0 24 24" xmlns="http://www.w3.org/2000/svg" xmlns:xlink="http://www.w3.org/1999/xlink"><g stroke-linecap="round" stroke-width="1.5" stroke="#323232" fill="none" stroke-linejoin="round"><path d="M7.95 12c0 .028.022.05.05.05 .028 0 .05-.022.05-.05 0-.028-.022-.05-.05-.05 -.028 0-.05.022-.05.05"></path><path d="M15.95 12c0 .028.022.05.05.05 .028 0 .05-.022.05-.05 0-.028-.022-.05-.05-.05 -.028 0-.05.022-.05.05"></path><path d="M11.95 12c0 .028.022.05.05.05 .028 0 .05-.022.05-.05 0-.028-.022-.05-.05-.05 -.028 0-.05.022-.05.05"></path><path d="M12 7.95c-.028 0-.05.022-.05.05 0 .028.022.05.05.05 .028 0 .05-.022.05-.05 0-.028-.022-.05-.05-.05"></path><path d="M11.95 4c0 .028.022.05.05.05 .028 0 .05-.022.05-.05 0-.028-.022-.05-.05-.05 -.028 0-.05.022-.05.05"></path><path d="M12 15.95c-.028 0-.05.022-.05.05 0 .028.022.05.05.05 .028 0 .05-.022.05-.05 0-.028-.022-.05-.05-.05"></path><path d="M7.95 4c0 .028.022.05.05.05 .028 0 .05-.022.05-.05 0-.028-.022-.05-.05-.05 -.028 0-.05.022-.05.05"></path><path d="M15.95 4c0 .028.022.05.05.05 .028 0 .05-.022.05-.05 0-.028-.022-.05-.05-.05 -.028 0-.05.022-.05.05"></path><path d="M3.95 12c0 .028.022.05.05.05 .028 0 .05-.022.05-.05 0-.028-.022-.05-.05-.05 -.028 0-.05.022-.05.05"></path><path d="M4 7.95c-.028 0-.05.022-.05.05 0 .028.022.05.05.05 .028 0 .05-.022.05-.05 0-.028-.022-.05-.05-.05"></path><path d="M4 15.95c-.028 0-.05.022-.05.05 0 .028.022.05.05.05 .028 0 .05-.022.05-.05 0-.028-.022-.05-.05-.05"></path><path d="M3.95 4c0 .028.022.05.05.05 .028 0 .05-.022.05-.05 0-.028-.022-.05-.05-.05 -.028 0-.05.022-.05.05"></path><path d="M19.95 12c0 .028.022.05.05.05 .028 0 .05-.022.05-.05 0-.028-.022-.05-.05-.05 -.028 0-.05.022-.05.05"></path><path d="M20 7.95c-.028 0-.05.022-.05.05 0 .028.022.05.05.05 .028 0 .05-.022.05-.05 0-.028-.022-.05-.05-.05"></path><path d="M20 15.95c-.028 0-.05.022-.05.05 0 .028.022.05.05.05 .028 0 .05-.022.05-.05 0-.028-.022-.05-.05-.05"></path><path d="M19.95 4c0 .028.022.05.05.05 .028 0 .05-.022.05-.05 0-.028-.022-.05-.05-.05 -.028 0-.05.022-.05.05"></path><path d="M20 20h-16"></path></g><path fill="none" d="M0 0h24v24h-24Z" transform="matrix(6.12323e-17 -1 1 6.12323e-17 0 24)"></path></svg>