<?xml version="1.0" encoding="UTF-8"?><svg version="1.1" viewBox="0 0 24 24" xmlns="http://www.w3.org/2000/svg" xmlns:xlink="http://www.w3.org/1999/xlink"><!--Generated by IJSVG (https://github.com/iconjar/IJSVG)--><g stroke-linecap="round" stroke-width="1.5" stroke="#323232" fill="none"><path d="M3.146,2.363c0.062,1.145 1.191,1.887 2.297,1.544c4.15,-1.286 8.622,0.178 10.71,3.795c2.088,3.617 1.12,8.222 -2.069,11.173c-0.85,0.786 -0.772,2.135 0.188,2.762"></path><path stroke-linejoin="round" d="M20.616,7.706c1.331,-0.769 1.56,-2.873 1.297,-3.329c-0.263,-0.455 -2.2,-1.31 -3.531,-0.541c-0.505,0.292 -0.748,1.032 -0.427,1.588c0.173,0.299 0.454,0.506 0.763,0.578c0.151,0.035 0.235,0.181 0.19,0.329c-0.092,0.303 -0.052,0.651 0.12,0.951c0.32,0.556 1.083,0.716 1.588,0.424Z"></path><path stroke-linejoin="round" d="M4.198,17.174l3.836,-2.214l0.41,-2.807l-2.616,-1.059l-3.836,2.215l2.616,1.059Z"></path><path d="M18.89,6.12l-10.45,6.03"></path><path d="M4.44,3.92v7.98"></path><path d="M13.56,19.78l-6.89,-4.03"></path></g><path fill="none" d="M0,0h24v24h-24Z"></path></svg>