<svg xmlns="http://www.w3.org/2000/svg" viewBox="0 0 24 24"><g id="Layer_2" data-name="Layer 2"><path d="M13.54375,21.00007H10.45618a1.52387,1.52387,0,0,1-1.29707-.73279c-1.9289-3.15425-1.349-7.73022.9889-10.63568L9.57759,5.811A2.44927,2.44927,0,0,1,12,3.00006h0A2.44928,2.44928,0,0,1,14.42245,5.811L13.852,9.63207c2.338,2.905,2.91787,7.481.98884,10.63524A1.52386,1.52386,0,0,1,13.54375,21.00007Z" fill="none" stroke="#323232" stroke-linecap="round" stroke-linejoin="round" stroke-width="1.5"/><line x1="13.87167" y1="9.5" x2="10.12836" y2="9.5" fill="none" stroke="#323232" stroke-linecap="round" stroke-linejoin="round" stroke-width="1.5"/><path d="M17.611,10.47359,17.1832,7.60814A1.837,1.837,0,0,1,19,5.49993h0a1.837,1.837,0,0,1,1.81682,2.10822L20.389,10.47394a7.32785,7.32785,0,0,1,.86122,7.77069,1.49314,1.49314,0,0,1-1.31.75533H17.99963" fill="none" stroke="#323232" stroke-linecap="round" stroke-linejoin="round" stroke-width="1.5"/><line x1="20.38897" y1="10.47394" x2="17.61101" y2="10.47359" fill="none" stroke="#323232" stroke-linecap="round" stroke-linejoin="round" stroke-width="1.5"/><path d="M6.389,10.47359,6.8168,7.60814A1.837,1.837,0,0,0,5,5.49993H5A1.837,1.837,0,0,0,3.18316,7.60815L3.611,10.47394a7.32791,7.32791,0,0,0-.86127,7.77065,1.49314,1.49314,0,0,0,1.31.75536H6.00037" fill="none" stroke="#323232" stroke-linecap="round" stroke-linejoin="round" stroke-width="1.5"/><line x1="3.61103" y1="10.47394" x2="6.38899" y2="10.47359" fill="none" stroke="#323232" stroke-linecap="round" stroke-linejoin="round" stroke-width="1.5"/><path d="M0,0H24V24H0Z" fill="none"/></g></svg>