<svg id="Layer_3" data-name="Layer 3" xmlns="http://www.w3.org/2000/svg" viewBox="0 0 24 24"><path d="M24,24H0V0H24Z" fill="none"/><path d="M20.04975,14.29288a1,1,0,0,0-1.41416,0l-2.84268,2.84268a1.00007,1.00007,0,0,0-.29291.70716V20h2.15727a1,1,0,0,0,.70715-.29291l2.84269-2.84269a1,1,0,0,0,0-1.41422Z" fill="none" stroke="#323232" stroke-linecap="round" stroke-linejoin="round" stroke-width="1.5"/><path d="M12,21a8.998,8.998,0,1,1,8.9-10" fill="none" stroke="#323232" stroke-linecap="round" stroke-linejoin="round" stroke-width="1.5"/><path d="M13.5,8v2.5a.5.5,0,0,1-.5.5H11a.5.5,0,0,1-.5-.5V8" fill="none" stroke="#323232" stroke-linecap="round" stroke-linejoin="round" stroke-width="1.5"/><path d="M16.5,12.5V10a2,2,0,0,0-2-2h-5a2,2,0,0,0-2,2v4a2,2,0,0,0,2,2H13" fill="none" stroke="#323232" stroke-linecap="round" stroke-linejoin="round" stroke-width="1.5"/></svg>