<svg id="Layer_3" data-name="Layer 3" xmlns="http://www.w3.org/2000/svg" viewBox="0 0 24 24"><path d="M0,24V0H24V24Z" fill="none"/><path d="M16,21h2a3,3,0,0,0,3-3V14" fill="none" stroke="#323232" stroke-linecap="round" stroke-linejoin="round" stroke-width="1.5"/><path d="M9.7,12h1.7a1.8,1.8,0,0,1,1.8,1.8v5.4A1.8,1.8,0,0,1,11.4,21H4.8A1.8,1.8,0,0,1,3,19.2V13.8A1.8,1.8,0,0,1,4.8,12H6.7" fill="none" stroke="#323232" stroke-linecap="round" stroke-linejoin="round" stroke-width="1.5"/><path d="M6.7,15l1.5-.5,1.5.5V12a.5.5,0,0,0-.5-.5h-2a.5.5,0,0,0-.5.5Z" fill="none" stroke="#323232" stroke-linecap="round" stroke-linejoin="round" stroke-width="1.5"/><path d="M3,8V6A3,3,0,0,1,6,3h4" fill="none" stroke="#323232" stroke-linecap="round" stroke-linejoin="round" stroke-width="1.5"/><circle cx="17.5" cy="6.5" r="4.5" fill="none" stroke="#323232" stroke-linecap="round" stroke-linejoin="round" stroke-width="1.5"/><line x1="18.90625" y1="6.5" x2="16.09375" y2="6.5" fill="none" stroke="#323232" stroke-linecap="round" stroke-linejoin="round" stroke-width="1.5"/><line x1="17.5" y1="5.09375" x2="17.5" y2="7.90625" fill="none" stroke="#323232" stroke-linecap="round" stroke-linejoin="round" stroke-width="1.5"/></svg>