<svg id="Layer_3" data-name="Layer 3" xmlns="http://www.w3.org/2000/svg" viewBox="0 0 24 24"><path d="M2,8V5A3,3,0,0,1,5,2h5" fill="none" stroke="#323232" stroke-linecap="round" stroke-linejoin="round" stroke-width="1.5"/><path d="M22,13v6a3,3,0,0,1-3,3H14" fill="none" stroke="#323232" stroke-linecap="round" stroke-linejoin="round" stroke-width="1.5"/><path d="M12.3587,14,8.6516,10.29289A1,1,0,0,0,7.94449,10H7.00134A1,1,0,0,0,6.113,11.4592L7.42642,14" fill="none" stroke="#323232" stroke-linecap="round" stroke-linejoin="round" stroke-width="1.5"/><path d="M6.42642,18H4.05486a2,2,0,0,1-1.89737-1.36754L1.05208,13.31623A1,1,0,0,1,2.00077,12h.99454a1,1,0,0,1,.89442.55279L4.61334,14" fill="none" stroke="#323232" stroke-linecap="round" stroke-linejoin="round" stroke-width="1.5"/><path d="M4.61334,14H15a2,2,0,0,1,2,2h0a2,2,0,0,1-2,2" fill="none" stroke="#323232" stroke-linecap="round" stroke-linejoin="round" stroke-width="1.5"/><path d="M11.3587,18,7.6516,21.70711A1,1,0,0,1,6.94449,22H6.00134A1,1,0,0,1,5.113,20.5408L6.42642,18" fill="none" stroke="#323232" stroke-linecap="round" stroke-linejoin="round" stroke-width="1.5"/><line x1="15" y1="18" x2="11.3587" y2="18" fill="none" stroke="#323232" stroke-linecap="round" stroke-linejoin="round" stroke-width="1.5"/><path d="M16,2h3a0,0,0,0,1,0,0V4.5a.5.5,0,0,1-.5.5h-2a.5.5,0,0,1-.5-.5V2A0,0,0,0,1,16,2Z" fill="none" stroke="#323232" stroke-linecap="round" stroke-linejoin="round" stroke-width="1.5"/><rect x="13" y="2" width="9" height="8" rx="2" stroke-width="1.5" stroke="#323232" stroke-linecap="round" stroke-linejoin="round" fill="none"/><path d="M0,0H24V24H0Z" fill="none"/></svg>