<svg id="Layer_3" data-name="Layer 3" xmlns="http://www.w3.org/2000/svg" viewBox="0 0 24 24"><path d="M0,0H24V24H0Z" fill="none"/><path d="M21,16v2a3,3,0,0,1-3,3H17" fill="none" stroke="#323232" stroke-linecap="round" stroke-linejoin="round" stroke-width="1.5"/><path d="M3,9V6A3,3,0,0,1,6,3H8" fill="none" stroke="#323232" stroke-linecap="round" stroke-linejoin="round" stroke-width="1.5"/><path d="M3,20l1.156.578A3.99768,3.99768,0,0,0,5.94378,21H12.5A1.5,1.5,0,0,0,14,19.5h0A1.5,1.5,0,0,0,12.5,18h-4" fill="none" stroke="#323232" stroke-linecap="round" stroke-linejoin="round" stroke-width="1.5"/><path d="M3,13H5.91335a2,2,0,0,1,1.2.4l2.23727,1.67794a1.62336,1.62336,0,0,1,.17388,2.44657h0a1.62335,1.62335,0,0,1-2.1219.15079L6,16.62335" fill="none" stroke="#323232" stroke-linecap="round" stroke-linejoin="round" stroke-width="1.5"/><rect x="11" y="3.56818" width="10" height="9" rx="2.25" stroke-width="1.5" stroke="#323232" stroke-linecap="round" stroke-linejoin="round" fill="none"/><path d="M14.5,3.56818h3a0,0,0,0,1,0,0v2.5a.5.5,0,0,1-.5.5H15a.5.5,0,0,1-.5-.5v-2.5A0,0,0,0,1,14.5,3.56818Z" fill="none" stroke="#323232" stroke-linecap="round" stroke-linejoin="round" stroke-width="1.5"/></svg>