<svg id="Layer_3" data-name="Layer 3" xmlns="http://www.w3.org/2000/svg" viewBox="0 0 24 24"><path d="M0,24H24V0H0Z" fill="none"/><path d="M3,8V6A3,3,0,0,1,6,3H7" fill="none" stroke="#323232" stroke-linecap="round" stroke-linejoin="round" stroke-width="1.5"/><path d="M21,16v2a3,3,0,0,1-3,3H16" fill="none" stroke="#323232" stroke-linecap="round" stroke-linejoin="round" stroke-width="1.5"/><path d="M10.5,12h1A1.5,1.5,0,0,1,13,13.5v6A1.5,1.5,0,0,1,11.5,21h-7A1.5,1.5,0,0,1,3,19.5v-6A1.5,1.5,0,0,1,4.5,12h1" fill="none" stroke="#323232" stroke-linecap="round" stroke-linejoin="round" stroke-width="1.5"/><rect x="5.5" y="10.5" width="5" height="3" rx="1" stroke-width="1.5" stroke="#323232" stroke-linecap="round" stroke-linejoin="round" fill="none"/><path d="M17,13h1.55556A2.44444,2.44444,0,0,0,21,10.55555V5.44444A2.44444,2.44444,0,0,0,18.55555,3H12.44444A2.44444,2.44444,0,0,0,10,5.44445V7" fill="none" stroke="#323232" stroke-linecap="round" stroke-linejoin="round" stroke-width="1.5"/><path d="M17.15,3V5.5a.5.5,0,0,1-.5.5h-2.3a.5.5,0,0,1-.5-.5V3" fill="none" stroke="#323232" stroke-linecap="round" stroke-linejoin="round" stroke-width="1.5"/></svg>