<svg id="Layer_3" data-name="Layer 3" xmlns="http://www.w3.org/2000/svg" viewBox="0 0 24 24"><path d="M0,0H24V24H0Z" fill="none"/><path d="M10.5,7h3a0,0,0,0,1,0,0V9.5a.5.5,0,0,1-.5.5H11a.5.5,0,0,1-.5-.5V7A0,0,0,0,1,10.5,7Z" fill="none" stroke="#323232" stroke-linecap="round" stroke-linejoin="round" stroke-width="1.5"/><rect x="7.5" y="7" width="9" height="8" rx="2" stroke-width="1.5" stroke="#323232" stroke-linecap="round" stroke-linejoin="round" fill="none"/><path d="M9.58582,19l1.70709,1.70709a1,1,0,0,0,1.41418,0L14.41418,19H18a3,3,0,0,0,3-3V6a3,3,0,0,0-3-3H6A3,3,0,0,0,3,6V16a3,3,0,0,0,3,3Z" fill="none" stroke="#323232" stroke-linecap="round" stroke-linejoin="round" stroke-width="1.5"/></svg>