<svg id="Layer_3" data-name="Layer 3" xmlns="http://www.w3.org/2000/svg" viewBox="0 0 24 24"><path d="M13,5a2,2,0,0,1,2,2h0a2,2,0,0,1-2,2V19a1,1,0,0,1-1,1H5a1,1,0,0,1-1-1V9A2,2,0,0,1,2,7H2A2,2,0,0,1,4,5Z" fill="none" stroke="#323232" stroke-linecap="round" stroke-linejoin="round" stroke-width="1.5"/><path d="M13,5h7a2,2,0,0,1,2,2h0a2,2,0,0,1-2,2" fill="none" stroke="#323232" stroke-linecap="round" stroke-linejoin="round" stroke-width="1.5"/><path d="M19.99624,9V19a1,1,0,0,1-1,1H12" fill="none" stroke="#323232" stroke-linecap="round" stroke-linejoin="round" stroke-width="1.5"/><line x1="20" y1="9" x2="13" y2="9" fill="none" stroke="#323232" stroke-linecap="round" stroke-linejoin="round" stroke-width="1.5"/><rect width="24" height="24" fill="none"/></svg>