<?xml version="1.0" encoding="UTF-8"?><svg version="1.1" viewBox="0 0 24 24" xmlns="http://www.w3.org/2000/svg" xmlns:xlink="http://www.w3.org/1999/xlink"><g stroke-linecap="round" stroke-width="1.5" stroke="#323232" fill="none" stroke-linejoin="round"><line x1="13.78" x2="10.22" y1="8.44" y2="12"></line><line x1="13.78" x2="10.22" y1="12.89" y2="16.44"></line><path d="M5.72651 11.0587l1.88962e-08-1.67422e-07c.035273-.312523-.095089-.6208-.34388-.8132l1.54441e-07 9.36701e-08c-.795374-.482402-1.30996-1.31813-1.38263-2.24552 0-2.20915 3.58171-4 8-4 4.41829 0 8 1.79085 8 4l5.08631e-08-6.4906e-07c-.0726741.927388-.587256 1.76312-1.38263 2.24552l-6.66039e-08 5.15074e-08c-.248791.1924-.379153.500677-.34388.8132l.56451 6.02589 3.38795e-08 3.61658e-07c.137364 1.46634-.939985 2.7664-2.40633 2.90377 -.0826655.00774395-.165648.011623-.248675.0116244h-8.36595l4.60382e-08 7.88702e-13c-1.47276-2.51704e-05-2.66665-1.19395-2.66662-2.66672 1.41899e-06-.0830272.00388044-.166009.0116244-.248674Z"></path></g><rect width="24" height="24" fill="none"></rect></svg>