<?xml version="1.0" encoding="UTF-8"?><svg version="1.1" viewBox="0 0 24 24" xmlns="http://www.w3.org/2000/svg" xmlns:xlink="http://www.w3.org/1999/xlink"><!--Generated by IJSVG (https://github.com/iconjar/IJSVG)--><g fill="none"><path d="M0,0h24v24h-24v-24Z"></path><path stroke="#323232" stroke-linecap="round" stroke-linejoin="round" stroke-width="1.5" d="M8.827,18.658h-2.482c-0.554,0 -1.003,-0.449 -1.003,-1.003v-2.482c0,-0.266 -0.106,-0.521 -0.294,-0.709l-1.755,-1.755c-0.392,-0.392 -0.392,-1.027 0,-1.418l1.773,-1.773c0.177,-0.177 0.276,-0.416 0.276,-0.666v-2.507c0,-0.554 0.449,-1.003 1.003,-1.003h2.482c0.266,0 0.521,-0.106 0.709,-0.294l1.755,-1.755c0.392,-0.392 1.027,-0.392 1.418,0l1.755,1.755c0.188,0.188 0.443,0.294 0.709,0.294h2.482c0.554,0 1.003,0.449 1.003,1.003v2.482c0,0.266 0.106,0.521 0.294,0.709l1.755,1.755c0.392,0.392 0.392,1.027 0,1.418l-1.755,1.755c-0.188,0.188 -0.294,0.443 -0.294,0.709v2.482c0,0.554 -0.449,1.003 -1.003,1.003h-2.482c-0.266,0 -0.521,0.106 -0.709,0.294l-1.755,1.755c-0.392,0.392 -1.027,0.392 -1.418,0l-1.755,-1.755c-0.188,-0.189 -0.443,-0.294 -0.709,-0.294Z"></path><path stroke="#323232" stroke-linecap="round" stroke-linejoin="round" stroke-width="1.5" d="M12,8.5c-1.933,0 -3.5,1.567 -3.5,3.5c0,1.933 1.567,3.5 3.5,3.5c1.933,0 3.5,-1.567 3.5,-3.5c0,-1.933 -1.567,-3.5 -3.5,-3.5Z"></path></g></svg>