<?xml version="1.0" encoding="UTF-8"?><svg version="1.1" viewBox="0 0 24 24" xmlns="http://www.w3.org/2000/svg" xmlns:xlink="http://www.w3.org/1999/xlink"><!--Generated by IJSVG (https://github.com/iconjar/IJSVG)--><g fill="none"><path d="M0,0h24v24h-24v-24Z"></path><path stroke="#323232" stroke-linecap="round" stroke-linejoin="round" stroke-width="1.5" d="M8.827,18.657h-2.481c-0.554,0 -1.003,-0.449 -1.003,-1.003v-2.482c0,-0.266 -0.106,-0.521 -0.294,-0.709l-1.755,-1.755c-0.392,-0.392 -0.392,-1.027 0,-1.418l1.773,-1.773c0.177,-0.177 0.276,-0.416 0.276,-0.666v-2.505c0,-0.554 0.449,-1.003 1.003,-1.003h2.482c0.266,0 0.521,-0.106 0.709,-0.294l1.755,-1.755c0.392,-0.392 1.027,-0.392 1.418,0l1.755,1.755c0.188,0.188 0.443,0.294 0.709,0.294h2.482c0.554,0 1.003,0.449 1.003,1.003v2.482c0,0.266 0.106,0.521 0.294,0.709l1.755,1.755c0.392,0.392 0.392,1.027 0,1.418l-1.755,1.755c-0.188,0.188 -0.294,0.443 -0.294,0.709v2.482c0,0.554 -0.449,1.003 -1.003,1.003h-2.482c-0.266,0 -0.521,0.106 -0.709,0.294l-1.755,1.755c-0.392,0.392 -1.027,0.392 -1.418,0l-1.755,-1.755c-0.189,-0.191 -0.444,-0.296 -0.71,-0.296Z"></path><path stroke="#323232" stroke-linecap="round" stroke-linejoin="round" stroke-width="1.5" d="M12.034,12.072c0.89,-0.89 1.062,-2.235 0.537,-3.358c-0.082,-0.173 0.089,-0.358 0.274,-0.31c0.632,0.165 1.231,0.489 1.73,0.987c1.48,1.48 1.512,3.85 0.07,5.292c-1.442,1.442 -3.811,1.411 -5.292,-0.07c-0.499,-0.499 -0.822,-1.099 -0.987,-1.73c-0.049,-0.185 0.137,-0.356 0.31,-0.274c1.121,0.526 2.467,0.354 3.358,-0.537Z"></path></g></svg>