<?xml version="1.0" encoding="UTF-8"?><svg version="1.1" viewBox="0 0 24 24" xmlns="http://www.w3.org/2000/svg" xmlns:xlink="http://www.w3.org/1999/xlink"><g stroke-linecap="round" stroke-width="1.5" stroke="#323232" fill="none" stroke-linejoin="round"><path d="M8.89 15.11l6.22-6.22"></path><path d="M11 8l2-2c1.381-1.381 3.619-1.381 5 0v0c1.381 1.381 1.381 3.619 0 5l-2 2"></path><path d="M13 16l-2 2c-1.381 1.381-3.619 1.381-5 0v0c-1.381-1.381-1.381-3.619 0-5l2-2"></path><path stroke-width="1.4441" d="M19 15h2"></path><path stroke-width="1.4441" d="M15 21v-2"></path><path stroke-width="1.4441" d="M18 18l1.41 1.41"></path><path stroke-width="1.4441" d="M5 9h-2"></path><path stroke-width="1.4441" d="M9 3v2"></path><path stroke-width="1.4441" d="M6 6l-1.41-1.41"></path></g><path fill="none" d="M0 0h24v24h-24Z"></path></svg>