<?xml version="1.0" encoding="UTF-8"?><svg version="1.1" viewBox="0 0 24 24" xmlns="http://www.w3.org/2000/svg" xmlns:xlink="http://www.w3.org/1999/xlink"><g fill="none"><path d="M0 0h24v24h-24Z" transform="matrix(6.12323e-17 -1 1 6.12323e-17 -9.09495e-13 24)"></path><path stroke="#323232" stroke-linecap="round" stroke-linejoin="round" stroke-width="1.4441" d="M19.09 9.17l1.41-1.41"></path><path stroke="#323232" stroke-linecap="round" stroke-linejoin="round" stroke-width="1.4441" d="M20.5 16.24l-1.41-1.41"></path><path stroke="#323232" stroke-linecap="round" stroke-linejoin="round" stroke-width="1.4441" d="M20.5 12h2"></path><path stroke="#323232" stroke-linecap="round" stroke-linejoin="round" stroke-width="1.4441" d="M4.91 14.83l-1.41 1.41"></path><path stroke="#323232" stroke-linecap="round" stroke-linejoin="round" stroke-width="1.4441" d="M3.5 7.76l1.41 1.41"></path><path stroke="#323232" stroke-linecap="round" stroke-linejoin="round" stroke-width="1.4441" d="M3.5 12h-2"></path><path stroke="#323232" stroke-linecap="round" stroke-linejoin="round" stroke-width="1.5" d="M12.444 10.222c1.964 0 3.556 1.592 3.556 3.556v2.222c0 2.209-1.791 4-4 4v0c-2.209 0-4-1.791-4-4v-.444"></path><path stroke="#323232" stroke-linecap="round" stroke-linejoin="round" stroke-width="1.5" d="M12 14c-2.209 0-4-1.791-4-4v-2c0-2.209 1.791-4 4-4v0c2.209 0 4 1.791 4 4v.444"></path></g></svg>