<?xml version="1.0" encoding="UTF-8"?><svg version="1.1" viewBox="0 0 24 24" xmlns="http://www.w3.org/2000/svg" xmlns:xlink="http://www.w3.org/1999/xlink"><!--Generated by IJSVG (https://github.com/iconjar/IJSVG)--><g fill="none"><path d="M0,0h24v24h-24v-24Z"></path><path stroke="#323232" stroke-linecap="round" stroke-linejoin="round" stroke-width="1.5" d="M18.718,21h-13.436c-1.235,0 -2.236,-1.001 -2.236,-2.236v-10.528c0,-1.235 1.001,-2.236 2.236,-2.236h13.436c1.235,0 2.236,1.001 2.236,2.236v10.528c0,1.235 -1.001,2.236 -2.236,2.236Z"></path><path stroke="#323232" stroke-linecap="round" stroke-linejoin="round" stroke-width="1.5" d="M5.825,8.49c-0.003,0 -0.005,0.002 -0.005,0.005c0,0.003 0.002,0.005 0.005,0.005c0.003,0 0.005,-0.002 0.005,-0.005c0,-0.003 -0.002,-0.005 -0.005,-0.005"></path><path stroke="#323232" stroke-linecap="round" stroke-linejoin="round" stroke-width="1.5" d="M8.368,8.49c-0.003,0 -0.005,0.002 -0.005,0.005c0,0.003 0.003,0.005 0.005,0.005c0.003,0 0.005,-0.002 0.005,-0.005c-1.77636e-15,-0.003 -0.002,-0.005 -0.005,-0.005"></path><path stroke="#323232" stroke-linecap="round" stroke-linejoin="round" stroke-width="1.5" d="M10.907,8.49c-0.003,0 -0.005,0.002 -0.005,0.005c0,0.003 0.002,0.005 0.005,0.005c0.003,0 0.005,-0.002 0.005,-0.005c0,-0.003 -0.002,-0.005 -0.005,-0.005"></path><path stroke="#323232" stroke-linecap="round" stroke-linejoin="round" stroke-width="1.5" d="M3.046,11h17.908"></path><path stroke="#323232" stroke-linecap="round" stroke-linejoin="round" stroke-width="1.5" d="M4.782,6.058v-1.058c0,-1.105 0.895,-2 2,-2h10.435c1.105,0 2,0.895 2,2v1.058"></path></g></svg>