<?xml version="1.0" encoding="UTF-8"?><svg version="1.1" viewBox="0 0 24 24" xmlns="http://www.w3.org/2000/svg" xmlns:xlink="http://www.w3.org/1999/xlink"><!--Generated by IJSVG (https://github.com/iconjar/IJSVG)--><g fill="none"><path d="M0,0h24v24h-24Z"></path><path stroke="#323232" stroke-linecap="round" stroke-linejoin="round" stroke-width="1.5" d="M20,10v-5c0,-1.105 -0.895,-2 -2,-2h-13c-1.105,0 -2,0.895 -2,2v13c0,1.105 0.895,2 2,2h4"></path><path stroke="#323232" stroke-linecap="round" stroke-linejoin="round" stroke-width="1.5" d="M5.825,5.49c-0.003,0 -0.005,0.002 -0.005,0.005c0,0.003 0.002,0.005 0.005,0.005c0.003,0 0.005,-0.002 0.005,-0.005c0,-0.003 -0.002,-0.005 -0.005,-0.005"></path><path stroke="#323232" stroke-linecap="round" stroke-linejoin="round" stroke-width="1.5" d="M8.368,5.49c-0.003,0 -0.005,0.002 -0.005,0.005c0,0.003 0.003,0.005 0.005,0.005c0.003,0 0.005,-0.002 0.005,-0.005c-1.77636e-15,-0.003 -0.002,-0.005 -0.005,-0.005"></path><path stroke="#323232" stroke-linecap="round" stroke-linejoin="round" stroke-width="1.5" d="M10.907,5.49c-0.003,0 -0.005,0.002 -0.005,0.005c0,0.003 0.002,0.005 0.005,0.005c0.003,0 0.005,-0.002 0.005,-0.005c0,-0.003 -0.002,-0.005 -0.005,-0.005"></path><path stroke="#323232" stroke-linecap="round" stroke-linejoin="round" stroke-width="1.5" d="M3.046,8h16.954"></path><path stroke="#323232" stroke-linecap="round" stroke-linejoin="round" stroke-width="1.5" d="M18.84,13.975l2.912,5.175c0.717,1.274 -0.204,2.85 -1.666,2.85h-5.823c-1.463,0 -2.383,-1.574 -1.666,-2.85l2.912,-5.175c0.729,-1.3 2.6,-1.3 3.331,1.77636e-15Z"></path><path stroke="#323232" stroke-linecap="round" stroke-linejoin="round" stroke-width="1.5" d="M17.174,17.622v-1.754"></path><path stroke="#323232" stroke-linecap="round" stroke-linejoin="round" stroke-width="1.5" d="M17.173,19.557c-0.048,0 -0.087,0.039 -0.086,0.087c0,0.048 0.039,0.087 0.087,0.087c0.048,0 0.086,-0.039 0.086,-0.087c0,-0.048 -0.039,-0.087 -0.087,-0.087"></path></g></svg>