<svg id="Layer_3" data-name="Layer 3" xmlns="http://www.w3.org/2000/svg" viewBox="0 0 24 24"><path d="M3,8H21" fill="none" stroke="#323232" stroke-linecap="round" stroke-linejoin="round" stroke-width="1.5"/><path d="M15.75,16.5l1,1,1.5-1.5" fill="none" stroke="#323232" stroke-linecap="round" stroke-linejoin="round" stroke-width="1.5"/><path d="M13,17.44251V15.17586a1.33333,1.33333,0,0,1,.88133-1.25466l2.03334-.732a3.19989,3.19989,0,0,1,2.168,0l2.036.73333A1.33334,1.33334,0,0,1,21,15.17586v2.26665c0,1.69733-2.37467,2.95333-3.46667,3.44266a1.29592,1.29592,0,0,1-1.06666,0C15.37467,20.39584,13,19.13717,13,17.44251Z" fill="none" stroke="#323232" stroke-linecap="round" stroke-linejoin="round" stroke-width="1.5"/><path d="M10.995,5.49l-.005.005.005.005L11,5.495l-.005-.005" fill="none" stroke="#323232" stroke-linecap="round" stroke-linejoin="round" stroke-width="1.5"/><path d="M8.495,5.49l-.005.005.005.005L8.5,5.495,8.495,5.49" fill="none" stroke="#323232" stroke-linecap="round" stroke-linejoin="round" stroke-width="1.5"/><path d="M5.995,5.49l-.005.005.005.005L6,5.495,5.995,5.49" fill="none" stroke="#323232" stroke-linecap="round" stroke-linejoin="round" stroke-width="1.5"/><path d="M11,21H5a1.99945,1.99945,0,0,1-2-2V5A1.99945,1.99945,0,0,1,5,3H19a1.99945,1.99945,0,0,1,2,2v6" fill="none" stroke="#323232" stroke-linecap="round" stroke-linejoin="round" stroke-width="1.5"/><path d="M0,0H24V24H0Z" fill="none"/></svg>