<?xml version="1.0" encoding="UTF-8"?><svg version="1.1" viewBox="0 0 24 24" xmlns="http://www.w3.org/2000/svg" xmlns:xlink="http://www.w3.org/1999/xlink"><!--Generated by IJSVG (https://github.com/iconjar/IJSVG)--><g fill="none"><path d="M0,0h24v24h-24Z"></path><path stroke="#323232" stroke-linecap="round" stroke-linejoin="round" stroke-width="1.5" d="M5.815,5.49c-0.003,0 -0.005,0.002 -0.005,0.005c-8.88178e-16,0.003 0.002,0.005 0.005,0.005c0.003,0 0.005,-0.002 0.005,-0.005c0,-0.003 -0.002,-0.005 -0.005,-0.005"></path><path stroke="#323232" stroke-linecap="round" stroke-linejoin="round" stroke-width="1.5" d="M8.358,5.49c-0.003,0 -0.005,0.002 -0.005,0.005c0,0.003 0.003,0.005 0.005,0.005c0.003,0 0.005,-0.002 0.005,-0.005c-1.77636e-15,-0.003 -0.002,-0.005 -0.005,-0.005"></path><path stroke="#323232" stroke-linecap="round" stroke-linejoin="round" stroke-width="1.5" d="M10.897,5.49c-0.003,0 -0.005,0.002 -0.005,0.005c0,0.003 0.002,0.005 0.005,0.005c0.003,0 0.005,-0.002 0.005,-0.005c-1.77636e-15,-0.003 -0.002,-0.005 -0.005,-0.005"></path><path stroke="#323232" stroke-linecap="round" stroke-linejoin="round" stroke-width="1.5" d="M3.036,8h16.964"></path><path stroke="#323232" stroke-linecap="round" stroke-linejoin="round" stroke-width="1.5" d="M17,22c-2.761,0 -5,-2.238 -5,-5c0,-2.704 2.3,-5.003 5.004,-5c2.76,0.002 4.996,2.24 4.996,5c0,2.761 -2.238,5 -5,5"></path><path stroke="#323232" stroke-linecap="round" stroke-linejoin="round" stroke-width="1.5" d="M17,15v0.67"></path><path stroke="#323232" stroke-linecap="round" stroke-linejoin="round" stroke-width="1.5" d="M17,18.33v0.67"></path><path stroke="#323232" stroke-linecap="round" stroke-linejoin="round" stroke-width="1.5" d="M15.27,16l0.58,0.33"></path><path stroke="#323232" stroke-linecap="round" stroke-linejoin="round" stroke-width="1.5" d="M18.16,17.67l0.57,0.33"></path><path stroke="#323232" stroke-linecap="round" stroke-linejoin="round" stroke-width="1.5" d="M15.27,18l0.58,-0.33"></path><path stroke="#323232" stroke-linecap="round" stroke-linejoin="round" stroke-width="1.5" d="M18.16,16.33l0.57,-0.33"></path><path stroke="#323232" stroke-linecap="round" stroke-linejoin="round" stroke-width="1.5" d="M17.943,16.057c0.521,0.521 0.521,1.366 0,1.887c-0.521,0.521 -1.366,0.521 -1.887,0c-0.521,-0.521 -0.521,-1.366 0,-1.887c0.522,-0.521 1.366,-0.521 1.887,0"></path><path stroke="#323232" stroke-linecap="round" stroke-linejoin="round" stroke-width="1.5" d="M20,13v-8c0,-1.105 -0.895,-2 -2,-2h-13c-1.105,0 -2,0.895 -2,2v13c0,1.105 0.895,2 2,2h8"></path></g></svg>