<svg id="Layer_3" data-name="Layer 3" xmlns="http://www.w3.org/2000/svg" viewBox="0 0 24 24"><path d="M0,0H24V24H0Z" fill="none"/><line x1="21" y1="8.50001" x2="3" y2="8.50001" fill="none" stroke="#323232" stroke-linecap="round" stroke-linejoin="round" stroke-width="1.5"/><path d="M11,5.7425l-.005.005.005.005.005-.005L11,5.7425" fill="none" stroke="#323232" stroke-linecap="round" stroke-linejoin="round" stroke-width="1.5"/><path d="M8.5,5.74751l-.005.005.005.005.005-.005-.005-.005" fill="none" stroke="#323232" stroke-linecap="round" stroke-linejoin="round" stroke-width="1.5"/><path d="M6,5.74751l-.005.005.005.005.005-.005L6,5.74751" fill="none" stroke="#323232" stroke-linecap="round" stroke-linejoin="round" stroke-width="1.5"/><path d="M10,21H6a3,3,0,0,1-3-3V6A3,3,0,0,1,6,3H18a3,3,0,0,1,3,3v5" fill="none" stroke="#323232" stroke-linecap="round" stroke-linejoin="round" stroke-width="1.5"/><path d="M13,14.49273c0,1.14619,0,3.91568,0,5.05693a.50251.50251,0,0,0,.50046.497A6.6466,6.6466,0,0,1,17,21a6.64664,6.64664,0,0,1,3.4995-.95336.50563.50563,0,0,0,.50045-.49844l0-5.04656a.49993.49993,0,0,0-.51217-.50115A7.15305,7.15305,0,0,0,17,14.945a7.155,7.155,0,0,0-3.49141-.94465A.49159.49159,0,0,0,13,14.49273Z" fill="none" stroke="#323232" stroke-linecap="round" stroke-linejoin="round" stroke-width="1.5"/><line x1="17" y1="14.94208" x2="17" y2="21.00001" fill="none" stroke="#323232" stroke-linecap="round" stroke-linejoin="round" stroke-width="1.5"/></svg>