<?xml version="1.0" encoding="UTF-8"?><svg version="1.1" viewBox="0 0 24 24" xmlns="http://www.w3.org/2000/svg" xmlns:xlink="http://www.w3.org/1999/xlink"><g stroke-linecap="round" stroke-width="1.5" stroke="#323232" fill="none" stroke-linejoin="round"><path d="M7 21h-2.5l-8.74228e-08-3.55271e-15c-1.10457-4.82823e-08-2-.895431-2-2 0 0 0 0 0 0v-14l2.4869e-14 3.01992e-07c-1.66785e-07-1.10457.89543-2 2-2h15l-8.74228e-08 1.77636e-15c1.10457-4.82823e-08 2 .89543 2 2v8"></path><path d="M2.5 8h19"></path><path d="M17 21h1l-1.31134e-07-3.55271e-15c1.65685 7.24234e-08 3-1.34315 3-3 7.24234e-08-1.65685-1.34315-3-3-3h-1"></path><path d="M14 15h-1l-1.31134e-07 3.55271e-15c-1.65685 7.24234e-08-3 1.34315-3 3 7.24234e-08 1.65685 1.34315 3 3 3h1"></path><line x1="13" x2="18" y1="18" y2="18"></line><path d="M10.638 5.5v0c0-.0276142-.0223858-.05-.05-.05 0 0 0 0 0 0h-2.18557e-09c-.0276142 1.20706e-09-.05.0223858-.05.05 0 0 0 8.88178e-16 0 8.88178e-16l1.77636e-15 3.27242e-09c4.16963e-09.0276142.0223858.05.05.05 .0276142-4.16963e-09.05-.0223858.05-.05"></path><path d="M8.1 5.5v0c0-.0276142-.0223858-.05-.05-.05 0 0 0 0 0 0h-2.18557e-09c-.0276142 1.20706e-09-.05.0223858-.05.05v7.54979e-09c4.16963e-09.0276142.0223858.05.05.05 .0276142-4.16963e-09.05-.0223858.05-.05"></path><path d="M5.555 5.5h-8.88178e-16c0-.0276142-.0223858-.05-.05-.05h-2.18557e-09c-.0276142 1.20706e-09-.05.0223858-.05.05v3.27242e-09c4.16963e-09.0276142.0223858.05.05.05 .0276142-4.16963e-09.05-.0223858.05-.05"></path></g><path fill="none" d="M0 0h24v24h-24Z"></path></svg>