<?xml version="1.0" encoding="UTF-8"?><svg version="1.1" viewBox="0 0 24 24" xmlns="http://www.w3.org/2000/svg" xmlns:xlink="http://www.w3.org/1999/xlink"><!--Generated by IJSVG (https://github.com/iconjar/IJSVG)--><g stroke-linecap="round" stroke-width="1.5" stroke="#323232" fill="none" stroke-linejoin="round"><path d="M20,11v-6c0,-1.105 -0.895,-2 -2,-2h-13c-1.105,0 -2,0.895 -2,2v14c0,1.105 0.895,2 2,2h5"></path><path d="M17.147,20.707l3.56,-3.56c0.391,-0.391 0.391,-1.024 0,-1.414l-1.586,-1.586c-0.391,-0.391 -1.024,-0.391 -1.414,0l-3.56,3.56c-0.188,0.188 -0.293,0.442 -0.293,0.707v2.586h2.586c0.265,0 0.519,-0.105 0.707,-0.293Z"></path><path d="M5.825,5.49c-0.003,0 -0.005,0.002 -0.005,0.005c0,0.003 0.002,0.005 0.005,0.005c0.003,0 0.005,-0.002 0.005,-0.005c0,-0.003 -0.002,-0.005 -0.005,-0.005"></path><path d="M8.368,5.49c-0.003,0 -0.005,0.002 -0.005,0.005c0,0.003 0.003,0.005 0.005,0.005c0.003,0 0.005,-0.002 0.005,-0.005c-1.77636e-15,-0.003 -0.002,-0.005 -0.005,-0.005"></path><path d="M10.907,5.49c-0.003,0 -0.005,0.002 -0.005,0.005c0,0.003 0.002,0.005 0.005,0.005c0.003,0 0.005,-0.002 0.005,-0.005c0,-0.003 -0.002,-0.005 -0.005,-0.005"></path><path d="M3.046,8h16.954"></path></g><path fill="none" d="M0,0h24v24h-24Z"></path></svg>