<svg id="Layer_3" data-name="Layer 3" xmlns="http://www.w3.org/2000/svg" viewBox="0 0 24 24"><path d="M0,0H24V24H0Z" fill="none"/><path d="M11.48,14.26077a3.028,3.028,0,0,1,.02.31013v.01a2.076,2.076,0,0,1-1.57068,2.01087L8.42866,16.962a1.14082,1.14082,0,0,1-1.39061-1.39061l.37017-1.51066A2.06708,2.06708,0,0,1,9.41909,12.5h.01a3.028,3.028,0,0,1,.31013.02A2.09147,2.09147,0,0,1,11.48,14.26077Z" fill="none" stroke="#323232" stroke-linecap="round" stroke-linejoin="round" stroke-width="1.5"/><path d="M11.48,14.26a7.52539,7.52539,0,0,0,3.33-2.09l-.00134.002C16.66754,10.31347,17.507,8.1394,16.6838,7.31622s-2.99724.01627-4.85592,1.87495L11.83,9.19a7.52539,7.52539,0,0,0-2.09,3.33" fill="none" stroke="#323232" stroke-linecap="round" stroke-linejoin="round" stroke-width="1.5"/><rect x="3" y="3" width="18" height="18" rx="5" stroke-width="1.5" stroke="#323232" stroke-linecap="round" stroke-linejoin="round" fill="none"/></svg>