<?xml version="1.0" encoding="UTF-8"?><svg version="1.1" viewBox="0 0 24 24" xmlns="http://www.w3.org/2000/svg" xmlns:xlink="http://www.w3.org/1999/xlink"><g stroke-linecap="round" stroke-width="1.5" stroke="#323232" fill="none" stroke-linejoin="round"><rect width="18" height="18" x="3" y="3" rx="2.7614" ry="0"></rect><line x1="17" x2="17" y1="15" y2="17"></line><path d="M10 6l6 6 -3.414 3.414 1.67216e-08-1.67284e-08c-.78089.781207-2.04722.781463-2.82843.000572967 -.000191016-.000190939-.000381994-.000381917-.000572933-.000572933l-2.171-2.171 1.2352e-07 1.2347e-07c-.781207-.78089-.781463-2.04722-.00057318-2.82843 .000190939-.000191016.000381917-.000381994.000572933-.000572933l3.414-3.414"></path><line x1="15" x2="7" y1="12" y2="12"></line></g><path fill="none" d="M0 0h24v24h-24Z"></path></svg>