<svg id="Layer_3" data-name="Layer 3" xmlns="http://www.w3.org/2000/svg" viewBox="0 0 24 24"><path d="M3,21v-.4715a3,3,0,0,1,2.41165-2.94174l2.846-.56919a.9045.9045,0,0,1,.67911.13434h0a5.52237,5.52237,0,0,0,6.12652,0h0a.9045.9045,0,0,1,.67911-.13434l2.846.56919A3,3,0,0,1,21,20.5285V21" fill="none" stroke="#323232" stroke-linecap="round" stroke-linejoin="round" stroke-width="1.5"/><line x1="8" y1="21" x2="8" y2="17.06909" fill="none" stroke="#323232" stroke-linecap="round" stroke-linejoin="round" stroke-width="1.5"/><line x1="16" y1="21" x2="16" y2="17.06909" fill="none" stroke="#323232" stroke-linecap="round" stroke-linejoin="round" stroke-width="1.5"/><path d="M7.83484,9h8.33032a1,1,0,0,0,1-1V7.16515A5.16515,5.16515,0,0,0,12,2h0A5.16515,5.16515,0,0,0,6.83484,7.16515V8A1,1,0,0,0,7.83484,9Z" fill="none" stroke="#323232" stroke-linecap="round" stroke-linejoin="round" stroke-width="1.5"/><line x1="6.5" y1="9" x2="17.5" y2="9" fill="none" stroke="#323232" stroke-linecap="round" stroke-linejoin="round" stroke-width="1.5"/><path d="M16,9v1.99951a4,4,0,0,1-4,4h0a4,4,0,0,1-4-4V9" fill="none" stroke="#323232" stroke-linecap="round" stroke-linejoin="round" stroke-width="1.5"/><line x1="14.10126" y1="14.40491" x2="14.82533" y2="17.30139" fill="none" stroke="#323232" stroke-linecap="round" stroke-linejoin="round" stroke-width="1.5"/><line x1="9.90123" y1="14.40491" x2="9.17719" y2="17.30127" fill="none" stroke="#323232" stroke-linecap="round" stroke-linejoin="round" stroke-width="1.5"/><path d="M13.5,2.22136V3.60055a1.5,1.5,0,0,1-1.5,1.5h0a1.5,1.5,0,0,1-1.5-1.5V2.22136" fill="none" stroke="#323232" stroke-linecap="round" stroke-linejoin="round" stroke-width="1.5"/><line x1="7" y1="21" x2="17" y2="21" fill="none" stroke="#323232" stroke-linecap="round" stroke-linejoin="round" stroke-width="1.5"/><rect width="24" height="24" fill="none"/></svg>