<?xml version="1.0" encoding="UTF-8"?><svg version="1.1" viewBox="0 0 24 24" xmlns="http://www.w3.org/2000/svg" xmlns:xlink="http://www.w3.org/1999/xlink"><!--Generated by IJSVG (https://github.com/iconjar/IJSVG)--><g stroke-linecap="round" stroke-width="1.5" stroke="#323232" fill="none" stroke-linejoin="round"><path d="M21,3v18"></path><path d="M3,21v-18"></path><path d="M3,9h10"></path><path d="M13,6h-10"></path><path d="M16,3v18"></path><path d="M16,15h5"></path><path d="M16,19.1h5"></path><path d="M16,10h5"></path><path d="M16,6h5"></path><path d="M10.022,6h-2.935c-0.576,0 -1.044,-0.467 -1.044,-1.043v0c0,-1.081 0.876,-1.957 1.957,-1.957h1.043c1.081,0 1.957,0.876 1.957,1.957v0.065c0,0.54 -0.438,0.978 -0.978,0.978Z"></path><path d="M3,19h10"></path><path d="M13,16h-10"></path><path d="M10.022,16h-2.935c-0.576,0 -1.043,-0.467 -1.043,-1.043v0c-0.001,-1.081 0.875,-1.957 1.956,-1.957h1.043c1.081,0 1.957,0.876 1.957,1.957v0.065c0,0.54 -0.438,0.978 -0.978,0.978Z"></path></g><path fill="none" d="M0,0h24v24h-24Z"></path></svg>