<?xml version="1.0" encoding="UTF-8"?><svg version="1.1" viewBox="0 0 24 24" xmlns="http://www.w3.org/2000/svg" xmlns:xlink="http://www.w3.org/1999/xlink"><!--Generated by IJSVG (https://github.com/iconjar/IJSVG)--><g fill="none"><path d="M0,0h24v24h-24Z"></path><path stroke="#323232" stroke-linecap="round" stroke-linejoin="round" stroke-width="1.5" d="M4,21v0c-1.105,0 -2,-0.895 -2,-2v-14c0,-1.105 0.895,-2 2,-2v0c1.105,0 2,0.895 2,2v14c0,1.105 -0.895,2 -2,2Z"></path><path stroke="#323232" stroke-linecap="round" stroke-linejoin="round" stroke-width="1.5" d="M12,21v0c-1.105,0 -2,-0.895 -2,-2v-8.316c0,-1.105 0.895,-2 2,-2v0c1.105,0 2,0.895 2,2v8.316c0,1.105 -0.895,2 -2,2Z"></path><path stroke="#323232" stroke-linecap="round" stroke-linejoin="round" stroke-width="1.5" d="M20,21v0c-1.105,0 -2,-0.895 -2,-2v-2.632c0,-1.105 0.895,-2 2,-2v0c1.105,0 2,0.895 2,2v2.632c0,1.105 -0.895,2 -2,2Z"></path></g></svg>