<?xml version="1.0" encoding="UTF-8"?><svg version="1.1" viewBox="0 0 24 24" xmlns="http://www.w3.org/2000/svg" xmlns:xlink="http://www.w3.org/1999/xlink"><!--Generated by IJSVG (https://github.com/iconjar/IJSVG)--><g fill="none"><path d="M0,0h24v24h-24Z"></path><path stroke="#323232" stroke-linecap="round" stroke-linejoin="round" stroke-width="1.5" d="M14.22,2.335c3.278,0.493 5.87,3.084 6.362,6.362c0.09,0.599 -0.392,1.136 -0.998,1.136h-5.501c-0.552,0 -1,-0.448 -1,-1v-5.501c1.77636e-15,-0.606 0.538,-1.087 1.137,-0.997Z"></path><path stroke="#323232" stroke-linecap="round" stroke-linejoin="round" stroke-width="1.5" d="M19.184,17.589c0.719,-0.971 1.211,-2.12 1.398,-3.369c0.09,-0.599 -0.392,-1.136 -0.998,-1.136h-4.087c-0.891,0 -1.337,1.077 -0.707,1.707l2.891,2.891c0.426,0.425 1.144,0.391 1.503,-0.093Z"></path><path stroke="#323232" stroke-linecap="round" stroke-linejoin="round" stroke-width="1.5" d="M8.709,6.666c-4.133,0.614 -7.178,4.563 -6.311,9.022c0.577,2.967 2.975,5.354 5.944,5.919c2.251,0.428 4.369,-0.139 5.992,-1.338c0.486,-0.359 0.523,-1.079 0.096,-1.506l-4.304,-4.304c-0.188,-0.188 -0.293,-0.442 -0.293,-0.707v-6.09c0,-0.601 -0.529,-1.084 -1.124,-0.996Z"></path></g></svg>