<?xml version="1.0" encoding="UTF-8"?><svg version="1.1" viewBox="0 0 24 24" xmlns="http://www.w3.org/2000/svg" xmlns:xlink="http://www.w3.org/1999/xlink"><!--Generated by IJSVG (https://github.com/iconjar/IJSVG)--><g stroke-linecap="round" stroke-width="1.5" stroke="#323232" fill="none" stroke-linejoin="round"><path d="M5,3h14c1.105,0 2,0.895 2,2v14c0,1.105 -0.895,2 -2,2h-14c-1.105,0 -2,-0.895 -2,-2v-14c0,-1.105 0.895,-2 2,-2Z"></path><path d="M17,12c0,-2.761 -2.239,-5 -5,-5v5h5Z"></path><path d="M9,9.314c-1.194,0.726 -2,2.018 -2,3.519c0,2.301 1.866,4.167 4.167,4.167c1.501,0 2.793,-0.806 3.519,-2"></path></g><path fill="none" d="M0,0h24v24h-24v-24Z"></path></svg>