<?xml version="1.0" encoding="UTF-8"?><svg version="1.1" viewBox="0 0 24 24" xmlns="http://www.w3.org/2000/svg" xmlns:xlink="http://www.w3.org/1999/xlink"><!--Generated by IJSVG (https://github.com/iconjar/IJSVG)--><g fill="none"><path d="M0,0h24v24h-24v-24Z"></path><path stroke="#323232" stroke-linecap="round" stroke-linejoin="round" stroke-width="1.5" d="M19.112,6.5c-0.23,-0.299 -0.474,-0.59 -0.748,-0.864c-3.515,-3.515 -9.213,-3.515 -12.728,0c-0.274,0.274 -0.517,0.565 -0.748,0.864"></path><path stroke="#323232" stroke-linecap="round" stroke-linejoin="round" stroke-width="1.5" d="M4.888,17.5c0.23,0.299 0.474,0.59 0.748,0.864c3.515,3.515 9.213,3.515 12.728,0c0.274,-0.274 0.517,-0.565 0.748,-0.864"></path><path stroke="#323232" stroke-linecap="round" stroke-linejoin="round" stroke-width="1.5" d="M6.521,14.571h-3.021v-2.531h3.019c0.699,0 1.266,0.567 1.266,1.266v0c0.001,0.699 -0.566,1.265 -1.264,1.265Z"></path><path stroke="#323232" stroke-linecap="round" stroke-linejoin="round" stroke-width="1.5" d="M3.5,12.04v-2.611h2.7c0.721,0 1.306,0.585 1.306,1.306v0c0,0.721 -0.585,1.306 -1.306,1.306"></path><path stroke="#323232" stroke-linecap="round" stroke-linejoin="round" stroke-width="1.5" d="M17.214,9.429l2.143,2.915l2.143,-2.915"></path><path stroke="#323232" stroke-linecap="round" stroke-linejoin="round" stroke-width="1.5" d="M19.36,14.53v-2.19"></path><path stroke="#323232" stroke-linecap="round" stroke-linejoin="round" stroke-width="1.5" d="M14.643,9.429v3c0,1.183 -0.959,2.143 -2.143,2.143v0c-1.183,0 -2.143,-0.959 -2.143,-2.143v-3"></path></g></svg>