<svg id="Layer_3" data-name="Layer 3" xmlns="http://www.w3.org/2000/svg" viewBox="0 0 24 24"><rect y="-0.00001" width="24" height="24" fill="none"/><line x1="3" y1="12.76471" x2="20.69567" y2="12.76471" fill="none" stroke="#323232" stroke-linecap="round" stroke-linejoin="round" stroke-width="1.5"/><line x1="21" y1="17" x2="3" y2="17" fill="none" stroke="#323232" stroke-linecap="round" stroke-linejoin="round" stroke-width="1.5"/><path d="M15.255,6.87821a3.12751,3.12751,0,0,1-6.255,0c0-1.36078.62093-2.34191,1.87078-2.34191v.00114a8.99813,8.99813,0,0,1,1.251.20011,9.25375,9.25375,0,0,1,1.251-.20011V4.5363c1.251,0,1.88108.98113,1.88108,2.34191" fill="none" stroke="#323232" stroke-linecap="round" stroke-linejoin="round" stroke-width="1.5"/><path d="M12.12521,4.73527V3.6009A1.6012,1.6012,0,0,1,13.72613,2" fill="none" stroke="#323232" stroke-linecap="round" stroke-linejoin="round" stroke-width="1.5"/><path d="M9.27667,5.51526A6.34617,6.34617,0,0,0,3,11.86414v7.01818A2.11768,2.11768,0,0,0,5.11768,21H18.88232A2.11768,2.11768,0,0,0,21,18.88232V13.46606a2.11744,2.11744,0,0,0-.88678-1.72314L15.00879,8.09686" fill="none" stroke="#323232" stroke-linecap="round" stroke-linejoin="round" stroke-width="1.5"/></svg>