<?xml version="1.0" encoding="UTF-8"?><svg version="1.1" viewBox="0 0 24 24" xmlns="http://www.w3.org/2000/svg" xmlns:xlink="http://www.w3.org/1999/xlink"><!--Generated by IJSVG (https://github.com/iconjar/IJSVG)--><g stroke-linecap="round" stroke-width="1.5" stroke="#323232" fill="none" stroke-linejoin="round"><path d="M3,9h15"></path><path d="M13.586,18h-8.586c-1.105,0 -2,-0.895 -2,-2v-10c0,-1.105 0.895,-2 2,-2h11c1.105,0 2,0.895 2,2v7.586c0,0.265 -0.105,0.52 -0.293,0.707l-3.414,3.414c-0.188,0.188 -0.442,0.293 -0.707,0.293Z"></path><path d="M13,18v-4c0,-0.552 0.448,-1 1,-1h4"></path><path d="M14,3v2"></path><path d="M7,3v2"></path><path d="M21,9v10c0,1.105 -0.895,2 -2,2h-11"></path></g><path fill="none" d="M0,0h24v24h-24Z"></path></svg>