<?xml version="1.0" encoding="UTF-8"?><svg version="1.1" viewBox="0 0 24 24" xmlns="http://www.w3.org/2000/svg" xmlns:xlink="http://www.w3.org/1999/xlink"><g fill="none"><rect width="24" height="24"></rect><path stroke="#323232" stroke-linecap="round" stroke-linejoin="round" stroke-width="1.5" d="M12 21h-6l-1.31134e-07-3.55271e-15c-1.65685-7.24234e-08-3-1.34315-3-3 0 0 0-3.55271e-15 0-3.55271e-15v-12l3.37508e-14 4.52987e-07c-2.50178e-07-1.65685 1.34315-3 3-3h12l-1.31134e-07 2.66454e-15c1.65685-7.24234e-08 3 1.34315 3 3v6"></path><path stroke="#323232" stroke-linecap="round" stroke-linejoin="round" stroke-width="1.5" d="M21 21l-1.863-1.863"></path><path stroke="#323232" stroke-linecap="round" stroke-linejoin="round" stroke-width="1.5" d="M17 14l-1.31134e-07 3.55271e-15c1.65685-7.24234e-08 3 1.34315 3 3 7.24234e-08 1.65685-1.34315 3-3 3 -1.65685 7.24234e-08-3-1.34315-3-3l3.37508e-14 4.52987e-07c-2.50178e-07-1.65685 1.34315-3 3-3"></path><line x1="21" x2="3" y1="8" y2="8" stroke="#323232" stroke-linecap="round" stroke-linejoin="round" stroke-width="1.5"></line><path stroke="#323232" stroke-linecap="round" stroke-linejoin="round" stroke-width="1.5" d="M13.749 11.45h-2.14186e-09c-.027062 1.18292e-09-.049.021938-.049.049 1.18292e-09.027062.021938.049.049.049 .027062-1.18292e-09.049-.021938.049-.049 0 0 0-1.77636e-15 0-1.77636e-15v0c0-.027062-.021938-.049-.049-.049"></path><path stroke="#323232" stroke-linecap="round" stroke-linejoin="round" stroke-width="1.5" d="M10.249 11.45l-7.33991e-11-1.42109e-14c-.0265097-5.75356e-06-.0480047.0214799-.0480104.0479896 -7.31051e-08.000336834 3.39932e-06.000673659 1.04167e-05.00101042l-1.0627e-09-1.01977e-05c4.08624e-09.027062.0219381.049.049.049 .027062-4.08624e-09.049-.0219381.049-.049 -4.08624e-09-.027062-.0219381-.049-.049-.049 -.000329957 4.98215e-11-.000659906 3.33291e-06-.000989796 9.99807e-06"></path><path stroke="#323232" stroke-linecap="round" stroke-linejoin="round" stroke-width="1.5" d="M6.749 11.45l9.27542e-11 2.01617e-12c-.0265034-.000575568-.0484553.0204431-.0490308.0469465 -2.21053e-05.00101789-1.18191e-05.00203623 3.08432e-05.00305347l-1.0627e-09-1.01977e-05c4.08624e-09.027062.0219381.049.049.049 .027062-4.08624e-09.049-.0219381.049-.049 -4.08624e-09-.027062-.0219381-.049-.049-.049 -.000329957 4.98215e-11-.000659906 3.33291e-06-.000989796 9.99807e-06"></path><path stroke="#323232" stroke-linecap="round" stroke-linejoin="round" stroke-width="1.5" d="M10.249 14.45l-7.33991e-11-1.42109e-14c-.0265097-5.75356e-06-.0480047.0214799-.0480104.0479896 -7.31051e-08.000336834 3.39932e-06.000673659 1.04167e-05.00101042l-1.0627e-09-1.01977e-05c4.08624e-09.027062.0219381.049.049.049 .027062-4.08624e-09.049-.0219381.049-.049 -4.08624e-09-.027062-.0219381-.049-.049-.049 -.000329957 4.98215e-11-.000659906 3.33291e-06-.000989796 9.99807e-06"></path><path stroke="#323232" stroke-linecap="round" stroke-linejoin="round" stroke-width="1.5" d="M6.749 14.45l9.27542e-11 2.01617e-12c-.0265034-.000575568-.0484553.0204431-.0490308.0469465 -2.21053e-05.00101789-1.18191e-05.00203623 3.08432e-05.00305347l-1.0627e-09-1.01977e-05c4.08624e-09.027062.0219381.049.049.049 .027062-4.08624e-09.049-.0219381.049-.049 -4.08624e-09-.027062-.0219381-.049-.049-.049 -.000329957 4.98215e-11-.000659906 3.33291e-06-.000989796 9.99807e-06"></path><path stroke="#323232" stroke-linecap="round" stroke-linejoin="round" stroke-width="1.5" d="M10.249 17.451l-7.33991e-11-1.77636e-14c-.0265097-5.75356e-06-.0480047.0214799-.0480104.0479896 -7.31051e-08.000336834 3.39932e-06.000673659 1.04167e-05.00101042l-1.0627e-09-1.01977e-05c4.08624e-09.027062.0219381.049.049.049 .027062-4.08624e-09.049-.0219381.049-.049 -4.08624e-09-.027062-.0219381-.049-.049-.049 -.000329957 4.98233e-11-.000659906 3.33291e-06-.000989796 9.99807e-06"></path><path stroke="#323232" stroke-linecap="round" stroke-linejoin="round" stroke-width="1.5" d="M6.749 17.451l1.80716e-09 3.80602e-11c-.0265038-.000558162-.0484418.0204749-.049.0469787 -1.41876e-05.000673686-1.41877e-05.0013476-7.6116e-11.00202128l-1.0627e-09-1.01977e-05c4.08624e-09.027062.0219381.049.049.049 .027062-4.08624e-09.049-.0219381.049-.049 -4.08624e-09-.027062-.0219381-.049-.049-.049 -.000329957 4.98233e-11-.000659906 3.33291e-06-.000989796 9.99807e-06"></path></g></svg>