<svg id="Layer_3" data-name="Layer 3" xmlns="http://www.w3.org/2000/svg" viewBox="0 0 24 24"><rect width="24" height="24" fill="none"/><path d="M7,21H6a3,3,0,0,1-3-3V7.5a3,3,0,0,1,3-3H18a3,3,0,0,1,3,3V11" fill="none" stroke="#323232" stroke-linecap="round" stroke-linejoin="round" stroke-width="1.5"/><line x1="7.5" y1="3" x2="7.5" y2="6" fill="none" stroke="#323232" stroke-linecap="round" stroke-linejoin="round" stroke-width="1.5"/><line x1="16.5" y1="3" x2="16.5" y2="6" fill="none" stroke="#323232" stroke-linecap="round" stroke-linejoin="round" stroke-width="1.5"/><path d="M13.05,21.00006a.05.05,0,1,1-.05006-.05006.05.05,0,0,1,.05006.05006" fill="none" stroke="#323232" stroke-linecap="round" stroke-linejoin="round" stroke-width="1.5"/><path d="M10.05,21.00006A.05.05,0,1,1,9.99994,20.95a.05.05,0,0,1,.05006.05006" fill="none" stroke="#323232" stroke-linecap="round" stroke-linejoin="round" stroke-width="1.5"/><path d="M18.66571,20.70709l3.11465-3.11481a.75.75,0,0,0,0-1.06058l-1.312-1.312a.75.75,0,0,0-1.06066,0L16.29292,18.3343A1,1,0,0,0,16,19.04142V21h1.95858A1,1,0,0,0,18.66571,20.70709Z" fill="none" stroke="#323232" stroke-linecap="round" stroke-linejoin="round" stroke-width="1.5"/></svg>