<?xml version="1.0" encoding="UTF-8"?><svg version="1.1" viewBox="0 0 24 24" xmlns="http://www.w3.org/2000/svg" xmlns:xlink="http://www.w3.org/1999/xlink"><g fill="none"><path d="M0 0h24v24h-24v-24Z"></path><path stroke="#323232" stroke-linecap="round" stroke-linejoin="round" stroke-width="1.5" d="M7 7h10"></path><path stroke="#323232" stroke-linecap="round" stroke-linejoin="round" stroke-width="1.5" d="M19 3.156h-14c-1.105 0-2 .895-2 2v13.844c0 1.105.895 2 2 2h14c1.105 0 2-.895 2-2v-13.844c0-1.105-.895-2-2-2Z"></path><path stroke="#323232" stroke-linecap="round" stroke-linejoin="round" stroke-width="1.5" d="M13.884 17h3.216"></path><path stroke="#323232" stroke-linecap="round" stroke-linejoin="round" stroke-width="1.5" d="M15.492 17v-6l-1.752 1.584"></path><path stroke="#323232" stroke-linecap="round" stroke-linejoin="round" stroke-width="1.5" d="M7.5 12.152c.191-.66.774-1.152 1.495-1.152 .874 0 1.583.708 1.583 1.583 0 .782-.635 1.417-1.417 1.417 .782 0 1.417.635 1.417 1.417 0 .874-.708 1.583-1.583 1.583 -.721 0-1.304-.492-1.495-1.152"></path></g></svg>