<?xml version="1.0" encoding="UTF-8"?><svg version="1.1" viewBox="0 0 24 24" xmlns="http://www.w3.org/2000/svg" xmlns:xlink="http://www.w3.org/1999/xlink"><g fill="none"><path d="M0 0h24v24h-24Z"></path><path stroke="#323232" stroke-linecap="round" stroke-linejoin="round" stroke-width="1.5" d="M15 2v2"></path><path stroke="#323232" stroke-linecap="round" stroke-linejoin="round" stroke-width="1.5" d="M7 2v2"></path><path stroke="#323232" stroke-linecap="round" stroke-linejoin="round" stroke-width="1.5" d="M3 8h16"></path><path stroke="#323232" stroke-linecap="round" stroke-linejoin="round" stroke-width="1.5" d="M19 10v-4 0c0-1.65685-1.34315-3-3-3h-10l-1.31134e-07 3.55271e-15c-1.65685 7.24234e-08-3 1.34315-3 3 0 0 0 1.77636e-15 0 1.77636e-15v9l3.37508e-14-4.52987e-07c-2.50178e-07 1.65685 1.34315 3 3 3h3"></path><path stroke="#323232" stroke-linecap="round" stroke-linejoin="round" stroke-width="1.5" d="M15.707 18.25l2.5-2.5"></path><path stroke="#323232" stroke-linecap="round" stroke-linejoin="round" stroke-width="1.5" d="M18.586 18.559l3.45605e-09 3.45605e-09c.0196061.0196061.0196061.0513939-6.91211e-09.071 -.0196061.0196061-.0513939.0196061-.071-6.91211e-09l1.14997e-09 1.14058e-09c-.0196061-.019446-.0197359-.051104-.000289919-.0707101 9.62421e-05-9.70346e-05.000192882-.000193674.000289916-.000289916l4.54008e-09-4.40168e-09c.0197814-.0191783.0512186-.0191783.071 8.80335e-09"></path><path stroke="#323232" stroke-linecap="round" stroke-linejoin="round" stroke-width="1.5" d="M21.958 17v0c0 2.76142-2.23858 5-5 5 -2.76142 0-5-2.23858-5-5 0-2.76142 2.23858-5 5-5l-1.72394e-07 2.76497e-10c2.757-.00442192 4.99558 2.22699 5 4.98399 8.56092e-06.00533761 8.56111e-06.0106752 5.49928e-10.0160128Z"></path><path stroke="#323232" stroke-linecap="round" stroke-linejoin="round" stroke-width="1.5" d="M15.33 15.441l-2.11665e-10-2.11665e-10c-.0196061-.0196061-.0196061-.0513939 4.23332e-10-.071 .0196061-.0196061.0513939-.0196061.071 4.23332e-10l2.09441e-09 2.07731e-09c.0196061.019446.0197359.051104.000289912.0707101 -9.62421e-05 9.70346e-05-.000192882.000193674-.000289916.000289916l-1.19368e-09 1.15729e-09c-.0197814.0191783-.0512186.0191783-.071-2.31458e-09"></path></g></svg>