<svg id="Layer_3" data-name="Layer 3" xmlns="http://www.w3.org/2000/svg" viewBox="0 0 24 24"><path d="M13,21H8a5,5,0,0,1-5-5V8A5,5,0,0,1,8,3h8a5,5,0,0,1,5,5v5A8,8,0,0,1,13,21Z" fill="none" stroke="#323232" stroke-linecap="round" stroke-linejoin="round" stroke-width="1.5"/><path d="M21,11v2a2,2,0,0,1-2,2H17a3,3,0,0,0-3,3v1a2,2,0,0,1-2,2H8" fill="none" stroke="#323232" stroke-linecap="round" stroke-linejoin="round" stroke-width="1.5"/><line x1="16" y1="8" x2="8" y2="8" fill="none" stroke="#323232" stroke-linecap="round" stroke-linejoin="round" stroke-width="1.5"/><path d="M0,0H24V24H0Z" fill="none"/></svg>