<svg viewBox="0 0 24 24" xmlns="http://www.w3.org/2000/svg"><g stroke-linecap="round" stroke-width="1.5" stroke="#323232" fill="none" stroke-linejoin="round"><path d="M7.5 3l0 3"/><path d="M16.5 3l0 3"/><rect width="18" height="16.5" x="3" y="4.5" rx="3"/><path d="M8.5 11h.61l-.01-.001c.52 0 .99.33 1.16.84v0l0 0c.13.4.04.86-.24 1.18l-2.55 2.97h3"/><path d="M7.5 12l0 0c-.01-.56.44-1.01.99-1.01"/><path d="M14.5 11h.61l-.01-.001c.52 0 .99.33 1.16.84v0l0 0c.13.4.04.86-.24 1.18l-2.55 2.97h3"/><path d="M13.5 12l0 0c-.01-.56.44-1.01.99-1.01"/></g><path fill="none" d="M0 0h24v24H0Z"/></svg>