<svg id="Layer_3" data-name="Layer 3" xmlns="http://www.w3.org/2000/svg" viewBox="0 0 24 24"><rect width="24" height="24" fill="none"/><path d="M16,21h2a3,3,0,0,0,3-3V7.5a3,3,0,0,0-3-3H6a3,3,0,0,0-3,3V16" fill="none" stroke="#323232" stroke-linecap="round" stroke-linejoin="round" stroke-width="1.5"/><line x1="16.5" y1="3" x2="16.5" y2="6" fill="none" stroke="#323232" stroke-linecap="round" stroke-linejoin="round" stroke-width="1.5"/><line x1="7.5" y1="3" x2="7.5" y2="6" fill="none" stroke="#323232" stroke-linecap="round" stroke-linejoin="round" stroke-width="1.5"/><path d="M10.16572,20.70709l3.11465-3.11481a.75.75,0,0,0,0-1.06059l-1.312-1.312a.75.75,0,0,0-1.06064,0L7.79293,18.3343A1,1,0,0,0,7.5,19.04144V20.5A.5.5,0,0,0,8,21H9.4586A1,1,0,0,0,10.16572,20.70709Z" fill="none" stroke="#323232" stroke-linecap="round" stroke-linejoin="round" stroke-width="1.5"/><line x1="4.5" y1="21" x2="1.5" y2="21" fill="none" stroke="#323232" stroke-linecap="round" stroke-linejoin="round" stroke-width="1.5"/></svg>