<svg viewBox="0 0 24 24" xmlns="http://www.w3.org/2000/svg" xmlns:xlink="http://www.w3.org/1999/xlink"><defs><path d="M0 0h24v24H0Z" id="a"/><path d="M16.5 3l0 3" id="c"/><path d="M7.5 3l0 3" id="b"/></defs><g fill="none"><use xlink:href="#a"/><use xlink:href="#a"/><use xlink:href="#a"/><use xlink:href="#a"/><g stroke-linecap="round" stroke-width="1.5" stroke="#323232" fill="none" stroke-linejoin="round"><use xlink:href="#b"/><use xlink:href="#c"/><use xlink:href="#b"/><use xlink:href="#c"/><path d="M9 21H6l-.01-.001c-1.66-.01-3-1.35-3-3 0 0 0-.001 0-.001V7.49l0 0c-.01-1.66 1.34-3.01 2.99-3.01h12l-.01 0c1.65-.01 3 1.34 3 3v2.5"/><path d="M16.5 10l0 2"/><path d="M13.9 15v-2l0 0c-.01-.56.44-1.01.99-1.01h3l-.01 0c.55-.01 1 .44 1 .99v2"/><path d="M7 10l4 0"/><path d="M7 13l1 0"/><path d="M15 18l3.27 0"/><path d="M15 21l3 0"/><path d="M21 21v-5.07l0 0c0-.52-.42-.94-.94-.94h-7.14l-.01 0c-.52 0-.94.41-.94.93v5.06"/></g></g></svg>