<?xml version="1.0" encoding="UTF-8"?><svg version="1.1" viewBox="0 0 24 24" xmlns="http://www.w3.org/2000/svg" xmlns:xlink="http://www.w3.org/1999/xlink"><g fill="none"><path d="M0 0h24v24h-24Z"></path><path stroke="#323232" stroke-linecap="round" stroke-linejoin="round" stroke-width="1.5" d="M15 2v2"></path><path stroke="#323232" stroke-linecap="round" stroke-linejoin="round" stroke-width="1.5" d="M7 2v2"></path><path stroke="#323232" stroke-linecap="round" stroke-linejoin="round" stroke-width="1.5" d="M3 8h16"></path><path stroke="#323232" stroke-linecap="round" stroke-linejoin="round" stroke-width="1.5" d="M19 9v-3 0c0-1.65685-1.34315-3-3-3h-10l-1.31134e-07 3.55271e-15c-1.65685 7.24234e-08-3 1.34315-3 3 0 0 0 1.77636e-15 0 1.77636e-15v9l3.37508e-14-4.52987e-07c-2.50178e-07 1.65685 1.34315 3 3 3h3"></path><path stroke="#323232" stroke-linecap="round" stroke-linejoin="round" stroke-width="1.5" d="M21 19.586v-.865l2.89925e-08-.000240801c0-.430607-.275653-.812862-.684229-.948835l-2.31577-.771924v-2l.7-.446 1.0366e-09-6.6451e-10c.513354-.329084.751567-.954849.587-1.542v0l5.42123e-08 1.93454e-07c-.168027-.599598-.715305-1.01353-1.338-1.012h-2.9l-7.8809e-08-2.35332e-11c-.621582-.000185589-1.16727.413476-1.335 1.012v0l2.10904e-08-7.52474e-08c-.164567.587151.0736455 1.21292.587 1.542l.699.446v2l-2.316.772 -2.92997e-08 9.75876e-09c-.408543.136072-.684104.518393-.684.949v.865l-2.28059e-08-.000213418c4.00433e-08.265195.10534.51953.292849.707063l.414.414 -9.26819e-08-9.27099e-08c.187493.187549.441805.292943.707.293h6.172l1.02845e-08-2.19558e-12c.265195-5.66401e-05.519507-.105451.707-.293l.414-.414 3.70345e-08-3.70075e-08c.187568-.187431.293014-.441685.293151-.706849Z"></path></g></svg>