<?xml version="1.0" encoding="UTF-8"?><svg version="1.1" viewBox="0 0 24 24" xmlns="http://www.w3.org/2000/svg" xmlns:xlink="http://www.w3.org/1999/xlink"><!--Generated by IJSVG (https://github.com/iconjar/IJSVG)--><g stroke-linecap="round" stroke-width="1.5" stroke="#323232" fill="none" stroke-linejoin="round"><path d="M18.383,8h1.061c0.86,0 1.556,0.696 1.556,1.556v9.889c0,0.859 -0.696,1.555 -1.556,1.555h-10.888c-0.86,0 -1.556,-0.696 -1.556,-1.556v-1.444"></path><path d="M4.001,18h11.312c0.669,0 1.293,-0.334 1.664,-0.891l0.734,-1.102c0.438,-0.657 0.672,-1.429 0.672,-2.219v-7.788c0,-1.105 -0.895,-2 -2,-2h-10c-1.105,0 -2,0.895 -2,2v7.056c0,0.621 -0.145,1.233 -0.422,1.789l-0.854,1.708c-0.333,0.665 0.151,1.447 0.894,1.447Z"></path><path d="M8.38,3v2"></path><path d="M14.38,3v2"></path><path d="M8.19,9h6"></path><path d="M8.19,13h6"></path></g><path fill="none" d="M0,0h24v24h-24v-24Z"></path></svg>