<svg id="Layer_3" data-name="Layer 3" xmlns="http://www.w3.org/2000/svg" viewBox="0 0 24 24"><line x1="16.5" y1="3" x2="16.5" y2="6" fill="none" stroke="#323232" stroke-linecap="round" stroke-linejoin="round" stroke-width="1.5"/><line x1="7.5" y1="3" x2="7.5" y2="6" fill="none" stroke="#323232" stroke-linecap="round" stroke-linejoin="round" stroke-width="1.5"/><rect x="3" y="4.5" width="18" height="16.5" rx="3" stroke-width="1.5" stroke="#323232" stroke-linecap="round" stroke-linejoin="round" fill="none"/><line x1="6.5" y1="17" x2="8" y2="17.00015" fill="none" stroke="#323232" stroke-linecap="round" stroke-linejoin="round" stroke-width="1.5"/><path d="M14.13363,16.70716l3.07348-3.07347a1,1,0,0,0,0-1.41423l-.92654-.92651a1,1,0,0,0-1.4142,0l-3.07351,3.07348a1,1,0,0,0-.29289.70711V16.75a.25.25,0,0,0,.25.25h1.67656A1.00006,1.00006,0,0,0,14.13363,16.70716Z" fill="none" stroke="#323232" stroke-linecap="round" stroke-linejoin="round" stroke-width="1.5"/><path d="M24,0H0V24H24Z" fill="none"/></svg>