<svg viewBox="0 0 24 24" xmlns="http://www.w3.org/2000/svg" xmlns:xlink="http://www.w3.org/1999/xlink"><defs><path d="M16.5 3l0 3" id="b"/><path d="M7.5 3l0 3" id="a"/></defs><g stroke-linecap="round" stroke-width="1.5" stroke="#323232" fill="none" stroke-linejoin="round"><use xlink:href="#a"/><use xlink:href="#b"/><use xlink:href="#a"/><use xlink:href="#b"/><path d="M10 21H6l-.01-.001c-1.66-.01-3-1.35-3-3 0 0 0-.001 0-.001V7.49l0 0c-.01-1.66 1.34-3.01 2.99-3.01h12l-.01 0c1.65-.01 3 1.34 3 3v2.5"/><path d="M16.5 12a4.5 4.5 0 1 0 0 9 4.5 4.5 0 1 0 0-9Z"/><path d="M16.199 14.51l0 2.28 1.89 0"/></g><path fill="none" d="M0 0h24v24H0Z"/></svg>