<?xml version="1.0" encoding="UTF-8"?><svg version="1.1" viewBox="0 0 24 24" xmlns="http://www.w3.org/2000/svg" xmlns:xlink="http://www.w3.org/1999/xlink"><!--Generated by IJSVG (https://github.com/iconjar/IJSVG)--><g fill="none"><path d="M0,0h24v24h-24v-24Z"></path><path stroke="#323232" stroke-linecap="round" stroke-linejoin="round" stroke-width="1.5" d="M14.631,12.231l0.602,-0.602c0.542,1.279 0.293,2.812 -0.75,3.853c-0.836,0.836 -1.986,1.151 -3.067,0.966"></path><path stroke="#323232" stroke-linecap="round" stroke-linejoin="round" stroke-width="1.5" d="M9.369,13.767l-0.602,0.602c-0.542,-1.279 -0.293,-2.812 0.75,-3.853c0.887,-0.887 2.129,-1.185 3.266,-0.925"></path><path stroke="#323232" stroke-linecap="round" stroke-linejoin="round" stroke-width="1.5" d="M21,9v9c0,1.105 -0.895,2 -2,2h-14c-1.105,0 -2,-0.895 -2,-2v-9c0,-1.105 0.895,-2 2,-2h2l1.173,-2.008c0.358,-0.614 1.016,-0.992 1.727,-0.992h4.165c0.702,0 1.352,0.368 1.714,0.969l1.221,2.031h2c1.105,0 2,0.895 2,2Z"></path></g></svg>