<svg id="Layer_3" data-name="Layer 3" xmlns="http://www.w3.org/2000/svg" viewBox="0 0 24 24"><path d="M19,19H5a2,2,0,0,1-2-2V8" fill="none" stroke="#323232" stroke-linecap="round" stroke-linejoin="round" stroke-width="1.5"/><path d="M21,17V8a2,2,0,0,0-2-2H16.41421a1,1,0,0,1-.70712-.29291L14.58593,4.58587A2.00017,2.00017,0,0,0,13.17157,4H10.82843A2.00015,2.00015,0,0,0,9.414,4.58594L9,5" fill="none" stroke="#323232" stroke-linecap="round" stroke-linejoin="round" stroke-width="1.5"/><path d="M14.82843,14.82843A4,4,0,0,1,9.17157,9.17158" fill="none" stroke="#323232" stroke-linecap="round" stroke-linejoin="round" stroke-width="1.5"/><path d="M3,3,21,21" fill="none" stroke="#323232" stroke-linecap="round" stroke-linejoin="round" stroke-width="1.5"/><path d="M18.05006,9.00007A.05.05,0,1,1,18,8.95a.05.05,0,0,1,.05006.05007" fill="none" stroke="#323232" stroke-linecap="round" stroke-linejoin="round" stroke-width="1.5"/><rect width="24" height="24" fill="none"/></svg>