<svg id="Layer_3" data-name="Layer 3" xmlns="http://www.w3.org/2000/svg" viewBox="0 0 24 24"><path d="M10.667,21,12,19.667l-1.333-1.333" fill="none" stroke="#323232" stroke-linecap="round" stroke-linejoin="round" stroke-width="1.5"/><path d="M20.88794,14A2.332,2.332,0,0,1,22,15.778c0,1.636-2.6,3.033-6.278,3.608" fill="none" stroke="#323232" stroke-linecap="round" stroke-linejoin="round" stroke-width="1.5"/><path d="M3.113,14A2.33685,2.33685,0,0,0,2,15.778c0,2.148,4.477,3.889,10,3.889" fill="none" stroke="#323232" stroke-linecap="round" stroke-linejoin="round" stroke-width="1.5"/><rect x="6" y="4.08334" width="8.5" height="8.5" rx="2" stroke-width="1.5" stroke="#323232" stroke-linecap="round" stroke-linejoin="round" fill="none"/><path d="M14.5,9.70225l2.48352,1.53088A.66666.66666,0,0,0,18,10.66562V6.00107a.66669.66669,0,0,0-1.01652-.56751L14.5,6.9644" fill="none" stroke="#323232" stroke-linecap="round" stroke-linejoin="round" stroke-width="1.5"/><path d="M0,0H24V24H0Z" fill="none"/></svg>