<svg id="Layer_3" data-name="Layer 3" xmlns="http://www.w3.org/2000/svg" viewBox="0 0 24 24"><path d="M21,11v5a5,5,0,0,1-5,5H8a5,5,0,0,1-5-5V8A5,5,0,0,1,8,3h5" fill="none" stroke="#323232" stroke-linecap="round" stroke-linejoin="round" stroke-width="1.5"/><path d="M8.52021,12.8774a1,1,0,0,1,0-1.75478l1.42535-.77948a.99993.99993,0,0,0,.39757-.39757l.77948-1.42535a1,1,0,0,1,1.75478,0l.77948,1.42535a.99993.99993,0,0,0,.39757.39757l1.42535.77948a1,1,0,0,1,0,1.75478l-1.42535.77948a.99993.99993,0,0,0-.39757.39757l-.77948,1.42535a1,1,0,0,1-1.75478,0l-.77948-1.42535a.99993.99993,0,0,0-.39757-.39757Z" fill="none" stroke="#323232" stroke-linecap="round" stroke-linejoin="round" stroke-width="1.5"/><path d="M18.342,2.39017a.75.75,0,0,1,1.3161,0l.5846,1.069a.74993.74993,0,0,0,.29818.29818l1.069.5846a.75.75,0,0,1,0,1.3161l-1.069.5846a.74993.74993,0,0,0-.29818.29818l-.5846,1.069a.75.75,0,0,1-1.3161,0l-.5846-1.069a.74993.74993,0,0,0-.29818-.29818l-1.069-.5846a.75.75,0,0,1,0-1.3161l1.069-.5846a.74993.74993,0,0,0,.29818-.29818Z" fill="none" stroke="#323232" stroke-linecap="round" stroke-linejoin="round" stroke-width="1.5"/><path d="M0,0H24V24H0Z" fill="none"/></svg>