<?xml version="1.0" encoding="UTF-8"?><svg version="1.1" viewBox="0 0 24 24" xmlns="http://www.w3.org/2000/svg" xmlns:xlink="http://www.w3.org/1999/xlink"><g fill="none"><path d="M0 0h24v24h-24Z"></path><path stroke="#323232" stroke-linecap="round" stroke-linejoin="round" stroke-width="1.5" d="M16.76 15.471h-2.118"></path><path stroke="#323232" stroke-linecap="round" stroke-linejoin="round" stroke-width="1.5" d="M20 19.583v-4.373 -1.77636e-15c0-1.56462-1.26838-2.833-2.833-2.833h-11.334l-1.23834e-07 3.55271e-15c-1.56462 6.83918e-08-2.833 1.26838-2.833 2.833 0 0 0 0 0 0v4.373l-1.55933e-08 2.23241e-05c-.000540082.782035.632987 1.41644 1.41502 1.41698 .000666861 4.60542e-07.00133372 4.49999e-07.00200058-3.16279e-08h1.4l-4.63886e-08-1.06581e-14c.782035 2.20636e-07 1.416-.633964 1.416-1.416 9.40759e-11-.000333451-1.17597e-07-.000666902-3.53075e-07-.00100035v-.936h8.53v.936l-1.6386e-08 2.34457e-05c-.000540082.782035.632987 1.41644 1.41502 1.41698 .000993127 6.85865e-07.00198625 3.26918e-07.00297938-1.07684e-06h1.4l5.56243e-08 1.16941e-10c.782033.00164407 1.41733-.630987 1.41897-1.41302 2.78905e-06-.00132667 3.71365e-06-.00265334 2.77378e-06-.00398001Z"></path><line x1="17.91" x2="17.09" y1="12.48" y2="9" stroke="#323232" stroke-linecap="round" stroke-linejoin="round" stroke-width="1.5"></line><path stroke="#323232" stroke-linecap="round" stroke-linejoin="round" stroke-width="1.5" d="M14 7h-5.945l-1.03477e-09 1.06581e-13c-.984139.000101641-1.83868.677767-2.063 1.636l-.9 3.84"></path><rect width="7" height="7" x="14" y="2" rx="1.10456" ry="0" stroke="#323232" stroke-linecap="round" stroke-linejoin="round" stroke-width="1.5"></rect><path stroke="#323232" stroke-linecap="round" stroke-linejoin="round" stroke-width="1.5" d="M18.635 4.688l-1.474 1.478 -.886-.889"></path><path stroke="#323232" stroke-linecap="round" stroke-linejoin="round" stroke-width="1.5" d="M8.294 15.471h-2.118"></path><path stroke="#323232" stroke-linecap="round" stroke-linejoin="round" stroke-width="1.5" d="M16.824 15.471h-2.118"></path><path stroke="#323232" stroke-linecap="round" stroke-linejoin="round" stroke-width="1.5" d="M17.882 12.294l2.118-1.059"></path><path stroke="#323232" stroke-linecap="round" stroke-linejoin="round" stroke-width="1.5" d="M5.118 12.294l-2.118-1.059"></path></g></svg>