<svg id="Layer_3" data-name="Layer 3" xmlns="http://www.w3.org/2000/svg" viewBox="0 0 24 24"><path d="M8,14l0,2.7594a2.021,2.021,0,0,0,1.5566,1.97348,11.30869,11.30869,0,0,0,4.8868,0A2.021,2.021,0,0,0,16,16.7594L16,14" fill="none" stroke="#323232" stroke-linecap="round" stroke-linejoin="round" stroke-width="1.5"/><path d="M8,10V7.4A2.4,2.4,0,0,1,10.4,5h3.2A2.4,2.4,0,0,1,16,7.4V10" fill="none" stroke="#323232" stroke-linecap="round" stroke-linejoin="round" stroke-width="1.5"/><line x1="6" y1="12" x2="8" y2="10" fill="none" stroke="#323232" stroke-linecap="round" stroke-linejoin="round" stroke-width="1.5"/><line x1="18" y1="12" x2="16" y2="10" fill="none" stroke="#323232" stroke-linecap="round" stroke-linejoin="round" stroke-width="1.5"/><path d="M10.5,10.3a3.9,3.9,0,0,1,3,0" fill="none" stroke="#323232" stroke-linecap="round" stroke-linejoin="round" stroke-width="1.5"/><line x1="13.5" y1="14.99997" x2="10.5" y2="15.00003" fill="none" stroke="#323232" stroke-linecap="round" stroke-linejoin="round" stroke-width="1.5"/><rect x="2" y="2" width="20" height="20" rx="5.55556" transform="translate(24 24) rotate(180)" stroke-width="1.5" stroke="#323232" stroke-linecap="round" stroke-linejoin="round" fill="none"/><path d="M24,24H0V0H24Z" fill="none"/></svg>