<svg id="Layer_3" data-name="Layer 3" xmlns="http://www.w3.org/2000/svg" viewBox="0 0 24 24"><path d="M10.667,21,12,19.667l-1.333-1.333" fill="none" stroke="#323232" stroke-linecap="round" stroke-linejoin="round" stroke-width="1.5"/><path d="M20.889,14.006A2.335,2.335,0,0,1,22,15.778c0,1.636-2.6,3.033-6.278,3.608" fill="none" stroke="#323232" stroke-linecap="round" stroke-linejoin="round" stroke-width="1.5"/><path d="M3.111,14.006A2.335,2.335,0,0,0,2,15.778c0,2.148,4.477,3.889,10,3.889" fill="none" stroke="#323232" stroke-linecap="round" stroke-linejoin="round" stroke-width="1.5"/><path d="M14.4,11H9.6v.8A1.2,1.2,0,0,1,8.4,13H7.2A1.2,1.2,0,0,1,6,11.8V9.1A2.1,2.1,0,0,1,8.1,7h7.8A2.1,2.1,0,0,1,18,9.1v2.7A1.2,1.2,0,0,1,16.8,13H15.6a1.2,1.2,0,0,1-1.2-1.2Z" fill="none" stroke="#323232" stroke-linecap="round" stroke-linejoin="round" stroke-width="1.5"/><path d="M16.57993,7.11263,15.943,4.39A1.8,1.8,0,0,0,14.19031,3H9.80969A1.8,1.8,0,0,0,8.057,4.39L7.42007,7.11263" fill="none" stroke="#323232" stroke-linecap="round" stroke-linejoin="round" stroke-width="1.5"/><line x1="7.5036" y1="6.75538" x2="6" y2="6.00001" fill="none" stroke="#323232" stroke-linecap="round" stroke-linejoin="round" stroke-width="1.5"/><line x1="16.4964" y1="6.75538" x2="18" y2="6.00001" fill="none" stroke="#323232" stroke-linecap="round" stroke-linejoin="round" stroke-width="1.5"/><path d="M0,0H24V24H0Z" fill="none"/></svg>