<svg id="Layer_3" data-name="Layer 3" xmlns="http://www.w3.org/2000/svg" viewBox="0 0 24 24"><rect width="24" height="24" fill="none"/><path d="M14,13H10v.5a1,1,0,0,1-1,1H8a1,1,0,0,1-1-1V11.75A1.75,1.75,0,0,1,8.75,10h6.5A1.75,1.75,0,0,1,17,11.75V13.5a1,1,0,0,1-1,1H15a1,1,0,0,1-1-1Z" fill="none" stroke="#323232" stroke-linecap="round" stroke-linejoin="round" stroke-width="1.5"/><path d="M8.13928,10.11572l.5749-2.45741A1.5,1.5,0,0,1,10.17474,6.5h3.65052a1.5,1.5,0,0,1,1.46056,1.15831l.5749,2.45741" fill="none" stroke="#323232" stroke-linecap="round" stroke-linejoin="round" stroke-width="1.5"/><path d="M8.23913,9.6225,7,9" fill="none" stroke="#323232" stroke-linecap="round" stroke-linejoin="round" stroke-width="1.5"/><path d="M15.76087,9.6225,17,9" fill="none" stroke="#323232" stroke-linecap="round" stroke-linejoin="round" stroke-width="1.5"/><path d="M17.97091,4.98159h0a8.4927,8.4927,0,0,1,0,11.98217h0L14.4751,20.47127a3.49239,3.49239,0,0,1-4.939.01166l-.01167-.01166L6.02865,16.9638A8.49287,8.49287,0,0,1,6.02859,4.98159h0a8.42459,8.42459,0,0,1,11.91414-.02813l.02813.02813Z" fill="none" stroke="#323232" stroke-linecap="round" stroke-linejoin="round" stroke-width="1.5"/></svg>