<svg id="Layer_3" data-name="Layer 3" xmlns="http://www.w3.org/2000/svg" viewBox="0 0 24 24"><path d="M0,0H24V24H0Z" fill="none"/><path d="M21,16.5V20a1,1,0,0,1-1,1H18a1,1,0,0,1-1-1V18.5" fill="none" stroke="#323232" stroke-linecap="round" stroke-linejoin="round" stroke-width="1.5"/><path d="M7,18.5V20a1,1,0,0,1-1,1H4a1,1,0,0,1-1-1V16.5" fill="none" stroke="#323232" stroke-linecap="round" stroke-linejoin="round" stroke-width="1.5"/><path d="M3,16.5V13.74543A3.00433,3.00433,0,0,1,3.879,11.622L5,10.5H19l1.121,1.121A3.00109,3.00109,0,0,1,21,13.74309V16.5a2,2,0,0,1-2,2H5A2,2,0,0,1,3,16.5Z" fill="none" stroke="#323232" stroke-linecap="round" stroke-linejoin="round" stroke-width="1.5"/><path d="M21,9.5,19,10" fill="none" stroke="#323232" stroke-linecap="round" stroke-linejoin="round" stroke-width="1.5"/><path d="M5,10,3,9.5" fill="none" stroke="#323232" stroke-linecap="round" stroke-linejoin="round" stroke-width="1.5"/><path d="M5,10.5V9.994l.836-3.137A2.501,2.501,0,0,1,8.2527,5h7.58264A2.49983,2.49983,0,0,1,18.267,6.92L19,9.994V10.5" fill="none" stroke="#323232" stroke-linecap="round" stroke-linejoin="round" stroke-width="1.5"/><line x1="6" y1="14.5" x2="8" y2="14.5" fill="none" stroke="#323232" stroke-linecap="round" stroke-linejoin="round" stroke-width="1.5"/><line x1="16" y1="14.5" x2="18" y2="14.5" fill="none" stroke="#323232" stroke-linecap="round" stroke-linejoin="round" stroke-width="1.5"/></svg>