<svg id="Layer_3" data-name="Layer 3" xmlns="http://www.w3.org/2000/svg" viewBox="0 0 24 24"><line x1="3.01208" y1="12.99094" x2="5" y2="13" fill="none" stroke="#323232" stroke-linecap="round" stroke-linejoin="round" stroke-width="1.5"/><line x1="5" y1="10" x2="7" y2="10" fill="none" stroke="#323232" stroke-linecap="round" stroke-linejoin="round" stroke-width="1.5"/><path d="M13.18127,16.5H7" fill="none" stroke="#323232" stroke-linecap="round" stroke-linejoin="round" stroke-width="1.5"/><path d="M16.53777,11.38671H13.08008a1.09669,1.09669,0,0,1-1.08176-.91639L11.41994,7" fill="none" stroke="#323232" stroke-linecap="round" stroke-linejoin="round" stroke-width="1.5"/><path d="M16.17306,16.5h.73078A1.09616,1.09616,0,0,0,18,15.40384V13.30025a1.09616,1.09616,0,0,0-.32106-.7751l-1.14049-1.14049L14.85108,8.00991A1.827,1.827,0,0,0,13.217,7H7" fill="none" stroke="#323232" stroke-linecap="round" stroke-linejoin="round" stroke-width="1.5"/><path d="M3,7A4,4,0,0,1,7,3H17a4,4,0,0,1,4,4V17a4,4,0,0,1-4,4H7a4,4,0,0,1-4-4" fill="none" stroke="#323232" stroke-linecap="round" stroke-linejoin="round" stroke-width="1.5"/><path d="M14.67666,15.00906a1.49547,1.49547,0,1,1-1.49539,1.49555v-.00016a1.49539,1.49539,0,0,1,1.49539-1.49539h0" fill="none" stroke="#323232" stroke-linecap="round" stroke-linejoin="round" stroke-width="1.5"/><path d="M0,24V0H24V24Z" fill="none"/></svg>