<svg id="Layer_3" data-name="Layer 3" xmlns="http://www.w3.org/2000/svg" viewBox="0 0 24 24"><path d="M0,0H24V24H0Z" fill="none"/><circle cx="9.55338" cy="18.5" r="2.5" fill="none" stroke="#323232" stroke-linecap="round" stroke-linejoin="round" stroke-width="1.5"/><path d="M7.26319,19.5H5.47992a2,2,0,0,1-1.97675-1.69594L3.035,14.76019A2.79511,2.79511,0,0,1,5.12024,11.609a24.77806,24.77806,0,0,1,6.43182-.65808,19.86538,19.86538,0,0,1,4.14746-2.78406A11.04858,11.04858,0,0,1,20.64246,7H21" fill="none" stroke="#323232" stroke-linecap="round" stroke-linejoin="round" stroke-width="1.5"/><line x1="21" y1="19.5" x2="11.84382" y2="19.5" fill="none" stroke="#323232" stroke-linecap="round" stroke-linejoin="round" stroke-width="1.5"/><path d="M7,8H4A1,1,0,0,1,3,7V6A1,1,0,0,1,4,5H7A1,1,0,0,1,8,6V7A1,1,0,0,1,7,8Z" fill="none" stroke="#323232" stroke-linecap="round" stroke-linejoin="round" stroke-width="1.5"/><path d="M5.5,2h0A1.5,1.5,0,0,1,7,3.5V5A0,0,0,0,1,7,5H4A0,0,0,0,1,4,5V3.5A1.5,1.5,0,0,1,5.5,2Z" fill="none" stroke="#323232" stroke-linecap="round" stroke-linejoin="round" stroke-width="1.5"/></svg>