<svg id="Layer_3" data-name="Layer 3" xmlns="http://www.w3.org/2000/svg" viewBox="0 0 24 24"><path d="M0,0H24V24H0Z" fill="none"/><path d="M8.25,11.5h-2" fill="none" stroke="#323232" stroke-linecap="round" stroke-linejoin="round" stroke-width="1.5"/><path d="M17.883,8.294,20,7.235" fill="none" stroke="#323232" stroke-linecap="round" stroke-linejoin="round" stroke-width="1.5"/><path d="M5.118,8.294,3,7.235" fill="none" stroke="#323232" stroke-linecap="round" stroke-linejoin="round" stroke-width="1.5"/><path d="M17.95008,8.65553l-.96373-4.11191A2,2,0,0,0,15.03911,3H7.96088A2,2,0,0,0,6.01365,4.54362L5.04992,8.65553" fill="none" stroke="#323232" stroke-linecap="round" stroke-linejoin="round" stroke-width="1.5"/><path d="M14.342,19.04656l2.00981-3.3508a1.43,1.43,0,0,1,2.45265,0l2.00978,3.3508A1.28994,1.28994,0,0,1,19.70807,21H15.44825A1.28993,1.28993,0,0,1,14.342,19.04656Z" fill="none" stroke="#323232" stroke-linecap="round" stroke-linejoin="round" stroke-width="1.5"/><path d="M20,12v-.5a3,3,0,0,0-3-3H6a3,3,0,0,0-3,3V16a1,1,0,0,0,1,1H6.236a1,1,0,0,0,1-1V14.5h4.735" fill="none" stroke="#323232" stroke-linecap="round" stroke-linejoin="round" stroke-width="1.5"/><path d="M14.75,11.5h2" fill="none" stroke="#323232" stroke-linecap="round" stroke-linejoin="round" stroke-width="1.5"/></svg>