<svg id="Layer_3" data-name="Layer 3" xmlns="http://www.w3.org/2000/svg" viewBox="0 0 24 24"><path d="M0,0H24V24H0Z" fill="none"/><path d="M0,0H24V24H0Z" fill="none"/><path d="M18.975,10H21a1.00036,1.00036,0,0,1,1,1v1a1.00036,1.00036,0,0,1-1,1H19.5" fill="none" stroke="#323232" stroke-linecap="round" stroke-linejoin="round" stroke-width="1.5"/><path d="M4.5,13H3a1.00036,1.00036,0,0,1-1-1V11a1.00036,1.00036,0,0,1,1-1H5.025" fill="none" stroke="#323232" stroke-linecap="round" stroke-linejoin="round" stroke-width="1.5"/><path d="M19.5,16.5V21a1,1,0,0,1-1,1h-2a1,1,0,0,1-1-1V19.5" fill="none" stroke="#323232" stroke-linecap="round" stroke-linejoin="round" stroke-width="1.5"/><path d="M8.5,19.5V21a1,1,0,0,1-1,1h-2a1,1,0,0,1-1-1V16.5" fill="none" stroke="#323232" stroke-linecap="round" stroke-linejoin="round" stroke-width="1.5"/><path d="M18.60785,7.5a43.91346,43.91346,0,0,0-13.2157,0" fill="none" stroke="#323232" stroke-linecap="round" stroke-linejoin="round" stroke-width="1.5"/><path d="M4.5,13a56.49972,56.49972,0,0,0,15,0" fill="none" stroke="#323232" stroke-linecap="round" stroke-linejoin="round" stroke-width="1.5"/><line x1="16.884" y1="16.5" x2="15" y2="16.5" fill="none" stroke="#323232" stroke-linecap="round" stroke-linejoin="round" stroke-width="1.5"/><line x1="9" y1="16.5" x2="7" y2="16.5" fill="none" stroke="#323232" stroke-linecap="round" stroke-linejoin="round" stroke-width="1.5"/><path d="M17.5,19.5H6.5a2,2,0,0,1-2-2v-4L5.7445,5.20332A2,2,0,0,1,7.72237,3.5h8.55526A2,2,0,0,1,18.2555,5.20332L19.5,13.5v4A2,2,0,0,1,17.5,19.5Z" fill="none" stroke="#323232" stroke-linecap="round" stroke-linejoin="round" stroke-width="1.5"/></svg>