<?xml version="1.0" encoding="UTF-8"?><svg version="1.1" viewBox="0 0 24 24" xmlns="http://www.w3.org/2000/svg" xmlns:xlink="http://www.w3.org/1999/xlink"><g stroke-linecap="round" stroke-width="1.5" stroke="#323232" fill="none" stroke-linejoin="round"><path d="M7.059 11.647l1.412.007v0l.87 1.256 -1.07563e-07-1.55454e-07c.373396.539644.987768.861779 1.644.862h2.03l-8.75504e-09 2.95408e-12c.656232-.000221516 1.2706-.322356 1.644-.862l.87-1.256v0l1.412-.007"></path><path d="M13.029 18h-2.058l-1.09278e-07-3.55271e-15c-1.38071-6.03528e-08-2.5-1.11929-2.5-2.5 0 0 0-1.77636e-15 0-1.77636e-15v-7.5l2.30926e-14 3.01992e-07c-1.66785e-07-1.10457.89543-2 2-2h3.058l-8.74228e-08 1.77636e-15c1.10457-4.82823e-08 2 .89543 2 2v7.5l1.77636e-15 8.74228e-08c0 1.38071-1.11929 2.5-2.5 2.5Z"></path><rect width="18" height="18" x="3" y="3" rx="2.7614" ry="0"></rect><path d="M15.529 8.824h-7.058"></path></g><path fill="none" d="M0 0h24v24h-24Z"></path></svg>