<svg id="Layer_3" data-name="Layer 3" xmlns="http://www.w3.org/2000/svg" viewBox="0 0 24 24"><path d="M0,0H24V24H0Z" fill="none"/><path d="M17,2a5,5,0,0,1,5,5" fill="none" stroke="#323232" stroke-linecap="round" stroke-linejoin="round" stroke-width="1.5"/><path d="M17,5a2,2,0,0,1,2,2" fill="none" stroke="#323232" stroke-linecap="round" stroke-linejoin="round" stroke-width="1.5"/><path d="M12,3H8A5,5,0,0,0,3,8v9a5,5,0,0,0,5,5h8a5,5,0,0,0,5-5V12" fill="none" stroke="#323232" stroke-linecap="round" stroke-linejoin="round" stroke-width="1.5"/><path d="M7,12.0127l1.42883-.00708.79271-1.14444A2,2,0,0,1,10.86565,10h2.2687a2,2,0,0,1,1.64411.86118l.79271,1.14444L17,12.0127" fill="none" stroke="#323232" stroke-linecap="round" stroke-linejoin="round" stroke-width="1.5"/><path d="M11,7h2a2.5,2.5,0,0,1,2.5,2.5V16a2,2,0,0,1-2,2h-3a2,2,0,0,1-2-2V9.5A2.5,2.5,0,0,1,11,7Z" fill="none" stroke="#323232" stroke-linecap="round" stroke-linejoin="round" stroke-width="1.5"/><path d="M8.5,15h7" fill="none" stroke="#323232" stroke-linecap="round" stroke-linejoin="round" stroke-width="1.5"/></svg>