<?xml version="1.0" encoding="UTF-8"?><svg version="1.1" viewBox="0 0 24 24" xmlns="http://www.w3.org/2000/svg" xmlns:xlink="http://www.w3.org/1999/xlink"><!--Generated by IJSVG (https://github.com/iconjar/IJSVG)--><g fill="none"><path d="M0,0h24v24h-24Z"></path><path stroke="#323232" stroke-linecap="round" stroke-linejoin="round" stroke-width="1.5" d="M6.87,21.408l-4.278,-4.278c-0.789,-0.789 -0.789,-2.067 4.44089e-16,-2.856l10.698,-10.698c1.183,-1.183 3.101,-1.183 4.284,-4.44089e-16l2.85,2.85c1.183,1.183 1.183,3.101 0,4.284l-10.698,10.698c-0.788,0.788 -2.067,0.788 -2.856,0Z"></path><path stroke="#323232" stroke-linecap="round" stroke-linejoin="round" stroke-width="1.5" d="M16.146,14.988l0.403,-1.947c0.207,-0.998 -0.103,-2.033 -0.824,-2.754l-2.013,-2.013c-0.721,-0.721 -1.756,-1.03 -2.754,-0.824l-1.946,0.404"></path><path stroke="#323232" stroke-linecap="round" stroke-linejoin="round" stroke-width="1.5" d="M9.01,7.85l-1.42,-1.42"></path><path stroke="#323232" stroke-linecap="round" stroke-linejoin="round" stroke-width="1.5" d="M4.73,12.14l7.13,7.13"></path><path stroke="#323232" stroke-linecap="round" stroke-linejoin="round" stroke-width="1.5" d="M9.73,2v0.86"></path><path stroke="#323232" stroke-linecap="round" stroke-linejoin="round" stroke-width="1.5" d="M3.16,8.57h0.86"></path><path stroke="#323232" stroke-linecap="round" stroke-linejoin="round" stroke-width="1.5" d="M4.73,3.57l0.72,0.72"></path><path stroke="#323232" stroke-linecap="round" stroke-linejoin="round" stroke-width="1.5" d="M15.43,20.84v-0.86"></path><path stroke="#323232" stroke-linecap="round" stroke-linejoin="round" stroke-width="1.5" d="M22,14.27h-0.86"></path><path stroke="#323232" stroke-linecap="round" stroke-linejoin="round" stroke-width="1.5" d="M20.43,19.27l-0.72,-0.71"></path><path stroke="#323232" stroke-linecap="round" stroke-linejoin="round" stroke-width="1.5" d="M17.57,16.42l-1.42,-1.43"></path></g></svg>