<?xml version="1.0" encoding="UTF-8"?><svg version="1.1" viewBox="0 0 24 24" xmlns="http://www.w3.org/2000/svg" xmlns:xlink="http://www.w3.org/1999/xlink"><g fill="none"><rect width="24" height="24"></rect><rect width="14" height="18" x="4.863" y="2.95338" rx="1.10456" ry="0" stroke="#323232" stroke-linecap="round" stroke-linejoin="round" stroke-width="1.5"></rect><path stroke="#323232" stroke-linecap="round" stroke-linejoin="round" stroke-width="1.5" d="M12.709 9.35419l1.57012 1.99663 2.29963e-08 2.98865e-08c.294468.382698.294468.915662-4.59927e-08 1.29836l-1.57012 1.99663 1.95506e-08-2.60273e-08c-.294143.391586-.850036.47058-1.24162.176437 -.066834-.0502028-.126234-.109603-.176437-.176437l-1.57009-1.99663 -4.10553e-08-5.33564e-08c-.294468-.382698-.294468-.915662 8.21106e-08-1.29836l1.57015-1.99663 -3.42076e-08 4.55345e-08c.294165-.39157.850063-.470532 1.24163-.176367 .0668044.0501865.126181.109563.176367.176367Z"></path><rect width="24" height="24"></rect></g></svg>