<svg id="Layer_3" data-name="Layer 3" xmlns="http://www.w3.org/2000/svg" viewBox="0 0 24 24"><path d="M0,0H24V24H0Z" fill="none"/><path d="M6,10h6a1,1,0,0,1,1,1v3.5H5V11A1,1,0,0,1,6,10Z" fill="none" stroke="#323232" stroke-linecap="round" stroke-linejoin="round" stroke-width="1.5"/><circle cx="16" cy="5" r="2" fill="none" stroke="#323232" stroke-linecap="round" stroke-linejoin="round" stroke-width="1.5"/><path d="M16,10h2a2,2,0,0,1,2,2h0" fill="none" stroke="#323232" stroke-linecap="round" stroke-linejoin="round" stroke-width="1.5"/><path d="M4,21H20a1,1,0,0,0,1-1V16.5a2,2,0,0,0-2-2H5a2,2,0,0,0-2,2V20A1,1,0,0,0,4,21Z" fill="none" stroke="#323232" stroke-linecap="round" stroke-linejoin="round" stroke-width="1.5"/><path d="M6.5,10V8a1,1,0,0,1,1-1H9a1,1,0,0,1,1,1v2" fill="none" stroke="#323232" stroke-linecap="round" stroke-linejoin="round" stroke-width="1.5"/></svg>