<?xml version="1.0" encoding="UTF-8"?><svg version="1.1" viewBox="0 0 24 24" xmlns="http://www.w3.org/2000/svg" xmlns:xlink="http://www.w3.org/1999/xlink"><defs><path d="M0 0h24v24h-24Z" id="a"></path></defs><g fill="none"><use xlink:href="#a"></use><path stroke="#323232" stroke-linecap="round" stroke-linejoin="round" stroke-width="1.5" d="M12 3l-2.84124e-07 6.21725e-15c3.58985-1.56917e-07 6.5 2.91015 6.5 6.5 1.56917e-07 3.58985-2.91015 6.5-6.5 6.5 -3.58985 1.56917e-07-6.5-2.91015-6.5-6.5l6.83897e-14 6.97349e-07c-5.42052e-07-3.58985 2.91015-6.5 6.5-6.5 8.80497e-08-1.33227e-14 1.96074e-07-2.75335e-14 2.84124e-07-3.73035e-14"></path><path stroke="#323232" stroke-linecap="round" stroke-linejoin="round" stroke-width="1.5" d="M7 16h10"></path><path stroke="#323232" stroke-linecap="round" stroke-linejoin="round" stroke-width="1.5" d="M12 7.02388v-.8254"></path><path stroke="#323232" stroke-linecap="round" stroke-linejoin="round" stroke-width="1.5" d="M12 11.9763v.8254"></path><path stroke="#323232" stroke-linecap="round" stroke-linejoin="round" stroke-width="1.5" d="M10.5688 11.3869l3.49269e-08 5.9614e-08c.21211.362034.59896.585867 1.01854.58933h.90794l-2.69122e-08-6.72499e-10c.637999.0159427 1.16812-.488334 1.18407-1.12633 .0137901-.551855-.36467-1.0364-.903436-1.15667l-1.54679-.38876 -8.39386e-08-1.96661e-08c-.621366-.145581-1.00707-.767315-.861486-1.38868 .123448-.526897.59603-.897548 1.13717-.891889h.90794l6.29828e-08 4.25812e-10c.419965.00283929.807346.226799 1.01936.58933"></path><path stroke="#323232" stroke-linecap="round" stroke-linejoin="round" stroke-width="1.5" d="M18.0009 12h.99912l-8.74228e-08 1.77636e-15c1.10457-4.82823e-08 2 .89543 2 2v5 0c0 1.10457-.895431 2-2 2h-14l-8.74228e-08-3.55271e-15c-1.10457-4.82823e-08-2-.895431-2-2 0 0 0 0 0 0v-5l2.30926e-14 3.01992e-07c-1.66785e-07-1.10457.89543-2 2-2h.99912"></path><use xlink:href="#a"></use></g></svg>