<svg xmlns="http://www.w3.org/2000/svg" viewBox="0 0 24 24"><g id="Layer_2" data-name="Layer 2"><rect y="0.00001" width="24" height="24" fill="none"/><path d="M13,11h3.29179a3,3,0,0,1,1.34164.31672l.58519.29259a3,3,0,0,1,1.23084,1.1398L22,17" fill="none" stroke="#323232" stroke-linecap="round" stroke-linejoin="round" stroke-width="1.5"/><path d="M17,22l-2.75139-1.058a4,4,0,0,1-1.95718-1.61478L9.24269,14.44519a1.5985,1.5985,0,0,1,.22554-1.977h0a1.5985,1.5985,0,0,1,2.31935.062L14.00677,15H16" fill="none" stroke="#323232" stroke-linecap="round" stroke-linejoin="round" stroke-width="1.5"/><path d="M13,13.87951V4.83334A1.83333,1.83333,0,0,0,11.16667,3H3.83333A1.83333,1.83333,0,0,0,2,4.83334V17.05557A1.83333,1.83333,0,0,0,3.83333,18.8889h7.94445" fill="none" stroke="#323232" stroke-linecap="round" stroke-linejoin="round" stroke-width="1.5"/><line x1="10" y1="6.00001" x2="10" y2="6.00001" fill="none" stroke="#323232" stroke-linecap="round" stroke-linejoin="round" stroke-width="1.5"/><line x1="5" y1="16.00001" x2="5" y2="16.00001" fill="none" stroke="#323232" stroke-linecap="round" stroke-linejoin="round" stroke-width="1.5"/><path d="M6.08579,12.35867A2,2,0,0,1,8.91421,9.53024" fill="none" stroke="#323232" stroke-linecap="round" stroke-linejoin="round" stroke-width="1.5"/><line x1="20" y1="3" x2="20" y2="8" fill="none" stroke="#323232" stroke-linecap="round" stroke-linejoin="round" stroke-width="1.5"/><line x1="22" y1="5" x2="20" y2="3" fill="none" stroke="#323232" stroke-linecap="round" stroke-linejoin="round" stroke-width="1.5"/><line x1="18" y1="5" x2="20" y2="3" fill="none" stroke="#323232" stroke-linecap="round" stroke-linejoin="round" stroke-width="1.5"/></g></svg>