<svg id="Layer_3" data-name="Layer 3" xmlns="http://www.w3.org/2000/svg" viewBox="0 0 24 24"><path d="M23.9997-.02771h-24v24h24Z" fill="none"/><path d="M20.9997,14.97229v4a2,2,0,0,1-2,2h-3" fill="none" stroke="#323232" stroke-linecap="round" stroke-linejoin="round" stroke-width="1.5"/><path d="M2.9997,7.97229v-3a2,2,0,0,1,2-2h1" fill="none" stroke="#323232" stroke-linecap="round" stroke-linejoin="round" stroke-width="1.5"/><circle cx="14.9997" cy="7.47229" r="1.5" fill="none" stroke="#323232" stroke-linecap="round" stroke-linejoin="round" stroke-width="1.5"/><path d="M15.9997,11.97229h3a2,2,0,0,0,2-2v-5a2,2,0,0,0-2-2h-8a2,2,0,0,0-2,2v3" fill="none" stroke="#323232" stroke-linecap="round" stroke-linejoin="round" stroke-width="1.5"/><path d="M6.49923,17.5l3-3" fill="none" stroke="#323232" stroke-linecap="round" stroke-linejoin="round" stroke-width="1.5"/><rect x="3" y="11" width="10" height="10" rx="3" stroke-width="1.5" stroke="#323232" stroke-linecap="round" stroke-linejoin="round" fill="none"/><path d="M6.32529,14.25a.075.075,0,1,1-.07529.075.0746.0746,0,0,1,.07529-.075" fill="none" stroke="#323232" stroke-linecap="round" stroke-linejoin="round" stroke-width="1.5"/><path d="M9.67471,17.75A.075.075,0,1,1,9.75,17.675a.0746.0746,0,0,1-.07529.075" fill="none" stroke="#323232" stroke-linecap="round" stroke-linejoin="round" stroke-width="1.5"/></svg>