<svg id="Layer_3" data-name="Layer 3" xmlns="http://www.w3.org/2000/svg" viewBox="0 0 24 24"><path d="M24,0H0V24H24Z" fill="none"/><path d="M0,0H24V24H0Z" fill="none"/><line x1="6" y1="15.00001" x2="7" y2="15.00001" fill="none" stroke="#323232" stroke-linecap="round" stroke-linejoin="round" stroke-width="1.5"/><line x1="17" y1="7.00001" x2="18" y2="7.00001" fill="none" stroke="#323232" stroke-linecap="round" stroke-linejoin="round" stroke-width="1.5"/><path d="M10.23223,12.76778a2.5,2.5,0,0,1,3.53554-3.53554" fill="none" stroke="#323232" stroke-linecap="round" stroke-linejoin="round" stroke-width="1.5"/><path d="M8,18H6a3,3,0,0,1-3-3V7A3,3,0,0,1,6,4H18a3,3,0,0,1,3,3v6" fill="none" stroke="#323232" stroke-linecap="round" stroke-linejoin="round" stroke-width="1.5"/><path d="M21,21V18.35254a2,2,0,0,0-1.6781-1.97394L17,16" fill="none" stroke="#323232" stroke-linecap="round" stroke-linejoin="round" stroke-width="1.5"/><path d="M12.43816,21l-1.20064-1.8012a1.41435,1.41435,0,0,1,.17677-1.78455h0a1.41435,1.41435,0,0,1,2.00022,0L14,17.99976" fill="none" stroke="#323232" stroke-linecap="round" stroke-linejoin="round" stroke-width="1.5"/><path d="M17,16V13.5A1.5,1.5,0,0,0,15.5,12h0A1.5,1.5,0,0,0,14,13.5V18" fill="none" stroke="#323232" stroke-linecap="round" stroke-linejoin="round" stroke-width="1.5"/></svg>