<?xml version="1.0" encoding="UTF-8"?><svg version="1.1" viewBox="0 0 24 24" xmlns="http://www.w3.org/2000/svg" xmlns:xlink="http://www.w3.org/1999/xlink"><g stroke-linecap="round" stroke-width="1.5" stroke="#323232" fill="none" stroke-linejoin="round"><rect width="18" height="18" x="3" y="3" rx="2.7614" ry="0"></rect><path d="M13.921 9.022l-3.82611e-08-1.35459e-08c-1.24287-.440022-2.59913-.440022-3.842 2.70917e-08l-1.428-1.222 -5.11582e-08-4.38743e-08c-.419227-.359538-1.05054-.31115-1.41008.108077 -.155222.180991-.240665.411488-.240922.649923v3.942l5.68434e-14 7.54979e-07c4.16963e-07 2.76142 2.23858 5 5 5 0 0 1.77636e-15 0 1.77636e-15 0v0l-2.18557e-07-7.10543e-15c2.76142 1.20706e-07 5-2.23858 5-5v-3.942l8.39534e-09-9.14462e-06c.000504507-.552285-.446802-1.00041-.999086-1.00091 -.239123-.000218437-.470409.0852571-.651921.240928Z"></path></g><path fill="none" d="M0 0h24v24h-24Z"></path></svg>