<?xml version="1.0" encoding="UTF-8"?><svg version="1.1" viewBox="0 0 24 24" xmlns="http://www.w3.org/2000/svg" xmlns:xlink="http://www.w3.org/1999/xlink"><g stroke-linecap="round" stroke-width="1.5" stroke="#323232" fill="none" stroke-linejoin="round"><line x1="21" x2="3" y1="14" y2="14"></line><path d="M9 7v-1l2.30926e-14 3.01992e-07c-1.66785e-07-1.10457.89543-2 2-2h2l-8.74228e-08 1.77636e-15c1.10457-4.82823e-08 2 .89543 2 2v1"></path><line x1="8" x2="8" y1="10" y2="11"></line><line x1="12" x2="12" y1="10" y2="11"></line><line x1="16" x2="16" y1="10" y2="11"></line><path d="M20.9 14.587l-1.348 4.045 -1.42834e-08 4.28847e-08c-.272376.817785-1.03805 1.36907-1.9 1.368h-11.304l2.60316e-08-3.22942e-11c-.861951.00106931-1.62762-.550215-1.9-1.368l-1.348-4.045 -1.00624e-07-3.00641e-07c-.127959-.382312-.137024-.794431-.0259999-1.182l1.419-4.954 -2.1399e-08 7.49618e-08c.245147-.858761 1.02993-1.45092 1.923-1.451h11.168l-4.68555e-09-4.08562e-13c.893067 7.77846e-05 1.67785.592239 1.923 1.451l1.416 4.954 -1.04461e-08-3.61216e-08c.111994.387266.103975.799384-.023 1.182Z"></path></g><path fill="none" d="M0 0h24v24h-24Z"></path></svg>