<?xml version="1.0" encoding="UTF-8"?><svg version="1.1" viewBox="0 0 24 24" xmlns="http://www.w3.org/2000/svg" xmlns:xlink="http://www.w3.org/1999/xlink"><g fill="none"><path d="M0 0h24v24h-24Z"></path><path stroke="#323232" stroke-linecap="round" stroke-linejoin="round" stroke-width="1.5" d="M16 14.4h-1.94l-3.49691e-08-1.77636e-15c-.441828-1.93129e-08-.8-.358172-.8-.8 0 0 0 0 0 0v-3.2l1.06581e-14 1.20797e-07c-6.67141e-08-.441828.358172-.8.8-.8 0 0 0 0 0 0h1.94"></path><rect width="18" height="18" x="3" y="3" rx="2.7614" ry="0" stroke="#323232" stroke-linecap="round" stroke-linejoin="round" stroke-width="1.5"></rect><path stroke="#323232" stroke-linecap="round" stroke-linejoin="round" stroke-width="1.5" d="M10.74 14.4h-1.94l-3.49691e-08-1.77636e-15c-.441828-1.93129e-08-.8-.358172-.8-.8 0 0 0 0 0 0v-3.2l8.88178e-15 1.20797e-07c-6.67141e-08-.441828.358172-.8.8-.8 0 0 0 0 0 0h1.94"></path></g></svg>