<?xml version="1.0" encoding="UTF-8"?><svg version="1.1" viewBox="0 0 24 24" xmlns="http://www.w3.org/2000/svg" xmlns:xlink="http://www.w3.org/1999/xlink"><g stroke-linecap="round" stroke-width="1.5" stroke="#323232" fill="none" stroke-linejoin="round"><path d="M13.555 11.223l-1.945 1.945 -1.166-1.167"></path><path d="M7.275 12.814l.664.869 .144 1.081c.08.6.551 1.072 1.151 1.152l1.085.145 .868.664c.48.367 1.147.367 1.627 0l.869-.664h-.001l1.082-.144c.6-.08 1.072-.551 1.152-1.151l.145-1.084c0 .001.336-.439.664-.868 .367-.48.367-1.147 0-1.627l-.664-.869 -.144-1.081c-.08-.6-.551-1.072-1.151-1.152l-1.085-.145 -.868-.664c-.48-.367-1.147-.367-1.627 0l-.869.664h.001l-1.082.143c-.6.08-1.072.551-1.152 1.151l-.145 1.084c0-.001-.336.439-.664.868 -.367.481-.367 1.147 0 1.628Z"></path><circle cx="12" cy="12" r="9"></circle></g><path fill="none" d="M0 0h24v24h-24v-24Z"></path></svg>