<?xml version="1.0" encoding="UTF-8"?><svg version="1.1" viewBox="0 0 24 24" xmlns="http://www.w3.org/2000/svg" xmlns:xlink="http://www.w3.org/1999/xlink"><g fill="none"><path d="M0 0h24v24h-24v-24Z"></path><path stroke="#323232" stroke-linecap="round" stroke-linejoin="round" stroke-width="1.5" d="M17 21h-10c-2.209 0-4-1.791-4-4v-10c0-2.209 1.791-4 4-4h10c2.209 0 4 1.791 4 4v10c0 2.209-1.791 4-4 4Z"></path><path stroke="#323232" stroke-linecap="round" stroke-linejoin="round" stroke-width="1.5" d="M13.555 11.223l-1.945 1.945 -1.166-1.167"></path><path stroke="#323232" stroke-linecap="round" stroke-linejoin="round" stroke-width="1.5" d="M7.276 12.814l.664.869 .144 1.081c.08.6.551 1.072 1.151 1.152l1.084.145 .868.663c.48.367 1.147.367 1.627 0l.869-.664h-.001l1.082-.144c.6-.08 1.072-.551 1.152-1.151l.145-1.084c0 .001.336-.439.664-.868 .367-.48.367-1.147 0-1.627l-.664-.869 -.144-1.081c-.08-.6-.551-1.072-1.151-1.152l-1.085-.144 -.868-.663c-.48-.367-1.147-.367-1.627 0l-.869.663h.001l-1.082.143c-.6.08-1.072.551-1.152 1.151l-.145 1.084c0-.001-.336.439-.664.868 -.366.481-.366 1.147.001 1.628Z"></path></g></svg>