<?xml version="1.0" encoding="UTF-8"?><svg version="1.1" viewBox="0 0 24 24" xmlns="http://www.w3.org/2000/svg" xmlns:xlink="http://www.w3.org/1999/xlink"><!--Generated by IJSVG (https://github.com/iconjar/IJSVG)--><g stroke-linecap="round" stroke-width="1.5" stroke="#323232" fill="none" stroke-linejoin="round"><path d="M5,5.25h4"></path><path d="M18,17v0c-2.145,0 -3.785,-1.908 -3.459,-4.023l0.947,-6.13c0.075,-0.487 0.496,-0.847 0.991,-0.847h3.262c0.508,0 0.936,0.379 0.995,0.882l0.739,6.215c0.247,2.077 -1.379,3.903 -3.475,3.903Z"></path><path d="M3.739,10.962l1.141,0.713c1.297,0.811 2.943,0.811 4.24,0l1.141,-0.713"></path><path d="M6.5,2h1c0.552,0 1,0.448 1,1v2.085c0,1.908 0.518,3.78 1.5,5.415v0c0.982,1.636 1.5,3.508 1.5,5.415v4.085c0,1.105 -0.895,2 -2,2h-5c-1.105,0 -2,-0.895 -2,-2v-4.085c0,-1.908 0.518,-3.78 1.5,-5.415v0c0.982,-1.636 1.5,-3.508 1.5,-5.415v-2.085c0,-0.552 0.448,-1 1,-1Z"></path><path d="M7.986,15c0.846,0 1.414,0.745 1.414,1.439c0,1.408 -2.357,2.561 -2.4,2.561c-0.043,0 -2.4,-1.153 -2.4,-2.561c0,-0.694 0.568,-1.439 1.414,-1.439c0.484,0 0.802,0.226 0.986,0.428c0.184,-0.202 0.502,-0.428 0.986,-0.428Z"></path><path d="M18,17v5"></path><path d="M16,22h4"></path><path d="M21.11,10h-6.11"></path></g><path fill="none" d="M0,0h24v24h-24Z"></path></svg>