<?xml version="1.0" encoding="UTF-8"?><svg version="1.1" viewBox="0 0 24 24" xmlns="http://www.w3.org/2000/svg" xmlns:xlink="http://www.w3.org/1999/xlink"><defs><path d="M19 9l-1.74846e-07-3.55271e-15c-2.20914-9.65645e-08-4-1.79086-4-4 9.65645e-08-2.20914 1.79086-4 4-4 2.20914 9.65645e-08 4 1.79086 4 4v8.88178e-16c0 2.20914-1.79086 4-4 4 0 0 0 0 0 0" id="a"></path></defs><g fill="none"><path d="M0 0h24v24h-24Z"></path><line x1="7.35" x2="15.35" y1="15.5" y2="15.5" stroke="#323232" stroke-linecap="round" stroke-linejoin="round" stroke-width="1.5"></line><line x1="11.35" x2="11.35" y1="15.5" y2="9.5" stroke="#323232" stroke-linecap="round" stroke-linejoin="round" stroke-width="1.5"></line><use stroke="#323232" stroke-linecap="round" stroke-linejoin="round" stroke-width="1.5" xlink:href="#a"></use><path stroke="#323232" stroke-linecap="round" stroke-linejoin="round" stroke-width="1.5" d="M15 4.759l-8.57191e-08-3.8846e-08c-4.2849-1.94182-9.33265-.04238-11.2745 4.24252 -1.94182 4.2849-.04238 9.33265 4.24252 11.2745 4.2849 1.94182 9.33265.04238 11.2745-4.24252 1.01181-2.2327 1.01271-4.79306.0024819-7.02647"></path><use stroke="#323232" stroke-linecap="round" stroke-linejoin="round" stroke-width="1.5" xlink:href="#a"></use><path stroke="#323232" stroke-linecap="round" stroke-linejoin="round" stroke-width="1.5" d="M20 4l-2 2"></path><path stroke="#323232" stroke-linecap="round" stroke-linejoin="round" stroke-width="1.5" d="M18 4l2 2"></path><line x1="14.02" x2="14.02" y1="15.5" y2="11.21" stroke="#323232" stroke-linecap="round" stroke-linejoin="round" stroke-width="1.5"></line><line x1="8.69" x2="8.69" y1="15.5" y2="12.07" stroke="#323232" stroke-linecap="round" stroke-linejoin="round" stroke-width="1.5"></line></g></svg>