<svg id="Layer_3" data-name="Layer 3" xmlns="http://www.w3.org/2000/svg" viewBox="0 0 24 24"><path d="M24,0V24H0V0Z" fill="none"/><line x1="7" y1="11.5" x2="7" y2="16.5" fill="none" stroke="#323232" stroke-linecap="round" stroke-linejoin="round" stroke-width="1.5"/><path d="M17,17.88889V10.11111A3.11111,3.11111,0,0,0,13.88889,7H6.11111A3.11111,3.11111,0,0,0,3,10.11111v7.77778A3.11111,3.11111,0,0,0,6.11111,21h7.77778A3.11111,3.11111,0,0,0,17,17.88889Z" fill="none" stroke="#323232" stroke-linecap="round" stroke-linejoin="round" stroke-width="1.5"/><line x1="10" y1="16.5" x2="10" y2="15" fill="none" stroke="#323232" stroke-linecap="round" stroke-linejoin="round" stroke-width="1.5"/><line x1="13" y1="16.6" x2="13" y2="13.1" fill="none" stroke="#323232" stroke-linecap="round" stroke-linejoin="round" stroke-width="1.5"/><path d="M7,7V6a3,3,0,0,1,3-3h8a3,3,0,0,1,3,3v8a3,3,0,0,1-3,3H17" fill="none" stroke="#323232" stroke-linecap="round" stroke-linejoin="round" stroke-width="1.5"/></svg>