<svg xmlns="http://www.w3.org/2000/svg" viewBox="0 0 24 24"><g id="Layer_2" data-name="Layer 2"><rect width="24" height="24" fill="none"/><path d="M24,0H0V24H24Z" fill="none"/><path d="M12,11l0-6.99257a1.00661,1.00661,0,0,1,1.12317-.99981,9.06552,9.06552,0,0,1,7.86919,7.86919,1.00661,1.00661,0,0,1-.99981,1.12317l-6.99257,0A1,1,0,0,1,12,11Z" fill="none" stroke="#323232" stroke-linecap="round" stroke-linejoin="round" stroke-width="1.5"/><path d="M9,3.52307A8.95964,8.95964,0,0,0,3.23071,14" fill="none" stroke="#323232" stroke-linecap="round" stroke-linejoin="round" stroke-width="1.5"/><path d="M20.47693,15A8.95964,8.95964,0,0,1,10,20.76929" fill="none" stroke="#323232" stroke-linecap="round" stroke-linejoin="round" stroke-width="1.5"/><path d="M6.49939,17.49939l-2.5,2.5" fill="none" stroke="#323232" stroke-linecap="round" stroke-linejoin="round" stroke-width="1.5"/><path d="M3.99939,17.49939l2.5,2.5" fill="none" stroke="#323232" stroke-linecap="round" stroke-linejoin="round" stroke-width="1.5"/></g></svg>