<svg id="Layer_3" data-name="Layer 3" xmlns="http://www.w3.org/2000/svg" viewBox="0 0 24 24"><path d="M20,8V6a3,3,0,0,0-3-3H5A3,3,0,0,0,2,6v9a3,3,0,0,0,3,3h7" fill="none" stroke="#323232" stroke-linecap="round" stroke-linejoin="round" stroke-width="1.5"/><path d="M6.5,10h2a.5.5,0,0,1,.5.5V14H6V10.5A.5.5,0,0,1,6.5,10Z" fill="none" stroke="#323232" stroke-linecap="round" stroke-linejoin="round" stroke-width="1.5"/><path d="M9.5,6h2a.5.5,0,0,1,.5.5V14H9V6.5A.5.5,0,0,1,9.5,6Z" fill="none" stroke="#323232" stroke-linecap="round" stroke-linejoin="round" stroke-width="1.5"/><path d="M15,10V8.5a.5.5,0,0,0-.5-.5h-2a.5.5,0,0,0-.5.5V14h1" fill="none" stroke="#323232" stroke-linecap="round" stroke-linejoin="round" stroke-width="1.5"/><path d="M22.25,20.498v-.5a2,2,0,0,0-2-2h-3.5a2,2,0,0,0-2,2v.5a.5.5,0,0,0,.5.5h6.5A.5.5,0,0,0,22.25,20.498Z" fill="none" stroke="#323232" stroke-linecap="round" stroke-linejoin="round" stroke-width="1.5"/><circle cx="18.5" cy="13.5" r="2" fill="none" stroke="#323232" stroke-linecap="round" stroke-linejoin="round" stroke-width="1.5"/><rect width="24" height="24" fill="none"/></svg>