<?xml version="1.0" encoding="UTF-8"?><svg version="1.1" viewBox="0 0 24 24" xmlns="http://www.w3.org/2000/svg" xmlns:xlink="http://www.w3.org/1999/xlink"><g stroke-linecap="round" stroke-width="1.5" stroke="#323232" fill="none" stroke-linejoin="round"><path d="M5 21h14l-8.74228e-08-3.55271e-15c1.10457 4.82823e-08 2-.89543 2-2v-14 0c0-1.10457-.895431-2-2-2h-11.172l1.14487e-07-2.44249e-11c-.5299.000113032-1.0381.210513-1.413.585l-2.829 2.829 1.32132e-07-1.32092e-07c-.375344.37523-.586152.884264-.586 1.415v11.171l2.30926e-14 3.01992e-07c1.66785e-07 1.10457.895431 2 2 2 0 0 8.76019e-11 0 8.76019e-11 0Z"></path><path d="M8 3v4 0c0 .552285-.447715 1-1 1h-4"></path><rect width="3" height="3.75" x="7.5" y="12.25"></rect><rect width="3" height="8" x="10.5" y="8"></rect><rect width="3" height="5.75" x="13.5" y="10.25"></rect></g><path fill="none" d="M0 24v-24h24v24Z"></path></svg>