<svg xmlns="http://www.w3.org/2000/svg" viewBox="0 0 24 24"><g id="Layer_2" data-name="Layer 2"><path d="M13.25,10h2.5a.5.5,0,0,1,.5.5v5a.5.5,0,0,1-.5.5h-2.5" fill="none" stroke="#323232" stroke-linecap="round" stroke-linejoin="round" stroke-width="1.5"/><path d="M10.25,16H7.75a.5.5,0,0,1-.5-.5v-3a.5.5,0,0,1,.5-.5h2.5" fill="none" stroke="#323232" stroke-linecap="round" stroke-linejoin="round" stroke-width="1.5"/><path d="M13.25,16h-3V7.5a.5.5,0,0,1,.5-.5h2a.5.5,0,0,1,.5.5Z" fill="none" stroke="#323232" stroke-linecap="round" stroke-linejoin="round" stroke-width="1.5"/><path d="M20.582,9.353A8.84326,8.84326,0,0,1,21,12a9,9,0,1,1-9-9,8.84326,8.84326,0,0,1,2.647.418" fill="none" stroke="#323232" stroke-linecap="round" stroke-linejoin="round" stroke-width="1.5"/><path d="M18,6.0002l2.5-2.5" fill="none" stroke="#323232" stroke-linecap="round" stroke-linejoin="round" stroke-width="1.5"/><path d="M18,3.50121l2.5,2.5" fill="none" stroke="#323232" stroke-linecap="round" stroke-linejoin="round" stroke-width="1.5"/><rect y="-0.00001" width="24" height="24" fill="none"/></g></svg>