<svg id="Layer_3" data-name="Layer 3" xmlns="http://www.w3.org/2000/svg" viewBox="0 0 24 24"><path d="M0,0H24V24H0Z" fill="none"/><line x1="12.75" y1="8.5" x2="11.25" y2="13.5" fill="none" stroke="#323232" stroke-linecap="round" stroke-linejoin="round" stroke-width="1.5"/><line x1="15.50002" y1="9.5" x2="17" y2="10.99999" fill="none" stroke="#323232" stroke-linecap="round" stroke-linejoin="round" stroke-width="1.5"/><line x1="16.99998" y1="11.00001" x2="15.5" y2="12.5" fill="none" stroke="#323232" stroke-linecap="round" stroke-linejoin="round" stroke-width="1.5"/><path d="M9.58582,19l1.70709,1.70709a1,1,0,0,0,1.41418,0L14.41418,19H18a3,3,0,0,0,3-3V6a3,3,0,0,0-3-3H6A3,3,0,0,0,3,6V16a3,3,0,0,0,3,3Z" fill="none" stroke="#323232" stroke-linecap="round" stroke-linejoin="round" stroke-width="1.5"/><polyline points="8.5 9.5 7 11 8.5 12.5" fill="none" stroke="#323232" stroke-linecap="round" stroke-linejoin="round" stroke-width="1.5"/></svg>