<?xml version="1.0" encoding="UTF-8"?><svg version="1.1" viewBox="0 0 24 24" xmlns="http://www.w3.org/2000/svg" xmlns:xlink="http://www.w3.org/1999/xlink"><g fill="none"><path d="M0 0h24v24h-24Z"></path><path stroke="#323232" stroke-linecap="round" stroke-linejoin="round" stroke-width="1.5" d="M13.361 9.149l-1.7 1.7 -1.022-1.019"></path><path stroke="#323232" stroke-linecap="round" stroke-linejoin="round" stroke-width="1.5" d="M20.993 6.162v7.647l-3.18241e-08-9.64106e-05c.000605618 1.75406-1.42085 3.17649-3.1749 3.1771 -1.04331e-07 3.6021e-11-2.10531e-07 7.26814e-11-3.14861e-07 1.08695e-10h-4.8241l-5 4v-4h-1.825l-1.38827e-07-3.55271e-15c-1.75406-7.66722e-08-3.176-1.42194-3.176-3.176v0 -7.648l3.55271e-14-4.79563e-07c2.64855e-07-1.75406 1.42194-3.176 3.176-3.176h11.648l-1.38827e-07 3.10862e-15c1.75406-7.66722e-08 3.176 1.42194 3.176 3.176Z"></path><circle cx="12" cy="10" r="4" stroke="#323232" stroke-linecap="round" stroke-linejoin="round" stroke-width="1.5"></circle></g></svg>