<svg id="Layer_3" data-name="Layer 3" xmlns="http://www.w3.org/2000/svg" viewBox="0 0 24 24"><path d="M0,0H24V24H0Z" fill="none"/><path d="M9.58582,19l1.70709,1.70709a1,1,0,0,0,1.41418,0L14.41418,19H18a3,3,0,0,0,3-3V6a3,3,0,0,0-3-3H6A3,3,0,0,0,3,6V16a3,3,0,0,0,3,3Z" fill="none" stroke="#323232" stroke-linecap="round" stroke-linejoin="round" stroke-width="1.5"/><path d="M16,11.8a.8.8,0,0,1-.8.8H13.6v1.6a.8.8,0,0,1-.8.8H11.2a.8.8,0,0,1-.8-.8V12.6H8.8a.8.8,0,0,1-.8-.8V10.2a.8.8,0,0,1,.8-.8h1.6V7.8a.8.8,0,0,1,.8-.8h1.6a.8.8,0,0,1,.8.8V9.4h1.6a.8.8,0,0,1,.8.8Z" fill="none" stroke="#323232" stroke-linecap="round" stroke-linejoin="round" stroke-width="1.5"/></svg>