<?xml version="1.0" encoding="UTF-8"?><svg version="1.1" viewBox="0 0 24 24" xmlns="http://www.w3.org/2000/svg" xmlns:xlink="http://www.w3.org/1999/xlink"><!--Generated by IJSVG (https://github.com/iconjar/IJSVG)--><g fill="none"><path d="M0,0h24v24h-24Z"></path><path stroke="#323232" stroke-linecap="round" stroke-linejoin="round" stroke-width="1.5" d="M7.083,21.813c-0.738,0 -1.437,-0.163 -2.065,-0.454l-3.018,0.641l0.631,-3.024c-0.293,-0.63 -0.457,-1.332 -0.457,-2.072c-4.44089e-16,-2.708 2.195,-4.904 4.904,-4.904c2.709,0 4.904,2.196 4.904,4.904c0,2.708 -2.196,4.904 -4.904,4.904"></path><path stroke="#323232" stroke-linecap="round" stroke-linejoin="round" stroke-width="1.5" d="M6.612,12.019c-0.393,-0.855 -0.612,-1.792 -0.612,-2.779c0,-4.017 3.598,-7.24 8,-7.24c4.402,0 8,3.223 8,7.24c0,2.374 -1.262,4.464 -3.199,5.782c0.001,0.756 -0.001,1.775 -0.001,2.845l-3.139,-1.546c-0.537,0.103 -1.092,0.159 -1.661,0.159c-0.711,0 -1.398,-0.092 -2.056,-0.25"></path><path stroke="#323232" stroke-linecap="round" stroke-linejoin="round" stroke-width="1.5" d="M4.79536,16.9646c0.0195262,0.0195262 0.0195262,0.0511845 0,0.0707107c-0.0195262,0.0195262 -0.0511845,0.0195262 -0.0707107,0c-0.0195262,-0.0195262 -0.0195262,-0.0511845 0,-0.0707107c0.0195262,-0.0195262 0.0511845,-0.0195262 0.0707107,0"></path><path stroke="#323232" stroke-linecap="round" stroke-linejoin="round" stroke-width="1.5" d="M7.04536,16.9646c0.0195262,0.0195262 0.0195262,0.0511845 0,0.0707107c-0.0195262,0.0195262 -0.0511845,0.0195262 -0.0707107,0c-0.0195262,-0.0195262 -0.0195262,-0.0511845 0,-0.0707107c0.0195262,-0.0195262 0.0511845,-0.0195262 0.0707107,0"></path><path stroke="#323232" stroke-linecap="round" stroke-linejoin="round" stroke-width="1.5" d="M9.29536,16.9646c0.0195262,0.0195262 0.0195262,0.0511845 0,0.0707107c-0.0195262,0.0195262 -0.0511845,0.0195262 -0.0707107,0c-0.0195262,-0.0195262 -0.0195262,-0.0511845 0,-0.0707107c0.0195262,-0.0195262 0.0511845,-0.0195262 0.0707107,0"></path><path stroke="#323232" stroke-linecap="round" stroke-linejoin="round" stroke-width="1.5" d="M14,10.044c0,-0.657 0.406,-1.013 0.813,-1.287c0.398,-0.268 0.796,-0.617 0.796,-1.26c0,-0.889 -0.72,-1.609 -1.609,-1.609c-0.889,0 -1.609,0.72 -1.609,1.609"></path><path stroke="#323232" stroke-linecap="round" stroke-linejoin="round" stroke-width="1.5" d="M14,12.458c-0.055,0 -0.1,0.045 -0.1,0.1c0,0.055 0.045,0.1 0.1,0.1c0.055,0 0.1,-0.045 0.1,-0.1c0,-0.055 -0.045,-0.1 -0.1,-0.1"></path></g></svg>