<svg id="Layer_3" data-name="Layer 3" xmlns="http://www.w3.org/2000/svg" viewBox="0 0 24 24"><path d="M12,9.80617a7.04515,7.04515,0,0,0-3.24342-.93292A.70938.70938,0,0,0,8,9.58564V14.472a.71815.71815,0,0,0,.682.70785A6.569,6.569,0,0,1,12,16.128a6.569,6.569,0,0,1,3.318-.94823A.71815.71815,0,0,0,16,14.472V9.58564a.70938.70938,0,0,0-.75658-.71239A7.04515,7.04515,0,0,0,12,9.80617Z" fill="none" stroke="#323232" stroke-linecap="round" stroke-linejoin="round" stroke-width="1.5"/><path d="M12,9.80573V16.128" fill="none" stroke="#323232" stroke-linecap="round" stroke-linejoin="round" stroke-width="1.5"/><path d="M4.62892,17.16368a8.99979,8.99979,0,1,1,2.20679,2.2067l-2.83727.63045Z" fill="none" stroke="#323232" stroke-linecap="round" stroke-linejoin="round" stroke-width="1.5"/><rect width="24" height="24" fill="none"/></svg>