<?xml version="1.0" encoding="UTF-8"?><svg version="1.1" viewBox="0 0 24 24" xmlns="http://www.w3.org/2000/svg" xmlns:xlink="http://www.w3.org/1999/xlink"><g fill="none"><path d="M0 0h24v24h-24Z"></path><path stroke="#323232" stroke-linecap="round" stroke-linejoin="round" stroke-width="1.5" d="M17 2l-2.18557e-07 5.32907e-15c2.76142-1.20706e-07 5 2.23858 5 5 1.20706e-07 2.76142-2.23858 5-5 5 -2.76142 1.20706e-07-5-2.23858-5-5l5.86198e-14 7.54979e-07c-4.16963e-07-2.76142 2.23858-5 5-5"></path><path stroke="#323232" stroke-linecap="round" stroke-linejoin="round" stroke-width="1.5" d="M20 14v.375 -1.77636e-15c0 1.56462-1.26838 2.833-2.833 2.833h-4.722l-4.722 3.778v-3.778h-1.89l-1.23834e-07-3.55271e-15c-1.56462-6.83918e-08-2.833-1.26838-2.833-2.833v-7.556l3.24185e-14 4.27771e-07c-2.36251e-07-1.56462 1.26838-2.833 2.833-2.833h4.167"></path><path stroke="#323232" stroke-linecap="round" stroke-linejoin="round" stroke-width="1.5" d="M18.358 6.944l-5.99936e-10-4.50422e-11c-.0297397-.00223282-.0556585.0200659-.0578913.0498056 -.00015474.00206103-.000191024.00412924-.000108674.00619443l-7.11893e-10-8.92081e-06c4.66999e-09.0309279.0250721.056.056.056 .0309279-4.66999e-09.056-.0250721.056-.056 -4.66999e-09-.0309279-.0250721-.056-.056-.056 -.000330377 4.98854e-11-.000660747 2.92372e-06-.000991071 8.77068e-06"></path><path stroke="#323232" stroke-linecap="round" stroke-linejoin="round" stroke-width="1.5" d="M15.642 6.944l1.40071e-09-5.00577e-11c-.0309082.00110458-.0550688.0270561-.0539643.0579643 .00110458.0309082.0270561.0550688.0579643.0539643 .0301165-.00107628.0539808-.0257928.054-.0559285l7.11891e-10-8.92927e-06c0-.0305416-.0244721-.0554507-.0550089-.0559912"></path></g></svg>