<?xml version="1.0" encoding="UTF-8"?><svg version="1.1" viewBox="0 0 24 24" xmlns="http://www.w3.org/2000/svg" xmlns:xlink="http://www.w3.org/1999/xlink"><g stroke-linecap="round" stroke-width="1.5" stroke="#323232" fill="none" stroke-linejoin="round"><path d="M13 17h5l-1.34795e-08-8.56204e-13c1.65675.000104945 2.9999-1.34287 3-2.99962 8.02381e-09-.000126671 8.02438e-09-.000253341 1.7053e-12-.000380012v-8l6.01743e-09-.000190006c0-1.65675-1.34306-2.99981-2.99981-2.99981 -.000126671 0-.000253341 8.02324e-09-.000380012 2.40697e-08h-11.9998l1.08834e-07 6.89582e-12c-1.65675-.000104998-2.9999 1.34287-3 2.99962 -8.02745e-09.000126665-8.03243e-09.000253329-1.49294e-11.000379994v8l-6.0174e-09.000189553c-2.50162e-07 1.65675 1.34306 2.99981 2.99981 2.99981 .000126671 1.91278e-11.000253341-7.98498e-09.000380012-2.40123e-08h1.99981v4l5-4"></path><path d="M11.3862 13.5h-2.38616v-2.38616l-2.20653e-08-2.56643e-05c-.000207018-.244753.0970906-.479507.270378-.652352l3.69088-3.69089 9.12179e-09-9.13931e-09c.359601-.360291.943189-.360851 1.30348-.00124994 .000417052.000416253.000833706.000832906.00124996.00124996l1.46342 1.46343 4.95816e-08 4.94842e-08c.360288.35958.360863.943149.00128232 1.30344 -.000427052.000427893-.000854524.000855365-.00128242.00128242l-3.69089 3.69089 1.38641e-08-1.38519e-08c-.173086.172934-.407687.270171-.65236.27039Z"></path></g><path fill="none" d="M0 0h24v24h-24Z"></path></svg>