<svg id="Layer_3" data-name="Layer 3" xmlns="http://www.w3.org/2000/svg" viewBox="0 0 24 24"><path d="M0,0H24V24H0Z" fill="none"/><line x1="5.95471" y1="13.5" x2="5.95471" y2="13.5" fill="none" stroke="#323232" stroke-linecap="round" stroke-linejoin="round" stroke-width="1.5"/><path d="M14.62042,13.20709l3.11464-3.11481a.75.75,0,0,0,0-1.06058l-1.312-1.312a.75.75,0,0,0-1.06067,0L12.24762,10.8343a1,1,0,0,0-.2929.70712V13.5h1.95857A1,1,0,0,0,14.62042,13.20709Z" fill="none" stroke="#323232" stroke-linecap="round" stroke-linejoin="round" stroke-width="1.5"/><line x1="8.95471" y1="13.5" x2="8.95471" y2="13.5" fill="none" stroke="#323232" stroke-linecap="round" stroke-linejoin="round" stroke-width="1.5"/><path d="M12.507,18H18a3,3,0,0,0,3-3V6a3,3,0,0,0-3-3H6A3,3,0,0,0,3,6v9a3,3,0,0,0,3,3H8.007v2.4429a.5561.5561,0,0,0,.90349.43425Z" fill="none" stroke="#323232" stroke-linecap="round" stroke-linejoin="round" stroke-width="1.5"/></svg>