<?xml version="1.0" encoding="UTF-8"?><svg version="1.1" viewBox="0 0 24 24" xmlns="http://www.w3.org/2000/svg" xmlns:xlink="http://www.w3.org/1999/xlink"><g stroke-linecap="round" stroke-width="1.5" stroke="#323232" fill="none" stroke-linejoin="round"><path d="M20.383 3.631c.823.823.823 2.156 0 2.979 -.823.823-2.156.823-2.979 0 -.823-.823-.823-2.156 0-2.979 .823-.823 2.157-.823 2.979 4.44089e-16"></path><path d="M20 11.588v2.815c0 1.565-1.268 2.833-2.833 2.833h-4.722l-4.722 3.778v-3.778h-1.89c-1.565 3.55271e-15-2.833-1.268-2.833-2.833v-7.556c0-1.565 1.268-2.833 2.833-2.833h6.727"></path></g><path fill="none" d="M0 .028h24v24h-24Z"></path></svg>