<?xml version="1.0" encoding="UTF-8"?><svg version="1.1" viewBox="0 0 24 24" xmlns="http://www.w3.org/2000/svg" xmlns:xlink="http://www.w3.org/1999/xlink"><!--Generated by IJSVG (https://github.com/iconjar/IJSVG)--><g stroke-linecap="round" stroke-width="1.5" stroke="#323232" fill="none" stroke-linejoin="round"><path d="M18.364,5.63604c3.51472,3.51472 3.51472,9.2132 0,12.7279c-3.51472,3.51472 -9.2132,3.51472 -12.7279,0c-3.51472,-3.51472 -3.51472,-9.2132 -1.77636e-15,-12.7279c3.51472,-3.51472 9.2132,-3.51472 12.7279,-1.77636e-15"></path><path d="M10.122,16.082c1.336,0.614 2.897,0.547 4.177,-0.215c2.137,-1.27 2.837,-4.031 1.567,-6.167c-1.27,-2.136 -4.032,-2.837 -6.167,-1.566c-1.987,1.182 -2.71,3.649 -1.78,5.708l-0.419,2.653l2.624,-0.413"></path></g><path fill="none" d="M0,0h24v24h-24Z"></path></svg>