<?xml version="1.0" encoding="UTF-8"?><svg version="1.1" viewBox="0 0 24 24" xmlns="http://www.w3.org/2000/svg" xmlns:xlink="http://www.w3.org/1999/xlink"><g fill="none"><path d="M0 0h24v24h-24v-24Z"></path><path stroke="#323232" stroke-linecap="round" stroke-linejoin="round" stroke-width="1.3929" d="M5 21h14"></path><path stroke="#323232" stroke-linecap="round" stroke-linejoin="round" stroke-width="1.3929" d="M8.455 14.973c-3.31-.299-5.845-3.281-5.405-6.755 .383-3.031 3.121-5.218 6.177-5.218h5.773c3.375 0 6.099 2.787 5.997 6.185 -.098 3.284-2.964 5.815-6.249 5.815h-2.56c-.786.785-1.909 1.909-2.881 2.881 -.315.315-.852.091-.852-.355l5.32907e-15-2.553Z"></path><path stroke="#323232" stroke-linecap="round" stroke-linejoin="round" stroke-width="1.5" d="M12.177 9.073c.098.098.098.256 0 .354 -.098.098-.256.098-.354 0 -.098-.098-.098-.256 0-.354 .098-.098.256-.097.354 0"></path><path stroke="#323232" stroke-linecap="round" stroke-linejoin="round" stroke-width="1.5" d="M16.177 9.073c.098.098.098.256 0 .354 -.098.098-.256.098-.354 0 -.098-.098-.098-.256 0-.354 .098-.098.256-.097.354 0"></path><path stroke="#323232" stroke-linecap="round" stroke-linejoin="round" stroke-width="1.5" d="M8.177 9.073c.098.098.098.256 0 .354 -.098.098-.256.098-.354 0 -.098-.098-.098-.256 0-.354 .098-.098.256-.097.354 0"></path></g></svg>