<svg id="Layer_3" data-name="Layer 3" xmlns="http://www.w3.org/2000/svg" viewBox="0 0 24 24"><path d="M0,0H24V24H0Z" fill="none"/><path d="M14.04528,14H12V11.95472a.78884.78884,0,0,1,.23174-.55917l3.16361-3.16362a.79.79,0,0,1,1.11723-.00111l.00111.00111,1.25438,1.25438a.79.79,0,0,1,.00111,1.11723l-.00111.00111-3.16362,3.16361A.79214.79214,0,0,1,14.04528,14Z" fill="none" stroke="#323232" stroke-linecap="round" stroke-linejoin="round" stroke-width="1.5"/><path d="M14.41418,19H18a3,3,0,0,0,3-3V6a3,3,0,0,0-3-3H6A3,3,0,0,0,3,6V16a3,3,0,0,0,3,3H9.58582" fill="none" stroke="#323232" stroke-linecap="round" stroke-linejoin="round" stroke-width="1.5"/><path d="M14.41418,19l-1.70709,1.70709a1,1,0,0,1-1.41418,0L9.58582,19" fill="none" stroke="#323232" stroke-linecap="round" stroke-linejoin="round" stroke-width="1.5"/><path d="M6.05,14.00006A.05.05,0,1,1,5.99994,13.95a.05.05,0,0,1,.05006.05006" fill="none" stroke="#323232" stroke-linecap="round" stroke-linejoin="round" stroke-width="1.5"/><path d="M9.05,14.00006A.05.05,0,1,1,8.99994,13.95a.05.05,0,0,1,.05006.05006" fill="none" stroke="#323232" stroke-linecap="round" stroke-linejoin="round" stroke-width="1.5"/></svg>