<?xml version="1.0" encoding="UTF-8"?><svg version="1.1" viewBox="0 0 24 24" xmlns="http://www.w3.org/2000/svg" xmlns:xlink="http://www.w3.org/1999/xlink"><!--Generated by IJSVG (https://github.com/iconjar/IJSVG)--><g fill="none"><path d="M0,0h24v24h-24v-24Z"></path><path stroke="#323232" stroke-linecap="round" stroke-linejoin="round" stroke-width="1.5" d="M11.467,12.504v-0.207c0,-0.678 0.419,-1.045 0.839,-1.327c0.41,-0.276 0.821,-0.636 0.821,-1.3c0,-0.917 -0.743,-1.659 -1.659,-1.659c-0.916,0 -1.66,0.741 -1.66,1.658"></path><path stroke="#323232" stroke-linecap="round" stroke-linejoin="round" stroke-width="1.5" d="M11.466,14.843c-0.083,0 -0.15,0.067 -0.149,0.15c0,0.083 0.067,0.15 0.15,0.15c0.083,0 0.15,-0.067 0.15,-0.15c0,-0.083 -0.067,-0.15 -0.151,-0.15"></path><path stroke="#323232" stroke-linecap="round" stroke-linejoin="round" stroke-width="1.5882" d="M15.863,19.316c-1.301,0.73 -2.799,1.151 -4.396,1.151c-4.971,0 -9,-4.029 -9,-9c0,-4.971 4.029,-9 9,-9c4.971,0 9,4.029 9,9c0,1.598 -0.421,3.096 -1.151,4.396l1.151,4.604l-4.604,-1.151Z"></path></g></svg>