<?xml version="1.0" encoding="UTF-8"?><svg version="1.1" viewBox="0 0 24 24" xmlns="http://www.w3.org/2000/svg" xmlns:xlink="http://www.w3.org/1999/xlink"><g stroke-linecap="round" stroke-width="1.5" stroke="#323232" fill="none" stroke-linejoin="round"><path d="M7 10l2.30926e-14 3.01992e-07c-1.66785e-07-1.10457.89543-2 2-2h6l-8.74228e-08 1.77636e-15c1.10457-4.82823e-08 2 .89543 2 2v3.5 0c0 1.10457-.895431 2-2 2h-1.171l-1.829 1.5 -1.833-1.5h-1.167l-8.74228e-08-1.77636e-15c-1.10457-4.82823e-08-2-.895431-2-2 0 0 0 0 0 0Z"></path><circle cx="12" cy="12" r="9"></circle></g><rect width="24" height="24" fill="none"></rect></svg>