<svg id="Layer_3" data-name="Layer 3" xmlns="http://www.w3.org/2000/svg" viewBox="0 0 24 24"><path d="M0,0H24V24H0Z" fill="none"/><path d="M17.00358,8.08034h0a1.66315,1.66315,0,0,1,0,2.35205L15.40994,12.026a1.3,1.3,0,0,1-1.83848,0l-1.59363-1.59364a1.66315,1.66315,0,0,1,0-2.35205h0a1.66315,1.66315,0,0,1,2.352,0l.16082.16083.16083-.16083A1.66315,1.66315,0,0,1,17.00358,8.08034Z" fill="none" stroke="#323232" stroke-linecap="round" stroke-linejoin="round" stroke-width="1.5"/><line x1="10" y1="13.5" x2="10" y2="13.5" fill="none" stroke="#323232" stroke-linecap="round" stroke-linejoin="round" stroke-width="1.5"/><line x1="7" y1="13.5" x2="7" y2="13.5" fill="none" stroke="#323232" stroke-linecap="round" stroke-linejoin="round" stroke-width="1.5"/><path d="M12.507,18H18a3,3,0,0,0,3-3V6a3,3,0,0,0-3-3H6A3,3,0,0,0,3,6v9a3,3,0,0,0,3,3H8.007v2.4429a.5561.5561,0,0,0,.90349.43425Z" fill="none" stroke="#323232" stroke-linecap="round" stroke-linejoin="round" stroke-width="1.5"/></svg>