<svg width="29" height="28" viewBox="0 0 29 28" fill="none" xmlns="http://www.w3.org/2000/svg">
<path fill-rule="evenodd" clip-rule="evenodd" d="M4.64896 8.3125C6.68091 4.79306 10.4361 2.625 14.5 2.625C18.5639 2.625 22.3191 4.79306 24.351 8.3125C26.383 11.8319 26.383 16.1681 24.351 19.6875C22.3191 23.2069 18.5639 25.375 14.5 25.375C10.4361 25.375 6.68091 23.2069 4.64896 19.6875C2.61701 16.1681 2.61701 11.8319 4.64896 8.3125ZM22.8355 9.1875C21.1162 6.20951 17.9387 4.375 14.5 4.375C11.0613 4.375 7.88385 6.20951 6.16451 9.1875C4.44516 12.1655 4.44516 15.8345 6.16451 18.8125C7.88385 21.7905 11.0613 23.625 14.5 23.625C17.9387 23.625 21.1162 21.7905 22.8355 18.8125C24.5548 15.8345 24.5548 12.1655 22.8355 9.1875Z" fill="#22C581"/>
<path d="M17.9255 10.5772C18.2669 10.2352 18.8209 10.2346 19.1629 10.576C19.4739 10.8863 19.5026 11.3724 19.2488 11.7152L19.1642 11.8134L13.646 17.3401L13.6336 17.3655C13.3809 17.7752 12.8121 17.9987 12.3428 17.6204L12.2308 17.5175L9.72796 15.0142C9.41732 14.7036 9.38908 14.2174 9.64324 13.8749L9.72796 13.7768C10.0386 13.4661 10.5247 13.4379 10.8673 13.692L10.9654 13.7768L12.8503 15.6613L17.9255 10.5772Z" fill="#22C581"/>
</svg>
