<svg viewBox="0 0 24 24" xmlns="http://www.w3.org/2000/svg" xmlns:xlink="http://www.w3.org/1999/xlink"><defs><path d="M0 0h24v24H0Z" id="a"/></defs><g stroke-linecap="round" stroke-width="1.5" stroke="#323232" fill="none" stroke-linejoin="round"><path d="M19.03 17.8l-1.89 0"/><path d="M17.44 13a4.5 4.5 0 1 0 0 9 4.5 4.5 0 1 0 0-9Z"/><path d="M13 10h4"/><path d="M10 21H8l-.01-.001c-2.77-.01-5-2.24-5-5.01 0 0 0-.001 0-.001v-8l0 0c-.01-2.77 2.23-5.01 4.99-5.01h8l-.01 0c2.76-.01 5 2.23 5 4.99v3"/><path d="M7 9.72l.91.82 1.85-1.67"/><path d="M7 14.72l.91.82 1.85-1.67"/><path d="M17.14 17.8l0-2.28"/></g><g fill="none"><use xlink:href="#a"/><use xlink:href="#a"/></g></svg>