<svg id="Layer_3" data-name="Layer 3" xmlns="http://www.w3.org/2000/svg" viewBox="0 0 24 24"><rect width="24" height="24" fill="none"/><path d="M13,10h4" fill="none" stroke="#323232" stroke-linecap="round" stroke-linejoin="round" stroke-width="1.5"/><path d="M7,9.726l.919.828,1.85-1.666" fill="none" stroke="#323232" stroke-linecap="round" stroke-linejoin="round" stroke-width="1.5"/><path d="M11,21H8a5,5,0,0,1-5-5V8A5,5,0,0,1,8,3h8a5,5,0,0,1,5,5v3" fill="none" stroke="#323232" stroke-linecap="round" stroke-linejoin="round" stroke-width="1.5"/><path d="M7,14.726l.919.828,1.85-1.666" fill="none" stroke="#323232" stroke-linecap="round" stroke-linejoin="round" stroke-width="1.5"/><path d="M15.02425,17.92v2.32723a1.349,1.349,0,0,0,.746,1.207l.522.261a2.7,2.7,0,0,0,2.414,0l.522-.261a1.349,1.349,0,0,0,.746-1.207V17.92" fill="none" stroke="#323232" stroke-linecap="round" stroke-linejoin="round" stroke-width="1.5"/><path d="M13.415,17.11386l3.08489,1.541a2.24551,2.24551,0,0,0,2.00464,0l3.08189-1.541a.74649.74649,0,0,0,0-1.33609l-3.08789-1.541a2.2395,2.2395,0,0,0-2.00463,0l-3.0819,1.541a.7465.7465,0,0,0,.003,1.33609Z" fill="none" stroke="#323232" stroke-linecap="round" stroke-linejoin="round" stroke-width="1.5"/><path d="M22,16.447v1.8" fill="none" stroke="#323232" stroke-linecap="round" stroke-linejoin="round" stroke-width="1.5"/></svg>