<svg viewBox="0 0 24 24" xmlns="http://www.w3.org/2000/svg"><g stroke-linecap="round" stroke-width="1.5" stroke="#323232" fill="none" stroke-linejoin="round"><path d="M8 5H6l-.01 0c-1.11 0-2 .89-2 2 0 0 0 0 0 0v12l0 0c0 1.1.89 1.99 2 1.99h5"/><rect width="8" height="4" x="8" y="3" rx="1"/><path d="M16 5h2l-.01 0c1.1-.01 2 .89 2 1.99v3"/><path d="M17.5 13l-.01 0c2.48-.01 4.5 2.01 4.5 4.49 0 2.48-2.02 4.5-4.5 4.5 -2.49 0-4.5-2.02-4.51-4.5l0 0c-.01-2.49 2.01-4.51 4.49-4.51 0-.001 0-.001 0-.001"/><path d="M19.03 16.71l-1.92 1.91 -1.15-1.15"/></g><path fill="none" d="M0 0h24v24H0Z"/></svg>