<svg viewBox="0 0 24 24" xmlns="http://www.w3.org/2000/svg"><g stroke-linecap="round" stroke-width="1.5" stroke="#323232" fill="none" stroke-linejoin="round"><path d="M8 5H6l-.01 0c-1.11 0-2 .89-2 2 0 0 0 0 0 0v12l0 0c0 1.1.89 1.99 2 1.99h2.99"/><rect width="8" height="4" x="8" y="3" rx="1"/><path d="M16 5h2l-.01 0c1.1-.01 2 .89 2 1.99v5"/><path d="M15 21l-.01-.001c-1.66-.01-3-1.35-3-3v0l-.01 0c0-1.66 1.34-3 2.99-3.01"/><path d="M18 15l0 0c1.65 0 2.99 1.34 2.99 3v0l0-.01c-.01 1.65-1.35 2.99-3 3"/><path d="M15 18l3 0"/></g><path fill="none" d="M0 0h24v24H0Z"/></svg>