<svg id="Layer_3" data-name="Layer 3" xmlns="http://www.w3.org/2000/svg" viewBox="0 0 24 24"><path d="M13,9h4" fill="none" stroke="#323232" stroke-linecap="round" stroke-linejoin="round" stroke-width="1.5"/><path d="M12,21H8a5,5,0,0,1-5-5V8A5,5,0,0,1,8,3h8a5,5,0,0,1,5,5v3" fill="none" stroke="#323232" stroke-linecap="round" stroke-linejoin="round" stroke-width="1.5"/><path d="M7,8.726l.919.828,1.85-1.666" fill="none" stroke="#323232" stroke-linecap="round" stroke-linejoin="round" stroke-width="1.5"/><path d="M7,13.726l.919.828,1.85-1.666" fill="none" stroke="#323232" stroke-linecap="round" stroke-linejoin="round" stroke-width="1.5"/><path d="M14,15.69533v.99a4.375,4.375,0,0,0,2.83883,4.09643l.50756.19033a.43737.43737,0,0,0,.30722,0l.50756-.19033A4.375,4.375,0,0,0,21,16.68538v-.99a.875.875,0,0,0-.614-.83519l-2.625-.82031a.87494.87494,0,0,0-.522,0l-2.625.82031A.875.875,0,0,0,14,15.69533Z" fill="none" stroke="#323232" stroke-linecap="round" stroke-linejoin="round" stroke-width="1.5"/><rect width="24" height="24" fill="none"/><rect width="24" height="24" fill="none"/></svg>