<?xml version="1.0" encoding="UTF-8"?><svg version="1.1" viewBox="0 0 24 24" xmlns="http://www.w3.org/2000/svg" xmlns:xlink="http://www.w3.org/1999/xlink"><defs><path d="M6.41421 10.5858c.781049.781049.781049 2.04738 0 2.82843 -.781049.781049-2.04738.781049-2.82843 0 -.781049-.781049-.781049-2.04738-4.44089e-16-2.82843 .781049-.781049 2.04738-.781049 2.82843 0" id="a"></path></defs><g fill="none"><path d="M0 0h24v24h-24Z"></path><use stroke="#323232" stroke-linecap="round" stroke-linejoin="round" stroke-width="1.5" xlink:href="#a"></use><path stroke="#323232" stroke-linecap="round" stroke-linejoin="round" stroke-width="1.5" d="M11 5h10"></path><path stroke="#323232" stroke-linecap="round" stroke-linejoin="round" stroke-width="1.5" d="M11 12h10"></path><path stroke="#323232" stroke-linecap="round" stroke-linejoin="round" stroke-width="1.5" d="M11 19h10"></path><path stroke="#323232" stroke-linecap="round" stroke-linejoin="round" stroke-width="1.5" d="M6.41421 3.58579c.781049.781049.781049 2.04738 0 2.82843 -.781049.781049-2.04738.781049-2.82843 0 -.781049-.781049-.781049-2.04738-4.44089e-16-2.82843 .781049-.781049 2.04738-.781049 2.82843-4.44089e-16"></path><use stroke="#323232" stroke-linecap="round" stroke-linejoin="round" stroke-width="1.5" xlink:href="#a"></use><path stroke="#323232" stroke-linecap="round" stroke-linejoin="round" stroke-width="1.5" d="M6.41421 17.5858c.781049.781049.781049 2.04738 0 2.82843 -.781049.781049-2.04738.781049-2.82843 0 -.781049-.781049-.781049-2.04738-4.44089e-16-2.82843 .781049-.781049 2.04738-.781049 2.82843 0"></path></g></svg>