<svg width="20" height="20" viewBox="0 0 20 20" fill="none" xmlns="http://www.w3.org/2000/svg">
<path fill-rule="evenodd" clip-rule="evenodd" d="M2.96354 5.9375C4.41494 3.42362 7.09722 1.875 10 1.875C12.9028 1.875 15.5851 3.42362 17.0365 5.9375C18.4878 8.45138 18.4878 11.5486 17.0365 14.0625C15.5851 16.5764 12.9028 18.125 10 18.125C7.09722 18.125 4.41494 16.5764 2.96354 14.0625C1.51215 11.5486 1.51215 8.45138 2.96354 5.9375ZM15.9539 6.5625C14.7258 4.43537 12.4562 3.125 10 3.125C7.5438 3.125 5.27418 4.43537 4.04608 6.5625C2.81797 8.68963 2.81797 11.3104 4.04608 13.4375C5.27418 15.5646 7.5438 16.875 10 16.875C12.4562 16.875 14.7258 15.5646 15.9539 13.4375C17.182 11.3104 17.182 8.68963 15.9539 6.5625Z" fill="#22C581"/>
<path d="M12.4466 7.55509C12.6905 7.31077 13.0862 7.31036 13.3305 7.55419C13.5526 7.77585 13.5732 8.12305 13.3919 8.36791L13.3314 8.43807L9.38987 12.3857L9.381 12.4039C9.20047 12.6965 8.79419 12.8562 8.45903 12.586L8.37904 12.5124L6.59126 10.7244C6.36937 10.5025 6.3492 10.1552 6.53075 9.91057L6.59126 9.84047C6.81315 9.61858 7.16037 9.59841 7.40505 9.77996L7.47514 9.84047L8.82154 11.1866L12.4466 7.55509Z" fill="#22C581"/>
</svg>
