<?xml version="1.0" encoding="UTF-8"?><svg version="1.1" viewBox="0 0 24 24" xmlns="http://www.w3.org/2000/svg" xmlns:xlink="http://www.w3.org/1999/xlink"><g stroke-linecap="round" stroke-width="1.5" stroke="#323232" fill="none" stroke-linejoin="round"><rect width="18" height="18" x="3" y="3" rx="2.7614" ry="0"></rect><path d="M12.035 13l-1.5-1.5"></path><path d="M16.34 12.7l1.27862e-07-7.97712e-07c-.338748 2.11341-2.15962 3.66962-4.3 3.675"></path><path d="M7.66 12l5.06262e-14 6.60607e-07c3.64843e-07 2.41625 1.95875 4.375 4.375 4.375 0 0 1.77636e-15 0 1.77636e-15 0"></path><path d="M12.035 7.625l-1.91237e-07 5.32907e-15c-2.41625 1.05617e-07-4.375 1.95875-4.375 4.375 0 0 0 1.77636e-15 0 1.77636e-15"></path><line x1="12.03" x2="15.59" y1="13" y2="9.46"></line><path d="M15.587 9.462l2.1521e-07 3.03311e-07c-.816826-1.15121-2.14044-1.83575-3.552-1.837"></path></g><path fill="none" d="M0 0h24v24h-24Z"></path></svg>