<?xml version="1.0" encoding="UTF-8"?><svg version="1.1" viewBox="0 0 24 24" xmlns="http://www.w3.org/2000/svg" xmlns:xlink="http://www.w3.org/1999/xlink"><g fill="none"><path d="M24 24h-24v-24h24Z"></path><path stroke="#323232" stroke-linecap="round" stroke-linejoin="round" stroke-width="1.5" d="M13.7943 7.00629l1.52894e-07 5.41264e-07c-.825729-2.92318-3.86482-4.6235-6.788-3.79777 -2.92318.825729-4.6235 3.86482-3.79777 6.788 .519752 1.83999 1.95778 3.27802 3.79777 3.79777"></path><circle cx="15.5" cy="15.5" r="5.5" stroke="#323232" stroke-linecap="round" stroke-linejoin="round" stroke-width="1.5"></circle><line x1="15.5" x2="15.5" y1="13.25" y2="14.54" stroke="#323232" stroke-linecap="round" stroke-linejoin="round" stroke-width="1.5"></line><path stroke="#323232" stroke-linecap="round" stroke-linejoin="round" stroke-width="1.5" d="M16.9916 17.2875l3.76642e-07 2.45581e-07c-.92955-.606094-1.49051-1.64031-1.4916-2.75"></path><path stroke="#323232" stroke-linecap="round" stroke-linejoin="round" stroke-width="1.5" d="M15.5 14.5375l2.19103e-08-2.23583e-05c-.00108368 1.10969-.562036 2.14391-1.49158 2.75001"></path><line x1="13.85" x2="17.15" y1="14.54" y2="14.54" stroke="#323232" stroke-linecap="round" stroke-linejoin="round" stroke-width="1.5"></line><path stroke="#323232" stroke-linecap="round" stroke-linejoin="round" stroke-width="1.5" d="M6.979 8.477h-8.88178e-16c0 .0276142-.0223858.05-.05.05 -.0276142 0-.05-.0223858-.05-.05 0-.0276142.0223858-.05.05-.05"></path><path stroke="#323232" stroke-linecap="round" stroke-linejoin="round" stroke-width="1.5" d="M6.929 8.427h-2.18557e-09c.0276142-1.20706e-09.05.0223858.05.05 0 0 0 0 0 0"></path><path stroke="#323232" stroke-linecap="round" stroke-linejoin="round" stroke-width="1.5" d="M10.121 8.477v0c0 .0276142-.0223858.05-.05.05 -.0276142 0-.05-.0223858-.05-.05 0-.0276142.0223858-.05.05-.05"></path><path stroke="#323232" stroke-linecap="round" stroke-linejoin="round" stroke-width="1.5" d="M10.071 8.427h-2.18557e-09c.0276142-1.20706e-09.05.0223858.05.05 0 0 0 1.77636e-15 0 1.77636e-15"></path></g></svg>