<svg id="Layer_3" data-name="Layer 3" xmlns="http://www.w3.org/2000/svg" viewBox="0 0 24 24"><circle cx="12" cy="12" r="9" fill="none" stroke="#323232" stroke-linecap="round" stroke-linejoin="round" stroke-width="1.5"/><path d="M8.66425,12.93444A2.00686,2.00686,0,0,1,7.36389,9.8016a2.08281,2.08281,0,0,1,2.60967-.651,2.07,2.07,0,0,1,4.05407,0,2.08312,2.08312,0,0,1,2.60528.64443,2.02117,2.02117,0,0,1,.11007,2.14842,1.99975,1.99975,0,0,1-1.40548.98826l-.00419,2.56983a1.00015,1.00015,0,0,1-1.00007.99733L9.66063,16.5a1.00016,1.00016,0,0,1-1.00056-1.00268Z" fill="none" stroke="#323232" stroke-linecap="round" stroke-linejoin="round" stroke-width="1.5"/><rect width="24" height="24" fill="none"/></svg>