<svg id="Layer_3" data-name="Layer 3" xmlns="http://www.w3.org/2000/svg" viewBox="0 0 24 24"><path d="M20.5,10.60625a8.50066,8.50066,0,1,0-17,0c0,3.46653,3.33917,7.14048,5.83135,9.40052a4.07955,4.07955,0,0,0,5.33461.00095C17.1599,17.74778,20.5,14.07329,20.5,10.60625Z" fill="none" stroke="#323232" stroke-linecap="round" stroke-linejoin="round" stroke-width="1.5"/><path d="M8.66425,11.43444A2.00686,2.00686,0,0,1,7.36389,8.3016a2.08283,2.08283,0,0,1,2.60967-.65105,2.07,2.07,0,0,1,4.05407,0,2.08312,2.08312,0,0,1,2.60528.64444,2.02117,2.02117,0,0,1,.11007,2.14842,1.99971,1.99971,0,0,1-1.40548.98825l-.00419,2.56984a1.00017,1.00017,0,0,1-1.00007.99733L9.66063,15a1.00016,1.00016,0,0,1-1.00056-1.00268Z" fill="none" stroke="#323232" stroke-linecap="round" stroke-linejoin="round" stroke-width="1.5"/><rect width="24" height="24" fill="none"/></svg>