<svg id="Layer_3" data-name="Layer 3" xmlns="http://www.w3.org/2000/svg" viewBox="0 0 24 24"><circle cx="18.5" cy="19.5" r="3.5" fill="none" stroke="#323232" stroke-linecap="round" stroke-linejoin="round" stroke-width="1.5"/><path d="M19.66666,18.9167,18.20909,20.375l-.87577-.875" fill="none" stroke="#323232" stroke-linecap="round" stroke-linejoin="round" stroke-width="1.5"/><path d="M13,17.56421a5.37046,5.37046,0,0,1-4.063-.8252.905.905,0,0,0-.679-.134l-2.846.569A3,3,0,0,0,3,20.116" fill="none" stroke="#323232" stroke-linecap="round" stroke-linejoin="round" stroke-width="1.5"/><path d="M16.00363,7.518a2.40586,2.40586,0,0,0,1.554-3.764,2.4984,2.4984,0,0,0-3.12531-.77333,2.483,2.483,0,0,0-4.86331,0A2.49808,2.49808,0,0,0,6.43834,3.762a2.40838,2.40838,0,0,0,1.56,3.75931" fill="none" stroke="#323232" stroke-linecap="round" stroke-linejoin="round" stroke-width="1.5"/><path d="M8,9.01366h8" fill="none" stroke="#323232" stroke-linecap="round" stroke-linejoin="round" stroke-width="1.5"/><path d="M16,7.518V10.5a4,4,0,0,1-4,4h0a4,4,0,0,1-4-4V7.5213" fill="none" stroke="#323232" stroke-linecap="round" stroke-linejoin="round" stroke-width="1.5"/><line x1="9.16" y1="16.89" x2="9.9" y2="13.9" fill="none" stroke="#323232" stroke-linecap="round" stroke-linejoin="round" stroke-width="1.5"/><line x1="14.09003" y1="13.8999" x2="14.49139" y2="15.5" fill="none" stroke="#323232" stroke-linecap="round" stroke-linejoin="round" stroke-width="1.5"/><path d="M0,0H24V24H0Z" fill="none"/></svg>