<?xml version="1.0" encoding="UTF-8"?><svg version="1.1" viewBox="0 0 24 24" xmlns="http://www.w3.org/2000/svg" xmlns:xlink="http://www.w3.org/1999/xlink"><g stroke-linecap="round" stroke-width="1.5" stroke="#323232" fill="none" stroke-linejoin="round"><path d="M15 19h-6l-2.66754e-08-7.80815e-11c-2.20646-.00645856-3.99354-1.79354-4-4v-6l2.93475e-08-1.00218e-05c.00646406-2.20646 1.79355-3.99354 4.00001-3.99999h6l1.54195e-07 4.51347e-10c2.20646.00645863 3.99354 1.79354 4 4v6l-2.99373e-08 1.0223e-05c-.00646427 2.20646-1.79356 3.99354-4.00002 3.99999Z"></path><line x1="13.38" x2="13.38" y1="5" y2="3"></line><line x1="16.15" x2="16.15" y1="5.17" y2="3"></line><line x1="7.85" x2="7.85" y1="5.17" y2="3"></line><line x1="10.62" x2="10.62" y1="5" y2="3"></line><line x1="13.38" x2="13.38" y1="21" y2="19"></line><line x1="16.15" x2="16.15" y1="21" y2="18.83"></line><line x1="7.85" x2="7.85" y1="21" y2="18.83"></line><line x1="10.62" x2="10.62" y1="21" y2="19"></line><line x1="19" x2="21" y1="13.38" y2="13.38"></line><line x1="18.83" x2="21" y1="16.15" y2="16.15"></line><line x1="18.83" x2="21" y1="7.85" y2="7.85"></line><line x1="19" x2="21" y1="10.62" y2="10.62"></line><line x1="3" x2="5" y1="13.38" y2="13.38"></line><line x1="3" x2="5.17" y1="16.15" y2="16.15"></line><line x1="3" x2="5.17" y1="7.85" y2="7.85"></line><line x1="3" x2="5" y1="10.62" y2="10.62"></line><path d="M14 16h-4l-1.33377e-08-3.90408e-11c-1.10323-.00322928-1.99677-.896771-2-2v-4l1.46737e-08-5.01091e-06c.00323203-1.10323.896776-1.99677 2-2h4l7.70974e-08 2.25674e-10c1.10323.00322932 1.99677.896771 2 2v4l-1.49686e-08 5.1115e-06c-.00323213 1.10323-.896779 1.99677-2.00001 1.99999Z"></path></g><rect width="24" height="24" fill="none"></rect></svg>