<?xml version="1.0" encoding="UTF-8"?><svg version="1.1" viewBox="0 0 24 24" xmlns="http://www.w3.org/2000/svg" xmlns:xlink="http://www.w3.org/1999/xlink"><g fill="none"><path d="M0 0h24v24h-24Z"></path><line x1="9" x2="9" y1="16.98" y2="18" stroke="#323232" stroke-linecap="round" stroke-linejoin="round" stroke-width="1.5"></line><line x1="12" x2="12" y1="17" y2="18" stroke="#323232" stroke-linecap="round" stroke-linejoin="round" stroke-width="1.5"></line><line x1="15" x2="15" y1="16.98" y2="18" stroke="#323232" stroke-linecap="round" stroke-linejoin="round" stroke-width="1.5"></line><line x1="9" x2="9" y1="6" y2="7.03" stroke="#323232" stroke-linecap="round" stroke-linejoin="round" stroke-width="1.5"></line><line x1="12" x2="12" y1="6" y2="7" stroke="#323232" stroke-linecap="round" stroke-linejoin="round" stroke-width="1.5"></line><line x1="15" x2="15" y1="6" y2="7.03" stroke="#323232" stroke-linecap="round" stroke-linejoin="round" stroke-width="1.5"></line><line x1="7.02" x2="6" y1="9" y2="9" stroke="#323232" stroke-linecap="round" stroke-linejoin="round" stroke-width="1.5"></line><line x1="7" x2="6" y1="12" y2="12" stroke="#323232" stroke-linecap="round" stroke-linejoin="round" stroke-width="1.5"></line><line x1="7.02" x2="6" y1="15" y2="15" stroke="#323232" stroke-linecap="round" stroke-linejoin="round" stroke-width="1.5"></line><line x1="18" x2="16.97" y1="9" y2="9" stroke="#323232" stroke-linecap="round" stroke-linejoin="round" stroke-width="1.5"></line><line x1="18" x2="17" y1="12" y2="12" stroke="#323232" stroke-linecap="round" stroke-linejoin="round" stroke-width="1.5"></line><line x1="18" x2="16.97" y1="15" y2="15" stroke="#323232" stroke-linecap="round" stroke-linejoin="round" stroke-width="1.5"></line><rect width="18" height="18" x="3" y="3" rx="2.7614" ry="0" stroke="#323232" stroke-linecap="round" stroke-linejoin="round" stroke-width="1.5"></rect><rect width="9.999" height="9.999" x="7" y="7" rx="1.28859" ry="0" stroke="#323232" stroke-linecap="round" stroke-linejoin="round" stroke-width="1.5"></rect><path stroke="#323232" stroke-linecap="round" stroke-linejoin="round" stroke-width="1.5" d="M12.1982 14l1.003-2h-2.4024l1.003-2"></path></g></svg>