<svg viewBox="0 0 24 24" xmlns="http://www.w3.org/2000/svg"><g fill="none"><path d="M0 0h24v24H0Z"/><g stroke-linecap="round" stroke-width="1.5" stroke="#323232" fill="none" stroke-linejoin="round"><rect width="7" height="7" x="8.5" y="8.5" rx="1.633"/><path d="M9.5 15.37l0 1.63"/><path d="M12 15.5l0 1.5"/><path d="M14.5 15.37l0 1.63"/><path d="M9.5 7l0 1.63"/><path d="M12 7l0 1.5"/><path d="M14.5 7l0 1.63"/><path d="M8.63 9.5L7 9.5"/><path d="M8.5 12L7 12"/><path d="M8.63 14.5L7 14.5"/><path d="M17 9.5l-1.63 0"/><path d="M17 12l-1.5 0"/><path d="M17 14.5l-1.63 0"/><path d="M12 3H7l0-.001c-2.21 0-4 1.79-4 4v9l-.01-.01c0 2.76 2.23 4.99 4.99 5h9l0-.001c2.2-.01 3.99-1.8 4-4v-5"/><path d="M16.55 2v0l-.01 0c3-.01 5.44 2.43 5.44 5.44v0"/><path d="M16.55 5v0l-.01 0c1.35-.01 2.44 1.09 2.44 2.44 0 0 0 0 0 0v0"/></g></g></svg>