<svg id="Layer_3" data-name="Layer 3" xmlns="http://www.w3.org/2000/svg" viewBox="0 0 24 24"><path d="M0,0H24V24H0Z" fill="none"/><circle cx="12" cy="13" r="2.5" fill="none" stroke="#323232" stroke-linecap="round" stroke-linejoin="round" stroke-width="1.5"/><line x1="16.24261" y1="17.24261" x2="16.24261" y2="17.24261" fill="none" stroke="#323232" stroke-linecap="round" stroke-linejoin="round" stroke-width="1.5"/><line x1="12" y1="19" x2="12" y2="19" fill="none" stroke="#323232" stroke-linecap="round" stroke-linejoin="round" stroke-width="1.5"/><line x1="7.75732" y1="17.24261" x2="7.75732" y2="17.24261" fill="none" stroke="#323232" stroke-linecap="round" stroke-linejoin="round" stroke-width="1.5"/><line x1="18" y1="13" x2="18" y2="13" fill="none" stroke="#323232" stroke-linecap="round" stroke-linejoin="round" stroke-width="1.5"/><line x1="6" y1="13" x2="6" y2="13" fill="none" stroke="#323232" stroke-linecap="round" stroke-linejoin="round" stroke-width="1.5"/><path d="M13.53072,7.06123l1.20151,1.20152A2.5,2.5,0,0,0,19,6.495V4.505a2.5,2.5,0,0,0-4.26776-1.76777L13.53066,3.93882" fill="none" stroke="#323232" stroke-linecap="round" stroke-linejoin="round" stroke-width="1.5"/><path d="M10.46928,3.93877,9.26777,2.73725A2.5,2.5,0,0,0,5,4.505v1.99A2.5,2.5,0,0,0,9.26777,8.26275l1.20157-1.20157" fill="none" stroke="#323232" stroke-linecap="round" stroke-linejoin="round" stroke-width="1.5"/><circle cx="12" cy="5.5" r="2.1875" fill="none" stroke="#323232" stroke-linecap="round" stroke-linejoin="round" stroke-width="1.5"/><path d="M5.04065,6.94183A2.81385,2.81385,0,0,0,3.92694,9.32458a2.77191,2.77191,0,0,1-.61847,1.90351,2.82018,2.82018,0,0,0-.00006,3.54376,2.77216,2.77216,0,0,1,.61853,1.90357,2.81985,2.81985,0,0,0,2.08283,2.86676,2.77275,2.77275,0,0,1,1.61932,1.17651,2.82008,2.82008,0,0,0,3.37024,1.095,2.77216,2.77216,0,0,1,2.00134,0,2.82005,2.82005,0,0,0,3.37024-1.095,2.77275,2.77275,0,0,1,1.61932-1.17651,2.81985,2.81985,0,0,0,2.08283-2.86676,2.77246,2.77246,0,0,1,.61853-1.90357,2.82018,2.82018,0,0,0-.00006-3.54376,2.77191,2.77191,0,0,1-.61847-1.90351,2.81385,2.81385,0,0,0-1.11371-2.38275" fill="none" stroke="#323232" stroke-linecap="round" stroke-linejoin="round" stroke-width="1.5"/></svg>