<svg id="Layer_3" data-name="Layer 3" xmlns="http://www.w3.org/2000/svg" viewBox="0 0 24 24"><path d="M0,0H24V24H0Z" fill="none"/><path d="M11.29292,4.29288l-2.998,2.998A1,1,0,0,0,9.002,8.998H14.998a1,1,0,0,0,.70708-1.70705l-2.998-2.998A1,1,0,0,0,11.29292,4.29288Z" fill="none" stroke="#323232" stroke-linecap="round" stroke-linejoin="round" stroke-width="1.5"/><path d="M8.65485,8.933,6.29492,11.29291A1,1,0,0,0,7.002,13h9.996a1,1,0,0,0,.70709-1.70709L15.34515,8.933" fill="none" stroke="#323232" stroke-linecap="round" stroke-linejoin="round" stroke-width="1.5"/><line x1="13.5" y1="18" x2="13.5" y2="21" fill="none" stroke="#323232" stroke-linecap="round" stroke-linejoin="round" stroke-width="1.5"/><line x1="10.5" y1="21" x2="10.5" y2="18" fill="none" stroke="#323232" stroke-linecap="round" stroke-linejoin="round" stroke-width="1.5"/><line x1="15" y1="21" x2="9" y2="21" fill="none" stroke="#323232" stroke-linecap="round" stroke-linejoin="round" stroke-width="1.5"/><path d="M7.58783,13,4.29492,16.29291A1,1,0,0,0,5.002,18H18.998a1,1,0,0,0,.70709-1.70709L16.41217,13" fill="none" stroke="#323232" stroke-linecap="round" stroke-linejoin="round" stroke-width="1.5"/></svg>