<?xml version="1.0" encoding="UTF-8"?><svg version="1.1" viewBox="0 0 24 24" xmlns="http://www.w3.org/2000/svg" xmlns:xlink="http://www.w3.org/1999/xlink"><!--Generated by IJSVG (https://github.com/iconjar/IJSVG)--><g stroke-linecap="round" stroke-width="1.5" stroke="#323232" fill="none" stroke-linejoin="round"><path d="M5.636,18.363c3.515,3.515 9.213,3.515 12.728,0"></path><path d="M18.364,5.637c-3.515,-3.515 -9.213,-3.515 -12.728,0"></path><path d="M3.534,9.028c-0.337,0.961 -0.494,1.966 -0.499,2.972c0.005,1.005 0.161,2.01 0.499,2.971"></path><path d="M20.466,9.029c0.337,0.961 0.494,1.966 0.498,2.971c-0.004,1.006 -0.161,2.011 -0.498,2.972"></path><path d="M10.941,9.058l3.882,2.296c0.491,0.29 0.491,1.001 0,1.291l-3.882,2.296c-0.5,0.296 -1.132,-0.065 -1.132,-0.646v-4.591c-1.77636e-15,-0.581 0.632,-0.942 1.132,-0.646Z"></path></g><path fill="none" d="M24,0v24h-24v-24h24Z"></path></svg>