<?xml version="1.0" encoding="UTF-8"?><svg version="1.1" viewBox="0 0 24 24" xmlns="http://www.w3.org/2000/svg" xmlns:xlink="http://www.w3.org/1999/xlink"><g stroke-linecap="round" stroke-width="1.5" stroke="#323232" fill="none" stroke-linejoin="round"><path d="M10.29 6.3l5.41759e-07-3.68761e-07c3.42417-2.33074 8.08945-1.44434 10.4202 1.97983 2.33074 3.42417 1.44434 8.08945-1.97983 10.4202 -1.24726.848976-2.72158 1.30203-4.23036 1.29999l-3.79779e-07 1.9081e-09c-.881682.00442974-1.75652-.154939-2.58-.469999"></path><path d="M12 19v-10 0c0-1.65685-1.34315-3-3-3h-3l-1.31134e-07 3.55271e-15c-1.65685 7.24234e-08-3 1.34315-3 3 0 0 0 1.77636e-15 0 1.77636e-15v10l2.30926e-14 3.01992e-07c1.66785e-07 1.10457.895431 2 2 2 0 0 8.88178e-16 0 8.88178e-16 0h5l8.74228e-08-1.77636e-14c1.10457-2.15068e-07 2-.895431 2-2Z"></path><circle cx="7.5" cy="13.5" r="1.5"></circle><path d="M9.5 6h-4v-2l1.15463e-14 1.50996e-07c-8.33927e-08-.552285.447715-1 1-1h2l-4.37114e-08 8.88178e-16c.552285-2.41411e-08 1 .447715 1 1Z"></path></g><path fill="none" d="M0 0h24v24h-24Z"></path></svg>