<?xml version="1.0" encoding="UTF-8"?><svg version="1.1" viewBox="0 0 24 24" xmlns="http://www.w3.org/2000/svg" xmlns:xlink="http://www.w3.org/1999/xlink"><g stroke-linecap="round" stroke-width="1.5" stroke="#323232" fill="none" stroke-linejoin="round"><rect width="18" height="18" x="3" y="3" rx="2.7614" ry="0"></rect><path d="M14.121 9.87851l-1.808 1.80849 7.89649e-08-7.89873e-08c-.563333.563493-.563333 1.47693-1.5793e-07 2.04042v0l.031.031 3.79823e-09 3.79877e-09c.563249.563328 1.47652.563391 2.03985.000142509 6.75083e-05-6.74989e-05.00013501-.000135004.000202505-.000202517l1.75873-1.75907 -8.57449e-08 8.57659e-08c1.14312-1.1434 1.14312-2.99691 1.7149e-07-4.14031v0l-3.64232e-08-3.64317e-08c-1.14336-1.14363-2.99733-1.14384-4.14096-.000481209 -.000137112.00013708-.000274211.000274174-.000411296.000411282l-.00036.00037 -4.14256 4.14022 -2.35699e-08 2.35592e-08c-1.14441 1.14389-1.14483 2.99892-.000945346 4.14333 .000128452.000128511.000256917.00025701.000385393.000385497v0l2.39888e-07 2.39909e-07c1.14358 1.14368 2.99778 1.14377 4.14147.000181707 .000120729-.000120718.000241447-.000241447.000362155-.000362187"></path></g><path fill="none" d="M0 0h24v24h-24Z"></path></svg>