<svg viewBox="0 0 24 24" xmlns="http://www.w3.org/2000/svg"><g stroke-linecap="round" stroke-width="1.5" stroke="#323232" fill="none" stroke-linejoin="round"><path d="M17.69 18.12L20 20.43"/><path d="M6.31 18.12L4 20.43"/></g><g stroke-width="1.5" fill="none" stroke="#323232"><path d="M12 4.5a8 8 0 1 0 0 16 8 8 0 1 0 0-16Z"/><g stroke-linecap="round" stroke-width="1.5" stroke="#323232" fill="none" stroke-linejoin="round"><path d="M4.61 9.43l-.01-.01c-1.01-.64-1.62-1.75-1.61-2.93l0-.01c0-1.94 1.56-3.51 3.5-3.5 1.29 0 2.49.72 3.09 1.87"/><path d="M14.4 4.87l-.01 0c.9-1.72 3.01-2.37 4.72-1.47 1.14.6 1.86 1.79 1.87 3.09l0 0c0 1.18-.61 2.29-1.62 2.92"/><path d="M12 12.27V9.99"/><path d="M12 14.77h0c-.07-.01-.12.04-.12.11v0l-.01-.01c0 .06.05.11.11.1 .06-.01.11-.06.1-.12 -.01-.07-.06-.12-.12-.11"/></g></g><path fill="none" d="M0 0h24v24H0Z"/></svg>