<?xml version="1.0" encoding="UTF-8"?><svg version="1.1" viewBox="0 0 24 24" xmlns="http://www.w3.org/2000/svg" xmlns:xlink="http://www.w3.org/1999/xlink"><g stroke-linecap="round" stroke-width="1.5" stroke="#323232" fill="none" stroke-linejoin="round"><path d="M8 17.5l2 2 -2 2"></path><path d="M12.007 10.313l1.6444e-08 6.81908e-11c-.932249-.00386584-1.69112.748737-1.69499 1.68099 -.00386584.932249.748737 1.69112 1.68099 1.69499 .932249.00386584 1.69112-.748737 1.69499-1.68099 1.10376e-05-.00266172 1.57794e-05-.00532346 1.42255e-05-.0079852l5.4416e-08 4.695e-05c-.00106372-.928913-.75205-1.68262-1.68095-1.68705"></path><path d="M13.2 10.8l3-3"></path><path d="M9.557 14.443l1.25-1.25"></path><path d="M10 19.5h-6"></path><path d="M14 20.271l8.22706e-07-1.87309e-07c4.84654-1.10343 7.88092-5.92684 6.77749-10.7734 -1.10343-4.84654-5.92684-7.88092-10.7734-6.77749 -4.84654 1.10343-7.88092 5.92684-6.77749 10.7734 .158186.694791.398327 1.36834.715376 2.00649"></path></g><path fill="none" d="M0 0h24v24h-24Z"></path></svg>