<?xml version="1.0" encoding="UTF-8"?><svg version="1.1" viewBox="0 0 24 24" xmlns="http://www.w3.org/2000/svg" xmlns:xlink="http://www.w3.org/1999/xlink"><g stroke-linecap="round" stroke-width="1.5" stroke="#323232" fill="none" stroke-linejoin="round"><path d="M20.932 13.432l2.88459e-07-1.71139e-06c-.825695 4.89874-5.46626 8.20059-10.365 7.37489 -4.89874-.825695-8.20059-5.46626-7.37489-10.365 .636801-3.77805 3.59684-6.73809 7.37489-7.37489"></path><path d="M20.496 8.799l4.86464e-08 1.30696e-07c.197119.529588.343443 1.07672.437 1.634"></path><path d="M19.002 6.197l1.16412e-07 1.40936e-07c-.360763-.436763-.762237-.838237-1.199-1.199"></path><path d="M15.201 3.505l-1.91379e-08-7.14063e-09c-.529518-.197571-1.07666-.344234-1.634-.438"></path><polyline points="16,12.391 11.609,12.391 11.609,7"></polyline></g><path fill="none" d="M24 24h-24v-24h24Z"></path></svg>