<?xml version="1.0" encoding="UTF-8"?><svg version="1.1" viewBox="0 0 24 24" xmlns="http://www.w3.org/2000/svg" xmlns:xlink="http://www.w3.org/1999/xlink"><g fill="none"><path d="M24 24h-24v-24h24Z"></path><path stroke="#323232" stroke-linecap="round" stroke-linejoin="round" stroke-width="1.5" d="M7.63 13.866l3.656-2.229v-4.651"></path><path stroke="#323232" stroke-linecap="round" stroke-linejoin="round" stroke-width="1.5" d="M19.451 14.827h1.549v-1.546"></path><path stroke="#323232" stroke-linecap="round" stroke-linejoin="round" stroke-width="1.5" d="M15.993 18.174h-1.546v1.547"></path><path stroke="#323232" stroke-linecap="round" stroke-linejoin="round" stroke-width="1.5" d="M21 17.667l9.51599e-09-2.89531e-08c-.162069.493107-.435853.942112-.8 1.312l4.75574e-08-4.75049e-08c-1.36759 1.36608-3.58367 1.36486-4.94975-.00273413 -.235726-.235986-.436507-.504457-.596253-.797266"></path><path stroke="#323232" stroke-linecap="round" stroke-linejoin="round" stroke-width="1.5" d="M20.794 14.826l1.4296e-08 2.62041e-08c-.925762-1.69689-3.05184-2.32202-4.74873-1.39625 -.292809.159746-.56128.360528-.797266.596253l-1.17625e-07 1.18837e-07c-.365861.36963-.641658.818571-.806 1.312"></path><path stroke="#323232" stroke-linecap="round" stroke-linejoin="round" stroke-width="1.5" d="M11 20l5.80162e-08-2.10889e-11c-4.97056.00180702-9.00146-4.02617-9.00327-8.99673 -.00180702-4.97056 4.02617-9.00146 8.99673-9.00327 4.58484-.00166679 8.43812 3.44355 8.94754 8"></path><path d="M24 0v24h-24"></path></g></svg>