<?xml version="1.0" encoding="UTF-8"?><svg version="1.1" viewBox="0 0 24 24" xmlns="http://www.w3.org/2000/svg" xmlns:xlink="http://www.w3.org/1999/xlink"><!--Generated by IJSVG (https://github.com/iconjar/IJSVG)--><g fill="none"><path d="M0,0.007h24v24h-24v-24Z"></path><path stroke="#323232" stroke-linecap="round" stroke-linejoin="round" stroke-width="1.5" d="M9,21.007h-4.286c-0.946,0 -1.714,-0.768 -1.714,-1.714v-4.286"></path><path stroke="#323232" stroke-linecap="round" stroke-linejoin="round" stroke-width="1.5" d="M16,3.007h3.286c0.946,0 1.714,0.768 1.714,1.714v3.286"></path><path stroke="#323232" stroke-linecap="round" stroke-linejoin="round" stroke-width="1.5" d="M4.162,4.042c-1.219,0.166 -2.162,1.2 -2.162,2.465c0,1.38 1.12,2.5 2.5,2.5h5.499c1.105,0 2,-0.895 2,-2c0,-1.105 -0.895,-2 -2,-2c0,-1.657 -1.343,-3 -3,-3c-1.317,4.44089e-16 -2.435,0.852 -2.837,2.035Z"></path><path stroke="#323232" stroke-linecap="round" stroke-linejoin="round" stroke-width="1.5" d="M13.158,14.759v5.143c0,0.61 0.495,1.105 1.105,1.105h5.585c0.61,0 1.105,-0.495 1.105,-1.105v-5.133"></path><path stroke="#323232" stroke-linecap="round" stroke-linejoin="round" stroke-width="1.5" d="M12.053,15.481l5.075,-3.316l4.872,3.316"></path></g></svg>