<svg id="Layer_3" data-name="Layer 3" xmlns="http://www.w3.org/2000/svg" viewBox="0 0 24 24"><path d="M16.5,19H18a4,4,0,0,0,4-4h0a4,4,0,0,0-4-4h0a6,6,0,0,0-6-6h0a5.99809,5.99809,0,0,0-5.6762,4.06818A4.98474,4.98474,0,0,0,2,14H2a5,5,0,0,0,5,5h.5" fill="none" stroke="#323232" stroke-linecap="round" stroke-linejoin="round" stroke-width="1.5"/><line x1="10.375" y1="19" x2="13.625" y2="19" fill="none" stroke="#323232" stroke-linecap="round" stroke-linejoin="round" stroke-width="1.5"/><line x1="12" y1="20.625" x2="12" y2="17.375" fill="none" stroke="#323232" stroke-linecap="round" stroke-linejoin="round" stroke-width="1.5"/><rect width="24" height="24" fill="none"/></svg>