<?xml version="1.0" encoding="UTF-8"?><svg version="1.1" viewBox="0 0 24 24" xmlns="http://www.w3.org/2000/svg" xmlns:xlink="http://www.w3.org/1999/xlink"><g stroke-linecap="round" stroke-width="1.5" stroke="#323232" fill="none" stroke-linejoin="round"><path d="M8 17.5l2 2 -2 2"></path><path d="M10 19.5h-6"></path><path d="M14 20.271l8.22706e-07-1.87309e-07c4.84654-1.10343 7.88092-5.92684 6.77749-10.7734 -1.10343-4.84654-5.92684-7.88092-10.7734-6.77749 -4.84654 1.10343-7.88092 5.92684-6.77749 10.7734 .158186.694791.398327 1.36834.715376 2.00649"></path><path d="M9.128 10.267l-2.14909e-07 2.92122e-08c-1.38126.187753-2.3488 1.45969-2.16104 2.84096 .170163 1.25185 1.23968 2.18506 2.50304 2.18404h5.565l-8.84719e-08-1.77636e-15c1.11782 4.88617e-08 2.024-.906176 2.024-2.024 4.88617e-08-1.11782-.906176-2.024-2.024-2.024l-1.12789e-08 1.89595e-05c.00100206-1.67563-1.35655-3.03481-3.03219-3.03581 -1.30046-.000777704-2.4568.827324-2.87481 2.05878Z"></path></g><path fill="none" d="M0 0h24v24h-24Z"></path></svg>