<?xml version="1.0" encoding="UTF-8"?><svg version="1.1" viewBox="0 0 24 24" xmlns="http://www.w3.org/2000/svg" xmlns:xlink="http://www.w3.org/1999/xlink"><g fill="none"><path d="M0 0h24v24h-24v-24Z"></path><path stroke="#323232" stroke-linecap="round" stroke-linejoin="round" stroke-width="1.5" d="M16.847 14.483c.726-1.155 1.153-2.518 1.153-3.983 0-4.142-3.357-7.5-7.5-7.5 -4.143 0-7.5 3.358-7.5 7.5 0 2.318 1.053 4.39 2.705 5.765"></path><path stroke="#323232" stroke-linecap="round" stroke-linejoin="round" stroke-width="1.5" d="M17.651 14.383c-.515 0-1 .106-1.424.318 -.318-2.093-2.136-3.701-4.318-3.701 -2.379 0-4.318 1.911-4.379 4.277 -1.424.182-2.53 1.395-2.53 2.897 -.001 1.608 1.302 2.912 2.908 2.912h9.742c1.848 0 3.348-1.501 3.348-3.352 .001-1.85-1.499-3.351-3.347-3.351Z"></path></g></svg>