<?xml version="1.0" encoding="UTF-8"?><svg version="1.1" viewBox="0 0 24 24" xmlns="http://www.w3.org/2000/svg" xmlns:xlink="http://www.w3.org/1999/xlink"><!--Generated by IJSVG (https://github.com/iconjar/IJSVG)--><g fill="none"><path d="M0,0h24v24h-24v-24Z"></path><path stroke="#323232" stroke-linecap="round" stroke-linejoin="round" stroke-width="1.5" d="M16,3h3.286c0.946,0 1.714,0.768 1.714,1.714v3.286"></path><path stroke="#323232" stroke-linecap="round" stroke-linejoin="round" stroke-width="1.5" d="M8,21h-3.286c-0.946,0 -1.714,-0.768 -1.714,-1.714v-3.286"></path><path stroke="#323232" stroke-linecap="round" stroke-linejoin="round" stroke-width="1.5" d="M18.695,12.605l3.046,5.414c0.749,1.334 -0.214,2.981 -1.744,2.981h-6.091c-1.53,0 -2.493,-1.647 -1.743,-2.981l3.046,-5.414c0.764,-1.359 2.721,-1.359 3.486,1.77636e-15Z"></path><path stroke="#323232" stroke-linecap="round" stroke-linejoin="round" stroke-width="1.5" d="M16.952,16.42v-1.835"></path><path stroke="#323232" stroke-linecap="round" stroke-linejoin="round" stroke-width="1.5" d="M16.951,18.445c-0.05,0 -0.091,0.041 -0.09,0.091c0,0.05 0.041,0.091 0.091,0.091c0.05,0 0.091,-0.041 0.091,-0.091c0,-0.05 -0.041,-0.091 -0.092,-0.091"></path><path stroke="#323232" stroke-linecap="round" stroke-linejoin="round" stroke-width="1.5" d="M5.162,5.035c-1.219,0.166 -2.162,1.2 -2.162,2.465c0,1.381 1.12,2.5 2.5,2.5h5.5c1.105,0 2,-0.895 2,-2c0,-1.105 -0.895,-2 -2,-2c0,-1.657 -1.343,-3 -3,-3c-1.318,0 -2.436,0.852 -2.838,2.035Z"></path></g></svg>