<?xml version="1.0" encoding="UTF-8"?><svg version="1.1" viewBox="0 0 24 24" xmlns="http://www.w3.org/2000/svg" xmlns:xlink="http://www.w3.org/1999/xlink"><!--Generated by IJSVG (https://github.com/iconjar/IJSVG)--><g stroke-linecap="round" stroke-width="1.5" stroke="#323232" fill="none" stroke-linejoin="round"><path d="M17.078,6.689c-0.562,0 -1.092,0.116 -1.555,0.347c-0.347,-2.283 -2.332,-4.036 -4.714,-4.036c-2.597,0 -4.714,2.084 -4.78,4.665c-1.555,0.198 -2.762,1.522 -2.762,3.159c-0.001,1.753 1.422,3.176 3.175,3.176h10.636c2.018,0 3.656,-1.638 3.656,-3.656c3.55271e-15,-2.018 -1.638,-3.655 -3.656,-3.655Z"></path><path d="M12.2,21l1,-2h-2.4l1,-2"></path><path d="M18,17l-1.5,3"></path><path d="M7.5,17l-1.5,3"></path></g><path fill="none" d="M0,0h24v24h-24Z"></path></svg>