<?xml version="1.0" encoding="UTF-8"?><svg version="1.1" viewBox="0 0 24 24" xmlns="http://www.w3.org/2000/svg" xmlns:xlink="http://www.w3.org/1999/xlink"><!--Generated by IJSVG (https://github.com/iconjar/IJSVG)--><g fill="none"><path d="M0,0.007h24v24h-24Z"></path><path stroke="#323232" stroke-linecap="round" stroke-linejoin="round" stroke-width="1.5" d="M21.5,15.507l-1.5,-1.5l-1.5,1.5"></path><path stroke="#323232" stroke-linecap="round" stroke-linejoin="round" stroke-width="1.5" d="M20,14.007v2c0,1.657 -1.343,3 -3,3"></path><path stroke="#323232" stroke-linecap="round" stroke-linejoin="round" stroke-width="1.5" d="M2.5,8.507l1.5,1.5l1.5,-1.5"></path><path stroke="#323232" stroke-linecap="round" stroke-linejoin="round" stroke-width="1.5" d="M4,10.007v-2c0,-1.657 1.343,-3 3,-3"></path><path stroke="#323232" stroke-linecap="round" stroke-linejoin="round" stroke-width="1.5" d="M10.838,16.042c1.219,0.166 2.162,1.2 2.162,2.465c0,1.38 -1.12,2.5 -2.5,2.5h-5.499c-1.105,0 -2,-0.895 -2,-2c0,-1.105 0.895,-2 2,-2c0,-1.657 1.343,-3 3,-3c1.317,-1.77636e-15 2.434,0.852 2.837,2.035Z"></path><path stroke="#323232" stroke-linecap="round" stroke-linejoin="round" stroke-width="1.5" d="M18.837,5.042c1.219,0.166 2.162,1.201 2.162,2.465c0,1.38 -1.12,2.5 -2.5,2.5h-5.499c-1.105,0 -2,-0.895 -2,-2c0,-1.105 0.895,-2 2,-2c0,-1.657 1.343,-3 3,-3c1.317,4.44089e-16 2.435,0.852 2.837,2.035Z"></path></g></svg>