<svg id="Layer_3" data-name="Layer 3" xmlns="http://www.w3.org/2000/svg" viewBox="0 0 24 24"><path d="M12,16v3" fill="none" stroke="#323232" stroke-linecap="round" stroke-linejoin="round" stroke-width="1.5"/><path d="M8,19H7a5,5,0,0,1-5-5H2A4.98475,4.98475,0,0,1,6.32379,9.06817,5.99811,5.99811,0,0,1,12,5h0a6,6,0,0,1,6,6h0a4,4,0,0,1,4,4h0a4,4,0,0,1-4,4H16" fill="none" stroke="#323232" stroke-linecap="round" stroke-linejoin="round" stroke-width="1.5"/><path d="M11.99907,13a.14861.14861,0,0,0-.14907.14814V13.15a.15.15,0,1,0,.14906-.15" fill="none" stroke="#323232" stroke-linecap="round" stroke-linejoin="round" stroke-width="1.5"/><path d="M0,0H24V24H0Z" fill="none"/></svg>