<svg viewBox="0 0 24 24" xmlns="http://www.w3.org/2000/svg"><g stroke-linecap="round" stroke-width="1.5" stroke="#323232" fill="none" stroke-linejoin="round"><path d="M4.01 8v13"/><path d="M20 8v13"/><path d="M3 21l18 0"/><path d="M20 8H4l-.01-.001c-.56-.01-1-.45-1-1v-3l-.01 0c0-.56.44-1 .99-1.01h16l0 0c.55 0 .99.44.99 1v3l0-.01c-.01.55-.45.99-1 1Z"/><path d="M17.5 5.5v0"/><path d="M14.5 5.5v0"/><path d="M16.01 13.85l-.77 6.27 -.01 0c-.06.5-.49.88-.99.88h-4.5l0-.001c-.51 0-.94-.38-.99-.88l-.78-6.27"/><path d="M15.49 14h-7l-.01 0c-.56 0-1.01-.45-1.01-1 -.01-.11.01-.22.05-.32l.33-1 -.01 0c.13-.41.51-.69.94-.69h6.33l-.01 0c.43-.01.81.27.94.68l.33 1 0 0c.17.52-.11 1.08-.64 1.26 -.11.03-.21.05-.32.05Z"/></g><path fill="none" d="M24 24H0V0h24Z"/></svg>