<svg id="Layer_3" data-name="Layer 3" xmlns="http://www.w3.org/2000/svg" viewBox="0 0 24 24"><path d="M13.5,14.5A3.5,3.5,0,1,1,17,11a3.5,3.5,0,0,1-3.5,3.5" fill="none" stroke="#323232" stroke-linecap="round" stroke-linejoin="round" stroke-width="1.5"/><path d="M6.89909,20.62132,3.37868,17.10091A3,3,0,0,1,2.5,14.97959V9.02144A3,3,0,0,1,3.37869,6.9001L6.90017,3.37867A3,3,0,0,1,9.02147,2.5h5.95706a3,3,0,0,1,2.12132.87868l3.52147,3.52147A3,3,0,0,1,21.5,9.02148v5.95806a3,3,0,0,1-.87835,2.121L17.10231,20.621a3,3,0,0,1-2.12166.879H9.02041A3,3,0,0,1,6.89909,20.62132Z" fill="none" stroke="#323232" stroke-linecap="round" stroke-linejoin="round" stroke-width="1.5"/><path d="M10.33,9.518a3.49292,3.49292,0,1,0,3.325,4.974" fill="none" stroke="#323232" stroke-linecap="round" stroke-linejoin="round" stroke-width="1.5"/><path d="M24,24H0V0H24Z" fill="none"/></svg>