<svg id="Layer_3" data-name="Layer 3" xmlns="http://www.w3.org/2000/svg" viewBox="0 0 24 24"><rect x="3" y="7" width="10" height="14" rx="2" stroke-width="1.5" stroke="#323232" stroke-linecap="round" stroke-linejoin="round" fill="none"/><rect x="3" y="11" width="10" height="6" stroke-width="1.5" stroke="#323232" stroke-linecap="round" stroke-linejoin="round" fill="none"/><path d="M7,3H9a1,1,0,0,1,1,1V7a0,0,0,0,1,0,0H6A0,0,0,0,1,6,7V4A1,1,0,0,1,7,3Z" fill="none" stroke="#323232" stroke-linecap="round" stroke-linejoin="round" stroke-width="1.5"/><path d="M20.99987,2.95A.05.05,0,1,0,21.05,3a.05.05,0,0,0-.05013-.05" fill="none" stroke="#323232" stroke-linecap="round" stroke-linejoin="round" stroke-width="1.5"/><path d="M20.99987,6.45A.05.05,0,1,0,21.05,6.5a.05.05,0,0,0-.05013-.05" fill="none" stroke="#323232" stroke-linecap="round" stroke-linejoin="round" stroke-width="1.5"/><path d="M20.99987,9.95A.05.05,0,1,0,21.05,10a.05.05,0,0,0-.05013-.05" fill="none" stroke="#323232" stroke-linecap="round" stroke-linejoin="round" stroke-width="1.5"/><path d="M13.95,3.00013A.05.05,0,1,0,14,2.95a.05.05,0,0,0-.05.05013" fill="none" stroke="#323232" stroke-linecap="round" stroke-linejoin="round" stroke-width="1.5"/><path d="M17.45,3.00013A.05.05,0,1,0,17.5,2.95a.05.05,0,0,0-.05.05013" fill="none" stroke="#323232" stroke-linecap="round" stroke-linejoin="round" stroke-width="1.5"/><path d="M17.50015,6.45a.05.05,0,1,0,.05013.05.05.05,0,0,0-.05013-.05" fill="none" stroke="#323232" stroke-linecap="round" stroke-linejoin="round" stroke-width="1.5"/><path d="M0,0H24V24H0Z" fill="none"/></svg>