<svg id="Layer_3" data-name="Layer 3" xmlns="http://www.w3.org/2000/svg" viewBox="0 0 24 24"><rect width="24" height="24" fill="none"/><rect x="3" y="3" width="18" height="18" rx="5" stroke-width="1.5" stroke="#323232" stroke-linecap="round" stroke-linejoin="round" fill="none"/><path d="M12.40627,15.20969l-3.02449.75612a1.11125,1.11125,0,0,1-1.34759-1.34759l.758-3.032a2.97457,2.97457,0,0,1,2.892-2.25312H11.692a2.98121,2.98121,0,0,1,2.97491,2.98262h0A2.98444,2.98444,0,0,1,12.40627,15.20969Z" fill="none" stroke="#323232" stroke-linecap="round" stroke-linejoin="round" stroke-width="1.5"/><path d="M20.88,6.92a32.42987,32.42987,0,0,1-6.26,4.88" fill="none" stroke="#323232" stroke-linecap="round" stroke-linejoin="round" stroke-width="1.5"/><path d="M12.2,9.38a33.15424,33.15424,0,0,1,4.87-6.27" fill="none" stroke="#323232" stroke-linecap="round" stroke-linejoin="round" stroke-width="1.5"/></svg>