<svg id="Layer_3" data-name="Layer 3" xmlns="http://www.w3.org/2000/svg" viewBox="0 0 24 24"><path d="M11.99986,17.5a5.5,5.5,0,0,1-5.49769-5.656A5.56061,5.56061,0,0,1,11.844,6.50217,5.5,5.5,0,0,1,17.5,11.99986V12.611a1.22192,1.22192,0,0,1-1.22225,1.22225H15.017A1.22209,1.22209,0,0,0,13.8418,15.391l.15706.55063A1.222,1.222,0,0,1,12.82427,17.5Z" fill="none" stroke="#323232" stroke-linecap="round" stroke-linejoin="round" stroke-width="1.5"/><path d="M9.49,10.54412a.04529.04529,0,1,0,.062-.01678.045.045,0,0,0-.062.01678" fill="none" stroke="#323232" stroke-linecap="round" stroke-linejoin="round" stroke-width="1.5"/><path d="M9.49022,13.42381a.04529.04529,0,1,0,.01646-.06207.045.045,0,0,0-.01646.06207" fill="none" stroke="#323232" stroke-linecap="round" stroke-linejoin="round" stroke-width="1.5"/><path d="M14.39954,10.58941a.04529.04529,0,1,0,.01646-.06207.045.045,0,0,0-.01646.06207" fill="none" stroke="#323232" stroke-linecap="round" stroke-linejoin="round" stroke-width="1.5"/><path d="M11.98422,9.19466a.04529.04529,0,1,0-.04553-.04529.045.045,0,0,0,.04553.04529" fill="none" stroke="#323232" stroke-linecap="round" stroke-linejoin="round" stroke-width="1.5"/><rect x="3" y="3" width="18" height="18" rx="5" stroke-width="1.5" stroke="#323232" stroke-linecap="round" stroke-linejoin="round" fill="none"/><path d="M0,0H24V24H0Z" fill="none"/></svg>