<svg id="Layer_3" data-name="Layer 3" xmlns="http://www.w3.org/2000/svg" viewBox="0 0 24 24"><path d="M0,0H24V24H0Z" fill="none"/><line x1="3.00606" y1="11" x2="17.95231" y2="11" fill="none" stroke="#323232" stroke-linecap="round" stroke-linejoin="round" stroke-width="1.5"/><path d="M5,4,9,8" fill="none" stroke="#323232" stroke-linecap="round" stroke-linejoin="round" stroke-width="1.5"/><path d="M16.73241,20.27206h0a2.47451,2.47451,0,0,1,0-3.51471h0L18.50062,15l1.7682,1.75735a2.47749,2.47749,0,0,1,0,3.51473h0a2.51155,2.51155,0,0,1-3.53641,0Z" fill="none" stroke="#323232" stroke-linecap="round" stroke-linejoin="round" stroke-width="1.5"/><path d="M17.7071,11.40553l-5.71585,5.71582a2.99991,2.99991,0,0,1-4.2425,0l-3.87006-3.87a3,3,0,0,1,0-4.24269L9.59445,3.29288a1,1,0,0,1,1.41421,0L17.7071,9.9913A1,1,0,0,1,17.7071,11.40553Z" fill="none" stroke="#323232" stroke-linecap="round" stroke-linejoin="round" stroke-width="1.5"/></svg>