<svg id="Layer_3" data-name="Layer 3" xmlns="http://www.w3.org/2000/svg" viewBox="0 0 24 24"><path d="M0,0H24V24H0Z" fill="none"/><rect x="2.5" y="2.5" width="19" height="19" rx="5.27778" transform="translate(24 24) rotate(180)" stroke-width="1.5" stroke="#323232" stroke-linecap="round" stroke-linejoin="round" fill="none"/><path d="M14,12.5v3.25a1.75,1.75,0,0,0,1.75,1.75h0a1.75,1.75,0,0,0,1.75-1.75h0A1.75,1.75,0,0,0,15.75,14H14" fill="none" stroke="#323232" stroke-linecap="round" stroke-linejoin="round" stroke-width="1.5"/><path d="M10,11.5V8.25A1.75,1.75,0,0,0,8.25,6.5h0A1.75,1.75,0,0,0,6.5,8.25h0A1.75,1.75,0,0,0,8.25,10H10" fill="none" stroke="#323232" stroke-linecap="round" stroke-linejoin="round" stroke-width="1.5"/><path d="M12.5,10h3.25A1.75,1.75,0,0,0,17.5,8.25h0A1.75,1.75,0,0,0,15.75,6.5h0A1.75,1.75,0,0,0,14,8.25V10" fill="none" stroke="#323232" stroke-linecap="round" stroke-linejoin="round" stroke-width="1.5"/><path d="M11.5,14H8.25A1.75,1.75,0,0,0,6.5,15.75h0A1.75,1.75,0,0,0,8.25,17.5h0A1.75,1.75,0,0,0,10,15.75V14" fill="none" stroke="#323232" stroke-linecap="round" stroke-linejoin="round" stroke-width="1.5"/></svg>