<?xml version="1.0" encoding="UTF-8"?><svg version="1.1" viewBox="0 0 24 24" xmlns="http://www.w3.org/2000/svg" xmlns:xlink="http://www.w3.org/1999/xlink"><g fill="none"><path d="M0 0h24v24h-24v-24Z"></path><path stroke="#323232" stroke-linecap="round" stroke-linejoin="round" stroke-width="1.5" d="M21 22h-8.086c-.529 0-.957-.429-.957-.957v-13.086c1.77636e-15-.528.429-.957.957-.957h8.086c.529 0 .957.429.957.957v13.086c0 .528-.428.957-.957.957Z"></path><line x1="8.5" x2="8" y1="16" y2="20" stroke="#323232" stroke-linecap="round" stroke-linejoin="round" stroke-width="1.5"></line><path stroke="#323232" stroke-linecap="round" stroke-linejoin="round" stroke-width="1.5" d="M19 7v-1.572c0-1.341-1.087-2.428-2.428-2.428h-12.144c-1.341 0-2.428 1.087-2.428 2.428v8.144c0 1.341 1.087 2.428 2.428 2.428h7.529"></path><line x1="6.5" x2="11.96" y1="20" y2="20" stroke="#323232" stroke-linecap="round" stroke-linejoin="round" stroke-width="1.5"></line><circle cx="17" cy="16.5" r="2" stroke="#323232" stroke-linecap="round" stroke-linejoin="round" stroke-width="1.5"></circle><path stroke="#323232" stroke-linecap="round" stroke-linejoin="round" stroke-width="1.5" d="M16.999 10.75c-.138 0-.25.112-.248.25 0 .138.112.25.25.25 .138 0 .25-.112.25-.25 -.001-.138-.113-.25-.252-.25"></path></g></svg>