<?xml version="1.0" encoding="UTF-8"?><svg version="1.1" viewBox="0 0 24 24" xmlns="http://www.w3.org/2000/svg" xmlns:xlink="http://www.w3.org/1999/xlink"><!--Generated by IJSVG (https://github.com/iconjar/IJSVG)--><g fill="none"><path d="M0,0h24v24h-24Z"></path><path stroke="#323232" stroke-linecap="round" stroke-linejoin="round" stroke-width="1.5" d="M16,17h-12c-0.552,0 -1,-0.448 -1,-1v-8c0,-0.552 0.448,-1 1,-1h12c0.552,0 1,0.448 1,1v8c0,0.552 -0.448,1 -1,1Z"></path><path stroke="#323232" stroke-linecap="round" stroke-linejoin="round" stroke-width="1.5" d="M6.5,20h7"></path><path stroke="#323232" stroke-linecap="round" stroke-linejoin="round" stroke-width="1.5" d="M16.75,20h3.25c0.552,0 1,-0.448 1,-1v-15c0,-0.552 -0.448,-1 -1,-1h-6.5c-0.552,0 -1,0.448 -1,1v2.187"></path><path stroke="#323232" stroke-linecap="round" stroke-linejoin="round" stroke-width="1.5" d="M10,17v3"></path></g></svg>