<svg viewBox="0 0 24 24" xmlns="http://www.w3.org/2000/svg"><g stroke-linecap="round" stroke-width="1.5" stroke="#323232" fill="none" stroke-linejoin="round"><path d="M10.98 20.73l-6.109-3.5 -.01-.01c-.64-.37-1.03-1.04-1.03-1.77V8.5l-.001 0c0-.74.39-1.41 1.02-1.77l6.109-3.5 -.01 0c.62-.36 1.39-.36 2.02-.01l6.1 3.49 0 0c.63.36 1.02 1.03 1.02 1.76v6.94l0-.01c0 .73-.4 1.4-1.03 1.76l-6.109 3.49 0-.01c-.63.35-1.4.35-2.03 0Z"/><path d="M7.904 15.507l1.13-5.69 -.01 0c.07-.4.38-.71.78-.79l5.682-1.14 -.01 0c.27-.06.53.12.58.39 .01.06.01.13 0 .19l-1.14 5.68 -.01 0c-.08.39-.39.7-.79.78l-5.69 1.13 0-.01c-.28.05-.54-.13-.59-.4 -.02-.07-.02-.14-.01-.2Z"/><path d="M11.99 11.87l0-.001c-.07 0-.13.05-.13.12 0 .06.05.12.12.12 .06-.01.12-.06.12-.13l0-.01c0-.07-.06-.13-.13-.13 -.01-.01-.01-.01-.01 0"/></g><path fill="none" d="M0 0h24v24H0Z"/></svg>