<?xml version="1.0" encoding="UTF-8"?><svg version="1.1" viewBox="0 0 24 24" xmlns="http://www.w3.org/2000/svg" xmlns:xlink="http://www.w3.org/1999/xlink"><!--Generated by IJSVG (https://github.com/iconjar/IJSVG)--><g stroke-linecap="round" stroke-width="1.5" stroke="#323232" fill="none" stroke-linejoin="round"><path d="M19.5,17.5h-3.465c-0.334,0 -0.647,0.167 -0.832,0.445l-0.406,0.609c-0.185,0.278 -0.498,0.445 -0.832,0.445h-4.93c-0.334,0 -0.647,-0.167 -0.832,-0.445l-0.406,-0.609c-0.186,-0.278 -0.498,-0.445 -0.833,-0.445h-3.464c-0.552,0 -1,0.448 -1,1v1c0,1.105 0.895,2 2,2h14c1.105,0 2,-0.895 2,-2v-1c0,-0.552 -0.448,-1 -1,-1Z"></path><path d="M11.102,5.5h-5.824c-0.982,0 -1.778,0.703 -1.778,1.571v10.429"></path><path d="M19.5,17.5v-5.257"></path><path d="M13.519,8c-0.069,0 -0.125,0.056 -0.124,0.125c0,0.069 0.056,0.125 0.125,0.125c0.069,0 0.125,-0.056 0.125,-0.125c-0.001,-0.069 -0.057,-0.125 -0.126,-0.125"></path><path d="M16.019,8c-0.069,0 -0.125,0.056 -0.124,0.125c0,0.069 0.056,0.125 0.125,0.125c0.069,0 0.125,-0.056 0.125,-0.125c-0.001,-0.069 -0.057,-0.125 -0.126,-0.125"></path><path d="M18.519,8c-0.069,0 -0.125,0.056 -0.125,0.125c0,0.069 0.056,0.125 0.125,0.125c0.069,0 0.125,-0.056 0.125,-0.125c0,-0.069 -0.056,-0.125 -0.125,-0.125"></path><path d="M11.133,10.559c-0.402,-0.765 -0.633,-1.635 -0.633,-2.559c0,-3.038 2.462,-5.5 5.5,-5.5c3.038,0 5.5,2.462 5.5,5.5c0,3.038 -2.462,5.5 -5.5,5.5c-0.917,0 -1.78,-0.228 -2.54,-0.624l-2.941,0.624l0.614,-2.941Z"></path></g><path fill="none" d="M0,0h24v24h-24Z"></path></svg>