<svg id="Layer_3" data-name="Layer 3" xmlns="http://www.w3.org/2000/svg" viewBox="0 0 24 24"><path d="M8.11124,15.88943l-.00066-.00066a5.5,5.5,0,1,1,.00066.00066" fill="none" stroke="#323232" stroke-linecap="round" stroke-linejoin="round" stroke-width="1.5"/><rect x="3" y="3.00001" width="18" height="18" rx="4" stroke-width="1.5" stroke="#323232" stroke-linecap="round" stroke-linejoin="round" fill="none"/><path d="M12.20625,14,13.25,12h-2.5l1.04375-2" fill="none" stroke="#323232" stroke-linecap="round" stroke-linejoin="round" stroke-width="1.5"/><path d="M6.1,18a.05.05,0,1,0-.05.05h0a.0495.0495,0,0,0,.05-.049V18" fill="none" stroke="#323232" stroke-linecap="round" stroke-linejoin="round" stroke-width="1.5"/><path d="M17.95,6A.05.05,0,1,0,18,5.95h0a.0495.0495,0,0,0-.05.049V6" fill="none" stroke="#323232" stroke-linecap="round" stroke-linejoin="round" stroke-width="1.5"/><path d="M18.025,17.925a.05.05,0,1,0,.05.05v0a.0495.0495,0,0,0-.049-.05h-.001" fill="none" stroke="#323232" stroke-linecap="round" stroke-linejoin="round" stroke-width="1.5"/><path d="M6.025,6.075a.05.05,0,1,0-.05-.05v0a.0495.0495,0,0,0,.049.05h.001" fill="none" stroke="#323232" stroke-linecap="round" stroke-linejoin="round" stroke-width="1.5"/><path d="M0,0H24V24H0Z" fill="none"/></svg>