<svg xmlns="http://www.w3.org/2000/svg" viewBox="0 0 24 24"><g id="Layer_2" data-name="Layer 2"><rect width="24" height="24" fill="none"/><circle cx="7" cy="11" r="1.5" fill="none" stroke="#323232" stroke-linecap="round" stroke-linejoin="round" stroke-width="1.5"/><path d="M17.19488,11.5537h0A7.11414,7.11414,0,0,0,16,15.5h0" fill="none" stroke="#323232" stroke-linecap="round" stroke-linejoin="round" stroke-width="1.5"/><line x1="22" y1="15.5" x2="2" y2="15.5" fill="none" stroke="#323232" stroke-linecap="round" stroke-linejoin="round" stroke-width="1.5"/><path d="M2,16a2,2,0,0,0,2,2H20a2,2,0,0,0,2-2V14.6791a3,3,0,0,0-3-3h-.58359a6,6,0,0,1-2.68327-.63343l-.01264-.00632a8,8,0,0,1-3.85012-4.1843l-.239-.59759A2,2,0,0,0,9.34053,5.04787L3.56614,6.33107A2,2,0,0,0,2,8.28344Z" fill="none" stroke="#323232" stroke-linecap="round" stroke-linejoin="round" stroke-width="1.5"/></g></svg>