<?xml version="1.0" encoding="UTF-8"?><svg version="1.1" viewBox="0 0 24 24" xmlns="http://www.w3.org/2000/svg" xmlns:xlink="http://www.w3.org/1999/xlink"><g fill="none"><path d="M0 0h24v24h-24Z"></path><path stroke="#323232" stroke-linecap="round" stroke-linejoin="round" stroke-width="1.5" d="M13.4815 3.44049h-2.96294l-8.38398e-08 1.61648e-13c-.844719 1.6481e-06-1.66775.26742-2.35115.76393l-2.39707 1.74158 -2.28375e-07 1.65926e-07c-.683389.496515-1.19205 1.19663-1.45309 2l-.9156 2.81793 -1.76508e-08 5.43234e-08c-.261033.803375-.261033 1.66877 3.53015e-08 2.47214l.9156 2.81793 4.03905e-08 1.24306e-07c.261038.803372.769701 1.50349 1.45309 2l2.39707 1.74158 1.49217e-07 1.08411e-07c.683395.496509 1.50643.763928 2.35115.76393h2.96294l2.10988e-07-4.12115e-13c.844719-1.67495e-06 1.66775-.26742 2.35115-.76393l2.39707-1.74158 -5.45349e-08 3.96222e-08c.683389-.496515 1.19205-1.19663 1.45309-2l.9156-2.81793 5.69411e-08-1.75246e-07c.261033-.803375.261033-1.66877-1.13882e-07-2.47214l-.9156-2.81793 7.25796e-08 2.23372e-07c-.261038-.803372-.769701-1.50349-1.45309-2l-2.39707-1.74158 1.46537e-07 1.06464e-07c-.683395-.49651-1.50643-.763928-2.35115-.76393Z"></path><path stroke="#323232" stroke-linecap="round" stroke-linejoin="round" stroke-width="1.5" d="M9.125 9v0c0 .0690356-.0559644.125-.125.125 -.0690356 0-.125-.0559644-.125-.125 0-.0690356.0559644-.125.125-.125 0 0 1.77636e-15 0 1.77636e-15 0"></path><path stroke="#323232" stroke-linecap="round" stroke-linejoin="round" stroke-width="1.5" d="M9 8.875l-5.46392e-09-1.77636e-15c.0690356-3.01764e-09.125.0559644.125.125"></path><path stroke="#323232" stroke-linecap="round" stroke-linejoin="round" stroke-width="1.5" d="M14.125 8v0c0 .0690356-.0559644.125-.125.125 -.0690356 0-.125-.0559644-.125-.125 0-.0690356.0559644-.125.125-.125"></path><path stroke="#323232" stroke-linecap="round" stroke-linejoin="round" stroke-width="1.5" d="M14 7.875h-5.46392e-09c.0690356-3.01764e-09.125.0559644.125.125"></path><path stroke="#323232" stroke-linecap="round" stroke-linejoin="round" stroke-width="1.5" d="M16.125 12v0c0 .0690356-.0559644.125-.125.125 -.0690356 0-.125-.0559644-.125-.125 0-.0690356.0559644-.125.125-.125 0 0 0 0 0 0"></path><path stroke="#323232" stroke-linecap="round" stroke-linejoin="round" stroke-width="1.5" d="M16 11.875h-5.46392e-09c.0690356-3.01764e-09.125.0559644.125.125"></path><path stroke="#323232" stroke-linecap="round" stroke-linejoin="round" stroke-width="1.5" d="M12.125 12v0c0 .0690356-.0559644.125-.125.125 -.0690356 0-.125-.0559644-.125-.125 0-.0690356.0559644-.125.125-.125 0 0 1.77636e-15 0 1.77636e-15 0"></path><path stroke="#323232" stroke-linecap="round" stroke-linejoin="round" stroke-width="1.5" d="M12 11.875h-5.46392e-09c.0690356-3.01764e-09.125.0559644.125.125"></path><path stroke="#323232" stroke-linecap="round" stroke-linejoin="round" stroke-width="1.5" d="M8.125 14v0c0 .0690356-.0559644.125-.125.125 -.0690356 0-.125-.0559644-.125-.125 0-.0690356.0559644-.125.125-.125 0 0 1.77636e-15 0 1.77636e-15 0"></path><path stroke="#323232" stroke-linecap="round" stroke-linejoin="round" stroke-width="1.5" d="M8 13.875l-5.46392e-09-1.77636e-15c.0690356-3.01764e-09.125.0559644.125.125"></path><path stroke="#323232" stroke-linecap="round" stroke-linejoin="round" stroke-width="1.5" d="M13.125 16v0c0 .0690356-.0559644.125-.125.125 -.0690356 0-.125-.0559644-.125-.125 0-.0690356.0559644-.125.125-.125 0 0 1.77636e-15 0 1.77636e-15 0"></path><path stroke="#323232" stroke-linecap="round" stroke-linejoin="round" stroke-width="1.5" d="M13 15.875l-5.46392e-09-1.77636e-15c.0690356-3.01764e-09.125.0559644.125.125"></path></g></svg>