<?xml version="1.0" encoding="UTF-8"?><svg version="1.1" viewBox="0 0 24 24" xmlns="http://www.w3.org/2000/svg" xmlns:xlink="http://www.w3.org/1999/xlink"><g transform="matrix(1 0 0 1 24 24)"><rect width="24" height="24" fill="none" transform="matrix(-1 1.22465e-16 -1.22465e-16 -1 0 0)"></rect></g><g stroke-linecap="round" stroke-width="1.5" fill-rule="evenodd" stroke="#323232" fill="none" stroke-linejoin="round"><path d="M16 21l-8.74228e-08-3.55271e-15c1.10457 4.82823e-08 2-.89543 2-2v-2"></path><path d="M3 19l2.30926e-14 3.01992e-07c1.66785e-07 1.10457.895431 2 2 2"></path><path d="M7 6h-2l-8.74228e-08 1.77636e-15c-1.10457 4.82823e-08-2 .895431-2 2 0 0 0 0 0 0"></path></g><line x1="3" x2="3" y1="12" y2="15" fill="none" stroke="#323232" stroke-linecap="round" stroke-linejoin="round" stroke-width="1.5"></line><g stroke-linecap="round" stroke-width="1.5" stroke="#323232" fill="none" stroke-linejoin="round"><line x1="9" x2="12" y1="21" y2="21"></line><line x1="10.11" x2="17.89" y1="13.11" y2="13.11"></line><line x1="10.11" x2="17.89" y1="10" y2="10"></line><line x1="10.11" x2="17.89" y1="6.89" y2="6.89"></line><path d="M7 15v-10l2.30926e-14 3.01992e-07c-1.66785e-07-1.10457.89543-2 2-2h10l-8.74228e-08 1.77636e-15c1.10457-4.82823e-08 2 .89543 2 2v10 0c0 1.10457-.895431 2-2 2h-10l-8.74228e-08-3.55271e-15c-1.10457-4.82823e-08-2-.895431-2-2 0 0 0 0 0 0Z"></path></g></svg>