<?xml version="1.0" encoding="UTF-8"?><svg version="1.1" viewBox="0 0 24 24" xmlns="http://www.w3.org/2000/svg" xmlns:xlink="http://www.w3.org/1999/xlink"><g stroke-linecap="round" stroke-width="1.5" stroke="#323232" fill="none" stroke-linejoin="round"><path d="M8 14h-3.615c-.765 0-1.385-.62-1.385-1.385v-8.23c0-.765.62-1.385 1.385-1.385h14.231c.764 0 1.384.62 1.384 1.385v4.615"></path><line x1="7" x2="10" y1="7" y2="10"></line><line x1="7" x2="7" y1="10" y2="7"></line><line x1="10" x2="7" y1="7" y2="7"></line><path d="M19 21h-5c-1.105 0-2-.895-2-2v-4c0-1.105.895-2 2-2h5c1.105 0 2 .895 2 2v4c0 1.105-.895 2-2 2Z"></path></g><rect width="24" height="24" fill="none"></rect></svg>