<?xml version="1.0" encoding="UTF-8"?><svg version="1.1" viewBox="0 0 24 24" xmlns="http://www.w3.org/2000/svg" xmlns:xlink="http://www.w3.org/1999/xlink"><!--Generated by IJSVG (https://github.com/iconjar/IJSVG)--><g stroke-linecap="round" stroke-width="1.5" stroke="#323232" fill="none" stroke-linejoin="round"><path d="M17,15h3.778c0.552,0 1,-0.448 1,-1v-7.385c0,-0.552 -0.448,-1 -1,-1h-3.778"></path><path d="M6.333,4h-2.187c-1.185,0 -2.146,0.961 -2.146,2.146v13.709c0,1.184 0.961,2.145 2.146,2.145h8.709c1.184,0 2.145,-0.961 2.145,-2.146v-13.708c0,-1.185 -0.961,-2.146 -2.146,-2.146h-2.188"></path><path d="M11.749,15.833c-0.1,0 -0.181,0.075 -0.18,0.167c0,0.092 0.081,0.167 0.181,0.167c0.1,0 0.181,-0.075 0.181,-0.167c0,-0.092 -0.081,-0.167 -0.182,-0.167"></path><path d="M5.249,15.833c-0.1,0 -0.181,0.075 -0.18,0.167c0,0.092 0.081,0.167 0.181,0.167c0.1,0 0.181,-0.075 0.181,-0.167c0,-0.092 -0.081,-0.167 -0.182,-0.167"></path><path d="M2,9h13"></path><path d="M15,13h-13"></path><path d="M8.499,15.833c-0.1,0 -0.181,0.075 -0.18,0.167c0,0.092 0.081,0.167 0.181,0.167c0.1,0 0.181,-0.075 0.181,-0.167c0,-0.092 -0.081,-0.167 -0.182,-0.167"></path><path d="M11.749,18.833c-0.1,0 -0.181,0.075 -0.18,0.167c0,0.092 0.081,0.167 0.181,0.167c0.1,0 0.181,-0.075 0.181,-0.167c0,-0.092 -0.081,-0.167 -0.182,-0.167"></path><path d="M5.249,18.833c-0.1,0 -0.181,0.075 -0.18,0.167c0,0.092 0.081,0.167 0.181,0.167c0.1,0 0.181,-0.075 0.181,-0.167c0,-0.092 -0.081,-0.167 -0.182,-0.167"></path><path d="M8.499,18.833c-0.1,0 -0.181,0.075 -0.18,0.167c0,0.092 0.081,0.167 0.181,0.167c0.1,0 0.181,-0.075 0.181,-0.167c0,-0.092 -0.081,-0.167 -0.182,-0.167"></path><path d="M6.333,2h4.333v4h-4.333Z"></path><path d="M20.5,19.5l-1.5,1.5l-1.5,-1.5"></path><path d="M19,18v3"></path><path d="M19,15v-9.39"></path></g><path fill="none" d="M0,0h24v24h-24Z"></path></svg>