<?xml version="1.0" encoding="UTF-8"?><svg version="1.1" viewBox="0 0 24 24" xmlns="http://www.w3.org/2000/svg" xmlns:xlink="http://www.w3.org/1999/xlink"><!--Generated by IJSVG (https://github.com/iconjar/IJSVG)--><g fill="none"><path d="M24,24h-24v-24h24v24Z"></path><path stroke="#323232" stroke-linecap="round" stroke-linejoin="round" stroke-width="1.5" d="M5.558,9.763l-0.287,-1.067c-0.289,-1.069 0.346,-2.168 1.416,-2.453l10.043,-2.676c1.06,-0.282 2.16,0.353 2.446,1.412l1.754,6.509c0.288,1.069 -0.348,2.168 -1.416,2.453l-2.114,0.563"></path><path stroke="#323232" stroke-linecap="round" stroke-linejoin="round" stroke-width="1.5" d="M5,20.5h10.4c1.105,0 2,-0.895 2,-2v-6.737c0,-1.105 -0.895,-2 -2,-2h-10.4c-1.105,0 -2,0.895 -2,2v6.737c0,1.105 0.896,2 2,2Z"></path><path stroke="#323232" stroke-linecap="round" stroke-linejoin="round" stroke-width="1.5" d="M3,13.84h14.4"></path></g></svg>