<?xml version="1.0" encoding="UTF-8"?><svg version="1.1" viewBox="0 0 24 24" xmlns="http://www.w3.org/2000/svg" xmlns:xlink="http://www.w3.org/1999/xlink"><g fill="none"><path d="M24 0v24h-24v-24Z"></path><path stroke="#323232" stroke-linecap="round" stroke-linejoin="round" stroke-width="1.5" d="M10 12l1.77636e-14 2.26494e-07c1.25089e-07.828427.671573 1.5 1.5 1.5h4l6.55671e-08-1.06581e-14c.828427-1.61301e-07 1.5-.671573 1.5-1.5v-3 0c0-.828427-.671573-1.5-1.5-1.5h-4l-6.55671e-08 1.77636e-15c-.828427 3.62117e-08-1.5.671573-1.5 1.5v3Z"></path><path stroke="#323232" stroke-linecap="round" stroke-linejoin="round" stroke-width="1.5" d="M17 10.5h-8.5l-6.55671e-08 1.77636e-15c-.828427 3.62117e-08-1.5.671573-1.5 1.5 0 0 0 1.77636e-15 0 1.77636e-15v3h-1.77636e-15l1.68754e-14 2.26494e-07c1.25089e-07.828427.671573 1.5 1.5 1.5h4l6.55671e-08-1.06581e-14c.828427-1.61301e-07 1.5-.671573 1.5-1.5v-1.5"></path><path stroke="#323232" stroke-linecap="round" stroke-linejoin="round" stroke-width="1.5" d="M5.636 5.636l7.58381e-07-7.71455e-07c3.48455-3.54463 9.18283-3.59332 12.7275-.10877 3.54463 3.48455 3.59332 9.18283.10877 12.7275 -.0942925.0959181-.190723.18971-.28922.281306l-1.51199e-07 1.40027e-07c-3.48608 3.22851-8.86926 3.23155-12.359.00699972l-5.07693e-07-4.79218e-07c-3.61462-3.41189-3.77897-9.10801-.367078-12.7226 .0588097-.0623042.118506-.123765.179071-.184365"></path></g></svg>