<?xml version="1.0" encoding="UTF-8"?><svg version="1.1" viewBox="0 0 24 24" xmlns="http://www.w3.org/2000/svg" xmlns:xlink="http://www.w3.org/1999/xlink"><!--Generated by IJSVG (https://github.com/iconjar/IJSVG)--><g stroke-linecap="round" stroke-width="1.5" stroke="#323232" fill="none" stroke-linejoin="round"><path d="M14.98,16l5.434,-5.434c0.781,-0.781 0.781,-2.047 0,-2.828l-3.151,-3.151c-0.781,-0.781 -2.047,-0.781 -2.828,0l-6.141,6.141c-0.781,0.781 -0.781,2.047 0,2.828l2.444,2.444"></path><path d="M20,20h-16c-0.552,0 -1,-0.448 -1,-1v-2c0,-0.552 0.448,-1 1,-1h16c0.552,0 1,0.448 1,1v2c0,0.552 -0.448,1 -1,1Z"></path><path d="M3,4h5"></path><path d="M3,7h3"></path><path d="M3,10h1"></path><path d="M9.12,14.38l8.97,-8.97"></path></g><path fill="none" d="M0,0h24v24h-24Z"></path></svg>