<?xml version="1.0" encoding="UTF-8"?><svg version="1.1" viewBox="0 0 24 24" xmlns="http://www.w3.org/2000/svg" xmlns:xlink="http://www.w3.org/1999/xlink"><!--Generated by IJSVG (https://github.com/iconjar/IJSVG)--><g stroke-linecap="round" stroke-width="1.5" stroke="#323232" fill="none" stroke-linejoin="round"><path d="M2.5,7.6h19"></path><path d="M7,16.75h-2.5c-1.105,0 -2,-0.895 -2,-2v-9c0,-1.105 0.895,-2 2,-2h15c1.105,0 2,0.895 2,2v9c0,1.105 -0.895,2 -2,2h-2.5"></path><path d="M12,21.75c2.75,0 5,-2.25 5,-5c0,-2.75 -2.25,-5 -5,-5c-2.75,0 -5,2.25 -5,5c0,1.122 0.379,2.157 1.009,2.993c0.914,1.215 2.363,2.007 3.991,2.007Z"></path><path d="M12,14.5v-0.75"></path><path d="M12,19v0.75"></path><path d="M10.698,18.464c0.194,0.318 0.526,0.538 0.927,0.538h0.375h0.447c0.582,0 1.053,-0.472 1.053,-1.053c0,-0.483 -0.329,-0.904 -0.797,-1.022l-1.406,-0.353c-0.468,-0.118 -0.797,-0.539 -0.797,-1.022c0,-0.582 0.472,-1.053 1.053,-1.053h0.447h0.375c0.4,0 0.731,0.219 0.925,0.536"></path></g><path fill="none" d="M0,0h24v24h-24Z"></path></svg>