<svg id="Layer_3" data-name="Layer 3" xmlns="http://www.w3.org/2000/svg" viewBox="0 0 24 24"><rect width="24" height="24" fill="none"/><path d="M18.5,19.5,17,21l1.5,1.5" fill="none" stroke="#323232" stroke-linecap="round" stroke-linejoin="round" stroke-width="1.5"/><path d="M22,18v.00038A2.99981,2.99981,0,0,1,19,21H17" fill="none" stroke="#323232" stroke-linecap="round" stroke-linejoin="round" stroke-width="1.5"/><path d="M5.5,4.5,7,3,5.5,1.5" fill="none" stroke="#323232" stroke-linecap="round" stroke-linejoin="round" stroke-width="1.5"/><path d="M2,6V5.99962A2.99981,2.99981,0,0,1,5,3H7" fill="none" stroke="#323232" stroke-linecap="round" stroke-linejoin="round" stroke-width="1.5"/><line x1="6" y1="17" x2="8" y2="17" fill="none" stroke="#323232" stroke-linecap="round" stroke-linejoin="round" stroke-width="1.5"/><path d="M15,13v4.75007A2.25,2.25,0,0,1,12.75007,20H5.24993A2.24931,2.24931,0,0,1,3,17.75131V13.24993A2.24931,2.24931,0,0,1,5.24869,11H9" fill="none" stroke="#323232" stroke-linecap="round" stroke-linejoin="round" stroke-width="1.5"/><path d="M11.24993,12.99972h7.50014A2.24993,2.24993,0,0,0,21,10.74979V6.24993A2.24993,2.24993,0,0,0,18.75007,4H11.24993A2.24993,2.24993,0,0,0,9,6.24993v4.49986A2.24993,2.24993,0,0,0,11.24993,12.99972Z" fill="none" stroke="#323232" stroke-linecap="round" stroke-linejoin="round" stroke-width="1.5"/><circle cx="15" cy="8.49986" r="1.5" fill="none" stroke="#323232" stroke-linecap="round" stroke-linejoin="round" stroke-width="1.5"/></svg>