<svg id="Layer_3" data-name="Layer 3" xmlns="http://www.w3.org/2000/svg" viewBox="0 0 24 24"><path d="M0,0H24V24H0Z" fill="none"/><path d="M3,7H21" fill="none" stroke="#323232" stroke-linecap="round" stroke-linejoin="round" stroke-width="1.5"/><path d="M9,11H6.479" fill="none" stroke="#323232" stroke-linecap="round" stroke-linejoin="round" stroke-width="1.5"/><path d="M10,17H6a3,3,0,0,1-3-3V6A3,3,0,0,1,6,3H18a3,3,0,0,1,3,3v5" fill="none" stroke="#323232" stroke-linecap="round" stroke-linejoin="round" stroke-width="1.5"/><path d="M14,16.6854v-.996a.875.875,0,0,1,.614-.83519l2.58769-.80866a1.00005,1.00005,0,0,1,.59655,0l2.58771.80866a.875.875,0,0,1,.614.83519v.996a4.375,4.375,0,0,1-2.83885,4.09644l-.50754.19032a.43737.43737,0,0,1-.30722,0l-.50756-.19033A4.375,4.375,0,0,1,14,16.6854Z" fill="none" stroke="#323232" stroke-linecap="round" stroke-linejoin="round" stroke-width="1.5"/></svg>