<svg id="Layer_3" data-name="Layer 3" xmlns="http://www.w3.org/2000/svg" viewBox="0 0 24 24"><rect width="24" height="24" fill="none"/><path d="M18,16h1.5A2.5,2.5,0,0,0,22,13.5v-7A2.5,2.5,0,0,0,19.5,4H8.5A2.5,2.5,0,0,0,6,6.5V8" fill="none" stroke="#323232" stroke-linecap="round" stroke-linejoin="round" stroke-width="1.5"/><path d="M12.995,14,13,13.995l.005.005L13,14.005,12.995,14" fill="none" stroke="#323232" stroke-linecap="round" stroke-linejoin="round" stroke-width="1.5"/><path d="M9.995,14,10,13.995l.005.005L10,14.005,9.995,14" fill="none" stroke="#323232" stroke-linecap="round" stroke-linejoin="round" stroke-width="1.5"/><path d="M6.995,14,7,13.995,7.005,14,7,14.005,6.995,14" fill="none" stroke="#323232" stroke-linecap="round" stroke-linejoin="round" stroke-width="1.5"/><rect x="2" y="8" width="16.00001" height="12" rx="2.5" stroke-width="1.5" stroke="#323232" stroke-linecap="round" stroke-linejoin="round" fill="none"/></svg>