<svg viewBox="0 0 24 24" xmlns="http://www.w3.org/2000/svg"><g fill="none"><path d="M0 0h24v24H0Z"/><g stroke-linecap="round" stroke-width="1.5" stroke="#323232" fill="none" stroke-linejoin="round"><path d="M16 21H8l-.01-.001c-2.77-.01-5-2.24-5-5.01 0 0 0-.001 0-.001v-8l0 0c-.01-2.77 2.23-5.01 4.99-5.01h8l-.01 0c2.76-.01 5 2.23 5 4.99v8l0 0c0 2.76-2.24 4.99-5 5Z"/><path d="M14.27 15v-2.56 0c0-.83-.68-1.5-1.5-1.5H7.99l-.01 0c-.83 0-1.5.67-1.5 1.5 0 0 0 0 0 0v2.55l0 0c0 .82.67 1.49 1.5 1.49h4.77l0-.001c.82-.01 1.49-.68 1.49-1.5Z"/><path d="M9.31 10.94l.63-2.33 -.01 0c.21-.8 1.02-1.28 1.82-1.07 0 0 0 0 0 0l4.62 1.24 -.01-.01c.8.21 1.27 1.03 1.06 1.83 -.01 0-.01 0-.01 0l-.76 2.84 -.01 0c-.17.59-.77.93-1.36.78l-1.05-.28"/></g></g></svg>