<svg id="Layer_3" data-name="Layer 3" xmlns="http://www.w3.org/2000/svg" viewBox="0 0 24 24"><rect width="24" height="24" fill="none"/><path d="M7.5,9.5v3a2,2,0,0,0,2,2h5a2,2,0,0,0,2-2v-3a2,2,0,0,0-2-2h-5A2,2,0,0,0,7.5,9.5Z" fill="none" stroke="#323232" stroke-linecap="round" stroke-linejoin="round" stroke-width="1.5"/><path d="M16.5,10.5h-9" fill="none" stroke="#323232" stroke-linecap="round" stroke-linejoin="round" stroke-width="1.5"/><path d="M18.0104,4.98159h0a8.4534,8.4534,0,0,1,0,11.98217h0l-3.51881,3.50751a3.53173,3.53173,0,0,1-4.97146.01166l-.01174-.01166L5.98958,16.9638A8.45357,8.45357,0,0,1,5.98952,4.98159h0A8.5195,8.5195,0,0,1,17.982,4.95346l.02832.02813Z" fill="none" stroke="#323232" stroke-linecap="round" stroke-linejoin="round" stroke-width="1.5"/></svg>