<?xml version="1.0" encoding="UTF-8"?><svg version="1.1" viewBox="0 0 24 24" xmlns="http://www.w3.org/2000/svg" xmlns:xlink="http://www.w3.org/1999/xlink"><g fill="none"><path d="M0 0h24v24h-24v-24Z"></path><path stroke="#323232" stroke-linecap="round" stroke-linejoin="round" stroke-width="1.5" d="M19 17h-3.465c-.334 0-.647.167-.832.445l-.406.609c-.185.278-.498.445-.832.445h-4.93c-.334 0-.647-.167-.832-.445l-.406-.609c-.186-.278-.498-.445-.833-.445h-3.464c-.552 0-1 .448-1 1v1c0 1.105.895 2 2 2h14c1.105 0 2-.895 2-2v-1c0-.552-.448-1-1-1Z"></path><path stroke="#323232" stroke-linecap="round" stroke-linejoin="round" stroke-width="1.5" d="M19 17v-5"></path><path stroke="#323232" stroke-linecap="round" stroke-linejoin="round" stroke-width="1.5" d="M3 17v-10c0-1.105.895-2 2-2h4"></path><path stroke="#323232" stroke-linecap="round" stroke-linejoin="round" stroke-width="1.5" d="M12 3.8v3.6c0 .994.806 1.8 1.8 1.8h5.4c.994 0 1.8-.806 1.8-1.8v-3.6c-3.55271e-15-.994-.806-1.8-1.8-1.8h-5.4c-.994 0-1.8.806-1.8 1.8Z"></path><path stroke="#323232" stroke-linecap="round" stroke-linejoin="round" stroke-width="1.5" d="M21 5h-9"></path></g></svg>