<?xml version="1.0" encoding="UTF-8"?><svg version="1.1" viewBox="0 0 24 24" xmlns="http://www.w3.org/2000/svg" xmlns:xlink="http://www.w3.org/1999/xlink"><!--Generated by IJSVG (https://github.com/iconjar/IJSVG)--><g stroke-linecap="round" stroke-width="1.5" stroke="#323232" fill="none" stroke-linejoin="round"><path d="M16,11v-4c0,-1.105 -0.895,-2 -2,-2h-9c-1.105,0 -2,0.895 -2,2v5c0,1.105 0.895,2 2,2h3"></path><path d="M19,20h-9c-1.105,0 -2,-0.895 -2,-2v-5c0,-1.105 0.895,-2 2,-2h9c1.105,0 2,0.895 2,2v5c0,1.105 -0.895,2 -2,2Z"></path><path d="M16,8h-13"></path><path d="M8,14h13"></path></g><path fill="none" d="M0,0h24v24h-24Z"></path></svg>