<?xml version="1.0" encoding="UTF-8"?><svg version="1.1" viewBox="0 0 24 24" xmlns="http://www.w3.org/2000/svg" xmlns:xlink="http://www.w3.org/1999/xlink"><!--Generated by IJSVG (https://github.com/iconjar/IJSVG)--><g stroke-linecap="round" stroke-width="1.5" stroke="#323232" fill="none" stroke-linejoin="round"><path d="M3,6h13"></path><path d="M19,10h-6c-1.105,0 -2,-0.895 -2,-2v-4c0,-1.105 0.895,-2 2,-2h6c1.105,0 2,0.895 2,2v4c0,1.105 -0.895,2 -2,2Z"></path><path d="M21,18h-13"></path><path d="M19,20l2,-2l-2,-2"></path><path d="M5,14h6c1.105,0 2,0.895 2,2v4c0,1.105 -0.895,2 -2,2h-6c-1.105,0 -2,-0.895 -2,-2v-4c0,-1.105 0.895,-2 2,-2Z"></path><path d="M5,4l-2,2l2,2"></path></g><path fill="none" d="M0,0h24v24h-24Z"></path></svg>