<svg viewBox="0 0 24 24" xmlns="http://www.w3.org/2000/svg"><g stroke-linecap="round" stroke-width="1.5" stroke="#323232" fill="none" stroke-linejoin="round"><path d="M3 5.5l0 3 3 0"/><path d="M3.05 13l-.01-.01c.55 4.93 5.01 8.47 9.94 7.91 4.93-.56 8.47-5.02 7.91-9.95 -.56-4.94-5.02-8.48-9.95-7.92 -3.24.36-6.02 2.44-7.28 5.44"/><path d="M8.25 10.5v3l0 0c0 .82.67 1.49 1.5 1.49h4.5l-.01-.001c.82 0 1.5-.68 1.5-1.5v-3l0-.01c0-.83-.68-1.5-1.5-1.5 -.01 0-.01 0-.01 0h-4.5l-.01 0c-.83 0-1.5.67-1.5 1.5Z"/><path d="M15.75 11.5h-7.5"/></g><path fill="none" d="M0 0h24v24H0Z"/></svg>