<svg viewBox="0 0 24 24" xmlns="http://www.w3.org/2000/svg"><g stroke-linecap="round" stroke-width="1.5" stroke="#323232" fill="none" stroke-linejoin="round"><path d="M3 8h18"/><path d="M9.5 12H7"/><path d="M10 18H6l-.01-.001c-1.66-.01-3-1.35-3-3 0 0 0-.001 0-.001v-8l0 0c-.01-1.66 1.34-3.01 2.99-3.01h12l-.01 0c1.65-.01 3 1.34 3 3v4"/><path d="M17 21l-.01-.001c-2.21-.01-4-1.8-4-4.01s1.79-4 4-4c2.2 0 4 1.79 3.99 4v0c0 2.2-1.8 4-4 4"/><path d="M19.82 19.82l-2.83-2.83v-4"/></g><path fill="none" d="M0 24V0h24v24Z"/></svg>