<svg id="Layer_3" data-name="Layer 3" xmlns="http://www.w3.org/2000/svg" viewBox="0 0 24 24"><path d="M24,24H0V0H24Z" fill="none"/><path d="M16.30264,9.31076l-1.69232.33912L12.70779,7.74363a1,1,0,0,0-1.41558,0L9.38968,9.64988,7.69736,9.31076a1,1,0,0,0-1.16367,1.23453L7.8886,15.704a1,1,0,0,0,.96719.746h6.28842a1,1,0,0,0,.96719-.746l1.35491-5.15874A1,1,0,0,0,16.30264,9.31076Z" fill="none" stroke="#323232" stroke-linecap="round" stroke-linejoin="round" stroke-width="1.5"/><rect x="3" y="3" width="18" height="18" rx="5" stroke-width="1.5" stroke="#323232" stroke-linecap="round" stroke-linejoin="round" fill="none"/><path d="M11.75024,13.00085v-.00061a.24946.24946,0,1,1,0,.00061" fill="none" stroke="#323232" stroke-linecap="round" stroke-linejoin="round" stroke-width="1.5"/></svg>