<svg viewBox="0 0 24 24" xmlns="http://www.w3.org/2000/svg"><g stroke-linecap="round" stroke-width="1.5" stroke="#323232" fill="none" stroke-linejoin="round"><rect width="18" height="18" x="3" y="3" rx="5"/><path d="M14 11l2.22-1.49 -.001 0c.22-.16.54-.1.69.13 .05.08.08.17.08.27v5.06 0c0 .55-.45 1-1 1h-8l-.01-.001c-.56-.01-1-.45-1-1.01 0 0 0 0 0 0v-5.07l-.01 0c0-.28.22-.5.5-.5 .09 0 .19.02.27.08l2.22 1.48 1.58-2.38 0-.01c.15-.23.46-.3.69-.14 .05.03.1.08.13.13Z"/></g><path fill="none" d="M0 0h24v24H0Z"/></svg>