<svg id="Layer_3" data-name="Layer 3" xmlns="http://www.w3.org/2000/svg" viewBox="0 0 24 24"><path d="M0,0H24V24H0Z" fill="none"/><path d="M12,3h-.5A8.5,8.5,0,0,0,3,11.5v0A9.5,9.5,0,0,0,12.5,21h0A8.5,8.5,0,0,0,21,12.5V12" fill="none" stroke="#323232" stroke-linecap="round" stroke-linejoin="round" stroke-width="1.5"/><path d="M16.55556,2h0A5.44444,5.44444,0,0,1,22,7.44444h0" fill="none" stroke="#323232" stroke-linecap="round" stroke-linejoin="round" stroke-width="1.5"/><path d="M16.55556,5h0A2.44444,2.44444,0,0,1,19,7.44444h0" fill="none" stroke="#323232" stroke-linecap="round" stroke-linejoin="round" stroke-width="1.5"/><path d="M10,15V9" fill="none" stroke="#323232" stroke-linecap="round" stroke-linejoin="round" stroke-width="1.5"/><path d="M12.06035,8V9" fill="none" stroke="#323232" stroke-linecap="round" stroke-linejoin="round" stroke-width="1.5"/><path d="M12.06035,15v1" fill="none" stroke="#323232" stroke-linecap="round" stroke-linejoin="round" stroke-width="1.5"/><path d="M10,12h3.5A1.5,1.5,0,0,1,15,13.5v0A1.5,1.5,0,0,1,13.5,15H10a0,0,0,0,1,0,0V12A0,0,0,0,1,10,12Z" fill="none" stroke="#323232" stroke-linecap="round" stroke-linejoin="round" stroke-width="1.5"/><path d="M9.99995,9h3.15a1.5,1.5,0,0,1,1.5,1.5v0a1.5,1.5,0,0,1-1.5,1.5h-3.15a0,0,0,0,1,0,0V9A0,0,0,0,1,9.99995,9Z" fill="none" stroke="#323232" stroke-linecap="round" stroke-linejoin="round" stroke-width="1.5"/></svg>