<?xml version="1.0" encoding="UTF-8"?><svg version="1.1" viewBox="0 0 24 24" xmlns="http://www.w3.org/2000/svg" xmlns:xlink="http://www.w3.org/1999/xlink"><!--Generated by IJSVG (https://github.com/iconjar/IJSVG)--><g stroke-linecap="round" stroke-width="1.5" stroke="#323232" fill="none" stroke-linejoin="round"><path d="M3,9v-3c0,-1.105 0.895,-2 2,-2h3"></path><path d="M8,4l-2,-2l2,2l-2,2"></path><path fill-rule="evenodd" d="M20.254,8.583h-7.007c-0.582,0 -1.054,-0.472 -1.054,-1.054v-4.475c-0.001,-0.582 0.471,-1.054 1.053,-1.054h7.007c0.582,0 1.054,0.472 1.054,1.054v4.475c0.001,0.582 -0.471,1.054 -1.053,1.054Z"></path><path d="M15,11h4"></path><path fill-rule="evenodd" d="M10.946,19.583h-7.007c-0.582,0 -1.054,-0.472 -1.054,-1.054v-4.475c0,-0.582 0.472,-1.054 1.054,-1.054h7.007c0.582,0 1.054,0.472 1.054,1.054v4.475c0,0.582 -0.472,1.054 -1.054,1.054Z"></path><path d="M5.69,22h4"></path><path d="M16,20l2,-2"></path><path d="M16,20l2,2l-2,-2"></path><path d="M21,15v3c0,1.105 -0.895,2 -2,2h-3"></path></g><path fill="none" d="M0,0h24v24h-24Z"></path></svg>