<?xml version="1.0" encoding="UTF-8"?><svg version="1.1" viewBox="0 0 24 24" xmlns="http://www.w3.org/2000/svg" xmlns:xlink="http://www.w3.org/1999/xlink"><!--Generated by IJSVG (https://github.com/iconjar/IJSVG)--><g stroke-linecap="round" stroke-width="1.5" stroke="#323232" fill="none" stroke-linejoin="round"><path d="M8,4l-1.5,1.5"></path><path d="M6.5,2.5l1.5,1.5"></path><path d="M8,4h-2c-1.657,0 -3,1.343 -3,3"></path><path d="M16,20l1.5,-1.5"></path><path d="M17.5,21.5l-1.5,-1.5"></path><path d="M16,20h2c1.657,0 3,-1.343 3,-3"></path><path d="M18.389,5.611c2.139,2.139 2.139,5.639 0,7.778c-0.171,0.171 -0.358,0.314 -0.547,0.453"></path><path d="M18.389,5.611c-2.139,-2.139 -5.639,-2.139 -7.778,0c-0.17,0.17 -0.316,0.355 -0.458,0.542"></path><path d="M15,14.5c0,3.038 -2.462,5.5 -5.5,5.5c-3.038,0 -5.5,-2.462 -5.5,-5.5c0,-3.038 2.462,-5.5 5.5,-5.5c3.038,0 5.5,2.462 5.5,5.5"></path><path d="M10.527,16.738h-2.625v-2.25h2.624c0.622,0 1.125,0.504 1.125,1.125v0c0.001,0.622 -0.502,1.125 -1.124,1.125Z"></path><path d="M7.902,14.488v-2.321h2.341c0.641,0 1.16,0.519 1.16,1.161v0c0,0.641 -0.519,1.16 -1.16,1.16"></path></g><path fill="none" d="M0,0h24v24h-24Z"></path></svg>