<?xml version="1.0" encoding="UTF-8"?><svg version="1.1" viewBox="0 0 24 24" xmlns="http://www.w3.org/2000/svg" xmlns:xlink="http://www.w3.org/1999/xlink"><!--Generated by IJSVG (https://github.com/iconjar/IJSVG)--><g fill="none"><path d="M0,0h24v24h-24v-24Z"></path><path stroke="#323232" stroke-linecap="round" stroke-linejoin="round" stroke-width="1.5" d="M12,21c4.95,0 9,-4.05 9,-9c0,-4.95 -4.05,-9 -9,-9"></path><path stroke="#323232" stroke-linecap="round" stroke-linejoin="round" stroke-width="1.5" d="M12,21c-2.931,0 -5.538,-1.426 -7.184,-3.612"></path><path stroke="#323232" stroke-linecap="round" stroke-linejoin="round" stroke-width="1.5" d="M13.027,14.238h-2.625v-2.25h2.624c0.622,0 1.125,0.504 1.125,1.125v0c0.001,0.622 -0.502,1.125 -1.124,1.125Z"></path><path stroke="#323232" stroke-linecap="round" stroke-linejoin="round" stroke-width="1.5" d="M10.402,11.988v-2.321h2.34c0.641,0 1.161,0.519 1.161,1.161v0c0,0.641 -0.52,1.16 -1.161,1.16"></path><path stroke="#323232" stroke-dasharray="0 2.8" stroke-linecap="round" stroke-linejoin="round" stroke-width="1.5" d="M17.5,12c0,3.038 -2.462,5.5 -5.5,5.5"></path><path stroke="#323232" stroke-linecap="round" stroke-linejoin="round" stroke-width="1.5" d="M12,17.5c-3.038,0 -5.5,-2.462 -5.5,-5.5c0,-3.038 2.462,-5.5 5.5,-5.5c3.038,0 5.5,2.462 5.5,5.5"></path><path stroke="#323232" stroke-dasharray="0 3.3" stroke-linecap="round" stroke-linejoin="round" stroke-width="1.5" d="M4.816,17.388c-1.134,-1.506 -1.816,-3.369 -1.816,-5.388c0,-4.95 4.05,-9 9,-9"></path></g></svg>