<?xml version="1.0" encoding="UTF-8"?><svg version="1.1" viewBox="0 0 24 24" xmlns="http://www.w3.org/2000/svg" xmlns:xlink="http://www.w3.org/1999/xlink"><!--Generated by IJSVG (https://github.com/iconjar/IJSVG)--><g fill="none"><path d="M0,0h24v24h-24Z"></path><path stroke="#323232" stroke-linecap="round" stroke-linejoin="round" stroke-width="1.5" d="M15.779,12h-2.106c-0.464,0 -0.84,-0.376 -0.84,-0.84v-1.622h2.945c0.675,0 1.221,0.547 1.221,1.221v0.019c0.001,0.675 -0.546,1.222 -1.22,1.222Z"></path><path stroke="#323232" stroke-linecap="round" stroke-linejoin="round" stroke-width="1.5" d="M15.483,9.538h-2.649v-1.685c-0.001,-0.471 0.381,-0.853 0.852,-0.853h1.797c0.685,0 1.24,0.555 1.24,1.24v0.058c0,0.685 -0.555,1.24 -1.24,1.24Z"></path><path stroke="#323232" stroke-linecap="round" stroke-linejoin="round" stroke-width="1.5" d="M13.67,7h-1.67"></path><path stroke="#323232" stroke-linecap="round" stroke-linejoin="round" stroke-width="1.5" d="M13.67,12h-1.67"></path><path stroke="#323232" stroke-linecap="round" stroke-linejoin="round" stroke-width="1.5" d="M20.414,15.586l-4.828,4.828c-0.375,0.375 -0.884,0.586 -1.414,0.586h-9.172c-1.105,0 -2,-0.895 -2,-2v-9.172c0,-0.53 0.211,-1.039 0.586,-1.414l4.828,-4.828c0.375,-0.375 0.884,-0.586 1.414,-0.586h9.172c1.105,0 2,0.895 2,2v9.172c0,0.53 -0.211,1.039 -0.586,1.414Z"></path><path stroke="#323232" stroke-linecap="round" stroke-linejoin="round" stroke-width="1.5" d="M9,15l-2,2"></path><path stroke="#323232" stroke-linecap="round" stroke-linejoin="round" stroke-width="1.5" d="M14,15l-2,2"></path><path stroke="#323232" stroke-linecap="round" stroke-linejoin="round" stroke-width="1.5" d="M9,10l-2,2"></path></g></svg>