<?xml version="1.0" encoding="UTF-8"?><svg version="1.1" viewBox="0 0 24 24" xmlns="http://www.w3.org/2000/svg" xmlns:xlink="http://www.w3.org/1999/xlink"><!--Generated by IJSVG (https://github.com/iconjar/IJSVG)--><g fill="none"><path d="M0,0h24v24h-24v-24Z"></path><path stroke="#323232" stroke-linecap="round" stroke-linejoin="round" stroke-width="1.5" d="M4.1,21h16h-16Z"></path><path stroke="#323232" stroke-linecap="round" stroke-linejoin="round" stroke-width="1.5" d="M13.651,14.435h-4.219v-3.616h4.217c0.999,0 1.809,0.81 1.809,1.809v0c0.001,0.998 -0.809,1.807 -1.807,1.807Z"></path><path stroke="#323232" stroke-linecap="round" stroke-linejoin="round" stroke-width="1.5" d="M9.432,10.818v-3.73h3.761c1.03,0 1.865,0.835 1.865,1.865v0c0,1.03 -0.835,1.865 -1.865,1.865"></path><path stroke="#323232" stroke-linecap="round" stroke-linejoin="round" stroke-width="1.5" d="M11.787,6.017v1.069"></path><path stroke="#323232" stroke-linecap="round" stroke-linejoin="round" stroke-width="1.5" d="M11.787,15.659v-1.205"></path><path stroke="#323232" stroke-linecap="round" stroke-linejoin="round" stroke-width="1.5" d="M5.636,17.364c-3.515,-3.515 -3.515,-9.213 0,-12.728c3.515,-3.515 9.213,-3.515 12.728,0c3.515,3.515 3.515,9.213 0,12.728"></path></g></svg>