<svg id="Layer_3" data-name="Layer 3" xmlns="http://www.w3.org/2000/svg" viewBox="0 0 24 24"><path d="M5,6V16" fill="none" stroke="#323232" stroke-linecap="round" stroke-linejoin="round" stroke-width="1.5"/><path id="a" d="M6,20H4a1.00036,1.00036,0,0,1-1-1V17a1.00036,1.00036,0,0,1,1-1H6a1.00036,1.00036,0,0,1,1,1v2A1.00036,1.00036,0,0,1,6,20Z" fill="none" stroke="#323232" stroke-linecap="round" stroke-linejoin="round" stroke-width="1.5"/><path id="a-2" data-name="a" d="M6,20H4a1.00036,1.00036,0,0,1-1-1V17a1.00036,1.00036,0,0,1,1-1H6a1.00036,1.00036,0,0,1,1,1v2A1.00036,1.00036,0,0,1,6,20Z" fill="none" stroke="#323232" stroke-linecap="round" stroke-linejoin="round" stroke-width="1.5"/><path d="M20,6H18a1.00036,1.00036,0,0,1-1-1V3a1.00036,1.00036,0,0,1,1-1h2a1.00036,1.00036,0,0,1,1,1V5A1.00036,1.00036,0,0,1,20,6Z" fill="none" stroke="#323232" stroke-linecap="round" stroke-linejoin="round" stroke-width="1.5"/><path id="b" d="M6,6H4A1.00036,1.00036,0,0,1,3,5V3A1.00036,1.00036,0,0,1,4,2H6A1.00036,1.00036,0,0,1,7,3V5A1.00036,1.00036,0,0,1,6,6Z" fill="none" stroke="#323232" stroke-linecap="round" stroke-linejoin="round" stroke-width="1.5"/><path id="b-2" data-name="b" d="M6,6H4A1.00036,1.00036,0,0,1,3,5V3A1.00036,1.00036,0,0,1,4,2H6A1.00036,1.00036,0,0,1,7,3V5A1.00036,1.00036,0,0,1,6,6Z" fill="none" stroke="#323232" stroke-linecap="round" stroke-linejoin="round" stroke-width="1.5"/><path d="M7,18H9" fill="none" stroke="#323232" stroke-linecap="round" stroke-linejoin="round" stroke-width="1.5"/><path d="M16.4996,19.45a.04943.04943,0,0,0-.0496.04925V19.5a.05.05,0,1,0,.05-.05h-.0004" fill="none" stroke="#323232" stroke-linecap="round" stroke-linejoin="round" stroke-width="1.5"/><rect x="12" y="11" width="9" height="11" rx="2" stroke-width="1.5" stroke="#323232" stroke-linecap="round" stroke-linejoin="round" fill="none"/><line x1="18" y1="16.5" x2="15" y2="16.5" fill="none" stroke="#323232" stroke-linecap="round" stroke-linejoin="round" stroke-width="1.5"/><line x1="15" y1="14" x2="18" y2="14" fill="none" stroke="#323232" stroke-linecap="round" stroke-linejoin="round" stroke-width="1.5"/><path d="M17,4H7" fill="none" stroke="#323232" stroke-linecap="round" stroke-linejoin="round" stroke-width="1.5"/><path d="M19,6V8" fill="none" stroke="#323232" stroke-linecap="round" stroke-linejoin="round" stroke-width="1.5"/><path d="M0,0H24V24H0Z" fill="none"/></svg>