<?xml version="1.0" encoding="UTF-8"?><svg version="1.1" viewBox="0 0 24 24" xmlns="http://www.w3.org/2000/svg" xmlns:xlink="http://www.w3.org/1999/xlink"><g stroke-linecap="round" stroke-width="1.5" stroke="#323232" fill="none" stroke-linejoin="round"><path d="M19 21h-14c-1.105 0-2-.895-2-2v-14c0-1.105.895-2 2-2h14c1.105 0 2 .895 2 2v14c0 1.105-.895 2-2 2Z"></path><path d="M3 8h18"></path><path d="M15.248 16.266c.193.318.525.538.928.538h.9c.497 0 .9-.403.9-.9v-.251c0-.388-.248-.732-.616-.854l-1.47-.489c-.369-.123-.616-.466-.616-.854v-.251c0-.497.403-.9.9-.9h.9c.399 0 .731.218.924.536"></path><path d="M10.35 16.266c.193.318.525.538.928.538h.9c.497 0 .9-.403.9-.9v-.251c0-.388-.248-.732-.616-.854l-1.47-.489c-.369-.123-.616-.466-.616-.854v-.251c0-.497.403-.9.9-.9h.9c.399 0 .731.218.924.536"></path><path d="M8.25 16.696h-1.25c-.552 0-1-.448-1-1v-2.5c0-.552.448-1 1-1h1.25"></path></g><rect width="24" height="24" fill="none"></rect></svg>