<svg viewBox="0 0 24 24" xmlns="http://www.w3.org/2000/svg"><g stroke-linecap="round" stroke-width="1.5" stroke="#323232" fill="none" stroke-linejoin="round"><path d="M20 11l0-.01c-.01 5.52-4.48 9.99-10 10v-2.25l-.01-.01c-4.28-1.11-6.86-5.47-5.76-9.75 1.1-4.28 5.46-6.86 9.74-5.76 3.53.91 6 4.09 6 7.74Z"/><path d="M10.65 8.11l-.45-.97"/><path d="M13.35 13.89l.45.97"/><path d="M9.11 12.35l-.97.45"/><path d="M10.91 13.99L10.54 15"/><path d="M13.09 8.01L13.46 7"/><path d="M16 12.46l-1.01-.37"/><path d="M9.01 9.91L8 9.54"/></g><path fill="none" d="M0 0h24v24H0Z"/></svg>