<svg id="Layer_3" data-name="Layer 3" xmlns="http://www.w3.org/2000/svg" viewBox="0 0 24 24"><path d="M0,0H24V24H0Z" fill="none"/><path d="M8,4h8a1,1,0,0,1,1,1v6a5,5,0,0,1-5,5h0a5,5,0,0,1-5-5V5A1,1,0,0,1,8,4Z" fill="none" stroke="#323232" stroke-linecap="round" stroke-linejoin="round" stroke-width="1.5"/><path d="M16.67323,12.7801l1.892-.946A3.5,3.5,0,0,0,20.5,8.70363V7.36672a.875.875,0,0,0-.875-.875H17" fill="none" stroke="#323232" stroke-linecap="round" stroke-linejoin="round" stroke-width="1.5"/><line x1="12" y1="20" x2="12" y2="16" fill="none" stroke="#323232" stroke-linecap="round" stroke-linejoin="round" stroke-width="1.5"/><line x1="16" y1="20" x2="8" y2="20" fill="none" stroke="#323232" stroke-linecap="round" stroke-linejoin="round" stroke-width="1.5"/><path d="M7.32677,12.7801l-1.892-.946A3.5,3.5,0,0,1,3.5,8.70363V7.36672a.875.875,0,0,1,.875-.875H7" fill="none" stroke="#323232" stroke-linecap="round" stroke-linejoin="round" stroke-width="1.5"/></svg>