<?xml version="1.0" encoding="UTF-8"?><svg version="1.1" viewBox="0 0 24 24" xmlns="http://www.w3.org/2000/svg" xmlns:xlink="http://www.w3.org/1999/xlink"><g stroke-linecap="round" stroke-width="1.5" stroke="#323232" fill="none" stroke-linejoin="round"><circle cx="12" cy="12" r="9"></circle><path d="M12.9087 7.7268l.90529 4.00584 -3.43612e-09-1.52518e-08c.140126.62197-.0484462 1.27235-.49954 1.7229v0l4.17916e-08-4.1792e-08c-.725938.725945-1.90292.725951-2.62887 1.26347e-05 -4.18371e-06-4.18367e-06-8.3674e-06-8.36736e-06-1.25511e-05-1.25511e-05v0l1.50232e-07 1.50051e-07c-.451094-.450551-.639666-1.10093-.49954-1.7229l.90529-4.00584 1.67918e-08-7.46516e-08c.0386821-.17197.125418-.329413.25011-.454v0l6.38566e-08-6.38556e-08c.363725-.36372.953435-.36372 1.31716 1.27711e-07v0l5.45462e-08 5.45003e-08c.124692.124587.211428.28203.25011.454Z"></path></g><path fill="none" d="M0 0h24v24h-24Z"></path></svg>