<?xml version="1.0" encoding="UTF-8"?><svg version="1.1" viewBox="0 0 24 24" xmlns="http://www.w3.org/2000/svg" xmlns:xlink="http://www.w3.org/1999/xlink"><path d="M18.364 5.636l6.90396e-08 6.90404e-08c3.5147 3.51474 3.51466 9.21323-8.0138e-05 12.7279 -3.51474 3.5147-9.21323 3.51466-12.7279-8.0138e-05 -3.5147-3.51474-3.51466-9.21323 8.0138e-05-12.7279 3.51471-3.51467 9.21313-3.51467 12.7278 1.37837e-07l7.99311e-05 7.99311e-05" stroke-linecap="round" stroke-width="1.5" stroke="#323232" fill="none" stroke-linejoin="round"></path><path fill="none" d="M0 0h24v24h-24Z"></path><g stroke-linecap="round" stroke-width="1.5" stroke="#323232" fill="none" stroke-linejoin="round"><path d="M12.007 10.313l1.61805e-08 6.69615e-11c-.932249-.00385795-1.69111.748751-1.69497 1.681 -.00385795.932249.748751 1.69111 1.681 1.69497 .932237.00385791 1.6911-.748734 1.69497-1.68097v-.00800002l5.4416e-08 4.695e-05c-.00106372-.928913-.75205-1.68262-1.68095-1.68705"></path><path d="M13.2 10.8l3-3"></path><path d="M5.636 18.3638l5.12637e-07 5.12644e-07c-3.5147-3.51474-3.51466-9.21323 7.89748e-05-12.7279 3.51474-3.5147 9.21323-3.51466 12.7279 7.89748e-05 3.5147 3.51474 3.51466 9.21323-7.89748e-05 12.7279 -3.51471 3.51467-9.21313 3.51467-12.7278 1.02538e-06l-8.05128e-05-8.05128e-05"></path><path d="M12.125 17.875v0c0 .0690356-.0559644.125-.125.125 -.0690356 0-.125-.0559644-.125-.125 0-.0690356.0559644-.125.125-.125"></path><path d="M12 17.75h-5.46392e-09c.0690356-3.01764e-09.125.0559644.125.125"></path><path d="M12.125 6.125v8.88178e-16c0 .0690356-.0559644.125-.125.125 -.0690356 0-.125-.0559644-.125-.125 0-.0690356.0559644-.125.125-.125 0 0 0 0 0 0"></path><path d="M12 6h-5.46392e-09c.0690356-3.01764e-09.125.0559644.125.125"></path><path d="M6.125 12.125h-5.46392e-09c-.0690356-3.01764e-09-.125-.0559644-.125-.125 3.01764e-09-.0690356.0559644-.125.125-.125 .0690356 3.01764e-09.125.0559644.125.125"></path><path d="M6.25 12v0c0 .0690356-.0559644.125-.125.125"></path><path d="M17.875 12.125h-5.46392e-09c-.0690356-3.01764e-09-.125-.0559644-.125-.125 3.01764e-09-.0690356.0559644-.125.125-.125 .0690356 3.01764e-09.125.0559644.125.125"></path><path d="M18 12v0c0 .0690356-.0559644.125-.125.125"></path></g></svg>