<?xml version="1.0" encoding="UTF-8"?><svg version="1.1" viewBox="0 0 24 24" xmlns="http://www.w3.org/2000/svg" xmlns:xlink="http://www.w3.org/1999/xlink"><g stroke-linecap="round" stroke-width="1.5" stroke="#323232" fill="none" stroke-linejoin="round"><circle cx="12" cy="12.5" r="2"></circle><line x1="16" x2="13.41" y1="8.5" y2="11.09"></line><path d="M21 12.5l1.05553e-07.0013754c0 2.89856-1.40202 5.6181-3.76312 7.29942l-1.49457e-08 1.04273e-08c-.665818.464528-1.4602.709277-2.272.7h-5.93888l6.29148e-09-8.92832e-11c-.793713.0112633-1.5714-.22379-2.226-.672798l3.91812e-07 2.76328e-07c-4.05657-2.86093-5.02583-8.46866-2.16491-12.5252 1.74549-2.47497 4.62005-3.90447 7.64691-3.80277l5.13217e-07 2.15365e-08c4.83754.203002 8.66905 4.15845 8.718 9Z"></path></g><path fill="none" d="M0 0h24v24h-24Z"></path></svg>