<?xml version="1.0" encoding="UTF-8"?><svg version="1.1" viewBox="0 0 24 24" xmlns="http://www.w3.org/2000/svg" xmlns:xlink="http://www.w3.org/1999/xlink"><g stroke-linecap="round" stroke-width="1.5" stroke="#323232" fill="none" stroke-linejoin="round"><path d="M12 3v2.44"></path><path d="M16 8l-2.6 2.6"></path><path d="M11.981 10l-8.74228e-08 1.77636e-15c1.10457-4.82823e-08 2 .89543 2 2 4.82823e-08 1.10457-.89543 2-2 2 -1.10457 4.82823e-08-2-.89543-2-2l2.30926e-14 3.01992e-07c-1.66785e-07-1.10457.89543-2 2-2"></path><path d="M3.523 15l4.20248e-07 1.19249e-06c1.6499 4.68172 6.78269 7.13949 11.4644 5.48959 2.56654-.904483 4.58511-2.92305 5.48959-5.48959"></path><path d="M5 12h-2l1.03029e-13 1.35896e-06c-7.50534e-07-4.97056 4.02944-9 9-9 4.97056-7.50534e-07 9 4.02944 9 9 0 0 0 7.10543e-15 0 7.10543e-15h-2"></path><path d="M5.64 5.64l1.41 1.41"></path></g><path fill="none" d="M24 24h-24v-24h24Z"></path></svg>