<?xml version="1.0" encoding="UTF-8"?><svg version="1.1" viewBox="0 0 24 24" xmlns="http://www.w3.org/2000/svg" xmlns:xlink="http://www.w3.org/1999/xlink"><!--Generated by IJSVG (https://github.com/iconjar/IJSVG)--><g fill="none"><path d="M0,0h24v24h-24Z"></path><path stroke="#323232" stroke-linecap="round" stroke-linejoin="round" stroke-width="1.5" d="M6.5,2.5l1.5,1.5l-1.5,1.5"></path><path stroke="#323232" stroke-linecap="round" stroke-linejoin="round" stroke-width="1.5" d="M8,4h-2c-1.657,0 -3,1.343 -3,3"></path><path stroke="#323232" stroke-linecap="round" stroke-linejoin="round" stroke-width="1.5" d="M17.5,21.5l-1.5,-1.5l1.5,-1.5"></path><path stroke="#323232" stroke-linecap="round" stroke-linejoin="round" stroke-width="1.5" d="M16,20h2c1.657,0 3,-1.343 3,-3"></path><path stroke="#323232" stroke-linecap="round" stroke-linejoin="round" stroke-width="1.5" d="M3.001,13c0.001,-1.104 1.568,-2 3.5,-2c1.932,0 3.5,0.895 3.499,2v6c0,1.105 -1.567,2 -3.5,2c-1.933,0 -3.499,-0.896 -3.499,-2v-6Z"></path><path stroke="#323232" stroke-linecap="round" stroke-linejoin="round" stroke-width="1.5" d="M14,5c0.001,-1.104 1.568,-2 3.5,-2c1.932,0 3.5,0.895 3.499,2v6c0,1.105 -1.567,2 -3.5,2c-1.933,0 -3.499,-0.896 -3.499,-2v-6Z"></path><path stroke="#323232" stroke-linecap="round" stroke-linejoin="round" stroke-width="1.5" d="M10,16c0,1.105 -1.567,2 -3.5,2c-1.933,0 -3.499,-0.896 -3.499,-2"></path><path stroke="#323232" stroke-linecap="round" stroke-linejoin="round" stroke-width="1.5" d="M3.001,13c0,1.105 1.567,2 3.5,2c1.933,0 3.5,-0.895 3.5,-2"></path><path stroke="#323232" stroke-linecap="round" stroke-linejoin="round" stroke-width="1.5" d="M20.999,8c0,1.105 -1.567,2 -3.5,2c-1.933,0 -3.499,-0.896 -3.499,-2"></path><path stroke="#323232" stroke-linecap="round" stroke-linejoin="round" stroke-width="1.5" d="M14,5c0,1.105 1.567,2 3.5,2c1.933,0 3.5,-0.895 3.5,-2"></path></g></svg>