<svg id="Layer_3" data-name="Layer 3" xmlns="http://www.w3.org/2000/svg" viewBox="0 0 24 24"><path d="M0,0H24V24H0Z" fill="none"/><path d="M14,16c0,1.82118,2.0417,3.76657,3.20758,4.72944a1.29408,1.29408,0,0,0,1.58321.0004C19.95774,19.7671,22,17.82143,22,16" fill="none" stroke="#323232" stroke-linecap="round" stroke-linejoin="round" stroke-width="1.5"/><path d="M18.001,15.60714a.25.25,0,1,1-.251.25.24869.24869,0,0,1,.251-.25" fill="none" stroke="#323232" stroke-linecap="round" stroke-linejoin="round" stroke-width="1.5"/><path d="M14,16h0a4,4,0,0,1,4-4h0a4,4,0,0,1,4,4h0" fill="none" stroke="#323232" stroke-linecap="round" stroke-linejoin="round" stroke-width="1.5"/><path d="M13,21H5.25A2.25,2.25,0,0,1,3,18.75V5.25A2.25,2.25,0,0,1,5.25,3h13.5A2.25,2.25,0,0,1,21,5.25V10" fill="none" stroke="#323232" stroke-linecap="round" stroke-linejoin="round" stroke-width="1.5"/><path d="M8,3h8a0,0,0,0,1,0,0V5.75A1.25,1.25,0,0,1,14.75,7H9.25A1.25,1.25,0,0,1,8,5.75V3A0,0,0,0,1,8,3Z" fill="none" stroke="#323232" stroke-linecap="round" stroke-linejoin="round" stroke-width="1.5"/><line x1="7.5" y1="16.5" x2="9.75" y2="16.5" fill="none" stroke="#323232" stroke-linecap="round" stroke-linejoin="round" stroke-width="1.5"/></svg>