<svg id="Layer_3" data-name="Layer 3" xmlns="http://www.w3.org/2000/svg" viewBox="0 0 24 24"><rect width="24" height="24" fill="none"/><rect x="5" y="3" width="8" height="4" rx="1" stroke-width="1.5" stroke="#323232" stroke-linecap="round" stroke-linejoin="round" fill="none"/><path d="M13,5h1.5A1.5,1.5,0,0,1,16,6.5v13A1.5,1.5,0,0,1,14.5,21H3.5A1.5,1.5,0,0,1,2,19.5V6.5A1.5,1.5,0,0,1,3.5,5H5" fill="none" stroke="#323232" stroke-linecap="round" stroke-linejoin="round" stroke-width="1.5"/><path d="M22,18.1459V5.5A1.5,1.5,0,0,0,20.5,4h0A1.5,1.5,0,0,0,19,5.5V18.1459a2,2,0,0,0,.21115.89443l.84164,1.68328a.5.5,0,0,0,.89442,0l.84164-1.68328A2,2,0,0,0,22,18.1459Z" fill="none" stroke="#323232" stroke-linecap="round" stroke-linejoin="round" stroke-width="1.5"/><path d="M10.5,16.5H13" fill="none" stroke="#323232" stroke-linecap="round" stroke-linejoin="round" stroke-width="1.5"/><path d="M5.50021,16.25528l.66378.5964,1.33622-1.2" fill="none" stroke="#323232" stroke-linecap="round" stroke-linejoin="round" stroke-width="1.5"/><path d="M10.5,12.5H13" fill="none" stroke="#323232" stroke-linecap="round" stroke-linejoin="round" stroke-width="1.5"/><path d="M5.50021,12.25528l.66378.5964,1.33622-1.2" fill="none" stroke="#323232" stroke-linecap="round" stroke-linejoin="round" stroke-width="1.5"/></svg>