<?xml version="1.0" encoding="UTF-8"?><svg version="1.1" viewBox="0 0 24 24" xmlns="http://www.w3.org/2000/svg" xmlns:xlink="http://www.w3.org/1999/xlink"><!--Generated by IJSVG (https://github.com/iconjar/IJSVG)--><path d="M3,16.041v-8.082c0,-0.715 0.381,-1.375 1,-1.732l7,-4.041c0.619,-0.357 1.381,-0.357 2,0l7,4.041c0.619,0.357 1,1.018 1,1.732v8.083c0,0.715 -0.381,1.375 -1,1.732l-7,4.041c-0.619,0.357 -1.381,0.357 -2,0l-7,-4.041c-0.619,-0.358 -1,-1.018 -1,-1.733Z" stroke-linecap="round" stroke-width="1.5" fill-rule="evenodd" stroke="#323232" fill="none" stroke-linejoin="round"></path><path fill="none" stroke="#323232" stroke-linecap="round" stroke-linejoin="round" stroke-width="1.5" d="M16.49,12.86v-3.464l-8.99,-5.19"></path><path d="M9.04,17l-3.04,-1.76" stroke-linecap="round" stroke-width="1.5" fill-rule="evenodd" stroke="#323232" fill="none" stroke-linejoin="round"></path><path fill="none" stroke="#323232" stroke-linecap="round" stroke-linejoin="round" stroke-width="1.5" d="M12,12v10.08"></path><path d="M3.268,6.959l8.732,5.041l8.732,-5.041" stroke-linecap="round" stroke-width="1.5" fill-rule="evenodd" stroke="#323232" fill="none" stroke-linejoin="round"></path><path fill="none" d="M0,0h24v24h-24v-24Z"></path></svg>