<?xml version="1.0" encoding="UTF-8"?><svg version="1.1" viewBox="0 0 24 24" xmlns="http://www.w3.org/2000/svg" xmlns:xlink="http://www.w3.org/1999/xlink"><!--Generated by IJSVG (https://github.com/iconjar/IJSVG)--><g stroke-linecap="round" stroke-width="1.5" stroke="#323232" fill="none" stroke-linejoin="round"><path d="M2.848,20.875h18.304c0.468,0 0.848,-0.38 0.848,-0.848v-1.179c3.55271e-15,-0.468 -0.38,-0.848 -0.848,-0.848h-18.304c-0.468,0 -0.848,0.38 -0.848,0.848v1.179c0,0.468 0.38,0.848 0.848,0.848Z"></path><path d="M14.016,18v-6c0,-0.552 0.448,-1 1,-1h4.984c0.552,0 1,0.448 1,1v6"></path><path d="M17,15h1"></path><path d="M8.58583,5.97317c0.809557,0.809557 0.809557,2.12211 0,2.93166c-0.809557,0.809557 -2.12211,0.809557 -2.93166,1.77636e-15c-0.809557,-0.809557 -0.809557,-2.12211 0,-2.93166c0.809557,-0.809557 2.12211,-0.809557 2.93166,0"></path><path d="M3.183,18l0.659,-3.962c0.16,-0.965 0.995,-1.672 1.973,-1.672h2.629c0.97,0 1.8,0.696 1.969,1.651l0.707,3.983"></path></g><path fill="none" d="M0,0h24v24h-24v-24Z"></path></svg>