<?xml version="1.0" encoding="UTF-8"?><svg version="1.1" viewBox="0 0 24 24" xmlns="http://www.w3.org/2000/svg" xmlns:xlink="http://www.w3.org/1999/xlink"><!--Generated by IJSVG (https://github.com/iconjar/IJSVG)--><g stroke-linecap="round" stroke-width="1.5" stroke="#323232" fill="none" stroke-linejoin="round"><path d="M19,21h-5c-1.105,0 -2,-0.895 -2,-2v-5c0,-1.105 0.895,-2 2,-2h5c1.105,0 2,0.895 2,2v5c0,1.105 -0.895,2 -2,2Z"></path><path d="M10,21h-5c-1.105,0 -2,-0.895 -2,-2v-5c0,-1.105 0.895,-2 2,-2h5c1.105,0 2,0.895 2,2v5c0,1.105 -0.895,2 -2,2Z"></path><path d="M14.5,12h-5c-1.105,0 -2,-0.895 -2,-2v-5c0,-1.105 0.895,-2 2,-2h5c1.105,0 2,0.895 2,2v5c0,1.105 -0.895,2 -2,2Z"></path><path d="M6,18h2"></path><path d="M10,9h2"></path><path d="M15,18h2"></path></g><path fill="none" d="M0,0h24v24h-24v-24Z"></path></svg>