<?xml version="1.0" encoding="UTF-8"?><svg version="1.1" viewBox="0 0 24 24" xmlns="http://www.w3.org/2000/svg" xmlns:xlink="http://www.w3.org/1999/xlink"><g stroke-linecap="round" stroke-width="1.5" stroke="#323232" fill="none" stroke-linejoin="round"><path d="M13 21h-7.75c-1.243 0-2.25-1.007-2.25-2.25v-10.61c0-.304.062-.605.181-.884l1.235-2.89c.355-.828 1.168-1.366 2.069-1.366h11.029c.901 0 1.715.538 2.069 1.366l1.235 2.89c.12.28.182.58.182.884v3.86"></path><path d="M12 3v4.995"></path><path d="M20.989 8h-17.989"></path><path d="M6 17h2"></path><path d="M20.121 14.88c1.172 1.172 1.172 3.071 0 4.242 -1.172 1.172-3.071 1.172-4.242 0 -1.172-1.172-1.172-3.071 0-4.242 1.172-1.171 3.071-1.172 4.242 1.77636e-15"></path><path d="M22 21l-1.879-1.878"></path></g><path fill="none" d="M0 0h24v24h-24v-24Z"></path></svg>