<?xml version="1.0" encoding="UTF-8"?><svg version="1.1" viewBox="0 0 24 24" xmlns="http://www.w3.org/2000/svg" xmlns:xlink="http://www.w3.org/1999/xlink"><!--Generated by IJSVG (https://github.com/iconjar/IJSVG)--><g fill="none"><path d="M0,0h24v24h-24v-24Z"></path><path stroke="#323232" stroke-linecap="round" stroke-linejoin="round" stroke-width="1.5" d="M19,14.8v-1.346c0,-0.669 -0.428,-1.265 -1.064,-1.476l-3.603,-1.201v-3.11l1.084,-0.694c0.798,-0.512 1.17,-1.486 0.913,-2.399v0c-0.261,-0.932 -1.108,-1.574 -2.076,-1.574h-4.508c-0.966,0 -1.815,0.642 -2.077,1.574v0c-0.256,0.913 0.115,1.887 0.913,2.399l1.084,0.694v3.111l-3.603,1.201c-0.635,0.211 -1.063,0.805 -1.063,1.476v1.345c0,0.412 0.163,0.809 0.456,1.1l0.644,0.644c0.292,0.293 0.687,0.456 1.1,0.456h9.6c0.412,0 0.809,-0.163 1.1,-0.456l0.644,-0.644c0.293,-0.292 0.456,-0.687 0.456,-1.1Z"></path><path stroke="#323232" stroke-linecap="round" stroke-linejoin="round" stroke-width="1.5" d="M3,21h18"></path></g></svg>