<svg viewBox="0 0 24 24" xmlns="http://www.w3.org/2000/svg"><g fill="none"><path d="M0 0h24v24H0Z"/><g stroke-linecap="round" stroke-width="1.5" stroke="#323232" fill="none" stroke-linejoin="round"><path d="M4.93 17.7l6.15 3.08 -.01-.01c.57.28 1.25.28 1.82-.01l6.06-3.08 0-.01c.62-.32 1.04-.95 1.1-1.65l.7-8.77 -.01 0c.17-2.2-1.47-4.12-3.66-4.29 -.11-.01-.22-.02-.32-.02H7.11l-.01 0c-2.2 0-3.99 1.78-3.99 3.98 0 .09 0 .18.01.28l.62 8.76 -.01-.01c.05.71.47 1.34 1.11 1.66Z"/><path d="M10 9l-3 2.1 0 .87L11 14l2-5 4 2.03 0 .87 -3 2.1"/></g></g></svg>