<?xml version="1.0" encoding="UTF-8"?><svg version="1.1" viewBox="0 0 24 24" xmlns="http://www.w3.org/2000/svg" xmlns:xlink="http://www.w3.org/1999/xlink"><!--Generated by IJSVG (https://github.com/iconjar/IJSVG)--><g fill="none"><path d="M0,0h24v24h-24Z"></path><path stroke="#323232" stroke-linecap="round" stroke-linejoin="round" stroke-width="1.5" d="M11,18h3"></path><path stroke="#323232" stroke-linecap="round" stroke-linejoin="round" stroke-width="1.5" d="M6.469,18.873c-0.028,0 -0.05,0.022 -0.05,0.05c0,0.028 0.022,0.05 0.05,0.05"></path><path stroke="#323232" stroke-linecap="round" stroke-linejoin="round" stroke-width="1.5" d="M19,12v-7c0,-1.104 -0.895,-2 -2,-2h-11c-1.105,0 -2,0.896 -2,2v5"></path><path stroke="#323232" stroke-linecap="round" stroke-linejoin="round" stroke-width="1.5" d="M20.5,20h-2.091c-0.828,0 -1.5,-0.672 -1.5,-1.5v-5c0,-0.828 0.672,-1.5 1.5,-1.5h2.091c0.828,0 1.5,0.672 1.5,1.5v5c0,0.828 -0.672,1.5 -1.5,1.5Z"></path><path stroke="#323232" stroke-linecap="round" stroke-linejoin="round" stroke-width="1.5" d="M16.91,15h-5.91"></path><path stroke="#323232" stroke-linecap="round" stroke-linejoin="round" stroke-width="1.5" d="M9,21h-5c-1.105,0 -2,-0.895 -2,-2v-7c0,-1.105 0.895,-2 2,-2h5c1.105,0 2,0.895 2,2v7c0,1.105 -0.895,2 -2,2Z"></path></g></svg>