<?xml version="1.0" encoding="UTF-8"?><svg version="1.1" viewBox="0 0 24 24" xmlns="http://www.w3.org/2000/svg" xmlns:xlink="http://www.w3.org/1999/xlink"><defs><path d="M18.364 5.636l-2.46375e-07-2.46375e-07c3.51472 3.51472 3.51472 9.2132 2.55411e-06 12.7279 -3.51472 3.51472-9.2132 3.51472-12.7279 2.55411e-06 -3.51472-3.51472-3.51472-9.2132-2.55411e-06-12.7279 6.86377e-07-6.86377e-07 1.37498e-06-1.37498e-06 2.06136e-06-2.06136e-06l4.48663e-07-4.48663e-07c3.51472-3.51472 9.2132-3.51472 12.7279 8.97326e-07" id="a"></path></defs><g stroke-linecap="round" stroke-width="1.5" stroke="#323232" fill="none" stroke-linejoin="round"><use xlink:href="#a"></use><use xlink:href="#a"></use><path d="M15 7.5h-6l-1.00033e-08 2.92815e-11c-.827422.00242196-1.49758.672578-1.5 1.5v6l1.0976e-08 3.74818e-06c.00242402.827422.672582 1.49758 1.5 1.5h6l7.56988e-08-2.21771e-10c.82742-.00242405 1.49757-.67258 1.5-1.5v-6l-1.13957e-08-3.89145e-06c-.0024241-.827422-.672582-1.49758-1.5-1.5Z"></path><path d="M10.4 10.2v0c0 .110457-.0895431.2-.2.2 -.110457 0-.2-.0895431-.2-.2 0-.110457.0895431-.2.2-.2 0 0 1.77636e-15 0 1.77636e-15 0"></path><path d="M10.2 10h-8.74228e-09c.110457-4.82823e-09.2.089543.2.2"></path><path d="M14 10.2v0c0 .110457-.0895431.2-.2.2 -.110457 0-.2-.0895431-.2-.2 0-.110457.0895431-.2.2-.2 0 0 1.77636e-15 0 1.77636e-15 0"></path><path d="M13.8 10h-8.74228e-09c.110457-4.82823e-09.2.089543.2.2"></path><path d="M10.4 13.8v0c0 .110457-.0895431.2-.2.2 -.110457 0-.2-.0895431-.2-.2 0-.110457.0895431-.2.2-.2 0 0 1.77636e-15 0 1.77636e-15 0"></path><path d="M10.2 13.6h-8.74228e-09c.110457-4.82823e-09.2.089543.2.2"></path><path d="M14 13.8v0c0 .110457-.0895431.2-.2.2 -.110457 0-.2-.0895431-.2-.2 0-.110457.0895431-.2.2-.2 0 0 1.77636e-15 0 1.77636e-15 0"></path><path d="M13.8 13.6h-8.74228e-09c.110457-4.82823e-09.2.089543.2.2"></path></g><path fill="none" d="M0 0h24v24h-24Z"></path></svg>