<?xml version="1.0" encoding="UTF-8"?><svg version="1.1" viewBox="0 0 24 24" xmlns="http://www.w3.org/2000/svg" xmlns:xlink="http://www.w3.org/1999/xlink"><g stroke-linecap="round" stroke-width="1.5" stroke="#323232" fill="none" stroke-linejoin="round"><path d="M17 3h-10l-2.66754e-08 7.80815e-11c-2.20646.00645856-3.99354 1.79354-4 4v10l2.93475e-08 1.00218e-05c.00646406 2.20646 1.79355 3.99354 4.00001 3.99999h9.99999l1.54195e-07-4.51347e-10c2.20646-.00645863 3.99354-1.79354 4-4v-10l-3.03886e-08-1.03772e-05c-.00646425-2.20646-1.79355-3.99354-4.00001-3.99999Z"></path><path d="M17 8.5v0c0 .276142-.223858.5-.5.5 -.276142 0-.5-.223858-.5-.5 0-.276142.223858-.5.5-.5"></path><path d="M16.5 8h-2.18557e-08c.276142-1.20706e-08.5.223858.5.5"></path><path d="M8 8.5v0c0 .276142-.223858.5-.5.5 -.276142 0-.5-.223858-.5-.5 0-.276142.223858-.5.5-.5"></path><path d="M7.5 8h-2.18557e-08c.276142-1.20706e-08.5.223858.5.5"></path><path d="M12.5 8.5v0c0 .276142-.223858.5-.5.5 -.276142 0-.5-.223858-.5-.5 0-.276142.223858-.5.5-.5"></path><path d="M12 8h-2.18557e-08c.276142-1.20706e-08.5.223858.5.5"></path><path d="M8 15.5v0c0 .276142-.223858.5-.5.5 -.276142 0-.5-.223858-.5-.5 0-.276142.223858-.5.5-.5"></path><path d="M7.5 15h-2.18557e-08c.276142-1.20706e-08.5.223858.5.5"></path><path d="M12.5 15.5v0c0 .276142-.223858.5-.5.5 -.276142 0-.5-.223858-.5-.5 0-.276142.223858-.5.5-.5"></path><path d="M12 15h-2.18557e-08c.276142-1.20706e-08.5.223858.5.5"></path><path d="M17 15.5v0c0 .276142-.223858.5-.5.5 -.276142 0-.5-.223858-.5-.5 0-.276142.223858-.5.5-.5"></path><path d="M16.5 15h-2.18557e-08c.276142-1.20706e-08.5.223858.5.5"></path></g><rect width="24" height="24" fill="none"></rect></svg>