<?xml version="1.0" encoding="UTF-8"?><svg version="1.1" viewBox="0 0 24 24" xmlns="http://www.w3.org/2000/svg" xmlns:xlink="http://www.w3.org/1999/xlink"><!--Generated by IJSVG (https://github.com/iconjar/IJSVG)--><g fill="none"><path d="M0,0h24v24h-24Z"></path><path stroke="#323232" stroke-linecap="round" stroke-linejoin="round" stroke-width="1.5" d="M12,13v-3"></path><path stroke="#323232" stroke-linecap="round" stroke-linejoin="round" stroke-width="1.5" d="M12,5v-2"></path><path stroke="#323232" stroke-linecap="round" stroke-linejoin="round" stroke-width="1.5" d="M6.5,5h10.685c0.289,0 0.563,0.125 0.753,0.342l1.317,1.509c0.325,0.372 0.325,0.926 0,1.298l-1.317,1.509c-0.19,0.217 -0.464,0.342 -0.753,0.342h-10.685c-0.552,0 -1,-0.448 -1,-1v-3c0,-0.552 0.448,-1 1,-1Z"></path><path stroke="#323232" stroke-linecap="round" stroke-linejoin="round" stroke-width="1.5" d="M17.499,18h-10.685c-0.289,0 -0.563,-0.125 -0.753,-0.342l-1.317,-1.509c-0.325,-0.372 -0.325,-0.926 0,-1.298l1.317,-1.509c0.189,-0.217 0.464,-0.342 0.753,-0.342h10.685c0.552,0 1,0.448 1,1v3c-3.55271e-15,0.552 -0.448,1 -1,1Z"></path><path stroke="#323232" stroke-linecap="round" stroke-linejoin="round" stroke-width="1.5" d="M12,21v-3"></path></g></svg>