<svg id="Layer_3" data-name="Layer 3" xmlns="http://www.w3.org/2000/svg" viewBox="0 0 24 24"><path d="M0,0H24V24H0Z" fill="none"/><path d="M19,11V6a2,2,0,0,0-2-2H4A2,2,0,0,0,2,6v8a2,2,0,0,0,2,2H16" fill="none" stroke="#323232" stroke-linecap="round" stroke-linejoin="round" stroke-width="1.5"/><path d="M20.5,20h-3A1.5,1.5,0,0,1,16,18.5v-6A1.5,1.5,0,0,1,17.5,11h3A1.5,1.5,0,0,1,22,12.5v6A1.5,1.5,0,0,1,20.5,20Z" fill="none" stroke="#323232" stroke-linecap="round" stroke-linejoin="round" stroke-width="1.5"/><line x1="12.5" y1="19.99999" x2="12.5" y2="16" fill="none" stroke="#323232" stroke-linecap="round" stroke-linejoin="round" stroke-width="1.5"/><line x1="8.5" y1="16" x2="8.5" y2="19.99999" fill="none" stroke="#323232" stroke-linecap="round" stroke-linejoin="round" stroke-width="1.5"/><line x1="7.25" y1="19.99999" x2="13.75" y2="19.99999" fill="none" stroke="#323232" stroke-linecap="round" stroke-linejoin="round" stroke-width="1.5"/></svg>