<svg id="Layer_3" data-name="Layer 3" xmlns="http://www.w3.org/2000/svg" viewBox="0 0 24 24"><path d="M20.6044,8.95279,18.64517,7.54914a.25.25,0,0,0-.29093-.00019L16.39533,8.9485A.25.25,0,0,1,16,8.74509V4.07141A1.07141,1.07141,0,0,1,17.07141,3h2.85718A1.07141,1.07141,0,0,1,21,4.07141V8.74956A.25.25,0,0,1,20.6044,8.95279Z" fill="none" stroke="#323232" stroke-linecap="round" stroke-linejoin="round" stroke-width="1.5"/><path d="M12,3H5A2,2,0,0,0,3,5V19a2,2,0,0,0,2,2H19a2,2,0,0,0,2-2V12" fill="none" stroke="#323232" stroke-linecap="round" stroke-linejoin="round" stroke-width="1.5"/><line x1="11" y1="12" x2="7" y2="12" fill="none" stroke="#323232" stroke-linecap="round" stroke-linejoin="round" stroke-width="1.5"/><line x1="17" y1="16" x2="7" y2="16" fill="none" stroke="#323232" stroke-linecap="round" stroke-linejoin="round" stroke-width="1.5"/><rect width="24" height="24" fill="none"/></svg>