<?xml version="1.0" encoding="UTF-8"?><svg version="1.1" viewBox="0 0 24 24" xmlns="http://www.w3.org/2000/svg" xmlns:xlink="http://www.w3.org/1999/xlink"><g fill="none"><path d="M0 0h24v24h-24v-24Z"></path><path stroke="#323232" stroke-linecap="round" stroke-linejoin="round" stroke-width="1.5" d="M18.293 20.707l3.414-3.414c.391-.391.391-1.024 0-1.414l-1.586-1.586c-.391-.391-1.024-.391-1.414 0l-3.414 3.414c-.188.188-.293.442-.293.707v2.586h2.586c.265 0 .519-.105.707-.293Z"></path><path stroke="#323232" stroke-linecap="round" stroke-linejoin="round" stroke-width="1.5" d="M7 14h4"></path><path stroke="#323232" stroke-linecap="round" stroke-linejoin="round" stroke-width="1.5" d="M7 9h8"></path><path stroke="#323232" stroke-linecap="round" stroke-linejoin="round" stroke-width="1.5" d="M19 10v-3c0-1.657-1.343-3-3-3h-10c-1.657 0-3 1.343-3 3v9c0 1.657 1.343 3 3 3h5"></path></g></svg>