<svg id="Layer_3" data-name="Layer 3" xmlns="http://www.w3.org/2000/svg" viewBox="0 0 24 24"><path d="M0,0H24V24H0Z" fill="none"/><path d="M17,17v2a1.99944,1.99944,0,0,1-1.9989,2H6a1.99944,1.99944,0,0,1-2-1.9989V8A1.99944,1.99944,0,0,1,5.9989,6H8" fill="none" stroke="#323232" stroke-linecap="round" stroke-linejoin="round" stroke-width="1.5"/><path d="M20,7.5H17A1.5,1.5,0,0,1,15.5,6V3" fill="none" stroke="#323232" stroke-linecap="round" stroke-linejoin="round" stroke-width="1.5"/><path d="M8,15V5a2,2,0,0,1,2-2h6.06046a2,2,0,0,1,1.41422.58579l1.93953,1.93953A2,2,0,0,1,20,6.93954V15a2,2,0,0,1-2,2H10A2,2,0,0,1,8,15Z" fill="none" stroke="#323232" stroke-linecap="round" stroke-linejoin="round" stroke-width="1.5"/><path d="M12.4,11.3l1.20107,1.2L15.6,10.5" fill="none" stroke="#323232" stroke-linecap="round" stroke-linejoin="round" stroke-width="1.5"/></svg>