<svg id="Layer_3" data-name="Layer 3" xmlns="http://www.w3.org/2000/svg" viewBox="0 0 24 24"><path d="M0,24V0H24V24Z" fill="none"/><path d="M9,21H5a2,2,0,0,1-2-2V5A2,2,0,0,1,5,3H15.17157a2,2,0,0,1,1.41422.58579l2.82842,2.82842A2,2,0,0,1,20,7.82843V9" fill="none" stroke="#323232" stroke-linecap="round" stroke-linejoin="round" stroke-width="1.5"/><line x1="15" y1="9" x2="7" y2="9" fill="none" stroke="#323232" stroke-linecap="round" stroke-linejoin="round" stroke-width="1.5"/><line x1="7" y1="12.5" x2="12" y2="12.5" fill="none" stroke="#323232" stroke-linecap="round" stroke-linejoin="round" stroke-width="1.5"/><line x1="7" y1="16" x2="9" y2="16" fill="none" stroke="#323232" stroke-linecap="round" stroke-linejoin="round" stroke-width="1.5"/><path d="M18.18059,19.97238l3.63313-5.08631a1,1,0,0,0-.10662-1.28834L20.40229,12.2929a1,1,0,0,0-1.3579-.05216l-4.69514,4.02431a1,1,0,0,0-.05633,1.46637l2.36684,2.36683A1,1,0,0,0,18.18059,19.97238Z" fill="none" stroke="#323232" stroke-linecap="round" stroke-linejoin="round" stroke-width="1.5"/><path d="M14.28674,17.72736l-1.64038,1.64119a.5.5,0,0,0-.02877.67558l.65531.778A.5.5,0,0,0,13.65532,21H15.1774a.5.5,0,0,0,.34685-.13987l.96459-.929" fill="none" stroke="#323232" stroke-linecap="round" stroke-linejoin="round" stroke-width="1.5"/></svg>