<?xml version="1.0" encoding="UTF-8"?><svg version="1.1" viewBox="0 0 24 24" xmlns="http://www.w3.org/2000/svg" xmlns:xlink="http://www.w3.org/1999/xlink"><!--Generated by IJSVG (https://github.com/iconjar/IJSVG)--><g stroke-linecap="round" stroke-width="1.5" stroke="#323232" fill="none" stroke-linejoin="round"><path d="M18.414,6.414l-2.828,-2.828c-0.375,-0.375 -0.884,-0.586 -1.414,-0.586h-7.172c-1.105,0 -2,0.895 -2,2v14c0,1.105 0.895,2 2,2h10c1.105,0 2,-0.895 2,-2v-11.172c0,-0.53 -0.211,-1.039 -0.586,-1.414Z"></path><path d="M19,8h-4c-0.552,0 -1,-0.448 -1,-1v-4"></path><path d="M10.34,16.55h3.32"></path><path d="M10.833,12.751v-1.168c0,-0.322 0.261,-0.583 0.583,-0.583h1.168c0.322,0 0.583,0.261 0.583,0.583v1.168c0,0.322 -0.261,0.583 -0.583,0.583h-1.168c-0.322,-0.001 -0.583,-0.262 -0.583,-0.583Z"></path><path d="M8,17.417v-1.168c0,-0.322 0.261,-0.583 0.583,-0.583h1.168c0.322,0 0.583,0.261 0.583,0.583v1.168c0,0.322 -0.261,0.583 -0.583,0.583h-1.168c-0.322,0 -0.583,-0.261 -0.583,-0.583Z"></path><path d="M13.667,17.417v-1.168c0,-0.322 0.261,-0.583 0.583,-0.583h1.168c0.322,0 0.583,0.261 0.583,0.583v1.168c-0.001,0.322 -0.262,0.583 -0.584,0.583h-1.168c-0.321,0 -0.582,-0.261 -0.582,-0.583Z"></path><path d="M14.24,15.67l-1.51,-2.36"></path><path d="M9.76,15.67l1.51,-2.36"></path></g><path fill="none" d="M0,0h24v24h-24Z"></path></svg>