<?xml version="1.0" encoding="UTF-8"?><svg version="1.1" viewBox="0 0 24 24" xmlns="http://www.w3.org/2000/svg" xmlns:xlink="http://www.w3.org/1999/xlink"><g fill="none"><path d="M0 0h24v24h-24v-24Z"></path><path stroke="#323232" stroke-linecap="round" stroke-linejoin="round" stroke-width="1.5" d="M19 11v-3.172c0-.53-.211-1.039-.586-1.414l-2.828-2.828c-.375-.375-.884-.586-1.414-.586h-7.172c-1.105 0-2 .895-2 2v14c0 1.105.895 2 2 2h5"></path><path stroke="#323232" stroke-linecap="round" stroke-linejoin="round" stroke-width="1.5" d="M19 8h-4c-.552 0-1-.448-1-1v-4"></path><path stroke="#323232" stroke-linecap="round" stroke-linejoin="round" stroke-width="1.5" d="M18.343 20.023l1.755.922c.342.18.741-.111.676-.491l-.335-1.954 1.42-1.383c.277-.269.124-.739-.258-.794l-1.962-.285 -.877-1.779c-.171-.346-.665-.346-.835 0l-.877 1.779 -1.962.285c-.382.056-.535.525-.258.794l1.42 1.383 -.336 1.955c-.065.38.334.67.676.491l1.755-.922"></path></g></svg>