<svg id="Layer_3" data-name="Layer 3" xmlns="http://www.w3.org/2000/svg" viewBox="0 0 24 24"><path d="M16,19.316V19.5A1.5,1.5,0,0,1,14.5,21H3.5A1.5,1.5,0,0,1,2,19.5V4.5A1.5,1.5,0,0,1,3.5,3h11A1.5,1.5,0,0,1,16,4.5V14" fill="none" stroke="#323232" stroke-linecap="round" stroke-linejoin="round" stroke-width="1.5"/><path d="M16,9h1.2918a2.99994,2.99994,0,0,1,1.34162.31671l.654.327a3,3,0,0,1,1.15453,1.01919L22,13" fill="none" stroke="#323232" stroke-linecap="round" stroke-linejoin="round" stroke-width="1.5"/><path d="M16,14l.00186-.003-2.37892-2.52071a1.51853,1.51853,0,0,0-2.17814-.03151h0a1.51855,1.51855,0,0,0-.19083,1.91445l2.98716,4.49343a4,4,0,0,0,2.06412,1.57959L21,21" fill="none" stroke="#323232" stroke-linecap="round" stroke-linejoin="round" stroke-width="1.5"/><line x1="17.5" y1="14" x2="16" y2="14" fill="none" stroke="#323232" stroke-linecap="round" stroke-linejoin="round" stroke-width="1.5"/><line x1="5" y1="13.5" x2="7" y2="13.5" fill="none" stroke="#323232" stroke-linecap="round" stroke-linejoin="round" stroke-width="1.5"/><line x1="5" y1="16.5" x2="9" y2="16.5" fill="none" stroke="#323232" stroke-linecap="round" stroke-linejoin="round" stroke-width="1.5"/><polyline points="12 6 9 9 7 8 5 10" fill="none" stroke="#323232" stroke-linecap="round" stroke-linejoin="round" stroke-width="1.5"/><rect width="24" height="24" fill="none"/></svg>