<svg viewBox="0 0 24 24" xmlns="http://www.w3.org/2000/svg"><g fill="none"><path d="M0 0h24v24H0Z"/><g stroke-linecap="round" stroke-width="1.5" stroke="#323232" fill="none" stroke-linejoin="round"><path d="M15 18H9l-.01-.001c-1.11-.01-2-.9-2-2.01 0 0 0 0 0 0v-8l0 0c-.01-1.11.89-2.01 1.99-2.01h6l-.01 0c1.1-.01 2 .89 2 1.99v8l0 0c0 1.1-.9 1.99-2 2Z"/><path d="M21 19h-1.5 -.01c-.28 0-.5.22-.5.5 0 0 0 0 0 0V21"/><path d="M10 9h4"/><path d="M10 12h2"/><path d="M3 5h1.5l-.01-.001c.27 0 .5-.23.5-.5v-1.5"/><path d="M19 3v1.5l0 0c0 .27.22.49.5.49H21"/><path d="M5 21v-1.5 0c0-.28-.23-.5-.5-.5H3"/></g></g></svg>