<?xml version="1.0" encoding="UTF-8"?><svg version="1.1" viewBox="0 0 24 24" xmlns="http://www.w3.org/2000/svg" xmlns:xlink="http://www.w3.org/1999/xlink"><!--Generated by IJSVG (https://github.com/iconjar/IJSVG)--><g stroke-linecap="round" stroke-width="1.5" stroke="#323232" fill="none" stroke-linejoin="round"><path d="M18.414,6.414l-2.828,-2.828c-0.375,-0.375 -0.884,-0.586 -1.414,-0.586h-7.172c-1.105,0 -2,0.895 -2,2v14c0,1.105 0.895,2 2,2h10c1.105,0 2,-0.895 2,-2v-11.172c0,-0.53 -0.211,-1.039 -0.586,-1.414Z"></path><path d="M19,8h-4c-0.552,0 -1,-0.448 -1,-1v-4"></path><path d="M13.4961,11.7159c1.04387,1.04387 1.04387,2.73632 0,3.78019c-1.04387,1.04387 -2.73632,1.04387 -3.78019,0c-1.04387,-1.04387 -1.04387,-2.73632 -1.77636e-15,-3.78019c1.04387,-1.04387 2.73632,-1.04387 3.78019,-1.77636e-15"></path><path d="M15,17l-1.5,-1.5"></path></g><path fill="none" d="M0,0h24v24h-24Z"></path></svg>