<?xml version="1.0" encoding="UTF-8"?><svg version="1.1" viewBox="0 0 24 24" xmlns="http://www.w3.org/2000/svg" xmlns:xlink="http://www.w3.org/1999/xlink"><!--Generated by IJSVG (https://github.com/iconjar/IJSVG)--><g fill="none"><path d="M24,24h-24v-24h24v24Z"></path><path stroke="#323232" stroke-linecap="round" stroke-linejoin="round" stroke-width="1.5" d="M16,21h-11c-1.105,0 -2,-0.895 -2,-2v-11"></path><path stroke="#323232" stroke-linecap="round" stroke-linejoin="round" stroke-width="1.5" d="M21,16v-8.172c0,-0.53 -0.211,-1.039 -0.585,-1.413l-2.829,-2.829c-0.375,-0.375 -0.884,-0.586 -1.414,-0.586h-8.172c-1.105,0 -2,0.895 -2,2v11c0,1.105 0.895,2 2,2h11c1.105,0 2,-0.895 2,-2Z"></path><path stroke="#323232" stroke-linecap="round" stroke-linejoin="round" stroke-width="1.5" d="M21,8h-4c-0.552,0 -1,-0.448 -1,-1v-4"></path></g></svg>