<?xml version="1.0" encoding="UTF-8"?><svg version="1.1" viewBox="0 0 24 24" xmlns="http://www.w3.org/2000/svg" xmlns:xlink="http://www.w3.org/1999/xlink"><g stroke-linecap="round" stroke-width="1.5" stroke="#323232" fill="none" stroke-linejoin="round"><path d="M20 8h-4l-4.37114e-08-8.88178e-16c-.552285-2.41411e-08-1-.447715-1-1 0 0 0 0 0 0v-4"></path><path d="M6 8v-3l2.30926e-14 3.01992e-07c-1.66785e-07-1.10457.89543-2 2-2h7.172l2.05691e-08 4.39293e-12c.53039.00011328 1.03901.210901 1.414.586l2.828 2.828 -4.69231e-09-4.69089e-09c.375099.374985.585887.88361.586 1.414v11.172 0c0 1.10457-.895431 2-2 2h-10l-8.74228e-08-3.55271e-15c-1.10457-4.82823e-08-2-.895431-2-2 0 0 0 0 0 0v-1"></path><path d="M8 12.815v-1.835"></path><path d="M8 14.839l-2.12589e-09-1.3145e-13c-.0497056-3.06717e-06-.0900025.0402888-.0900056.0899944 -2.06837e-08.000335193 1.83121e-06.000670384 5.55558e-06.00100556l-1.66019e-10-5.48311e-06c7.58873e-09.0502579.0407421.091.091.091 .0502579-7.58873e-09.091-.0407421.091-.091 -7.58873e-09-.0502579-.0407421-.091-.091-.091 -.000331509 5.0056e-11-.000663015 1.8116e-06-.000994503 5.43458e-06"></path><rect width="10" height="10" x="3" y="8" rx="1.65684" ry="0"></rect></g><path fill="none" d="M0 0h24v24h-24Z"></path></svg>