<?xml version="1.0" encoding="UTF-8"?><svg version="1.1" viewBox="0 0 24 24" xmlns="http://www.w3.org/2000/svg" xmlns:xlink="http://www.w3.org/1999/xlink"><g stroke-linecap="round" stroke-width="1.5" stroke="#323232" fill="none" stroke-linejoin="round"><path d="M12 14.9l-1.11851e-09 2.2375e-11c-.0272229.000544568-.0490054.0227716-.049.05l-1.00042e-09-9.99455e-06c4.16963e-09.0276142.0223858.05.05.05 .0276142-4.16963e-09.05-.0223858.05-.05 -4.16963e-09-.0276142-.0223858-.05-.05-.05 -.000330024 4.98321e-11-.00066004 3.26757e-06-.000989999 9.80209e-06v0"></path><path d="M12 12.875l5.06929e-08 1.85821e-10c.863215.00316422 1.56555-.694045 1.56872-1.55726 .00316422-.863215-.694045-1.56555-1.55726-1.56872 -.840923-.00308251-1.53356.659734-1.56746 1.49998"></path><path d="M18.414 6.414l-2.828-2.828 6.1748e-08 6.17666e-08c-.374985-.375099-.88361-.585887-1.414-.586h-7.172l-8.74228e-08 1.77636e-15c-1.10457 4.82823e-08-2 .895431-2 2v14l2.30926e-14 3.01992e-07c1.66785e-07 1.10457.895431 2 2 2h10l-8.74228e-08-3.55271e-15c1.10457 4.82823e-08 2-.89543 2-2v-11.172l4.56117e-08.000427138c0-.53039-.210679-1.03906-.585698-1.41413Z"></path></g><path fill="none" d="M0 0h24v24h-24Z"></path></svg>