<?xml version="1.0" encoding="UTF-8"?><svg version="1.1" viewBox="0 0 24 24" xmlns="http://www.w3.org/2000/svg" xmlns:xlink="http://www.w3.org/1999/xlink"><defs><path d="M0 24v-24h24v24Z" id="a"></path></defs><g fill="none"><use xlink:href="#a"></use><use xlink:href="#a"></use><line x1="16.28" x2="16.28" y1="10" y2="15" stroke="#323232" stroke-linecap="round" stroke-linejoin="round" stroke-width="1.5"></line><circle cx="14.781" cy="13.5" r="1.499" stroke="#323232" stroke-linecap="round" stroke-linejoin="round" stroke-width="1.5"></circle><path stroke="#323232" stroke-linecap="round" stroke-linejoin="round" stroke-width="1.5" d="M6 3h12l-8.74228e-08 1.77636e-15c1.10457-4.82823e-08 2 .89543 2 2v14 0c0 1.10457-.895431 2-2 2h-12l-8.74228e-08-3.55271e-15c-1.10457-4.82823e-08-2-.895431-2-2 0 0 0 0 0 0v-14l2.30926e-14 3.01992e-07c-1.66785e-07-1.10457.89543-2 2-2Z"></path><line x1="11.09" x2="7.72" y1="15" y2="10" stroke="#323232" stroke-linecap="round" stroke-linejoin="round" stroke-width="1.5"></line><line x1="7.72" x2="11.09" y1="15" y2="10" stroke="#323232" stroke-linecap="round" stroke-linejoin="round" stroke-width="1.5"></line></g></svg>