<?xml version="1.0" encoding="UTF-8"?><svg version="1.1" viewBox="0 0 24 24" xmlns="http://www.w3.org/2000/svg" xmlns:xlink="http://www.w3.org/1999/xlink"><g stroke-linecap="round" stroke-width="1.5" stroke="#323232" fill="none" stroke-linejoin="round"><path d="M19 11v-3.172c0-.53-.211-1.039-.586-1.414l-2.828-2.828c-.375-.375-.884-.586-1.414-.586h-7.172c-1.105 0-2 .895-2 2v14c0 1.105.895 2 2 2h4"></path><path d="M19 8h-4c-.552 0-1-.448-1-1v-4"></path><path d="M17.659 15.174v-1.172"></path><path d="M17.659 21v-1.172"></path><path d="M19.671 16.329l1.014-.578"></path><path d="M14.633 19.25l.997-.578"></path><path d="M19.671 18.673l1.014.578"></path><path d="M14.633 15.752l.997.578"></path><path d="M17.659 15.167c1.29 0 2.334 1.044 2.334 2.334 0 1.29-1.044 2.334-2.334 2.334 -1.29 0-2.334-1.046-2.334-2.334 -1.77636e-15-1.288 1.044-2.334 2.334-2.334"></path></g><path fill="none" d="M0 0h24v24h-24v-24Z"></path></svg>