<?xml version="1.0" encoding="UTF-8"?><svg version="1.1" viewBox="0 0 24 24" xmlns="http://www.w3.org/2000/svg" xmlns:xlink="http://www.w3.org/1999/xlink"><g fill="none"><path d="M0 0h24v24h-24v-24Z"></path><path stroke="#323232" stroke-linecap="round" stroke-linejoin="round" stroke-width="1.5" d="M19 8h-4c-.552 0-1-.448-1-1v-4"></path><path stroke="#323232" stroke-linecap="round" stroke-linejoin="round" stroke-width="1.5" d="M5 13v-8c0-1.105.895-2 2-2h7.172c.53 0 1.039.211 1.414.586l2.828 2.828c.375.375.586.884.586 1.414v11.172c0 1.105-.895 2-2 2h-4"></path><path stroke="#323232" stroke-linecap="round" stroke-linejoin="round" stroke-width="1.2857" d="M10.247 19.389c-1.005 1.005-2.632 1.005-3.637 0 -1.005-1.005-1.005-2.632 0-3.637 1.005-1.005 2.632-1.005 3.637 0 1.004 1.005 1.004 2.634 0 3.637"></path><path stroke="#323232" stroke-linecap="round" stroke-linejoin="round" stroke-width="1.5" d="M9 11h6"></path><path stroke="#323232" stroke-linecap="round" stroke-linejoin="round" stroke-width="1.5" d="M13 14h2"></path><path stroke="#323232" stroke-linecap="round" stroke-linejoin="round" stroke-width="1.2857" d="M5 21l1.61-1.611"></path></g></svg>