<?xml version="1.0" encoding="UTF-8"?><svg version="1.1" viewBox="0 0 24 24" xmlns="http://www.w3.org/2000/svg" xmlns:xlink="http://www.w3.org/1999/xlink"><!--Generated by IJSVG (https://github.com/iconjar/IJSVG)--><g fill="none"><path d="M0,0h24v24h-24Z"></path><path stroke="#323232" stroke-linecap="round" stroke-linejoin="round" stroke-width="1.5" d="M6.5,2.5l1.5,1.5l-1.5,1.5"></path><path stroke="#323232" stroke-linecap="round" stroke-linejoin="round" stroke-width="1.5" d="M8,4h-2c-1.657,0 -3,1.343 -3,3"></path><path stroke="#323232" stroke-linecap="round" stroke-linejoin="round" stroke-width="1.5" d="M17.5,21.5l-1.5,-1.5l1.5,-1.5"></path><path stroke="#323232" stroke-linecap="round" stroke-linejoin="round" stroke-width="1.5" d="M16,20h2c1.657,0 3,-1.343 3,-3"></path><path stroke="#323232" stroke-linecap="round" stroke-linejoin="round" stroke-width="1.5" d="M10.452,12.897l-1.571,-1.571c-0.208,-0.209 -0.491,-0.326 -0.785,-0.326h-3.985c-0.614,0 -1.111,0.497 -1.111,1.111v7.778c0,0.614 0.497,1.111 1.111,1.111h5.556c0.614,0 1.111,-0.497 1.111,-1.111v-6.207c0,-0.294 -0.117,-0.577 -0.326,-0.785Z"></path><path stroke="#323232" stroke-linecap="round" stroke-linejoin="round" stroke-width="1.5" d="M20.674,4.897l-1.571,-1.571c-0.208,-0.209 -0.491,-0.326 -0.785,-0.326h-3.984c-0.614,0 -1.111,0.497 -1.111,1.111v7.778c0,0.614 0.497,1.111 1.111,1.111h5.556c0.613,0 1.11,-0.497 1.11,-1.111v-6.207c0,-0.294 -0.117,-0.577 -0.326,-0.785Z"></path></g></svg>