<?xml version="1.0" encoding="UTF-8"?><svg version="1.1" viewBox="0 0 24 24" xmlns="http://www.w3.org/2000/svg" xmlns:xlink="http://www.w3.org/1999/xlink"><g stroke-linecap="round" stroke-width="1.5" stroke="#323232" fill="none" stroke-linejoin="round"><path d="M7 7v-2l2.30926e-14 3.01992e-07c-1.66785e-07-1.10457.89543-2 2-2h10l-8.74228e-08 1.77636e-15c1.10457-4.82823e-08 2 .89543 2 2v14 0c0 1.10457-.895431 2-2 2h-10l-8.74228e-08-3.55271e-15c-1.10457-4.82823e-08-2-.895431-2-2 0 0 0 0 0 0v-2"></path><rect width="10" height="10" x="3" y="7" rx="1.10456" ry="0"></rect><line x1="21" x2="14" y1="9.08" y2="9.08"></line><line x1="21" x2="14" y1="15" y2="15"></line></g><path fill="none" d="M0 0h24v24h-24Z"></path><g stroke-linecap="round" stroke-width="1.5" stroke="#323232" fill="none" stroke-linejoin="round"><path d="M7.913 11.815v-1.835"></path><path d="M7.912 13.839l-2.12589e-09-1.3145e-13c-.0497056-3.06717e-06-.0900025.0402888-.0900056.0899944 -2.06837e-08.000335193 1.83121e-06.000670384 5.55558e-06.00100556l-1.65886e-10-5.48093e-06c7.58873e-09.0502579.0407421.091.091.091 .0502579-7.58873e-09.091-.0407421.091-.091 -7.58873e-09-.0502579-.0407421-.091-.091-.091 -.000331509 5.0056e-11-.000663016 1.81161e-06-.000994505 5.4346e-06"></path></g></svg>