<?xml version="1.0" encoding="UTF-8"?><svg version="1.1" viewBox="0 0 24 24" xmlns="http://www.w3.org/2000/svg" xmlns:xlink="http://www.w3.org/1999/xlink"><!--Generated by IJSVG (https://github.com/iconjar/IJSVG)--><g stroke-linecap="round" stroke-width="1.5" stroke="#323232" fill="none" stroke-linejoin="round"><path d="M13,3h-8c-1.105,0 -2,0.895 -2,2v14c0,1.105 0.895,2 2,2h11.172c0.53,0 1.039,-0.211 1.414,-0.586l2.828,-2.828c0.375,-0.375 0.586,-0.884 0.586,-1.414v-5.172"></path><path d="M16,21v-4c0,-0.552 0.448,-1 1,-1h4"></path><path d="M9,15l3.15,-0.389c0.221,-0.027 0.427,-0.128 0.585,-0.285l7.631,-7.631c0.845,-0.845 0.845,-2.215 0,-3.061v0c-0.845,-0.845 -2.215,-0.845 -3.061,0l-7.56,7.56c-0.153,0.153 -0.252,0.351 -0.283,0.566l-0.462,3.24Z"></path></g><path fill="none" d="M0,24v-24h24v24h-24Z"></path></svg>