<svg id="Layer_3" data-name="Layer 3" xmlns="http://www.w3.org/2000/svg" viewBox="0 0 24 24"><path d="M16,21h1a3,3,0,0,0,3-3V8.50931A3,3,0,0,0,19.12132,6.388L16.612,3.87868A3,3,0,0,0,14.49069,3H7A3,3,0,0,0,4,6V8" fill="none" stroke="#323232" stroke-linecap="round" stroke-linejoin="round" stroke-width="1.5" fill-rule="evenodd"/><path d="M20,8.5H16.5a2,2,0,0,1-2-2V3" fill="none" stroke="#323232" stroke-linecap="round" stroke-linejoin="round" stroke-width="1.5" fill-rule="evenodd"/><path d="M4,19.5v-7A1.5,1.5,0,0,1,5.5,11H9.97157a2,2,0,0,1,1.41422.58579l1.02842,1.02842A2,2,0,0,1,13,14.02843V19.5A1.5,1.5,0,0,1,11.5,21h-6A1.5,1.5,0,0,1,4,19.5Z" fill="none" stroke="#323232" stroke-linecap="round" stroke-linejoin="round" stroke-width="1.5"/><path d="M0,0H24V24H0Z" fill="none"/></svg>