<?xml version="1.0" encoding="UTF-8"?><svg version="1.1" viewBox="0 0 24 24" xmlns="http://www.w3.org/2000/svg" xmlns:xlink="http://www.w3.org/1999/xlink"><g stroke-linecap="round" stroke-width="1.5" stroke="#323232" fill="none" stroke-linejoin="round"><path d="M18.414 6.414l-2.828-2.828c-.375-.375-.884-.586-1.414-.586h-7.172c-1.105 0-2 .895-2 2v14c0 1.105.895 2 2 2h10c1.105 0 2-.895 2-2v-11.172c0-.53-.211-1.039-.586-1.414Z"></path><path d="M19 8h-4c-.552 0-1-.448-1-1v-4"></path><path d="M8.5 16.966c0-.003-.002-.005-.005-.005 -.003 0-.005.002-.005.005 0 .003.002.005.005.005 .003 3.55271e-15.005-.002.005-.005"></path><path d="M8 10.995h8"></path><path d="M8 13.995h8"></path><path d="M15.5 17c0-.003-.002-.005-.005-.005 -.003 0-.005.002-.005.005 0 .003.002.005.005.005 .003 0 .005-.002.005-.005"></path><path d="M12.005 16.99c0-.003-.002-.005-.005-.005 -.003 0-.005.002-.005.005 0 .003.002.005.005.005 .003 0 .005-.002.005-.005"></path></g><path fill="none" d="M0 0h24v24h-24v-24Z"></path></svg>