<?xml version="1.0" encoding="UTF-8"?><svg version="1.1" viewBox="0 0 24 24" xmlns="http://www.w3.org/2000/svg" xmlns:xlink="http://www.w3.org/1999/xlink"><g stroke-linecap="round" stroke-width="1.5" stroke="#323232" fill="none" stroke-linejoin="round"><path d="M19 11v-3.172c0-.53-.211-1.039-.586-1.414l-2.828-2.828c-.375-.375-.884-.586-1.414-.586h-7.172c-1.105 0-2 .895-2 2v14c0 1.105.895 2 2 2h4"></path><path d="M19 8h-4c-.552 0-1-.448-1-1v-4"></path><path d="M13.561 18.306c-.32-.485-.32-1.125 0-1.61 .99-1.497 2.544-2.696 4.099-2.696 1.555 0 3.108 1.199 4.099 2.695 .321.485.321 1.126 0 1.61 -.992 1.496-2.545 2.695-4.099 2.695 -1.555.001-3.109-1.198-4.099-2.694Z"></path><path d="M17.776 17.384c.065.065.065.169 0 .234 -.065.065-.169.065-.234 0 -.065-.065-.065-.169 0-.234 .065-.065.17-.065.234 0"></path></g><path fill="none" d="M0 0h24v24h-24v-24Z"></path></svg>