<?xml version="1.0" encoding="UTF-8"?><svg version="1.1" viewBox="0 0 24 24" xmlns="http://www.w3.org/2000/svg" xmlns:xlink="http://www.w3.org/1999/xlink"><g fill="none"><path d="M0 0h24v24h-24Z"></path><path stroke="#323232" stroke-linecap="round" stroke-linejoin="round" stroke-width="1.5" d="M19.121 13.879c1.298 1.298 1.158 3.487-.418 4.594 -1.003.704-2.404.704-3.407 0 -1.577-1.106-1.716-3.296-.418-4.594 1.172-1.172 3.072-1.172 4.243 1.77636e-15"></path><path stroke="#323232" stroke-linecap="round" stroke-linejoin="round" stroke-width="1.5" d="M21 20l-1.88-1.88"></path><path stroke="#323232" stroke-linecap="round" stroke-linejoin="round" stroke-width="1.5" d="M7 13h4"></path><path stroke="#323232" stroke-linecap="round" stroke-linejoin="round" stroke-width="1.5" d="M7 9h8"></path><path stroke="#323232" stroke-linecap="round" stroke-linejoin="round" stroke-width="1.5" d="M19 10v-3c0-1.657-1.343-3-3-3h-10c-1.657 0-3 1.343-3 3v9c0 1.657 1.343 3 3 3h5"></path></g></svg>