<?xml version="1.0" encoding="UTF-8"?><svg version="1.1" viewBox="0 0 24 24" xmlns="http://www.w3.org/2000/svg" xmlns:xlink="http://www.w3.org/1999/xlink"><g fill="none"><path d="M0 24v-24h24v24Z"></path><path stroke="#323232" stroke-linecap="round" stroke-linejoin="round" stroke-width="1.5" d="M7.936 15v-6"></path><path stroke="#323232" stroke-linecap="round" stroke-linejoin="round" stroke-width="1.5" d="M7.936 9h1.8l2.9824e-08 5.36726e-11c.919487.00165476 1.664.747512 1.664 1.667v0l-1.77636e-15-1.77636e-15c0 .920659-.746341 1.667-1.667 1.667h-1.733"></path><path stroke="#323232" stroke-linecap="round" stroke-linejoin="round" stroke-width="1.5" d="M13.6 14.628l3.70146e-08 4.41698e-08c.196454.23443.486142.370496.792.372h.568l3.70035e-08-1.23228e-10c.576582-.00192013 1.04244-.470889 1.04052-1.04747 -.00158685-.476504-.325614-.891467-.787518-1.00853l-.475-.119 -.475-.119 -4.14109e-09-1.04954e-09c-.558914-.141654-.897169-.709577-.755515-1.26849 .117157-.462255.532647-.786373 1.00952-.787509h.568l-1.11642e-09-6.48548e-12c.305796.00177622.595376.137791.792.372"></path><path stroke="#323232" stroke-linecap="round" stroke-linejoin="round" stroke-width="1.5" d="M6 3h12l-8.74228e-08 1.77636e-15c1.10457-4.82823e-08 2 .89543 2 2v14 0c0 1.10457-.895431 2-2 2h-12l-8.74228e-08-3.55271e-15c-1.10457-4.82823e-08-2-.895431-2-2 0 0 0 0 0 0v-14l2.30926e-14 3.01992e-07c-1.66785e-07-1.10457.89543-2 2-2Z"></path></g></svg>