<?xml version="1.0" encoding="UTF-8"?><svg version="1.1" viewBox="0 0 24 24" xmlns="http://www.w3.org/2000/svg" xmlns:xlink="http://www.w3.org/1999/xlink"><g stroke-linecap="round" stroke-width="1.5" stroke="#323232" fill="none" stroke-linejoin="round"><path d="M19 11v-3.172c0-.53-.211-1.039-.586-1.414l-2.828-2.828c-.375-.375-.884-.586-1.414-.586h-7.172c-1.105 0-2 .895-2 2v14c0 1.105.895 2 2 2h6"></path><path d="M19 8h-4c-.552 0-1-.448-1-1v-4"></path><path stroke-width="1.3125" d="M22 17.5c0 1.937-1.563 3.5-3.5 3.5 -1.937 0-3.5-1.563-3.5-3.5 0-1.937 1.563-3.5 3.5-3.5 1.937 0 3.5 1.563 3.5 3.5Z"></path><path stroke-width="1.3125" d="M16.026 19.974l4.948-4.948"></path></g><path fill="none" d="M0 0h24v24h-24v-24Z"></path></svg>