<?xml version="1.0" encoding="UTF-8"?><svg version="1.1" viewBox="0 0 24 24" xmlns="http://www.w3.org/2000/svg" xmlns:xlink="http://www.w3.org/1999/xlink"><!--Generated by IJSVG (https://github.com/iconjar/IJSVG)--><g stroke-linecap="round" stroke-width="1.5" stroke="#323232" fill="none" stroke-linejoin="round"><path d="M17.872,4.586l2.543,2.543c0.374,0.375 0.585,0.883 0.585,1.414v6.457c0,1.105 -0.895,2 -2,2h-10.714c-1.105,0 -2,-0.895 -2,-2v-9c0,-1.105 0.895,-2 2,-2h8.172c0.53,0 1.038,0.211 1.414,0.586Z"></path><path d="M16,4v4c0,0.552 0.448,1 1,1h4"></path><path d="M6.286,7h-1.286c-1.105,0 -2,0.895 -2,2v9c0,1.105 0.895,2 2,2h11c1.105,0 2,-0.895 2,-2v-1"></path></g><path fill="none" d="M0,0h24v24h-24Z" transform="matrix(4.48682e-11,-1,1,4.48682e-11,-1.91891e-07,24)"></path></svg>