<?xml version="1.0" encoding="UTF-8"?><svg version="1.1" viewBox="0 0 24 24" xmlns="http://www.w3.org/2000/svg" xmlns:xlink="http://www.w3.org/1999/xlink"><g stroke-linecap="round" stroke-width="1.5" stroke="#323232" fill="none" stroke-linejoin="round"><path d="M7 7v-2l2.30926e-14 3.01992e-07c-1.66785e-07-1.10457.89543-2 2-2h10l-8.74228e-08 1.77636e-15c1.10457-4.82823e-08 2 .89543 2 2v14 0c0 1.10457-.895431 2-2 2h-10l-8.74228e-08-3.55271e-15c-1.10457-4.82823e-08-2-.895431-2-2 0 0 0 0 0 0v-2"></path><rect width="10" height="10" x="3" y="7" rx="1.10456" ry="0"></rect><line x1="21" x2="13" y1="9.08" y2="9.08"></line><line x1="21" x2="13" y1="15" y2="15"></line><path d="M9.862 10.962l-2.5 2.5 -1.5-1.5"></path></g><path fill="none" d="M0 0h24v24h-24Z"></path></svg>