<svg id="Layer_3" data-name="Layer 3" xmlns="http://www.w3.org/2000/svg" viewBox="0 0 24 24"><path d="M20.76929,10A9.02818,9.02818,0,1,1,14,3.23071" fill="none" stroke="#323232" stroke-linecap="round" stroke-linejoin="round" stroke-width="1.5"/><path d="M17.5,6.5,20,4" fill="none" stroke="#323232" stroke-linecap="round" stroke-linejoin="round" stroke-width="1.5"/><path d="M20,6.5,17.5,4" fill="none" stroke="#323232" stroke-linecap="round" stroke-linejoin="round" stroke-width="1.5"/><path d="M15.56066,9.34711,14.15289,7.93934A1.5,1.5,0,0,0,13.09223,7.5H9.5A1.5,1.5,0,0,0,8,9v6a1.5,1.5,0,0,0,1.5,1.5h5A1.5,1.5,0,0,0,16,15V10.40777A1.5,1.5,0,0,0,15.56066,9.34711Z" fill="none" stroke="#323232" stroke-linecap="round" stroke-linejoin="round" stroke-width="1.5"/><path d="M0,24H24V0H0Z" fill="none"/></svg>