<svg id="Layer_3" data-name="Layer 3" xmlns="http://www.w3.org/2000/svg" viewBox="0 0 24 24"><path d="M12,13h0a.5.5,0,0,1,.5.5v0a.16667.16667,0,0,1-.16667.16667h-.66667A.16667.16667,0,0,1,11.5,13.5v0A.5.5,0,0,1,12,13Z" transform="translate(24 26.66667) rotate(180)" fill="none" stroke="#323232" stroke-linecap="round" stroke-linejoin="round" stroke-width="1.5"/><path d="M18,13a1,1,0,0,0,1,1h0a2,2,0,0,0,2-2V9a3,3,0,0,0-3-3h-.41695" fill="none" stroke="#323232" stroke-linecap="round" stroke-linejoin="round" stroke-width="1.5"/><line x1="8.05124" y1="17.84629" x2="7" y2="21" fill="none" stroke="#323232" stroke-linecap="round" stroke-linejoin="round" stroke-width="1.5"/><line x1="15.94876" y1="17.84629" x2="17" y2="21" fill="none" stroke="#323232" stroke-linecap="round" stroke-linejoin="round" stroke-width="1.5"/><path d="M6.417,6H6A3,3,0,0,0,3,9v3a2,2,0,0,0,2,2H5a1,1,0,0,0,1-1" fill="none" stroke="#323232" stroke-linecap="round" stroke-linejoin="round" stroke-width="1.5"/><path d="M14,17.82907V18.5A1.5,1.5,0,0,1,12.5,20h-1A1.5,1.5,0,0,1,10,18.5v-.67129" fill="none" stroke="#323232" stroke-linecap="round" stroke-linejoin="round" stroke-width="1.5"/><path d="M12,13.66667V15a3,3,0,0,1-3,3H9a3,3,0,0,1-3-3V8a5,5,0,0,1,5-5h2a5,5,0,0,1,5,5v7a3,3,0,0,1-3,3h0a3,3,0,0,1-3-3Z" fill="none" stroke="#323232" stroke-linecap="round" stroke-linejoin="round" stroke-width="1.5"/><path d="M14.25,9.50032A.25.25,0,1,1,13.99968,9.25a.25.25,0,0,1,.25032.25032" fill="none" stroke="#323232" stroke-linecap="round" stroke-linejoin="round" stroke-width="1.5"/><path d="M10.25,9.50032A.25.25,0,1,1,9.99968,9.25a.25.25,0,0,1,.25032.25032" fill="none" stroke="#323232" stroke-linecap="round" stroke-linejoin="round" stroke-width="1.5"/><rect width="24" height="24" fill="none"/></svg>