<?xml version="1.0" encoding="UTF-8"?><svg version="1.1" viewBox="0 0 24 24" xmlns="http://www.w3.org/2000/svg" xmlns:xlink="http://www.w3.org/1999/xlink"><!--Generated by IJSVG (https://github.com/iconjar/IJSVG)--><g fill="none"><path d="M0,0h24v24h-24v-24Z"></path><path stroke="#323232" stroke-linecap="round" stroke-linejoin="round" stroke-width="1.5" d="M11.75,7v1.25"></path><path stroke="#323232" stroke-linecap="round" stroke-linejoin="round" stroke-width="1.5" d="M11.75,17v-1.25"></path><path stroke="#323232" stroke-linecap="round" stroke-linejoin="round" stroke-width="1.5" d="M14.237,10c-0.065,-0.976 -0.87,-1.75 -1.862,-1.75h-1.37c-0.97,0 -1.755,0.786 -1.755,1.755c0,0.805 0.548,1.507 1.328,1.703l2.343,0.588c0.781,0.196 1.328,0.898 1.328,1.703c0,0.97 -0.786,1.755 -1.755,1.755h-1.37c-0.994,0 -1.799,-0.776 -1.863,-1.754"></path><path stroke="#323232" stroke-linecap="round" stroke-linejoin="round" stroke-width="1.5" d="M10.5,21h3"></path><path stroke="#323232" stroke-linecap="round" stroke-linejoin="round" stroke-width="1.5" d="M13.5,3h-3"></path><path stroke="#323232" stroke-linecap="round" stroke-linejoin="round" stroke-width="1.5" d="M3,10.5v3"></path><path stroke="#323232" stroke-linecap="round" stroke-linejoin="round" stroke-width="1.5" d="M21,13.5v-3"></path><path stroke="#323232" stroke-linecap="round" stroke-linejoin="round" stroke-width="1.5" d="M21,6v-1.786c0,-0.67 -0.544,-1.214 -1.214,-1.214h-1.786"></path><path stroke="#323232" stroke-linecap="round" stroke-linejoin="round" stroke-width="1.5" d="M3,18v1.786c0,0.67 0.544,1.214 1.214,1.214h1.786"></path><path stroke="#323232" stroke-linecap="round" stroke-linejoin="round" stroke-width="1.5" d="M6,3h-1.786c-0.67,0 -1.214,0.544 -1.214,1.214v1.786"></path><path stroke="#323232" stroke-linecap="round" stroke-linejoin="round" stroke-width="1.5" d="M18,21h1.786c0.67,0 1.214,-0.544 1.214,-1.214v-1.786"></path></g></svg>