<?xml version="1.0" encoding="UTF-8"?><svg version="1.1" viewBox="0 0 24 24" xmlns="http://www.w3.org/2000/svg" xmlns:xlink="http://www.w3.org/1999/xlink"><g fill="none"><path d="M0 0h24v24h-24Z"></path><path stroke="#323232" stroke-linecap="round" stroke-linejoin="round" stroke-width="1.5" d="M8 17.5l2 2 -2 2"></path><path stroke="#323232" stroke-linecap="round" stroke-linejoin="round" stroke-width="1.5" d="M10 19.5h-6"></path><path stroke="#323232" stroke-linecap="round" stroke-linejoin="round" stroke-width="1.5" d="M13.9975 20.2735l3.42075e-07-7.7882e-08c4.84546-1.10319 7.87917-5.92553 6.77598-10.771 -1.10319-4.84546-5.92553-7.87917-10.771-6.77598 -4.84546 1.10319-7.87917 5.92553-6.77598 10.771 .158146.694613.398222 1.36799.715186 2.00598"></path><path stroke="#323232" stroke-linecap="round" stroke-linejoin="round" stroke-width="1.5" d="M12 8.49367v-1"></path><path stroke="#323232" stroke-linecap="round" stroke-linejoin="round" stroke-width="1.5" d="M12 14.4937v1"></path><path stroke="#323232" stroke-linecap="round" stroke-linejoin="round" stroke-width="1.5" d="M10.266 13.7797l-2.32433e-08-3.96729e-08c.256977.438621.725662.709805 1.234.714h1.1l-8.10655e-08-2.04619e-09c.772952.0195103 1.41537-.591275 1.43488-1.36423 .0168827-.668853-.441851-1.25617-1.09488-1.40177l-1.874-.471 -7.53484e-08-1.76565e-08c-.752806-.176406-1.22007-.929682-1.04366-1.68249 .149578-.638316.722093-1.08734 1.37766-1.08051h1.1l7.75235e-08 5.24736e-10c.508805.00344398.978133.274781 1.235.714"></path></g></svg>