<?xml version="1.0" encoding="UTF-8"?><svg version="1.1" viewBox="0 0 24 24" xmlns="http://www.w3.org/2000/svg" xmlns:xlink="http://www.w3.org/1999/xlink"><g stroke-linecap="round" stroke-width="1.5" stroke="#323232" fill="none" stroke-linejoin="round"><path d="M9 8h-.75l-4.72902e-08-3.78773e-11c-.689803-.00055248-1.24945.558196-1.25 1.248 -5.34163e-07.000666934-5.34138e-07.00133387 7.57545e-11.0020008v5.5l-2.82663e-08 3.59377e-05c-.000532632.689803.558232 1.24943 1.24804 1.24996 .000666918 5.14961e-07.00133384 4.95759e-07.00200075-5.76058e-08h.749964"></path><path d="M12.894 16.97l3.125-.69 1.57445e-08-3.46952e-09c.573062-.126282.981135-.634189.981-1.221v-6.118l3.30615e-08-.000287496c0-.586811-.40819-1.09462-.981281-1.22077l-3.125-.69 1.16725e-08 2.58441e-09c-.673493-.149117-1.34035.275973-1.48947.949466 -.0197407.0891595-.0296438.180215-.0295318.271534v7.5l-4.72299e-08-.000343294c1.04157e-07.689804.559197 1.249 1.249 1.249 .0907873-1.37085e-08.181304-.00989866.269945-.0295205Z"></path><rect width="18" height="18" x="3" y="3" rx="2.7614" ry="0"></rect><path d="M13.75 11.5v1"></path></g><path fill="none" d="M0 0h24v24h-24Z"></path></svg>