<?xml version="1.0" encoding="UTF-8"?><svg version="1.1" viewBox="0 0 24 24" xmlns="http://www.w3.org/2000/svg" xmlns:xlink="http://www.w3.org/1999/xlink"><g stroke-linecap="round" stroke-width="1.5" stroke="#323232" fill="none" stroke-linejoin="round"><path d="M16 10h2l-8.74228e-08 1.77636e-15c1.10457-4.82823e-08 2 .89543 2 2v7 0c0 1.10457-.895431 2-2 2h-8l-8.74228e-08-3.55271e-15c-1.10457-4.82823e-08-2-.895431-2-2 0 0 0 0 0 0v-2"></path><polyline points="7.5,10.688 10,13.188 12.5,10.688"></polyline><line x1="10" x2="10" y1="3" y2="13"></line><path d="M13 7h1l-8.74228e-08 1.77636e-15c1.10457-4.82823e-08 2 .89543 2 2v6 0c0 1.10457-.895431 2-2 2h-8l-8.74228e-08-3.55271e-15c-1.10457-4.82823e-08-2-.895431-2-2 0 0 0 0 0 0v-6l2.30926e-14 3.01992e-07c-1.66785e-07-1.10457.89543-2 2-2h1"></path></g><rect width="24" height="24" fill="none"></rect></svg>