<?xml version="1.0" encoding="UTF-8"?><svg version="1.1" viewBox="0 0 24 24" xmlns="http://www.w3.org/2000/svg" xmlns:xlink="http://www.w3.org/1999/xlink"><!--Generated by IJSVG (https://github.com/iconjar/IJSVG)--><g fill="none"><path d="M0,0h24v24h-24Z"></path><path stroke="#323232" stroke-linecap="round" stroke-linejoin="round" stroke-width="1.5" d="M19.0711,4.92893c3.90524,3.90524 3.90524,10.2369 0,14.1421c-3.90524,3.90524 -10.2369,3.90524 -14.1421,0c-3.90524,-3.90524 -3.90524,-10.2369 -1.77636e-15,-14.1421c3.90524,-3.90524 10.2369,-3.90524 14.1421,-1.77636e-15"></path><path stroke="#323232" stroke-linecap="round" stroke-linejoin="round" stroke-width="1.5" d="M10.076,6.419c2.296,3.33 3.834,7.023 4.61,10.843"></path><path stroke="#323232" stroke-linecap="round" stroke-linejoin="round" stroke-width="1.5" d="M17.895,12.527c-3.869,-0.846 -7.759,0.666 -10.072,3.652"></path><path stroke="#323232" stroke-linecap="round" stroke-linejoin="round" stroke-width="1.5" d="M6.128,11.367c3.585,0.38 7.303,-0.798 10.051,-3.545"></path><path stroke="#323232" stroke-linecap="round" stroke-linejoin="round" stroke-width="1.5" d="M16.178,7.822c2.308,2.308 2.308,6.049 0,8.357c-2.308,2.308 -6.049,2.308 -8.357,0c-2.308,-2.308 -2.308,-6.049 0,-8.357c2.308,-2.308 6.05,-2.308 8.357,8.88178e-16"></path></g></svg>