<?xml version="1.0" encoding="UTF-8"?><svg version="1.1" viewBox="0 0 24 24" xmlns="http://www.w3.org/2000/svg" xmlns:xlink="http://www.w3.org/1999/xlink"><g stroke-linecap="round" stroke-width="1.5" stroke="#323232" fill="none" stroke-linejoin="round"><line x1="23" x2="21.5" y1="3" y2="3"></line><line x1="18.5" x2="17" y1="3" y2="3"></line><path d="M13.092 12h-2.184l-1.46382e-07 2.77122e-10c-.591844.00112043-1.1708-.172844-1.664-.5l-1.488-1 8.40163e-10 5.57305e-10c-.493203-.327156-1.07216-.50112-1.664-.5h-3.092l-8.74228e-08-3.55271e-15c-1.10457-4.82823e-08-2-.895431-2-2h-3.55271e-15l2.13163e-14-2.14569e-07c1.66785e-07-1.10457.895431-2 2-2h3.092l-1.15886e-07-2.19393e-10c.591844.00112048 1.1708-.172844 1.664-.5l1.488-1 7.86259e-08-5.21549e-08c.493203-.327156 1.07216-.50112 1.664-.5h2.184l-1.15886e-07 2.19393e-10c.591844-.00112048 1.1708.172844 1.664.5l1.488.992 7.86259e-08 5.21549e-08c.493203.327156 1.07216.50112 1.664.5h3.092l-8.74228e-08 1.77636e-15c1.10457-4.82823e-08 2 .89543 2 2v0 0c0 1.10457-.895431 2-2 2h-4l-2.244 1.5 8.21315e-09-5.50507e-09c-.49231.329983-1.07133.506752-1.664.508Z"></path><line x1="10.5" x2="13.5" y1="8" y2="8"></line><rect width="8.219" height="6" x="7.781" y="15" rx=".646168" ry="0"></rect><path d="M20 13l-.678 3.392 4.35939e-08-2.18104e-07c-.186935.93525-1.00825 1.60838-1.962 1.608h-1.36"></path><path d="M4 13l.678 3.392 -2.52924e-08-1.2654e-07c.186935.93525 1.00825 1.60838 1.962 1.608h1.141"></path><line x1="20" x2="20" y1="4.5" y2="6"></line><line x1="7" x2="5.5" y1="3" y2="3"></line><line x1="2.5" x2="1" y1="3" y2="3"></line><line x1="4" x2="4" y1="4.5" y2="6"></line></g><rect width="24" height="24" fill="none"></rect></svg>