<?xml version="1.0" encoding="UTF-8"?><svg version="1.1" viewBox="0 0 24 24" xmlns="http://www.w3.org/2000/svg" xmlns:xlink="http://www.w3.org/1999/xlink"><g fill="none"><path d="M0 0h24v24h-24Z"></path><path stroke="#323232" stroke-linecap="round" stroke-linejoin="round" stroke-width="1.5" d="M5 3l-8.74228e-08 1.77636e-15c-1.10457 4.82823e-08-2 .895431-2 2 0 0 0 8.88178e-16 0 8.88178e-16"></path><path stroke="#323232" stroke-linecap="round" stroke-linejoin="round" stroke-width="1.5" d="M3 8.33v2"></path><path stroke="#323232" stroke-linecap="round" stroke-linejoin="round" stroke-width="1.5" d="M8.33 3h2"></path><path stroke="#323232" stroke-linecap="round" stroke-linejoin="round" stroke-width="1.5" d="M19 21l-8.74228e-08-3.55271e-15c1.10457 4.82823e-08 2-.89543 2-2"></path><path stroke="#323232" stroke-linecap="round" stroke-linejoin="round" stroke-width="1.5" d="M21 15.67v-2"></path><path stroke="#323232" stroke-linecap="round" stroke-linejoin="round" stroke-width="1.5" d="M15.67 21h-2"></path><path stroke="#323232" stroke-linecap="round" stroke-linejoin="round" stroke-width="1.5" d="M16.275 2.3l-3.187 5.415 -3.77055e-08 6.2952e-08c-.17623.294229-.0805734.675611.213655.851841 .09329.0558767.199617.0862766.308345.0881587h2.984v2.724l-8.15447e-09 3.85247e-07c-.00709421.335162.258857.612615.594019.619709 .220308.00466315.425839-.110435.536981-.30071l3.187-5.413 9.80952e-09-1.63777e-08c.17623-.294229.0805735-.675611-.213655-.851841 -.09329-.0558767-.199617-.0862766-.308345-.0881588h-2.984v-2.723l2.22552e-08-8.45475e-07c.00882104-.335121-.255697-.613941-.590818-.622762 -.221453-.00582909-.428495.109448-.540183.300763Z"></path><path stroke="#323232" stroke-linecap="round" stroke-linejoin="round" stroke-width="1.5" d="M6.84 13.321l1.917 2.565 2.20587e-08 2.95553e-08c1.05708 1.41632.765851 3.42141-.650474 4.47849 -.550775.411073-1.21926.633902-1.90653.635509v0l1.53497e-07 3.11026e-10c-1.76731-.003581-3.19709-1.43917-3.19351-3.20648 .00139326-.687605.224233-1.35647.635509-1.90752l1.918-2.565 4.10507e-08-5.47342e-08c.265097-.353462.766538-.425097 1.12-.16 .0606445.0454834.114517.0993555.16.16Z"></path></g></svg>