<?xml version="1.0" encoding="UTF-8"?><svg version="1.1" viewBox="0 0 24 24" xmlns="http://www.w3.org/2000/svg" xmlns:xlink="http://www.w3.org/1999/xlink"><g fill="none"><path d="M0 0h24v24h-24Z"></path><path stroke="#323232" stroke-linecap="round" stroke-linejoin="round" stroke-width="1.5" d="M18 7v-2 0c0-1.10457-.895431-2-2-2h-11l-8.74228e-08 1.77636e-15c-1.10457 4.82823e-08-2 .895431-2 2 0 0 0 8.88178e-16 0 8.88178e-16v5l2.30926e-14 3.01992e-07c1.66785e-07 1.10457.895431 2 2 2h2"></path><path stroke="#323232" stroke-linecap="round" stroke-linejoin="round" stroke-width="1.5" d="M19.444 21h-10.888l5.45024e-08-3.50582e-11c-.858803.000552493-1.55545-.695197-1.556-1.554 -4.29024e-07-.000666881-4.29047e-07-.00133376-7.01217e-11-.00200064v-10.888l-4.36158e-08-7.02689e-05c-.000513654-.858803.695267-1.55542 1.55407-1.55593 .000666881-3.98865e-07.00133376-3.68729e-07.00200064 9.04071e-08h10.8889l6.81717e-08-1.06581e-14c.858803-1.39917e-07 1.555.696197 1.555 1.555 5.43245e-11.000333425-1.07131e-07.00066685-3.21557e-07.00100027v10.889l3.55271e-14 3.21543e-07c0 .858803-.696197 1.555-1.555 1.555 -.000333441 0-.000666881-1.0725e-07-.00100032-3.2175e-07Z"></path><path stroke="#323232" stroke-linecap="round" stroke-linejoin="round" stroke-width="1.5" d="M15.556 11.5l-1.944 1.944 -1.167-1.167"></path><path stroke="#323232" stroke-linecap="round" stroke-linejoin="round" stroke-width="1.5" d="M11 16.5h6"></path></g></svg>