<svg xmlns="http://www.w3.org/2000/svg" viewBox="0 0 24 24"><g id="Layer_2" data-name="Layer 2"><path d="M24,24,0,24,0,0,24,0Z" fill="none"/><path d="M9.74139,14.47938h0a2.97156,2.97156,0,0,1,0-3.92762l1.50806-1.71264a1,1,0,0,1,1.50108,0l1.50806,1.71264a2.97156,2.97156,0,0,1,0,3.92761h0A3.00947,3.00947,0,0,1,9.74139,14.47938Z" fill="none" stroke="#323232" stroke-linecap="round" stroke-linejoin="round" stroke-width="1.5"/><path d="M20,12.52085c0,3.77466-4.64474,6.57871-6.85981,7.70459a2.50478,2.50478,0,0,1-2.27648.002C8.65019,19.10272,4,16.29179,4,12.52085L4,7.06943a1.01225,1.01225,0,0,1,.9021-.99168A11.39247,11.39247,0,0,0,10.77472,3.9059a2.05228,2.05228,0,0,1,2.45054,0,11.39248,11.39248,0,0,0,5.87262,2.17185A1.01136,1.01136,0,0,1,20,7.06853Z" fill="none" stroke="#323232" stroke-linecap="round" stroke-linejoin="round" stroke-width="1.5"/></g></svg>