<svg xmlns="http://www.w3.org/2000/svg" viewBox="0 0 24 24"><g id="Layer_2" data-name="Layer 2"><g id="Layer_22" data-name="Layer 22"><path d="M0,0H24V24H0Z" fill="none"/></g><path d="M3.13667,16.5V11.2A5,5,0,0,1,5.01318,7.29569l4-3.2a5,5,0,0,1,6.247,0l4,3.2A5,5,0,0,1,21.13666,11.2v5.3a4.5,4.5,0,0,1-4.5,4.5h-9A4.5,4.5,0,0,1,3.13667,16.5Z" fill="none" stroke="#323232" stroke-linecap="round" stroke-linejoin="round" stroke-width="1.5"/><path d="M9.74139,15.47941h0a2.97156,2.97156,0,0,1,0-3.92762l1.50806-1.71263a1,1,0,0,1,1.50108,0l1.50806,1.71263a2.97158,2.97158,0,0,1,0,3.92762h0A3.00946,3.00946,0,0,1,9.74139,15.47941Z" fill="none" stroke="#323232" stroke-linecap="round" stroke-linejoin="round" stroke-width="1.5"/></g></svg>