<?xml version="1.0" encoding="UTF-8"?><svg version="1.1" viewBox="0 0 24 24" xmlns="http://www.w3.org/2000/svg" xmlns:xlink="http://www.w3.org/1999/xlink"><g stroke-linecap="round" stroke-width="1.5" stroke="#323232" fill="none" stroke-linejoin="round"><polyline points="18,15.75 21,15.75 21,18.75"></polyline><path d="M16.533 4.076l4.14578e-07 2.39908e-07c-.915445-.52975-1.9171-.89399-2.959-1.076"></path><path d="M20.518 8.827l8.10504e-08 2.23809e-07c-.360175-.994571-.891512-1.91849-1.57-2.73"></path><path d="M10.426 3l-9.7112e-08 1.69646e-08c-1.0419.18201-2.04355.54625-2.959 1.076"></path><path d="M5.052 6.1l3.30978e-07-3.95869e-07c-.678488.811511-1.20983 1.73543-1.57 2.73"></path><path d="M3 12l-3.89465e-07-.000215651c.00891725 4.97055 4.04558 8.99276 9.01613 8.98384 3.50659-.00629087 6.69025-2.04869 8.15778-5.23343"></path><path d="M3 12l1.03029e-13 1.35896e-06c7.50534e-07 4.97056 4.02944 9 9 9"></path><path d="M12.64 8.321l1.917 2.565 2.20587e-08 2.95553e-08c1.05708 1.41632.765851 3.42141-.650474 4.47849 -.550775.411073-1.21926.633902-1.90653.635509v0l-1.57975e-07-3.69393e-10c-1.76731-.00413256-3.19664-1.44017-3.19251-3.20747 .00160706-.687264.224436-1.35575.635509-1.90653l1.917-2.565 4.10507e-08-5.47342e-08c.265097-.353462.766538-.425097 1.12-.16 .0606445.0454834.114517.0993555.16.16Z"></path></g><rect width="24" height="24" fill="none"></rect></svg>