<svg xmlns="http://www.w3.org/2000/svg" viewBox="0 0 24 24"><g id="Layer_2" data-name="Layer 2"><path d="M9.74139,14.4794h0a2.97156,2.97156,0,0,1,0-3.92762l1.50806-1.71263a1,1,0,0,1,1.50108,0l1.50806,1.71263a2.97158,2.97158,0,0,1,0,3.92762h0A3.00946,3.00946,0,0,1,9.74139,14.4794Z" fill="none" stroke="#323232" stroke-linecap="round" stroke-linejoin="round" stroke-width="1.5"/><path d="M0,24V0H24V24Z" fill="none"/><line x1="15.5" y1="5.99881" x2="15.5" y2="3.00001" fill="none" stroke="#323232" stroke-linecap="round" stroke-linejoin="round" stroke-width="1.5"/><line x1="18.5" y1="3.00001" x2="15.5" y2="3.00001" fill="none" stroke="#323232" stroke-linecap="round" stroke-linejoin="round" stroke-width="1.5"/><path d="M3,12A9,9,0,1,0,15.5,3.70612" fill="none" stroke="#323232" stroke-linecap="round" stroke-linejoin="round" stroke-width="1.5"/><path d="M10.4646,2.96469l.00009-.00008a.0473.0473,0,1,1-.00009.00008" fill="none" stroke="#323232" stroke-linecap="round" stroke-linejoin="round" stroke-width="1.5"/><path d="M6.4646,4.46469l.00009-.00008a.0473.0473,0,1,1-.00009.00008" fill="none" stroke="#323232" stroke-linecap="round" stroke-linejoin="round" stroke-width="1.5"/><path d="M3.4646,7.96469l.00009-.00008a.0473.0473,0,1,1-.00009.00008" fill="none" stroke="#323232" stroke-linecap="round" stroke-linejoin="round" stroke-width="1.5"/></g></svg>