<?xml version="1.0" encoding="UTF-8"?><svg version="1.1" viewBox="0 0 24 24" xmlns="http://www.w3.org/2000/svg" xmlns:xlink="http://www.w3.org/1999/xlink"><!--Generated by IJSVG (https://github.com/iconjar/IJSVG)--><g stroke-linecap="round" stroke-width="1.5" stroke="#323232" fill="none" stroke-linejoin="round"><path d="M8.429,12.429h4c0.552,0 1,0.48 1,1.071v3c0,0.592 -0.448,1.071 -1,1.071h-4c-0.552,0 -1,-0.48 -1,-1.071v-3c0,-0.592 0.447,-1.071 1,-1.071Z"></path><path d="M17,11.117v8.169c0,0.946 -0.768,1.714 -1.714,1.714h-9.572c-0.946,0 -1.714,-0.768 -1.714,-1.714v-11.572c0,-0.946 0.768,-1.714 1.714,-1.714h6.274c0.464,0 0.908,0.188 1.231,0.521l3.297,3.403c0.311,0.32 0.484,0.748 0.484,1.193Z"></path><path d="M9,3h5.988c0.464,0 0.908,0.188 1.231,0.521l3.297,3.403c0.311,0.32 0.484,0.748 0.484,1.193v7.883"></path></g><path fill="none" d="M0,0h24v24h-24v-24Z"></path></svg>