<?xml version="1.0" encoding="UTF-8"?><svg version="1.1" viewBox="0 0 24 24" xmlns="http://www.w3.org/2000/svg" xmlns:xlink="http://www.w3.org/1999/xlink"><g transform="matrix(1 0 0 1 12 -4.971)"><rect width="3.728" height="9.321" x="10.136" y="7.34" fill="none" stroke="#323232" stroke-linecap="round" stroke-linejoin="round" stroke-width="1.5" transform="matrix(.707107 .707107 -.707107 .707107 0 0)"></rect></g><g transform="matrix(1 0 0 1 13.774 -.687)"><rect width="13.049" height="2.796" x="1.192" y="14.886" fill="none" rx=".514725" ry="0" stroke="#323232" stroke-linecap="round" stroke-linejoin="round" stroke-width="1.5" transform="matrix(.707107 .707107 -.707107 .707107 0 0)"></rect></g><g transform="matrix(1 0 0 1 14.593 1.291)"><rect width="7.457" height="2.796" x="2.011" y="16.863" fill="none" rx=".514725" ry="0" stroke="#323232" stroke-linecap="round" stroke-linejoin="round" stroke-width="1.5" transform="matrix(.707107 .707107 -.707107 .707107 0 0)"></rect></g><g transform="matrix(1 0 0 1 22.342 24.687)"><rect width="13.049" height="2.796" x="9.759" y="6.318" fill="none" rx=".514725" ry="0" stroke="#323232" stroke-linecap="round" stroke-linejoin="round" stroke-width="1.5" transform="matrix(-.707107 -.707107 .707107 -.707107 0 0)"></rect></g><g transform="matrix(1 0 0 1 27.116 22.709)"><rect width="7.457" height="2.796" x="14.533" y="4.341" fill="none" rx=".514725" ry="0" stroke="#323232" stroke-linecap="round" stroke-linejoin="round" stroke-width="1.5" transform="matrix(-.707107 -.707107 .707107 -.707107 0 0)"></rect></g><rect width="24" height="24" fill="none"></rect></svg>