<?xml version="1.0" encoding="UTF-8"?><svg version="1.1" viewBox="0 0 24 24" xmlns="http://www.w3.org/2000/svg" xmlns:xlink="http://www.w3.org/1999/xlink"><g stroke-linecap="round" stroke-width="1.5" stroke="#323232" fill="none" stroke-linejoin="round"><path d="M20 11h-4.172l-1.23616e-07-1.77636e-15c-1.56186-6.82711e-08-2.828-1.26614-2.828-2.828 0 0 0-1.77636e-15 0-1.77636e-15v0l-6.38049e-09-.000189575c-1.13258e-07-.750072.297875-1.46944.828134-1.99994l2.454-2.454"></path><path d="M4.708 17.438l1.777-2.665 5.4696e-09-8.21488e-09c.321447-.482786.862991-.772886 1.443-.773v0l2.01643e-08-1.98774e-12c.656918-6.47342e-05 1.25739-.371346 1.551-.959l.133-.266 1.67329e-08-3.34882e-08c.243948-.488223.243948-1.06278-3.34658e-08-1.551l-1.133-2.265 -2.00839e-08-4.027e-08c-.293245-.587983-.893949-.959404-1.551-.959h-4.408"></path><path d="M11 2l-3.93403e-07 8.88178e-15c-4.97056 2.1727e-07-9 4.02944-9 9 2.1727e-07 4.97056 4.02944 9 9 9"></path><path d="M20 11l2.24225e-07-.000134804c.00821675-4.96227-4.00784-8.99165-8.97011-8.99987 -.0100084-1.65723e-05-.0200167-1.64221e-05-.0300251 4.50472e-07"></path><path d="M15.025 17.922v2.325l-2.7458e-08.000271976c-7.71859e-08.511179.28893.978446.746243 1.20685l.522.261 -3.28341e-07-1.6409e-07c.759864.379744 1.65414.379745 2.414 3.28179e-07l.522-.261 1.11594e-07-5.57635e-08c.457267-.228496.746103-.695821.746-1.207v-2.32512"></path><path d="M13.413 17.116l3.087 1.542 5.87345e-08 2.92983e-08c.63156.315038 1.37444.315038 2.006-5.85966e-08l3.084-1.542 6.35964e-08-3.17118e-08c.369202-.1841.519258-.632639.335158-1.00184 -.0723733-.145141-.190017-.262785-.335158-.335158l-3.09-1.542 2.20321e-07 1.1027e-07c-.631337-.315981-1.37466-.315982-2.006-2.20539e-07l-3.084 1.542 -5.75104e-09 2.8838e-09c-.368789.184926-.51784.6338-.332915 1.00259 .0726992.144981.190609.262363.335915.334411Z"></path><path d="M22 16.447v1.8"></path></g><path fill="none" d="M0 0h24v24h-24Z"></path></svg>