<svg id="Layer_3" data-name="Layer 3" xmlns="http://www.w3.org/2000/svg" viewBox="0 0 24 24"><path d="M12,21a9,9,0,1,1,9-9" fill="none" stroke="#323232" stroke-linecap="round" stroke-linejoin="round" stroke-width="1.5"/><path d="M3.51388,15H6a2,2,0,0,0,2-2V11a2,2,0,0,1,2-2h2a2,2,0,0,0,2-2V3.22468" fill="none" stroke="#323232" stroke-linecap="round" stroke-linejoin="round" stroke-width="1.5"/><path d="M17.499,17.25a.25.25,0,1,0,.251.25.24868.24868,0,0,0-.251-.25" fill="none" stroke="#323232" stroke-linecap="round" stroke-linejoin="round" stroke-width="1.5"/><path d="M14,17.5h0A3.5,3.5,0,0,1,17.5,14h0A3.5,3.5,0,0,1,21,17.5h0c0,1.6385-1.788,3.38881-2.808,4.25435a1.09611,1.09611,0,0,1-1.383,0C15.788,20.88881,14,19.1385,14,17.5Z" fill="none" stroke="#323232" stroke-linecap="round" stroke-linejoin="round" stroke-width="1.5"/><path d="M0,0H24V24H0Z" fill="none"/></svg>