<?xml version="1.0" encoding="UTF-8"?><svg version="1.1" viewBox="0 0 24 24" xmlns="http://www.w3.org/2000/svg" xmlns:xlink="http://www.w3.org/1999/xlink"><g fill="none"><rect width="24" height="24"></rect><path stroke="#323232" stroke-linecap="round" stroke-linejoin="round" stroke-width="1.5" d="M11.5 19l-3.71547e-07-7.10543e-15c-4.69442-2.052e-07-8.5-3.80558-8.5-8.5 2.052e-07-4.69442 3.80558-8.5 8.5-8.5"></path><line x1="3.48" x2="19.51" y1="7.67" y2="7.67" stroke="#323232" stroke-linecap="round" stroke-linejoin="round" stroke-width="1.5"></line><line x1="3.48" x2="12.44" y1="13.33" y2="13.33" stroke="#323232" stroke-linecap="round" stroke-linejoin="round" stroke-width="1.5"></line><path stroke="#323232" stroke-linecap="round" stroke-linejoin="round" stroke-width="1.5" d="M13.231 3l8.18099e-08 1.41356e-07c-.553289-.956005-1.77681-1.28247-2.73282-.729182 -.302622.175142-.55404.426561-.729182.729182l-6.62863e-07 1.12366e-06c-2.72979 4.62741-2.72979 10.3726 1.32573e-06 15l-7.34462e-08-1.2654e-07c.358278.617276 1.01728.997984 1.731.999999"></path><path stroke="#323232" stroke-linecap="round" stroke-linejoin="round" stroke-width="1.5" d="M16 17.509v-3.009l1.77636e-14 2.26494e-07c-1.25089e-07-.828427.671573-1.5 1.5-1.5 .828427-1.25089e-07 1.5.671573 1.5 1.5 0 0 0 1.77636e-15 0 1.77636e-15v3.009 0l1.39258e-07 1.04443e-07c1.10457.828427 1.32843 2.39543.5 3.5 -.828427 1.10457-2.39543 1.32843-3.5.5 -1.10457-.828427-1.32843-2.39543-.5-3.5 .142136-.189514.310486-.357864.5-.5"></path><path stroke="#323232" stroke-linecap="round" stroke-linejoin="round" stroke-width="1.5" d="M19.974 10l2.34833e-07 4.04648e-06c-.260566-4.48989-3.97655-7.99802-8.474-8"></path><path stroke="#323232" stroke-linecap="round" stroke-linejoin="round" stroke-width="1.5" d="M13.231 3l4.53921e-07 7.66429e-07c1.25796 2.12402 1.95642 4.53251 2.03 7"></path></g></svg>