<?xml version="1.0" encoding="UTF-8"?><svg version="1.1" viewBox="0 0 24 24" xmlns="http://www.w3.org/2000/svg" xmlns:xlink="http://www.w3.org/1999/xlink"><g fill="none"><path d="M0 0h24v24h-24Z"></path><path stroke="#323232" stroke-linecap="round" stroke-linejoin="round" stroke-width="1.5" d="M11 5l-3.49691e-07 7.99361e-15c-4.41828 1.93129e-07-8 3.58172-8 8 1.93129e-07 4.41828 3.58172 8 8 8 4.41828-1.93129e-07 8-3.58172 8-8l1.23013e-07-7.57379e-05c.00714353-4.41109-3.56296-7.99278-7.97406-7.99992 -.00867361-1.40465e-05-.0173472-1.3964e-05-.0260208 2.47316e-07Z"></path><path stroke="#323232" stroke-linecap="round" stroke-linejoin="round" stroke-width="1.5" d="M7.44444 20.1716v-.06311c0-1.77778 3.55556-1.568 3.55556-3.55556 0-1.77778-2.66667-1.77778-2.66667-4.44444 0-2.51378-1.77777-2.66667-4.44444-2.66667h-.05422"></path><path stroke="#323232" stroke-linecap="round" stroke-linejoin="round" stroke-width="1.5" d="M16.3067 18.9733l6.08775e-08 2.19432e-08c-.136317-.0491352-.268326-.109488-.394669-.18044l4.10265e-08 2.39973e-08c-1.27615-.746443-1.70555-2.38607-.95911-3.66222 .746443-1.27615 2.38607-1.70555 3.66222-.95911 2.29544e-08 1.34265e-08 4.59088e-08 2.6853e-08 6.88632e-08 4.02795e-08l5.4187e-08 3.48412e-08c.0898053.0577431.176175.120663.25867.18844"></path><path stroke="#323232" stroke-linecap="round" stroke-linejoin="round" stroke-width="1.5" d="M14.23 5.68l1.12775e-07-3.22435e-07c.728807-2.08374 3.00883-3.18213 5.09256-2.45332 2.08374.728807 3.18213 3.00883 2.45332 5.09256 -.473446 1.35363-1.63576 2.34991-3.04588 2.61076"></path></g></svg>