<?xml version="1.0" encoding="UTF-8"?><svg version="1.1" viewBox="0 0 24 24" xmlns="http://www.w3.org/2000/svg" xmlns:xlink="http://www.w3.org/1999/xlink"><defs><path d="M0 0h24v24h-24Z" id="a"></path></defs><g fill="none"><use xlink:href="#a"></use><use xlink:href="#a"></use><path stroke="#323232" stroke-linecap="round" stroke-linejoin="round" stroke-width="1.5" d="M7.5 3h-2.5l-8.74228e-08 1.77636e-15c-1.10457 4.82823e-08-2 .895431-2 2 0 0 0 8.88178e-16 0 8.88178e-16v2.5"></path><path stroke="#323232" stroke-linecap="round" stroke-linejoin="round" stroke-width="1.5" d="M3 16.5v2.5l2.30926e-14 3.01992e-07c1.66785e-07 1.10457.895431 2 2 2h2.5"></path><path stroke="#323232" stroke-linecap="round" stroke-linejoin="round" stroke-width="1.5" d="M16.5 21h2.5l-8.74228e-08-3.55271e-15c1.10457 4.82823e-08 2-.89543 2-2v-2.5"></path><path stroke="#323232" stroke-linecap="round" stroke-linejoin="round" stroke-width="1.5" d="M21 7.5v-2.5 0c0-1.10457-.895431-2-2-2h-2.5"></path><path stroke="#323232" stroke-linecap="round" stroke-linejoin="round" stroke-width="1.5" d="M6 12h2.781l-4.2157e-08-7.10543e-15c1.04122 1.69636e-07 1.88545-.843781 1.886-1.885v0l5.31846e-08.000448254c0-.500213-.198401-.980005-.551683-1.33413l-1.63732-1.63632"></path><path stroke="#323232" stroke-linecap="round" stroke-linejoin="round" stroke-width="1.5" d="M16.2 16.292l-1.19-1.777 2.96308e-08 4.45591e-08c-.214126-.322005-.5753-.515357-.962-.515v0l-5.74896e-08 3.33884e-11c-.437938.00025433-.83835-.247196-1.034-.639l-.089-.177 -7.92139e-08-1.59276e-07c-.161954-.325642-.161954-.708358 1.58428e-07-1.034l.756-1.51 1.05034e-08-2.11133e-08c.19519-.392357.595773-.6403 1.034-.64h2.938"></path><path stroke="#323232" stroke-linecap="round" stroke-linejoin="round" stroke-width="1.5" d="M12 6l-2.62268e-07 6.21725e-15c-3.31371 1.44847e-07-6 2.68629-6 6 1.44847e-07 3.31371 2.68629 6 6 6 3.31371-1.44847e-07 6-2.68629 6-6l1.24754e-07-6.80725e-05c.00604298-3.30763-2.67042-5.99389-5.97805-5.99993 -.00733999-1.341e-05-.01468-1.33264e-05-.02202 2.50766e-07Z"></path></g></svg>