<?xml version="1.0" encoding="UTF-8"?><svg version="1.1" viewBox="0 0 24 24" xmlns="http://www.w3.org/2000/svg" xmlns:xlink="http://www.w3.org/1999/xlink"><g stroke-linecap="round" stroke-width="1.5" stroke="#323232" fill="none" stroke-linejoin="round"><path d="M8.581 17h-3.581c-1.105 0-2-.895-2-2v-10c0-1.105.895-2 2-2h10c1.105 0 2 .895 2 2v3"></path><path d="M15.622 20.678l6.055-6.055c.43-.43.43-1.126 0-1.555l-1.745-1.745c-.43-.43-1.126-.43-1.555 0l-6.055 6.055c-.207.207-.322.486-.322.777v2.845h2.845c.291 0 .57-.115.777-.322Z"></path><path d="M11.25 8.75l-2.5 2.5"></path><path d="M8.75 8.75l2.5 2.5"></path></g><path fill="none" d="M0 0h24v24h-24v-24Z"></path></svg>