<svg id="Layer_3" data-name="Layer 3" xmlns="http://www.w3.org/2000/svg" viewBox="0 0 24 24"><path d="M0,0H24V24H0Z" fill="none"/><path d="M14.62042,14.70709l3.11464-3.11482a.74994.74994,0,0,0,0-1.06057l-1.312-1.312a.75.75,0,0,0-1.06067,0L12.24762,12.3343a1,1,0,0,0-.2929.70712V15h1.95857A1,1,0,0,0,14.62042,14.70709Z" fill="none" stroke="#323232" stroke-linecap="round" stroke-linejoin="round" stroke-width="1.5"/><path d="M9.05,15.00006A.05.05,0,1,1,8.99994,14.95a.05.05,0,0,1,.05006.05006" fill="none" stroke="#323232" stroke-linecap="round" stroke-linejoin="round" stroke-width="1.5"/><path d="M6.05,15.00006A.05.05,0,1,1,5.99994,14.95a.05.05,0,0,1,.05006.05006" fill="none" stroke="#323232" stroke-linecap="round" stroke-linejoin="round" stroke-width="1.5"/><rect x="3" y="3" width="18" height="18" rx="5" stroke-width="1.5" stroke="#323232" stroke-linecap="round" stroke-linejoin="round" fill="none"/></svg>