<svg id="Layer_3" data-name="Layer 3" xmlns="http://www.w3.org/2000/svg" viewBox="0 0 24 24"><path d="M0,0H24V24H0Z" fill="none"/><path d="M15.5,17h0A1.50077,1.50077,0,0,1,14,15.5h0A1.50019,1.50019,0,0,1,15.5,14h0A1.50018,1.50018,0,0,1,17,15.5h0A1.49961,1.49961,0,0,1,15.5,17Z" fill="none" stroke="#323232" stroke-linecap="round" stroke-linejoin="round" stroke-width="1.5"/><path d="M7,15.5A1.50019,1.50019,0,0,1,8.5,14h0A1.50018,1.50018,0,0,1,10,15.5h0A1.49961,1.49961,0,0,1,8.5,17h0A1.50077,1.50077,0,0,1,7,15.5H7" fill="none" stroke="#323232" stroke-linecap="round" stroke-linejoin="round" stroke-width="1.5"/><path d="M8.5,7A1.50018,1.50018,0,0,1,10,8.5h0A1.50018,1.50018,0,0,1,8.5,10h0A1.49961,1.49961,0,0,1,7,8.5H7A1.50077,1.50077,0,0,1,8.5,7h0" fill="none" stroke="#323232" stroke-linecap="round" stroke-linejoin="round" stroke-width="1.5"/><path d="M10,8.5h1.5" fill="none" stroke="#323232" stroke-linecap="round" stroke-linejoin="round" stroke-width="1.5"/><path d="M17,8.5h0A1.50076,1.50076,0,0,1,15.5,10h0A1.50019,1.50019,0,0,1,14,8.5h0A1.50019,1.50019,0,0,1,15.5,7h0A1.49961,1.49961,0,0,1,17,8.5Z" fill="none" stroke="#323232" stroke-linecap="round" stroke-linejoin="round" stroke-width="1.5"/><path d="M15.5,10v1.5" fill="none" stroke="#323232" stroke-linecap="round" stroke-linejoin="round" stroke-width="1.5"/><path d="M14,15.5H12.5" fill="none" stroke="#323232" stroke-linecap="round" stroke-linejoin="round" stroke-width="1.5"/><path d="M8.5,14V12.5" fill="none" stroke="#323232" stroke-linecap="round" stroke-linejoin="round" stroke-width="1.5"/><path d="M3,16V8A5,5,0,0,1,8,3h8a5,5,0,0,1,5,5v8a5,5,0,0,1-5,5H8A5,5,0,0,1,3,16Z" fill="none" stroke="#323232" stroke-linecap="round" stroke-linejoin="round" stroke-width="1.5"/></svg>