<?xml version="1.0" encoding="UTF-8"?><svg version="1.1" viewBox="0 0 24 24" xmlns="http://www.w3.org/2000/svg" xmlns:xlink="http://www.w3.org/1999/xlink"><g stroke-linecap="round" stroke-width="1.5" stroke="#323232" fill="none" stroke-linejoin="round"><path d="M19.828 3.671l1.67429e-07 1.67378e-07c1.56233 1.56186 1.56272 4.09452.00085385 5.65685 -1.56186 1.56233-4.09452 1.56272-5.65685.00085385 -1.56233-1.56186-1.56272-4.09452-.00085385-5.65685 .000284685-.000284771.000569414-.0005695.000854185-.000854185l-2.46122e-07 2.46048e-07c1.562-1.56153 4.094-1.56153 5.656-4.92096e-07"></path><path d="M18.361 5.649l-1.7 1.7 -1.022-1.019"></path><path d="M19.828 14.671l1.67429e-07 1.67378e-07c1.56233 1.56186 1.56272 4.09452.00085385 5.65685 -1.56186 1.56233-4.09452 1.56272-5.65685.00085385 -1.56233-1.56186-1.56272-4.09452-.00085385-5.65685 .000284685-.000284771.000569414-.0005695.000854185-.000854185l-2.46122e-07 2.46048e-07c1.562-1.56153 4.094-1.56153 5.656-4.92096e-07"></path><path d="M11 9.357h-6.857l-4.99621e-08-1.77636e-15c-.631261-2.75933e-08-1.143-.511739-1.143-1.143 0 0 0-3.55271e-15 0-3.55271e-15v-3.428l1.28786e-14 1.72588e-07c-9.53178e-08-.631261.511738-1.143 1.143-1.143h6.857"></path><path d="M11 20.357h-6.857l-4.99621e-08-3.55271e-15c-.631261-2.75933e-08-1.143-.511739-1.143-1.143 0 0 0 0 0 0v-3.428l1.28786e-14 1.72588e-07c-9.53178e-08-.631261.511738-1.143 1.143-1.143h6.857"></path><path d="M17.851 16.649l-1.7 1.7"></path></g><path fill="none" d="M0 0h24v24h-24Z"></path></svg>