<svg xmlns="http://www.w3.org/2000/svg" viewBox="0 0 24 24"><g id="Layer_2" data-name="Layer 2"><path d="M0,0H24V24H0Z" fill="none"/><path d="M3,10l7.2,5.4A3,3,0,0,0,13.8,15.4L21,10" fill="none" stroke="#323232" stroke-linecap="round" stroke-linejoin="round" stroke-width="1.5"/><path d="M20.216,8.513,13.824,3.61815a3,3,0,0,0-3.6479,0L3.784,8.513A2,2,0,0,0,3,10.10091V18a3,3,0,0,0,3,3H18a3,3,0,0,0,3-3V10.10086A2,2,0,0,0,20.216,8.513Z" fill="none" stroke="#323232" stroke-linecap="round" stroke-linejoin="round" stroke-width="1.5"/><line x1="10.75" y1="8.25003" x2="13.25" y2="10.75003" fill="none" stroke="#323232" stroke-linecap="round" stroke-linejoin="round" stroke-width="1.5"/><line x1="10.75" y1="10.75003" x2="13.25" y2="8.25003" fill="none" stroke="#323232" stroke-linecap="round" stroke-linejoin="round" stroke-width="1.5"/></g></svg>