<svg xmlns="http://www.w3.org/2000/svg" viewBox="0 0 24 24"><g id="Layer_2" data-name="Layer 2"><rect width="24" height="24" fill="none"/><path d="M19,15H10a3,3,0,0,1-3-3V6a3,3,0,0,1,3-3h9a3,3,0,0,1,3,3v6A3,3,0,0,1,19,15Z" fill="none" stroke="#323232" stroke-linecap="round" stroke-linejoin="round" stroke-width="1.5"/><path d="M17,6h1a1.00036,1.00036,0,0,1,1,1V8a1.00036,1.00036,0,0,1-1,1H17a1.00036,1.00036,0,0,1-1-1V7A1.00036,1.00036,0,0,1,17,6Z" fill="none" stroke="#323232" stroke-linecap="round" stroke-linejoin="round" stroke-width="1.5"/><path d="M12,9H10" fill="none" stroke="#323232" stroke-linecap="round" stroke-linejoin="round" stroke-width="1.5"/><path d="M14,12H10" fill="none" stroke="#323232" stroke-linecap="round" stroke-linejoin="round" stroke-width="1.5"/><path d="M18,15v3a3,3,0,0,1-3,3H5a3,3,0,0,1-3-3V12A3,3,0,0,1,5,9H7" fill="none" stroke="#323232" stroke-linecap="round" stroke-linejoin="round" stroke-width="1.5"/></g></svg>