<svg id="Layer_3" data-name="Layer 3" xmlns="http://www.w3.org/2000/svg" viewBox="0 0 24 24"><rect y="0.00001" width="24" height="24" fill="none"/><path d="M7,8.5v4a2,2,0,0,0,2,2h6a2,2,0,0,0,2-2v-4a2,2,0,0,0-2-2H9A2,2,0,0,0,7,8.5Z" fill="none" stroke="#323232" stroke-linecap="round" stroke-linejoin="round" stroke-width="1.5"/><path d="M9.75,9.5l1.74563.88192a1.13638,1.13638,0,0,0,1.00881,0L14.25,9.5" fill="none" stroke="#323232" stroke-linecap="round" stroke-linejoin="round" stroke-width="1.5"/><path d="M17,3H7A4,4,0,0,0,3,7v7a4,4,0,0,0,4,4H9v2.4429a.5561.5561,0,0,0,.90349.43425L13.5,18H17a4,4,0,0,0,4-4V7A4,4,0,0,0,17,3Z" fill="none" stroke="#323232" stroke-linecap="round" stroke-linejoin="round" stroke-width="1.5"/></svg>