<svg id="Layer_3" data-name="Layer 3" xmlns="http://www.w3.org/2000/svg" viewBox="0 0 24 24"><path d="M9,18H7a4,4,0,0,1-4-4V7A4,4,0,0,1,7,3H17a4,4,0,0,1,4,4v3" fill="none" stroke="#323232" stroke-linecap="round" stroke-linejoin="round" stroke-width="1.5"/><path d="M7,7.5l4.20463,1.83327a2,2,0,0,0,1.59313.00241L17,7.51861" fill="none" stroke="#323232" stroke-linecap="round" stroke-linejoin="round" stroke-width="1.5"/><path d="M15,20v1.48934a.49916.49916,0,0,0,.823.389L18,20h2.18182A1.81818,1.81818,0,0,0,22,18.18182V14.81818A1.81818,1.81818,0,0,0,20.18182,13H13.81818A1.81818,1.81818,0,0,0,12,14.81818v3.36364A1.81818,1.81818,0,0,0,13.81818,20Z" fill="none" stroke="#323232" stroke-linecap="round" stroke-linejoin="round" stroke-width="1.5"/><path d="M24,0H0V24H24Z" fill="none"/></svg>