<svg id="Layer_3" data-name="Layer 3" xmlns="http://www.w3.org/2000/svg" viewBox="0 0 24 24"><path d="M20.46878,19.53817a.75.75,0,0,1-.93061.93061L18.223,20.08352a.79327.79327,0,0,0-.446,0l-1.31515.38526a.75.75,0,0,1-.93061-.93061l.38526-1.31515a.79327.79327,0,0,0,0-.446l-.38526-1.31515a.75.75,0,0,1,.93061-.93061l1.31515.38526a.79327.79327,0,0,0,.446,0l1.31515-.38526a.75.75,0,0,1,.93061.93061L20.08352,17.777a.79327.79327,0,0,0,0,.446Z" fill="none" stroke="#323232" stroke-linecap="round" stroke-linejoin="round" stroke-width="1.5"/><path d="M12,16H9a2,2,0,0,1-2-2V10A2,2,0,0,1,9,8h6a2,2,0,0,1,2,2v2" fill="none" stroke="#323232" stroke-linecap="round" stroke-linejoin="round" stroke-width="1.5"/><path d="M14.25,11l-1.74563.88192a1.13638,1.13638,0,0,1-1.00881,0L9.75,11" fill="none" stroke="#323232" stroke-linecap="round" stroke-linejoin="round" stroke-width="1.5"/><path d="M21.5,12A9.5,9.5,0,1,0,12,21.5" fill="none" stroke="#323232" stroke-linecap="round" stroke-linejoin="round" stroke-width="1.5"/><path d="M0,0H24V24H0Z" fill="none"/></svg>