<?xml version="1.0" encoding="UTF-8"?><svg version="1.1" viewBox="0 0 24 24" xmlns="http://www.w3.org/2000/svg" xmlns:xlink="http://www.w3.org/1999/xlink"><g fill="none"><rect width="24" height="24"></rect><path stroke="#323232" stroke-linecap="round" stroke-linejoin="round" stroke-width="1.5" d="M15.333 18h-5.333l-1.74846e-07-3.55271e-15c-2.20914-9.65645e-08-4-1.79086-4-4 0 0 0-1.77636e-15 0-1.77636e-15v-4l4.61853e-14 6.03983e-07c-3.33571e-07-2.20914 1.79086-4 4-4h4l-1.74846e-07 3.55271e-15c2.20914-9.65645e-08 4 1.79086 4 4v3.333 0c0 1.10457-.895431 2-2 2v0l4.67888e-08-2.55316e-11c-1.01179.000552128-1.83245-.819215-1.833-1.831 -3.63755e-07-.000666589-3.63694e-07-.00133318 1.83016e-10-.00199977v-1.833"></path><path stroke="#323232" stroke-linecap="round" stroke-linejoin="round" stroke-width="1.5" d="M10 9.375l.22-.22 1.95005e-08-1.94922e-08c.312972-.312838.737486-.4884 1.18-.488h1.1l2.83513e-08-5.32907e-15c.920268-1.49931e-07 1.66645.745732 1.667 1.666v3.334l1.87422e-09-3.12913e-06c-.000550339.920268-.746729 1.666-1.667 1.666h-1.25l6.28655e-09-3.59535e-12c-.965946.000552446-1.74945-.782054-1.75-1.748 -3.81391e-07-.000666857-3.81393e-07-.00133371-7.05391e-12-.00200057v0l1.95399e-14 2.64243e-07c-1.45937e-07-.966498.783501-1.75 1.75-1.75h2.917"></path><path stroke="#323232" stroke-linecap="round" stroke-linejoin="round" stroke-width="1.5" d="M18 3h1l-8.74228e-08 1.77636e-15c1.10457-4.82823e-08 2 .89543 2 2v1"></path><path stroke="#323232" stroke-linecap="round" stroke-linejoin="round" stroke-width="1.5" d="M6 21h-1l-8.74228e-08-3.55271e-15c-1.10457-4.82823e-08-2-.895431-2-2 0 0 0 0 0 0v-1"></path><path stroke="#323232" stroke-linecap="round" stroke-linejoin="round" stroke-width="1.5" d="M3 6v-1l2.30926e-14 3.01992e-07c-1.66785e-07-1.10457.89543-2 2-2h1"></path><path stroke="#323232" stroke-linecap="round" stroke-linejoin="round" stroke-width="1.5" d="M21 18v1 0c0 1.10457-.895431 2-2 2h-1"></path></g></svg>