<svg xmlns="http://www.w3.org/2000/svg" viewBox="0 0 24 24"><g id="Layer_2" data-name="Layer 2"><path d="M0,24V0H24V24Z" fill="none"/><path d="M3,10V7A4,4,0,0,1,7,3H17a4,4,0,0,1,4,4V17a4,4,0,0,1-4,4H16" fill="none" stroke="#323232" stroke-linecap="round" stroke-linejoin="round" stroke-width="1.5"/><line x1="17" y1="7" x2="14" y2="10" fill="none" stroke="#323232" stroke-linecap="round" stroke-linejoin="round" stroke-width="1.5"/><polyline points="17 10 14 10 14 7" fill="none" stroke="#323232" stroke-linecap="round" stroke-linejoin="round" stroke-width="1.5"/><path d="M3,15v4a2,2,0,0,0,2,2h6a2,2,0,0,0,2-2V15a2,2,0,0,0-2-2H5A2,2,0,0,0,3,15Z" fill="none" stroke="#323232" stroke-linecap="round" stroke-linejoin="round" stroke-width="1.5"/><path d="M6.01205,16l1.55167.88192a.91025.91025,0,0,0,.89672,0L10.01205,16" fill="none" stroke="#323232" stroke-linecap="round" stroke-linejoin="round" stroke-width="1.5"/></g></svg>