<svg xmlns="http://www.w3.org/2000/svg" viewBox="0 0 24 24"><g id="Layer_2" data-name="Layer 2"><path d="M0,0H24V24H0Z" fill="none"/><path d="M17.56494,19.56494A7.98894,7.98894,0,0,1,5.06909,14" fill="none" stroke="#323232" stroke-linecap="round" stroke-linejoin="round" stroke-width="1.5"/><path d="M14,5.06909A7.99648,7.99648,0,0,1,21,13v1.25a2.25,2.25,0,0,1-2.25,2.25h0a2.25,2.25,0,0,1-2.25-2.25V13" fill="none" stroke="#323232" stroke-linecap="round" stroke-linejoin="round" stroke-width="1.5"/><path d="M6.75,11.5A4.75,4.75,0,1,1,11.5,6.75,4.75,4.75,0,0,1,6.75,11.5" fill="none" stroke="#323232" stroke-linecap="round" stroke-linejoin="round" stroke-width="1.5"/><path d="M6.74023,7.2V8.45" fill="none" stroke="#323232" stroke-linecap="round" stroke-linejoin="round" stroke-width="1.5"/><path d="M6.74465,5.04971a.05.05,0,1,0-.04436-.05506v.0107a.05.05,0,0,0,.04436.04436" fill="none" stroke="#323232" stroke-linecap="round" stroke-linejoin="round" stroke-width="1.5"/><path d="M14,9.66254A3.49047,3.49047,0,1,1,9.66254,14" fill="none" stroke="#323232" stroke-linecap="round" stroke-linejoin="round" stroke-width="1.5"/></g></svg>