<svg id="Layer_3" data-name="Layer 3" xmlns="http://www.w3.org/2000/svg" viewBox="0 0 24 24"><path d="M0,0H24V24H0Z" fill="none"/><path d="M11,18H6a3,3,0,0,1-3-3V7A3,3,0,0,1,6,4H18a3,3,0,0,1,3,3v5" fill="none" stroke="#323232" stroke-linecap="round" stroke-linejoin="round" stroke-width="1.5"/><path d="M20.96118,6.61505l-7.42767,4.33881a2.99988,2.99988,0,0,1-3.02631,0L3.04108,6.59265" fill="none" stroke="#323232" stroke-linecap="round" stroke-linejoin="round" stroke-width="1.5"/><path d="M17.802,16.07326l.198.201.198-.20105a1.92053,1.92053,0,0,1,2.73739,0h0a1.99278,1.99278,0,0,1,0,2.77954L19.397,20.41489a1.9602,1.9602,0,0,1-2.79393,0L15.0646,18.85282a1.99279,1.99279,0,0,1,0-2.77955h0A1.92054,1.92054,0,0,1,17.802,16.07326Z" fill="none" stroke="#323232" stroke-linecap="round" stroke-linejoin="round" stroke-width="1.5"/></svg>