<svg id="Layer_3" data-name="Layer 3" xmlns="http://www.w3.org/2000/svg" viewBox="0 0 24 24"><path d="M0,24,0,0,24,0l0,24Z" fill="none"/><circle cx="19.49999" cy="4.50001" r="2.5" fill="none" stroke="#323232" stroke-linecap="round" stroke-linejoin="round" stroke-width="1.5"/><path d="M21,10v6a5,5,0,0,1-5,5H8a5,5,0,0,1-5-5V8A5,5,0,0,1,8,3h6" fill="none" stroke="#323232" stroke-linecap="round" stroke-linejoin="round" stroke-width="1.5"/><path d="M7,10v4a2,2,0,0,0,2,2h6a2,2,0,0,0,2-2V10a2,2,0,0,0-2-2H9A2,2,0,0,0,7,10Z" fill="none" stroke="#323232" stroke-linecap="round" stroke-linejoin="round" stroke-width="1.5"/><path d="M9.75,11l1.74563.88192a1.13638,1.13638,0,0,0,1.00881,0L14.25,11" fill="none" stroke="#323232" stroke-linecap="round" stroke-linejoin="round" stroke-width="1.5"/></svg>