<svg viewBox="0 0 24 24" xmlns="http://www.w3.org/2000/svg" xmlns:xlink="http://www.w3.org/1999/xlink"><defs><path d="M0 0h24v24H0Z" id="a"/><path d="M9.53 13.86l-.01-.01c.48 1.9 2.42 3.05 4.33 2.56 1.9-.49 3.05-2.43 2.56-4.34 -.33-1.26-1.31-2.25-2.57-2.57" id="b"/></defs><g fill="none"><use xlink:href="#a"/><g stroke-linecap="round" stroke-width="1.5" stroke="#323232" fill="none" stroke-linejoin="round"><path d="M17.552 19.561l-.01 0c-3.64 2.53-8.63 1.63-11.17-2 -.77-1.1-1.25-2.38-1.4-3.71"/><path d="M16.54 12.974v1.33l0 0c0 1.23.99 2.22 2.22 2.22 1.23-.01 2.22-1 2.22-2.23v-1.34l0 0c0-4.09-3.08-7.53-7.14-7.98"/><use xlink:href="#b"/></g><use xlink:href="#a"/><g stroke-linecap="round" stroke-width="1.5" stroke="#323232" fill="none" stroke-linejoin="round"><path d="M17.552 19.55l-.01 0c-3.64 2.53-8.63 1.63-11.17-2 -.77-1.1-1.25-2.38-1.4-3.71"/><path d="M16.54 12.97v1.33l0 0c0 1.23.99 2.22 2.22 2.22 1.23-.01 2.22-1 2.22-2.23v-1.34l0 0c0-4.09-3.08-7.53-7.14-7.98"/><use xlink:href="#b"/><path d="M6.75 2a4.75 4.75 0 1 0 0 9.5 4.75 4.75 0 1 0 0-9.5Z"/><path d="M8.43 7.07l-2 0"/><path d="M6.43 7.07l0-2.41"/></g></g></svg>