<svg id="Layer_3" data-name="Layer 3" xmlns="http://www.w3.org/2000/svg" viewBox="0 0 24 24"><path d="M3,14v3a4.00018,4.00018,0,0,0,4,4h8.343a3.99941,3.99941,0,0,0,2.829-1.172l1.95-1.95A2.99949,2.99949,0,0,0,21,15.757V7a4.00018,4.00018,0,0,0-4-4H16" fill="none" stroke="#323232" stroke-linecap="round" stroke-linejoin="round" stroke-width="1.5"/><path d="M15,21V17a1.99944,1.99944,0,0,1,1.9989-2H21" fill="none" stroke="#323232" stroke-linecap="round" stroke-linejoin="round" stroke-width="1.5"/><path d="M3,5V9a2,2,0,0,0,2,2h6a2,2,0,0,0,2-2V5a2,2,0,0,0-2-2H5A2,2,0,0,0,3,5Z" fill="none" stroke="#323232" stroke-linecap="round" stroke-linejoin="round" stroke-width="1.5"/><path d="M5.75,6l1.80559.89583a1,1,0,0,0,.8889,0L10.25,6" fill="none" stroke="#323232" stroke-linecap="round" stroke-linejoin="round" stroke-width="1.5"/><path d="M0,0H24V24H0Z" fill="none"/></svg>