<?xml version="1.0" encoding="UTF-8"?><svg version="1.1" viewBox="0 0 24 24" xmlns="http://www.w3.org/2000/svg" xmlns:xlink="http://www.w3.org/1999/xlink"><g fill="none"><path d="M0 0h24v24h-24Z"></path><path stroke="#323232" stroke-linecap="round" stroke-linejoin="round" stroke-width="1.5" d="M17.551 19.561l1.64881e-07-1.14869e-07c-3.63294 2.531-8.62981 1.6377-11.1608-1.99525 -.764892-1.09791-1.24281-2.36981-1.3902-3.69975"></path><path stroke="#323232" stroke-linecap="round" stroke-linejoin="round" stroke-width="1.5" d="M16.541 12.974v1.338l2.84217e-14 3.3657e-07c1.85882e-07 1.23104.997958 2.229 2.229 2.229 1.23104-1.85882e-07 2.229-.997958 2.229-2.229v-1.338l1.4905e-08.000489076c0-4.08694-3.07182-7.52088-7.13351-7.97443"></path><path stroke="#323232" stroke-linecap="round" stroke-linejoin="round" stroke-width="1.5" d="M9.533 13.866l-1.63937e-07-6.39001e-07c.488592 1.90446 2.42854 3.05224 4.333 2.56365 1.90446-.488592 3.05224-2.42854 2.56365-4.333 -.322814-1.25828-1.30537-2.24084-2.56365-2.56365"></path><path stroke="#323232" stroke-linecap="round" stroke-linejoin="round" stroke-width="1.5" d="M6.751 6.574v-1.743"></path><path stroke="#323232" stroke-linecap="round" stroke-linejoin="round" stroke-width="1.5" d="M6.75 8.5l1.7739e-09 1.91008e-10c-.0477726-.00514396-.09067.0294134-.095814.077186 -.00514396.0477726.0294134.09067.077186.095814 .0061914.000666665.0124365.000666667.0186279 5.47803e-09l1.7739e-09-1.91008e-10c.0477726-.00514396.08233-.0480413.077186-.095814 -.00437991-.0406767-.0365093-.0728062-.0771861-.077186"></path><path stroke="#323232" stroke-linecap="round" stroke-linejoin="round" stroke-width="1.5" d="M6.75 11.5l-2.07629e-07-3.55271e-15c-2.62335-1.1467e-07-4.75-2.12665-4.75-4.75 1.1467e-07-2.62335 2.12665-4.75 4.75-4.75 2.62335 1.1467e-07 4.75 2.12665 4.75 4.75l3.55271e-15-2.07629e-07c0 2.62335-2.12665 4.75-4.75 4.75"></path></g></svg>