<svg xmlns="http://www.w3.org/2000/svg" viewBox="0 0 24 24"><g id="Layer_2" data-name="Layer 2"><path d="M0,0H24V24H0Z" fill="none"/><path d="M17,9.25005l-3.112,1.542a2,2,0,0,1-1.77594,0L9,9.25005" fill="none" stroke="#323232" stroke-linecap="round" stroke-linejoin="round" stroke-width="1.5"/><circle cx="7" cy="17" r="4" fill="none" stroke="#323232" stroke-linecap="round" stroke-linejoin="round" stroke-width="1.5"/><polyline points="5.75 16.75 6.75 17.75 8.25 16.25" fill="none" stroke="#323232" stroke-linecap="round" stroke-linejoin="round" stroke-width="1.5"/><path d="M13.5,19H18a3,3,0,0,0,3-3V9.125a3,3,0,0,0-1.41-2.544l-5-3.125a3,3,0,0,0-3.18,0l-5,3.125A3,3,0,0,0,5,9.125V10.5" fill="none" stroke="#323232" stroke-linecap="round" stroke-linejoin="round" stroke-width="1.5"/></g></svg>