<?xml version="1.0" encoding="UTF-8"?><svg version="1.1" viewBox="0 0 24 24" xmlns="http://www.w3.org/2000/svg" xmlns:xlink="http://www.w3.org/1999/xlink"><!--Generated by IJSVG (https://github.com/iconjar/IJSVG)--><g stroke-linecap="round" stroke-width="1.5" stroke="#323232" fill="none" stroke-linejoin="round"><path d="M7.5,3h9.004c2.483,0 4.496,2.013 4.496,4.496v9.009c0,2.482 -2.013,4.495 -4.496,4.495h-9.008c-2.483,0 -4.496,-2.013 -4.496,-4.496v-9.004c0,-2.485 2.015,-4.5 4.5,-4.5Z"></path><path d="M15.409,16.545h-6.818c-1.256,0 -2.273,-1.017 -2.273,-2.273v-4.545c0,-1.256 1.017,-2.273 2.273,-2.273h6.818c1.256,0 2.273,1.017 2.273,2.273v4.545c0,1.256 -1.017,2.273 -2.273,2.273Z"></path><path d="M17.016,8.12l-3.595,3.595v0c-0.784,0.784 -2.057,0.784 -2.841,0v0l-3.596,-3.595"></path><path d="M10.58,11.716l-3.852,3.852"></path><path d="M13.42,11.716l3.852,3.852"></path></g><path fill="none" d="M0,24v-24h24v24h-24Z"></path></svg>