<?xml version="1.0" encoding="UTF-8"?><svg version="1.1" viewBox="0 0 24 24" xmlns="http://www.w3.org/2000/svg" xmlns:xlink="http://www.w3.org/1999/xlink"><g fill="none"><path d="M24 24h-24v-24h24Z"></path><path stroke="#323232" stroke-linecap="round" stroke-linejoin="round" stroke-width="1.5" d="M19.332 6.793l1.52917e-07 2.17745e-07c-2.85093-4.05955-8.45298-5.03934-12.5125-2.18841 -2.87136 2.01648-4.30566 5.52033-3.67247 8.97141"></path><path stroke="#323232" stroke-linecap="round" stroke-linejoin="round" stroke-width="1.5" d="M4.424 19.207v-2h2"></path><path stroke="#323232" stroke-linecap="round" stroke-linejoin="round" stroke-width="1.5" d="M4.668 17.207l-6.04199e-07-8.60344e-07c2.85093 4.05955 8.45298 5.03934 12.5125 2.18841 2.87136-2.01648 4.30566-5.52033 3.67247-8.97141"></path><path stroke="#323232" stroke-linecap="round" stroke-linejoin="round" stroke-width="1.5" d="M19.576 4.793v2h-2"></path><path stroke="#323232" stroke-linecap="round" stroke-linejoin="round" stroke-width="1.5" d="M10.586 13.414l1.2352e-07 1.2347e-07c.781207.78089 2.04754.780634 2.82843-.00057318 .78089-.781207.780634-2.04754-.00057318-2.82843 -.780983-.780667-2.04687-.780666-2.82785 2.4694e-07l-9.02028e-08 9.01662e-08c-.781207.78089-.781463 2.04722-.000572506 2.82843 .000190898.000190975.000381835.000381912.00057281.00057281Z"></path><path stroke="#323232" stroke-linecap="round" stroke-linejoin="round" stroke-width="1.5" d="M12 7.5v-.5"></path><path stroke="#323232" stroke-linecap="round" stroke-linejoin="round" stroke-width="1.5" d="M12 16.5v.5"></path><path stroke="#323232" stroke-linecap="round" stroke-linejoin="round" stroke-width="1.5" d="M8.967 8.967l-.354-.354"></path><path stroke="#323232" stroke-linecap="round" stroke-linejoin="round" stroke-width="1.5" d="M15.033 15.033l.354.354"></path><path stroke="#323232" stroke-linecap="round" stroke-linejoin="round" stroke-width="1.5" d="M15.033 8.967l.354-.354"></path><path stroke="#323232" stroke-linecap="round" stroke-linejoin="round" stroke-width="1.5" d="M8.967 15.033l-.354.354"></path><path stroke="#323232" stroke-linecap="round" stroke-linejoin="round" stroke-width="1.5" d="M16.5 12h.5"></path><path stroke="#323232" stroke-linecap="round" stroke-linejoin="round" stroke-width="1.5" d="M7.5 12h-.5"></path></g></svg>