<svg id="Layer_3" data-name="Layer 3" xmlns="http://www.w3.org/2000/svg" viewBox="0 0 24 24"><path d="M17,3v.52786a2.00008,2.00008,0,0,0,.21114.89443L18.58,7.15983A3.95633,3.95633,0,0,1,19,8.9338c0,2.22636,0,7.365,0,8.77282a1.80867,1.80867,0,0,1-.09478.5778l-.41438,1.24307A2.039,2.039,0,0,1,16.55847,21H7.4415a2,2,0,0,1-1.89738-1.36754L5.20528,18.616A3.98935,3.98935,0,0,1,5,17.35272C5,15.58383,5,11.0021,5,8.9338a3.9564,3.9564,0,0,1,.42-1.77395l1.36907-2.738A1.99781,1.99781,0,0,0,7,3.52787V3" fill="none" stroke="#323232" stroke-linecap="round" stroke-linejoin="round" stroke-width="1.5"/><path d="M11.62838,9.75,10.5,12h3l-1.12838,2.25" fill="none" stroke="#323232" stroke-linecap="round" stroke-linejoin="round" stroke-width="1.5"/><line x1="18.98417" y1="17.93422" x2="5.04411" y2="17.93422" fill="none" stroke="#323232" stroke-linecap="round" stroke-linejoin="round" stroke-width="1.5"/><line x1="18.09214" y1="6.18422" x2="5.90787" y2="6.18422" fill="none" stroke="#323232" stroke-linecap="round" stroke-linejoin="round" stroke-width="1.5"/><line x1="17.50001" y1="3" x2="6.50001" y2="3" fill="none" stroke="#323232" stroke-linecap="round" stroke-linejoin="round" stroke-width="1.5"/><path d="M0,0H24V24H0Z" fill="none"/></svg>