<svg id="Layer_3" data-name="Layer 3" xmlns="http://www.w3.org/2000/svg" viewBox="0 0 24 24"><path d="M5,7V19a2,2,0,0,0,2,2H17a2,2,0,0,0,2-2V10a3,3,0,0,0-.6-1.8l-1.5-2A3,3,0,0,0,14.5,5H7A2,2,0,0,0,5,7Z" fill="none" stroke="#323232" stroke-linecap="round" stroke-linejoin="round" stroke-width="1.5"/><path d="M8,2h3a1,1,0,0,1,1,1V5a0,0,0,0,1,0,0H7A0,0,0,0,1,7,5V3A1,1,0,0,1,8,2Z" fill="none" stroke="#323232" stroke-linecap="round" stroke-linejoin="round" stroke-width="1.5"/><path d="M9.90015,13.271h0a2.13594,2.13594,0,0,1,0-2.80542L10.9684,9.24224a.70442.70442,0,0,1,1.0632,0l1.06825,1.22333a2.13594,2.13594,0,0,1,0,2.80542h0A2.12,2.12,0,0,1,9.90015,13.271Z" fill="none" stroke="#323232" stroke-linecap="round" stroke-linejoin="round" stroke-width="1.5"/><line x1="14" y1="17" x2="9" y2="17" fill="none" stroke="#323232" stroke-linecap="round" stroke-linejoin="round" stroke-width="1.5"/><path d="M0,0H24V24H0Z" fill="none"/></svg>