<svg id="Layer_3" data-name="Layer 3" xmlns="http://www.w3.org/2000/svg" viewBox="0 0 24 24"><path d="M0,0H24V24H0Z" fill="none"/><path d="M2.9995,9.76025V19a2,2,0,0,0,2,2h14a2,2,0,0,0,2-2V9.76025" fill="none" stroke="#323232" stroke-linecap="round" stroke-linejoin="round" stroke-width="1.5"/><line x1="9.118" y1="14.854" x2="3.586" y2="20.386" fill="none" stroke="#323232" stroke-linecap="round" stroke-linejoin="round" stroke-width="1.5"/><line x1="20.411" y1="20.383" x2="14.882" y2="14.854" fill="none" stroke="#323232" stroke-linecap="round" stroke-linejoin="round" stroke-width="1.5"/><path d="M18,12.75594V4a1.00036,1.00036,0,0,0-1-1H7A1.00036,1.00036,0,0,0,6,4v8.75594" fill="none" stroke="#323232" stroke-linecap="round" stroke-linejoin="round" stroke-width="1.5"/><line x1="11.999" y1="11.28213" x2="11.999" y2="12.5" fill="none" stroke="#323232" stroke-linecap="round" stroke-linejoin="round" stroke-width="1.5"/><path d="M11.61368,5.41755,9.6597,7.3434a.53615.53615,0,0,0,.38532.91685h3.908a.53615.53615,0,0,0,.38532-.91685l-1.954-1.92585A.55057.55057,0,0,0,11.61368,5.41755Z" fill="none" stroke="#323232" stroke-linecap="round" stroke-linejoin="round" stroke-width="1.5"/><path d="M10.92265,8.26025,9.12113,10.40948a.51746.51746,0,0,0,.39185.85077h4.972a.51746.51746,0,0,0,.39185-.85077L13.07536,8.26025" fill="none" stroke="#323232" stroke-linecap="round" stroke-linejoin="round" stroke-width="1.5"/><path d="M6,6.594,3.886,8.016a2.00029,2.00029,0,0,0,0,3.319L9.76,15.287a4.01021,4.01021,0,0,0,4.478,0l5.874-3.952a2.00029,2.00029,0,0,0,0-3.319L18,6.594" fill="none" stroke="#323232" stroke-linecap="round" stroke-linejoin="round" stroke-width="1.5"/></svg>