<?xml version="1.0" encoding="UTF-8"?><svg version="1.1" viewBox="0 0 24 24" xmlns="http://www.w3.org/2000/svg" xmlns:xlink="http://www.w3.org/1999/xlink"><!--Generated by IJSVG (https://github.com/iconjar/IJSVG)--><g stroke-linecap="round" stroke-width="1.5" stroke="#323232" fill="none" stroke-linejoin="round"><path d="M19,22h-14c-1.105,0 -2,-0.895 -2,-2v-16c0,-1.105 0.895,-2 2,-2h14c1.105,0 2,0.895 2,2v16c0,1.105 -0.895,2 -2,2Z"></path><path d="M16,15h-8"></path><path d="M14,18h-4"></path><path d="M13.232,6c1.058,0 1.768,0.931 1.768,1.798c0,1.761 -2.946,3.202 -3,3.202c-0.054,0 -3,-1.441 -3,-3.202c0,-0.867 0.71,-1.798 1.768,-1.798c0.605,0 1.002,0.283 1.232,0.535c0.23,-0.252 0.627,-0.535 1.232,-0.535Z"></path></g><path fill="none" d="M0,0h24v24h-24Z"></path></svg>