<svg id="Layer_3" data-name="Layer 3" xmlns="http://www.w3.org/2000/svg" viewBox="0 0 24 24"><path d="M4,21V18a1,1,0,0,1,1-1H8" fill="none" stroke="#323232" stroke-linecap="round" stroke-linejoin="round" stroke-width="1.5"/><path d="M20,21V18a1,1,0,0,0-1-1H16" fill="none" stroke="#323232" stroke-linecap="round" stroke-linejoin="round" stroke-width="1.5"/><path d="M18.5,17V14.5A.5.5,0,0,0,18,14H6a.5.5,0,0,0-.5.5V17" fill="none" stroke="#323232" stroke-linecap="round" stroke-linejoin="round" stroke-width="1.5"/><path d="M7.5,11h9a.5.5,0,0,1,.5.5V14a0,0,0,0,1,0,0H7a0,0,0,0,1,0,0V11.5A.5.5,0,0,1,7.5,11Z" fill="none" stroke="#323232" stroke-linecap="round" stroke-linejoin="round" stroke-width="1.5"/><line x1="14.23612" y1="8" x2="9.76393" y2="8" fill="none" stroke="#323232" stroke-linecap="round" stroke-linejoin="round" stroke-width="1.5"/><path d="M16,11l-.46759-.61371A8.88767,8.88767,0,0,1,13.71429,5H10.28571a8.88767,8.88767,0,0,1-1.81812,5.38629L8,11" fill="none" stroke="#323232" stroke-linecap="round" stroke-linejoin="round" stroke-width="1.5"/><line x1="12" y1="5" x2="12" y2="2" fill="none" stroke="#323232" stroke-linecap="round" stroke-linejoin="round" stroke-width="1.5"/><line x1="10.00002" y1="14.00002" x2="10.00002" y2="21.00002" fill="none" stroke="#323232" stroke-linecap="round" stroke-linejoin="round" stroke-width="1.5"/><line x1="14.00001" y1="14.00002" x2="14.00001" y2="21.00002" fill="none" stroke="#323232" stroke-linecap="round" stroke-linejoin="round" stroke-width="1.5"/><rect width="24" height="24" fill="none"/></svg>