<?xml version="1.0" encoding="UTF-8"?><svg version="1.1" viewBox="0 0 24 24" xmlns="http://www.w3.org/2000/svg" xmlns:xlink="http://www.w3.org/1999/xlink"><g fill="none"><path d="M0 0h24v24h-24Z"></path><path stroke="#323232" stroke-linecap="round" stroke-linejoin="round" stroke-width="1.5" d="M10.5 18h-5.5l-8.74228e-08-3.55271e-15c-1.10457-4.82823e-08-2-.895431-2-2 0 0 0 0 0 0v-11l2.30926e-14 3.01992e-07c-1.66785e-07-1.10457.89543-2 2-2h11l-8.74228e-08 1.77636e-15c1.10457-4.82823e-08 2 .89543 2 2v5.5"></path><line x1="18" x2="3" y1="10.5" y2="10.5" stroke="#323232" stroke-linecap="round" stroke-linejoin="round" stroke-width="1.5"></line><line x1="10.5" x2="10.5" y1="3" y2="18" stroke="#323232" stroke-linecap="round" stroke-linejoin="round" stroke-width="1.5"></line><line x1="15.02" x2="19.98" y1="19.98" y2="15.02" stroke="#323232" stroke-linecap="round" stroke-linejoin="round" stroke-width="1.5"></line><circle cx="17.5" cy="17.5" r="3.5" stroke="#323232" stroke-linecap="round" stroke-linejoin="round" stroke-width="1.5"></circle></g></svg>