<?xml version="1.0" encoding="UTF-8"?><svg version="1.1" viewBox="0 0 24 24" xmlns="http://www.w3.org/2000/svg" xmlns:xlink="http://www.w3.org/1999/xlink"><g stroke-linecap="round" stroke-width="1.5" stroke="#323232" fill="none" stroke-linejoin="round"><path d="M8.312 9.75h-2.562v4.5h2.562"></path><path d="M5.752 12h2.122"></path><path d="M15.65 9.75v4.5"></path><path d="M15.65 9.75h1.65l-5.90104e-08 3.55271e-15c.745584-3.25905e-08 1.35.604416 1.35 1.35 0 0 0 1.77636e-15 0 1.77636e-15v0 0c0 .745584-.604416 1.35-1.35 1.35 0 0 0 0 0 0h-1.648"></path><path d="M13.3 10.288l1.66663e-08 2.87616e-08c-.191788-.330975-.54448-.535665-.927-.538h-.9l-3.93403e-08 1.77636e-15c-.497056 2.1727e-08-.9.402944-.9.9 0 0 0 1.77636e-15 0 1.77636e-15v.25l-1.4929e-10-1.62574e-05c5.85284e-08.387616.248175.73169.615985.854011l1.469.49 -3.20046e-08-1.06847e-08c.367416.122661.615136.466649.615.854v.251h1.77636e-15c0 .497056-.402944.9-.9.9 0 0 0 0 0 0h-.9l-5.72175e-08-4.16858e-10c-.381092-.00277646-.732398-.206564-.924-.536"></path><rect width="20" height="18" x="2" y="3" rx="2.7614" ry="0"></rect></g><path fill="none" d="M0 0h24v24h-24Z"></path></svg>