<svg viewBox="0 0 24 24" xmlns="http://www.w3.org/2000/svg"><g stroke-linecap="round" stroke-width="1.5" stroke="#323232" fill="none" stroke-linejoin="round"><path d="M9.5 8l0 2"/><path d="M12 8l0 2"/><path d="M14.5 8l0 2"/><path d="M9 14v2l0 0c0 .55.44.99 1 .99h4 -.01c.55 0 1-.45 1-1v-2h1.5l-.01-.001c.55 0 1-.45 1-1v-4 0c0-.56-.45-1-1-1h-9l-.01 0c-.56 0-1 .44-1 1 0 0 0 0 0 0v4l0 0c0 .55.44.99 1 .99Z"/><rect width="18" height="18" x="3" y="3" rx="3"/></g><path fill="none" d="M0 0h24v24H0Z"/></svg>