<?xml version="1.0" encoding="UTF-8"?><svg version="1.1" viewBox="0 0 24 24" xmlns="http://www.w3.org/2000/svg" xmlns:xlink="http://www.w3.org/1999/xlink"><g fill="none"><rect width="24" height="24"></rect><path stroke="#323232" stroke-linecap="round" stroke-linejoin="round" stroke-width="1.5" d="M6.5 2.5l1.5 1.5 -1.5 1.5"></path><path stroke="#323232" stroke-linecap="round" stroke-linejoin="round" stroke-width="1.5" d="M8 4h-2l-1.31134e-07 3.55271e-15c-1.65685 7.24234e-08-3 1.34315-3 3 0 0 0 8.88178e-16 0 8.88178e-16"></path><path stroke="#323232" stroke-linecap="round" stroke-linejoin="round" stroke-width="1.5" d="M17.5 21.5l-1.5-1.5 1.5-1.5"></path><path stroke="#323232" stroke-linecap="round" stroke-linejoin="round" stroke-width="1.5" d="M16 20h2l-1.31134e-07-3.55271e-15c1.65685 7.24234e-08 3-1.34315 3-3"></path><path stroke="#323232" stroke-linecap="round" stroke-linejoin="round" stroke-width="1.5" d="M10.153 6.153l1.5553e-07-2.12143e-07c.140019-.190986.293049-.372082.458-.542l1.17622e-07-1.16056e-07c2.16223-2.13344 5.64456-2.11011 7.778.0521155 2.11326 2.14177 2.11326 5.58412-2.32113e-07 7.72588l3.59528e-07-3.47335e-07c-.170512.16473-.353379.316171-.546998.452999"></path><path stroke="#323232" stroke-linecap="round" stroke-linejoin="round" stroke-width="1.5" d="M7.27652 14.4106v-1.18416l-5.9635e-11 8.05683e-06c3.66908e-08-.242992.157913-.457791.389842-.530276l1.66664-.520832 2.29724e-08-7.17936e-09c.107897-.03372.223513-.03372.33141 1.43587e-08l1.66667.52083 -1.62972e-08-5.09313e-09c.23193.0724817.389846.287278.38985.53027v1.18416l8.3844e-13 2.15954e-06c0 1.1579-.718261 2.19435-1.80244 2.60092l-.32225.12084 -6.10668e-09 2.29085e-09c-.0628837.0235901-.132186.0235901-.19507 8.73447e-09l-.322168-.120841 8.99878e-08 3.37437e-08c-1.0842-.406553-1.80247-1.44301-1.80248-2.60092Z"></path><circle cx="9.5" cy="14.5" r="5.5" stroke="#323232" stroke-linecap="round" stroke-linejoin="round" stroke-width="1.5"></circle></g></svg>