<?xml version="1.0" encoding="UTF-8"?><svg version="1.1" viewBox="0 0 24 24" xmlns="http://www.w3.org/2000/svg" xmlns:xlink="http://www.w3.org/1999/xlink"><g fill="none"><path d="M0 0h24v24h-24Z"></path><path stroke="#323232" stroke-linecap="round" stroke-linejoin="round" stroke-width="1.5" d="M6 3h12c1.105 0 2 .895 2 2v14c0 1.105-.895 2-2 2h-12c-1.105 0-2-.895-2-2v-14c0-1.105.895-2 2-2Z"></path><path stroke="#323232" stroke-linecap="round" stroke-linejoin="round" stroke-width="1.5" d="M9 11v2"></path><path stroke="#323232" stroke-linecap="round" stroke-linejoin="round" stroke-width="1.5" d="M4 5.003v13.995c0 1.487 1.565 2.454 2.894 1.789l4-2c.678-.34 1.106-1.032 1.106-1.79v-9.994c0-.758-.428-1.45-1.106-1.789l-4-2c-1.329-.665-2.894.302-2.894 1.789Z"></path></g></svg>