<svg id="Layer_3" data-name="Layer 3" xmlns="http://www.w3.org/2000/svg" viewBox="0 0 24 24"><rect width="24" height="24" fill="none"/><path d="M14,5h6.5" fill="none" stroke="#323232" stroke-linecap="round" stroke-linejoin="round" stroke-width="1.5"/><path d="M6,17V14" fill="none" stroke="#323232" stroke-linecap="round" stroke-linejoin="round" stroke-width="1.5"/><path d="M17.5,21H5a2,2,0,0,1-2-2V18a1,1,0,0,1,1-1H15a1,1,0,0,1,1,1v1.5A1.5,1.5,0,0,0,17.5,21h0A1.5,1.5,0,0,0,19,19.5V6.5A1.5,1.5,0,0,1,20.5,5h0A1.5,1.5,0,0,1,22,6.5V9a1,1,0,0,1-1,1H19" fill="none" stroke="#323232" stroke-linecap="round" stroke-linejoin="round" stroke-width="1.5"/><path d="M6.5293,10.95339h0A4.39029,4.39029,0,0,1,3,6.64835V5.22222A2.22222,2.22222,0,0,1,5.22222,3H8.77778A2.22222,2.22222,0,0,1,11,5.22222V6.64834a4.39029,4.39029,0,0,1-3.5292,4.305l-.0001,0A2.39972,2.39972,0,0,1,6.5293,10.95339Z" fill="none" stroke="#323232" stroke-linecap="round" stroke-linejoin="round" stroke-width="1.5"/></svg>