<?xml version="1.0" encoding="UTF-8"?><svg version="1.1" viewBox="0 0 24 24" xmlns="http://www.w3.org/2000/svg" xmlns:xlink="http://www.w3.org/1999/xlink"><g stroke-linecap="round" stroke-width="1.5" stroke="#323232" fill="none" stroke-linejoin="round"><path d="M6.536 13.074c-.427-.646-.427-1.5 0-2.146 1.32-1.995 3.392-3.594 5.464-3.594 2.072 0 4.144 1.599 5.464 3.593 .428.646.428 1.501 0 2.146 -1.321 1.995-3.392 3.593-5.464 3.593 -2.072.002-4.144-1.597-5.464-3.592Z"></path><path d="M13.237 10.764c.683.683.683 1.791 0 2.475 -.683.683-1.791.683-2.475 0 -.683-.683-.683-1.791 0-2.475 .684-.684 1.792-.684 2.475 0"></path><path d="M19 21h-14c-1.105 0-2-.895-2-2v-14c0-1.105.895-2 2-2h14c1.105 0 2 .895 2 2v14c0 1.105-.895 2-2 2Z"></path></g><path fill="none" d="M0 0h24v24h-24v-24Z"></path></svg>