<svg viewBox="0 0 24 24" xmlns="http://www.w3.org/2000/svg"><g stroke-linecap="round" stroke-width="1.5" stroke="#323232" fill="none" stroke-linejoin="round"><path d="M6.21 12l0-.01c0-.43.09-.85.28-1.23v0l-.01 0c1.06-2.05 3.19-3.32 5.49-3.28l-.01 0c2.3-.05 4.43 1.22 5.49 3.27v0l-.01-.01c.38.77.38 1.68 0 2.45v0l0-.01c-1.07 2.04-3.2 3.31-5.5 3.27l0-.01c-2.31.04-4.44-1.23-5.5-3.28v0l-.01-.01c-.19-.39-.29-.81-.29-1.23Z"/><path d="M3 7l0-4 4 0"/><path d="M17 3l4 0 0 4"/><path d="M6 6L3 3"/><path d="M18 6l3-3"/><path d="M21 21l-3-3"/><path d="M3 21l3-3"/><path d="M21 17l0 4 -4 0"/><path d="M7 21l-4 0 0-4"/><path d="M12 10.5a1.5 1.5 0 1 0 0 3 1.5 1.5 0 1 0 0-3Z"/></g><path fill="none" d="M0 0h24v24H0Z"/></svg>