<?xml version="1.0" encoding="UTF-8"?><svg version="1.1" viewBox="0 0 24 24" xmlns="http://www.w3.org/2000/svg" xmlns:xlink="http://www.w3.org/1999/xlink"><g fill="none"><path d="M0 0h24v24h-24Z"></path><path stroke="#323232" stroke-linecap="round" stroke-linejoin="round" stroke-width="1.5" d="M12 11.931l-3.96486e-09-4.29878e-13c-.0375554-4.05895e-06-.0680033.0304373-.0680073.0679927 -3.62928e-08.000335798 2.41478e-06.000671592 7.35301e-06.00100735l-3.80961e-10-7.2403e-06c5.75409e-09.0381076.0308924.069.069.069 .0381076-5.75409e-09.069-.0308924.069-.069 -5.75409e-09-.0381076-.0308924-.069-.069-.069 -.000330929 4.99689e-11-.000661855 2.38085e-06-.00099275 7.1422e-06"></path><path stroke="#323232" stroke-linecap="round" stroke-linejoin="round" stroke-width="1.5" d="M3 12l-7.83718e-08 7.12423e-05c.000723939-.663026.15328-1.31708.445969-1.91201v0l-3.23313e-07 6.21445e-07c1.65519-3.18147 4.96832-5.15217 8.55403-5.08806l4.79047e-07-8.61661e-09c3.58524-.0644876 6.89824 1.90534 8.554 5.086v0l8.39684e-08 1.70077e-07c.59503 1.20522.59503 2.61878-1.67937e-07 3.824v0l2.36614e-08-4.55054e-08c-1.65465 3.18221-4.96788 5.15372-8.554 5.09l-1.78649e-07 3.21337e-09c-3.58524.0644877-6.89824-1.90534-8.554-5.086v0l-3.00945e-07-6.11684e-07c-.292996-.595528-.44557-1.2503-.446-1.914Z"></path><path stroke="#323232" stroke-linecap="round" stroke-linejoin="round" stroke-width="1.5" d="M15.368 11.931h-3.01609e-09c-.0381076 1.66574e-09-.069.0308924-.069.069 1.66574e-09.0381076.0308924.069.069.069 .0381076-1.66574e-09.069-.0308924.069-.069h1.77636e-15c0-.0381076-.0308924-.069-.069-.069 0 0-1.77636e-15 0-1.77636e-15 0"></path><path stroke="#323232" stroke-linecap="round" stroke-linejoin="round" stroke-width="1.5" d="M8.631 11.931l-3.96485e-09-4.29878e-13c-.0375554-4.05895e-06-.0680033.0304373-.0680073.0679927 -3.62928e-08.000335798 2.41478e-06.000671592 7.35301e-06.00100735l-3.80545e-10-7.23633e-06c5.75409e-09.0381076.0308924.069.069.069 .0381076-5.75409e-09.069-.0308924.069-.069 -5.75409e-09-.0381076-.0308924-.069-.069-.069 -.000330931 4.99689e-11-.000661857 2.38086e-06-.000992754 7.14226e-06"></path><path stroke="#323232" stroke-linecap="round" stroke-linejoin="round" stroke-width="1.5" d="M11.931 8.632v-1.04187e-08c-5.75409e-09.0381076.0308923.069.069.069 .0381076 5.75409e-09.069-.0308923.069-.069 5.75409e-09-.0381076-.0308923-.069-.069-.069 0 0 0 0 0 0l-3.01609e-09 1.77636e-15c-.0381076 1.66574e-09-.069.0308924-.069.069 0 0 0 1.77636e-15 0 1.77636e-15"></path><path stroke="#323232" stroke-linecap="round" stroke-linejoin="round" stroke-width="1.5" d="M11.931 15.369l-3.97586e-10 7.34308e-06c-5.6707e-09.0375554.0304446.068.068.068 .000335798 5.07043e-11.000671592-2.48726e-06.00100735-7.46173e-06l-3.15444e-09 3.32179e-13c.0381076-4.00053e-06.0689968-.0308996.0689928-.0690072 -4.00053e-06-.0381076-.0308996-.0689968-.0690072-.0689928 -.0381076 4.00053e-06-.0689968.0308996-.0689928.0690072 3.4741e-08.000330931 2.45025e-06.000661857 7.24633e-06.000992753"></path></g></svg>