<svg viewBox="0 0 24 24" xmlns="http://www.w3.org/2000/svg"><g fill="none"><path d="M0 0h24v24H0Z"/><g stroke-linecap="round" stroke-width="1.5" stroke="#323232" fill="none" stroke-linejoin="round"><path d="M19.55 4.4l0 0c.65.65.65 1.72-.01 2.38 -.66.65-1.73.65-2.39-.01 -.66-.66-.66-1.73 0-2.39l-.01 0c.65-.66 1.72-.66 2.38-.01"/><path d="M9.37 20.61l-.01-.01c.84.25 1.73.38 2.61.38h0l0 0c4.96 0 8.99-4.03 8.99-9 0-.54-.05-1.08-.15-1.6"/><path d="M5.15 6.16l-.01 0c.46-.54.98-1.03 1.56-1.44"/><path d="M3.52 9l0-.01c-.35.96-.53 1.97-.53 2.99"/><path d="M6.71 19.28l-.01-.01c-1.48-1.08-2.59-2.57-3.2-4.28"/><path d="M9.37 3.39l-.01 0c.84-.26 1.73-.39 2.61-.39l0 0 -.01 0c1.8-.01 3.56.53 5.05 1.55"/><path d="M13.06 10.94l0 0c.58.58.58 1.53-.01 2.12 -.59.58-1.54.58-2.13-.01 -.59-.59-.59-1.54 0-2.13l-.01 0c.58-.59 1.53-.59 2.12-.01"/><path d="M6.85 11.99l-.01 0c0-.38.08-.76.25-1.1v0l-.01 0c.94-1.82 2.83-2.95 4.88-2.91l0-.01c2.04-.04 3.94 1.08 4.88 2.9v0l0 0c.34.68.34 1.49-.01 2.18v0l-.01 0c-.95 1.81-2.84 2.94-4.89 2.9l-.01 0c-2.05.03-3.95-1.09-4.89-2.91v0l-.01-.01c-.17-.34-.26-.72-.26-1.1Z"/></g></g></svg>