<svg id="Layer_3" data-name="Layer 3" xmlns="http://www.w3.org/2000/svg" viewBox="0 0 24 24"><path d="M0,24V0H24V24Z" fill="none"/><line x1="15.5" y1="5.99881" x2="15.5" y2="3" fill="none" stroke="#323232" stroke-linecap="round" stroke-linejoin="round" stroke-width="1.5"/><line x1="18.5" y1="3" x2="15.5" y2="3" fill="none" stroke="#323232" stroke-linecap="round" stroke-linejoin="round" stroke-width="1.5"/><path d="M12,15a4.3521,4.3521,0,0,1-3.7405-2.06431h0a1.81668,1.81668,0,0,1,0-1.87138h0A4.3521,4.3521,0,0,1,12,9" fill="none" stroke="#323232" stroke-linecap="round" stroke-linejoin="round" stroke-width="1.5"/><path d="M12,9a4.3521,4.3521,0,0,1,3.7405,2.06431h0a1.81668,1.81668,0,0,1,0,1.87138h0A4.3521,4.3521,0,0,1,12,15" fill="none" stroke="#323232" stroke-linecap="round" stroke-linejoin="round" stroke-width="1.5"/><path d="M11.9646,11.96473l.00009-.00009a.05.05,0,1,1-.00009.00009" fill="none" stroke="#323232" stroke-linecap="round" stroke-linejoin="round" stroke-width="1.5"/><path d="M3,12A9,9,0,1,0,15.5,3.70612" fill="none" stroke="#323232" stroke-linecap="round" stroke-linejoin="round" stroke-width="1.5"/><path d="M10.4646,2.96469l.00009-.00009a.05.05,0,1,1-.00009.00009" fill="none" stroke="#323232" stroke-linecap="round" stroke-linejoin="round" stroke-width="1.5"/><path d="M6.4646,4.46469l.00009-.00009a.05.05,0,1,1-.00009.00009" fill="none" stroke="#323232" stroke-linecap="round" stroke-linejoin="round" stroke-width="1.5"/><path d="M3.4646,7.96469l.00009-.00009a.05.05,0,1,1-.00009.00009" fill="none" stroke="#323232" stroke-linecap="round" stroke-linejoin="round" stroke-width="1.5"/></svg>