<svg id="Layer_3" data-name="Layer 3" xmlns="http://www.w3.org/2000/svg" viewBox="0 0 24 24"><path d="M3,12a4.34635,4.34635,0,0,1,.446-1.912h0A9.45309,9.45309,0,0,1,12,5a9.45309,9.45309,0,0,1,8.554,5.088h0a4.32137,4.32137,0,0,1,0,3.824h0A9.45309,9.45309,0,0,1,12,19a9.45309,9.45309,0,0,1-8.554-5.088h0A4.34635,4.34635,0,0,1,3,12Z" fill="none" stroke="#323232" stroke-linecap="round" stroke-linejoin="round" stroke-width="1.5"/><path d="M15,12a3,3,0,1,1-3-3" fill="none" stroke="#323232" stroke-linecap="round" stroke-linejoin="round" stroke-width="1.5"/><path d="M0,0H24V24H0Z" fill="none"/></svg>