<?xml version="1.0" encoding="UTF-8"?><svg version="1.1" viewBox="0 0 24 24" xmlns="http://www.w3.org/2000/svg" xmlns:xlink="http://www.w3.org/1999/xlink"><g fill="none"><path d="M0 0h24v24h-24Z"></path><path stroke="#323232" stroke-linecap="round" stroke-linejoin="round" stroke-width="1.5" d="M13.77 11.826l1-1 1.20744e-07 2.83974e-07c.648313 1.52475-.0621776 3.28636-1.58693 3.93468 -.531204.225864-1.11629.293684-1.68508.195325"></path><path stroke="#323232" stroke-linecap="round" stroke-linejoin="round" stroke-width="1.5" d="M10.23 12.173l-1 1 -6.10805e-08-1.42936e-07c-.651065-1.52357.056243-3.28647 1.57982-3.93753 .587585-.251091 1.23999-.30801 1.86218-.162466"></path><path stroke="#323232" stroke-linecap="round" stroke-linejoin="round" stroke-width="1.5" d="M3 12l-1.70317e-07.000130322c.000856544-.66301.153396-1.31703.445942-1.91201v0l-1.01356e-07 1.94791e-07c1.65536-3.18133 4.96839-5.15199 8.55406-5.08812l-5.12578e-07 9.13023e-09c3.58562-.0638684 6.89862 1.90673 8.554 5.088v0l-1.03709e-07-2.10182e-07c.594723 1.2053.594723 2.6187 2.07418e-07 3.824v0l2.28542e-07-4.39205e-07c-1.65538 3.18127-4.96838 5.15187-8.554 5.088l-3.13698e-07 5.58769e-09c-3.58562.0638681-6.89862-1.90673-8.554-5.088v0l-3.07689e-07-6.25728e-07c-.292564-.594969-.445124-1.24899-.446-1.912Z"></path></g></svg>