<?xml version="1.0" encoding="UTF-8"?><svg version="1.1" viewBox="0 0 24 24" xmlns="http://www.w3.org/2000/svg" xmlns:xlink="http://www.w3.org/1999/xlink"><g fill="none"><path d="M0 0h24v24h-24v-24Z"></path><path stroke="#323232" stroke-linecap="round" stroke-linejoin="round" stroke-width="1.5" d="M14.122 9.88c1.171 1.171 1.171 3.072 0 4.245 -1.171 1.171-3.072 1.171-4.245 0 -1.171-1.171-1.171-3.072 0-4.245 1.173-1.173 3.073-1.173 4.245 1.77636e-15"></path><path stroke="#323232" stroke-linecap="round" stroke-linejoin="round" stroke-width="1.5" d="M21 16l-3 3 -2-2"></path><path stroke="#323232" stroke-linecap="round" stroke-linejoin="round" stroke-width="1.5" d="M12 19c-3.691 0-7.039-1.991-8.554-5.088v0c-.294-.601-.446-1.253-.446-1.912 0-.659.152-1.311.446-1.912v0c1.515-3.097 4.863-5.088 8.554-5.088 3.691 0 7.039 1.991 8.554 5.088v0c.294.601.446 1.253.446 1.912"></path></g></svg>