<svg id="Layer_3" data-name="Layer 3" xmlns="http://www.w3.org/2000/svg" viewBox="0 0 24 24"><path d="M16,12.5V5a2,2,0,0,0-2-2H13a1,1,0,0,0-1,1V9a1,1,0,0,0,1,1h.5A2.5,2.5,0,0,1,16,12.5h0A2.5,2.5,0,0,1,13.5,15H4a1,1,0,0,1-1-1V6.5A1.5,1.5,0,0,1,4.5,5H12" fill="none" stroke="#323232" stroke-linecap="round" stroke-linejoin="round" stroke-width="1.5"/><path d="M3,18v1.5A1.5,1.5,0,0,0,4.5,21h15A1.5,1.5,0,0,0,21,19.5V7.5A1.5,1.5,0,0,0,19.5,6H19" fill="none" stroke="#323232" stroke-linecap="round" stroke-linejoin="round" stroke-width="1.5"/><line x1="18" y1="18" x2="16.66667" y2="18" fill="none" stroke="#323232" stroke-linecap="round" stroke-linejoin="round" stroke-width="1.5"/><line x1="12.66667" y1="18" x2="11.33333" y2="18" fill="none" stroke="#323232" stroke-linecap="round" stroke-linejoin="round" stroke-width="1.5"/><line x1="7.33333" y1="18" x2="6" y2="18" fill="none" stroke="#323232" stroke-linecap="round" stroke-linejoin="round" stroke-width="1.5"/><rect width="24" height="24" fill="none"/></svg>