<svg id="Layer_3" data-name="Layer 3" xmlns="http://www.w3.org/2000/svg" viewBox="0 0 24 24"><rect width="24" height="24" fill="none"/><line x1="17" y1="8" x2="17" y2="8.88889" fill="none" stroke="#323232" stroke-linecap="round" stroke-linejoin="round" stroke-width="1.5"/><line x1="17" y1="11.55556" x2="17" y2="12.44444" fill="none" stroke="#323232" stroke-linecap="round" stroke-linejoin="round" stroke-width="1.5"/><line x1="17" y1="16" x2="17" y2="15.11111" fill="none" stroke="#323232" stroke-linecap="round" stroke-linejoin="round" stroke-width="1.5"/><path d="M9.8613,5H20a1,1,0,0,1,1,1V18a1,1,0,0,1-1,1H9.8613" fill="none" stroke="#323232" stroke-linecap="round" stroke-linejoin="round" stroke-width="1.5"/><rect x="3" y="4.5" width="7" height="15" rx="1" stroke-width="1.5" stroke="#323232" stroke-linecap="round" stroke-linejoin="round" fill="none"/><path d="M8.5,19.5V21a1,1,0,0,1-1,1h-2a1,1,0,0,1-1-1V19.5" fill="none" stroke="#323232" stroke-linecap="round" stroke-linejoin="round" stroke-width="1.5"/><path d="M4.5,4.5V3a1,1,0,0,1,1-1h2a1,1,0,0,1,1,1V4.5" fill="none" stroke="#323232" stroke-linecap="round" stroke-linejoin="round" stroke-width="1.5"/></svg>