<?xml version="1.0" encoding="UTF-8"?><svg version="1.1" viewBox="0 0 24 24" xmlns="http://www.w3.org/2000/svg" xmlns:xlink="http://www.w3.org/1999/xlink"><g fill="none"><path d="M4 4h16v16h-16Z"></path><path stroke="#323232" stroke-linecap="round" stroke-linejoin="round" stroke-width="1.5" d="M6 11.527l-2.23432e-07-1.60701e-05c.0244832 1.76112.92436 3.39441 2.39999 4.35601 0 .57 0 1.338 0 2.144l2.354-1.164 -6.07769e-07-1.16734e-07c.410655.0788747.827852.118722 1.24601.119009l1.12974e-07 5.13842e-09c3.16079.143762 5.84303-2.29484 6-5.455l2.66587e-07 5.3669e-06c-.156964-3.16001-2.83938-5.59833-5.99999-5.45401l-2.17745e-07-9.94358e-09c-3.16062-.144333-5.84304 2.29399-6 5.454Z"></path><rect width="18" height="18" x="3" y="3" rx="2.7614" ry="0" stroke="#323232" stroke-linecap="round" stroke-linejoin="round" stroke-width="1.5"></rect><polyline stroke="#323232" stroke-linecap="round" stroke-linejoin="round" stroke-width="1.5" points="15,10.474 12.522,12.333 11.426,10.701 9,12.52"></polyline><path d="M0 24v-24h24v24Z"></path></g></svg>