<?xml version="1.0" encoding="UTF-8"?><svg version="1.1" viewBox="0 0 24 24" xmlns="http://www.w3.org/2000/svg" xmlns:xlink="http://www.w3.org/1999/xlink"><g stroke-linecap="round" stroke-width="1.5" stroke="#323232" fill="none" stroke-linejoin="round"><path d="M7 11.614l-1.06928e-07-7.67916e-06c.020434 1.46759.770326 2.82865 1.99999 3.63 0 .475 0 1.115 0 1.787l1.962-.97 -2.18269e-07-4.20915e-08c.342076.0659666.689622.0994489 1.038.1l1.65416e-07 7.53484e-09c2.63412.119986 4.86946-1.91239 5-4.546l1.24925e-07 2.5097e-06c-.131073-2.63322-2.36625-4.665-5-4.545l2.29907e-07 1.0477e-08c-2.63337-.120005-4.86839 1.91118-5 4.544Z"></path><circle cx="12" cy="12" r="9"></circle><line x1="11.52" x2="10" y1="10.93" y2="12.07"></line><line x1="12.44" x2="11.52" y1="12.29" y2="10.93"></line><line x1="14" x2="12.44" y1="11.11" y2="12.29"></line></g><path fill="none" d="M0 24v-24h24v24Z"></path></svg>