<?xml version="1.0" encoding="UTF-8"?><svg version="1.1" viewBox="0 0 24 24" xmlns="http://www.w3.org/2000/svg" xmlns:xlink="http://www.w3.org/1999/xlink"><g stroke-linecap="round" stroke-width="1.5" stroke="#323232" fill="none" stroke-linejoin="round"><line x1="20" x2="15" y1="4" y2="9"></line><line x1="15" x2="13" y1="3" y2="5"></line><path d="M10.8265 8.69067l1.063 3.41978 3.41978 1.063 -5.90661e-09-1.83613e-09c.412261.128156.642574.56625.514418.978511 -.0510307.164159-.154752.306918-.295108.406179l-2.92391 2.06777 .04577 3.5809 3.39849e-08 2.65784e-06c.00551903.43168-.339953.7861-.771633.791619 -.1719.00219774-.339731-.0523342-.477509-.155153l-2.87008-2.1418 -3.39149 1.15009 1.12101e-08-3.80139e-09c-.408853.138643-.852687-.0804058-.99133-.489259 -.0552072-.162804-.0552072-.339267-7.60276e-09-.502071l1.15009-3.39149 -2.14183-2.87011 -4.60403e-08-6.16945e-08c-.258201-.345992-.187032-.835787.15896-1.09399 .137778-.102819.305609-.15735.47751-.155152l3.5809.04577 2.06777-2.92391 -4.06605e-08 5.74945e-08c.249277-.352482.7371-.436146 1.08958-.186869 .140356.0992603.244077.24202.295108.406179Z"></path><line x1="21" x2="19" y1="9" y2="11"></line></g><rect width="24" height="24" fill="none"></rect></svg>