<?xml version="1.0" encoding="UTF-8"?><svg version="1.1" viewBox="0 0 24 24" xmlns="http://www.w3.org/2000/svg" xmlns:xlink="http://www.w3.org/1999/xlink"><g stroke-linecap="round" stroke-width="1.5" stroke="#323232" fill="none" stroke-linejoin="round"><path d="M3.495 13.465l1.195 1.564 .258 1.947c.143 1.08.992 1.93 2.072 2.074l1.952.261 1.563 1.194c.865.661 2.064.661 2.929 0l1.564-1.195h-.002l1.948-.258c1.08-.143 1.93-.992 2.074-2.072l.26-1.952c0 .001.604-.79 1.195-1.563 .661-.865.66-2.064 0-2.929l-1.192-1.566 -.258-1.947c-.143-1.08-.992-1.93-2.072-2.074l-1.953-.26 -1.563-1.194c-.865-.661-2.064-.661-2.929 0l-1.564 1.195h.002l-1.949.259c-1.08.143-1.93.992-2.074 2.072l-.261 1.951c0-.001-.604.79-1.195 1.563 -.66.864-.66 2.065 4.44089e-16 2.93Z"></path><path d="M13.318 9.5c1.132 0 1.891 1.024 1.891 1.978 0 1.994-2.574 3.522-3.209 3.522 -.635 0-3.208-1.528-3.208-3.522 0-.954.759-1.978 1.891-1.978 .647 0 1.071.311 1.318.589 .246-.278.67-.589 1.317-.589Z"></path></g><path fill="none" d="M0 0h24v24h-24v-24Z"></path></svg>