<?xml version="1.0" encoding="UTF-8"?><svg version="1.1" viewBox="0 0 24 24" xmlns="http://www.w3.org/2000/svg" xmlns:xlink="http://www.w3.org/1999/xlink"><g stroke-linecap="round" stroke-width="1.5" stroke="#323232" fill="none" stroke-linejoin="round"><line x1="12" x2="13.5" y1="17" y2="17"></line><line x1="10.5" x2="12" y1="18.5" y2="18.5"></line><line x1="12" x2="10.5" y1="15.5" y2="15.5"></line><line x1="12" x2="12" y1="8.5" y2="21.5"></line><line x1="12" x2="13.5" y1="14" y2="14"></line><line x1="12" x2="10.5" y1="12.5" y2="12.5"></line><line x1="12" x2="13.5" y1="11" y2="11"></line><path d="M12 8.5v0l-1.23517e-07-4.1247e-12c-1.35475-4.5279e-05-2.45296-1.09833-2.45292-2.45308 3.11495e-06-.0931996.00531778-.186323.0159182-.278918l.222-1.939 -4.10214e-09 3.57491e-08c.0868888-.757213.727818-1.32889 1.49-1.329h1.45l8.67079e-10 1.27898e-13c.762182.00011236 1.40311.571787 1.49 1.329l.222 1.939 -5.72777e-08-5.00324e-07c.154088 1.34596-.812118 2.56199-2.15808 2.71608 -.0925948.0106004-.185718.0159151-.278918.0159182Z"></path><path d="M9.863 3.5h-2.863l-1.74846e-07 3.55271e-15c-2.20914 9.65645e-08-4 1.79086-4 4 0 0 0 0 0 0v10l4.61853e-14-6.03983e-07c-3.33571e-07 2.20914 1.79086 4 4 4h10l-1.74846e-07-3.55271e-15c2.20914 9.65645e-08 4-1.79086 4-4v-10 0c0-2.20914-1.79086-4-4-4h-2.862"></path></g><path fill="none" d="M0 0h24v24h-24Z"></path></svg>