<svg id="Layer_3" data-name="Layer 3" xmlns="http://www.w3.org/2000/svg" viewBox="0 0 24 24"><line x1="7" y1="12" x2="10" y2="12" fill="none" stroke="#323232" stroke-linecap="round" stroke-linejoin="round" stroke-width="1.5"/><line x1="7" y1="16" x2="8" y2="16" fill="none" stroke="#323232" stroke-linecap="round" stroke-linejoin="round" stroke-width="1.5"/><path d="M18.975,14.3V12.6a1.1,1.1,0,0,0-1.1-1.1h-2.75a1.1,1.1,0,0,0-1.1,1.1v1.7" fill="none" stroke="#323232" stroke-linecap="round" stroke-linejoin="round" stroke-width="1.5"/><rect x="11" y="14.3" width="11" height="7.7" rx="1.65" stroke-width="1.5" stroke="#323232" stroke-linecap="round" stroke-linejoin="round" fill="none"/><line x1="15.25" y1="18" x2="17.75" y2="18" fill="none" stroke="#323232" stroke-linecap="round" stroke-linejoin="round" stroke-width="1.5"/><line x1="16.5" y1="19.25" x2="16.5" y2="16.75" fill="none" stroke="#323232" stroke-linecap="round" stroke-linejoin="round" stroke-width="1.5"/><path d="M8,21H5.5A2.5,2.5,0,0,1,3,18.5V8.37167A3,3,0,0,1,3.8787,6.25035L6.25038,3.87868A3,3,0,0,1,8.3717,3H15.5A2.5,2.5,0,0,1,18,5.5V8" fill="none" stroke="#323232" stroke-linecap="round" stroke-linejoin="round" stroke-width="1.5" fill-rule="evenodd"/><path d="M3.02359,8H6.5A1.5,1.5,0,0,0,8,6.5V3.02362" fill="none" stroke="#323232" stroke-linecap="round" stroke-linejoin="round" stroke-width="1.5" fill-rule="evenodd"/><path d="M0,0H24V24H0" fill="none"/></svg>