<svg id="Layer_3" data-name="Layer 3" xmlns="http://www.w3.org/2000/svg" viewBox="0 0 24 24"><path d="M0,0H24V24H0Z" fill="none"/><path d="M8,21H6.5A2.5,2.5,0,0,1,4,18.5V8.37167a3,3,0,0,1,.87868-2.12132L7.25035,3.87868A3,3,0,0,1,9.37167,3H16.5A2.5,2.5,0,0,1,19,5.5V9" fill="none" stroke="#323232" stroke-linecap="round" stroke-linejoin="round" stroke-width="1.5" fill-rule="evenodd"/><path d="M13,15.99976l-.58546-.58549a1.41436,1.41436,0,0,0-2.00023,0h0a1.41435,1.41435,0,0,0-.17678,1.78455l1.94005,2.91047A2.00007,2.00007,0,0,0,13.8418,21h3.79608a2,2,0,0,0,1.98455-1.752l.362-2.89685a2,2,0,0,0-1.66266-2.22186L16,13.75067V11.5A1.5,1.5,0,0,0,14.5,10h0A1.5,1.5,0,0,0,13,11.5Z" fill="none" stroke="#323232" stroke-linecap="round" stroke-linejoin="round" stroke-width="1.5"/><path d="M4.02357,8H7.5A1.5,1.5,0,0,0,9,6.5V3.02362" fill="none" stroke="#323232" stroke-linecap="round" stroke-linejoin="round" stroke-width="1.5" fill-rule="evenodd"/></svg>