<svg width="20" height="20" viewBox="0 0 20 20" fill="none" xmlns="http://www.w3.org/2000/svg">
<path d="M10.8334 17.5H14.5834C15.7339 17.5 16.6667 16.5673 16.6667 15.4167V6.97639C16.6667 6.31335 16.4033 5.67747 15.9345 5.20862L13.9581 3.23223C13.4892 2.76339 12.8533 2.5 12.1903 2.5H6.25002C5.09943 2.5 4.16669 3.43274 4.16669 4.58333V10.8333" stroke="white" stroke-linecap="round" stroke-linejoin="round"/>
<path d="M16.647 6.66664H13.75C13.0596 6.66664 12.5 6.10699 12.5 5.41664V2.51965" stroke="white" stroke-linecap="round" stroke-linejoin="round"/>
<path fill-rule="evenodd" clip-rule="evenodd" d="M4.41078 14.9802L7.3582 12.0327C7.59262 11.7983 7.91056 11.6666 8.24208 11.6666C8.57361 11.6666 8.89155 11.7983 9.12597 12.0327L9.63391 12.5407C10.1221 13.0289 10.1221 13.8203 9.63391 14.3085L6.68646 17.2559C6.53018 17.4122 6.31821 17.5 6.0972 17.5H4.58335C4.35324 17.5 4.16669 17.3134 4.16669 17.0833V15.5694C4.16668 15.3484 4.25449 15.1364 4.41078 14.9802Z" stroke="white" stroke-linecap="round" stroke-linejoin="round"/>
</svg>
