<svg id="Layer_3" data-name="Layer 3" xmlns="http://www.w3.org/2000/svg" viewBox="0 0 24 24"><rect width="24" height="24" fill="none"/><path d="M13,21h4.5A2.5,2.5,0,0,0,20,18.5V8.37167a3,3,0,0,0-.87868-2.12132L16.74965,3.87868A3,3,0,0,0,14.62833,3H7.5A2.5,2.5,0,0,0,5,5.5V12" fill="none" stroke="#323232" stroke-linecap="round" stroke-linejoin="round" stroke-width="1.5" fill-rule="evenodd"/><path d="M19.97643,8H16.5A1.5,1.5,0,0,1,15,6.5V3.02362" fill="none" stroke="#323232" stroke-linecap="round" stroke-linejoin="round" stroke-width="1.5" fill-rule="evenodd"/><path d="M6.302,16.07326l.198.201.198-.20105a1.92053,1.92053,0,0,1,2.73739,0h0a1.99278,1.99278,0,0,1,0,2.77954L7.897,20.41489a1.9602,1.9602,0,0,1-2.79393,0L3.5646,18.85282a1.99279,1.99279,0,0,1,0-2.77955h0A1.92054,1.92054,0,0,1,6.302,16.07326Z" fill="none" stroke="#323232" stroke-linecap="round" stroke-linejoin="round" stroke-width="1.5"/></svg>