<?xml version="1.0" encoding="UTF-8"?><svg version="1.1" viewBox="0 0 24 24" xmlns="http://www.w3.org/2000/svg" xmlns:xlink="http://www.w3.org/1999/xlink"><g fill="none"><path d="M0 0h24v24h-24v-24Z"></path><path stroke="#323232" stroke-linecap="round" stroke-linejoin="round" stroke-width="1.5" d="M10.199 12.833v3.416c0 .743.782 1.227 1.447.894l1.602-.801c.339-.169.553-.516.553-.894v-2.615l2.31-1.782c.245-.189.389-.482.389-.792v-1.509c0-.552-.448-1-1-1h-7c-.552 0-1 .448-1 1v1.509c0 .31.144.602.389.792l2.31 1.782Z"></path><path stroke="#323232" stroke-linecap="round" stroke-linejoin="round" stroke-width="1.5" d="M13 21h-6c-2.209 0-4-1.791-4-4v-10c0-2.209 1.791-4 4-4h10c2.209 0 4 1.791 4 4v7"></path><path stroke="#323232" stroke-linecap="round" stroke-linejoin="round" stroke-width="1.5" d="M21 18.292l-2.708 2.708 -1.626-1.625"></path></g></svg>