<?xml version="1.0" encoding="UTF-8"?><svg version="1.1" viewBox="0 0 24 24" xmlns="http://www.w3.org/2000/svg" xmlns:xlink="http://www.w3.org/1999/xlink"><g stroke-linecap="round" stroke-width="1.5" stroke="#323232" fill="none" stroke-linejoin="round"><path d="M10.4 13.518v2.592l-3.49097e-09 6.78557e-07c-.00252573.490975.39344.891036.884415.893561 .139345.000716833.276906-.0313327.401586-.0935625l1.424-.712 5.26383e-08-2.63168e-08c.302805-.151389.493501-.461463.492-.8v-1.88l2.053-1.584 1.20074e-08-9.26249e-09c.217118-.167485.344796-.425792.346-.7v-1.345l1.81188e-13-5.6314e-07c0-.490981-.398019-.889-.889-.889 -.000333731 0-.000667463 1.87925e-07-.00100119 5.63774e-07h-6.222 -3.88594e-08c-.490981 2.14615e-08-.889.398019-.889.889v1.341l1.10179e-08 2.2293e-06c.00135539.274172.129003.532417.346002.699999Z"></path><circle cx="12" cy="12" r="9"></circle></g><path fill="none" d="M0 0h24v24h-24Z"></path></svg>