<?xml version="1.0" encoding="UTF-8"?><svg version="1.1" viewBox="0 0 24 24" xmlns="http://www.w3.org/2000/svg" xmlns:xlink="http://www.w3.org/1999/xlink"><!--Generated by IJSVG (https://github.com/iconjar/IJSVG)--><g stroke-linecap="round" stroke-width="1.5" stroke="#323232" fill="none" stroke-linejoin="round"><path d="M8.12132,4.87868c1.17157,1.17157 1.17157,3.07107 0,4.24264c-1.17157,1.17157 -3.07107,1.17157 -4.24264,0c-1.17157,-1.17157 -1.17157,-3.07107 -8.88178e-16,-4.24264c1.17157,-1.17157 3.07107,-1.17157 4.24264,-8.88178e-16"></path><path d="M20,7h-11"></path><path d="M20.1213,14.8787c1.17157,1.17157 1.17157,3.07107 0,4.24264c-1.17157,1.17157 -3.07107,1.17157 -4.24264,0c-1.17157,-1.17157 -1.17157,-3.07107 0,-4.24264c1.17157,-1.17157 3.07107,-1.17157 4.24264,0"></path><path d="M4,17h11"></path></g><path fill="none" d="M0,0h24v24h-24Z"></path></svg>