<svg xmlns="http://www.w3.org/2000/svg" viewBox="0 0 24 24"><g id="Layer_2" data-name="Layer 2"><path d="M0,24V0L24,0V24Z" fill="none"/><path d="M20.582,9.353A8.8393,8.8393,0,0,1,21,12a9,9,0,1,1-9-9,8.839,8.839,0,0,1,2.647.418" fill="none" stroke="#323232" stroke-linecap="round" stroke-linejoin="round" stroke-width="1.5"/><path d="M17.799,5.062,19,6.262l1.99893-2" fill="none" stroke="#323232" stroke-linecap="round" stroke-linejoin="round" stroke-width="1.5"/><path d="M13.60132,13.51733v1.78811a1,1,0,0,1-.55281.89444l-1.41868.70929a.85.85,0,0,1-1.23011-.76027V13.51733l-2.01135-1.555A1,1,0,0,1,8,11.17121V9.85A.85.85,0,0,1,8.85,9h6.3a.85.85,0,0,1,.85.85v1.32523a1,1,0,0,1-.38916.79176Z" fill="none" stroke="#323232" stroke-linecap="round" stroke-linejoin="round" stroke-width="1.5"/></g></svg>