<svg id="Layer_3" data-name="Layer 3" xmlns="http://www.w3.org/2000/svg" viewBox="0 0 24 24"><path d="M0,0H24V24H0Z" fill="none"/><path d="M20.95459,12.89918C20.984,12.6034,21,12.3036,21,12a9.02723,9.02723,0,1,0-8,8.94141" fill="none" stroke="#323232" stroke-linecap="round" stroke-linejoin="round" stroke-width="1.5"/><path d="M20,17l-2.5,2.5L16,18" fill="none" stroke="#323232" stroke-linecap="round" stroke-linejoin="round" stroke-width="1.5"/><path d="M13.60132,13.01734v1.78811a1,1,0,0,1-.55281.89444l-1.41868.7093a.85.85,0,0,1-1.23011-.76028V13.01734l-2.01135-1.555A1,1,0,0,1,8,10.67122V9.35a.85.85,0,0,1,.85-.85h6.3a.85.85,0,0,1,.85.85v1.32523a1,1,0,0,1-.38916.79176Z" fill="none" stroke="#323232" stroke-linecap="round" stroke-linejoin="round" stroke-width="1.5"/></svg>