<?xml version="1.0" encoding="UTF-8"?><svg version="1.1" viewBox="0 0 24 24" xmlns="http://www.w3.org/2000/svg" xmlns:xlink="http://www.w3.org/1999/xlink"><g fill="none"><path d="M0 0h24v24h-24v-24Z"></path><path stroke="#323232" stroke-linecap="round" stroke-linejoin="round" stroke-width="1.5" d="M16.5 12c-2.485 0-4.5-2.015-4.5-4.5 0-2.434 2.07-4.502 4.503-4.5 2.484.002 4.497 2.016 4.497 4.5 0 2.485-2.014 4.5-4.5 4.5"></path><path stroke="#323232" stroke-linecap="round" stroke-linejoin="round" stroke-width="1.5" d="M17.693 6.307l-2.386 2.386"></path><path stroke="#323232" stroke-linecap="round" stroke-linejoin="round" stroke-width="1.5" d="M17.694 8.694l-2.386-2.386"></path><path stroke="#323232" stroke-linecap="round" stroke-linejoin="round" stroke-width="1.5" d="M12.288 6h-7.732c-.859 0-1.556.697-1.556 1.556v2.347c0 .482.224.936.605 1.232l3.593 2.772v5.536c0 1.156 1.216 1.909 2.251 1.391l2.492-1.246c.527-.263.86-.803.86-1.391v-4.29"></path><path stroke="#323232" stroke-linecap="round" stroke-linejoin="round" stroke-width="1.5" d="M12.8 13.91l2.64-2.04"></path></g></svg>