<svg xmlns="http://www.w3.org/2000/svg" viewBox="0 0 24 24"><g id="Layer_2" data-name="Layer 2"><line x1="17" y1="16" x2="21" y2="16" fill="none" stroke="#323232" stroke-linecap="round" stroke-linejoin="round" stroke-width="1.5"/><path d="M12,21a9,9,0,1,1,9-9" fill="none" stroke="#323232" stroke-linecap="round" stroke-linejoin="round" stroke-width="1.5"/><path d="M13.60132,13.51733v1.78811a1,1,0,0,1-.55281.89444l-1.41868.70929a.85.85,0,0,1-1.23011-.76027V13.51733l-2.01135-1.555A1,1,0,0,1,8,11.17121V9.85A.85.85,0,0,1,8.85,9h6.3a.85.85,0,0,1,.85.85v1.32523a1,1,0,0,1-.38916.79176Z" fill="none" stroke="#323232" stroke-linecap="round" stroke-linejoin="round" stroke-width="1.5"/><line x1="17" y1="19" x2="21" y2="19" fill="none" stroke="#323232" stroke-linecap="round" stroke-linejoin="round" stroke-width="1.5"/><path d="M0,0H24V24H0Z" fill="none"/></g></svg>