<?xml version="1.0" encoding="UTF-8"?><svg version="1.1" viewBox="0 0 24 24" xmlns="http://www.w3.org/2000/svg" xmlns:xlink="http://www.w3.org/1999/xlink"><g stroke-linecap="round" stroke-width="1.5" stroke="#323232" fill="none" stroke-linejoin="round"><path d="M19.853 13.006l1.48122e-07 1.48101e-07c1.3392 1.33901 1.33935 3.51014.000337997 4.84934 -1.33901 1.3392-3.51014 1.33935-4.84934.000337997 -1.3392-1.33901-1.33935-3.51014-.000337997-4.84934 .000112757-.000112772.000225521-.000225537.000338294-.000338294l-2.98391e-07 2.98002e-07c1.33953-1.33778 3.50947-1.33778 4.849-5.96004e-07"></path><path d="M22 20l-2.148-2.148"></path><path d="M21 10v-4 0c0-1.65685-1.34315-3-3-3h-12l-1.31134e-07 3.55271e-15c-1.65685 7.24234e-08-3 1.34315-3 3 0 0 0 1.77636e-15 0 1.77636e-15v12l3.37508e-14-4.52987e-07c-2.50178e-07 1.65685 1.34315 3 3 3h7.588"></path><line x1="9" x2="9" y1="3" y2="21"></line></g><rect width="24" height="24" fill="none"></rect></svg>