<?xml version="1.0" encoding="UTF-8"?><svg version="1.1" viewBox="0 0 24 24" xmlns="http://www.w3.org/2000/svg" xmlns:xlink="http://www.w3.org/1999/xlink"><g fill="none"><path d="M0 0h24v24h-24Z"></path><path stroke="#323232" stroke-linecap="round" stroke-linejoin="round" stroke-width="1.5" d="M5.154 17.846l-3.05753e-07-4.62722e-07c-.753882-1.14092-1.15523-2.47851-1.154-3.846"></path><path stroke="#323232" stroke-linecap="round" stroke-linejoin="round" stroke-width="1.5" d="M8.89 7.89l-3.39057e-07 2.62207e-07c.604295-.467327 1.34609-.721857 2.11-.724"></path><path stroke="#323232" stroke-linecap="round" stroke-linejoin="round" stroke-width="1.5" d="M7.5 11.333v3l-8.67907e-08 1.90448e-05c-.00876341 1.92414 1.54396 3.49107 3.4681 3.49983 .774589.00352783 1.52827-.251177 2.14192-.723862"></path><line x1="11" x2="11" y1="11" y2="14" stroke="#323232" stroke-linecap="round" stroke-linejoin="round" stroke-width="1.5"></line><line x1="14.5" x2="14.5" y1="12" y2="13.67" stroke="#323232" stroke-linecap="round" stroke-linejoin="round" stroke-width="1.5"></line><path stroke="#323232" stroke-linecap="round" stroke-linejoin="round" stroke-width="1.5" d="M18 2l-1.74846e-07 4.44089e-15c2.20914-9.65645e-08 4 1.79086 4 4 9.65645e-08 2.20914-1.79086 4-4 4 -2.20914 9.65645e-08-4-1.79086-4-4l4.61853e-14 6.03983e-07c-3.33571e-07-2.20914 1.79086-4 4-4"></path><path stroke="#323232" stroke-linecap="round" stroke-linejoin="round" stroke-width="1.5" d="M19.333 5.956l2.12843e-09 5.01013e-11c-.0237417-.000558863-.0434411.0182345-.044.0419762 -1.58776e-05.000674512-1.58776e-05.0013493-1.00201e-10.00202382v2.12843e-09 -6.64382e-09c-3.66928e-09.0243005.0196995.044.044.044 .0243005 3.66928e-09.044-.0196995.044-.044 3.66928e-09-.0243005-.0196995-.044-.044-.044v0"></path><path stroke="#323232" stroke-linecap="round" stroke-linejoin="round" stroke-width="1.5" d="M16.667 5.956l2.12844e-09 5.01021e-11c-.0237417-.000558863-.0434411.0182345-.044.0419762 -1.58776e-05.000674512-1.58776e-05.0013493-1.00201e-10.00202382v2.12844e-09l-3.55271e-15-6.64382e-09c-3.66928e-09.0243005.0196995.044.044.044 .0243005 3.66928e-09.044-.0196995.044-.044 3.66928e-09-.0243005-.0196995-.044-.044-.044"></path><path stroke="#323232" stroke-linecap="round" stroke-linejoin="round" stroke-width="1.5" d="M11 4v0l-3.0598e-07 7.10543e-15c-3.86599 1.68988e-07-7 3.13401-7 7 0 0 0 1.77636e-15 0 1.77636e-15h-7.10543e-15"></path><path stroke="#323232" stroke-linecap="round" stroke-linejoin="round" stroke-width="1.5" d="M18 14v0 0c0 3.86599-3.13401 7-7 7v0l9.62707e-08 1.98739e-11c-1.11889-.000230934-2.22128-.269827-3.214-.786"></path><line x1="18" x2="18" y1="14" y2="13" stroke="#323232" stroke-linecap="round" stroke-linejoin="round" stroke-width="1.5"></line></g></svg>