<?xml version="1.0" encoding="UTF-8"?><svg version="1.1" viewBox="0 0 24 24" xmlns="http://www.w3.org/2000/svg" xmlns:xlink="http://www.w3.org/1999/xlink"><!--Generated by IJSVG (https://github.com/iconjar/IJSVG)--><g stroke-linecap="round" stroke-width="1.5" stroke="#323232" fill="none" stroke-linejoin="round"><path d="M3,17v2c0,1.105 0.895,2 2,2h2"></path><path d="M21,7v-2c0,-1.105 -0.895,-2 -2,-2h-2"></path><path d="M12,16v-2"></path><path d="M7,3h-2c-1.105,0 -2,0.895 -2,2v2"></path><path d="M17,21h2c1.105,0 2,-0.895 2,-2v-2"></path><path d="M15,16v-2c0,-1.657 -1.343,-3 -3,-3c-0.828,0 -1.578,0.336 -2.121,0.879"></path><path d="M9,15v1"></path><path d="M18,16v-2c0,-1.144 -0.326,-2.209 -0.881,-3.119"></path><path d="M15.119,8.881c-0.91,-0.555 -1.975,-0.881 -3.119,-0.881c-3.314,0 -6,2.686 -6,6v2"></path></g><path fill="none" d="M0,0h24v24h-24v-24Z"></path></svg>