<?xml version="1.0" encoding="UTF-8"?><svg version="1.1" viewBox="0 0 24 24" xmlns="http://www.w3.org/2000/svg" xmlns:xlink="http://www.w3.org/1999/xlink"><g stroke-linecap="round" stroke-width="1.5" stroke="#323232" fill="none" stroke-linejoin="round"><path d="M12 6v0l-2.62268e-07 6.21725e-15c3.31371-1.44847e-07 6 2.68629 6 6v0 0c0 3.31371-2.68629 6-6 6v0l-2.62268e-07-7.10543e-15c-3.31371-1.44847e-07-6-2.68629-6-6 0 0 0-1.77636e-15 0-1.77636e-15h8.88178e-16l4.52971e-14-3.81438e-07c5.00356e-07-3.31371 2.68629-6 6-6Z"></path><path d="M14.43 12.793v-1.365l3.95749e-08-2.28982e-06c.0196482-1.13688-.699257-2.15557-1.777-2.518l8.2481e-08 2.63944e-08c-.548619-.175561-1.14169-.151116-1.674.0689999"></path><path d="M12 12.4v-1"></path><path d="M9.57 11v1.365l-4.36002e-08 2.52273e-06c-.0196481 1.13688.699257 2.15557 1.777 2.518l-8.70284e-09-2.78496e-09c.548619.175561 1.14169.151116 1.674-.0689999"></path><rect width="18" height="18" x="3" y="3" rx="2.7614" ry="0"></rect></g><rect width="24" height="24" fill="none"></rect></svg>