<?xml version="1.0" encoding="UTF-8"?><svg version="1.1" viewBox="0 0 24 24" xmlns="http://www.w3.org/2000/svg" xmlns:xlink="http://www.w3.org/1999/xlink"><g stroke-linecap="round" stroke-width="1.5" stroke="#323232" fill="none" stroke-linejoin="round"><path d="M16 2v0l-2.62268e-07 6.21725e-15c3.31371-1.44847e-07 6 2.68629 6 6v0 0c0 3.31371-2.68629 6-6 6v0l-2.62268e-07-7.10543e-15c-3.31371-1.44847e-07-6-2.68629-6-6 0 0 0-2.66454e-15 0-2.66454e-15v0l4.61853e-14-3.81438e-07c5.00356e-07-3.31371 2.68629-6 6-6Z"></path><path d="M18.43 8.793v-1.376l1.03158e-07-6.42902e-06c.0180471-1.12482-.689357-2.13366-1.75301-2.5l-1.0116e-07-3.3446e-08c-.555782-.183755-1.15908-.161752-1.7.0620001"></path><path d="M16 8.4v-1"></path><path d="M13.57 7v1.376l-9.97342e-08 6.21565e-06c-.0180472 1.12482.689357 2.13366 1.75301 2.5l1.74859e-07 5.78126e-08c.555782.183755 1.15908.161752 1.7-.0620001"></path><path d="M21 16v1 0c0 2.20914-1.79086 4-4 4h-10l-1.74846e-07-3.55271e-15c-2.20914-9.65645e-08-4-1.79086-4-4 0 0 0 0 0 0v-10l4.52971e-14 6.03983e-07c-3.33571e-07-2.20914 1.79086-4 4-4h1"></path></g><path fill="none" d="M0 0h24v24h-24Z"></path></svg>