<?xml version="1.0" encoding="UTF-8"?><svg version="1.1" viewBox="0 0 24 24" xmlns="http://www.w3.org/2000/svg" xmlns:xlink="http://www.w3.org/1999/xlink"><g stroke-linecap="round" stroke-width="1.5" stroke="#323232" fill="none" stroke-linejoin="round"><path d="M3 18v2l1.15463e-14 1.50996e-07c8.33927e-08.552285.447715 1 1 1h2"></path><path d="M21 6v-2 0c0-.552285-.447715-1-1-1h-2"></path><path d="M6 3h-2l-4.37114e-08 8.88178e-16c-.552285 2.41411e-08-1 .447715-1 1 0 0 0 0 0 0v2"></path><path d="M18 21h2 -4.37114e-08c.552285 2.41411e-08 1-.447715 1-1v-2"></path><path d="M15 13v-1.811l1.28625e-08-6.81656e-07c.0325503-1.72503-1.33948-3.14983-3.06451-3.18238 -.0451622-.000852183-.0903375-.000724759-.135494.000382182l1.46593e-07-9.769e-09c-.724265.0482651-1.40629.358178-1.919.872"></path><line x1="9" x2="9" y1="12" y2="13"></line><path d="M9 12v.811l-1.20869e-08 6.40551e-07c-.0325503 1.72503 1.33948 3.14983 3.06451 3.18238 .0451622.000852184.0903375.00072476.135494-.00038218l-5.16985e-08 3.4452e-09c.724265-.0482651 1.40629-.358178 1.919-.872"></path><path d="M17.119 7.881l-4.76678e-08-7.76997e-08c.575755.938495.880666 2.01797.881 3.119v1.783l2.48649e-07 1.80461e-05c.0430712 3.12629-2.26672 5.78717-5.36802 6.18398l-4.45541e-08 4.7247e-09c-1.30965.13888-2.62846-.159267-3.751-.848"></path><path d="M6.881 16.119l-4.11177e-07-6.70229e-07c-.575755-.938495-.880666-2.01797-.881-3.119v-1.783l-2.48954e-07-1.80683e-05c-.0430711-3.12629 2.26672-5.78717 5.36802-6.18398l-4.74363e-07 5.03035e-08c1.30965-.138881 2.62846.159267 3.751.848"></path><line x1="12" x2="12" y1="11" y2="13"></line></g><path fill="none" d="M0 0h24v24h-24Z"></path></svg>