<?xml version="1.0" encoding="UTF-8"?><svg version="1.1" viewBox="0 0 24 24" xmlns="http://www.w3.org/2000/svg" xmlns:xlink="http://www.w3.org/1999/xlink"><g fill="none"><path d="M0 0h24v24h-24Z"></path><path stroke="#323232" stroke-linecap="round" stroke-linejoin="round" stroke-width="1.5" d="M13.5 3v0c-4.142 0-7.5 3.358-7.5 7.5v6c0 2.485 2.015 4.5 4.5 4.5v0c2.485 0 4.5-2.015 4.5-4.5v-6c0-.828-.672-1.5-1.5-1.5v0c-.828 0-1.5.672-1.5 1.5v6c0 .828-.672 1.5-1.5 1.5v0c-.828 0-1.5-.672-1.5-1.5v-6c0-2.485 2.015-4.5 4.5-4.5v0c2.485 0 4.5 2.015 4.5 4.5v6.5"></path></g></svg>