<?xml version="1.0" encoding="UTF-8"?><svg version="1.1" viewBox="0 0 24 24" xmlns="http://www.w3.org/2000/svg" xmlns:xlink="http://www.w3.org/1999/xlink"><g fill="none"><path d="M0 0h24v24h-24Z"></path><path stroke="#323232" stroke-linecap="round" stroke-linejoin="round" stroke-width="1.5" d="M5.154 17.846l-3.05753e-07-4.62722e-07c-.753882-1.14092-1.15523-2.47851-1.154-3.846"></path><path stroke="#323232" stroke-linecap="round" stroke-linejoin="round" stroke-width="1.5" d="M8.89 7.89l-3.39057e-07 2.62207e-07c.604295-.467327 1.34609-.721857 2.11-.724"></path><path stroke="#323232" stroke-linecap="round" stroke-linejoin="round" stroke-width="1.5" d="M7.5 11.333v3l-8.67907e-08 1.90448e-05c-.00876341 1.92414 1.54396 3.49107 3.4681 3.49983 .774589.00352783 1.52827-.251177 2.14192-.723862"></path><line x1="11" x2="11" y1="11" y2="14" stroke="#323232" stroke-linecap="round" stroke-linejoin="round" stroke-width="1.5"></line><line x1="14.5" x2="14.5" y1="12" y2="13.67" stroke="#323232" stroke-linecap="round" stroke-linejoin="round" stroke-width="1.5"></line><path stroke="#323232" stroke-linecap="round" stroke-linejoin="round" stroke-width="1.5" d="M11 4v0l-3.0598e-07 7.10543e-15c-3.86599 1.68988e-07-7 3.13401-7 7 0 0 0 1.77636e-15 0 1.77636e-15h-7.10543e-15"></path><path stroke="#323232" stroke-linecap="round" stroke-linejoin="round" stroke-width="1.5" d="M18 14v0 0c0 3.86599-3.13401 7-7 7v0l9.62707e-08 1.98739e-11c-1.11889-.000230934-2.22128-.269827-3.214-.786"></path><line x1="18" x2="18" y1="14" y2="13" stroke="#323232" stroke-linecap="round" stroke-linejoin="round" stroke-width="1.5"></line><path stroke="#323232" stroke-linecap="round" stroke-linejoin="round" stroke-width="1.5" d="M18 5.634v-1.25"></path><path stroke="#323232" stroke-linecap="round" stroke-linejoin="round" stroke-width="1.5" d="M15.172 8.829l-2.46122e-07-2.46048e-07c-1.56233-1.56186-1.56272-4.09452-.000853693-5.65685 1.56186-1.56233 4.09452-1.56272 5.65685-.000853693 1.56233 1.56186 1.56272 4.09452.000853693 5.65685 -.000284685.000284771-.000569414.0005695-.000854185.000854185l1.67429e-07-1.67378e-07c-1.562 1.56153-4.094 1.56153-5.656 3.34756e-07"></path><path stroke="#323232" stroke-linecap="round" stroke-linejoin="round" stroke-width="1.5" d="M18 7.471l-4.22856e-09-4.08562e-13c-.0397645-3.83316e-06-.0720031.0322286-.0720069.0719931 -3.23565e-08.00033566 2.28254e-06.000671317 6.94451e-06.00100695v1.10227e-08c6.08767e-09.0403168.0326832.073.073.073 .0403168-6.08767e-09.073-.0326832.073-.073l-1.06699e-10-7.89514e-09c-.000547058-.040478-.0335183-.0730037-.074-.073"></path></g></svg>