<svg viewBox="0 0 24 24" xmlns="http://www.w3.org/2000/svg"><g fill="none"><path d="M0 0h24v24H0Z"/><g stroke-linecap="round" stroke-width="1.5" stroke="#323232" fill="none" stroke-linejoin="round"><path d="M10.67 5.33l-.01 0c.38-.74 1.28-1.02 2.01-.63 .26.14.48.36.62.62l1.06 2.01"/><path d="M15.47 6.26l0-.01c.58-.59 1.53-.59 2.11-.01 .22.22.36.5.41.81l1.5 9.31 0 0c.1.62-.2 1.24-.76 1.54l-6.07 3.37 0-.01c-.46.25-1.01.25-1.46-.01l-6.02-3.37 0 0c-.55-.31-.85-.92-.75-1.54L6.4 3.7l-.01 0c.12-.82.89-1.38 1.7-1.25 .46.07.87.36 1.09.77l1.24 2.36"/><path d="M4.57 17.18l10.9-10.92"/><path d="M4.53 17.05l6.15-11.72"/></g></g></svg>