<svg id="Layer_3" data-name="Layer 3" xmlns="http://www.w3.org/2000/svg" viewBox="0 0 24 24"><path d="M24,24H0V0H24Z" fill="none"/><path d="M9.36291,5h5.27418a2.8629,2.8629,0,0,1,1.537.44758h0A2.86292,2.86292,0,0,1,17.5,7.86292V16.1371a2.86292,2.86292,0,0,1-1.32589,2.41533h0A2.8629,2.8629,0,0,1,14.63709,19H9.36291a2.8629,2.8629,0,0,1-1.537-.44758h0A2.86292,2.86292,0,0,1,6.5,16.1371V7.86292A2.86292,2.86292,0,0,1,7.82589,5.44759h0A2.8629,2.8629,0,0,1,9.36291,5Z" fill="none" stroke="#323232" stroke-linecap="round" stroke-linejoin="round" stroke-width="1.5"/><path d="M16.06445,18.61177l-.448,1.85717A2,2,0,0,1,13.67224,22H10.32776a2,2,0,0,1-1.94422-1.53107l-.448-1.85717" fill="none" stroke="#323232" stroke-linecap="round" stroke-linejoin="round" stroke-width="1.5"/><path d="M7.93555,5.38825l.448-1.85717A2,2,0,0,1,10.32776,2h3.34448a2,2,0,0,1,1.94422,1.53107l.448,1.85717" fill="none" stroke="#323232" stroke-linecap="round" stroke-linejoin="round" stroke-width="1.5"/><polyline points="14.5 12 13.5 12 12.5 13 11.5 11 10.5 12 9.5 12" fill="none" stroke="#323232" stroke-linecap="round" stroke-linejoin="round" stroke-width="1.5"/></svg>