<?xml version="1.0" encoding="UTF-8"?><svg version="1.1" viewBox="0 0 24 24" xmlns="http://www.w3.org/2000/svg" xmlns:xlink="http://www.w3.org/1999/xlink"><g stroke-linecap="round" stroke-width="1.5" stroke="#323232" fill="none" stroke-linejoin="round"><path d="M15.59 14.383l.266-.4 -8.41546e-08 1.26164e-07c1.1209-1.68044 3.22773-2.40292 5.144-1.764v0"></path><path d="M10.065 12.793l1.2-5.984 1.31.655 5.02894e-08 2.51076e-08c.486408.242845 1.07749.0870504 1.381-.364l1.144-1.717 1.21805e-08-1.8303e-08c.285592-.429144.229122-1.00011-.135-1.365l-1.44-1.44 8.01378e-09 8.01566e-09c-.667673-.667829-1.7344-.716396-2.46-.112v0l-4.39098e-07 3.65879e-07c-3.40714 2.839-5.95522 6.57177-7.358 10.779l-.6 1.786 -4.74496e-08 1.43041e-07c-.299293.902249.0252626 1.89417.8 2.445l1.531 1.094 -6.29589e-07-4.49815e-07c2.95454 2.11089 6.78068 2.57182 10.152 1.223v0l1.082 2.164"></path><path d="M15.59 13.3v0l-2.77197e-07-1.84744e-07c-1.96572-1.31009-4.52628-1.31009-6.492 3.69487e-07v0"></path></g><rect width="24" height="24" fill="none"></rect></svg>