<?xml version="1.0" encoding="UTF-8"?><svg version="1.1" viewBox="0 0 24 24" xmlns="http://www.w3.org/2000/svg" xmlns:xlink="http://www.w3.org/1999/xlink"><g stroke-linecap="round" stroke-width="1.5" stroke="#323232" fill="none" stroke-linejoin="round"><path d="M12 21v0c-4.971 0-9-4.029-9-9v0c0-4.971 4.029-9 9-9v0c4.971 0 9 4.029 9 9v0c0 4.971-4.029 9-9 9Z"></path><path d="M14.64 10.916l1.27-2.023c.244-.388-.035-.893-.495-.893h-5.831c-.323 0-.584.261-.584.584v5.25h6.415c.458 0 .738-.505.494-.893l-1.269-2.025Z"></path><line x1="9" x2="9" y1="17" y2="13.83"></line></g><rect width="24" height="24" fill="none"></rect></svg>