<?xml version="1.0" encoding="UTF-8"?><svg version="1.1" viewBox="0 0 24 24" xmlns="http://www.w3.org/2000/svg" xmlns:xlink="http://www.w3.org/1999/xlink"><g stroke-linecap="round" stroke-width="1.5" stroke="#323232" fill="none" stroke-linejoin="round"><line x1="8" x2="8" y1="7.57" y2="17"></line><path d="M8 7.57143l-1.4962e-07 9.30974e-08c1.22449-.761911 2.77551-.761911 4-1.86195e-07l1.7592e-07 1.0946e-07c1.22449.761901 2.77551.761901 4-2.18921e-07v5.85714l2.5179e-07-1.5667e-07c-1.22449.761911-2.77551.761911-4 3.13341e-07l-7.37482e-08-4.58875e-08c-1.22449-.761901-2.77551-.761901-4 9.1775e-08"></path><path d="M16 21h-8l-2.18557e-07-7.10543e-15c-2.76142-1.20706e-07-5-2.23858-5-5 0 0 0-1.77636e-15 0-1.77636e-15v-8l5.68434e-14 7.54979e-07c-4.16963e-07-2.76142 2.23858-5 5-5h8l-2.18557e-07 5.32907e-15c2.76142-1.20706e-07 5 2.23858 5 5v8l3.55271e-15 2.18557e-07c0 2.76142-2.23858 5-5 5Z"></path></g><path fill="none" d="M24 24h-24v-24h24Z"></path></svg>