<?xml version="1.0" encoding="UTF-8"?><svg version="1.1" viewBox="0 0 24 24" xmlns="http://www.w3.org/2000/svg" xmlns:xlink="http://www.w3.org/1999/xlink"><g fill="none"><path d="M0 0h24v24h-24Z"></path><path stroke="#323232" stroke-linecap="round" stroke-linejoin="round" stroke-width="1.5" d="M8.5 3h7l-4.37114e-08 8.88178e-16c.552285-2.41411e-08 1 .447715 1 1v6h-9v-6l1.15463e-14 1.50996e-07c-8.33927e-08-.552285.447715-1 1-1Z"></path><path stroke="#323232" stroke-linecap="round" stroke-linejoin="round" stroke-width="1.5" d="M7.5 10h9l-8.74228e-08 1.77636e-15c1.10457-4.82823e-08 2 .89543 2 2v4 0c0 2.76142-2.23858 5-5 5h-3l-2.18557e-07-3.55271e-15c-2.76142-1.20706e-07-5-2.23858-5-5 0 0 0-1.77636e-15 0-1.77636e-15v-4l2.30926e-14 3.01992e-07c-1.66785e-07-1.10457.89543-2 2-2Z"></path><line x1="10.25" x2="10.75" y1="7" y2="7" stroke="#323232" stroke-linecap="round" stroke-linejoin="round" stroke-width="1.5"></line><line x1="13.25" x2="13.75" y1="7" y2="7" stroke="#323232" stroke-linecap="round" stroke-linejoin="round" stroke-width="1.5"></line></g></svg>