<?xml version="1.0" encoding="UTF-8"?><svg version="1.1" viewBox="0 0 24 24" xmlns="http://www.w3.org/2000/svg" xmlns:xlink="http://www.w3.org/1999/xlink"><g stroke-linecap="round" stroke-width="1.5" stroke="#323232" fill="none" stroke-linejoin="round"><line x1="11" x2="13" y1="18" y2="18"></line><path d="M6 3v9l1.06581e-14 1.50996e-07c8.33927e-08.552285.447715 1 1 1h10l-4.37114e-08-1.77636e-15c.552285 2.41411e-08 1-.447715 1-1v-4"></path><path d="M9 5h6l-1.31134e-07 3.55271e-15c1.65685-7.24234e-08 3 1.34315 3 3v8 -1.77636e-15c0 2.76142-2.23858 5-5 5h-2l-2.18557e-07-7.10543e-15c-2.76142-1.20706e-07-5-2.23858-5-5 0 0 0-1.77636e-15 0-1.77636e-15v-8l3.37508e-14 4.52987e-07c-2.50178e-07-1.65685 1.34315-3 3-3Z"></path></g><rect width="24" height="24" fill="none"></rect></svg>