<svg id="Layer_3" data-name="Layer 3" xmlns="http://www.w3.org/2000/svg" viewBox="0 0 24 24"><path d="M9,5h6a3,3,0,0,1,3,3v7a6,6,0,0,1-6,6h0a6,6,0,0,1-6-6V8A3,3,0,0,1,9,5Z" fill="none" stroke="#323232" stroke-linecap="round" stroke-linejoin="round" stroke-width="1.5"/><path d="M12,5V3.5A1.5,1.5,0,0,1,13.5,2h0A1.5,1.5,0,0,1,15,3.5V5" fill="none" stroke="#323232" stroke-linecap="round" stroke-linejoin="round" stroke-width="1.5"/><line x1="9" y1="9" x2="15" y2="9" fill="none" stroke="#323232" stroke-linecap="round" stroke-linejoin="round" stroke-width="1.5"/><path d="M9.5,12.9995,9.5005,13,9.5,13.0005,9.4995,13,9.5,12.9995" fill="none" stroke="#323232" stroke-linecap="round" stroke-linejoin="round" stroke-width="1.5"/><path d="M9.5,15.4995l.0005.0005L9.5,15.5005,9.4995,15.5,9.5,15.4995" fill="none" stroke="#323232" stroke-linecap="round" stroke-linejoin="round" stroke-width="1.5"/><path d="M12,15.4995l.0005.0005L12,15.5005,11.9995,15.5,12,15.4995" fill="none" stroke="#323232" stroke-linecap="round" stroke-linejoin="round" stroke-width="1.5"/><path d="M14.5,15.4995l.0005.0005-.0005.0005L14.4995,15.5l.0005-.0005" fill="none" stroke="#323232" stroke-linecap="round" stroke-linejoin="round" stroke-width="1.5"/><path d="M12,12.9995,12.0005,13,12,13.0005,11.9995,13,12,12.9995" fill="none" stroke="#323232" stroke-linecap="round" stroke-linejoin="round" stroke-width="1.5"/><path d="M14.5,12.9995,14.5005,13l-.0005.0005L14.4995,13l.0005-.0005" fill="none" stroke="#323232" stroke-linecap="round" stroke-linejoin="round" stroke-width="1.5"/><rect width="24" height="24" fill="none"/></svg>