<?xml version="1.0" encoding="UTF-8"?><svg version="1.1" viewBox="0 0 24 24" xmlns="http://www.w3.org/2000/svg" xmlns:xlink="http://www.w3.org/1999/xlink"><g fill="none"><rect width="24" height="24"></rect><path stroke="#323232" stroke-linecap="round" stroke-linejoin="round" stroke-width="1.5" d="M10.5 14v-10.5l1.77636e-14 2.26494e-07c-1.25089e-07-.828427.671573-1.5 1.5-1.5v0l-6.55671e-08 1.77636e-15c.828427-3.62117e-08 1.5.671573 1.5 1.5v10.5"></path><rect width="10" height="3" x="7" y="14" rx=".55228" ry="0" stroke="#323232" stroke-linecap="round" stroke-linejoin="round" stroke-width="1.5"></rect><path stroke="#323232" stroke-linecap="round" stroke-linejoin="round" stroke-width="1.5" d="M17 16h2.5 -6.55671e-08c.828427-3.62117e-08 1.5.671573 1.5 1.5v2 6.55671e-08c0 .828427-.671573 1.5-1.5 1.5 -2.03192e-08 0-4.52479e-08 0-6.55671e-08 0h-15 -6.55671e-08c-.828427-3.62117e-08-1.5-.671573-1.5-1.5 0 0 0 0 0 0v-2l1.5099e-14-1.60927e-07c1.25089e-07-.828427.671573-1.5 1.5-1.5h2.5"></path></g></svg>