<?xml version="1.0" encoding="UTF-8"?><svg version="1.1" viewBox="0 0 24 24" xmlns="http://www.w3.org/2000/svg" xmlns:xlink="http://www.w3.org/1999/xlink"><g stroke-linecap="round" stroke-width="1.5" stroke="#323232" fill="none" stroke-linejoin="round"><path d="M13.964 6h-9.297c-.926 0-1.674.754-1.667 1.679l.087 11.667c.006.915.751 1.654 1.666 1.654h11.568c.92 0 1.667-.746 1.667-1.667v-9.31c0-.442-.176-.866-.488-1.179l-2.357-2.357c-.313-.311-.737-.487-1.179-.487Z"></path><path d="M21 17v-9.172c0-.53-.211-1.039-.586-1.414l-2.828-2.828c-.375-.375-.884-.586-1.414-.586h-9.165"></path><path d="M13.821 6v3.258c0 .46-.373.833-.833.833h-5c-.46 0-.833-.373-.833-.833v-3.258"></path><path d="M6.327 21v-6.429c0-.592.48-1.071 1.071-1.071h6.19c.592 0 1.071.48 1.071 1.071v6.429"></path></g><path fill="none" d="M0 0h24v24h-24v-24Z"></path></svg>