<svg viewBox="0 0 24 24" xmlns="http://www.w3.org/2000/svg"><g stroke-linecap="round" stroke-width="1.5" stroke="#323232" fill="none" stroke-linejoin="round"><path d="M19 21H5.1l0-.001c-1.1 0-2-.89-2-1.99l-.11-14 -.01-.01c-.01-1.11.88-2.01 1.98-2.02 0-.01 0-.01.01-.01h11.17l0-.001c.53-.01 1.03.21 1.41.58l2.82 2.82 -.01-.01c.37.37.58.88.58 1.41v11.17l0 0c0 1.1-.9 1.99-2 1.99 -.01 0-.01-.01-.01-.01Z"/><path d="M15.993 3v4l0-.01c-.01.55-.45.99-1 1h-6l-.01-.001c-.56-.01-1-.45-1-1v-4"/><path d="M12 12a2.5 2.5 0 1 0 0 5 2.5 2.5 0 1 0 0-5Z"/></g><path fill="none" d="M0 0h24v24H0Z"/></svg>