<svg xmlns="http://www.w3.org/2000/svg" viewBox="0 0 24 24"><g id="Layer_2" data-name="Layer 2"><path d="M15,15h4a2,2,0,0,0,2-2V7.16176a2,2,0,0,0-.58579-1.41422L18.25245,3.58578A2,2,0,0,0,16.83824,3H11A2,2,0,0,0,9,5V9" fill="none" stroke="#323232" stroke-linecap="round" stroke-linejoin="round" stroke-width="1.5"/><path d="M7.5,16h3a1,1,0,0,1,1,1v4a0,0,0,0,1,0,0h-5a0,0,0,0,1,0,0V17A1,1,0,0,1,7.5,16Z" fill="none" stroke="#323232" stroke-linecap="round" stroke-linejoin="round" stroke-width="1.5"/><path d="M14.41421,11.74754,12.25245,9.58578A2,2,0,0,0,10.83824,9H5a2,2,0,0,0-2,2v8a2,2,0,0,0,2,2h8a2,2,0,0,0,2-2V13.16176A2,2,0,0,0,14.41421,11.74754Z" fill="none" stroke="#323232" stroke-linecap="round" stroke-linejoin="round" stroke-width="1.5"/><path d="M0,0H24V24H0Z" fill="none"/></g></svg>