<svg id="Layer_3" data-name="Layer 3" xmlns="http://www.w3.org/2000/svg" viewBox="0 0 24 24"><rect width="24" height="24" fill="none"/><path d="M10.55556,13h2.88889A.55556.55556,0,0,1,14,13.55556V17a0,0,0,0,1,0,0H10a0,0,0,0,1,0,0V13.55556A.55556.55556,0,0,1,10.55556,13Z" fill="none" stroke="#323232" stroke-linecap="round" stroke-linejoin="round" stroke-width="1.5"/><path d="M16.56066,9.33844l-1.8991-1.8991A1.5,1.5,0,0,0,13.6009,7H8.5A1.5,1.5,0,0,0,7,8.5v7A1.5,1.5,0,0,0,8.5,17h7A1.5,1.5,0,0,0,17,15.5V10.3991A1.5,1.5,0,0,0,16.56066,9.33844Z" fill="none" stroke="#323232" stroke-linecap="round" stroke-linejoin="round" stroke-width="1.5"/><rect x="3" y="3" width="18" height="18" rx="5" stroke-width="1.5" stroke="#323232" stroke-linecap="round" stroke-linejoin="round" fill="none"/></svg>