<svg id="Layer_3" data-name="Layer 3" xmlns="http://www.w3.org/2000/svg" viewBox="0 0 24 24"><rect width="24" height="24" fill="none"/><path d="M11,12.9h2a.5.5,0,0,1,.5.5v3.1a0,0,0,0,1,0,0h-3a0,0,0,0,1,0,0V13.4A.5.5,0,0,1,11,12.9Z" fill="none" stroke="#323232" stroke-linecap="round" stroke-linejoin="round" stroke-width="1.5"/><path d="M16.06066,9.56066,14.43934,7.93934A1.5,1.5,0,0,0,13.37868,7.5H9A1.5,1.5,0,0,0,7.5,9v6A1.5,1.5,0,0,0,9,16.5h6A1.5,1.5,0,0,0,16.5,15V10.62132A1.5,1.5,0,0,0,16.06066,9.56066Z" fill="none" stroke="#323232" stroke-linecap="round" stroke-linejoin="round" stroke-width="1.5"/><path d="M12,21a9,9,0,1,0-9-9A9,9,0,0,0,12,21Z" fill="none" stroke="#323232" stroke-linecap="round" stroke-linejoin="round" stroke-width="1.5"/></svg>