<?xml version="1.0" encoding="UTF-8"?><svg version="1.1" viewBox="0 0 24 24" xmlns="http://www.w3.org/2000/svg" xmlns:xlink="http://www.w3.org/1999/xlink"><g stroke-linecap="round" stroke-width="1.5" stroke="#323232" fill="none" stroke-linejoin="round"><rect width="18" height="18" x="3" y="3" rx="2.20912" ry="0"></rect><path d="M17 10.333v-1.111 1.77636e-15c0-1.22718-.994823-2.222-2.222-2.222 0 0 0 0 0 0h-.778"></path><path d="M7 14v.778l2.66454e-14 3.35513e-07c1.85299e-07 1.22718.994824 2.222 2.222 2.222h.778"></path><path d="M14 17h.778 -9.71267e-08c1.22718 5.36416e-08 2.222-.994823 2.222-2.222 0 0 0 0 0 0v-.778"></path><path d="M10 7h-.778l-9.71267e-08 3.55271e-15c-1.22718 5.36416e-08-2.222.994823-2.222 2.222 0 0 0 1.77636e-15 0 1.77636e-15v1.111"></path></g><rect width="24" height="24" fill="none"></rect></svg>