<svg id="Layer_3" data-name="Layer 3" xmlns="http://www.w3.org/2000/svg" viewBox="0 0 24 24"><path d="M0,0H24V24H0Z" fill="none"/><path d="M19,6.94H12.529a.99981.99981,0,0,1-.827-.438L10.297,4.437A.99961.99961,0,0,0,9.471,4H5A1.99945,1.99945,0,0,0,3,6V18a1.99945,1.99945,0,0,0,2,2H19a1.99945,1.99945,0,0,0,2-2V8.94A2.00009,2.00009,0,0,0,19,6.94Z" fill="none" stroke="#323232" stroke-linecap="round" stroke-linejoin="round" stroke-width="1.5"/><line x1="17.00001" y1="10.50001" x2="15.00003" y2="10.50001" fill="none" stroke="#323232" stroke-linecap="round" stroke-linejoin="round" stroke-width="1.5"/><line x1="17.00001" y1="13.50001" x2="15.00003" y2="13.50001" fill="none" stroke="#323232" stroke-linecap="round" stroke-linejoin="round" stroke-width="1.5"/><line x1="17.00001" y1="16.50003" x2="15.00003" y2="16.50003" fill="none" stroke="#323232" stroke-linecap="round" stroke-linejoin="round" stroke-width="1.5"/></svg>