<svg id="Layer_3" data-name="Layer 3" xmlns="http://www.w3.org/2000/svg" viewBox="0 0 24 24"><path d="M0,0H24V24H0Z" fill="none"/><rect x="3" y="14" width="7" height="7" rx="1.61538" stroke-width="1.5" stroke="#323232" stroke-linecap="round" stroke-linejoin="round" fill="none"/><path d="M10,16.336l2.00893-1.23831A.65.65,0,0,1,13,15.651V19.349a.65.65,0,0,1-.99108.55333L10,18.664" fill="none" stroke="#323232" stroke-linecap="round" stroke-linejoin="round" stroke-width="1.5"/><path d="M16,19h3a2,2,0,0,0,2-2V7.94a2,2,0,0,0-2-2H12.52914a1,1,0,0,1-.82678-.43747l-1.405-2.06506A1,1,0,0,0,9.47054,3H5A2,2,0,0,0,3,5v6" fill="none" stroke="#323232" stroke-linecap="round" stroke-linejoin="round" stroke-width="1.5"/></svg>