<?xml version="1.0" encoding="UTF-8"?><svg version="1.1" viewBox="0 0 24 24" xmlns="http://www.w3.org/2000/svg" xmlns:xlink="http://www.w3.org/1999/xlink"><g fill="none"><path d="M24 24h-24v-24h24Z"></path><path stroke="#323232" stroke-linecap="round" stroke-linejoin="round" stroke-width="1.5" d="M17.5 5.5l-1.5-1.5 1.5-1.5"></path><path stroke="#323232" stroke-linecap="round" stroke-linejoin="round" stroke-width="1.5" d="M21 7v0c0-1.65685-1.34315-3-3-3h-2"></path><path stroke="#323232" stroke-linecap="round" stroke-linejoin="round" stroke-width="1.5" d="M6.5 18.5l1.5 1.5 -1.5 1.5"></path><path stroke="#323232" stroke-linecap="round" stroke-linejoin="round" stroke-width="1.5" d="M3 17l3.41949e-14 4.52987e-07c2.50178e-07 1.65685 1.34315 3 3 3h2"></path><path stroke="#323232" stroke-linecap="round" stroke-linejoin="round" stroke-width="1.5" d="M13.222 14.637v6.363l1.06581e-14 1.50996e-07c8.33927e-08.552285.447715 1 1 1h5.778 -4.37114e-08c.552285 2.41411e-08 1-.447715 1-1v-8 0c0-.552285-.447715-1-1-1h-4.141l2.1502e-08-4.59188e-12c-.265195 5.66317e-05-.519507.105451-.707.293l-1.637 1.637 8.42765e-08-8.4251e-08c-.187549.187493-.292943.441805-.293.707Z"></path><path stroke="#323232" stroke-linecap="round" stroke-linejoin="round" stroke-width="1.5" d="M10.5 3.633h-2.971l3.75316e-08-1.97894e-10c-.330961.00174508-.641347-.160375-.829-.433l-.516-.757 4.71149e-08 7.02533e-08c-.184598-.275255-.493581-.44117-.825-.443h-1.859l-6.55671e-08 1.77636e-15c-.828427 3.62117e-08-1.5.671573-1.5 1.5v6l1.59872e-14 1.60927e-07c1.25089e-07.828427.671573 1.5 1.5 1.5h7l-4.76798e-08 5.32907e-15c.828427-6.25445e-08 1.5-.671573 1.5-1.5v-4.367 0c0-.828427-.671573-1.5-1.5-1.5Z"></path></g></svg>