<svg id="Layer_3" data-name="Layer 3" xmlns="http://www.w3.org/2000/svg" viewBox="0 0 24 24"><line x1="12" y1="15" x2="12" y2="21" fill="none" stroke="#323232" stroke-linecap="round" stroke-linejoin="round" stroke-width="1.5"/><polyline points="10 19 12 21 14 19" fill="none" stroke="#323232" stroke-linecap="round" stroke-linejoin="round" stroke-width="1.5"/><path d="M17,20h2a1.99945,1.99945,0,0,0,2-2V8.94a2.00009,2.00009,0,0,0-2-2H12.529a.99981.99981,0,0,1-.827-.438L10.297,4.437A.99961.99961,0,0,0,9.471,4H5A1.99945,1.99945,0,0,0,3,6V18a1.99945,1.99945,0,0,0,2,2H7" fill="none" stroke="#323232" stroke-linecap="round" stroke-linejoin="round" stroke-width="1.5"/><path d="M0,0H24V24H0Z" fill="none"/></svg>