<svg id="Layer_3" data-name="Layer 3" xmlns="http://www.w3.org/2000/svg" viewBox="0 0 24 24"><path d="M14.5,8.47H11l-.70137-1.03207A1,1,0,0,0,9.47154,7H7.5a1,1,0,0,0-1,1v6a1,1,0,0,0,1,1h7a1,1,0,0,0,1-1V9.47A1,1,0,0,0,14.5,8.47Z" fill="none" stroke="#323232" stroke-linecap="round" stroke-linejoin="round" stroke-width="1.5"/><path d="M16.2929,18.13556l2.84271-2.84267a1,1,0,0,1,1.41421,0l1.15729,1.15729a1,1,0,0,1,0,1.41422l-2.84269,2.84269A1,1,0,0,1,18.15732,21H16.5a.5.5,0,0,1-.5-.5v-1.6573A1.00005,1.00005,0,0,1,16.2929,18.13556Z" fill="none" stroke="#323232" stroke-linecap="round" stroke-linejoin="round" stroke-width="1.5"/><path d="M20,11a9.0278,9.0278,0,1,0-8,8.94135" fill="none" stroke="#323232" stroke-linecap="round" stroke-linejoin="round" stroke-width="1.5"/><path d="M0,0H24V24H0Z" fill="none"/></svg>