<?xml version="1.0" encoding="UTF-8"?><svg version="1.1" viewBox="0 0 24 24" xmlns="http://www.w3.org/2000/svg" xmlns:xlink="http://www.w3.org/1999/xlink"><g stroke-linecap="round" stroke-width="1.5" stroke="#323232" fill="none" stroke-linejoin="round"><path d="M15.146 6.94h-2.617c-.331 0-.641-.164-.827-.438l-1.405-2.065c-.186-.273-.495-.437-.826-.437h-4.471c-1.105 0-2 .895-2 2v12c0 1.105.895 2 2 2h14c1.105 0 2-.895 2-2v-6.537"></path><path d="M19 4c-2.209 0-4 1.791-4 4 0 2.209 1.791 4 4 4 2.21 0 4-1.791 4-4 0-2.209-1.79-4-4-4"></path><path d="M20.383 7.309l-1.729 1.729 -1.037-1.038"></path></g><path fill="none" d="M0 0h24v24h-24v-24Z"></path></svg>