<svg id="Layer_3" data-name="Layer 3" xmlns="http://www.w3.org/2000/svg" viewBox="0 0 24 24"><path d="M0,0H24V24H0Z" fill="none"/><rect x="3" y="11.99999" width="9" height="9" rx="2.5" stroke-width="1.5" stroke="#323232" stroke-linecap="round" stroke-linejoin="round" fill="none"/><path d="M15,20h4a2,2,0,0,0,2-2V8.94a2,2,0,0,0-2-2H12.52914a1,1,0,0,1-.82678-.43747l-1.405-2.06506A1,1,0,0,0,9.47054,4H5A2,2,0,0,0,3,6V9" fill="none" stroke="#323232" stroke-linecap="round" stroke-linejoin="round" stroke-width="1.5"/><line x1="6" y1="15" x2="9" y2="15" fill="none" stroke="#323232" stroke-linecap="round" stroke-linejoin="round" stroke-width="1.5"/><line x1="7.5" y1="15" x2="7.5" y2="18" fill="none" stroke="#323232" stroke-linecap="round" stroke-linejoin="round" stroke-width="1.5"/></svg>