<?xml version="1.0" encoding="UTF-8"?><svg version="1.1" viewBox="0 0 24 24" xmlns="http://www.w3.org/2000/svg" xmlns:xlink="http://www.w3.org/1999/xlink"><defs><path d="M0 0h24v24h-24Z" id="a"></path></defs><g fill="none"><use xlink:href="#a"></use><path stroke="#323232" stroke-linecap="round" stroke-linejoin="round" stroke-width="1.5" d="M19 10h-6.465l3.77439e-08-5.64881e-12c-.334279 5.00359e-05-.646475-.16693-.832-.445l-1.403-2.109 -3.10958e-08-4.67292e-08c-.185884-.279337-.499469-.446833-.835-.446h-4.465l-8.74228e-08 1.77636e-15c-1.10457 4.82823e-08-2 .895431-2 2v10l2.30926e-14 3.01992e-07c1.66785e-07 1.10457.895431 2 2 2h14l-8.74228e-08-3.55271e-15c1.10457 4.82823e-08 2-.89543 2-2v-7h3.55271e-15c0-1.10457-.895431-2-2-2Z"></path><path stroke="#323232" stroke-linecap="round" stroke-linejoin="round" stroke-width="1.5" d="M5 7v-2l2.30926e-14 3.01992e-07c-1.66785e-07-1.10457.89543-2 2-2h10l-8.74228e-08 1.77636e-15c1.10457-4.82823e-08 2 .89543 2 2v5"></path><use xlink:href="#a"></use></g></svg>