<svg id="Layer_3" data-name="Layer 3" xmlns="http://www.w3.org/2000/svg" viewBox="0 0 24 24"><path d="M16.75,5.205H12.529a.99981.99981,0,0,1-.827-.438l-.905-1.33A.99961.99961,0,0,0,9.971,3H7.25a1.99945,1.99945,0,0,0-2,2v8a1.99945,1.99945,0,0,0,2,2h9.5a1.99945,1.99945,0,0,0,2-2V7.205A2.00009,2.00009,0,0,0,16.75,5.205Z" fill="none" stroke="#323232" stroke-linecap="round" stroke-linejoin="round" stroke-width="1.5"/><path d="M12,15.02v1.5" fill="none" stroke="#323232" stroke-linecap="round" stroke-linejoin="round" stroke-width="1.5"/><path d="M12,15.02v1.5" fill="none" stroke="#323232" stroke-linecap="round" stroke-linejoin="round" stroke-width="1.5"/><path d="M16,20h4" fill="none" stroke="#323232" stroke-linecap="round" stroke-linejoin="round" stroke-width="1.5"/><path d="M13.75,19.0625l-1.875,1.875-1.125-1.125" fill="none" stroke="#323232" stroke-linecap="round" stroke-linejoin="round" stroke-width="1.5"/><path d="M4,20H8" fill="none" stroke="#323232" stroke-linecap="round" stroke-linejoin="round" stroke-width="1.5"/><path d="M0,0H24V24H0Z" fill="none"/></svg>