<?xml version="1.0" encoding="UTF-8"?><svg version="1.1" viewBox="0 0 24 24" xmlns="http://www.w3.org/2000/svg" xmlns:xlink="http://www.w3.org/1999/xlink"><g stroke-linecap="round" stroke-width="1.5" stroke="#323232" fill="none" stroke-linejoin="round"><path d="M10 21h-5l-8.74228e-08-3.55271e-15c-1.10457-4.82823e-08-2-.895431-2-2 0 0 0 0 0 0v-14l2.30926e-14 3.01992e-07c-1.66785e-07-1.10457.89543-2 2-2h5l-8.74228e-08 1.77636e-15c1.10457-4.82823e-08 2 .89543 2 2v14 2.13163e-14c0 1.10457-.89543 2-2 2Z"></path><path d="M8.561 15.439l-3.3667e-08-3.36886e-08c.585599.585974.585294 1.53572-.000679698 2.12132 -.585974.585599-1.53572.585294-2.12132-.000679698 -.585333-.585709-.585333-1.53493-6.73341e-08-2.12064l4.17091e-09-4.17358e-09c.585599-.585974 1.53535-.586278 2.12132-.000679757 .000226661.000226516.00045325.000453104.000679765.000679765"></path><path d="M9 12h-3"></path><path d="M9 9h-3"></path><path d="M19 21h-5l-8.74228e-08-3.55271e-15c-1.10457-4.82823e-08-2-.895431-2-2 0 0 0 0 0 0v-14l2.30926e-14 3.01992e-07c-1.66785e-07-1.10457.89543-2 2-2h5l-8.74228e-08 1.77636e-15c1.10457-4.82823e-08 2 .89543 2 2v14l-3.55271e-15 2.13163e-14c0 1.10457-.89543 2-2 2Z"></path><path d="M17.561 15.439l-3.3667e-08-3.36886e-08c.585599.585974.585294 1.53572-.000679698 2.12132 -.585974.585599-1.53572.585294-2.12132-.000679698 -.585333-.585709-.585333-1.53493-6.73341e-08-2.12064l4.17091e-09-4.17358e-09c.585599-.585974 1.53535-.586278 2.12132-.000679757 .000226661.000226516.00045325.000453104.000679765.000679765"></path><path d="M18 12h-3"></path><path d="M18 9h-3"></path></g><path fill="none" d="M0 0h24v24h-24Z"></path></svg>