<?xml version="1.0" encoding="UTF-8"?><svg version="1.1" viewBox="0 0 24 24" xmlns="http://www.w3.org/2000/svg" xmlns:xlink="http://www.w3.org/1999/xlink"><!--Generated by IJSVG (https://github.com/iconjar/IJSVG)--><g stroke-linecap="round" stroke-width="1.5" stroke="#323232" fill="none" stroke-linejoin="round"><path d="M19,6.94h-6.471c-0.331,0 -0.641,-0.164 -0.827,-0.438l-1.405,-2.065c-0.186,-0.273 -0.495,-0.437 -0.826,-0.437h-4.471c-1.105,0 -2,0.895 -2,2v12c0,1.105 0.895,2 2,2h14c1.105,0 2,-0.895 2,-2v-9.06c0,-1.104 -0.895,-2 -2,-2Z"></path><path d="M13.4193,11.4597c0.94624,0.94624 0.94624,2.4804 0,3.42664c-0.94624,0.94624 -2.4804,0.94624 -3.42664,0c-0.94624,-0.94624 -0.94624,-2.4804 0,-3.42664c0.94624,-0.94624 2.4804,-0.94624 3.42664,0"></path><path d="M14.78,16.25l-1.36,-1.36"></path></g><path fill="none" d="M0,0h24v24h-24v-24Z"></path></svg>