<svg id="Layer_3" data-name="Layer 3" xmlns="http://www.w3.org/2000/svg" viewBox="0 0 24 24"><path d="M0,24V0H24V24Z" fill="none"/><line x1="4.5" y1="9" x2="3" y2="9" fill="none" stroke="#323232" stroke-linecap="round" stroke-linejoin="round" stroke-width="1.5"/><line x1="4.5" y1="15" x2="3" y2="15" fill="none" stroke="#323232" stroke-linecap="round" stroke-linejoin="round" stroke-width="1.5"/><line x1="4" y1="12" x2="2" y2="12" fill="none" stroke="#323232" stroke-linecap="round" stroke-linejoin="round" stroke-width="1.5"/><path d="M5.28249,5.28249a9.5,9.5,0,1,1,0,13.435" fill="none" stroke="#323232" stroke-linecap="round" stroke-linejoin="round" stroke-width="1.5"/><path d="M15.5,9.47H12l-.70137-1.03207A1,1,0,0,0,10.47154,8H8.5a1,1,0,0,0-1,1v6a1,1,0,0,0,1,1h7a1,1,0,0,0,1-1V10.47A1,1,0,0,0,15.5,9.47Z" fill="none" stroke="#323232" stroke-linecap="round" stroke-linejoin="round" stroke-width="1.5"/></svg>