<?xml version="1.0" encoding="UTF-8"?><svg version="1.1" viewBox="0 0 24 24" xmlns="http://www.w3.org/2000/svg" xmlns:xlink="http://www.w3.org/1999/xlink"><g fill="none"><path d="M0 0h24v24h-24Z"></path><path stroke="#323232" stroke-linecap="round" stroke-linejoin="round" stroke-width="1.5" d="M16 3h3.286l-7.49213e-08 1.33227e-15c.946616-4.13779e-08 1.714.767384 1.714 1.714v3.286"></path><path stroke="#323232" stroke-linecap="round" stroke-linejoin="round" stroke-width="1.5" d="M8 21h-3l-8.74228e-08-3.55271e-15c-1.10457-4.82823e-08-2-.895431-2-2 0 0 0 0 0 0v-3"></path><path stroke="#323232" stroke-linecap="round" stroke-linejoin="round" stroke-width="1.5" d="M20.5 14.633h-2.971l3.75316e-08-1.97895e-10c-.330961.00174508-.641347-.160375-.829-.433l-.516-.757 4.71149e-08 7.02533e-08c-.184598-.275255-.493581-.44117-.825-.443h-1.859 -6.55671e-08c-.828427 3.62117e-08-1.5.671573-1.5 1.5v6l1.59872e-14 1.60927e-07c1.25089e-07.828427.671573 1.5 1.5 1.5h7l-4.76798e-08 3.55271e-15c.828427-6.25445e-08 1.5-.671573 1.5-1.5v-4.367 -3.55271e-15c0-.828427-.671573-1.5-1.5-1.5 0 0-3.55271e-15 0-3.55271e-15 0Z"></path><path stroke="#323232" stroke-linecap="round" stroke-linejoin="round" stroke-width="1.5" d="M10.5 3.633h-2.971l3.75316e-08-1.97894e-10c-.330961.00174508-.641347-.160375-.829-.433l-.516-.757 4.71149e-08 7.02533e-08c-.184598-.275255-.493581-.44117-.825-.443h-1.859l-6.55671e-08 1.77636e-15c-.828427 3.62117e-08-1.5.671573-1.5 1.5v6l1.59872e-14 1.60927e-07c1.25089e-07.828427.671573 1.5 1.5 1.5h7l-4.76798e-08 5.32907e-15c.828427-6.25445e-08 1.5-.671573 1.5-1.5v-4.367 0c0-.828427-.671573-1.5-1.5-1.5Z"></path></g></svg>