<svg id="Layer_3" data-name="Layer 3" xmlns="http://www.w3.org/2000/svg" viewBox="0 0 24 24"><path d="M20,16v3a2,2,0,0,1-2,2H17" fill="none" stroke="#323232" stroke-linecap="round" stroke-linejoin="round" stroke-width="1.5"/><path d="M4,8V5A2,2,0,0,1,6,3H7" fill="none" stroke="#323232" stroke-linecap="round" stroke-linejoin="round" stroke-width="1.5"/><line x1="18.5" y1="17.5" x2="20" y2="16" fill="none" stroke="#323232" stroke-linecap="round" stroke-linejoin="round" stroke-width="1.5"/><line x1="21.5" y1="17.5" x2="20" y2="16" fill="none" stroke="#323232" stroke-linecap="round" stroke-linejoin="round" stroke-width="1.5"/><line x1="5.5" y1="6.5" x2="4" y2="8" fill="none" stroke="#323232" stroke-linecap="round" stroke-linejoin="round" stroke-width="1.5"/><line x1="2.5" y1="6.5" x2="4" y2="8" fill="none" stroke="#323232" stroke-linecap="round" stroke-linejoin="round" stroke-width="1.5"/><path d="M17,13h2.3698A1.63022,1.63022,0,0,0,21,11.3698V7a2,2,0,0,0-2-2H16.16709a1,1,0,0,1-.82685-.43758l-.76513-1.12484A1,1,0,0,0,13.74826,3H11.6291A1.6291,1.6291,0,0,0,10,4.6291V9" fill="none" stroke="#323232" stroke-linecap="round" stroke-linejoin="round" stroke-width="1.5"/><path d="M5,21h7.3698A1.63022,1.63022,0,0,0,14,19.3698V15a2,2,0,0,0-2-2H9.16709a1,1,0,0,1-.82685-.43758l-.76513-1.12484A1,1,0,0,0,6.74826,11H4.6291A1.6291,1.6291,0,0,0,3,12.6291V19A2,2,0,0,0,5,21Z" fill="none" stroke="#323232" stroke-linecap="round" stroke-linejoin="round" stroke-width="1.5"/><rect width="24" height="24" fill="none"/></svg>