<svg id="Layer_3" data-name="Layer 3" xmlns="http://www.w3.org/2000/svg" viewBox="0 0 24 24"><path d="M0,0H24V24H0Z" fill="none"/><path d="M20,8.94a2,2,0,0,0-2-2H12.52914a1,1,0,0,1-.82678-.43747l-1.405-2.06506A1,1,0,0,0,9.47054,4H5A2,2,0,0,0,3,6" fill="none" stroke="#323232" stroke-linecap="round" stroke-linejoin="round" stroke-width="1.5"/><path d="M20,8.94v9.39534A1.66466,1.66466,0,0,1,18.33534,20h0a1.66467,1.66467,0,0,1-1.625-1.30354L15.348,12.56614A2,2,0,0,0,13.39566,11H4.00081a2,2,0,0,0-1.95237,2.43386l1.11111,5A2,2,0,0,0,5.11192,20H18.33534" fill="none" stroke="#323232" stroke-linecap="round" stroke-linejoin="round" stroke-width="1.5"/><line x1="3" y1="11.27207" x2="3" y2="6" fill="none" stroke="#323232" stroke-linecap="round" stroke-linejoin="round" stroke-width="1.5"/></svg>