<svg id="Layer_3" data-name="Layer 3" xmlns="http://www.w3.org/2000/svg" viewBox="0 0 24 24"><path d="M19,9H12.535a1,1,0,0,1-.832-.445L10.297,6.446A.99977.99977,0,0,0,9.465,6H5A1.99945,1.99945,0,0,0,3,8V19a1.99945,1.99945,0,0,0,2,2H19a1.99945,1.99945,0,0,0,2-2V11A1.99945,1.99945,0,0,0,19,9Z" fill="none" stroke="#323232" stroke-linecap="round" stroke-linejoin="round" stroke-width="1.5"/><path d="M5,6V5A1.99945,1.99945,0,0,1,7,3H17a1.99945,1.99945,0,0,1,2,2V9" fill="none" stroke="#323232" stroke-linecap="round" stroke-linejoin="round" stroke-width="1.5"/><line x1="12" y1="13" x2="12" y2="17" fill="none" stroke="#323232" stroke-linecap="round" stroke-linejoin="round" stroke-width="1.5"/><line x1="14" y1="15" x2="10" y2="15" fill="none" stroke="#323232" stroke-linecap="round" stroke-linejoin="round" stroke-width="1.5"/><path d="M0,0H24V24H0Z" fill="none"/></svg>