<?xml version="1.0" encoding="UTF-8"?><svg version="1.1" viewBox="0 0 24 24" xmlns="http://www.w3.org/2000/svg" xmlns:xlink="http://www.w3.org/1999/xlink"><g fill="none"><path d="M0 0h24v24h-24Z"></path><path stroke="#323232" stroke-linecap="round" stroke-linejoin="round" stroke-width="1.5" d="M7.881 14.314v1.953l1.536.937"></path><path stroke="#323232" stroke-linecap="round" stroke-linejoin="round" stroke-width="1.5" d="M10 21h-4l-1.31134e-07-3.55271e-15c-1.65685-7.24234e-08-3-1.34315-3-3 0 0 0-3.55271e-15 0-3.55271e-15v-4l3.37508e-14 4.52987e-07c-2.50178e-07-1.65685 1.34315-3 3-3h4l-1.31134e-07 3.55271e-15c1.65685-7.24234e-08 3 1.34315 3 3v4l1.77636e-15 1.31134e-07c0 1.65685-1.34315 3-3 3Z"></path><path stroke="#323232" stroke-linecap="round" stroke-linejoin="round" stroke-width="1.5" d="M16 19h3l-8.74228e-08-3.55271e-15c1.10457 4.82823e-08 2-.89543 2-2v-9.06 -8.88178e-16c0-1.10457-.895431-2-2-2h-6.471l5.06946e-09-2.57128e-12c-.332272.000168565-.642928-.164715-.829-.44l-1.4-2.063 -1.47521e-09-2.16556e-09c-.186752-.274145-.497291-.437843-.829-.437h-4.471l-8.74228e-08 1.77636e-15c-1.10457 4.82823e-08-2 .895431-2 2v4"></path></g></svg>