<svg id="Layer_3" data-name="Layer 3" xmlns="http://www.w3.org/2000/svg" viewBox="0 0 24 24"><path d="M0,24H24V0H0" fill="none"/><path d="M3,8V6A3,3,0,0,1,6,3H8" fill="none" stroke="#323232" stroke-linecap="round" stroke-linejoin="round" stroke-width="1.5"/><path d="M21,17v1a3,3,0,0,1-3,3H17" fill="none" stroke="#323232" stroke-linecap="round" stroke-linejoin="round" stroke-width="1.5"/><path d="M11,9V4.5A1.5,1.5,0,0,1,12.5,3h5.44314a2,2,0,0,1,1.41422.58579l1.02842,1.02842a2,2,0,0,1,.58579,1.41422V12.5a1.5,1.5,0,0,1-1.5,1.5H17" fill="none" stroke="#323232" stroke-linecap="round" stroke-linejoin="round" stroke-width="1.5"/><path d="M4.6291,11H6.47079a1,1,0,0,1,.82685.43758l.91395,1.34363A.5.5,0,0,0,8.625,13H12.3709A1.6291,1.6291,0,0,1,14,14.6291v4.7418A1.6291,1.6291,0,0,1,12.3709,21H4.6291A1.6291,1.6291,0,0,1,3,19.3709V12.6291A1.6291,1.6291,0,0,1,4.6291,11Z" fill="none" stroke="#323232" stroke-linecap="round" stroke-linejoin="round" stroke-width="1.5"/></svg>