<svg id="Layer_3" data-name="Layer 3" xmlns="http://www.w3.org/2000/svg" viewBox="0 0 24 24"><path d="M24,24H0V0H24Z" fill="none"/><path d="M4.6291,11H6.47079a1,1,0,0,1,.82685.43758l.91395,1.34363A.5.5,0,0,0,8.625,13H12.3709A1.6291,1.6291,0,0,1,14,14.6291v4.7418A1.6291,1.6291,0,0,1,12.3709,21H4.6291A1.6291,1.6291,0,0,1,3,19.3709V12.6291A1.6291,1.6291,0,0,1,4.6291,11Z" fill="none" stroke="#323232" stroke-linecap="round" stroke-linejoin="round" stroke-width="1.5"/><path d="M10,9V4.6291A1.6291,1.6291,0,0,1,11.6291,3h1.84169a1,1,0,0,1,.82685.43758l.91395,1.34363A.5.5,0,0,0,15.625,5H19.3709A1.6291,1.6291,0,0,1,21,6.6291v4.7418A1.6291,1.6291,0,0,1,19.3709,13H17" fill="none" stroke="#323232" stroke-linecap="round" stroke-linejoin="round" stroke-width="1.5"/><line x1="19.5" y1="16.5" x2="19.5" y2="20.5" fill="none" stroke="#323232" stroke-linecap="round" stroke-linejoin="round" stroke-width="1.5"/><line x1="17.5" y1="18.49998" x2="19.5" y2="16.5" fill="none" stroke="#323232" stroke-linecap="round" stroke-linejoin="round" stroke-width="1.5"/><line x1="21.5" y1="18.49998" x2="19.5" y2="16.5" fill="none" stroke="#323232" stroke-linecap="round" stroke-linejoin="round" stroke-width="1.5"/></svg>