<svg id="Layer_3" data-name="Layer 3" xmlns="http://www.w3.org/2000/svg" viewBox="0 0 24 24"><path d="M24,0H0V24H24Z" fill="none"/><path d="M21,16v3a2,2,0,0,1-2,2H17" fill="none" stroke="#323232" stroke-linecap="round" stroke-linejoin="round" stroke-width="1.5"/><path d="M3,9V5A2,2,0,0,1,5,3H7" fill="none" stroke="#323232" stroke-linecap="round" stroke-linejoin="round" stroke-width="1.5"/><path d="M13,21a2.5,2.5,0,0,0-2.5-2.5h-5A2.5,2.5,0,0,0,3,21" fill="none" stroke="#323232" stroke-linecap="round" stroke-linejoin="round" stroke-width="1.5"/><circle cx="8" cy="13.5" r="2.5" fill="none" stroke="#323232" stroke-linecap="round" stroke-linejoin="round" stroke-width="1.5"/><path d="M14,13h5.3698A1.63022,1.63022,0,0,0,21,11.3698V7a2,2,0,0,0-2-2H16.16709a1,1,0,0,1-.82685-.43758l-.76513-1.12484A1,1,0,0,0,13.74826,3H11.6291A1.6291,1.6291,0,0,0,10,4.6291V8" fill="none" stroke="#323232" stroke-linecap="round" stroke-linejoin="round" stroke-width="1.5"/></svg>