<svg id="Layer_3" data-name="Layer 3" xmlns="http://www.w3.org/2000/svg" viewBox="0 0 24 24"><path d="M0,0H24V24H0Z" fill="none"/><path d="M19,11H12.80244a1.5,1.5,0,0,1-1.24807-.66795L10.445,8.668A1.5,1.5,0,0,0,9.19689,8H5a2,2,0,0,0-2,2v9a2,2,0,0,0,2,2H19a2,2,0,0,0,2-2V13A2,2,0,0,0,19,11Z" fill="none" stroke="#323232" stroke-linecap="round" stroke-linejoin="round" stroke-width="1.5"/><path d="M19,11V7.82064a2.625,2.625,0,0,0-.76884-1.85615L16.03551,3.76884A2.625,2.625,0,0,0,14.17936,3H7A2,2,0,0,0,5,5V8" fill="none" stroke="#323232" stroke-linecap="round" stroke-linejoin="round" stroke-width="1.5" fill-rule="evenodd"/></svg>