<svg xmlns="http://www.w3.org/2000/svg" viewBox="0 0 24 24"><g id="Layer_2" data-name="Layer 2"><rect width="24" height="24" fill="none"/><path d="M5.5,8.12822H6.67778a1,1,0,0,0,.60038-.20028l2.1672-1.627a1.5,1.5,0,0,1,2.29328.6425l.14312.3578a8,8,0,0,0,3.8501,4.18429l.32411.16205a7.99953,7.99953,0,0,0,2.00268.688l2.32815.46751a2,2,0,0,1,1.60607,1.93419L22,15.98865A2,2,0,0,1,20,18H4a2,2,0,0,1-2-2V8.62822a1.5,1.5,0,0,1,2.7-.9h0A1,1,0,0,0,5.5,8.12822Z" fill="none" stroke="#323232" stroke-linecap="round" stroke-linejoin="round" stroke-width="1.5"/><line x1="22" y1="15.5" x2="2" y2="15.5" fill="none" stroke="#323232" stroke-linecap="round" stroke-linejoin="round" stroke-width="1.5"/></g></svg>