<svg id="Layer_3" data-name="Layer 3" xmlns="http://www.w3.org/2000/svg" viewBox="0 0 24 24"><rect width="24" height="24" fill="none"/><path d="M10.58579,15.53553,5.56066,20.56066a1.5,1.5,0,0,1-2.12132,0h0a1.5,1.5,0,0,1,0-2.12132l5.02513-5.02513" fill="none" stroke="#323232" stroke-linecap="round" stroke-linejoin="round" stroke-width="1.5"/><path d="M17.30136,3,12.61348,7.68782a2.00009,2.00009,0,0,0,0,2.82843l.70716.70709a1.99989,1.99989,0,0,0,2.82837,0l4.68788-4.68782" fill="none" stroke="#323232" stroke-linecap="round" stroke-linejoin="round" stroke-width="1.5"/><path d="M16.21967,13.7019h3a0,0,0,0,1,0,0v6.53554a1.5,1.5,0,0,1-1.5,1.5h0a1.5,1.5,0,0,1-1.5-1.5V13.7019A0,0,0,0,1,16.21967,13.7019Z" transform="translate(-7.33973 17.71967) rotate(-45)" fill="none" stroke="#323232" stroke-linecap="round" stroke-linejoin="round" stroke-width="1.5"/><line x1="16.22703" y1="7.60986" x2="19.06912" y2="4.76776" fill="none" stroke="#323232" stroke-linecap="round" stroke-linejoin="round" stroke-width="1.5"/><path d="M15.08867,12.98359l.85067.83443L12.75736,17a.5.5,0,0,1-.70711,0l-3.6461-3.64611C5.15725,10.107,4.1044,5.8956,6.05254,3.94746h.01624l-.01461-.00163,9.87867,9.87868" fill="none" stroke="#323232" stroke-linecap="round" stroke-linejoin="round" stroke-width="1.5"/><line x1="17.99479" y1="9.37762" x2="14.45927" y2="5.84209" fill="none" stroke="#323232" stroke-linecap="round" stroke-linejoin="round" stroke-width="1.5"/></svg>