<?xml version="1.0" encoding="UTF-8"?><svg version="1.1" viewBox="0 0 24 24" xmlns="http://www.w3.org/2000/svg" xmlns:xlink="http://www.w3.org/1999/xlink"><!--Generated by IJSVG (https://github.com/iconjar/IJSVG)--><g stroke-linecap="round" stroke-width="1.5" stroke="#323232" fill="none" stroke-linejoin="round"><path d="M6,8v-3c0,-0.552 0.448,-1 1,-1h1c0.552,0 1,0.448 1,1v5.692"></path><path d="M9,6c0,-0.552 0.448,-1 1,-1h1c0.552,0 1,0.448 1,1"></path><path d="M12,11v-7c0,-0.552 0.448,-1 1,-1h1c0.552,0 1,0.448 1,1v1.153"></path><path d="M15,10.692v-5.692c0,-0.552 0.448,-1 1,-1h1c0.552,0 1,0.448 1,1v3"></path><path d="M9,16h6"></path><path d="M4.257,8h2.301c0.861,0 1.625,0.551 1.897,1.368l0.316,0.949c0.137,0.408 0.519,0.683 0.95,0.683h4.558c0.43,0 0.813,-0.275 0.949,-0.684l0.316,-0.949c0.272,-0.816 1.037,-1.367 1.898,-1.367h2.301c0.643,0 1.119,0.598 0.974,1.225l-2.36,10.225c-0.209,0.907 -1.017,1.55 -1.948,1.55h-8.818c-0.931,0 -1.739,-0.643 -1.949,-1.55l-2.359,-10.225c-0.145,-0.627 0.331,-1.225 0.974,-1.225Z"></path></g><path fill="none" d="M0,0h24v24h-24Z"></path></svg>