<svg xmlns="http://www.w3.org/2000/svg" viewBox="0 0 24 24"><g id="Layer_2" data-name="Layer 2"><rect width="24" height="24" fill="none"/><line x1="12" y1="13" x2="12" y2="10" fill="none" stroke="#323232" stroke-linecap="round" stroke-linejoin="round" stroke-width="1.5"/><circle cx="12" cy="8" r="2" fill="none" stroke="#323232" stroke-linecap="round" stroke-linejoin="round" stroke-width="1.5"/><rect x="3" y="3" width="18" height="18" rx="5" stroke-width="1.5" stroke="#323232" stroke-linecap="round" stroke-linejoin="round" fill="none"/><path d="M8.89612,12l-1.28858.54974A1,1,0,0,0,7,13.46954v.911a1,1,0,0,0,.60754.91974l3.60761,1.53931a2.00034,2.00034,0,0,0,1.5697,0l3.60761-1.53931A1,1,0,0,0,17,14.38055v-.911a1,1,0,0,0-.60754-.9198L15.10388,12" fill="none" stroke="#323232" stroke-linecap="round" stroke-linejoin="round" stroke-width="1.5"/></g></svg>