<svg id="Layer_3" data-name="Layer 3" xmlns="http://www.w3.org/2000/svg" viewBox="0 0 24 24"><path d="M24,24H0V0H24Z" fill="none"/><rect x="10.5" y="6.50001" width="7" height="2.99999" rx="1.49999" stroke-width="1.5" stroke="#323232" stroke-linecap="round" stroke-linejoin="round" fill="none"/><path d="M16.5,3H10.65685A4,4,0,0,0,7.82843,4.17157L5.17157,6.82843A4,4,0,0,0,4,9.65685V19a3,3,0,0,0,3,3H18a3,3,0,0,0,3-3V7.5A4.5,4.5,0,0,0,16.5,3Z" fill="none" stroke="#323232" stroke-linecap="round" stroke-linejoin="round" stroke-width="1.5"/><line x1="8" y1="18" x2="16" y2="18" fill="none" stroke="#323232" stroke-linecap="round" stroke-linejoin="round" stroke-width="1.5"/><line x1="8" y1="15" x2="11" y2="15" fill="none" stroke="#323232" stroke-linecap="round" stroke-linejoin="round" stroke-width="1.5"/><path d="M5.09941,6.90568,3.7906,5.59687a.99216.99216,0,0,1,0-1.40314L5.19373,2.7906a.99216.99216,0,0,1,1.40314,0L7.90313,4.09687" fill="none" stroke="#323232" stroke-linecap="round" stroke-linejoin="round" stroke-width="1.5"/></svg>