<?xml version="1.0" encoding="UTF-8"?><svg version="1.1" viewBox="0 0 24 24" xmlns="http://www.w3.org/2000/svg" xmlns:xlink="http://www.w3.org/1999/xlink"><!--Generated by IJSVG (https://github.com/iconjar/IJSVG)--><g fill="none"><path d="M0,0h24v24h-24Z"></path><path stroke="#323232" stroke-linecap="round" stroke-linejoin="round" stroke-width="1.5" d="M12,21v0c-4.971,0 -9,-4.029 -9,-9v0c0,-4.971 4.029,-9 9,-9v0c4.971,0 9,4.029 9,9v0c0,4.971 -4.029,9 -9,9Z"></path><path stroke="#323232" stroke-linecap="round" stroke-linejoin="round" stroke-width="1.5" d="M12,21v0c-3.314,0 -6,-2.686 -6,-6v0c0,-3.314 2.686,-6 6,-6v0c3.314,0 6,2.686 6,6v0c0,3.314 -2.686,6 -6,6Z"></path><path stroke="#323232" stroke-linecap="round" stroke-linejoin="round" stroke-width="1.5" d="M12,21v0c-1.933,0 -3.5,-1.567 -3.5,-3.5v0c0,-1.933 1.567,-3.5 3.5,-3.5v0c1.933,0 3.5,1.567 3.5,3.5v0c0,1.933 -1.567,3.5 -3.5,3.5Z"></path></g></svg>