<?xml version="1.0" encoding="UTF-8"?><svg version="1.1" viewBox="0 0 24 24" xmlns="http://www.w3.org/2000/svg" xmlns:xlink="http://www.w3.org/1999/xlink"><g fill="none"><path d="M24 0v24h-24v-24Z"></path><path stroke="#323232" stroke-linecap="round" stroke-linejoin="round" stroke-width="1.5" d="M15.25 16h-6.5l-4.37114e-08-1.77636e-15c-.552285-2.41411e-08-1-.447715-1-1 0 0 0 0 0 0v-3.5l1.06581e-14 1.50996e-07c-8.33927e-08-.552285.447715-1 1-1h6.5l-4.37114e-08 1.77636e-15c.552285-2.41411e-08 1 .447715 1 1v3.5 1.06581e-14c0 .552285-.447715 1-1 1Z"></path><path stroke="#323232" stroke-linecap="round" stroke-linejoin="round" stroke-width="1.5" d="M12 10.5v5.5"></path><path stroke="#323232" stroke-linecap="round" stroke-linejoin="round" stroke-width="1.5" d="M12.069 10.5l9.36993e-08 4.15101e-10c.931692.00412752 1.83074-.342923 2.518-.972l1.00529e-08-1.06234e-08c.556078-.587633.556078-1.50737-2.01059e-08-2.095l1.82846e-08 1.93434e-08c-.52545-.555875-1.40204-.580539-1.95791-.0550891 -.018876.0178428-.0372463.0362131-.0550891.0550891 -.851.887-.505 3.067-.505 3.067Z"></path><path stroke="#323232" stroke-linecap="round" stroke-linejoin="round" stroke-width="1.5" d="M11.931 10.5l2.40685e-08-1.06628e-10c-.931692.00412755-1.83074-.342923-2.518-.972l-1.01628e-07-1.07395e-07c-.556078-.587633-.556078-1.50737 2.03257e-07-2.095l-2.39618e-08 2.53881e-08c.524645-.555875 1.40058-.581191 1.95645-.0565454 .0193892.0182999.0382455.0371562.0565454.0565454 .851.887.505 3.067.505 3.067Z"></path><circle cx="12" cy="12" r="9" stroke="#323232" stroke-linecap="round" stroke-linejoin="round" stroke-width="1.5"></circle></g></svg>