<?xml version="1.0" encoding="UTF-8"?><svg version="1.1" viewBox="0 0 24 24" xmlns="http://www.w3.org/2000/svg" xmlns:xlink="http://www.w3.org/1999/xlink"><!--Generated by IJSVG (https://github.com/iconjar/IJSVG)--><g fill="none"><path d="M24,0v24h-24v-24h24Z"></path><path stroke="#323232" stroke-linecap="round" stroke-linejoin="round" stroke-width="1.5" d="M12.606,3.27l1.45,-0.709c0.669,-0.327 1.478,-0.065 1.827,0.594l0.757,1.426c0.2,0.376 0.562,0.639 0.982,0.713l1.59,0.279c0.734,0.129 1.233,0.816 1.129,1.554l-0.226,1.598c-0.06,0.422 0.079,0.848 0.375,1.154l1.122,1.16c0.518,0.535 0.518,1.385 0,1.921l-1.122,1.16c-0.296,0.306 -0.435,0.732 -0.375,1.154l0.226,1.598c0.104,0.738 -0.395,1.425 -1.129,1.554l-1.59,0.279c-0.42,0.074 -0.782,0.337 -0.982,0.713l-0.757,1.426c-0.349,0.658 -1.157,0.921 -1.827,0.594l-1.45,-0.709c-0.383,-0.187 -0.83,-0.187 -1.213,0l-1.45,0.709c-0.669,0.327 -1.478,0.065 -1.827,-0.594l-0.756,-1.426c-0.2,-0.376 -0.562,-0.639 -0.982,-0.713l-1.59,-0.279c-0.734,-0.129 -1.233,-0.816 -1.129,-1.554l0.226,-1.598c0.06,-0.422 -0.079,-0.848 -0.375,-1.154l-1.122,-1.16c-0.518,-0.535 -0.518,-1.385 0,-1.921l1.122,-1.16c0.296,-0.306 0.435,-0.732 0.375,-1.154l-0.225,-1.598c-0.105,-0.737 0.395,-1.425 1.129,-1.553l1.59,-0.279c0.419,-0.074 0.781,-0.337 0.981,-0.713l0.757,-1.426c0.349,-0.658 1.157,-0.921 1.827,-0.594l1.45,0.709c0.382,0.187 0.83,0.187 1.212,-0.001Z"></path><path stroke="#323232" stroke-linecap="round" stroke-linejoin="round" stroke-width="1.5" d="M15.375,16h-6.75c-0.552,0 -1,-0.448 -1,-1v-3.624c0,-0.552 0.448,-1 1,-1h6.749c0.552,0 1,0.448 1,1v3.624c0,0.552 -0.448,1 -0.999,1Z"></path><path stroke="#323232" stroke-linecap="round" stroke-linejoin="round" stroke-width="1.5" d="M12.067,10.381c0.554,0 1.697,-0.18 2.424,-0.939c0.535,-0.559 0.535,-1.464 0,-2.023c-0.535,-0.559 -1.403,-0.559 -1.938,0c-0.819,0.856 -0.486,2.962 -0.486,2.962Z"></path><path stroke="#323232" stroke-linecap="round" stroke-linejoin="round" stroke-width="1.5" d="M11.933,10.381c-0.554,0 -1.697,-0.18 -2.424,-0.939c-0.535,-0.559 -0.535,-1.464 0,-2.023c0.535,-0.559 1.403,-0.559 1.938,0c0.819,0.856 0.486,2.962 0.486,2.962Z"></path><path stroke="#323232" stroke-linecap="round" stroke-linejoin="round" stroke-width="1.5" d="M12,10.38v5.62"></path></g></svg>