<svg viewBox="0 0 24 24" xmlns="http://www.w3.org/2000/svg"><g transform="translate(-4.97057 12)"><rect width="14.797" height="14.797" x="4.601" y="4.601" rx="2.325" fill="none" stroke="#323232" stroke-linecap="round" stroke-linejoin="round" stroke-width="1.5" transform="matrix(.7071-.70711.7071.7071 0 0)"/></g><g stroke-linecap="round" stroke-width="1.5" stroke="#323232" fill="none" stroke-linejoin="round"><path d="M13.06 9.06l1.88 1.88"/><path d="M12 14.5a1.5 1.5 0 1 0 0 3 1.5 1.5 0 1 0 0-3Z"/><path d="M12 6.5a1.5 1.5 0 1 0 0 3 1.5 1.5 0 1 0 0-3Z"/><path d="M16 10.5a1.5 1.5 0 1 0 0 3 1.5 1.5 0 1 0 0-3Z"/><path d="M12 14.5l0-5"/><path d="M10.94 6.94L8.77 4.77"/></g><path fill="none" d="M0 0h24v24H0Z"/></svg>