<svg viewBox="0 0 24 24" xmlns="http://www.w3.org/2000/svg"><g stroke-linecap="round" stroke-width="1.5" stroke="#323232" fill="none" stroke-linejoin="round"><path d="M7.12 11.36l1.21-3.64 -.01 0c.04-.13.17-.19.29-.15 .06.02.11.07.14.14l1.21 3.63 2.01 6.04 -5.32-3.76 0 0c-.16-.12-.23-.32-.17-.5Z"/><path d="M16.87 11.36l-1.22-3.64 -.01-.01c-.05-.13-.18-.19-.3-.15 -.07.02-.12.07-.15.14l-1.22 3.63 -2.02 6.04 5.31-3.77 -.01 0c.15-.12.22-.32.16-.5Z"/><path d="M12 3a9 9 0 1 0 0 18 9 9 0 1 0 0-18Z"/><path d="M9.93 11.21h4.13"/></g><path fill="none" d="M0 0h24v24H0Z"/></svg>