<svg id="Layer_3" data-name="Layer 3" xmlns="http://www.w3.org/2000/svg" viewBox="0 0 24 24"><path d="M0,0H24V24H0Z" fill="none"/><path d="M11.835,3.49262l.16608.1686.20626-.1997a1.64753,1.64753,0,0,1,2.30889.02743h0a1.70736,1.70736,0,0,1,0,2.38151l-1.804,1.83165a.998.998,0,0,1-1.42237,0L9.48226,5.86678a1.702,1.702,0,0,1,0-2.37407h0A1.6508,1.6508,0,0,1,11.835,3.49262Z" fill="none" stroke="#323232" stroke-linecap="round" stroke-linejoin="round" stroke-width="1.5"/><line x1="18.5" y1="6.5" x2="19.5" y2="7" fill="none" stroke="#323232" stroke-linecap="round" stroke-linejoin="round" stroke-width="1.5"/><line x1="18.5" y1="3.5" x2="19.5" y2="3" fill="none" stroke="#323232" stroke-linecap="round" stroke-linejoin="round" stroke-width="1.5"/><line x1="5.5" y1="3.5" x2="4.5" y2="3" fill="none" stroke="#323232" stroke-linecap="round" stroke-linejoin="round" stroke-width="1.5"/><line x1="5.5" y1="6.5" x2="4.5" y2="7" fill="none" stroke="#323232" stroke-linecap="round" stroke-linejoin="round" stroke-width="1.5"/><path d="M9.03063,11.14758,6.0394,10.06092a1.01113,1.01113,0,0,0-1.23544.47083l-1.21366,2.253a3.07325,3.07325,0,0,0,1.42061,4.34176,2.9936,2.9936,0,0,0,4.04774-2.10707l.61274-2.69748A1.01114,1.01114,0,0,0,9.03063,11.14758Z" fill="none" stroke="#323232" stroke-linecap="round" stroke-linejoin="round" stroke-width="1.5"/><line x1="5.01091" y1="17.12648" x2="3.84833" y2="20.32849" fill="none" stroke="#323232" stroke-linecap="round" stroke-linejoin="round" stroke-width="1.5"/><path d="M14.96937,11.14758l2.99123-1.08666a1.01113,1.01113,0,0,1,1.23544.47083l1.21366,2.253a3.07325,3.07325,0,0,1-1.42061,4.34176,2.9936,2.9936,0,0,1-4.04774-2.10707l-.61274-2.69748A1.01114,1.01114,0,0,1,14.96937,11.14758Z" fill="none" stroke="#323232" stroke-linecap="round" stroke-linejoin="round" stroke-width="1.5"/><line x1="18.98909" y1="17.12648" x2="20.15167" y2="20.32849" fill="none" stroke="#323232" stroke-linecap="round" stroke-linejoin="round" stroke-width="1.5"/><line x1="18.30334" y1="21" x2="22" y2="19.65698" fill="none" stroke="#323232" stroke-linecap="round" stroke-linejoin="round" stroke-width="1.5"/><line x1="5.69666" y1="21" x2="2" y2="19.65698" fill="none" stroke="#323232" stroke-linecap="round" stroke-linejoin="round" stroke-width="1.5"/></svg>