<?xml version="1.0" encoding="UTF-8"?><svg version="1.1" viewBox="0 0 24 24" xmlns="http://www.w3.org/2000/svg" xmlns:xlink="http://www.w3.org/1999/xlink"><path d="M11 21c-4.971 0-9-4.029-9-9 0-4.971 4.029-9 9-9 4.971 0 9 4.029 9 9" stroke-linecap="round" stroke-width="1.5" fill-rule="evenodd" stroke="#323232" fill="none" stroke-linejoin="round"></path><line x1="2.51" x2="19.49" y1="9" y2="9" fill="none" stroke="#323232" stroke-linecap="round" stroke-linejoin="round" stroke-width="1.5"></line><g stroke-linecap="round" stroke-width="1.5" stroke="#323232" fill="none" stroke-linejoin="round"><line x1="2.51" x2="12" y1="15" y2="15"></line><path d="M15 12c0-2.764-.723-5.528-2.167-7.94 -.847-1.413-2.819-1.413-3.665 0 -2.89 4.825-2.89 11.056 0 15.881 .423.706 1.128 1.06 1.833 1.06"></path><path d="M21.999 20v-3c.001-1.105-1.567-2-3.499-2 -1.932 0-3.499.896-3.5 2v3c0 1.104 1.566 2 3.499 2 1.933 0 3.5-.895 3.5-2Z"></path><path d="M15 17c0 1.105 1.567 2 3.5 2 1.933 0 3.5-.895 3.5-2"></path></g><rect width="24" height="24" fill="none"></rect></svg>