<?xml version="1.0" encoding="UTF-8"?><svg version="1.1" viewBox="0 0 24 24" xmlns="http://www.w3.org/2000/svg" xmlns:xlink="http://www.w3.org/1999/xlink"><path d="M12 21c-4.971 0-9-4.029-9-9 0-4.971 4.029-9 9-9 4.971 0 9 4.029 9 9" stroke-linecap="round" stroke-width="1.5" fill-rule="evenodd" stroke="#323232" fill="none" stroke-linejoin="round"></path><line x1="3.51" x2="20.49" y1="9" y2="9" fill="none" stroke="#323232" stroke-linecap="round" stroke-linejoin="round" stroke-width="1.5"></line><g stroke-linecap="round" stroke-width="1.5" stroke="#323232" fill="none" stroke-linejoin="round"><line x1="3.51" x2="14" y1="15" y2="15"></line><path d="M16 12c0-2.764-.723-5.528-2.167-7.94 -.847-1.413-2.819-1.413-3.665 0 -2.89 4.825-2.89 11.056 0 15.881 .423.706 1.127 1.059 1.832 1.059"></path><path d="M20.775 20.55c-.124 0-.225.102-.225.225 0 .123.101.225.225.225 .123 0 .225-.101.224-.225 .001-.124-.099-.225-.224-.225"></path><path d="M21 18c-1.756.039-2.961 1.244-3 3"></path><path d="M15 21c.009-.759.137-1.47.367-2.121 .588-1.665 1.847-2.924 3.513-3.513 .65-.229 1.361-.357 2.12-.366"></path></g><rect width="24" height="24" fill="none"></rect></svg>