<?xml version="1.0" encoding="UTF-8"?><svg version="1.1" viewBox="0 0 24 24" xmlns="http://www.w3.org/2000/svg" xmlns:xlink="http://www.w3.org/1999/xlink"><g stroke-linecap="round" stroke-width="1.5" stroke="#323232" fill="none" stroke-linejoin="round"><path d="M12 21c-4.971 0-9-4.029-9-9 0-4.971 4.029-9 9-9 4.971 0 9 4.029 9 9"></path><line x1="3.51" x2="20.42" y1="9" y2="9"></line><line x1="3.51" x2="12" y1="15" y2="15"></line><path d="M16 12c0-2.764-.723-5.528-2.167-7.94 -.847-1.413-2.819-1.413-3.665 0 -2.89 4.825-2.89 11.056 0 15.881 .423.706 1.128 1.06 1.833 1.06"></path><path d="M18.25 22c-2.071 0-3.75-1.679-3.75-3.75 0-2.071 1.679-3.75 3.75-3.75 2.072 0 3.75 1.679 3.75 3.75 0 2.071-1.678 3.75-3.75 3.75"></path><line x1="17.25" x2="19.25" y1="18.25" y2="18.25"></line></g><rect width="24" height="24" fill="none"></rect></svg>