<?xml version="1.0" encoding="UTF-8"?><svg version="1.1" viewBox="0 0 24 24" xmlns="http://www.w3.org/2000/svg" xmlns:xlink="http://www.w3.org/1999/xlink"><g stroke-linecap="round" stroke-width="1.5" stroke="#323232" fill="none" stroke-linejoin="round"><path d="M12 21l-3.93403e-07-7.10543e-15c-4.97056-2.1727e-07-9-4.02944-9-9 2.1727e-07-4.97056 4.02944-9 9-9 4.97056 2.1727e-07 9 4.02944 9 9"></path><line x1="3.51" x2="20.38" y1="9" y2="9"></line><line x1="3.51" x2="12" y1="15" y2="15"></line><path d="M16 12l5.44986e-07-.000201612c.00753369-2.79374-.741316-5.53743-2.1671-7.93997l-3.18869e-08-5.54131e-08c-.58238-1.01206-1.87493-1.36039-2.88699-.778007 -.323454.186128-.591879.454554-.778007.778007l5.13963e-07-8.71288e-07c-2.89 4.89923-2.89 10.9818-1.02793e-06 15.881l-1.10723e-07-1.9118e-07c.37892.654261 1.07694 1.05791 1.833 1.06"></path><circle cx="18" cy="18" r="4"></circle><path d="M19.244 17.379l-1.556 1.556 -.933-.934"></path></g><rect width="24" height="24" fill="none"></rect></svg>