<?xml version="1.0" encoding="UTF-8"?><svg version="1.1" viewBox="0 0 24 24" xmlns="http://www.w3.org/2000/svg" xmlns:xlink="http://www.w3.org/1999/xlink"><g stroke-linecap="round" stroke-width="1.5" stroke="#323232" fill="none" stroke-linejoin="round"><path d="M12 21c-4.971 0-9-4.029-9-9 0-4.971 4.029-9 9-9 4.971 0 9 4.029 9 9"></path><line x1="3.51" x2="20.38" y1="9" y2="9"></line><line x1="3.51" x2="12" y1="15" y2="15"></line><path d="M16 12c0-2.764-.723-5.528-2.167-7.94 -.847-1.413-2.819-1.413-3.665 0 -2.89 4.825-2.89 11.056 0 15.881 .423.706 1.128 1.06 1.833 1.06"></path><path d="M23 17.625l-1.125-1.125 -1.125 1.125"></path><path d="M14.75 18.375l1.125 1.125 1.125-1.125"></path><path d="M15.875 19.5v-3c0-.829.671-1.5 1.5-1.5h2.25"></path><path d="M21.875 16.5v3c0 .825-.675 1.5-1.5 1.5h-2.242"></path></g><rect width="24" height="24" fill="none"></rect></svg>