<?xml version="1.0" encoding="UTF-8"?><svg version="1.1" viewBox="0 0 24 24" xmlns="http://www.w3.org/2000/svg" xmlns:xlink="http://www.w3.org/1999/xlink"><g stroke-linecap="round" stroke-width="1.5" stroke="#323232" fill="none" stroke-linejoin="round"><path d="M12 21l-3.93403e-07-7.10543e-15c-4.97056-2.1727e-07-9-4.02944-9-9 2.1727e-07-4.97056 4.02944-9 9-9 4.97056 2.1727e-07 9 4.02944 9 9"></path><line x1="3.51" x2="20.42" y1="9" y2="9"></line><line x1="3.51" x2="12" y1="15" y2="15"></line><path d="M16 12l6.87077e-07-.000254018c.0075337-2.79375-.741326-5.53743-2.16713-7.93996l-4.05371e-09-7.04776e-09c-.582114-1.01206-1.87445-1.3606-2.88651-.778489 -.323699.186184-.592305.45479-.778489.778489l-3.00488e-07 5.09419e-07c-2.88989 4.89926-2.88989 10.9817 6.00976e-07 15.881l5.16191e-08 8.90405e-08c.378962.653691 1.07654 1.05698 1.83213 1.05922"></path><path d="M14.787 19.629v-2.756l-1.398e-08 3.23017e-06c.00152465-.352416.192537-.676758.499997-.849002l2.489-1.4 3.25381e-08-1.83267e-08c.29644-.166966.65856-.166966.955 3.66534e-08l2.489 1.4 9.8794e-08 5.51904e-08c.307766.171931.498895.496468.5.849v2.756l-7.36715e-09 1.97318e-06c-.00131637.352474-.192388.676913-.500002.848999l-2.49 1.4 8.07023e-08-4.51493e-08c-.296696.165988-.658304.165988-.955 9.02987e-08l-2.489-1.4 -5.35747e-08-2.99277e-08c-.307686-.171878-.498518-.496565-.498996-.849003Z"></path><path d="M18.25 18.251v3.749"></path><path d="M14.92 16.381l3.33 1.87 3.33-1.87"></path></g><rect width="24" height="24" fill="none"></rect></svg>