<?xml version="1.0" encoding="UTF-8"?><svg version="1.1" viewBox="0 0 24 24" xmlns="http://www.w3.org/2000/svg" xmlns:xlink="http://www.w3.org/1999/xlink"><g fill="none"><rect width="24" height="24"></rect><path stroke="#323232" stroke-linecap="round" stroke-linejoin="round" stroke-width="1.5" d="M12 21l-3.93403e-07-7.10543e-15c-4.97056-2.1727e-07-9-4.02944-9-9 2.1727e-07-4.97056 4.02944-9 9-9 4.97056 2.1727e-07 9 4.02944 9 9"></path><line x1="3.51" x2="20.38" y1="9" y2="9" stroke="#323232" stroke-linecap="round" stroke-linejoin="round" stroke-width="1.5"></line><line x1="3.51" x2="12" y1="15" y2="15" stroke="#323232" stroke-linecap="round" stroke-linejoin="round" stroke-width="1.5"></line><path stroke="#323232" stroke-linecap="round" stroke-linejoin="round" stroke-width="1.5" d="M16 12l6.87077e-07-.000254018c.0075337-2.79375-.741326-5.53743-2.16713-7.93996l-4.05371e-09-7.04776e-09c-.582114-1.01206-1.87445-1.3606-2.88651-.778489 -.323699.186184-.592305.45479-.778489.778489l-3.00488e-07 5.09419e-07c-2.88989 4.89926-2.88989 10.9817 6.00976e-07 15.881l5.16191e-08 8.90405e-08c.378962.653691 1.07654 1.05698 1.83213 1.05922"></path><circle cx="18.25" cy="18.25" r="3.75" stroke="#323232" stroke-linecap="round" stroke-linejoin="round" stroke-width="1.5"></circle><polyline stroke="#323232" stroke-linecap="round" stroke-linejoin="round" stroke-width="1.5" points="18.531,19.75 19.283,18.25 17.217,18.25 17.969,16.75"></polyline></g></svg>