<?xml version="1.0" encoding="UTF-8"?><svg version="1.1" viewBox="0 0 24 24" xmlns="http://www.w3.org/2000/svg" xmlns:xlink="http://www.w3.org/1999/xlink"><g stroke-linecap="round" stroke-width="1.5" stroke="#323232" fill="none" stroke-linejoin="round"><path d="M8.093 15.5h2.68"></path><path d="M9.433 15.5v-5l-1.46 1.32"></path><path d="M10.1 4.7l1.9 1.9 -2.132-2.131 2.132-2.133"></path><path d="M10.1 4.7l-6.92716e-07 1.57807e-07c4.58685-1.04492 9.1523 1.82637 10.1972 6.41322 1.04492 4.58685-1.82637 9.1523-6.41322 10.1972 -4.58685 1.04492-9.1523-1.82637-10.1972-6.41322 -.141796-.622434-.21317-1.25884-.212779-1.89722l1.93616e-08-6.90375e-06c.00516377-1.84097.611199-3.62993 1.726-5.095"></path><rect width="2.84" height="5.25" x="12.887" y="10.375" rx=".55228" ry="0"></rect></g><path fill="none" d="M0 0h24v24h-24Z"></path></svg>