<svg id="Layer_3" data-name="Layer 3" xmlns="http://www.w3.org/2000/svg" viewBox="0 0 24 24"><path d="M24,24H0V0H24Z" fill="none"/><line x1="19.5" y1="11.00001" x2="20.5" y2="11.00001" fill="none" stroke="#323232" stroke-linecap="round" stroke-linejoin="round" stroke-width="1.5"/><line x1="3.5" y1="11" x2="4.5" y2="11" fill="none" stroke="#323232" stroke-linecap="round" stroke-linejoin="round" stroke-width="1.5"/><path d="M3.50087,21h6.99826a1,1,0,0,0,.9398-1.34174l-1.45455-4A1,1,0,0,0,9.04459,15H4.95541a1,1,0,0,0-.93979.65826l-1.45455,4A1,1,0,0,0,3.50087,21Z" fill="none" stroke="#323232" stroke-linecap="round" stroke-linejoin="round" stroke-width="1.5"/><path d="M13.50087,21h6.99826a1,1,0,0,0,.9398-1.34174l-1.45455-4A1,1,0,0,0,19.04459,15H14.95541a1,1,0,0,0-.93979.65826l-1.45455,4A1,1,0,0,0,13.50087,21Z" fill="none" stroke="#323232" stroke-linecap="round" stroke-linejoin="round" stroke-width="1.5"/><path d="M8.50087,15h6.99826a1,1,0,0,0,.9398-1.34174l-1.45455-4A1,1,0,0,0,14.04459,9H9.95541a1,1,0,0,0-.93979.65826l-1.45455,4A1,1,0,0,0,8.50087,15Z" fill="none" stroke="#323232" stroke-linecap="round" stroke-linejoin="round" stroke-width="1.5"/><line x1="19" y1="21" x2="10" y2="21" fill="none" stroke="#323232" stroke-linecap="round" stroke-linejoin="round" stroke-width="1.5"/><line x1="17.30329" y1="5.69669" x2="18.0104" y2="4.98958" fill="none" stroke="#323232" stroke-linecap="round" stroke-linejoin="round" stroke-width="1.5"/><line x1="6.69669" y1="5.69672" x2="5.98958" y2="4.98961" fill="none" stroke="#323232" stroke-linecap="round" stroke-linejoin="round" stroke-width="1.5"/><line x1="12" y1="3.5" x2="12" y2="2.5" fill="none" stroke="#323232" stroke-linecap="round" stroke-linejoin="round" stroke-width="1.5"/></svg>