<?xml version="1.0" encoding="UTF-8"?><svg version="1.1" viewBox="0 0 24 24" xmlns="http://www.w3.org/2000/svg" xmlns:xlink="http://www.w3.org/1999/xlink"><!--Generated by IJSVG (https://github.com/iconjar/IJSVG)--><g fill="none"><path d="M0,0h24v24h-24Z"></path><path stroke="#323232" stroke-linecap="round" stroke-linejoin="round" stroke-width="1.5" d="M19.071,4.929c3.905,3.905 3.905,10.237 0,14.142c-3.905,3.905 -10.237,3.905 -14.142,0c-3.905,-3.905 -3.905,-10.237 0,-14.142c3.905,-3.905 10.237,-3.905 14.142,1.77636e-15"></path><path stroke="#323232" stroke-linecap="round" stroke-linejoin="round" stroke-width="1.5" d="M8.367,7.489v9.023c0,0.657 0.709,1.07 1.28,0.745l7.939,-4.511c0.578,-0.328 0.578,-1.162 0,-1.49l-7.939,-4.513c-0.571,-0.324 -1.28,0.089 -1.28,0.746Z"></path><path stroke="#323232" stroke-linecap="round" stroke-linejoin="round" stroke-width="1.5" d="M8.56,17.05l6.24,-7.38"></path><path stroke="#323232" stroke-linecap="round" stroke-linejoin="round" stroke-width="1.5" d="M8.56,6.95l6.24,7.38"></path></g></svg>