<?xml version="1.0" encoding="UTF-8"?><svg version="1.1" viewBox="0 0 24 24" xmlns="http://www.w3.org/2000/svg" xmlns:xlink="http://www.w3.org/1999/xlink"><g fill="none"><rect width="24" height="24"></rect><line x1="8" x2="8" y1="14" y2="21" stroke="#323232" stroke-linecap="round" stroke-linejoin="round" stroke-width="1.5"></line><line x1="12" x2="12" y1="14" y2="21" stroke="#323232" stroke-linecap="round" stroke-linejoin="round" stroke-width="1.5"></line><line x1="16" x2="16" y1="14" y2="21" stroke="#323232" stroke-linecap="round" stroke-linejoin="round" stroke-width="1.5"></line><line x1="22" x2="2" y1="21" y2="21" stroke="#323232" stroke-linecap="round" stroke-linejoin="round" stroke-width="1.5"></line><path stroke="#323232" stroke-linecap="round" stroke-linejoin="round" stroke-width="1.5" d="M12 7v-4.5l5.32907e-15 7.54979e-08c-4.16963e-08-.276142.223858-.5.5-.5h3l-2.18557e-08 4.44089e-16c.276142-1.20706e-08.5.223858.5.5v1.418 -4.44089e-16c0 .276142-.223858.5-.5.5h-3.5"></path><path stroke="#323232" stroke-linecap="round" stroke-linejoin="round" stroke-width="1.5" d="M8 10v-1.586l-2.28059e-08.000213418c4.00433e-08-.265195.10534-.51953.292849-.707063l.414-.414 5.39259e-08-5.39652e-08c.187505-.187642.441882-.293094.707151-.293151h5.172l1.02845e-08 2.19647e-12c.265195 5.66401e-05.519507.105451.707.293l.414.414 2.32383e-08 2.32313e-08c.187549.187493.292943.441805.293.707v1.586"></path><line x1="4" x2="20" y1="14" y2="14" stroke="#323232" stroke-linecap="round" stroke-linejoin="round" stroke-width="1.5"></line><path stroke="#323232" stroke-linecap="round" stroke-linejoin="round" stroke-width="1.5" d="M20 21v-9.586l2.28059e-08.000213569c0-.265195-.10534-.51953-.292849-.707063l-.414-.414 -1.17621e-08-1.17707e-08c-.187505-.187642-.441882-.293094-.707151-.293151h-13.172l2.1502e-08-4.59188e-12c-.265195 5.66317e-05-.519507.105451-.707.293l-.414.414 6.90746e-08-6.90537e-08c-.187549.187493-.292943.441805-.293.707v9.586"></path></g></svg>