<?xml version="1.0" encoding="UTF-8"?><svg version="1.1" viewBox="0 0 24 24" xmlns="http://www.w3.org/2000/svg" xmlns:xlink="http://www.w3.org/1999/xlink"><g stroke-linecap="round" stroke-width="1.5" stroke="#323232" fill="none" stroke-linejoin="round"><path d="M9.525 11.922v2.325l-2.7458e-08.000271976c-7.71859e-08.511179.28893.978446.746243 1.20685l.522.261 -3.28341e-07-1.6409e-07c.759864.379744 1.65414.379745 2.414 3.28179e-07l.522-.261 1.11594e-07-5.57635e-08c.457267-.228496.746103-.695821.746-1.207v-2.32512"></path><circle cx="12" cy="12" r="9"></circle><path d="M7.913 11.116l3.087 1.542 5.87345e-08 2.92983e-08c.63156.315038 1.37444.315038 2.006-5.85966e-08l3.084-1.542 6.35964e-08-3.17118e-08c.369202-.1841.519258-.632639.335158-1.00184 -.0723733-.145141-.190017-.262785-.335158-.335158l-3.09-1.542 2.20321e-07 1.1027e-07c-.631337-.315981-1.37466-.315982-2.006-2.20539e-07l-3.081 1.542 3.73443e-08-1.86214e-08c-.369202.1841-.519258.632639-.335158 1.00184 .0723733.145141.190017.262785.335158.335158Z"></path><path d="M16.5 10.447v1.8"></path></g><path fill="none" d="M0 0h24v24h-24Z"></path></svg>