<?xml version="1.0" encoding="UTF-8"?><svg version="1.1" viewBox="0 0 24 24" xmlns="http://www.w3.org/2000/svg" xmlns:xlink="http://www.w3.org/1999/xlink"><g stroke-linecap="round" stroke-width="1.5" stroke="#323232" fill="none" stroke-linejoin="round"><circle cx="9" cy="12" r="3"></circle><path d="M3 6h17l-8.74228e-08 1.77636e-15c1.10457-4.82823e-08 2 .89543 2 2v8 0c0 1.10457-.895431 2-2 2h-17v-12Z"></path><path d="M7 18h12v2 0c0 .552285-.447715 1-1 1h-10 -4.37114e-08c-.552285-2.41411e-08-1-.447715-1-1 0 0 0-3.55271e-15 0-3.55271e-15v-2Z"></path><path d="M3 21v-17 0c0-.552285-.447715-1-1-1h-1"></path><line x1="19" x2="15" y1="13.5" y2="13.5"></line><line x1="19" x2="15" y1="10.5" y2="10.5"></line></g><path fill="none" d="M0 0h24v24h-24Z"></path></svg>