<?xml version="1.0" encoding="UTF-8"?><svg version="1.1" viewBox="0 0 24 24" xmlns="http://www.w3.org/2000/svg" xmlns:xlink="http://www.w3.org/1999/xlink"><g stroke-linecap="round" stroke-width="1.5" stroke="#323232" fill="none" stroke-linejoin="round"><path d="M10.333 14.278v-5l7.10543e-15 8.39537e-08c-4.63663e-08-.30707.24893-.556.556-.556h2.778v5.556"></path><path d="M13.667 8.722v-1.666l-7.21201e-13-8.15328e-07c-4.63074e-08-.30668.248321-.555448.555001-.555999h2.222l2.20149e-08 3.28626e-14c.30707 4.6245e-07.555999.24893.555999.556v6.666h3.55271e-15c0 .30707-.24893.556-.556.556 0 0 0 0 0 0h-8.888 -2.43035e-08c-.30707-1.34225e-08-.556-.24893-.556-.556 0-8.31461e-09 0-1.37003e-08 8.88178e-16-2.20149e-08v-2.222l7.10543e-15 8.39537e-08c-4.63663e-08-.30707.24893-.556.556-.556 0 0 8.88178e-16 0 8.88178e-16 0h2.777"></path><line x1="7" x2="17" y1="17" y2="17"></line><rect width="18" height="18" x="3" y="3" rx="2.7614" ry="0"></rect></g><path fill="none" d="M0 0h24v24h-24Z"></path></svg>