<svg xmlns="http://www.w3.org/2000/svg" viewBox="0 0 24 24"><g id="Layer_2" data-name="Layer 2"><path d="M12.03535,8.46464a.05.05,0,1,1-.07071,0,.05.05,0,0,1,.07071,0" fill="none" stroke="#323232" stroke-linecap="round" stroke-linejoin="round" stroke-width="1.5"/><path d="M15.53536,8.42911a.05.05,0,1,1-.07072,0,.05.05,0,0,1,.07072,0" fill="none" stroke="#323232" stroke-linecap="round" stroke-linejoin="round" stroke-width="1.5"/><path d="M15.53536,11.96465a.05.05,0,1,1-.07072,0,.05.05,0,0,1,.07072,0" fill="none" stroke="#323232" stroke-linecap="round" stroke-linejoin="round" stroke-width="1.5"/><path d="M11.96464,12.03536a.05.05,0,1,1,.07071,0,.05.05,0,0,1-.07071,0" fill="none" stroke="#323232" stroke-linecap="round" stroke-linejoin="round" stroke-width="1.5"/><rect x="3" y="3" width="18" height="18" rx="5" stroke-width="1.5" stroke="#323232" stroke-linecap="round" stroke-linejoin="round" fill="none"/><path d="M15.46464,15.46464a.05.05,0,1,1,0,.07072.05.05,0,0,1,0-.07072" fill="none" stroke="#323232" stroke-linecap="round" stroke-linejoin="round" stroke-width="1.5"/><path d="M8.46464,8.53536a.05.05,0,1,1,.07072,0,.05.05,0,0,1-.07072,0" fill="none" stroke="#323232" stroke-linecap="round" stroke-linejoin="round" stroke-width="1.5"/><path d="M8.53536,11.96465a.05.05,0,1,1-.07072,0,.05.05,0,0,1,.07072,0" fill="none" stroke="#323232" stroke-linecap="round" stroke-linejoin="round" stroke-width="1.5"/><path d="M12.03535,15.46464a.05.05,0,1,1-.07071,0,.05.05,0,0,1,.07071,0" fill="none" stroke="#323232" stroke-linecap="round" stroke-linejoin="round" stroke-width="1.5"/><path d="M8.46464,15.53536a.05.05,0,1,1,.07072,0,.05.05,0,0,1-.07072,0" fill="none" stroke="#323232" stroke-linecap="round" stroke-linejoin="round" stroke-width="1.5"/><path d="M0,24H24V0H0Z" fill="none"/></g></svg>