<?xml version="1.0" encoding="UTF-8"?><svg version="1.1" viewBox="0 0 24 24" xmlns="http://www.w3.org/2000/svg" xmlns:xlink="http://www.w3.org/1999/xlink"><g stroke-linecap="round" stroke-width="1.5" stroke="#323232" fill="none" stroke-linejoin="round"><path d="M8 10h-3c-1.105 0-2-.895-2-2v-3c0-1.105.895-2 2-2h3c1.105 0 2 .895 2 2v3c0 1.105-.895 2-2 2Z"></path><path d="M19 10h-3c-1.105 0-2-.895-2-2v-3c0-1.105.895-2 2-2h3c1.105 0 2 .895 2 2v3c0 1.105-.895 2-2 2Z"></path><path d="M8 21h-3c-1.105 0-2-.895-2-2v-3c0-1.105.895-2 2-2h3c1.105 0 2 .895 2 2v3c0 1.105-.895 2-2 2Z"></path><path d="M20 15.55h-5"></path><path d="M15 19.45h5"></path></g><path fill="none" d="M24 24h-24v-24h24v24Z"></path></svg>