<?xml version="1.0" encoding="UTF-8"?><svg version="1.1" viewBox="0 0 24 24" xmlns="http://www.w3.org/2000/svg" xmlns:xlink="http://www.w3.org/1999/xlink"><defs><path d="M0 0h24v24h-24v-24Z" id="a"></path></defs><g fill="none"><use xlink:href="#a"></use><use xlink:href="#a"></use><path stroke="#323232" stroke-linecap="round" stroke-linejoin="round" stroke-width="1.5" d="M15.5 2.5h4c1.105 0 2 .895 2 2v4c0 1.105-.895 2-2 2h-4c-1.105 0-2-.895-2-2v-4c0-1.105.895-2 2-2Z"></path><path stroke="#323232" stroke-linecap="round" stroke-linejoin="round" stroke-width="1.5" d="M4.5 13.5h4c1.105 0 2 .895 2 2v4c0 1.105-.895 2-2 2h-4c-1.105 0-2-.895-2-2v-4c0-1.105.895-2 2-2Z"></path><path stroke="#323232" stroke-linecap="round" stroke-linejoin="round" stroke-width="1.5" d="M2.5 8.5v-4c0-1.105.895-2 2-2h4c1.105 0 2 .895 2 2v4c0 1.105-.895 2-2 2h-4c-1.105 0-2-.895-2-2Z"></path><path stroke="#323232" stroke-linecap="round" stroke-linejoin="round" stroke-width="1.5" d="M20 15l-5 4.999"></path><path stroke="#323232" stroke-linecap="round" stroke-linejoin="round" stroke-width="1.5" d="M20 19.999l-5-4.999"></path></g></svg>