<?xml version="1.0" encoding="UTF-8"?><svg version="1.1" viewBox="0 0 24 24" xmlns="http://www.w3.org/2000/svg" xmlns:xlink="http://www.w3.org/1999/xlink"><!--Generated by IJSVG (https://github.com/iconjar/IJSVG)--><g fill="none"><path d="M0,0h24v24h-24v-24Z"></path><path stroke="#323232" stroke-linecap="round" stroke-linejoin="round" stroke-width="1.5" d="M20.286,3.714c0.952,0.952 0.952,2.496 0,3.448c-0.952,0.952 -2.496,0.952 -3.448,0c-0.952,-0.952 -0.952,-2.496 0,-3.448c0.952,-0.952 2.496,-0.952 3.448,0"></path><path stroke="#323232" stroke-linecap="round" stroke-linejoin="round" stroke-width="1.5" d="M20.915,10.2c-0.136,-1.004 -0.463,-1.942 -0.923,-2.798"></path><path stroke="#323232" stroke-linecap="round" stroke-linejoin="round" stroke-width="1.5" d="M16.598,4.008c-0.856,-0.46 -1.794,-0.787 -2.798,-0.923"></path><path stroke="#323232" stroke-linecap="round" stroke-linejoin="round" stroke-width="1.5" d="M7.162,16.838c0.952,0.952 0.952,2.496 0,3.448c-0.952,0.952 -2.496,0.952 -3.448,0c-0.952,-0.952 -0.952,-2.496 0,-3.448c0.952,-0.952 2.496,-0.952 3.448,0"></path><path stroke="#323232" stroke-linecap="round" stroke-linejoin="round" stroke-width="1.5" d="M3.085,13.8c0.136,1.004 0.463,1.942 0.923,2.798"></path><path stroke="#323232" stroke-linecap="round" stroke-linejoin="round" stroke-width="1.5" d="M10.2,20.915c-1.004,-0.136 -1.942,-0.463 -2.798,-0.923"></path><path stroke="#323232" stroke-linecap="round" stroke-linejoin="round" stroke-width="1.5" d="M7.162,3.714c0.952,0.952 0.952,2.496 0,3.448c-0.952,0.952 -2.496,0.952 -3.448,0c-0.952,-0.952 -0.952,-2.496 0,-3.448c0.952,-0.952 2.496,-0.952 3.448,0"></path><path stroke="#323232" stroke-linecap="round" stroke-linejoin="round" stroke-width="1.5" d="M7.402,4.008c0.856,-0.46 1.794,-0.788 2.798,-0.924"></path><path stroke="#323232" stroke-linecap="round" stroke-linejoin="round" stroke-width="1.5" d="M4.008,7.402c-0.46,0.856 -0.787,1.794 -0.923,2.798"></path><path stroke="#323232" stroke-linecap="round" stroke-linejoin="round" stroke-width="1.5" d="M20.286,16.838c0.952,0.952 0.952,2.496 0,3.448c-0.952,0.952 -2.496,0.952 -3.448,0c-0.952,-0.952 -0.952,-2.496 0,-3.448c0.952,-0.952 2.496,-0.952 3.448,0"></path><path stroke="#323232" stroke-linecap="round" stroke-linejoin="round" stroke-width="1.5" d="M9,12h6"></path><path stroke="#323232" stroke-linecap="round" stroke-linejoin="round" stroke-width="1.5" d="M12,15v-6"></path><path stroke="#323232" stroke-linecap="round" stroke-linejoin="round" stroke-width="1.5" d="M19.992,16.598c0.46,-0.856 0.787,-1.794 0.923,-2.798"></path><path stroke="#323232" stroke-linecap="round" stroke-linejoin="round" stroke-width="1.5" d="M16.598,19.992c-0.856,0.46 -1.794,0.787 -2.798,0.923"></path></g></svg>