<?xml version="1.0" encoding="UTF-8"?><svg version="1.1" viewBox="0 0 24 24" xmlns="http://www.w3.org/2000/svg" xmlns:xlink="http://www.w3.org/1999/xlink"><g stroke-linecap="round" stroke-width="1.5" stroke="#323232" fill="none" stroke-linejoin="round"><path d="M12 12v-3.568l2 1.568 -2-1.568 -2 1.568"></path><path d="M20 20.994h-1.556c-.552 0-1-.448-1-1v-1.556c0-.552.448-1 1-1h1.556c.552 0 1 .448 1 1v1.556c0 .552-.448 1-1 1Z"></path><path d="M17.44 19.22h-10.88"></path><path d="M5.556 20.994h-1.556c-.552 0-1-.448-1-1v-1.556c0-.552.448-1 1-1h1.556c.552 0 1 .448 1 1v1.556c0 .552-.448 1-1 1Z"></path><path d="M20 6.55h-1.556c-.552 0-1-.448-1-1v-1.556c0-.552.448-1 1-1h1.556c.552 0 1 .448 1 1v1.556c0 .552-.448 1-1 1Z"></path><path d="M17.44 4.77h-10.88"></path><path d="M5.556 6.55h-1.556c-.552 0-1-.448-1-1v-1.556c0-.552.448-1 1-1h1.556c.552 0 1 .448 1 1v1.556c0 .552-.448 1-1 1Z"></path><path d="M4.78 6.55v10.89"></path><path d="M19.22 6.55v10.89"></path><path d="M15 13v1c0 .552-.448 1-1 1h-4c-.552 0-1-.448-1-1v-1"></path></g><path fill="none" d="M0 0h24v24h-24Z"></path></svg>