<?xml version="1.0" encoding="UTF-8"?><svg version="1.1" viewBox="0 0 24 24" xmlns="http://www.w3.org/2000/svg" xmlns:xlink="http://www.w3.org/1999/xlink"><g fill="none"><path d="M0 0h24v24h-24Z"></path><path stroke="#323232" stroke-linecap="round" stroke-linejoin="round" stroke-width="1.5" d="M10.333 8.167v0l1.95399e-14-2.5171e-07c1.39016e-07-.920659.746342-1.667 1.667-1.667v0l-7.28669e-08 8.88178e-16c.920659-4.02433e-08 1.667.746341 1.667 1.667 0 0 0 1.77636e-15 0 1.77636e-15v0l1.77636e-15 7.28669e-08c0 .920659-.746341 1.667-1.667 1.667 -1.08994e-07 0-2.15583e-07-1.06581e-14-3.24577e-07-3.19744e-14v0l-7.259e-08-4.35119e-11c-.92043-.000551732-1.66645-.74657-1.667-1.667Z"></path><path stroke="#323232" stroke-linecap="round" stroke-linejoin="round" stroke-width="1.5" d="M6.293 14.833v0l1.86517e-14-2.5171e-07c1.39016e-07-.920659.746342-1.667 1.667-1.667v0l-7.28669e-08 3.55271e-15c.920659-4.02433e-08 1.667.746341 1.667 1.667 0 0 0 1.77636e-15 0 1.77636e-15v0l1.2754e-09-2.13044e-06c-.000550436.92043-.746568 1.66645-1.667 1.667v0l-1.73648e-08 2.13163e-14c-.920659 1.16702e-06-1.667-.746339-1.667-1.667 -8.98837e-13-7.09824e-07-1.34559e-12-1.41934e-06-1.33848e-12-2.12916e-06Z"></path><path stroke="#323232" stroke-linecap="round" stroke-linejoin="round" stroke-width="1.5" d="M14.373 14.833v0l1.77636e-14-2.5171e-07c1.39016e-07-.920659.746342-1.667 1.667-1.667 0 0 0 0 0 0v0l-7.28669e-08 3.55271e-15c.920659-4.02433e-08 1.667.746341 1.667 1.667 0 0 0 1.77636e-15 0 1.77636e-15v0 7.28669e-08c0 .920659-.746341 1.667-1.667 1.667 -1.08994e-07 0-2.15583e-07-1.06581e-14-3.24577e-07-3.19744e-14v0h3.55271e-15c-.920659-4.02433e-08-1.667-.746341-1.667-1.667Z"></path><path stroke="#323232" stroke-linecap="round" stroke-linejoin="round" stroke-width="1.5" d="M9.89 11.45l-1.21 1.89"></path><path stroke="#323232" stroke-linecap="round" stroke-linejoin="round" stroke-width="1.5" d="M12.9 9.57l1.21 1.88"></path><path stroke="#323232" stroke-linecap="round" stroke-linejoin="round" stroke-width="1.5" d="M14.37 14.83h-2.37"></path><rect width="18" height="18" x="3" y="3" rx="2.20912" ry="0" stroke="#323232" stroke-linecap="round" stroke-linejoin="round" stroke-width="1.5"></rect></g></svg>