<?xml version="1.0" encoding="UTF-8"?><svg version="1.1" viewBox="0 0 24 24" xmlns="http://www.w3.org/2000/svg" xmlns:xlink="http://www.w3.org/1999/xlink"><g fill="none"><path d="M0 0h24v24h-24v-24Z"></path><path stroke="#323232" stroke-linecap="round" stroke-linejoin="round" stroke-width="1.5" d="M4 3h5c.552 0 1 .448 1 1v5c0 .552-.448 1-1 1h-5c-.552 0-1-.448-1-1v-5c0-.552.448-1 1-1Z"></path><path stroke="#323232" stroke-linecap="round" stroke-linejoin="round" stroke-width="1.5" d="M15 3h5c.552 0 1 .448 1 1v5c0 .552-.448 1-1 1h-5c-.552 0-1-.448-1-1v-5c0-.552.448-1 1-1Z"></path><polyline stroke="#323232" stroke-linecap="round" stroke-linejoin="round" stroke-width="1.5" points="17,16 19,14 21,16"></polyline><path stroke="#323232" stroke-linecap="round" stroke-linejoin="round" stroke-width="1.5" d="M19 14v6c0 .552-.448 1-1 1h-4"></path><path stroke="#323232" stroke-linecap="round" stroke-linejoin="round" stroke-width="1.5" d="M4 14h5c.552 0 1 .448 1 1v5c0 .552-.448 1-1 1h-5c-.552 0-1-.448-1-1v-5c0-.552.448-1 1-1Z"></path></g></svg>