<?xml version="1.0" encoding="UTF-8"?><svg version="1.1" viewBox="0 0 24 24" xmlns="http://www.w3.org/2000/svg" xmlns:xlink="http://www.w3.org/1999/xlink"><g stroke-linecap="round" stroke-width="1.5" stroke="#323232" fill="none" stroke-linejoin="round"><path d="M7.506 16.915c1.105 0 2 .895 2 2 0 1.105-.895 2-2 2 -1.105 0-2-.895-2-2 0-1.105.895-2 2-2"></path><path d="M16.494 16.915c1.105 0 2 .895 2 2 0 1.105-.895 2-2 2 -1.105 0-2-.895-2-2 0-1.105.895-2 2-2"></path><path d="M4.729 8.368c1.105 0 2 .895 2 2 0 1.105-.895 2-2 2 -1.105 0-2-.895-2-2 0-1.105.895-2 2-2"></path><path d="M12 3.085c1.105 0 2 .895 2 2 0 1.105-.895 2-2 2 -1.105 0-2-.895-2-2 0-1.105.895-2 2-2"></path><path d="M19.271 8.368c1.105 0 2 .895 2 2 0 1.105-.895 2-2 2 -1.105 0-2-.895-2-2 0-1.105.895-2 2-2"></path><path d="M12 10.444c1.105 0 2 .895 2 2 0 1.105-.895 2-2 2 -1.105 0-2-.895-2-2 0-1.105.895-2 2-2"></path></g><path fill="none" d="M0 0h24v24h-24v-24Z"></path></svg>