<?xml version="1.0" encoding="UTF-8"?><svg version="1.1" viewBox="0 0 24 24" xmlns="http://www.w3.org/2000/svg" xmlns:xlink="http://www.w3.org/1999/xlink"><!--Generated by IJSVG (https://github.com/iconjar/IJSVG)--><g fill="none"><path d="M0,0h24v24h-24v-24Z"></path><path stroke="#323232" stroke-linecap="round" stroke-linejoin="round" stroke-width="1.5" d="M21,10.373v-4.388c0,-0.751 -0.556,-1.386 -1.3,-1.487l-10.779,-1.45c-3.134,-0.422 -5.921,2.015 -5.921,5.177v0c0,3.18 2.817,5.622 5.965,5.171l10.748,-1.539c0.738,-0.105 1.287,-0.738 1.287,-1.484Z"></path><path stroke="#323232" stroke-linecap="round" stroke-linejoin="round" stroke-width="1.5" d="M9.84244,6.93656c0.683418,0.683418 0.683418,1.79146 0,2.47487c-0.683418,0.683418 -1.79146,0.683418 -2.47487,0c-0.683418,-0.683418 -0.683418,-1.79146 -8.88178e-16,-2.47487c0.683418,-0.683418 1.79146,-0.683418 2.47487,-8.88178e-16"></path><path stroke="#323232" stroke-linecap="round" stroke-linejoin="round" stroke-width="1.5" d="M17.75,4.31v7.72"></path><path stroke="#323232" stroke-linecap="round" stroke-linejoin="round" stroke-width="1.5" d="M7.002,13.299c0.247,1.731 0.581,4.064 0.815,5.707c0.164,1.146 1.145,1.994 2.303,1.994v0c1.415,0 2.503,-1.25 2.303,-2.651c-0.247,-1.732 -0.504,-3.529 -0.763,-5.338"></path></g></svg>