<?xml version="1.0" encoding="UTF-8"?><svg version="1.1" viewBox="0 0 24 24" xmlns="http://www.w3.org/2000/svg" xmlns:xlink="http://www.w3.org/1999/xlink"><!--Generated by IJSVG (https://github.com/iconjar/IJSVG)--><defs><path d="M0,0h24v24h-24Z" id="a"></path></defs><g fill="none"><use transform="matrix(-1,-4.49064e-11,4.49064e-11,-1,24,24)" xlink:href="#a"></use><path stroke="#323232" stroke-linecap="round" stroke-linejoin="round" stroke-width="1.5" d="M10,12v-8.5c0,-0.828 0.672,-1.5 1.5,-1.5v0c0.828,0 1.5,0.672 1.5,1.5v8.5"></path><path stroke="#323232" stroke-linecap="round" stroke-linejoin="round" stroke-width="1.5" d="M10,5.5c0,-0.828 -0.672,-1.5 -1.5,-1.5v0c-0.828,0 -1.5,0.672 -1.5,1.5v6.5"></path><path stroke="#323232" stroke-linecap="round" stroke-linejoin="round" stroke-width="1.5" d="M13,5.5c0,-0.828 0.672,-1.5 1.5,-1.5v0c0.828,0 1.5,0.672 1.5,1.5v5.5v3l1.901,-1.901c0.607,-0.607 1.591,-0.607 2.198,0v0c0.524,0.524 0.605,1.345 0.194,1.961l-3.512,5.268c-1.113,1.669 -2.986,2.672 -4.992,2.672h-1.789c-3.314,0 -6,-2.686 -6,-6v-5v-3.5c0,-0.828 0.672,-1.5 1.5,-1.5v0c0.828,0 1.5,0.672 1.5,1.5"></path><use transform="matrix(-1,-4.49064e-11,4.49064e-11,-1,24,24)" xlink:href="#a"></use></g></svg>