<svg id="Layer_3" data-name="Layer 3" xmlns="http://www.w3.org/2000/svg" viewBox="0 0 24 24"><path d="M0,0H24V24H0Z" fill="none"/><rect x="3" y="3" width="18" height="18" rx="5" transform="translate(24 24) rotate(180)" stroke-width="1.5" stroke="#323232" stroke-linecap="round" stroke-linejoin="round" fill="none"/><path d="M10,12.49976l-.58545-.58548a1.41439,1.41439,0,0,0-2.00026,0h0a1.41437,1.41437,0,0,0-.17676,1.78462l1.94,2.91038A2.00007,2.00007,0,0,0,10.84179,17.5h3.79608a2,2,0,0,0,1.98455-1.752l.36195-2.89685a2,2,0,0,0-1.66266-2.22186L13,10.25067V8a1.5,1.5,0,0,0-1.5-1.5h0A1.5,1.5,0,0,0,10,8Z" fill="none" stroke="#323232" stroke-linecap="round" stroke-linejoin="round" stroke-width="1.5"/></svg>