<?xml version="1.0" encoding="UTF-8"?><svg version="1.1" viewBox="0 0 24 24" xmlns="http://www.w3.org/2000/svg" xmlns:xlink="http://www.w3.org/1999/xlink"><!--Generated by IJSVG (https://github.com/iconjar/IJSVG)--><g fill="none"><path d="M0,0h24v24h-24Z"></path><path stroke="#323232" stroke-linecap="round" stroke-linejoin="round" stroke-width="1.5" d="M12.5,2h-3"></path><path stroke="#323232" stroke-linecap="round" stroke-linejoin="round" stroke-width="1.5" d="M2,9.5v3"></path><path stroke="#323232" stroke-linecap="round" stroke-linejoin="round" stroke-width="1.5" d="M10.257,16.621l-3.182,-3.182c-0.586,-0.586 -0.586,-1.536 0,-2.121v0c0.586,-0.586 1.536,-0.586 2.121,0"></path><path stroke="#323232" stroke-linecap="round" stroke-linejoin="round" stroke-width="1.5" d="M13.086,10.964l-2.475,-2.474c-0.586,-0.586 -1.536,-0.586 -2.121,0v0c-0.586,0.586 -0.586,1.536 0,2.121l2.475,2.475"></path><path stroke="#323232" stroke-linecap="round" stroke-linejoin="round" stroke-width="1.5" d="M11.318,9.197c-0.586,-0.586 -0.586,-1.536 0,-2.121v0c0.586,-0.586 1.536,-0.586 2.121,0l2.475,2.475"></path><path stroke="#323232" stroke-linecap="round" stroke-linejoin="round" stroke-width="1.5" d="M14.854,8.49c-0.586,-0.586 -0.586,-1.536 0,-2.121v0c0.586,-0.586 1.536,-0.586 2.121,0l1.768,1.768l-0.707,-0.707l1.768,1.768c2.929,2.929 2.929,7.678 0,10.607v0c-2.929,2.929 -7.678,2.929 -10.607,0l-1.268,-1.268c-0.32,-0.32 -0.5,-0.754 -0.5,-1.207v0c0,-0.453 0.18,-0.887 0.5,-1.207l0.914,-0.914"></path><path stroke="#323232" stroke-linecap="round" stroke-linejoin="round" stroke-width="1.5" d="M5,2h-1c-1.105,0 -2,0.895 -2,2v1"></path><path stroke="#323232" stroke-linecap="round" stroke-linejoin="round" stroke-width="1.5" d="M2,17v1c0,1.105 0.895,2 2,2h1"></path><path stroke="#323232" stroke-linecap="round" stroke-linejoin="round" stroke-width="1.5" d="M20,5v-1c0,-1.105 -0.895,-2 -2,-2h-1"></path></g></svg>