<?xml version="1.0" encoding="UTF-8"?><svg version="1.1" viewBox="0 0 24 24" xmlns="http://www.w3.org/2000/svg" xmlns:xlink="http://www.w3.org/1999/xlink"><!--Generated by IJSVG (https://github.com/iconjar/IJSVG)--><g stroke-linecap="round" stroke-width="1.5" stroke="#323232" fill="none" stroke-linejoin="round"><path d="M14.414,13.654l2.475,-2.475c0.586,-0.586 0.586,-1.536 0,-2.121v0c-0.586,-0.586 -1.536,-0.586 -2.121,0"></path><path d="M16.182,11.886c0.586,-0.586 1.536,-0.586 2.121,0v0c0.586,0.586 0.586,1.536 0,2.121l-2.475,2.475"></path><path d="M12.293,11.533l6.01,-6.01c0.586,-0.586 0.586,-1.536 0,-2.121v0c-0.586,-0.586 -1.536,-0.586 -2.121,0l-7.425,7.425v-2.665c0,-0.872 -0.707,-1.579 -1.579,-1.579v0c-0.727,0 -1.352,0.513 -1.495,1.225l-1.123,5.622c-0.47,2.349 0.265,4.778 1.96,6.472v0c2.798,2.798 7.335,2.798 10.133,0l2.004,-2.004l1.061,-1.061c0.586,-0.586 0.586,-1.536 0,-2.121v0c-0.586,-0.586 -1.536,-0.586 -2.121,0"></path><path d="M11.79,2.76l-1.08,1.08"></path><path d="M2.71,2.76l1,1"></path><path d="M7.25,2v1.41"></path></g><path fill="none" d="M0,0h24v24h-24Z"></path></svg>