<svg id="Layer_3" data-name="Layer 3" xmlns="http://www.w3.org/2000/svg" viewBox="0 0 24 24"><rect width="24" height="24" fill="none"/><path d="M12.98131,14H20.5A1.5,1.5,0,0,0,22,12.5v-6A1.5,1.5,0,0,0,20.5,5h-10A1.5,1.5,0,0,0,9,6.5V13" fill="none" stroke="#323232" stroke-linecap="round" stroke-linejoin="round" stroke-width="1.5"/><line x1="11.5" y1="7.5" x2="11.5" y2="7.5" fill="none" stroke="#323232" stroke-linecap="round" stroke-linejoin="round" stroke-width="1.5"/><line x1="19.5" y1="11.5" x2="19.5" y2="11.5" fill="none" stroke="#323232" stroke-linecap="round" stroke-linejoin="round" stroke-width="1.5"/><path d="M14.43949,8.43949a1.49979,1.49979,0,0,1,2.121,2.121" fill="none" stroke="#323232" stroke-linecap="round" stroke-linejoin="round" stroke-width="1.5"/><path d="M9,8H6.70819a2.9996,2.9996,0,0,0-1.34161.31671l-.58521.2926A2.99968,2.99968,0,0,0,3.5506,9.749L2,12.33331" fill="none" stroke="#323232" stroke-linecap="round" stroke-linejoin="round" stroke-width="1.5"/><path d="M3,21l5.76187-2.082a4,4,0,0,0,1.96854-1.54267l2.99287-4.488a1.64576,1.64576,0,0,0-.20549-2.07681h0a1.64575,1.64575,0,0,0-2.3272-.00023L9,13H7" fill="none" stroke="#323232" stroke-linecap="round" stroke-linejoin="round" stroke-width="1.5"/></svg>