<svg id="Layer_3" data-name="Layer 3" xmlns="http://www.w3.org/2000/svg" viewBox="0 0 24 24"><rect width="24" height="24" fill="none"/><path d="M2,14,4.55054,9.74911a3,3,0,0,1,1.23083-1.1398l.58519-.29259A3.00007,3.00007,0,0,1,7.7082,8H9" fill="none" stroke="#323232" stroke-linecap="round" stroke-linejoin="round" stroke-width="1.5"/><path d="M10.22,12.78A2.14943,2.14943,0,0,1,9,10.83V5a2,2,0,0,1,2-2h9a2,2,0,0,1,2,2v6a2,2,0,0,1-2,2H14.64816" fill="none" stroke="#323232" stroke-linecap="round" stroke-linejoin="round" stroke-width="1.5"/><path d="M9.02161,4.78558l4.87957,2.81336a3,3,0,0,0,2.99695,0l5.06922-2.92273" fill="none" stroke="#323232" stroke-linecap="round" stroke-linejoin="round" stroke-width="1.5"/><path d="M4,21l5.76187-2.082a4,4,0,0,0,1.96854-1.54267l2.99287-4.48795a1.64575,1.64575,0,0,0-.20549-2.07681h0a1.64575,1.64575,0,0,0-2.3272-.00023L10,13H8" fill="none" stroke="#323232" stroke-linecap="round" stroke-linejoin="round" stroke-width="1.5"/></svg>