<?xml version="1.0" encoding="UTF-8"?><svg version="1.1" viewBox="0 0 24 24" xmlns="http://www.w3.org/2000/svg" xmlns:xlink="http://www.w3.org/1999/xlink"><g stroke-linecap="round" stroke-width="1.5" stroke="#323232" fill="none" stroke-linejoin="round"><path d="M3 16.291h2.334l1.68194e-08 1.07647e-11c.35362.000226345.69284-.140066.943-.39v0l2.7124e-08-2.71486e-08c.249934-.25016.390226-.58938.39-.943v-5.334l3.4717e-08-5.60807e-05c.000211472-.35362-.140095-.692834-.39004-.942984v0l-1.21612e-08-1.21502e-08c-.25016-.249934-.58938-.390226-.943-.39h-2.33396"></path><path d="M21 8.291h-2.333l2.5552e-08 1.63549e-11c-.35362-.000226356-.69284.140066-.943.39v0l-5.33328e-08 5.33811e-08c-.249934.25016-.390226.58938-.39.943v5.334l-3.46494e-08 5.59676e-05c-.000211502.35362.140095.692834.39004.942984v0l4.21359e-08 4.20978e-08c.25016.249934.58938.390226.943.39h2.33296"></path><path d="M17.354 15.188h-.86l5.37268e-09 4.10338e-12c-.286052-.000218364-.568796.0611736-.829.18l-4.207 1.916"></path><path d="M10.645 9.209l-3.50822e-08-2.07762e-08c-.506514-.299965-1.11992-.360024-1.675-.164l-2.3.829"></path><path d="M17.494 8.977l-2.876-1.266 -5.73112e-08-2.52221e-08c-.616351-.27125-1.32783-.214121-1.893.152l-2.61 1.691 1.26906e-07-8.22509e-08c-.697965.452368-.897061 1.3849-.444693 2.08286 .070755.109169.155357.20871.251693.296137v0l1.34328e-07 1.21648e-07c.449272.406864 1.09858.504969 1.648.249l1.556-.726"></path><path d="M13.126 11.455l.79.717 -6.66265e-08-6.03649e-08c.818565.741636.880929 2.00643.139293 2.825 -.0416913.0460159-.0855029.0900652-.131293.132005l-2.017 1.846 -4.31109e-08 3.94589e-08c-.761378.69688-1.92801.699913-2.693.00699993l-1.386-1.257 -1.57373e-08-1.39884e-08c-.329174-.292594-.745722-.468353-1.185-.5"></path><rect width="18" height="18" x="3" y="3" rx="2.20912" ry="0"></rect></g><path fill="none" d="M0 0h24v24h-24Z"></path></svg>