<svg id="Layer_3" data-name="Layer 3" xmlns="http://www.w3.org/2000/svg" viewBox="0 0 24 24"><rect width="24" height="24" fill="none"/><path d="M8,3l4.25089,2.55054a3,3,0,0,1,1.1398,1.23084l.29259.58519A3,3,0,0,1,14,8.70821V10.5" fill="none" stroke="#323232" stroke-linecap="round" stroke-linejoin="round" stroke-width="1.5"/><path d="M7.5,14.64783V18a3,3,0,0,0,3,3H19a3,3,0,0,0,3-3V13.5a3,3,0,0,0-3-3H9" fill="none" stroke="#323232" stroke-linecap="round" stroke-linejoin="round" stroke-width="1.5"/><path d="M9,9v2l2.1897,2.19055a1.64575,1.64575,0,0,1-2.077,2.53272l-4.488-2.99286A3.99976,3.99976,0,0,1,3.082,10.76184L2,7.7674" fill="none" stroke="#323232" stroke-linecap="round" stroke-linejoin="round" stroke-width="1.5"/><path d="M11.61695,13.93574l2.46653,1.44084a1.35613,1.35613,0,0,0,1.36808,0L21.5,11.84326" fill="none" stroke="#323232" stroke-linecap="round" stroke-linejoin="round" stroke-width="1.5"/></svg>