<svg id="Layer_3" data-name="Layer 3" xmlns="http://www.w3.org/2000/svg" viewBox="0 0 24 24"><path d="M6.5,15l1.156.578A3.99768,3.99768,0,0,0,9.44431,16H16a1.5,1.5,0,0,0,1.5-1.5h0A1.5,1.5,0,0,0,16,13H11.876" fill="none" stroke="#323232" stroke-linecap="round" stroke-linejoin="round" stroke-width="1.5"/><circle cx="12" cy="12" r="9.5" fill="none" stroke="#323232" stroke-linecap="round" stroke-linejoin="round" stroke-width="1.5"/><path d="M7,8H9.41335a2,2,0,0,1,1.2.4l2.23727,1.67794a1.62336,1.62336,0,0,1,.17388,2.44657h0a1.62335,1.62335,0,0,1-2.1219.15079L9.5,11.62335" fill="none" stroke="#323232" stroke-linecap="round" stroke-linejoin="round" stroke-width="1.5"/><path d="M0,0H24V24H0Z" fill="none"/></svg>