<?xml version="1.0" encoding="UTF-8"?><svg version="1.1" viewBox="0 0 24 24" xmlns="http://www.w3.org/2000/svg" xmlns:xlink="http://www.w3.org/1999/xlink"><!--Generated by IJSVG (https://github.com/iconjar/IJSVG)--><g stroke-linecap="round" stroke-width="1.5" stroke="#323232" fill="none" stroke-linejoin="round"><path d="M8,14v-9.5c0,-0.828 0.672,-1.5 1.5,-1.5v0c0.828,0 1.5,0.672 1.5,1.5"></path><path d="M14,12v-8.333c0,-0.828 -0.672,-1.5 -1.5,-1.5v0c-0.828,0 -1.5,0.672 -1.5,1.5v8.333"></path><path d="M14,9.5c0,-0.828 0.672,-1.5 1.5,-1.5v0c0.828,0 1.5,0.672 1.5,1.5v3.5"></path><path d="M8,14l-1.884,-1.884c-0.616,-0.616 -1.616,-0.616 -2.232,0v0c-0.514,0.514 -0.594,1.319 -0.191,1.924l3.526,5.288c1.113,1.669 2.986,2.672 4.992,2.672h1.789c3.314,0 6,-2.686 6,-6v-4v-1.5c0,-0.828 -0.672,-1.5 -1.5,-1.5v0c-0.828,0 -1.5,0.672 -1.5,1.5"></path></g><path fill="none" d="M0,0h24v24h-24Z"></path></svg>