<svg viewBox="0 0 24 24" xmlns="http://www.w3.org/2000/svg"><g stroke-linecap="round" stroke-width="1.5" stroke="#323232" fill="none" stroke-linejoin="round"><path d="M16.5 13.125h-9"/><path d="M15 16.5H9l0-.001c-.83 0-1.5-.68-1.5-1.5 -.01-.01-.01-.01-.001-.01v-6l-.01-.01c-.01-.83.67-1.5 1.49-1.5 0-.001 0 0 0 0h6l-.01 0c.82-.01 1.49.67 1.49 1.49 0 0-.01 0-.01 0v6l0 0c0 .82-.68 1.49-1.5 1.49 -.01 0-.01-.01-.01-.01Z"/><path d="M12 3a9 9 0 1 0 0 18 9 9 0 1 0 0-18Z"/><path d="M10 10.5l4 0"/></g><path fill="none" d="M24 24H0V0h24Z"/></svg>