<?xml version="1.0" encoding="UTF-8"?><svg version="1.1" viewBox="0 0 24 24" xmlns="http://www.w3.org/2000/svg" xmlns:xlink="http://www.w3.org/1999/xlink"><g stroke-linecap="round" stroke-width="1.5" stroke="#323232" fill="none" stroke-linejoin="round"><path d="M6.234 12.883l2.034 3.558 3.2904e-08 5.79415e-08c.315724.555966.905641.899607 1.545.9h4.374l8.41231e-08-5.16671e-11c.639358-.000392721 1.22928-.344034 1.545-.9l2.034-3.558 1.81378e-08-3.18182e-08c.312-.547326.312-1.21867-3.62757e-08-1.766l-2.034-3.558 4.73374e-08 8.33576e-08c-.315724-.555966-.905641-.899607-1.545-.9h-4.374l-2.76067e-08 1.69571e-11c-.639358.0003927-1.22928.344034-1.545.9l-2.034 3.558 6.25606e-08-1.09747e-07c-.312.547326-.312001 1.21867-1.25121e-07 1.766Z"></path><rect width="18" height="18" x="3" y="3" rx="2.7614" ry="0"></rect><circle cx="11.957" cy="12" r="2.372"></circle></g><rect width="24" height="24" fill="none"></rect></svg>