<svg id="Layer_3" data-name="Layer 3" xmlns="http://www.w3.org/2000/svg" viewBox="0 0 24 24"><path d="M18,16h3a0,0,0,0,1,0,0v2.5a.5.5,0,0,1-.5.5h-2a.5.5,0,0,1-.5-.5V16A0,0,0,0,1,18,16Z" fill="none" stroke="#323232" stroke-linecap="round" stroke-linejoin="round" stroke-width="1.5"/><path d="M21,11H18a1,1,0,0,0-1,1v3.5a.5.5,0,0,0,.5.5h4a.5.5,0,0,0,.5-.5V12A1,1,0,0,0,21,11Z" fill="none" stroke="#323232" stroke-linecap="round" stroke-linejoin="round" stroke-width="1.5"/><path d="M14,18V9a2,2,0,0,0-2-2H4A2,2,0,0,0,2,9v9" fill="none" stroke="#323232" stroke-linecap="round" stroke-linejoin="round" stroke-width="1.5"/><path d="M19.5,11V4a2,2,0,0,0-2-2H10A2,2,0,0,0,8,4V7" fill="none" stroke="#323232" stroke-linecap="round" stroke-linejoin="round" stroke-width="1.5"/><path d="M14,18a1.99944,1.99944,0,0,0-1.9989-2H4a1.99944,1.99944,0,0,0-2,1.9989V20a1.99944,1.99944,0,0,0,1.9989,2H12a1.99944,1.99944,0,0,0,2-1.9989V18Z" fill="none" stroke="#323232" stroke-linecap="round" stroke-linejoin="round" stroke-width="1.5"/><path d="M10.5,19.06578h-5" fill="none" stroke="#323232" stroke-linecap="round" stroke-linejoin="round" stroke-width="1.5"/><path d="M0,24H24V0H0Z" fill="none"/></svg>