<?xml version="1.0" encoding="UTF-8"?><svg version="1.1" viewBox="0 0 24 24" xmlns="http://www.w3.org/2000/svg" xmlns:xlink="http://www.w3.org/1999/xlink"><g stroke-linecap="round" stroke-width="1.5" stroke="#323232" fill="none" stroke-linejoin="round"><path d="M21 17h-18"></path><path d="M15.5 13h-7c-1.105 0-2-.895-2-2v-2c0-1.105.895-2 2-2h7c1.105 0 2 .895 2 2v2c0 1.105-.895 2-2 2Z"></path><path d="M18 21h-12c-1.657 0-3-1.343-3-3v-12c0-1.657 1.343-3 3-3h12c1.657 0 3 1.343 3 3v12c0 1.657-1.343 3-3 3Z"></path></g><path fill="none" d="M24 24h-24v-24h24v24Z"></path></svg>