<svg id="Layer_3" data-name="Layer 3" xmlns="http://www.w3.org/2000/svg" viewBox="0 0 24 24"><path d="M9,3H6A3,3,0,0,0,3,6v6" fill="none" stroke="#323232" stroke-linecap="round" stroke-linejoin="round" stroke-width="1.5"/><path d="M12,21h6a3,3,0,0,0,3-3V15" fill="none" stroke="#323232" stroke-linecap="round" stroke-linejoin="round" stroke-width="1.5"/><circle cx="16" cy="6" r="4" fill="none" stroke="#323232" stroke-linecap="round" stroke-linejoin="round" stroke-width="1.5"/><line x1="21" y1="11" x2="18.828" y2="8.828" fill="none" stroke="#323232" stroke-linecap="round" stroke-linejoin="round" stroke-width="1.5"/><path d="M6.77389,15.15748,7,15.38707l.22614-.22962a2.18706,2.18706,0,0,1,3.12635,0h0a2.2692,2.2692,0,0,1,0,3.17449L8.23743,20.47955a1.73131,1.73131,0,0,1-2.47486,0L3.64751,18.332a2.2692,2.2692,0,0,1,0-3.17451h0A2.18708,2.18708,0,0,1,6.77389,15.15748Z" fill="none" stroke="#323232" stroke-linecap="round" stroke-linejoin="round" stroke-width="1.5"/><rect width="24" height="24" fill="none"/></svg>