<?xml version="1.0" encoding="UTF-8"?><svg version="1.1" viewBox="0 0 24 24" xmlns="http://www.w3.org/2000/svg" xmlns:xlink="http://www.w3.org/1999/xlink"><!--Generated by IJSVG (https://github.com/iconjar/IJSVG)--><g fill="none"><path d="M0,0h24v24h-24Z"></path><path stroke="#323232" stroke-linecap="round" stroke-linejoin="round" stroke-width="1.5" d="M6,21h-2c-0.552,0 -1,-0.448 -1,-1v-6c0,-0.552 0.448,-1 1,-1h2c0.552,0 1,0.448 1,1v6c0,0.552 -0.448,1 -1,1Z"></path><path stroke="#323232" stroke-linecap="round" stroke-linejoin="round" stroke-width="1.5" d="M13,17h2.333c0.433,0 0.854,-0.14 1.2,-0.4l2.416,-1.812c0.603,-0.452 1.447,-0.392 1.98,0.141v0c0.592,0.592 0.592,1.551 0,2.142l-2.073,2.073c-0.558,0.558 -1.27,0.939 -2.044,1.094l-2.93,0.586c-0.581,0.116 -1.18,0.102 -1.755,-0.042l-2.65,-0.662c-0.317,-0.08 -0.642,-0.12 -0.969,-0.12h-1.508"></path><path stroke="#323232" stroke-linecap="round" stroke-linejoin="round" stroke-width="1.5" d="M13,17h1.485c0.837,0 1.515,-0.678 1.515,-1.515v-0.303c0,-0.695 -0.473,-1.301 -1.147,-1.469l-2.292,-0.573c-0.373,-0.093 -0.755,-0.14 -1.139,-0.14v0c-0.927,0 -1.834,0.274 -2.605,0.789l-1.817,1.211"></path><path stroke="#323232" stroke-linecap="round" stroke-linejoin="round" stroke-width="1.5" d="M18.889,3.522c1.466,0.213 2.262,1.646 2.087,2.848c-0.354,2.439 -4.727,3.842 -4.801,3.832c-0.074,-0.011 -3.866,-2.601 -3.512,-5.039c0.175,-1.202 1.345,-2.349 2.811,-2.136c0.838,0.122 1.332,0.594 1.599,0.989c0.37,-0.304 0.978,-0.616 1.816,-0.494Z"></path></g></svg>