<svg id="Layer_3" data-name="Layer 3" xmlns="http://www.w3.org/2000/svg" viewBox="0 0 24 24"><path d="M0,24H24V0H0Z" fill="none"/><path d="M18.6697,16.76723l-.1697.1723-.17541-.1854a1.59479,1.59479,0,0,0-2.305-.02314l-.03566.03621a1.70808,1.70808,0,0,0,0,2.38246l1.75428,1.78127a1.06892,1.06892,0,0,0,1.52357,0l1.75426-1.78123a1.70809,1.70809,0,0,0,0-2.38247h0A1.64617,1.64617,0,0,0,18.6697,16.76723Z" fill="none" stroke="#323232" stroke-linecap="round" stroke-linejoin="round" stroke-width="1.5"/><path d="M21,12a9.02358,9.02358,0,0,1-.20365,1.89474" fill="none" stroke="#323232" stroke-linecap="round" stroke-linejoin="round" stroke-width="1.5"/><path d="M12,3a9,9,0,0,1,9,9" fill="none" stroke="#323232" stroke-linecap="round" stroke-linejoin="round" stroke-width="1.5"/><path d="M3,12a9,9,0,0,1,9-9" fill="none" stroke="#323232" stroke-linecap="round" stroke-linejoin="round" stroke-width="1.5"/><path d="M13.89474,20.79635A8.99186,8.99186,0,0,1,3,12" fill="none" stroke="#323232" stroke-linecap="round" stroke-linejoin="round" stroke-width="1.5"/><path d="M6,12H9.4998l1.5003,2.25,1.9998-4.5L14.5002,12H18" fill="none" stroke="#323232" stroke-linecap="round" stroke-linejoin="round" stroke-width="1.5"/></svg>