<?xml version="1.0" encoding="UTF-8"?><svg version="1.1" viewBox="0 0 24 24" xmlns="http://www.w3.org/2000/svg" xmlns:xlink="http://www.w3.org/1999/xlink"><!--Generated by IJSVG (https://github.com/iconjar/IJSVG)--><g stroke-linecap="round" stroke-width="1.5" stroke="#323232" fill="none" stroke-linejoin="round"><path d="M15.059,8.979c-2.144,-1.287 -4.756,-0.201 -5.837,1.616c-2.208,3.683 1.951,10.275 2.068,10.339"></path><path d="M20.05,11.969c2.144,1.287 2.416,4.097 1.325,5.911c-2.205,3.674 -9.978,3.115 -10.085,3.054"></path><path d="M16.883,11.59c-0.15,-0.801 -0.607,-1.875 -1.824,-2.611"></path><path d="M16.883,11.59c0.777,-0.25 1.94,-0.36 3.167,0.379"></path><path d="M14.083,8.563c0.311,-0.848 0.421,-1.722 0.219,-2.558c-0.446,-1.819 -2.355,-3.425 -4.506,-2.906c-1.227,0.3 -1.896,1.09 -2.229,1.723c-0.6,-0.418 -1.55,-0.809 -2.778,-0.509c-2.152,0.52 -3.128,2.813 -2.682,4.632c0.658,2.731 4.488,4.304 6.495,4.929"></path></g><path fill="none" d="M0,0h24v24h-24Z"></path></svg>