<svg id="Layer_3" data-name="Layer 3" xmlns="http://www.w3.org/2000/svg" viewBox="0 0 24 24"><path id="Health-Icon" d="M7.2871,11.1867A5.02808,5.02808,0,0,0,8.615,14.35424a8.50636,8.50636,0,0,0,2.25558,1.85245,2.31253,2.31253,0,0,0,2.37021-.06984,9.23265,9.23265,0,0,0,2.06251-1.8A5.18923,5.18923,0,0,0,16.7129,11.1867,2.75631,2.75631,0,0,0,15.979,9.29175,2.44542,2.44542,0,0,0,14.19729,8.5a2.49531,2.49531,0,0,0-2.18105,1.00638L12.00012,9.53l-.01636-.02366A2.39368,2.39368,0,0,0,9.97174,8.5,2.64021,2.64021,0,0,0,7.2871,11.1867Z" fill="none" stroke="#323232" stroke-linecap="round" stroke-linejoin="round" stroke-width="1.5" fill-rule="evenodd"/><rect x="3" y="3" width="18" height="18" rx="5" stroke-width="1.5" stroke="#323232" stroke-linecap="round" stroke-linejoin="round" fill="none"/><path d="M24,0V24H0V0Z" fill="none"/></svg>