<svg id="Layer_3" data-name="Layer 3" xmlns="http://www.w3.org/2000/svg" viewBox="0 0 24 24"><path d="M12.50909,5.97422,12,6.49114l-.50915-.517a4.93852,4.93852,0,0,0-7.039,0h0a5.12426,5.12426,0,0,0,0,7.14738l5.39265,5.47563a3.02463,3.02463,0,0,0,4.31109,0l5.39262-5.47552a5.12429,5.12429,0,0,0,0-7.1474h0A4.93854,4.93854,0,0,0,12.50909,5.97422Z" fill="none" stroke="#323232" stroke-linecap="round" stroke-linejoin="round" stroke-width="1.5"/><path d="M13.24994,11.00011,10.75006,13.5" fill="none" stroke="#323232" stroke-linecap="round" stroke-linejoin="round" stroke-width="1.5"/><path d="M10.75006,11.00011,13.24994,13.5" fill="none" stroke="#323232" stroke-linecap="round" stroke-linejoin="round" stroke-width="1.5"/><path d="M0,0H24V24H0Z" fill="none"/></svg>