<?xml version="1.0" encoding="UTF-8"?><svg version="1.1" viewBox="0 0 24 24" xmlns="http://www.w3.org/2000/svg" xmlns:xlink="http://www.w3.org/1999/xlink"><!--Generated by IJSVG (https://github.com/iconjar/IJSVG)--><g fill="none"><path d="M0,0h24v24h-24Z"></path><path stroke="#323232" stroke-linecap="round" stroke-linejoin="round" stroke-width="1.5" d="M2,12h1.54"></path><path stroke="#323232" stroke-linecap="round" stroke-linejoin="round" stroke-width="1.5" d="M20.54,12h1.46"></path><path stroke="#323232" stroke-linecap="round" stroke-linejoin="round" stroke-width="1.5" d="M4.93,19.07l1.09,-1.09"></path><path stroke="#323232" stroke-linecap="round" stroke-linejoin="round" stroke-width="1.5" d="M18.04,5.96l1.03,-1.03"></path><path stroke="#323232" stroke-linecap="round" stroke-linejoin="round" stroke-width="1.5" d="M12,22v-1.54"></path><path stroke="#323232" stroke-linecap="round" stroke-linejoin="round" stroke-width="1.5" d="M12,3.46v-1.46"></path><path stroke="#323232" stroke-linecap="round" stroke-linejoin="round" stroke-width="1.5" d="M19.07,19.07l-1.09,-1.09"></path><path stroke="#323232" stroke-linecap="round" stroke-linejoin="round" stroke-width="1.5" d="M5.96,5.96l-1.03,-1.03"></path><path stroke="#323232" stroke-linecap="round" stroke-linejoin="round" stroke-width="1.5" d="M12.351,9.661l-0.351,0.373l-0.351,-0.373c-0.77,-0.818 -2.047,-0.885 -2.899,-0.153v0c-0.87,0.748 -0.974,2.045 -0.258,2.943c1.024,1.284 2.198,2.551 3.508,3.549c1.343,-1.022 2.542,-2.328 3.584,-3.645c0.676,-0.855 0.538,-2.096 -0.289,-2.807l-0.038,-0.033c-0.858,-0.739 -2.136,-0.672 -2.906,0.146Z"></path></g></svg>