<svg width="24" height="24" viewBox="0 0 24 24" fill="none" xmlns="http://www.w3.org/2000/svg">
<path fill-rule="evenodd" clip-rule="evenodd" d="M12.1673 5.26132C13.1504 4.35249 14.4231 3.81941 15.7604 3.75632L16.0287 3.75C17.5529 3.75 19.0135 4.36176 20.0982 5.46425L20.281 5.6617C22.3097 7.95832 22.2305 11.4407 20.0826 13.6479L14.6901 19.1233C13.9806 19.8441 13.0115 20.25 12.0001 20.25C10.9886 20.25 10.0195 19.8441 9.31016 19.1234L3.91437 13.6446C1.69528 11.3641 1.69528 7.73147 3.93161 5.4339L4.13633 5.23712C5.1836 4.2811 6.55136 3.75 7.97137 3.75C9.4838 3.75 10.9335 4.35227 12.0003 5.42269L12.1673 5.26132ZM19.0137 6.50033C18.2264 5.70045 17.151 5.25 16.0287 5.25C14.9064 5.25 13.831 5.70044 13.0435 6.50046L12.5344 7.01738C12.2406 7.3157 11.7594 7.31569 11.4657 7.01737L10.9564 6.50025C10.1691 5.70041 9.09369 5.25 7.97137 5.25C6.92581 5.25 5.9187 5.64106 5.16224 6.33124L4.98938 6.49717C3.33694 8.19527 3.33694 10.9003 4.98624 12.5952L10.379 18.071C10.8066 18.5054 11.3906 18.75 12.0001 18.75C12.6096 18.75 13.1936 18.5054 13.6213 18.0709L19.0107 12.5986C20.6077 10.9575 20.6667 8.36406 19.1689 6.66819L19.0137 6.50033Z" fill="#0F1035"/>
</svg>
