<?xml version="1.0" encoding="UTF-8"?><svg version="1.1" viewBox="0 0 24 24" xmlns="http://www.w3.org/2000/svg" xmlns:xlink="http://www.w3.org/1999/xlink"><g fill="none"><path d="M0 0h24v24h-24Z"></path><path stroke="#323232" stroke-linecap="round" stroke-linejoin="round" stroke-width="1.5" d="M15.006 4.765l2.62659e-07 1.1948e-07c-4.28465-1.94904-9.33806-.0556529-11.2871 4.229 -1.94904 4.28465-.0556529 9.33806 4.229 11.2871 4.28465 1.94904 9.33806.0556529 11.2871-4.229 1.01993-2.24216 1.01993-4.81594-2.4364e-07-7.0581"></path><path stroke="#323232" stroke-linecap="round" stroke-linejoin="round" stroke-width="1.5" d="M19 9l-1.74846e-07-3.55271e-15c-2.20914-9.65645e-08-4-1.79086-4-4 9.65645e-08-2.20914 1.79086-4 4-4 2.20914 9.65645e-08 4 1.79086 4 4v8.88178e-16c0 2.20914-1.79086 4-4 4 0 0 0 0 0 0"></path><path stroke="#323232" stroke-linecap="round" stroke-linejoin="round" stroke-width="1.5" d="M20.086 4.959l6.63888e-10-1.54543e-12c-.0243005 5.65446e-05-.043954.0198018-.0438975.0441023 5.65446e-05.0243005.0198018.043954.0441023.0438975 .0243005-5.65446e-05.043954-.0198018.0438975-.0441023 -2.24939e-06-.000966694-3.63561e-05-.00193305-.000102265-.0028975v8.88178e-16c0-.0243005-.0196995-.044-.044-.044 0 0 0 0 0 0"></path><path stroke="#323232" stroke-linecap="round" stroke-linejoin="round" stroke-width="1.5" d="M17.914 4.959l-2.39691e-09 6.00195e-11c-.0242929.000608316-.0434931.0207948-.0428848.0450877 .000608316.0242929.0207948.0434931.0450877.0428848 .0242929-.000608316.0434931-.0207948.0428848-.0450877 -1.57459e-05-.000628808-4.49737e-05-.00125721-8.76634e-05-.00188476l1.4678e-09-1.13651e-05c0-.0243005-.0196995-.044-.044-.044 -.000337155 0-.000674298 3.87522e-06-.00101136 1.16249e-05"></path><path stroke="#323232" stroke-linecap="round" stroke-linejoin="round" stroke-width="1.5" d="M12.69 15.533l-5.63474e-08 5.61331e-08c-.322325.321099-.759031.500961-1.214.5v0l-7.685e-09 1.62395e-11c-.454969.000961487-.891675-.178901-1.214-.5l-2.056-2.056 -9.09868e-09-9.09868e-09c-.842787-.842787-.842787-2.20921 1.81974e-08-3.052 .842787-.842787 2.20921-.842787 3.052 1.81974e-08l.218.217 .218-.217 -9.09868e-09 9.09868e-09c.842787-.842787 2.20921-.842787 3.052-1.81974e-08 .842787.842787.842787 2.20921 1.81974e-08 3.052Z"></path></g></svg>