<?xml version="1.0" encoding="UTF-8"?><svg version="1.1" viewBox="0 0 24 24" xmlns="http://www.w3.org/2000/svg" xmlns:xlink="http://www.w3.org/1999/xlink"><defs><path d="M18.364 5.636l-2.46375e-07-2.46375e-07c3.51472 3.51472 3.51472 9.2132 2.55411e-06 12.7279 -3.51472 3.51472-9.2132 3.51472-12.7279 2.55411e-06 -3.51472-3.51472-3.51472-9.2132-2.55411e-06-12.7279 6.86377e-07-6.86377e-07 1.37498e-06-1.37498e-06 2.06136e-06-2.06136e-06l4.48663e-07-4.48663e-07c3.51472-3.51472 9.2132-3.51472 12.7279 8.97326e-07" id="a"></path></defs><g stroke-linecap="round" stroke-width="1.5" stroke="#323232" fill="none" stroke-linejoin="round"><use xlink:href="#a"></use><use xlink:href="#a"></use><path d="M11.5384 9.6505l.46158.46193 .4616-.46195 9.75044e-09-9.76079e-09c.865723-.866642 2.27008-.867388 3.13673-.00166474 .000555215.000554626.00111013.00110955.00166476.00166476v0l-5.02692e-08-5.0325e-08c.86666.867623.86666 2.2733 1.00538e-07 3.14092l-2.9275 2.92981 2.72515e-08-2.72818e-08c-.370998.371412-.972841.371746-1.34425.000747845 -.000249402-.000249125-.000498666-.000498388-.000747791-.000747791l-2.92749-2.92975 1.05677e-07 1.05795e-07c-.866661-.867626-.866661-2.2733-2.11354e-07-3.14093v0l-1.72474e-07 1.72664e-07c.865706-.866659 2.27007-.867432 3.13673-.00172532 .000565272.00056465.00113024.00112961.0016949.00169487Z"></path></g><rect width="24" height="24" fill="none"></rect></svg>