<?xml version="1.0" encoding="UTF-8"?><svg version="1.1" viewBox="0 0 24 24" xmlns="http://www.w3.org/2000/svg" xmlns:xlink="http://www.w3.org/1999/xlink"><!--Generated by IJSVG (https://github.com/iconjar/IJSVG)--><g stroke-linecap="round" stroke-width="1.5" stroke="#323232" fill="none" stroke-linejoin="round"><path d="M12,5.711c0.689,-0.806 1.881,-1.711 3.696,-1.711c3.175,0 5.304,2.98 5.304,5.755c0,5.801 -7.222,10.245 -9,10.245c-1.778,0 -9,-4.444 -9,-10.245c0,-2.775 2.129,-5.755 5.304,-5.755c1.815,0 3.007,0.905 3.696,1.711Z"></path><path d="M12,14v-2.5"></path><path d="M12.5303,10.2197c0.292893,0.292893 0.292893,0.767767 0,1.06066c-0.292893,0.292893 -0.767767,0.292893 -1.06066,0c-0.292893,-0.292893 -0.292893,-0.767767 0,-1.06066c0.292893,-0.292893 0.767767,-0.292893 1.06066,0"></path></g><path fill="none" d="M0,0h24v24h-24Z"></path></svg>