<?xml version="1.0" encoding="UTF-8"?><svg version="1.1" viewBox="0 0 24 24" xmlns="http://www.w3.org/2000/svg" xmlns:xlink="http://www.w3.org/1999/xlink"><!--Generated by IJSVG (https://github.com/iconjar/IJSVG)--><g stroke-linecap="round" stroke-width="1.5" stroke="#323232" fill="none" stroke-linejoin="round"><path d="M12.18,8v3.43"></path><path d="M12.18,2v2.43"></path><path d="M12.18,15v3.43"></path><path d="M13.165,4c0.846,0 1.414,0.745 1.414,1.439c0.001,1.408 -2.356,2.561 -2.399,2.561c-0.043,0 -2.4,-1.153 -2.4,-2.561c0,-0.694 0.568,-1.439 1.414,-1.439c0.484,0 0.802,0.226 0.986,0.428c0.184,-0.202 0.501,-0.428 0.985,-0.428Z"></path><path d="M13.165,11c0.846,0 1.414,0.745 1.414,1.439c0,1.408 -2.357,2.561 -2.4,2.561c-0.043,0 -2.4,-1.153 -2.4,-2.561c0,-0.694 0.568,-1.439 1.414,-1.439c0.484,0 0.802,0.226 0.986,0.428c0.185,-0.202 0.502,-0.428 0.986,-0.428Z"></path><path d="M13.17,18c0.84,0 1.41,0.74 1.41,1.44c0,1.41 -2.36,2.56 -2.4,2.56c-0.04,0 -2.4,-1.15 -2.4,-2.56c0,-0.7 0.57,-1.44 1.41,-1.44c0.49,0 0.81,0.23 0.99,0.43c0.18,-0.2 0.5,-0.43 0.99,-0.43Z"></path><path d="M19.58,11.5v3.43"></path><path d="M20.565,14.5c0.846,0 1.414,0.745 1.414,1.439c0,1.408 -2.357,2.561 -2.4,2.561c-0.043,0 -2.4,-1.153 -2.4,-2.561c0,-0.694 0.568,-1.439 1.414,-1.439c0.484,0 0.802,0.226 0.986,0.428c0.185,-0.202 0.502,-0.428 0.986,-0.428Z"></path><path d="M20.565,7.5c0.846,0 1.414,0.745 1.414,1.439c0,1.408 -2.357,2.561 -2.4,2.561c-0.043,0 -2.4,-1.153 -2.4,-2.561c0,-0.694 0.568,-1.439 1.414,-1.439c0.484,0 0.802,0.226 0.986,0.428c0.185,-0.202 0.502,-0.428 0.986,-0.428Z"></path><path d="M19.58,5v2.93"></path><path d="M4.42,11.5v3.43"></path><path d="M3.435,14.5c-0.846,0 -1.414,0.745 -1.414,1.439c0,1.408 2.357,2.561 2.4,2.561c0.043,0 2.4,-1.153 2.4,-2.561c0,-0.694 -0.568,-1.439 -1.414,-1.439c-0.484,0 -0.802,0.226 -0.986,0.428c-0.185,-0.202 -0.502,-0.428 -0.986,-0.428Z"></path><path d="M3.435,7.5c-0.847,0 -1.415,0.745 -1.415,1.439c0,1.408 2.357,2.561 2.4,2.561c0.043,0 2.4,-1.153 2.4,-2.561c0,-0.694 -0.568,-1.439 -1.414,-1.439c-0.484,0 -0.802,0.226 -0.986,0.428c-0.184,-0.202 -0.501,-0.428 -0.985,-0.428Z"></path><path d="M4.42,5v2.93"></path></g><path fill="none" d="M0,0h24v24h-24Z"></path></svg>