<svg viewBox="0 0 24 24" xmlns="http://www.w3.org/2000/svg"><g fill="none"><path d="M24 0H0v24h24Z"/><g stroke-linecap="round" stroke-width="1.5" stroke="#323232" fill="none" stroke-linejoin="round"><path d="M13 4l0 3"/><path d="M23 4L1 4"/><path d="M15 8v2.2l0-.01c-.01 1.54 1.25 2.8 2.79 2.8h4.02"/><path d="M14 17l-1 3"/><path d="M18 17l1 3"/><path d="M22 19l-1.58.78 0-.01c-.28.13-.59.21-.9.21H9.99"/><path d="M15 10.2V8v0c0-.56-.45-1-1-1h-1.77l0 0c-.76-.01-1.46.42-1.79 1.1l-.45.89H6.78L5.5 7.37l0 0c-.19-.25-.48-.39-.79-.39H2.97l0 0c-.56-.01-1.01.44-1.01.99 -.01.18.05.36.14.52l2.59 4.23 -.01-.01c.09.14.25.23.42.23h4.82l1.17 2.34 -.01-.01c.5 1.01 1.54 1.65 2.68 1.65h5.64l-.01-.001c1.38 0 2.5-1.12 2.5-2.5v0l0-.01c0-3.59-2.92-6.5-6.5-6.5 0 0-.01 0-.01 0h-.5"/></g></g></svg>