<?xml version="1.0" encoding="UTF-8"?><svg version="1.1" viewBox="0 0 24 24" xmlns="http://www.w3.org/2000/svg" xmlns:xlink="http://www.w3.org/1999/xlink"><g fill="none"><path d="M0 0h24v24h-24Z"></path><path stroke="#323232" stroke-linecap="round" stroke-linejoin="round" stroke-width="1.5" d="M13 8l-3 3 4 2 -3 3"></path><path stroke="#323232" stroke-linecap="round" stroke-linejoin="round" stroke-width="1.5" d="M7.414 20.414l-3.828-3.828c-.375-.375-.586-.884-.586-1.414v-6.344c0-.53.211-1.039.586-1.414l3.828-3.828c.375-.375.884-.586 1.414-.586h6.343c.53 0 1.039.211 1.414.586l3.828 3.828c.376.375.587.884.587 1.414v6.343c0 .53-.211 1.039-.586 1.414l-3.828 3.828c-.375.376-.884.587-1.414.587h-6.344c-.53 0-1.039-.211-1.414-.586Z"></path></g></svg>