<?xml version="1.0" encoding="UTF-8"?><svg version="1.1" viewBox="0 0 24 24" xmlns="http://www.w3.org/2000/svg" xmlns:xlink="http://www.w3.org/1999/xlink"><!--Generated by IJSVG (https://github.com/iconjar/IJSVG)--><g stroke-linecap="round" stroke-width="1.5" stroke="#323232" fill="none" stroke-linejoin="round"><path d="M18.643,16.441h-6.123c-0.368,0 -0.706,-0.202 -0.88,-0.526l-6.22,-11.54c-0.398,-0.738 -1.31,-1.027 -2.061,-0.652v0c-0.785,0.393 -1.089,1.357 -0.671,2.129l7.335,13.541c0.35,0.645 1.025,1.047 1.759,1.047h6.361c0.459,0 0.859,-0.312 0.97,-0.757l0.5,-2c0.158,-0.631 -0.32,-1.242 -0.97,-1.242Z"></path><path d="M21.5,10.441c0,0.828 -1.343,1.5 -3,1.5c-1.657,0 -3,-0.672 -3,-1.5v-1.5c0,-0.828 1.343,-1.5 3,-1.5c1.657,0 3,0.672 3,1.5v1.5Z"></path></g><path fill="none" fill-rule="evenodd" d="M0,0h24v24h-24Z"></path></svg>