<svg xmlns="http://www.w3.org/2000/svg" viewBox="0 0 24 24"><g id="Layer_2" data-name="Layer 2"><path d="M0,0H24V24H0Z" fill="none"/><line x1="20" y1="8" x2="16.99457" y2="7.01642" fill="none" stroke="#323232" stroke-linecap="round" stroke-linejoin="round" stroke-width="1.5"/><path d="M13,20c0,1.104-1.79067,2-4,2s-4-.896-4-2V18c0-1.104,1.79067-2,4-2s4,.896,4,2Z" fill="none" stroke="#323232" stroke-linecap="round" stroke-linejoin="round" stroke-width="1.5"/><path d="M5.03485,17.82715A2.99058,2.99058,0,0,1,3,15V13.26526a2.99994,2.99994,0,0,1,3.2301-2.99109l7.87958.60608a2,2,0,0,0,2.05078-1.3617l.75073-2.25219,1.75544-5.26612L22,2,19.91663,8.25l-1.88245,5.64734a5.98811,5.98811,0,0,1-5.04456,4.05115" fill="none" stroke="#323232" stroke-linecap="round" stroke-linejoin="round" stroke-width="1.5"/></g></svg>