<svg id="Layer_3" data-name="Layer 3" xmlns="http://www.w3.org/2000/svg" viewBox="0 0 24 24"><path d="M24,24V0H0V24Z" fill="none"/><path d="M19.40613,20.92047a.04666.04666,0,1,1-.00027-.00027l.00027.00027" fill="none" stroke="#323232" stroke-linecap="round" stroke-linejoin="round" stroke-width="1.5"/><path d="M15.64667,20.92047a.04667.04667,0,1,1-.00027-.00027l.00027.00027" fill="none" stroke="#323232" stroke-linecap="round" stroke-linejoin="round" stroke-width="1.5"/><polyline points="13 14 14.174 14 15.075 18.5 19.905 18.5 20.5 15.508 20.5 15.5 14.474 15.5" fill="none" stroke="#323232" stroke-linecap="round" stroke-linejoin="round" stroke-width="1.5"/><path d="M11,21H7a4,4,0,0,1-4-4V11.1a4.5,4.5,0,0,1,1.68886-3.5139l4.5-3.6a4.5,4.5,0,0,1,5.62228,0l4.5,3.6A4.5,4.5,0,0,1,21,11.1V12" fill="none" stroke="#323232" stroke-linecap="round" stroke-linejoin="round" stroke-width="1.5"/></svg>