<svg viewBox="0 0 24 24" xmlns="http://www.w3.org/2000/svg" xmlns:xlink="http://www.w3.org/1999/xlink"><defs><path d="M0 0h24v24H0Z" id="a"/></defs><g fill="none"><use xlink:href="#a"/><use xlink:href="#a"/><g stroke-linecap="round" stroke-width="1.5" stroke="#323232" fill="none" stroke-linejoin="round"><path d="M3 18v-7.34l0-.01c0-.93.42-1.8 1.15-2.37l6-4.67 -.01 0c1.08-.85 2.6-.85 3.68-.01l6 4.66 0 0c.73.56 1.15 1.44 1.15 2.36v7.33 0c0 1.65-1.35 3-3 3h-12l-.01-.001c-1.66-.01-3-1.35-3-3 0 0 0-.001 0-.001Z"/><path d="M14 12.5L11.5 15 10 13.5"/></g></g></svg>