<svg viewBox="0 0 24 24" xmlns="http://www.w3.org/2000/svg"><g stroke-linecap="round" stroke-width="1.5" stroke="#323232" fill="none" stroke-linejoin="round"><path d="M7.5 3l0 3"/><path d="M16.5 3l0 3"/><path d="M10 21H6l-.01-.001c-1.66-.01-3-1.35-3-3 0 0 0-.001 0-.001V7.49l0 0c-.01-1.66 1.34-3.01 2.99-3.01h12l-.01 0c1.65-.01 3 1.34 3 3v3.5"/><path d="M13.045 14.88v4.61l0 0c0 .82.67 1.49 1.5 1.49h5 -.01c.82 0 1.5-.68 1.5-1.5v-4.55"/><path d="M22 15.71l-4.38-3.51 0 0c-.37-.3-.89-.3-1.25-.01l-4.38 3.5"/></g><path fill="none" d="M0 0h24v24H0Z"/></svg>