<svg viewBox="0 0 24 24" xmlns="http://www.w3.org/2000/svg"><g stroke-linecap="round" stroke-width="1.5" stroke="#323232" fill="none" stroke-linejoin="round"><path d="M12.045 14.88v4.61l0 0c0 .82.67 1.49 1.5 1.49h5 -.01c.82 0 1.5-.68 1.5-1.5v-4.55"/><path d="M21 15.71l-4.38-3.51 0 0c-.37-.3-.89-.3-1.25-.01l-4.38 3.5"/><path d="M8 5H6l-.01 0c-1.11 0-2 .89-2 2 0 0 0 0 0 0v12l0 0c0 1.1.89 1.99 2 1.99h2.99"/><rect width="8" height="4" x="8" y="3" rx="1"/><path d="M16 5h2l-.01 0c1.1-.01 2 .89 2 1.99v4"/></g><path fill="none" d="M0 0h24v24H0Z"/></svg>