<svg id="Layer_3" data-name="Layer 3" xmlns="http://www.w3.org/2000/svg" viewBox="0 0 24 24"><path d="M0,0H24V24H0Z" fill="none"/><path d="M9,17H6a3,3,0,0,1-3-3V6A3,3,0,0,1,6,3H18a3,3,0,0,1,3,3v5" fill="none" stroke="#323232" stroke-linecap="round" stroke-linejoin="round" stroke-width="1.5"/><line x1="3" y1="7.5" x2="21" y2="7.5" fill="none" stroke="#323232" stroke-linecap="round" stroke-linejoin="round" stroke-width="1.5"/><path d="M13.35,21h6.3A1.35,1.35,0,0,0,21,19.65V15.91671a1.8,1.8,0,0,0-.67557-1.40558l-2.646-2.11671a1.8,1.8,0,0,0-2.24885,0l-2.754,2.20313A1.8,1.8,0,0,0,12,16.00313V19.65A1.35,1.35,0,0,0,13.35,21Z" fill="none" stroke="#323232" stroke-linecap="round" stroke-linejoin="round" stroke-width="1.5"/></svg>