<svg id="Layer_3" data-name="Layer 3" xmlns="http://www.w3.org/2000/svg" viewBox="0 0 24 24"><path d="M0,0H24V24H0Z" fill="none"/><path d="M21,8.5H17.5a2,2,0,0,1-2-2V3" fill="none" stroke="#323232" stroke-linecap="round" stroke-linejoin="round" stroke-width="1.5"/><path d="M14,21h4a3,3,0,0,0,3-3V8.50932A3,3,0,0,0,20.12132,6.388L17.612,3.87869A3,3,0,0,0,15.49069,3H7A3,3,0,0,0,4,6v4" fill="none" stroke="#323232" stroke-linecap="round" stroke-linejoin="round" stroke-width="1.5"/><path d="M3.563,15.32862l2.5-1.99993a1.5,1.5,0,0,1,1.874,0l2.5,1.99993A1.5,1.5,0,0,1,11,16.49994V20a1,1,0,0,1-1,1H4a1,1,0,0,1-1-1V16.49994A1.5,1.5,0,0,1,3.563,15.32862Z" fill="none" stroke="#323232" stroke-linecap="round" stroke-linejoin="round" stroke-width="1.5"/></svg>