<svg id="Layer_3" data-name="Layer 3" xmlns="http://www.w3.org/2000/svg" viewBox="0 0 24 24"><path d="M3,10.7145l7.93505-6.80166a1.63636,1.63636,0,0,1,2.1299,0L21,10.7145" fill="none" stroke="#323232" stroke-linecap="round" stroke-linejoin="round" stroke-width="1.5"/><path d="M18,13.06858v5.44731a1.07724,1.07724,0,0,1-1.02294,1.06178A9.85342,9.85342,0,0,0,12,21a9.85342,9.85342,0,0,0-4.97706-1.42233A1.07724,1.07724,0,0,1,6,18.51589V13.07051a1.06406,1.06406,0,0,1,1.13487-1.06857A10.56757,10.56757,0,0,1,12,13.40132a10.56757,10.56757,0,0,1,4.86513-1.39938A1.06406,1.06406,0,0,1,18,13.07051" fill="none" stroke="#323232" stroke-linecap="round" stroke-linejoin="round" stroke-width="1.5"/><path d="M12,13.40132V21" fill="none" stroke="#323232" stroke-linecap="round" stroke-linejoin="round" stroke-width="1.5"/><path d="M19.7145,9.61261V3.81818A.81818.81818,0,0,0,18.89632,3H16.44177a.81818.81818,0,0,0-.81818.81818h0V6.106" fill="none" stroke="#323232" stroke-linecap="round" stroke-linejoin="round" stroke-width="1.5"/><rect width="24" height="24" fill="none"/></svg>