<svg id="Layer_3" data-name="Layer 3" xmlns="http://www.w3.org/2000/svg" viewBox="0 0 24 24"><path d="M0,24,0,0,24,0l0,24Z" fill="none"/><circle cx="18.99999" cy="5.00001" r="2" fill="none" stroke="#323232" stroke-linecap="round" stroke-linejoin="round" stroke-width="1.5"/><path d="M14,3.23072A9.02818,9.02818,0,1,0,20.76929,10" fill="none" stroke="#323232" stroke-linecap="round" stroke-linejoin="round" stroke-width="1.5"/><path d="M8.563,9.82861l2.5-1.99992a1.5,1.5,0,0,1,1.874,0l2.5,1.99992A1.5,1.5,0,0,1,16,10.99994V14.5a1,1,0,0,1-1,1H9a1,1,0,0,1-1-1V10.99994A1.5,1.5,0,0,1,8.563,9.82861Z" fill="none" stroke="#323232" stroke-linecap="round" stroke-linejoin="round" stroke-width="1.5"/></svg>