<svg id="Layer_3" data-name="Layer 3" xmlns="http://www.w3.org/2000/svg" viewBox="0 0 24 24"><path d="M0,24V0H24V24Z" fill="none"/><path d="M3,17V10.95971a4.5,4.5,0,0,1,1.68885-3.5139L8.8765,4.09567a5,5,0,0,1,6.247,0l4.18765,3.35013A4.5,4.5,0,0,1,21,10.9597V17a4,4,0,0,1-4,4H7A4,4,0,0,1,3,17Z" fill="none" stroke="#323232" stroke-linecap="round" stroke-linejoin="round" stroke-width="1.5"/><rect x="9" y="12.5" width="6" height="4" rx="1.25" stroke-width="1.5" stroke="#323232" stroke-linecap="round" stroke-linejoin="round" fill="none"/><path d="M10.25,12.5V11.25A1.75,1.75,0,0,1,12,9.5h0a1.75,1.75,0,0,1,1.75,1.75V12.5" fill="none" stroke="#323232" stroke-linecap="round" stroke-linejoin="round" stroke-width="1.5"/></svg>