<svg id="Layer_3" data-name="Layer 3" xmlns="http://www.w3.org/2000/svg" viewBox="0 0 24 24"><path d="M21,14v4a3,3,0,0,1-3,3H14" fill="none" stroke="#323232" stroke-linecap="round" stroke-linejoin="round" stroke-width="1.5"/><path d="M3,11V6A3,3,0,0,1,6,3H7" fill="none" stroke="#323232" stroke-linecap="round" stroke-linejoin="round" stroke-width="1.5"/><path d="M13.5,11v1.48934a.50337.50337,0,0,0,.83221.38111L16.5,11H19a2,2,0,0,0,2-2V5a2,2,0,0,0-2-2H12a2,2,0,0,0-2,2V9a2,2,0,0,0,2,2Z" fill="none" stroke="#323232" stroke-linecap="round" stroke-linejoin="round" stroke-width="1.5"/><path d="M3.563,15.26832l2.5-1.99993a1.5,1.5,0,0,1,1.874,0l2.5,1.99993A1.5,1.5,0,0,1,11,16.43964v3.50007a1,1,0,0,1-1,1H4a1,1,0,0,1-1-1V16.43964A1.5,1.5,0,0,1,3.563,15.26832Z" fill="none" stroke="#323232" stroke-linecap="round" stroke-linejoin="round" stroke-width="1.5"/><path d="M24,0H0V24H24Z" fill="none"/></svg>