<?xml version="1.0" encoding="UTF-8"?><svg version="1.1" viewBox="0 0 24 24" xmlns="http://www.w3.org/2000/svg" xmlns:xlink="http://www.w3.org/1999/xlink"><g stroke-linecap="round" stroke-width="1.5" stroke="#323232" fill="none" stroke-linejoin="round"><path d="M8 17.5l2 2 -2 2"></path><path d="M10 19.5h-6"></path><path d="M14 20.271l8.22706e-07-1.87309e-07c4.84654-1.10343 7.88092-5.92684 6.77749-10.7734 -1.10343-4.84654-5.92684-7.88092-10.7734-6.77749 -4.84654 1.10343-7.88092 5.92684-6.77749 10.7734 .158186.694791.398327 1.36834.715376 2.00649"></path><path d="M11 15h4.053 -2.18557e-08c.276142 1.20706e-08.5-.223858.5-.5v-5.145"></path><path d="M8.5 9.355v3.645"></path><path d="M7.5 10l4.592-3 4.408 3"></path></g><path fill="none" d="M0 0h24v24h-24Z"></path></svg>