<?xml version="1.0" encoding="UTF-8"?><svg version="1.1" viewBox="0 0 24 24" xmlns="http://www.w3.org/2000/svg" xmlns:xlink="http://www.w3.org/1999/xlink"><defs><path d="M0 0h24v24h-24Z" id="a"></path></defs><g fill="none"><use xlink:href="#a"></use><path stroke="#323232" stroke-linecap="round" stroke-linejoin="round" stroke-width="1.5" d="M9.5 12h5"></path><path stroke="#323232" stroke-linecap="round" stroke-linejoin="round" stroke-width="1.5" d="M19.842 8.29908l-6-4.667 1.37731e-07 1.0714e-07c-1.0834-.842776-2.6006-.842776-3.684-2.14281e-07l-6 4.667 2.23853e-07-1.74135e-07c-.7304.568177-1.15772 1.44163-1.158 2.367v7.33392l3.37508e-14-4.52987e-07c-2.50178e-07 1.65685 1.34315 3 3 3h12l-1.31134e-07-3.55271e-15c1.65685 7.24234e-08 3-1.34315 3-3v-7.33392l-3.83042e-08-.000117619c-.0003195-.92537-.427671-1.79881-1.15809-2.36695Z"></path><line x1="9.5" x2="14.5" y1="16" y2="16" stroke="#323232" stroke-linecap="round" stroke-linejoin="round" stroke-width="1.5"></line><use xlink:href="#a"></use></g></svg>