<svg id="Layer_3" data-name="Layer 3" xmlns="http://www.w3.org/2000/svg" viewBox="0 0 24 24"><path d="M24,24V0H0V24Z" fill="none"/><path d="M14.40613,16.92048a.04666.04666,0,1,1-.00027-.00027l.00027.00027" fill="none" stroke="#323232" stroke-linecap="round" stroke-linejoin="round" stroke-width="1.5"/><path d="M10.64667,16.92048a.04667.04667,0,1,1-.00027-.00027l.00027.00027" fill="none" stroke="#323232" stroke-linecap="round" stroke-linejoin="round" stroke-width="1.5"/><polyline points="8 10 9.174 10 10.075 14.5 14.905 14.5 15.5 11.508 15.5 11.5 9.474 11.5" fill="none" stroke="#323232" stroke-linecap="round" stroke-linejoin="round" stroke-width="1.5"/><path d="M3,17V11.1a4.5,4.5,0,0,1,1.68886-3.5139l4.5-3.6a4.5,4.5,0,0,1,5.62228,0l4.5,3.6A4.5,4.5,0,0,1,21,11.1V17a4,4,0,0,1-4,4H7A4,4,0,0,1,3,17Z" fill="none" stroke="#323232" stroke-linecap="round" stroke-linejoin="round" stroke-width="1.5"/></svg>