<svg id="Layer_3" data-name="Layer 3" xmlns="http://www.w3.org/2000/svg" viewBox="0 0 24 24"><path d="M24,0H0V24H24Z" fill="none"/><path d="M21.05878,9.206A9.33454,9.33454,0,0,1,21.5,12,9.5,9.5,0,1,1,12,2.5a9.33454,9.33454,0,0,1,2.79406.44122" fill="none" stroke="#323232" stroke-linecap="round" stroke-linejoin="round" stroke-width="1.5"/><line x1="21.5" y1="3.94323" x2="19.5" y2="5.94323" fill="none" stroke="#323232" stroke-linecap="round" stroke-linejoin="round" stroke-width="1.5"/><line x1="19.5" y1="5.94323" x2="18.25" y2="4.69323" fill="none" stroke="#323232" stroke-linecap="round" stroke-linejoin="round" stroke-width="1.5"/><path d="M8,14V11a1.5,1.5,0,0,1,.563-1.1713l2.5-2a1.5,1.5,0,0,1,1.87409,0l2.5,2A1.5,1.5,0,0,1,16,11v3a1.5,1.5,0,0,1-1.5,1.5h-5A1.5,1.5,0,0,1,8,14Z" fill="none" stroke="#323232" stroke-linecap="round" stroke-linejoin="round" stroke-width="1.5"/></svg>