<svg id="Layer_3" data-name="Layer 3" xmlns="http://www.w3.org/2000/svg" viewBox="0 0 24 24"><rect width="24" height="24" fill="none"/><path d="M11.75,13h.5A2.75,2.75,0,0,1,15,15.75V21a0,0,0,0,1,0,0H9a0,0,0,0,1,0,0V15.75A2.75,2.75,0,0,1,11.75,13Z" fill="none" stroke="#323232" stroke-linecap="round" stroke-linejoin="round" stroke-width="1.5"/><path d="M3,18V10.95971a4.5,4.5,0,0,1,1.68885-3.5139L8.8765,4.09567a5,5,0,0,1,6.247,0l4.18765,3.35013A4.5,4.5,0,0,1,21,10.9597V18a3,3,0,0,1-3,3H6A3,3,0,0,1,3,18Z" fill="none" stroke="#323232" stroke-linecap="round" stroke-linejoin="round" stroke-width="1.5"/></svg>