<svg id="Layer_3" data-name="Layer 3" xmlns="http://www.w3.org/2000/svg" viewBox="0 0 24 24"><path d="M21,17v1a3,3,0,0,1-3,3H16" fill="none" stroke="#323232" stroke-linecap="round" stroke-linejoin="round" stroke-width="1.5"/><path d="M3,10V6A3,3,0,0,1,6,3H7" fill="none" stroke="#323232" stroke-linecap="round" stroke-linejoin="round" stroke-width="1.5"/><path d="M10,8V6a3,3,0,0,1,3-3h5a3,3,0,0,1,3,3v5a3,3,0,0,1-3,3H16" fill="none" stroke="#323232" stroke-linecap="round" stroke-linejoin="round" stroke-width="1.5"/><path d="M3,19.5V15.1597A1.5,1.5,0,0,1,3.563,13.9884l3.18766-2.55013a2,2,0,0,1,2.49879,0l3.18765,2.55014A1.5,1.5,0,0,1,13,15.15971V19.5A1.5,1.5,0,0,1,11.5,21h-7A1.5,1.5,0,0,1,3,19.5Z" fill="none" stroke="#323232" stroke-linecap="round" stroke-linejoin="round" stroke-width="1.5"/><line x1="15.15" y1="9.687" x2="17.15" y2="7.687" fill="none" stroke="#323232" stroke-linecap="round" stroke-linejoin="round" stroke-width="1.5"/><line x1="13.9" y1="8.437" x2="15.15" y2="9.687" fill="none" stroke="#323232" stroke-linecap="round" stroke-linejoin="round" stroke-width="1.5"/><rect width="24" height="24" fill="none"/></svg>