<svg id="Layer_3" data-name="Layer 3" xmlns="http://www.w3.org/2000/svg" viewBox="0 0 24 24"><path d="M24,24V0H0V24Z" fill="none"/><path d="M9.61987,13.07837,8.26965,14.42853A.92067.92067,0,0,0,8,15.07953v.99975A.92073.92073,0,0,0,8.92072,17h.99969a.92062.92062,0,0,0,.65106-.26971l1.35016-1.35016" fill="none" stroke="#323232" stroke-linecap="round" stroke-linejoin="round" stroke-width="1.5"/><path d="M9.61987,13.07837a3.30593,3.30593,0,1,1,2.30176,2.30176" fill="none" stroke="#323232" stroke-linecap="round" stroke-linejoin="round" stroke-width="1.5"/><path d="M3,16.5V11.1a4.5,4.5,0,0,1,1.68886-3.5139l4.5-3.6a4.5,4.5,0,0,1,5.62228,0l4.5,3.6A4.5,4.5,0,0,1,21,11.1v5.4A4.5,4.5,0,0,1,16.5,21h-9A4.5,4.5,0,0,1,3,16.5Z" fill="none" stroke="#323232" stroke-linecap="round" stroke-linejoin="round" stroke-width="1.5"/><path d="M12.75,12.245l.005.005-.005.005-.005-.005.005-.005" fill="none" stroke="#323232" stroke-linecap="round" stroke-linejoin="round" stroke-width="1.5"/></svg>