<svg id="Layer_3" data-name="Layer 3" xmlns="http://www.w3.org/2000/svg" viewBox="0 0 24 24"><line x1="7.5" y1="6" x2="7.5" y2="3" fill="none" stroke="#323232" stroke-linecap="round" stroke-linejoin="round" stroke-width="1.5"/><line x1="16.5" y1="6" x2="16.5" y2="3" fill="none" stroke="#323232" stroke-linecap="round" stroke-linejoin="round" stroke-width="1.5"/><path d="M9,21H6a3,3,0,0,1-3-3V7.5a3,3,0,0,1,3-3H18a3,3,0,0,1,3,3V10" fill="none" stroke="#323232" stroke-linecap="round" stroke-linejoin="round" stroke-width="1.5"/><path d="M13,19.5v-3a1.5,1.5,0,0,1,.563-1.1713l2.5-2a1.5,1.5,0,0,1,1.87409,0l2.5,2A1.5,1.5,0,0,1,21,16.5v3A1.5,1.5,0,0,1,19.5,21h-5A1.5,1.5,0,0,1,13,19.5Z" fill="none" stroke="#323232" stroke-linecap="round" stroke-linejoin="round" stroke-width="1.5"/><rect width="24" height="24" fill="none"/></svg>