<svg id="Layer_3" data-name="Layer 3" xmlns="http://www.w3.org/2000/svg" viewBox="0 0 24 24"><path d="M24,24V0H0V24Z" fill="none"/><path d="M11.66571,20.70709l3.11465-3.11481a.75.75,0,0,0,0-1.06058l-1.312-1.312a.75.75,0,0,0-1.06067,0L9.29292,18.3343A1,1,0,0,0,9,19.04142V20.75a.25.25,0,0,0,.25.25h1.70857A1,1,0,0,0,11.66571,20.70709Z" fill="none" stroke="#323232" stroke-linecap="round" stroke-linejoin="round" stroke-width="1.5"/><line x1="6" y1="21" x2="3" y2="21" fill="none" stroke="#323232" stroke-linecap="round" stroke-linejoin="round" stroke-width="1.5"/><path d="M16,21h1a4,4,0,0,0,4-4V11.1a4.5,4.5,0,0,0-1.68886-3.5139l-4.5-3.6a4.5,4.5,0,0,0-5.62228,0l-4.5,3.6A4.5,4.5,0,0,0,3,11.1V17" fill="none" stroke="#323232" stroke-linecap="round" stroke-linejoin="round" stroke-width="1.5"/></svg>