<svg id="Layer_3" data-name="Layer 3" xmlns="http://www.w3.org/2000/svg" viewBox="0 0 24 24"><path d="M14,10.5v-3a.5.5,0,0,1,.5-.5h2a.5.5,0,0,1,.5.5v9a.5.5,0,0,1-.5.5h-2a.5.5,0,0,1-.5-.5v-3H10v3a.5.5,0,0,1-.5.5h-2a.5.5,0,0,1-.5-.5v-9A.5.5,0,0,1,7.5,7h2a.5.5,0,0,1,.5.5v3Z" fill="none" stroke="#323232" stroke-linecap="round" stroke-linejoin="round" stroke-width="1.5"/><rect x="2.9901" y="3" width="18" height="18" rx="5" stroke-width="1.5" stroke="#323232" stroke-linecap="round" stroke-linejoin="round" fill="none"/><path d="M0,0H24V24H0Z" fill="none"/></svg>