<?xml version="1.0" encoding="UTF-8"?><svg version="1.1" viewBox="0 0 24 24" xmlns="http://www.w3.org/2000/svg" xmlns:xlink="http://www.w3.org/1999/xlink"><g stroke-linecap="round" stroke-width="1.5" stroke="#323232" fill="none" stroke-linejoin="round"><path d="M19.714 9.612v-5.612c0-.552-.448-1-1-1h-1.857c-.552 0-1 .448-1 1v2.306"></path><path d="M3 10.714l7.698-6.598c.749-.642 1.854-.642 2.603 0l7.699 6.598"></path><path d="M4.286 9.612v9.388c0 1.105.895 2 2 2h4.714"></path><path d="M18.343 20.023l1.755.922c.342.18.741-.111.676-.491l-.335-1.954 1.42-1.383c.277-.269.124-.739-.258-.794l-1.962-.285 -.877-1.779c-.171-.346-.665-.346-.835 0l-.877 1.779 -1.962.285c-.382.056-.535.525-.258.794l1.42 1.383 -.336 1.955c-.065.38.334.67.676.491l1.755-.922"></path></g><path fill="none" d="M0 0h24v24h-24v-24Z"></path></svg>