<svg id="Layer_3" data-name="Layer 3" xmlns="http://www.w3.org/2000/svg" viewBox="0 0 24 24"><path d="M0,0H24V24H0Z" fill="none"/><path d="M24,0H0V24H24Z" fill="none"/><path d="M16,21h2a3,3,0,0,0,3-3V16" fill="none" stroke="#323232" stroke-linecap="round" stroke-linejoin="round" stroke-width="1.5"/><path d="M3,8V6A3,3,0,0,1,6,3H8" fill="none" stroke="#323232" stroke-linecap="round" stroke-linejoin="round" stroke-width="1.5"/><path d="M11,8V7.2597A2,2,0,0,1,11.7506,5.698l2.68765-2.15014a2.5,2.5,0,0,1,3.12349,0L20.24939,5.698A2,2,0,0,1,21,7.2597V11a2,2,0,0,1-2,2H16" fill="none" stroke="#323232" stroke-linecap="round" stroke-linejoin="round" stroke-width="1.5"/><path d="M9.56712,14.234l.00025-.00024a.13753.13753,0,1,1-.00025.00024" fill="none" stroke="#323232" stroke-linecap="round" stroke-linejoin="round" stroke-width="1.5"/><path d="M8.5,21a4.78591,4.78591,0,0,0,.05556-.69444h0a4.86112,4.86112,0,0,0-4.86112-4.86112A4.93469,4.93469,0,0,0,3,15.5" fill="none" stroke="#323232" stroke-linecap="round" stroke-linejoin="round" stroke-width="1.5"/><path d="M3,14v4a3,3,0,0,0,3,3h4a3,3,0,0,0,3-3V14a3,3,0,0,0-3-3H6A3,3,0,0,0,3,14Z" fill="none" stroke="#323232" stroke-linecap="round" stroke-linejoin="round" stroke-width="1.5"/></svg>