<?xml version="1.0" encoding="UTF-8"?><svg version="1.1" viewBox="0 0 24 24" xmlns="http://www.w3.org/2000/svg" xmlns:xlink="http://www.w3.org/1999/xlink"><g fill="none"><path d="M0 0h24v24h-24v-24Z"></path><path stroke="#323232" stroke-linecap="round" stroke-linejoin="round" stroke-width="1.5" d="M19 9c-2.209 0-4-1.791-4-4 0-2.209 1.791-4 4-4 2.209 0 4 1.791 4 4 0 2.209-1.791 4-4 4"></path><path stroke="#323232" stroke-linecap="round" stroke-linejoin="round" stroke-width="1.5" d="M8.438 11.061v4.064c0 .483.392.875.874.875h4.421c.483 0 .875-.392.875-.875v-4.064"></path><path stroke="#323232" stroke-linecap="round" stroke-linejoin="round" stroke-width="1.5" d="M7.5 11.667l4.082-2.667 3.918 2.667"></path><line x1="17.5" x2="20.5" y1="5" y2="5" stroke="#323232" stroke-linecap="round" stroke-linejoin="round" stroke-width="1.5"></line><line x1="19" x2="19" y1="6.5" y2="3.5" stroke="#323232" stroke-linecap="round" stroke-linejoin="round" stroke-width="1.5"></line><path stroke="#323232" stroke-linecap="round" stroke-linejoin="round" stroke-width="1.5" d="M15.006 4.764c-1.07-.486-2.254-.765-3.506-.765 -4.694 0-8.5 3.806-8.5 8.5 0 4.694 3.806 8.5 8.5 8.5 4.694 0 8.5-3.806 8.5-8.5 0-1.252-.279-2.436-.765-3.506"></path></g></svg>