<?xml version="1.0" encoding="UTF-8"?><svg version="1.1" viewBox="0 0 24 24" xmlns="http://www.w3.org/2000/svg" xmlns:xlink="http://www.w3.org/1999/xlink"><g fill="none"><path d="M0 0h24v24h-24v-24Z"></path><path stroke="#323232" stroke-linecap="round" stroke-linejoin="round" stroke-width="1.5" d="M8.938 10.561v4.439c0 .276.224.5.5.5h5.171c.276 0 .5-.224.5-.5v-4.439"></path><path stroke="#323232" stroke-linecap="round" stroke-linejoin="round" stroke-width="1.5" d="M4.151 16.396c-.73-1.3-1.151-2.798-1.151-4.396 0-4.971 4.029-9 9-9 4.971 0 9 4.029 9 9 0 4.971-4.029 9-9 9 -1.598 0-3.096-.421-4.396-1.151l-4.604 1.151 1.151-4.604Z"></path><path stroke="#323232" stroke-linecap="round" stroke-linejoin="round" stroke-width="1.5" d="M8 11.167l4.082-2.667 3.918 2.667"></path></g></svg>