<svg id="Layer_3" data-name="Layer 3" xmlns="http://www.w3.org/2000/svg" viewBox="0 0 24 24"><rect width="24" height="24" fill="none"/><line x1="13.00011" y1="6" x2="13.00001" y2="6.5" fill="none" stroke="#323232" stroke-linecap="round" stroke-linejoin="round" stroke-width="1.5"/><line x1="13.00011" y1="11.5" x2="13.00001" y2="12" fill="none" stroke="#323232" stroke-linecap="round" stroke-linejoin="round" stroke-width="1.5"/><line x1="15.59816" y1="7.50004" x2="15.16509" y2="7.74996" fill="none" stroke="#323232" stroke-linecap="round" stroke-linejoin="round" stroke-width="1.5"/><line x1="10.83502" y1="10.25004" x2="10.40195" y2="10.49996" fill="none" stroke="#323232" stroke-linecap="round" stroke-linejoin="round" stroke-width="1.5"/><line x1="10.40195" y1="7.50004" x2="10.83502" y2="7.74996" fill="none" stroke="#323232" stroke-linecap="round" stroke-linejoin="round" stroke-width="1.5"/><line x1="15.16509" y1="10.25004" x2="15.59816" y2="10.49996" fill="none" stroke="#323232" stroke-linecap="round" stroke-linejoin="round" stroke-width="1.5"/><path d="M6,9a6.5,6.5,0,0,1,6.5-6.5" fill="none" stroke="#323232" stroke-linecap="round" stroke-linejoin="round" stroke-width="1.5"/><path d="M12,15v.8318a2,2,0,0,1-1.36754,1.89736l-2,.66667A2,2,0,0,1,6,16.49846v-1.769" fill="none" stroke="#323232" stroke-linecap="round" stroke-linejoin="round" stroke-width="1.5"/><path d="M10.21137,17.86589l-.77263,2.31788A1,1,0,0,0,10.38743,21.5h7.22514a1,1,0,0,0,.94869-1.31623l-.26608-.79824a8.905,8.905,0,0,1,.81205-7.39758h0A6.26479,6.26479,0,0,0,20,8.76476h0A6.26475,6.26475,0,0,0,13.73525,2.5H12.5" fill="none" stroke="#323232" stroke-linecap="round" stroke-linejoin="round" stroke-width="1.5"/><path d="M6,14.72943l-1.4458-.72284a.998.998,0,0,1-.38648-1.44672L6,9.81152V9" fill="none" stroke="#323232" stroke-linecap="round" stroke-linejoin="round" stroke-width="1.5"/></svg>