<?xml version="1.0" encoding="UTF-8"?><svg version="1.1" viewBox="0 0 24 24" xmlns="http://www.w3.org/2000/svg" xmlns:xlink="http://www.w3.org/1999/xlink"><g stroke-linecap="round" stroke-width="1.5" stroke="#323232" fill="none" stroke-linejoin="round"><path d="M14.778 7h-5.556l-9.71267e-08 3.55271e-15c-1.22718 5.36416e-08-2.222.994823-2.222 2.222 0 0 0 1.77636e-15 0 1.77636e-15v5.556l2.30926e-14 2.38386e-07c1.85299e-07 1.22718.994824 2.222 2.222 2.222h5.556l-7.06296e-08 7.10543e-15c1.22718-9.26493e-08 2.222-.994823 2.222-2.222v-5.557l9.2581e-08.000232817c-.000423569-1.22679-.994981-2.2211-2.22177-2.22123Z"></path><path d="M10.51 10.157l-7.99998e-09-7.975e-09c.0977837.0974783.0980312.255769.000552974.353553 -.0974783.0977837-.255769.0980312-.353553.000552974 -.0977837-.0974783-.0980312-.255769-.000552974-.353553 .000184031-.000184608.000368351-.000368927.000552958-.000552958l-1.0565e-08 1.06168e-08c.0970023-.0974783.25466-.0978641.352138-.000861899 .000287995.000286589.000575289.000573882.000861878.000861878"></path><path d="M17 11.5l4.64319e-07 7.0484e-08c-.231717-.0351749-.465636-.0538884-.699998-.056l2.02643e-07 1.43783e-09c-2.66305-.0188954-4.8372 2.12462-4.85609 4.78767 -.00182492.257197.0169313.514129.0560891.768334"></path><path d="M15 21h2l-1.74846e-07-3.55271e-15c2.20914 9.65645e-08 4-1.79086 4-4v-1.4"></path><path d="M8.4 3h-1.4l-1.74846e-07 3.9968e-15c-2.20914 9.65645e-08-4 1.79086-4 4 0 8.88178e-16 0 2.66454e-15 0 2.66454e-15v1.4"></path><path d="M3 15.6v1.4l4.57412e-14 6.03983e-07c3.33571e-07 2.20914 1.79086 4 4 4h1.4"></path><path d="M21 8.4v-1.4 0c0-2.20914-1.79086-4-4-4h-2"></path></g><rect width="24" height="24" fill="none"></rect></svg>