<?xml version="1.0" encoding="UTF-8"?><svg version="1.1" viewBox="0 0 24 24" xmlns="http://www.w3.org/2000/svg" xmlns:xlink="http://www.w3.org/1999/xlink"><!--Generated by IJSVG (https://github.com/iconjar/IJSVG)--><g stroke-linecap="round" stroke-width="1.5" stroke="#323232" fill="none" stroke-linejoin="round"><path d="M20,18h-13c-1.105,0 -2,-0.895 -2,-2v-11c0,-1.105 0.895,-2 2,-2h13c1.105,0 2,0.895 2,2v11c0,1.105 -0.895,2 -2,2Z"></path><path d="M15.996,21h-11.996c-1.105,0 -2,-0.895 -2,-2v-10.601"></path><path d="M11.3457,6.82125c0.651004,0.651004 0.651004,1.70649 0,2.35749c-0.651004,0.651004 -1.70649,0.651004 -2.35749,1.77636e-15c-0.651004,-0.651004 -0.651004,-1.70649 -1.77636e-15,-2.35749c0.651004,-0.651004 1.70649,-0.651004 2.35749,-8.88178e-16"></path><path d="M22,13.833l-3.386,-2.709c-0.431,-0.345 -1.061,-0.275 -1.406,0.156l-2.572,3.215c-0.345,0.431 -0.974,0.501 -1.406,0.156l-1.299,-1.039c-0.425,-0.34 -1.044,-0.278 -1.393,0.141l-3.538,4.247"></path></g><path fill="none" d="M0,0h24v24h-24Z"></path></svg>