<svg id="Layer_3" data-name="Layer 3" xmlns="http://www.w3.org/2000/svg" viewBox="0 0 24 24"><path d="M24,24H0V0H24Z" fill="none"/><path d="M3,8V7A4,4,0,0,1,7,3h3" fill="none" stroke="#323232" stroke-linecap="round" stroke-linejoin="round" stroke-width="1.5"/><path d="M9.553,14.55311,9.5531,14.553a.075.075,0,1,0-.00013.00013" fill="none" stroke="#323232" stroke-linecap="round" stroke-linejoin="round" stroke-width="1.5"/><path d="M3,15.5a4.78463,4.78463,0,0,1,.69445-.05555h0a4.8611,4.8611,0,0,1,4.8611,4.8611A4.93468,4.93468,0,0,1,8.5,21" fill="none" stroke="#323232" stroke-linecap="round" stroke-linejoin="round" stroke-width="1.5"/><path d="M10.5,21h-5A2.5,2.5,0,0,1,3,18.5v-5A2.5,2.5,0,0,1,5.5,11h5A2.5,2.5,0,0,1,13,13.5v5A2.5,2.5,0,0,1,10.5,21Z" fill="none" stroke="#323232" stroke-linecap="round" stroke-linejoin="round" stroke-width="1.5"/><path d="M21,14v3a4,4,0,0,1-4,4H16" fill="none" stroke="#323232" stroke-linecap="round" stroke-linejoin="round" stroke-width="1.5"/><path d="M19.47489,3.52514a3.5,3.5,0,1,1-4.94978,0,3.5,3.5,0,0,1,4.94978,0l0,0h0" fill="none" stroke="#323232" stroke-linecap="round" stroke-linejoin="round" stroke-width="1.5"/><line x1="19.47487" y1="8.47487" x2="21" y2="10" fill="none" stroke="#323232" stroke-linecap="round" stroke-linejoin="round" stroke-width="1.5"/></svg>