<svg id="Layer_3" data-name="Layer 3" xmlns="http://www.w3.org/2000/svg" viewBox="0 0 24 24"><path d="M24,24H0V0H24Z" fill="none"/><path d="M3,13.00133l1.29516-1.29516a2.411,2.411,0,0,1,3.40967,0L12,16.00133" fill="none" stroke="#323232" stroke-linecap="round" stroke-linejoin="round" stroke-width="1.5"/><path d="M7.00433,21l6.29384-6.29383a2.411,2.411,0,0,1,3.40966,0L20.647,18.64533" fill="none" stroke="#323232" stroke-linecap="round" stroke-linejoin="round" stroke-width="1.5"/><path d="M16.27721,9.39535H14.23193V7.35007a.78878.78878,0,0,1,.23174-.55916l3.16362-3.16362a.79.79,0,0,1,1.11834,0L20,4.88166A.79.79,0,0,1,20,6L16.83638,9.16362A.79213.79213,0,0,1,16.27721,9.39535Z" fill="none" stroke="#323232" stroke-linecap="round" stroke-linejoin="round" stroke-width="1.5"/><path d="M21,10v7a4,4,0,0,1-4,4H7a4,4,0,0,1-4-4V7A4,4,0,0,1,7,3h6" fill="none" stroke="#323232" stroke-linecap="round" stroke-linejoin="round" stroke-width="1.5"/></svg>