<svg id="Layer_3" data-name="Layer 3" xmlns="http://www.w3.org/2000/svg" viewBox="0 0 24 24"><path d="M14.92,17A6.89115,6.89115,0,0,0,15,16h0A7,7,0,0,0,8,9a7.1056,7.1056,0,0,0-1,.08" fill="none" stroke="#323232" stroke-linecap="round" stroke-linejoin="round" stroke-width="1.5"/><path d="M7,6.11111v7.77778A3.11111,3.11111,0,0,0,10.11111,17h7.77778A3.11111,3.11111,0,0,0,21,13.88889V6.11111A3.11111,3.11111,0,0,0,17.88889,3H10.11111A3.11111,3.11111,0,0,0,7,6.11111Z" fill="none" stroke="#323232" stroke-linecap="round" stroke-linejoin="round" stroke-width="1.5"/><path d="M17,17v1a3,3,0,0,1-3,3H6a3,3,0,0,1-3-3V10A3,3,0,0,1,6,7H7" fill="none" stroke="#323232" stroke-linecap="round" stroke-linejoin="round" stroke-width="1.5"/><path d="M16.4646,7.46469l.00009-.00009a.05.05,0,1,1-.00009.00009" fill="none" stroke="#323232" stroke-linecap="round" stroke-linejoin="round" stroke-width="1.5"/><path d="M0,24V0H24V24Z" fill="none"/></svg>