<?xml version="1.0" encoding="UTF-8"?><svg version="1.1" viewBox="0 0 24 24" xmlns="http://www.w3.org/2000/svg" xmlns:xlink="http://www.w3.org/1999/xlink"><g stroke-linecap="round" stroke-width="1.5" stroke="#323232" fill="none" stroke-linejoin="round"><path d="M10 12h-5l-8.74228e-08 1.77636e-15c-1.10457 4.82823e-08-2 .895431-2 2 0 0 0 0 0 0v5l2.30926e-14 3.01992e-07c1.66785e-07 1.10457.895431 2 2 2h5l-8.74228e-08-3.55271e-15c1.10457 4.82823e-08 2-.89543 2-2v-5 -2.30926e-14c0-1.10457-.895431-2-2-2 -1.01957e-07 0-2.00035e-07 7.10543e-15-3.01992e-07 2.30926e-14Z"></path><path d="M3 10v-3l4.57412e-14 6.03983e-07c-3.33571e-07-2.20914 1.79086-4 4-4h3"></path><path d="M14 3h3l-1.74846e-07 3.9968e-15c2.20914-9.65645e-08 4 1.79086 4 4v3"></path><path d="M21 14v3 0c0 2.20914-1.79086 4-4 4h-3"></path><path d="M6.177 14.823l2.20687e-09 2.21245e-09c.0975076.0977544.0973075.256046-.000446896.353553 -.0977544.0975076-.256046.0973075-.353553-.000446896 -.0973333-.0975797-.0973333-.255527 4.41373e-09-.353106l-4.3151e-09 4.258e-09c.0981335-.0968348.255866-.0968348.354-8.51599e-09"></path><path d="M12 16.05l-5.31197e-08-8.05437e-09c-.206895-.0313709-.415749-.0480791-.625-.05l-1.37513e-07 3.55271e-15c-2.41625 1.05617e-07-4.375 1.95875-4.375 4.375l-1.00523e-07-1.441e-05c.00145951.209271.0181697.418158.0499979.625"></path></g><rect width="24" height="24" fill="none"></rect></svg>