<?xml version="1.0" encoding="UTF-8"?><svg version="1.1" viewBox="0 0 24 24" xmlns="http://www.w3.org/2000/svg" xmlns:xlink="http://www.w3.org/1999/xlink"><g stroke-linecap="round" stroke-width="1.5" stroke="#323232" fill="none" stroke-linejoin="round"><path d="M18 9l-2.04001e-07 3.55271e-15c-2.57751 1.12667e-07-4.667 2.08949-4.667 4.667 -5.32907e-15 1.288.747 2.333 1.667 2.333 .92 0 1.667-1.045 1.667-2.333v0c0-2.57751-2.08949-4.667-4.667-4.667 0 0-3.55271e-15 0-3.55271e-15 0"></path><path d="M6 9l-2.04001e-07 3.55271e-15c2.57751-1.12667e-07 4.667 2.08949 4.667 4.667 5.32907e-15 1.288-.747 2.333-1.667 2.333 -.92 0-1.667-1.045-1.667-2.333l5.24025e-14 7.04697e-07c-3.89194e-07-2.57751 2.08949-4.667 4.667-4.667"></path><rect width="18" height="18" x="3" y="3" rx="2.7614" ry="0"></rect></g><path fill="none" d="M0 0h24v24h-24Z"></path></svg>