<svg viewBox="0 0 24 24" xmlns="http://www.w3.org/2000/svg" xmlns:xlink="http://www.w3.org/1999/xlink"><defs><path d="M0 0h24v24H0Z" id="a"/></defs><g fill="none"><use xlink:href="#a"/><use xlink:href="#a"/><g stroke-linecap="round" stroke-width="1.5" stroke="#323232" fill="none" stroke-linejoin="round"><path d="M7.5 3H6l-.01 0c-1.66 0-3 1.34-3 3 0 0 0 0 0 0v1.49"/><path d="M3 16.5V18l0 0c0 1.65 1.34 2.99 3 2.99h1.49"/><path d="M16.5 21H18l-.01-.001c1.65 0 3-1.35 3-3v-1.51"/><path d="M21 7.5V6v0c0-1.66-1.35-3-3-3h-1.5"/><path d="M11.009 11.25l1.15 0 0 4.25"/><path d="M11 15.5l2.31 0"/><path d="M12.1 8.24l-.01 0c-.01.13-.12.24-.26.24 -.14-.01-.25-.12-.25-.26s.11-.25.24-.25l-.01 0c.13-.01.25.11.25.24 0 0 0 0 0 0"/></g></g></svg>