<?xml version="1.0" encoding="UTF-8"?><svg version="1.1" viewBox="0 0 24 24" xmlns="http://www.w3.org/2000/svg" xmlns:xlink="http://www.w3.org/1999/xlink"><g fill="none"><path d="M24 24h-24v-24h24Z"></path><path stroke="#323232" stroke-linecap="round" stroke-linejoin="round" stroke-width="1.5" d="M7.849 11.735l-3.2794e-09-3.27532e-09c.146538.146355.146685.383792.00032999.53033 -.146355.146538-.383792.146685-.53033.00032999 -.146538-.146355-.146685-.383792-.00032999-.53033 .000109926-.000110063.00021992-.000220057.000329983-.000329983l1.17133e-08-1.16987e-08c.146409-.146227.383591-.146227.53 2.33975e-08"></path><path stroke="#323232" stroke-linecap="round" stroke-linejoin="round" stroke-width="1.5" d="M12.265 11.735l-3.27939e-09-3.27532e-09c.146538.146355.146685.383792.00032999.53033 -.146355.146538-.383792.146685-.53033.00032999 -.146538-.146355-.146685-.383792-.00032999-.53033 .000109926-.000110063.00021992-.000220057.000329983-.000329983l1.17133e-08-1.16987e-08c.146409-.146227.383591-.146227.53 2.33975e-08"></path><path stroke="#323232" stroke-linecap="round" stroke-linejoin="round" stroke-width="1.5" d="M16 20v-16"></path><path stroke="#323232" stroke-linecap="round" stroke-linejoin="round" stroke-width="1.5" d="M13 17h-8l-8.74228e-08-3.55271e-15c-1.10457-4.82823e-08-2-.895431-2-2 0 0 0 0 0 0v-6l2.30926e-14 3.01992e-07c-1.66785e-07-1.10457.89543-2 2-2h8"></path><path stroke="#323232" stroke-linecap="round" stroke-linejoin="round" stroke-width="1.5" d="M16 17h3l-8.74228e-08-3.55271e-15c1.10457 4.82823e-08 2-.89543 2-2v-6 0c0-1.10457-.895431-2-2-2h-3"></path><path stroke="#323232" stroke-linecap="round" stroke-linejoin="round" stroke-width="1.5" d="M13.5 20h5"></path><path stroke="#323232" stroke-linecap="round" stroke-linejoin="round" stroke-width="1.5" d="M13.5 4h5"></path></g></svg>