<svg id="Layer_3" data-name="Layer 3" xmlns="http://www.w3.org/2000/svg" viewBox="0 0 24 24"><path d="M10,4h1a1,1,0,0,1,1,1V9a5,5,0,0,1-5,5H7A5,5,0,0,1,2,9V5A1,1,0,0,1,3,4H4" fill="none" stroke="#323232" stroke-linecap="round" stroke-linejoin="round" stroke-width="1.5"/><circle cx="20" cy="17" r="2" fill="none" stroke="#323232" stroke-linecap="round" stroke-linejoin="round" stroke-width="1.5"/><path d="M20,15V10.5A2.5,2.5,0,0,0,17.5,8h0A2.5,2.5,0,0,0,15,10.5V17a4,4,0,0,1-4,4h0a4,4,0,0,1-4-4l.00006-3" fill="none" stroke="#323232" stroke-linecap="round" stroke-linejoin="round" stroke-width="1.5"/><path d="M0,0H24V24H0Z" fill="none"/></svg>