<svg id="Layer_3" data-name="Layer 3" xmlns="http://www.w3.org/2000/svg" viewBox="0 0 24 24"><path d="M0,23.94458H24v-24H0Z" fill="none"/><path d="M19.449,3.604l-.99-.49752a1,1,0,0,0-.89228-.00287l-1.57248.77759-1.5409-.77407a1,1,0,0,0-.89456-.00162L12,3.88151l-1.55876-.776a1,1,0,0,0-.89456.00162l-1.5409.77407L6.4333,3.10361a1,1,0,0,0-.89228.00287l-.99.49752A1,1,0,0,0,4,4.49752v15.005a1,1,0,0,0,.551.89352l.99.49752a1,1,0,0,0,.89228.00287l1.57248-.77759,1.5409.77407a1,1,0,0,0,.89456.00162L12,20.11849l1.55876.776a1,1,0,0,0,.89456-.00162l1.5409-.77407,1.57248.77759a1,1,0,0,0,.89228-.00287l.99-.49752A1,1,0,0,0,20,19.50248V4.49752A1,1,0,0,0,19.449,3.604Z" fill="none" stroke="#323232" stroke-linecap="round" stroke-linejoin="round" stroke-width="1.5"/><path d="M16.002,8.5h-8" fill="none" stroke="#323232" stroke-linecap="round" stroke-linejoin="round" stroke-width="1.5"/><line x1="12" y1="15.5" x2="8.002" y2="15.5" fill="none" stroke="#323232" stroke-linecap="round" stroke-linejoin="round" stroke-width="1.5"/><line x1="12" y1="12" x2="8" y2="12" fill="none" stroke="#323232" stroke-linecap="round" stroke-linejoin="round" stroke-width="1.5"/><line x1="16" y1="15.44464" x2="15" y2="15.44464" fill="none" stroke="#323232" stroke-linecap="round" stroke-linejoin="round" stroke-width="1.5"/><line x1="16" y1="12" x2="15" y2="12" fill="none" stroke="#323232" stroke-linecap="round" stroke-linejoin="round" stroke-width="1.5"/></svg>