<svg id="Layer_3" data-name="Layer 3" xmlns="http://www.w3.org/2000/svg" viewBox="0 0 24 24"><path d="M0,0H24V24H0Z" fill="none"/><line x1="8" y1="16" x2="13" y2="16" fill="none" stroke="#323232" stroke-linecap="round" stroke-linejoin="round" stroke-width="1.5"/><path d="M15.875,16.125A.125.125,0,1,0,15.75,16a.125.125,0,0,0,.125.125" fill="none" stroke="#323232" stroke-linecap="round" stroke-linejoin="round" stroke-width="1.5"/><line x1="8" y1="12" x2="13" y2="12" fill="none" stroke="#323232" stroke-linecap="round" stroke-linejoin="round" stroke-width="1.5"/><path d="M4,4.49975v15.0005a.99975.99975,0,0,0,1.448.894l.771-.386a.9976.9976,0,0,1,.894,0l1.773.886a.9976.9976,0,0,0,.894,0l1.773-.886a.9976.9976,0,0,1,.894,0l1.773.886a.99971.99971,0,0,0,.895,0l1.771-.886a.99971.99971,0,0,1,.895,0l.772.386a.99955.99955,0,0,0,1.447-.894V4.49975a.99975.99975,0,0,0-1.448-.894l-.771.386a.9976.9976,0,0,1-.894,0l-1.773-.886a.9976.9976,0,0,0-.894,0l-1.773.886a1.00184,1.00184,0,0,1-.893,0l-1.773-.886a.99971.99971,0,0,0-.895,0l-1.771.886a.99971.99971,0,0,1-.895,0l-.773-.386A.99955.99955,0,0,0,4,4.49975Z" fill="none" stroke="#323232" stroke-linecap="round" stroke-linejoin="round" stroke-width="1.5"/><path d="M15.875,12.125A.125.125,0,1,0,15.75,12a.125.125,0,0,0,.125.125" fill="none" stroke="#323232" stroke-linecap="round" stroke-linejoin="round" stroke-width="1.5"/><line x1="8" y1="8" x2="13" y2="8" fill="none" stroke="#323232" stroke-linecap="round" stroke-linejoin="round" stroke-width="1.5"/><path d="M15.875,8.125A.125.125,0,1,0,15.75,8a.125.125,0,0,0,.125.125" fill="none" stroke="#323232" stroke-linecap="round" stroke-linejoin="round" stroke-width="1.5"/></svg>