<svg id="Layer_3" data-name="Layer 3" xmlns="http://www.w3.org/2000/svg" viewBox="0 0 24 24"><rect width="24" height="24" fill="none"/><path d="M4,5V19.50248a1,1,0,0,0,.551.89352l.99.49752a1,1,0,0,0,.89228.00287l1.57248-.77759,1.5409.77407a1,1,0,0,0,.89456.00162L12,20.11849l1.55876.776a1,1,0,0,0,.89456-.00162l1.5409-.77407,1.57248.77759a1,1,0,0,0,.89228-.00287l.99-.49752A1,1,0,0,0,20,19.50248V5a2,2,0,0,0-2-2H6A2,2,0,0,0,4,5Z" fill="none" stroke="#323232" stroke-linecap="round" stroke-linejoin="round" stroke-width="1.5"/><path d="M16,8H8" fill="none" stroke="#323232" stroke-linecap="round" stroke-linejoin="round" stroke-width="1.5"/><path d="M8,11.5h8" fill="none" stroke="#323232" stroke-linecap="round" stroke-linejoin="round" stroke-width="1.5"/><path d="M8,15h8" fill="none" stroke="#323232" stroke-linecap="round" stroke-linejoin="round" stroke-width="1.5"/></svg>