<?xml version="1.0" encoding="UTF-8"?><svg version="1.1" viewBox="0 0 24 24" xmlns="http://www.w3.org/2000/svg" xmlns:xlink="http://www.w3.org/1999/xlink"><g stroke-linecap="round" stroke-width="1.5" stroke="#323232" fill="none" stroke-linejoin="round"><path d="M19 10v-2.556c0-2.454-1.99-4.444-4.444-4.444h-7.112c-2.454 0-4.444 1.99-4.444 4.444v4.111c0 2.455 1.99 4.445 4.444 4.445h3.556"></path><path d="M21.191 19.928h-2.892l-1.852 1.836c-.51.505-1.375.144-1.375-.573v-7.383c0-.718.869-1.079 1.377-.57l5.313 5.313c.508.508.149 1.377-.571 1.377Z"></path><path d="M11.114 7c1.029 0 1.719.931 1.719 1.798 0 1.813-2.34 3.202-2.917 3.202 -.577 0-2.916-1.389-2.916-3.202 0-.867.69-1.798 1.719-1.798 .588 0 .974.283 1.198.535 .223-.252.609-.535 1.197-.535Z"></path></g><path fill="none" d="M24 24h-24v-24h24v24Z"></path></svg>