<?xml version="1.0" encoding="UTF-8"?><svg version="1.1" viewBox="0 0 24 24" xmlns="http://www.w3.org/2000/svg" xmlns:xlink="http://www.w3.org/1999/xlink"><g stroke-linecap="round" stroke-width="1.5" stroke="#323232" fill="none" stroke-linejoin="round"><path d="M21 14v3 0c0 2.20914-1.79086 4-4 4h-2"></path><path d="M21 10v-3 0c0-2.20914-1.79086-4-4-4h-3"></path><path d="M3 10v-3l4.57412e-14 6.03983e-07c-3.33571e-07-2.20914 1.79086-4 4-4h3"></path><line x1="7" x2="7" y1="15.5" y2="18.5"></line><line x1="8.5" x2="5.5" y1="17" y2="17"></line><path d="M9.222 13h-4.444l-7.77189e-08 1.77636e-15c-.981962 4.29229e-08-1.778.796038-1.778 1.778v4.444l1.95399e-14 1.90752e-07c1.48272e-07.981962.796038 1.778 1.778 1.778h4.444l-7.77189e-08-3.55271e-15c.981962 4.29229e-08 1.778-.796038 1.778-1.778v-4.445l6.92608e-08.000131836c-.000479283-.981572-.796296-1.77706-1.77787-1.77713Z"></path></g><rect width="24" height="24" fill="none"></rect></svg>