<svg xmlns="http://www.w3.org/2000/svg" viewBox="0 0 24 24"><g id="Layer_2" data-name="Layer 2"><path d="M9,21H8a5,5,0,0,1-5-5V8A5,5,0,0,1,8,3h8a5,5,0,0,1,5,5V9" fill="none" stroke="#323232" stroke-linecap="round" stroke-linejoin="round" stroke-width="1.5"/><path d="M17.91041,14.91063l.00022-.00022a.12654.12654,0,1,1-.00022.00022" fill="none" stroke="#323232" stroke-linecap="round" stroke-linejoin="round" stroke-width="1.5"/><path d="M16.95,21a4.30681,4.30681,0,0,0,.05-.625h0A4.375,4.375,0,0,0,12.625,16a4.44107,4.44107,0,0,0-.625.05" fill="none" stroke="#323232" stroke-linecap="round" stroke-linejoin="round" stroke-width="1.5"/><path d="M12,14v5a2,2,0,0,0,2,2h5a2,2,0,0,0,2-2V14a2,2,0,0,0-2-2H14A2,2,0,0,0,12,14Z" fill="none" stroke="#323232" stroke-linecap="round" stroke-linejoin="round" stroke-width="1.5"/><rect width="24" height="24" fill="none"/></g></svg>