<svg id="Layer_3" data-name="Layer 3" xmlns="http://www.w3.org/2000/svg" viewBox="0 0 24 24"><line x1="7" y1="9" x2="17" y2="9" fill="none" stroke="#323232" stroke-linecap="round" stroke-linejoin="round" stroke-width="1.5"/><line x1="7" y1="12" x2="9" y2="12" fill="none" stroke="#323232" stroke-linecap="round" stroke-linejoin="round" stroke-width="1.5"/><line x1="7" y1="15" x2="9" y2="15" fill="none" stroke="#323232" stroke-linecap="round" stroke-linejoin="round" stroke-width="1.5"/><circle cx="12" cy="12" r="9" fill="none" stroke="#323232" stroke-linecap="round" stroke-linejoin="round" stroke-width="1.5"/><path d="M14.35868,12.54607l.14132.14349.14134-.14351a1.367,1.367,0,0,1,1.954,0h0a1.41815,1.41815,0,0,1,0,1.984l-1.21968,1.23839a1.22871,1.22871,0,0,1-1.75127,0l-1.21967-1.23836a1.41816,1.41816,0,0,1,0-1.984h0A1.367,1.367,0,0,1,14.35868,12.54607Z" fill="none" stroke="#323232" stroke-linecap="round" stroke-linejoin="round" stroke-width="1.5"/><rect width="24" height="24" fill="none"/></svg>