<?xml version="1.0" encoding="UTF-8"?><svg version="1.1" viewBox="0 0 24 24" xmlns="http://www.w3.org/2000/svg" xmlns:xlink="http://www.w3.org/1999/xlink"><g fill="none"><path d="M0 0h24v24h-24Z"></path><path stroke="#323232" stroke-linecap="round" stroke-linejoin="round" stroke-width="1.5" d="M15 9.449v5.967"></path><path stroke="#323232" stroke-linecap="round" stroke-linejoin="round" stroke-width="1.5" d="M14.121 10.313l1.25571e-07 1.25534e-07c1.17175 1.1714 1.17204 3.07089.000640388 4.24264 -1.1714 1.17175-3.07089 1.17204-4.24264.000640388 -1.17175-1.1714-1.17204-3.07089-.000640388-4.24264 .000213514-.000213578.00042706-.000427125.000640639-.000640639l-1.84592e-07 1.84536e-07c1.1715-1.17115 3.0705-1.17115 4.242-3.69072e-07"></path><path stroke="#323232" stroke-linecap="round" stroke-linejoin="round" stroke-width="1.5" d="M12 3v0l-3.93403e-07 8.88178e-15c4.97056-2.1727e-07 9 4.02944 9 9v5 0c0 2.20914-1.79086 4-4 4h-5l-3.93403e-07-7.10543e-15c-4.97056-2.1727e-07-9-4.02944-9-9 0 0 0-5.32907e-15 0-5.32907e-15v0l6.92779e-14-5.72157e-07c7.50534e-07-4.97056 4.02944-9 9-9Z"></path><path d="M24 24h-24v-24h24Z"></path></g></svg>