<svg viewBox="0 0 24 24" xmlns="http://www.w3.org/2000/svg" xmlns:xlink="http://www.w3.org/1999/xlink"><defs><path d="M0 0h24v24H0Z" id="a"/></defs><g fill="none"><use xlink:href="#a"/><g stroke-linecap="round" stroke-width="1.5" stroke="#323232" fill="none" stroke-linejoin="round"><path d="M21 13v3.5 0c0 2.48-2.02 4.5-4.5 4.5h-9l-.01-.001c-2.49-.01-4.5-2.02-4.5-4.51 0 0 0-.001 0-.001v-9l0-.01c0-2.49 2.01-4.5 4.5-4.5h3.49"/><path d="M18 2a4 4 0 1 0 0 8 4 4 0 1 0 0-8Z"/><path d="M19.33 5.33l-1.67 1.66 -1.01-1"/><path d="M7.25 12L13 12"/><path d="M7.25 16l9.5 0"/><path d="M7.25 8L10 8"/></g><use xlink:href="#a"/></g></svg>