<svg id="Layer_3" data-name="Layer 3" xmlns="http://www.w3.org/2000/svg" viewBox="0 0 24 24"><path d="M0,0H24V24H0Z" fill="none"/><path d="M14.111,5H18a3,3,0,0,1,3,3V18a3,3,0,0,1-3,3H6a3,3,0,0,1-3-3V8A3,3,0,0,1,6,5H9.889" fill="none" stroke="#323232" stroke-linecap="round" stroke-linejoin="round" stroke-width="1.5"/><line x1="11.99999" y1="11" x2="11.99999" y2="8.5" fill="none" stroke="#323232" stroke-linecap="round" stroke-linejoin="round" stroke-width="1.5"/><path d="M9.889,5.0423,9.51977,3.196A1,1,0,0,1,10.50032,2h2.99937a.99994.99994,0,0,1,.98053,1.196L14.111,5.0423a1,1,0,0,0,.12309.71059L15.428,7.74269A.5.5,0,0,1,14.9992,8.5H9.00081A.5.5,0,0,1,8.572,7.74268L9.76588,5.75289A1,1,0,0,0,9.889,5.0423Z" fill="none" stroke="#323232" stroke-linecap="round" stroke-linejoin="round" stroke-width="1.5"/><path d="M7,16H17" fill="none" stroke="#323232" stroke-linecap="round" stroke-linejoin="round" stroke-width="1.5"/></svg>