<svg id="Layer_3" data-name="Layer 3" xmlns="http://www.w3.org/2000/svg" viewBox="0 0 24 24"><rect width="24" height="24" fill="none"/><path d="M21,8v6.92893a5,5,0,0,1-1.46447,3.53554l-1.07106,1.07106A5,5,0,0,1,14.92893,21H8a5,5,0,0,1-5-5V8A5,5,0,0,1,8,3h8A5,5,0,0,1,21,8Z" fill="none" stroke="#323232" stroke-linecap="round" stroke-linejoin="round" stroke-width="1.5"/><path d="M21,15H18a3,3,0,0,0-3,3v3" fill="none" stroke="#323232" stroke-linecap="round" stroke-linejoin="round" stroke-width="1.5"/><line x1="7.5" y1="8.5" x2="16.5" y2="8.5" fill="none" stroke="#323232" stroke-linecap="round" stroke-linejoin="round" stroke-width="1.5"/><line x1="7.5" y1="12" x2="13" y2="11.9999" fill="none" stroke="#323232" stroke-linecap="round" stroke-linejoin="round" stroke-width="1.5"/><line x1="7.5" y1="15.5" x2="10" y2="15.5" fill="none" stroke="#323232" stroke-linecap="round" stroke-linejoin="round" stroke-width="1.5"/></svg>