<svg viewBox="0 0 24 24" xmlns="http://www.w3.org/2000/svg"><g stroke-linecap="round" stroke-width="1.5" stroke="#323232" fill="none" stroke-linejoin="round"><path d="M20.75 16.98h-3.5 -.01c-.7 0-1.25.55-1.25 1.25 0 0 0 0 0 0v2.5l0 0c0 .69.55 1.24 1.25 1.24h3.5 -.01c.69 0 1.25-.56 1.25-1.25v-2.5l0-.01c0-.7-.56-1.25-1.25-1.25 -.01 0-.01 0-.01 0Z"/><path d="M20.75 16.98v-1.24 0c0-.97-.79-1.75-1.75-1.75v0l-.01 0c-.97 0-1.75.78-1.75 1.75 0 0 0 0 0 0v1.23"/></g><g fill="none"><path d="M0 0h24v24H0Z"/><g stroke-linecap="round" stroke-width="1.5" stroke="#323232" fill="none" stroke-linejoin="round"><path d="M20.94 11l0 0c-.56-4.94-5.01-8.5-9.95-7.95 -4.94.55-8.5 5-7.95 9.94 .5 4.55 4.36 7.99 8.94 7.99"/><path d="M13.5 10.5l-3 3"/><path d="M10.5 10.5l3 3"/></g></g></svg>