<svg viewBox="0 0 24 24" xmlns="http://www.w3.org/2000/svg"><g stroke-linecap="round" stroke-width="1.5" stroke="#323232" fill="none" stroke-linejoin="round"><path d="M4 3h12.99v16 0c0 1.1-.9 2-2 2h-9l-.01-.001c-1.11-.01-2-.9-2-2.01 0 0 0 0 0 0V7.14l-.95-2.85 0 0c-.18-.53.1-1.1.63-1.27 .1-.04.2-.06.31-.06Z"/><path d="M8 8l3 0"/><path d="M8 11l2 0"/><path d="M8 14.12l3 0"/><path d="M8 17l2 0"/><path d="M17 12.998l-.001-.01c0 .55.44.99 1 .99 .26-.01.51-.11.7-.3l1.7-1.71 0-.01c.37-.38.58-.89.58-1.42v-5.59 0c0-1.11-.9-2-2-2h-2Z"/></g><path fill="none" d="M24 24H0V0h24Z"/></svg>