<?xml version="1.0" encoding="UTF-8"?><svg version="1.1" viewBox="0 0 24 24" xmlns="http://www.w3.org/2000/svg" xmlns:xlink="http://www.w3.org/1999/xlink"><!--Generated by IJSVG (https://github.com/iconjar/IJSVG)--><g stroke-linecap="round" stroke-width="1.5" stroke="#323232" fill="none" stroke-linejoin="round"><path d="M19.3891,11.6109c2.14788,2.14788 2.14788,5.63029 0,7.77817c-2.14788,2.14788 -5.63029,2.14788 -7.77817,0c-2.14788,-2.14788 -2.14788,-5.63029 -1.77636e-15,-7.77817c2.14788,-2.14788 5.63029,-2.14788 7.77817,-1.77636e-15"></path><path d="M12.3891,11.6109c2.14788,2.14788 2.14788,5.63029 0,7.77817c-2.14788,2.14788 -5.63029,2.14788 -7.77817,0c-2.14788,-2.14788 -2.14788,-5.63029 -1.77636e-15,-7.77817c2.14788,-2.14788 5.63029,-2.14788 7.77817,-1.77636e-15"></path><path d="M15,3.687c0,0.438 -0.189,0.859 -0.526,1.173l-2.211,2.064c-0.148,0.138 -0.378,0.138 -0.527,0l-2.21,-2.063c-0.337,-0.315 -0.526,-0.736 -0.526,-1.174v0c0,-0.932 0.755,-1.687 1.687,-1.687h2.626c0.932,0 1.687,0.755 1.687,1.687v0Z"></path></g><path fill="none" d="M0,0h24v24h-24Z"></path></svg>