<?xml version="1.0" encoding="UTF-8"?><svg version="1.1" viewBox="0 0 24 24" xmlns="http://www.w3.org/2000/svg" xmlns:xlink="http://www.w3.org/1999/xlink"><!--Generated by IJSVG (https://github.com/iconjar/IJSVG)--><g fill="none"><path d="M0,0h24v24h-24Z"></path><path stroke="#323232" stroke-linecap="round" stroke-linejoin="round" stroke-width="1.5" d="M7.5,17.33v-2.66"></path><path stroke="#323232" stroke-linecap="round" stroke-linejoin="round" stroke-width="1.5" d="M6.17,16h2.66"></path><path stroke="#323232" stroke-linecap="round" stroke-linejoin="round" stroke-width="1.5" d="M7.398,11c-1.28,0 -2.559,0.488 -3.536,1.465c-1.953,1.953 -1.953,5.118 0,7.071c1.953,1.953 5.118,1.953 7.071,0h2.134c1.953,1.953 5.118,1.953 7.071,0c1.953,-1.953 1.953,-5.118 0,-7.071c-0.976,-0.977 -2.256,-1.465 -3.536,-1.465h-9.204Z"></path><path stroke="#323232" stroke-linecap="round" stroke-linejoin="round" stroke-width="1.5" d="M17.335,16.817c0.138,0 0.25,0.112 0.249,0.25c0,0.138 -0.112,0.25 -0.25,0.25c-0.138,0 -0.25,-0.112 -0.25,-0.25c0.001,-0.138 0.113,-0.25 0.251,-0.25"></path><path stroke="#323232" stroke-linecap="round" stroke-linejoin="round" stroke-width="1.5" d="M15.201,14.683c0.138,0 0.25,0.112 0.249,0.25c0,0.138 -0.112,0.25 -0.25,0.25c-0.138,0 -0.25,-0.112 -0.25,-0.25c0.001,-0.138 0.113,-0.25 0.251,-0.25"></path><path stroke="#323232" stroke-linecap="round" stroke-linejoin="round" stroke-width="1.5" d="M12,11v-1.5c0,-1.38 1.119,-2.5 2.5,-2.5v0c1.381,0 2.5,-1.119 2.5,-2.5v-1.5"></path></g></svg>