<svg id="Layer_3" data-name="Layer 3" xmlns="http://www.w3.org/2000/svg" viewBox="0 0 24 24"><rect width="24" height="24" fill="none"/><path d="M15.30254,16.51277l3.639,3.23463a1,1,0,0,0,1.21908.08464l.74544-.497a2,2,0,0,0,.85173-1.27184l.12572-.62858a6,6,0,0,0-.0633-2.63471L19.83282,6.86645a3.5,3.5,0,0,0-2.28831-2.46992l-.65079-.21692a3.5,3.5,0,0,0-2.672.1899l-.49217.24608a1,1,0,0,1-.44721.10558H10.71769a1,1,0,0,1-.44721-.10558l-.49217-.24608a3.5,3.5,0,0,0-2.672-.1899l-.65079.21692A3.5,3.5,0,0,0,4.16718,6.86645L2.17983,14.79993a6,6,0,0,0-.0633,2.63471l.12572.62858A2,2,0,0,0,3.094,19.33506l.74544.497A1,1,0,0,0,5.0585,19.7474l3.639-3.23463a1,1,0,0,1,.66436-.25259h5.27636A1,1,0,0,1,15.30254,16.51277Z" fill="none" stroke="#323232" stroke-linecap="round" stroke-linejoin="round" stroke-width="1.5"/><path d="M6.5,10.5h3" fill="none" stroke="#323232" stroke-linecap="round" stroke-linejoin="round" stroke-width="1.5"/><path d="M8,9v3" fill="none" stroke="#323232" stroke-linecap="round" stroke-linejoin="round" stroke-width="1.5"/><path d="M15.74943,12.27809a.25.25,0,1,1-.25032-.25031.25.25,0,0,1,.25032.25031" fill="none" stroke="#323232" stroke-linecap="round" stroke-linejoin="round" stroke-width="1.5"/><path d="M15.75032,8.72254A.25.25,0,1,1,15.5,8.47223a.25.25,0,0,1,.25032.25031" fill="none" stroke="#323232" stroke-linecap="round" stroke-linejoin="round" stroke-width="1.5"/><path d="M17.27739,10.25045a.25.25,0,1,1-.25032.25031.25.25,0,0,1,.25032-.25031" fill="none" stroke="#323232" stroke-linecap="round" stroke-linejoin="round" stroke-width="1.5"/><path d="M13.72183,10.24956a.25.25,0,1,1-.25031.25031.25.25,0,0,1,.25031-.25031" fill="none" stroke="#323232" stroke-linecap="round" stroke-linejoin="round" stroke-width="1.5"/></svg>