<svg id="Layer_3" data-name="Layer 3" xmlns="http://www.w3.org/2000/svg" viewBox="0 0 24 24"><path d="M0,0H24V24H0Z" fill="none"/><path d="M9.4594,12.07879l-2.16725,2.1718A1,1,0,0,0,7,14.957V16a1,1,0,0,0,1,1H9.04669a1,1,0,0,0,.70786-.29364l2.16342-2.168" fill="none" stroke="#323232" stroke-linecap="round" stroke-linejoin="round" stroke-width="1.5"/><path d="M13.11091,10.84361a.04546.04546,0,1,0,.04545.04546.045.045,0,0,0-.04545-.04546" fill="none" stroke="#323232" stroke-linecap="round" stroke-linejoin="round" stroke-width="1.5"/><path d="M9.46027,12.07966A3.83368,3.83368,0,0,1,9.25,10.875a3.875,3.875,0,1,1,3.875,3.875,3.83434,3.83434,0,0,1-1.20618-.21075" fill="none" stroke="#323232" stroke-linecap="round" stroke-linejoin="round" stroke-width="1.5"/><rect x="3" y="3.00001" width="18" height="18" rx="5" stroke-width="1.5" stroke="#323232" stroke-linecap="round" stroke-linejoin="round" fill="none"/></svg>