<?xml version="1.0" encoding="UTF-8"?><svg version="1.1" viewBox="0 0 24 24" xmlns="http://www.w3.org/2000/svg" xmlns:xlink="http://www.w3.org/1999/xlink"><g stroke-linecap="round" stroke-width="1.5" stroke="#323232" fill="none" stroke-linejoin="round"><path d="M11.845 13.56l1.934 1.93 -5.02768e-08-4.98668e-08c.167881.166512.394547.260268.631.261h.947 -3.9078e-08c.493743 2.15822e-08.894-.400257.894-.894v-.95l9.68521e-09 4.87645e-06c-.00047064-.237288-.0946324-.46479-.261997-.633001l-1.93-1.926 -1.64115e-08 4.78403e-08c.637624-1.8587-.352255-3.88238-2.21096-4.52 -1.8587-.637624-3.88238.352255-4.52 2.21096 -.637624 1.8587.352255 3.88238 2.21096 4.52 .747236.256338 1.55853.256704 2.306.00104206Z"></path><path d="M10 19.5h-6"></path><path d="M14 20.271l8.22706e-07-1.87309e-07c4.84654-1.10343 7.88092-5.92684 6.77749-10.7734 -1.10343-4.84654-5.92684-7.88092-10.7734-6.77749 -4.84654 1.10343-7.88092 5.92684-6.77749 10.7734 .158186.694791.398327 1.36834.715376 2.00649"></path><path d="M8 17.5l2 2 -2 2"></path><path d="M10.7 10.251l1.77636e-15 7.54979e-09c4.16963e-09.0276142.0223858.05.05.05 .0276142-4.16963e-09.05-.0223858.05-.05 -4.16963e-09-.0276142-.0223858-.05-.05-.05h-2.18557e-09c-.0276142 1.20706e-09-.05.0223858-.05.05 0 0 0 1.77636e-15 0 1.77636e-15"></path></g><path fill="none" d="M0 24v-24h24v24Z"></path></svg>