<?xml version="1.0" encoding="UTF-8"?><svg version="1.1" viewBox="0 0 24 24" xmlns="http://www.w3.org/2000/svg" xmlns:xlink="http://www.w3.org/1999/xlink"><g stroke-linecap="round" stroke-width="1.5" stroke="#323232" fill="none" stroke-linejoin="round"><path d="M13.464 10.793c.138 0 .249-.112.249-.25 0-.138-.113-.25-.25-.25 -.138 0-.25.112-.25.25 -1.77636e-15.138.112.25.251.25"></path><path d="M9.831 11.696c-.417-1.321-.122-2.82.921-3.869 1.495-1.498 3.918-1.499 5.414-.002 1.496 1.496 1.499 3.926.007 5.426 -1.049 1.051-2.55 1.349-3.872.926l-.008.007 -2.593 2.598c-.684.685-1.794.685-2.478 0 -.682-.683-.682-1.789 0-2.473l2.593-2.598"></path><path d="M19 21h-14c-1.105 0-2-.895-2-2v-14c0-1.105.895-2 2-2h14c1.105 0 2 .895 2 2v14c0 1.105-.895 2-2 2Z"></path></g><path fill="none" d="M0 0h24v24h-24v-24Z"></path></svg>