<?xml version="1.0" encoding="UTF-8"?><svg version="1.1" viewBox="0 0 24 24" xmlns="http://www.w3.org/2000/svg" xmlns:xlink="http://www.w3.org/1999/xlink"><g fill="none"><path d="M0 0h24v24h-24v-24Z"></path><path stroke="#323232" stroke-linecap="round" stroke-linejoin="round" stroke-width="1.5" d="M9.941 11.843l-1.93 1.934c-.167.168-.261.395-.261.631v.947c0 .494.4.894.894.894h.95c.237 0 .465-.094.633-.262 0 0 1.926-1.93 1.926-1.93 .347.115.711.193 1.097.193 1.933 0 3.5-1.567 3.5-3.5 0-1.933-1.567-3.5-3.5-3.5 -1.933 0-3.5 1.567-3.5 3.5 3.55271e-15.384.077.747.191 1.093Z"></path><path stroke="#323232" stroke-linecap="round" stroke-linejoin="round" stroke-width="1.5" d="M18.364 5.636c3.515 3.515 3.515 9.213 0 12.728 -3.515 3.515-9.213 3.515-12.728 0 -3.515-3.515-3.515-9.213 0-12.728 3.515-3.515 9.213-3.515 12.728 8.88178e-16"></path><path stroke="#323232" stroke-linecap="round" stroke-linejoin="round" stroke-width="1.5" d="M13.25 10.7c-.028 0-.05.022-.05.05 0 .028.022.05.05.05 .028 0 .05-.022.05-.05 0-.028-.022-.05-.05-.05"></path></g></svg>