<?xml version="1.0" encoding="UTF-8"?><svg version="1.1" viewBox="0 0 24 24" xmlns="http://www.w3.org/2000/svg" xmlns:xlink="http://www.w3.org/1999/xlink"><g fill="none"><path d="M0 0h24v24h-24"></path><path stroke="#323232" stroke-linecap="round" stroke-linejoin="round" stroke-width="1.5" d="M8.294 10.705c0-.163-.132-.294-.294-.294 -.163.001-.294.133-.294.295 0 .163.132.294.294.294 .162 0 .294-.132.294-.295"></path><path stroke="#323232" stroke-linecap="round" stroke-linejoin="round" stroke-width="1.5" d="M8 10.411v-4.911c0-1.381 1.119-2.5 2.5-2.5v0c1.381 0 2.5 1.119 2.5 2.5v.572"></path><path stroke="#323232" stroke-linecap="round" stroke-linejoin="round" stroke-width="1.5" d="M10.162 15.183c.807.558 1.783.889 2.838.889 .662 0 1.29-.135 1.868-.369l3.009 3.005c.188.187.442.292.706.292h1.417c.552 0 1-.448 1-1v-1.412c0-.266-.106-.52-.294-.708l-3.044-3.04c.21-.551.338-1.143.338-1.768 0-2.761-2.239-5-5-5 -.784 0-1.516.196-2.176.518"></path><path stroke="#323232" stroke-linecap="round" stroke-linejoin="round" stroke-width="1.5" d="M6.004 15.268c-.557-.243-1.083-.582-1.539-1.038 -1.953-1.953-1.953-5.118 0-7.071 1.953-1.953 5.118-1.953 7.071 0 1.953 1.953 1.953 5.118 0 7.071 -.454.454-.978.791-1.532 1.034l.003 4.237c0 .266-.105.52-.293.708l-.998.998c-.391.391-1.024.391-1.414 0l-1.002-1.002c-.187-.187-.293-.441-.293-.706l-.003-4.231Z"></path><path d="M24 0v24h-24v-24h24Z"></path></g></svg>