<?xml version="1.0" encoding="UTF-8"?><svg version="1.1" viewBox="0 0 24 24" xmlns="http://www.w3.org/2000/svg" xmlns:xlink="http://www.w3.org/1999/xlink"><g stroke-linecap="round" stroke-width="1.5" stroke="#323232" fill="none" stroke-linejoin="round"><path d="M10.074 2.5h3.852c1.145 0 2.074.929 2.074 2.074v3.852c0 1.145-.929 2.074-2.074 2.074h-3.852c-1.145 1.77636e-15-2.074-.929-2.074-2.074v-3.852c0-1.145.929-2.074 2.074-2.074Z"></path><line x1="12" x2="12" y1="5" y2="8"></line><polyline points="13.5,6.5 12,5 10.5,6.5"></polyline><path d="M22 15.574v3.852c0 1.145-.929 2.074-2.074 2.074h-3.852c-1.145 0-2.074-.929-2.074-2.074v-3.852c0-1.145.929-2.074 2.074-2.074h3.852c1.145 1.77636e-15 2.074.929 2.074 2.074Z"></path><line x1="19.5" x2="16.5" y1="17.5" y2="17.5"></line><polyline points="18,19 19.5,17.5 18,16"></polyline><path d="M2 19.426v-3.852c0-1.145.929-2.074 2.074-2.074h3.852c1.145 0 2.074.929 2.074 2.074v3.852c0 1.145-.929 2.074-2.074 2.074h-3.852c-1.145 0-2.074-.929-2.074-2.074Z"></path><line x1="4.5" x2="7.5" y1="17.5" y2="17.5"></line><polyline points="6,16 4.5,17.5 6,19"></polyline></g><rect width="24" height="24" fill="none"></rect></svg>