<?xml version="1.0" encoding="UTF-8"?><svg version="1.1" viewBox="0 0 24 24" xmlns="http://www.w3.org/2000/svg" xmlns:xlink="http://www.w3.org/1999/xlink"><g fill="none"><path d="M0 0h24v24h-24v-24Z"></path><path stroke="#323232" stroke-linecap="round" stroke-linejoin="round" stroke-width="1.5" d="M17.668 15h-11.337c-1.287 0-2.331-1.043-2.331-2.331v-7.338c0-1.288 1.043-2.331 2.331-2.331h11.338c1.287 0 2.331 1.043 2.331 2.331v7.339c-.001 1.287-1.044 2.33-2.332 2.33Z"></path><path stroke="#323232" stroke-linecap="round" stroke-linejoin="round" stroke-width="1.5" d="M16.91 7.545c.1 0 .182-.081.181-.182 0-.1-.081-.182-.182-.182 -.101 0-.182.081-.182.182 0 .101.082.182.183.182"></path><path stroke="#323232" stroke-linecap="round" stroke-linejoin="round" stroke-width="1.5" d="M16.91 10.818c.1 0 .182-.081.181-.182 0-.1-.081-.182-.182-.182 -.101 0-.182.081-.182.182 0 .101.082.182.183.182"></path><path stroke="#323232" stroke-linecap="round" stroke-linejoin="round" stroke-width="1.5" d="M10.23 10.64h3.54"></path><path stroke="#323232" stroke-linecap="round" stroke-linejoin="round" stroke-width="1.5" d="M13.637 7.545c.1 0 .182-.081.181-.182 0-.1-.081-.182-.182-.182 -.1 0-.182.081-.182.182 .001.101.082.182.183.182"></path><path stroke="#323232" stroke-linecap="round" stroke-linejoin="round" stroke-width="1.5" d="M10.364 7.545c.1 0 .182-.081.181-.182 0-.1-.081-.182-.182-.182 -.1 0-.182.081-.182.182 .001.101.082.182.183.182"></path><path stroke="#323232" stroke-linecap="round" stroke-linejoin="round" stroke-width="1.5" d="M7.092 7.545c.1 0 .182-.081.181-.182 0-.1-.081-.182-.182-.182 -.101 0-.182.081-.182.182 0 .101.082.182.183.182"></path><path stroke="#323232" stroke-linecap="round" stroke-linejoin="round" stroke-width="1.5" d="M7.092 10.818c.1 0 .182-.081.181-.182 0-.1-.081-.182-.182-.182 -.101 0-.182.081-.182.182 0 .101.082.182.183.182"></path><path stroke="#323232" stroke-linecap="round" stroke-linejoin="round" stroke-width="1.5" d="M9.5 21l2.5-2 2.5 2"></path></g></svg>