<?xml version="1.0" encoding="UTF-8"?><svg version="1.1" viewBox="0 0 24 24" xmlns="http://www.w3.org/2000/svg" xmlns:xlink="http://www.w3.org/1999/xlink"><defs><path d="M6.166 15.05h-2.18557e-09c.0276142 1.20706e-09.05-.0223858.05-.05 0 0 0 0 0 0v0c0-.0276142-.0223858-.05-.05-.05 0 0-8.88178e-16 0-8.88178e-16 0h-2.18557e-09c-.0276142 1.20706e-09-.05.0223858-.05.05 0 0 0 1.77636e-15 0 1.77636e-15v-7.54979e-09c-4.16963e-09.0276142.0223858.05.05.05 0 0 8.88178e-16 0 8.88178e-16 0" id="a"></path></defs><g stroke-linecap="round" stroke-width="1.5" stroke="#323232" fill="none" stroke-linejoin="round"><path d="M5.331 21h6.669l3.37503e-08 1.44809e-11c1.28738.000552385 2.33145-1.04262 2.332-2.33 6.11386e-11-1.42492e-07 1.2292e-10-2.86509e-07 1.84034e-10-4.29e-07v-4.339l1.06581e-14-2.145e-07c0-1.28738-1.04362-2.331-2.331-2.331 -.000333405 0-.00066681 7.15308e-08-.00100021 2.14592e-07h-6.669l-1.11284e-07-4.77716e-11c-1.28682-.000552342-2.33045 1.04218-2.331 2.329 -2.86214e-07.00066681-2.86182e-07.00133362 9.56066e-11.00200043v4.338l2.35367e-14 2.40448e-07c1.94388e-07 1.28738 1.04362 2.331 2.331 2.331Z"></path><path d="M13 3h-8.286l-9.71092e-08 5.66098e-11c-.946387.000551722-1.71345.767613-1.714 1.714v5.286"></path><path d="M21 11v8.2l3.55271e-15 3.55271e-15c0 .994113-.805887 1.8-1.8 1.8 0 0 0 0 0 0h-2.2"></path><line x1="16" x2="21" y1="8" y2="3"></line><line x1="17" x2="21" y1="3" y2="3"></line><line x1="21" x2="21" y1="7" y2="3"></line><path d="M8.666 15.05h-2.18557e-09c.0276142 1.20706e-09.05-.0223858.05-.05 0 0 0-1.77636e-15 0-1.77636e-15v0c0-.0276142-.0223858-.05-.05-.05 -.0276142 0-.05.0223858-.05.05 0 .0276142.0223858.05.05.05"></path><path d="M11.166 15.05h-2.18557e-09c.0276142 1.20706e-09.05-.0223858.05-.05 0 0 0-1.77636e-15 0-1.77636e-15v0c0-.0276142-.0223858-.05-.05-.05 0 0-1.77636e-15 0-1.77636e-15 0h-2.18557e-09c-.0276142 1.20706e-09-.05.0223858-.05.05 0 0 0 1.77636e-15 0 1.77636e-15l1.77636e-15-7.54979e-09c-4.16963e-09.0276142.0223858.05.05.05 0 0 1.77636e-15 0 1.77636e-15 0"></path><use xlink:href="#a"></use><use xlink:href="#a"></use><path d="M6.166 18h5"></path></g><rect width="24" height="24" fill="none"></rect></svg>