<svg viewBox="0 0 24 24" xmlns="http://www.w3.org/2000/svg"><g stroke-linecap="round" stroke-width="1.5" stroke="#323232" fill="none" stroke-linejoin="round"><path d="M3 5.5l0 3 3 0"/><path d="M3.05 13l-.01-.01c.55 4.93 5.01 8.47 9.94 7.91 4.93-.56 8.47-5.02 7.91-9.95 -.56-4.94-5.02-8.48-9.95-7.92 -3.23.36-6.01 2.44-7.28 5.44"/><path d="M9.66 12.14l-1.91 1.9 -.01 0c-.17.16-.26.39-.26.62v.93l-.001 0c-.01.48.39.88.88.88 0 0 0 0 0 0h.93l0 0c.23 0 .45-.1.62-.26l1.9-1.91 0 0c.34.12.71.18 1.08.19l0 0c1.93.03 3.53-1.52 3.57-3.46 .03-1.94-1.52-3.54-3.46-3.58 -1.94-.04-3.54 1.51-3.58 3.45 -.01.4.05.81.18 1.19Z"/><path d="M12.92 11.03h-.01c-.03 0-.05.01-.05.04 0 .02.01.04.04.04 .02-.01.04-.02.04-.05 0 0 0-.001 0-.001v0c0-.03-.02-.05-.05-.05v0"/></g><path fill="none" d="M0 0h24v24H0Z"/></svg>