<svg id="Layer_3" data-name="Layer 3" xmlns="http://www.w3.org/2000/svg" viewBox="0 0 24 24"><rect width="24" height="24" fill="none"/><path d="M6.30954,8.596,3.58579,11.31979a2,2,0,0,0,0,2.82842l6.266,6.266a2,2,0,0,0,2.82842,0l3.361-3.361" fill="none" stroke="#323232" stroke-linecap="round" stroke-linejoin="round" stroke-width="1.5"/><path d="M15.503,12.497,12,16,9.36562,13.39649C6.08368,10.153,5.01947,5.94608,6.98863,4H7L19.58361,16.57476a1.42,1.42,0,0,1,0,2.00915h0a1.42238,1.42238,0,0,1-2.01054,0L13.493,14.507" fill="none" stroke="#323232" stroke-linecap="round" stroke-linejoin="round" stroke-width="1.5"/><path d="M18.0511,15.04333l2.36311-2.36312a2,2,0,0,0,0-2.82842l-6.266-6.266a2,2,0,0,0-2.82842,0L8.95347,5.9521" fill="none" stroke="#323232" stroke-linecap="round" stroke-linejoin="round" stroke-width="1.5"/><path d="M18.7986,8.23617l1.252-.94432a2.3865,2.3865,0,0,0,.25041-3.5928h0a2.3865,2.3865,0,0,0-3.5928.25041l-.94432,1.252" fill="none" stroke="#323232" stroke-linecap="round" stroke-linejoin="round" stroke-width="1.5"/></svg>