<svg id="Layer_3" data-name="Layer 3" xmlns="http://www.w3.org/2000/svg" viewBox="0 0 24 24"><rect width="24" height="24" fill="none"/><path d="M10,7h2a2,2,0,0,1,2,2V19a2,2,0,0,1-2,2H4a2,2,0,0,1-2-2V9A2,2,0,0,1,4,7H6L5.79487,5.53554A2.22665,2.22665,0,0,1,8,3H8a2.22665,2.22665,0,0,1,2.20513,2.53554Z" fill="none" stroke="#323232" stroke-linecap="round" stroke-linejoin="round" stroke-width="1.5"/><path d="M21.98852,13.80846,22,15H17.5a.5.5,0,0,1-.5-.5V11.31419C17,6.72239,19.23344,3,21.98852,3L22,3.01148,21.99081,3V15" fill="none" stroke="#323232" stroke-linecap="round" stroke-linejoin="round" stroke-width="1.5"/><path d="M19,15h3a0,0,0,0,1,0,0v4.5A1.5,1.5,0,0,1,20.5,21h0A1.5,1.5,0,0,1,19,19.5V15A0,0,0,0,1,19,15Z" fill="none" stroke="#323232" stroke-linecap="round" stroke-linejoin="round" stroke-width="1.5"/></svg>