<?xml version="1.0" encoding="UTF-8"?><svg version="1.1" viewBox="0 0 24 24" xmlns="http://www.w3.org/2000/svg" xmlns:xlink="http://www.w3.org/1999/xlink"><!--Generated by IJSVG (https://github.com/iconjar/IJSVG)--><g stroke-linecap="round" stroke-width="1.5" stroke="#323232" fill="none" stroke-linejoin="round"><path d="M3,3.084v4.462v0.09v-0.09c0,1.274 0.525,2.402 1.339,3.132c0.398,0.357 0.661,0.839 0.661,1.374v7.448c0,0.828 0.672,1.5 1.5,1.5c0.828,0 1.5,-0.672 1.5,-1.5v-7.448c0,-0.535 0.263,-1.017 0.661,-1.374c0.814,-0.73 1.339,-1.858 1.339,-3.132v-4.462v4.462"></path><path d="M6.5,8v-5"></path><path d="M20,4.052c0,-0.552 -0.448,-1 -1,-1h-1c-1.657,0 -3,1.343 -3,3v6c0,1.304 0.837,2.403 2,2.816v4.632c0,0.828 0.672,1.5 1.5,1.5c0.828,0 1.5,-0.672 1.5,-1.5v-4.448v-11Z"></path></g><path fill="none" d="M0,0h24v24h-24v-24Z"></path></svg>