<?xml version="1.0" encoding="UTF-8"?><svg version="1.1" viewBox="0 0 24 24" xmlns="http://www.w3.org/2000/svg" xmlns:xlink="http://www.w3.org/1999/xlink"><g stroke-linecap="round" stroke-width="1.5" stroke="#323232" fill="none" stroke-linejoin="round"><path d="M4.5 4h5v10.5 0c0 1.38071-1.11929 2.5-2.5 2.5v0l-1.09278e-07-3.55271e-15c-1.38071-6.03528e-08-2.5-1.11929-2.5-2.5 0 0 0-1.77636e-15 0-1.77636e-15v-10.5Z"></path><line x1="3.5" x2="10.5" y1="4" y2="4"></line><path d="M14.5 4h5v10.5 0c0 1.38071-1.11929 2.5-2.5 2.5v0l-1.09278e-07-3.55271e-15c-1.38071-6.03528e-08-2.5-1.11929-2.5-2.5 0 0 0-1.77636e-15 0-1.77636e-15v-10.5Z"></path><line x1="13.5" x2="20.5" y1="4" y2="4"></line><line x1="19.5" x2="14.5" y1="10" y2="10"></line><line x1="9.5" x2="4.5" y1="10" y2="10"></line><line x1="3" x2="21" y1="20" y2="20"></line></g><path fill="none" d="M0 0h24v24h-24Z"></path></svg>