<svg id="Layer_3" data-name="Layer 3" xmlns="http://www.w3.org/2000/svg" viewBox="0 0 24 24"><path d="M9.92534,18.47179a1.8,1.8,0,0,1-2.54624.00134l-3.85156-3.8495a1.8,1.8,0,0,1,0-2.54622l6.495-6.492A2,2,0,0,1,11.43643,5H15a2,2,0,0,1,2,2v3.55848a2,2,0,0,1-.58467,1.4131Z" fill="none" stroke="#323232" stroke-linecap="round" stroke-linejoin="round" stroke-width="1.5"/><path d="M21,8v3.7974a2,2,0,0,1-.58579,1.41421L14.752,18.87385" fill="none" stroke="#323232" stroke-linecap="round" stroke-linejoin="round" stroke-width="1.5"/><path d="M0,0H24V24H0Z" fill="none"/></svg>