<?xml version="1.0" encoding="UTF-8"?><svg version="1.1" viewBox="0 0 24 24" xmlns="http://www.w3.org/2000/svg" xmlns:xlink="http://www.w3.org/1999/xlink"><g stroke-linecap="round" stroke-width="1.5" stroke="#323232" fill="none" stroke-linejoin="round"><path d="M14.996 7.75h-5.996"></path><path d="M12 6.25l.004 1.5"></path><path d="M13.5 7.75c0 2.901-2.015 5.25-4.5 5.25"></path><path d="M15 13l9.90804e-08 1.33241e-09c-1.1425-.0153641-2.22799-.501662-3-1.344"></path><path d="M13 17h5l-1.34795e-08-8.56204e-13c1.65675.000104945 2.9999-1.34287 3-2.99962 8.02381e-09-.000126671 8.02438e-09-.000253341 1.7053e-12-.000380012v-8l6.01743e-09-.000190006c0-1.65675-1.34306-2.99981-2.99981-2.99981 -.000126671 0-.000253341 8.02324e-09-.000380012 2.40697e-08h-11.9998l1.08834e-07 6.89582e-12c-1.65675-.000104998-2.9999 1.34287-3 2.99962 -8.02745e-09.000126665-8.03243e-09.000253329-1.49294e-11.000379994v8l-6.0174e-09.000189553c-2.50162e-07 1.65675 1.34306 2.99981 2.99981 2.99981 .000126671 1.91278e-11.000253341-7.98498e-09.000380012-2.40123e-08h1.99981v4l5-4"></path></g><path fill="none" d="M0 0h24v24h-24Z"></path></svg>