<svg id="Layer_3" data-name="Layer 3" xmlns="http://www.w3.org/2000/svg" viewBox="0 0 24 24"><rect x="11" y="2.00001" width="11" height="9" rx="2.25" transform="translate(33 13.00002) rotate(-180)" stroke-width="1.5" stroke="#323232" stroke-linecap="round" stroke-linejoin="round" fill="none"/><path d="M17.89612,14H4.5A1.5,1.5,0,0,1,3,12.5V5A2,2,0,0,1,5,3H8" fill="none" stroke="#323232" stroke-linecap="round" stroke-linejoin="round" stroke-width="1.5"/><line x1="9" y1="18.00001" x2="13" y2="18.00001" fill="none" stroke="#323232" stroke-linecap="round" stroke-linejoin="round" stroke-width="1.5"/><path d="M17.99878,21H4.00122a2,2,0,0,1-1.92308-2.54936l1.0642-3.72532A1,1,0,0,1,4.10388,14H17.89612a1,1,0,0,1,.96153.72532l1.06421,3.72532A2,2,0,0,1,17.99878,21Z" fill="none" stroke="#323232" stroke-linecap="round" stroke-linejoin="round" stroke-width="1.5"/><circle cx="16" cy="6.50001" r="1.75" fill="none" stroke="#323232" stroke-linecap="round" stroke-linejoin="round" stroke-width="1.5"/><path d="M19.45,4.50007A.05.05,0,1,0,19.50006,4.45a.05.05,0,0,0-.05006.05006" fill="none" stroke="#323232" stroke-linecap="round" stroke-linejoin="round" stroke-width="1.5"/><path d="M0,0H24V24H0Z" fill="none"/></svg>