<svg id="Layer_3" data-name="Layer 3" xmlns="http://www.w3.org/2000/svg" viewBox="0 0 24 24"><path d="M7.23626,10.52315h9.52748a1.56516,1.56516,0,0,1,1.50457,1.13527l.67053,2.34722A1.56461,1.56461,0,0,1,17.43427,16H6.56573a1.56461,1.56461,0,0,1-1.50457-1.99436l.67053-2.34722A1.56446,1.56446,0,0,1,7.23626,10.52315Z" fill="none" stroke="#323232" stroke-linecap="round" stroke-linejoin="round" stroke-width="1.5"/><path d="M12,16v1.5" fill="none" stroke="#323232" stroke-linecap="round" stroke-linejoin="round" stroke-width="1.5"/><path d="M12,16v2" fill="none" stroke="#323232" stroke-linecap="round" stroke-linejoin="round" stroke-width="1.5"/><path d="M16,20.98h4" fill="none" stroke="#323232" stroke-linecap="round" stroke-linejoin="round" stroke-width="1.5"/><path d="M13.75,20.0425l-1.875,1.875-1.125-1.125" fill="none" stroke="#323232" stroke-linecap="round" stroke-linejoin="round" stroke-width="1.5"/><path d="M4,20.98H8" fill="none" stroke="#323232" stroke-linecap="round" stroke-linejoin="round" stroke-width="1.5"/><line x1="10.43519" y1="13.29167" x2="13.56481" y2="13.29167" fill="none" stroke="#323232" stroke-linecap="round" stroke-linejoin="round" stroke-width="1.5"/><path d="M7.30569,10.52315A1.56438,1.56438,0,0,1,5.74088,8.95833V4.56481A1.56438,1.56438,0,0,1,7.30569,3" fill="none" stroke="#323232" stroke-linecap="round" stroke-linejoin="round" stroke-width="1.5"/><path d="M7.30542,3h9.38889a1.56438,1.56438,0,0,1,1.56481,1.56481V8.95833a1.56438,1.56438,0,0,1-1.56481,1.56482H7.30542" fill="none" stroke="#323232" stroke-linecap="round" stroke-linejoin="round" stroke-width="1.5"/><path d="M24,0V24H0V0" fill="none"/></svg>