<?xml version="1.0" encoding="UTF-8"?><svg version="1.1" viewBox="0 0 24 24" xmlns="http://www.w3.org/2000/svg" xmlns:xlink="http://www.w3.org/1999/xlink"><!--Generated by IJSVG (https://github.com/iconjar/IJSVG)--><g stroke-linecap="round" stroke-width="1.5" stroke="#323232" fill="none" stroke-linejoin="round"><path d="M21,14.672v-9.672c0,-1.105 -0.895,-2 -2,-2h-14c-1.105,0 -2,0.895 -2,2v14c0,1.105 0.895,2 2,2h9.605"></path><path d="M15,3v10.79"></path><path d="M9,3v18"></path><path d="M3,14.94h10.83"></path><path d="M3,8.94h18"></path></g><path fill="none" stroke="#323232" stroke-width="1.5" d="M17.5,22c-2.485,0 -4.5,-2.015 -4.5,-4.5c0,-2.434 2.07,-4.502 4.504,-4.5c2.484,0.002 4.496,2.016 4.496,4.5c0,2.485 -2.014,4.5 -4.5,4.5"></path><g stroke-linecap="round" stroke-width="1.5" stroke="#323232" fill="none" stroke-linejoin="round"><path d="M17.5,15.7v3.6"></path><path d="M19.3,17.5h-3.6"></path></g><path fill="none" d="M0,0h24v24h-24Z"></path></svg>