<svg xmlns="http://www.w3.org/2000/svg" viewBox="0 0 24 24"><g id="Layer_2" data-name="Layer 2"><path d="M8.755,3.604a8.99669,8.99669,0,0,1,11.64,11.64" fill="none" stroke="#323232" stroke-linecap="round" stroke-linejoin="round" stroke-width="1.5"/><path d="M16.369,16.364l2,2A9.00324,9.00324,0,0,1,5.637,5.631l2,2" fill="none" stroke="#323232" stroke-linecap="round" stroke-linejoin="round" stroke-width="1.5"/><line x1="9.12672" y1="14.87864" x2="7.99999" y2="16.00004" fill="none" stroke="#323232" stroke-linecap="round" stroke-linejoin="round" stroke-width="1.5"/><path d="M14.45126,14.91708h0a3.76745,3.76745,0,0,1-5.3272-.04081h0a3.767,3.767,0,0,1-.0408-5.32743h0c1.30723-1.30729,3.45705-1.72437,5.97415-1.48445a.98329.98329,0,0,1,.87822.87827C16.17555,11.46073,15.7585,13.60978,14.45126,14.91708Z" fill="none" stroke="#323232" stroke-linecap="round" stroke-linejoin="round" stroke-width="1.5"/><path d="M0,0H24V24H0Z" fill="none"/></g></svg>