<?xml version="1.0" encoding="UTF-8"?><svg version="1.1" viewBox="0 0 24 24" xmlns="http://www.w3.org/2000/svg" xmlns:xlink="http://www.w3.org/1999/xlink"><g stroke-linecap="round" stroke-width="1.5" stroke="#323232" fill="none" stroke-linejoin="round"><path d="M11.621 8.369l-1.12286e-07 1.77636e-15c-2.00535 8.76565e-08-3.631 1.62565-3.631 3.631 8.76565e-08 2.00535 1.62565 3.631 3.631 3.631 2.958 0 3.684-3.632 5.379-4.6l1.1396e-08 1.5303e-08c-1.26371-1.69697-3.26333-2.68655-5.379-2.662Z"></path><path d="M16 21h-8l-2.18557e-07-7.10543e-15c-2.76142-1.20706e-07-5-2.23858-5-5 0 0 0-1.77636e-15 0-1.77636e-15v-8l5.68434e-14 7.54979e-07c-4.16963e-07-2.76142 2.23858-5 5-5h8l-2.18557e-07 5.32907e-15c2.76142-1.20706e-07 5 2.23858 5 5v8l3.55271e-15 2.18557e-07c0 2.76142-2.23858 5-5 5Z"></path><path d="M12.059 11.605l-4.4099e-07 7.37751e-08c-2.03054.339698-3.82006 1.52871-4.92 3.269"></path></g><rect width="24" height="24" fill="none"></rect></svg>