<?xml version="1.0" encoding="UTF-8"?><svg version="1.1" viewBox="0 0 24 24" xmlns="http://www.w3.org/2000/svg" xmlns:xlink="http://www.w3.org/1999/xlink"><g fill="none"><path d="M0 0h24v24h-24Z"></path><path stroke="#323232" stroke-linecap="round" stroke-linejoin="round" stroke-width="1.5" d="M15 21h2.714l-8.74228e-08-3.55271e-15c1.10457 4.82823e-08 2-.89543 2-2v-15 0c0-.552285-.447715-1-1-1h-1.857l-4.37114e-08 8.88178e-16c-.552285 2.41411e-08-1 .447715-1 1 0 0 0 0 0 0v2.306"></path><path stroke="#323232" stroke-linecap="round" stroke-linejoin="round" stroke-width="1.5" d="M8.787 13.052l1.95697e-07-3.14243e-09c-2.14204.034396-3.85062 1.79874-3.81622 3.94078 .0336176 2.09356 1.72267 3.78261 3.81623 3.81622 3.16 0 3.935-3.88 5.746-4.911l-1.04928e-08-1.41004e-08c-1.34953-1.81353-3.4856-2.87152-5.74601-2.846Z"></path><path stroke="#323232" stroke-linecap="round" stroke-linejoin="round" stroke-width="1.5" d="M9.255 16.508l-5.64557e-07 9.44889e-08c-2.16884.362996-4.08019 1.63311-5.255 3.492"></path><path stroke="#323232" stroke-linecap="round" stroke-linejoin="round" stroke-width="1.5" d="M3 10.714l7.7-6.6 -1.6308e-07 1.39489e-07c.748448-.640176 1.85155-.640176 2.6-3.03292e-07l7.7 6.6"></path></g></svg>