<?xml version="1.0" encoding="UTF-8"?><svg version="1.1" viewBox="0 0 24 24" xmlns="http://www.w3.org/2000/svg" xmlns:xlink="http://www.w3.org/1999/xlink"><g stroke-linecap="round" stroke-width="1.5" stroke="#323232" fill="none" stroke-linejoin="round"><path d="M19 11v-3.172l4.56117e-08.000427138c0-.53039-.210679-1.03906-.585698-1.41413l-2.8283-2.8283 6.1748e-08 6.17666e-08c-.374985-.375099-.88361-.585887-1.414-.586h-7.172l-8.74228e-08 1.77636e-15c-1.10457 4.82823e-08-2 .895431-2 2v14l2.30926e-14 3.01992e-07c1.66785e-07 1.10457.895431 2 2 2h2"></path><path d="M19 8h-4l-4.37114e-08-8.88178e-16c-.552285-2.41411e-08-1-.447715-1-1 0 0 0 0 0 0v-4"></path><path d="M16.621 13.738l-1.12286e-07 1.77636e-15c-2.00535 8.76565e-08-3.631 1.62565-3.631 3.631 8.76565e-08 2.00535 1.62565 3.631 3.631 3.631 2.958 0 3.684-3.632 5.379-4.6l1.1396e-08 1.5303e-08c-1.26371-1.69697-3.26333-2.68655-5.379-2.662Z"></path><path d="M17.059 16.974l-4.4099e-07 7.37751e-08c-2.03054.339698-3.82006 1.52871-4.92 3.269"></path></g><path fill="none" d="M0 0h24v24h-24Z"></path></svg>