<?xml version="1.0" encoding="UTF-8"?><svg version="1.1" viewBox="0 0 24 24" xmlns="http://www.w3.org/2000/svg" xmlns:xlink="http://www.w3.org/1999/xlink"><g stroke-linecap="round" stroke-width="1.5" stroke="#323232" fill="none" stroke-linejoin="round"><path d="M21.806 12.727l4.25214e-08 6.89204e-08c.142826.231499.210587.501493.194.773l1.4653e-07-2.68337e-06c-.121923 2.23276-1.92824 4.00306-4.163 4.08l1.36021e-07 4.55925e-09c-2.23613-.0749522-4.04443-1.84592-4.166-4.08l-2.82986e-08-4.25951e-07c-.0181978-.273915.0488743-.546745.192-.781l3.97-6.719c0 0 3.127 5.3 3.973 6.727Z"></path><path d="M21.96 13.083h-8.253"></path><path d="M10.139 16.144l1.36843e-08 2.24543e-08c.141909.232856.208279.503923.19.776l2.22699e-07-4.12706e-06c-.120494 2.23302-1.92702 4.00396-4.162 4.08l-1.09028e-07-3.62633e-09c-2.23579-.0743638-4.04439-1.84433-4.167-4.078l-2.88414e-08-4.87251e-07c-.0162851-.275123.0536266-.548477.2-.782l3.97-6.723Z"></path><path d="M10.293 16.5h-8.253"></path><line x1="17.83" x2="6.17" y1="6" y2="9.42"></line><line x1="11.17" x2="11.17" y1="4" y2="7.95"></line></g><path fill="none" d="M24 23.969h-24v-24h24Z"></path></svg>