<?xml version="1.0" encoding="UTF-8"?><svg version="1.1" viewBox="0 0 24 24" xmlns="http://www.w3.org/2000/svg" xmlns:xlink="http://www.w3.org/1999/xlink"><g stroke-linecap="round" stroke-width="1.5" stroke="#323232" fill="none" stroke-linejoin="round"><path d="M13.5 20.5v-.406l-3.57283e-08 1.25358e-05c.00328875-1.15512.938871-2.09071 2.09399-2.09401h3.312l9.19974e-08 2.61931e-10c1.15512.00328881 2.09072.938879 2.09401 2.094v.406 0c0 .276142-.223858.5-.5.5h-6.5 -2.18557e-08c-.276142-1.20706e-08-.5-.223858-.5-.5 0 0 0 0 0 0Z"></path><path d="M15.325 14.04l-7.65174e-08-2.742e-07c-.296894-1.06392.324904-2.16708 1.38882-2.46397 1.06392-.296894 2.16708.324904 2.46397 1.38882 .296894 1.06392-.324904 2.16708-1.38882 2.46397 -.326636.0911501-.671086.0977487-1.00097.0191756l-1.69627e-07-4.0402e-08c-.707363-.168481-1.26755-.707609-1.463-1.408Z"></path><path d="M2 18.5v-.406l-3.57283e-08 1.25358e-05c.00328875-1.15512.938871-2.09071 2.09399-2.09401h3.31201l7.30085e-08 2.08303e-10c1.15512.00329568 2.0907.938884 2.094 2.094v.406 0c0 .276142-.223858.5-.5.5 0 0-2.08299e-10 0-2.08299e-10 0h-6.5 -2.18557e-08c-.276142-1.20706e-08-.5-.223858-.5-.5 0 0 0 0 0 0Z"></path><path d="M3.825 12.04l-7.65174e-08-2.742e-07c-.296894-1.06392.324904-2.16708 1.38882-2.46397 1.06392-.296894 2.16708.324904 2.46397 1.38882 .296894 1.06392-.324904 2.16708-1.38882 2.46397 -.326636.0911501-.671086.0977487-1.00097.0191756l-1.69627e-07-4.0402e-08c-.707363-.168481-1.26755-.707609-1.463-1.408Z"></path><path d="M16.97 4.965l-1.4094e-10 1.38091e-10c.01933-.0189394.0503534-.0186228.0692929.000707143 .0189394.01933.0186228.0503534-.000707143.0692929 -.0190516.0186667-.0495341.0186667-.0685857 2.76183e-10l3.59614e-09 3.37504e-09c-.01933-.0181415-.0202934-.0485182-.00215187-.0678481 .000694364-.000739852.00141201-.0014575.00215186-.00215186"></path><path d="M14.365 4.965l-1.40938e-10 1.38091e-10c.01933-.0189394.0503534-.0186228.0692929.000707143 .0189394.01933.0186228.0503534-.000707143.0692929 -.0190516.0186667-.0495341.0186667-.0685857 2.76183e-10l3.59614e-09 3.37504e-09c-.01933-.0181415-.0202934-.0485182-.00215187-.0678481 .000694364-.000739852.00141201-.0014575.00215186-.00215186"></path><path d="M11.76 4.965l-1.40938e-10 1.38091e-10c.01933-.0189394.0503534-.0186228.0692929.000707143 .0189394.01933.0186228.0503534-.000707143.0692929 -.0190516.0186667-.0495341.0186667-.0685857 2.76183e-10l3.59614e-09 3.37504e-09c-.01933-.0181415-.0202934-.0485182-.00215187-.0678481 .000694364-.000739852.00141201-.0014575.00215186-.00215186"></path><path d="M12 8v1.5l6.16341e-09-2.3065e-06c-.00073854.276141.22252.500597.498661.501335 .116049.000310373.228592-.0397563.318337-.113332l2.052-1.671 2.73466e-09-2.26517e-09c.17034-.141096.384817-.217897.606002-.217001h2.525l-8.74228e-08-1.77636e-15c1.10457 4.82823e-08 2-.89543 2-2v-2 0c0-1.10457-.895431-2-2-2h-7l-8.74228e-08 1.77636e-15c-1.10457 4.82823e-08-2 .895431-2 2 0 0 0 8.88178e-16 0 8.88178e-16v2l2.30926e-14 3.01992e-07c1.66785e-07 1.10457.895431 2 2 2Z"></path></g><path fill="none" d="M0 23.969v-24h24v24"></path></svg>