<?xml version="1.0" encoding="UTF-8"?><svg version="1.1" viewBox="0 0 24 24" xmlns="http://www.w3.org/2000/svg" xmlns:xlink="http://www.w3.org/1999/xlink"><g stroke-linecap="round" stroke-width="1.5" stroke="#323232" fill="none" stroke-linejoin="round"><path d="M16.5 18.5v2 0c0 .276142-.223858.5-.5.5h-8 -2.18557e-08c-.276142-1.20706e-08-.5-.223858-.5-.5 0 0 0 0 0 0v-2"></path><rect width="15" height="13" x="4.5" y="5.5" rx="1.65684" ry="0"></rect><path d="M8 5.5v-1l1.77636e-14 2.26494e-07c-1.25089e-07-.828427.671573-1.5 1.5-1.5h5l-1.78873e-08 3.10862e-15c.828427-1.34968e-07 1.5.671573 1.5 1.5 1.24345e-14 7.64678e-08 1.77636e-14 1.50026e-07 1.95399e-14 2.26494e-07v1"></path><path d="M9.392 13.848l1.0994e-07 1.24117e-07c1.27584 1.44036 3.47775 1.57373 4.91811.297893 .105216-.0931979.204696-.192678.297893-.297894"></path><path d="M14.347 10.592l-2.2715e-09-7.4607e-14c-.0684833-2.22574e-06-.124002.0555127-.124004.123996 -1.08773e-08.000334682 1.33323e-06.000669362 4.03228e-06.00100403l-6.39986e-11-3.98119e-06c1.04241e-08.0690356.0559644.125.125.125 .0690356-1.04241e-08.125-.0559644.125-.125 -1.04241e-08-.0690356-.0559644-.125-.125-.125 -.000332004 5.01306e-11-.000664007 1.32282e-06-.000996 3.96828e-06"></path><path d="M9.652 10.592h-5.46392e-09c-.0690356 3.01764e-09-.125.0559644-.125.125 3.01764e-09.0690356.0559644.125.125.125 .0690356-3.01764e-09.125-.0559644.125-.125v0c0-.0690356-.0559644-.125-.125-.125"></path></g><rect width="24" height="24" fill="none"></rect></svg>