<svg xmlns="http://www.w3.org/2000/svg" viewBox="0 0 24 24"><g id="Layer_2" data-name="Layer 2"><rect width="24" height="24" fill="none"/><line x1="9" y1="18" x2="10" y2="9.5" fill="none" stroke="#323232" stroke-linecap="round" stroke-linejoin="round" stroke-width="1.5"/><path d="M15.37454,9.5H8.62546a1,1,0,0,1-.97014-.75748l-.625-2.5A1,1,0,0,1,8.00049,5H9.48258a.5.5,0,0,1,.48507.37874L10.32294,6.8h3.35411l.35529-1.42125A.5.5,0,0,1,14.51742,5h1.48209a1,1,0,0,1,.97014,1.24252l-.625,2.5A1,1,0,0,1,15.37454,9.5Z" fill="none" stroke="#323232" stroke-linecap="round" stroke-linejoin="round" stroke-width="1.5"/><path d="M7.00077,21h9.99846a1,1,0,0,0,.94869-1.31623l-.33334-1A1,1,0,0,0,16.6659,18H7.3341a1,1,0,0,0-.94868.68377l-.33334,1A1,1,0,0,0,7.00077,21Z" fill="none" stroke="#323232" stroke-linecap="round" stroke-linejoin="round" stroke-width="1.5"/><line x1="14" y1="9.5" x2="15" y2="18" fill="none" stroke="#323232" stroke-linecap="round" stroke-linejoin="round" stroke-width="1.5"/></g></svg>