<svg xmlns="http://www.w3.org/2000/svg" viewBox="0 0 24 24"><g id="Layer_2" data-name="Layer 2"><rect width="24" height="24" fill="none"/><path d="M7.00077,21h9.99846a1,1,0,0,0,.94869-1.31623l-.33334-1A1,1,0,0,0,16.6659,18H7.3341a1,1,0,0,0-.94868.68377l-.33334,1A1,1,0,0,0,7.00077,21Z" fill="none" stroke="#323232" stroke-linecap="round" stroke-linejoin="round" stroke-width="1.5"/><rect x="8" y="8" width="8" height="3" rx="1.5" stroke-width="1.5" stroke="#323232" stroke-linecap="round" stroke-linejoin="round" fill="none"/><path d="M14.64624,8,15.487,4.32141a.5.5,0,0,0-.63-.5907l-1.38586.41248L12.33307,3.127a.50017.50017,0,0,0-.66614,0L10.52887,4.14319,9.14313,3.73077a.50006.50006,0,0,0-.63013.5907L9.35376,8" fill="none" stroke="#323232" stroke-linecap="round" stroke-linejoin="round" stroke-width="1.5"/><line x1="14" y1="11" x2="15" y2="18" fill="none" stroke="#323232" stroke-linecap="round" stroke-linejoin="round" stroke-width="1.5"/><line x1="9" y1="18" x2="10" y2="11" fill="none" stroke="#323232" stroke-linecap="round" stroke-linejoin="round" stroke-width="1.5"/></g></svg>