<?xml version="1.0" encoding="UTF-8"?><svg version="1.1" viewBox="0 0 24 24" xmlns="http://www.w3.org/2000/svg" xmlns:xlink="http://www.w3.org/1999/xlink"><g stroke-linecap="round" stroke-width="1.5" stroke="#323232" fill="none" stroke-linejoin="round"><path d="M9.943 15.886v0l1.77636e-15 1.77636e-15c0-1.64139-1.33061-2.972-2.972-2.972v0l6.37045e-08-2.14335e-11c-1.641.000552118-2.971 1.331-2.971 2.972h3.55271e-15l3.37508e-14 4.48609e-07c2.4776e-07 1.64084 1.33016 2.971 2.971 2.971v0l4.5986e-08 1.54792e-11c1.64084.000552259 2.97145-1.32916 2.972-2.97 1.12209e-07-.000333389 1.68302e-07-.000666779 1.68278e-07-.00100017Z"></path><path d="M20 16.8l-3.55271e-15-3.55271e-15c0 1.76731-1.43269 3.2-3.2 3.2v0l-1.39876e-07-3.55271e-15c-1.76731-7.72516e-08-3.2-1.43269-3.2-3.2v0l-1.79566e-07-.000348924c-.000584721-1.19772.324765-2.37303.94118-3.39995l.861-1.435 -2.21446e-07 3.68964e-07c.61636-1.02696.941648-2.20228.941-3.4v0l1.03314e-07 6.5005e-05c-.00399076-2.52227-2.04985-4.56483-4.57211-4.56477v0l-3.19314e-08 6.52989e-12c-2.52429.000516186-4.57051 2.04671-4.57106 4.571v0l-5.20074e-08-1.31566e-05c.00426063 1.07817.332071 2.13024.940993 3.02l.859007 1.27601 1.9789e-07 2.89016e-07c.608957.889374.936782 1.94113.941 3.019v0"></path></g><rect width="24" height="24" fill="none"></rect></svg>