<svg id="Layer_3" data-name="Layer 3" xmlns="http://www.w3.org/2000/svg" viewBox="0 0 24 24"><path d="M0,24H24V0H0Z" fill="none"/><path d="M3,8V5A2,2,0,0,1,5,3H7" fill="none" stroke="#323232" stroke-linecap="round" stroke-linejoin="round" stroke-width="1.5"/><path d="M21,15v4a2,2,0,0,1-2,2H16" fill="none" stroke="#323232" stroke-linecap="round" stroke-linejoin="round" stroke-width="1.5"/><path d="M16,12h2.75A2.25,2.25,0,0,0,21,9.75V5.25A2.25,2.25,0,0,0,18.75,3h-6.5A2.25,2.25,0,0,0,10,5.25V8" fill="none" stroke="#323232" stroke-linecap="round" stroke-linejoin="round" stroke-width="1.5"/><path d="M13,6.5l1.98914.8908a1.25,1.25,0,0,0,1.02181,0L18,6.5" fill="none" stroke="#323232" stroke-linecap="round" stroke-linejoin="round" stroke-width="1.5"/><path d="M9.56712,14.234l.00025-.00024a.13753.13753,0,1,1-.00025.00024" fill="none" stroke="#323232" stroke-linecap="round" stroke-linejoin="round" stroke-width="1.5"/><path d="M8.5,21a4.78591,4.78591,0,0,0,.05556-.69444h0a4.86112,4.86112,0,0,0-4.86112-4.86112A4.93469,4.93469,0,0,0,3,15.5" fill="none" stroke="#323232" stroke-linecap="round" stroke-linejoin="round" stroke-width="1.5"/><path d="M3,13.5v5A2.5,2.5,0,0,0,5.5,21h5A2.5,2.5,0,0,0,13,18.5v-5A2.5,2.5,0,0,0,10.5,11h-5A2.5,2.5,0,0,0,3,13.5Z" fill="none" stroke="#323232" stroke-linecap="round" stroke-linejoin="round" stroke-width="1.5"/></svg>