<svg viewBox="0 0 24 24" xmlns="http://www.w3.org/2000/svg" xmlns:xlink="http://www.w3.org/1999/xlink"><defs><path d="M0 0h24v24H0Z" id="a"/></defs><g fill="none"><use xlink:href="#a"/><use xlink:href="#a"/><g stroke-linecap="round" stroke-width="1.5" stroke="#323232" fill="none" stroke-linejoin="round"><path d="M7.5 8.72c.63.58 2.13 1.95 3.37 3.08l0 0c.63.58 1.6.58 2.24 0 1.28-1.17 2.74-2.52 3.37-3.09"/><path d="M7 9.91v4.16l-.01-.01c0 .92.74 1.66 1.66 1.66h6.66l-.01 0c.92-.01 1.66-.75 1.66-1.67V9.88l0 0c0-.93-.75-1.67-1.67-1.67H8.62l0-.001c-.93 0-1.67.74-1.67 1.66Z"/><path d="M21.05 9.2l-.01-.01c.28.9.43 1.84.44 2.79v0c0 5.24-4.26 9.5-9.5 9.5 -5.25 0-9.5-4.26-9.5-9.5 0-5.25 4.25-9.5 9.5-9.5 0 0 0 0 0 0l0 0c.94 0 1.89.15 2.79.44"/><path d="M21.5 3.84l-2.1 2.09 -1.35-1.35"/><path d="M11.09 11.97l-3.59 3.3"/><path d="M12.91 11.97l3.6 3.3"/></g></g></svg>