<svg id="Layer_3" data-name="Layer 3" xmlns="http://www.w3.org/2000/svg" viewBox="0 0 24 24"><path d="M18.75582,11.3566V4.4a1.4,1.4,0,0,0-1.4-1.4h-11.2a1.4,1.4,0,0,0-1.4,1.4v6.58287" fill="none" stroke="#323232" stroke-linecap="round" stroke-linejoin="round" stroke-width="1.5"/><path d="M21.00025,11.66312a1,1,0,0,0-1.608-.79389l-6.15055,4.70993a2.04242,2.04242,0,0,1-2.48351,0s-3.88141-2.9723-6.15346-4.712A.99857.99857,0,0,0,3,11.66361V19a2,2,0,0,0,2,2H19a2,2,0,0,0,2-2S21,14.41605,21.00025,11.66312Z" fill="none" stroke="#323232" stroke-linecap="round" stroke-linejoin="round" stroke-width="1.5"/><polyline points="13.5 8.5 11.5 10 10.5 9.25" fill="none" stroke="#323232" stroke-linecap="round" stroke-linejoin="round" stroke-width="1.5"/><path d="M0,0H24V24H0Z" fill="none"/></svg>