<?xml version="1.0" encoding="UTF-8"?><svg version="1.1" viewBox="0 0 24 24" xmlns="http://www.w3.org/2000/svg" xmlns:xlink="http://www.w3.org/1999/xlink"><g stroke-linecap="round" stroke-width="1.5" stroke="#323232" fill="none" stroke-linejoin="round"><path d="M13.86 13.83h-3.72"></path><path d="M9.965 13.659l-2.0101e-07-1.41773e-07c-1.59272-1.12335-1.97321-3.32515-.849866-4.91787 1.12335-1.59272 3.32515-1.97321 4.91787-.849866 1.59272 1.12335 1.97321 3.32515.849866 4.91787 -.232609.3298-.520066.617257-.849866.849866l-2.41735e-08 1.61954e-08c-.164297.110074-.264672.293285-.269.491v1.628 -1.77636e-15c0 .812411-.658589 1.471-1.471 1.471h-.588 -6.42995e-08c-.812411-3.55116e-08-1.471-.658589-1.471-1.471 0 0 0 0 0 0v-1.624l2.11771e-08 1.39196e-06c-.00302943-.199139-.103555-.384123-.268999-.495001Z"></path><rect width="18" height="18" x="3" y="3" rx="2.7614" ry="0"></rect></g><path fill="none" d="M24 24h-24v-24h24Z"></path></svg>