<?xml version="1.0" encoding="UTF-8"?><svg version="1.1" viewBox="0 0 24 24" xmlns="http://www.w3.org/2000/svg" xmlns:xlink="http://www.w3.org/1999/xlink"><g fill="none"><path d="M0 0h24v24h-24Z"></path><path stroke="#323232" stroke-linecap="round" stroke-linejoin="round" stroke-width="1.5" d="M9 21h-4.286l-9.71092e-08-5.66089e-11c-.946387-.000551722-1.71345-.767613-1.714-1.714v-3.286"></path><path stroke="#323232" stroke-linecap="round" stroke-linejoin="round" stroke-width="1.5" d="M16 4h3.286l-5.28209e-08-3.07905e-11c.946387.00055164 1.71345.767612 1.714 1.714v3.286"></path><path stroke="#323232" stroke-linecap="round" stroke-linejoin="round" stroke-width="1.5" d="M7 2.5v-.5"></path><path stroke="#323232" stroke-linecap="round" stroke-linejoin="round" stroke-width="1.5" d="M7 12v-.5"></path><path stroke="#323232" stroke-linecap="round" stroke-linejoin="round" stroke-width="1.5" d="M10.18 3.82l.355-.355"></path><path stroke="#323232" stroke-linecap="round" stroke-linejoin="round" stroke-width="1.5" d="M3.465 10.535l.355-.355"></path><path stroke="#323232" stroke-linecap="round" stroke-linejoin="round" stroke-width="1.5" d="M11.5 7h.5"></path><path stroke="#323232" stroke-linecap="round" stroke-linejoin="round" stroke-width="1.5" d="M2 7h.5"></path><path stroke="#323232" stroke-linecap="round" stroke-linejoin="round" stroke-width="1.5" d="M10.18 10.18l.355.355"></path><path stroke="#323232" stroke-linecap="round" stroke-linejoin="round" stroke-width="1.5" d="M3.465 3.465l.355.355"></path><circle cx="7" cy="7" r="2.105" stroke="#323232" stroke-linecap="round" stroke-linejoin="round" stroke-width="1.5"></circle><path stroke="#323232" stroke-linecap="round" stroke-linejoin="round" stroke-width="1.5" d="M16.275 12.3l-3.187 5.413 -3.77055e-08 6.2952e-08c-.17623.294229-.0805734.675611.213655.851841 .09329.0558767.199617.0862766.308345.0881587h2.984v2.724l-8.15447e-09 3.85247e-07c-.00709421.335162.258857.612615.594019.619709 .220308.00466315.425839-.110435.536981-.30071l3.187-5.413 9.80952e-09-1.63777e-08c.17623-.294229.0805735-.675611-.213655-.851841 -.09329-.0558767-.199617-.0862766-.308345-.0881588h-2.984v-2.721l2.22552e-08-8.45475e-07c.00882104-.335121-.255697-.613941-.590818-.622762 -.221453-.00582909-.428495.109448-.540183.300763Z"></path></g></svg>