<?xml version="1.0" encoding="UTF-8"?><svg version="1.1" viewBox="0 0 24 24" xmlns="http://www.w3.org/2000/svg" xmlns:xlink="http://www.w3.org/1999/xlink"><!--Generated by IJSVG (https://github.com/iconjar/IJSVG)--><g fill="none"><path d="M0,0h24v24h-24v-24Z"></path><path stroke="#323232" stroke-linecap="round" stroke-linejoin="round" stroke-width="1.5" d="M18.934,11.467c0,4.124 -3.343,7.467 -7.467,7.467c-4.124,0 -7.467,-3.343 -7.467,-7.467c0,-4.124 3.343,-7.467 7.467,-7.467c4.124,0 7.467,3.343 7.467,7.467"></path><path stroke="#323232" stroke-linecap="round" stroke-linejoin="round" stroke-width="1.5" d="M13.674,11.26l0.793,-0.793c0.552,-0.552 0.552,-1.448 0,-2v0c-0.552,-0.552 -1.448,-0.552 -2,0l-0.793,0.793"></path><path stroke="#323232" stroke-linecap="round" stroke-linejoin="round" stroke-width="1.5" d="M9.26,11.674l-0.793,0.793c-0.552,0.552 -0.552,1.448 0,2v0c0.552,0.552 1.448,0.552 2,0l0.793,-0.793"></path><path stroke="#323232" stroke-linecap="round" stroke-linejoin="round" stroke-width="1.5" d="M9.967,7.217v0.5"></path><path stroke="#323232" stroke-linecap="round" stroke-linejoin="round" stroke-width="1.5" d="M7.717,9.967h-0.5"></path><path stroke="#323232" stroke-linecap="round" stroke-linejoin="round" stroke-width="1.5" d="M12.967,15.967v-0.5"></path><path stroke="#323232" stroke-linecap="round" stroke-linejoin="round" stroke-width="1.5" d="M15.217,12.967h0.5"></path><path stroke="#323232" stroke-linecap="round" stroke-linejoin="round" stroke-width="1.5" d="M20,20l-3.25,-3.25"></path></g></svg>