<?xml version="1.0" encoding="UTF-8"?><svg version="1.1" viewBox="0 0 24 24" xmlns="http://www.w3.org/2000/svg" xmlns:xlink="http://www.w3.org/1999/xlink"><g fill="none"><path d="M24 24h-24v-24h24Z"></path><path stroke="#323232" stroke-linecap="round" stroke-linejoin="round" stroke-width="1.5" d="M19.326 19.128l-3.454-3.454"></path><path stroke="#323232" stroke-linecap="round" stroke-linejoin="round" stroke-width="1.5" d="M14.934 21h2.106l1.02845e-08-2.19558e-12c.265195-5.66401e-05.519507-.105451.707-.293l3.923-3.923 -3.12025e-08 3.11954e-08c.440171-.440071.440252-1.15365.000181388-1.59382 -6.0435e-05-6.04487e-05-.000120877-.000120891-.000181326-.000181326l-1.86-1.86 -3.63461e-09-3.63544e-09c-.440071-.440171-1.15365-.440252-1.59382-.000181318 -6.04487e-05 6.0435e-05-.000120891.000120877-.000181326.000181326l-4.886 4.886 -3.84734e-08 3.84647e-08c-.440171.440071-.440252 1.15365-.000181249 1.59382 6.0435e-05 6.04487e-05.000120877.000120891.000181326.000181326l.9.9 4.72621e-09 4.68761e-09c.187246.185716.440274.289947.704.29Z"></path><path stroke="#323232" stroke-linecap="round" stroke-linejoin="round" stroke-width="1.5" d="M9.714 20h-2.857l-1.24883e-07-3.55271e-15c-1.57788-6.89712e-08-2.857-1.27912-2.857-2.857 0 0 0 0 0 0v-2.143"></path><path stroke="#323232" stroke-linecap="round" stroke-linejoin="round" stroke-width="1.5" d="M14 4h3l-1.31134e-07 3.55271e-15c1.65685-7.24234e-08 3 1.34315 3 3v2.25"></path><path stroke="#323232" stroke-linecap="round" stroke-linejoin="round" stroke-width="1.5" d="M8 12v-1"></path><path stroke="#323232" stroke-linecap="round" stroke-linejoin="round" stroke-width="1.5" d="M10 9h1"></path><path stroke="#323232" stroke-linecap="round" stroke-linejoin="round" stroke-width="1.5" d="M5 3v1"></path><path stroke="#323232" stroke-linecap="round" stroke-linejoin="round" stroke-width="1.5" d="M3 6h-1"></path><path stroke="#323232" stroke-linecap="round" stroke-linejoin="round" stroke-width="1.5" d="M6 10l-.586.586 3.52634e-08-3.52243e-08c-.552464.551851-1.44754.551851-2 7.04485e-08v0l1.10722e-07 1.10845e-07c-.551851-.552464-.551851-1.44754-2.21444e-07-2l.586-.586"></path><path stroke="#323232" stroke-linecap="round" stroke-linejoin="round" stroke-width="1.5" d="M7 5l.586-.586 -1.22783e-07 1.22647e-07c.552464-.551851 1.44754-.551851 2-2.45294e-07v0l-1.9331e-08-1.93525e-08c.551851.552464.551851 1.44754 3.8662e-08 2l-.586.586"></path></g></svg>