<svg viewBox="0 0 24 24" xmlns="http://www.w3.org/2000/svg"><g fill="none"><path d="M0 0h24v24H0Z"/><g stroke-linecap="round" stroke-width="1.5" stroke="#323232" fill="none" stroke-linejoin="round"><path d="M16 21H8l-.01-.001c-2.77-.01-5-2.24-5-5.01 0 0 0-.001 0-.001v-8l0 0c-.01-2.77 2.23-5.01 4.99-5.01h8l-.01 0c2.76-.01 5 2.23 5 4.99v8l0 0c0 2.76-2.24 4.99-5 5Z"/><path d="M10 12l4 0"/><path d="M13.5 9h.5l-.01 0c1.65-.01 3 1.34 3 3v0 0c0 1.65-1.35 3-3 3h-.5"/><path d="M10.5 15H10l-.01-.001c-1.66-.01-3-1.35-3-3 0 0 0-.001 0-.001h-.001l0 0c-.01-1.66 1.34-3.01 2.99-3.01h.5"/></g></g></svg>