<?xml version="1.0" encoding="UTF-8"?><svg version="1.1" viewBox="0 0 24 24" xmlns="http://www.w3.org/2000/svg" xmlns:xlink="http://www.w3.org/1999/xlink"><g stroke-linecap="round" stroke-width="1.5" stroke="#323232" fill="none" stroke-linejoin="round"><path d="M15 8h-5.172l4.3004e-08-9.18465e-12c-.53039.000113263-1.03901.210901-1.414.586l-.414.414"></path><path d="M14.5 14h-5v-2l1.06581e-14 1.50996e-07c-8.33927e-08-.552285.447715-1 1-1h3l-4.37114e-08 1.77636e-15c.552285-2.41411e-08 1 .447715 1 1Z"></path><path d="M6 18.707v-.993l4.26326e-14 5.60798e-07c-3.0972e-07-2.05119 1.66281-3.714 3.714-3.714h4.572l-4.4289e-08 7.10543e-15c2.05119-3.34181e-07 3.714 1.66281 3.714 3.714 3.19744e-14 1.89334e-07 4.61853e-14 3.71464e-07 4.9738e-14 5.60798e-07v.993"></path><circle cx="12" cy="12" r="9"></circle><line x1="12" x2="12" y1="8" y2="11"></line></g><path fill="none" d="M0 0h24v24h-24Z"></path></svg>