<svg id="Layer_3" data-name="Layer 3" xmlns="http://www.w3.org/2000/svg" viewBox="0 0 24 24"><rect width="24" height="24" fill="none"/><path d="M6,13v4" fill="none" stroke="#323232" stroke-linecap="round" stroke-linejoin="round" stroke-width="1.5"/><path d="M19.5,5H12" fill="none" stroke="#323232" stroke-linecap="round" stroke-linejoin="round" stroke-width="1.5"/><path d="M16.5,21H5a2,2,0,0,1-2-2V18a1,1,0,0,1,1-1H14a1,1,0,0,1,1,1v1.5A1.5,1.5,0,0,0,16.5,21h0A1.5,1.5,0,0,0,18,19.5V6.5A1.5,1.5,0,0,1,19.5,5h0A1.5,1.5,0,0,1,21,6.5V9a1,1,0,0,1-1,1H18" fill="none" stroke="#323232" stroke-linecap="round" stroke-linejoin="round" stroke-width="1.5"/><line x1="13" y1="10" x2="14" y2="10" fill="none" stroke="#323232" stroke-linecap="round" stroke-linejoin="round" stroke-width="1.5"/><line x1="10" y1="13" x2="14" y2="13" fill="none" stroke="#323232" stroke-linecap="round" stroke-linejoin="round" stroke-width="1.5"/><rect x="3.25" y="6" width="6" height="4" rx="1.25" stroke-width="1.5" stroke="#323232" stroke-linecap="round" stroke-linejoin="round" fill="none"/><path d="M4.5,6V4.75A1.75,1.75,0,0,1,6.25,3h0A1.75,1.75,0,0,1,8,4.75V6" fill="none" stroke="#323232" stroke-linecap="round" stroke-linejoin="round" stroke-width="1.5"/></svg>