<?xml version="1.0" encoding="UTF-8"?><svg version="1.1" viewBox="0 0 24 24" xmlns="http://www.w3.org/2000/svg" xmlns:xlink="http://www.w3.org/1999/xlink"><g stroke-linecap="round" stroke-width="1.5" stroke="#323232" fill="none" stroke-linejoin="round"><path d="M8 4h12"></path><path d="M3 4h1"></path><path d="M3 8h1"></path><path d="M3 12h1"></path><path d="M8 8h12"></path><path d="M8 12h2"></path><path d="M17 21l-2.18557e-07-7.10543e-15c-2.76142-1.20706e-07-5-2.23858-5-5 0 0 0-1.77636e-15 0-1.77636e-15l1.5244e-08-1.01256e-06c.041313-2.74413 2.25587-4.95869 5-5l-2.18557e-07 5.32907e-15c2.76142-1.20706e-07 5 2.23858 5 5 1.20706e-07 2.76142-2.23858 5-5 5"></path><path d="M18.662 15.166l-2.082 2.084 -1.25-1.25"></path></g><path fill="none" d="M0 0h24v24h-24Z"></path></svg>