<?xml version="1.0" encoding="UTF-8"?><svg version="1.1" viewBox="0 0 24 24" xmlns="http://www.w3.org/2000/svg" xmlns:xlink="http://www.w3.org/1999/xlink"><g stroke-linecap="round" stroke-width="1.5" stroke="#323232" fill="none" stroke-linejoin="round"><line x1="9" x2="20" y1="6.44" y2="6.44"></line><line x1="20" x2="11" y1="12" y2="12"></line><line x1="13" x2="20" y1="17.56" y2="17.56"></line><path d="M4.5 5.939l-2.18557e-08 8.88178e-16c-.276142 1.20706e-08-.5.223858-.5.5 1.20706e-08.276142.223858.5.5.5 .276142-1.20706e-08.5-.223858.5-.5v0c0-.276142-.223858-.5-.5-.5"></path><path d="M6.5 11.5h-2.18557e-08c-.276142 1.20706e-08-.5.223858-.5.5 1.20706e-08.276142.223858.5.5.5 .276142-1.20706e-08.5-.223858.5-.5v0c0-.276142-.223858-.5-.5-.5"></path><path d="M8.5 17.061h-2.18557e-08c-.276142 1.20706e-08-.5.223858-.5.5 1.20706e-08.276142.223858.5.5.5 .276142-1.20706e-08.5-.223858.5-.5v0c0-.276142-.223858-.5-.5-.5"></path></g><path fill="none" d="M0 24v-24h24v24Z"></path></svg>