<svg id="Layer_3" data-name="Layer 3" xmlns="http://www.w3.org/2000/svg" viewBox="0 0 24 24"><path d="M24,24H0V0H24Z" fill="none"/><line x1="7" y1="8" x2="16" y2="8" fill="none" stroke="#323232" stroke-linecap="round" stroke-linejoin="round" stroke-width="1.5"/><line x1="7" y1="12" x2="9" y2="12" fill="none" stroke="#323232" stroke-linecap="round" stroke-linejoin="round" stroke-width="1.5"/><line x1="7" y1="16" x2="8" y2="16" fill="none" stroke="#323232" stroke-linecap="round" stroke-linejoin="round" stroke-width="1.5"/><line x1="17.00037" y1="21" x2="17.00037" y2="19" fill="none" stroke="#323232" stroke-linecap="round" stroke-linejoin="round" stroke-width="1.5"/><path d="M12,21H22" fill="none" stroke="#323232" stroke-linecap="round" stroke-linejoin="round" stroke-width="1.5"/><line x1="21" y1="21" x2="21" y2="15.86576" fill="none" stroke="#323232" stroke-linecap="round" stroke-linejoin="round" stroke-width="1.5"/><line x1="13" y1="21" x2="13" y2="15.86551" fill="none" stroke="#323232" stroke-linecap="round" stroke-linejoin="round" stroke-width="1.5"/><path d="M13.64477,15.99964a1.62815,1.62815,0,0,0,1.26466-.60362.4802.4802,0,0,1,.82573,0,1.62662,1.62662,0,0,0,2.52932,0,.48019.48019,0,0,1,.82572,0,1.62817,1.62817,0,0,0,1.26466.60362A1.66057,1.66057,0,0,0,21.956,14.73328a1.53164,1.53164,0,0,0-.14691-1.08423l-.41662-.82477A1.50105,1.50105,0,0,0,20.05264,12H13.94688a1.5,1.5,0,0,0-1.3389.82372l-.41707.8257a1.53164,1.53164,0,0,0-.14691,1.08423A1.66064,1.66064,0,0,0,13.64514,16" fill="none" stroke="#323232" stroke-linecap="round" stroke-linejoin="round" stroke-width="1.5"/><path d="M20,8V5a2,2,0,0,0-2-2H5A2,2,0,0,0,3,5V19a2,2,0,0,0,2,2H8" fill="none" stroke="#323232" stroke-linecap="round" stroke-linejoin="round" stroke-width="1.5"/></svg>