<?xml version="1.0" encoding="UTF-8"?><svg version="1.1" viewBox="0 0 24 24" xmlns="http://www.w3.org/2000/svg" xmlns:xlink="http://www.w3.org/1999/xlink"><g fill="none"><path d="M0 0h24v24h-24Z"></path><path stroke="#323232" stroke-width="1.5" d="M17 21l-2.18557e-07-7.10543e-15c-2.76142-1.20706e-07-5-2.23858-5-5 0 0 0-1.77636e-15 0-1.77636e-15l1.5244e-08-1.01256e-06c.041313-2.74413 2.25587-4.95869 5-5l-2.18557e-07 5.32907e-15c2.76142-1.20706e-07 5 2.23858 5 5 1.20706e-07 2.76142-2.23858 5-5 5"></path><path stroke="#323232" stroke-linecap="round" stroke-linejoin="round" stroke-width="1.5" d="M18.414 14.586l-2.828 2.828"></path><path stroke="#323232" stroke-linecap="round" stroke-linejoin="round" stroke-width="1.5" d="M18.414 17.414l-2.828-2.828"></path><path stroke="#323232" stroke-linecap="round" stroke-linejoin="round" stroke-width="1.5" d="M3.194 3.806h-8.48001e-09c-.107143 4.68338e-09-.194.0868568-.194.194 4.68338e-09.107143.0868568.194.194.194 .107143-4.68338e-09.194-.0868568.194-.194v0c0-.107143-.0868568-.194-.194-.194"></path><path stroke="#323232" stroke-linecap="round" stroke-linejoin="round" stroke-width="1.5" d="M6.306 4h13.694"></path><path stroke="#323232" stroke-linecap="round" stroke-linejoin="round" stroke-width="1.5" d="M3.194 7.806h-8.48001e-09c-.107143 4.68338e-09-.194.0868568-.194.194 4.68338e-09.107143.0868568.194.194.194 .107143-4.68338e-09.194-.0868568.194-.194 0 0 0 0 0 0v8.88178e-16c0-.107143-.0868568-.194-.194-.194"></path><path stroke="#323232" stroke-linecap="round" stroke-linejoin="round" stroke-width="1.5" d="M6.306 8h13.694"></path><path stroke="#323232" stroke-linecap="round" stroke-linejoin="round" stroke-width="1.5" d="M3.194 11.806l-8.48001e-09 1.77636e-15c-.107143 4.68338e-09-.194.0868568-.194.194 4.68338e-09.107143.0868568.194.194.194 .107143-4.68338e-09.194-.0868568.194-.194 0 0 0-1.77636e-15 0-1.77636e-15v0c0-.107143-.0868568-.194-.194-.194 0 0-8.88178e-16 0-8.88178e-16 0"></path><path stroke="#323232" stroke-linecap="round" stroke-linejoin="round" stroke-width="1.5" d="M6.306 12h2.046"></path></g></svg>