<?xml version="1.0" encoding="UTF-8"?><svg version="1.1" viewBox="0 0 24 24" xmlns="http://www.w3.org/2000/svg" xmlns:xlink="http://www.w3.org/1999/xlink"><g stroke-linecap="round" stroke-width="1.5" stroke="#323232" fill="none" stroke-linejoin="round"><circle cx="7.5" cy="7.5" r="4.5"></circle><line x1="7.5" x2="7.5" y1="5.81" y2="9.19"></line><line x1="9.19" x2="5.81" y1="7.5" y2="7.5"></line><line x1="15" x2="21" y1="10" y2="10"></line><line x1="15" x2="21" y1="5" y2="5"></line><line x1="21" x2="9" y1="15" y2="15"></line><line x1="21" x2="9" y1="20" y2="20"></line><path d="M5 15v0c0 .138071-.111929.25-.25.25 -.138071 0-.25-.111929-.25-.25 0-.138071.111929-.25.25-.25h-1.09278e-08c.138071-6.03528e-09.25.111929.25.25"></path><path d="M5 20v0c0 .138071-.111929.25-.25.25 -.138071 0-.25-.111929-.25-.25 0-.138071.111929-.25.25-.25h-1.09278e-08c.138071-6.03528e-09.25.111929.25.25"></path></g><path fill="none" d="M24 24h-24v-24h24Z"></path></svg>