<?xml version="1.0" encoding="UTF-8"?><svg version="1.1" viewBox="0 0 24 24" xmlns="http://www.w3.org/2000/svg" xmlns:xlink="http://www.w3.org/1999/xlink"><g stroke-linecap="round" stroke-width="1.5" stroke="#323232" fill="none" stroke-linejoin="round"><path d="M13 14.779h4"></path><path d="M19 3.5h-14l-8.74228e-08 1.77636e-15c-1.10457 4.82823e-08-2 .895431-2 2 0 0 0 0 0 0v13l2.30926e-14 3.01992e-07c1.66785e-07 1.10457.895431 2 2 2h14l-8.74228e-08-3.55271e-15c1.10457 4.82823e-08 2-.89543 2-2v-13h3.55271e-15c0-1.10457-.895431-2-2-2Z"></path><path d="M7 14.505l.919.828 1.851-1.666"></path><path d="M13 9.779h4"></path><path d="M7 9.505l.919.828 1.85-1.666"></path></g><path fill="none" d="M0 0h24v24h-24Z"></path></svg>