<?xml version="1.0" encoding="UTF-8"?><svg version="1.1" viewBox="0 0 24 24" xmlns="http://www.w3.org/2000/svg" xmlns:xlink="http://www.w3.org/1999/xlink"><g stroke-linecap="round" stroke-width="1.5" stroke="#323232" fill="none" stroke-linejoin="round"><path d="M6.49121 15.5758c.781049.781049.781049 2.04738 0 2.82843 -.781049.781049-2.04738.781049-2.82843 0 -.781049-.781049-.781049-2.04738-4.44089e-16-2.82843 .781049-.781049 2.04738-.781049 2.82843 0"></path><path d="M13.4142 3.58479c.781049.781049.781049 2.04738 0 2.82843 -.781049.781049-2.04738.781049-2.82843 0 -.781049-.781049-.781049-2.04738 0-2.82843 .781049-.781049 2.04738-.781049 2.82843-4.44089e-16"></path><path d="M20.3372 15.5748c.781049.781049.781049 2.04738 0 2.82843 -.781049.781049-2.04738.781049-2.82843 0 -.781049-.781049-.781049-2.04738 0-2.82843 .781049-.781049 2.04738-.781049 2.82843 0"></path><path d="M17.717 18.575c-1.451 1.489-3.473 2.418-5.717 2.418 -1.145 0-2.23-.246-3.213-.68"></path><path d="M4.298 15.147c-.56-1.998-.352-4.209.768-6.149 .574-.995 1.333-1.813 2.204-2.448"></path><path d="M13.974 5.252c2.016.512 3.831 1.798 4.954 3.742 .569.985.898 2.04 1.017 3.102"></path></g><path fill="none" d="M0 0h24v24h-24Z"></path></svg>