<?xml version="1.0" encoding="UTF-8"?><svg version="1.1" viewBox="0 0 24 24" xmlns="http://www.w3.org/2000/svg" xmlns:xlink="http://www.w3.org/1999/xlink"><defs><path d="M0 0h24v24h-24Z" id="a"></path></defs><g stroke-linecap="round" stroke-width="1.5" stroke="#323232" fill="none" stroke-linejoin="round"><circle cx="12" cy="12.002" r="7"></circle><path d="M4.015 6l-5.80036e-07 7.72173e-07c-2.67 3.55444-2.67 8.44556 1.16007e-06 12"></path><path d="M19.985 18l4.13127e-07-5.49975e-07c2.67-3.55444 2.67-8.44556-8.26254e-07-12"></path><path d="M6 19.985l6.76923e-07 5.08487e-07c3.55444 2.67 8.44556 2.67 12-1.01697e-06"></path><path d="M18 4.015l5.30639e-08 3.98603e-08c-3.55444-2.67-8.44556-2.67-12-7.97205e-08"></path><line x1="10" x2="14" y1="10" y2="14"></line><line x1="14" x2="10" y1="10" y2="14"></line></g><use fill="none" xlink:href="#a"></use><use xlink:href="#a" fill="none"></use></svg>