<?xml version="1.0" encoding="UTF-8"?><svg version="1.1" viewBox="0 0 24 24" xmlns="http://www.w3.org/2000/svg" xmlns:xlink="http://www.w3.org/1999/xlink"><g stroke-linecap="round" stroke-width="1.5" stroke="#323232" fill="none" stroke-linejoin="round"><path d="M6.722 19.278c-.576-.417-1.101-.898-1.562-1.438"></path><path d="M3.523 9c.561-1.583 1.545-2.965 2.826-4"></path><path d="M3 12c0 1.054.19 2.06.523 3"></path><path d="M19.559 4.407c.659.659.659 1.728 0 2.387 -.659.659-1.728.659-2.387 0 -.659-.659-.659-1.728 0-2.387 .659-.659 1.728-.659 2.387 0"></path><path d="M12 21c4.971 0 9-4.029 9-9 0-.543-.056-1.072-.148-1.588"></path><path d="M17.053 4.553c-1.441-.98-3.18-1.553-5.053-1.553 -.912 0-1.791.138-2.62.39"></path><path d="M14.995 9.005c1.654 1.654 1.654 4.336 0 5.99 -1.654 1.654-4.336 1.654-5.99 0 -1.654-1.654-1.654-4.336 0-5.99 1.654-1.654 4.336-1.654 5.99 0"></path></g><path fill="none" d="M0 0h24v24h-24v-24Z"></path></svg>