<svg id="Layer_3" data-name="Layer 3" xmlns="http://www.w3.org/2000/svg" viewBox="0 0 24 24"><path d="M14,4h4a3,3,0,0,1,3,3v4" fill="none" stroke="#323232" stroke-linecap="round" stroke-linejoin="round" stroke-width="1.5"/><path d="M8,16H6a3,3,0,0,1-3-3V11" fill="none" stroke="#323232" stroke-linecap="round" stroke-linejoin="round" stroke-width="1.5"/><path d="M14,15.99976l-.58547-.58549a1.41435,1.41435,0,0,0-2.00022,0h0a1.41435,1.41435,0,0,0-.17677,1.78455l1.94,2.91047A2.00007,2.00007,0,0,0,14.84179,21h3.79608a2,2,0,0,0,1.98455-1.752l.36195-2.89685a2,2,0,0,0-1.66266-2.22186L17,13.75067V11.5A1.5,1.5,0,0,0,15.5,10h0A1.5,1.5,0,0,0,14,11.5Z" fill="none" stroke="#323232" stroke-linecap="round" stroke-linejoin="round" stroke-width="1.5"/><path d="M4,5.5C4,7.13851,5.788,8.88881,6.808,9.75435a1.09613,1.09613,0,0,0,1.383,0C9.212,8.88881,11,7.13851,11,5.5" fill="none" stroke="#323232" stroke-linecap="round" stroke-linejoin="round" stroke-width="1.5"/><path d="M7.50019,5.45A.05.05,0,1,1,7.45,5.5a.04974.04974,0,0,1,.05019-.05" fill="none" stroke="#323232" stroke-linecap="round" stroke-linejoin="round" stroke-width="1.5"/><path d="M4,5.5H4A3.5,3.5,0,0,1,7.5,2h0A3.5,3.5,0,0,1,11,5.5h0" fill="none" stroke="#323232" stroke-linecap="round" stroke-linejoin="round" stroke-width="1.5"/><path d="M0,0H24V24H0Z" fill="none"/></svg>