<?xml version="1.0" encoding="UTF-8"?><svg version="1.1" viewBox="0 0 24 24" xmlns="http://www.w3.org/2000/svg" xmlns:xlink="http://www.w3.org/1999/xlink"><defs><path d="M0 0h24v24h-24v-24Z" id="a"></path></defs><g fill="none"><use xlink:href="#a"></use><use xlink:href="#a"></use><circle cx="11.7" cy="3.5" r="1.5" stroke="#323232" stroke-linecap="round" stroke-linejoin="round" stroke-width="1.5"></circle><path stroke="#323232" stroke-linecap="round" stroke-linejoin="round" stroke-width="1.5" d="M11 16h1.6c.6 0 1-.4 1-1v-2.75l1-1.2c.1-.2.2-.4.2-.6v-2.2c0-.6-.4-1-1-1h-4c-.6 0-1 .4-1 1v2.2c0 .2.1.4.2.6l1 1.2v2.75c1.77636e-15.6.4 1 1 1Z"></path><path stroke="#323232" stroke-linecap="round" stroke-linejoin="round" stroke-width="1.5" d="M10.8 21l1.2-1.2 -1.2-1.2"></path><path stroke="#323232" stroke-linecap="round" stroke-linejoin="round" stroke-width="1.5" d="M18 13.704c1.836.639 3 1.562 3 2.596 0 1.472-2.34 2.73-5.65 3.247"></path><path stroke="#323232" stroke-linecap="round" stroke-linejoin="round" stroke-width="1.5" d="M6 13.704c-1.836.639-3 1.562-3 2.596 0 1.933 4.029 3.5 9 3.5"></path></g></svg>