<svg viewBox="0 0 24 24" xmlns="http://www.w3.org/2000/svg"><g stroke-linecap="round" stroke-width="1.5" stroke="#323232" fill="none" stroke-linejoin="round"><path d="M17 21H7l-.01 0c-1.11 0-2-.9-2-2 -.01-.01-.01-.01 0-.01v-7l-.01-.01c-.01-1.11.89-2 1.99-2 0-.001 0 0 0 0h9.99l0-.001c1.1-.01 1.99.89 1.99 1.99 0 0 0 0-.001 0v7l0 0c0 1.1-.9 1.99-2 1.99 -.01 0-.01-.01-.01-.01Z"/><path d="M12.03 15.46l0 0c.02.02.02.05 0 .07 -.03.02-.06.02-.08 0 -.03-.03-.03-.06-.01-.08 0-.01 0-.01 0-.01v0l0-.01c.02-.03.05-.03.07 0"/><path d="M15.437 17v-3"/><path d="M8 10V7v0l-.01 0c0-2.21 1.79-4 3.99-4.01v0l0 0c2.2 0 3.99 1.79 4 4v0 3"/><path d="M8.59 15.46l0 0c.02.02.02.05 0 .07 -.03.02-.06.02-.08 0 -.03-.03-.03-.06-.01-.08 0-.01 0-.01 0-.01v0l0-.01c.02-.03.05-.03.07 0"/></g><path fill="none" d="M0 0h24v24H0Z"/></svg>