<?xml version="1.0" encoding="UTF-8"?><svg version="1.1" viewBox="0 0 24 24" xmlns="http://www.w3.org/2000/svg" xmlns:xlink="http://www.w3.org/1999/xlink"><g fill="none"><path d="M0 0h24v24h-24v-24Z"></path><line x1="18" x2="20" y1="5" y2="5" stroke="#323232" stroke-linecap="round" stroke-linejoin="round" stroke-width="1.5"></line><path stroke="#323232" stroke-linecap="round" stroke-linejoin="round" stroke-width="1.5" d="M19 9c-2.209 0-4-1.791-4-4 0-2.209 1.791-4 4-4 2.209 0 4 1.791 4 4 0 2.209-1.791 4-4 4"></path><path stroke="#323232" stroke-linecap="round" stroke-linejoin="round" stroke-width="1.5" d="M15.006 4.765c-1.07-.486-2.254-.765-3.506-.765 -4.694 0-8.5 3.806-8.5 8.5 0 4.694 3.806 8.5 8.5 8.5 4.694 0 8.5-3.806 8.5-8.5 0-1.252-.279-2.436-.765-3.506"></path><path stroke="#323232" stroke-linecap="round" stroke-linejoin="round" stroke-width="1.5" d="M9.611 11.269h3.778c.519 0 .944.425.944.944v2.883c0 .521-.423.944-.944.944h-3.778c-.521 0-.944-.423-.944-.944v-2.883c-.001-.52.422-.944.944-.944Z"></path><path stroke="#323232" stroke-linecap="round" stroke-linejoin="round" stroke-width="1.5" d="M9.909 11.269v-1.193c0-.878.712-1.59 1.59-1.59 .878 0 1.59.712 1.59 1.59v1.191"></path></g></svg>