<?xml version="1.0" encoding="UTF-8"?><svg version="1.1" viewBox="0 0 24 24" xmlns="http://www.w3.org/2000/svg" xmlns:xlink="http://www.w3.org/1999/xlink"><g stroke-linecap="round" stroke-width="1.5" stroke="#323232" fill="none" stroke-linejoin="round"><path d="M10.316 10.75v-1.316c0-.93.754-1.684 1.684-1.684 .93 0 1.684.754 1.684 1.684v1.316"></path><path d="M14 15.75h-4c-.552 0-1-.448-1-1v-3c0-.552.448-1 1-1h4c.552 0 1 .448 1 1v3c0 .552-.448 1-1 1Z"></path><path d="M3.839 4.765v2.733h2.734"></path><path d="M19.794 7.505c-1.557-2.691-4.46-4.505-7.792-4.505 -3.329 0-6.229 1.812-7.787 4.499"></path><path d="M20.925 10.874c.243 1.884-.101 3.858-1.125 5.631 -1.666 2.886-4.689 4.492-7.798 4.495l-.006-.005c-3.109-.003-6.132-1.609-7.798-4.495 -1.023-1.771-1.366-3.744-1.125-5.626"></path></g><path fill="none" d="M0 0h24v24h-24Z"></path></svg>