<svg id="Layer_3" data-name="Layer 3" xmlns="http://www.w3.org/2000/svg" viewBox="0 0 24 24"><path d="M24,0V24H0V0Z" fill="none"/><path d="M7,7V6a3,3,0,0,1,3-3h8a3,3,0,0,1,3,3v8a3,3,0,0,1-3,3H17" fill="none" stroke="#323232" stroke-linecap="round" stroke-linejoin="round" stroke-width="1.5"/><path d="M3,10.11111v7.77778A3.11111,3.11111,0,0,0,6.11111,21h7.77778A3.11111,3.11111,0,0,0,17,17.88889V10.11111A3.11111,3.11111,0,0,0,13.88889,7H6.11111A3.11111,3.11111,0,0,0,3,10.11111Z" fill="none" stroke="#323232" stroke-linecap="round" stroke-linejoin="round" stroke-width="1.5"/><rect x="7" y="13.5" width="6" height="4" rx="1.25" stroke-width="1.5" stroke="#323232" stroke-linecap="round" stroke-linejoin="round" fill="none"/><path d="M8.25,13.5V12.25A1.75,1.75,0,0,1,10,10.5h0a1.75,1.75,0,0,1,1.75,1.75V13.5" fill="none" stroke="#323232" stroke-linecap="round" stroke-linejoin="round" stroke-width="1.5"/></svg>