<?xml version="1.0" encoding="UTF-8"?><svg version="1.1" viewBox="0 0 24 24" xmlns="http://www.w3.org/2000/svg" xmlns:xlink="http://www.w3.org/1999/xlink"><g stroke-linecap="round" stroke-width="1.5" stroke="#323232" fill="none" stroke-linejoin="round"><path d="M17 21h-10l-8.74228e-08-3.55271e-15c-1.10457-4.82823e-08-2-.895431-2-2 0 0 0 0 0 0v-7l2.30926e-14 3.01992e-07c-1.66785e-07-1.10457.89543-2 2-2h10l-8.74228e-08 1.77636e-15c1.10457-4.82823e-08 2 .89543 2 2v7l3.55271e-15 8.74228e-08c0 1.10457-.895431 2-2 2 -2.70922e-08 0-6.03305e-08 0-8.74228e-08-3.55271e-15Z"></path><path d="M8 10v-3 0l4.61853e-14 6.03983e-07c-3.33571e-07-2.20914 1.79086-4 4-4v0l-1.74846e-07 3.9968e-15c2.20914-9.65645e-08 4 1.79086 4 4v0 3"></path><path d="M10.316 15.431h-3.01609e-09c-.0381076 1.66574e-09-.069.0308924-.069.069 1.66574e-09.0381076.0308924.069.069.069 .0381076-1.66574e-09.069-.0308924.069-.069h1.77636e-15c0-.0381076-.0308924-.069-.069-.069 0 0-1.77636e-15 0-1.77636e-15 0"></path><path d="M13.615 15.5v1.04187e-08c5.75409e-09.0381076.0308924.069.069.069 .0381076-5.75409e-09.069-.0308924.069-.069 -5.75409e-09-.0381076-.0308924-.069-.069-.069h-3.01609e-09c-.0381076 1.66574e-09-.069.0308924-.069.069 0 0 0 1.77636e-15 0 1.77636e-15"></path></g><path fill="none" d="M0 0h24v24h-24Z"></path></svg>