<?xml version="1.0" encoding="UTF-8"?><svg version="1.1" viewBox="0 0 24 24" xmlns="http://www.w3.org/2000/svg" xmlns:xlink="http://www.w3.org/1999/xlink"><!--Generated by IJSVG (https://github.com/iconjar/IJSVG)--><g stroke-linecap="round" stroke-width="1.5" stroke="#323232" fill="none" stroke-linejoin="round"><path d="M17,21h-10c-1.105,0 -2,-0.895 -2,-2v-8c0,-1.105 0.895,-2 2,-2h10c1.105,0 2,0.895 2,2v8c0,1.105 -0.895,2 -2,2Z"></path><path d="M8,6v0c0,-2.209 1.791,-4 4,-4v0c2.209,0 4,1.791 4,4v0v3"></path><path d="M12,17.09v-2.59"></path><path d="M12.5303,13.2197c0.292893,0.292893 0.292893,0.767767 0,1.06066c-0.292893,0.292893 -0.767767,0.292893 -1.06066,0c-0.292893,-0.292893 -0.292893,-0.767767 0,-1.06066c0.292893,-0.292893 0.767767,-0.292893 1.06066,0"></path></g><path fill="none" d="M0,0h24v24h-24Z"></path></svg>