<svg id="Layer_3" data-name="Layer 3" xmlns="http://www.w3.org/2000/svg" viewBox="0 0 24 24"><path d="M0,0H24V24H0Z" fill="none"/><rect x="9" y="11.50001" width="6" height="4" rx="1.25" stroke-width="1.5" stroke="#323232" stroke-linecap="round" stroke-linejoin="round" fill="none"/><path d="M13.75,11.5V10.25A1.75,1.75,0,0,0,12,8.5h0a1.75,1.75,0,0,0-1.75,1.75V11.5" fill="none" stroke="#323232" stroke-linecap="round" stroke-linejoin="round" stroke-width="1.5"/><path d="M20,13.02089c0,3.7747-4.64485,6.57877-6.85988,7.70461a2.50473,2.50473,0,0,1-2.27647.002C8.65012,19.60272,4,16.79179,4,13.02089L4,7.56937a1.01225,1.01225,0,0,1,.9021-.99168,11.39249,11.39249,0,0,0,5.8725-2.17176,2.05246,2.05246,0,0,1,2.45076,0,11.39249,11.39249,0,0,0,5.8725,2.17176A1.01225,1.01225,0,0,1,20,7.56937Z" fill="none" stroke="#323232" stroke-linecap="round" stroke-linejoin="round" stroke-width="1.5"/></svg>