<?xml version="1.0" encoding="UTF-8"?><svg version="1.1" viewBox="0 0 24 24" xmlns="http://www.w3.org/2000/svg" xmlns:xlink="http://www.w3.org/1999/xlink"><!--Generated by IJSVG (https://github.com/iconjar/IJSVG)--><g fill="none"><path d="M0,0h24v24h-24Z"></path><path stroke="#323232" stroke-linecap="round" stroke-linejoin="round" stroke-width="1.5" d="M19.71,17v-1.29c0,-0.897 -0.765,-1.71 -1.71,-1.71c-0.945,0 -1.71,0.765 -1.71,1.71v1.29"></path><path stroke="#323232" stroke-linecap="round" stroke-linejoin="round" stroke-width="1.5" d="M20,21h-4c-0.552,0 -1,-0.448 -1,-1v-2c0,-0.552 0.448,-1 1,-1h4c0.552,0 1,0.448 1,1v2c0,0.552 -0.448,1 -1,1Z"></path><path stroke="#323232" stroke-linecap="round" stroke-linejoin="round" stroke-width="1.5" d="M11,18.981h-6c-1.105,0 -2,-0.895 -2,-2v-9.962c0,-1.105 0.895,-2 2,-2h14c1.105,0 2,0.895 2,2v3.981"></path><path stroke="#323232" stroke-linecap="round" stroke-linejoin="round" stroke-width="1.5" d="M17,9l-5,3l-5,-3"></path></g></svg>