<?xml version="1.0" encoding="UTF-8"?><svg version="1.1" viewBox="0 0 24 24" xmlns="http://www.w3.org/2000/svg" xmlns:xlink="http://www.w3.org/1999/xlink"><g stroke-linecap="round" stroke-width="1.5" stroke="#323232" fill="none" stroke-linejoin="round"><path d="M10.316 11v-1.316c0-.93.754-1.684 1.684-1.684 .93 0 1.684.754 1.684 1.684v1.316"></path><path d="M14 16h-4c-.552 0-1-.448-1-1v-3c0-.552.448-1 1-1h4c.552 0 1 .448 1 1v3c0 .552-.448 1-1 1Z"></path><path d="M7.5 3h-2.25c-1.243 0-2.25 1.007-2.25 2.25v2.25"></path><path d="M3 16.5v2.25c0 1.243 1.007 2.25 2.25 2.25h2.25"></path><path d="M16.5 21h2.25c1.243 0 2.25-1.007 2.25-2.25v-2.25"></path><path d="M21 7.5v-2.25c0-1.243-1.007-2.25-2.25-2.25h-2.25"></path></g><polyline fill="none" points="24,0 24,24 0,24"></polyline></svg>