<?xml version="1.0" encoding="UTF-8"?><svg version="1.1" viewBox="0 0 24 24" xmlns="http://www.w3.org/2000/svg" xmlns:xlink="http://www.w3.org/1999/xlink"><g fill="none"><path d="M0 0h24v24h-24Z"></path><path stroke="#323232" stroke-linecap="round" stroke-linejoin="round" stroke-width="1.5" d="M16.5962 9.90381c2.53841 2.53841 2.53841 6.65398 0 9.19239 -2.53841 2.53841-6.65398 2.53841-9.19239 0 -2.53841-2.53841-2.53841-6.65398-8.88178e-16-9.19239 2.53841-2.53841 6.65398-2.53841 9.19239-1.77636e-15"></path><path stroke="#323232" stroke-linecap="round" stroke-linejoin="round" stroke-width="1.5" d="M12 16.5v-2.55"></path><path stroke="#323232" stroke-linecap="round" stroke-linejoin="round" stroke-width="1.5" d="M11.997 12.431c-.414 0-.75.336-.747.75 0 .414.336.75.75.75 .414 0 .75-.336.75-.75 0-.414-.336-.75-.753-.75"></path><path stroke="#323232" stroke-linecap="round" stroke-linejoin="round" stroke-width="1.5" d="M8.269 5.848c.419-1.637 1.904-2.848 3.672-2.848 2.093 0 3.789 1.696 3.789 3.789v2.39"></path></g></svg>