<?xml version="1.0" encoding="UTF-8"?><svg version="1.1" viewBox="0 0 24 24" xmlns="http://www.w3.org/2000/svg" xmlns:xlink="http://www.w3.org/1999/xlink"><g fill="none"><path d="M0 0h24v24h-24v-24Z"></path><path stroke="#323232" stroke-linecap="round" stroke-linejoin="round" stroke-width="1.5" d="M10 10.697h4c.55 0 1 .45 1 1v3.053c0 .552-.448 1-1 1h-4c-.552 0-1-.448-1-1v-3.053c0-.552.448-1 1-1Z"></path><path stroke="#323232" stroke-linecap="round" stroke-linejoin="round" stroke-width="1.5" d="M10.316 10.697v-1.263c0-.93.754-1.684 1.684-1.684 .93 0 1.684.754 1.684 1.684v1.261"></path><path stroke="#323232" stroke-linecap="round" stroke-linejoin="round" stroke-width="1.5" d="M3.111 14.469v-4.938c0-1.582.841-3.045 2.209-3.841l4.444-2.587c1.382-.804 3.089-.804 4.471 0l4.445 2.587c1.368.796 2.209 2.259 2.209 3.841v4.938c0 1.582-.841 3.045-2.209 3.841l-4.444 2.587c-1.382.804-3.089.804-4.471 0l-4.445-2.587c-1.368-.796-2.209-2.259-2.209-3.841Z"></path></g></svg>