<?xml version="1.0" encoding="UTF-8"?><svg version="1.1" viewBox="0 0 24 24" xmlns="http://www.w3.org/2000/svg" xmlns:xlink="http://www.w3.org/1999/xlink"><g stroke-linecap="round" stroke-width="1.5" stroke="#323232" fill="none" stroke-linejoin="round"><path d="M13 21h-6l-8.74228e-08-3.55271e-15c-1.10457-4.82823e-08-2-.895431-2-2 0 0 0 0 0 0v-7l2.30926e-14 3.01992e-07c-1.66785e-07-1.10457.89543-2 2-2h10l-8.74228e-08 1.77636e-15c1.10457-4.82823e-08 2 .89543 2 2v1"></path><path d="M15 17.9181v-1.33218l-2.52243e-13 4.76493e-07c4.12771e-08-.273366.177657-.515013.43858-.59655l1.875-.58594 -1.72392e-08 5.38718e-09c.121386-.0379326.251454-.0379326.37284-4.28592e-08l1.875.58594 -1.80003e-08-5.625e-09c.260923.0815372.43858.323184.438581.59655v1.33218l1.34218e-10-2.89631e-05c0 1.30263-.808027 2.46862-2.02771 2.92602l-.36253.136 -2.51232e-09 9.42087e-10c-.070748.0265297-.148712.0265297-.21946 1.31049e-08l-.36253-.136 -2.06356e-08-7.73814e-09c-1.2197-.457373-2.02775-1.62336-2.02777-2.92599Z"></path><path d="M8 10v-3 0l4.61853e-14 6.03983e-07c-3.33571e-07-2.20914 1.79086-4 4-4v0l-1.74846e-07 3.9968e-15c2.20914-9.65645e-08 4 1.79086 4 4v0 3"></path></g><path fill="none" d="M0 0h24v24h-24Z"></path></svg>