<?xml version="1.0" encoding="UTF-8"?><svg version="1.1" viewBox="0 0 24 24" xmlns="http://www.w3.org/2000/svg" xmlns:xlink="http://www.w3.org/1999/xlink"><g fill="none"><path d="M0 0h24v24h-24v-24Z"></path><path stroke="#323232" stroke-linecap="round" stroke-linejoin="round" stroke-width="1.5" d="M15.126 4h-8.126c-2.209 0-4 1.791-4 4v9c0 2.209 1.791 4 4 4h9c2.209 0 4-1.791 4-4v-8.126"></path><path stroke="#323232" stroke-linecap="round" stroke-linejoin="round" stroke-width="1.5" d="M13.19 12v-1.277c0-.904-.771-1.723-1.723-1.723 -.952 0-1.723.771-1.723 1.723v1.277"></path><path stroke="#323232" stroke-linecap="round" stroke-linejoin="round" stroke-width="1.5" d="M13.493 16h-4.052c-.538 0-.974-.436-.974-.974v-2.052c1.77636e-15-.538.436-.974.974-.974h4.052c.538 0 .974.436.974.974v2.052c1.77636e-15.538-.436.974-.974.974Z"></path><line x1="18" x2="20" y1="6" y2="4" stroke="#323232" stroke-linecap="round" stroke-linejoin="round" stroke-width="1.5"></line><line x1="18" x2="20" y1="4" y2="6" stroke="#323232" stroke-linecap="round" stroke-linejoin="round" stroke-width="1.5"></line><path stroke="#323232" stroke-linecap="round" stroke-linejoin="round" stroke-width="1.5" d="M19 9c-2.209 0-4-1.791-4-4 0-2.209 1.791-4 4-4 2.209 0 4 1.791 4 4 0 2.209-1.791 4-4 4"></path></g></svg>