<?xml version="1.0" encoding="UTF-8"?><svg version="1.1" viewBox="0 0 24 24" xmlns="http://www.w3.org/2000/svg" xmlns:xlink="http://www.w3.org/1999/xlink"><!--Generated by IJSVG (https://github.com/iconjar/IJSVG)--><g fill="none"><path d="M0,0h24v24h-24Z"></path><path stroke="#323232" stroke-linecap="round" stroke-linejoin="round" stroke-width="1.5" d="M18.98,6.98l2.02,2.02"></path><path stroke="#323232" stroke-linecap="round" stroke-linejoin="round" stroke-width="1.5" d="M18.9796,2.85437c1.13916,1.13916 1.13916,2.9861 0,4.12526c-1.13916,1.13916 -2.9861,1.13916 -4.12526,0c-1.13916,-1.13916 -1.13916,-2.9861 -1.77636e-15,-4.12526c1.13916,-1.13916 2.9861,-1.13916 4.12526,-4.44089e-16"></path><path stroke="#323232" stroke-linecap="round" stroke-linejoin="round" stroke-width="1.5" d="M11,7.5h-7c-0.552,0 -1,-0.448 -1,-1v-2.5c0,-0.552 0.448,-1 1,-1h7"></path><path stroke="#323232" stroke-linecap="round" stroke-linejoin="round" stroke-width="1.5" d="M5.25,14.5h-1.5c-0.414,0 -0.75,-0.336 -0.75,-0.75v-1.5c0,-0.414 0.336,-0.75 0.75,-0.75h1.5c0.414,0 0.75,0.336 0.75,0.75v1.5c0,0.414 -0.336,0.75 -0.75,0.75Z"></path><path stroke="#323232" stroke-linecap="round" stroke-linejoin="round" stroke-width="1.5" d="M9.222,13h11.778"></path><path stroke="#323232" stroke-linecap="round" stroke-linejoin="round" stroke-width="1.5" d="M5.25,21h-1.5c-0.414,0 -0.75,-0.336 -0.75,-0.75v-1.5c0,-0.414 0.336,-0.75 0.75,-0.75h1.5c0.414,0 0.75,0.336 0.75,0.75v1.5c0,0.414 -0.336,0.75 -0.75,0.75Z"></path><path stroke="#323232" stroke-linecap="round" stroke-linejoin="round" stroke-width="1.5" d="M9.222,19.5h11.778"></path></g></svg>