<svg id="Layer_3" data-name="Layer 3" xmlns="http://www.w3.org/2000/svg" viewBox="0 0 24 24"><path d="M13.5,9v3A1.5,1.5,0,0,1,12,13.5h0A1.5,1.5,0,0,1,10.5,12V9a1,1,0,0,0-1-1H8A1,1,0,0,0,7,9v3a5,5,0,0,0,5,5h0a5,5,0,0,0,5-5V9a1,1,0,0,0-1-1H14.5A1,1,0,0,0,13.5,9Z" fill="none" stroke="#323232" stroke-linecap="round" stroke-linejoin="round" stroke-width="1.5"/><line x1="10.5" y1="11" x2="7" y2="11" fill="none" stroke="#323232" stroke-linecap="round" stroke-linejoin="round" stroke-width="1.5"/><line x1="17" y1="11" x2="13.5" y2="11" fill="none" stroke="#323232" stroke-linecap="round" stroke-linejoin="round" stroke-width="1.5"/><rect x="3" y="3" width="18" height="18" rx="5" stroke-width="1.5" stroke="#323232" stroke-linecap="round" stroke-linejoin="round" fill="none"/><rect width="24" height="24" fill="none"/></svg>