<?xml version="1.0" encoding="UTF-8"?><svg version="1.1" viewBox="0 0 24 24" xmlns="http://www.w3.org/2000/svg" xmlns:xlink="http://www.w3.org/1999/xlink"><g stroke-linecap="round" stroke-width="1.5" stroke="#323232" fill="none" stroke-linejoin="round"><path d="M14 12v-4l1.06581e-14 1.50996e-07c-8.33927e-08-.552285.447715-1 1-1h1 -4.37114e-08c.552285-2.41411e-08 1 .447715 1 1v4 0c0 2.76142-2.23858 5-5 5v0l-2.18557e-07-7.10543e-15c-2.76142-1.20706e-07-5-2.23858-5-5 0 0 0-1.77636e-15 0-1.77636e-15v-4l1.15463e-14 1.50996e-07c-8.33927e-08-.552285.447715-1 1-1 5.09785e-08-7.99361e-15 1.00017e-07-1.15463e-14 1.50996e-07-1.15463e-14h1l-4.37114e-08 8.88178e-16c.552285-2.41411e-08 1 .447715 1 1v4l2.30926e-14 3.01992e-07c1.66785e-07 1.10457.895431 2 2 2v0l8.74228e-08-1.42109e-14c1.10457-2.15068e-07 2-.895431 2-2Z"></path><line x1="17" x2="14" y1="10.5" y2="10.5"></line><line x1="10" x2="7" y1="10.5" y2="10.5"></line><rect width="18" height="18" x="3" y="3" rx="2.20912" ry="0"></rect></g><rect width="24" height="24" fill="none"></rect></svg>