<svg xmlns="http://www.w3.org/2000/svg" viewBox="0 0 24 24"><g id="Layer_2" data-name="Layer 2"><path d="M3,16v2a3,3,0,0,0,3,3H18a3,3,0,0,0,3-3V16a1,1,0,0,0-1-1H16.618a1.00075,1.00075,0,0,0-.8951.5532l-.4469.8938a1.00037,1.00037,0,0,1-.89477.553H9.618a1.00075,1.00075,0,0,1-.8953-.5536l-.44612-.89324A1,1,0,0,0,7.382,15H4A1,1,0,0,0,3,16Z" fill="none" stroke="#323232" stroke-linecap="round" stroke-linejoin="round" stroke-width="1.5"/><line x1="9" y1="7" x2="12" y2="7" fill="none" stroke="#323232" stroke-linecap="round" stroke-linejoin="round" stroke-width="1.5"/><line x1="9" y1="10" x2="15" y2="10" fill="none" stroke="#323232" stroke-linecap="round" stroke-linejoin="round" stroke-width="1.5"/><path d="M19,12V5a2,2,0,0,0-2-2H7A2,2,0,0,0,5,5v7" fill="none" stroke="#323232" stroke-linecap="round" stroke-linejoin="round" stroke-width="1.5"/><path d="M0,0H24V24H0Z" fill="none"/></g></svg>