<?xml version="1.0" encoding="UTF-8"?><svg version="1.1" viewBox="0 0 24 24" xmlns="http://www.w3.org/2000/svg" xmlns:xlink="http://www.w3.org/1999/xlink"><g fill="none"><path d="M0 0h24v24h-24v-24Z"></path><circle cx="12" cy="12" r="9" stroke="#323232" stroke-linecap="round" stroke-linejoin="round" stroke-width="1.5882"></circle><path stroke="#323232" stroke-linecap="round" stroke-linejoin="round" stroke-width="1.5" d="M7.503 8.781c.638.584 2.136 1.954 3.375 3.083 .636.58 1.609.581 2.245.001 1.283-1.17 2.749-2.511 3.375-3.084"></path><path stroke="#323232" stroke-linecap="round" stroke-linejoin="round" stroke-width="1.5" d="M15.333 15.696h-6.666c-.921 0-1.667-.747-1.667-1.667v-4.058c0-.92.746-1.667 1.667-1.667h6.667c.92 0 1.667.746 1.667 1.667v4.058c-.001.92-.747 1.667-1.668 1.667Z"></path><path stroke="#323232" stroke-linecap="round" stroke-linejoin="round" stroke-width="1.5" d="M12.977 11.983c1.06.893 2.825 2.561 3.528 3.23"></path><path stroke="#323232" stroke-linecap="round" stroke-linejoin="round" stroke-width="1.5" d="M11.023 11.983c-1.06.893-2.825 2.561-3.528 3.23"></path></g></svg>