<?xml version="1.0" encoding="UTF-8"?><svg version="1.1" viewBox="0 0 24 24" xmlns="http://www.w3.org/2000/svg" xmlns:xlink="http://www.w3.org/1999/xlink"><g stroke-linecap="round" stroke-width="1.5" stroke="#323232" fill="none" stroke-linejoin="round"><line x1="6.33" x2="4.93" y1="9.5" y2="9.5"></line><line x1="16.83" x2="15.84" y1="4.6" y2="5.59"></line><line x1="11.93" x2="11.93" y1="2.5" y2="3.9"></line><line x1="7.03" x2="8.02" y1="4.6" y2="5.59"></line><line x1="18.93" x2="17.53" y1="9.5" y2="9.5"></line><path d="M21 13v5.5 0c0 1.65685-1.34315 3-3 3h-12l-1.31134e-07-3.55271e-15c-1.65685-7.24234e-08-3-1.34315-3-3 0 0 0-3.55271e-15 0-3.55271e-15v-5.5"></path><path d="M3 15.5h4.382l1.66089e-08 5.56e-13c.378443 1.27056e-05.724457.213659.894.552l.447.895 -3.29448e-08-6.5929e-08c.169425.339052.515974.553177.895.553h4.763l-4.3935e-08-2.04743e-11c.379026.000176639.725575-.213948.895-.553l.447-.894 -3.29448e-08 6.5929e-08c.169425-.339052.515974-.553177.895-.553h4.382"></path><path d="M10.834 9.334l1.166-1.168v4.668"></path><path d="M10.837 12.837h2.326"></path></g><path fill="none" d="M0 0h24v24h-24Z"></path></svg>