<svg id="Layer_3" data-name="Layer 3" xmlns="http://www.w3.org/2000/svg" viewBox="0 0 24 24"><path d="M2,13v6a2,2,0,0,0,2,2H20a2,2,0,0,0,2-2V13" fill="none" stroke="#323232" stroke-linecap="round" stroke-linejoin="round" stroke-width="1.5"/><path d="M5.50088,9H3.62244a1,1,0,0,0-.98058.80387l-.6221,3.11033a1,1,0,0,0,.98058,1.19613H7.29371a1,1,0,0,1,.89463.55318l.46835.93776a1,1,0,0,0,.89463.55319h4.89633a1,1,0,0,0,.89443-.55279l.46928-.93856a1,1,0,0,1,.89443-.55278h4.29387a1,1,0,0,0,.98058-1.19613l-.6221-3.11033A1,1,0,0,0,20.37756,9h-1.879" fill="none" stroke="#323232" stroke-linecap="round" stroke-linejoin="round" stroke-width="1.5"/><line x1="8.9997" y1="8" x2="14.9997" y2="8" fill="none" stroke="#323232" stroke-linecap="round" stroke-linejoin="round" stroke-width="1.5"/><line x1="8.9997" y1="11" x2="14.9997" y2="11" fill="none" stroke="#323232" stroke-linecap="round" stroke-linejoin="round" stroke-width="1.5"/><path d="M5.4997,14.11033V5a2,2,0,0,1,2-2h7.11275a2,2,0,0,1,1.41422.58579L17.91392,5.473a2,2,0,0,1,.58578,1.41421v7.22308" fill="none" stroke="#323232" stroke-linecap="round" stroke-linejoin="round" stroke-width="1.5"/><path d="M0,0H24V24H0Z" fill="none"/></svg>