<?xml version="1.0" encoding="UTF-8"?><svg version="1.1" viewBox="0 0 24 24" xmlns="http://www.w3.org/2000/svg" xmlns:xlink="http://www.w3.org/1999/xlink"><g stroke-linecap="round" stroke-width="1.5" stroke="#323232" fill="none" stroke-linejoin="round"><path d="M21 12v6 0c0 1.65685-1.34315 3-3 3h-12l-1.31134e-07-3.55271e-15c-1.65685-7.24234e-08-3-1.34315-3-3 0 0 0-3.55271e-15 0-3.55271e-15v-12l3.37508e-14 4.52987e-07c-2.50178e-07-1.65685 1.34315-3 3-3h6"></path><path d="M3 15h4.382l1.66089e-08 5.56e-13c.378443 1.27056e-05.724457.213659.894.552l.447.895 -4.03648e-08-8.07779e-08c.169425.339052.515974.553177.895.553h4.763l-4.3935e-08-2.04707e-11c.379026.000176639.725575-.213948.895-.553l.447-.894 4.82157e-11-9.64864e-11c.169425-.339052.515974-.553177.895-.553h4.382"></path><path d="M18 2l-1.74846e-07 4.44089e-15c2.20914-9.65645e-08 4 1.79086 4 4 9.65645e-08 2.20914-1.79086 4-4 4 -2.20914 9.65645e-08-4-1.79086-4-4l4.61853e-14 6.03983e-07c-3.33571e-07-2.20914 1.79086-4 4-4"></path><path d="M19.333 5.956l2.12843e-09 5.01013e-11c-.0237417-.000558863-.0434411.0182345-.044.0419762 -1.58776e-05.000674512-1.58776e-05.0013493-1.00201e-10.00202382v2.12843e-09 -6.64382e-09c-3.66928e-09.0243005.0196995.044.044.044 .0243005 3.66928e-09.044-.0196995.044-.044 3.66928e-09-.0243005-.0196995-.044-.044-.044v0"></path><path d="M16.667 5.956l2.12844e-09 5.01021e-11c-.0237417-.000558863-.0434411.0182345-.044.0419762 -1.58776e-05.000674512-1.58776e-05.0013493-1.00201e-10.00202382v2.12844e-09l-3.55271e-15-6.64382e-09c-3.66928e-09.0243005.0196995.044.044.044 .0243005 3.66928e-09.044-.0196995.044-.044 3.66928e-09-.0243005-.0196995-.044-.044-.044"></path></g><path fill="none" d="M0 0h24v24h-24Z"></path></svg>