<?xml version="1.0" encoding="UTF-8"?><svg version="1.1" viewBox="0 0 24 24" xmlns="http://www.w3.org/2000/svg" xmlns:xlink="http://www.w3.org/1999/xlink"><g fill="none"><path d="M0 0h24v24h-24v-24Z"></path><path stroke="#323232" stroke-linecap="round" stroke-linejoin="round" stroke-width="1.5" d="M3 9.355v9.045c0 1.436 1.164 2.6 2.6 2.6h12.8c1.436 0 2.6-1.164 2.6-2.6v-9.045"></path><path stroke="#323232" stroke-linecap="round" stroke-linejoin="round" stroke-width="1.5" d="M12.001 2c2.485 0 4.5 2.015 4.5 4.499 3.55271e-15 2.433-2.068 4.501-4.501 4.501 -2.485 0-4.499-2.015-4.499-4.5 8.88178e-16-2.485 2.015-4.5 4.5-4.5"></path><path stroke="#323232" stroke-linecap="round" stroke-linejoin="round" stroke-width="1.5" d="M13.741 5.628l-2.188 2.188 -1.312-1.313"></path><path stroke="#323232" stroke-linecap="round" stroke-linejoin="round" stroke-width="1.5" d="M16.471 7h2.174c1.301 0 2.355 1.054 2.355 2.355v0c0 .781-.387 1.511-1.033 1.949 -1.339.908-3.739 2.535-5.725 3.881 -1.355.919-3.13.917-4.485-.001 -1.926-1.305-4.368-2.961-5.726-3.881 -.647-.439-1.031-1.167-1.031-1.948v0c0-1.301 1.054-2.355 2.355-2.355h2.174"></path></g></svg>