<?xml version="1.0" encoding="UTF-8"?><svg version="1.1" viewBox="0 0 24 24" xmlns="http://www.w3.org/2000/svg" xmlns:xlink="http://www.w3.org/1999/xlink"><g fill="none"><path d="M0 0h24v24h-24Z"></path><path stroke="#323232" stroke-linecap="round" stroke-linejoin="round" stroke-width="1.5" d="M12 11v-7.67854"></path><path stroke="#323232" stroke-linecap="round" stroke-linejoin="round" stroke-width="1.5" d="M12 11l3-3Z"></path><path stroke="#323232" stroke-linecap="round" stroke-linejoin="round" stroke-width="1.5" d="M3 15h4.382l1.66089e-08 5.56e-13c.378443 1.27056e-05.724457.213659.894.552l.447.895 -4.03648e-08-8.07779e-08c.169425.339052.515974.553177.895.553h4.763l-4.3935e-08-2.04707e-11c.379026.000176639.725575-.213948.895-.553l.447-.894 4.82157e-11-9.64864e-11c.169425-.339052.515974-.553177.895-.553h4.382"></path><path stroke="#323232" stroke-linecap="round" stroke-linejoin="round" stroke-width="1.5" d="M15 3h3l-1.31134e-07 3.55271e-15c1.65685-7.24234e-08 3 1.34315 3 3v12 0c0 1.65685-1.34315 3-3 3h-12l-1.31134e-07-3.55271e-15c-1.65685-7.24234e-08-3-1.34315-3-3 0 0 0-3.55271e-15 0-3.55271e-15v-12l3.37508e-14 4.52987e-07c-2.50178e-07-1.65685 1.34315-3 3-3h3"></path><path stroke="#323232" stroke-linecap="round" stroke-linejoin="round" stroke-width="1.5" d="M9 8l3 3Z"></path></g></svg>