<svg viewBox="0 0 24 24" xmlns="http://www.w3.org/2000/svg"><g stroke-linecap="round" stroke-width="1.5" stroke="#323232" fill="none" stroke-linejoin="round"><path d="M21 13v5 0c0 1.65-1.35 3-3 3H6l-.01-.001c-1.66-.01-3-1.35-3-3 0 0 0-.001 0-.001v-12l0 0c-.01-1.66 1.34-3.01 2.99-3.01h5"/><path d="M3 15h4.382l0 0c.37 0 .72.21.89.55l.44.89 -.01-.01c.16.33.51.55.89.55h4.763l-.01-.001c.37 0 .72-.22.89-.56l.44-.9 0-.001c.16-.34.51-.56.89-.56h4.38"/><rect width="8" height="8" x="14" y="2" rx="2"/><path d="M16.75 4.75l2.5 0"/><path d="M16.75 7.25l2.5 0"/></g><path fill="none" d="M0 0h24v24H0Z"/></svg>