<?xml version="1.0" encoding="UTF-8"?><svg version="1.1" viewBox="0 0 24 24" xmlns="http://www.w3.org/2000/svg" xmlns:xlink="http://www.w3.org/1999/xlink"><g stroke-linecap="round" stroke-width="1.5" stroke="#323232" fill="none" stroke-linejoin="round"><rect width="18" height="18" x="3" y="3" rx="2.20912" ry="0"></rect><path d="M7 11v4.5l1.68754e-14 2.26494e-07c1.25089e-07.828427.671573 1.5 1.5 1.5v0l6.55671e-08-1.06581e-14c.828427-1.61301e-07 1.5-.671573 1.5-1.5v-4.5l.74-1.973 6.58423e-08-1.7546e-07c.291054-.775615-.10176-1.64032-.877376-1.93138 -.168704-.063307-.347434-.0956992-.527625-.0956242h-1.67l-3.40639e-08-1.4178e-11c-.828427-.00034482-1.50028.670948-1.50062 1.49938 -7.50017e-05.180191.0323172.358921.0956243.527625Z"></path><line x1="10" x2="7" y1="11" y2="11"></line><line x1="7" x2="10" y1="11" y2="11"></line><rect width="4" height="10" x="13.5" y="7" rx=".55228" ry="0"></rect><line x1="13.5" x2="17.5" y1="10.33" y2="10.33"></line><line x1="17.5" x2="13.5" y1="13.67" y2="13.67"></line></g><path fill="none" d="M0 0h24v24h-24Z"></path></svg>