<?xml version="1.0" encoding="UTF-8"?><svg version="1.1" viewBox="0 0 24 24" xmlns="http://www.w3.org/2000/svg" xmlns:xlink="http://www.w3.org/1999/xlink"><g stroke-linecap="round" stroke-width="1.5" stroke="#323232" fill="none" stroke-linejoin="round"><path d="M5 10.383h4l-4.37114e-08 1.77636e-15c.552285-2.41411e-08 1 .447715 1 1v7.617 0c0 1.10457-.895431 2-2 2h-2l-8.74228e-08-3.55271e-15c-1.10457-4.82823e-08-2-.895431-2-2 0 0 0 0 0 0v-7.617l1.15463e-14 1.50996e-07c-8.33927e-08-.552285.447715-1 1-1Z"></path><path d="M5 10.383v-5.383l-2.34264e-08 4.58343e-05c.000184862-.378666.214237-.724746.552959-.894025l2-1 -6.83415e-08 3.41543e-08c.494026-.246894 1.09466-.0465539 1.34155.447472 .0692912.138649.105404.291508.105486.446507v6.382"></path><path d="M16 12h2l-8.74228e-08 1.77636e-15c1.10457-4.82823e-08 2 .89543 2 2v6 0c0 .552285-.447715 1-1 1h-4 -4.37114e-08c-.552285-2.41411e-08-1-.447715-1-1 0 0 0-3.55271e-15 0-3.55271e-15v-6l2.13163e-14 3.01992e-07c-1.66785e-07-1.10457.89543-2 2-2Z"></path><line x1="10" x2="4" y1="15" y2="15"></line></g><path fill="none" d="M0 0h24v24h-24Z"></path></svg>