<?xml version="1.0" encoding="UTF-8"?><svg version="1.1" viewBox="0 0 24 24" xmlns="http://www.w3.org/2000/svg" xmlns:xlink="http://www.w3.org/1999/xlink"><g stroke-linecap="round" stroke-width="1.5" stroke="#323232" fill="none" stroke-linejoin="round"><path d="M15 3.01v6.99"></path><path d="M9 4.78v14.22"></path><path d="M21 11v-5.387c0-.431-.275-.813-.684-.949l-4.684-1.561c-.41-.137-.854-.137-1.265-.001l-4.735 1.578c-.411.137-.854.137-1.265 0l-4.051-1.35c-.647-.216-1.316.266-1.316.949v11.339c0 .379.214.725.553.895l4.553 2.276c.563.282 1.226.282 1.789 0l1.105-.553"></path><path d="M18 13c2.209 0 4 1.791 4 4 0 2.209-1.791 4-4 4 -2.209 0-4-1.791-4-4 0-2.209 1.791-4 4-4"></path><path d="M19.556 16.028l-1.945 1.945 -1.167-1.167"></path></g><path fill="none" d="M0 0h24v24h-24v-24Z"></path></svg>