<svg id="Layer_3" data-name="Layer 3" xmlns="http://www.w3.org/2000/svg" viewBox="0 0 24 24"><path d="M21,5.27824V15.99975a2,2,0,0,1-1.10557,1.78885l-4.0005,2.00025a2,2,0,0,1-1.789-.00008l-4.2108-2.1059a2,2,0,0,0-1.789-.00009L4.44721,19.51171A1,1,0,0,1,3,18.61729V7.333A2,2,0,0,1,4.36769,5.43559l4-1.333a2,2,0,0,1,1.26417-.00016L14.36864,5.6797a2,2,0,0,0,1.26417-.00016l4.051-1.35A1,1,0,0,1,21,5.27824Z" fill="none" stroke="#323232" stroke-linecap="round" stroke-linejoin="round" stroke-width="1.5"/><path d="M24,24H0V0H24Z" fill="none"/></svg>