<svg id="Layer_3" data-name="Layer 3" xmlns="http://www.w3.org/2000/svg" viewBox="0 0 24 24"><line x1="10" y1="7" x2="7" y2="7" fill="none" stroke="#323232" stroke-linecap="round" stroke-linejoin="round" stroke-width="1.5"/><path d="M3,18.68942V5.5A2.5,2.5,0,0,1,5.5,3H6A1,1,0,0,1,7,4V15a1,1,0,0,1-1,1H5.5a2.5,2.5,0,0,0,0,5H18a2,2,0,0,0,2-2V14" fill="none" stroke="#323232" stroke-linecap="round" stroke-linejoin="round" stroke-width="1.5"/><path d="M17.499,6.25a.25.25,0,1,0,.251.25.24869.24869,0,0,0-.251-.25" fill="none" stroke="#323232" stroke-linecap="round" stroke-linejoin="round" stroke-width="1.5"/><path d="M14,6.5h0A3.5,3.5,0,0,1,17.5,3h0A3.5,3.5,0,0,1,21,6.5h0c0,1.63851-1.788,3.38881-2.808,4.25435a1.09611,1.09611,0,0,1-1.383,0C15.788,9.88881,14,8.13851,14,6.5Z" fill="none" stroke="#323232" stroke-linecap="round" stroke-linejoin="round" stroke-width="1.5"/><path d="M0,0H24V24H0Z" fill="none"/></svg>