<svg id="Layer_3" data-name="Layer 3" xmlns="http://www.w3.org/2000/svg" viewBox="0 0 24 24"><path d="M8,9.55542v5.75327a.5.5,0,0,0,.72361.44721l1.49561-.74781a1,1,0,0,1,.89452,0l1.77208.88625a1,1,0,0,0,.89451,0l1.66688-.83344A1,1,0,0,0,16,14.16656V8.63918a.5.5,0,0,0-.65808-.47436l-1.69222.56394a1.00008,1.00008,0,0,1-.63209.00008l-2.035-.67762a1,1,0,0,0-.63208.00007l-1.66669.55542A1,1,0,0,0,8,9.55542Z" fill="none" stroke="#323232" stroke-linecap="round" stroke-linejoin="round" stroke-width="1.5"/><path d="M7.12132,20.12371,3.87868,16.88107A3,3,0,0,1,3,14.75975V9.246a3,3,0,0,1,.87868-2.12132l3.24364-3.2436a3,3,0,0,1,2.12132-.87868h5.51272a3,3,0,0,1,2.12132.87868l3.24364,3.24364A3,3,0,0,1,21,9.246v5.51372a3,3,0,0,1-.87835,2.121L16.88,20.12338a3,3,0,0,1-2.12165.879H9.24264A2.99994,2.99994,0,0,1,7.12132,20.12371Z" fill="none" stroke="#323232" stroke-linecap="round" stroke-linejoin="round" stroke-width="1.5"/><rect width="24" height="24" fill="none"/></svg>