<svg id="Layer_3" data-name="Layer 3" xmlns="http://www.w3.org/2000/svg" viewBox="0 0 24 24"><path d="M17.5,7.43552a5.50038,5.50038,0,0,0-11,0c0,2.18938,2.16064,4.50977,3.77323,5.93716a2.68885,2.68885,0,0,0,3.4518.0006C15.33876,11.946,17.5,9.62523,17.5,7.43552Z" fill="none" stroke="#323232" stroke-linecap="round" stroke-linejoin="round" stroke-width="1.5"/><path d="M10.5,5.75v3.5" fill="none" stroke="#323232" stroke-linecap="round" stroke-linejoin="round" stroke-width="1.5"/><path d="M13.5,5.75v3.5" fill="none" stroke="#323232" stroke-linecap="round" stroke-linejoin="round" stroke-width="1.5"/><path d="M10.5,7.5h3" fill="none" stroke="#323232" stroke-linecap="round" stroke-linejoin="round" stroke-width="1.5"/><path d="M17.42886,8.13629l2.25491-.75164A1,1,0,0,1,21,8.33333v10a1,1,0,0,1-.68377.94869l-5,1.66666a.99991.99991,0,0,1-.63246,0L9.31623,19.1595a1,1,0,0,0-.63246,0L4.31623,20.61535A1,1,0,0,1,3,19.66667v-10A1,1,0,0,1,3.68377,8.718l2.833-.94432" fill="none" stroke="#323232" stroke-linecap="round" stroke-linejoin="round" stroke-width="1.5"/><line x1="9" y1="16" x2="9" y2="19.10819" fill="none" stroke="#323232" stroke-linecap="round" stroke-linejoin="round" stroke-width="1.5"/><line x1="15" y1="16" x2="15" y2="21" fill="none" stroke="#323232" stroke-linecap="round" stroke-linejoin="round" stroke-width="1.5"/><path d="M0,0H24V24H0Z" fill="none"/></svg>