<?xml version="1.0" encoding="UTF-8"?><svg version="1.1" viewBox="0 0 24 24" xmlns="http://www.w3.org/2000/svg" xmlns:xlink="http://www.w3.org/1999/xlink"><line x1="12" x2="12" y1="9" y2="13" stroke-linecap="round" stroke-width="1.5" stroke="#323232" fill="none" stroke-linejoin="round"></line><g transform="matrix(1 0 0 1 11.13 -5.331)"><path fill="none" stroke="#323232" stroke-linecap="round" stroke-linejoin="round" stroke-width="1.5" d="M12 3v0l-3.39638e-07 7.10543e-15c4.29125-1.87577e-07 7.77 3.47875 7.77 7.77v5.939 -3.55271e-15c0 1.01123-.819767 1.831-1.831 1.831h-5.939l-3.39638e-07-1.06581e-14c-4.29125-1.87577e-07-7.77-3.47875-7.77-7.77 0 0 0-3.55271e-15 0-3.55271e-15v0l5.9508e-14-4.93962e-07c6.47961e-07-4.29125 3.47875-7.77 7.77-7.77Z" transform="matrix(.707107 .707107 -.707107 .707107 0 0)"></path></g><line x1="10" x2="14" y1="11" y2="11" stroke-linecap="round" stroke-width="1.5" stroke="#323232" fill="none" stroke-linejoin="round"></line><rect width="24" height="24" fill="none"></rect></svg>