<?xml version="1.0" encoding="UTF-8"?><svg version="1.1" viewBox="0 0 24 24" xmlns="http://www.w3.org/2000/svg" xmlns:xlink="http://www.w3.org/1999/xlink"><g fill="none"><rect width="24" height="24"></rect><path stroke="#323232" stroke-linecap="round" stroke-linejoin="round" stroke-width="1.5" d="M18.443 13.885l-4.43126e-07 3.17782e-07c.457079-.327788.888038-.690543 1.289-1.085"></path><path stroke="#323232" stroke-linecap="round" stroke-linejoin="round" stroke-width="1.5" d="M4.268 12.8l4.78177e-07 4.71785e-07c.40085.395492.831813.759253 1.289 1.088"></path><path stroke="#323232" stroke-linecap="round" stroke-linejoin="round" stroke-width="1.5" d="M10.5 5.369v-1.869l1.77636e-14 2.26494e-07c-1.25089e-07-.828427.671573-1.5 1.5-1.5v0l-6.55671e-08 1.77636e-15c.828427-3.62117e-08 1.5.671573 1.5 1.5v1.87"></path><circle cx="12" cy="8" r="3" stroke="#323232" stroke-linecap="round" stroke-linejoin="round" stroke-width="1.5"></circle><path stroke="#323232" stroke-linecap="round" stroke-linejoin="round" stroke-width="1.5" d="M12.911 10.864l5.068 10.136h2.021v-4l-5.106-10.211 -4.12567e-08-8.25265e-08c-.548042-1.09626-1.66838-1.78883-2.894-1.789v0l4.87629e-08-6.90203e-12c-1.22562.00017348-2.34596.692742-2.894 1.789l-5.106 10.211v4h2l5.068-10.136"></path><path stroke="#323232" stroke-linecap="round" stroke-linejoin="round" stroke-width="1.5" d="M15.233 15.508l-4.24391e-07 1.30647e-07c-2.11281.65042-4.3728.647632-6.484-.00800026"></path><path stroke="#323232" stroke-linecap="round" stroke-linejoin="round" stroke-width="1.5" d="M11.95 8l1.77636e-15-7.54979e-09c-4.16963e-09.0276142.0223858.05.05.05 .0276142 4.16963e-09.05-.0223858.05-.05 4.16963e-09-.0276142-.0223858-.05-.05-.05 0 0-1.77636e-15 0-1.77636e-15 0h-2.18557e-09c-.0276142 1.20706e-09-.05.0223858-.05.05 0 0 0 1.77636e-15 0 1.77636e-15"></path></g></svg>