<?xml version="1.0" encoding="UTF-8"?><svg version="1.1" viewBox="0 0 24 24" xmlns="http://www.w3.org/2000/svg" xmlns:xlink="http://www.w3.org/1999/xlink"><!--Generated by IJSVG (https://github.com/iconjar/IJSVG)--><g stroke-linecap="round" stroke-width="1.5" stroke="#323232" fill="none" stroke-linejoin="round"><path d="M15.0936,5.97741c1.70854,1.70854 1.70854,4.47864 0,6.18718c-1.70854,1.70854 -4.47864,1.70854 -6.18718,0c-1.70854,-1.70854 -1.70854,-4.47864 0,-6.18718c1.70854,-1.70854 4.47864,-1.70854 6.18718,0"></path><path d="M11.125,8.196l0.875,-0.875v3.5"></path><path d="M11.12,10.82h1.76"></path><path d="M17,4.07105c2.7614,2.7614 2.7614,7.23851 0,9.9999c-2.7614,2.7614 -7.23851,2.7614 -9.9999,1.77636e-15c-2.7614,-2.7614 -2.7614,-7.23851 -8.88178e-16,-9.9999c2.7614,-2.7614 7.23851,-2.7614 9.9999,-8.88178e-16"></path><path d="M17.279,19h-10.558c-0.43,0 -0.813,0.275 -0.949,0.684l-0.333,1c-0.216,0.647 0.266,1.316 0.948,1.316h11.225c0.683,0 1.165,-0.669 0.949,-1.316l-0.333,-1c-0.136,-0.409 -0.518,-0.684 -0.949,-0.684Z"></path><path d="M14.46,19l-0.49,-3.14"></path><path d="M9.54,19l0.49,-3.14"></path></g><path fill="none" d="M0,0h24v24h-24Z"></path></svg>