<?xml version="1.0" encoding="UTF-8"?><svg version="1.1" viewBox="0 0 24 24" xmlns="http://www.w3.org/2000/svg" xmlns:xlink="http://www.w3.org/1999/xlink"><!--Generated by IJSVG (https://github.com/iconjar/IJSVG)--><path d="M11.999,14.023l1.755,0.922c0.342,0.18 0.741,-0.111 0.676,-0.491l-0.335,-1.954l1.42,-1.383c0.277,-0.269 0.124,-0.739 -0.258,-0.794l-1.962,-0.285l-0.877,-1.778c-0.171,-0.346 -0.665,-0.346 -0.835,0l-0.877,1.779l-1.962,0.285c-0.382,0.056 -0.535,0.525 -0.258,0.794l1.42,1.383l-0.336,1.954c-0.065,0.38 0.334,0.67 0.676,0.491l1.755,-0.922" stroke-linecap="round" stroke-width="1.5" stroke="#323232" fill="none" stroke-linejoin="round"></path><path fill="#323232" d="M9.048,19.229c-0.079,1.121 -0.849,1.885 -1.971,1.955c0.079,-1.122 0.849,-1.885 1.971,-1.955m0,-1.5c-0.031,0 -0.062,0.001 -0.093,0.003c-1.885,0.117 -3.241,1.462 -3.375,3.346c-0.03,0.431 0.127,0.855 0.431,1.162c0.282,0.285 0.666,0.444 1.065,0.444c0.031,0 0.062,-0.001 0.093,-0.003c1.885,-0.117 3.241,-1.462 3.375,-3.346c0.03,-0.431 -0.127,-0.855 -0.431,-1.162c-0.282,-0.285 -0.666,-0.444 -1.065,-0.444v0Zm0,3h0.005h-0.005v0Z"></path><g fill="#323232"><path d="M3.712,15.295c0.48,0 0.961,0.183 1.383,0.55c-0.424,0.374 -0.909,0.561 -1.394,0.561c-0.48,0 -0.961,-0.183 -1.383,-0.55c0.424,-0.374 0.909,-0.561 1.394,-0.561m0,-1.5v0c-0.867,0 -1.693,0.324 -2.387,0.937c-0.324,0.286 -0.509,0.698 -0.507,1.131c0.002,0.432 0.19,0.843 0.517,1.127c0.691,0.6 1.509,0.917 2.366,0.917c0.867,0 1.692,-0.324 2.386,-0.937c0.324,-0.286 0.509,-0.698 0.507,-1.131c-0.002,-0.432 -0.19,-0.843 -0.517,-1.127c-0.69,-0.6 -1.508,-0.917 -2.365,-0.917v0Z"></path><path d="M2.01,8.487c1.136,0.091 1.903,0.879 1.964,2.017c-1.136,-0.091 -1.903,-0.879 -1.964,-2.017m0,-1.5c-0.389,0 -0.765,0.152 -1.046,0.425c-0.31,0.302 -0.474,0.722 -0.452,1.154c0.101,1.902 1.444,3.281 3.342,3.433c0.04,0.003 0.08,0.005 0.12,0.005c0.389,0 0.765,-0.152 1.046,-0.425c0.31,-0.302 0.474,-0.722 0.452,-1.154c-0.101,-1.902 -1.444,-3.282 -3.342,-3.433c-0.04,-0.004 -0.08,-0.005 -0.12,-0.005v0Z"></path><path d="M6.305,2.816c0.767,0.884 0.762,2.013 -0.012,2.891c-0.767,-0.884 -0.763,-2.013 0.012,-2.891m0,-1.5c-0.43,0 -0.84,0.185 -1.125,0.507c-1.28,1.451 -1.288,3.407 -0.02,4.867c0.284,0.327 0.694,0.515 1.127,0.517c0.002,0 0.004,0 0.006,0c0.43,0 0.84,-0.185 1.125,-0.507c1.28,-1.45 1.288,-3.406 0.02,-4.866c-0.284,-0.328 -0.695,-0.516 -1.127,-0.518c-0.002,0 -0.004,0 -0.006,0v0Z"></path><path d="M14.952,19.229c1.122,0.07 1.892,0.834 1.971,1.955c-1.122,-0.07 -1.892,-0.834 -1.971,-1.955m0,-1.5c-0.399,0 -0.782,0.159 -1.065,0.444c-0.305,0.307 -0.462,0.731 -0.431,1.162c0.133,1.884 1.489,3.229 3.375,3.346c0.031,0.002 0.062,0.003 0.093,0.003c0.399,0 0.782,-0.159 1.065,-0.444c0.305,-0.307 0.462,-0.731 0.431,-1.162c-0.133,-1.884 -1.489,-3.229 -3.375,-3.346c-0.031,-0.002 -0.062,-0.003 -0.093,-0.003v0Z"></path><path d="M20.288,15.295c0.485,0 0.97,0.187 1.394,0.561c-0.422,0.366 -0.903,0.55 -1.383,0.55c-0.485,0 -0.97,-0.187 -1.394,-0.561c0.422,-0.367 0.903,-0.55 1.383,-0.55m0,-1.5c0,0 0,0 0,0c-0.857,0 -1.675,0.317 -2.366,0.917c-0.327,0.283 -0.515,0.694 -0.517,1.127c-0.002,0.432 0.183,0.845 0.507,1.131c0.694,0.613 1.519,0.937 2.386,0.937c0.857,0 1.675,-0.317 2.366,-0.917c0.327,-0.283 0.515,-0.694 0.517,-1.127c0.002,-0.432 -0.183,-0.845 -0.507,-1.131c-0.694,-0.613 -1.519,-0.937 -2.386,-0.937v0Z"></path><path d="M21.99,8.487c-0.06,1.138 -0.828,1.926 -1.964,2.017c0.06,-1.138 0.828,-1.926 1.964,-2.017m0,-1.5c-0.04,0 -0.08,0.002 -0.12,0.005c-1.898,0.152 -3.241,1.531 -3.342,3.433c-0.023,0.432 0.142,0.853 0.452,1.154c0.281,0.274 0.657,0.425 1.046,0.425c0.04,0 0.08,-0.002 0.12,-0.005c1.898,-0.152 3.241,-1.531 3.342,-3.433c0.023,-0.432 -0.142,-0.853 -0.452,-1.154c-0.281,-0.274 -0.657,-0.425 -1.046,-0.425v0Zm0,3h0.005h-0.005v0Z"></path><path d="M17.695,2.816c0.774,0.877 0.779,2.007 0.012,2.89c-0.774,-0.877 -0.779,-2.006 -0.012,-2.89m0,-1.5c-0.002,0 -0.004,0 -0.006,0c-0.432,0.002 -0.843,0.19 -1.127,0.517c-1.268,1.461 -1.26,3.416 0.02,4.866c0.285,0.323 0.694,0.507 1.125,0.507c0.002,0 0.004,0 0.006,0c0.432,-0.002 0.843,-0.19 1.127,-0.517c1.268,-1.461 1.26,-3.416 -0.02,-4.866c-0.285,-0.322 -0.695,-0.507 -1.125,-0.507v0Z"></path></g><path fill="none" d="M0,0h24v24h-24Z"></path></svg>