<svg viewBox="0 0 24 24" xmlns="http://www.w3.org/2000/svg"><g stroke-linecap="round" stroke-width="1.5" stroke="#323232" fill="none" stroke-linejoin="round"><path d="M19 6L5 6"/><path d="M7 3l10 0"/><path d="M18 14l-.01 0c2.2-.01 4 1.79 4 3.99s-1.8 4-4 4c-2.21 0-4-1.8-4.01-4l0 0c-.01-2.21 1.79-4.01 3.99-4.01"/><path d="M19.086 17.95l-.01-.001c-.03-.01-.05.02-.05.04 -.01.02.02.04.04.05 0 0 0 0 0 0h0l0 0c.02 0 .04-.03.04-.05 0-.03-.03-.05-.05-.05 0 0 0 0 0 0h-.01"/><path d="M16.91 17.951h-.01c-.03 0-.05.02-.05.04 0 0 0 0 0 0v0l-.01 0c-.01.02.02.05.04.05s.05-.03.05-.05c0-.03-.03-.06-.05-.06h-.01"/><path d="M12 21H5l-.01-.001c-1.11-.01-2-.9-2-2.01 0 0 0 0 0 0v-8l0 0c-.01-1.11.89-2.01 1.99-2.01h14l-.01 0c1.1-.01 2 .89 2 1.99v1"/></g><path fill="none" d="M0 0h24v24H0Z"/></svg>