<svg id="Layer_3" data-name="Layer 3" xmlns="http://www.w3.org/2000/svg" viewBox="0 0 24 24"><path d="M0,24V0H24V24Z" fill="none"/><path d="M15.75,11.25A.75.75,0,0,0,15,10.5H13.5V9a.75.75,0,0,0-.75-.75h-1.5A.75.75,0,0,0,10.5,9v1.5H9a.75.75,0,0,0-.75.75v1.5A.75.75,0,0,0,9,13.5h1.5V15a.75.75,0,0,0,.75.75h1.5A.75.75,0,0,0,13.5,15V13.5H15a.75.75,0,0,0,.75-.75Z" fill="none" stroke="#323232" stroke-linecap="round" stroke-linejoin="round" stroke-width="1.5"/><path d="M5.636,5.636a9,9,0,1,1,0,12.72792" fill="none" stroke="#323232" stroke-linecap="round" stroke-linejoin="round" stroke-width="1.5"/><line x1="4.5" y1="12" x2="2" y2="12" fill="none" stroke="#323232" stroke-linecap="round" stroke-linejoin="round" stroke-width="1.5"/><line x1="6" y1="8.99995" x2="3.5" y2="9.00005" fill="none" stroke="#323232" stroke-linecap="round" stroke-linejoin="round" stroke-width="1.5"/><line x1="6" y1="15" x2="3.5" y2="15.0001" fill="none" stroke="#323232" stroke-linecap="round" stroke-linejoin="round" stroke-width="1.5"/></svg>