<svg id="Layer_3" data-name="Layer 3" xmlns="http://www.w3.org/2000/svg" viewBox="0 0 24 24"><path d="M0,0H24V24H0Z" fill="none"/><path d="M15.75,11.25A.75.75,0,0,0,15,10.5H13.5V9a.75.75,0,0,0-.75-.75h-1.5A.75.75,0,0,0,10.5,9v1.5H9a.75.75,0,0,0-.75.75v1.5A.75.75,0,0,0,9,13.5h1.5V15a.75.75,0,0,0,.75.75h1.5A.75.75,0,0,0,13.5,15V13.5H15a.75.75,0,0,0,.75-.75Z" fill="none" stroke="#323232" stroke-linecap="round" stroke-linejoin="round" stroke-width="1.5"/><path d="M3.5,10.767a10.60888,10.60888,0,0,0,6.89228,9.93655l.03007.01125a4.5,4.5,0,0,0,3.15565-.001l.02436-.00913A10.6269,10.6269,0,0,0,20.5,10.75363V7.03023a2,2,0,0,0-1.40372-1.90905l-6.5-2.03023a2,2,0,0,0-1.19254,0l-6.5,2.03017A2,2,0,0,0,3.5,7.03017Z" fill="none" stroke="#323232" stroke-linecap="round" stroke-linejoin="round" stroke-width="1.5"/></svg>