<svg id="Layer_3" data-name="Layer 3" xmlns="http://www.w3.org/2000/svg" viewBox="0 0 24 24"><path d="M13,21H5a2,2,0,0,1-2-2V5A2,2,0,0,1,5,3H18a2,2,0,0,1,2,2v8" fill="none" stroke="#323232" stroke-linecap="round" stroke-linejoin="round" stroke-width="1.5"/><rect x="7.00001" y="7" width="3" height="3" rx="1" stroke-width="1.5" stroke="#323232" stroke-linecap="round" stroke-linejoin="round" fill="none"/><line x1="13.00001" y1="7" x2="16.00001" y2="7" fill="none" stroke="#323232" stroke-linecap="round" stroke-linejoin="round" stroke-width="1.5"/><line x1="13.00001" y1="10" x2="16.00001" y2="10" fill="none" stroke="#323232" stroke-linecap="round" stroke-linejoin="round" stroke-width="1.5"/><line x1="7.00001" y1="13" x2="16.00001" y2="13" fill="none" stroke="#323232" stroke-linecap="round" stroke-linejoin="round" stroke-width="1.5"/><line x1="7.00001" y1="16" x2="11.00001" y2="16" fill="none" stroke="#323232" stroke-linecap="round" stroke-linejoin="round" stroke-width="1.5"/><path d="M17.8303,16.51725,18,16.68956l.17541-.18541a1.59479,1.59479,0,0,1,2.305-.02314l.03566.03621a1.70808,1.70808,0,0,1,0,2.38246L18.76178,20.681a1.06893,1.06893,0,0,1-1.52357,0L15.484,18.89972a1.70809,1.70809,0,0,1,0-2.38247h0A1.64617,1.64617,0,0,1,17.8303,16.51725Z" fill="none" stroke="#323232" stroke-linecap="round" stroke-linejoin="round" stroke-width="1.5"/><path d="M0,0,0,24l24,0L24,0Z" fill="none"/></svg>