<svg id="Layer_3" data-name="Layer 3" xmlns="http://www.w3.org/2000/svg" viewBox="0 0 24 24"><path d="M8,8H6.70819a2.9996,2.9996,0,0,0-1.34161.31671l-.58521.2926A2.99968,2.99968,0,0,0,3.5506,9.749L2,12.33331" fill="none" stroke="#323232" stroke-linecap="round" stroke-linejoin="round" stroke-width="1.5"/><line x1="17.5" y1="6" x2="17.5" y2="9" fill="none" stroke="#323232" stroke-linecap="round" stroke-linejoin="round" stroke-width="1.5"/><line x1="19" y1="7.5" x2="16" y2="7.5" fill="none" stroke="#323232" stroke-linecap="round" stroke-linejoin="round" stroke-width="1.5"/><line x1="19" y1="13" x2="17" y2="13" fill="none" stroke="#323232" stroke-linecap="round" stroke-linejoin="round" stroke-width="1.5"/><line x1="19" y1="16" x2="15" y2="16" fill="none" stroke="#323232" stroke-linecap="round" stroke-linejoin="round" stroke-width="1.5"/><path d="M3,21l5.76187-2.082a4,4,0,0,0,1.96854-1.54267l2.99287-4.48795a1.64575,1.64575,0,0,0-.20549-2.07681h0a1.64575,1.64575,0,0,0-2.3272-.00023L9,13H7" fill="none" stroke="#323232" stroke-linecap="round" stroke-linejoin="round" stroke-width="1.5"/><path d="M8,19.19328V19.5A1.5,1.5,0,0,0,9.5,21h11A1.5,1.5,0,0,0,22,19.5V4.5A1.5,1.5,0,0,0,20.5,3H9.5A1.5,1.5,0,0,0,8,4.5V13" fill="none" stroke="#323232" stroke-linecap="round" stroke-linejoin="round" stroke-width="1.5"/><rect width="24" height="24" fill="none"/></svg>