<?xml version="1.0" encoding="UTF-8"?><svg version="1.1" viewBox="0 0 24 24" xmlns="http://www.w3.org/2000/svg" xmlns:xlink="http://www.w3.org/1999/xlink"><!--Generated by IJSVG (https://github.com/iconjar/IJSVG)--><g fill="none"><path d="M0,0h24v24h-24Z"></path><path stroke="#323232" stroke-linecap="round" stroke-linejoin="round" stroke-width="1.5" d="M14.4749,11.0251c1.36684,1.36684 1.36684,3.58291 0,4.94975c-1.36684,1.36684 -3.58291,1.36684 -4.94975,1.77636e-15c-1.36684,-1.36684 -1.36684,-3.58291 -1.77636e-15,-4.94975c1.36684,-1.36684 3.58291,-1.36684 4.94975,-1.77636e-15"></path><path stroke="#323232" stroke-linecap="round" stroke-linejoin="round" stroke-width="1.5" d="M18.733,6h-13.466c-1.157,0 -2.073,0.979 -1.996,2.133l0.733,11c0.07,1.051 0.943,1.867 1.996,1.867h12c1.053,0 1.926,-0.816 1.996,-1.867l0.733,-11c0.077,-1.154 -0.839,-2.133 -1.996,-2.133Z"></path><path stroke="#323232" stroke-linecap="round" stroke-linejoin="round" stroke-width="1.5" d="M6,3h12"></path></g></svg>