<?xml version="1.0" encoding="UTF-8"?><svg version="1.1" viewBox="0 0 24 24" xmlns="http://www.w3.org/2000/svg" xmlns:xlink="http://www.w3.org/1999/xlink"><!--Generated by IJSVG (https://github.com/iconjar/IJSVG)--><g stroke-linecap="round" stroke-width="1.5" stroke="#323232" fill="none" stroke-linejoin="round"><path d="M12,20.986v0c-4.97,0 -9,-4.029 -9,-8.999v-0.001c0,-4.97 4.029,-8.999 8.999,-8.999h0.001c4.97,0 8.999,4.029 8.999,8.999v0c0.001,4.97 -4.029,9 -8.999,9Z"></path><path d="M16,10.182h-2.182v-2.182c0,-0.552 -0.448,-1 -1,-1h-1.636c-0.552,0 -1,0.448 -1,1v2.182h-2.182c-0.552,0 -1,0.448 -1,1v1.636c0,0.552 0.448,1 1,1h2.182v2.182c0,0.552 0.448,1 1,1h1.636c0.552,0 1,-0.448 1,-1v-2.182h2.182c0.552,0 1,-0.448 1,-1v-1.636c0,-0.552 -0.448,-1 -1,-1Z"></path></g><path fill="none" d="M0,0h24v24h-24v-24Z"></path></svg>