<?xml version="1.0" encoding="UTF-8"?><svg version="1.1" viewBox="0 0 24 24" xmlns="http://www.w3.org/2000/svg" xmlns:xlink="http://www.w3.org/1999/xlink"><g stroke-linecap="round" stroke-width="1.5" stroke="#323232" fill="none" stroke-linejoin="round"><path d="M14 21h-9l-8.74228e-08-3.55271e-15c-1.10457-4.82823e-08-2-.895431-2-2 0 0 0 0 0 0v-9l2.30926e-14 3.01992e-07c-1.66785e-07-1.10457.89543-2 2-2h13l-8.74228e-08 1.77636e-15c1.10457-4.82823e-08 2 .89543 2 2v3"></path><path d="M22 17v0 0c0 2.76142-2.23858 5-5 5v0l-2.18557e-07-7.10543e-15c-2.76142-1.20706e-07-5-2.23858-5-5 0 0 0-3.55271e-15 0-3.55271e-15v0l5.86198e-14 7.54979e-07c-4.16963e-07-2.76142 2.23858-5 5-5v0l-5.96244e-08 1.06581e-14c2.76142-4.49893e-07 5 2.23858 5 5 5.32907e-14 3.26915e-07 7.4607e-14 6.4662e-07 6.39488e-14 9.73536e-07Z"></path><path d="M16.353 15.2l2.372 1.4 -8.78631e-09-5.18195e-09c.217876.128498.290332.40929.161833.627167 -.0393797.0667707-.0950627.122454-.161833.161833l-2.372 1.4 2.67098e-08-1.5875e-08c-.21744.129236-.498476.0577321-.627711-.159708 -.0423045-.0711776-.064522-.152492-.0642887-.235292v-2.794l-1.66963e-09-1.21075e-07c-.00348779-.252922.198719-.460784.451641-.464272 .0845153-.00116546.167705.0210794.240359.0642718Z"></path><line x1="5.5" x2="17.5" y1="5" y2="5"></line><line x1="7.5" x2="16.5" y1="2" y2="2"></line></g><path fill="none" d="M0 0h24v24h-24Z"></path></svg>