<?xml version="1.0" encoding="UTF-8"?><svg version="1.1" viewBox="0 0 24 24" xmlns="http://www.w3.org/2000/svg" xmlns:xlink="http://www.w3.org/1999/xlink"><!--Generated by IJSVG (https://github.com/iconjar/IJSVG)--><g fill="none"><path d="M0,0h24v24h-24v-24Z"></path><path stroke="#323232" stroke-linecap="round" stroke-linejoin="round" stroke-width="1.5" d="M9,20h-5"></path><path stroke="#323232" stroke-linecap="round" stroke-linejoin="round" stroke-width="1.5" d="M9,15h-5"></path><path stroke="#323232" stroke-linecap="round" stroke-linejoin="round" stroke-width="1.5" d="M15.061,17.439c0.586,0.586 0.586,1.536 0,2.121c-0.586,0.586 -1.536,0.586 -2.121,0c-0.586,-0.586 -0.586,-1.536 0,-2.121c0.585,-0.585 1.535,-0.585 2.121,0"></path><path stroke="#323232" stroke-linecap="round" stroke-linejoin="round" stroke-width="1.5" d="M20.561,16.439c0.586,0.586 0.586,1.536 0,2.121c-0.586,0.586 -1.536,0.586 -2.121,0c-0.586,-0.586 -0.586,-1.536 0,-2.121c0.585,-0.585 1.535,-0.585 2.121,0"></path><path stroke="#323232" stroke-linecap="round" stroke-linejoin="round" stroke-width="1.5" d="M15.5,18.5v-4.823c0,-0.409 0.249,-0.777 0.629,-0.928l3.5,-1.4c0.657,-0.263 1.371,0.221 1.371,0.928v5.223"></path><path stroke="#323232" stroke-linecap="round" stroke-linejoin="round" stroke-width="1.5" d="M12,10h-8"></path><path stroke="#323232" stroke-linecap="round" stroke-linejoin="round" stroke-width="1.5" d="M20,5h-16"></path></g></svg>