<?xml version="1.0" encoding="UTF-8"?><svg version="1.1" viewBox="0 0 24 24" xmlns="http://www.w3.org/2000/svg" xmlns:xlink="http://www.w3.org/1999/xlink"><!--Generated by IJSVG (https://github.com/iconjar/IJSVG)--><g fill="none"><path d="M0,0h24v24h-24Z"></path><path stroke="#323232" stroke-linecap="round" stroke-linejoin="round" stroke-width="1.5" d="M16.362,12l3.577,2.018c0.488,0.275 0.655,0.897 0.37,1.38l-1.163,1.969c-0.277,0.469 -0.878,0.63 -1.352,0.362l-3.612,-2.038v4.309c0,0.552 -0.448,1 -1,1h-2.362c-0.552,0 -1,-0.448 -1,-1v-4.309l-3.612,2.038c-0.474,0.268 -1.075,0.107 -1.352,-0.362l-1.163,-1.969c-0.285,-0.482 -0.118,-1.104 0.37,-1.38l3.575,-2.018l-3.577,-2.018c-0.488,-0.275 -0.655,-0.897 -0.37,-1.38l1.163,-1.969c0.277,-0.469 0.878,-0.63 1.352,-0.362l3.612,2.038v-4.309c0,-0.552 0.448,-1 1,-1h2.362c0.552,0 1,0.448 1,1v4.309l3.612,-2.038c0.474,-0.268 1.075,-0.107 1.352,0.362l1.163,1.969c0.285,0.482 0.118,1.104 -0.37,1.38l-3.575,2.018Z"></path></g></svg>