<?xml version="1.0" encoding="UTF-8"?><svg version="1.1" viewBox="0 0 24 24" xmlns="http://www.w3.org/2000/svg" xmlns:xlink="http://www.w3.org/1999/xlink"><g stroke-linecap="round" stroke-width="1.5" stroke="#323232" fill="none" stroke-linejoin="round"><path d="M7.1907 10.6493l-4.89878 4.89879 -8.69776e-08 8.69764e-08c-.389223.389217-.389227 1.02027-9.73701e-06 1.40949 3.30363e-06 3.30368e-06 6.60728e-06 6.60733e-06 9.91096e-06 9.91096e-06l4.7505 4.7505 -2.02213e-08-2.02221e-08c.389204.38922 1.02024.389233 1.40946 2.82359e-05 9.39868e-06-9.39831e-06 1.87972e-05-1.87968e-05 2.81955e-05-2.81955e-05l13.2562-13.2562 1.05833e-08-1.05829e-08c.38922-.389204.389233-1.02024 2.81743e-05-1.40946 -9.39831e-06-9.39868e-06-1.87968e-05-1.87972e-05-2.81955e-05-2.81955e-05l-4.7505-4.7505 4.26217e-08 4.26234e-08c-.389204-.38922-1.02024-.389233-1.40946-2.82807e-05 -9.39868e-06 9.39831e-06-1.87972e-05 1.87968e-05-2.81955e-05 2.81955e-05l-4.89879 4.89878 -6.56027e-08 6.10983e-08c-.286511.266839-.380073.68207-.23569 1.046l2.913e-08 6.37299e-08c.377149.825118.0139981 1.79975-.81112 2.1769 -.433678.198228-.932091.198229-1.36577 2.99516e-06l-6.82937e-08-2.7095e-08c-.363933-.144388-.779169-.0508253-1.04601.23569Z"></path><line x1="12.1" x2="13.06" y1="5.74" y2="6.7"></line><line x1="14.22" x2="15.18" y1="3.62" y2="4.58"></line><line x1="5.74" x2="6.7" y1="12.1" y2="13.06"></line><line x1="3.62" x2="4.58" y1="14.22" y2="15.18"></line><polyline points="8.817,15.181 9.524,15.888 7.403,18.009 6.695,17.302"></polyline><polyline points="13.059,10.938 13.767,11.645 11.645,13.767 10.938,13.059"></polyline><polyline points="17.303,6.697 18.01,7.404 15.889,9.525 15.182,8.818"></polyline></g><path fill="none" d="M0 0h24v24h-24Z"></path></svg>