<?xml version="1.0" encoding="UTF-8"?><svg version="1.1" viewBox="0 0 24 24" xmlns="http://www.w3.org/2000/svg" xmlns:xlink="http://www.w3.org/1999/xlink"><g fill="none"><rect width="24" height="24"></rect><rect width="18" height="18" x="3" y="3" rx="2.7614" ry="0" stroke="#323232" stroke-linecap="round" stroke-linejoin="round" stroke-width="1.5"></rect><path stroke="#323232" stroke-linecap="round" stroke-linejoin="round" stroke-width="1.5" d="M9.5 9v0c0-.276142-.223858-.5-.5-.5 -.276142 0-.5.223858-.5.5 0 .276142.223858.5.5.5h-2.18557e-08c.276142 1.20706e-08.5-.223858.5-.5"></path><path stroke="#323232" stroke-linecap="round" stroke-linejoin="round" stroke-width="1.5" d="M15.5 9v0c0-.276142-.223858-.5-.5-.5 -.276142 0-.5.223858-.5.5 0 .276142.223858.5.5.5h-2.18557e-08c.276142 1.20706e-08.5-.223858.5-.5"></path><path stroke="#323232" stroke-linecap="round" stroke-linejoin="round" stroke-width="1.5" d="M9.5 15v0c0-.276142-.223858-.5-.5-.5 -.276142 0-.5.223858-.5.5 0 .276142.223858.5.5.5h-2.18557e-08c.276142 1.20706e-08.5-.223858.5-.5"></path><path stroke="#323232" stroke-linecap="round" stroke-linejoin="round" stroke-width="1.5" d="M15.5 15v0c0-.276142-.223858-.5-.5-.5 -.276142 0-.5.223858-.5.5 0 .276142.223858.5.5.5h-2.18557e-08c.276142 1.20706e-08.5-.223858.5-.5"></path><rect width="24" height="24"></rect></g></svg>