<?xml version="1.0" encoding="UTF-8"?><svg version="1.1" viewBox="0 0 24 24" xmlns="http://www.w3.org/2000/svg" xmlns:xlink="http://www.w3.org/1999/xlink"><g stroke-linecap="round" stroke-width="1.5" stroke="#323232" fill="none" stroke-linejoin="round"><path d="M11.625 12.001c0 .207.168.375.375.373 .207 0 .375-.168.375-.375 0-.207-.168-.375-.375-.375 -.207.001-.375.169-.375.377"></path><path d="M11.625 8.001c0 .207.168.375.375.373 .207 0 .375-.168.375-.375 0-.207-.168-.375-.375-.375 -.207.001-.375.169-.375.377"></path><path d="M11.625 16.001c0 .207.168.375.375.373 .207 0 .375-.168.375-.375 0-.207-.168-.375-.375-.375 -.207.001-.375.169-.375.377"></path><path d="M21 7v10c0 2.209-1.791 4-4 4h-10c-2.209 0-4-1.791-4-4v-10c0-2.209 1.791-4 4-4h10c2.209 0 4 1.791 4 4Z"></path></g><path fill="none" d="M0 24v-24h24v24h-24Z"></path></svg>