<?xml version="1.0" encoding="UTF-8"?><svg version="1.1" viewBox="0 0 24 24" xmlns="http://www.w3.org/2000/svg" xmlns:xlink="http://www.w3.org/1999/xlink"><g stroke-linecap="round" stroke-width="1.5" stroke="#323232" fill="none" stroke-linejoin="round"><line x1="11" x2="16" y1="8.52" y2="8.52"></line><line x1="16" x2="11" y1="12" y2="12"></line><line x1="11" x2="16" y1="15.48" y2="15.48"></line><circle cx="12" cy="12" r="9"></circle><path d="M8.186 8.274l4.6214e-09-1.84865e-11c-.13807.000552282-.24955.112928-.248998.250998 .000552282.13807.112928.24955.250998.248998 .137679-.000550718.248999-.112316.249-.249996l7.20102e-09-1.7803e-06c.000555747-.137518-.110474-.249448-.247992-.250004 -.00100337-4.05487e-06-.00200675-2.04494e-06-.00301009 6.02968e-06"></path><path d="M8.186 11.75l4.6214e-09-1.84848e-11c-.13807.000552282-.24955.112928-.248998.250998 .000552282.13807.112928.24955.250998.248998 .137679-.000550718.248999-.112316.249-.249996l7.20102e-09-1.7803e-06c.000555747-.137518-.110474-.249448-.247992-.250004 -.00100337-4.05487e-06-.00200675-2.04494e-06-.00301009 6.02968e-06"></path><path d="M8.186 15.226l4.6214e-09-1.84848e-11c-.13807.000552282-.24955.112928-.248998.250998 .000552282.13807.112928.24955.250998.248998 .137679-.000550718.248999-.112316.249-.249996l7.20102e-09-1.7803e-06c.000555747-.137518-.110474-.249448-.247992-.250004 -.00100337-4.05487e-06-.00200675-2.04494e-06-.00301009 6.02968e-06"></path></g><path fill="none" d="M0 0h24v24h-24Z"></path></svg>