<svg id="Layer_3" data-name="Layer 3" xmlns="http://www.w3.org/2000/svg" viewBox="0 0 24 24"><path d="M15.5,10.75H14.25a1,1,0,0,1-1-1V8.5a1,1,0,0,1,1-1H15.5a1,1,0,0,1,1,1V9.75A1,1,0,0,1,15.5,10.75Z" fill="none" stroke="#323232" stroke-linecap="round" stroke-linejoin="round" stroke-width="1.5"/><path d="M9.75,16.5H8.5a1,1,0,0,1-1-1V14.25a1,1,0,0,1,1-1H9.75a1,1,0,0,1,1,1V15.5A1,1,0,0,1,9.75,16.5Z" fill="none" stroke="#323232" stroke-linecap="round" stroke-linejoin="round" stroke-width="1.5"/><path d="M12,21a9,9,0,1,0-9-9A9,9,0,0,0,12,21Z" fill="none" stroke="#323232" stroke-linecap="round" stroke-linejoin="round" stroke-width="1.5"/><path d="M10.75,8.5V9.75a1,1,0,0,1-1,1H8.5a1,1,0,0,1-1-1V8.5a1,1,0,0,1,1-1H9.75A1,1,0,0,1,10.75,8.5Z" fill="none" stroke="#323232" stroke-linecap="round" stroke-linejoin="round" stroke-width="1.5"/><path d="M16.5,14.25V15.5a1,1,0,0,1-1,1H14.25a1,1,0,0,1-1-1V14.25a1,1,0,0,1,1-1H15.5A1,1,0,0,1,16.5,14.25Z" fill="none" stroke="#323232" stroke-linecap="round" stroke-linejoin="round" stroke-width="1.5"/><path d="M0,0H24V24H0Z" fill="none"/></svg>