<?xml version="1.0" encoding="UTF-8"?><svg version="1.1" viewBox="0 0 24 24" xmlns="http://www.w3.org/2000/svg" xmlns:xlink="http://www.w3.org/1999/xlink"><g stroke-linecap="round" stroke-width="1.5" stroke="#323232" fill="none" stroke-linejoin="round"><line x1="10.12" x2="17" y1="8.52" y2="8.52"></line><line x1="17" x2="10.12" y1="12" y2="12"></line><line x1="10.12" x2="17" y1="15.48" y2="15.48"></line><rect width="18" height="18" x="3" y="3" rx="2.7614" ry="0"></rect><path d="M7.311 8.274h-1.09278e-08c-.138071 6.03528e-09-.25.111929-.25.25 6.03528e-09.138071.111929.25.25.25h-1.09278e-08c.138071 6.03528e-09.25-.111929.25-.25 6.03528e-09-.138071-.111929-.25-.25-.25"></path><path d="M7.311 11.75h-1.09278e-08c-.138071 6.03528e-09-.25.111929-.25.25 6.03528e-09.138071.111929.25.25.25h-1.09278e-08c.138071 6.03528e-09.25-.111929.25-.25 6.03528e-09-.138071-.111929-.25-.25-.25"></path><path d="M7.311 15.226h-1.09278e-08c-.138071 6.03528e-09-.25.111929-.25.25 6.03528e-09.138071.111929.25.25.25h-1.09278e-08c.138071 6.03528e-09.25-.111929.25-.25 6.03528e-09-.138071-.111929-.25-.25-.25"></path></g><path fill="none" d="M0 0h24v24h-24Z"></path></svg>