<?xml version="1.0" encoding="UTF-8"?><svg version="1.1" viewBox="0 0 24 24" xmlns="http://www.w3.org/2000/svg" xmlns:xlink="http://www.w3.org/1999/xlink"><g fill="none"><path d="M0 0h24v24h-24Z"></path><path stroke="#323232" stroke-linecap="round" stroke-linejoin="round" stroke-width="1.5" d="M11 5h10"></path><path stroke="#323232" stroke-linecap="round" stroke-linejoin="round" stroke-width="1.5" d="M3.5 3.5l3 3"></path><path stroke="#323232" stroke-linecap="round" stroke-linejoin="round" stroke-width="1.5" d="M3.5 6.5l3-3"></path><path stroke="#323232" stroke-linecap="round" stroke-linejoin="round" stroke-width="1.5" d="M11 12h10"></path><path stroke="#323232" stroke-linecap="round" stroke-linejoin="round" stroke-width="1.5" d="M11 19h10"></path><path stroke="#323232" stroke-linecap="round" stroke-linejoin="round" stroke-width="1.5" d="M6 14h-2l-4.37114e-08-1.77636e-15c-.552285-2.41411e-08-1-.447715-1-1 0 0 0 0 0 0v-2l1.15463e-14 1.50996e-07c-8.33927e-08-.552285.447715-1 1-1h2l-4.37114e-08 1.77636e-15c.552285-2.41411e-08 1 .447715 1 1v2l1.77636e-15 4.37114e-08c0 .552285-.447715 1-1 1 -1.35461e-08 0-3.01653e-08 0-4.37114e-08-1.77636e-15Z"></path><path stroke="#323232" stroke-linecap="round" stroke-linejoin="round" stroke-width="1.5" d="M6 21h-2 -4.37114e-08c-.552285-2.41411e-08-1-.447715-1-1 0 0 0-3.55271e-15 0-3.55271e-15v-2l1.15463e-14 1.50996e-07c-8.33927e-08-.552285.447715-1 1-1h2 -4.37114e-08c.552285-2.41411e-08 1 .447715 1 1v2l1.77636e-15 4.37114e-08c0 .552285-.447715 1-1 1 -1.35461e-08 0-3.01653e-08 0-4.37114e-08 0Z"></path></g></svg>