<?xml version="1.0" encoding="UTF-8"?><svg version="1.1" viewBox="0 0 24 24" xmlns="http://www.w3.org/2000/svg" xmlns:xlink="http://www.w3.org/1999/xlink"><!--Generated by IJSVG (https://github.com/iconjar/IJSVG)--><g stroke-linecap="round" stroke-width="1.5" stroke="#323232" fill="none" stroke-linejoin="round"><path d="M19.286,21h-14.572c-0.946,0 -1.714,-0.768 -1.714,-1.714v-14.572c0,-0.946 0.768,-1.714 1.714,-1.714h14.571c0.947,0 1.715,0.768 1.715,1.714v14.571c0,0.947 -0.768,1.715 -1.714,1.715Z"></path><path d="M12,10.67v-2.67"></path><path d="M10.5,8h3"></path><path d="M18.22,16h-12.44"></path><path d="M17.464,16v-0.444c-0.304,-2.75 -2.633,-4.889 -5.464,-4.889c-2.831,0 -5.16,2.139 -5.464,4.889v0.444"></path></g><path fill="none" d="M0,0h24v24h-24Z"></path></svg>