<svg id="Layer_3" data-name="Layer 3" xmlns="http://www.w3.org/2000/svg" viewBox="0 0 24 24"><line x1="7.00001" y1="13.00001" x2="14.00001" y2="13.00001" fill="none" stroke="#323232" stroke-linecap="round" stroke-linejoin="round" stroke-width="1.5"/><path d="M11,3H6A3,3,0,0,0,3,6v9a3,3,0,0,0,3,3H8.007v2.4429a.5561.5561,0,0,0,.90349.43424L12.507,18H18a3,3,0,0,0,3-3V13" fill="none" stroke="#323232" stroke-linecap="round" stroke-linejoin="round" stroke-width="1.5"/><line x1="7.00001" y1="9.00001" x2="10.00001" y2="9.00001" fill="none" stroke="#323232" stroke-linecap="round" stroke-linejoin="round" stroke-width="1.5"/><path d="M22,6.97035a.8.8,0,0,1-.8.8H19.6v1.6a.8.8,0,0,1-.8.8H17.2a.8.8,0,0,1-.8-.8v-1.6H14.8a.8.8,0,0,1-.8-.8v-1.6a.8.8,0,0,1,.8-.8h1.6v-1.6a.8.8,0,0,1,.8-.8h1.6a.8.8,0,0,1,.8.8v1.6h1.6a.8.8,0,0,1,.8.8Z" fill="none" stroke="#323232" stroke-linecap="round" stroke-linejoin="round" stroke-width="1.5"/><path d="M0,0H24V24H0Z" fill="none"/></svg>