<svg width="32" height="32" viewBox="0 0 32 32" fill="none" xmlns="http://www.w3.org/2000/svg">
<path fill-rule="evenodd" clip-rule="evenodd" d="M8 3H24C26.7614 3 29 5.23858 29 8V20C29 22.7614 26.7614 25 24 25H10.344L5.6945 28.6441C5.24279 28.998 4.64501 29.092 4.11208 28.9038L3.93712 28.8306C3.36385 28.5515 3 27.9698 3 27.3322V8C3 5.23858 5.23858 3 8 3ZM24 5H8C6.34315 5 5 6.34315 5 8V26.6467L9.38322 23.2129C9.52403 23.1025 9.69117 23.0325 9.86689 23.0089L10 23H24C25.6569 23 27 21.6569 27 20V8C27 6.34315 25.6569 5 24 5Z" fill="#07082F"/>
<path d="M19.9596 13.9528C20.3146 13.5978 20.8702 13.5655 21.2617 13.856L21.3738 13.9528C21.7349 14.3139 21.7677 14.87 21.4773 15.2615L21.3805 15.3737C21.0194 15.7348 20.4633 15.7676 20.0718 15.4772L19.9596 15.3804C19.5985 15.0193 19.5657 14.4632 19.8561 14.0716L19.9596 13.9528Z" fill="#07082F"/>
<path d="M15.2929 13.9528C15.6479 13.5978 16.2034 13.5655 16.5949 13.856L16.7071 13.9528C17.0682 14.3139 17.101 14.87 16.8106 15.2615L16.7138 15.3737C16.3527 15.7348 15.7966 15.7676 15.405 15.4772L15.2929 15.3804C14.9318 15.0193 14.899 14.4632 15.1894 14.0716L15.2929 13.9528Z" fill="#07082F"/>
<path d="M10.6261 13.9528C10.9811 13.5978 11.5367 13.5655 11.9282 13.856L12.0403 13.9528C12.4014 14.3139 12.4342 14.87 12.1438 15.2615L12.047 15.3737C11.6859 15.7348 11.1298 15.7676 10.7383 15.4772L10.6261 15.3804C10.265 15.0193 10.2322 14.4632 10.5226 14.0716L10.6261 13.9528Z" fill="#07082F"/>
</svg>
