<svg id="Layer_3" data-name="Layer 3" xmlns="http://www.w3.org/2000/svg" viewBox="0 0 24 24"><rect width="24" height="24" fill="none"/><path d="M24,0H0V24H24Z" fill="none"/><path d="M21,17v2a2,2,0,0,1-2,2H16" fill="none" stroke="#323232" stroke-linecap="round" stroke-linejoin="round" stroke-width="1.5"/><path d="M3,8V5A2,2,0,0,1,5,3H7" fill="none" stroke="#323232" stroke-linecap="round" stroke-linejoin="round" stroke-width="1.5"/><path d="M10,8V5a2,2,0,0,1,2-2h7a2,2,0,0,1,2,2v7a2,2,0,0,1-2,2H16" fill="none" stroke="#323232" stroke-linecap="round" stroke-linejoin="round" stroke-width="1.5"/><line x1="13" y1="7" x2="18" y2="7" fill="none" stroke="#323232" stroke-linecap="round" stroke-linejoin="round" stroke-width="1.5"/><line x1="15" y1="10" x2="18" y2="10" fill="none" stroke="#323232" stroke-linecap="round" stroke-linejoin="round" stroke-width="1.5"/><path d="M13,12.81818v4.54549a1.81818,1.81818,0,0,1-1.81818,1.81818h-2.334L6.74156,20.89706A.45454.45454,0,0,1,6,20.5446V19.18185H4.81818A1.81818,1.81818,0,0,1,3,17.36367V12.81818A1.81818,1.81818,0,0,1,4.81818,11h6.36364A1.81818,1.81818,0,0,1,13,12.81818Z" fill="none" stroke="#323232" stroke-linecap="round" stroke-linejoin="round" stroke-width="1.5"/></svg>