<svg xmlns="http://www.w3.org/2000/svg" viewBox="0 0 24 24"><g id="Layer_2" data-name="Layer 2"><path d="M13.71106,9.23451l-.94557-.94559a.98651.98651,0,0,0-1.39516,0l-3.14191,3.1419A.77993.77993,0,0,0,8,11.98227V13.75a.25.25,0,0,0,.25.25h1.76738a.78061.78061,0,0,0,.552-.22862l3.14171-3.14172A.98652.98652,0,0,0,13.71106,9.23451Z" fill="none" stroke="#323232" stroke-linecap="round" stroke-linejoin="round" stroke-width="1.5"/><line x1="16" y1="14" x2="14" y2="14" fill="none" stroke="#323232" stroke-linecap="round" stroke-linejoin="round" stroke-width="1.5"/><path d="M12.5,18,8.80839,20.89264A.5.5,0,0,1,8,20.49908V18H6a3,3,0,0,1-3-3V6A3,3,0,0,1,6,3H18a3,3,0,0,1,3,3v9a3,3,0,0,1-3,3Z" fill="none" stroke="#323232" stroke-linecap="round" stroke-linejoin="round" stroke-width="1.5"/><path d="M0,24V0H24V24Z" fill="none"/></g></svg>