<svg id="Layer_3" data-name="Layer 3" xmlns="http://www.w3.org/2000/svg" viewBox="0 0 24 24"><path d="M0,0H24V24H0Z" fill="none"/><line x1="12.00001" y1="12" x2="16.00001" y2="8" fill="none" stroke="#323232" stroke-linecap="round" stroke-linejoin="round" stroke-width="1.5"/><path d="M21,6v9a3,3,0,0,1-3,3H12.5L8.80838,20.89265A.5.5,0,0,1,8,20.49908V18H6a3,3,0,0,1-3-3V6A3,3,0,0,1,6,3H18A3,3,0,0,1,21,6Z" fill="none" stroke="#323232" stroke-linecap="round" stroke-linejoin="round" stroke-width="1.5"/><polyline points="12 8 16 8 16 12" fill="none" stroke="#323232" stroke-linecap="round" stroke-linejoin="round" stroke-width="1.5"/></svg>