<svg id="Layer_3" data-name="Layer 3" xmlns="http://www.w3.org/2000/svg" viewBox="0 0 24 24"><path d="M0,0H24V24H0Z" fill="none"/><path d="M9,14.0006,7,15.9994" fill="none" stroke="#323232" stroke-linecap="round" stroke-linejoin="round" stroke-width="1.5"/><path d="M9,14.0006,7,15.9994" fill="none" stroke="#323232" stroke-linecap="round" stroke-linejoin="round" stroke-width="1.5"/><path d="M7.0006,14l1.9988,2" fill="none" stroke="#323232" stroke-linecap="round" stroke-linejoin="round" stroke-width="1.5"/><path d="M14,15v2a3,3,0,0,1-3,3H8.13268l-2.317,1.88676A.5.5,0,0,1,5,21.499V20H5a3,3,0,0,1-3-3V13a3,3,0,0,1,3-3H7" fill="none" stroke="#323232" stroke-linecap="round" stroke-linejoin="round" stroke-width="1.5"/><path d="M22,5V9a3,3,0,0,1-3,3h0v1.49905a.5.5,0,0,1-.81573.38771L15.86732,12H13a3,3,0,0,1-3-3V5a3,3,0,0,1,3-3h6A3,3,0,0,1,22,5Z" fill="none" stroke="#323232" stroke-linecap="round" stroke-linejoin="round" stroke-width="1.5"/><path d="M16,6.5V5.25" fill="none" stroke="#323232" stroke-linecap="round" stroke-linejoin="round" stroke-width="1.5"/><path d="M15.99558,8.65029a.05.05,0,1,0,.04436.05506v-.0107a.05.05,0,0,0-.04436-.04436" fill="none" stroke="#323232" stroke-linecap="round" stroke-linejoin="round" stroke-width="1.5"/></svg>