<svg id="Layer_3" data-name="Layer 3" xmlns="http://www.w3.org/2000/svg" viewBox="0 0 24 24"><rect width="24" height="24" fill="none"/><path d="M12,7.93421a7.04515,7.04515,0,0,1,3.24342-.93292A.70938.70938,0,0,1,16,7.71368v4.63025a.71816.71816,0,0,1-.682.70785A6.56908,6.56908,0,0,0,12,14" fill="none" stroke="#323232" stroke-linecap="round" stroke-linejoin="round" stroke-width="1.5"/><path d="M12,7.93421a7.04515,7.04515,0,0,0-3.24342-.93292A.70938.70938,0,0,0,8,7.71368v4.63025a.71816.71816,0,0,0,.682.70785A6.56908,6.56908,0,0,1,12,14" fill="none" stroke="#323232" stroke-linecap="round" stroke-linejoin="round" stroke-width="1.5"/><line x1="12" y1="7.93421" x2="12" y2="14" fill="none" stroke="#323232" stroke-linecap="round" stroke-linejoin="round" stroke-width="1.5"/><path d="M12.507,18H18a3,3,0,0,0,3-3V6a3,3,0,0,0-3-3H6A3,3,0,0,0,3,6v9a3,3,0,0,0,3,3H8.007v2.4429a.5561.5561,0,0,0,.90349.43424Z" fill="none" stroke="#323232" stroke-linecap="round" stroke-linejoin="round" stroke-width="1.5"/></svg>