<?xml version="1.0" encoding="UTF-8"?><svg version="1.1" viewBox="0 0 24 24" xmlns="http://www.w3.org/2000/svg" xmlns:xlink="http://www.w3.org/1999/xlink"><!--Generated by IJSVG (https://github.com/iconjar/IJSVG)--><g fill="none"><path d="M0,0h24v24h-24Z"></path><path fill-rule="evenodd" stroke="#323232" stroke-linecap="round" stroke-linejoin="round" stroke-width="1.5" d="M12,20.996c-5.055,0 -9.137,-4.168 -8.996,-9.255c0.13,-4.696 4.045,-8.611 8.741,-8.741c5.087,-0.141 9.255,3.941 9.255,8.996c0,1.357 -0.301,2.644 -0.838,3.799l1.158,5.543l-5.533,-1.175c-1.152,0.535 -2.435,0.833 -3.787,0.833Z"></path><path stroke="#323232" stroke-linecap="round" stroke-linejoin="round" stroke-width="1.5" d="M12.1768,11.8232c0.0976311,0.0976311 0.0976311,0.255922 0,0.353553c-0.0976311,0.0976311 -0.255922,0.0976311 -0.353553,0c-0.0976311,-0.0976311 -0.0976311,-0.255922 0,-0.353553c0.0976311,-0.0976311 0.255922,-0.0976311 0.353553,0"></path><path stroke="#323232" stroke-linecap="round" stroke-linejoin="round" stroke-width="1.5" d="M16.1768,11.8232c0.0976311,0.0976311 0.0976311,0.255922 0,0.353553c-0.0976311,0.0976311 -0.255922,0.0976311 -0.353553,0c-0.0976311,-0.0976311 -0.0976311,-0.255922 0,-0.353553c0.0976311,-0.0976311 0.255922,-0.0976311 0.353553,0"></path><path stroke="#323232" stroke-linecap="round" stroke-linejoin="round" stroke-width="1.5" d="M8.17678,11.8232c0.0976311,0.0976311 0.0976311,0.255922 0,0.353553c-0.0976311,0.0976311 -0.255922,0.0976311 -0.353553,0c-0.0976311,-0.0976311 -0.0976311,-0.255922 0,-0.353553c0.0976311,-0.0976311 0.255922,-0.0976311 0.353553,0"></path></g></svg>