<svg id="Layer_3" data-name="Layer 3" xmlns="http://www.w3.org/2000/svg" viewBox="0 0 24 24"><path d="M0,0H24V24H0Z" fill="none"/><path d="M12.507,18H18a3,3,0,0,0,3-3V6a3,3,0,0,0-3-3H6A3,3,0,0,0,3,6v9a3,3,0,0,0,3,3H8.007v2.4429a.5561.5561,0,0,0,.90349.43424Z" fill="none" stroke="#323232" stroke-linecap="round" stroke-linejoin="round" stroke-width="1.5"/><path d="M15.75,10A.75.75,0,0,0,15,9.25H13.5V7.75A.75.75,0,0,0,12.75,7h-1.5a.75.75,0,0,0-.75.75v1.5H9a.75.75,0,0,0-.75.75v1.5a.75.75,0,0,0,.75.75h1.5v1.5a.75.75,0,0,0,.75.75h1.5a.75.75,0,0,0,.75-.75v-1.5H15a.75.75,0,0,0,.75-.75Z" fill="none" stroke="#323232" stroke-linecap="round" stroke-linejoin="round" stroke-width="1.5"/></svg>