<svg id="Layer_3" data-name="Layer 3" xmlns="http://www.w3.org/2000/svg" viewBox="0 0 24 24"><path d="M0,0H24V24H0Z" fill="none"/><path d="M14.21532,6.23789a.875.875,0,0,1,1.56936,0l.44519.90248a.87494.87494,0,0,0,.65883.47878l.99587.14475a.875.875,0,0,1,.48508,1.49221l-.72091.70316a.875.875,0,0,0-.25144.77429l.17011.99162a.875.875,0,0,1-1.26942.92243l-.89093-.46825a.875.875,0,0,0-.81412,0l-.89093.46825a.875.875,0,0,1-1.26942-.92243l.17011-.99162a.875.875,0,0,0-.25144-.77429l-.72091-.70316a.875.875,0,0,1,.48508-1.49221l.99587-.14475a.87494.87494,0,0,0,.65883-.47878Z" fill="none" stroke="#323232" stroke-linecap="round" stroke-linejoin="round" stroke-width="1.5"/><path d="M15.86731,16H11a3,3,0,0,1-3-3V6a3,3,0,0,1,3-3h8a3,3,0,0,1,3,3v7a3,3,0,0,1-3,3h0v1.49905a.5.5,0,0,1-.81572.38771Z" fill="none" stroke="#323232" stroke-linecap="round" stroke-linejoin="round" stroke-width="1.5"/><path d="M8,10H5a3,3,0,0,0-3,3v4a3,3,0,0,0,3,3H5v1.49905a.5.5,0,0,0,.81572.38771L8.13269,20H11a3,3,0,0,0,3-3V16" fill="none" stroke="#323232" stroke-linecap="round" stroke-linejoin="round" stroke-width="1.5"/></svg>