<?xml version="1.0" encoding="UTF-8"?><svg version="1.1" viewBox="0 0 24 24" xmlns="http://www.w3.org/2000/svg" xmlns:xlink="http://www.w3.org/1999/xlink"><g fill="none"><path d="M24 24.006h-24v-24h24v24Z"></path><path stroke="#323232" stroke-linecap="round" stroke-linejoin="round" stroke-width="1.5" d="M9.188 18.006l1.912 2.55c.45.6 1.35.6 1.8 0l1.912-2.55h3.188c1.657 0 3-1.343 3-3v-9c0-1.657-1.343-3-3-3h-12c-1.657 0-3 1.343-3 3v9c0 1.657 1.343 3 3 3 0 0 3.188 0 3.188 0Z"></path><path stroke="#323232" stroke-linecap="round" stroke-linejoin="round" stroke-width="1.5" d="M12 7.862c.357-.403.975-.856 1.916-.856 1.647 0 2.751 1.489 2.751 2.877 0 2.9-3.744 5.123-4.667 5.123 -.923 0-4.667-2.223-4.667-5.123 0-1.388 1.104-2.877 2.751-2.877 .941 8.88178e-16 1.559.453 1.916.856Z"></path></g></svg>