<svg id="Layer_3" data-name="Layer 3" xmlns="http://www.w3.org/2000/svg" viewBox="0 0 24 24"><path d="M0,0H24V24H0Z" fill="none"/><path d="M11.10322,7.05758a1,1,0,0,1,1.79356,0L13.40557,8.089a.99993.99993,0,0,0,.75295.54717l1.13813.16542A1,1,0,0,1,15.851,10.507l-.8239.80362a.99994.99994,0,0,0-.28735.88489l.1944,1.13328A1,1,0,0,1,13.48341,14.383l-1.0182-.53514a.99992.99992,0,0,0-.93042,0l-1.0182.53514a1,1,0,0,1-1.45077-1.05421l.1944-1.13328a.99994.99994,0,0,0-.28735-.88489L8.149,10.507a1,1,0,0,1,.55438-1.70539l1.13813-.16542a.99993.99993,0,0,0,.75295-.54717Z" fill="none" stroke="#323232" stroke-linecap="round" stroke-linejoin="round" stroke-width="1.5"/><path d="M18,3H6A3,3,0,0,0,3,6v9a3,3,0,0,0,3,3H8.007v2.4429a.5561.5561,0,0,0,.90349.43424L12.507,18H18a3,3,0,0,0,3-3V6A3,3,0,0,0,18,3Z" fill="none" stroke="#323232" stroke-linecap="round" stroke-linejoin="round" stroke-width="1.5"/></svg>