<svg id="Layer_3" data-name="Layer 3" xmlns="http://www.w3.org/2000/svg" viewBox="0 0 24 24"><path d="M10.27183,8.22729A1.6922,1.6922,0,0,1,11.87721,6h.24558a1.6922,1.6922,0,0,1,1.60538,2.22729" fill="none" stroke="#323232" stroke-linecap="round" stroke-linejoin="round" stroke-width="1.5"/><path d="M10.27183,15.77266A1.69224,1.69224,0,0,0,11.87721,18h.24558a1.69224,1.69224,0,0,0,1.60538-2.22734" fill="none" stroke="#323232" stroke-linecap="round" stroke-linejoin="round" stroke-width="1.5"/><path d="M9.59684,8.617a1.69217,1.69217,0,0,0-2.73159.2766l-.12279.2127a1.69219,1.69219,0,0,0,1.12621,2.50394" fill="none" stroke="#323232" stroke-linecap="round" stroke-linejoin="round" stroke-width="1.5"/><path d="M16.13133,12.38969a1.69219,1.69219,0,0,1,1.12621,2.50394l-.12279.2127a1.69221,1.69221,0,0,1-2.73159.27664" fill="none" stroke="#323232" stroke-linecap="round" stroke-linejoin="round" stroke-width="1.5"/><path d="M7.86867,12.38969a1.69219,1.69219,0,0,0-1.12621,2.50394l.12279.2127a1.69221,1.69221,0,0,0,2.73159.27664" fill="none" stroke="#323232" stroke-linecap="round" stroke-linejoin="round" stroke-width="1.5"/><path d="M16.13133,11.61027a1.69219,1.69219,0,0,0,1.12621-2.50394l-.12279-.2127a1.69217,1.69217,0,0,0-2.73159-.2766" fill="none" stroke="#323232" stroke-linecap="round" stroke-linejoin="round" stroke-width="1.5"/><path d="M7.86867,12.38967l.81355-.16649a.22785.22785,0,0,0,0-.44645l-.81354-.16646" fill="none" stroke="#323232" stroke-linecap="round" stroke-linejoin="round" stroke-width="1.5"/><path d="M16.13133,11.61029l-.81355.16649a.22784.22784,0,0,0,0,.44644l.81354.16647" fill="none" stroke="#323232" stroke-linecap="round" stroke-linejoin="round" stroke-width="1.5"/><path d="M10.27181,15.77266l.2626-.7878a.22785.22785,0,0,0-.38664-.22322l-.55094.62132" fill="none" stroke="#323232" stroke-linecap="round" stroke-linejoin="round" stroke-width="1.5"/><path d="M13.72819,8.2273l-.2626.78779a.22785.22785,0,0,0,.38664.22322l.55094-.62131" fill="none" stroke="#323232" stroke-linecap="round" stroke-linejoin="round" stroke-width="1.5"/><path d="M14.40315,15.383l-.551-.62131a.22785.22785,0,0,0-.38663.22323l.26261.78778" fill="none" stroke="#323232" stroke-linecap="round" stroke-linejoin="round" stroke-width="1.5"/><path d="M9.59685,8.617l.551.62131a.22785.22785,0,0,0,.38663-.22322l-.26261-.78779" fill="none" stroke="#323232" stroke-linecap="round" stroke-linejoin="round" stroke-width="1.5"/><rect x="3" y="3" width="18" height="18" rx="5" stroke-width="1.5" stroke="#323232" stroke-linecap="round" stroke-linejoin="round" fill="none"/><path d="M0,0H24V24H0Z" fill="none"/></svg>