<?xml version="1.0" encoding="UTF-8"?><svg version="1.1" viewBox="0 0 24 24" xmlns="http://www.w3.org/2000/svg" xmlns:xlink="http://www.w3.org/1999/xlink"><!--Generated by IJSVG (https://github.com/iconjar/IJSVG)--><defs><path d="M0,0h24v24h-24Z" id="a"></path></defs><g stroke-linecap="round" stroke-width="1.5" stroke="#323232" fill="none" stroke-linejoin="round"><path d="M18,16v0"></path><path d="M18,13v0"></path><path d="M3,17.068v-10.136c0,-1.067 0.865,-1.932 1.932,-1.932h14.136c1.067,0 1.932,0.865 1.932,1.932v10.136c0,1.067 -0.865,1.932 -1.932,1.932h-14.136c-1.067,0 -1.932,-0.865 -1.932,-1.932Z"></path><path d="M15,5v14"></path><path d="M12,10v4"></path><path d="M5,19v2"></path><path d="M19,19v2"></path></g><use fill="none" transform="matrix(4.49443e-11,1,-1,4.49443e-11,24,5.40693e-10)" xlink:href="#a"></use><use transform="matrix(4.49443e-11,1,-1,4.49443e-11,24,5.40693e-10)" xlink:href="#a" fill="none"></use></svg>