<svg id="Layer_3" data-name="Layer 3" xmlns="http://www.w3.org/2000/svg" viewBox="0 0 24 24"><rect width="24" height="24" fill="none"/><path d="M16.5,16.5l3,3" fill="none" stroke="#323232" stroke-linecap="round" stroke-linejoin="round" stroke-width="1.5"/><path d="M19.5,16.5l-3,3" fill="none" stroke="#323232" stroke-linecap="round" stroke-linejoin="round" stroke-width="1.5"/><path d="M13,21H8a5,5,0,0,1-5-5V8A5,5,0,0,1,8,3h8a5,5,0,0,1,5,5v5" fill="none" stroke="#323232" stroke-linecap="round" stroke-linejoin="round" stroke-width="1.5"/><path d="M12.91624,13.71426l-2.6305-2.6305a.9935.9935,0,0,1-.27121-.87028,3.26714,3.26714,0,1,1,3.772,3.772A.9935.9935,0,0,1,12.91624,13.71426Z" fill="none" stroke="#323232" stroke-linecap="round" stroke-linejoin="round" stroke-width="1.5"/><path d="M10.1662,10.93018,7.70227,14.18994a1.00006,1.00006,0,0,0,.09064,1.31018l.707.70691a1,1,0,0,0,1.31036.09046l3.25836-2.4646" fill="none" stroke="#323232" stroke-linecap="round" stroke-linejoin="round" stroke-width="1.5"/></svg>