<?xml version="1.0" encoding="UTF-8"?><svg version="1.1" viewBox="0 0 24 24" xmlns="http://www.w3.org/2000/svg" xmlns:xlink="http://www.w3.org/1999/xlink"><!--Generated by IJSVG (https://github.com/iconjar/IJSVG)--><g fill="none"><path d="M0,0h24v24h-24v-24Z"></path><path stroke="#323232" stroke-linecap="round" stroke-linejoin="round" stroke-width="1.5" d="M4,15h6"></path><path stroke="#323232" stroke-linecap="round" stroke-linejoin="round" stroke-width="1.5" d="M6.927,8.832l0.45,-0.722c0.34,-0.546 1.101,-0.633 1.556,-0.178l2.11,2.11c0.488,0.488 0.347,1.312 -0.276,1.609l-0.794,0.379c-0.382,0.183 -0.838,0.104 -1.138,-0.195l-1.767,-1.767c-0.329,-0.329 -0.387,-0.841 -0.141,-1.236Z"></path><path stroke="#323232" stroke-linecap="round" stroke-linejoin="round" stroke-width="1.5" d="M12,10h0.443c2.209,0 4,1.791 4,4c0,2.209 -1.791,4 -4,4c-1.862,0 -3.412,-1.278 -3.859,-3"></path><path stroke="#323232" stroke-linecap="round" stroke-linejoin="round" stroke-width="1.5" d="M14.642,7.358c2.788,0.922 4.801,3.545 4.801,6.642c0,3.866 -3.134,7 -7,7c-3.526,0 -6.434,-2.609 -6.92,-6"></path><path stroke="#323232" stroke-linecap="round" stroke-linejoin="round" stroke-width="1.5" d="M8.353,7.647l3.439,-3.439c0.391,-0.391 1.024,-0.391 1.414,0l1.586,1.586c0.391,0.391 0.391,1.024 0,1.414l-3.465,3.465"></path><path stroke="#323232" stroke-linecap="round" stroke-linejoin="round" stroke-width="1.5" d="M6,21h13"></path><path stroke="#323232" stroke-linecap="round" stroke-linejoin="round" stroke-width="1.5" d="M14.966,6.034l1.327,-1.327c0.391,-0.391 0.391,-1.024 0,-1.414l-0.586,-0.586c-0.391,-0.391 -1.024,-0.391 -1.414,0l-1.326,1.326"></path></g></svg>