<?xml version="1.0" encoding="UTF-8"?><svg version="1.1" viewBox="0 0 24 24" xmlns="http://www.w3.org/2000/svg" xmlns:xlink="http://www.w3.org/1999/xlink"><g stroke-linecap="round" stroke-width="1.5" stroke="#323232" fill="none" stroke-linejoin="round"><path d="M8.5 3h7l-4.37114e-08 8.88178e-16c.552285-2.41411e-08 1 .447715 1 1v2h-9v-2l1.15463e-14 1.50996e-07c-8.33927e-08-.552285.447715-1 1-1Z"></path><line x1="9" x2="15" y1="10" y2="10"></line><circle cx="12" cy="15" r="2"></circle><path d="M7.5 6l-1.6641 2.49615 -6.99214e-08 1.04882e-07c-.219023.328535-.3359.71455-.3359 1.1094v9.39445l2.30926e-14 3.01992e-07c1.66785e-07 1.10457.895431 2 2 2h9l-8.74228e-08-3.55271e-15c1.10457 4.82823e-08 2-.89543 2-2v-9.39445l4.05009e-13 1.27546e-06c0-.39485-.116876-.780865-.335899-1.1094l-1.6641-2.49615"></path></g><rect width="24" height="24" fill="none"></rect></svg>