<?xml version="1.0" encoding="UTF-8"?><svg version="1.1" viewBox="0 0 24 24" xmlns="http://www.w3.org/2000/svg" xmlns:xlink="http://www.w3.org/1999/xlink"><g fill="none"><path d="M0 0h24v24h-24Z"></path><path stroke="#323232" stroke-linecap="round" stroke-linejoin="round" stroke-width="1.5" d="M6.8 19.8l-2.7-2.7 1.08815e-07 1.12826e-07c-.723704-.750381-1.11943-1.75768-1.1-2.8v-4.6l-8.56982e-08-3.06126e-06c-.0297888-1.06411.408891-2.0877 1.2-2.8l2.7-2.7 -1.8491e-08 2.05368e-08c.7123-.791111 1.73589-1.22979 2.8-1.2h4.7l-8.20986e-09 2.29834e-10c1.06411-.0297897 2.0877.408889 2.8 1.2l2.7 2.7 1.04775e-08 1.08637e-08c.723704.750381 1.11943 1.75768 1.1 2.8v4.7l8.19973e-08 2.92906e-06c.0297889 1.06411-.408891 2.0877-1.2 2.8l-2.7 2.7 2.88653e-07-2.97723e-07c-.735278.758383-1.74374 1.19058-2.8 1.2h-4.6l8.04502e-08 5.30182e-09c-1.09119-.0719118-2.12029-.533234-2.9-1.3Z"></path><path stroke="#323232" stroke-linecap="round" stroke-linejoin="round" stroke-width="1.5" d="M9 12h6"></path></g></svg>