<svg viewBox="0 0 24 24" xmlns="http://www.w3.org/2000/svg"><g fill="none"><path d="M0 0h24v24H0Z"/><g stroke-linecap="round" stroke-width="1.5" stroke="#323232" fill="none" stroke-linejoin="round"><path d="M7 3h10l-.01 0c1.65-.01 3 1.34 3 3v4 0c0 1.1-.9 2-2 2h-12l-.01-.001c-1.11-.01-2-.9-2-2.01 0 0 0 0 0 0v-4l0 0c-.01-1.66 1.34-3.01 2.99-3.01Z"/><path d="M20 9L4 9"/><path d="M17 6l-2 0"/><path d="M6.85 15h3.49l-.01 0c.44-.01.83.29.96.72l.55 1.94 0 0c.51 1.8-.53 3.68-2.34 4.19 -.31.08-.62.13-.94.13v0l0-.001c-1.88 0-3.4-1.52-3.4-3.4 -.01-.32.04-.63.13-.94l.55-1.95 -.01 0c.12-.43.51-.73.96-.73Z"/><path d="M8.6 12l0 10"/></g></g></svg>