<svg id="Layer_3" data-name="Layer 3" xmlns="http://www.w3.org/2000/svg" viewBox="0 0 24 24"><rect width="24" height="24" fill="none"/><path d="M13.5,3V5a.5.5,0,0,1-.5.5H9A.5.5,0,0,1,8.5,5V3" fill="none" stroke="#323232" stroke-linecap="round" stroke-linejoin="round" stroke-width="1.5"/><path d="M17,18v1a2,2,0,0,1-2,2H7a2,2,0,0,1-2-2V5A2,2,0,0,1,7,3h8a2,2,0,0,1,2,2V6" fill="none" stroke="#323232" stroke-linecap="round" stroke-linejoin="round" stroke-width="1.5"/><path d="M13.92394,13.04618a1.3,1.3,0,0,0,1.128,1.94624h3.89612a1.3,1.3,0,0,0,1.128-1.94625l-1.94807-3.4a1.3,1.3,0,0,0-2.256,0Z" fill="none" stroke="#323232" stroke-linecap="round" stroke-linejoin="round" stroke-width="1.5"/></svg>