<?xml version="1.0" encoding="UTF-8"?><svg version="1.1" viewBox="0 0 24 24" xmlns="http://www.w3.org/2000/svg" xmlns:xlink="http://www.w3.org/1999/xlink"><g stroke-linecap="round" stroke-width="1.5" stroke="#323232" fill="none" stroke-linejoin="round"><path d="M10.5 6.5h3l-8.74228e-08 1.77636e-15c1.10457-4.82823e-08 2 .89543 2 2v7 0c0 1.10457-.895431 2-2 2h-3l-8.74228e-08-3.55271e-15c-1.10457-4.82823e-08-2-.895431-2-2 0 0 0 0 0 0v-7l1.59872e-14-1.27146e-07c1.66785e-07-1.10457.895431-2 2-2Z"></path><rect width="18" height="18" x="3" y="3" rx="2.7614" ry="0"></rect><path d="M11.25 15.25h1.5"></path></g><path fill="none" d="M0 0h24v24h-24Z"></path></svg>