<svg id="Layer_3" data-name="Layer 3" xmlns="http://www.w3.org/2000/svg" viewBox="0 0 24 24"><rect width="24" height="24" fill="none"/><path d="M10,21H5a2,2,0,0,1-2-2V5A2,2,0,0,1,5,3H15a2,2,0,0,1,2,2V7" fill="none" stroke="#323232" stroke-linecap="round" stroke-linejoin="round" stroke-width="1.5"/><path d="M16,18.49991,18,18.5" fill="none" stroke="#323232" stroke-linecap="round" stroke-linejoin="round" stroke-width="1.5"/><path d="M19.2,21H14.8A1.8,1.8,0,0,1,13,19.2V11.8A1.8,1.8,0,0,1,14.8,10h4.4A1.8,1.8,0,0,1,21,11.8v7.4A1.8,1.8,0,0,1,19.2,21Z" fill="none" stroke="#323232" stroke-linecap="round" stroke-linejoin="round" stroke-width="1.5"/></svg>