<svg id="Layer_3" data-name="Layer 3" xmlns="http://www.w3.org/2000/svg" viewBox="0 0 24 24"><path d="M9,21H8a2,2,0,0,1-2-2V5A2,2,0,0,1,8,3h8a2,2,0,0,1,2,2v5" fill="none" stroke="#323232" stroke-linecap="round" stroke-linejoin="round" stroke-width="1.5"/><path d="M14.5,3V5a.5.5,0,0,1-.5.5H10A.5.5,0,0,1,9.5,5V3" fill="none" stroke="#323232" stroke-linecap="round" stroke-linejoin="round" stroke-width="1.5"/><path d="M13.70364,16.96329,12.2748,18.39616A.94765.94765,0,0,0,12,19.06159v.99707A.94132.94132,0,0,0,12.94127,21h1.00137a.9351.9351,0,0,0,.66543-.27695l1.424-1.42806" fill="none" stroke="#323232" stroke-linecap="round" stroke-linejoin="round" stroke-width="1.5"/><path d="M13.70364,16.96329a3.20021,3.20021,0,1,1,2.32845,2.3317" fill="none" stroke="#323232" stroke-linecap="round" stroke-linejoin="round" stroke-width="1.5"/><path d="M16.8,16.25006a.049.049,0,0,1-.04919.04994A.05107.05107,0,0,1,16.7,16.24994.049.049,0,0,1,16.74906,16.2a.05147.05147,0,0,1,.05094.05006" fill="none" stroke="#323232" stroke-linecap="round" stroke-linejoin="round" stroke-width="1.5"/><path d="M0,0H24V24H0Z" fill="none"/></svg>