<svg id="Layer_3" data-name="Layer 3" xmlns="http://www.w3.org/2000/svg" viewBox="0 0 24 24"><rect width="24" height="24" fill="none"/><path d="M6,21V14a2,2,0,0,1,2-2h8a2,2,0,0,1,2,2v7" fill="none" stroke="#323232" stroke-linecap="round" stroke-linejoin="round" stroke-width="1.5"/><path d="M7,4.85284a7.37673,7.37673,0,0,1,5-1.852,7.37673,7.37673,0,0,1,5,1.852" fill="none" stroke="#323232" stroke-linecap="round" stroke-linejoin="round" stroke-width="1.5"/><path d="M8.667,6.83444A5.24583,5.24583,0,0,1,12,5.72344a5.24583,5.24583,0,0,1,3.333,1.111" fill="none" stroke="#323232" stroke-linecap="round" stroke-linejoin="round" stroke-width="1.5"/><path d="M10.333,9a2.777,2.777,0,0,1,3.334,0" fill="none" stroke="#323232" stroke-linecap="round" stroke-linejoin="round" stroke-width="1.5"/><path d="M14.499,12v2a.5.5,0,0,1-.5.5h-4a.5.5,0,0,1-.5-.5V12" fill="none" stroke="#323232" stroke-linecap="round" stroke-linejoin="round" stroke-width="1.5"/></svg>