<svg id="Layer_3" data-name="Layer 3" xmlns="http://www.w3.org/2000/svg" viewBox="0 0 24 24"><path d="M0,0H24V24H0Z" fill="none"/><line x1="8" y1="6.00001" x2="10" y2="6.00001" fill="none" stroke="#323232" stroke-linecap="round" stroke-linejoin="round" stroke-width="1.5"/><line x1="9" y1="9.00001" x2="10" y2="9.00001" fill="none" stroke="#323232" stroke-linecap="round" stroke-linejoin="round" stroke-width="1.5"/><path d="M8,18h4" fill="none" stroke="#323232" stroke-linecap="round" stroke-linejoin="round" stroke-width="1.5"/><path d="M16,14v5a2,2,0,0,1-2,2H6a2,2,0,0,1-2-2V5A2,2,0,0,1,6,3h4" fill="none" stroke="#323232" stroke-linecap="round" stroke-linejoin="round" stroke-width="1.5"/><path d="M13.5,3.49273c0,1.14619,0,3.91568,0,5.05693a.50251.50251,0,0,0,.50046.497A6.6466,6.6466,0,0,1,17.5,10a6.64663,6.64663,0,0,1,3.49949-.95336A.50563.50563,0,0,0,21.5,8.54821l0-5.04656a.49993.49993,0,0,0-.51217-.50115A7.153,7.153,0,0,0,17.5,3.945a7.155,7.155,0,0,0-3.49141-.94465A.49158.49158,0,0,0,13.5,3.49273Z" fill="none" stroke="#323232" stroke-linecap="round" stroke-linejoin="round" stroke-width="1.5"/><line x1="17.50001" y1="3.94208" x2="17.50001" y2="10.00001" fill="none" stroke="#323232" stroke-linecap="round" stroke-linejoin="round" stroke-width="1.5"/></svg>