<svg id="Layer_3" data-name="Layer 3" xmlns="http://www.w3.org/2000/svg" viewBox="0 0 24 24"><path d="M0,0H24V24H0Z" fill="none"/><path d="M15.35868,5.95951,15.5,6.103l.14134-.14351a1.367,1.367,0,0,1,1.954,0h0a1.41815,1.41815,0,0,1,0,1.984l-1.21968,1.2384a1.22872,1.22872,0,0,1-1.75128,0L13.40469,7.9435a1.41816,1.41816,0,0,1,0-1.984h0A1.367,1.367,0,0,1,15.35868,5.95951Z" fill="none" stroke="#323232" stroke-linecap="round" stroke-linejoin="round" stroke-width="1.5"/><path d="M16.7022,12.63641,13.964,14.86618A.5909.5909,0,0,1,13,14.408V12.63641H11.36364A2.36363,2.36363,0,0,1,9,10.27278V4.36365A2.36364,2.36364,0,0,1,11.36364,2h8.27272A2.36364,2.36364,0,0,1,22,4.36365v5.90913a2.36363,2.36363,0,0,1-2.36364,2.36363Z" fill="none" stroke="#323232" stroke-linecap="round" stroke-linejoin="round" stroke-width="1.5"/><path d="M8,18h4" fill="none" stroke="#323232" stroke-linecap="round" stroke-linejoin="round" stroke-width="1.5"/><path d="M16,17v2a2,2,0,0,1-2,2H6a2,2,0,0,1-2-2V5A2,2,0,0,1,6,3H6" fill="none" stroke="#323232" stroke-linecap="round" stroke-linejoin="round" stroke-width="1.5"/></svg>