<?xml version="1.0" encoding="UTF-8"?><svg version="1.1" viewBox="0 0 24 24" xmlns="http://www.w3.org/2000/svg" xmlns:xlink="http://www.w3.org/1999/xlink"><!--Generated by IJSVG (https://github.com/iconjar/IJSVG)--><g stroke-linecap="round" stroke-width="1.5" stroke="#323232" fill="none" stroke-linejoin="round"><path d="M8.75,18.5h2.5"></path><path d="M15,12.977v6.023c0,1.105 -0.895,2 -2,2h-6c-1.105,0 -2,-0.895 -2,-2v-12c0,-1.105 0.895,-2 2,-2h3.6"></path><path d="M13.019,7.5c-0.069,0 -0.125,0.056 -0.124,0.125c0,0.069 0.056,0.125 0.125,0.125c0.069,0 0.125,-0.056 0.125,-0.125c-0.001,-0.069 -0.057,-0.125 -0.126,-0.125"></path><path d="M15.519,7.5c-0.069,0 -0.125,0.056 -0.124,0.125c0,0.069 0.056,0.125 0.125,0.125c0.069,0 0.125,-0.056 0.125,-0.125c-0.001,-0.069 -0.057,-0.125 -0.126,-0.125"></path><path d="M18.019,7.5c-0.069,0 -0.125,0.056 -0.125,0.125c0,0.069 0.056,0.125 0.125,0.125c0.069,0 0.125,-0.056 0.125,-0.125c0,-0.069 -0.056,-0.125 -0.125,-0.125"></path><path d="M10.633,10.059c-0.402,-0.765 -0.633,-1.635 -0.633,-2.559c0,-3.038 2.462,-5.5 5.5,-5.5c3.038,0 5.5,2.462 5.5,5.5c0,3.038 -2.462,5.5 -5.5,5.5c-0.917,0 -1.78,-0.228 -2.54,-0.624l-2.941,0.624l0.614,-2.941Z"></path></g><path fill="none" d="M0,0h24v24h-24Z" transform="matrix(6.12323e-17,-1,1,6.12323e-17,1.34605e-10,24)"></path></svg>