<svg id="Layer_3" data-name="Layer 3" xmlns="http://www.w3.org/2000/svg" viewBox="0 0 24 24"><path d="M0,0H24V24H0Z" fill="none"/><path d="M13.5,9.5H14A2.5,2.5,0,0,1,16.5,12h0A2.5,2.5,0,0,1,14,14.5h-.5A2.5,2.5,0,0,1,11,12h0A2.5,2.5,0,0,1,13.5,9.5Z" fill="none" stroke="#323232" stroke-linecap="round" stroke-linejoin="round" stroke-width="1.5"/><path d="M13.5,9.5h5A2.5,2.5,0,0,1,21,12h0a2.5,2.5,0,0,1-2.5,2.5h-5A2.5,2.5,0,0,1,11,12h0A2.5,2.5,0,0,1,13.5,9.5Z" fill="none" stroke="#323232" stroke-linecap="round" stroke-linejoin="round" stroke-width="1.5"/><path d="M13.5,3V5a.5.5,0,0,1-.5.5H9A.5.5,0,0,1,8.5,5V3" fill="none" stroke="#323232" stroke-linecap="round" stroke-linejoin="round" stroke-width="1.5"/><path d="M17,17v2a2,2,0,0,1-2,2H7a2,2,0,0,1-2-2V5A2,2,0,0,1,7,3h8a2,2,0,0,1,2,2V7" fill="none" stroke="#323232" stroke-linecap="round" stroke-linejoin="round" stroke-width="1.5"/></svg>