<?xml version="1.0" encoding="UTF-8"?><svg version="1.1" viewBox="0 0 24 24" xmlns="http://www.w3.org/2000/svg" xmlns:xlink="http://www.w3.org/1999/xlink"><g stroke-linecap="round" stroke-width="1.5" stroke="#323232" fill="none" stroke-linejoin="round"><path d="M21 21v-16.713l5.32568e-08 1.58801e-05c-.00237751-.710234-.580063-1.28407-1.2903-1.28169 -.152561.000510699-.303815.0281639-.446688.0816665l-6.42901 2.40701 1.1984e-07-4.49176e-08c-.502583.188375-.835146.669275-.834 1.206v14.3"></path><path d="M6.375 5.25h2.25l-4.91753e-08 8.88178e-16c.62132-2.71588e-08 1.125.50368 1.125 1.125v2.25h-4.5v-2.25l1.24345e-14 1.6987e-07c-9.38168e-08-.62132.503679-1.125 1.125-1.125Z"></path><line x1="7.5" x2="7.5" y1="3" y2="5.25"></line><path d="M3 21v-11.25l1.24345e-14 1.6987e-07c-9.38168e-08-.62132.503679-1.125 1.125-1.125h6.75l-1.34155e-08 1.77636e-15c.62132-1.01226e-07 1.125.503679 1.125 1.125 8.88178e-15 5.73509e-08 1.42109e-14 1.12519e-07 1.42109e-14 1.6987e-07v11.25"></path><line x1="5.81" x2="9.19" y1="15.38" y2="15.38"></line><line x1="5.81" x2="9.19" y1="15.38" y2="15.38"></line><line x1="5.81" x2="9.19" y1="12" y2="12"></line><line x1="7.5" x2="7.5" y1="19.31" y2="21"></line><line x1="22" x2="2" y1="21" y2="21"></line><line x1="15" x2="15" y1="9.06" y2="17"></line><line x1="18" x2="18" y1="9.06" y2="17"></line></g><rect width="24" height="24" fill="none"></rect></svg>