<?xml version="1.0" encoding="UTF-8"?><svg version="1.1" viewBox="0 0 24 24" xmlns="http://www.w3.org/2000/svg" xmlns:xlink="http://www.w3.org/1999/xlink"><g fill="none"><path d="M0 0h24v24h-24v-24Z"></path><path stroke="#323232" stroke-linecap="round" stroke-linejoin="round" stroke-width="1.5" d="M10 15.9h-6.1c-1.05 0-1.9-.85-1.9-1.9v-9.1c0-1.05.85-1.9 1.9-1.9h15.2c1.05 0 1.9.85 1.9 1.9v7.1"></path><path stroke="#323232" stroke-linecap="round" stroke-linejoin="round" stroke-width="1.5" d="M13.179 7.971c.927.927.927 2.431 0 3.359 -.927.927-2.431.927-3.359 0 -.927-.927-.927-2.431 0-3.359 .928-.928 2.432-.928 3.359 8.88178e-16"></path><path stroke="#323232" stroke-linecap="round" stroke-linejoin="round" stroke-width="1.5" d="M13.561 18.306c-.32-.485-.32-1.125 0-1.61 .99-1.497 2.544-2.696 4.099-2.696 1.555 0 3.108 1.199 4.099 2.695 .321.485.321 1.126 0 1.61 -.992 1.496-2.545 2.695-4.099 2.695 -1.555.001-3.109-1.198-4.099-2.694Z"></path><path stroke="#323232" stroke-linecap="round" stroke-linejoin="round" stroke-width="1.5" d="M17.776 17.384c.065.065.065.169 0 .234 -.065.065-.169.065-.234 0 -.065-.065-.065-.169 0-.234 .065-.065.17-.065.234 0"></path><line x1="6" x2="5" y1="13" y2="13" stroke="#323232" stroke-linecap="round" stroke-linejoin="round" stroke-width="1.5"></line><line x1="18" x2="17" y1="6" y2="6" stroke="#323232" stroke-linecap="round" stroke-linejoin="round" stroke-width="1.5"></line></g></svg>