<?xml version="1.0" encoding="UTF-8"?><svg version="1.1" viewBox="0 0 24 24" xmlns="http://www.w3.org/2000/svg" xmlns:xlink="http://www.w3.org/1999/xlink"><g stroke-linecap="round" stroke-width="1.5" stroke="#323232" fill="none" stroke-linejoin="round"><circle cx="12" cy="11.91" r="2"></circle><path d="M19.804 18.213v0c-2.505-.501-5.089-.439-7.567.18l-.237.06c-2.634.658-5.381.724-8.043.191l-.153-.031c-.468-.093-.804-.504-.804-.98v-10.839c0-.631.577-1.104 1.196-.981v0c2.505.501 5.089.439 7.567-.18l.473-.118c2.478-.619 5.063-.681 7.567-.18l.392.078c.469.094.805.504.805.981v10.839c0 .631-.577 1.104-1.196.98Z"></path><path d="M18 8.076c-.666-.061-1.333-.088-2-.071"></path><path d="M6 15.929c.666.061 1.333.087 2 .071"></path></g><path fill="none" d="M0 0h24v24h-24v-24Z"></path></svg>