<svg id="Layer_3" data-name="Layer 3" xmlns="http://www.w3.org/2000/svg" viewBox="0 0 24 24"><path d="M10.58582,16.41418a2,2,0,1,1,2.82836,0,1.99984,1.99984,0,0,1-2.82836,0" fill="none" stroke="#323232" stroke-linecap="round" stroke-linejoin="round" stroke-width="1.5"/><path d="M17.5,17V13" fill="none" stroke="#323232" stroke-linecap="round" stroke-linejoin="round" stroke-width="1.5"/><path d="M6.5,17V13" fill="none" stroke="#323232" stroke-linecap="round" stroke-linejoin="round" stroke-width="1.5"/><line x1="12" y1="8" x2="12" y2="3" fill="none" stroke="#323232" stroke-linecap="round" stroke-linejoin="round" stroke-width="1.5"/><polyline points="14 5 12 3 10 5" fill="none" stroke="#323232" stroke-linecap="round" stroke-linejoin="round" stroke-width="1.5"/><path d="M16,9h3a1.99945,1.99945,0,0,1,2,2v8a1.99945,1.99945,0,0,1-2,2H5a1.99945,1.99945,0,0,1-2-2V11A1.99945,1.99945,0,0,1,5,9H8" fill="none" stroke="#323232" stroke-linecap="round" stroke-linejoin="round" stroke-width="1.5"/><path d="M24,24H0V0H24Z" fill="none"/></svg>