<?xml version="1.0" encoding="UTF-8"?><svg version="1.1" viewBox="0 0 24 24" xmlns="http://www.w3.org/2000/svg" xmlns:xlink="http://www.w3.org/1999/xlink"><g stroke-linecap="round" stroke-width="1.5" stroke="#323232" fill="none" stroke-linejoin="round"><path d="M21 7v10c0 2.209-1.791 4-4 4h-10c-2.209 0-4-1.791-4-4v-10c0-2.209 1.791-4 4-4h10c2.209 0 4 1.791 4 4Z"></path><path d="M10.333 16.167v-3.333c0-.461-.373-.834-.833-.834h-1.667c-.46 0-.833.373-.833.833v3.227"></path><path d="M13.667 16.167v-7.5c0-.46-.373-.833-.833-.833h-1.667c-.46 0-.833.373-.833.833v7.5"></path><path d="M17 16.061v-5.311c0-.46-.373-.833-.833-.833h-1.667c-.46 0-.833.373-.833.833v5.417"></path><line x1="17" x2="7" y1="16.17" y2="16.17"></line></g><path fill="none" d="M0 0h24v24h-24v-24Z"></path></svg>