<svg id="Layer_3" data-name="Layer 3" xmlns="http://www.w3.org/2000/svg" viewBox="0 0 24 24"><path d="M24,0H0V24H24Z" fill="none"/><line x1="17" y1="20" x2="20" y2="17" fill="none" stroke="#323232" stroke-linecap="round" stroke-linejoin="round" stroke-width="1.5"/><line x1="20" y1="20" x2="17" y2="20" fill="none" stroke="#323232" stroke-linecap="round" stroke-linejoin="round" stroke-width="1.5"/><line x1="17" y1="17" x2="17" y2="20" fill="none" stroke="#323232" stroke-linecap="round" stroke-linejoin="round" stroke-width="1.5"/><line x1="7" y1="4" x2="4" y2="7" fill="none" stroke="#323232" stroke-linecap="round" stroke-linejoin="round" stroke-width="1.5"/><line x1="4" y1="4" x2="7" y2="4" fill="none" stroke="#323232" stroke-linecap="round" stroke-linejoin="round" stroke-width="1.5"/><line x1="7" y1="7" x2="7" y2="4" fill="none" stroke="#323232" stroke-linecap="round" stroke-linejoin="round" stroke-width="1.5"/><path d="M12,17.0625V13.125A1.125,1.125,0,0,0,10.875,12H4.125A1.125,1.125,0,0,0,3,13.125v3.9375a1.125,1.125,0,0,0,1.125,1.125h6.75A1.125,1.125,0,0,0,12,17.0625Z" fill="none" stroke="#323232" stroke-linecap="round" stroke-linejoin="round" stroke-width="1.5"/><line x1="7.56251" y1="18.1875" x2="7.56251" y2="20.9375" fill="none" stroke="#323232" stroke-linecap="round" stroke-linejoin="round" stroke-width="1.5"/><line x1="9.56251" y1="21" x2="5.56251" y2="20.9999" fill="none" stroke="#323232" stroke-linecap="round" stroke-linejoin="round" stroke-width="1.5"/><path d="M21,8.0625V4.125A1.125,1.125,0,0,0,19.875,3h-6.75A1.125,1.125,0,0,0,12,4.125V8.0625a1.125,1.125,0,0,0,1.125,1.125h6.75A1.125,1.125,0,0,0,21,8.0625Z" fill="none" stroke="#323232" stroke-linecap="round" stroke-linejoin="round" stroke-width="1.5"/><line x1="16.56251" y1="9.1875" x2="16.56251" y2="11.9375" fill="none" stroke="#323232" stroke-linecap="round" stroke-linejoin="round" stroke-width="1.5"/><line x1="18.56251" y1="12" x2="14.56251" y2="11.9999" fill="none" stroke="#323232" stroke-linecap="round" stroke-linejoin="round" stroke-width="1.5"/></svg>