<?xml version="1.0" encoding="UTF-8"?><svg version="1.1" viewBox="0 0 24 24" xmlns="http://www.w3.org/2000/svg" xmlns:xlink="http://www.w3.org/1999/xlink"><g stroke-linecap="round" stroke-width="1.5" stroke="#323232" fill="none" stroke-linejoin="round"><path d="M21 12v0 0c0 4.97056-4.02944 9-9 9v0l-3.93403e-07-7.10543e-15c-4.97056-2.1727e-07-9-4.02944-9-9 0 0 0-5.32907e-15 0-5.32907e-15h-8.88178e-15l1.03029e-13 1.35896e-06c-7.50534e-07-4.97056 4.02944-9 9-9v0l-1.07324e-07 1.77636e-14c4.97056-8.09807e-07 9 4.02944 9 9 9.59233e-14 5.88448e-07 1.35003e-13 1.16392e-06 1.13687e-13 1.75236e-06Z"></path><path d="M3 12h3.885l2.015-3.013 2.678 6.026 2.004-3.013h2.678"></path></g><rect width="24.002" height="24" fill="none"></rect></svg>