<svg id="Layer_3" data-name="Layer 3" xmlns="http://www.w3.org/2000/svg" viewBox="0 0 24 24"><path d="M21,12V5.428A2.428,2.428,0,0,0,18.572,3H5.428A2.428,2.428,0,0,0,3,5.428v8.144A2.428,2.428,0,0,0,5.428,16H11" fill="none" stroke="#323232" stroke-linecap="round" stroke-linejoin="round" stroke-width="1.5"/><line x1="6.928" y1="20" x2="11" y2="20" fill="none" stroke="#323232" stroke-linecap="round" stroke-linejoin="round" stroke-width="1.5"/><line x1="9" y1="16" x2="8.5" y2="20" fill="none" stroke="#323232" stroke-linecap="round" stroke-linejoin="round" stroke-width="1.5"/><path d="M7.5,9.5H9.4998l1.5003,2.25,1.9998-4.5L14.5002,9.5H16.5" fill="none" stroke="#323232" stroke-linecap="round" stroke-linejoin="round" stroke-width="1.5"/><path d="M17.802,16.07326l.198.201.198-.20105a1.92053,1.92053,0,0,1,2.73739,0h0a1.99278,1.99278,0,0,1,0,2.77954L19.397,20.41489a1.9602,1.9602,0,0,1-2.79393,0L15.0646,18.85282a1.99279,1.99279,0,0,1,0-2.77955h0A1.92054,1.92054,0,0,1,17.802,16.07326Z" fill="none" stroke="#323232" stroke-linecap="round" stroke-linejoin="round" stroke-width="1.5"/><rect width="24" height="24" fill="none"/></svg>