<svg id="Layer_3" data-name="Layer 3" xmlns="http://www.w3.org/2000/svg" viewBox="0 0 24 24"><line x1="14" y1="17.00001" x2="14.5" y2="21.00001" fill="none" stroke="#323232" stroke-linecap="round" stroke-linejoin="round" stroke-width="1.5"/><line x1="10" y1="17.00001" x2="9.5" y2="21.00001" fill="none" stroke="#323232" stroke-linecap="round" stroke-linejoin="round" stroke-width="1.5"/><line x1="8.143" y1="21.00001" x2="15.857" y2="21.00001" fill="none" stroke="#323232" stroke-linecap="round" stroke-linejoin="round" stroke-width="1.5"/><path d="M17.5293,10.95339h0A4.3903,4.3903,0,0,1,14,6.64835V5.25A2.25,2.25,0,0,1,16.25,3h3.5A2.25,2.25,0,0,1,22,5.25V6.64833a4.3903,4.3903,0,0,1-3.5292,4.305l-.0001,0A2.39972,2.39972,0,0,1,17.5293,10.95339Z" fill="none" stroke="#323232" stroke-linecap="round" stroke-linejoin="round" stroke-width="1.5"/><line x1="17.75" y1="7.69792" x2="19.25" y2="6.19792" fill="none" stroke="#323232" stroke-linecap="round" stroke-linejoin="round" stroke-width="1.5"/><line x1="16.75" y1="6.69792" x2="17.75" y2="7.69792" fill="none" stroke="#323232" stroke-linecap="round" stroke-linejoin="round" stroke-width="1.5"/><path d="M21,14v.5A2.5,2.5,0,0,1,18.5,17H5.5A2.5,2.5,0,0,1,3,14.5v-9A2.5,2.5,0,0,1,5.5,3H11" fill="none" stroke="#323232" stroke-linecap="round" stroke-linejoin="round" stroke-width="1.5"/><path d="M0,0H24V24H0Z" fill="none"/></svg>