<svg id="Layer_3" data-name="Layer 3" xmlns="http://www.w3.org/2000/svg" viewBox="0 0 24 24"><path d="M9.5,17h5" fill="none" stroke="#323232" stroke-linecap="round" stroke-linejoin="round" stroke-width="1.3944"/><path d="M16,14.5H8a1,1,0,0,1-1-1v-4a1,1,0,0,1,1-1h8a1,1,0,0,1,1,1v4A1.00294,1.00294,0,0,1,16,14.5Z" fill="none" stroke="#323232" stroke-linecap="round" stroke-linejoin="round" stroke-width="1.5275"/><path d="M20.582,9.353A8.839,8.839,0,0,1,21,12a9,9,0,1,1-9-9,8.839,8.839,0,0,1,2.647.418" fill="none" stroke="#323232" stroke-linecap="round" stroke-linejoin="round" stroke-width="1.5"/><path d="M17.79894,5.062,19,6.262l1.99893-2" fill="none" stroke="#323232" stroke-linecap="round" stroke-linejoin="round" stroke-width="1.5"/><path d="M24,24H0V0H24Z" fill="none"/></svg>