<svg id="Layer_3" data-name="Layer 3" xmlns="http://www.w3.org/2000/svg" viewBox="0 0 24 24"><path d="M21.5,21H15a.5.5,0,0,1-.5-.5v-.406A2.1,2.1,0,0,1,16.594,18h3.312A2.1,2.1,0,0,1,22,20.094V20.5A.5.5,0,0,1,21.5,21Z" fill="none" stroke="#323232" stroke-linecap="round" stroke-linejoin="round" stroke-width="1.5"/><path d="M18.25,15.5a2,2,0,1,1,.008,0Z" fill="none" stroke="#323232" stroke-linecap="round" stroke-linejoin="round" stroke-width="1.5"/><line x1="8.928" y1="16" x2="8.428" y2="20" fill="none" stroke="#323232" stroke-linecap="round" stroke-linejoin="round" stroke-width="1.5"/><path d="M20.428,9V5.428A2.428,2.428,0,0,0,18,3H5.428A2.428,2.428,0,0,0,3,5.428v8.144A2.428,2.428,0,0,0,5.428,16H13" fill="none" stroke="#323232" stroke-linecap="round" stroke-linejoin="round" stroke-width="1.5"/><line x1="6.928" y1="20" x2="11" y2="20" fill="none" stroke="#323232" stroke-linecap="round" stroke-linejoin="round" stroke-width="1.5"/><path d="M6,9H7.9998l1.5003,2.25,1.9998-4.5L13.0002,9H15" fill="none" stroke="#323232" stroke-linecap="round" stroke-linejoin="round" stroke-width="1.5"/><path d="M0,0H24V24H0Z" fill="none"/></svg>