<svg id="Layer_3" data-name="Layer 3" xmlns="http://www.w3.org/2000/svg" viewBox="0 0 24 24"><path d="M21,12v2.428A2.57112,2.57112,0,0,1,18.429,17H5.571A2.5709,2.5709,0,0,1,3,14.429V5.571A2.5709,2.5709,0,0,1,5.571,3H8" fill="none" stroke="#323232" stroke-linecap="round" stroke-linejoin="round" stroke-width="1.5"/><line x1="14" y1="17" x2="14.5" y2="21" fill="none" stroke="#323232" stroke-linecap="round" stroke-linejoin="round" stroke-width="1.5"/><line x1="10" y1="17" x2="9.5" y2="21" fill="none" stroke="#323232" stroke-linecap="round" stroke-linejoin="round" stroke-width="1.5"/><line x1="8.143" y1="21" x2="15.857" y2="21" fill="none" stroke="#323232" stroke-linecap="round" stroke-linejoin="round" stroke-width="1.5"/><line x1="10" y1="6.03286" x2="12" y2="6.03286" fill="none" stroke="#323232" stroke-linecap="round" stroke-linejoin="round" stroke-width="1.5"/><line x1="12" y1="9.03286" x2="14" y2="9.03286" fill="none" stroke="#323232" stroke-linecap="round" stroke-linejoin="round" stroke-width="1.5"/><path d="M19.7067,3.32563,21.707,5.32537a1,1,0,0,1,.0002,1.41422l-1.99974,2.0003a1,1,0,0,1-1.41422.0002L16.293,6.74035a1,1,0,0,1-.0002-1.41421l1.99974-2.00031A1,1,0,0,1,19.7067,3.32563Z" fill="none" stroke="#323232" stroke-linecap="round" stroke-linejoin="round" stroke-width="1.5"/><line x1="12" y1="3" x2="14" y2="3" fill="none" stroke="#323232" stroke-linecap="round" stroke-linejoin="round" stroke-width="1.5"/><path d="M0,0H24V24H0Z" fill="none"/></svg>