<svg id="Layer_3" data-name="Layer 3" xmlns="http://www.w3.org/2000/svg" viewBox="0 0 24 24"><rect width="24" height="24" fill="none"/><path d="M12,21h7a2,2,0,0,0,2-2V5a2,2,0,0,0-2-2H5A2,2,0,0,0,3,5v7" fill="none" stroke="#323232" stroke-linecap="round" stroke-linejoin="round" stroke-width="1.5"/><path d="M18,9H16l-1.334,2L12.889,7,11.555,9H6" fill="none" stroke="#323232" stroke-linecap="round" stroke-linejoin="round" stroke-width="1.5"/><line x1="21" y1="15" x2="14" y2="15" fill="none" stroke="#323232" stroke-linecap="round" stroke-linejoin="round" stroke-width="1.5"/><path d="M14.44994,17.99994a.05.05,0,1,1,0,.00012v-.00012" fill="none" stroke="#323232" stroke-linecap="round" stroke-linejoin="round" stroke-width="1.5"/><path d="M17.44994,17.99994a.05.05,0,1,1,0,.00012v-.00012" fill="none" stroke="#323232" stroke-linecap="round" stroke-linejoin="round" stroke-width="1.5"/><path d="M6.77389,15.15748,7,15.38707l.22614-.22962a2.18706,2.18706,0,0,1,3.12635,0h0a2.26919,2.26919,0,0,1,0,3.17449L8.23743,20.47955a1.73132,1.73132,0,0,1-2.47487,0L3.6475,18.332a2.26922,2.26922,0,0,1,0-3.17451h0A2.18708,2.18708,0,0,1,6.77389,15.15748Z" fill="none" stroke="#323232" stroke-linecap="round" stroke-linejoin="round" stroke-width="1.5"/></svg>