<?xml version="1.0" encoding="UTF-8"?><svg version="1.1" viewBox="0 0 24 24" xmlns="http://www.w3.org/2000/svg" xmlns:xlink="http://www.w3.org/1999/xlink"><g fill="none"><path d="M24 24h-24v-24h24Z"></path><line x1="4" x2="21" y1="4" y2="21" stroke="#323232" stroke-linecap="round" stroke-linejoin="round" stroke-width="1.5"></line><path stroke="#323232" stroke-linecap="round" stroke-linejoin="round" stroke-width="1.5" d="M11.504 11.5024l-4.9149e-09 4.78619e-09c-2.06743 2.01329-5.17653 2.51128-7.76935 1.24443l-1.66486e-08-6.9691e-09c-.270753-.113337-.582119.0142742-.695456.285027 -.0464266.11091-.0538734.234284-.021124.349973l-8.94641e-08-3.468e-07c.390559 1.51397 1.17938 2.89574 2.28451 4.00178l1.58698e-07 1.6281e-07c3.33769 3.42417 8.81873 3.4959 12.2449.16025"></path><path stroke="#323232" stroke-linecap="round" stroke-linejoin="round" stroke-width="1.5" d="M12.9752 9.19526l-3.89333e-09 1.03906e-08c.665539-1.7762.583433-3.74621-.2276-5.46087l-3.2951e-08-7.9002e-08c-.113038-.271016.0150283-.582352.286044-.69539 .110696-.0461704.233752-.0535569.349176-.0209598l2.61427e-07 6.78306e-08c4.71075 1.22227 7.53872 6.03192 6.31646 10.7427 -.141155.544025-.334033 1.0733-.575999 1.58059"></path></g></svg>