<svg id="Layer_3" data-name="Layer 3" xmlns="http://www.w3.org/2000/svg" viewBox="0 0 24 24"><path d="M0,24V0H24V24Z" fill="none"/><circle cx="18.5" cy="5.5" r="2.5" fill="none" stroke="#323232" stroke-linecap="round" stroke-linejoin="round" stroke-width="1.5"/><path d="M11.29445,7.37645a.24952.24952,0,0,0-.25933-.3701A5.13879,5.13879,0,0,0,8.53389,8.383,5.0102,5.0102,0,1,0,15.617,15.46611a5.13862,5.13862,0,0,0,1.3767-2.50118.24951.24951,0,0,0-.37009-.25933,3.93683,3.93683,0,0,1-5.32911-5.32915Z" fill="none" stroke="#323232" stroke-linecap="round" stroke-linejoin="round" stroke-width="1.5"/><path d="M21.11378,12v4a5,5,0,0,1-5,5h-8a5,5,0,0,1-5-5V8a5,5,0,0,1,5-5H12" fill="none" stroke="#323232" stroke-linecap="round" stroke-linejoin="round" stroke-width="1.5"/></svg>