<?xml version="1.0" encoding="UTF-8"?><svg version="1.1" viewBox="0 0 24 24" xmlns="http://www.w3.org/2000/svg" xmlns:xlink="http://www.w3.org/1999/xlink"><g stroke-linecap="round" stroke-width="1.5" stroke="#323232" fill="none" stroke-linejoin="round"><line x1="18.36" x2="5.64" y1="5.64" y2="18.36"></line><path d="M8.39111 15.6089c.00714.0072.0116.016.0188.02319l-7.37717e-10-7.18206e-10c2.01498 1.96168 5.23847 1.91925 7.20111-.09479l8.69494e-08-8.70743e-08c.649777-.650712 1.11363-1.46342 1.34345-2.35382l-1.47436e-09 5.20107e-09c.0470319-.165914-.0493408-.33854-.215254-.385572 -.0682325-.019342-.141017-.01488-.206376.0126519l3.33634e-09-1.62809e-09c-1.52541.744378-3.35388.451431-4.57038-.73224 -.00695-.007-.01184-.01508-.01873-.022"></path><line x1="8.39" x2="11.94" y1="15.61" y2="12.06"></line><path d="M10.9145 10.0855l-3.41428e-08-1.74557e-07c-.1703-.870667-.0592827-1.77294.317-2.57635l-1.97872e-09 4.69929e-09c.0669228-.158936-.00766859-.342031-.166605-.408954 -.0653688-.0275247-.138161-.0319743-.206395-.0126164l-1.05545e-07 2.73691e-08c-2.76693.717499-4.42833 3.54219-3.71083 6.30913 .0306621.118244.0655008.235366.104451.351145"></path><circle cx="12" cy="12" r="9"></circle></g><path fill="none" d="M0 0h24v24h-24Z"></path></svg>