<svg viewBox="0 0 24 24" xmlns="http://www.w3.org/2000/svg"><g fill="none"><path d="M0 0h24v24H0Z"/><g stroke-linecap="round" stroke-width="1.5" stroke="#323232" fill="none" stroke-linejoin="round"><path d="M20.58 9.35l0 0c.27.85.41 1.74.41 2.64v0c0 4.97-4.03 9-9 9 -4.98 0-9-4.03-9-9 0-4.98 4.02-9 9-9l0 0c.89 0 1.79.14 2.64.41"/><path d="M19.012 6.262l-1.28-1.28"/><path d="M21 4.27l-1.99 1.99"/><path d="M16.53 12.81l0-.01c.15-.07.34 0 .4.16 .02.06.03.13.01.2l-.01 0c-.23.89-.7 1.7-1.35 2.35l-.01 0c-1.92 2.01-5.1 2.09-7.11.18 -2.02-1.92-2.1-5.1-.19-7.11 .06-.07.12-.13.18-.19l0-.01c.65-.66 1.46-1.12 2.35-1.35l-.01 0c.16-.05.33.04.38.21 .01.06.01.14-.02.2l-.01 0c-.99 1.94-.21 4.31 1.74 5.3 1.11.56 2.44.56 3.55-.01Z"/></g></g></svg>