<svg id="Layer_3" data-name="Layer 3" xmlns="http://www.w3.org/2000/svg" viewBox="0 0 24 24"><path d="M0,0H24V24H0Z" fill="none"/><path d="M17.27456,8.79374l-.98333.98334a.76667.76667,0,0,1-1.08423,0l-.98334-.98334a.76667.76667,0,0,1,0-1.08423l.98334-.98333a.76667.76667,0,0,1,1.08423,0l.98333.98333A.76667.76667,0,0,1,17.27456,8.79374Z" fill="none" stroke="#323232" stroke-linecap="round" stroke-linejoin="round" stroke-width="1.5"/><circle cx="12" cy="12" r="9.5" fill="none" stroke="#323232" stroke-linecap="round" stroke-linejoin="round" stroke-width="1.5"/><path d="M11.29445,7.37645a.24952.24952,0,0,0-.25933-.3701A5.13879,5.13879,0,0,0,8.53389,8.383,5.0102,5.0102,0,1,0,15.617,15.46611a5.13862,5.13862,0,0,0,1.3767-2.50118.24951.24951,0,0,0-.37009-.25933,3.93683,3.93683,0,0,1-5.32911-5.32915Z" fill="none" stroke="#323232" stroke-linecap="round" stroke-linejoin="round" stroke-width="1.5"/></svg>