<?xml version="1.0" encoding="UTF-8"?><svg version="1.1" viewBox="0 0 24 24" xmlns="http://www.w3.org/2000/svg" xmlns:xlink="http://www.w3.org/1999/xlink"><line x1="15" x2="15" y1="18" y2="13" stroke-linecap="round" stroke-width="1.5" stroke="#323232" fill="none" stroke-linejoin="round"></line><g transform="matrix(1 0 0 1 -5.5 14.5)"><rect width="8" height="3" x=".5" y="8.5" fill="none" rx=".27614" ry="0" stroke="#323232" stroke-linecap="round" stroke-linejoin="round" stroke-width="1.5" transform="matrix(6.12323e-17 -1 1 6.12323e-17 0 0)"></rect></g><line x1="3" x2="6" y1="17" y2="17" stroke-linecap="round" stroke-width="1.5" stroke="#323232" fill="none" stroke-linejoin="round"></line><g transform="matrix(1 0 0 1 9 24)"><rect width="3" height="3" x="15" y="6" fill="none" rx=".27614" ry="0" stroke="#323232" stroke-linecap="round" stroke-linejoin="round" stroke-width="1.5" transform="matrix(6.12323e-17 -1 1 6.12323e-17 0 0)"></rect></g><g stroke-linecap="round" stroke-width="1.5" stroke="#323232" fill="none" stroke-linejoin="round"><line x1="17.78" x2="17.78" y1="18" y2="13"></line><line x1="12" x2="9" y1="9" y2="9"></line><line x1="12" x2="9" y1="6" y2="6"></line></g><path fill="none" d="M0 0h24v24h-24Z"></path><g stroke-linecap="round" stroke-width="1.5" stroke="#323232" fill="none" stroke-linejoin="round"><path d="M5 14v5l-8.99922e-10-5.96971e-05c1.66783e-07 1.10456.895385 1.99999 1.99994 2.00006h12.0001l-3.24109e-09 9.9476e-14c1.10456-3.31334e-05 1.99997-.895444 2-2v-14 0c0-1.10457-.895431-2-2-2h-12l-8.74228e-08 1.77636e-15c-1.10457 4.82823e-08-2 .895431-2 2 0 0 0 8.88178e-16 0 8.88178e-16v1"></path><polyline points="9,13 9,14 12,14"></polyline><polyline points="9,17 9,18 12,18"></polyline></g></svg>