<?xml version="1.0" encoding="UTF-8"?><svg version="1.1" viewBox="0 0 24 24" xmlns="http://www.w3.org/2000/svg" xmlns:xlink="http://www.w3.org/1999/xlink"><g fill="none"><path d="M0 0h24v24h-24Z"></path><path stroke="#323232" stroke-linecap="round" stroke-linejoin="round" stroke-width="1.5" d="M12 17v0l-4.21526e-08-1.29248e-10c-1.9697-.00603957-3.56496-1.6013-3.571-3.571v-2.857l-3.34117e-08 1.19954e-05c.00548414-1.97009 1.6009-3.56596 3.57099-3.57201v0l1.56011e-07 4.78369e-10c1.9697.00603963 3.56496 1.6013 3.571 3.571v2.857l3.44003e-08-1.23504e-05c-.00548401 1.97009-1.60089 3.56596-3.57098 3.57201Z"></path><circle cx="12" cy="12" r="9" stroke="#323232" stroke-linecap="round" stroke-linejoin="round" stroke-width="1.5"></circle><path stroke="#323232" stroke-linecap="round" stroke-linejoin="round" stroke-width="1.5" d="M12 10.45l2.0918e-09-1.77636e-15c-.0276142 1.20706e-09-.05.0223858-.05.05 1.20706e-09.0276142.0223858.05.05.05l-1.59011e-09 3.08855e-11c.0273908-.00053201.049468-.0226092.05-.05l-7.13419e-10-1.88855e-08c-.00102666-.0271776-.0228224-.0489733-.05-.05"></path></g></svg>