<?xml version="1.0" encoding="UTF-8"?><svg version="1.1" viewBox="0 0 24 24" xmlns="http://www.w3.org/2000/svg" xmlns:xlink="http://www.w3.org/1999/xlink"><g stroke-linecap="round" stroke-width="1.5" stroke="#323232" fill="none" stroke-linejoin="round"><path d="M15.46 12l5.31215e-08 1.40407e-07c.362593.958383.545644 1.97533.54 3 0 3.31-1.79 6-4 6 -2.21 0-4-2.69-4-6l-2.5992e-07-4.72111e-05c-.0056384-1.02467.177418-2.04161.540017-3"></path><path d="M20 9v0 0c0 1.65685-1.34315 3-3 3h-10l-1.31134e-07-3.55271e-15c-1.65685-7.24234e-08-3-1.34315-3-3 0 0 0-1.77636e-15 0-1.77636e-15h-3.55271e-15c0-3.313 3.581-6 8-6 4.419 0 8 2.685 8 6"></path></g><rect width="24" height="24" fill="none"></rect></svg>