<?xml version="1.0" encoding="UTF-8"?><svg version="1.1" viewBox="0 0 24 24" xmlns="http://www.w3.org/2000/svg" xmlns:xlink="http://www.w3.org/1999/xlink"><!--Generated by IJSVG (https://github.com/iconjar/IJSVG)--><g stroke-linecap="round" stroke-width="1.5" stroke="#323232" fill="none" stroke-linejoin="round"><path d="M19.948,22h-15.896c-1.133,0 -2.052,-0.919 -2.052,-2.052v-4.896c0,-1.133 0.919,-2.052 2.052,-2.052h15.896c1.133,0 2.052,0.919 2.052,2.052v4.896c0,1.133 -0.919,2.052 -2.052,2.052Z"></path><path d="M17.931,19h-5.862c-0.59,0 -1.069,-0.479 -1.069,-1.069v-0.862c0,-0.59 0.479,-1.069 1.069,-1.069h5.862c0.59,0 1.069,0.479 1.069,1.069v0.862c0,0.59 -0.479,1.069 -1.069,1.069Z"></path><path d="M7.56066,16.4393c0.585786,0.585786 0.585786,1.53553 0,2.12132c-0.585786,0.585786 -1.53553,0.585786 -2.12132,0c-0.585786,-0.585786 -0.585786,-1.53553 0,-2.12132c0.585786,-0.585786 1.53553,-0.585786 2.12132,0"></path><path d="M10.672,8.672v-4.993c0,-0.212 0.134,-0.402 0.335,-0.472l4.312,-1.509c0.325,-0.114 0.665,0.128 0.665,0.472v4.933"></path><path d="M10.283,7.73296c0.518616,0.518616 0.518616,1.35946 0,1.87808c-0.518616,0.518616 -1.35946,0.518616 -1.87808,0c-0.518616,-0.518616 -0.518616,-1.35946 0,-1.87808c0.518616,-0.518616 1.35946,-0.518616 1.87808,0"></path><path d="M15.595,6.16296c0.518616,0.518616 0.518616,1.35946 0,1.87808c-0.518616,0.518616 -1.35946,0.518616 -1.87808,0c-0.518616,-0.518616 -0.518616,-1.35946 0,-1.87808c0.518616,-0.518616 1.35946,-0.518616 1.87808,0"></path><path d="M4,2l0.58,0.58"></path><path d="M4,10l0.58,-0.58"></path><path d="M2,6.01h1.16"></path><path d="M20,10l-0.58,-0.58"></path><path d="M20,2l-0.58,0.58"></path><path d="M22,5.99h-1.16"></path></g><path fill="none" d="M0,0h24v24h-24Z"></path></svg>