<?xml version="1.0" encoding="UTF-8"?><svg version="1.1" viewBox="0 0 24 24" xmlns="http://www.w3.org/2000/svg" xmlns:xlink="http://www.w3.org/1999/xlink"><g stroke-linecap="round" stroke-width="1.5" stroke="#323232" fill="none" stroke-linejoin="round"><path d="M7 13h10"></path><path d="M7 17h10"></path><path d="M10 3h-2c-.552 0-1 .448-1 1v5l2-1 2 1v-5c0-.552-.448-1-1-1Z"></path><path d="M11 4h8c1.105 0 2 .895 2 2v13c0 1.105-.895 2-2 2h-14c-1.105 0-2-.895-2-2v-13c0-1.105.895-2 2-2h2"></path><path d="M15 9h2"></path></g><path fill="none" d="M0 0h24v24h-24Z"></path></svg>