<svg id="Layer_3" data-name="Layer 3" xmlns="http://www.w3.org/2000/svg" viewBox="0 0 24 24"><path d="M24,0H0V24H24Z" fill="none"/><path d="M12,3a9,9,0,1,0,9,9" fill="none" stroke="#323232" stroke-linecap="round" stroke-linejoin="round" stroke-width="1.5"/><path d="M11.29445,7.37645a.24952.24952,0,0,0-.25933-.3701A5.13879,5.13879,0,0,0,8.53389,8.383,5.0102,5.0102,0,1,0,15.617,15.46611a5.13862,5.13862,0,0,0,1.3767-2.50118.24951.24951,0,0,0-.37009-.25933,3.93683,3.93683,0,0,1-5.32911-5.32915Z" fill="none" stroke="#323232" stroke-linecap="round" stroke-linejoin="round" stroke-width="1.5"/><line x1="17" y1="7" x2="21" y2="7" fill="none" stroke="#323232" stroke-linecap="round" stroke-linejoin="round" stroke-width="1.5"/><line x1="17" y1="4" x2="21" y2="4" fill="none" stroke="#323232" stroke-linecap="round" stroke-linejoin="round" stroke-width="1.5"/></svg>