<svg id="Layer_3" data-name="Layer 3" xmlns="http://www.w3.org/2000/svg" viewBox="0 0 24 24"><path d="M21,11v5a5,5,0,0,1-5,5H8a5,5,0,0,1-5-5V8A5,5,0,0,1,8,3h5" fill="none" stroke="#323232" stroke-linecap="round" stroke-linejoin="round" stroke-width="1.5"/><path d="M17.34194,3.39017a.75.75,0,0,1,1.3161,0l.5846,1.069a.74993.74993,0,0,0,.29818.29818l1.069.5846a.75.75,0,0,1,0,1.3161l-1.069.5846a.74993.74993,0,0,0-.29818.29818l-.5846,1.069a.75.75,0,0,1-1.3161,0l-.5846-1.069a.74993.74993,0,0,0-.29818-.29818l-1.069-.5846a.75.75,0,0,1,0-1.3161l1.069-.5846a.74993.74993,0,0,0,.29818-.29818Z" fill="none" stroke="#323232" stroke-linecap="round" stroke-linejoin="round" stroke-width="1.5"/><path d="M11.29445,7.37646a.24952.24952,0,0,0-.25933-.3701A5.13879,5.13879,0,0,0,8.53389,8.38305,5.0102,5.0102,0,1,0,15.617,15.46612a5.13862,5.13862,0,0,0,1.3767-2.50118.24951.24951,0,0,0-.37009-.25933,3.93683,3.93683,0,0,1-5.32911-5.32915Z" fill="none" stroke="#323232" stroke-linecap="round" stroke-linejoin="round" stroke-width="1.5"/><path d="M0,0,24,0l0,24L0,24Z" fill="none"/></svg>