<?xml version="1.0" encoding="UTF-8"?><svg version="1.1" viewBox="0 0 24 24" xmlns="http://www.w3.org/2000/svg" xmlns:xlink="http://www.w3.org/1999/xlink"><!--Generated by IJSVG (https://github.com/iconjar/IJSVG)--><g stroke-linecap="round" stroke-width="1.5" stroke="#323232" fill="none" stroke-linejoin="round"><path d="M12,21v0c-4.971,0 -9,-4.029 -9,-9v0c0,-4.971 4.029,-9 9,-9v0c4.971,0 9,4.029 9,9v0c0,4.971 -4.029,9 -9,9Z"></path><path d="M20.863,10.437c0.863,4.895 -2.406,9.563 -7.3,10.426c-4.895,0.863 -9.563,-2.405 -10.426,-7.3c-0.863,-4.895 2.405,-9.563 7.3,-10.426c4.895,-0.863 9.563,2.405 10.426,7.3"></path></g><path fill="none" d="M20.966,11.216c0.433,4.951 -3.23,9.317 -8.181,9.75c-4.951,0.433 -9.317,-3.23 -9.75,-8.181c-0.433,-4.951 3.23,-9.317 8.181,-9.75c4.951,-0.434 9.317,3.229 9.75,8.181"></path><g stroke-linecap="round" stroke-width="1.5" stroke="#323232" fill="none" stroke-linejoin="round"><path d="M7.045,4.496l1.446,2.19"></path><path d="M16.955,19.504l-1.446,-2.19"></path><path d="M13.678,13.875c-0.441,0.387 -1.017,0.625 -1.649,0.625c-1.381,0 -2.5,-1.119 -2.5,-2.5c0,-1.381 1.119,-2.5 2.5,-2.5c0.633,0 1.209,0.237 1.649,0.625"></path></g><path fill="none" d="M0,0h24v24h-24Z"></path></svg>