<svg id="Layer_3" data-name="Layer 3" xmlns="http://www.w3.org/2000/svg" viewBox="0 0 24 24"><g id="Layer_22" data-name="Layer 22"><rect width="24" height="24" fill="none"/></g><line x1="7.5" y1="3" x2="7.5" y2="6" fill="none" stroke="#323232" stroke-linecap="round" stroke-linejoin="round" stroke-width="1.5"/><line x1="16.5" y1="3" x2="16.5" y2="6" fill="none" stroke="#323232" stroke-linecap="round" stroke-linejoin="round" stroke-width="1.5"/><line x1="12" y1="3" x2="12" y2="6" fill="none" stroke="#323232" stroke-linecap="round" stroke-linejoin="round" stroke-width="1.5"/><path d="M3,17V7.5a3,3,0,0,1,3-3H18a3,3,0,0,1,3,3V18a3,3,0,0,1-3,3H17" fill="none" stroke="#323232" stroke-linecap="round" stroke-linejoin="round" stroke-width="1.5"/><line x1="5.52497" y1="21" x2="2.52497" y2="21" fill="none" stroke="#323232" stroke-linecap="round" stroke-linejoin="round" stroke-width="1.5"/><path d="M11.65863,20.70713l3.07347-3.07348a1,1,0,0,0,0-1.41422l-.92654-.92651a1,1,0,0,0-1.41421,0l-3.0735,3.07349a1,1,0,0,0-.2929.7071V20.75a.25.25,0,0,0,.25.25h1.67656A1.0001,1.0001,0,0,0,11.65863,20.70713Z" fill="none" stroke="#323232" stroke-linecap="round" stroke-linejoin="round" stroke-width="1.5"/></svg>