<svg id="Layer_3" data-name="Layer 3" xmlns="http://www.w3.org/2000/svg" viewBox="0 0 24 24"><path d="M14,9.83449v6.16437a1.5,1.5,0,0,1-1.97434,1.423l-4-1.33333A1.5,1.5,0,0,1,7,14.66553V8.50116a1.5,1.5,0,0,1,1.97434-1.423l4,1.33334A1.5,1.5,0,0,1,14,9.83449Z" fill="none" stroke="#323232" stroke-linecap="round" stroke-linejoin="round" stroke-width="1.5"/><path d="M14,15.5h1.5A1.5,1.5,0,0,0,17,14V8.5A1.5,1.5,0,0,0,15.5,7H8.51783" fill="none" stroke="#323232" stroke-linecap="round" stroke-linejoin="round" stroke-width="1.5"/><rect x="3" y="3.00001" width="18" height="18" rx="5" stroke-width="1.5" stroke="#323232" stroke-linecap="round" stroke-linejoin="round" fill="none"/><path d="M0,0H24V24H0Z" fill="none"/></svg>