<svg xmlns="http://www.w3.org/2000/svg" viewBox="0 0 24 24"><g id="Layer_2" data-name="Layer 2"><path d="M24,24H0V0H24Z" fill="none"/><path d="M20,8V5a2,2,0,0,0-2-2H5A2,2,0,0,0,3,5V19a2,2,0,0,0,2,2h5" fill="none" stroke="#323232" stroke-linecap="round" stroke-linejoin="round" stroke-width="1.5"/><line x1="7" y1="8" x2="12" y2="8" fill="none" stroke="#323232" stroke-linecap="round" stroke-linejoin="round" stroke-width="1.5"/><line x1="7" y1="12" x2="10" y2="12" fill="none" stroke="#323232" stroke-linecap="round" stroke-linejoin="round" stroke-width="1.5"/><line x1="7" y1="16" x2="8" y2="16" fill="none" stroke="#323232" stroke-linecap="round" stroke-linejoin="round" stroke-width="1.5"/><path d="M15,15.99976l-.58544-.58548a1.4144,1.4144,0,0,0-2.00027,0h0a1.41437,1.41437,0,0,0-.17675,1.78462l1.94,2.91038A2.00007,2.00007,0,0,0,15.8418,21h3.79608a2,2,0,0,0,1.98455-1.752l.362-2.89685a2,2,0,0,0-1.66266-2.22186L18,13.75067V11.5A1.5,1.5,0,0,0,16.5,10h0A1.5,1.5,0,0,0,15,11.5Z" fill="none" stroke="#323232" stroke-linecap="round" stroke-linejoin="round" stroke-width="1.5"/></g></svg>