<?xml version="1.0" encoding="UTF-8"?><svg version="1.1" viewBox="0 0 24 24" xmlns="http://www.w3.org/2000/svg" xmlns:xlink="http://www.w3.org/1999/xlink"><g fill="none"><path d="M24 0v24h-24v-24h24Z"></path><path stroke="#323232" stroke-linecap="round" stroke-linejoin="round" stroke-width="1.5" d="M22 17c0 2.761-2.239 5-5 5 -2.761 0-5-2.239-5-5 0-2.761 2.239-5 5-5 2.761 0 5 2.239 5 5"></path><path stroke="#323232" stroke-linecap="round" stroke-linejoin="round" stroke-width="1.5" d="M17 19.65c-.027 0-.05.023-.05.05 0 .027.023.05.05.05 .027 0 .05-.023.05-.05 0-.027-.023-.05-.05-.05v0"></path><path stroke="#323232" stroke-linecap="round" stroke-linejoin="round" stroke-width="1.5" d="M17 17.625c.863 0 1.563-.7 1.563-1.563 0-.863-.699-1.563-1.563-1.563 -.842 0-1.523.666-1.556 1.5"></path><path stroke="#323232" stroke-linecap="round" stroke-linejoin="round" stroke-width="1.5" d="M9 15h-3"></path><path stroke="#323232" stroke-linecap="round" stroke-linejoin="round" stroke-width="1.5" d="M11 11h-5"></path><path stroke="#323232" stroke-linecap="round" stroke-linejoin="round" stroke-width="1.5" d="M16 7h-10"></path><path stroke="#323232" stroke-linecap="round" stroke-linejoin="round" stroke-width="1.5" d="M13 20h-7.875c-1.174 0-2.125-.951-2.125-2.125v-12.75c0-1.174.951-2.125 2.125-2.125h12.75c1.174 0 2.125.951 2.125 2.125v7.875"></path></g></svg>