<?xml version="1.0" encoding="UTF-8"?><svg version="1.1" viewBox="0 0 24 24" xmlns="http://www.w3.org/2000/svg" xmlns:xlink="http://www.w3.org/1999/xlink"><!--Generated by IJSVG (https://github.com/iconjar/IJSVG)--><g stroke-linecap="round" stroke-width="1.5" stroke="#323232" fill="none" stroke-linejoin="round"><path d="M7,5h-2c-0.552,0 -1,0.448 -1,1v15c0,0.552 0.448,1 1,1h14c0.552,0 1,-0.448 1,-1v-15c0,-0.552 -0.448,-1 -1,-1h-2"></path><path d="M8,16h8"></path><path d="M10,19h4"></path><path d="M9,4l0.447,-0.894c0.339,-0.678 1.032,-1.106 1.789,-1.106h1.528c0.758,0 1.45,0.428 1.789,1.106l0.447,0.894h1c0.552,0 1,0.448 1,1v1c0,0.552 -0.448,1 -1,1h-8c-0.552,0 -1,-0.448 -1,-1v-1c0,-0.552 0.448,-1 1,-1h1Z"></path><path d="M10.5,11.5h3"></path><path d="M12,10v3"></path></g><path fill="none" d="M0,0h24v24h-24Z"></path></svg>