<svg xmlns="http://www.w3.org/2000/svg" viewBox="0 0 24 24"><g id="Layer_2" data-name="Layer 2"><path d="M24,24H0V0H24Z" fill="none"/><path d="M16.5,13.59091V15a2,2,0,0,1-2,2h-5a2,2,0,0,1-2-2V9a2,2,0,0,1,2-2h5a2,2,0,0,1,2,2v1.40909" fill="none" stroke="#323232" stroke-linecap="round" stroke-linejoin="round" stroke-width="1.5"/><path d="M15.59091,10.40909h1.27273a.63636.63636,0,0,1,.63636.63636v1.90909a.63636.63636,0,0,1-.63636.63636H15.59091A1.59091,1.59091,0,0,1,14,12v0a1.59091,1.59091,0,0,1,1.59091-1.59091Z" fill="none" stroke="#323232" stroke-linecap="round" stroke-linejoin="round" stroke-width="1.5"/><circle cx="12" cy="12" r="9.5" fill="none" stroke="#323232" stroke-linecap="round" stroke-linejoin="round" stroke-width="1.5"/></g></svg>