<?xml version="1.0" encoding="UTF-8"?><svg version="1.1" viewBox="0 0 24 24" xmlns="http://www.w3.org/2000/svg" xmlns:xlink="http://www.w3.org/1999/xlink"><!--Generated by IJSVG (https://github.com/iconjar/IJSVG)--><g stroke-linecap="round" stroke-width="1.5" stroke="#323232" fill="none" stroke-linejoin="round"><path d="M20,5c0,-1.105 -0.895,-2 -2,-2"></path><path d="M18,3h-12c-1.105,0 -2,0.895 -2,2v14c0,1.105 0.895,2 2,2h12c1.105,0 2,-0.895 2,-2"></path><path d="M8,3v18"></path><path d="M20,14h-2c-1.105,0 -2,-0.895 -2,-2v0c0,-1.105 0.895,-2 2,-2h2c0.552,0 1,0.448 1,1v2c0,0.552 -0.448,1 -1,1Z"></path><path d="M20,5v5"></path><path d="M20,19v-5"></path></g><path fill="none" d="M0,0h24v24h-24v-24Z"></path></svg>