<?xml version="1.0" encoding="UTF-8"?><svg version="1.1" viewBox="0 0 24 24" xmlns="http://www.w3.org/2000/svg" xmlns:xlink="http://www.w3.org/1999/xlink"><!--Generated by IJSVG (https://github.com/iconjar/IJSVG)--><g fill="none"><path d="M0,0h24v24h-24Z"></path><path stroke="#323232" stroke-linecap="round" stroke-linejoin="round" stroke-width="1.4835" d="M21,10.713v8.276c0,1.111 -0.871,2.011 -1.946,2.011h-14.108c-1.075,0 -1.946,-0.9 -1.946,-2.01v-11.98c0,-1.11 0.871,-2.01 1.946,-2.01h5.351"></path><path stroke="#323232" stroke-linecap="round" stroke-linejoin="round" stroke-width="1.5" d="M18.062,3.505c0.672,-0.672 1.762,-0.673 2.434,0v0c0.672,0.672 0.672,1.762 -0.001,2.434l-5.774,5.769c-0.187,0.187 -0.441,0.292 -0.706,0.292h-2.015v-2.015c0,-0.265 0.105,-0.519 0.293,-0.707l5.769,-5.773Z"></path><path stroke="#323232" stroke-linecap="round" stroke-linejoin="round" stroke-width="1.5" d="M8,12h-2"></path><path stroke="#323232" stroke-linecap="round" stroke-linejoin="round" stroke-width="1.5" d="M6,16h12"></path><path stroke="#323232" stroke-linecap="round" stroke-linejoin="round" stroke-width="1.5" d="M19.43,7l-2.43,-2.43"></path></g></svg>