<?xml version="1.0" encoding="UTF-8"?><svg version="1.1" viewBox="0 0 24 24" xmlns="http://www.w3.org/2000/svg" xmlns:xlink="http://www.w3.org/1999/xlink"><g fill="none"><path d="M24 24h-24v-24h24Z"></path><circle cx="5.75" cy="17.25" r="3.75" stroke="#323232" stroke-linecap="round" stroke-linejoin="round" stroke-width="1.5"></circle><path stroke="#323232" stroke-linecap="round" stroke-linejoin="round" stroke-width="1.5" d="M5.25013 13.5474l-2.01924e-07-8.1385e-07c-1.13037-4.55592 1.64659-9.16556 6.20251-10.2959 4.55592-1.13037 9.16556 1.64659 10.2959 6.20251 1.13037 4.55592-1.64659 9.16556-6.20251 10.2959 -2.16878.538095-4.46223.200458-6.38393-.939831"></path><line x1="17.65" x2="9.07" y1="15.51" y2="15.51" stroke="#323232" stroke-linecap="round" stroke-linejoin="round" stroke-width="1.5"></line><path stroke="#323232" stroke-linecap="round" stroke-linejoin="round" stroke-width="1.5" d="M10.8526 7.48257h5.28609l-4.18767e-08 3.7037e-13c.62559-5.54598e-06 1.13273.50713 1.13274 1.13272 2.95515e-11 3.33336e-06 4.43912e-11 6.66669e-06 4.45119e-11 1e-05v0 3.77578l6.62084e-11-1e-05c0 .417059-.338091.755154-.75515.75516h-6.04129l-3.30753e-08-1.77636e-15c-.417059-1.82302e-08-.755154-.338091-.75516-.75515v0 -3.77578l1.24345e-14 1.70331e-07c-9.44614e-08-.62559.50714-1.13273 1.13273-1.13273 1.33336e-05-2.0135e-12 2.66671e-05 2.31402e-10 4.00007e-05 7.00243e-10Z"></path><path stroke="#323232" stroke-linecap="round" stroke-linejoin="round" stroke-width="1.5" d="M6.917 16.6673l-1.458 1.458 -.876-.87525"></path></g></svg>