<?xml version="1.0" encoding="UTF-8"?><svg version="1.1" viewBox="0 0 24 24" xmlns="http://www.w3.org/2000/svg" xmlns:xlink="http://www.w3.org/1999/xlink"><!--Generated by IJSVG (https://github.com/iconjar/IJSVG)--><g fill="none"><path d="M0,0h24v24h-24Z"></path><path stroke="#323232" stroke-linecap="round" stroke-linejoin="round" stroke-width="1.5" d="M20.1172,3.88278c1.17704,1.17704 1.17704,3.0854 0,4.26244c-1.17704,1.17704 -3.0854,1.17704 -4.26244,0c-1.17704,-1.17704 -1.17704,-3.0854 -1.77636e-15,-4.26244c1.17704,-1.17704 3.0854,-1.17704 4.26244,-1.33227e-15"></path><path stroke="#323232" stroke-linecap="round" stroke-linejoin="round" stroke-width="1.5" d="M19,13v6c0,1.105 -0.895,2 -2,2h-12c-1.105,0 -2,-0.895 -2,-2v-12c0,-1.105 0.895,-2 2,-2h6"></path><path stroke="#323232" stroke-linecap="round" stroke-linejoin="round" stroke-width="1.5" d="M7,17h8"></path><path stroke="#323232" stroke-linecap="round" stroke-linejoin="round" stroke-width="1.5" d="M7,13h8"></path><path stroke="#323232" stroke-linecap="round" stroke-linejoin="round" stroke-width="1.5" d="M7,9h4"></path></g></svg>