<?xml version="1.0" encoding="UTF-8"?><svg version="1.1" viewBox="0 0 24 24" xmlns="http://www.w3.org/2000/svg" xmlns:xlink="http://www.w3.org/1999/xlink"><g fill="none"><path d="M0 0h24v24h-24Z"></path><line x1="16.4" x2="7.6" y1="16.25" y2="16.25" stroke="#323232" stroke-linecap="round" stroke-linejoin="round" stroke-width="1.5"></line><path stroke="#323232" stroke-linecap="round" stroke-linejoin="round" stroke-width="1.5" d="M9.2 7.75h5.6l-5.24537e-08 1.77636e-15c.662742-2.89694e-08 1.2.537258 1.2 1.2 0 0 0 1.77636e-15 0 1.77636e-15v4 0c0 .441828-.358172.8-.8.8 0 0-1.77636e-15 0-1.77636e-15 0h-6.4l-3.49691e-08-1.77636e-15c-.441828-1.93129e-08-.8-.358172-.8-.8 0 0 0 0 0 0v-4l1.06581e-14-9.37722e-08c1.00071e-07-.662742.537258-1.2 1.2-1.2Z"></path><circle cx="12" cy="12" r="9" stroke="#323232" stroke-linecap="round" stroke-linejoin="round" stroke-width="1.5"></circle></g></svg>