<?xml version="1.0" encoding="UTF-8"?><svg version="1.1" viewBox="0 0 24 24" xmlns="http://www.w3.org/2000/svg" xmlns:xlink="http://www.w3.org/1999/xlink"><g fill="none"><path d="M0 0h24v24h-24Z"></path><path stroke="#323232" stroke-linecap="round" stroke-linejoin="round" stroke-width="1.5" d="M17 3l-1.74846e-07 4.44089e-15c2.20914-9.65645e-08 4 1.79086 4 4 9.65645e-08 2.20914-1.79086 4-4 4 -2.20914 9.65645e-08-4-1.79086-4-4l4.61853e-14 6.03983e-07c-3.33571e-07-2.20914 1.79086-4 4-4"></path><path stroke="#323232" stroke-linecap="round" stroke-linejoin="round" stroke-width="1.5" d="M19 14v3 0c0 2.20914-1.79086 4-4 4h-8l-1.74846e-07-3.55271e-15c-2.20914-9.65645e-08-4-1.79086-4-4 0 0 0 0 0 0v-8l4.52971e-14 6.03983e-07c-3.33571e-07-2.20914 1.79086-4 4-4h3"></path><path stroke="#323232" stroke-linecap="round" stroke-linejoin="round" stroke-width="1.5" d="M18.556 6.223l-1.945 1.944 -1.167-1.167"></path></g></svg>