<?xml version="1.0" encoding="UTF-8"?><svg version="1.1" viewBox="0 0 24 24" xmlns="http://www.w3.org/2000/svg" xmlns:xlink="http://www.w3.org/1999/xlink"><g fill="none"><path d="M0 0h24v24h-24Z"></path><rect width="18" height="18" x="3" y="3" rx="2.7614" ry="0" stroke="#323232" stroke-linecap="round" stroke-linejoin="round" stroke-width="1.5"></rect><path stroke="#323232" stroke-linecap="round" stroke-linejoin="round" stroke-width="1.5" d="M10 14.479h-1.5l-6.55671e-08-1.77636e-15c-.828427-3.62117e-08-1.5-.671573-1.5-1.5 0 0 0-1.77636e-15 0-1.77636e-15v-4.356l1.68754e-14 2.26494e-07c-1.25089e-07-.828427.671573-1.5 1.5-1.5h1.5l-6.55671e-08 8.88178e-16c.828427-3.62117e-08 1.5.671573 1.5 1.5v4.356l1.77636e-15 6.55671e-08c0 .828427-.671573 1.5-1.5 1.5 -2.03192e-08 0-4.52479e-08 0-6.55671e-08-1.77636e-15Z"></path><path stroke="#323232" stroke-linecap="round" stroke-linejoin="round" stroke-width="1.5" d="M14.472 13.314l1.42109e-14 1.9252e-07c-1.06326e-07-.704163.570837-1.275 1.275-1.275 .704163-1.06326e-07 1.275.570837 1.275 1.275 0 0 0 1.77636e-15 0 1.77636e-15 0 1.592-2.548 1.592-2.548 3.479h2.548"></path></g></svg>