<?xml version="1.0" encoding="UTF-8"?><svg version="1.1" viewBox="0 0 24 24" xmlns="http://www.w3.org/2000/svg" xmlns:xlink="http://www.w3.org/1999/xlink"><g stroke-linecap="round" stroke-width="1.5" stroke="#323232" fill="none" stroke-linejoin="round"><circle cx="9" cy="15" r="6"></circle><line x1="20" x2="21" y1="4" y2="3"></line><line x1="17" x2="16" y1="4" y2="3"></line><line x1="17" x2="16" y1="7" y2="8"></line><line x1="21" x2="20" y1="8" y2="7"></line><path d="M21 12v5.667 3.55271e-15c0 1.84077-1.49223 3.333-3.333 3.333 0 0 0 0 0 0h-1.667"></path><path d="M12 3h-5.667l-1.4569e-07 2.66454e-15c-1.84077 8.04624e-08-3.333 1.49224-3.333 3.333 0 0 0 1.77636e-15 0 1.77636e-15v1.667"></path></g><rect width="24" height="24" fill="none"></rect></svg>