<?xml version="1.0" encoding="UTF-8"?><svg version="1.1" viewBox="0 0 24 24" xmlns="http://www.w3.org/2000/svg" xmlns:xlink="http://www.w3.org/1999/xlink"><g fill="none"><path d="M0 24v-24h24v24Z"></path><path stroke="#323232" stroke-linecap="round" stroke-linejoin="round" stroke-width="1.5" d="M21 10v-2.765 0c0-2.33893-1.89607-4.235-4.235-4.235 0 0-3.55271e-15 0-3.55271e-15 0h-9.53l-1.85118e-07 3.55271e-15c-2.33893 1.02238e-07-4.235 1.89607-4.235 4.235 0 0 0 1.77636e-15 0 1.77636e-15v9.53l4.44089e-14 4.54349e-07c3.53168e-07 2.33893 1.89607 4.235 4.235 4.235h2.765"></path><polyline stroke="#323232" stroke-linecap="round" stroke-linejoin="round" stroke-width="1.5" points="21,14 16.966,17.948 15.641,16.623"></polyline><path stroke="#323232" stroke-linecap="round" stroke-linejoin="round" stroke-width="1.5" d="M18 13h-3l-8.74228e-08 1.77636e-15c-1.10457 4.82823e-08-2 .895431-2 2 0 0 0 0 0 0v4l2.30926e-14 3.01992e-07c1.66785e-07 1.10457.895431 2 2 2h4l-8.74228e-08-3.55271e-15c1.10457 4.82823e-08 2-.89543 2-2v-1"></path></g></svg>