<svg id="Layer_3" data-name="Layer 3" xmlns="http://www.w3.org/2000/svg" viewBox="0 0 24 24"><path d="M24,0V24H0V0Z" fill="none"/><line x1="16" y1="17.5" x2="16" y2="20" fill="none" stroke="#323232" stroke-linecap="round" stroke-linejoin="round" stroke-width="1.5"/><path d="M7.7129,17.46437,3.53313,13.2846a1.82024,1.82024,0,0,1,0-2.5742L7.7129,6.53063a1.82024,1.82024,0,0,1,2.5742,0l4.17977,4.17977a1.82024,1.82024,0,0,1,0,2.5742L10.2871,17.46437A1.82024,1.82024,0,0,1,7.7129,17.46437Z" fill="none" stroke="#323232" stroke-linecap="round" stroke-linejoin="round" stroke-width="1.5"/><path d="M16,19.49A7.99674,7.99674,0,0,0,16,4.662" fill="none" stroke="#323232" stroke-linecap="round" stroke-linejoin="round" stroke-width="1.5"/><line x1="18.5" y1="20" x2="16" y2="20" fill="none" stroke="#323232" stroke-linecap="round" stroke-linejoin="round" stroke-width="1.5"/><line x1="18.5" y1="4" x2="16" y2="4" fill="none" stroke="#323232" stroke-linecap="round" stroke-linejoin="round" stroke-width="1.5"/><line x1="16" y1="6.5" x2="16" y2="4" fill="none" stroke="#323232" stroke-linecap="round" stroke-linejoin="round" stroke-width="1.5"/></svg>