<?xml version="1.0" encoding="UTF-8"?><svg version="1.1" viewBox="0 0 24 24" xmlns="http://www.w3.org/2000/svg" xmlns:xlink="http://www.w3.org/1999/xlink"><g fill="none"><rect width="24" height="24"></rect><path stroke="#323232" stroke-linecap="round" stroke-linejoin="round" stroke-width="1.5" d="M21 15v1 0c0 2.76142-2.23858 5-5 5h-8l-2.18557e-07-7.10543e-15c-2.76142-1.20706e-07-5-2.23858-5-5 0 0 0-1.77636e-15 0-1.77636e-15v-8l5.68434e-14 7.54979e-07c-4.16963e-07-2.76142 2.23858-5 5-5h1"></path><line x1="16" x2="16" y1="8.42" y2="10.16" stroke="#323232" stroke-linecap="round" stroke-linejoin="round" stroke-width="1.5"></line><circle cx="16" cy="8" r="5" stroke="#323232" stroke-linecap="round" stroke-linejoin="round" stroke-width="1.5"></circle><path stroke="#323232" stroke-linecap="round" stroke-linejoin="round" stroke-width="1.5" d="M15.983 5.78h-2.14186e-09c-.027062 1.18292e-09-.049.021938-.049.049 1.18292e-09.027062.021938.049.049.049 .027062-1.18292e-09.049-.021938.049-.049 0 0 0 0 0 0v0c0-.027062-.021938-.049-.049-.049"></path></g></svg>