<?xml version="1.0" encoding="UTF-8"?><svg version="1.1" viewBox="0 0 24 24" xmlns="http://www.w3.org/2000/svg" xmlns:xlink="http://www.w3.org/1999/xlink"><g fill="none"><path d="M24 24h-24v-24h24Z"></path><path stroke="#323232" stroke-linecap="round" stroke-linejoin="round" stroke-width="1.5" d="M10 3.5h-5l-8.74228e-08 1.77636e-15c-1.10457 4.82823e-08-2 .895431-2 2 0 0 0 8.88178e-16 0 8.88178e-16v5l2.30926e-14 3.01992e-07c1.66785e-07 1.10457.895431 2 2 2h5l-8.74228e-08-1.77636e-15c1.10457 4.82823e-08 2-.89543 2-2v-5l7.10543e-15-1.74846e-07c0-1.10457-.895431-2-2-2 -1.58946e-07 0-3.17891e-07 1.86517e-14-4.76837e-07 5.68434e-14Z"></path><line x1="6" x2="9" y1="6.62" y2="6.62" stroke="#323232" stroke-linecap="round" stroke-linejoin="round" stroke-width="1.5"></line><line x1="7.5" x2="7.5" y1="6.62" y2="9.38" stroke="#323232" stroke-linecap="round" stroke-linejoin="round" stroke-width="1.5"></line><line x1="21" x2="15" y1="12" y2="12" stroke="#323232" stroke-linecap="round" stroke-linejoin="round" stroke-width="1.5"></line><line x1="21" x2="15" y1="8" y2="8" stroke="#323232" stroke-linecap="round" stroke-linejoin="round" stroke-width="1.5"></line><line x1="21" x2="15" y1="4" y2="4" stroke="#323232" stroke-linecap="round" stroke-linejoin="round" stroke-width="1.5"></line><line x1="21" x2="3" y1="20" y2="20" stroke="#323232" stroke-linecap="round" stroke-linejoin="round" stroke-width="1.5"></line><line x1="21" x2="3" y1="16" y2="16" stroke="#323232" stroke-linecap="round" stroke-linejoin="round" stroke-width="1.5"></line></g></svg>