<?xml version="1.0" encoding="UTF-8"?><svg version="1.1" viewBox="0 0 24 24" xmlns="http://www.w3.org/2000/svg" xmlns:xlink="http://www.w3.org/1999/xlink"><!--Generated by IJSVG (https://github.com/iconjar/IJSVG)--><g stroke-linecap="round" stroke-width="1.5" stroke="#323232" fill="none" stroke-linejoin="round"><path d="M6.345,18.992c-0.244,-0.198 -0.481,-0.409 -0.709,-0.636c-3.515,-3.515 -3.515,-9.213 0,-12.728c2.27,-2.27 5.449,-3.065 8.364,-2.403"></path><path d="M4,18.992h2.5v-2.5"></path><path d="M15.663,12.813l-2.851,2.851c-0.449,0.449 -1.177,0.449 -1.626,0l-2.851,-2.851c-0.449,-0.449 -0.449,-1.177 0,-1.626l2.851,-2.851c0.449,-0.449 1.177,-0.449 1.626,0l2.851,2.851c0.449,0.449 0.449,1.177 0,1.626Z"></path><path d="M17.654,5.008c0.244,0.198 0.481,0.409 0.709,0.636c3.515,3.515 3.515,9.213 0,12.728c-2.27,2.27 -5.449,3.065 -8.364,2.403"></path><path d="M20,5.008h-2.5v2.5"></path></g><path fill="none" d="M24,24h-24v-24h24v24Z"></path></svg>