<?xml version="1.0" encoding="UTF-8"?><svg version="1.1" viewBox="0 0 24 24" xmlns="http://www.w3.org/2000/svg" xmlns:xlink="http://www.w3.org/1999/xlink"><g stroke-linecap="round" stroke-width="1.5" stroke="#323232" fill="none" stroke-linejoin="round"><path d="M18.364 5.635l-9.34408e-08-9.34264e-08c-3.25505-3.25454-8.44119-3.5285-12.021-.635"></path><path d="M18.364 18.365l-4.69094e-08 4.68941e-08c3.51529-3.51414 3.51622-9.21263.0020782-12.7279 -.00069259-.000692816-.00138529-.00138552-.00207811-.00207811"></path><path d="M6.343 19l1.02763e-07 8.30477e-08c3.58006 2.89323 8.76622 2.61885 12.021-.636"></path><path d="M13.757 10.5l8.14151e-08 8.14673e-08c.828052.828583.828052 2.17142-1.6283e-07 3"></path><circle cx="7" cy="12" r="4"></circle><path d="M15.757 9l-4.32224e-08-4.32094e-08c1.65685 1.65635 1.65726 4.34224.000906223 5.99909 -.000302.000302091-.000604046.000604137-.000906137.000906137"></path></g><rect width="24" height="24" fill="none"></rect></svg>