<?xml version="1.0" encoding="UTF-8"?><svg version="1.1" viewBox="0 0 24 24" xmlns="http://www.w3.org/2000/svg" xmlns:xlink="http://www.w3.org/1999/xlink"><g fill="none"><path d="M9.49 20.638l-1.69419e-07-4.96659e-08c.815284.239004 1.66041.36089 2.51.362"></path><polyline stroke="#323232" stroke-linecap="round" stroke-linejoin="round" stroke-width="1.5" points="21,14 16.966,17.948 15.641,16.623"></polyline><path stroke="#323232" stroke-linecap="round" stroke-linejoin="round" stroke-width="1.5" d="M18 13h-3l-8.74228e-08 1.77636e-15c-1.10457 4.82823e-08-2 .895431-2 2 0 0 0 0 0 0v4l2.30926e-14 3.01992e-07c1.66785e-07 1.10457.895431 2 2 2h4l-8.74228e-08-3.55271e-15c1.10457 4.82823e-08 2-.89543 2-2v-1"></path><path stroke="#323232" stroke-linecap="round" stroke-linejoin="round" stroke-width="1.5" d="M20.638 9.49l4.69817e-07 1.62261e-06c-1.38241-4.77446-6.37354-7.52425-11.148-6.14183 -4.77446 1.38241-7.52425 6.37354-6.14183 11.148 .858522 2.96509 3.17674 5.28331 6.14183 6.14183"></path><rect width="24" height="24"></rect></g></svg>