<?xml version="1.0" encoding="UTF-8"?><svg version="1.1" viewBox="0 0 24 24" xmlns="http://www.w3.org/2000/svg" xmlns:xlink="http://www.w3.org/1999/xlink"><g stroke-linecap="round" stroke-width="1.5" stroke="#323232" fill="none" stroke-linejoin="round"><path d="M17 21c2.209 0 4-1.791 4-4 0 0 0-3 0-3v-7c0-2.209-1.791-4-4-4h-10c-2.209 0-4 1.791-4 4v10c0 2.209 1.791 4 4 4 0 0 10 0 10 0Z"></path><path d="M21 10h-8c-1.657 0-3 1.343-3 3v8"></path><line x1="14" x2="17" y1="15.5" y2="15.5"></line><line x1="15.5" x2="15.5" y1="17" y2="14"></line></g><path fill="none" d="M0 0h24v24h-24v-24Z"></path></svg>