<svg viewBox="0 0 24 24" xmlns="http://www.w3.org/2000/svg"><g fill="none"><path d="M0 0h24v24H0Z"/><g stroke-linecap="round" stroke-width="1.5" stroke="#323232" fill="none" stroke-linejoin="round"><path d="M17 3a4 4 0 1 0 0 8 4 4 0 1 0 0-8Z"/><path d="M16.9 5.65V7.2l1.22.74"/><path d="M7.5 10l0 2"/><path d="M4.9 15v-2l0 0c-.01-.56.44-1.01.99-1.01h3l-.01 0c.55-.01 1 .44 1 .99v2"/><path d="M6 18l3.27 0"/><path d="M6 21l3 0"/><path d="M12 21v-5.07l0 0c0-.52-.42-.94-.94-.94H3.92l-.01 0c-.52 0-.94.41-.94.93v5.06"/><path d="M16 21h2l-.01-.001c1.65 0 3-1.35 3-3v-5"/><path d="M3 9V7l0 0c-.01-1.66 1.34-3.01 2.99-3.01h4"/></g></g></svg>