<?xml version="1.0" encoding="UTF-8"?><svg version="1.1" viewBox="0 0 24 24" xmlns="http://www.w3.org/2000/svg" xmlns:xlink="http://www.w3.org/1999/xlink"><g stroke-linecap="round" stroke-width="1.5" stroke="#323232" fill="none" stroke-linejoin="round"><circle cx="12" cy="12" r="9"></circle><line x1="12" x2="12" y1="6.5" y2="9"></line><path d="M9.5 12v-2l1.06581e-14 1.50996e-07c-8.33927e-08-.552285.447715-1 1-1h3l-4.37114e-08 1.77636e-15c.552285-2.41411e-08 1 .447715 1 1v2"></path><path d="M7 19.483v-6.483l1.06581e-14 1.50996e-07c-8.33927e-08-.552285.447715-1 1-1h8l-4.37114e-08 1.77636e-15c.552285-2.41411e-08 1 .447715 1 1v6.483"></path><line x1="9.5" x2="14.5" y1="15.25" y2="15.25"></line><line x1="9.5" x2="14.5" y1="17.75" y2="17.75"></line></g><path fill="none" d="M0 0h24v24h-24Z"></path></svg>