<svg id="Layer_3" data-name="Layer 3" xmlns="http://www.w3.org/2000/svg" viewBox="0 0 24 24"><path d="M0,0H24V24H0Z" fill="none"/><rect x="11.5" y="11.00001" width="10" height="10" rx="2.5" stroke-width="1.5" stroke="#323232" stroke-linecap="round" stroke-linejoin="round" fill="none"/><path d="M14.5,14.5l1.25,1.25L14.5,17" fill="none" stroke="#323232" stroke-linecap="round" stroke-linejoin="round" stroke-width="1.5"/><path d="M8,15.03148a5.69713,5.69713,0,0,0-3.49287.82965A1.01353,1.01353,0,0,1,3,14.96289l.00009-9.32795a1.4334,1.4334,0,0,1,.45474-1.07838A6.05044,6.05044,0,0,1,12,5V5a6.05047,6.05047,0,0,1,8.54515-.44345A1.43345,1.43345,0,0,1,20.99992,5.635L21,8" fill="none" stroke="#323232" stroke-linecap="round" stroke-linejoin="round" stroke-width="1.5"/><path d="M17.5,17.5h1" fill="none" stroke="#323232" stroke-linecap="round" stroke-linejoin="round" stroke-width="1.5"/></svg>