<svg xmlns="http://www.w3.org/2000/svg" viewBox="0 0 24 24"><g id="Layer_2" data-name="Layer 2"><path d="M21,5.00153V16.66667A2,2,0,0,1,19.63246,18.564l-7,2.33334a2.00009,2.00009,0,0,1-1.26492,0l-7-2.33334A2,2,0,0,1,3,16.66667V5.00153A2,2,0,0,1,5.63246,3.10417l5.73508,1.91169a2,2,0,0,0,1.26492,0l5.73508-1.91169A2,2,0,0,1,21,5.00153Z" fill="none" stroke="#323232" stroke-linecap="round" stroke-linejoin="round" stroke-width="1.5"/><line x1="12" y1="9" x2="12" y2="17" fill="none" stroke="#323232" stroke-linecap="round" stroke-linejoin="round" stroke-width="1.5"/><path d="M0,0H24V24H0Z" fill="none"/></g></svg>