<?xml version="1.0" encoding="UTF-8"?><svg version="1.1" viewBox="0 0 24 24" xmlns="http://www.w3.org/2000/svg" xmlns:xlink="http://www.w3.org/1999/xlink"><g stroke-linecap="round" stroke-width="1.5" stroke="#323232" fill="none" stroke-linejoin="round"><line x1="12.21" x2="16" y1="12.21" y2="16"></line><line x1="10.5" x2="10.5" y1="13.04" y2="17.68"></line><path d="M3.716 16.662l8.15208e-08-8.32308e-08c.351391-.358762.916697-.394983 1.311-.0839998l-9.60893e-08-7.75887e-08c3.5295 2.84994 8.70106 2.29905 11.551-1.23044 2.43104-3.01071 2.43104-7.30985-2.76863e-06-10.3206l-1.25603e-08-1.59256e-08c-.310983-.394303-.274762-.959609.084-1.311l.423-.424 2.58435e-09-2.54092e-09c.398939-.392235 1.04031-.3868 1.43255.0121392 .023738.0241438.0462507.0494625.0674531.0758608l9.60562e-08 1.18712e-07c3.7561 4.642 3.03794 11.45-1.60406 15.2061 -3.96572 3.20888-9.63479 3.20926-13.6009.000897031l-5.55161e-08-4.45891e-08c-.436192-.350338-.505791-.987947-.155453-1.42414 .0212024-.0263983.0437151-.0517171.0674531-.0758608Z"></path><path d="M8.172 12.206l-1.20262e-08-1.20262e-08c1.11396 1.11396 2.92004 1.11396 4.034 2.40525e-08 1.11396-1.11396 1.11396-2.92004 2.40525e-08-4.034 0 0-1.77636e-15-1.77636e-15-1.77636e-15-1.77636e-15"></path><line x1="16.66" x2="3.72" y1="3.72" y2="16.66"></line><line x1="13.04" x2="17.68" y1="10.5" y2="10.5"></line></g><g transform="matrix(1 0 0 1 24 24)"><rect width="24" height="24" fill="none" transform="matrix(-1 -1.22465e-16 1.22465e-16 -1 0 0)"></rect></g></svg>