<?xml version="1.0" encoding="UTF-8"?><svg version="1.1" viewBox="0 0 24 24" xmlns="http://www.w3.org/2000/svg" xmlns:xlink="http://www.w3.org/1999/xlink"><g stroke-linecap="round" stroke-width="1.5" stroke="#323232" fill="none" stroke-linejoin="round"><path d="M9.45 15h-1.2c-.663 0-1.2-.537-1.2-1.2v-3.6c0-.663.537-1.2 1.2-1.2h1.2c.663 0 1.2.537 1.2 1.2v3.6c1.77636e-15.663-.537 1.2-1.2 1.2Z"></path><path d="M16.95 10.2v0c0-.663-.537-1.2-1.2-1.2h-1.2c-.663 0-1.2.537-1.2 1.2v.335c0 .517.331.975.821 1.138l1.959.653c.49.163.821.622.821 1.138v.336c0 .663-.537 1.2-1.2 1.2h-1.2c-.663 0-1.2-.537-1.2-1.2v0"></path><path d="M14 21h-4c-3.866 0-7-3.134-7-7v-4c0-3.866 3.134-7 7-7h4c3.866 0 7 3.134 7 7v4c0 3.866-3.134 7-7 7Z"></path></g><path fill="none" d="M0 0h24v24h-24Z"></path></svg>