<?xml version="1.0" encoding="UTF-8"?><svg version="1.1" viewBox="0 0 24 24" xmlns="http://www.w3.org/2000/svg" xmlns:xlink="http://www.w3.org/1999/xlink"><g fill="none"><path d="M0 0h24v24h-24Z"></path><path stroke="#323232" stroke-linecap="round" stroke-linejoin="round" stroke-width="1.5" d="M12 10v3.222"></path><path stroke="#323232" stroke-linecap="round" stroke-linejoin="round" stroke-width="1.5" d="M15.5 15.975v-1.975h1.77636e-15c0-.429678-.348322-.778-.778-.778 0 0 0 0 0 0h-5.444l-3.40075e-08 1.77636e-15c-.429678 1.87818e-08-.778.348322-.778.778v1.975"></path><path stroke="#323232" stroke-linecap="round" stroke-linejoin="round" stroke-width="1.5" d="M9.5 17h5 -4.37114e-08c.552285 2.41411e-08 1-.447715 1-1v-3.565l4.68751e-08.000530949c0-.405224-.0819038-.806268-.240792-1.17904l-.278-.649 -8.0004e-09-1.87468e-08c-.157157-.368256-.51882-.607273-.919208-.607488h-4.124l5.1342e-08 2.36948e-11c-.400559-.000184872-.76258.23867-.92.607l-.277.648 -1.56109e-07 3.66076e-07c-.158954.372747-.240928.773776-.241 1.179v3.566l1.06581e-14 1.50996e-07c8.33927e-08.552285.447715 1 1 1Z"></path><path stroke="#323232" stroke-linecap="round" stroke-linejoin="round" stroke-width="1.5" d="M3 18v0l3.37508e-14 4.52987e-07c2.50178e-07 1.65685 1.34315 3 3 3h12l-1.31134e-07-3.55271e-15c1.65685 7.24234e-08 3-1.34315 3-3v0 -7.334l7.70307e-08.00012449c-.00055318-.925018-.427802-1.79806-1.1579-2.36605l-6-4.667 1.37731e-07 1.0714e-07c-1.0834-.842776-2.6006-.842776-3.684-2.14281e-07l-6 4.667 7.8591e-08-6.11305e-08c-.730139.567925-1.15746 1.44092-1.1581 2.36592Z"></path></g></svg>