<?xml version="1.0" encoding="UTF-8"?><svg version="1.1" viewBox="0 0 24 24" xmlns="http://www.w3.org/2000/svg" xmlns:xlink="http://www.w3.org/1999/xlink"><g stroke-linecap="round" stroke-width="1.5" stroke="#323232" fill="none" stroke-linejoin="round"><path d="M9.143 3.223l12.057 6.223 7.07025e-09 3.64863e-09c.490787.253272.68333.856451.430058 1.34724 -.0931048.180417-.238919.328221-.418058.423762l-4.5 2.4 1.08838e-07-5.8064e-08c-.579612.309217-1.27412.314077-1.858.0130001l-12.054-6.225 -8.47583e-08-4.37398e-08c-.490787-.253272-.68333-.856451-.430058-1.34724 .0931048-.180417.238919-.328221.418058-.423762l4.5-2.4 -3.37722e-08 1.79341e-08c.579141-.307541 1.27225-.311651 1.855-.011Z"></path><path d="M14.857 3.223l-12.057 6.223 -8.47583e-08 4.37398e-08c-.490787.253272-.68333.856451-.430058 1.34724 .0931048.180417.238919.328221.418058.423762l4.5 2.4 -2.63103e-07-1.40363e-07c.579612.309217 1.27412.314077 1.858.0130003l12.054-6.225 7.07025e-09-3.64863e-09c.490787-.253272.68333-.856451.430058-1.34724 -.0931048-.180417-.238919-.328221-.418058-.423762l-4.5-2.4 1.26121e-08 6.69741e-09c-.579141-.307541-1.27225-.311651-1.855-.011Z"></path><path d="M19.105 12.341v3.936l1.00006e-08.000200006c0 .738767-.407253 1.41737-1.05918 1.76489l-5.1 2.723 1.10468e-07-5.89019e-08c-.588142.3136-1.29386.3136-1.882 1.17804e-07l-5.1-2.723 -6.43714e-08-3.43231e-08c-.651888-.34759-1.05907-1.02623-1.059-1.765v-3.93609"></path><line x1="12" x2="12" y1="21" y2="12.15"></line></g><path fill="none" d="M0 0h24v24h-24Z"></path></svg>