<svg id="Layer_3" data-name="Layer 3" xmlns="http://www.w3.org/2000/svg" viewBox="0 0 24 24"><path d="M24,0H0V24H24Z" fill="none"/><line x1="2" y1="11.00001" x2="4" y2="11.00001" fill="none" stroke="#323232" stroke-linecap="round" stroke-linejoin="round" stroke-width="1.5"/><line x1="3" y1="14.00001" x2="4" y2="14.00001" fill="none" stroke="#323232" stroke-linecap="round" stroke-linejoin="round" stroke-width="1.5"/><rect x="7" y="7.50001" width="10" height="9" rx="2" stroke-width="1.5" stroke="#323232" stroke-linecap="round" stroke-linejoin="round" fill="none"/><path d="M13.5,7.5V11L12,10.5l-1.5.5V7.5" fill="none" stroke="#323232" stroke-linecap="round" stroke-linejoin="round" stroke-width="1.5"/><path d="M3,8V6.5A3.5,3.5,0,0,1,6.5,3h11A3.5,3.5,0,0,1,21,6.5v11A3.5,3.5,0,0,1,17.5,21H6.5A3.5,3.5,0,0,1,3,17.5V17" fill="none" stroke="#323232" stroke-linecap="round" stroke-linejoin="round" stroke-width="1.5"/></svg>