<?xml version="1.0" encoding="UTF-8"?><svg version="1.1" viewBox="0 0 24 24" xmlns="http://www.w3.org/2000/svg" xmlns:xlink="http://www.w3.org/1999/xlink"><g stroke-linecap="round" stroke-width="1.5" stroke="#323232" fill="none" stroke-linejoin="round"><path d="M21 15v4.286l-1.52906e-08 2.58956e-05c-.000565959.946387-.767638 1.71344-1.71403 1.71397h-4.28597"></path><path d="M3 9v-4.286l1.53776e-08-2.6041e-05c.000566039-.946387.767639-1.71344 1.71403-1.71397h4.28597"></path><path d="M3.941 19.984h-1.382 -2.44347e-08c-.308727-1.34949e-08-.559-.250273-.559-.559 0 0 0 0 0 0v-4.382l6.66134e-15-8.44067e-08c4.66165e-08-.308727.250273-.559.559-.559h1.382l-1.18395e-08-1.90433e-10c.314209.00505389.564829.263868.559776.578077 -.000117608.00731187-.000376163.0146208-.000775522.0219227v4.382l1.4822e-08-2.40601e-07c-.0181258.29423-.264243.522296-.559.518Z"></path><path d="M4.5 18.8l1.082.9 -5.30544e-08-4.39927e-08c.224864.186457.507887.288346.8.288h3.581l-1.1712e-08 1.05373e-11c.449299-.000404149.844086-.298126.968-.73l.732-2.562 -6.48244e-09 2.26557e-08c.110805-.387257.0461007-.803632-.177-1.139l-8.72999e-09-1.31724e-08c-.250693-.378262-.674206-.605788-1.128-.606h-1.51"></path><path d="M8.848 14.947v-1.595l4.0471e-08 7.72473e-06c-.00390404-.745574-.611476-1.34682-1.35705-1.34291 -.466468.00244256-.898623.245527-1.14295.642898l-1.848 3.01701"></path><path d="M17 3v3"></path><path d="M21 6.889v-8.88178e-16c0-.490981-.398019-.889-.889-.889h-6.222l-3.88594e-08 8.88178e-16c-.490981 2.14615e-08-.889.398019-.889.889 0 0 0 1.77636e-15 0 1.77636e-15"></path><path d="M14.143 11h5.714l-4.99621e-08-1.77636e-15c.631261 2.75933e-08 1.143-.511738 1.143-1.143v-4.074l6.03864e-08.000643905c0-.463355-.0937995-.921915-.275747-1.34805l-.317-.741 2.60453e-08 6.10676e-08c-.179645-.421208-.593335-.694545-1.05125-.694592h-4.713l-6.52696e-09 4.43645e-12c-.457604.000311068-.870998.273285-1.051.694l-.316.74 5.19272e-08-1.21555e-07c-.182028.426103-.275913.884645-.276 1.348v4.075l1.24345e-14 1.72588e-07c9.53178e-08.631261.511739 1.143 1.143 1.143Z"></path></g><path fill="none" d="M0 0h24v24h-24Z"></path></svg>