<?xml version="1.0" encoding="UTF-8"?><svg version="1.1" viewBox="0 0 24 24" xmlns="http://www.w3.org/2000/svg" xmlns:xlink="http://www.w3.org/1999/xlink"><g fill="none"><path d="M0 0h24v24h-24Z"></path><path stroke="#323232" stroke-linecap="round" stroke-linejoin="round" stroke-width="1.5" d="M12 6.5v3"></path><path stroke="#323232" stroke-linecap="round" stroke-linejoin="round" stroke-width="1.5" d="M15.5 10.278h1.77636e-15c0-.429678-.348322-.778-.778-.778 0 0 0 0 0 0h-5.444l-3.40075e-08 1.77636e-15c-.429678 1.87818e-08-.778.348322-.778.778 0 0 0 0 0 0"></path><path stroke="#323232" stroke-linecap="round" stroke-linejoin="round" stroke-width="1.5" d="M9.5 13.5h5l-4.37114e-08-1.77636e-15c.552285 2.41411e-08 1-.447715 1-1v-3.565l4.68751e-08.000530949c0-.405224-.0819038-.806268-.240792-1.17904l-.278-.649 2.06756e-08 4.83767e-08c-.157277-.367995-.518804-.606785-.919-.607h-4.12421l5.1342e-08 2.36948e-11c-.400559-.000184872-.76258.23867-.92.607l-.277.648 -8.92348e-10 2.09256e-09c-.158889.372596-.240863.773452-.241 1.17851v3.566l1.06581e-14 1.50996e-07c8.33927e-08.552285.447715 1 1 1 0 0 7.70939e-13 0 7.70939e-13 0Z"></path><path stroke="#323232" stroke-linecap="round" stroke-linejoin="round" stroke-width="1.5" d="M20.993 6.162v7.647l-3.18241e-08-9.64106e-05c.000605618 1.75406-1.42085 3.17649-3.1749 3.1771 -1.04331e-07 3.6021e-11-2.10531e-07 7.26814e-11-3.14861e-07 1.08695e-10h-4.8241l-5 4v-4h-1.825l-1.38827e-07-3.55271e-15c-1.75406-7.66722e-08-3.176-1.42194-3.176-3.176v0 -7.648l3.55271e-14-4.79563e-07c2.64855e-07-1.75406 1.42194-3.176 3.176-3.176h11.648l-1.38827e-07 3.10862e-15c1.75406-7.66722e-08 3.176 1.42194 3.176 3.176Z"></path></g></svg>