<?xml version="1.0" encoding="UTF-8"?><svg version="1.1" viewBox="0 0 24 24" xmlns="http://www.w3.org/2000/svg" xmlns:xlink="http://www.w3.org/1999/xlink"><g fill="none"><path d="M0 0h24v24h-24Z"></path><path stroke="#323232" stroke-linecap="round" stroke-linejoin="round" stroke-width="1.5" d="M13.086 19.768l-.144-1.085v0l-.665-.87 -1.15531e-07-1.51274e-07c-.365918-.479126-.365918-1.14387 2.31061e-07-1.623l.665-.87v0l.145-1.086 -2.23433e-08 1.68561e-07c.0792824-.598118.549881-1.06872 1.148-1.148l1.085-.144v0l.87-.665 -1.14732e-07 8.7623e-08c.479126-.365918 1.14387-.365918 1.623-1.75246e-07l.87.665v0l1.086.145 6.60104e-08 8.82683e-09c.597795.0799365 1.06806.550205 1.148 1.148l.144 1.085v0l.665.87 -2.14148e-08-2.81396e-08c.364888.479473.364888 1.14353 4.28295e-08 1.623l-.665.87v0l-.145 1.086 6.20966e-08-4.60384e-07c-.0805871.597473-.550526 1.06741-1.148 1.148l-1.085.144v0l-.87.665 4.50871e-08-3.43121e-08c-.479473.364888-1.14353.364888-1.623 6.86243e-08l-.87-.665v0l-1.086-.145 -7.89169e-08-1.05067e-08c-.597957-.0796097-1.06839-.550043-1.148-1.148Z"></path><path stroke="#323232" stroke-linecap="round" stroke-linejoin="round" stroke-width="1.5" d="M18.559 16.223l-1.945 1.945 -1.167-1.168"></path><path stroke="#323232" stroke-linecap="round" stroke-linejoin="round" stroke-width="1.5" d="M15 3.077v3.489 0c0 .552285-.447715 1-1 1h-4l-4.37114e-08-8.88178e-16c-.552285-2.41411e-08-1-.447715-1-1 0 0 0 0 0 0v-3.566"></path><path stroke="#323232" stroke-linecap="round" stroke-linejoin="round" stroke-width="1.5" d="M21 10v-5 0c0-1.10457-.895431-2-2-2h-14l-8.74228e-08 1.77636e-15c-1.10457 4.82823e-08-2 .895431-2 2 0 0 0 0 0 0v13l2.30926e-14 3.01992e-07c1.66785e-07 1.10457.895431 2 2 2h5"></path></g></svg>