<svg id="Layer_3" data-name="Layer 3" xmlns="http://www.w3.org/2000/svg" viewBox="0 0 24 24"><path d="M16.5,12v3" fill="none" stroke="#323232" stroke-linecap="round" stroke-linejoin="round" stroke-width="1.5"/><path d="M21,17V16a1,1,0,0,0-1-1H13a1,1,0,0,0-1,1v1" fill="none" stroke="#323232" stroke-linecap="round" stroke-linejoin="round" stroke-width="1.5"/><path d="M19.75,21h-6.5A1.25,1.25,0,0,1,12,19.75V14.9539a3,3,0,0,1,.24134-1.1789l.43427-1.01621A1.25,1.25,0,0,1,13.82505,12H19.174a1.25,1.25,0,0,1,1.14926.75836l.435,1.01679A2.99993,2.99993,0,0,1,21,14.95509V19.75A1.25,1.25,0,0,1,19.75,21Z" fill="none" stroke="#323232" stroke-linecap="round" stroke-linejoin="round" stroke-width="1.5"/><path d="M8.5,3V4.8a.557.557,0,0,0,.5.6h4a.557.557,0,0,0,.5-.6V3" fill="none" stroke="#323232" stroke-linecap="round" stroke-linejoin="round" stroke-width="1.5"/><path d="M9,21H7a2,2,0,0,1-2-2V5A2,2,0,0,1,7,3h8a2,2,0,0,1,2,2V9" fill="none" stroke="#323232" stroke-linecap="round" stroke-linejoin="round" stroke-width="1.5"/><path d="M0,0H24V24H0Z" fill="none"/><path d="M24,24H0V0H24Z" fill="none"/></svg>