<svg id="Layer_3" data-name="Layer 3" xmlns="http://www.w3.org/2000/svg" viewBox="0 0 24 24"><path d="M24,24H0V0H24Z" fill="none"/><path d="M21,11V8a5,5,0,0,0-5-5H8A5,5,0,0,0,3,8v8a5,5,0,0,0,5,5h4" fill="none" stroke="#323232" stroke-linecap="round" stroke-linejoin="round" stroke-width="1.5"/><path d="M17,11V9a2,2,0,0,0-2-2H9A2,2,0,0,0,7,9v6a2,2,0,0,0,2,2h3" fill="none" stroke="#323232" stroke-linecap="round" stroke-linejoin="round" stroke-width="1.5"/><path d="M13.5,7v3.5L12,10l-1.5.5V7" fill="none" stroke="#323232" stroke-linecap="round" stroke-linejoin="round" stroke-width="1.5"/><path d="M15,17.5c0,1.68347,2.11839,2.92962,3.06072,3.40086a.977.977,0,0,0,.87921-.00035C19.88257,20.429,22,19.18575,22,17.5l0-2.397a.5116.5116,0,0,0-.47317-.49442,4.98261,4.98261,0,0,1-2.45661-.91867.97233.97233,0,0,0-1.1404,0,4.98261,4.98261,0,0,1-2.45661.91867A.5116.5116,0,0,0,15,15.103Z" fill="none" stroke="#323232" stroke-linecap="round" stroke-linejoin="round" stroke-width="1.5"/></svg>