<svg id="Layer_3" data-name="Layer 3" xmlns="http://www.w3.org/2000/svg" viewBox="0 0 24 24"><path d="M0,0H24V24H0Z" fill="none"/><path d="M3,8V6A3,3,0,0,1,6,3h5" fill="none" stroke="#323232" stroke-linecap="round" stroke-linejoin="round" stroke-width="1.5"/><path d="M21,13v5a3,3,0,0,1-3,3H16" fill="none" stroke="#323232" stroke-linecap="round" stroke-linejoin="round" stroke-width="1.5"/><path d="M8,11v3.5" fill="none" stroke="#323232" stroke-linecap="round" stroke-linejoin="round" stroke-width="1.5"/><path d="M13,16v-.25a1.25,1.25,0,0,0-1.25-1.25H4.25A1.25,1.25,0,0,0,3,15.75V16" fill="none" stroke="#323232" stroke-linecap="round" stroke-linejoin="round" stroke-width="1.5"/><path d="M11.75,21H4.25A1.25,1.25,0,0,1,3,19.75V14.31623a3.5,3.5,0,0,1,.28156-1.37538l.50515-1.18206A1.25,1.25,0,0,1,4.93615,11h6.12659a1.25,1.25,0,0,1,1.14926.75836l.50592,1.18263A3.50005,3.50005,0,0,1,13,14.31759V19.75A1.25,1.25,0,0,1,11.75,21Z" fill="none" stroke="#323232" stroke-linecap="round" stroke-linejoin="round" stroke-width="1.5"/><circle cx="18" cy="6" r="4" fill="none" stroke="#323232" stroke-linecap="round" stroke-linejoin="round" stroke-width="1.5"/><polyline points="16.75 5.887 17.75 6.887 19.25 5.387" fill="none" stroke="#323232" stroke-linecap="round" stroke-linejoin="round" stroke-width="1.5"/></svg>