<?xml version="1.0" encoding="UTF-8"?><svg version="1.1" viewBox="0 0 24 24" xmlns="http://www.w3.org/2000/svg" xmlns:xlink="http://www.w3.org/1999/xlink"><g stroke-linecap="round" stroke-width="1.5" stroke="#323232" fill="none" stroke-linejoin="round"><path d="M13 21h-7.75l-9.83506e-08-3.55271e-15c-1.24264-5.43175e-08-2.25-1.00736-2.25-2.25 0 0 0 0 0 0v-10.61l-4.19861e-08 8.28829e-05c.000148339-.303852.0617029-.604539.180967-.884006l1.235-2.89 -7.2057e-08 1.68399e-07c.35438-.828193 1.16821-1.36552 2.06903-1.36608h11.029l-9.00258e-08-2.91358e-11c.900875.000291532 1.71481.537671 2.069 1.366l1.235 2.89 3.54301e-08 8.24838e-08c.119963.279283.181884.580043.182.884v3.86"></path><path d="M12 3v5"></path><path d="M7 17h2"></path><path d="M21 13v-3 0c0-1.10457-.895431-2-2-2h-14l-8.74228e-08 1.77636e-15c-1.10457 4.82823e-08-2 .895431-2 2 0 0 0 0 0 0v7"></path><path d="M17 21h1.5l-1.09278e-07-3.55271e-15c1.38071 6.03528e-08 2.5-1.11929 2.5-2.5v0l3.55271e-15-1.09278e-07c0-1.38071-1.11929-2.5-2.5-2.5 -3.38653e-08 0-7.54132e-08 0-1.09278e-07 3.55271e-15h-4.5"></path><polyline points="16,18 14,16 16,14"></polyline></g><path fill="none" d="M0 0h24v24h-24Z"></path></svg>