<?xml version="1.0" encoding="UTF-8"?><svg version="1.1" viewBox="0 0 24 24" xmlns="http://www.w3.org/2000/svg" xmlns:xlink="http://www.w3.org/1999/xlink"><g stroke-linecap="round" stroke-width="1.5" stroke="#323232" fill="none" stroke-linejoin="round"><path d="M20.5 21h-6.5 -2.18557e-08c-.276142-1.20706e-08-.5-.223858-.5-.5 0 0 0 0 0 0v-.406l-3.57907e-08 1.25577e-05c.00328875-1.15512.938871-2.09071 2.09399-2.09401h3.312l1.13854e-07 3.24157e-10c1.15512.00328881 2.09072.938879 2.09401 2.094v.406 0c0 .276142-.223858.5-.5.5 0 0-3.24832e-10 0-3.24832e-10 0Z"></path><path d="M17.25 15.5l-3.32576e-08-6.65139e-11c-1.10457-.00220916-1.99821-.899429-1.996-2.004 .00220916-1.10457.899429-1.99821 2.004-1.996 1.10457.00220916 1.99821.899429 1.996 2.004 -.00220296 1.10147-.894588 1.99383-1.99606 1.996Z"></path><path d="M15 3.077v3.489 0c0 .552285-.447715 1-1 1h-4l-4.37114e-08-8.88178e-16c-.552285-2.41411e-08-1-.447715-1-1 0 0 0 0 0 0v-3.566"></path><path d="M21 9v-4 0c0-1.10457-.895431-2-2-2h-14l-8.74228e-08 1.77636e-15c-1.10457 4.82823e-08-2 .895431-2 2 0 0 0 0 0 0v13l2.30926e-14 3.01992e-07c1.66785e-07 1.10457.895431 2 2 2h5"></path></g><path fill="none" d="M0 0h24v24h-24Z"></path></svg>