<?xml version="1.0" encoding="UTF-8"?><svg version="1.1" viewBox="0 0 24 24" xmlns="http://www.w3.org/2000/svg" xmlns:xlink="http://www.w3.org/1999/xlink"><g fill="none"><path d="M0 0h24v24h-24Z"></path><path stroke="#323232" stroke-linecap="round" stroke-linejoin="round" stroke-width="1.5" d="M15 3.077v3.489 0c0 .552285-.447715 1-1 1h-4l-4.37114e-08-8.88178e-16c-.552285-2.41411e-08-1-.447715-1-1 0 0 0 0 0 0v-3.566"></path><path stroke="#323232" stroke-linecap="round" stroke-linejoin="round" stroke-width="1.5" d="M21 10v-5 0c0-1.10457-.895431-2-2-2h-14l-8.74228e-08 1.77636e-15c-1.10457 4.82823e-08-2 .895431-2 2 0 0 0 0 0 0v13l2.30926e-14 3.01992e-07c1.66785e-07 1.10457.895431 2 2 2h4"></path><path stroke="#323232" stroke-linecap="round" stroke-linejoin="round" stroke-width="1.5" d="M15.707 18.25l2.5-2.5"></path><path stroke="#323232" stroke-linecap="round" stroke-linejoin="round" stroke-width="1.5" d="M18.586 18.559l-1.51771e-09-1.5302e-09c.019446.0196061.0193162.0512641-.000289913.0707101 -.0196061.019446-.0512641.0193162-.0707101-.000289913 -.0193333-.0194925-.0193333-.0509276-3.03541e-09-.0704202v0l4.54009e-09-4.40168e-09c.0197814-.0191783.0512186-.0191783.071 8.80335e-09"></path><path stroke="#323232" stroke-linecap="round" stroke-linejoin="round" stroke-width="1.5" d="M21.958 17l1.61786e-07-.0001016c-.00436217 2.757-2.24289 4.98846-4.99989 4.9841 -2.757-.00436217-4.98846-2.24289-4.9841-4.99989 .00436217-2.757 2.24289-4.98846 4.99989-4.9841 2.75083.0043524 4.97973 2.23325 4.9841 4.98408Z"></path><path stroke="#323232" stroke-linecap="round" stroke-linejoin="round" stroke-width="1.5" d="M15.33 15.441l-1.56046e-09-1.57331e-09c-.019446-.0196061-.0193162-.0512641.000289919-.0707101 .0196061-.019446.0512641-.0193162.0707101.000289919 .0193333.0194925.0193333.0509276-3.12092e-09.0704202v0l-1.19368e-09 1.15729e-09c-.0197814.0191783-.0512186.0191783-.071-2.31458e-09"></path></g></svg>