<?xml version="1.0" encoding="UTF-8"?><svg version="1.1" viewBox="0 0 24 24" xmlns="http://www.w3.org/2000/svg" xmlns:xlink="http://www.w3.org/1999/xlink"><g fill="none"><path d="M0 0h24v24h-24Z"></path><path stroke="#323232" stroke-linecap="round" stroke-linejoin="round" stroke-width="1.5" d="M4.151 16.4l-5.08383e-07-9.06033e-07c-2.43526-4.34009-.891093-9.83261 3.449-12.2679 4.34009-2.43526 9.83261-.891093 12.2679 3.449 2.43526 4.34009.891093 9.83261-3.449 12.2679 -2.73878 1.53675-6.08009 1.53675-8.81887-1.87772e-06l-4.6 1.151Z"></path><path stroke="#323232" stroke-linecap="round" stroke-linejoin="round" stroke-width="1.5" d="M8.307 13.471v-2.939l-9.57866e-09 4.6841e-06c.00076622-.375104.202707-.720964.528996-.906002l2.655-1.492 3.63844e-08-2.0498e-08c.315986-.178018.702014-.178018 1.018 4.0996e-08l2.655 1.492 5.93455e-08 3.35231e-08c.326747.184573.528861.530726.529.906v2.939l-8.75933e-09 1.42504e-06c-.00229375.373126-.204114.716487-.529001.899999l-2.656 1.492 9.2473e-08-5.17682e-08c-.316242.177039-.701758.177039-1.018 1.03536e-07l-2.65499-1.488 4.43532e-09 2.50532e-09c-.326045-.184169-.527764-.529536-.528-.904Z"></path><path stroke="#323232" stroke-linecap="round" stroke-linejoin="round" stroke-width="1.5" d="M12 12v4"></path><path stroke="#323232" stroke-linecap="round" stroke-linejoin="round" stroke-width="1.5" d="M8.449 10.007l3.551 1.993 3.551-1.994"></path></g></svg>