<svg id="Layer_3" data-name="Layer 3" xmlns="http://www.w3.org/2000/svg" viewBox="0 0 24 24"><path d="M0,0H24V24H0Z" fill="none"/><path d="M11,3H6A3,3,0,0,0,3,6V9" fill="none" stroke="#323232" stroke-linecap="round" stroke-linejoin="round" stroke-width="1.5"/><path d="M16,21h2a3,3,0,0,0,3-3V12" fill="none" stroke="#323232" stroke-linecap="round" stroke-linejoin="round" stroke-width="1.5"/><rect x="3" y="12.00001" width="10" height="9" rx="2.25" stroke-width="1.5" stroke="#323232" stroke-linecap="round" stroke-linejoin="round" fill="none"/><path d="M9.5,12v2.5A.5.5,0,0,1,9,15H7a.5.5,0,0,1-.5-.5V12" fill="none" stroke="#323232" stroke-linecap="round" stroke-linejoin="round" stroke-width="1.5"/><path d="M17.501,5.24a.26.26,0,1,1-.261.26.25863.25863,0,0,1,.261-.26" fill="none" stroke="#323232" stroke-linecap="round" stroke-linejoin="round" stroke-width="1.5"/><path d="M14,5.5c0,1.63851,1.788,3.38881,2.808,4.25435a1.09611,1.09611,0,0,0,1.383,0C19.212,8.88882,21,7.13852,21,5.5" fill="none" stroke="#323232" stroke-linecap="round" stroke-linejoin="round" stroke-width="1.5"/><path d="M14,5.5h0A3.5,3.5,0,0,1,17.5,2h0A3.5,3.5,0,0,1,21,5.5h0" fill="none" stroke="#323232" stroke-linecap="round" stroke-linejoin="round" stroke-width="1.5"/></svg>