<?xml version="1.0" encoding="UTF-8"?><svg version="1.1" viewBox="0 0 24 24" xmlns="http://www.w3.org/2000/svg" xmlns:xlink="http://www.w3.org/1999/xlink"><g stroke-linecap="round" stroke-width="1.5" stroke="#323232" fill="none" stroke-linejoin="round"><path d="M5.628 18.355l-3.74965e-07-3.76022e-07c3.50977 3.51966 9.20825 3.52768 12.7279.0179101 3.51966-3.50977 3.52768-9.20825.0179101-12.7279 -1.68877-1.69353-3.98217-2.64524-6.37382-2.645"></path><path d="M3.731 15.375h-2.18557e-09c-.0276142 1.20706e-09-.05.0223858-.05.05 0 0 0 1.77636e-15 0 1.77636e-15l4.44089e-16-7.54979e-09c-4.16963e-09.0276142.0223858.05.05.05 0 0 8.88178e-16 0 8.88178e-16 0l2.0918e-09 1.77636e-15c.0276142 1.20706e-09.05-.0223858.05-.05 1.20706e-09-.0276142-.0223858-.05-.05-.05 -2.87522e-09 0-5.61975e-09 0-8.49497e-09 1.77636e-15"></path><path d="M3.05 11.95h-2.18557e-09c-.0276142 1.20706e-09-.05.0223858-.05.05 1.20706e-09.0276142.0223858.05.05.05 .0276142-1.20706e-09.05-.0223858.05-.05 0 0 0-1.77636e-15 0-1.77636e-15v0c0-.0276142-.0223858-.05-.05-.05 0 0-4.44089e-16 0-4.44089e-16 0"></path><path d="M3.731 8.525h-2.18557e-09c-.0276142 1.20706e-09-.05.0223858-.05.05 0 0 0 1.77636e-15 0 1.77636e-15l4.44089e-16-7.54979e-09c-4.16963e-09.0276142.0223858.05.05.05 0 0 8.88178e-16 0 8.88178e-16 0l2.0918e-09 1.77636e-15c.0276142 1.20706e-09.05-.0223858.05-.05 1.20706e-09-.0276142-.0223858-.05-.05-.05 -2.87522e-09 0-5.61975e-09 0-8.49497e-09 1.77636e-15"></path><path d="M5.671 5.621l-2.86761e-09 5.56968e-11c-.0273908.000532012-.049468.0226092-.05.05v7.54979e-09c4.16963e-09.0276142.0223858.05.05.05h-2.18557e-09c.0276142 1.20706e-09.05-.0223858.05-.05v8.88178e-16c0-.0276142-.0223858-.05-.05-.05"></path><path d="M8.575 3.681h-2.18557e-09c-.0276142 1.20706e-09-.05.0223858-.05.05 0 0 0 4.44089e-16 0 4.44089e-16v-3.27242e-09c-4.16963e-09.0276142.0223858.05.05.05 .0276142 4.16963e-09.05-.0223858.05-.05 1.77636e-15-2.78809e-09 1.77636e-15-5.70688e-09 1.77636e-15-8.49497e-09v0c0-.0276142-.0223858-.05-.05-.05 0 0 0 0 0 0"></path><path d="M8.307 13.471v-2.939l-9.57866e-09 4.6841e-06c.00076622-.375104.202707-.720964.528996-.906002l2.655-1.492 3.63844e-08-2.0498e-08c.315986-.178018.702014-.178018 1.018 4.0996e-08l2.655 1.492 5.93455e-08 3.35231e-08c.326747.184573.528861.530726.529.906v2.939l-8.75933e-09 1.42504e-06c-.00229375.373126-.204114.716487-.529001.899999l-2.656 1.492 9.2473e-08-5.17682e-08c-.316242.177039-.701758.177039-1.018 1.03536e-07l-2.65499-1.488 4.43532e-09 2.50532e-09c-.326045-.184169-.527764-.529536-.528-.904Z"></path><path d="M12 12v4"></path><path d="M8.449 10.007l3.551 1.993 3.551-1.994"></path></g><rect width="24" height="24" fill="none"></rect></svg>