<?xml version="1.0" encoding="UTF-8"?><svg version="1.1" viewBox="0 0 24 24" xmlns="http://www.w3.org/2000/svg" xmlns:xlink="http://www.w3.org/1999/xlink"><g stroke-linecap="round" stroke-width="1.5" stroke="#323232" fill="none" stroke-linejoin="round"><line x1="3.79" x2="20.21" y1="6" y2="6"></line><path d="M8.16542 22l4.11527e-08 3.19744e-14c.483285 4.24409e-07.897415-.345621.98387-.82111l1.77606-9.76833 4.65069e-09-2.55796e-08c.0432256-.237748.250294-.410562.49194-.41056h1.16542l-1.23647e-09 1.24345e-14c.241646-2.19985e-06.448714.172812.49194.41056l1.77606 9.76833 -2.65948e-09-1.46267e-08c.0864548.475489.500585.82111.98387.82111h4.16542l4.26043e-08 9.23706e-14c.552285 1.20922e-06 1-.447713 1-.999998 3.83812e-08-.0175298-.000460866-.0350566-.00138223-.0525622l-.89474-17 2.56168e-09 4.86708e-08c-.0279552-.531137-.466778-.947457-.99865-.94744h-14.2105l-1.08175e-08-2.4869e-14c-.53186-1.1814e-06-.970665.416315-.99862.94744l-.89474 17 5.39358e-09-1.02476e-07c-.0290281.551521.394536 1.02215.946058 1.05118 .0174956.000920844.0350124.00138175.0525322.00138224Z"></path></g><g transform="matrix(1 0 0 1 24 9)"><rect width="4" height="3" x="10" y="3" fill="none" rx=".55228" ry="0" stroke="#323232" stroke-linecap="round" stroke-linejoin="round" stroke-width="1.5" transform="matrix(-1 -1.22465e-16 1.22465e-16 -1 0 0)"></rect></g><g transform="matrix(1 0 0 1 24 24)"><rect width="24" height="24" fill="none" transform="matrix(-1 -1.22465e-16 1.22465e-16 -1 0 0)"></rect></g></svg>