<?xml version="1.0" encoding="UTF-8"?><svg version="1.1" viewBox="0 0 24 24" xmlns="http://www.w3.org/2000/svg" xmlns:xlink="http://www.w3.org/1999/xlink"><g stroke-linecap="round" stroke-width="1.5" stroke="#323232" fill="none" stroke-linejoin="round"><path d="M8.792 17.25v0l-8.92587e-08-3.55271e-15c-1.12777-4.92962e-08-2.042-.914235-2.042-2.042 0 0 0 0 0 0v-7.291l-1.20982e-08-1.42012e-05c-.000544679-.643964.52105-1.16644 1.16501-1.16699 .000666953-5.64123e-07.00133391-5.56e-07.00200086 2.43693e-08h1.75l-3.9145e-08 1.59872e-14c.643964-2.58448e-07 1.166.522036 1.166 1.166 1.33838e-10.000333476-1.42794e-07.000666953-4.28783e-07.00100043v7.291l1.685e-09 3.44493e-06c.000550397 1.12721-.91279 2.04145-2.04 2.042 -.000338158 1.65116e-07-.000676315 2.46192e-07-.00101447 2.43228e-07Z"></path><path d="M10.235 16.652l5.665-5.665 4.45586e-08-4.44807e-08c.455359-.454562.456004-1.1922.00144174-1.64756 -.00048019-.000481031-.0009608-.000961641-.00144183-.00144183l-1.237-1.238 -1.17246e-08-1.16991e-08c-.455926-.454933-1.19407-.454933-1.65 2.33982e-08l-2.18 2.179"></path><rect width="18" height="18" x="3" y="3" rx="2.7614" ry="0"></rect><path d="M13.721 13.167h2.362l-2.68426e-09 2.30216e-12c.643964-.000552286 1.16645.521036 1.167 1.165 2.86001e-07.000333476 4.28941e-07.000666952 4.28819e-07.00100043v1.75l1.21906e-08 1.43105e-05c.000544618.643964-.52105 1.16644-1.16501 1.16699 -.000666953 5.64061e-07-.00133391 5.55875e-07-.00200086-2.45568e-08h-7.29099"></path></g><rect width="24" height="24" fill="none"></rect></svg>