<?xml version="1.0" encoding="UTF-8"?><svg version="1.1" viewBox="0 0 24 24" xmlns="http://www.w3.org/2000/svg" xmlns:xlink="http://www.w3.org/1999/xlink"><path d="M16.68 9.32l-6.387 6.387 3.0874e-08-3.08833e-08c-.187493.187549-.441805.292943-.707.293h-1.586l-4.37114e-08-1.77636e-15c-.552285-2.41411e-08-1-.447715-1-1 0 0 0 0 0 0v-1.586l-5.28173e-10 1.52593e-06c9.16937e-05-.265485.104198-.520368.289999-.71l7.03-7.19 -1.79087e-07 1.83189e-07c1.49952-1.53387 3.95858-1.56172 5.49245-.0621949 .0105749.010338.0210906.0207364.0315466.0311945l.072.072 9.55683e-08 9.48111e-08c1.54673 1.53448 1.55667 4.0323.0221884 5.57903 -.012643.0127439-.0253728.0254014-.0381886.0379716 -2.358 2.309-5.588 5.523-7.438 7.369l8.47266e-08-8.44648e-08c-.937464.934567-2.20727 1.45925-3.531 1.459h-2.931l-1.31134e-07-3.55271e-15c-1.65685-7.24234e-08-3-1.34315-3-3 0 0 0-3.55271e-15 0-3.55271e-15v-2.929l-4.58961e-10 6.69959e-05c2.00195e-07-1.32583.526585-2.59738 1.46395-3.53502l6.21605-6.21605" stroke-linecap="round" stroke-width="1.5" stroke="#323232" fill="none" stroke-linejoin="round"></path><path fill="none" d="M0 0h24v24h-24Z"></path></svg>