<svg xmlns="http://www.w3.org/2000/svg" viewBox="0 0 24 24"><g id="Layer_2" data-name="Layer 2"><rect width="24" height="24" fill="none"/><path d="M2,21H2a4.25,4.25,0,0,1,4,0H6a4.25,4.25,0,0,0,4,0h0a4.25,4.25,0,0,1,4,0h0a4.25,4.25,0,0,0,4,0h0a4.25,4.25,0,0,1,4,0h0" fill="none" stroke="#323232" stroke-linecap="round" stroke-linejoin="round" stroke-width="1.5"/><line x1="2" y1="14" x2="22" y2="14" fill="none" stroke="#323232" stroke-linecap="round" stroke-linejoin="round" stroke-width="1.5"/><line x1="5" y1="8" x2="5" y2="14" fill="none" stroke="#323232" stroke-linecap="round" stroke-linejoin="round" stroke-width="1.5"/><path d="M2,17.5H2a4.25,4.25,0,0,1,4,0H6a4.25,4.25,0,0,0,4,0h0a4.25,4.25,0,0,1,4,0h0a4.25,4.25,0,0,0,4,0h0a4.25,4.25,0,0,1,4,0h0" fill="none" stroke="#323232" stroke-linecap="round" stroke-linejoin="round" stroke-width="1.5"/><ellipse cx="5" cy="6.99998" rx="3" ry="4" fill="none" stroke="#323232" stroke-linecap="round" stroke-linejoin="round" stroke-width="1.5"/><path d="M11.77189,11.02167a3.23709,3.23709,0,0,1,6.39172-.483" fill="none" stroke="#323232" stroke-linecap="round" stroke-linejoin="round" stroke-width="1.5"/><path d="M11.77189,11.02167A2.47795,2.47795,0,0,0,9.55058,14" fill="none" stroke="#323232" stroke-linecap="round" stroke-linejoin="round" stroke-width="1.5"/><path d="M18.16361,10.5387A2.71887,2.71887,0,0,1,20.39323,14" fill="none" stroke="#323232" stroke-linecap="round" stroke-linejoin="round" stroke-width="1.5"/></g></svg>