<?xml version="1.0" encoding="UTF-8"?><svg version="1.1" viewBox="0 0 24 24" xmlns="http://www.w3.org/2000/svg" xmlns:xlink="http://www.w3.org/1999/xlink"><g fill="none"><path d="M0 24v-24h24v24"></path><path stroke="#323232" stroke-linecap="round" stroke-linejoin="round" stroke-width="1.5" d="M4 21c-1.105 0-2-.895-2-2v-5c0-1.105.895-2 2-2h16c1.105 0 2 .895 2 2v5c0 1.105-.895 2-2 2h-16"></path><path stroke="#323232" stroke-linecap="round" stroke-linejoin="round" stroke-width="1.5" d="M18.244 16.499c0-.135-.109-.244-.244-.243 -.135 0-.244.109-.244.244 0 .135.109.244.244.244 .135 0 .244-.109.244-.245"></path><path stroke="#323232" stroke-linecap="round" stroke-linejoin="round" stroke-width="1.5" d="M14.244 16.499c0-.135-.109-.244-.244-.243 -.135 0-.244.109-.244.244 0 .135.109.244.244.244 .134 0 .244-.109.244-.245"></path><path stroke="#323232" stroke-linecap="round" stroke-linejoin="round" stroke-width="1.5" d="M10.244 16.499c0-.135-.109-.244-.244-.243 -.135 0-.244.109-.244.244 0 .135.109.244.244.244 .134 0 .244-.109.244-.245"></path><path stroke="#323232" stroke-linecap="round" stroke-linejoin="round" stroke-width="1.5" d="M6.244 16.499c0-.135-.109-.244-.244-.243 -.135 0-.244.109-.244.244 0 .135.109.244.244.244 .134 0 .244-.109.244-.245"></path><path stroke="#323232" stroke-linecap="round" stroke-linejoin="round" stroke-width="1.5" d="M14 3.778l-4.222 4.222"></path><path stroke="#323232" stroke-linecap="round" stroke-linejoin="round" stroke-width="1.5" d="M14 8l-4.222-4.222"></path></g></svg>