<?xml version="1.0" encoding="UTF-8"?><svg version="1.1" viewBox="0 0 24 24" xmlns="http://www.w3.org/2000/svg" xmlns:xlink="http://www.w3.org/1999/xlink"><g stroke-linecap="round" stroke-width="1.5" stroke="#323232" fill="none" stroke-linejoin="round"><path d="M7.849 11.735l-3.2794e-09-3.27532e-09c.146538.146355.146685.383792.00032999.53033 -.146355.146538-.383792.146685-.53033.00032999 -.146538-.146355-.146685-.383792-.00032999-.53033 .000109926-.000110063.00021992-.000220057.000329983-.000329983l1.17133e-08-1.16987e-08c.146409-.146227.383591-.146227.53 2.33975e-08"></path><path d="M12.265 11.735l-3.27939e-09-3.27532e-09c.146538.146355.146685.383792.00032999.53033 -.146355.146538-.383792.146685-.53033.00032999 -.146538-.146355-.146685-.383792-.00032999-.53033 .000109926-.000110063.00021992-.000220057.000329983-.000329983l1.17133e-08-1.16987e-08c.146409-.146227.383591-.146227.53 2.33975e-08"></path><line x1="17" x2="15" y1="15" y2="15"></line><path d="M16 21h-8l-2.18557e-07-7.10543e-15c-2.76142-1.20706e-07-5-2.23858-5-5 0 0 0-1.77636e-15 0-1.77636e-15v-8l5.68434e-14 7.54979e-07c-4.16963e-07-2.76142 2.23858-5 5-5h8l-2.18557e-07 5.32907e-15c2.76142-1.20706e-07 5 2.23858 5 5v8l3.55271e-15 2.18557e-07c0 2.76142-2.23858 5-5 5Z"></path></g><path fill="none" d="M0 0h24v24h-24Z"></path></svg>