<?xml version="1.0" encoding="UTF-8"?><svg version="1.1" viewBox="0 0 24 24" xmlns="http://www.w3.org/2000/svg" xmlns:xlink="http://www.w3.org/1999/xlink"><g stroke-linecap="round" stroke-width="1.5" stroke="#323232" fill="none" stroke-linejoin="round"><circle cx="14.75" cy="10.25" r="3.25"></circle><path d="M17 21h-10l-1.74846e-07-3.55271e-15c-2.20914-9.65645e-08-4-1.79086-4-4 0 0 0 0 0 0v-10l4.61853e-14 6.03983e-07c-3.33571e-07-2.20914 1.79086-4 4-4h10l-1.74846e-07 3.55271e-15c2.20914-9.65645e-08 4 1.79086 4 4v10h3.55271e-15c0 2.20914-1.79086 4-4 4Z"></path><rect width="2.75" height="10" x="6.5" y="7"></rect></g><path fill="none" d="M0 24v-24h24v24Z"></path></svg>