<svg id="Layer_3" data-name="Layer 3" xmlns="http://www.w3.org/2000/svg" viewBox="0 0 24 24"><rect width="24" height="24" fill="none"/><path d="M12.5,16.3182V11a1,1,0,0,1,1-1h3a1,1,0,0,1,1,1v3.95455" fill="none" stroke="#323232" stroke-linecap="round" stroke-linejoin="round" stroke-width="1.5"/><line x1="21" y1="14" x2="9" y2="17.27275" fill="none" stroke="#323232" stroke-linecap="round" stroke-linejoin="round" stroke-width="1.5"/><path d="M3.02043,3.00028a1,1,0,0,1,1.652-.75658l3.806,3.27275A2,2,0,0,0,9.78239,6H19.5A1.5,1.5,0,0,1,21,7.5v12A1.5,1.5,0,0,1,19.5,21H9.76669A2,2,0,0,1,8.474,20.52609L3.35366,16.18885A1,1,0,0,1,3,15.42416Z" fill="none" stroke="#323232" stroke-linecap="round" stroke-linejoin="round" stroke-width="1.5"/><path d="M9,20.845V5.83863" fill="none" stroke="#323232" stroke-linecap="round" stroke-linejoin="round" stroke-width="1.5"/></svg>