<?xml version="1.0" encoding="UTF-8"?><svg version="1.1" viewBox="0 0 24 24" xmlns="http://www.w3.org/2000/svg" xmlns:xlink="http://www.w3.org/1999/xlink"><!--Generated by IJSVG (https://github.com/iconjar/IJSVG)--><g stroke-linecap="round" stroke-width="1.5" stroke="#323232" fill="none" stroke-linejoin="round"><path d="M9.783,12.997h2.755c2.46,0 4.554,-1.79 4.938,-4.22v0c0.478,-3.033 -1.866,-5.777 -4.938,-5.777h-5.33c-0.492,0 -0.911,0.358 -0.988,0.844l-2.208,14c-0.095,0.607 0.374,1.156 0.988,1.156h2.846l0.792,-5.024c0.089,-0.564 0.575,-0.979 1.145,-0.979Z"></path><path d="M17.467,7.163c1.737,0.99 2.809,2.981 2.471,5.122c-0.383,2.43 -2.478,4.22 -4.938,4.22h0.021h-2.629l-0.576,3.65c-0.076,0.487 -0.496,0.845 -0.988,0.844l-2.712,-0.002c-0.307,0 -0.541,-0.275 -0.494,-0.578l0.224,-1.419"></path></g><path fill="none" d="M0,0h24v24h-24Z" transform="matrix(6.12323e-17,-1,1,6.12323e-17,0,24)"></path></svg>