<svg viewBox="0 0 24 24" xmlns="http://www.w3.org/2000/svg"><g fill="none"><path d="M0 0h24v24H0Z"/><g stroke-linecap="round" stroke-width="1.5" stroke="#323232" fill="none" stroke-linejoin="round"><path d="M15.45 14.659l-.01 0c1.67-1.71 1.64-4.44-.06-6.12 -1.69-1.66-4.38-1.66-6.06-.01 -1.62 1.61-1.68 5.01-1.6 6.68l-.01-.01c.02.55.47 1 1.02 1.03 1.66.07 5.06.01 6.68-1.61Z"/><path d="M13.02 10.968l-.01-.01c-.3-.29-.77-.29-1.06.01 -.29.29-.29.76.01 1.05 .29.28.76.28 1.05-.02 .28-.29.28-.76-.01-1.05l-.02-.02"/><path d="M11.97 12.03L8.1 15.99"/><path d="M12 3a9 9 0 1 0 0 18 9 9 0 1 0 0-18Z"/></g></g></svg>