<svg id="Layer_3" data-name="Layer 3" xmlns="http://www.w3.org/2000/svg" viewBox="0 0 24 24"><path d="M10.26075,16.0345a1.0014,1.0014,0,0,1-.70779.293H8.03875a.5.5,0,0,1-.5-.5v-1.515a.9995.9995,0,0,1,.29244-.70644L13.75575,7.6765a1.72133,1.72133,0,0,1,2.434,0h0a1.72043,1.72043,0,0,1,0,2.434Z" fill="none" stroke="#323232" stroke-linecap="round" stroke-linejoin="round" stroke-width="1.5"/><path d="M11.54975,9.8895l2.43,2.43" fill="none" stroke="#323232" stroke-linecap="round" stroke-linejoin="round" stroke-width="1.5"/><path d="M15.70375,10.5955l.902.902h0a1.21556,1.21556,0,0,1,0,1.718l-1.0895,1.0895" fill="none" stroke="#323232" stroke-linecap="round" stroke-linejoin="round" stroke-width="1.5"/><rect x="3" y="3" width="18" height="18" rx="5" stroke-width="1.5" stroke="#323232" stroke-linecap="round" stroke-linejoin="round" fill="none"/><rect width="24" height="24" fill="none"/><path d="M0,0H24V24H0Z" fill="none"/></svg>