<?xml version="1.0" encoding="UTF-8"?><svg version="1.1" viewBox="0 0 24 24" xmlns="http://www.w3.org/2000/svg" xmlns:xlink="http://www.w3.org/1999/xlink"><!--Generated by IJSVG (https://github.com/iconjar/IJSVG)--><g fill="none"><path d="M0,0h24v24h-24Z"></path><path stroke="#323232" stroke-linecap="round" stroke-linejoin="round" stroke-width="1.5" d="M8.031,15.391l1.582,3.609v3h4.774v-3l1.582,-3.609l-3.969,-5.391Z"></path><path stroke="#323232" stroke-linecap="round" stroke-linejoin="round" stroke-width="1.5" d="M11.293,5.768l-1.061,-1.061c-0.391,-0.391 -0.391,-1.024 0,-1.414l1.061,-1.061c0.391,-0.391 1.024,-0.391 1.414,0l1.061,1.061c0.391,0.391 0.391,1.024 0,1.414l-1.061,1.061c-0.39,0.39 -1.024,0.39 -1.414,0Z"></path><path stroke="#323232" stroke-linecap="round" stroke-linejoin="round" stroke-width="1.5" d="M19.25,10.25h1.5c0.552,0 1,0.448 1,1v1.5c0,0.552 -0.448,1 -1,1h-1.5c-0.552,0 -1,-0.448 -1,-1v-1.5c0,-0.552 0.448,-1 1,-1Z"></path><path stroke="#323232" stroke-linecap="round" stroke-linejoin="round" stroke-width="1.5" d="M9.61,19h4.78"></path><path stroke="#323232" stroke-linecap="round" stroke-linejoin="round" stroke-width="1.5" d="M12,15.31v-5.31"></path><path stroke="#323232" stroke-linecap="round" stroke-linejoin="round" stroke-width="1.5" d="M4.75,10.25h-1.5c-0.552,0 -1,0.448 -1,1v1.5c0,0.552 0.448,1 1,1h1.5c0.552,0 1,-0.448 1,-1v-1.5c0,-0.552 -0.448,-1 -1,-1Z"></path><path stroke="#323232" stroke-linecap="round" stroke-linejoin="round" stroke-width="1.5" d="M18.54,10.54l-5.3,-5.3"></path><path stroke="#323232" stroke-linecap="round" stroke-linejoin="round" stroke-width="1.5" d="M5.46,10.54l5.3,-5.3"></path></g></svg>