<?xml version="1.0" encoding="UTF-8"?><svg version="1.1" viewBox="0 0 24 24" xmlns="http://www.w3.org/2000/svg" xmlns:xlink="http://www.w3.org/1999/xlink"><g stroke-linecap="round" stroke-width="1.5" stroke="#323232" fill="none" stroke-linejoin="round"><path d="M12 21l-3.93403e-07-7.10543e-15c-4.97056-2.1727e-07-9-4.02944-9-9 2.1727e-07-4.97056 4.02944-9 9-9 4.97056 2.1727e-07 9 4.02944 9 9"></path><path d="M18.249 16.5v3.5"></path><path d="M16.5 18.249h3.5"></path><path d="M21 12l6.63454e-09-1.35644e-05c-.000163227.334289-.0208684.668251-.0619983 1"></path><path d="M13 20.938l-5.12224e-08 6.3506e-09c-.331749.0411305-.665711.0618362-1 .062"></path><path d="M13.028 10.968l3.35879e-08 3.28304e-08c-.293845-.287217-.764889-.281845-1.05211.0119999 -.287217.293845-.281845.764889.0119999 1.05211 .293845.287217.764889.281845 1.05211-.0119999 .282596-.289116.282596-.75099 6.56608e-08-1.04011l-.012-.012"></path><line x1="11.97" x2="8.07" y1="12.03" y2="15.93"></line><path d="M15.453 14.659l-1.20929e-07 1.2305e-07c1.67311-1.70246 1.64932-4.43889-.0531411-6.112 -1.68156-1.65257-4.3773-1.65257-6.05886-2.41858e-07 -1.618 1.617-1.679 5.018-1.6 6.682l2.64596e-08 5.84949e-07c.0252512.558229.471797 1.00521 1.03 1.031 1.664.0780001 5.065.0170001 6.682-1.601Z"></path></g><path fill="none" d="M0 0h24v24h-24Z"></path></svg>