<?xml version="1.0" encoding="UTF-8"?><svg version="1.1" viewBox="0 0 24 24" xmlns="http://www.w3.org/2000/svg" xmlns:xlink="http://www.w3.org/1999/xlink"><g fill="none"><path d="M0 24h24v-24h-24Z"></path><circle cx="18" cy="18" r="4" stroke="#323232" stroke-linecap="round" stroke-linejoin="round" stroke-width="1.5"></circle><path stroke="#323232" stroke-linecap="round" stroke-linejoin="round" stroke-width="1.5" d="M19.36 17.3l-1.7 1.7 -1.022-1.019"></path><path stroke="#323232" stroke-linecap="round" stroke-linejoin="round" stroke-width="1.5" d="M10.706 14.737h-2.443v-2.443l-1.86402e-08.000187256c3.7795e-08-.250305.0996198-.490318.276867-.667055l3.778-3.778 -4.03581e-08 4.04427e-08c.367878-.36865.964953-.369276 1.3336-.00139742 .000466269.000465293.00093205.000931074.00139734.00139734l1.5 1.5 -1.12654e-08-1.12418e-08c.36865.367878.369276.964953.00139737 1.3336 -.000465293.000466269-.000931074.00093205-.00139734.00139734l-3.77987 3.77587 -3.81852e-09 3.83108e-09c-.176702.177283-.416695.27695-.667.277Z"></path><path stroke="#323232" stroke-linecap="round" stroke-linejoin="round" stroke-width="1.5" d="M19.517 14.3l2.43002e-07-6.91356e-07c1.56161-4.44288-.774121-9.31048-5.217-10.8721 -4.44288-1.56161-9.31048.774121-10.8721 5.217 -1.56161 4.44288.774121 9.31048 5.217 10.8721 1.83015.643272 3.82494.643272 5.65509-4.86004e-07"></path></g></svg>