<svg id="Layer_3" data-name="Layer 3" xmlns="http://www.w3.org/2000/svg" viewBox="0 0 24 24"><line x1="11.64609" y1="15.64609" x2="8.35387" y2="12.35387" fill="none" stroke="#323232" stroke-linecap="round" stroke-linejoin="round" stroke-width="1.5"/><line x1="15.33333" y1="12" x2="12" y2="8.66667" fill="none" stroke="#323232" stroke-linecap="round" stroke-linejoin="round" stroke-width="1.5"/><path d="M11.977,15.35633l4.53483-4.53484a1.66665,1.66665,0,0,0,0-2.357l-.97631-.97631a1.66665,1.66665,0,0,0-2.357,0L8.64367,12.023a3.33338,3.33338,0,0,0-.80525,1.30293L7.05305,15.682A1,1,0,0,0,8.318,16.947l2.35612-.78537A3.33338,3.33338,0,0,0,11.977,15.35633Z" fill="none" stroke="#323232" stroke-linecap="round" stroke-linejoin="round" stroke-width="1.5"/><rect x="3" y="3" width="18" height="18" rx="5" stroke-width="1.5" stroke="#323232" stroke-linecap="round" stroke-linejoin="round" fill="none"/><path d="M0,0H24V24H0Z" fill="none"/></svg>