<?xml version="1.0" encoding="UTF-8"?><svg version="1.1" viewBox="0 0 24 24" xmlns="http://www.w3.org/2000/svg" xmlns:xlink="http://www.w3.org/1999/xlink"><g stroke-linecap="round" stroke-width="1.5" stroke="#323232" fill="none" stroke-linejoin="round"><path d="M12 3l-3.24299e-07-2.78249e-11c-3.61879-.000310445-6.886 2.1663-8.29388 5.5"></path><path d="M21 12v0c0-4.97056-4.02944-9-9-9"></path><path d="M12 21l-3.93403e-07-7.10543e-15c4.97056 2.1727e-07 9-4.02944 9-9"></path><path d="M3.05865 13l1.68723e-08 1.51059e-07c.508692 4.55435 4.35868 7.99901 8.94135 8"></path><polyline points="6,8.5 3,8.5 3,5.5"></polyline><path d="M11.159 15.427h-2.586v-2.586l-2.28059e-08.000213418c4.00433e-08-.265195.10534-.51953.292849-.707063l4-4 -6.15305e-08 6.15119e-08c.3905-.390382 1.0235-.390382 1.414-1.23024e-07l1.58615 1.58585 -3.0608e-08-3.06172e-08c.390382.3905.390382 1.0235 6.1216e-08 1.414l-4 4 2.66001e-10-2.6608e-10c-.187493.187549-.441805.292943-.707.293Z"></path></g><path fill="none" d="M24 24h-24v-24h24Z"></path></svg>