<?xml version="1.0" encoding="UTF-8"?><svg version="1.1" viewBox="0 0 24 24" xmlns="http://www.w3.org/2000/svg" xmlns:xlink="http://www.w3.org/1999/xlink"><g fill="none"><rect width="24" height="24"></rect><rect width="18" height="18" x="3" y="3" rx="2.7614" ry="0" stroke="#323232" stroke-linecap="round" stroke-linejoin="round" stroke-width="1.5"></rect><path stroke="#323232" stroke-linecap="round" stroke-linejoin="round" stroke-width="1.5" d="M15.453 14.659l-1.20929e-07 1.2305e-07c1.67311-1.70246 1.64932-4.43889-.0531411-6.112 -1.68156-1.65257-4.3773-1.65257-6.05886-2.41858e-07 -1.618 1.617-1.679 5.018-1.6 6.682l-4.38991e-08-9.89023e-07c.0247865.558433.47159 1.00567 1.03 1.031 1.664.078 5.065.017 6.682-1.601Z"></path><path stroke="#323232" stroke-linecap="round" stroke-linejoin="round" stroke-width="1.5" d="M13.028 10.968l1.88727e-08 1.87541e-08c-.293815-.291968-.768687-.29047-1.06065.00334507 -.291968.293815-.29047.768687.00334507 1.06065 .292506.290667.764804.290667 1.05731 3.75081e-08l-1.80851e-09 1.76809e-09c.293815-.287248.29914-.758292.0118923-1.05211 -.00391917-.00400879-.00788353-.00797315-.0118923-.0118923"></path><line x1="11.97" x2="8.1" y1="12.03" y2="15.99" stroke="#323232" stroke-linecap="round" stroke-linejoin="round" stroke-width="1.5"></line></g></svg>