<svg id="Layer_3" data-name="Layer 3" xmlns="http://www.w3.org/2000/svg" viewBox="0 0 24 24"><rect width="24" height="24" fill="none"/><path d="M21,12a9.0001,9.0001,0,0,1-9.25515,8.99644,9.09889,9.09889,0,0,1-8.74129-8.7413A9.0001,9.0001,0,0,1,12,3" fill="none" stroke="#323232" stroke-linecap="round" stroke-linejoin="round" stroke-width="1.5"/><path d="M12,17a5,5,0,0,1-5-5" fill="none" stroke="#323232" stroke-linecap="round" stroke-linejoin="round" stroke-width="1.5"/><path d="M17.37872,3.62131a2.1213,2.1213,0,0,1,3,0h0a2.1213,2.1213,0,0,1,0,3l-5.54412,5.54415a2,2,0,0,1-1.169.5707l-2.10418.26a.5.5,0,0,1-.55627-.56686l.31111-2.17958A2,2,0,0,1,11.882,9.118Z" fill="none" stroke="#323232" stroke-linecap="round" stroke-linejoin="round" stroke-width="1.5"/></svg>