<?xml version="1.0" encoding="UTF-8"?><svg version="1.1" viewBox="0 0 24 24" xmlns="http://www.w3.org/2000/svg" xmlns:xlink="http://www.w3.org/1999/xlink"><g fill="none"><path d="M0 0h24v24h-24Z"></path><path stroke="#323232" stroke-linecap="round" stroke-linejoin="round" stroke-width="1.5" d="M18.571 2.601l-8.485 8.485v2.828h2.828l8.485-8.485c.391-.391.391-1.024 0-1.414l-1.414-1.414c-.39-.391-1.023-.391-1.414 8.88178e-16Z"></path><path stroke="#323232" stroke-linecap="round" stroke-linejoin="round" stroke-width="1.5" d="M14.328 16.743l.707.707c.391.391.391 1.024 0 1.414l-2.121 2.121c-.391.391-1.024.391-1.414 0l-8.485-8.485c-.391-.391-.391-1.024-4.44089e-16-1.414l2.121-2.121c.391-.391 1.024-.391 1.414 0l.707.707"></path><path stroke="#323232" stroke-linecap="round" stroke-linejoin="round" stroke-width="1.5" d="M16.45 4.72l2.83 2.83"></path></g></svg>