<?xml version="1.0" encoding="UTF-8"?><svg version="1.1" viewBox="0 0 24 24" xmlns="http://www.w3.org/2000/svg" xmlns:xlink="http://www.w3.org/1999/xlink"><!--Generated by IJSVG (https://github.com/iconjar/IJSVG)--><g stroke-linecap="round" stroke-width="1.5" stroke="#323232" fill="none" stroke-linejoin="round"><path d="M9.511,16.785c-0.188,0.188 -0.442,0.293 -0.707,0.293h-2.015v-2.015c0,-0.265 0.106,-0.519 0.293,-0.707l6.924,-6.929c0.672,-0.672 1.762,-0.672 2.434,0v0c0.673,0.672 0.672,1.762 0,2.434l-6.929,6.924Z"></path><path d="M11.8,9.64l2.43,2.43"></path><path d="M15.954,10.346l0.902,0.902v0c0.474,0.475 0.474,1.244 0,1.718l-1.641,1.641"></path><path d="M18,21h-12c-1.657,0 -3,-1.343 -3,-3v-12c0,-1.657 1.343,-3 3,-3h12c1.657,0 3,1.343 3,3v12c0,1.657 -1.343,3 -3,3Z"></path></g><path fill="none" d="M0,24v-24h24v24h-24Z"></path></svg>