<?xml version="1.0" encoding="UTF-8"?><svg version="1.1" viewBox="0 0 24 24" xmlns="http://www.w3.org/2000/svg" xmlns:xlink="http://www.w3.org/1999/xlink"><!--Generated by IJSVG (https://github.com/iconjar/IJSVG)--><g fill="none"><path d="M0,0h24v24h-24Z"></path><path stroke="#323232" stroke-linecap="round" stroke-linejoin="round" stroke-width="1.5" d="M18.7175,5.28249c3.70998,3.70998 3.70998,9.72505 0,13.435c-3.70998,3.70998 -9.72505,3.70998 -13.435,3.55271e-15c-3.70998,-3.70998 -3.70998,-9.72505 -2.66454e-15,-13.435c3.70998,-3.70998 9.72505,-3.70998 13.435,-2.66454e-15"></path><path stroke="#323232" stroke-linecap="round" stroke-linejoin="round" stroke-width="1.5" d="M8,20.619v-4.963c0,-0.353 0.062,-0.703 0.184,-1.034l2.408,-6.555c0.481,-1.31 2.335,-1.31 2.816,0l2.408,6.555c0.122,0.331 0.184,0.681 0.184,1.034v4.963"></path><path stroke="#323232" stroke-linecap="round" stroke-linejoin="round" stroke-width="1.5" d="M15.928,15.036c-2.191,1.28 -5.664,1.28 -7.856,0"></path></g></svg>