<?xml version="1.0" encoding="UTF-8"?><svg version="1.1" viewBox="0 0 24 24" xmlns="http://www.w3.org/2000/svg" xmlns:xlink="http://www.w3.org/1999/xlink"><!--Generated by IJSVG (https://github.com/iconjar/IJSVG)--><g fill="none"><path d="M0,0h24v24h-24Z"></path><path stroke="#323232" stroke-linecap="round" stroke-linejoin="round" stroke-width="1.5" d="M3.293,6.141l2.848,-2.848c0.39,-0.39 1.023,-0.39 1.414,0l13.152,13.152c0.39,0.39 0.39,1.023 0,1.414l-2.848,2.848c-0.39,0.39 -1.023,0.39 -1.414,0l-13.152,-13.152c-0.391,-0.391 -0.391,-1.024 8.88178e-16,-1.414Z"></path><path stroke="#323232" stroke-linecap="round" stroke-linejoin="round" stroke-width="1.5" d="M14.13,9.87l-1.5,1.5"></path><path stroke="#323232" stroke-linecap="round" stroke-linejoin="round" stroke-width="1.5013" d="M16.72,12.46l-1,1"></path><path stroke="#323232" stroke-linecap="round" stroke-linejoin="round" stroke-width="1.5013" d="M19.1,14.84l-1.5,1.5"></path><path stroke="#323232" stroke-linecap="round" stroke-linejoin="round" stroke-width="1.5013" d="M11.75,7.49l-1,0.99"></path><path stroke="#323232" stroke-linecap="round" stroke-linejoin="round" stroke-width="1.5" d="M9.16,4.9l-1.5,1.5"></path><path stroke="#323232" stroke-linecap="round" stroke-linejoin="round" stroke-width="1.5" d="M12.354,8.092l4.462,-4.462c0.776,-0.776 2.038,-0.772 2.819,0.009l0.716,0.716c0.781,0.781 0.785,2.043 0.009,2.819l-4.462,4.462"></path><path stroke="#323232" stroke-linecap="round" stroke-linejoin="round" stroke-width="1.5" d="M8.092,12.354l-4.03,4.03c-0.126,0.126 -0.216,0.284 -0.261,0.457l-0.742,2.871c-0.192,0.742 0.484,1.417 1.226,1.223l2.865,-0.747c0.172,-0.045 0.329,-0.135 0.455,-0.261l4.031,-4.031"></path><path stroke="#323232" stroke-linecap="round" stroke-linejoin="round" stroke-width="1.5" d="M15.12,5.33l3.54,3.54"></path></g></svg>