<?xml version="1.0" encoding="UTF-8"?><svg version="1.1" viewBox="0 0 24 24" xmlns="http://www.w3.org/2000/svg" xmlns:xlink="http://www.w3.org/1999/xlink"><g stroke-linecap="round" stroke-width="1.5" stroke="#323232" fill="none" stroke-linejoin="round"><path d="M9 3h6v12 0c0 1.65685-1.34315 3-3 3v0l-1.31134e-07-3.55271e-15c-1.65685-7.24234e-08-3-1.34315-3-3 0 0 0-1.77636e-15 0-1.77636e-15v-12Z"></path><path d="M4 17.25v.75l3.55271e-14 4.52987e-07c2.50178e-07 1.65685 1.34315 3 3 3h10l-1.31134e-07-3.55271e-15c1.65685 7.24234e-08 3-1.34315 3-3v-.75l7.10543e-15-1.31134e-07c0-.811388-.263167-1.60089-.75-2.25v0l1.92425e-07 2.56567e-07c-.486833-.649111-.75-1.43861-.75-2.25v-1.5l4.26326e-14 4.55341e-07c-1.22516e-07-.811388.263167-1.60089.75-2.25v0l6.28919e-08-8.38559e-08c.486833-.649111.75-1.43861.75-2.25v-.75 0c0-1.65685-1.34315-3-3-3h-10l-1.31134e-07 3.55271e-15c-1.65685 7.24234e-08-3 1.34315-3 3 0 0 0 1.77636e-15 0 1.77636e-15v.75l4.08562e-14 4.351e-07c1.22516e-07.811388.263167 1.60089.75 2.25v0l1.32051e-08 1.76068e-08c.486833.649111.75 1.43861.75 2.25v1.5l6.92779e-14-7.18169e-07c0 .811388-.263167 1.60089-.75 2.25v0l-2.38476e-07 3.17968e-07c-.486833.649111-.75 1.43861-.75 2.25Z"></path><path d="M12.035 11.965l1.3609e-09 1.38896e-09c.0189394.01933.0186228.0503534-.000707146.0692929 -.01933.0189394-.0503534.0186228-.0692929-.000707146 -.0186667-.0190516-.0186667-.0495341 2.72179e-09-.0685857v0l-3.76675e-09 4.01351e-09c.0181415-.01933.0485182-.0202934.0678481-.00215187 .000739852.000694364.0014575.00141201.00215186.00215186"></path></g><path fill="none" d="M0 0h24v24h-24Z"></path></svg>