<?xml version="1.0" encoding="UTF-8"?><svg version="1.1" viewBox="0 0 24 24" xmlns="http://www.w3.org/2000/svg" xmlns:xlink="http://www.w3.org/1999/xlink"><g stroke-linecap="round" stroke-width="1.5" stroke="#323232" fill="none" stroke-linejoin="round"><path d="M6.9 8.165l1.215-1.214 5.21333e-08-5.20439e-08c.390385-.389716 1.02261-.389716 1.413 1.04088e-07l7.572 7.565 4.08153e-08 4.08854e-08c.389716.390385.389716 1.02261-8.16307e-08 1.413l-1.216 1.215 -3.19999e-08 3.19e-08c-.39027.389051-1.02173.389051-1.412-6.38e-08l-7.572-7.565 5.30811e-08 5.30971e-08c-.390382-.3905-.390382-1.0235-1.06162e-07-1.414Z"></path><rect width="18" height="18" x="3" y="3" rx="2.7614" ry="0"></rect><path d="M12.218 9.639l2.912-2.911 5.21333e-08-5.20439e-08c.390385-.389716 1.02261-.389716 1.413 1.04088e-07l.772.772 -3.0608e-08-3.06172e-08c.390382.3905.390382 1.0235 6.1216e-08 1.414l-2.915 2.909"></path><path d="M9.589 12.265l-2.412 2.41 -6.94187e-08 6.94483e-08c-.126243.126297-.216364.284095-.261.457l-.266 1.026 -9.35492e-09 3.63997e-08c-.138847.540251.186554 1.09077.726805 1.22962 .165732.042594.339568.0423821.505195-.000615869l1.025-.267 4.44069e-09-1.1596e-09c.171725-.0448424.328421-.13458.454-.26l2.414-2.412"></path></g><rect width="24" height="24" fill="none"></rect></svg>