<?xml version="1.0" encoding="UTF-8"?><svg version="1.1" viewBox="0 0 24 24" xmlns="http://www.w3.org/2000/svg" xmlns:xlink="http://www.w3.org/1999/xlink"><!--Generated by IJSVG (https://github.com/iconjar/IJSVG)--><g stroke-linecap="round" stroke-width="1.5" stroke="#323232" fill="none" stroke-linejoin="round"><path d="M19.021,12.045v-7c0,-1.105 -0.895,-2 -2,-2h-12c-1.105,0 -2,0.895 -2,2v12c0,1.105 0.895,2 2,2h7"></path><path d="M20.652,19.262l-1.414,1.414c-0.391,0.391 -1.024,0.391 -1.414,0l-7.531,-7.531c-0.188,-0.187 -0.293,-0.442 -0.293,-0.707v-2.414h2.414c0.265,0 0.52,0.105 0.707,0.293l7.531,7.531c0.391,0.39 0.391,1.023 0,1.414Z"></path><path d="M18.86,16.06l-2.83,2.82"></path></g><path fill="none" d="M0,0h24v24h-24Z"></path></svg>