<?xml version="1.0" encoding="UTF-8"?><svg version="1.1" viewBox="0 0 24 24" xmlns="http://www.w3.org/2000/svg" xmlns:xlink="http://www.w3.org/1999/xlink"><!--Generated by IJSVG (https://github.com/iconjar/IJSVG)--><g stroke-linecap="round" stroke-width="1.5" stroke="#323232" fill="none" stroke-linejoin="round"><path d="M12.986,14c0.846,0 1.414,0.745 1.414,1.439c0,1.408 -2.357,2.561 -2.4,2.561c-0.043,0 -2.4,-1.153 -2.4,-2.561c0,-0.694 0.568,-1.439 1.414,-1.439c0.484,0 0.802,0.226 0.986,0.428c0.184,-0.202 0.502,-0.428 0.986,-0.428Z"></path><path d="M12,12v2.43"></path><path d="M12,20.997c-5.167,0 -9.418,-3.919 -9.944,-8.946c-0.057,-0.547 0.329,-1.042 0.874,-1.108c3.29,-0.401 5.725,-2.96 6.035,-7.041c0.039,-0.512 0.482,-0.9 0.995,-0.898l2.04,0.006l2.04,-0.007c0.514,-0.002 0.957,0.387 0.995,0.899c0.31,4.081 2.745,6.639 6.034,7.041c0.546,0.067 0.933,0.562 0.875,1.11c-0.526,5.026 -4.778,8.944 -9.944,8.944Z"></path><path d="M17.219,9.103c-1.238,1.754 -3.101,2.897 -5.219,2.897"></path><path d="M6.781,9.103c1.238,1.754 3.101,2.897 5.219,2.897"></path></g><path fill="none" d="M0,0h24v24h-24Z"></path></svg>