<?xml version="1.0" encoding="UTF-8"?><svg version="1.1" viewBox="0 0 24 24" xmlns="http://www.w3.org/2000/svg" xmlns:xlink="http://www.w3.org/1999/xlink"><!--Generated by IJSVG (https://github.com/iconjar/IJSVG)--><g stroke-linecap="round" stroke-width="1.5" stroke="#323232" fill="none" stroke-linejoin="round"><path d="M13.624,13.412c1.394,0 2.329,1.227 2.329,2.37c-1.77636e-15,2.319 -3.882,4.218 -3.953,4.218c-0.071,0 -3.953,-1.899 -3.953,-4.219c0,-1.143 0.935,-2.37 2.329,-2.37c0.797,0 1.321,0.373 1.624,0.704c0.303,-0.331 0.826,-0.703 1.624,-0.703Z"></path><path d="M12.01,10.45c0.028,0 0.05,0.022 0.05,0.05c0,0.028 -0.022,0.05 -0.05,0.05c-0.028,0 -0.05,-0.022 -0.05,-0.05c1.77636e-15,-0.028 0.022,-0.05 0.05,-0.05"></path><path d="M15,9.95c0.028,0 0.05,0.022 0.05,0.05c0,0.028 -0.022,0.05 -0.05,0.05c-0.028,0 -0.05,-0.022 -0.05,-0.05c0,-0.028 0.022,-0.05 0.05,-0.05"></path><path d="M17.5,8.45c0.028,0 0.05,0.022 0.05,0.05c0,0.028 -0.022,0.05 -0.05,0.05c-0.028,0 -0.05,-0.022 -0.05,-0.05c0,-0.028 0.022,-0.05 0.05,-0.05"></path><path d="M19.5,6.45c0.028,0 0.05,0.022 0.05,0.05c0,0.028 -0.022,0.05 -0.05,0.05c-0.028,0 -0.05,-0.022 -0.05,-0.05c0,-0.028 0.022,-0.05 0.05,-0.05"></path><path d="M21,3.955c0.028,0 0.05,0.022 0.05,0.05c0,0.028 -0.022,0.05 -0.05,0.05c-0.028,0 -0.05,-0.022 -0.05,-0.05c0,-0.028 0.022,-0.05 0.05,-0.05"></path><path d="M9.019,9.95c-0.028,0 -0.05,0.022 -0.05,0.05c0,0.028 0.022,0.05 0.05,0.05c0.028,0 0.05,-0.022 0.05,-0.05c0.001,-0.028 -0.022,-0.05 -0.05,-0.05"></path><path d="M6.519,8.45c-0.028,0 -0.05,0.022 -0.05,0.05c0,0.028 0.022,0.05 0.05,0.05c0.028,0 0.05,-0.022 0.05,-0.05c0.001,-0.028 -0.022,-0.05 -0.05,-0.05"></path><path d="M4.519,6.45c-0.028,0 -0.05,0.022 -0.05,0.05c0,0.028 0.022,0.05 0.05,0.05c0.028,0 0.05,-0.022 0.05,-0.05c0.001,-0.028 -0.022,-0.05 -0.05,-0.05"></path><path d="M3.019,3.955c-0.028,0 -0.05,0.022 -0.05,0.05c0,0.028 0.022,0.05 0.05,0.05c0.028,0 0.05,-0.022 0.05,-0.05c0.001,-0.028 -0.022,-0.05 -0.05,-0.05"></path></g><path fill="none" d="M0,0h24v24h-24Z"></path></svg>