<?xml version="1.0" encoding="UTF-8"?><svg version="1.1" viewBox="0 0 24 24" xmlns="http://www.w3.org/2000/svg" xmlns:xlink="http://www.w3.org/1999/xlink"><!--Generated by IJSVG (https://github.com/iconjar/IJSVG)--><g stroke-linecap="round" stroke-width="1.5" stroke="#323232" fill="none" stroke-linejoin="round"><path d="M18.364,3.354l-6.364,5.646l-6.364,-5.646"></path><path d="M18.434,21h1.566c1.105,0 2,-0.895 2,-2v-1.014c0,-1.029 -0.528,-1.986 -1.402,-2.583c-2.157,-1.471 -5.197,-2.403 -8.598,-2.403c-3.401,0 -6.441,0.932 -8.598,2.404c-0.874,0.597 -1.402,1.554 -1.402,2.582v1.014c0,1.105 0.895,2 2,2h1.566c0.828,0 1.5,-0.672 1.5,-1.5v-1.363c0,-0.307 0.181,-0.591 0.467,-0.702c1.326,-0.514 2.846,-0.81 4.467,-0.81c1.621,0 3.141,0.296 4.467,0.81c0.286,0.111 0.467,0.395 0.467,0.702v1.363c3.55271e-15,0.828 0.672,1.5 1.5,1.5Z"></path><path d="M9,3.354h-3.364v3.364"></path></g><path fill="none" d="M0,0h24v24h-24Z"></path></svg>