<svg width="24" height="24" viewBox="0 0 24 24" fill="none" xmlns="http://www.w3.org/2000/svg">
<path fill-rule="evenodd" clip-rule="evenodd" d="M13.144 13.1441C11.974 14.3141 10.664 15.1961 9.33499 15.7821C9.05399 15.9061 8.72499 15.8331 8.50799 15.6161L7.68999 14.7971C7.01899 14.1261 6.06999 14.1261 5.48399 14.7121L4.30999 15.8861C3.52899 16.6671 3.52899 17.9331 4.30999 18.7141L4.96199 19.3661C5.70299 20.1071 6.77199 20.4161 7.83199 20.2161C10.445 19.7221 13.306 18.2041 15.755 15.7551C18.204 13.3061 19.722 10.4451 20.216 7.8321C20.416 6.7721 20.107 5.7031 19.366 4.9621L18.715 4.3111C17.934 3.5301 16.668 3.5301 15.887 4.3111L14.714 5.4841C14.128 6.0701 14.128 7.0201 14.714 7.6051L15.618 8.5081C15.835 8.7251 15.908 9.0541 15.784 9.3351C15.197 10.6641 14.314 11.9741 13.144 13.1441Z" stroke="white" stroke-width="1.5" stroke-linecap="round" stroke-linejoin="round"/>
</svg>
