<?xml version="1.0" encoding="UTF-8"?><svg version="1.1" viewBox="0 0 24 24" xmlns="http://www.w3.org/2000/svg" xmlns:xlink="http://www.w3.org/1999/xlink"><!--Generated by IJSVG (https://github.com/iconjar/IJSVG)--><g fill="none"><path d="M0,0h24v24h-24v-24Z"></path><path stroke="#323232" stroke-linecap="round" stroke-linejoin="round" stroke-width="1.5" d="M16.327,13.363c-0.855,0 -1.664,-0.189 -2.391,-0.526l-3.495,0.742l0.731,-3.502c-0.339,-0.729 -0.529,-1.542 -0.529,-2.399c-1.77636e-15,-3.135 2.542,-5.678 5.679,-5.678c3.137,0 5.678,2.543 5.678,5.678c0,3.135 -2.543,5.678 -5.678,5.678"></path><path stroke="#323232" stroke-linecap="round" stroke-linejoin="round" stroke-width="1.5" d="M15.2,18.371l-0.97,-0.97c-0.485,-0.485 -1.27,-0.485 -1.754,0l-0.762,0.762c-0.17,0.17 -0.428,0.227 -0.648,0.131c-1.105,-0.484 -2.196,-1.217 -3.169,-2.19c-0.969,-0.969 -1.7,-2.055 -2.184,-3.156c-0.101,-0.227 -0.042,-0.494 0.134,-0.671l0.683,-0.683c0.555,-0.555 0.555,-1.339 0.07,-1.824l-0.971,-0.97c-0.646,-0.646 -1.692,-0.646 -2.338,0l-0.539,0.539c-0.613,0.613 -0.868,1.497 -0.703,2.373c0.408,2.16 1.664,4.526 3.688,6.551c2.024,2.025 4.39,3.28 6.551,3.688c0.876,0.165 1.76,-0.09 2.373,-0.703l0.539,-0.538c0.645,-0.646 0.645,-1.693 0,-2.339Z"></path><path stroke="#323232" stroke-linecap="round" stroke-linejoin="round" stroke-width="1.5" d="M13.6724,7.75464c0.0195262,0.0195262 0.0195262,0.0511845 0,0.0707107c-0.0195262,0.0195262 -0.0511845,0.0195262 -0.0707107,0c-0.0195262,-0.0195262 -0.0195262,-0.0511845 0,-0.0707107c0.0195262,-0.0195262 0.0511845,-0.0195262 0.0707107,0"></path><path stroke="#323232" stroke-linecap="round" stroke-linejoin="round" stroke-width="1.5" d="M16.2784,7.75464c0.0195262,0.0195262 0.0195262,0.0511845 0,0.0707107c-0.0195262,0.0195262 -0.0511845,0.0195262 -0.0707107,0c-0.0195262,-0.0195262 -0.0195262,-0.0511845 0,-0.0707107c0.0195262,-0.0195262 0.0511845,-0.0195262 0.0707107,0"></path><path stroke="#323232" stroke-linecap="round" stroke-linejoin="round" stroke-width="1.5" d="M18.8834,7.75464c0.0195262,0.0195262 0.0195262,0.0511845 0,0.0707107c-0.0195262,0.0195262 -0.0511845,0.0195262 -0.0707107,0c-0.0195262,-0.0195262 -0.0195262,-0.0511845 0,-0.0707107c0.0195262,-0.0195262 0.0511845,-0.0195262 0.0707107,0"></path></g></svg>