<?xml version="1.0" encoding="UTF-8"?><svg version="1.1" viewBox="0 0 24 24" xmlns="http://www.w3.org/2000/svg" xmlns:xlink="http://www.w3.org/1999/xlink"><!--Generated by IJSVG (https://github.com/iconjar/IJSVG)--><g fill="none"><path d="M0,24v-24h24v24h-24Z"></path><path stroke="#323232" stroke-linecap="round" stroke-linejoin="round" stroke-width="1.5" d="M7.5,3h9.004c2.483,0 4.496,2.013 4.496,4.496v9.009c0,2.482 -2.013,4.495 -4.496,4.495h-9.008c-2.483,0 -4.496,-2.013 -4.496,-4.496v-9.004c0,-2.485 2.015,-4.5 4.5,-4.5Z"></path><path stroke="#323232" stroke-linecap="round" stroke-linejoin="round" stroke-width="1.5" d="M9.651,14.346c2.183,2.184 4.949,3.576 6.594,1.938l0.399,-0.399c0.532,-0.531 0.458,-1.411 -0.16,-1.84c-0.389,-0.271 -0.807,-0.562 -1.269,-0.887c-0.478,-0.336 -1.133,-0.283 -1.548,0.128l-0.451,0.448c-0.559,-0.354 -1.112,-0.809 -1.626,-1.322l-0.002,-0.002c-0.513,-0.513 -0.968,-1.067 -1.322,-1.626l0.448,-0.451c0.412,-0.414 0.463,-1.07 0.128,-1.548c-0.326,-0.462 -0.617,-0.88 -0.887,-1.269c-0.429,-0.617 -1.309,-0.691 -1.84,-0.16l-0.399,0.399c-1.637,1.645 -0.246,4.409 1.937,6.594"></path></g></svg>