<svg id="Layer_3" data-name="Layer 3" xmlns="http://www.w3.org/2000/svg" viewBox="0 0 24 24"><path d="M0,24V0H24V24Z" fill="none"/><path d="M7.43521,6.77819a1.806,1.806,0,0,0-2.76256-.2441l-.59838.5985c-2.45523,2.46731-.369,6.613,2.90517,9.89022l-.003-.0045c3.27413,3.27574,7.42267,5.36357,9.88989,2.90677l.6066-.60658a1.79926,1.79926,0,0,0-.24244-2.74769L15.761,15.54514a2.20564,2.20564,0,0,0-2.57014.0325l-1.05752.77864a.44385.44385,0,0,1-.51015.01617A14.85969,14.85969,0,0,1,9.4435,14.55864l-.003-.003a14.77389,14.77389,0,0,1-1.81394-2.18009.4438.4438,0,0,1,.01628-.51006l.7785-1.057A2.20562,2.20562,0,0,0,8.454,8.23809L7.4283,6.76853" fill="none" stroke="#323232" stroke-linecap="round" stroke-linejoin="round" stroke-width="1.5"/><path d="M21,6.2a.8.8,0,0,0-.8-.8H18.6V3.8a.8.8,0,0,0-.8-.8H16.2a.8.8,0,0,0-.8.8V5.4H13.8a.8.8,0,0,0-.8.8V7.8a.8.8,0,0,0,.8.8h1.6v1.6a.8.8,0,0,0,.8.8h1.6a.8.8,0,0,0,.8-.8V8.6h1.6a.8.8,0,0,0,.8-.8Z" fill="none" stroke="#323232" stroke-linecap="round" stroke-linejoin="round" stroke-width="1.5"/></svg>