<?xml version="1.0" encoding="UTF-8"?><svg version="1.1" viewBox="0 0 24 24" xmlns="http://www.w3.org/2000/svg" xmlns:xlink="http://www.w3.org/1999/xlink"><g stroke-linecap="round" stroke-width="1.5" stroke="#323232" fill="none" stroke-linejoin="round"><path d="M8.5 3v1.8l-3.03311e-08 3.6816e-07c-.0249563.302922.197544.569922.5.6h4l-3.08771e-09 3.07058e-10c.302457-.030078.524956-.297078.5-.6v-1.8"></path><path d="M12 21h-5l-8.74228e-08-3.55271e-15c-1.10457-4.82823e-08-2-.895431-2-2 0 0 0 0 0 0v-14l2.30926e-14 3.01992e-07c-1.66785e-07-1.10457.89543-2 2-2h8l-8.74228e-08 1.77636e-15c1.10457-4.82823e-08 2 .89543 2 2v4"></path><path d="M16 13.024l1.13478e-07 6.53037e-08c-.989359-.569352-2.10234-.889553-3.243-.933l1.46336e-08 9.93033e-10c-.390671-.0265108-.728864.2687-.755375.659371 -.00112096.0165189-.00166295.033072-.00162496.0496288v4.89l-2.11117e-08-1.66579e-06c.00480322.379026.303417.689026.681998.708002l1.02973e-07 1.26853e-09c1.17076.0144226 2.31634.341734 3.318.948l-2.46005e-07 1.48898e-07c1.00166-.606266 2.14725-.933577 3.318-.948l3.3528e-08-1.68048e-09c.378581-.0189751.677196-.328974.682-.708v-4.89l1.62304e-08-2.48724e-06c.00255444-.391562-.312798-.711056-.70436-.71361 -.0175615-.000114567-.0351212.000423403-.0526428.0016128l-6.96719e-08 2.70916e-09c-1.14091.0443638-2.25391.365599-3.243.935999Z"></path><path d="M16 13.024v6.322"></path></g><path fill="none" d="M0 0h24v24h-24Z"></path></svg>