<?xml version="1.0" encoding="UTF-8"?><svg version="1.1" viewBox="0 0 24 24" xmlns="http://www.w3.org/2000/svg" xmlns:xlink="http://www.w3.org/1999/xlink"><g stroke-linecap="round" stroke-width="1.5" stroke="#323232" fill="none" stroke-linejoin="round"><path d="M3 16v-8l5.68434e-14 7.54979e-07c-4.16963e-07-2.76142 2.23858-5 5-5h8l-2.18557e-07 5.32907e-15c2.76142-1.20706e-07 5 2.23858 5 5v8 1.77636e-15c0 2.76142-2.23858 5-5 5 0 0-1.77636e-15 0-1.77636e-15 0h-8l-2.18557e-07-7.10543e-15c-2.76142-1.20706e-07-5-2.23858-5-5Z"></path><path d="M15.854 8.854l2.23014e-08-2.2245e-08c-.195509.195015-.512091.194615-.707106-.000893739 -.195015-.195509-.194615-.512091.000893739-.707106 .195159-.194667.511053-.194667.706212-4.44901e-08l2.23014e-08 2.2245e-08c.195509.195015.195909.511597.000893739.707106 -.000297551.000298304-.000595479.000596232-.000893784.000893784"></path><path d="M13.89 21l-2.98752e-08 1.96604e-07c.0692136-.455482.105973-.915307.11-1.376l3.55271e-15-1.98853e-07c0-5.31519-4.30881-9.624-9.624-9.624 -8.88178e-16 0-1.97115e-07 1.77636e-15-1.97115e-07 1.77636e-15l-1.72567e-07 1.19513e-09c-.46073.00319084-.920614.0399549-1.376.11"></path></g><path fill="none" d="M24 24h-24v-24h24Z"></path></svg>