<svg id="Layer_3" data-name="Layer 3" xmlns="http://www.w3.org/2000/svg" viewBox="0 0 24 24"><path d="M7.5,3H5A1.99945,1.99945,0,0,0,3,5V7.5" fill="none" stroke="#323232" stroke-linecap="round" stroke-linejoin="round" stroke-width="1.3825"/><path d="M3,16.5V19a1.99945,1.99945,0,0,0,2,2H7.5" fill="none" stroke="#323232" stroke-linecap="round" stroke-linejoin="round" stroke-width="1.3825"/><path d="M16.5,21H19a1.99945,1.99945,0,0,0,2-2V16.5" fill="none" stroke="#323232" stroke-linecap="round" stroke-linejoin="round" stroke-width="1.3825"/><path d="M21,7.5V5a1.99945,1.99945,0,0,0-2-2H16.5" fill="none" stroke="#323232" stroke-linecap="round" stroke-linejoin="round" stroke-width="1.3825"/><path d="M14.82841,9.17157a4,4,0,1,1-5.65686,0,4,4,0,0,1,5.65686,0" fill="none" stroke="#323232" stroke-linecap="round" stroke-linejoin="round" stroke-width="1.3825"/><path d="M8,12H6" fill="none" stroke="#323232" stroke-linecap="round" stroke-linejoin="round" stroke-width="1.3825"/><path d="M18,12H16" fill="none" stroke="#323232" stroke-linecap="round" stroke-linejoin="round" stroke-width="1.3825"/><path d="M12,6V8" fill="none" stroke="#323232" stroke-linecap="round" stroke-linejoin="round" stroke-width="1.3825"/><path d="M12,18V16" fill="none" stroke="#323232" stroke-linecap="round" stroke-linejoin="round" stroke-width="1.3825"/><path d="M12,8a4,4,0,1,1-4,4,4,4,0,0,1,4-4" fill="none" stroke="#323232" stroke-linecap="round" stroke-linejoin="round" stroke-width="1.3825"/><path d="M12,11.75a.25.25,0,1,1-.25.25.25.25,0,0,1,.25-.25" fill="none" stroke="#323232" stroke-linecap="round" stroke-linejoin="round" stroke-width="1.3825"/><path d="M0,0H24V24H0Z" fill="none"/></svg>