<?xml version="1.0" encoding="UTF-8"?><svg version="1.1" viewBox="0 0 24 24" xmlns="http://www.w3.org/2000/svg" xmlns:xlink="http://www.w3.org/1999/xlink"><!--Generated by IJSVG (https://github.com/iconjar/IJSVG)--><g fill="none"><path d="M0,0h24v24h-24v-24Z"></path><path stroke="#323232" stroke-linecap="round" stroke-linejoin="round" stroke-width="1.5" d="M18,21h-12c-1.657,0 -3,-1.343 -3,-3v-12c0,-1.657 1.343,-3 3,-3h12c1.657,0 3,1.343 3,3v12c0,1.657 -1.343,3 -3,3Z"></path><path stroke="#323232" stroke-linecap="round" stroke-linejoin="round" stroke-width="1.5" d="M3,17.486l4.612,-4.612c0.391,-0.391 1.024,-0.391 1.414,0l1.406,1.406l4.577,-4.576c0.391,-0.391 1.024,-0.391 1.414,0l4.577,4.577"></path><path stroke="#323232" stroke-linecap="round" stroke-linejoin="round" stroke-width="1.5" d="M8.51517,7.40683c0.146447,0.146447 0.146447,0.383883 0,0.53033c-0.146447,0.146447 -0.383883,0.146447 -0.53033,0c-0.146447,-0.146447 -0.146447,-0.383883 0,-0.53033c0.146447,-0.146447 0.383883,-0.146447 0.53033,0"></path></g></svg>