<svg viewBox="0 0 24 24" xmlns="http://www.w3.org/2000/svg"><g stroke-linecap="round" stroke-width="1.5" stroke="#323232" fill="none" stroke-linejoin="round"><path d="M5.84 9.8l-1.09 5.51"/><path d="M16.57 9.78l1.95.03 0 0c.55 0 .99.46.98 1.01 -.01.06-.01.13-.03.19l-.32 1.44 -.01 0c-.11.46-.52.79-1 .78l-2.36-.04"/><path d="M16.58 9.79l-1.19 5.48"/><path d="M11.33 9.8l-.69 3.45"/><path d="M11.75 7.69l-.42 2.11"/><path d="M5.84 9.8h1.95l0-.001c.55-.01 1 .44 1 .99 0 .06-.01.13-.02.19l-.29 1.44 0-.01c-.1.46-.51.8-.99.8H5.13"/><path d="M13.49 13.25l.44-2.26 0-.01c.1-.55-.25-1.07-.79-1.18 -.07-.02-.13-.02-.2-.02H11.3"/><path d="M12 3a10.67 9 0 1 0 0 18 10.67 9 0 1 0 0-18Z"/></g><path fill="none" d="M0 24V0h24v24Z"/></svg>