<?xml version="1.0" encoding="UTF-8"?><svg version="1.1" viewBox="0 0 24 24" xmlns="http://www.w3.org/2000/svg" xmlns:xlink="http://www.w3.org/1999/xlink"><g stroke-linecap="round" stroke-width="1.5" stroke="#323232" fill="none" stroke-linejoin="round"><path d="M12 9.467v0"></path><path d="M9.467 11.307v0"></path><path d="M11.64 17.987l-2.173-6.68"></path><path d="M15.813 7.367l-2.246 6.92"></path><path d="M16.243 7.757l1.76073e-07 1.76103e-07c2.34295 2.34334 2.34263 6.14233-.000719008 8.48528 -2.34334 2.34295-6.14233 2.34263-8.48528-.000719008 -2.34267-2.34306-2.34267-6.1415 3.52146e-07-8.48456l2.11634e-07-2.1167e-07c2.34295-2.34334 6.14194-2.34367 8.48528-.000718233 .000239572.000239532.000479124.000479084.000718656.000718656"></path><rect width="18" height="18" x="3" y="3" rx="2.7614" ry="0"></rect><path d="M10.433 14.287h7.114"></path><path d="M6.233 13.653l5.767-4.186"></path><path d="M14.533 11.307l-5.886-4.28"></path></g><path fill="none" d="M0 24v-24h24v24Z"></path></svg>