<?xml version="1.0" encoding="UTF-8"?><svg version="1.1" viewBox="0 0 24 24" xmlns="http://www.w3.org/2000/svg" xmlns:xlink="http://www.w3.org/1999/xlink"><!--Generated by IJSVG (https://github.com/iconjar/IJSVG)--><g fill="none"><path d="M0,0h24v24h-24Z"></path><path stroke="#323232" stroke-linecap="round" stroke-linejoin="round" stroke-width="1.5" d="M18.75,10.75l-5.5,-5.5"></path><path stroke="#323232" stroke-linecap="round" stroke-linejoin="round" stroke-width="1.5" d="M7.082,6.998h-2c-1.105,0 -2,0.895 -2,2v10c0,1.105 0.895,2 2,2h10c1.105,0 2,-0.895 2,-2v-2"></path><path stroke="#323232" stroke-linecap="round" stroke-linejoin="round" stroke-width="1.5" d="M7.082,16.998c1.044,-1.044 3.259,0.119 5.381,-2.002l8.714,-8.714c0.959,-0.959 0.959,-2.515 0,-3.474l-0.026,-0.026c-0.959,-0.959 -2.515,-0.959 -3.474,0l-8.714,8.714c-2.122,2.122 -0.837,4.458 -1.881,5.502Z"></path></g></svg>