<svg id="Layer_3" data-name="Layer 3" xmlns="http://www.w3.org/2000/svg" viewBox="0 0 24 24"><rect width="24" height="24" fill="none"/><path d="M16,21a2,2,0,0,0,2-2V17" fill="none" stroke="#323232" stroke-linecap="round" stroke-linejoin="round" stroke-width="1.5"/><path d="M3,19a2,2,0,0,0,2,2" fill="none" stroke="#323232" stroke-linecap="round" stroke-linejoin="round" stroke-width="1.5"/><path d="M7,6H5A2,2,0,0,0,3,8" fill="none" stroke="#323232" stroke-linecap="round" stroke-linejoin="round" stroke-width="1.5"/><line x1="3" y1="12" x2="3" y2="15" fill="none" stroke="#323232" stroke-linecap="round" stroke-linejoin="round" stroke-width="1.5"/><line x1="9" y1="21" x2="12" y2="21" fill="none" stroke="#323232" stroke-linecap="round" stroke-linejoin="round" stroke-width="1.5"/><path d="M17.8892,3H10.1108A3.1108,3.1108,0,0,0,7,6.1108H7v7.7784A3.1108,3.1108,0,0,0,10.1108,17h7.7784A3.1108,3.1108,0,0,0,21,13.8892h0V6.1094A3.1108,3.1108,0,0,0,17.8892,3Z" fill="none" stroke="#323232" stroke-linecap="round" stroke-linejoin="round" stroke-width="1.5"/><path d="M11.67671,7.323a.25.25,0,1,1-.35355.00014l.00013-.00014a.2509.2509,0,0,1,.35342,0" fill="none" stroke="#323232" stroke-linecap="round" stroke-linejoin="round" stroke-width="1.5"/><path d="M21,9.3a6.94666,6.94666,0,0,0-.98-.0784A6.75077,6.75077,0,0,0,13.3,17" fill="none" stroke="#323232" stroke-linecap="round" stroke-linejoin="round" stroke-width="1.5"/></svg>