<?xml version="1.0" encoding="UTF-8"?><svg version="1.1" viewBox="0 0 24 24" xmlns="http://www.w3.org/2000/svg" xmlns:xlink="http://www.w3.org/1999/xlink"><!--Generated by IJSVG (https://github.com/iconjar/IJSVG)--><g fill="none"><path d="M0,0h24v24h-24Z"></path><path stroke="#323232" stroke-linecap="round" stroke-linejoin="round" stroke-width="1.5" d="M13.9749,4.02513c1.36684,1.36684 1.36684,3.58291 0,4.94975c-1.36684,1.36684 -3.58291,1.36684 -4.94975,1.77636e-15c-1.36684,-1.36684 -1.36684,-3.58291 -1.77636e-15,-4.94975c1.36684,-1.36684 3.58291,-1.36684 4.94975,-8.88178e-16"></path><path stroke="#323232" stroke-linecap="round" stroke-linejoin="round" stroke-width="1.5" d="M17.0325,11.9675c0.0179641,0.0179641 0.0179641,0.0470897 0,0.0650538c-0.0179641,0.0179641 -0.0470897,0.0179641 -0.0650538,0c-0.0179641,-0.0179641 -0.0179641,-0.0470897 0,-0.0650538c0.0179641,-0.0179641 0.0470897,-0.0179641 0.0650538,0"></path><path stroke="#323232" stroke-linecap="round" stroke-linejoin="round" stroke-width="1.5" d="M14.98,6.859c0.326,-0.084 0.639,-0.207 0.922,-0.389c0.461,-0.297 1.008,-0.47 1.598,-0.47h1v2.554c0.718,0.648 1.288,1.456 1.626,2.381h0.874c0.552,0 1,0.448 1,1v3.065c0,0.552 -0.448,1 -1,1h-1.311c-0.525,0.908 -1.283,1.664 -2.189,2.191v1.809c0,0.552 -0.448,1 -1,1h-2c-0.552,0 -1,-0.448 -1,-1v-1h-3.5v0.868c0,0.552 -0.448,1 -1,1h-2c-0.552,0 -1,-0.448 -1,-1v-2.405c-1.225,-1.098 -2,-2.688 -2,-4.463c0,-2.648 1.718,-4.891 4.098,-5.687"></path><path stroke="#323232" stroke-linecap="round" stroke-linejoin="round" stroke-width="1.5" d="M2.288,10c-0.469,0.273 -0.788,0.776 -0.788,1.358c0,0.871 0.706,1.577 1.577,1.577h0.923"></path><path stroke="#323232" stroke-linecap="round" stroke-linejoin="round" stroke-width="1.5" d="M8.5,10h6"></path></g></svg>