<?xml version="1.0" encoding="UTF-8"?><svg version="1.1" viewBox="0 0 24 24" xmlns="http://www.w3.org/2000/svg" xmlns:xlink="http://www.w3.org/1999/xlink"><g stroke-linecap="round" stroke-width="1.5" stroke="#323232" fill="none" stroke-linejoin="round"><path d="M15.029 7.5l-2.18557e-08 8.88178e-16c.276142-1.20706e-08.5.223858.5.5v.624l1.51832e-08 3.14705e-06c.000814978.169032-.0838293.327033-.225003.419999l-1.653 1.1v1.776l1.653 1.1 -1.98996e-08-1.32883e-08c.140347.0937191.224732.251239.225.42v.624 0c0 .276142-.223858.5-.5.5h-6.058 -2.18557e-08c-.276142-1.20706e-08-.5-.223858-.5-.5 0 0 0-1.77636e-15 0-1.77636e-15v-.624l-1.50493e-08-3.11929e-06c-.000814988-.169032.0838292-.327033.225003-.419999l1.653-1.1v-1.771l-1.653-1.1 3.32755e-08 2.22203e-08c-.140347-.0937191-.224732-.251239-.225-.42v-.629l5.32907e-15 7.54979e-08c-4.16963e-08-.276142.223858-.5.5-.5h6.058"></path><path d="M12 17.5v-2.929"></path><rect width="18" height="18" x="3" y="3" rx="2.7614" ry="0"></rect></g><rect width="24" height="24" fill="none"></rect></svg>