<?xml version="1.0" encoding="UTF-8"?><svg version="1.1" viewBox="0 0 24 24" xmlns="http://www.w3.org/2000/svg" xmlns:xlink="http://www.w3.org/1999/xlink"><g fill="none"><path d="M0 0h24v24h-24v-24Z"></path><path stroke="#323232" stroke-linecap="round" stroke-linejoin="round" stroke-width="1.5" d="M4.5 10c0 4.411 5.014 9.166 6.843 10.754 .379.329.936.329 1.315 0 1.828-1.588 6.842-6.343 6.842-10.754 0-3.866-3.358-7-7.5-7 -4.142 0-7.5 3.134-7.5 7Z"></path><line x1="9.39" x2="14.58" y1="12.8" y2="7.6" stroke="#323232" stroke-linecap="round" stroke-linejoin="round" stroke-width="1.5"></line><path stroke="#323232" stroke-linecap="round" stroke-linejoin="round" stroke-width="1.5" d="M11.985 14c-2.098 0-3.799-1.701-3.799-3.799 0-2.098 1.701-3.799 3.799-3.799 2.098 0 3.799 1.701 3.799 3.799 0 2.098-1.702 3.799-3.799 3.799"></path></g></svg>