<?xml version="1.0" encoding="UTF-8"?><svg version="1.1" viewBox="0 0 24 24" xmlns="http://www.w3.org/2000/svg" xmlns:xlink="http://www.w3.org/1999/xlink"><g fill="none"><rect width="24" height="24"></rect><path stroke="#323232" stroke-linecap="round" stroke-linejoin="round" stroke-width="1.5" d="M13.414 10.586l8.37143e-08 8.3689e-08c.781166.780931.781358 2.04726.000426925 2.82843 -.780931.781166-2.04726.781358-2.82843.000426925 -.781166-.780931-.781358-2.04726-.000426925-2.82843 .000142343-.000142386.000284707-.00028475.000427093-.000427092l-1.23061e-07 1.23024e-07c.781-.780764 2.047-.780764 2.828-2.46048e-07"></path><path stroke="#323232" stroke-linecap="round" stroke-linejoin="round" stroke-width="1.5" d="M12 14v3"></path><circle cx="12" cy="12" r="9" stroke="#323232" stroke-linecap="round" stroke-linejoin="round" stroke-width="1.5"></circle><line x1="7" x2="6" y1="12" y2="12" stroke="#323232" stroke-linecap="round" stroke-linejoin="round" stroke-width="1.5"></line><line x1="18" x2="17" y1="12" y2="12" stroke="#323232" stroke-linecap="round" stroke-linejoin="round" stroke-width="1.5"></line><line x1="12" x2="12" y1="6" y2="7" stroke="#323232" stroke-linecap="round" stroke-linejoin="round" stroke-width="1.5"></line><line x1="16.24" x2="15.54" y1="7.76" y2="8.46" stroke="#323232" stroke-linecap="round" stroke-linejoin="round" stroke-width="1.5"></line><line x1="7.76" x2="8.46" y1="7.76" y2="8.46" stroke="#323232" stroke-linecap="round" stroke-linejoin="round" stroke-width="1.5"></line></g></svg>