<svg xmlns="http://www.w3.org/2000/svg" viewBox="0 0 24 24"><g id="Layer_2" data-name="Layer 2"><path d="M0,24V0H24V24Z" fill="none"/><circle cx="19" cy="5" r="2" fill="none" stroke="#323232" stroke-linecap="round" stroke-linejoin="round" stroke-width="1.5"/><path d="M14,3.26465A8.81891,8.81891,0,0,0,12,3a9,9,0,1,0,9,9,8.81847,8.81847,0,0,0-.26465-2" fill="none" stroke="#323232" stroke-linecap="round" stroke-linejoin="round" stroke-width="1.5"/><path d="M8,11.5c0,1.82144,2.04227,3.76712,3.20922,4.72984a1.294,1.294,0,0,0,1.58317-.00039C13.95829,15.26658,16,13.32119,16,11.5h0a4,4,0,0,0-4-4h0a4,4,0,0,0-4,4Z" fill="none" stroke="#323232" stroke-linecap="round" stroke-linejoin="round" stroke-width="1.5"/><path d="M11.999,11.25a.25.25,0,1,0,.251.25.24868.24868,0,0,0-.251-.25" fill="none" stroke="#323232" stroke-linecap="round" stroke-linejoin="round" stroke-width="1.5"/></g></svg>