<svg id="Layer_3" data-name="Layer 3" xmlns="http://www.w3.org/2000/svg" viewBox="0 0 24 24"><line x1="12" y1="20" x2="12" y2="15.5" fill="none" stroke="#323232" stroke-linecap="round" stroke-linejoin="round" stroke-width="1.5"/><path d="M6.50154,15.5a1,1,0,0,1-.85749-1.5145l2.12109-3.53512a1.50014,1.50014,0,0,0,.18464-1.066L7.35132,6.39225A2,2,0,0,1,9.31248,4h5.375a2,2,0,0,1,1.96116,2.39225l-.59846,2.99213a1.50014,1.50014,0,0,0,.18464,1.066L18.356,13.9855A1,1,0,0,1,17.49846,15.5Z" fill="none" stroke="#323232" stroke-linecap="round" stroke-linejoin="round" stroke-width="1.5"/><path d="M0,0H24V24H0Z" fill="none"/></svg>