<svg id="Layer_3" data-name="Layer 3" xmlns="http://www.w3.org/2000/svg" viewBox="0 0 24 24"><line x1="6.49999" y1="9.00001" x2="8.99999" y2="9.00001" fill="none" stroke="#323232" stroke-linecap="round" stroke-linejoin="round" stroke-width="1.5"/><line x1="6.49999" y1="15.00001" x2="7.99999" y2="15.00001" fill="none" stroke="#323232" stroke-linecap="round" stroke-linejoin="round" stroke-width="1.5"/><line x1="6.49999" y1="12.00001" x2="7.99999" y2="12.00001" fill="none" stroke="#323232" stroke-linecap="round" stroke-linejoin="round" stroke-width="1.5"/><circle cx="11.99999" cy="12.00001" r="9.5" fill="none" stroke="#323232" stroke-linecap="round" stroke-linejoin="round" stroke-width="1.5"/><line x1="14.5" y1="17" x2="14.5" y2="14.5" fill="none" stroke="#323232" stroke-linecap="round" stroke-linejoin="round" stroke-width="1.5"/><path d="M17.49923,14.5H11.50077a.5.5,0,0,1-.42874-.75725l1.29674-2.16124a1,1,0,0,0,.12309-.71061l-.335-1.67478A1,1,0,0,1,13.13748,8h2.725a1,1,0,0,1,.98058,1.19612l-.335,1.67478a1,1,0,0,0,.12309.71061L17.928,13.74275A.5.5,0,0,1,17.49923,14.5Z" fill="none" stroke="#323232" stroke-linecap="round" stroke-linejoin="round" stroke-width="1.5"/><path d="M0,0,0,24l24,0L24,0Z" fill="none"/></svg>