<svg id="Layer_3" data-name="Layer 3" xmlns="http://www.w3.org/2000/svg" viewBox="0 0 24 24"><rect width="24" height="24" fill="none"/><rect x="16" y="18" width="6" height="4" rx="1.25" stroke-width="1.5" stroke="#323232" stroke-linecap="round" stroke-linejoin="round" fill="none"/><path d="M17.25,18V16.75A1.75,1.75,0,0,1,19,15h0a1.75,1.75,0,0,1,1.75,1.75V18" fill="none" stroke="#323232" stroke-linecap="round" stroke-linejoin="round" stroke-width="1.5"/><path d="M12,20a9,9,0,1,1,9-9" fill="none" stroke="#323232" stroke-linecap="round" stroke-linejoin="round" stroke-width="1.5"/><path d="M11.999,10.25a.25.25,0,1,0,.251.25.24869.24869,0,0,0-.251-.25" fill="none" stroke="#323232" stroke-linecap="round" stroke-linejoin="round" stroke-width="1.5"/><path d="M8.5,10.5h0A3.5,3.5,0,0,1,12,7h0a3.5,3.5,0,0,1,3.5,3.5h0c0,1.63851-1.788,3.38881-2.808,4.25435a1.09611,1.09611,0,0,1-1.383,0C10.288,13.88881,8.5,12.13851,8.5,10.5Z" fill="none" stroke="#323232" stroke-linecap="round" stroke-linejoin="round" stroke-width="1.5"/></svg>