<svg id="Layer_3" data-name="Layer 3" xmlns="http://www.w3.org/2000/svg" viewBox="0 0 24 24"><path d="M15.62647,4.58588l3.78765,3.78765a2,2,0,0,1-.30482,3.07831l-2.7551,1.83674a2,2,0,0,0-.83088,1.179l-1.19356,4.77424a1,1,0,0,1-1.6772.46456l-8.359-8.359a1,1,0,0,1,.46456-1.6772L9.53239,8.47668a2,2,0,0,0,1.179-.83088l1.83674-2.7551A2,2,0,0,1,15.62647,4.58588Z" fill="none" stroke="#323232" stroke-linecap="round" stroke-linejoin="round" stroke-width="1.5"/><line x1="8.47308" y1="15.52692" x2="4" y2="20" fill="none" stroke="#323232" stroke-linecap="round" stroke-linejoin="round" stroke-width="1.5"/><line x1="15.91365" y1="13.68896" x2="10.31097" y2="8.08628" fill="none" stroke="#323232" stroke-linecap="round" stroke-linejoin="round" stroke-width="1.5"/><rect width="24" height="24" fill="none"/></svg>