<?xml version="1.0" encoding="UTF-8"?><svg version="1.1" viewBox="0 0 24 24" xmlns="http://www.w3.org/2000/svg" xmlns:xlink="http://www.w3.org/1999/xlink"><!--Generated by IJSVG (https://github.com/iconjar/IJSVG)--><g stroke-linecap="round" stroke-width="1.5" stroke="#323232" fill="none" stroke-linejoin="round"><path d="M9.116,14.187c-3.554,0.468 -6.116,1.773 -6.116,3.313c0,1.933 4.029,3.5 9,3.5c4.971,0 9,-1.567 9,-3.5c0,-1.54 -2.562,-2.845 -6.116,-3.313"></path><path d="M18,7.833c0,-3.221 -2.686,-5.833 -6,-5.833c-3.314,0 -6,2.612 -6,5.833c0,4.375 6,9.167 6,9.167c0,0 6,-4.792 6,-9.167Z"></path><path d="M13.4142,6.58579c0.781049,0.781049 0.781049,2.04738 0,2.82843c-0.781049,0.781049 -2.04738,0.781049 -2.82843,0c-0.781049,-0.781049 -0.781049,-2.04738 0,-2.82843c0.781049,-0.781049 2.04738,-0.781049 2.82843,-8.88178e-16"></path></g><path fill="none" d="M0,0h24v24h-24Z"></path></svg>