<svg viewBox="0 0 24 24" xmlns="http://www.w3.org/2000/svg"><path fill="none" stroke="#323232" stroke-linecap="round" stroke-linejoin="round" stroke-width="1.5" d="M17.494 5.27v0l0 0c3.03 3.03 3.03 7.95 0 10.98 -.01 0-.01 0-.01 0v0l-4.2 4.19 0-.01c-.72.71-1.88.71-2.59 0l-4.2-4.2 -.01-.01c-3.04-3.04-3.04-7.96 0-10.99 0-.01 0-.01 0-.01v0l-.01 0c3.03-3.04 7.95-3.04 10.98-.01 0 0 0 0 0 0Z"/><g transform="translate(-4.26346 11.7071)"><rect width="6.095" height="6.095" x="8.952" y="7.952" rx="1.955" fill="none" stroke="#323232" stroke-linecap="round" stroke-linejoin="round" stroke-width="1.5" transform="matrix(.7071-.70711.7071.7071 0 0)"/></g><path fill="none" d="M0 0h24v24H0Z"/></svg>