<svg xmlns="http://www.w3.org/2000/svg" viewBox="0 0 24 24"><g id="Layer_2" data-name="Layer 2"><path d="M0,0V24H24V0Z" fill="none"/><path d="M14,20.76929A9.02819,9.02819,0,1,1,20.76928,14" fill="none" stroke="#323232" stroke-linecap="round" stroke-linejoin="round" stroke-width="1.5"/><path d="M17.25,18.74915h3" fill="none" stroke="#323232" stroke-linecap="round" stroke-linejoin="round" stroke-width="1.5"/><path d="M18.74913,17.25v3" fill="none" stroke="#323232" stroke-linecap="round" stroke-linejoin="round" stroke-width="1.5"/><line x1="8" y1="16" x2="10.5382" y2="13.4618" fill="none" stroke="#323232" stroke-linecap="round" stroke-linejoin="round" stroke-width="1.5"/><path d="M14.40279,7.28993l2.30728,2.30728a.9897.9897,0,0,1-.15083,1.52331l-1.68809,1.12539a.98971.98971,0,0,0-.41117.58345l-.69886,2.79547a.49485.49485,0,0,1-.83.2299L8.14527,11.06887a.49485.49485,0,0,1,.2299-.83L11.17064,9.54a.98971.98971,0,0,0,.58345-.41117l1.12539-1.68809A.9897.9897,0,0,1,14.40279,7.28993Z" fill="none" stroke="#323232" stroke-linecap="round" stroke-linejoin="round" stroke-width="1.5"/></g></svg>