<?xml version="1.0" encoding="UTF-8"?><svg version="1.1" viewBox="0 0 24 24" xmlns="http://www.w3.org/2000/svg" xmlns:xlink="http://www.w3.org/1999/xlink"><!--Generated by IJSVG (https://github.com/iconjar/IJSVG)--><g fill="none"><path d="M0,0h24v24h-24Z"></path><path stroke="#323232" stroke-linecap="round" stroke-linejoin="round" stroke-width="1.5" d="M3,11h1.5"></path><path stroke="#323232" stroke-linecap="round" stroke-linejoin="round" stroke-width="1.5" d="M21,11h-1.5"></path><path stroke="#323232" stroke-linecap="round" stroke-linejoin="round" stroke-width="1.5" d="M18.36,4.64l-1.06,1.06"></path><path stroke="#323232" stroke-linecap="round" stroke-linejoin="round" stroke-width="1.5" d="M5.64,4.64l1.06,1.06"></path><path stroke="#323232" stroke-linecap="round" stroke-linejoin="round" stroke-width="1.5" d="M12,2v1.5"></path><path stroke="#323232" stroke-linecap="round" stroke-linejoin="round" stroke-width="1.5" d="M12,18c0,0 -4.083,-3.354 -4.083,-6.417c0,-2.255 1.828,-4.083 4.083,-4.083c2.255,0 4.083,1.828 4.083,4.083c0,3.063 -4.083,6.417 -4.083,6.417Z"></path><path stroke="#323232" stroke-linecap="round" stroke-linejoin="round" stroke-width="1.5" d="M11.999,11.408c-0.161,0 -0.291,0.131 -0.291,0.292c0,0.161 0.131,0.291 0.292,0.291c0.161,0 0.291,-0.131 0.291,-0.292c0.001,-0.16 -0.13,-0.291 -0.292,-0.291"></path><path stroke="#323232" stroke-linecap="round" stroke-linejoin="round" stroke-width="1.5" d="M8,21h8"></path></g></svg>