<svg xmlns="http://www.w3.org/2000/svg" viewBox="0 0 24 24"><g id="Layer_2" data-name="Layer 2"><path d="M0,24V0L24,0V24Z" fill="none"/><path d="M8,11.5c0,1.82144,2.04227,3.76712,3.20922,4.72984a1.294,1.294,0,0,0,1.58317-.00039C13.95829,15.26658,16,13.32119,16,11.5h0a4,4,0,0,0-4-4h0a4,4,0,0,0-4,4Z" fill="none" stroke="#323232" stroke-linecap="round" stroke-linejoin="round" stroke-width="1.5"/><path d="M11.999,11.25a.25.25,0,1,0,.251.25.24868.24868,0,0,0-.251-.25" fill="none" stroke="#323232" stroke-linecap="round" stroke-linejoin="round" stroke-width="1.5"/><path d="M20.582,9.353A8.8393,8.8393,0,0,1,21,12a9,9,0,1,1-9-9,8.839,8.839,0,0,1,2.647.418" fill="none" stroke="#323232" stroke-linecap="round" stroke-linejoin="round" stroke-width="1.5"/><path d="M17.799,5.062,19,6.262l1.99893-2" fill="none" stroke="#323232" stroke-linecap="round" stroke-linejoin="round" stroke-width="1.5"/></g></svg>