<?xml version="1.0" encoding="UTF-8"?><svg version="1.1" viewBox="0 0 24 24" xmlns="http://www.w3.org/2000/svg" xmlns:xlink="http://www.w3.org/1999/xlink"><g stroke-linecap="round" stroke-width="1.5" stroke="#323232" fill="none" stroke-linejoin="round"><polyline points="18,15.75 21,15.75 21,18.75"></polyline><path d="M16.533 4.076c-.9-.521-1.897-.89-2.959-1.076"></path><path d="M20.518 8.827c-.366-1.004-.896-1.927-1.57-2.73"></path><path d="M10.426 3c-1.062.186-2.058.555-2.959 1.076"></path><path d="M5.052 6.097c-.674.803-1.204 1.726-1.57 2.73"></path><path d="M3 12c0 4.971 4.029 9 9 9 3.63 0 6.751-2.154 8.174-5.25"></path><path d="M12.692 15.724c-.386.368-.997.368-1.383 0 -1.02-.973-2.808-2.942-2.808-4.785 -.001-1.9 1.566-3.439 3.499-3.439 1.933 0 3.5 1.539 3.5 3.438 0 1.844-1.788 3.813-2.808 4.786Z"></path><path d="M11.999 10.85c-.138 0-.25.112-.249.25 0 .138.112.25.25.25 .138 0 .25-.112.25-.25 0-.138-.112-.25-.251-.25"></path><path d="M3 12c0 4.971 4.029 9 9 9"></path></g><rect width="24" height="24" fill="none"></rect></svg>