<?xml version="1.0" encoding="UTF-8"?><svg version="1.1" viewBox="0 0 24 24" xmlns="http://www.w3.org/2000/svg" xmlns:xlink="http://www.w3.org/1999/xlink"><!--Generated by IJSVG (https://github.com/iconjar/IJSVG)--><g stroke-linecap="round" stroke-width="1.5" stroke="#323232" fill="none" stroke-linejoin="round"><path d="M7.5,3h-2.25c-1.243,0 -2.25,1.007 -2.25,2.25v2.25"></path><path d="M3,16.5v2.25c0,1.243 1.007,2.25 2.25,2.25h2.25"></path><path d="M16.5,21h2.25c1.243,0 2.25,-1.007 2.25,-2.25v-2.25"></path><path d="M21,7.5v-2.25c0,-1.243 -1.007,-2.25 -2.25,-2.25h-2.25"></path></g><path fill="none" d="M0,0h24v24h-24Z"></path><g stroke-linecap="round" stroke-width="1.5" stroke="#323232" fill="none" stroke-linejoin="round"><path d="M12,17c0,0 -3.889,-3.194 -3.889,-6.111c0,-2.148 1.741,-3.889 3.889,-3.889c2.148,0 3.889,1.741 3.889,3.889c0,2.917 -3.889,6.111 -3.889,6.111Z"></path><path d="M11.999,10.722c-0.153,0 -0.277,0.125 -0.277,0.278c0,0.153 0.125,0.277 0.278,0.277c0.153,0 0.278,-0.124 0.278,-0.278c-1.77636e-15,-0.152 -0.125,-0.277 -0.279,-0.277"></path></g></svg>