<?xml version="1.0" encoding="UTF-8"?><svg version="1.1" viewBox="0 0 24 24" xmlns="http://www.w3.org/2000/svg" xmlns:xlink="http://www.w3.org/1999/xlink"><g fill="none"><path d="M0 0h24v24h-24v-24Z"></path><path stroke="#323232" stroke-linecap="round" stroke-linejoin="round" stroke-width="1.5" d="M20 15v-8c0-2.209-1.791-4-4-4h-9c-2.209 0-4 1.791-4 4v9c0 2.209 1.791 4 4 4h8"></path><line x1="20" x2="18" y1="19" y2="19" stroke="#323232" stroke-linecap="round" stroke-linejoin="round" stroke-width="1.5"></line><path stroke="#323232" stroke-linecap="round" stroke-linejoin="round" stroke-width="1.5" d="M19 15c2.209 0 4 1.791 4 4 0 2.209-1.791 4-4 4 -2.209 0-4-1.791-4-4 0-2.209 1.791-4 4-4"></path><path stroke="#323232" stroke-linecap="round" stroke-linejoin="round" stroke-width="1.5" d="M12.2 14.717c-.39.383-1.009.383-1.399 0 -.955-.938-2.55-2.759-2.55-4.467 -.001-1.795 1.454-3.25 3.249-3.25 1.795 0 3.25 1.455 3.25 3.25 0 1.708-1.595 3.529-2.55 4.467Z"></path><path stroke="#323232" stroke-linecap="round" stroke-linejoin="round" stroke-width="1.5" d="M11.499 10.111c-.128 0-.232.104-.231.232 0 .128.104.232.232.232 .128 0 .232-.104.232-.232 0-.128-.104-.232-.233-.232"></path></g></svg>