<?xml version="1.0" encoding="UTF-8"?><svg version="1.1" viewBox="0 0 24 24" xmlns="http://www.w3.org/2000/svg" xmlns:xlink="http://www.w3.org/1999/xlink"><g fill="none"><path d="M0 0h24v24h-24v-24Z"></path><path stroke="#323232" stroke-linecap="round" stroke-linejoin="round" stroke-width="1.5" d="M15 7.5c.276 0 .5.226.5.504v.624c0 .17-.083.326-.223.42l-1.637 1.101v1.771l1.637 1.101c.139.093.223.252.223.42v.624c0 .279-.223.504-.499.504h-6.002c-.276 0-.499-.226-.499-.504v-.624c0-.17.083-.326.223-.42l1.637-1.101v-1.771l-1.637-1.101c-.139-.093-.223-.252-.223-.42v-.624c0-.278.223-.504.5-.504h6"></path><path stroke="#323232" stroke-linecap="round" stroke-linejoin="round" stroke-width="1.5" d="M12 17.5v-2.929"></path><path stroke="#323232" stroke-linecap="round" stroke-linejoin="round" stroke-width="1.5" d="M18 21h-12c-1.657 0-3-1.343-3-3v-12c0-1.657 1.343-3 3-3h12c1.657 0 3 1.343 3 3v12c0 1.657-1.343 3-3 3Z"></path></g></svg>