<?xml version="1.0" encoding="UTF-8"?><svg version="1.1" viewBox="0 0 24 24" xmlns="http://www.w3.org/2000/svg" xmlns:xlink="http://www.w3.org/1999/xlink"><!--Generated by IJSVG (https://github.com/iconjar/IJSVG)--><g stroke-linecap="round" stroke-width="1.5" stroke="#323232" fill="none" stroke-linejoin="round"><path d="M5.87,5.872c1.569,-1.569 3.737,-2.539 6.132,-2.539c4.789,0 8.672,3.881 8.672,8.668c0,0.668 -0.083,1.316 -0.226,1.941"></path><path d="M19.107,12.602l1.567,1.567l1.567,-1.567"></path><path d="M18.13,18.128c-1.569,1.569 -3.737,2.539 -6.132,2.539c-4.789,0 -8.672,-3.881 -8.672,-8.668c0,-0.668 0.083,-1.316 0.226,-1.941"></path><path d="M4.893,11.398l-1.567,-1.567l-1.567,1.567"></path><path d="M12,16.5c0,0 -3.5,-2.875 -3.5,-5.5c0,-1.933 1.567,-3.5 3.5,-3.5c1.933,0 3.5,1.567 3.5,3.5c0,2.625 -3.5,5.5 -3.5,5.5Z"></path><path d="M11.999,10.85c-0.138,0 -0.25,0.112 -0.249,0.25c0,0.138 0.112,0.25 0.25,0.25c0.138,0 0.25,-0.112 0.25,-0.25c0,-0.138 -0.112,-0.25 -0.251,-0.25"></path></g><path fill="none" d="M0,0h24v24h-24Z"></path></svg>