<svg id="Layer_3" data-name="Layer 3" xmlns="http://www.w3.org/2000/svg" viewBox="0 0 24 24"><path d="M13,9V6.5A1.5,1.5,0,0,1,14.5,5h0A1.5,1.5,0,0,1,16,6.5V9a1,1,0,0,0,1,1h1a1,1,0,0,0,1-1V6.5A4.5,4.5,0,0,0,14.5,2h0A4.5,4.5,0,0,0,10,6.5V9a1,1,0,0,0,1,1h1A1,1,0,0,0,13,9Z" fill="none" stroke="#323232" stroke-linecap="round" stroke-linejoin="round" stroke-width="1.5"/><circle cx="14.5" cy="18" r="3" fill="none" stroke="#323232" stroke-linecap="round" stroke-linejoin="round" stroke-width="1.5"/><path d="M4,5.80841,11.90192,19.495A3,3,0,0,0,17.5,17.995V10" fill="none" stroke="#323232" stroke-linecap="round" stroke-linejoin="round" stroke-width="1.5"/><rect width="24" height="24" fill="none"/></svg>