<?xml version="1.0" encoding="UTF-8"?><svg version="1.1" viewBox="0 0 24 24" xmlns="http://www.w3.org/2000/svg" xmlns:xlink="http://www.w3.org/1999/xlink"><g fill="none"><path d="M0 0h24v24h-24Z"></path><line x1="12" x2="12" y1="18" y2="14.72" stroke="#323232" stroke-linecap="round" stroke-linejoin="round" stroke-width="1.5"></line><path stroke="#323232" stroke-linecap="round" stroke-linejoin="round" stroke-width="1.5" d="M15.071 14.724h-6.142l2.64237e-08-1.16689e-11c-.690356.00030488-1.25025-.559092-1.25055-1.24945 -4.41257e-05-.0999163.0118917-.199478.0355519-.296552l.086-.348 1.12964e-08-4.6329e-08c.245737-1.00782 1.14865-1.71702 2.186-1.717h4.03l-2.628e-08-2.28688e-11c1.0366.000902036 1.93844.709902 2.184 1.717l.085.348 1.7832e-09 7.31624e-09c.163476.670721-.247727 1.34697-.918448 1.51045 -.0967495.023581-.19597.0355162-.295552.0355519Z"></path><path stroke="#323232" stroke-linecap="round" stroke-linejoin="round" stroke-width="1.5" d="M13.852 11.116l-.408-2.449 1.156-.867 3.92936e-08-2.94135e-08c.319221-.238955.384289-.691446.145334-1.01067 -.136396-.182212-.350727-.289439-.578334-.289334h-4.333l5.09192e-09 9.41824e-12c-.398749-.000737577-.722597.321914-.723334.720663 -.000421664.22796.106839.44273.289334.579337l1.155.867 -.408 2.449"></path><circle cx="12" cy="12" r="9" stroke="#323232" stroke-linecap="round" stroke-linejoin="round" stroke-width="1.5"></circle></g></svg>