<?xml version="1.0" encoding="UTF-8"?><svg version="1.1" viewBox="0 0 24 24" xmlns="http://www.w3.org/2000/svg" xmlns:xlink="http://www.w3.org/1999/xlink"><!--Generated by IJSVG (https://github.com/iconjar/IJSVG)--><g fill="none"><path d="M0,0h24v24h-24Z"></path><path stroke="#323232" stroke-linecap="round" stroke-linejoin="round" stroke-width="1.5" d="M10.8,21l1.2,-1.2l-1.2,-1.2"></path><path stroke="#323232" stroke-linecap="round" stroke-linejoin="round" stroke-width="1.5" d="M12,16c0,0 -5.2,-4.153 -5.2,-7.944c0,-2.793 2.328,-5.056 5.2,-5.056c2.872,0 5.2,2.263 5.2,5.056c0,3.791 -5.2,7.944 -5.2,7.944Z"></path><path stroke="#323232" stroke-linecap="round" stroke-linejoin="round" stroke-width="1.5" d="M13.2254,6.97458c0.676779,0.676779 0.676779,1.77405 0,2.45083c-0.676779,0.676779 -1.77405,0.676779 -2.45083,0c-0.676779,-0.676779 -0.676779,-1.77405 0,-2.45083c0.676779,-0.676779 1.77405,-0.676779 2.45083,-8.88178e-16"></path><path stroke="#323232" stroke-linecap="round" stroke-linejoin="round" stroke-width="1.5" d="M18,13.704c1.836,0.639 3,1.562 3,2.596c0,1.472 -2.34,2.73 -5.65,3.247"></path><path stroke="#323232" stroke-linecap="round" stroke-linejoin="round" stroke-width="1.5" d="M6,13.704c-1.836,0.639 -3,1.562 -3,2.596c0,1.933 4.029,3.5 9,3.5"></path></g></svg>