<svg id="Layer_3" data-name="Layer 3" xmlns="http://www.w3.org/2000/svg" viewBox="0 0 24 24"><path id="a" d="M0,0H24V24H0Z" fill="none"/><path d="M10.8,21,12,19.8l-1.2-1.2" fill="none" stroke="#323232" stroke-linecap="round" stroke-linejoin="round" stroke-width="1.5"/><path d="M18,13.704c1.836.639,3,1.562,3,2.596,0,1.472-2.34,2.73-5.65,3.247" fill="none" stroke="#323232" stroke-linecap="round" stroke-linejoin="round" stroke-width="1.5"/><path d="M6,13.704c-1.836.639-3,1.562-3,2.596,0,1.933,4.029,3.5,9,3.5" fill="none" stroke="#323232" stroke-linecap="round" stroke-linejoin="round" stroke-width="1.5"/><path d="M7,8c0,2.16692,2.48832,4.47976,3.954,5.65463a1.755,1.755,0,0,0,2.09009.00052C14.511,12.48047,17,10.16727,17,8h0a5,5,0,0,0-5-5h0A5,5,0,0,0,7,8Z" fill="none" stroke="#323232" stroke-linecap="round" stroke-linejoin="round" stroke-width="1.5"/><path d="M11.999,7.75A.25.25,0,1,0,12.25,8a.24868.24868,0,0,0-.251-.25" fill="none" stroke="#323232" stroke-linecap="round" stroke-linejoin="round" stroke-width="1.5"/></svg>