<?xml version="1.0" encoding="UTF-8"?><svg version="1.1" viewBox="0 0 24 24" xmlns="http://www.w3.org/2000/svg" xmlns:xlink="http://www.w3.org/1999/xlink"><g stroke-linecap="round" stroke-width="1.5" stroke="#323232" fill="none" stroke-linejoin="round"><path d="M16 3l-1.13024e-07-1.22027e-11c2.7613.00029811 4.9997 2.2387 5 5"></path><path d="M16 6l1.07872e-07-2.9674e-11c1.10427-.000303739 1.9997.894634 2 1.9989 1.00869e-07.000366717 1.00849e-07.000733434-5.93907e-11.00110015"></path><path d="M14.4419 9.01146v0l2.72705e-08 2.72705e-08c1.34861 1.3486 1.34861 3.53512 7.96625e-06 4.88373 -2.67368e-06 2.67369e-06-5.3471e-06 5.34711e-06-8.02079e-06 8.02079e-06v0l-1.86644 1.86645 -4.51579e-09 4.5158e-09c-.317801.317801-.833058.317802-1.15086 1.27818e-06 -4.29072e-07-4.29071e-07-8.58142e-07-8.58141e-07-1.28721e-06-1.28721e-06l-1.86644-1.86645 5.0348e-08 5.03478e-08c-1.34861-1.3486-1.34861-3.53512-8.12149e-06-4.88373 2.67368e-06-2.67369e-06 5.3471e-06-5.34711e-06 8.02079e-06-8.02079e-06v0l-2.91189e-08 2.9119e-08c1.3486-1.34861 3.53512-1.34861 4.88373-8.17973e-06 2.69047e-06 2.69047e-06 5.38068e-06 5.38067e-06 8.07114e-06 8.07114e-06Z"></path><path d="M12 3h-5l4.53988e-08-2.04281e-12c-2.2091 9.93776e-05-3.9999 1.7909-4 4v9l-2.91536e-08-.000539216c4.16945e-07 2.7613 2.23816 4.99994 4.99946 5.00054h9l8.17529e-08-3.68061e-12c2.2091-9.94478e-05 3.9999-1.7909 4-4v-5"></path></g><path fill="none" d="M0 0h24v24h-24Z"></path></svg>