<?xml version="1.0" encoding="UTF-8"?><svg version="1.1" viewBox="0 0 24 24" xmlns="http://www.w3.org/2000/svg" xmlns:xlink="http://www.w3.org/1999/xlink"><g fill="none"><path d="M0 0h24v24h-24Z"></path><path stroke="#323232" stroke-linecap="round" stroke-linejoin="round" stroke-width="1.5" d="M12 20v-5"></path><path stroke="#323232" stroke-linecap="round" stroke-linejoin="round" stroke-width="1.5" d="M6.99 15h10.02c.547 0 .99-.443.99-.99v0c0-.32-.154-.62-.415-.806l-3.085-2.204v-3l2.555-1.703c.278-.186.445-.498.445-.832v-.465c0-.552-.448-1-1-1h-9c-.552 0-1 .448-1 1v.465c0 .334.167.647.445.832l2.555 1.703v3l-3.085 2.204c-.261.186-.415.486-.415.806v0c0 .547.443.99.99.99Z"></path></g></svg>