<?xml version="1.0" encoding="UTF-8"?><svg version="1.1" viewBox="0 0 24 24" xmlns="http://www.w3.org/2000/svg" xmlns:xlink="http://www.w3.org/1999/xlink"><defs><path d="M0 0h24v24h-24Z" id="a"></path></defs><g fill="none"><use xlink:href="#a"></use><path stroke="#323232" stroke-linecap="round" stroke-linejoin="round" stroke-width="1.5" d="M5.29 18.96l4.24-4.24"></path><path stroke="#323232" stroke-linecap="round" stroke-linejoin="round" stroke-width="1.5" d="M17.487 9.414l2.072.11c.283.015.56-.091.76-.291l.437-.437c.391-.391.391-1.024 0-1.414l-3.887-3.887c-.391-.391-1.024-.391-1.414 0l-.326.325c-.188.188-.293.442-.293.707v2.236l-2.651 2.651h-3.561c-.265 0-.52.105-.707.293l-.988.988c-.391.391-.391 1.024 0 1.414l2.606 2.606 2.606 2.606c.391.391 1.024.391 1.414 0l.988-.988c.188-.188.293-.442.293-.707v-3.562l2.651-2.65Z"></path><path stroke="#323232" stroke-linecap="round" stroke-linejoin="round" stroke-width="1.5" d="M17.49 9.41l-2.65-2.65"></path><path stroke="#323232" stroke-linecap="round" stroke-linejoin="round" stroke-width="1.5" d="M7.54 21.21l-4.5-4.5"></path><use xlink:href="#a"></use></g></svg>