<svg id="Layer_3" data-name="Layer 3" xmlns="http://www.w3.org/2000/svg" viewBox="0 0 24 24"><path d="M7.37457,2.88222A14.7534,14.7534,0,0,1,21.11778,16.62543a1.13146,1.13146,0,0,1-.92655,1.16349L4.48633,20.85806a1.14588,1.14588,0,0,1-1.34439-1.34439L6.21108,3.80877A1.13146,1.13146,0,0,1,7.37457,2.88222Z" fill="none" stroke="#323232" stroke-linecap="round" stroke-linejoin="round" stroke-width="1.5"/><path d="M17.41877,18.26389A10.924,10.924,0,0,0,5.73611,6.58123" fill="none" stroke="#323232" stroke-linecap="round" stroke-linejoin="round" stroke-width="1.5"/><path d="M12.77268,14.65444a.25.25,0,1,1-.25032-.25032.25.25,0,0,1,.25032.25032" fill="none" stroke="#323232" stroke-linecap="round" stroke-linejoin="round" stroke-width="1.5"/><path d="M8.008,16.24267a.25.25,0,1,1-.25032-.25031.25.25,0,0,1,.25032.25031" fill="none" stroke="#323232" stroke-linecap="round" stroke-linejoin="round" stroke-width="1.5"/><path d="M9.59621,11.478a.25.25,0,1,1-.25031-.25031.25.25,0,0,1,.25031.25031" fill="none" stroke="#323232" stroke-linecap="round" stroke-linejoin="round" stroke-width="1.5"/><rect width="24" height="24" fill="none"/></svg>