<?xml version="1.0" encoding="UTF-8"?><svg version="1.1" viewBox="0 0 24 24" xmlns="http://www.w3.org/2000/svg" xmlns:xlink="http://www.w3.org/1999/xlink"><!--Generated by IJSVG (https://github.com/iconjar/IJSVG)--><g fill="none"><path d="M0,0h24v24h-24Z"></path><path stroke="#323232" stroke-linecap="round" stroke-linejoin="round" stroke-width="1.5" d="M14.917,11.979c0.047,0.081 0.086,0.167 0.14,0.243c0.412,0.578 0.601,1.284 0.533,1.991c-0.018,0.187 -0.018,0.375 0,0.561c0.067,0.706 -0.122,1.413 -0.533,1.991v0c-0.109,0.153 -0.203,0.315 -0.281,0.486c-0.295,0.645 -0.812,1.163 -1.457,1.457c-0.171,0.078 -0.333,0.172 -0.486,0.281c-0.578,0.412 -1.284,0.601 -1.991,0.533c-0.187,-0.018 -0.375,-0.018 -0.561,0c-0.706,0.067 -1.413,-0.122 -1.991,-0.533c-0.153,-0.109 -0.315,-0.203 -0.486,-0.281c-0.645,-0.295 -1.163,-0.812 -1.457,-1.457c-0.078,-0.171 -0.172,-0.333 -0.281,-0.486v0c-0.412,-0.578 -0.601,-1.284 -0.533,-1.991c0.018,-0.187 0.018,-0.374 0,-0.561c-0.067,-0.706 0.122,-1.413 0.533,-1.991c0.109,-0.153 0.203,-0.315 0.281,-0.486c0.295,-0.645 0.812,-1.163 1.457,-1.457c0.171,-0.078 0.333,-0.172 0.486,-0.281c0.578,-0.412 1.284,-0.601 1.991,-0.533c0.093,0.009 0.187,0 0.281,0"></path><path stroke="#323232" stroke-linecap="round" stroke-linejoin="round" stroke-width="1.5" d="M17.106,10.715c0.644,1.113 1.018,2.4 1.018,3.778c0,4.177 -3.386,7.562 -7.562,7.562c-4.176,0 -7.562,-3.385 -7.562,-7.562c0,-4.177 3.386,-7.562 7.562,-7.562v7.562l6.544,-3.778Z"></path><path stroke="#323232" stroke-linecap="round" stroke-linejoin="round" stroke-width="1.5" d="M13.409,4.534c0.094,0 0.187,0.009 0.281,0c0.706,-0.068 1.413,0.122 1.991,0.533c0.153,0.109 0.315,0.203 0.486,0.281c0.645,0.295 1.163,0.812 1.457,1.457c0.039,0.085 0.093,0.162 0.14,0.243"></path><path stroke="#323232" stroke-linecap="round" stroke-linejoin="round" stroke-width="1.5" d="M17.764,7.048l-4.354,2.514l6.544,-3.778c-1.309,-2.26 -3.746,-3.784 -6.545,-3.784v7.562"></path><path stroke="#323232" stroke-linecap="round" stroke-linejoin="round" stroke-width="1.5" d="M10.0354,17.0146c0.0195262,0.0195262 0.0195262,0.0511845 0,0.0707107c-0.0195262,0.0195262 -0.0511845,0.0195262 -0.0707107,0c-0.0195262,-0.0195262 -0.0195262,-0.0511845 0,-0.0707107c0.0195262,-0.0195262 0.0511845,-0.0195262 0.0707107,0"></path><path stroke="#323232" stroke-linecap="round" stroke-linejoin="round" stroke-width="1.5" d="M13.0354,15.9646c0.0195262,0.0195262 0.0195262,0.0511845 0,0.0707107c-0.0195262,0.0195262 -0.0511845,0.0195262 -0.0707107,0c-0.0195262,-0.0195262 -0.0195262,-0.0511845 0,-0.0707107c0.0195262,-0.0195262 0.0511845,-0.0195262 0.0707107,0"></path><path stroke="#323232" stroke-linecap="round" stroke-linejoin="round" stroke-width="1.5" d="M8.03536,13.9646c0.0195262,0.0195262 0.0195262,0.0511845 0,0.0707107c-0.0195262,0.0195262 -0.0511845,0.0195262 -0.0707107,0c-0.0195262,-0.0195262 -0.0195262,-0.0511845 0,-0.0707107c0.0195262,-0.0195262 0.0511845,-0.0195262 0.0707107,0"></path></g></svg>