<svg id="Layer_3" data-name="Layer 3" xmlns="http://www.w3.org/2000/svg" viewBox="0 0 24 24"><line x1="2" y1="18.00001" x2="9" y2="18.00001" fill="none" stroke="#323232" stroke-linecap="round" stroke-linejoin="round" stroke-width="1.5"/><path d="M4.63611,12.63612,2,10l1.55279-.77639a1,1,0,0,1,.89442,0L6,10,9.19243,8.02314,5,4.02314,7.80757,3,13,6,17.50111,3.428A2.1803,2.1803,0,0,1,20.698,4.79218h0a1.68029,1.68029,0,0,1-.76562,1.84838l-8.6068,5.16408a2.00011,2.00011,0,0,1-.70019.2578l-5.11781.853A1,1,0,0,1,4.63611,12.63612Z" fill="none" stroke="#323232" stroke-linecap="round" stroke-linejoin="round" stroke-width="1.5"/><path d="M18.75,18.5l-1.5-.9373V15.8" fill="none" stroke="#323232" stroke-linecap="round" stroke-linejoin="round" stroke-width="1.5"/><circle cx="17.5" cy="17.50001" r="4.5" fill="none" stroke="#323232" stroke-linecap="round" stroke-linejoin="round" stroke-width="1.5"/><rect y="0.00001" width="24" height="24" fill="none"/></svg>