<?xml version="1.0" encoding="UTF-8"?><svg version="1.1" viewBox="0 0 24 24" xmlns="http://www.w3.org/2000/svg" xmlns:xlink="http://www.w3.org/1999/xlink"><!--Generated by IJSVG (https://github.com/iconjar/IJSVG)--><g stroke-linecap="round" stroke-width="1.5" stroke="#323232" fill="none" stroke-linejoin="round"><path d="M9.067,13.57l-1.839,-2.445l1.35,-0.453c0.245,-0.082 0.514,-0.044 0.726,0.103l1.172,0.809l2.819,-1.241l-2.945,-3.731l2.398,-0.51l3.873,3.033l4.13,-1.646c1.011,-0.403 2.127,0.271 2.24,1.353v0c0.076,0.718 -0.327,1.402 -0.993,1.684l-7.403,3.134c-0.19,0.08 -0.392,0.124 -0.598,0.129l-4.254,0.106c-0.265,0.009 -0.517,-0.113 -0.676,-0.325Z"></path><path stroke-width="1.498" d="M20.035,7.8c-1.445,-2.839 -4.387,-4.788 -7.79,-4.788c-4.83,0 -8.745,3.917 -8.745,8.75c0,4.832 3.915,8.75 8.745,8.75c4.83,0 8.745,-3.917 8.745,-8.75c0,-0.261 -0.017,-0.517 -0.039,-0.772"></path><path stroke-width="1.498" d="M3.52,12.349c-1.864,1.367 -2.873,2.884 -2.423,3.944c0.638,1.58 4.238,1.615 8.041,0.078"></path></g><path fill="none" d="M0,0h24v24h-24Z"></path></svg>