<?xml version="1.0" encoding="UTF-8"?><svg version="1.1" viewBox="0 0 24 24" xmlns="http://www.w3.org/2000/svg" xmlns:xlink="http://www.w3.org/1999/xlink"><!--Generated by IJSVG (https://github.com/iconjar/IJSVG)--><defs><path d="M0,0h24v24h-24Z" id="a"></path></defs><g stroke-linecap="round" stroke-width="1.5" stroke="#323232" fill="none" stroke-linejoin="round"><path d="M18.364,4.31802c3.51472,1.75736 3.51472,4.6066 0,6.36396c-3.51472,1.75736 -9.2132,1.75736 -12.7279,0c-3.51472,-1.75736 -3.51472,-4.6066 -1.77636e-15,-6.36396c3.51472,-1.75736 9.2132,-1.75736 12.7279,-8.88178e-16"></path><path d="M20.5,13.501c-1.811,1.395 -4.924,2.327 -8.5,2.327c-3.576,0 -6.689,-0.932 -8.5,-2.327"></path><path d="M20.5,17.673c-1.811,1.395 -4.924,2.327 -8.5,2.327c-3.576,0 -6.689,-0.932 -8.5,-2.327"></path><path d="M8.348,7c0.778,-0.599 2.116,-1 3.652,-1c1.536,0 2.874,0.401 3.652,1"></path></g><use fill="none" transform="matrix(4.49816e-11,1,-1,4.49816e-11,24,-2.16095e-09)" xlink:href="#a"></use><use transform="matrix(4.49816e-11,1,-1,4.49816e-11,24,-2.16095e-09)" xlink:href="#a" fill="none"></use></svg>