<?xml version="1.0" encoding="UTF-8"?><svg version="1.1" viewBox="0 0 24 24" xmlns="http://www.w3.org/2000/svg" xmlns:xlink="http://www.w3.org/1999/xlink"><!--Generated by IJSVG (https://github.com/iconjar/IJSVG)--><g fill="none"><path d="M0,0h24v24h-24Z"></path><path stroke="#323232" stroke-linecap="round" stroke-linejoin="round" stroke-width="1.5" d="M11.206,9.115l3.694,2.185c0.532,0.315 0.532,1.085 0,1.4l-3.695,2.185c-0.542,0.321 -1.227,-0.07 -1.227,-0.7v-4.37c0,-0.63 0.686,-1.021 1.228,-0.7Z"></path><path stroke="#323232" stroke-linecap="round" stroke-linejoin="round" stroke-width="1.5" d="M7.327,17.364l-1.691,1c3.515,3.515 9.213,3.515 12.728,0c2.497,-2.497 3.211,-6.094 2.159,-9.23"></path><path stroke="#323232" stroke-linecap="round" stroke-linejoin="round" stroke-width="1.5" d="M16.673,6.636l1.691,-1c-3.515,-3.515 -9.213,-3.515 -12.728,0c-2.497,2.497 -3.211,6.095 -2.159,9.23"></path></g></svg>