<?xml version="1.0" encoding="UTF-8"?><svg version="1.1" viewBox="0 0 24 24" xmlns="http://www.w3.org/2000/svg" xmlns:xlink="http://www.w3.org/1999/xlink"><!--Generated by IJSVG (https://github.com/iconjar/IJSVG)--><g fill="none"><path d="M24,24h-24v-24h24v24Z"></path><path stroke="#323232" stroke-linecap="round" stroke-linejoin="round" stroke-width="1.5" d="M10.941,9.058l3.882,2.296c0.491,0.29 0.491,1.001 0,1.291l-3.882,2.296c-0.5,0.296 -1.132,-0.065 -1.132,-0.646v-4.591c-1.77636e-15,-0.581 0.632,-0.942 1.132,-0.646Z"></path><path stroke="#323232" stroke-linecap="round" stroke-linejoin="round" stroke-width="1.5" d="M3.576,7.696h2.893h-2.893v-2.893"></path><path stroke="#323232" stroke-linecap="round" stroke-linejoin="round" stroke-width="1.5" d="M3,12c0,4.97 4.029,9 9,9c4.971,0 9,-4.03 9,-9c0,-4.97 -4.029,-9 -9,-9c-3.412,0 -6.379,1.899 -7.905,4.696"></path></g></svg>