<?xml version="1.0" encoding="UTF-8"?><svg version="1.1" viewBox="0 0 24 24" xmlns="http://www.w3.org/2000/svg" xmlns:xlink="http://www.w3.org/1999/xlink"><g fill="none"><path d="M0 0h24v24h-24v-24Z"></path><path stroke="#323232" stroke-linecap="round" stroke-linejoin="round" stroke-width="1.5" d="M18.954 21h-13.908c-1.105 0-2-.895-2-2v-8c0-1.105.895-2 2-2h13.908c1.105 0 2 .895 2 2v8c0 1.105-.896 2-2 2Z"></path><path stroke="#323232" stroke-linecap="round" stroke-linejoin="round" stroke-width="1.5" d="M11.989 15.439c.586.586.586 1.536 0 2.121 -.586.585-1.536.586-2.121 0 -.586-.586-.586-1.536 0-2.121 .586-.585 1.535-.585 2.121 1.77636e-15"></path><path stroke="#323232" stroke-linecap="round" stroke-linejoin="round" stroke-width="1.5" d="M14.381 12.794l-1.952-.651v4.357"></path><path stroke="#323232" stroke-linecap="round" stroke-linejoin="round" stroke-width="1.5" d="M4.782 9v-1c0-1.105.895-2 2-2h10.435c1.105 0 2 .895 2 2v1"></path><path stroke="#323232" stroke-linecap="round" stroke-linejoin="round" stroke-width="1.5" d="M6.516 6v-1c0-1.105.895-2 2-2h6.969c1.105 0 2 .895 2 2v1"></path></g></svg>