<?xml version="1.0" encoding="UTF-8"?><svg version="1.1" viewBox="0 0 24 24" xmlns="http://www.w3.org/2000/svg" xmlns:xlink="http://www.w3.org/1999/xlink"><!--Generated by IJSVG (https://github.com/iconjar/IJSVG)--><g fill="none"><path d="M0,0h24v24h-24Z"></path><path stroke="#323232" stroke-linecap="round" stroke-linejoin="round" stroke-width="1.5" d="M19.119,6v12c0,1.105 -0.895,2 -2,2h-10.238c-1.105,0 -2,-0.895 -2,-2v-12c0,-1.105 0.895,-2 2,-2h10.239c1.104,0 1.999,0.895 1.999,2Z"></path><path stroke="#323232" stroke-linecap="round" stroke-linejoin="round" stroke-width="1.5" d="M19.119,6h1.102c1.105,0 2,0.895 2,2v8c0,1.105 -0.895,2 -2,2h-1.102"></path><path stroke="#323232" stroke-linecap="round" stroke-linejoin="round" stroke-width="1.5" d="M4.881,18h-1.103c-1.105,0 -2,-0.895 -2,-2v-8c0,-1.105 0.895,-2 2,-2h1.102"></path><path stroke="#323232" stroke-linecap="round" stroke-linejoin="round" stroke-width="1.5" d="M11.9142,13.0858c0.781049,0.781049 0.781049,2.04738 0,2.82843c-0.781049,0.781049 -2.04738,0.781049 -2.82843,0c-0.781049,-0.781049 -0.781049,-2.04738 0,-2.82843c0.781049,-0.781049 2.04738,-0.781049 2.82843,0"></path><path stroke="#323232" stroke-linecap="round" stroke-linejoin="round" stroke-width="1.5" d="M15.5,8.5l-3,-1v7"></path></g></svg>