<?xml version="1.0" encoding="UTF-8"?><svg version="1.1" viewBox="0 0 24 24" xmlns="http://www.w3.org/2000/svg" xmlns:xlink="http://www.w3.org/1999/xlink"><!--Generated by IJSVG (https://github.com/iconjar/IJSVG)--><g stroke-linecap="round" stroke-width="1.5" stroke="#323232" fill="none" stroke-linejoin="round"><path d="M9.441,7.558l3.882,2.296c0.491,0.29 0.491,1.001 0,1.291l-3.882,2.296c-0.5,0.296 -1.132,-0.065 -1.132,-0.646v-4.591c-1.77636e-15,-0.581 0.632,-0.942 1.132,-0.646Z"></path><path d="M16.333,18h-11.666c-0.921,0 -1.667,-0.746 -1.667,-1.667v-11.666c0,-0.921 0.746,-1.667 1.667,-1.667h11.667c0.92,0 1.666,0.746 1.666,1.667v11.667c0,0.92 -0.746,1.666 -1.667,1.666Z"></path><path d="M6,18v1v0c0,1.105 0.895,2 2,2h11c1.105,0 2,-0.895 2,-2v-11c0,-1.105 -0.895,-2 -2,-2h-1"></path></g><path fill="none" d="M0,0h24v24h-24Z"></path></svg>