<?xml version="1.0" encoding="UTF-8"?><svg version="1.1" viewBox="0 0 24 24" xmlns="http://www.w3.org/2000/svg" xmlns:xlink="http://www.w3.org/1999/xlink"><!--Generated by IJSVG (https://github.com/iconjar/IJSVG)--><g stroke-linecap="round" stroke-width="1.5" stroke="#323232" fill="none" stroke-linejoin="round"><path d="M10.941,9.058l3.882,2.296c0.491,0.29 0.491,1.001 0,1.291l-3.882,2.296c-0.5,0.296 -1.132,-0.065 -1.132,-0.646v-4.591c-1.77636e-15,-0.581 0.632,-0.942 1.132,-0.646Z"></path><path d="M18,21h-12c-1.657,0 -3,-1.343 -3,-3v-12c0,-1.657 1.343,-3 3,-3h12c1.657,0 3,1.343 3,3v12c0,1.657 -1.343,3 -3,3Z"></path></g><path fill="none" d="M0,0h24v24h-24Z"></path></svg>