<svg viewBox="0 0 24 24" xmlns="http://www.w3.org/2000/svg"><g fill="none"><path d="M0 0h24v24H0Z"/><g stroke-width="1.5" fill="none" stroke="#323232"><rect width="18" height="18" x="3" y="3" rx="5"/><g stroke-linecap="round" stroke-width="1.5" stroke="#323232" fill="none" stroke-linejoin="round"><path d="M8.93 11.235l-1.15 1.14 -.01 0c-1.06 1.05-1.06 2.76-.01 3.82 0 0 0 0 0 0v0l0 0c1.05 1.05 2.76 1.05 3.82 0 0-.01 0-.01 0-.01l1.14-1.15"/><path d="M10.47 13.53l2.68-2.68"/><path d="M15.06 12.76l-3.83-3.83 1.14-1.15 0-.01c1.05-1.06 2.76-1.06 3.82-.01 0 0 0 0 0 0v0l0 0c1.05 1.05 1.05 2.76 0 3.82 -.01 0-.01 0-.01 0Z"/></g></g></g></svg>