<?xml version="1.0" encoding="UTF-8"?><svg version="1.1" viewBox="0 0 24 24" xmlns="http://www.w3.org/2000/svg" xmlns:xlink="http://www.w3.org/1999/xlink"><g stroke-linecap="round" stroke-width="1.5" stroke="#323232" fill="none" stroke-linejoin="round"><path d="M17.066 6.645h-1.711v-1.711l1.69548e-08 2.47011e-05c-.00111831-1.6193 1.31068-2.93291 2.92997-2.93402 .00100028-6.90808e-07.00200057-8.69728e-07.00300085-5.36761e-07h1.71202v1.712l-4.46423e-09 1.30134e-05c-.000559337 1.62001-1.314 2.93299-2.93401 2.93299Z"></path><path d="M8 3c4.5 0 8.15 2.964 8.15 6.62"></path><path d="M9.8 9.914l1.40086e-07-4.95236e-07c.696019-2.46058.0075172-5.10519-1.8-6.914"></path><path d="M11.94 18.62l-9.6346e-08 1.49247e-07c-1.1504 1.78206-3.29083 2.6566-5.36 2.19 -2.67-.72-4.17-3.76-3.36-6.8 .81-3.04 3.64-4.92 6.3-4.2l1.95397e-07 5.31152e-08c1.06868.290502 1.99591.958389 2.61 1.88"></path><ellipse cx="16" rx="5" ry="5.694" cy="15.306"></ellipse></g><rect width="24" height="24" fill="none"></rect></svg>