<svg id="Layer_3" data-name="Layer 3" xmlns="http://www.w3.org/2000/svg" viewBox="0 0 24 24"><path d="M14,11a2,2,0,1,0-2,2A1.99991,1.99991,0,0,0,14,11Z" fill="none" stroke="#323232" stroke-linecap="round" stroke-linejoin="round" stroke-width="1.5"/><path d="M14,11a2,2,0,1,0-2,2A1.9999,1.9999,0,0,0,14,11Z" fill="none" stroke="#323232" stroke-linecap="round" stroke-linejoin="round" stroke-width="1.5"/><path d="M17,18.48254a9,9,0,1,0-10,0" fill="none" stroke="#323232" stroke-linecap="round" stroke-linejoin="round" stroke-width="1.5"/><path d="M8,14.76721a5.5,5.5,0,1,1,8,0" fill="none" stroke="#323232" stroke-linecap="round" stroke-linejoin="round" stroke-width="1.5"/><path d="M12.34989,16a1.65,1.65,0,0,1,1.6443,1.787l-.21463,2.57555A1.78572,1.78572,0,0,1,12,22h0a1.78573,1.78573,0,0,1-1.77956-1.63744L10.00582,17.787A1.65,1.65,0,0,1,11.65011,16Z" fill="none" stroke="#323232" stroke-linecap="round" stroke-linejoin="round" stroke-width="1.5"/><path d="M0,0H24V24H0Z" fill="none"/></svg>