<?xml version="1.0" encoding="UTF-8"?><svg version="1.1" viewBox="0 0 24 24" xmlns="http://www.w3.org/2000/svg" xmlns:xlink="http://www.w3.org/1999/xlink"><g stroke-linecap="round" stroke-width="1.5" stroke="#323232" fill="none" stroke-linejoin="round"><line x1="12.9" x2="5.7" y1="11.09" y2="18.29"></line><polyline points="10.2,11.086 12.9,11.086 12.9,13.786"></polyline><path d="M8.4 20.232c1.103.482 2.319.754 3.6.754 4.971 0 9-4.029 9-9 0-4.971-4.029-9-9-9 -4.971 0-9 4.029-9 9 0 1.294.278 2.521.77 3.633"></path><path d="M11.1 17.306c.293.051.593.08.9.08 2.982 0 5.4-2.418 5.4-5.4 0-2.982-2.418-5.4-5.4-5.4 -2.982 0-5.4 2.418-5.4 5.4 0 .307.029.607.08.9"></path></g><path fill="none" d="M0 0h24v24h-24v-24Z"></path></svg>