<svg id="Layer_3" data-name="Layer 3" xmlns="http://www.w3.org/2000/svg" viewBox="0 0 24 24"><path d="M0,0H24V24H0Z" fill="none"/><rect x="4" y="7" width="16" height="14" rx="3" stroke-width="1.5" stroke="#323232" stroke-linecap="round" stroke-linejoin="round" fill="none"/><path d="M4,10V8.09067a3,3,0,0,1,1.94-2.807l8.353-3.154A2,2,0,0,1,17,3.99967V7" fill="none" stroke="#323232" stroke-linecap="round" stroke-linejoin="round" stroke-width="1.5"/><line x1="11.99999" y1="16.5" x2="11.99999" y2="18" fill="none" stroke="#323232" stroke-linecap="round" stroke-linejoin="round" stroke-width="1.5"/><path d="M11.61467,10.65731l-1.954,1.92584A.53615.53615,0,0,0,10.046,13.5h3.908a.53615.53615,0,0,0,.38531-.91685l-1.954-1.92584A.55056.55056,0,0,0,11.61467,10.65731Z" fill="none" stroke="#323232" stroke-linecap="round" stroke-linejoin="round" stroke-width="1.5"/><path d="M10.92364,13.5,9.12212,15.64923A.51746.51746,0,0,0,9.514,16.5h4.972a.51746.51746,0,0,0,.39184-.85077L13.07635,13.5" fill="none" stroke="#323232" stroke-linecap="round" stroke-linejoin="round" stroke-width="1.5"/></svg>