<?xml version="1.0" encoding="UTF-8"?><svg version="1.1" viewBox="0 0 24 24" xmlns="http://www.w3.org/2000/svg" xmlns:xlink="http://www.w3.org/1999/xlink"><g stroke-linecap="round" stroke-width="1.5" stroke="#323232" fill="none" stroke-linejoin="round"><path d="M10.519 12h-2.269 -2.18557e-08c-.276142-1.20706e-08-.5-.223858-.5-.5 0 0 0-1.77636e-15 0-1.77636e-15v-3l4.44089e-15 7.54979e-08c-4.16963e-08-.276142.223858-.5.5-.5h2.269"></path><line x1="5.75" x2="7.75" y1="10" y2="10"></line><rect width="18" height="18" x="3" y="3" rx="2.7614" ry="0"></rect><rect width="7.5" height="6" x="10.25" y="7" rx="1.10456" ry="0"></rect><line x1="13.25" x2="15.25" y1="10" y2="10"></line><path d="M14.25 15.5h-1.833l-7.28669e-08-3.55271e-15c-.920659-4.02433e-08-1.667-.746341-1.667-1.667 0 0 0 0 0 0v-1.511"></path><path d="M16.7 12.764l.7 3.477 2.91618e-08 1.46065e-07c.159058.796688-.357843 1.57147-1.15453 1.73053 -.0953124.0190291-.192276.028565-.289469.0284679v0l4.57914e-08-1.52127e-11c-.701016.000232872-1.30466-.494569-1.442-1.182l-.764-3.818"></path></g><rect width="24" height="24" fill="none"></rect></svg>