<svg viewBox="0 0 24 24" xmlns="http://www.w3.org/2000/svg"><g fill="none"><path d="M0 0h24v24H0Z"/><g stroke-linecap="round" stroke-width="1.5" stroke="#323232" fill="none" stroke-linejoin="round"><path d="M19 7.25v11.71l0-.01c0 1.11-.91 2.02-2.03 2.02H7.01l0 0c-1.12-.01-2.03-.91-2.03-2.03V7.22"/><path d="M17.94 8.27H6.05l0 0C5.46 8.26 4.99 7.79 5 7.21c0-.23.07-.45.21-.63l2.06-2.75 0-.01c.39-.53 1.01-.84 1.68-.85h6.07l-.01-.001c.66 0 1.28.31 1.68.84l2.061 2.74 -.01-.01c.34.46.25 1.12-.21 1.47 -.19.13-.41.21-.63.21Z"/><path d="M10.25 11.53l-.01-.01c1.32.35 2.1 1.71 1.75 3.03"/><path d="M13.75 17.59l0 0c-1.33-.36-2.11-1.72-1.76-3.04"/><path d="M15.03 12.81l0-.01c-.36 1.32-1.72 2.1-3.04 1.75"/><path d="M12 11.06a3.5 3.5 0 1 0 0 7 3.5 3.5 0 1 0 0-7Z"/><path d="M8.96 16.31l-.01 0c.35-1.33 1.71-2.11 3.03-1.76"/></g></g></svg>