<svg id="Layer_3" data-name="Layer 3" xmlns="http://www.w3.org/2000/svg" viewBox="0 0 24 24"><rect width="24" height="24" fill="none"/><path d="M9.72181,8.1109a3.2218,3.2218,0,0,0-4.55632,4.55632l2.27819,2.27819a6.4436,6.4436,0,0,0,9.11264,0l2.27819-2.27819A3.2218,3.2218,0,1,0,14.27819,8.1109l1.13908,1.139a1.61092,1.61092,0,0,1,0,2.27821h0a1.61093,1.61093,0,0,1-2.27818,0L12,10.3891l-1.1391,1.13907a1.61093,1.61093,0,0,1-2.27818,0h0a1.61092,1.61092,0,0,1,0-2.27821Z" fill="none" stroke="#323232" stroke-linecap="round" stroke-linejoin="round" stroke-width="1.5"/><path d="M12,5.8859a6.44124,6.44124,0,0,1,9.11269,9.10588l-2.11234,2.11075a9.90524,9.90524,0,0,1-14.0007,0L2.88731,14.99178A6.44124,6.44124,0,0,1,12,5.8859Z" fill="none" stroke="#323232" stroke-linecap="round" stroke-linejoin="round" stroke-width="1.5"/></svg>