<svg id="Layer_3" data-name="Layer 3" xmlns="http://www.w3.org/2000/svg" viewBox="0 0 24 24"><path d="M9.72181,8.1109,5.16549,12.66722A3.2218,3.2218,0,0,1,9.72181,8.1109Z" fill="none" stroke="#323232" stroke-linecap="round" stroke-linejoin="round" stroke-width="1.5"/><path d="M14.27819,8.1109a3.2218,3.2218,0,1,1,4.55632,4.55632Z" fill="none" stroke="#323232" stroke-linecap="round" stroke-linejoin="round" stroke-width="1.5"/><path d="M12,5.8327a6.44366,6.44366,0,0,0-9.1127,9.11271l-1.1391,1.1391A1.61092,1.61092,0,0,0,4.02639,18.3627l1.1391-1.1391a9.66547,9.66547,0,0,0,13.669,0l1.1391,1.1391a1.61092,1.61092,0,0,0,2.27819-2.27819l-1.1391-1.1391A6.44366,6.44366,0,1,0,12,5.8327Z" fill="none" stroke="#323232" stroke-linecap="round" stroke-linejoin="round" stroke-width="1.5"/><path d="M12,10.38909l4.55632,4.55632a6.4436,6.4436,0,0,1-9.11264,0Z" fill="none" stroke="#323232" stroke-linecap="round" stroke-linejoin="round" stroke-width="1.5"/><rect width="24" height="24" fill="none"/></svg>