<?xml version="1.0" encoding="UTF-8"?><svg version="1.1" viewBox="0 0 24 24" xmlns="http://www.w3.org/2000/svg" xmlns:xlink="http://www.w3.org/1999/xlink"><g stroke-linecap="round" stroke-width="1.5" stroke="#323232" fill="none" stroke-linejoin="round"><path d="M9.5 10v-2c0-.552.448-1 1-1h3c.552 0 1 .448 1 1v2"></path><path d="M9.5 14.778h-1.463c-.573 0-1.037-.464-1.037-1.037v-2.704c0-.573.464-1.037 1.037-1.037h7.926c.573 0 1.037.464 1.037 1.037v2.704c0 .573-.464 1.037-1.037 1.037h-1.489"></path><path d="M9.5 13h5v3c0 .552-.448 1-1 1h-3c-.552 0-1-.448-1-1v-3Z"></path><path d="M19 21h-14c-1.105 0-2-.895-2-2v-14c0-1.105.895-2 2-2h14c1.105 0 2 .895 2 2v14c0 1.105-.895 2-2 2Z"></path></g><path fill="none" d="M0 0h24v24h-24v-24Z"></path></svg>