<svg id="Layer_3" data-name="Layer 3" xmlns="http://www.w3.org/2000/svg" viewBox="0 0 24 24"><rect width="24" height="24" fill="none"/><path d="M14.75,9.5H16A1.5,1.5,0,0,1,17.5,11v3.5A1.5,1.5,0,0,1,16,16H8a1.5,1.5,0,0,1-1.5-1.5V11A1.5,1.5,0,0,1,8,9.5H9.25" fill="none" stroke="#323232" stroke-linecap="round" stroke-linejoin="round" stroke-width="1.5"/><rect x="9.25" y="6.99999" width="5.5" height="5" rx="0.5" stroke-width="1.5" stroke="#323232" stroke-linecap="round" stroke-linejoin="round" fill="none"/><path d="M2.5,7.77778v8.44444A5.27778,5.27778,0,0,0,7.77778,21.5h8.44444A5.27778,5.27778,0,0,0,21.5,16.22222V7.77778A5.27778,5.27778,0,0,0,16.22222,2.5H7.77778A5.27778,5.27778,0,0,0,2.5,7.77778Z" fill="none" stroke="#323232" stroke-linecap="round" stroke-linejoin="round" stroke-width="1.5"/></svg>