<?xml version="1.0" encoding="UTF-8"?><svg version="1.1" viewBox="0 0 24 24" xmlns="http://www.w3.org/2000/svg" xmlns:xlink="http://www.w3.org/1999/xlink"><g stroke-linecap="round" stroke-width="1.5" stroke="#323232" fill="none" stroke-linejoin="round"><path d="M9.5 10.014v-3h5v3"></path><path d="M9.5 14.792h-1.463c-.573 0-1.037-.464-1.037-1.037v-2.704c0-.573.464-1.037 1.037-1.037h7.926c.573 0 1.037.464 1.037 1.037v2.704c0 .573-.464 1.037-1.037 1.037h-1.489"></path><path d="M9.5 13.014h5v4h-5Z"></path><path d="M18.364 5.65004c3.51472 3.51472 3.51472 9.2132 0 12.7279 -3.51472 3.51472-9.2132 3.51472-12.7279 0 -3.51472-3.51472-3.51472-9.2132-1.77636e-15-12.7279 3.51472-3.51472 9.2132-3.51472 12.7279-1.77636e-15"></path></g><path fill="none" d="M0 .014h24v24h-24v-24Z"></path></svg>