<svg id="Layer_3" data-name="Layer 3" xmlns="http://www.w3.org/2000/svg" viewBox="0 0 24 24"><rect y="0.00001" width="24" height="24" fill="none"/><path d="M9,8.5h1" fill="none" stroke="#323232" stroke-linecap="round" stroke-linejoin="round" stroke-width="1.5"/><rect x="3" y="2.00001" width="10" height="10" rx="2.5" stroke-width="1.5" stroke="#323232" stroke-linecap="round" stroke-linejoin="round" fill="none"/><path d="M6,5.5,7.25,6.75,6,8" fill="none" stroke="#323232" stroke-linecap="round" stroke-linejoin="round" stroke-width="1.5"/><path d="M16,5h3.5" fill="none" stroke="#323232" stroke-linecap="round" stroke-linejoin="round" stroke-width="1.5"/><path d="M6,17V15" fill="none" stroke="#323232" stroke-linecap="round" stroke-linejoin="round" stroke-width="1.5"/><path d="M16.5,21H5a2,2,0,0,1-2-2V18a1,1,0,0,1,1-1H14a1,1,0,0,1,1,1v1.5A1.5,1.5,0,0,0,16.5,21h0A1.5,1.5,0,0,0,18,19.5V6.5A1.5,1.5,0,0,1,19.5,5h0A1.5,1.5,0,0,1,21,6.5V9a1,1,0,0,1-1,1H18" fill="none" stroke="#323232" stroke-linecap="round" stroke-linejoin="round" stroke-width="1.5"/></svg>