<svg id="Layer_3" data-name="Layer 3" xmlns="http://www.w3.org/2000/svg" viewBox="0 0 24 24"><path d="M0,0H24V24H0Z" fill="none"/><path d="M0,24H24V0H0Z" fill="none"/><line x1="12" y1="12.00001" x2="15" y2="12.00001" fill="none" stroke="#323232" stroke-linecap="round" stroke-linejoin="round" stroke-width="1.5"/><line x1="12" y1="8.00001" x2="7" y2="8.00001" fill="none" stroke="#323232" stroke-linecap="round" stroke-linejoin="round" stroke-width="1.5"/><path d="M17,8H15" fill="none" stroke="#323232" stroke-linecap="round" stroke-linejoin="round" stroke-width="1.5"/><path d="M7,12H9" fill="none" stroke="#323232" stroke-linecap="round" stroke-linejoin="round" stroke-width="1.5"/><path d="M7,16h4" fill="none" stroke="#323232" stroke-linecap="round" stroke-linejoin="round" stroke-width="1.5"/><path d="M12,21H8.53846A5.53846,5.53846,0,0,1,3,15.46155V8.53847A5.53846,5.53846,0,0,1,8.53846,3h6.92308A5.53846,5.53846,0,0,1,21,8.53847V11" fill="none" stroke="#323232" stroke-linecap="round" stroke-linejoin="round" stroke-width="1.5"/><path d="M21.99995,15.59784,22,17.9948c0,1.68584-2.11766,2.92914-3.06016,3.40058a.977.977,0,0,1-.87915.00031C17.11845,20.92446,15,19.6783,15,17.9948l0-2.397a.51161.51161,0,0,1,.4732-.49445,4.98221,4.98221,0,0,0,2.45652-.91865.97233.97233,0,0,1,1.14046,0,4.98231,4.98231,0,0,0,2.45652.91865A.51161.51161,0,0,1,21.99995,15.59784Z" fill="none" stroke="#323232" stroke-linecap="round" stroke-linejoin="round" stroke-width="1.5"/></svg>