<svg viewBox="0 0 24 24" xmlns="http://www.w3.org/2000/svg" xmlns:xlink="http://www.w3.org/1999/xlink"><defs><path d="M18 5.5a2 1.5 0 1 0 0 3 2 1.5 0 1 0 0-3Z" id="a"/></defs><g stroke-linecap="round" stroke-width="1.5" stroke="#323232" fill="none" stroke-linejoin="round"><path d="M12 3a2 1.5 0 1 0 0 3 2 1.5 0 1 0 0-3Z"/><path d="M12 9a2 1.5 0 1 0 0 3 2 1.5 0 1 0 0-3Z"/><use xlink:href="#a"/><use xlink:href="#a"/><path d="M6 5.5a2 1.5 0 1 0 0 3 2 1.5 0 1 0 0-3Z"/><path d="M4 11v5l-.001-.01c0 .75.42 1.45 1.1 1.78l6 3 -.01-.01c.56.28 1.22.28 1.78 0l6-3 0-.01c.67-.34 1.1-1.04 1.1-1.79v-5"/><path d="M12 15l0 6"/></g><path fill="none" d="M0 0h24v24H0Z"/></svg>