<?xml version="1.0" encoding="UTF-8"?><svg version="1.1" viewBox="0 0 24 24" xmlns="http://www.w3.org/2000/svg" xmlns:xlink="http://www.w3.org/1999/xlink"><g stroke-linecap="round" stroke-width="1.5" stroke="#323232" fill="none" stroke-linejoin="round"><path d="M7.5 9h-3c-.828 0-1.5-.672-1.5-1.5v-3c0-.828.672-1.5 1.5-1.5h3c.828 0 1.5.672 1.5 1.5v3c0 .828-.672 1.5-1.5 1.5Z"></path><path d="M19.5 9h-6c-.828 0-1.5-.672-1.5-1.5v-3c0-.828.672-1.5 1.5-1.5h6c.828 0 1.5.672 1.5 1.5v3c0 .828-.672 1.5-1.5 1.5Z"></path><path d="M19.5 18h-3c-.828 0-1.5-.672-1.5-1.5v-3c0-.828.672-1.5 1.5-1.5h3c.828 0 1.5.672 1.5 1.5v3c0 .828-.672 1.5-1.5 1.5Z"></path><line x1="6" x2="9" y1="16.71" y2="16.71"></line><line x1="7.5" x2="7.5" y1="18.21" y2="15.21"></line><path d="M10 21h-5c-1.105 0-2-.895-2-2v-4.571c0-1.105.895-2 2-2h5c1.105 0 2 .895 2 2v4.571c0 1.105-.895 2-2 2Z"></path></g><rect width="24" height="24" fill="none"></rect></svg>