<?xml version="1.0" encoding="UTF-8"?><svg version="1.1" viewBox="0 0 24 24" xmlns="http://www.w3.org/2000/svg" xmlns:xlink="http://www.w3.org/1999/xlink"><g stroke-linecap="round" stroke-width="1.5" stroke="#323232" fill="none" stroke-linejoin="round"><rect width="18" height="18" x="3" y="3" rx="1.10456" ry="0"></rect><path d="M15.778 10.667l-4.85634e-08 1.77636e-15c.613588-2.68208e-08 1.111.497412 1.111 1.111 0 0 0 1.77636e-15 0 1.77636e-15v1.111l4.17065e-09 6.24641e-07c.00277226.415186.239082.793436.611001.978v.266l-1.4927e-07 7.40752e-08c-.371918.184564-.608228.562814-.611.978v1.111h-3.55271e-15c0 .613588-.497412 1.111-1.111 1.111 0 0-1.77636e-15 0-1.77636e-15 0"></path><path d="M8.222 17.333l-4.85634e-08 3.55271e-15c-.613588-2.68208e-08-1.111-.497412-1.111-1.111 0 0 0 0 0 0v-1.111l-4.86748e-09-7.28999e-07c-.0027723-.415186-.239082-.793436-.611001-.978v-.266l6.31289e-08-3.13276e-08c.371918-.184564.608228-.562814.611-.978v-1.111l1.24345e-14 1.67756e-07c-9.26493e-08-.613588.497411-1.111 1.111-1.111"></path><line x1="21" x2="3" y1="7" y2="7"></line><circle cx="14.242" cy="14" r=".05"></circle><path d="M14.292 14v0c0-.0276142-.0223858-.05-.05-.05 0 0-1.77636e-15 0-1.77636e-15 0h-2.18557e-09c-.0276142 1.20706e-09-.05.0223858-.05.05 0 0 0 1.77636e-15 0 1.77636e-15l1.77636e-15-3.27242e-09c-4.16963e-09.0276142.0223858.05.05.05 .0276142 4.16963e-09.05-.0223858.05-.05 1.77636e-15-2.78809e-09 1.77636e-15-5.70688e-09 1.77636e-15-8.49497e-09"></path><path d="M9.808 14v0c0-.0276142-.0223858-.05-.05-.05 0 0-1.77636e-15 0-1.77636e-15 0h-2.18557e-09c-.0276142 1.20706e-09-.05.0223858-.05.05 0 0 0 1.77636e-15 0 1.77636e-15v3.27242e-09c4.16963e-09.0276142.0223858.05.05.05 .0276142-4.16963e-09.05-.0223858.05-.05"></path><path d="M12.05 14v0c0-.0276142-.0223858-.05-.05-.05 0 0-1.77636e-15 0-1.77636e-15 0h-2.18557e-09c-.0276142 1.20706e-09-.05.0223858-.05.05 0 0 0 1.77636e-15 0 1.77636e-15v3.27242e-09c4.16963e-09.0276142.0223858.05.05.05 .0276142-4.16963e-09.05-.0223858.05-.05"></path></g><rect width="24" height="24" fill="none"></rect></svg>