<?xml version="1.0" encoding="UTF-8"?><svg version="1.1" viewBox="0 0 24 24" xmlns="http://www.w3.org/2000/svg" xmlns:xlink="http://www.w3.org/1999/xlink"><g stroke-linecap="round" stroke-width="1.5" stroke="#323232" fill="none" stroke-linejoin="round"><line x1="8" x2="3" y1="5" y2="5"></line><path d="M20 7h-11c-.552 0-1-.448-1-1v-2c0-.552.448-1 1-1h11c.552 0 1 .448 1 1v2c0 .552-.448 1-1 1Z"></path><line x1="8" x2="3" y1="12" y2="12"></line><path d="M20 14h-11c-.552 0-1-.448-1-1v-2c0-.552.448-1 1-1h11c.552 0 1 .448 1 1v2c0 .552-.448 1-1 1Z"></path><path d="M20 21h-11c-.552 0-1-.448-1-1v-2c0-.552.448-1 1-1h11c.552 0 1 .448 1 1v2c0 .552-.448 1-1 1Z"></path><path d="M8 19h-4c-.552 0-1-.448-1-1v-15"></path></g><rect width="24" height="24" fill="none"></rect></svg>