<svg viewBox="0 0 24 24" xmlns="http://www.w3.org/2000/svg"><g stroke-linecap="round" stroke-width="1.5" stroke="#323232" fill="none" stroke-linejoin="round"><path d="M19 21H5l-.01 0c-1.11 0-2-.9-2-2 -.01-.01-.01-.01 0-.01v-14l-.01-.01c-.01-1.11.89-2 1.99-2 0-.001 0 0 0 0h13.99l0-.001c1.1-.01 1.99.89 1.99 1.99 0 0 0 0-.001 0v14l0 0c0 1.1-.9 1.99-2 1.99 -.01 0-.01-.01-.01-.01Z"/><path d="M3 7h18"/><path d="M6 10l1 0"/><path d="M6 13l1 0"/><path d="M6 16l1 0"/><path d="M10 7l0 14"/></g><path fill="none" d="M0 0h24v24H0Z"/></svg>