<svg id="Layer_3" data-name="Layer 3" xmlns="http://www.w3.org/2000/svg" viewBox="0 0 24 24"><rect width="24" height="24" fill="none"/><path d="M8.76465,11.9767h0A2.19516,2.19516,0,0,1,7,9.82418V9.11111A1.11111,1.11111,0,0,1,8.11111,8H9.88889A1.11111,1.11111,0,0,1,11,9.11111v.71306a2.19514,2.19514,0,0,1-1.7646,2.15251h0A1.2,1.2,0,0,1,8.76465,11.9767Z" fill="none" stroke="#323232" stroke-linecap="round" stroke-linejoin="round" stroke-width="1.5"/><line x1="17.00003" y1="12.00003" x2="14.00003" y2="12.00003" fill="none" stroke="#323232" stroke-linecap="round" stroke-linejoin="round" stroke-width="1.5"/><line x1="17.00003" y1="8.00003" x2="14.00003" y2="8.00003" fill="none" stroke="#323232" stroke-linecap="round" stroke-linejoin="round" stroke-width="1.5"/><rect x="3" y="3" width="18" height="18" rx="2" stroke-width="1.5" stroke="#323232" stroke-linecap="round" stroke-linejoin="round" fill="none"/><line x1="17" y1="16" x2="7" y2="16" fill="none" stroke="#323232" stroke-linecap="round" stroke-linejoin="round" stroke-width="1.5"/></svg>