<?xml version="1.0" encoding="UTF-8"?><svg version="1.1" viewBox="0 0 24 24" xmlns="http://www.w3.org/2000/svg" xmlns:xlink="http://www.w3.org/1999/xlink"><g stroke-linecap="round" stroke-width="1.5" stroke="#323232" fill="none" stroke-linejoin="round"><rect width="18" height="18" x="3" y="3" rx="2.20912" ry="0"></rect><path d="M10.75 16h-1.75l-4.37114e-08-3.55271e-15c-.552285-2.41411e-08-1-.447715-1-1 0 0 0 0 0 0v-1.25h-.25l-7.64949e-08-1.77636e-15c-.966498-4.2247e-08-1.75-.783502-1.75-1.75 0 0 0 0 0 0h-1.77636e-15l1.95399e-14 2.64243e-07c-1.45937e-07-.966498.783501-1.75 1.75-1.75h.25v-1.25l1.06581e-14 1.50996e-07c-8.33927e-08-.552285.447715-1 1-1h1.75v-.25l1.95399e-14 2.64243e-07c-1.45937e-07-.966498.783501-1.75 1.75-1.75 4.80375e-08-7.10543e-15 1.02958e-07-1.42109e-14 1.50996e-07-1.77636e-14v0l-7.64949e-08 3.55271e-15c.966498-4.2247e-08 1.75.783502 1.75 1.75v.25h1.75l-4.37114e-08 1.77636e-15c.552285-2.41411e-08 1 .447715 1 1v1.5h-.5l-6.55671e-08 3.55271e-15c-.828427 3.62117e-08-1.5.671573-1.5 1.5 0 1.52394e-08 1.77636e-15 2.8472e-08 1.77636e-15 4.37114e-08v0l1.77636e-14 2.26494e-07c1.25089e-07.828427.671573 1.5 1.5 1.5h.5v1.5 0c0 .552285-.447715 1-1 1h-1.75v.25 0c0 .966498-.783502 1.75-1.75 1.75v0h-7.64949e-08c-.966498-4.2247e-08-1.75-.783502-1.75-1.75 0 0 0-3.55271e-15 0-3.55271e-15Z"></path></g><path fill="none" d="M24 24h-24v-24h24Z"></path></svg>