<?xml version="1.0" encoding="UTF-8"?><svg version="1.1" viewBox="0 0 24 24" xmlns="http://www.w3.org/2000/svg" xmlns:xlink="http://www.w3.org/1999/xlink"><path d="M15.9236 8.46889l-3.3862 3.38638 -1.52526e-07 1.52537e-07c-.960409.96048-.960409 2.51765 3.05051e-07 3.47813l.053.053 5.36252e-08 5.36299e-08c.960339.960423 2.51742.960491 3.47785.000151761 5.06251e-05-5.06207e-05.000101248-.000101244.000151869-.000151869l3.38816-3.3883 2.35893e-08-2.35908e-08c2.05796-2.05809 2.05796-5.39478-4.71786e-08-7.45287l-.00160018-.00153008 -4.8594e-08-4.85974e-08c-2.05863-2.05878-5.39645-2.0589-7.45522-.000265124 -8.84101e-05 8.84038e-05-.000176817.000176811-.000265221.000265221l-7.45543 7.45585 -1.78392e-07 1.78405e-07c-2.05877 2.05891-2.05877 5.39692 3.56785e-07 7.45583v0l1.98413e-07 1.98427e-07c2.05862 2.05877 5.39643 2.05889 7.4552.000263108 8.78381e-05-8.78319e-05.000175673-.000175667.000263505-.000263505v0" stroke-linecap="round" stroke-width="1.5" stroke="#323232" fill="none" stroke-linejoin="round"></path><path fill="none" d="M0 0h24v24h-24Z"></path></svg>