<?xml version="1.0" encoding="UTF-8"?><svg version="1.1" viewBox="0 0 24 24" xmlns="http://www.w3.org/2000/svg" xmlns:xlink="http://www.w3.org/1999/xlink"><!--Generated by IJSVG (https://github.com/iconjar/IJSVG)--><g fill="none"><path d="M0,0h24v24h-24Z"></path><path stroke="#323232" stroke-linecap="round" stroke-linejoin="round" stroke-width="1.5" d="M6,6h4v4h-4Z"></path><path stroke="#323232" stroke-linecap="round" stroke-linejoin="round" stroke-width="1.5" d="M6,14h4v4h-4Z"></path><path stroke="#323232" stroke-linecap="round" stroke-linejoin="round" stroke-width="1.5" d="M14,6h4v4h-4Z" transform="matrix(-1,-1.22465e-16,1.22465e-16,-1,32,16)"></path><path stroke="#323232" stroke-linecap="round" stroke-linejoin="round" stroke-width="1.5" d="M16.0354,15.9646c0.0195262,0.0195262 0.0195262,0.0511845 0,0.0707107c-0.0195262,0.0195262 -0.0511845,0.0195262 -0.0707107,0c-0.0195262,-0.0195262 -0.0195262,-0.0511845 0,-0.0707107c0.0195262,-0.0195262 0.0511845,-0.0195262 0.0707107,0"></path><path stroke="#323232" stroke-linecap="round" stroke-linejoin="round" stroke-width="1.5" d="M14.0354,13.9646c0.0195262,0.0195262 0.0195262,0.0511845 0,0.0707107c-0.0195262,0.0195262 -0.0511845,0.0195262 -0.0707107,0c-0.0195262,-0.0195262 -0.0195262,-0.0511845 0,-0.0707107c0.0195262,-0.0195262 0.0511845,-0.0195262 0.0707107,0"></path><path stroke="#323232" stroke-linecap="round" stroke-linejoin="round" stroke-width="1.5" d="M14.0354,17.9646c0.0195262,0.0195262 0.0195262,0.0511845 0,0.0707107c-0.0195262,0.0195262 -0.0511845,0.0195262 -0.0707107,0c-0.0195262,-0.0195262 -0.0195262,-0.0511845 0,-0.0707107c0.0195262,-0.0195262 0.0511845,-0.0195262 0.0707107,0"></path><path stroke="#323232" stroke-linecap="round" stroke-linejoin="round" stroke-width="1.5" d="M18.0354,17.9646c0.0195262,0.0195262 0.0195262,0.0511845 0,0.0707107c-0.0195262,0.0195262 -0.0511845,0.0195262 -0.0707107,0c-0.0195262,-0.0195262 -0.0195262,-0.0511845 0,-0.0707107c0.0195262,-0.0195262 0.0511845,-0.0195262 0.0707107,0"></path><path stroke="#323232" stroke-linecap="round" stroke-linejoin="round" stroke-width="1.5" d="M21.5,7.978v-3.478c0,-1.105 -0.895,-2 -2,-2h-3.478"></path><path stroke="#323232" stroke-linecap="round" stroke-linejoin="round" stroke-width="1.5" d="M7.978,2.5h-3.478c-1.105,0 -2,0.895 -2,2v3.478"></path><path stroke="#323232" stroke-linecap="round" stroke-linejoin="round" stroke-width="1.5" d="M2.5,16.022v3.478c0,1.105 0.895,2 2,2h3.478"></path><path stroke="#323232" stroke-linecap="round" stroke-linejoin="round" stroke-width="1.5" d="M16.022,21.5h3.478c1.105,0 2,-0.895 2,-2v-3.478"></path><path stroke="#323232" stroke-linecap="round" stroke-linejoin="round" stroke-width="1.5" d="M18.0354,13.9646c0.0195262,0.0195262 0.0195262,0.0511845 0,0.0707107c-0.0195262,0.0195262 -0.0511845,0.0195262 -0.0707107,0c-0.0195262,-0.0195262 -0.0195262,-0.0511845 0,-0.0707107c0.0195262,-0.0195262 0.0511845,-0.0195262 0.0707107,0"></path></g></svg>