<?xml version="1.0" encoding="UTF-8"?><svg version="1.1" viewBox="0 0 24 24" xmlns="http://www.w3.org/2000/svg" xmlns:xlink="http://www.w3.org/1999/xlink"><g fill="none"><path d="M0 0h24v24h-24Z"></path><path stroke="#323232" stroke-linecap="round" stroke-linejoin="round" stroke-width="1.5" d="M12 21v0c-4.971 0-9-4.029-9-9v0c0-4.971 4.029-9 9-9v0c4.971 0 9 4.029 9 9v0c0 4.971-4.029 9-9 9Z"></path><path stroke="#323232" stroke-linecap="round" stroke-linejoin="round" stroke-width="1.5" d="M12 13.25v-.25c0-.817.505-1.26 1.011-1.6 .494-.333.989-.767.989-1.567 0-1.105-.895-2-2-2 -1.105 0-2 .895-2 2"></path><path stroke="#323232" stroke-linecap="round" stroke-linejoin="round" stroke-width="1.5" d="M11.999 16c-.138 0-.25.112-.249.25 0 .138.112.25.25.25 .138 0 .25-.112.25-.25 0-.138-.112-.25-.251-.25"></path></g></svg>