<?xml version="1.0" encoding="UTF-8"?><svg version="1.1" viewBox="0 0 24 24" xmlns="http://www.w3.org/2000/svg" xmlns:xlink="http://www.w3.org/1999/xlink"><g fill="none"><rect width="24" height="24"></rect><rect width="18" height="14" x="3" y="7" rx="1.65684" ry="0" stroke="#323232" stroke-linecap="round" stroke-linejoin="round" stroke-width="1.5"></rect><path stroke="#323232" stroke-linecap="round" stroke-linejoin="round" stroke-width="1.5" d="M9.777 13.7l5.12646e-10 2.92921e-12c-.0977528-.000558544-.17745.078233-.178008.175986 -5.74096e-06.00100475-2.92646e-06.00200952 8.44319e-06.00301422l-2.11185e-09 3.84462e-07c-.000545952.0994098.079599.18044.179009.180986 .0994098.000545952.18044-.079599.180986-.179009 .000545952-.0994098-.079599-.18044-.179009-.180986 -.000995407-5.46671e-06-.00199084-2.67625e-06-.0029862 8.37109e-06"></path><path stroke="#323232" stroke-linecap="round" stroke-linejoin="round" stroke-width="1.5" d="M9.777 10.821l2.087e-09 1.3145e-13c-.0977544-6.24186e-06-.177005.0792343-.177011.176989 -4.28098e-08.000670449 3.72372e-06.00134089 1.12994e-05.0020113l-2.11185e-09 3.84462e-07c-.000545952.0994098.079599.18044.179009.180986 .0994098.000545952.18044-.079599.180986-.179009 .000545952-.0994098-.079599-.18044-.179009-.180986 -.000995407-5.46671e-06-.00199084-2.67625e-06-.0029862 8.37109e-06"></path><path stroke="#323232" stroke-linecap="round" stroke-linejoin="round" stroke-width="1.5" d="M9.777 16.821l2.087e-09 1.3145e-13c-.0977544-6.24186e-06-.177005.0792343-.177011.176989 -4.28098e-08.000670449 3.72372e-06.00134089 1.12994e-05.0020113l-2.11185e-09 3.84462e-07c-.000545952.0994098.079599.18044.179009.180986 .0994098.000545952.18044-.079599.180986-.179009 .000545952-.0994098-.079599-.18044-.179009-.180986 -.000995407-5.46671e-06-.00199084-2.67625e-06-.0029862 8.37109e-06"></path><path stroke="#323232" stroke-linecap="round" stroke-linejoin="round" stroke-width="1.5" d="M7.024 12.411l1.10488e-08-1.9427e-08c-.0488733.0859331-.0188304.195215.0671027.244089 .0859331.0488733.195215.0188304.244089-.0671027 .0484478-.0851849.0193899-.193492-.0651913-.242986l6.8094e-09 4.03696e-09c-.0845628-.0501332-.193755-.0222225-.243889.0623403 -.000718232.00121149-.00142206.00243146-.00211134.00365965"></path><path stroke="#323232" stroke-linecap="round" stroke-linejoin="round" stroke-width="1.5" d="M12.22 15.412l-5.54528e-09 9.60945e-09c-.0488591.0846682-.0198301.192914.0648382.241773 .000717726.000414174.00143835.000823304.00216182.00122736l-5.7792e-11-3.31379e-11c.0857619.0491731.195148.0195121.244321-.0662498 .0491731-.0857619.0195121-.195148-.0662498-.244321 -.0857619-.0491731-.195148-.0195121-.244321.0662498 -.000251949.000439419-.000502031.000879905-.000750241.00132145"></path><path stroke="#323232" stroke-linecap="round" stroke-linejoin="round" stroke-width="1.5" d="M7.025 15.591l3.10828e-09 5.27813e-09c.0501654.0851853.159889.113574.245074.063409 .0851853-.0501654.113574-.159889.063409-.245074 -.049801-.0845665-.158409-.113264-.243483-.064335l1.44831e-08-8.4379e-09c-.0858413.0500114-.114933.160113-.065.246"></path><path stroke="#323232" stroke-linecap="round" stroke-linejoin="round" stroke-width="1.5" d="M12.222 12.591l-6.52332e-09-1.15179e-08c.0479026.0845789.1553.114311.239879.0664084 .0013845-.000784131.00275829-.001587.00412102-.00240839l6.10029e-09-3.53643e-09c.0855267-.0495811.114666-.159108.0650852-.244634 -.0495811-.0855267-.159108-.114666-.244634-.0650852 -.0855267.0495811-.114666.159108-.0650852.244634 .000210142.000362491.000421555.000724244.000634237.00108525"></path><line x1="15.75" x2="17.75" y1="10.93" y2="10.93" stroke="#323232" stroke-linecap="round" stroke-linejoin="round" stroke-width="1.5"></line><line x1="15.75" x2="17.75" y1="13.93" y2="13.93" stroke="#323232" stroke-linecap="round" stroke-linejoin="round" stroke-width="1.5"></line><path stroke="#323232" stroke-linecap="round" stroke-linejoin="round" stroke-width="1.5" d="M21 18v-7.991l5.29623e-08-.000586642c0-1.39885-.895351-2.64067-2.22256-3.0826l-11.7774-3.92581"></path></g></svg>