<svg id="Layer_3" data-name="Layer 3" xmlns="http://www.w3.org/2000/svg" viewBox="0 0 24 24"><path d="M24,24H0V0H24Z" fill="none"/><line x1="13" y1="14" x2="15" y2="14" fill="none" stroke="#323232" stroke-linecap="round" stroke-linejoin="round" stroke-width="1.5"/><line x1="3" y1="11" x2="20.71633" y2="11" fill="none" stroke="#323232" stroke-linecap="round" stroke-linejoin="round" stroke-width="1.5"/><path d="M13.77146,21H5a2,2,0,0,1-2-2V6A2,2,0,0,1,5,4h9.62633A5,5,0,0,1,19.308,7.24438l1.56468,4.17249a2,2,0,0,1,.06772,1.18693l-.59282,2.37327A1.54181,1.54181,0,0,1,19.118,16.09484a5.00633,5.00633,0,0,0-3.89816,3.777A1.478,1.478,0,0,1,13.77146,21Z" fill="none" stroke="#323232" stroke-linecap="round" stroke-linejoin="round" stroke-width="1.5"/></svg>