<svg id="Layer_3" data-name="Layer 3" xmlns="http://www.w3.org/2000/svg" viewBox="0 0 24 24"><path d="M7.12133,20.12132,3.87869,16.87868A3,3,0,0,1,3,14.75736V9.24364a3,3,0,0,1,.87868-2.12132L7.12233,3.87868A3,3,0,0,1,9.24365,3h5.51272a3,3,0,0,1,2.12132.87868l3.24364,3.24364A3,3,0,0,1,21,9.24365v5.51371a3,3,0,0,1-.87836,2.121L16.88,20.121A3,3,0,0,1,14.75837,21H9.24265A3,3,0,0,1,7.12133,20.12132Z" fill="none" stroke="#323232" stroke-linecap="round" stroke-linejoin="round" stroke-width="1.5"/><path d="M12.91624,13.71426l-2.6305-2.6305a.9935.9935,0,0,1-.27121-.87028,3.26714,3.26714,0,1,1,3.772,3.772A.9935.9935,0,0,1,12.91624,13.71426Z" fill="none" stroke="#323232" stroke-linecap="round" stroke-linejoin="round" stroke-width="1.5"/><path d="M10.1662,10.93018,7.70227,14.18994a1.00006,1.00006,0,0,0,.09064,1.31018l.707.70691a1,1,0,0,0,1.31036.09046l3.25836-2.4646" fill="none" stroke="#323232" stroke-linecap="round" stroke-linejoin="round" stroke-width="1.5"/><rect x="0.00001" width="24" height="24" fill="none"/></svg>