<?xml version="1.0" encoding="UTF-8"?><svg version="1.1" viewBox="0 0 24 24" xmlns="http://www.w3.org/2000/svg" xmlns:xlink="http://www.w3.org/1999/xlink"><g fill="none"><path d="M0 0h24v24h-24v-24Z"></path><path stroke="#323232" stroke-linecap="round" stroke-linejoin="round" stroke-width="1.5" d="M10.5 12l-2.5-2.5 2.5-2.5"></path><path stroke="#323232" stroke-linecap="round" stroke-linejoin="round" stroke-width="1.5" d="M14.174 20.851l-1.681-1.12c-.299-.199-.688-.199-.986 0l-1.681 1.12c-.299.199-.688.199-.986 0l-1.68-1.121c-.299-.199-.688-.199-.986 0l-.792.528c-.591.394-1.382-.03-1.382-.739v-14.741c0-.982.796-1.778 1.778-1.778h12.444c.982 0 1.778.796 1.778 1.778v14.741c0 .71-.791 1.133-1.382.74l-.792-.528c-.299-.199-.688-.199-.986 0l-1.681 1.12c-.298.199-.687.199-.985 3.55271e-15Z"></path><path stroke="#323232" stroke-linecap="round" stroke-linejoin="round" stroke-width="1.5" d="M8 9.5h5.25c1.519 0 2.75 1.231 2.75 2.75v0c0 1.519-1.231 2.75-2.75 2.75h-1.25"></path></g></svg>