<?xml version="1.0" encoding="UTF-8"?><svg version="1.1" viewBox="0 0 24 24" xmlns="http://www.w3.org/2000/svg" xmlns:xlink="http://www.w3.org/1999/xlink"><g stroke-linecap="round" stroke-width="1.5" stroke="#323232" fill="none" stroke-linejoin="round"><path d="M20.424 4.803v2.893h-2.893 2.893"></path><path d="M19.905 7.696c-1.526-2.797-4.493-4.696-7.905-4.696 -4.971 0-9 4.03-9 9 0 4.97 4.029 9 9 9 4.971 0 9-4.03 9-9"></path><path d="M14.475 9.525c1.367 1.367 1.367 3.583 0 4.95 -1.367 1.367-3.583 1.367-4.95 0 -1.367-1.367-1.367-3.583 0-4.95 1.367-1.367 3.583-1.367 4.95-1.77636e-15"></path></g><path fill="none" d="M0 0h24v24h-24v-24Z"></path></svg>