<?xml version="1.0" encoding="UTF-8"?><svg version="1.1" viewBox="0 0 24 24" xmlns="http://www.w3.org/2000/svg" xmlns:xlink="http://www.w3.org/1999/xlink"><g stroke-linecap="round" stroke-width="1.5" stroke="#323232" fill="none" stroke-linejoin="round"><path d="M12 21c-4.97 0-9-4.03-9-9 0-4.97 4.03-9 9-9 4.972 0 9 4.03 9 9 0 4.97-4.028 9-9 9"></path><path d="M15.188 11.069l.729-.729c.657 1.55.355 3.407-.909 4.669 -1.013 1.013-2.407 1.395-3.717 1.17"></path><path d="M8.812 12.931l-.729.729c-.657-1.55-.355-3.407.909-4.669 1.075-1.075 2.579-1.436 3.958-1.121"></path></g><path fill="none" d="M0 0h24v24h-24Z"></path></svg>