<?xml version="1.0" encoding="UTF-8"?><svg version="1.1" viewBox="0 0 24 24" xmlns="http://www.w3.org/2000/svg" xmlns:xlink="http://www.w3.org/1999/xlink"><g stroke-linecap="round" stroke-width="1.5" stroke="#323232" fill="none" stroke-linejoin="round"><path d="M7.457 13.982l1.956-1.956c.336-.336.912-.098.912.378v7.007c0 .295-.239.534-.534.534h-7.008c-.475 0-.713-.575-.378-.912 0 0 1.778-1.778 1.778-1.778 -.811-1.246-1.286-2.731-1.286-4.328 0-4.214 3.281-7.654 7.427-7.927 -2.595.264-4.619 2.455-4.619 5.119 0 1.541.681 2.918 1.752 3.861"></path><path d="M16.791 10.962l-1.956 1.956c-.336.336-.912.098-.912-.378v-7.006c0-.295.239-.534.534-.534h7.008c.475 0 .713.575.378.912 0 0-1.778 1.778-1.778 1.778 .811 1.246 1.286 2.731 1.286 4.328 0 4.214-3.281 7.654-7.427 7.927 2.595-.264 4.619-2.455 4.619-5.119 0-1.541-.681-2.918-1.752-3.861"></path></g><path fill="none" d="M0 0h24v24h-24v-24Z"></path></svg>