<?xml version="1.0" encoding="UTF-8"?><svg version="1.1" viewBox="0 0 24 24" xmlns="http://www.w3.org/2000/svg" xmlns:xlink="http://www.w3.org/1999/xlink"><g fill="none"><path d="M24 0v24h-24v-24h24Z"></path><path stroke="#323232" stroke-linecap="round" stroke-linejoin="round" stroke-width="1.5" d="M10 10.321v3.358c0 .982-.796 1.778-1.778 1.778h-3.765c-1.909 1.77636e-15-3.457-1.548-3.457-3.457v0c0-1.909 1.548-3.457 3.457-3.457h3.765c.982 0 1.778.796 1.778 1.778Z"></path><path stroke="#323232" stroke-linecap="round" stroke-linejoin="round" stroke-width="1.5" d="M15.757 9c1.657 1.657 1.657 4.343 0 6"></path><path stroke="#323232" stroke-linecap="round" stroke-linejoin="round" stroke-width="1.5" d="M13.379 10.5c.828.828.828 2.172 0 3"></path><path stroke="#323232" stroke-linecap="round" stroke-linejoin="round" stroke-width="1.5" d="M5 5c0-1.105.895-2 2-2h12c1.105 0 2 .895 2 2v14c0 1.105-.895 2-2 2h-12c-1.105 0-2-.895-2-2"></path></g></svg>