<svg id="Layer_3" data-name="Layer 3" xmlns="http://www.w3.org/2000/svg" viewBox="0 0 24 24"><path d="M0,24V0H24V24Z" fill="none"/><line x1="15.5" y1="5.99881" x2="15.5" y2="3.00001" fill="none" stroke="#323232" stroke-linecap="round" stroke-linejoin="round" stroke-width="1.5"/><line x1="18.5" y1="3.00001" x2="15.5" y2="3.00001" fill="none" stroke="#323232" stroke-linecap="round" stroke-linejoin="round" stroke-width="1.5"/><path d="M3,12A9,9,0,1,0,15.5,3.70612" fill="none" stroke="#323232" stroke-linecap="round" stroke-linejoin="round" stroke-width="1.5"/><path d="M10.4646,2.96469l.00009-.00008a.0473.0473,0,1,1-.00009.00008" fill="none" stroke="#323232" stroke-linecap="round" stroke-linejoin="round" stroke-width="1.5"/><path d="M6.4646,4.46469l.00009-.00008a.0473.0473,0,1,1-.00009.00008" fill="none" stroke="#323232" stroke-linecap="round" stroke-linejoin="round" stroke-width="1.5"/><path d="M3.4646,7.96469l.00009-.00008a.0473.0473,0,1,1-.00009.00008" fill="none" stroke="#323232" stroke-linecap="round" stroke-linejoin="round" stroke-width="1.5"/><path id="a1080z" d="M11.68018,7.21871a.49993.49993,0,0,1,.91261.28225v3.24443H15.4992a.5.5,0,0,1,.41268.78227L12.31982,16.7813a.49992.49992,0,0,1-.91261-.28224V13.25463H8.5008a.5.5,0,0,1-.41268-.78227Z" fill="none" stroke="#323232" stroke-linecap="round" stroke-linejoin="round" stroke-width="1.5"/></svg>