<?xml version="1.0" encoding="UTF-8"?><svg version="1.1" viewBox="0 0 24 24" xmlns="http://www.w3.org/2000/svg" xmlns:xlink="http://www.w3.org/1999/xlink"><defs><path d="M24 24h-24v-24h24v24Z" id="a"></path></defs><g fill="none"><use xlink:href="#a"></use><use xlink:href="#a"></use><path stroke="#323232" stroke-linecap="round" stroke-linejoin="round" stroke-width="1.5" d="M16.75 14.861c0-3.448-2.297-4.924-5.064-4.924v-1.887c0-.524-.613-.808-1.013-.469l-3.932 3.337c-.281.238-.288.67-.015.917l3.932 3.564c.395.358 1.028.078 1.028-.456v-1.885c2.185 0 4.128.231 5.064 2.495v-.692Z"></path><path stroke="#323232" stroke-linecap="round" stroke-linejoin="round" stroke-width="1.5" d="M18 21.014h-12c-1.657 0-3-1.343-3-3v-12c0-1.657 1.343-3 3-3h12c1.657 0 3 1.343 3 3v12c0 1.657-1.343 3-3 3Z"></path></g></svg>