<?xml version="1.0" encoding="UTF-8"?><svg version="1.1" viewBox="0 0 24 24" xmlns="http://www.w3.org/2000/svg" xmlns:xlink="http://www.w3.org/1999/xlink"><defs><path d="M24 24h-24v-24h24v24Z" id="a"></path></defs><g fill="none"><use xlink:href="#a"></use><use xlink:href="#a"></use><path stroke="#323232" stroke-linecap="round" stroke-linejoin="round" stroke-width="1.5" d="M16.75 14.861c0-3.448-2.297-4.924-5.064-4.924v-1.887c0-.524-.613-.808-1.013-.469 0 0-3.932 3.337-3.932 3.337 -.281.238-.288.67-.015.917l3.932 3.564c.395.358 1.028.078 1.028-.456v-1.885c2.185 0 4.128.231 5.064 2.495v-.692Z"></path><path stroke="#323232" stroke-linecap="round" stroke-linejoin="round" stroke-width="1.5" d="M5.636 5.636c3.575-3.575 9.408-3.514 12.906.183 3.229 3.413 3.229 8.949 0 12.362 -3.498 3.697-9.331 3.758-12.906.183 -3.515-3.515-3.515-9.213-8.88178e-16-12.728"></path></g></svg>