<?xml version="1.0" encoding="UTF-8"?><svg version="1.1" viewBox="0 0 24 24" xmlns="http://www.w3.org/2000/svg" xmlns:xlink="http://www.w3.org/1999/xlink"><!--Generated by IJSVG (https://github.com/iconjar/IJSVG)--><g stroke-linecap="round" stroke-width="1.5" stroke="#323232" fill="none" stroke-linejoin="round"><path d="M5.402,18.763c-1.463,-1.283 -2.51,-3.028 -2.902,-5.013"></path><path d="M14.222,20.515c-0.909,0.31 -1.881,0.485 -2.895,0.485c-1.014,0 -1.986,-0.175 -2.896,-0.485"></path><path d="M14.222,3.485c-0.909,-0.31 -1.881,-0.485 -2.895,-0.485c-1.014,0 -1.986,0.175 -2.896,0.485"></path><path d="M17.252,18.763c1.463,-1.283 2.51,-3.028 2.902,-5.013"></path><path d="M2.5,10.25c0.391,-1.985 1.438,-3.729 2.902,-5.013"></path><path d="M16.044,10.25h4.469c0.758,0 1.233,-0.821 0.853,-1.478l-2.235,-3.87c-0.379,-0.657 -1.327,-0.657 -1.707,0l-2.235,3.87c-0.377,0.657 0.097,1.478 0.855,1.478Z"></path></g><path fill="none" d="M0,0h24v24h-24v-24Z"></path></svg>