<?xml version="1.0" encoding="UTF-8"?><svg version="1.1" viewBox="0 0 24 24" xmlns="http://www.w3.org/2000/svg" xmlns:xlink="http://www.w3.org/1999/xlink"><!--Generated by IJSVG (https://github.com/iconjar/IJSVG)--><g stroke-linecap="round" stroke-width="1.5" stroke="#323232" fill="none" stroke-linejoin="round"><path d="M3,13c0,-0.552 0.448,-1 1,-1"></path><path d="M3,16v1"></path><path d="M4,21c-0.552,0 -1,-0.448 -1,-1"></path><path d="M7,21h1"></path><path d="M7,12h1"></path><path d="M12,20c0,0.552 -0.448,1 -1,1"></path><path d="M12,17v-1"></path><path d="M11,12c0.552,0 1,0.448 1,1"></path><path d="M7,12v-7c0,-1.105 0.895,-2 2,-2h10c1.105,0 2,0.895 2,2v10c0,1.105 -0.895,2 -2,2h-7"></path><path d="M14,10l4,-4"></path><path d="M15,6h3v3"></path></g><path fill="none" d="M0,0h24v24h-24Z"></path></svg>