<?xml version="1.0" encoding="UTF-8"?><svg version="1.1" viewBox="0 0 24 24" xmlns="http://www.w3.org/2000/svg" xmlns:xlink="http://www.w3.org/1999/xlink"><g stroke-linecap="round" stroke-width="1.5" stroke="#323232" fill="none" stroke-linejoin="round"><polyline points="12.5,8.5 15.5,8.5 15.5,11.5"></polyline><polyline points="11.5,15.5 8.5,15.5 8.5,12.5"></polyline><path d="M14.053 21l-1.55668e-07 3.55855e-08c3.45713-.790296 6.1567-3.48987 6.947-6.947"></path><path d="M3 9.947l-1.25574e-07 5.49319e-07c.790296-3.45713 3.48987-6.1567 6.947-6.947"></path><path d="M9.947 21l-6.31634e-07-1.44391e-07c-3.45713-.790296-6.1567-3.48987-6.947-6.947"></path><path d="M9.947 3l-6.31634e-07 1.44391e-07c-3.45713.790296-6.1567 3.48987-6.947 6.947"></path><path d="M21 14.053l2.21689e-07-9.69774e-07c-.790295 3.45713-3.48987 6.1567-6.947 6.947"></path><path d="M14.053 3l-1.55668e-07-3.55855e-08c3.45713.790296 6.1567 3.48987 6.947 6.947"></path></g><path fill="none" d="M0 0h24v24h-24Z"></path></svg>