<?xml version="1.0" encoding="UTF-8"?><svg version="1.1" viewBox="0 0 24 24" xmlns="http://www.w3.org/2000/svg" xmlns:xlink="http://www.w3.org/1999/xlink"><g fill="none"><rect width="24" height="24"></rect><path stroke="#323232" stroke-linecap="round" stroke-linejoin="round" stroke-width="1.5" d="M9.95026 14.6177l-4.37958 2.18986 1.54927e-07-7.70478e-08c-.839285.417392-1.85824.134408-2.3621-.656l-5.55075e-07-8.72556e-07c-1.61143-2.53311-1.61143-5.76989 1.11015e-06-8.303l-1.03992e-07 1.63133e-07c.503854-.790405 1.52278-1.07343 2.3621-.65611l4.37958 2.18989"></path><line x1="7.09" x2="9.01" y1="12" y2="12" stroke="#323232" stroke-linecap="round" stroke-linejoin="round" stroke-width="1.5"></line><path stroke="#323232" stroke-linecap="round" stroke-linejoin="round" stroke-width="1.5" d="M9.72678 14.365l7.78223e-08 1.16082e-07c-.959216-1.4308-.959216-3.29927-1.55645e-07-4.73007l-2.21492e-08 3.1796e-08c.280521-.402699.742178-.640443 1.23292-.63493h2.0806l-3.54856e-08 3.97232e-10c.490754-.00549363.952412.232278 1.23292.635l1.43336e-07 2.13806e-07c.95921 1.4308.95921 3.29927-1.70903e-07 4.73007l5.0231e-08-7.21069e-08c-.280523.402692-.742172.640434-1.23291.63493h-2.08061l7.54219e-08-8.44024e-10c-.490754.00549189-.952411-.232279-1.23292-.635Z"></path><path stroke="#323232" stroke-linecap="round" stroke-linejoin="round" stroke-width="1.5" d="M14.0497 9.38232l4.37958-2.18986 9.29171e-08-4.62094e-08c.839285-.417392 1.85824-.134408 2.3621.656l1.92139e-07 3.02035e-07c1.61143 2.53311 1.61143 5.76989-3.84278e-07 8.303l1.78405e-08-2.79868e-08c-.503854.790404-1.52278 1.07343-2.3621.65611l-4.37958-2.18994"></path><line x1="16.91" x2="14.99" y1="12" y2="12" stroke="#323232" stroke-linecap="round" stroke-linejoin="round" stroke-width="1.5"></line></g></svg>