<?xml version="1.0" encoding="UTF-8"?><svg version="1.1" viewBox="0 0 24 24" xmlns="http://www.w3.org/2000/svg" xmlns:xlink="http://www.w3.org/1999/xlink"><!--Generated by IJSVG (https://github.com/iconjar/IJSVG)--><g stroke-linecap="round" stroke-width="1.5" stroke="#323232" fill="none" stroke-linejoin="round"><path d="M8.194,17.761l-1.955,-1.955c-0.781,-0.781 -0.781,-2.047 0,-2.828l6.738,-6.738c0.781,-0.781 2.047,-0.781 2.828,0l1.955,1.955c0.781,0.781 0.781,2.047 0,2.828l-6.738,6.738c-0.78,0.781 -2.047,0.781 -2.828,0Z"></path><path d="M15.587,6.021l1.515,-2.121c0.772,-1.081 2.329,-1.209 3.268,-0.27v0c0.939,0.939 0.81,2.496 -0.27,3.268l-2.121,1.515"></path><path d="M8.413,17.979l-1.515,2.121c-0.772,1.081 -2.329,1.209 -3.268,0.27v0c-0.939,-0.939 -0.81,-2.496 0.27,-3.268l2.121,-1.515"></path></g><path fill="none" d="M0,0h24v24h-24Z"></path></svg>