<svg xmlns="http://www.w3.org/2000/svg" viewBox="0 0 24 24"><g id="Layer_2" data-name="Layer 2"><rect width="24" height="24" fill="none"/><path d="M4,17H20.5a2,2,0,1,1-1.92926,2.5H16.92926a1.99068,1.99068,0,0,1-3.85852,0H11.42926a1.99068,1.99068,0,0,1-3.85852,0H5.92926A1.99685,1.99685,0,1,1,4,17Z" fill="none" stroke="#323232" stroke-linecap="round" stroke-linejoin="round" stroke-width="1.5"/><path d="M10,17,8.72841,12.54944A2,2,0,0,1,10.65146,10H13a1,1,0,0,0,1-1V8a1,1,0,0,0-1-1H3.63636" fill="none" stroke="#323232" stroke-linecap="round" stroke-linejoin="round" stroke-width="1.5"/><path d="M21,17.06335V15.46924a4.00017,4.00017,0,0,0-3.43433-3.96l-2.28173-.32593a2,2,0,0,1-1.64026-1.43042" fill="none" stroke="#323232" stroke-linecap="round" stroke-linejoin="round" stroke-width="1.5"/><path d="M4,17l-.73541-2.20622a4.00016,4.00016,0,0,1-.18884-1.62706l.84157-9.25726A1,1,0,0,1,4.91321,3H6.58579a1,1,0,0,1,.7071.29289L8,4h2.49139a1.99994,1.99994,0,0,1,1.923,1.45056L12.85712,7" fill="none" stroke="#323232" stroke-linecap="round" stroke-linejoin="round" stroke-width="1.5"/></g></svg>