<?xml version="1.0" encoding="UTF-8"?><svg version="1.1" viewBox="0 0 24 24" xmlns="http://www.w3.org/2000/svg" xmlns:xlink="http://www.w3.org/1999/xlink"><!--Generated by IJSVG (https://github.com/iconjar/IJSVG)--><g stroke-linecap="round" stroke-width="1.5" stroke="#323232" fill="none" stroke-linejoin="round"><path d="M8.88,12.825l4.848,-3.03c0.791,-0.495 1.272,-1.362 1.272,-2.295v0c0,-1.381 -1.119,-2.5 -2.5,-2.5v0c-1.381,0 -2.5,1.119 -2.5,2.5v0c0,0.828 -0.672,1.5 -1.5,1.5v0c-0.828,0 -1.5,-0.672 -1.5,-1.5v0c0,-3.038 2.462,-5.5 5.5,-5.5v0c3.038,0 5.5,2.462 5.5,5.5v12.5c0,1.105 -0.895,2 -2,2h-7c-1.105,0 -2,-0.895 -2,-2v-3.783c0,-1.379 0.71,-2.661 1.88,-3.392Z"></path><path d="M11.25,15.75l2.5,2.5"></path><path d="M11.25,18.25l2.5,-2.5"></path></g><path fill="none" d="M0,0h24v24h-24Z"></path></svg>