<?xml version="1.0" encoding="UTF-8"?><svg version="1.1" viewBox="0 0 24 24" xmlns="http://www.w3.org/2000/svg" xmlns:xlink="http://www.w3.org/1999/xlink"><g fill="none"><path d="M0 0h24v24h-24Z"></path><path d="M24 0v24h-24v-24Z"></path><polyline stroke="#323232" stroke-linecap="round" stroke-linejoin="round" stroke-width="1.5" points="21,7.5 19.2,9.3 17.4,7.5"></polyline><path stroke="#323232" stroke-linecap="round" stroke-linejoin="round" stroke-width="1.5" d="M19.2 9.3v-3.15 0c0-1.24264-1.00736-2.25-2.25-2.25h-2.25"></path><polyline stroke="#323232" stroke-linecap="round" stroke-linejoin="round" stroke-width="1.5" points="3,16.5 4.8,14.7 6.6,16.5"></polyline><path stroke="#323232" stroke-linecap="round" stroke-linejoin="round" stroke-width="1.5" d="M4.8 14.7v3.15l2.57572e-14-3.39741e-07c-1.87634e-07 1.24264 1.00736 2.25 2.25 2.25 0 0 3.55271e-15 0 3.55271e-15 0h2.25"></path><polyline stroke="#323232" stroke-linecap="round" stroke-linejoin="round" stroke-width="1.5" points="16.5,21 14.7,19.2 16.5,17.4"></polyline><path stroke="#323232" stroke-linecap="round" stroke-linejoin="round" stroke-width="1.5" d="M14.7 19.2h3.15l-9.83506e-08-3.55271e-15c1.24264 5.43176e-08 2.25-1.00736 2.25-2.25v-2.25"></path><polyline stroke="#323232" stroke-linecap="round" stroke-linejoin="round" stroke-width="1.5" points="7.5,3 9.3,4.8 7.5,6.6"></polyline><path stroke="#323232" stroke-linecap="round" stroke-linejoin="round" stroke-width="1.5" d="M9.3 4.8h-3.15l-9.83506e-08 2.66454e-15c-1.24264 5.43176e-08-2.25 1.00736-2.25 2.25 0 0 0 8.88178e-16 0 8.88178e-16v2.25"></path><path stroke="#323232" stroke-linecap="round" stroke-linejoin="round" stroke-width="1.5" d="M12 14.7l-1.18021e-07-1.77636e-15c-1.49117-6.51811e-08-2.7-1.20883-2.7-2.7 6.51811e-08-1.49117 1.20883-2.7 2.7-2.7 1.49117 6.51811e-08 2.7 1.20883 2.7 2.7 0 0 0 1.77636e-15 0 1.77636e-15l1.77636e-15-1.18021e-07c0 1.49117-1.20883 2.7-2.7 2.7"></path></g></svg>