<?xml version="1.0" encoding="UTF-8"?><svg version="1.1" viewBox="0 0 24 24" xmlns="http://www.w3.org/2000/svg" xmlns:xlink="http://www.w3.org/1999/xlink"><g fill="none"><rect width="24" height="24" transform="matrix(6.12323e-17 -1 1 6.12323e-17 0 24)"></rect><rect width="4.95" height="4.951" x="9.525" y="9.525" stroke="#323232" stroke-linecap="round" stroke-linejoin="round" stroke-width="1.5" transform="matrix(.7071 -.7071 .7071 .7071 -4.9706 11.9999)"></rect><polyline stroke="#323232" stroke-linecap="round" stroke-linejoin="round" stroke-width="1.5" points="5,12.25 3,14.25 1,12.25"></polyline><polyline stroke="#323232" stroke-linecap="round" stroke-linejoin="round" stroke-width="1.5" points="19,11.75 21,9.75 23,11.75"></polyline><path stroke="#323232" stroke-linecap="round" stroke-linejoin="round" stroke-width="1.5" d="M19.371 6.845c-1.627-2.323-4.319-3.845-7.371-3.845 -4.971 0-9 4.029-9 9 0 .694.086 1.366.235 2.015"></path><path stroke="#323232" stroke-linecap="round" stroke-linejoin="round" stroke-width="1.5" d="M4.629 17.155c1.627 2.323 4.319 3.845 7.371 3.845 4.971 0 9-4.029 9-9 0-.694-.086-1.366-.235-2.015"></path></g></svg>