<?xml version="1.0" encoding="UTF-8"?><svg version="1.1" viewBox="0 0 24 24" xmlns="http://www.w3.org/2000/svg" xmlns:xlink="http://www.w3.org/1999/xlink"><g stroke-linecap="round" stroke-width="1.5" stroke="#323232" fill="none" stroke-linejoin="round"><line x1="8.01" x2="7.51" y1="9.99" y2="9.49"></line><line x1="10.01" x2="9.51" y1="7.99" y2="7.49"></line><line x1="12.01" x2="11.51" y1="5.99" y2="5.49"></line><line x1="14.01" x2="13.51" y1="3.99" y2="3.49"></line><line x1="20" x2="20.5" y1="10" y2="10.5"></line><line x1="18" x2="18.5" y1="12" y2="12.5"></line><line x1="16" x2="16.5" y1="14" y2="14.5"></line><line x1="14" x2="14.5" y1="16" y2="16.5"></line></g><g transform="matrix(1 0 0 1 -2.85 12.879)"><rect width="12.485" height="8.485" x="7.878" y="5.636" fill="none" rx="1.02945" ry="0" stroke="#323232" stroke-linecap="round" stroke-linejoin="round" stroke-width="1.5" transform="matrix(.707107 -.707107 .707107 .707107 0 0)"></rect></g><g stroke-linecap="round" stroke-width="1.5" stroke="#323232" fill="none" stroke-linejoin="round"><path d="M16.362 7.638l-3.94461e-10-4.06866e-10c.0191783.0197814.0191783.0512186 7.88926e-10.071l3.45605e-09-3.45605e-09c-.0196061.0196061-.0513939.0196061-.071 6.91211e-09 -.0196061-.0196061-.0196061-.0513939-6.91211e-09-.071l4.54009e-09-4.40168e-09c.0197814-.0191783.0512186-.0191783.071 8.80336e-09"></path><path d="M14.156 9.844l1.3609e-09 1.38896e-09c.0189394.01933.0186228.0503534-.000707146.0692929 -.01933.0189394-.0503534.0186228-.0692929-.000707146 -.0186667-.0190516-.0186667-.0495341 2.72179e-09-.0685857l-3.76675e-09 4.01351e-09c.0181415-.01933.0485182-.0202934.0678481-.00215187 .000739852.000694364.0014575.00141201.00215186.00215186"></path><path d="M11.951 12.049l2.09441e-09 2.07731e-09c.0196061.019446.0197359.051104.000289912.0707101 -9.62421e-05 9.70346e-05-.000192882.000193674-.000289916.000289916l3.45605e-09-3.45605e-09c-.0196061.0196061-.0513939.0196061-.071 6.9121e-09 -.0196061-.0196061-.0196061-.0513939-6.9121e-09-.071l-1.56046e-09 1.57331e-09c.019446-.0196061.051104-.0197359.0707101-.000289919 9.70346e-05 9.62421e-05.000193674.000192882.000289916.000289916"></path><path d="M8.474 13.06l-4.962 4.966 -7.32735e-08 7.34818e-08c-.680139.682072-.678572 1.78636.00350015 2.4665 .682072.680139 1.78636.678572 2.4665-.00350015 0 0 8.88178e-16 0 8.88178e-16 0l4.959-4.962"></path><path d="M19.766 6.7l.722-.723 2.69498e-08-2.70264e-08c.680139-.682072.678572-1.78636-.00350008-2.4665 -.682072-.680139-1.78636-.678572-2.4665.00350008 0 0 0 4.44089e-16 0 4.44089e-16l-.719.719"></path></g><path fill="none" d="M0 0h24v24h-24Z"></path></svg>