<?xml version="1.0" encoding="UTF-8"?><svg version="1.1" viewBox="0 0 24 24" xmlns="http://www.w3.org/2000/svg" xmlns:xlink="http://www.w3.org/1999/xlink"><!--Generated by IJSVG (https://github.com/iconjar/IJSVG)--><defs><path d="M0,0h24v24h-24Z" id="a"></path></defs><g stroke-linecap="round" stroke-width="1.5" stroke="#323232" fill="none" stroke-linejoin="round"><path d="M13,4.243c1.657,-1.657 4.343,-1.657 6,0"></path><path d="M14.5,6.243c0.828,-0.828 2.172,-0.828 3,0"></path><path d="M13,17h-6"></path><path d="M15.965,17.035c-0.02,-0.02 -0.02,-0.051 0,-0.071c0.02,-0.02 0.051,-0.02 0.071,0c0.02,0.02 0.02,0.051 0,0.071c-0.02,0.02 -0.052,0.02 -0.071,0"></path><path d="M16,13v-4"></path><path d="M5,13h14c1.105,0 2,0.895 2,2v4c0,1.105 -0.895,2 -2,2h-14c-1.105,0 -2,-0.895 -2,-2v-4c0,-1.105 0.895,-2 2,-2Z"></path></g><use fill="none" transform="matrix(4.50198e-11,1,-1,4.50198e-11,24,-1.08048e-09)" xlink:href="#a"></use><use transform="matrix(4.50198e-11,1,-1,4.50198e-11,24,-1.08048e-09)" xlink:href="#a" fill="none"></use></svg>