<?xml version="1.0" encoding="UTF-8"?><svg version="1.1" viewBox="0 0 24 24" xmlns="http://www.w3.org/2000/svg" xmlns:xlink="http://www.w3.org/1999/xlink"><!--Generated by IJSVG (https://github.com/iconjar/IJSVG)--><g fill="none" fill-rule="evenodd"><path d="M0,0h24v24h-24Z"></path><path stroke="#323232" stroke-linecap="round" stroke-linejoin="round" stroke-width="1.5" d="M19.7782,6.34315c4.29577,3.12419 4.29577,8.18951 0,11.3137c-4.29577,3.12419 -11.2606,3.12419 -15.5563,0c-4.29577,-3.12419 -4.29577,-8.18951 -2.66454e-15,-11.3137c4.29577,-3.12419 11.2606,-3.12419 15.5563,-1.77636e-15" transform="matrix(0.7071,-0.7071,0.7071,0.7071,-4.9706,12)"></path></g><path fill="none" stroke="#323232" stroke-linecap="round" stroke-linejoin="round" stroke-width="1.5" d="M8.46,12.71l2.83,2.83"></path><g stroke-linecap="round" stroke-width="1.5" stroke="#323232" fill="none" stroke-linejoin="round"><path d="M12.71,8.46l2.83,2.83"></path><path d="M10.59,10.59l2.82,2.82"></path><path d="M14.8,2.537c-0.22,2.122 0.251,4.029 1.443,5.22c1.192,1.192 3.098,1.663 5.22,1.443"></path><path d="M2.537,14.8c2.122,-0.22 4.029,0.251 5.22,1.443c1.192,1.192 1.663,3.098 1.443,5.22"></path></g></svg>