<svg id="Layer_3" data-name="Layer 3" xmlns="http://www.w3.org/2000/svg" viewBox="0 0 24 24"><path d="M7.85359,12.14744l3.999,3.999A.5.5,0,0,1,11.499,17H7.5a.5.5,0,0,1-.5-.5V12.501A.5.5,0,0,1,7.85359,12.14744Z" fill="none" stroke="#323232" stroke-linecap="round" stroke-linejoin="round" stroke-width="1.5"/><path d="M6.41427,3.58979l13.99593,13.996A2,2,0,0,1,18.996,21H5a2,2,0,0,1-2-2V5.004A2,2,0,0,1,6.41427,3.58979Z" fill="none" stroke="#323232" stroke-linecap="round" stroke-linejoin="round" stroke-width="1.5"/><line x1="19.41222" y1="16.58778" x2="18" y2="18" fill="none" stroke="#323232" stroke-linecap="round" stroke-linejoin="round" stroke-width="1.5"/><line x1="15" y1="15" x2="16.41223" y2="13.58777" fill="none" stroke="#323232" stroke-linecap="round" stroke-linejoin="round" stroke-width="1.5"/><line x1="9" y1="9" x2="10.41224" y2="7.58776" fill="none" stroke="#323232" stroke-linecap="round" stroke-linejoin="round" stroke-width="1.5"/><line x1="12" y1="12" x2="13.41223" y2="10.58777" fill="none" stroke="#323232" stroke-linecap="round" stroke-linejoin="round" stroke-width="1.5"/><line x1="6" y1="6.02639" x2="7.42544" y2="4.60096" fill="none" stroke="#323232" stroke-linecap="round" stroke-linejoin="round" stroke-width="1.5"/><path d="M0,24V0H24V24Z" fill="none"/></svg>