<?xml version="1.0" encoding="UTF-8"?><svg version="1.1" viewBox="0 0 24 24" xmlns="http://www.w3.org/2000/svg" xmlns:xlink="http://www.w3.org/1999/xlink"><g stroke-linecap="round" stroke-width="1.5" stroke="#323232" fill="none" stroke-linejoin="round"><path d="M3.5 19h.7l3.10392e-07 1.42176e-10c1.17456.000538038 2.32272.348465 3.3 1v0l-4.18798e-07-2.79204e-07c.977285.651535 2.12544.999462 3.3 1h2.4l3.10392e-07-1.42176e-10c1.17456-.000538038 2.32272-.348465 3.3-1v0l-4.18798e-07 2.79204e-07c.977285-.651535 2.12544-.999462 3.3-1h.7 6.94456e-10c.828427 1.34968e-07 1.5-.671573 1.5-1.5 1.42109e-14-8.15423e-08 2.13163e-14-1.63533e-07 2.13163e-14-2.45075e-07v0 6.94456e-10c0-.828427-.671573-1.5-1.5-1.5h-17 -6.55671e-08c-.828427 3.62117e-08-1.5.671573-1.5 1.5 0 0 0 0 0 0h-1.77636e-15l1.59872e-14 1.60927e-07c1.25089e-07.828427.671573 1.5 1.5 1.5Z"></path><path d="M7 5.8v2.2l1.59872e-14 2.26494e-07c1.25089e-07.828427.671573 1.5 1.5 1.5v0l6.55671e-08-1.06581e-14c.828427-1.61301e-07 1.5-.671573 1.5-1.5v-2l2.30926e-14 3.01992e-07c-1.66785e-07-1.10457.89543-2 2-2v0l-8.74228e-08 1.77636e-15c1.10457-4.82823e-08 2 .89543 2 2v2l1.77636e-14 2.26494e-07c1.25089e-07.828427.671573 1.5 1.5 1.5v0h9.93082e-09c.828427 3.62117e-08 1.5-.671573 1.5-1.5 0-2.64696e-08 3.55271e-15-4.90283e-08 3.55271e-15-7.54979e-08v-2.2"></path><path d="M13.732 5h.268l-2.62268e-07 6.21725e-15c3.31371-1.44847e-07 6 2.68629 6 6v5"></path><path d="M10.268 5h-.268l-2.62268e-07 6.21725e-15c-3.31371 1.44847e-07-6 2.68629-6 6 0 0 0 1.77636e-15 0 1.77636e-15v5"></path></g><rect width="24" height="24" fill="none"></rect></svg>