<?xml version="1.0" encoding="UTF-8"?><svg version="1.1" viewBox="0 0 24 24" xmlns="http://www.w3.org/2000/svg" xmlns:xlink="http://www.w3.org/1999/xlink"><g stroke-linecap="round" stroke-width="1.5" stroke="#323232" fill="none" stroke-linejoin="round"><path d="M13.105 18.543l2.422-.692 4.79922e-08-1.36923e-08c1.82643-.521087 2.88462-2.42412 2.36353-4.25055 -.0191475-.0671126-.0403335-.133627-.0635285-.19945l-.079-.222 .754-1.241 5.46177e-08-9.00846e-08c.886053-1.46143.564462-3.35178-.755-4.438v0 -.874l5.57139e-08-7.95435e-05c.00118123-1.7106-1.0795-3.23488-2.69408-3.79995l-1.724-.6 -6.28855e-08-2.19977e-08c-.860438-.300985-1.79756-.300985-2.658 4.39953e-08l-1.724.6 4.56141e-07-1.59649e-07c-1.61456.565096-2.69522 2.0894-2.694 3.8v.874027 0l1.92735e-08-1.58834e-08c-1.31876 1.0868-1.63945 2.97707-.752925 4.438l.754 1.241 -.079.222 -1.83506e-07 5.20755e-07c-.63124 1.79134.309209 3.75523 2.10055 4.38647 .0658233.0231951.132337.044381.19945.0635285l2.422.692 -2.06862e-07-5.89388e-08c.72164.205608 1.48636.205608 2.208 9.04212e-08Z"></path><path d="M12 21l6.37518e-07-2.18464e-06c.667-2.28567.666999-4.71433-6.21031e-07-7l-5.26265e-07-1.8034e-06c-.667-2.28567-.666999-4.71433 3.98525e-07-7"></path></g><rect width="24" height="24" fill="none"></rect></svg>