<?xml version="1.0" encoding="UTF-8"?><svg version="1.1" viewBox="0 0 24 24" xmlns="http://www.w3.org/2000/svg" xmlns:xlink="http://www.w3.org/1999/xlink"><g stroke-linecap="round" stroke-width="1.5" stroke="#323232" fill="none" stroke-linejoin="round"><path d="M13.415 10.635c.049.049.049.128 0 .177 -.049.049-.128.049-.177 0 -.049-.049-.049-.128 0-.177 .049-.049.129-.049.177 0"></path><path d="M11.962 7.84h2.837c.752 0 1.361.609 1.361 1.36v2.837c0 .361-.144.707-.399.962l-3.602 3.602c-.531.531-1.392.531-1.924 0l-2.837-2.837c-.531-.531-.531-1.392 0-1.924l3.602-3.601c.255-.255.601-.399.962-.399Z"></path><circle cx="12" cy="12" r="9"></circle></g><path fill="none" d="M0 0h24v24h-24v-24Z"></path></svg>