<?xml version="1.0" encoding="UTF-8"?><svg version="1.1" viewBox="0 0 24 24" xmlns="http://www.w3.org/2000/svg" xmlns:xlink="http://www.w3.org/1999/xlink"><!--Generated by IJSVG (https://github.com/iconjar/IJSVG)--><g stroke-linecap="round" stroke-width="1.5" stroke="#323232" fill="none" stroke-linejoin="round"><path d="M17.698,6.302l-0.633,-2.72l-2.879,0.256l-2.182,-1.838l-2.175,1.838l-2.886,-0.256l-0.641,2.72l-2.72,0.633l0.256,2.879l-1.838,2.182l1.838,2.175l-0.256,2.886l2.72,0.641l0.633,2.72l2.879,-0.256l2.182,1.838l2.175,-1.838l2.886,0.256l0.641,-2.72l2.72,-0.633l-0.256,-2.879l1.838,-2.182l-1.838,-2.175l0.256,-2.886l-2.72,-0.641Z"></path><path d="M9,15l6,-6"></path><path d="M9.249,9c-0.138,0 -0.25,0.112 -0.249,0.25c0,0.138 0.112,0.25 0.25,0.25c0.138,0 0.25,-0.112 0.25,-0.25c0,-0.138 -0.112,-0.25 -0.251,-0.25"></path><path d="M14.749,14.5c-0.138,0 -0.25,0.112 -0.249,0.25c0,0.138 0.112,0.25 0.25,0.25c0.138,0 0.25,-0.112 0.25,-0.25c0,-0.138 -0.112,-0.25 -0.251,-0.25"></path></g><path fill="none" d="M0,0h24v24h-24Z"></path></svg>