<?xml version="1.0" encoding="UTF-8"?><svg version="1.1" viewBox="0 0 24 24" xmlns="http://www.w3.org/2000/svg" xmlns:xlink="http://www.w3.org/1999/xlink"><g stroke-linecap="round" stroke-width="1.5" stroke="#323232" fill="none" stroke-linejoin="round"><path d="M15.722 7.278c.098.098.098.256 0 .354 -.098.098-.256.098-.354 0 -.098-.098-.098-.256 0-.354 .098-.097.256-.097.354 0"></path><path d="M13.512 3h4.385c1.162 0 2.103.941 2.103 2.102v4.385c0 .558-.222 1.092-.616 1.487l-8.41 8.41c-.821.821-2.152.821-2.973 0l-4.385-4.385c-.821-.821-.821-2.152 0-2.973l8.41-8.41c.394-.394.929-.616 1.486-.616Z"></path><path d="M14 21h4c1.105 0 2-.895 2-2v-4"></path></g><path fill="none" d="M0 0h24v24h-24v-24Z"></path></svg>