<?xml version="1.0" encoding="UTF-8"?><svg version="1.1" viewBox="0 0 24 24" xmlns="http://www.w3.org/2000/svg" xmlns:xlink="http://www.w3.org/1999/xlink"><g stroke-linecap="round" stroke-width="1.5" stroke="#323232" fill="none" stroke-linejoin="round"><path d="M13.415 10.635l1.10343e-09 1.10622e-09c.0487538.0488772.0486538.128023-.000223448.176777 -.0488772.0487538-.128023.0486538-.176777-.000223448 -.0486667-.0487899-.0486667-.127763 2.20687e-09-.176553l-8.82081e-09 8.84314e-09c.0487538-.0488772.127899-.0489773.176777-.000223464 7.45761e-05 7.43878e-05.000149058.00014887.000223446.000223446"></path><path d="M11.962 7.84h2.838l-5.94475e-08 8.88178e-16c.751107-3.28319e-08 1.36.608893 1.36 1.36v2.837l-1.85492e-08 1.44175e-05c-.000466401.361028-.144358.707077-.40001.961996l-3.6 3.6 7.24491e-08-7.2393e-08c-.531418.531007-1.39258.531007-1.924 1.44875e-07l-2.83599-2.83501 -1.41676e-07-1.41786e-07c-.531007-.531418-.531007-1.39258 2.83264e-07-1.924l3.6-3.6 -4.22664e-09 4.23871e-09c.254921-.255649.600972-.399537.962-.4Z"></path><rect width="18" height="18" x="3" y="3" rx="2.7614" ry="0"></rect></g><path fill="none" d="M0 0h24v24h-24Z"></path></svg>