<?xml version="1.0" encoding="UTF-8"?><svg version="1.1" viewBox="0 0 24 24" xmlns="http://www.w3.org/2000/svg" xmlns:xlink="http://www.w3.org/1999/xlink"><g stroke-linecap="round" stroke-width="1.5" stroke="#323232" fill="none" stroke-linejoin="round"><path d="M8.699 17.244l3.6-3.6"></path><path d="M12.462 17.118c.081.081.081.211 0 .291 -.081.081-.211.081-.291 0 -.081-.081-.081-.211 0-.291 .08-.08.211-.08.291 0"></path><path d="M8.828 13.48c.081.081.081.211 0 .291 -.081.081-.211.081-.291 0 -.08-.081-.081-.211 0-.291 .081-.08.211-.081.291 0"></path><path d="M16 21h-11c-1.105 0-2-.895-2-2v-7c0-1.105.895-2 2-2h11c1.105 0 2 .895 2 2v7c0 1.105-.895 2-2 2Z"></path><path d="M6 10v-4c0-1.105.895-2 2-2h11c1.105 0 2 .895 2 2v7c0 1.105-.895 2-2 2h-1"></path></g><path fill="none" d="M0 0h24v24h-24v-24Z"></path></svg>