<svg id="Layer_3" data-name="Layer 3" xmlns="http://www.w3.org/2000/svg" viewBox="0 0 24 24"><rect width="24" height="24" fill="none"/><path d="M9.99964,21H6.00034a3,3,0,0,1-2.98165-3.33128l.5494-4.94479A2.5,2.5,0,0,1,6.0528,10.5H9.94715a2.5,2.5,0,0,1,2.48471,2.22392l.54943,4.94478A3,3,0,0,1,9.99964,21Z" fill="none" stroke="#323232" stroke-linecap="round" stroke-linejoin="round" stroke-width="1.5"/><path d="M11.5,11.04115V9.5A3.5,3.5,0,0,0,8,6H8A3.5,3.5,0,0,0,4.5,9.5v1.54109" fill="none" stroke="#323232" stroke-linecap="round" stroke-linejoin="round" stroke-width="1.5"/><path d="M11.5,10.33686l.0681-.61293A2.5,2.5,0,0,1,14.0528,7.5h3.89435a2.5,2.5,0,0,1,2.48471,2.22392l.54943,4.94478A3,3,0,0,1,17.99964,18h-3.9993" fill="none" stroke="#323232" stroke-linecap="round" stroke-linejoin="round" stroke-width="1.5"/><path d="M19.5,8.04115V6.5A3.5,3.5,0,0,0,16,3h0a3.5,3.5,0,0,0-3.5,3.5V8.04111" fill="none" stroke="#323232" stroke-linecap="round" stroke-linejoin="round" stroke-width="1.5"/><path d="M14,18a2.787,2.787,0,0,1-1.01-.18" fill="none" stroke="#323232" stroke-linecap="round" stroke-linejoin="round" stroke-width="1.5"/><path d="M14,18a2.787,2.787,0,0,1-1.01-.18" fill="none" stroke="#323232" stroke-linecap="round" stroke-linejoin="round" stroke-width="1.5"/></svg>