<?xml version="1.0" encoding="UTF-8"?><svg version="1.1" viewBox="0 0 24 24" xmlns="http://www.w3.org/2000/svg" xmlns:xlink="http://www.w3.org/1999/xlink"><g stroke-linecap="round" stroke-width="1.5" stroke="#323232" fill="none" stroke-linejoin="round"><path d="M15 12v5 0c0 2.20914-1.79086 4-4 4h-3l-1.74846e-07-3.55271e-15c-2.20914-9.65645e-08-4-1.79086-4-4 0 0 0 0 0 0v-7"></path><path d="M20 12v5 0c0 2.20914-1.79086 4-4 4h-3l-1.74846e-07-3.55271e-15c-2.20914-9.65645e-08-4-1.79086-4-4 0 0 0 0 0 0v-7"></path><rect width="7" height="4" x="3" y="6" rx=".55228" ry="0"></rect><path d="M5 3h3l-4.37114e-08 8.88178e-16c.552285-2.41411e-08 1 .447715 1 1v2h-5v-2l1.15463e-14 1.50996e-07c-8.33927e-08-.552285.447715-1 1-1Z"></path><rect width="7" height="4" x="14" y="8" rx=".55228" ry="0"></rect><path d="M16 5h3l-4.37114e-08 8.88178e-16c.552285-2.41411e-08 1 .447715 1 1v2h-5v-2l1.06581e-14 1.50996e-07c-8.33927e-08-.552285.447715-1 1-1Z"></path></g><path fill="none" d="M0 0h24v24h-24Z"></path></svg>