<svg viewBox="0 0 24 24" xmlns="http://www.w3.org/2000/svg"><g stroke-linecap="round" stroke-width="1.5" stroke="#323232" fill="none" stroke-linejoin="round"><path d="M12 2v0l-.01 0c1.65-.01 3 1.34 3 3v0h-6v0l0 0c-.01-1.66 1.34-3.01 2.99-3.01Z"/><path d="M20 8v11 0c0 1.1-.9 2-2 2H6l-.01-.001c-1.11-.01-2-.9-2-2.01 0 0 0 0 0 0v-11"/><path d="M4 9l16 0"/><path d="M20 8v0 0c0-1.66-1.35-3-3-3H7l-.01 0c-1.66 0-3 1.34-3 3 0 0 0 0 0 0H3.98"/><path d="M20 9h1.5l-.01 0c.82-.01 1.5.67 1.5 1.5v0 0c0 .82-.68 1.5-1.5 1.5 -.01 0-.01 0-.01-.001h-1.5v-3Z"/><path d="M2.5 9H4v3H2.5l-.01-.001c-.83-.01-1.5-.68-1.5-1.5 0 0 0-.001 0-.001v0l0-.01c0-.83.67-1.5 1.5-1.5Z"/><path d="M12 12a3 3 0 1 0 0 6 3 3 0 1 0 0-6Z"/><path d="M12 12l0 3"/></g><path fill="none" d="M24 24H0V0h24Z"/></svg>