<svg id="Layer_3" data-name="Layer 3" xmlns="http://www.w3.org/2000/svg" viewBox="0 0 24 24"><rect width="24" height="24" fill="none"/><path d="M8,21H8a3,3,0,0,1-3-3H5a3,3,0,0,1,3-3H8a7,7,0,0,0,7-7h0a3,3,0,0,1,3-3h0a3,3,0,0,1,3,3h0A13,13,0,0,1,8,21Z" fill="none" stroke="#323232" stroke-linecap="round" stroke-linejoin="round" stroke-width="1.5"/><path d="M3.42623,16.40555l1.16359.77615a.92437.92437,0,0,1,.04289,1.5058l-1.16358.8764A.91794.91794,0,0,1,2,18.82622V17.17366A.91806.91806,0,0,1,3.42623,16.40555Z" fill="none" stroke="#323232" stroke-linecap="round" stroke-linejoin="round" stroke-width="1.5"/><path d="M19.59445,3.42623,18.8183,4.58982a.92437.92437,0,0,1-1.5058.04289l-.8764-1.16358A.91794.91794,0,0,1,17.17378,2h1.65256A.91806.91806,0,0,1,19.59445,3.42623Z" fill="none" stroke="#323232" stroke-linecap="round" stroke-linejoin="round" stroke-width="1.5"/></svg>