<?xml version="1.0" encoding="UTF-8"?><svg version="1.1" viewBox="0 0 24 24" xmlns="http://www.w3.org/2000/svg" xmlns:xlink="http://www.w3.org/1999/xlink"><g stroke-linecap="round" stroke-width="1.5" stroke="#323232" fill="none" stroke-linejoin="round"><line x1="2" x2="22" y1="21" y2="21"></line><line x1="8.5" x2="15.5" y1="16.95" y2="16.95"></line><line x1="12" x2="12" y1="16.95" y2="21"></line><path d="M3 21v-7l1.15463e-14 1.50996e-07c-8.33927e-08-.552285.447715-1 1-1h2"></path><path d="M18 13h2l-4.37114e-08 1.77636e-15c.552285-2.41411e-08 1 .447715 1 1v7"></path><path d="M6 21v-10.643l-4.01204e-08-2.04356e-05c-.000699131-.357971.190001-.689011.500018-.86799l5-2.857 -4.38286e-08 2.50356e-08c.307362-.17557.684638-.17557.992-5.00712e-08l5 2.857 6.37708e-08 3.68179e-08c.310013.178985.500706.510029.5.868v10.643"></path><path d="M12 9.508h-2.18557e-09c-.0276142 1.20706e-09-.05.0223858-.05.05 0 0 0 1.77636e-15 0 1.77636e-15l1.77636e-15 3.27242e-09c4.16963e-09.0276142.0223858.05.05.05 .0276142-4.16963e-09.05-.0223858.05-.05v0c0-.0276142-.0223858-.05-.05-.05 0 0-1.77636e-15 0-1.77636e-15 0"></path><line x1="15" x2="15" y1="16.95" y2="21"></line><line x1="9" x2="9" y1="21" y2="16.95"></line><path d="M12 6.5v-4l5.32907e-15 7.54979e-08c-4.16963e-08-.276142.223858-.5.5-.5h3l-2.18557e-08 4.44089e-16c.276142-1.20706e-08.5.223858.5.5v1.418 -4.44089e-16c0 .276142-.223858.5-.5.5h-3.5"></path><line x1="15" x2="9" y1="13" y2="13"></line></g><rect width="24" height="24" fill="none"></rect></svg>