<?xml version="1.0" encoding="UTF-8"?><svg version="1.1" viewBox="0 0 24 24" xmlns="http://www.w3.org/2000/svg" xmlns:xlink="http://www.w3.org/1999/xlink"><!--Generated by IJSVG (https://github.com/iconjar/IJSVG)--><g stroke-linecap="round" stroke-width="1.5" stroke="#323232" fill="none" stroke-linejoin="round"><path d="M6,18.934h-1c-1.105,0 -2,-0.895 -2,-2v-2.453c0,-1.153 0.935,-2.088 2.088,-2.088h0.912"></path><path d="M18,18.934h1c1.105,0 2,-0.895 2,-2v-2.5c0,-1.105 -0.895,-2 -2,-2h-1"></path><path stroke-width="1.6432" d="M14,17.894h-4c-0.552,0 -1,-0.448 -1,-1v-2c0,-0.552 0.448,-1 1,-1h4c0.552,0 1,0.448 1,1v2c0,0.553 -0.448,1 -1,1Z"></path><path d="M15,6v-1c0,-1.105 -0.895,-2 -2,-2h-2c-1.105,0 -2,0.895 -2,2v1"></path><path d="M13,10h-2"></path><path stroke-width="1.5492" d="M14,6h-4c-2.209,0 -4,1.791 -4,4v9c0,1.105 0.895,2 2,2h8c1.105,0 2,-0.895 2,-2v-9c0,-2.209 -1.791,-4 -4,-4Z"></path></g><path fill="none" d="M0,0h24v24h-24v-24Z"></path></svg>