<svg id="Layer_3" data-name="Layer 3" xmlns="http://www.w3.org/2000/svg" viewBox="0 0 24 24"><rect width="24" height="24" fill="none"/><path d="M9,10H6.66667A.66667.66667,0,0,0,6,10.66667V16H18V10.66667A.66667.66667,0,0,0,17.33333,10H15" fill="none" stroke="#323232" stroke-linecap="round" stroke-linejoin="round" stroke-width="1.5"/><path d="M9,16V9.35a1.2,1.2,0,0,1,.55393-1.01123l1.8-1.15a1.2,1.2,0,0,1,1.29214,0l1.8,1.15A1.2,1.2,0,0,1,15,9.35V16" fill="none" stroke="#323232" stroke-linecap="round" stroke-linejoin="round" stroke-width="1.5"/><rect x="3" y="3" width="18" height="18" rx="5" stroke-width="1.5" stroke="#323232" stroke-linecap="round" stroke-linejoin="round" fill="none"/><line x1="12" y1="14" x2="12" y2="16" fill="none" stroke="#323232" stroke-linecap="round" stroke-linejoin="round" stroke-width="1.5"/><path id="Shape_3077" data-name="Shape 3077" d="M11.9998,9.95a.04982.04982,0,1,0,.00076,0H11.9998" fill="none" stroke="#323232" stroke-linecap="round" stroke-linejoin="round" stroke-width="1.5"/></svg>