<svg id="Layer_3" data-name="Layer 3" xmlns="http://www.w3.org/2000/svg" viewBox="0 0 24 24"><rect width="24" height="24" fill="none"/><path d="M10.5,10.5,3.62132,17.37866a2.12132,2.12132,0,0,0,0,3h0a2.12132,2.12132,0,0,0,3,0L13.5,13.5" fill="none" stroke="#323232" stroke-linecap="round" stroke-linejoin="round" stroke-width="1.5"/><line x1="10" y1="10" x2="14" y2="14" fill="none" stroke="#323232" stroke-linecap="round" stroke-linejoin="round" stroke-width="1.5"/><path d="M6,10,3.82841,7.82842a2.82843,2.82843,0,0,1,0-4h0a2.82842,2.82842,0,0,1,4,0L12,8" fill="none" stroke="#323232" stroke-linecap="round" stroke-linejoin="round" stroke-width="1.5"/><line x1="5" y1="9" x2="9" y2="5" fill="none" stroke="#323232" stroke-linecap="round" stroke-linejoin="round" stroke-width="1.5"/><path d="M19.62918,3.03274l-2.45239.81716a1,1,0,0,0-.68386.94869V6.5071a1,1,0,0,0,1,1h1.70958a1,1,0,0,0,.9488-.68418l.81605-2.45182a.5.5,0,0,0-.12076-.51134l-.70569-.70608A.5.5,0,0,0,19.62918,3.03274Z" fill="none" stroke="#323232" stroke-linecap="round" stroke-linejoin="round" stroke-width="1.5"/><line x1="11.99988" y1="11.99988" x2="16.78569" y2="7.21406" fill="none" stroke="#323232" stroke-linecap="round" stroke-linejoin="round" stroke-width="1.5"/><path d="M16,12l3.70891,3.70891a2,2,0,0,1,.54695,1.022L20.99,20.40166a.5.5,0,0,1-.58835.58835l-3.67077-.73415a2,2,0,0,1-1.022-.54695L14,18" fill="none" stroke="#323232" stroke-linecap="round" stroke-linejoin="round" stroke-width="1.5"/></svg>