<svg xmlns="http://www.w3.org/2000/svg" viewBox="0 0 24 24"><g id="Layer_2" data-name="Layer 2"><path d="M0,0V24H24V0Z" fill="none"/><path d="M16,17.5v1A2.5,2.5,0,0,1,13.5,21h-8A2.5,2.5,0,0,1,3,18.5V8A2.5,2.5,0,0,1,5.5,5.5H8" fill="none" stroke="#323232" stroke-linecap="round" stroke-linejoin="round" stroke-width="1.5"/><path d="M18.73223,2.73223l1.53553,1.53554A2.5,2.5,0,0,1,21,6.03554V15a2.5,2.5,0,0,1-2.5,2.5h-8A2.5,2.5,0,0,1,8,15V4.5A2.5,2.5,0,0,1,10.5,2h6.46447A2.5,2.5,0,0,1,18.73223,2.73223Z" fill="none" stroke="#323232" stroke-linecap="round" stroke-linejoin="round" stroke-width="1.5"/><rect x="11.50001" y="6.5" width="5.99998" height="7.5" rx="1" stroke-width="1.5" stroke="#323232" stroke-linecap="round" stroke-linejoin="round" fill="none"/><line x1="17.49998" y1="10.5" x2="11.5" y2="10.5" fill="none" stroke="#323232" stroke-linecap="round" stroke-linejoin="round" stroke-width="1.5"/><line x1="14.5" y1="10.5" x2="14.5" y2="14" fill="none" stroke="#323232" stroke-linecap="round" stroke-linejoin="round" stroke-width="1.5"/></g></svg>