<svg id="Layer_3" data-name="Layer 3" xmlns="http://www.w3.org/2000/svg" viewBox="0 0 24 24"><path d="M24,0H0V24H24Z" fill="none"/><path d="M3,11V6A1,1,0,0,1,4,5H8A1,1,0,0,1,9,6V7.7929a.5.5,0,0,1-.14645.35356l-.7071.7071A.5.5,0,0,0,8,9.20712V11" fill="none" stroke="#323232" stroke-linecap="round" stroke-linejoin="round" stroke-width="1.5"/><line x1="6" y1="5.00001" x2="6" y2="3.00001" fill="none" stroke="#323232" stroke-linecap="round" stroke-linejoin="round" stroke-width="1.5"/><path d="M12,11V4a1,1,0,0,1,1-1h7a1,1,0,0,1,1,1V9" fill="none" stroke="#323232" stroke-linecap="round" stroke-linejoin="round" stroke-width="1.5"/><path d="M19.86456,14l2.00221-3.50391A1,1,0,0,0,20.99855,9H16.302a1,1,0,0,0-.86821.50382l-.5671.99236A1,1,0,0,1,13.99849,11H3a1,1,0,0,0-1,1v2" fill="none" stroke="#323232" stroke-linecap="round" stroke-linejoin="round" stroke-width="1.5"/><path d="M3,17.5H3a6.60506,6.60506,0,0,1,3.6,0h0a6.60506,6.60506,0,0,0,3.6,0h0a6.60506,6.60506,0,0,1,3.6,0h0a6.60506,6.60506,0,0,0,3.6,0h0a6.60506,6.60506,0,0,1,3.6,0h0" fill="none" stroke="#323232" stroke-linecap="round" stroke-linejoin="round" stroke-width="1.5"/><path d="M6.6,20.75h0a6.60506,6.60506,0,0,0,3.6,0h0a6.60506,6.60506,0,0,1,3.6,0h0a6.60506,6.60506,0,0,0,3.6,0h0" fill="none" stroke="#323232" stroke-linecap="round" stroke-linejoin="round" stroke-width="1.5"/></svg>