<?xml version="1.0" encoding="UTF-8"?><svg version="1.1" viewBox="0 0 24 24" xmlns="http://www.w3.org/2000/svg" xmlns:xlink="http://www.w3.org/1999/xlink"><g fill="none"><path d="M0 0h24v24h-24Z"></path><path stroke="#323232" stroke-linecap="round" stroke-linejoin="round" stroke-width="1.5" d="M8.464 8.464c-1.953 1.953-1.953 5.118 0 7.071 1.953 1.953 5.118 1.953 7.071 0 1.953-1.953 1.953-5.119 0-7.071 -.976-.976-2.255-1.464-3.535-1.464"></path><path stroke="#323232" stroke-linecap="round" stroke-linejoin="round" stroke-width="1.5" d="M5.636 5.636c-3.515 3.515-3.515 9.213 0 12.728 3.515 3.515 9.213 3.515 12.728 0 3.515-3.515 3.515-9.213 0-12.728 -2.627-2.627-6.474-3.289-9.717-1.989"></path><path stroke="#323232" stroke-linecap="round" stroke-linejoin="round" stroke-width="1.5" d="M5.64 5.64l6.36 6.36"></path></g></svg>