<?xml version="1.0" encoding="UTF-8"?><svg version="1.1" viewBox="0 0 24 24" xmlns="http://www.w3.org/2000/svg" xmlns:xlink="http://www.w3.org/1999/xlink"><!--Generated by IJSVG (https://github.com/iconjar/IJSVG)--><g fill="none"><path d="M0,0h24v24h-24v-24Z"></path><path stroke="#323232" stroke-linecap="round" stroke-linejoin="round" stroke-width="1.5" d="M11.467,14.467v0c-1.427,0 -2.583,-1.157 -2.583,-2.583v-0.834c0,-1.427 1.157,-2.583 2.583,-2.583v0c1.427,0 2.583,1.157 2.583,2.583v0.833c0,1.427 -1.156,2.584 -2.583,2.584Z"></path><path stroke="#323232" stroke-linecap="round" stroke-linejoin="round" stroke-width="1.5" d="M18.934,11.467c0,4.124 -3.343,7.467 -7.467,7.467c-4.124,0 -7.467,-3.343 -7.467,-7.467c0,-4.124 3.343,-7.467 7.467,-7.467c4.124,0 7.467,3.343 7.467,7.467"></path><path stroke="#323232" stroke-linecap="round" stroke-linejoin="round" stroke-width="1.5" d="M15.5,14.5l-0.7,-1.033l-0.797,-0.548"></path><path stroke="#323232" stroke-linecap="round" stroke-linejoin="round" stroke-width="1.5" d="M6.47,11.47h10"></path><path stroke="#323232" stroke-linecap="round" stroke-linejoin="round" stroke-width="1.5" d="M7.434,14.5l0.7,-1.033l0.797,-0.548"></path><path stroke="#323232" stroke-linecap="round" stroke-linejoin="round" stroke-width="1.5" d="M7.434,8.434l0.7,1.033l0.797,0.548"></path><path stroke="#323232" stroke-linecap="round" stroke-linejoin="round" stroke-width="1.5" d="M15.5,8.434l-0.7,1.033l-0.797,0.548"></path><path stroke="#323232" stroke-linecap="round" stroke-linejoin="round" stroke-width="1.5" d="M20,20l-3.25,-3.25"></path></g></svg>