<svg id="Layer_3" data-name="Layer 3" xmlns="http://www.w3.org/2000/svg" viewBox="0 0 24 24"><path id="a" d="M0,0H24V24H0Z" fill="none"/><path d="M16.96,16.96l-2.29-2.29Z" fill="none" stroke="#323232" stroke-linecap="round" stroke-linejoin="round" stroke-width="1.5"/><path d="M15.96351,11.5v-.01A4.48954,4.48954,0,1,1,11.479,6.98552v-.001h0A4.4885,4.4885,0,0,1,15.98348,11.469h.001" fill="none" stroke="#323232" stroke-linecap="round" stroke-linejoin="round" stroke-width="1.5"/><path d="M15.96351,11.5v-.01A4.48954,4.48954,0,1,1,11.479,6.98552v-.001h0A4.4885,4.4885,0,0,1,15.98348,11.469h.001" fill="none" stroke="#323232" stroke-linecap="round" stroke-linejoin="round" stroke-width="1.5"/><rect x="3" y="3" width="18" height="18" rx="5" stroke-width="1.5" stroke="#323232" stroke-linecap="round" stroke-linejoin="round" fill="none"/><path d="M11.482,9.4845a2.00437,2.00437,0,0,1,2.002,1.99756" fill="none" stroke="#323232" stroke-linecap="round" stroke-linejoin="round" stroke-width="1.5"/><path id="a-2" data-name="a" d="M0,0H24V24H0Z" fill="none"/></svg>