<?xml version="1.0" encoding="UTF-8"?><svg version="1.1" viewBox="0 0 24 24" xmlns="http://www.w3.org/2000/svg" xmlns:xlink="http://www.w3.org/1999/xlink"><g fill="none"><path d="M24 24h-24v-24h24v24Z"></path><path stroke="#323232" stroke-linecap="round" stroke-linejoin="round" stroke-width="1.5" d="M19.9497 4.05025c2.73367 2.73367 2.73367 7.16582 0 9.89949 -2.73367 2.73367-7.16582 2.73367-9.89949 1.77636e-15 -2.73367-2.73367-2.73367-7.16582-1.77636e-15-9.89949 2.73367-2.73367 7.16582-2.73367 9.89949-1.77636e-15"></path><path stroke="#323232" stroke-linecap="round" stroke-linejoin="round" stroke-width="1.5" d="M15 16.583v3.136c0 1.26-1.021 2.281-2.281 2.281h-8.438c-1.26 0-2.281-1.021-2.281-2.281v-8.439c0-1.259 1.021-2.28 2.281-2.28h3.136"></path><path stroke="#323232" stroke-linecap="round" stroke-linejoin="round" stroke-width="1.5" d="M11.421 7h3.839c.961 0 1.74.779 1.74 1.739v3.839"></path></g></svg>