<svg id="Layer_3" data-name="Layer 3" xmlns="http://www.w3.org/2000/svg" viewBox="0 0 24 24"><path d="M15.87277,20.11542a8.86462,8.86462,0,0,0,4.24264-4.24264" fill="none" stroke="#323232" stroke-linecap="round" stroke-linejoin="round" stroke-width="1.5"/><path d="M19.41409,6.90757a8.98108,8.98108,0,0,1,1.55232,5.79574" fill="none" stroke="#323232" stroke-linecap="round" stroke-linejoin="round" stroke-width="1.5"/><path d="M11.29669,3.03359A8.98161,8.98161,0,0,1,17.09247,4.586" fill="none" stroke="#323232" stroke-linecap="round" stroke-linejoin="round" stroke-width="1.5"/><path d="M8.12723,3.88459A8.8645,8.8645,0,0,0,3.88459,8.12723" fill="none" stroke="#323232" stroke-linecap="round" stroke-linejoin="round" stroke-width="1.5"/><path d="M6.90757,19.41409a8.981,8.981,0,0,0,5.79574,1.55232" fill="none" stroke="#323232" stroke-linecap="round" stroke-linejoin="round" stroke-width="1.5"/><path d="M3.03359,11.29669A8.98161,8.98161,0,0,0,4.586,17.09247" fill="none" stroke="#323232" stroke-linecap="round" stroke-linejoin="round" stroke-width="1.5"/><path d="M15.35,15.35l-1.45195-1.45195" fill="none" stroke="#323232" stroke-linecap="round" stroke-linejoin="round" stroke-width="1.5"/><path d="M8.35,11.6A3.25,3.25,0,1,0,11.6,8.35h0A3.25024,3.25024,0,0,0,8.35,11.6" fill="none" stroke="#323232" stroke-linecap="round" stroke-linejoin="round" stroke-width="1.5"/><path d="M24,0V24H0V0Z" fill="none"/></svg>