<?xml version="1.0" encoding="UTF-8"?><svg version="1.1" viewBox="0 0 24 24" xmlns="http://www.w3.org/2000/svg" xmlns:xlink="http://www.w3.org/1999/xlink"><g fill="none"><path d="M0 0h24v24h-24v-24Z"></path><path stroke="#323232" stroke-linecap="round" stroke-linejoin="round" stroke-width="1.5" d="M14 8.974c1.388 1.388 1.388 3.638 0 5.026 -1.388 1.388-3.638 1.388-5.026 0 -1.388-1.388-1.388-3.638 0-5.026 1.388-1.388 3.638-1.388 5.026 0"></path><path stroke="#323232" stroke-linecap="round" stroke-linejoin="round" stroke-width="1.5" d="M16 16l-2-2 2 2Z"></path><path stroke="#323232" stroke-linecap="round" stroke-linejoin="round" stroke-width="1.5" d="M16 21h-8c-2.761 0-5-2.239-5-5v-8c0-2.761 2.239-5 5-5h8c2.761 0 5 2.239 5 5v8c0 2.761-2.239 5-5 5Z"></path></g></svg>