<?xml version="1.0" encoding="UTF-8"?><svg version="1.1" viewBox="0 0 24 24" xmlns="http://www.w3.org/2000/svg" xmlns:xlink="http://www.w3.org/1999/xlink"><g fill="none"><path d="M0 0h24v24h-24Z"></path><path stroke="#323232" stroke-linecap="round" stroke-linejoin="round" stroke-width="1.5" d="M16.281 16.281l-2.044-2.044"></path><rect width="18" height="18" x="3" y="3" rx="4.97052" ry="0" stroke="#323232" stroke-linecap="round" stroke-linejoin="round" stroke-width="1.5"></rect><line x1="5.14" x2="17.83" y1="17.83" y2="5.13" stroke="#323232" stroke-linecap="round" stroke-linejoin="round" stroke-width="1.5"></line><path stroke="#323232" stroke-linecap="round" stroke-linejoin="round" stroke-width="1.5" d="M8.726 14.24l-2.23885e-07-2.36022e-07c1.48233 1.56269 3.95082 1.62784 5.51351.145506 1.56269-1.48233 1.62784-3.95082.145506-5.51351 -.0473758-.0499441-.0960656-.0986252-.146018-.145992"></path><path stroke="#323232" stroke-linecap="round" stroke-linejoin="round" stroke-width="1.5" d="M7.591 11.409l2.14057e-08-1.41738e-06c.0152183-1.00767.421907-1.96988 1.134-2.683v0l-2.29287e-07 2.2908e-07c.712775-.712132 1.67456-1.11915 2.682-1.135"></path></g></svg>