<?xml version="1.0" encoding="UTF-8"?><svg version="1.1" viewBox="0 0 24 24" xmlns="http://www.w3.org/2000/svg" xmlns:xlink="http://www.w3.org/1999/xlink"><g fill="none"><path d="M0 0h24v24h-24Z"></path><path stroke="#323232" stroke-linecap="round" stroke-linejoin="round" stroke-width="1.5" d="M9.64757 8.69557l-2-2"></path><path stroke="#323232" stroke-linecap="round" stroke-linejoin="round" stroke-width="1.5" d="M9.64757 6.69557l-2 2"></path><line x1="16" x2="12.2" y1="15.93" y2="12.1" stroke="#323232" stroke-linecap="round" stroke-linejoin="round" stroke-width="1.5"></line><circle cx="8.64757" cy="7.69557" r="5.64757" stroke="#323232" stroke-linecap="round" stroke-linejoin="round" stroke-width="1.5"></circle><path stroke="#323232" stroke-linecap="round" stroke-linejoin="round" stroke-width="1.5" d="M12.9147 4h4.08531l-1.74846e-07 3.55271e-15c2.20914-9.65645e-08 4 1.79086 4 4v9 0c0 2.20914-1.79086 4-4 4h-9l-1.74846e-07-3.55271e-15c-2.20914-9.65645e-08-4-1.79086-4-4 0 0 0 0 0 0v-6.0965"></path></g></svg>