<?xml version="1.0" encoding="UTF-8"?><svg version="1.1" viewBox="0 0 24 24" xmlns="http://www.w3.org/2000/svg" xmlns:xlink="http://www.w3.org/1999/xlink"><g fill="none"><path d="M0 0h24v24h-24Z"></path><path stroke="#323232" stroke-linecap="round" stroke-linejoin="round" stroke-width="1.5" d="M5.16 6.16l-5.72227e-07 6.68602e-07c.461801-.539577.986151-1.0223 1.562-1.438"></path><path stroke="#323232" stroke-linecap="round" stroke-linejoin="round" stroke-width="1.5" d="M14 8.98l7.52247e-08 7.52213e-08c1.38796 1.38789 1.38801 3.63816.000114849 5.02611 -1.38789 1.38796-3.63816 1.38801-5.02611.000114849 -1.38796-1.38789-1.38801-3.63816-.000114849-5.02611 3.83322e-05-3.8334e-05 7.66654e-05-7.66671e-05.000114999-.000114999l-7.05663e-08 7.05631e-08c1.38791-1.38785 3.63809-1.38785 5.026-6.59118e-08"></path><path stroke="#323232" stroke-linecap="round" stroke-linejoin="round" stroke-width="1.5" d="M16 16.006l-2-2Z"></path><path stroke="#323232" stroke-linecap="round" stroke-linejoin="round" stroke-width="1.5" d="M17 19.482l-2.62327e-08 1.75453e-08c-2.24231 1.49972-5.03937 1.91378-7.62 1.128"></path><path stroke="#323232" stroke-linecap="round" stroke-linejoin="round" stroke-width="1.5" d="M3.523 9l-4.88061e-07 1.36478e-06c-.344313.962812-.521203 1.97748-.523 3"></path><path stroke="#323232" stroke-linecap="round" stroke-linejoin="round" stroke-width="1.5" d="M9.38 3.39l2.53531e-08-7.78792e-09c4.74194-1.45662 9.76687 1.20665 11.2235 5.94859 .797108 2.59493.377878 5.41116-1.1405 7.66141"></path><path stroke="#323232" stroke-linecap="round" stroke-linejoin="round" stroke-width="1.5" d="M6.722 19.279l5.15594e-07 3.74881e-07c-1.47305-1.07104-2.58755-2.56273-3.197-4.279"></path></g></svg>