<svg viewBox="0 0 24 24" xmlns="http://www.w3.org/2000/svg"><g fill="none"><path d="M0 0h24v24H0Z"/><g stroke-linecap="round" stroke-width="1.5" stroke="#323232" fill="none" stroke-linejoin="round"><path d="M20 4l-3 3"/><path d="M16 3l-1 1"/><path d="M21 8l-1 1"/><path d="M21 13v3 0c0 2.76-2.24 5-5 5H8l-.01-.001c-2.77-.01-5-2.24-5-5.01 0 0 0-.001 0-.001v-8l0 0c-.01-2.77 2.23-5.01 4.99-5.01h3"/><path d="M11.75 8l-.01 0c2.07-.01 3.75 1.67 3.75 3.74 0 2.07-1.68 3.75-3.75 3.75 -2.08 0-3.75-1.68-3.76-3.75l0 0c-.01-2.08 1.67-3.76 3.74-3.76 0-.001 0-.001 0-.001"/><path d="M15.37 15.37l-.98-.98 1.59 1.59 -.625-.625"/></g></g></svg>