<?xml version="1.0" encoding="UTF-8"?><svg version="1.1" viewBox="0 0 24 24" xmlns="http://www.w3.org/2000/svg" xmlns:xlink="http://www.w3.org/1999/xlink"><g stroke-linecap="round" stroke-width="1.5" stroke="#323232" fill="none" stroke-linejoin="round"><path d="M12 3c4.971 0 9 4.029 9 9"></path><path d="M9 3.528c-3.493 1.236-6 4.556-6 8.472 0 4.971 4.029 9 9 9 3.916 0 7.235-2.507 8.471-6"></path><path d="M12 6c3.314 0 6 2.686 6 6"></path><path d="M12 9c1.657 0 3 1.343 3 3"></path><path d="M12 11.95c-.028 0-.05.023-.05.05 0 .028.023.05.05.05 .028 0 .05-.023.05-.05 0-.028-.022-.05-.05-.05"></path></g><rect width="24" height="24" fill="none"></rect></svg>