<?xml version="1.0" encoding="UTF-8"?><svg version="1.1" viewBox="0 0 24 24" xmlns="http://www.w3.org/2000/svg" xmlns:xlink="http://www.w3.org/1999/xlink"><g stroke-linecap="round" stroke-width="1.5" stroke="#323232" fill="none" stroke-linejoin="round"><path d="M20 20l-3.76-3.76"></path><path d="M17.471 6.69l-6.3 6.276 -2.561-2.566"></path><path d="M18.309 10.57c.018.2.036.4.036.6l1.99779e-07.00052333c.00136779 3.96154-3.20898 7.17411-7.17052 7.17548 -3.96154.00136779-7.17411-3.20898-7.17548-7.17052 -.00136779-3.96154 3.20898-7.17411 7.17052-7.17548 .0013331-4.60276e-07.0026662-5.48917e-07.0039993-2.65923e-07l3.59154e-07 8.76092e-10c1.18498.00289057 2.35039.302322 3.39.871"></path></g><path fill="none" d="M0 0h24v24h-24Z"></path></svg>