<?xml version="1.0" encoding="UTF-8"?><svg version="1.1" viewBox="0 0 24 24" xmlns="http://www.w3.org/2000/svg" xmlns:xlink="http://www.w3.org/1999/xlink"><g stroke-linecap="round" stroke-width="1.5" stroke="#323232" fill="none" stroke-linejoin="round"><path d="M13.4142 10.5858c.781049.781049.781049 2.04738 0 2.82843 -.781049.781049-2.04738.781049-2.82843 0 -.781049-.781049-.781049-2.04738 0-2.82843 .781049-.781049 2.04738-.781049 2.82843 0"></path><path d="M18.364 5.636c-3.515-3.515-9.213-3.515-12.728 0 -3.515 3.515-3.515 9.213 0 12.728 3.515 3.515 9.213 3.515 12.728 0 1.757-1.757 2.616-4.061 2.614-6.364"></path><path d="M18.36 5.64l-4.95 4.95"></path><path d="M15.889 8.111c-.995-.995-2.37-1.611-3.889-1.611 -3.038 0-5.5 2.462-5.5 5.5 0 3.038 2.462 5.5 5.5 5.5 3.038 0 5.5-2.462 5.5-5.5"></path></g><path fill="none" d="M0 0h24v24h-24v-24Z"></path></svg>