<?xml version="1.0" encoding="UTF-8"?><svg version="1.1" viewBox="0 0 24 24" xmlns="http://www.w3.org/2000/svg" xmlns:xlink="http://www.w3.org/1999/xlink"><g fill="none"><rect width="24" height="24"></rect><path stroke="#323232" stroke-linecap="round" stroke-linejoin="round" stroke-width="1.5" d="M13.883 6.294l-2.353 2.353 -1.413-1.411"></path><path stroke="#323232" stroke-linecap="round" stroke-linejoin="round" stroke-width="1.5" d="M16.235 7.235c0 2.339-1.896 4.236-4.235 4.236 -2.34 0-4.236-1.897-4.236-4.236 0-2.339 1.897-4.235 4.236-4.235 2.339 0 4.235 1.896 4.235 4.235v0 0Z"></path><path stroke="#323232" stroke-linecap="round" stroke-linejoin="round" stroke-width="1.5" d="M18.678 15.588l-2.353 2.353"></path><path stroke="#323232" stroke-linecap="round" stroke-linejoin="round" stroke-width="1.5" d="M16.325 15.588l2.353 2.353"></path><path stroke="#323232" stroke-linecap="round" stroke-linejoin="round" stroke-width="1.5" d="M17.502 12.529c-2.34 0-4.236 1.896-4.236 4.235 0 2.339 1.896 4.236 4.236 4.236 2.339 0 4.235-1.897 4.235-4.236 0-2.339-1.896-4.235-4.235-4.235Z"></path><path stroke="#323232" stroke-linecap="round" stroke-linejoin="round" stroke-width="1.5" d="M6.498 12.53c-2.339 0-4.235 1.896-4.235 4.235 4.44089e-16 2.338 1.896 4.235 4.235 4.235 2.339 0 4.235-1.896 4.235-4.235 .001-2.34-1.895-4.235-4.235-4.235v0Z"></path><path stroke="#323232" stroke-linecap="round" stroke-linejoin="round" stroke-width="1.5" d="M6.496 16.264c-.276.002-.498.226-.498.502 0 .276.224.5.5.498 .276 0 .5-.224.5-.5 0-.276-.224-.5-.502-.5"></path></g></svg>