<?xml version="1.0" encoding="UTF-8"?><svg version="1.1" viewBox="0 0 24 24" xmlns="http://www.w3.org/2000/svg" xmlns:xlink="http://www.w3.org/1999/xlink"><g fill="none"><path d="M0 0h24v24h-24Z"></path><path stroke="#323232" stroke-linecap="round" stroke-linejoin="round" stroke-width="1.5" d="M12.919 12.749l3.84222e-10 3.81855e-10c.047791.0474965.0480297.124742.00053323.172533 -.0474965.047791-.124742.0480297-.172533.00053323 -.047791-.0474965-.0480297-.124742-.00053323-.172533 .000177194-.000178292.000354938-.000356037.000533231-.000533231l-3.37927e-09 3.30481e-09c.0478033-.04675.124197-.04675.172-6.60963e-09v0"></path><path stroke="#323232" stroke-linecap="round" stroke-linejoin="round" stroke-width="1.5" d="M21 13.74l6.45196e-07 9.89174e-08c-3.47688-.533053-6.72757 1.85339-7.26062 5.33026 -.0513736.335088-.0759116.673742-.0733803 1.01274l-2.41315e-07-3.50189e-05c.00211513.307068.0268468.613562.0739941.916996"></path><rect width="12" height="12" x="9" y="9" rx="1.98821" ry="0" stroke="#323232" stroke-linecap="round" stroke-linejoin="round" stroke-width="1.5"></rect><line x1="3" x2="3" y1="6" y2="15" stroke="#323232" stroke-linecap="round" stroke-linejoin="round" stroke-width="1.5"></line><line x1="18" x2="18" y1="6" y2="9.05" stroke="#323232" stroke-linecap="round" stroke-linejoin="round" stroke-width="1.5"></line><line x1="6" x2="9" y1="18" y2="18" stroke="#323232" stroke-linecap="round" stroke-linejoin="round" stroke-width="1.5"></line><line x1="6" x2="15" y1="3" y2="3" stroke="#323232" stroke-linecap="round" stroke-linejoin="round" stroke-width="1.5"></line></g></svg>