<?xml version="1.0" encoding="UTF-8"?><svg version="1.1" viewBox="0 0 24 24" xmlns="http://www.w3.org/2000/svg" xmlns:xlink="http://www.w3.org/1999/xlink"><g stroke-linecap="round" stroke-width="1.5" stroke="#323232" fill="none" stroke-linejoin="round"><path d="M7.5 3h-2.25c-1.243 0-2.25 1.007-2.25 2.25v2.25"></path><path d="M3 16.5v2.25c0 1.243 1.007 2.25 2.25 2.25h2.25"></path><path d="M21 7.5v-2.25c0-1.243-1.007-2.25-2.25-2.25h-2.25"></path><line x1="15.5" x2="18.5" y1="14.5" y2="17.5"></line><line x1="15.5" x2="18.5" y1="17.5" y2="14.5"></line><path d="M12 16c0-2.761 2.239-5 5-5 2.761 0 5 2.239 5 5 0 2.761-2.239 5-5 5 -2.761 0-5-2.239-5-5"></path></g><path fill="none" d="M0 0h24v24h-24v-24Z"></path></svg>