<?xml version="1.0" encoding="UTF-8"?><svg version="1.1" viewBox="0 0 24 24" xmlns="http://www.w3.org/2000/svg" xmlns:xlink="http://www.w3.org/1999/xlink"><g stroke-linecap="round" stroke-width="1.5" stroke="#323232" fill="none" stroke-linejoin="round"><path d="M5 3c-1.105 0-2 .895-2 2"></path><path d="M3 19c0 1.105.895 2 2 2"></path><path d="M3 13.67v2"></path><path d="M3 8.33v2"></path><path d="M8.33 21h2"></path><path d="M8.33 3h2"></path><path d="M19 21c1.105 0 2-.895 2-2"></path><path d="M21 5c0-1.105-.895-2-2-2"></path><path d="M21 10.33v-2"></path><path d="M21 15.67v-2"></path><path d="M15.67 3h-2"></path><path d="M15.67 21h-2"></path></g><path fill="none" d="M0 0h24v24h-24v-24Z"></path></svg>