<?xml version="1.0" encoding="UTF-8"?><svg version="1.1" viewBox="0 0 24 24" xmlns="http://www.w3.org/2000/svg" xmlns:xlink="http://www.w3.org/1999/xlink"><!--Generated by IJSVG (https://github.com/iconjar/IJSVG)--><g fill="none"><path d="M0,0h24v24h-24v-24Z"></path><path stroke="#323232" stroke-linecap="round" stroke-linejoin="round" stroke-width="1.5" d="M7.5,3h-2.25c-1.243,0 -2.25,1.007 -2.25,2.25v2.25"></path><path stroke="#323232" stroke-linecap="round" stroke-linejoin="round" stroke-width="1.5" d="M3,16.5v2.25c0,1.243 1.007,2.25 2.25,2.25h2.25"></path><path stroke="#323232" stroke-linecap="round" stroke-linejoin="round" stroke-width="1.5" d="M16.5,21h2.25c1.243,0 2.25,-1.007 2.25,-2.25v-2.25"></path><path stroke="#323232" stroke-linecap="round" stroke-linejoin="round" stroke-width="1.5" d="M21,7.5v-2.25c0,-1.243 -1.007,-2.25 -2.25,-2.25h-2.25"></path><path stroke="#323232" stroke-width="1.5" d="M11.999,15.502c-1.934,0 -3.501,-1.568 -3.501,-3.502c0,-1.894 1.611,-3.503 3.504,-3.502c1.933,0.003 3.499,1.57 3.499,3.502c0.001,1.934 -1.566,3.502 -3.502,3.502"></path><path stroke="#323232" stroke-linecap="round" stroke-linejoin="round" stroke-width="1.5" d="M14.477,9.526l-4.952,4.951"></path></g></svg>