<?xml version="1.0" encoding="UTF-8"?><svg version="1.1" viewBox="0 0 24 24" xmlns="http://www.w3.org/2000/svg" xmlns:xlink="http://www.w3.org/1999/xlink"><g stroke-linecap="round" stroke-width="1.5" stroke="#323232" fill="none" stroke-linejoin="round"><path d="M12.8929 15h-1.78572l-8.74228e-08-1.77636e-15c-1.10457-4.82823e-08-2-.895431-2-2 0 0 0 0 0 0v-2l2.30926e-14 3.01992e-07c-1.66785e-07-1.10457.89543-2 2-2h1.78572l-8.74228e-08 1.77636e-15c1.10457-4.82823e-08 2 .89543 2 2v2 8.74228e-08c0 1.10457-.89543 2-2 2Z"></path><path d="M6.92308 9h-.92308"></path><path d="M9 6v.92308"></path><path d="M15 6.92308v-.92308"></path><path d="M18 9h-.92308"></path><path d="M17.0769 15h.92308"></path><path d="M15 18v-.92308"></path><path d="M9 17.0769v.92308"></path><path d="M6 15h.92308"></path><rect width="18" height="18" x="3" y="3" rx="2.7614" ry="0"></rect></g><path fill="none" d="M0 0h24v24h-24Z"></path></svg>