<?xml version="1.0" encoding="UTF-8"?><svg version="1.1" viewBox="0 0 24 24" xmlns="http://www.w3.org/2000/svg" xmlns:xlink="http://www.w3.org/1999/xlink"><defs><path d="M7 21v0l-1.74846e-07-3.55271e-15c-2.20914-9.65645e-08-4-1.79086-4-4 0 0 0 0 0 0h-3.9968e-15" id="a"></path></defs><g stroke-linecap="round" stroke-width="1.5" stroke="#323232" fill="none" stroke-linejoin="round"><line x1="10" x2="14" y1="21" y2="21"></line><line x1="10" x2="14" y1="3" y2="3"></line><line x1="3" x2="3" y1="10" y2="14"></line><line x1="21" x2="21" y1="10" y2="14"></line><path d="M12 14v-4"></path><path d="M14 12h-4"></path><use xlink:href="#a"></use><use xlink:href="#a"></use><path d="M17 3v0l-1.74846e-07 3.9968e-15c2.20914-9.65645e-08 4 1.79086 4 4v0"></path><path d="M3 7v0l4.57412e-14 6.03983e-07c-3.33571e-07-2.20914 1.79086-4 4-4h6.03983e-07"></path><path d="M21 17v0 0c0 2.20914-1.79086 4-4 4v0"></path></g><path fill="none" d="M0 0h24v24h-24Z"></path></svg>