<?xml version="1.0" encoding="UTF-8"?><svg version="1.1" viewBox="0 0 24 24" xmlns="http://www.w3.org/2000/svg" xmlns:xlink="http://www.w3.org/1999/xlink"><!--Generated by IJSVG (https://github.com/iconjar/IJSVG)--><g stroke-linecap="round" stroke-width="1.5" stroke="#323232" fill="none" stroke-linejoin="round"><path d="M12,16v2.5"></path><path d="M13.5,20h6.5"></path><path d="M4,20h6.5"></path><path d="M13.0607,18.9393c0.585786,0.585786 0.585786,1.53553 0,2.12132c-0.585786,0.585786 -1.53553,0.585786 -2.12132,0c-0.585786,-0.585786 -0.585786,-1.53553 0,-2.12132c0.585786,-0.585786 1.53553,-0.585786 2.12132,0"></path><path d="M12,3c3.598,0 6.5,2.902 6.5,6.5c0,3.598 -2.902,6.5 -6.5,6.5"></path><path d="M12,16c-3.598,0 -6.5,-2.902 -6.5,-6.5c0,-3.598 2.902,-6.5 6.5,-6.5"></path><path d="M10.677,3.765c-2.087,3.485 -2.087,7.985 0,11.47c0.611,1.02 2.036,1.02 2.647,0c2.087,-3.485 2.087,-7.985 0,-11.47c-0.612,-1.02 -2.036,-1.02 -2.647,-4.44089e-16Z"></path><path d="M5.5,9.5h13"></path></g><path fill="none" d="M0,0h24v24h-24v-24Z"></path></svg>