<svg id="Layer_3" data-name="Layer 3" xmlns="http://www.w3.org/2000/svg" viewBox="0 0 24 24"><path d="M17,9V4.5C17,3.119,13.866,2,10,2S3,3.119,3,4.5v12C3,17.881,6.134,19,10,19" fill="none" stroke="#323232" stroke-linecap="round" stroke-linejoin="round" stroke-width="1.5"/><path d="M10,14c-3.866,0-7-1.119-7-2.5" fill="none" stroke="#323232" stroke-linecap="round" stroke-linejoin="round" stroke-width="1.5"/><path d="M17,6.5C17,7.881,13.866,9,10,9S3,7.881,3,6.5" fill="none" stroke="#323232" stroke-linecap="round" stroke-linejoin="round" stroke-width="1.5"/><path d="M17.34619,18.83528a3.39526,3.39526,0,0,0,1.08284.19051,3.51309,3.51309,0,1,0-3.26628-2.376h0" fill="none" stroke="#323232" stroke-linecap="round" stroke-linejoin="round" stroke-width="1.5"/><path d="M15.16277,16.64985l-1.90441,1.90836A.88411.88411,0,0,0,13,19.18274v.99908A.81818.81818,0,0,0,13.81821,21h1.003a.87939.87939,0,0,0,.62244-.2582l1.90254-1.90652" fill="none" stroke="#323232" stroke-linecap="round" stroke-linejoin="round" stroke-width="1.5"/><path d="M18.5,15.39777a.10227.10227,0,1,0,.10227.10227A.10227.10227,0,0,0,18.5,15.39777h0" fill="none" stroke="#323232" stroke-linecap="round" stroke-linejoin="round" stroke-width="1.5"/><path d="M0,0H24V24H0Z" fill="none"/></svg>