<?xml version="1.0" encoding="UTF-8"?><svg version="1.1" viewBox="0 0 24 24" xmlns="http://www.w3.org/2000/svg" xmlns:xlink="http://www.w3.org/1999/xlink"><g stroke-linecap="round" stroke-width="1.5" stroke="#323232" fill="none" stroke-linejoin="round"><path d="M15.5 12c0 1.105-1.567 2-3.5 2 -1.933 0-3.5-.896-3.5-2"></path><path d="M8.5 9c0 1.105 1.567 2 3.5 2 1.933 0 3.5-.895 3.5-2"></path><path d="M8.5 9v6c0 1.104 1.566 2 3.499 2 1.933 0 3.5-.895 3.5-2v-6c.001-1.105-1.567-2-3.499-2 -1.932 0-3.499.896-3.5 2Z"></path><circle cx="12" cy="12" r="9"></circle></g><rect width="24" height="24" fill="none"></rect></svg>