<?xml version="1.0" encoding="UTF-8"?><svg version="1.1" viewBox="0 0 24 24" xmlns="http://www.w3.org/2000/svg" xmlns:xlink="http://www.w3.org/1999/xlink"><!--Generated by IJSVG (https://github.com/iconjar/IJSVG)--><g stroke-linecap="round" stroke-width="1.5" stroke="#323232" fill="none" stroke-linejoin="round"><path d="M19,21v0c-1.105,0 -2,-0.895 -2,-2v0c0,-1.105 0.895,-2 2,-2v0c1.105,0 2,0.895 2,2v0c0,1.105 -0.895,2 -2,2Z"></path><path d="M12,11v6"></path><path d="M12,21v0c-1.105,0 -2,-0.895 -2,-2v0c0,-1.105 0.895,-2 2,-2v0c1.105,0 2,0.895 2,2v0c0,1.105 -0.895,2 -2,2Z"></path><path d="M5,21v0c-1.105,0 -2,-0.895 -2,-2v0c0,-1.105 0.895,-2 2,-2v0c1.105,0 2,0.895 2,2v0c0,1.105 -0.895,2 -2,2Z"></path><path d="M5,17v-2c0,-0.552 0.448,-1 1,-1h12c0.552,0 1,0.448 1,1v2"></path><path d="M5,4.5c0,-1.381 3.134,-2.5 7,-2.5c3.866,0 7,1.119 7,2.5v4c0,1.381 -3.134,2.5 -7,2.5c-3.866,0 -7,-1.119 -7,-2.5v-4Z"></path><path d="M19,4.5c0,1.381 -3.134,2.5 -7,2.5c-3.866,0 -7,-1.119 -7,-2.5"></path></g><path fill="none" d="M0,0h24v24h-24v-24Z"></path></svg>