<svg viewBox="0 0 24 24" xmlns="http://www.w3.org/2000/svg"><g stroke-linecap="round" stroke-width="1.5" stroke="#323232" fill="none" stroke-linejoin="round"><path d="M6.49 14.49l0 1"/><path d="M9.49 14.49l0 1"/><path d="M13 7.01h5.01"/><path d="M6.5 6.51l0 1"/><path d="M9.5 6.51l0 1"/><rect width="18" height="8" x="3" y="3" rx="1.5"/><path d="M11 19H4.5h-.01c-.83-.01-1.5-.68-1.5-1.5 0 0 0 0 0 0v-5l0-.01c0-.83.67-1.5 1.5-1.5"/><path d="M17.5 21.5l-.01-.001c-2.21-.01-4-1.8-4-4.01s1.79-4 4-4c2.2 0 4 1.79 3.99 4v0c0 2.2-1.8 4-4 4"/><path d="M20.32 20.32l-2.83-2.83v-4"/></g><path fill="none" d="M0 0h24v24H0Z"/></svg>