<svg id="Layer_3" data-name="Layer 3" xmlns="http://www.w3.org/2000/svg" viewBox="0 0 24 24"><rect x="3" y="3" width="5" height="5" rx="1" stroke-width="1.5" stroke="#323232" stroke-linecap="round" stroke-linejoin="round" fill="none"/><rect x="14" y="3" width="5" height="5" rx="1" stroke-width="1.5" stroke="#323232" stroke-linecap="round" stroke-linejoin="round" fill="none"/><rect x="3" y="14" width="5" height="5" rx="1" stroke-width="1.5" stroke="#323232" stroke-linecap="round" stroke-linejoin="round" fill="none"/><line x1="5.5" y1="8" x2="5.5" y2="14" fill="none" stroke="#323232" stroke-linecap="round" stroke-linejoin="round" stroke-width="1.5"/><line x1="14" y1="5.5" x2="8" y2="5.5" fill="none" stroke="#323232" stroke-linecap="round" stroke-linejoin="round" stroke-width="1.5"/><path d="M20.70712,16.293,16.293,20.70711A1,1,0,0,1,15.58588,21H13.5a.5.5,0,0,1-.5-.5V18.41413a1,1,0,0,1,.29289-.70713L17.707,13.29291a1,1,0,0,1,1.41421,0l1.58588,1.58588A1,1,0,0,1,20.70712,16.293Z" fill="none" stroke="#323232" stroke-linecap="round" stroke-linejoin="round" stroke-width="1.5"/><rect width="24" height="24" fill="none"/></svg>