<svg id="Layer_3" data-name="Layer 3" xmlns="http://www.w3.org/2000/svg" viewBox="0 0 24 24"><rect width="24" height="24" fill="none"/><circle cx="12" cy="12" r="9.5" fill="none" stroke="#323232" stroke-linecap="round" stroke-linejoin="round" stroke-width="1.5"/><path d="M13.96485,14.46421a.05057.05057,0,0,1,.0703,0,.04965.04965,0,0,1,0,.07083.04877.04877,0,0,1-.0703,0,.04965.04965,0,0,1,0-.07083" fill="none" stroke="#323232" stroke-linecap="round" stroke-linejoin="round" stroke-width="1.5"/><path d="M13.96485,9.46421a.05057.05057,0,0,1,.0703,0,.04965.04965,0,0,1,0,.07083.04877.04877,0,0,1-.0703,0,.04965.04965,0,0,1,0-.07083" fill="none" stroke="#323232" stroke-linecap="round" stroke-linejoin="round" stroke-width="1.5"/><rect x="7" y="12" width="10" height="5" rx="2.5" stroke-width="1.5" stroke="#323232" stroke-linecap="round" stroke-linejoin="round" fill="none"/><rect x="7" y="7" width="10" height="5" rx="2.5" stroke-width="1.5" stroke="#323232" stroke-linecap="round" stroke-linejoin="round" fill="none"/></svg>