<?xml version="1.0" encoding="UTF-8"?><svg version="1.1" viewBox="0 0 24 24" xmlns="http://www.w3.org/2000/svg" xmlns:xlink="http://www.w3.org/1999/xlink"><g fill="none"><rect width="24" height="24"></rect><path stroke="#323232" stroke-linecap="round" stroke-linejoin="round" stroke-width="1.5" d="M19 7v11.9754l2.46985e-11-9.99998e-06c0 1.11814-.906428 2.02458-2.02457 2.02459h-9.95085l1.61303e-08 7.81597e-14c-1.11814-5.51389e-06-2.02457-.906438-2.02458-2.02458v-11.9754"></path><line x1="8" x2="16" y1="11" y2="11" stroke="#323232" stroke-linecap="round" stroke-linejoin="round" stroke-width="1.5"></line><path stroke="#323232" stroke-linecap="round" stroke-linejoin="round" stroke-width="1.5" d="M6.00182 8h11.9964l-1.42883e-08-8.88178e-15c.552285 3.53328e-07 1-.447715 1-.999999 1.38644e-07-.216713-.0703997-.427561-.200601-.600801l-1.95466-2.6008 1.15556e-07 1.53754e-07c-.37779-.502671-.969989-.7984-1.5988-.7984h-6.4844l6.03673e-08-8.34888e-14c-.628145 8.51145e-07-1.2198.295108-1.59766.79689l-1.95906 2.60156 -3.43878e-09 4.56656e-09c-.332227.441184-.243899 1.06816.197285 1.40039 .17337.130553.384506.201162.601535.201165Z"></path><line x1="8" x2="16" y1="14" y2="14" stroke="#323232" stroke-linecap="round" stroke-linejoin="round" stroke-width="1.5"></line><line x1="8" x2="11" y1="17.6" y2="17.6" stroke="#323232" stroke-linecap="round" stroke-linejoin="round" stroke-width="1.5"></line><path stroke="#323232" stroke-linecap="round" stroke-linejoin="round" stroke-width="1.5" d="M15.55 17.55v-3.55271e-15c0 .0276142-.0223858.05-.05.05 -.0276142 0-.05-.0223858-.05-.05 0-.0276142.0223858-.05.05-.05"></path><path stroke="#323232" stroke-linecap="round" stroke-linejoin="round" stroke-width="1.5" d="M15.5 17.5l-2.18557e-09-3.55271e-15c.0276142-1.20706e-09.05.0223858.05.05 0 0 0 0 0 0"></path></g></svg>