<svg id="Layer_3" data-name="Layer 3" xmlns="http://www.w3.org/2000/svg" viewBox="0 0 24 24"><line x1="6.4875" y1="14.4875" x2="6.4875" y2="15.4875" fill="none" stroke="#323232" stroke-linecap="round" stroke-linejoin="round" stroke-width="1.5"/><line x1="9.4875" y1="14.4875" x2="9.4875" y2="15.4875" fill="none" stroke="#323232" stroke-linecap="round" stroke-linejoin="round" stroke-width="1.5"/><path d="M13,7.0125h5.0125" fill="none" stroke="#323232" stroke-linecap="round" stroke-linejoin="round" stroke-width="1.5"/><line x1="6.5" y1="6.5125" x2="6.5" y2="7.5125" fill="none" stroke="#323232" stroke-linecap="round" stroke-linejoin="round" stroke-width="1.5"/><line x1="9.5" y1="6.5125" x2="9.5" y2="7.5125" fill="none" stroke="#323232" stroke-linecap="round" stroke-linejoin="round" stroke-width="1.5"/><rect x="3" y="3" width="18" height="8" rx="1.5" stroke-width="1.5" stroke="#323232" stroke-linecap="round" stroke-linejoin="round" fill="none"/><path d="M10,19H4.5A1.5,1.5,0,0,1,3,17.5v-5A1.5,1.5,0,0,1,4.5,11" fill="none" stroke="#323232" stroke-linecap="round" stroke-linejoin="round" stroke-width="1.5"/><path d="M16.25,17.5l1,1,1.5-1.5" fill="none" stroke="#323232" stroke-linecap="round" stroke-linejoin="round" stroke-width="1.5"/><path d="M13.5,18.44251V16.17586a1.33333,1.33333,0,0,1,.88133-1.25466l2.03334-.732a3.19989,3.19989,0,0,1,2.168,0l2.036.73333A1.33334,1.33334,0,0,1,21.5,16.17586v2.26665c0,1.69733-2.37467,2.95333-3.46667,3.44266a1.29592,1.29592,0,0,1-1.06666,0C15.87467,21.39584,13.5,20.13717,13.5,18.44251Z" fill="none" stroke="#323232" stroke-linecap="round" stroke-linejoin="round" stroke-width="1.5"/><rect width="24" height="24" fill="none"/></svg>