<?xml version="1.0" encoding="UTF-8"?><svg version="1.1" viewBox="0 0 24 24" xmlns="http://www.w3.org/2000/svg" xmlns:xlink="http://www.w3.org/1999/xlink"><g stroke-linecap="round" stroke-width="1.5" stroke="#323232" fill="none" stroke-linejoin="round"><path d="M3 15v4c0 1.105.895 2 2 2h4"></path><path d="M21 9v-4c0-1.105-.895-2-2-2h-3"></path><path d="M21 21l-1.863-1.863"></path><path d="M17 14c1.657 0 3 1.343 3 3 0 1.657-1.343 3-3 3 -1.657 0-3-1.343-3-3 0-1.657 1.343-3 3-3"></path><path d="M10.546 7.091h-5.091c-1.356 0-2.455 1.099-2.455 2.455v0c.001 1.355 1.1 2.454 2.456 2.454h5.091c1.355 0 2.454-1.099 2.454-2.455v0c-1.77636e-15-1.355-1.099-2.454-2.455-2.454Z"></path><path d="M5.508 9.51c.02.02.02.051 0 .071 -.02.02-.051.02-.071 0 -.02-.02-.02-.051 0-.071 .019-.019.051-.019.071 0"></path><path d="M12.993 9.347l-.349-4.501c-.081-1.042-.95-1.846-1.995-1.846h-5.297c-1.045 0-1.913.804-1.994 1.845l-.349 4.501"></path></g><path fill="none" d="M0 0h24v24h-24v-24Z"></path></svg>