<?xml version="1.0" encoding="UTF-8"?><svg version="1.1" viewBox="0 0 24 24" xmlns="http://www.w3.org/2000/svg" xmlns:xlink="http://www.w3.org/1999/xlink"><!--Generated by IJSVG (https://github.com/iconjar/IJSVG)--><g stroke-linecap="round" stroke-width="1.5" stroke="#323232" fill="none" stroke-linejoin="round"><path d="M16.75,5.205h-4.221c-0.331,0 -0.641,-0.164 -0.827,-0.438l-0.905,-1.33c-0.186,-0.273 -0.495,-0.437 -0.826,-0.437h-2.721c-1.105,0 -2,0.895 -2,2v8c0,1.105 0.895,2 2,2h9.5c1.105,0 2,-0.895 2,-2v-5.795c0,-1.104 -0.895,-2 -2,-2Z"></path><path d="M12,15.02v3.48"></path><path d="M13.5,20h6.5"></path><path d="M4,20h6.5"></path><path d="M13.0607,18.9393c0.585786,0.585786 0.585786,1.53553 0,2.12132c-0.585786,0.585786 -1.53553,0.585786 -2.12132,0c-0.585786,-0.585786 -0.585786,-1.53553 0,-2.12132c0.585786,-0.585786 1.53553,-0.585786 2.12132,0"></path></g><path fill="none" d="M0,0h24v24h-24v-24Z"></path></svg>