<?xml version="1.0" encoding="UTF-8"?><svg version="1.1" viewBox="0 0 24 24" xmlns="http://www.w3.org/2000/svg" xmlns:xlink="http://www.w3.org/1999/xlink"><g stroke-linecap="round" stroke-width="1.5" stroke="#323232" fill="none" stroke-linejoin="round"><path d="M19 21h-6c-1.105 0-2-.895-2-2v-14c0-1.105.895-2 2-2h6c1.105 0 2 .895 2 2v14c0 1.105-.895 2-2 2Z"></path><path d="M7 15c0-1.105-.895-2-2-2 -1.105 0-2 .895-2 2 0 1.105.895 2 2 2v0c1.105 0 2-.895 2-2Z"></path><path d="M5 4v9"></path><path d="M5 17v3"></path><path d="M14 6h4"></path><path d="M14 14h4"></path><path d="M15.998 9.5c-.276.002-.498.226-.498.502 0 .276.224.5.5.498 .276 0 .5-.224.5-.5 0-.276-.224-.5-.502-.5"></path><path d="M14 18h4"></path></g><path fill="none" d="M0 0h24v24h-24v-24Z"></path></svg>