<svg id="Layer_3" data-name="Layer 3" xmlns="http://www.w3.org/2000/svg" viewBox="0 0 24 24"><path d="M0,0H24V24H0Z" fill="none"/><path d="M3,18.545H3A2.45448,2.45448,0,0,0,5.45375,21h5.0905A2.456,2.456,0,0,0,13,18.546h0a2.4547,2.4547,0,0,0-2.45475-2.455H5.45475A2.45448,2.45448,0,0,0,3,18.545Z" fill="none" stroke="#323232" stroke-linecap="round" stroke-linejoin="round" stroke-width="1.5"/><path d="M12.991,18.346l-.349-4.501A1.99979,1.99979,0,0,0,10.64824,12H5.35177A2.00083,2.00083,0,0,0,3.357,13.846l-.349,4.501" fill="none" stroke="#323232" stroke-linecap="round" stroke-linejoin="round" stroke-width="1.5"/><path d="M10.41451,18.46421a.05143.05143,0,0,1,.071,0,.05014.05014,0,1,1-.071,0" fill="none" stroke="#323232" stroke-linecap="round" stroke-linejoin="round" stroke-width="1.5"/><path d="M11,3H6A3,3,0,0,0,3,6V9" fill="none" stroke="#323232" stroke-linecap="round" stroke-linejoin="round" stroke-width="1.5"/><path d="M16,21h2a3,3,0,0,0,3-3V13" fill="none" stroke="#323232" stroke-linecap="round" stroke-linejoin="round" stroke-width="1.5"/><circle cx="17" cy="7" r="4" fill="none" stroke="#323232" stroke-linecap="round" stroke-linejoin="round" stroke-width="1.5"/><path d="M18.33332,6.33337,16.66753,8,15.66665,7" fill="none" stroke="#323232" stroke-linecap="round" stroke-linejoin="round" stroke-width="1.5"/></svg>