<?xml version="1.0" encoding="UTF-8"?><svg version="1.1" viewBox="0 0 24 24" xmlns="http://www.w3.org/2000/svg" xmlns:xlink="http://www.w3.org/1999/xlink"><!--Generated by IJSVG (https://github.com/iconjar/IJSVG)--><g fill="none"><path d="M0,0h24v24h-24Z"></path><path stroke="#323232" stroke-linecap="round" stroke-linejoin="round" stroke-width="1.5" d="M17,9.5v-4c0,-1.381 -3.134,-2.5 -7,-2.5c-3.866,0 -7,1.119 -7,2.5v8c0,1.381 3.134,2.5 7,2.5c0.699,0 1.373,-0.038 2.011,-0.106"></path><path stroke="#323232" stroke-linecap="round" stroke-linejoin="round" stroke-width="1.5" d="M20.5355,12.4645c1.95262,1.95262 1.95262,5.11845 0,7.07107c-1.95262,1.95262 -5.11845,1.95262 -7.07107,0c-1.95262,-1.95262 -1.95262,-5.11845 0,-7.07107c1.95262,-1.95262 5.11845,-1.95262 7.07107,0"></path><path stroke="#323232" stroke-linecap="round" stroke-linejoin="round" stroke-width="1.5" d="M19.222,14.889l-2.778,2.778l-1.666,-1.667"></path><path stroke="#323232" stroke-linecap="round" stroke-linejoin="round" stroke-width="1.5" d="M17,5.5c0,1.381 -3.134,2.5 -7,2.5c-3.866,0 -7,-1.119 -7,-2.5"></path><path stroke="#323232" stroke-linecap="round" stroke-linejoin="round" stroke-width="1.5" d="M17,9.5c0,1.381 -3.134,2.5 -7,2.5c-3.866,0 -7,-1.119 -7,-2.5"></path></g></svg>