<?xml version="1.0" encoding="UTF-8"?><svg version="1.1" viewBox="0 0 24 24" xmlns="http://www.w3.org/2000/svg" xmlns:xlink="http://www.w3.org/1999/xlink"><!--Generated by IJSVG (https://github.com/iconjar/IJSVG)--><g stroke-linecap="round" stroke-width="1.5" stroke="#323232" fill="none" stroke-linejoin="round"><path d="M17,14v4"></path><path d="M19,16l-2,2l-2,-2"></path><path d="M20.5355,12.4645c1.95262,1.95262 1.95262,5.11845 0,7.07107c-1.95262,1.95262 -5.11845,1.95262 -7.07107,0c-1.95262,-1.95262 -1.95262,-5.11845 0,-7.07107c1.95262,-1.95262 5.11845,-1.95262 7.07107,0"></path><path d="M17,11v-5.5c0,-1.381 -3.134,-2.5 -7,-2.5c-3.866,0 -7,1.119 -7,2.5v12c0,1.381 3.134,2.5 7,2.5c1.316,0 2.542,-0.132 3.594,-0.358"></path><path d="M17,5.5c0,1.381 -3.134,2.5 -7,2.5c-3.866,0 -7,-1.119 -7,-2.5"></path><path d="M17,9.5c0,1.381 -3.134,2.5 -7,2.5c-3.866,0 -7,-1.119 -7,-2.5"></path></g><path fill="none" stroke="#323232" stroke-linejoin="round" stroke-width="1.5" d="M12.011,15.894c-0.638,0.068 -1.312,0.106 -2.011,0.106c-3.866,0 -7,-1.119 -7,-2.5"></path><path d="M0,0h24v24h-24Z" fill="none"></path></svg>