<?xml version="1.0" encoding="UTF-8"?><svg version="1.1" viewBox="0 0 24 24" xmlns="http://www.w3.org/2000/svg" xmlns:xlink="http://www.w3.org/1999/xlink"><g stroke-linecap="round" stroke-width="1.5" stroke="#323232" fill="none" stroke-linejoin="round"><path d="M12 3c-3.598 0-6.5 2.902-6.5 6.5 0 3.598 2.902 6.5 6.5 6.5 3.598 0 6.5-2.902 6.5-6.5 0-3.598-2.902-6.5-6.5-6.5Z"></path><path d="M10.677 3.765c-2.087 3.485-2.087 7.985 0 11.47 .611 1.02 2.036 1.02 2.647 0 2.087-3.485 2.087-7.985 0-11.47 -.612-1.02-2.036-1.02-2.647-4.44089e-16Z"></path><path d="M5.5 9.5h13"></path><line x1="10.5" x2="13.5" y1="18.5" y2="21.5"></line><line x1="10.5" x2="13.5" y1="21.5" y2="18.5"></line><path d="M16 20h4"></path><path d="M4 20h4"></path></g><path fill="none" d="M0 0h24v24h-24v-24Z"></path></svg>