<?xml version="1.0" encoding="UTF-8"?><svg version="1.1" viewBox="0 0 24 24" xmlns="http://www.w3.org/2000/svg" xmlns:xlink="http://www.w3.org/1999/xlink"><g fill="none"><path d="M0 0h24v24h-24v-24Z"></path><path stroke="#323232" stroke-linecap="round" stroke-linejoin="round" stroke-width="1.5" d="M15.997 3h3.286c.946 0 1.714.768 1.714 1.714v3.286"></path><path stroke="#323232" stroke-linecap="round" stroke-linejoin="round" stroke-width="1.5" d="M8 21h-3.286c-.946 0-1.714-.768-1.714-1.714v-3.286"></path><path stroke="#323232" stroke-linecap="round" stroke-linejoin="round" stroke-width="1.5" d="M18.695 12.605l3.046 5.414c.749 1.334-.214 2.981-1.744 2.981h-6.091c-1.53 0-2.493-1.647-1.743-2.981l3.046-5.414c.764-1.359 2.721-1.359 3.486 1.77636e-15Z"></path><path stroke="#323232" stroke-linecap="round" stroke-linejoin="round" stroke-width="1.5" d="M16.952 16.42v-1.835"></path><path stroke="#323232" stroke-linecap="round" stroke-linejoin="round" stroke-width="1.5" d="M16.951 18.445c-.05 0-.091.041-.09.091 0 .05.041.091.091.091 .05 0 .091-.041.091-.091 0-.05-.041-.091-.092-.091"></path><path stroke="#323232" stroke-linecap="round" stroke-linejoin="round" stroke-width="1.5" d="M9.546 7.091h-5.091c-1.356 0-2.455 1.099-2.455 2.455v0c.001 1.355 1.1 2.454 2.456 2.454h5.091c1.355 0 2.454-1.099 2.454-2.455v0c-1.77636e-15-1.355-1.099-2.454-2.455-2.454Z"></path><path stroke="#323232" stroke-linecap="round" stroke-linejoin="round" stroke-width="1.5" d="M4.508 9.51c.02.02.02.051 0 .071 -.02.02-.051.02-.071 0 -.02-.02-.02-.051 0-.071 .019-.019.051-.019.071 0"></path><path stroke="#323232" stroke-linecap="round" stroke-linejoin="round" stroke-width="1.5" d="M11.993 9.347l-.349-4.501c-.081-1.042-.95-1.846-1.995-1.846h-5.297c-1.045 0-1.913.804-1.994 1.845l-.349 4.501"></path></g></svg>