<svg id="Layer_3" data-name="Layer 3" xmlns="http://www.w3.org/2000/svg" viewBox="0 0 24 24"><path d="M0,0H24V24H0Z" fill="none"/><path d="M17,10.71429C17,11.70071,14.76143,12.5,12,12.5s-5-.79929-5-1.78571" fill="none" stroke="#323232" stroke-linecap="round" stroke-linejoin="round" stroke-width="1.5"/><path d="M21,12a9,9,0,1,0-9,9" fill="none" stroke="#323232" stroke-linecap="round" stroke-linejoin="round" stroke-width="1.5"/><path d="M19.76545,14.78894l.94559.94557a.98652.98652,0,0,1,0,1.39517l-3.1419,3.1419a.77993.77993,0,0,1-.55147.22842H15.25a.25.25,0,0,1-.25-.25V18.48262a.78061.78061,0,0,1,.22862-.552L18.3703,14.789A.98652.98652,0,0,1,19.76545,14.78894Z" fill="none" stroke="#323232" stroke-linecap="round" stroke-linejoin="round" stroke-width="1.5"/><path d="M17,10.71429V9.53571C17,8.54929,14.76143,7.75,12,7.75S7,8.54929,7,9.53571v4.92858C7,15.45071,9.23857,16.25,12,16.25" fill="none" stroke="#323232" stroke-linecap="round" stroke-linejoin="round" stroke-width="1.5"/></svg>