<?xml version="1.0" encoding="UTF-8"?><svg version="1.1" viewBox="0 0 24 24" xmlns="http://www.w3.org/2000/svg" xmlns:xlink="http://www.w3.org/1999/xlink"><!--Generated by IJSVG (https://github.com/iconjar/IJSVG)--><g stroke-linecap="round" stroke-width="1.5" stroke="#323232" fill="none" stroke-linejoin="round"><path d="M5,18c0,1.381 3.134,2.5 7,2.5c3.866,0 7,-1.119 7,-2.5v-12c0,-1.381 -3.134,-2.5 -7,-2.5c-3.866,0 -7,1.119 -7,2.5v12Z"></path><path d="M19,6c0,1.381 -3.134,2.5 -7,2.5c-3.866,0 -7,-1.119 -7,-2.5"></path><path d="M19,14c0,1.381 -3.134,2.5 -7,2.5c-3.866,0 -7,-1.119 -7,-2.5"></path><path d="M19,10c0,1.381 -3.134,2.5 -7,2.5c-3.866,0 -7,-1.119 -7,-2.5"></path></g><path fill="none" d="M0,0h24v24h-24v-24Z"></path></svg>