<?xml version="1.0" encoding="UTF-8"?><svg version="1.1" viewBox="0 0 24 24" xmlns="http://www.w3.org/2000/svg" xmlns:xlink="http://www.w3.org/1999/xlink"><!--Generated by IJSVG (https://github.com/iconjar/IJSVG)--><g stroke-linecap="round" stroke-width="1.5" stroke="#323232" fill="none" stroke-linejoin="round"><path d="M19.779,20.703h-15.558c-0.43,0 -0.813,-0.275 -0.949,-0.684l-0.772,-2.316h19l-0.772,2.316c-0.136,0.409 -0.518,0.684 -0.949,0.684Z"></path><path d="M3.059,17.703l-0.048,-0.958c-0.256,-5.14 3.842,-9.448 8.989,-9.448v-8.88178e-16c5.147,0 9.245,4.308 8.989,9.448l-0.048,0.958"></path><path d="M12,7.297v0c-1.105,0 -2,-0.895 -2,-2v-0.297c0,-1.105 0.895,-2 2,-2v0c1.105,0 2,0.895 2,2v0.297c0,1.104 -0.895,2 -2,2Z"></path></g></svg>