<?xml version="1.0" encoding="UTF-8"?><svg version="1.1" viewBox="0 0 24 24" xmlns="http://www.w3.org/2000/svg" xmlns:xlink="http://www.w3.org/1999/xlink"><g stroke-linecap="round" stroke-width="1.5" stroke="#323232" fill="none" stroke-linejoin="round"><path d="M17 3h-10c-1.657 0-3 1.343-3 3v0c0 1.657 1.343 3 3 3h10c1.657 0 3-1.343 3-3v0c0-1.657-1.343-3-3-3Z"></path><path d="M17 9h-10c-1.657 0-3 1.343-3 3v0c0 1.657 1.343 3 3 3h10c1.657 0 3-1.343 3-3v0c0-1.657-1.343-3-3-3Z"></path><path d="M12 15.02v1.5"></path><path d="M16 20h4"></path><path d="M4 20h4"></path><line x1="10.5" x2="13.5" y1="18.5" y2="21.5"></line><line x1="10.5" x2="13.5" y1="21.5" y2="18.5"></line><path d="M12 6h5"></path><path d="M7.035 5.965c.02.02.02.051 0 .071 -.02.02-.051.02-.071 0 -.02-.02-.02-.051 0-.071 .02-.02.052-.02.071 0"></path><path d="M12 12h5"></path><path d="M7.035 11.965c.02.02.02.051 0 .071 -.02.02-.051.02-.071 0 -.02-.02-.02-.051 0-.071 .02-.02.052-.02.071 0"></path></g><path fill="none" d="M0 0h24v24h-24v-24Z"></path></svg>