<?xml version="1.0" encoding="UTF-8"?><svg version="1.1" viewBox="0 0 24 24" xmlns="http://www.w3.org/2000/svg" xmlns:xlink="http://www.w3.org/1999/xlink"><g fill="none"><path d="M0 0h24v24h-24v-24Z"></path><line x1="17.94" x2="20.06" y1="3.94" y2="6.06" stroke="#323232" stroke-linecap="round" stroke-linejoin="round" stroke-width="1.5"></line><line x1="17.94" x2="20.06" y1="6.06" y2="3.94" stroke="#323232" stroke-linecap="round" stroke-linejoin="round" stroke-width="1.5"></line><path stroke="#323232" stroke-linecap="round" stroke-linejoin="round" stroke-width="1.5" d="M19 9c-2.209 0-4-1.791-4-4 0-2.209 1.791-4 4-4 2.209 0 4 1.791 4 4 0 2.209-1.791 4-4 4"></path><path stroke="#323232" stroke-linecap="round" stroke-linejoin="round" stroke-width="1.5" d="M15.143 4h-8.143c-2.209 0-4 1.791-4 4v9c0 2.209 1.791 4 4 4h9c2.209 0 4-1.791 4-4v-8.127"></path><path stroke="#323232" stroke-linecap="round" stroke-linejoin="round" stroke-width="1.5" d="M14.999 14v-3c.001-1.105-1.567-2-3.499-2 -1.932 0-3.499.896-3.5 2v3c0 1.104 1.566 2 3.499 2 1.933 0 3.5-.895 3.5-2Z"></path><path stroke="#323232" stroke-linecap="round" stroke-linejoin="round" stroke-width="1.5" d="M8 11c0 1.105 1.567 2 3.5 2 1.933 0 3.5-.895 3.5-2"></path></g></svg>