<?xml version="1.0" encoding="UTF-8"?><svg version="1.1" viewBox="0 0 24 24" xmlns="http://www.w3.org/2000/svg" xmlns:xlink="http://www.w3.org/1999/xlink"><g fill="none"><rect width="24" height="24"></rect><path stroke="#323232" stroke-linecap="round" stroke-linejoin="round" stroke-width="1.5" d="M4 14.118c0 1.462 3.374 2.647 7.536 2.647"></path><path stroke="#323232" stroke-linecap="round" stroke-linejoin="round" stroke-width="1.5" d="M19 5.647c0 1.462-3.358 2.647-7.5 2.647 -4.142 0-7.5-1.185-7.5-2.647"></path><path stroke="#323232" stroke-linecap="round" stroke-linejoin="round" stroke-width="1.5" d="M19 9.882c0 1.462-3.358 2.647-7.5 2.647 -4.142 0-7.5-1.184-7.5-2.647"></path><path stroke="#323232" stroke-linecap="round" stroke-linejoin="round" stroke-width="1.5" d="M11.536 21c-4.162 0-7.536-1.185-7.536-2.647v-12.706c0-1.462 3.358-2.647 7.5-2.647 4.142 0 7.5 1.185 7.5 2.647v7.353"></path><path stroke="#323232" stroke-linecap="round" stroke-linejoin="round" stroke-width="1.5" d="M20 17l-4 4"></path><path stroke="#323232" stroke-linecap="round" stroke-linejoin="round" stroke-width="1.5" d="M20 21l-4-4"></path></g></svg>