<?xml version="1.0" encoding="UTF-8"?><svg version="1.1" viewBox="0 0 24 24" xmlns="http://www.w3.org/2000/svg" xmlns:xlink="http://www.w3.org/1999/xlink"><!--Generated by IJSVG (https://github.com/iconjar/IJSVG)--><g fill="none"><path d="M0,0h24v24h-24Z"></path><path stroke="#323232" stroke-linecap="round" stroke-linejoin="round" stroke-width="1.5" d="M14.0607,2.43934c0.585786,0.585786 0.585786,1.53553 0,2.12132c-0.585786,0.585786 -1.53553,0.585786 -2.12132,0c-0.585786,-0.585786 -0.585786,-1.53553 0,-2.12132c0.585786,-0.585786 1.53553,-0.585786 2.12132,-4.44089e-16"></path><path stroke="#323232" stroke-linecap="round" stroke-linejoin="round" stroke-width="1.5" d="M5.625,22h-1.75c-0.483,0 -0.875,-0.392 -0.875,-0.875v-5.25c0,-0.483 0.392,-0.875 0.875,-0.875h1.75c0.483,0 0.875,0.392 0.875,0.875v5.25c0,0.483 -0.392,0.875 -0.875,0.875Z"></path><path stroke="#323232" stroke-linecap="round" stroke-linejoin="round" stroke-width="1.5" d="M11.75,18.5h2.041c0.379,0 0.747,-0.122 1.05,-0.35l2.114,-1.586c0.528,-0.396 1.266,-0.343 1.733,0.123v0c0.518,0.518 0.518,1.357 0,1.874l-1.814,1.814c-0.488,0.488 -1.111,0.822 -1.788,0.957l-2.564,0.513c-0.508,0.101 -1.033,0.089 -1.536,-0.037l-2.319,-0.578c-0.277,-0.07 -0.562,-0.105 -0.848,-0.105h-1.319"></path><path stroke="#323232" stroke-linecap="round" stroke-linejoin="round" stroke-width="1.5" d="M11.75,18.5h1.299c0.732,0 1.326,-0.593 1.326,-1.326v-0.265c0,-0.608 -0.414,-1.138 -1.004,-1.285l-2.005,-0.501c-0.326,-0.082 -0.661,-0.123 -0.997,-0.123v0c-0.811,0 -1.605,0.24 -2.279,0.69l-1.59,1.06"></path><path stroke="#323232" stroke-linecap="round" stroke-linejoin="round" stroke-width="1.5" d="M21,12h-16"></path><path stroke="#323232" stroke-linecap="round" stroke-linejoin="round" stroke-width="1.5" d="M20,12c0,-3.866 -3.134,-7 -7,-7c-3.866,0 -7,3.134 -7,7"></path></g></svg>