<?xml version="1.0" encoding="UTF-8"?><svg version="1.1" viewBox="0 0 24 24" xmlns="http://www.w3.org/2000/svg" xmlns:xlink="http://www.w3.org/1999/xlink"><g fill="none"><path d="M0 0h24v24h-24v-24Z"></path><path stroke="#323232" stroke-linecap="round" stroke-linejoin="round" stroke-width="1.5" d="M17 2c-2.761 0-5 2.239-5 5 0 2.761 2.239 5 5 5 2.762 0 5-2.239 5-5 0-2.761-2.238-5-5-5"></path><line x1="15.12" x2="18.88" y1="7" y2="7" stroke="#323232" stroke-linecap="round" stroke-linejoin="round" stroke-width="1.5"></line><line x1="17" x2="17" y1="8.88" y2="5.12" stroke="#323232" stroke-linecap="round" stroke-linejoin="round" stroke-width="1.5"></line><path stroke="#323232" stroke-linecap="round" stroke-linejoin="round" stroke-width="1.5" d="M18 15h-12c-1.657 0-3 1.343-3 3v0c0 1.657 1.343 3 3 3h12c1.657 0 3-1.343 3-3v0c0-1.657-1.343-3-3-3Z"></path><path stroke="#323232" stroke-linecap="round" stroke-linejoin="round" stroke-width="1.5" d="M18 18h-7"></path><path stroke="#323232" stroke-linecap="round" stroke-linejoin="round" stroke-width="1.5" d="M6.035 17.965c.02.02.02.051 0 .071 -.02.02-.051.02-.071 0 -.02-.02-.02-.051 0-.071 .02-.02.052-.02.071 0"></path><path stroke="#323232" stroke-linecap="round" stroke-linejoin="round" stroke-width="1.5" d="M12.422 5h-6.571c-1.045 0-1.913.804-1.994 1.845l-.847 10.912"></path><path stroke="#323232" stroke-linecap="round" stroke-linejoin="round" stroke-width="1.5" d="M20.99 17.76l-.55-7.14"></path></g></svg>