<svg id="Layer_3" data-name="Layer 3" xmlns="http://www.w3.org/2000/svg" viewBox="0 0 24 24"><path d="M3,19.39286C3,20.28064,5.01471,21,7.5,21s4.5-.71936,4.5-1.60714V11.60714C12,10.71936,9.98529,10,7.5,10S3,10.71936,3,11.60714Z" fill="none" stroke="#323232" stroke-linecap="round" stroke-linejoin="round" stroke-width="1.5"/><path d="M12,15.89286C12,16.78064,9.98529,17.5,7.5,17.5S3,16.78064,3,15.89286" fill="none" stroke="#323232" stroke-linecap="round" stroke-linejoin="round" stroke-width="1.5"/><path d="M12,12.39286C12,13.28064,9.98529,14,7.5,14S3,13.28064,3,12.39286" fill="none" stroke="#323232" stroke-linecap="round" stroke-linejoin="round" stroke-width="1.5"/><path d="M21,5.39286C21,6.28064,18.98529,7,16.5,7S12,6.28064,12,5.39286" fill="none" stroke="#323232" stroke-linecap="round" stroke-linejoin="round" stroke-width="1.5"/><path d="M15,13.90161A11.87367,11.87367,0,0,0,16.5,14c2.48529,0,4.5-.71936,4.5-1.60714V4.60714C21,3.71936,18.98529,3,16.5,3S12,3.71936,12,4.60714V8" fill="none" stroke="#323232" stroke-linecap="round" stroke-linejoin="round" stroke-width="1.5"/><path d="M15,10.40161A11.87367,11.87367,0,0,0,16.5,10.5c2.48529,0,4.5-.71936,4.5-1.60714" fill="none" stroke="#323232" stroke-linecap="round" stroke-linejoin="round" stroke-width="1.5"/><path d="M21,17v2a2,2,0,0,1-2,2H15" fill="none" stroke="#323232" stroke-linecap="round" stroke-linejoin="round" stroke-width="1.5"/><path d="M3,7V5A2,2,0,0,1,5,3H9" fill="none" stroke="#323232" stroke-linecap="round" stroke-linejoin="round" stroke-width="1.5"/><path d="M24,0H0V24H24Z" fill="none"/></svg>