<svg id="Layer_3" data-name="Layer 3" xmlns="http://www.w3.org/2000/svg" viewBox="0 0 24 24"><path d="M0,0H24V24H0Z" fill="none"/><path d="M8,9a3.00185,3.00185,0,0,0,3-3h0A3.00185,3.00185,0,0,0,8,3" fill="none" stroke="#323232" stroke-linecap="round" stroke-linejoin="round" stroke-width="1.5"/><path d="M5,3A3.00184,3.00184,0,0,0,2,6H2A3.00185,3.00185,0,0,0,5,9" fill="none" stroke="#323232" stroke-linecap="round" stroke-linejoin="round" stroke-width="1.5"/><line x1="8" y1="6" x2="5" y2="6" fill="none" stroke="#323232" stroke-linecap="round" stroke-linejoin="round" stroke-width="1.5"/><path d="M14,3h2a4,4,0,0,1,4,4V9" fill="none" stroke="#323232" stroke-linecap="round" stroke-linejoin="round" stroke-width="1.5"/><path d="M8,21H6a4,4,0,0,1-4-4V12" fill="none" stroke="#323232" stroke-linecap="round" stroke-linejoin="round" stroke-width="1.5"/><path d="M11,18.545h0A2.45448,2.45448,0,0,0,13.45375,21h5.0905A2.456,2.456,0,0,0,21,18.546h0a2.4547,2.4547,0,0,0-2.45475-2.455h-5.0905A2.45448,2.45448,0,0,0,11,18.545Z" fill="none" stroke="#323232" stroke-linecap="round" stroke-linejoin="round" stroke-width="1.5"/><path d="M20.991,18.346l-.349-4.501A1.99958,1.99958,0,0,0,18.64845,12H13.35163A2.00064,2.00064,0,0,0,11.357,13.846l-.349,4.501" fill="none" stroke="#323232" stroke-linecap="round" stroke-linejoin="round" stroke-width="1.5"/><path d="M18.41451,18.46421a.05143.05143,0,0,1,.071,0,.05014.05014,0,1,1-.071,0" fill="none" stroke="#323232" stroke-linecap="round" stroke-linejoin="round" stroke-width="1.5"/></svg>