<svg viewBox="0 0 24 24" xmlns="http://www.w3.org/2000/svg"><g stroke-linecap="round" stroke-width="1.5" stroke="#323232" fill="none" stroke-linejoin="round"><path d="M7.5 3l0 3"/><path d="M16.5 3l0 3"/><path d="M3 9.5l18 0"/><path d="M16 17.5h3"/><rect width="12" height="7" x="10" y="14" rx="1.5"/><path d="M13.08 17.46l0 0c.01.01.01.05-.01.07 -.02.01-.06.01-.08-.01 -.02-.02-.02-.06 0-.08l-.001 0c.01-.02.05-.03.07-.01 0 0 0 0 0 0"/><path d="M7 21H6l-.01-.001c-1.66-.01-3-1.35-3-3 0 0 0-.001 0-.001V7.49l0 0c-.01-1.66 1.34-3.01 2.99-3.01h12l-.01 0c1.65-.01 3 1.34 3 3v3.5"/></g><path fill="none" d="M0 0h24v24H0Z"/></svg>