<?xml version="1.0" encoding="UTF-8"?><svg version="1.1" viewBox="0 0 24 24" xmlns="http://www.w3.org/2000/svg" xmlns:xlink="http://www.w3.org/1999/xlink"><!--Generated by IJSVG (https://github.com/iconjar/IJSVG)--><g stroke-linecap="round" stroke-width="1.5" stroke="#323232" fill="none" stroke-linejoin="round"><path d="M19,5.5c0,1.381 -3.134,2.5 -7,2.5c-3.866,0 -7,-1.119 -7,-2.5"></path><path d="M19,9.5c0,1.381 -3.134,2.5 -7,2.5c-3.866,0 -7,-1.119 -7,-2.5"></path><path d="M19,13.5c0,1.381 -3.134,2.5 -7,2.5c-3.866,0 -7,-1.119 -7,-2.5v-8c0,-1.381 3.134,-2.5 7,-2.5c3.866,0 7,1.119 7,2.5v8Z"></path><path d="M12,16v2.5"></path><path d="M13.5,20h6.5"></path><path d="M4,20h6.5"></path><path d="M13.0607,18.9393c0.585786,0.585786 0.585786,1.53553 0,2.12132c-0.585786,0.585786 -1.53553,0.585786 -2.12132,0c-0.585786,-0.585786 -0.585786,-1.53553 0,-2.12132c0.585786,-0.585786 1.53553,-0.585786 2.12132,0"></path></g><path fill="none" d="M0,0h24v24h-24v-24Z"></path></svg>