<svg viewBox="0 0 24 24" xmlns="http://www.w3.org/2000/svg"><g stroke-linecap="round" stroke-width="1.5" stroke="#323232" fill="none" stroke-linejoin="round"><path d="M19 18.75V5.25l0-.01c0-1.25-1.01-2.25-2.25-2.25 -.01 0-.01 0-.01 0h-9.5l0 0c-1.25-.01-2.25 1-2.25 2.24 -.01 0-.01 0-.001 0v13.5l-.01 0c-.01 1.24 1 2.24 2.24 2.24 0 0 0-.01 0-.01h9.5l-.01-.001c1.24 0 2.24-1.01 2.24-2.25 0-.01-.01-.01-.01-.01Z"/><rect width="8" height="8" x="8" y="6" rx=".5"/><path d="M16 10l-8 0"/><path d="M11.999 17.875l0 0c-.07-.01-.13.05-.13.12 -.01 0 0 0 0 0l-.001-.01c0 .06.05.12.12.12 .06-.01.12-.06.12-.13 -.01-.07-.06-.13-.13-.13 -.01 0-.01 0-.01 0"/></g><path fill="none" d="M0 0h24v24H0Z"/></svg>