<?xml version="1.0" encoding="UTF-8"?><svg version="1.1" viewBox="0 0 24 24" xmlns="http://www.w3.org/2000/svg" xmlns:xlink="http://www.w3.org/1999/xlink"><!--Generated by IJSVG (https://github.com/iconjar/IJSVG)--><g stroke-linecap="round" stroke-width="1.5" stroke="#323232" fill="none" stroke-linejoin="round"><path d="M17.1053,7.20769c2.81959,2.81959 2.81959,7.39104 0,10.2106c-2.81959,2.81959 -7.39104,2.81959 -10.2106,3.55271e-15c-2.81959,-2.81959 -2.81959,-7.39104 -1.77636e-15,-10.2106c2.81959,-2.81959 7.39104,-2.81959 10.2106,-1.77636e-15"></path><path d="M12,5.09v14.44"></path><path d="M19.22,12.31h-14.44"></path><path d="M19.322,6.641c-3.87,3.816 -10.773,3.816 -14.643,0"></path><path d="M21.5405,4.45311c0.612733,0.604141 0.612733,1.58365 0,2.18779c-0.612733,0.604141 -1.60617,0.604141 -2.2189,0c-0.612733,-0.604141 -0.612733,-1.58365 -3.55271e-15,-2.18779c0.612733,-0.604141 1.60617,-0.604141 2.2189,0"></path><path d="M4.67845,4.45311c0.612733,0.604141 0.612733,1.58365 0,2.18779c-0.612733,0.604141 -1.60617,0.604141 -2.2189,0c-0.612733,-0.604141 -0.612733,-1.58365 0,-2.18779c0.612733,-0.604141 1.60617,-0.604141 2.2189,0"></path><path d="M4.678,18.359c3.87,-3.816 10.773,-3.816 14.643,0"></path><path d="M4.67845,18.3591c0.612733,0.604141 0.612733,1.58365 0,2.18779c-0.612733,0.604141 -1.60617,0.604141 -2.2189,0c-0.612733,-0.604141 -0.612733,-1.58365 0,-2.18779c0.612733,-0.604141 1.60617,-0.604141 2.2189,0"></path><path d="M21.5405,18.3591c0.612733,0.604141 0.612733,1.58365 0,2.18779c-0.612733,0.604141 -1.60617,0.604141 -2.2189,0c-0.612733,-0.604141 -0.612733,-1.58365 -3.55271e-15,-2.18779c0.612733,-0.604141 1.60617,-0.604141 2.2189,0"></path></g><path fill="none" d="M0,0h24v24h-24v-24Z"></path></svg>