<?xml version="1.0" encoding="UTF-8"?><svg version="1.1" viewBox="0 0 24 24" xmlns="http://www.w3.org/2000/svg" xmlns:xlink="http://www.w3.org/1999/xlink"><!--Generated by IJSVG (https://github.com/iconjar/IJSVG)--><g stroke-linecap="round" stroke-width="1.5" stroke="#323232" fill="none" stroke-linejoin="round"><path d="M18,14h-12c-1.657,0 -3,1.343 -3,3v0c0,1.657 1.343,3 3,3h12c1.657,0 3,-1.343 3,-3v0c0,-1.657 -1.343,-3 -3,-3Z"></path><path d="M8,4h-2.149c-1.045,0 -1.913,0.804 -1.994,1.845l-0.847,10.912"></path><path d="M12,4v6"></path><path d="M14,8l-2,2l-2,-2"></path><path d="M18,17h-7"></path><path d="M6.03536,16.9646c0.0195262,0.0195262 0.0195262,0.0511845 0,0.0707107c-0.0195262,0.0195262 -0.0511845,0.0195262 -0.0707107,0c-0.0195262,-0.0195262 -0.0195262,-0.0511845 0,-0.0707107c0.0195262,-0.0195262 0.0511845,-0.0195262 0.0707107,0"></path><path d="M16,4h2.149c1.045,0 1.913,0.804 1.994,1.845l0.847,10.912"></path></g><path fill="none" d="M0,0h24v24h-24v-24Z"></path></svg>