<?xml version="1.0" encoding="UTF-8"?><svg version="1.1" viewBox="0 0 24 24" xmlns="http://www.w3.org/2000/svg" xmlns:xlink="http://www.w3.org/1999/xlink"><path d="M16 21h-8l-2.18557e-07-7.10543e-15c-2.76142-1.20706e-07-5-2.23858-5-5 0 0 0-1.77636e-15 0-1.77636e-15v-8l5.68434e-14 7.54979e-07c-4.16963e-07-2.76142 2.23858-5 5-5h8l-2.18557e-07 5.32907e-15c2.76142-1.20706e-07 5 2.23858 5 5v8l3.55271e-15 2.18557e-07c0 2.76142-2.23858 5-5 5Zm-2.5-12h-6.5m9 1.75h-1.5l-4.37114e-08-1.77636e-15c-.552285-2.41411e-08-1-.447715-1-1 0 0 0 0 0 0v-1.5l1.06581e-14 1.50996e-07c-8.33927e-08-.552285.447715-1 1-1h1.5 -4.37114e-08c.552285-2.41411e-08 1 .447715 1 1v1.5 4.37114e-08c0 .552285-.447715 1-1 1 -1.35461e-08 0-3.01653e-08 0-4.37114e-08-1.77636e-15Zm-5.5 4.25h6.5m-9-1.75h1.5l-4.37114e-08 1.77636e-15c.552285-2.41411e-08 1 .447715 1 1v1.5 1.77636e-15c0 .552285-.447715 1-1 1 0 0-1.77636e-15 0-1.77636e-15 0h-1.5 -4.37114e-08c-.552285-2.41411e-08-1-.447715-1-1 0 0 0 0 0 0v-1.5l7.10543e-15-6.3573e-08c8.33927e-08-.552285.447715-1 1-1Z" stroke-linecap="round" stroke-width="1.5" stroke="#323232" fill="none" stroke-linejoin="round"></path><path fill="none" d="M0 0h24v24h-24Z"></path></svg>