<svg id="Layer_3" data-name="Layer 3" xmlns="http://www.w3.org/2000/svg" viewBox="0 0 24 24"><path d="M0,0H24V24H0Z" fill="none"/><circle cx="12" cy="12" r="1.5" fill="none" stroke="#323232" stroke-linecap="round" stroke-linejoin="round" stroke-width="1.5"/><path d="M17.25,13.299l-.75.433a1.5,1.5,0,0,0-.75,1.299v.866a1.5,1.5,0,0,1-2.25,1.299l-.75-.433a1.5,1.5,0,0,0-1.5,0l-.75.433a1.5,1.5,0,0,1-2.25-1.299v-.866a1.5,1.5,0,0,0-.75-1.299l-.75-.433a1.5,1.5,0,0,1,0-2.598l.75-.433a1.5,1.5,0,0,0,.75-1.299v-.866a1.5,1.5,0,0,1,2.25-1.299l.75.433a1.5,1.5,0,0,0,1.5,0l.75-.433a1.5,1.5,0,0,1,2.25,1.299v.866a1.5,1.5,0,0,0,.75,1.299l.75.433A1.5,1.5,0,0,1,17.25,13.299Z" fill="none" stroke="#323232" stroke-linecap="round" stroke-linejoin="round" stroke-width="1.5"/><circle cx="12" cy="12" r="9.5" fill="none" stroke="#323232" stroke-linecap="round" stroke-linejoin="round" stroke-width="1.5"/></svg>