<?xml version="1.0" encoding="UTF-8"?><svg version="1.1" viewBox="0 0 24 24" xmlns="http://www.w3.org/2000/svg" xmlns:xlink="http://www.w3.org/1999/xlink"><g stroke-linecap="round" stroke-width="1.5" stroke="#323232" fill="none" stroke-linejoin="round"><path d="M13.273 10.727c.703.703.703 1.843 0 2.546 -.703.703-1.843.703-2.546 0 -.703-.703-.703-1.843 0-2.546 .703-.703 1.843-.703 2.546 0"></path><path d="M7.5 12c0 .198.018.396.042.588l-.317.248c-.661.516-.84 1.441-.42 2.167v0c.419.725 1.306 1.031 2.083.719l.076-.031c.187-.075.396-.045.564.066 .147.097.299.187.456.267 .18.091.311.255.339.455l.011.08c.119.827.828 1.441 1.663 1.441h.003c.836 0 1.545-.614 1.664-1.442l.011-.079c.029-.2.161-.365.341-.455 .157-.079.308-.167.454-.264 .169-.112.379-.144.567-.068l.074.03c.776.312 1.664.005 2.082-.719l.001-.001c.419-.726.24-1.649-.42-2.165l-.317-.248c.025-.193.043-.391.043-.589 0-.198-.018-.396-.042-.588l.317-.248c.66-.516.839-1.44.42-2.165l-.001-.001c-.419-.725-1.306-1.031-2.083-.719l-.074.03c-.188.075-.397.044-.567-.068 -.146-.097-.297-.185-.454-.264 -.181-.091-.313-.255-.341-.455l-.011-.078c-.117-.829-.826-1.444-1.663-1.444h-.001c-.836 0-1.545.614-1.664 1.442l-.011.08c-.029.199-.16.363-.339.455 -.157.08-.309.17-.456.267 -.17.111-.379.141-.566.065l-.076-.031c-.777-.311-1.664-.005-2.083.72v0c-.42.726-.24 1.65.42 2.167l.317.248c-.024.191-.042.389-.042.587Z"></path><path d="M19.2 21h-14.4c-.994 0-1.8-.806-1.8-1.8v-14.4c0-.994.806-1.8 1.8-1.8h14.4c.994 0 1.8.806 1.8 1.8v14.4c0 .994-.806 1.8-1.8 1.8Z"></path></g><path fill="none" d="M0 0h24v24h-24v-24Z"></path></svg>