<svg id="Layer_3" data-name="Layer 3" xmlns="http://www.w3.org/2000/svg" viewBox="0 0 24 24"><path d="M0,0H24V24H0Z" fill="none"/><path d="M12,21H9a6,6,0,0,1-6-6V9A6,6,0,0,1,9,3h6a6,6,0,0,1,6,6v4" fill="none" stroke="#323232" stroke-linecap="round" stroke-linejoin="round" stroke-width="1.5"/><path d="M13.05917,8.44261l2.50446,2.50376a1.48936,1.48936,0,0,1,.00015,2.10641l-.00638.00639-2.50377,2.50446a1.48936,1.48936,0,0,1-2.10641.00015l-.00639-.00638L8.43637,13.05363a1.48936,1.48936,0,0,1-.00015-2.10641l.00638-.00639,2.50379-2.50448a1.48935,1.48935,0,0,1,2.11277.00625Z" fill="none" stroke="#323232" stroke-linecap="round" stroke-linejoin="round" stroke-width="1.5"/><path d="M20,17.5,17.5,20,16,18.5" fill="none" stroke="#323232" stroke-linecap="round" stroke-linejoin="round" stroke-width="1.5"/></svg>