<?xml version="1.0" encoding="UTF-8"?><svg version="1.1" viewBox="0 0 24 24" xmlns="http://www.w3.org/2000/svg" xmlns:xlink="http://www.w3.org/1999/xlink"><g stroke-linecap="round" stroke-width="1.5" stroke="#323232" fill="none" stroke-linejoin="round"><path d="M8.463 15.536c-1.953-1.953-1.953-5.118 0-7.071 1.911-1.912 5.16-1.912 7.072 0 1.953 1.953 1.953 5.118 0 7.071 -1.953 1.953-5.12 1.953-7.072 0"></path><path d="M11.998 12l3.54-3.54"></path><path d="M18 21h-12c-1.657 0-3-1.343-3-3v-12c0-1.657 1.343-3 3-3h12c1.657 0 3 1.343 3 3v12c0 1.657-1.343 3-3 3Z"></path></g><path fill="none" d="M0 0h24v24h-24Z"></path></svg>