<?xml version="1.0" encoding="UTF-8"?><svg version="1.1" viewBox="0 0 24 24" xmlns="http://www.w3.org/2000/svg" xmlns:xlink="http://www.w3.org/1999/xlink"><g fill="none"><path d="M0 0h24v24h-24v-24Z"></path><path stroke="#323232" stroke-linecap="round" stroke-linejoin="round" stroke-width="1.5" d="M19 21h-14c-1.105 0-2-.895-2-2v-14c0-1.105.895-2 2-2h14c1.105 0 2 .895 2 2v14c0 1.105-.895 2-2 2Z"></path><path stroke="#323232" stroke-linecap="round" stroke-linejoin="round" stroke-width="1.5" d="M14.989 10.511c-1.111 0-2.011-.901-2.011-2.011v0c0-1.111.901-2.011 2.011-2.011"></path><path stroke="#323232" stroke-linecap="round" stroke-linejoin="round" stroke-width="1.5" d="M8.966 6.489h6.023c1.11 0 2.011.9 2.011 2.011v0c0 1.111-.901 2.011-2.011 2.011h-6.023c-1.111 0-2.011-.901-2.011-2.011v0c8.88178e-16-1.111.901-2.011 2.011-2.011Z"></path><path stroke="#323232" stroke-linecap="round" stroke-linejoin="round" stroke-width="1.5" d="M8.966 13.489c1.111 0 2.011.901 2.011 2.011v0c0 1.111-.901 2.011-2.011 2.011"></path><path stroke="#323232" stroke-linecap="round" stroke-linejoin="round" stroke-width="1.5" d="M14.989 17.511h-6.023c-1.111 0-2.011-.901-2.011-2.011v0c0-1.111.901-2.011 2.011-2.011h6.023c1.111 0 2.011.901 2.011 2.011v0c0 1.111-.901 2.011-2.011 2.011Z"></path></g></svg>