<?xml version="1.0" encoding="UTF-8"?><svg version="1.1" viewBox="0 0 24 24" xmlns="http://www.w3.org/2000/svg" xmlns:xlink="http://www.w3.org/1999/xlink"><g fill="none"><path d="M0 0h24v24h-24Z"></path><path stroke="#323232" stroke-linecap="round" stroke-linejoin="round" stroke-width="1.5" d="M21 12v0c0 4.97056-4.02944 9-9 9 -4.97056 0-9-4.02944-9-9 0-4.97056 4.02944-9 9-9l-3.93403e-07 8.88178e-15c4.97056-2.1727e-07 9 4.02944 9 9 0 0 0 3.55271e-15 0 3.55271e-15Z"></path><line x1="13" x2="13" y1="7.5" y2="10.5" stroke="#323232" stroke-linecap="round" stroke-linejoin="round" stroke-width="1.5"></line><line x1="13" x2="7" y1="9" y2="9" stroke="#323232" stroke-linecap="round" stroke-linejoin="round" stroke-width="1.5"></line><line x1="17" x2="15.5" y1="9" y2="9" stroke="#323232" stroke-linecap="round" stroke-linejoin="round" stroke-width="1.5"></line><line x1="10.92" x2="10.92" y1="16.5" y2="13.5" stroke="#323232" stroke-linecap="round" stroke-linejoin="round" stroke-width="1.5"></line><line x1="11" x2="17" y1="15" y2="15" stroke="#323232" stroke-linecap="round" stroke-linejoin="round" stroke-width="1.5"></line><line x1="7" x2="8.5" y1="15" y2="15" stroke="#323232" stroke-linecap="round" stroke-linejoin="round" stroke-width="1.5"></line></g></svg>