<?xml version="1.0" encoding="UTF-8"?><svg version="1.1" viewBox="0 0 24 24" xmlns="http://www.w3.org/2000/svg" xmlns:xlink="http://www.w3.org/1999/xlink"><g fill="none"><path d="M0 0h24v24h-24v-24Z"></path><path stroke="#323232" stroke-linecap="round" stroke-linejoin="round" stroke-width="1.5" d="M14 10l-4 4"></path><path stroke="#323232" stroke-linecap="round" stroke-linejoin="round" stroke-width="1.5" d="M12 6v0c-3.314 0-6 2.686-6 6v0c0 3.314 2.686 6 6 6v0c3.314 0 6-2.686 6-6v0c0-3.314-2.686-6-6-6Z"></path><path stroke="#323232" stroke-linecap="round" stroke-linejoin="round" stroke-width="1.5" d="M18 21h-12c-1.657 0-3-1.343-3-3v-12c0-1.657 1.343-3 3-3h12c1.657 0 3 1.343 3 3v12c0 1.657-1.343 3-3 3Z"></path></g></svg>