<svg id="Layer_3" data-name="Layer 3" xmlns="http://www.w3.org/2000/svg" viewBox="0 0 24 24"><path d="M17.21007,13.19735l.03259-.00815a1,1,0,0,0,.75744-.97014v-.4388a1,1,0,0,0-.75743-.97014L17.21,10.802A1.10464,1.10464,0,0,1,16.53126,9.162l.01372-.02289a1.00172,1.00172,0,0,0-.14719-1.22694l-.31027-.31028a1,1,0,0,0-1.22159-.15041l-.02888.01733a1.10426,1.10426,0,0,1-1.63938-.679l-.00815-.03258a1,1,0,0,0-.97014-.75742h-.43881a1,1,0,0,0-.97014.75743l-.00817.03268a1.10464,1.10464,0,0,1-1.63993.67873L9.13945,7.4549a1.00171,1.00171,0,0,0-1.227.14719l-.31027.31027a.99986.99986,0,0,0-.15047,1.22148l.01708.02847a1.10464,1.10464,0,0,1-.67872,1.63994l-.03257.00814a1,1,0,0,0-.75743.97011l0,.43886a.99971.99971,0,0,0,.7572.97l.03234.00809A1.10464,1.10464,0,0,1,7.46932,14.837l-.01729.02881a1,1,0,0,0,.15038,1.22156l.31031.31033a.99967.99967,0,0,0,1.22129.15049L9.1626,16.531a1.10466,1.10466,0,0,1,1.64.67872l.00815.03259a1,1,0,0,0,.9701.75744l.43886,0a.99976.99976,0,0,0,.97-.75724l.00808-.03233a1.10462,1.10462,0,0,1,1.63953-.67965l.02882.01728a1,1,0,0,0,1.22155-.15038l.31034-.31031a.99969.99969,0,0,0,.15048-1.22129l-.01715-.02859A1.10464,1.10464,0,0,1,17.21007,13.19735Z" fill="none" stroke="#323232" stroke-linecap="round" stroke-linejoin="round" stroke-width="1.5"/><circle cx="12" cy="12" r="9" fill="none" stroke="#323232" stroke-linecap="round" stroke-linejoin="round" stroke-width="1.5"/><circle cx="12" cy="12" r="1.5" fill="none" stroke="#323232" stroke-linecap="round" stroke-linejoin="round" stroke-width="1.5"/><rect width="24" height="24" fill="none"/></svg>