<svg id="Layer_3" data-name="Layer 3" xmlns="http://www.w3.org/2000/svg" viewBox="0 0 24 24"><path d="M5,11.25537l-1.316-1.484a1,1,0,0,1-.11783-1.16348L4.84538,6.39213a1,1,0,0,1,1.06649-.4797l1.94329.39763,1.28968-.74463.62723-1.88166A1,1,0,0,1,10.72075,3h2.5585a1,1,0,0,1,.94868.68377l.62723,1.88166,1.28968.74463,1.94329-.39763a1,1,0,0,1,1.06649.4797l1.27924,2.21572A1,1,0,0,1,20.316,9.77133L19,11.25537v1.48926l1.316,1.484a1,1,0,0,1,.11783,1.16348l-1.27924,2.21572a1,1,0,0,1-1.06648.47971l-1.94336-.39764-1.28962.74451-.62724,1.88177A1,1,0,0,1,13.27924,21H10.72076a1,1,0,0,1-.94868-.68378l-.62724-1.88177-1.28962-.74451-1.94336.39764a1,1,0,0,1-1.06648-.47971L3.56614,15.39215A1,1,0,0,1,3.684,14.22867L5,12.74463Z" fill="none" stroke="#323232" stroke-linecap="round" stroke-linejoin="round" stroke-width="1.5"/><circle cx="12" cy="12" r="3" fill="none" stroke="#323232" stroke-linecap="round" stroke-linejoin="round" stroke-width="1.5"/><path d="M0,0H24V24H0" fill="none"/></svg>