<?xml version="1.0" encoding="UTF-8"?><svg version="1.1" viewBox="0 0 24 24" xmlns="http://www.w3.org/2000/svg" xmlns:xlink="http://www.w3.org/1999/xlink"><g stroke-linecap="round" stroke-width="1.5" stroke="#323232" fill="none" stroke-linejoin="round"><path d="M18 5h3"></path><path d="M3 5h11"></path><path d="M10 12h11"></path><path d="M3 12h3"></path><path d="M18 19h3"></path><path d="M3 19h11"></path><path d="M17.4142 3.58579c.781049.781049.781049 2.04738 0 2.82843 -.781049.781049-2.04738.781049-2.82843 0 -.781049-.781049-.781049-2.04738 0-2.82843 .781049-.781049 2.04738-.781049 2.82843-4.44089e-16"></path><path d="M9.41421 10.5858c.781049.781049.781049 2.04738 0 2.82843 -.781049.781049-2.04738.781049-2.82843 0 -.781049-.781049-.781049-2.04738-8.88178e-16-2.82843 .781049-.781049 2.04738-.781049 2.82843 0"></path><path d="M17.4142 17.5858c.781049.781049.781049 2.04738 0 2.82843 -.781049.781049-2.04738.781049-2.82843 0 -.781049-.781049-.781049-2.04738 0-2.82843 .781049-.781049 2.04738-.781049 2.82843 0"></path></g><path fill="none" d="M0 0h24v24h-24Z"></path></svg>