<?xml version="1.0" encoding="UTF-8"?><svg version="1.1" viewBox="0 0 24 24" xmlns="http://www.w3.org/2000/svg" xmlns:xlink="http://www.w3.org/1999/xlink"><g stroke-linecap="round" stroke-width="1.5" stroke="#323232" fill="none" stroke-linejoin="round"><path d="M19.9453 15.2607c1.31294 1.31294 1.31294 3.44164 0 4.75459 -1.31294 1.31294-3.44164 1.31294-4.75459 3.55271e-15 -1.31294-1.31294-1.31294-3.44164-1.77636e-15-4.75459 1.31294-1.31294 3.44164-1.31294 4.75459-1.77636e-15"></path><path d="M6.36 9.79v4.49"></path><path d="M8.603 21h-4.482c-.619 0-1.121-.502-1.121-1.121v-4.482c0-.619.502-1.121 1.121-1.121h4.482c.619 0 1.121.502 1.121 1.121v4.482c-1.77636e-15.619-.502 1.121-1.121 1.121Z"></path><path d="M17.57 14.28v-3.9"></path><path d="M8.73929 4.05471c1.31294 1.31294 1.31294 3.44164 0 4.75459 -1.31294 1.31294-3.44164 1.31294-4.75459 0 -1.31294-1.31294-1.31294-3.44164-8.88178e-16-4.75459 1.31294-1.31294 3.44164-1.31294 4.75459-8.88178e-16"></path><path d="M21.253 7.153l-2.898 2.898c-.438.438-1.147.438-1.585 0l-2.898-2.898c-.438-.438-.438-1.147 0-1.585l2.898-2.898c.438-.438 1.147-.438 1.585 0l2.898 2.898c.437.438.437 1.147 0 1.585Z"></path><path d="M13.55 6.43h-3.83"></path></g><path fill="none" d="M0 0h24v24h-24Z"></path></svg>