<?xml version="1.0" encoding="UTF-8"?><svg version="1.1" viewBox="0 0 24 24" xmlns="http://www.w3.org/2000/svg" xmlns:xlink="http://www.w3.org/1999/xlink"><g fill="none"><path d="M0 0h24v24h-24Z"></path><path stroke="#323232" stroke-linecap="round" stroke-linejoin="round" stroke-width="1.5" d="M19.9453 15.2607c1.31294 1.31294 1.31294 3.44164 0 4.75459 -1.31294 1.31294-3.44164 1.31294-4.75459 3.55271e-15 -1.31294-1.31294-1.31294-3.44164-1.77636e-15-4.75459 1.31294-1.31294 3.44164-1.31294 4.75459-1.77636e-15"></path><path stroke="#323232" stroke-linecap="round" stroke-linejoin="round" stroke-width="1.5" d="M21.253 7.153l-2.898 2.898c-.438.438-1.147.438-1.585 0l-2.898-2.898c-.437-.437-.437-1.147 0-1.584l2.898-2.899c.438-.438 1.147-.438 1.585 0l2.898 2.898c.437.438.437 1.147 0 1.585Z"></path><path stroke="#323232" stroke-linecap="round" stroke-linejoin="round" stroke-width="1.5" d="M4.318 9.53h4.098c.619 0 1.121-.502 1.121-1.121v-4.098c0-.619-.502-1.121-1.121-1.121h-4.098c-.619 0-1.121.502-1.121 1.121v4.098c4.44089e-16.619.502 1.121 1.121 1.121Z"></path><path stroke="#323232" stroke-linecap="round" stroke-linejoin="round" stroke-width="1.5" d="M5.364 15.156l-2.484 3.976c-.492.787.074 1.808 1.002 1.808h4.969c.928 0 1.494-1.021 1.002-1.808l-2.484-3.975c-.463-.741-1.542-.741-2.005-.001Z"></path></g></svg>