<?xml version="1.0" encoding="UTF-8"?><svg version="1.1" viewBox="0 0 24 24" xmlns="http://www.w3.org/2000/svg" xmlns:xlink="http://www.w3.org/1999/xlink"><g fill="none"><path d="M0 0h24v24h-24Z" transform="matrix(-1 -1.22465e-16 1.22465e-16 -1 24 24)"></path><path stroke="#323232" stroke-linecap="round" stroke-linejoin="round" stroke-width="1.5" d="M17.633 14.39v0c-1.795 0-3.25 1.455-3.25 3.25v0c0 1.795 1.455 3.25 3.25 3.25v0c1.795 0 3.25-1.455 3.25-3.25v0c0-1.795-1.455-3.25-3.25-3.25Z"></path><path stroke="#323232" stroke-linecap="round" stroke-linejoin="round" stroke-width="1.5" d="M16.631 3.616l-2.484 3.975c-.492.787.074 1.808 1.002 1.808h4.969c.928 0 1.494-1.021 1.002-1.808l-2.484-3.975c-.463-.741-1.542-.741-2.005-8.88178e-16Z"></path><path stroke="#323232" stroke-linecap="round" stroke-linejoin="round" stroke-width="1.5" d="M6.362 20.888v0c-1.795 0-3.25-1.455-3.25-3.25v0c0-1.795 1.455-3.25 3.25-3.25v0c1.795 0 3.25 1.455 3.25 3.25v0c0 1.795-1.455 3.25-3.25 3.25Z"></path><path stroke="#323232" stroke-linecap="round" stroke-linejoin="round" stroke-width="1.5" d="M6.432 3.112v0c-1.795 0-3.25 1.455-3.25 3.25v0c0 1.795 1.455 3.25 3.25 3.25v0c1.795 0 3.25-1.455 3.25-3.25v0c0-1.795-1.455-3.25-3.25-3.25Z"></path></g></svg>