<?xml version="1.0" encoding="UTF-8"?><svg version="1.1" viewBox="0 0 24 24" xmlns="http://www.w3.org/2000/svg" xmlns:xlink="http://www.w3.org/1999/xlink"><g fill="none"><path d="M24 24h-24v-24h24v24Z"></path><path stroke="#323232" stroke-linecap="round" stroke-linejoin="round" stroke-width="1.5" d="M14 21c0 0 5 0 5 0 1.105 0 2-.895 2-2v-4"></path><path stroke="#323232" stroke-linecap="round" stroke-linejoin="round" stroke-width="1.5" d="M10 3c0 0-5 0-5 0 -1.105 0-2 .895-2 2v5"></path><path stroke="#323232" stroke-linecap="round" stroke-linejoin="round" stroke-width="1.5" d="M18.778 6.111l-2.222 2.222 -1.334-1.333"></path><path stroke="#323232" stroke-linecap="round" stroke-linejoin="round" stroke-width="1.5" d="M19 11h-4c-1.105 0-2-.895-2-2v-4c0-1.105.895-2 2-2h4c1.105 0 2 .895 2 2v4c0 1.105-.895 2-2 2Z"></path><path stroke="#323232" stroke-linecap="round" stroke-linejoin="round" stroke-width="1.5" d="M3.262 20.475c.145 0 .263.119.263.263 -.001.144-.119.262-.263.262 -.144 0-.262-.118-.261-.263 -.001-.144.116-.262.261-.262"></path><path stroke="#323232" stroke-linecap="round" stroke-linejoin="round" stroke-width="1.5" d="M3 17.5c2.049.045 3.455 1.451 3.5 3.5"></path><path stroke="#323232" stroke-linecap="round" stroke-linejoin="round" stroke-width="1.5" d="M10 21c-.01-.886-.16-1.715-.428-2.475 -.686-1.942-2.155-3.411-4.098-4.099 -.759-.266-1.588-.416-2.474-.426"></path></g></svg>