<?xml version="1.0" encoding="UTF-8"?><svg version="1.1" viewBox="0 0 24 24" xmlns="http://www.w3.org/2000/svg" xmlns:xlink="http://www.w3.org/1999/xlink"><g stroke-linecap="round" stroke-width="1.5" stroke="#323232" fill="none" stroke-linejoin="round"><path d="M3.261 20.475c-.145 0-.262.118-.261.262 -.001.145.117.263.261.263 .144 0 .262-.118.262-.262 0-.144-.117-.263-.262-.263"></path><path d="M6.5 21c-.045-2.049-1.451-3.455-3.5-3.5"></path><path d="M3 14c.885.01 1.715.16 2.474.428 1.943.687 3.412 2.155 4.098 4.098 .268.759.418 1.589.428 2.474"></path><path d="M3 10v-5c0-1.105.895-2 2-2h14c1.105 0 2 .895 2 2v14c0 1.105-.895 2-2 2h-5"></path></g><path fill="none" d="M0 0h24v24h-24v-24Z"></path></svg>