<svg id="Layer_3" data-name="Layer 3" xmlns="http://www.w3.org/2000/svg" viewBox="0 0 24 24"><path d="M16,12.50156c0,1.90935-2.3769,3.322-3.4682,3.87167a1.17877,1.17877,0,0,1-1.06306.00026C10.37769,15.82405,8,14.40823,8,12.50156V9.793a.51033.51033,0,0,1,.47645-.49525A5.69523,5.69523,0,0,0,11.41288,8.195a.98119.98119,0,0,1,1.17424,0,5.69523,5.69523,0,0,0,2.93642,1.10275A.51033.51033,0,0,1,16,9.793Z" fill="none" stroke="#323232" stroke-linecap="round" stroke-linejoin="round" stroke-width="1.5"/><path d="M20.582,9.353A8.839,8.839,0,0,1,21,12a9,9,0,1,1-9-9,8.839,8.839,0,0,1,2.647.418" fill="none" stroke="#323232" stroke-linecap="round" stroke-linejoin="round" stroke-width="1.5"/><path d="M17.79894,5.062,19,6.262l1.99893-2" fill="none" stroke="#323232" stroke-linecap="round" stroke-linejoin="round" stroke-width="1.5"/><path d="M24,0H0V24H24Z" fill="none"/></svg>