<?xml version="1.0" encoding="UTF-8"?><svg version="1.1" viewBox="0 0 24 24" xmlns="http://www.w3.org/2000/svg" xmlns:xlink="http://www.w3.org/1999/xlink"><defs><path d="M0 0h24v24h-24v-24Z" id="a"></path></defs><g stroke-linecap="round" stroke-width="1.5" stroke="#323232" fill="none" stroke-linejoin="round"><path d="M6.722 19.278c-.576-.417-1.101-.898-1.562-1.438"></path><path d="M3.523 9c.561-1.583 1.545-2.965 2.826-4"></path><path d="M3 12c0 1.054.19 2.06.523 3"></path><path d="M18.365 3.913c.932 0 1.688.756 1.688 1.688 0 .932-.756 1.688-1.688 1.688 -.932 0-1.688-.756-1.688-1.688 .001-.932.757-1.688 1.688-1.688"></path><path d="M17.053 4.553c-1.441-.98-3.18-1.553-5.053-1.553 -.912 0-1.791.138-2.62.39"></path><path d="M9.38 20.61c.829.252 1.708.39 2.62.39 4.971 0 9-4.029 9-9 0-.543-.056-1.072-.148-1.588"></path><path d="M15 13.25c0 1.65-3 2.75-3 2.75 0 0-3-1.1-3-2.75v-3.321l2.186-.787c.526-.189 1.1-.189 1.626 0l2.188.787c0 0 0 3.321 0 3.321Z"></path></g><use fill="none" xlink:href="#a"></use><use xlink:href="#a" fill="none"></use></svg>