<?xml version="1.0" encoding="UTF-8"?><svg version="1.1" viewBox="0 0 24 24" xmlns="http://www.w3.org/2000/svg" xmlns:xlink="http://www.w3.org/1999/xlink"><g fill="none"><path d="M0 0h24v24h-24v-24Z"></path><path stroke="#323232" stroke-linecap="round" stroke-linejoin="round" stroke-width="1.5" d="M20 11.182c0 4.541-3.413 8.787-8 9.818 -4.587-1.031-8-5.277-8-9.818v-3.944c0-.812.491-1.544 1.156-1.815l5-2.046c1.213-.497 2.475-.497 3.601-.036l5 2.046c.752.308 1.243 1.039 1.243 1.851v3.944Z"></path><path stroke="#323232" stroke-linecap="round" stroke-linejoin="round" stroke-width="1.5" d="M12.177 11.323c.098.098.098.256 0 .354 -.098.098-.256.098-.354 0 -.098-.098-.098-.256 0-.354 .098-.098.256-.097.354 0"></path><path stroke="#323232" stroke-linecap="round" stroke-linejoin="round" stroke-width="1.5" d="M16.177 11.323c.098.098.098.256 0 .354 -.098.098-.256.098-.354 0 -.098-.098-.098-.256 0-.354 .098-.098.256-.097.354 0"></path><path stroke="#323232" stroke-linecap="round" stroke-linejoin="round" stroke-width="1.5" d="M8.177 11.323c.098.098.098.256 0 .354 -.098.098-.256.098-.354 0 -.098-.098-.098-.256 0-.354 .098-.098.256-.097.354 0"></path></g></svg>