<svg id="Layer_3" data-name="Layer 3" xmlns="http://www.w3.org/2000/svg" viewBox="0 0 24 24"><path d="M7.12132,20.12133,3.87868,16.87869A3,3,0,0,1,3,14.75737V9.24365a3,3,0,0,1,.87868-2.12132L7.12232,3.87869A3,3,0,0,1,9.24364,3h5.51272a3,3,0,0,1,2.12132.87868l3.24364,3.24364A3,3,0,0,1,21,9.24365v5.51372a3,3,0,0,1-.87835,2.121L16.88,20.121A3,3,0,0,1,14.75836,21H9.24264A3,3,0,0,1,7.12132,20.12133Z" fill="none" stroke="#323232" stroke-linecap="round" stroke-linejoin="round" stroke-width="1.5"/><path d="M8,12.25c0,1.90546,2.37467,3.32069,3.46667,3.87089a1.16608,1.16608,0,0,0,1.06666,0C13.62533,15.5707,16,14.15847,16,12.25l0-2.70692a.51035.51035,0,0,0-.47647-.49526,5.69471,5.69471,0,0,1-2.93634-1.10274.98117.98117,0,0,0-1.17433,0A5.6945,5.6945,0,0,1,8.47649,9.04782.50355.50355,0,0,0,8,9.54308Z" fill="none" stroke="#323232" stroke-linecap="round" stroke-linejoin="round" stroke-width="1.5"/><rect y="0.00001" width="24" height="24" fill="none"/></svg>