<?xml version="1.0" encoding="UTF-8"?><svg version="1.1" viewBox="0 0 24 24" xmlns="http://www.w3.org/2000/svg" xmlns:xlink="http://www.w3.org/1999/xlink"><!--Generated by IJSVG (https://github.com/iconjar/IJSVG)--><g stroke-linecap="round" stroke-width="1.5" stroke="#323232" fill="none" stroke-linejoin="round"><path d="M20,10.5c0,-4.695 -3.805,-8.5 -8.5,-8.5c-4.695,0 -8.5,3.805 -8.5,8.5c0,4.695 3.805,8.5 8.5,8.5"></path><path d="M3.887,14.281h0.058c2.833,0 4.722,-0.162 4.722,-2.833c0,-2.833 2.833,-2.833 2.833,-4.722c0,-2.112 -3.778,-1.889 -3.778,-3.778v-0.068"></path><path d="M20,10.5h-3.068c-2.105,0 -3.222,-2.487 -1.824,-4.061l2.031,-2.286"></path><path d="M17.478,20.853c0.324,0.196 0.721,0.196 1.045,0c0.859,-0.521 2.477,-1.71 2.477,-3.286v-1.944c0,-0.422 -0.265,-0.798 -0.662,-0.939l-1.526,-0.545c-0.526,-0.188 -1.1,-0.188 -1.626,0l-1.52,0.544c-0.399,0.142 -0.666,0.521 -0.666,0.945v1.939c0,1.576 1.618,2.765 2.478,3.286Z"></path></g><path fill="none" d="M24,24h-24v-24h24v24Z"></path></svg>