<?xml version="1.0" encoding="UTF-8"?><svg version="1.1" viewBox="0 0 24 24" xmlns="http://www.w3.org/2000/svg" xmlns:xlink="http://www.w3.org/1999/xlink"><g stroke-linecap="round" stroke-width="1.5" stroke="#323232" fill="none" stroke-linejoin="round"><path d="M18.364 5.63604c3.51472 3.51472 3.51472 9.2132 0 12.7279 -3.51472 3.51472-9.2132 3.51472-12.7279 0 -3.51472-3.51472-3.51472-9.2132-1.77636e-15-12.7279 3.51472-3.51472 9.2132-3.51472 12.7279-1.77636e-15"></path><path d="M16.538 11.865c0 2.576-1.936 4.985-4.538 5.57 -2.602-.585-4.538-2.994-4.538-5.57v-2.024c0-.461.279-.876.705-1.05l2.836-1.161c.639-.262 1.355-.262 1.993 0l2.836 1.161c.427.175.705.589.705 1.05v2.024Z"></path></g><path fill="none" d="M24 24h-24v-24h24v24Z"></path></svg>