<svg id="Layer_3" data-name="Layer 3" xmlns="http://www.w3.org/2000/svg" viewBox="0 0 24 24"><rect x="3" y="3" width="18" height="18" rx="5" stroke-width="1.5" stroke="#323232" stroke-linecap="round" stroke-linejoin="round" fill="none"/><path d="M16.49993,9.24228,16.5,12.2691c0,2.10517-2.56837,3.67363-3.8264,4.31747a1.46955,1.46955,0,0,1-1.34539.0009C10.07083,15.9441,7.5,14.372,7.5,12.2691l.00007-3.02683a.50032.50032,0,0,1,.477-.49311A6.4061,6.4061,0,0,0,11.4128,7.44875a.9667.9667,0,0,1,1.17439,0A6.40626,6.40626,0,0,0,16.0229,8.74917.507.507,0,0,1,16.49993,9.24228Z" fill="none" stroke="#323232" stroke-linecap="round" stroke-linejoin="round" stroke-width="1.5"/><path d="M0,0H24V24H0Z" fill="none"/></svg>