<svg id="Layer_3" data-name="Layer 3" xmlns="http://www.w3.org/2000/svg" viewBox="0 0 24 24"><path d="M0,0H24V24H0Z" fill="none"/><path d="M17,2a5,5,0,0,1,5,5" fill="none" stroke="#323232" stroke-linecap="round" stroke-linejoin="round" stroke-width="1.5"/><path d="M17,5a2,2,0,0,1,2,2" fill="none" stroke="#323232" stroke-linecap="round" stroke-linejoin="round" stroke-width="1.5"/><path d="M13,3H8A5,5,0,0,0,3,8v8a5,5,0,0,0,5,5h8a5,5,0,0,0,5-5V11" fill="none" stroke="#323232" stroke-linecap="round" stroke-linejoin="round" stroke-width="1.5"/><path d="M16,9.54308l0,2.74617c0,1.8206-2.16106,3.18961-3.308,3.78946a1.48315,1.48315,0,0,1-1.382.001C10.16344,15.4801,8,14.108,8,12.28925L8,9.54318a.50355.50355,0,0,1,.47645-.49525A5.69459,5.69459,0,0,0,11.41307,7.945a.98075.98075,0,0,1,1.17385,0A5.69462,5.69462,0,0,0,15.5235,9.04793.51033.51033,0,0,1,16,9.54308Z" fill="none" stroke="#323232" stroke-linecap="round" stroke-linejoin="round" stroke-width="1.5"/></svg>