<svg xmlns="http://www.w3.org/2000/svg" viewBox="0 0 24 24"><g id="Layer_2" data-name="Layer 2"><path d="M0,0H24V24H0Z" fill="none"/><path d="M0,0H24V24H0Z" fill="none"/><path d="M18.89612,14H5.5A1.5,1.5,0,0,1,4,12.5V5A2,2,0,0,1,6,3h4" fill="none" stroke="#323232" stroke-linecap="round" stroke-linejoin="round" stroke-width="1.5"/><line x1="10" y1="18.00001" x2="14" y2="18.00001" fill="none" stroke="#323232" stroke-linecap="round" stroke-linejoin="round" stroke-width="1.5"/><path d="M18.99878,21H5.00122a2,2,0,0,1-1.92308-2.54936l1.0642-3.72532A1,1,0,0,1,5.10388,14H18.89612a1,1,0,0,1,.96153.72532l1.06421,3.72532A2,2,0,0,1,18.99878,21Z" fill="none" stroke="#323232" stroke-linecap="round" stroke-linejoin="round" stroke-width="1.5"/><line x1="8.2" y1="6" x2="10.2" y2="6" fill="none" stroke="#323232" stroke-linecap="round" stroke-linejoin="round" stroke-width="1.5"/><line x1="9.2" y1="9" x2="10.2" y2="9" fill="none" stroke="#323232" stroke-linecap="round" stroke-linejoin="round" stroke-width="1.5"/><path d="M14,6.99483c0,1.68347,2.11839,2.92962,3.06072,3.40085a.977.977,0,0,0,.87921-.00034C18.88257,9.92383,21,8.68057,21,6.99483l0-2.397a.51159.51159,0,0,0-.47317-.49442,4.98261,4.98261,0,0,1-2.45661-.91867.97233.97233,0,0,0-1.1404,0,4.98261,4.98261,0,0,1-2.45661.91867A.51159.51159,0,0,0,14,4.59781Z" fill="none" stroke="#323232" stroke-linecap="round" stroke-linejoin="round" stroke-width="1.5"/></g></svg>