<svg id="Layer_3" data-name="Layer 3" xmlns="http://www.w3.org/2000/svg" viewBox="0 0 24 24"><path d="M24,0V24H0" fill="none"/><path d="M11.00329,20a9,9,0,1,1,8.941-10" fill="none" stroke="#323232" stroke-linecap="round" stroke-linejoin="round" stroke-width="1.5"/><line x1="16" y1="9.5" x2="6" y2="9.5" fill="none" stroke="#323232" stroke-linecap="round" stroke-linejoin="round" stroke-width="1.5"/><path d="M6.5,9.5l.73926,4.14A1.65009,1.65009,0,0,0,8.86359,15h4.27282a1.65009,1.65009,0,0,0,1.62433-1.36L15.5,9.5" fill="none" stroke="#323232" stroke-linecap="round" stroke-linejoin="round" stroke-width="1.5"/><line x1="13" y1="7" x2="14.69232" y2="9.5" fill="none" stroke="#323232" stroke-linecap="round" stroke-linejoin="round" stroke-width="1.5"/><line x1="9" y1="7" x2="7.30774" y2="9.5" fill="none" stroke="#323232" stroke-linecap="round" stroke-linejoin="round" stroke-width="1.5"/><path d="M18.293,20.70711,21.70712,17.293a1,1,0,0,0,0-1.41421l-1.58588-1.58588a1,1,0,0,0-1.41421,0L15.29289,17.707A1,1,0,0,0,15,18.41413V20.5a.5.5,0,0,0,.5.5h2.08588A1,1,0,0,0,18.293,20.70711Z" fill="none" stroke="#323232" stroke-linecap="round" stroke-linejoin="round" stroke-width="1.5"/></svg>