<svg viewBox="0 0 24 24" xmlns="http://www.w3.org/2000/svg"><g stroke-linecap="round" stroke-width="1.5" stroke="#323232" fill="none" stroke-linejoin="round"><path d="M6 11V8.625l0 0c-.01-1.11.89-2.01 1.99-2.01h11l-.01 0c1.1-.01 2 .89 2 1.99v10.37 0c0 1.1-.9 2-2 2h-6"/><path d="M13.5 2.37v0l-.01 0c1.93-.01 3.5 1.56 3.5 3.49 0 0 0 0 0 0v0 .75h-7v-.75l0-.01c0-1.94 1.56-3.5 3.5-3.5Z"/><path d="M7 13.625a4 4 0 1 0 0 8 4 4 0 1 0 0-8Z"/><path d="M8.08 17.58h-.01c-.03 0-.05.01-.05.04 0 .02.01.04.04.04 .02-.01.04-.02.04-.05 -.001-.01-.001-.01-.01-.01v0l-.001-.01c0-.03-.02-.05-.05-.05 -.01 0-.01 0-.01 0"/><path d="M5.91 17.58l0 0c-.03-.01-.05.01-.05.04 -.01 0-.01 0-.01 0v0l-.01 0c-.01.02.01.04.04.04 .02 0 .04-.02.04-.05 0-.03-.02-.05-.05-.05 -.01-.001-.01 0-.01 0v0"/></g><path fill="none" d="M0 0h24v24H0Z"/></svg>