<svg width="24" height="24" viewBox="0 0 24 24" fill="none" xmlns="http://www.w3.org/2000/svg">
<path fill-rule="evenodd" clip-rule="evenodd" d="M5.49805 6.25H18.498C19.7403 6.25 20.748 7.25779 20.748 8.5V19C20.748 20.5192 19.5173 21.75 17.998 21.75H5.99805C4.47883 21.75 3.24805 20.5192 3.24805 19V8.5C3.24805 7.25779 4.25583 6.25 5.49805 6.25ZM18.498 7.75008H5.49805C5.08426 7.75008 4.74805 8.0863 4.74805 8.50008V19.0001C4.74805 19.6909 5.30726 20.2501 5.99805 20.2501H17.998C18.6888 20.2501 19.248 19.6909 19.248 19.0001V8.50008C19.248 8.0863 18.9118 7.75008 18.498 7.75008Z" fill="white"/>
<path d="M15.999 9.55005L16.1157 9.55677C16.6134 9.61447 17 10.0367 17 10.55C17 11.1023 16.5522 11.55 16 11.55C15.4478 11.55 15 11.1023 15 10.5555C14.9963 10.0376 15.3874 9.61058 15.8898 9.55595L15.999 9.55005Z" fill="white"/>
<path d="M7.99705 9.55005L8.11375 9.55677C8.61142 9.61447 8.99805 10.0367 8.99805 10.55C8.99805 11.1023 8.55027 11.55 7.99805 11.55C7.44584 11.55 6.99805 11.1023 6.99807 10.5555C6.99432 10.0376 7.38543 9.61058 7.8878 9.55595L7.99705 9.55005Z" fill="white"/>
<path d="M12.248 2.25C14.6623 2.25 16.6325 4.1513 16.7431 6.53817L16.748 6.75V7C16.748 7.41421 16.4123 7.75 15.998 7.75C15.6184 7.75 15.3046 7.46785 15.2549 7.10177L15.248 7V6.75C15.248 5.15238 13.9991 3.84634 12.4243 3.75509L12.248 3.75H11.748C10.1504 3.75 8.84439 4.99898 8.75314 6.57373L8.74805 6.75V7C8.74805 7.41421 8.41226 7.75 7.99805 7.75C7.61835 7.75 7.30456 7.46785 7.25489 7.10177L7.24805 7V6.75C7.24805 4.33579 9.14935 2.36551 11.5362 2.2549L11.748 2.25H12.248Z" fill="white"/>
</svg>
