<?xml version="1.0" encoding="UTF-8"?><svg version="1.1" viewBox="0 0 24 24" xmlns="http://www.w3.org/2000/svg" xmlns:xlink="http://www.w3.org/1999/xlink"><!--Generated by IJSVG (https://github.com/iconjar/IJSVG)--><g stroke-linecap="round" stroke-width="1.5" stroke="#323232" fill="none" stroke-linejoin="round"><path d="M2,21h3"></path><path d="M19,21h3"></path><path d="M20,21v-11.24"></path><path d="M4,21v-11.24"></path><path d="M4.301,9.778c-1.698,-0.012 -2.805,-1.693 -2.069,-3.142l1.716,-3.377c0.39,-0.77 1.212,-1.259 2.114,-1.259h11.876c0.902,0 1.724,0.489 2.115,1.259l1.716,3.377c0.736,1.449 -0.371,3.13 -2.069,3.142c-1.417,0 -2.566,-0.968 -2.566,-2.163v-0.048c0,1.221 -1.149,2.211 -2.566,2.211c-1.419,0 -2.568,-0.99 -2.568,-2.211c0,1.221 -1.149,2.211 -2.566,2.211c-1.417,0 -2.566,-0.99 -2.566,-2.211v0.048c-0.001,1.195 -1.15,2.163 -2.567,2.163Z"></path><path d="M13.16,18.9v0.6"></path><path d="M8.571,16.5h6.858c0.638,0 1.112,0.589 0.977,1.212l-0.758,3.5c-0.1,0.46 -0.507,0.788 -0.977,0.788h-5.342c-0.471,0 -0.878,-0.328 -0.977,-0.788l-0.758,-3.5c-0.135,-0.623 0.34,-1.212 0.977,-1.212Z"></path><path d="M10,14l-0.94,2.5"></path><path d="M14,14l0.94,2.5"></path><path d="M10.84,18.9v0.6"></path></g><path fill="none" d="M0,0h24v24h-24Z"></path></svg>