<?xml version="1.0" encoding="UTF-8"?><svg version="1.1" viewBox="0 0 24 24" xmlns="http://www.w3.org/2000/svg" xmlns:xlink="http://www.w3.org/1999/xlink"><!--Generated by IJSVG (https://github.com/iconjar/IJSVG)--><g stroke-linecap="round" stroke-width="1.5" stroke="#323232" fill="none" stroke-linejoin="round"><path d="M12,19.91h9"></path><path d="M19.78,9.78v10.13"></path><path d="M12,13h4v3h-4Z"></path><path stroke-width="1.5242" d="M4.636,13h2.455c0.904,0 1.636,0.733 1.636,1.636v5.727c0,0.904 -0.732,1.637 -1.636,1.637h-2.455c-0.903,0 -1.636,-0.733 -1.636,-1.636v-5.727c0,-0.904 0.733,-1.637 1.636,-1.637Z"></path><path stroke-width="1.5242" d="M5.89936,19.7146c0.0195262,0.0195262 0.0195262,0.0511845 0,0.0707107c-0.0195262,0.0195262 -0.0511845,0.0195262 -0.0707107,0c-0.0195262,-0.0195262 -0.0195262,-0.0511845 0,-0.0707107c0.0195262,-0.0195262 0.0511845,-0.0195262 0.0707107,0"></path><path d="M4.301,9.778c-1.698,-0.012 -2.805,-1.693 -2.069,-3.142l1.716,-3.377c0.39,-0.77 1.212,-1.259 2.114,-1.259h11.876c0.902,0 1.724,0.489 2.115,1.259l1.716,3.377c0.736,1.449 -0.371,3.13 -2.069,3.142c-1.417,0 -2.566,-0.968 -2.566,-2.163v-0.048c0,1.221 -1.149,2.211 -2.566,2.211c-1.419,0 -2.568,-0.99 -2.568,-2.211c0,1.221 -1.149,2.211 -2.566,2.211c-1.417,0 -2.566,-0.99 -2.566,-2.211v0.048c-0.001,1.195 -1.15,2.163 -2.567,2.163Z"></path></g><path fill="none" d="M0,0h24v24h-24Z"></path></svg>