<svg id="Layer_3" data-name="Layer 3" xmlns="http://www.w3.org/2000/svg" viewBox="0 0 24 24"><path d="M0,0H24V24H0Z" fill="none"/><path d="M6.77389,15.15748,7,15.38707l.22614-.22962a2.18706,2.18706,0,0,1,3.12635,0h0a2.2692,2.2692,0,0,1,0,3.17449L8.23743,20.47955a1.73131,1.73131,0,0,1-2.47486,0L3.64751,18.332a2.2692,2.2692,0,0,1,0-3.17451h0A2.18708,2.18708,0,0,1,6.77389,15.15748Z" fill="none" stroke="#323232" stroke-linecap="round" stroke-linejoin="round" stroke-width="1.5"/><path d="M12,21h4a5,5,0,0,0,5-5V8a5,5,0,0,0-5-5H8A5,5,0,0,0,3,8v4" fill="none" stroke="#323232" stroke-linecap="round" stroke-linejoin="round" stroke-width="1.5"/><path d="M14,16h3" fill="none" stroke="#323232" stroke-linecap="round" stroke-linejoin="round" stroke-width="1.5"/><line x1="16" y1="16" x2="16" y2="10.86575" fill="none" stroke="#323232" stroke-linecap="round" stroke-linejoin="round" stroke-width="1.5"/><path d="M8.64513,10.99963A1.62815,1.62815,0,0,0,9.90979,10.396a.4802.4802,0,0,1,.82573,0,1.62662,1.62662,0,0,0,2.52932,0,.48019.48019,0,0,1,.82572,0,1.62817,1.62817,0,0,0,1.26466.60362,1.66057,1.66057,0,0,0,1.60114-1.26636A1.53164,1.53164,0,0,0,16.80945,8.649l-.41662-.82477A1.50105,1.50105,0,0,0,15.053,7H8.94724a1.5,1.5,0,0,0-1.3389.82372l-.41707.8257a1.53164,1.53164,0,0,0-.14691,1.08423A1.66064,1.66064,0,0,0,8.6455,11" fill="none" stroke="#323232" stroke-linecap="round" stroke-linejoin="round" stroke-width="1.5"/></svg>