<svg id="Layer_3" data-name="Layer 3" xmlns="http://www.w3.org/2000/svg" viewBox="0 0 24 24"><path d="M19.33031,3.01724l.1697.17231.17541-.18541a1.59479,1.59479,0,0,1,2.305-.02314l.03566.03621a1.70808,1.70808,0,0,1,0,2.38246L20.26179,7.18094a1.06892,1.06892,0,0,1-1.52357,0L16.984,5.39971a1.70809,1.70809,0,0,1,0-2.38247h0A1.64617,1.64617,0,0,1,19.33031,3.01724Z" fill="none" stroke="#323232" stroke-linecap="round" stroke-linejoin="round" stroke-width="1.5"/><path d="M13.89475,3.2125A9.02038,9.02038,0,1,0,20.7693,10" fill="none" stroke="#323232" stroke-linecap="round" stroke-linejoin="round" stroke-width="1.5"/><path d="M10.5,10.75a1.5,1.5,0,0,0,3,0" fill="none" stroke="#323232" stroke-linecap="round" stroke-linejoin="round" stroke-width="1.5"/><rect x="7.50001" y="8" width="9" height="8" rx="2" stroke-width="1.5" stroke="#323232" stroke-linecap="round" stroke-linejoin="round" fill="none"/><path d="M0,0H24V24H0Z" fill="none"/></svg>