<svg id="Layer_3" data-name="Layer 3" xmlns="http://www.w3.org/2000/svg" viewBox="0 0 24 24"><path d="M15,21h3a1.99945,1.99945,0,0,0,2-2V8.5A1.50055,1.50055,0,0,0,18.5,7H5.5A1.50055,1.50055,0,0,0,4,8.5V9" fill="none" stroke="#323232" stroke-linecap="round" stroke-linejoin="round" stroke-width="1.5"/><path d="M16,7V6.75h0A3.75009,3.75009,0,0,0,12.25,3h-.5A3.75009,3.75009,0,0,0,8,6.75H8V7" fill="none" stroke="#323232" stroke-linecap="round" stroke-linejoin="round" stroke-width="1.5"/><line x1="7.00037" y1="21" x2="7.00037" y2="19" fill="none" stroke="#323232" stroke-linecap="round" stroke-linejoin="round" stroke-width="1.5"/><path d="M2,21H12" fill="none" stroke="#323232" stroke-linecap="round" stroke-linejoin="round" stroke-width="1.5"/><line x1="11" y1="21" x2="11" y2="15.86576" fill="none" stroke="#323232" stroke-linecap="round" stroke-linejoin="round" stroke-width="1.5"/><line x1="3" y1="21" x2="3" y2="15.86551" fill="none" stroke="#323232" stroke-linecap="round" stroke-linejoin="round" stroke-width="1.5"/><path d="M3.64477,15.99964A1.62815,1.62815,0,0,0,4.90943,15.396a.4802.4802,0,0,1,.82573,0,1.62662,1.62662,0,0,0,2.52932,0,.48019.48019,0,0,1,.82572,0,1.62817,1.62817,0,0,0,1.26466.60362A1.66057,1.66057,0,0,0,11.956,14.73328a1.53164,1.53164,0,0,0-.14691-1.08423l-.41662-.82477A1.50105,1.50105,0,0,0,10.05264,12H3.94688a1.5,1.5,0,0,0-1.3389.82372l-.41707.8257A1.53164,1.53164,0,0,0,2.044,14.73365,1.66064,1.66064,0,0,0,3.64514,16" fill="none" stroke="#323232" stroke-linecap="round" stroke-linejoin="round" stroke-width="1.5"/><path d="M24,0H0V24H24Z" fill="none"/></svg>