<svg xmlns="http://www.w3.org/2000/svg" viewBox="0 0 24 24"><g id="Layer_2" data-name="Layer 2"><path d="M15,21h3a2,2,0,0,0,2-2V9a2,2,0,0,0-2-2H6A2,2,0,0,0,4,9v1" fill="none" stroke="#323232" stroke-linecap="round" stroke-linejoin="round" stroke-width="1.5"/><path d="M8.5,7V6A3.5,3.5,0,0,1,12,2.5h0A3.5,3.5,0,0,1,15.5,6h0V7" fill="none" stroke="#323232" stroke-linecap="round" stroke-linejoin="round" stroke-width="1.5"/><path d="M10,15a2,2,0,0,1-4,0" fill="none" stroke="#323232" stroke-linecap="round" stroke-linejoin="round" stroke-width="1.5"/><rect x="3" y="12.00001" width="10" height="9" rx="2.5" transform="translate(16 33.00002) rotate(-180)" stroke-width="1.5" stroke="#323232" stroke-linecap="round" stroke-linejoin="round" fill="none"/><path d="M24,0H0V24H24Z" fill="none"/></g></svg>