<svg id="Layer_3" data-name="Layer 3" xmlns="http://www.w3.org/2000/svg" viewBox="0 0 24 24"><line x1="15" y1="15.99998" x2="20.57253" y2="15.99998" fill="none" stroke="#323232" stroke-linecap="round" stroke-linejoin="round" stroke-width="1.5"/><line x1="13.82843" y1="13.17155" x2="18.80257" y2="8.19741" fill="none" stroke="#323232" stroke-linecap="round" stroke-linejoin="round" stroke-width="1.5"/><path d="M12.00014,2h-5a4,4,0,0,0-4,4h0" fill="none" stroke="#323232" stroke-linecap="round" stroke-linejoin="round" stroke-width="1.5"/><path d="M10,21h0a5,5,0,0,0,5-5h0a4,4,0,0,0-4-4H8.68329A5.68329,5.68329,0,0,1,3,6.31669" fill="none" stroke="#323232" stroke-linecap="round" stroke-linejoin="round" stroke-width="1.5"/><path d="M5.13214,16H8a1,1,0,0,1,1,1v4a5.0021,5.0021,0,0,1-4.84213-3.74862A1.00537,1.00537,0,0,1,5.13214,16Z" fill="none" stroke="#323232" stroke-linecap="round" stroke-linejoin="round" stroke-width="1.5"/><line x1="11" y1="5.99998" x2="11" y2="11.99998" fill="none" stroke="#323232" stroke-linecap="round" stroke-linejoin="round" stroke-width="1.5"/><path d="M3.00014,6,13.5,6a7.5,7.5,0,0,1,0,15H9" fill="none" stroke="#323232" stroke-linecap="round" stroke-linejoin="round" stroke-width="1.5"/><path d="M8.05006,8.45006A.05.05,0,1,1,8,8.4a.05.05,0,0,1,.05006.05006" fill="none" stroke="#323232" stroke-linecap="round" stroke-linejoin="round" stroke-width="1.5"/><rect width="24" height="24" fill="none"/></svg>