<?xml version="1.0" encoding="UTF-8"?><svg version="1.1" viewBox="0 0 24 24" xmlns="http://www.w3.org/2000/svg" xmlns:xlink="http://www.w3.org/1999/xlink"><g stroke-linecap="round" stroke-width="1.5" stroke="#323232" fill="none" stroke-linejoin="round"><rect width="8" height="6.222" x="8" y="11.778" rx=".55228" ry="0"></rect><path d="M18.414 7.414l-3.828-3.828 6.1748e-08 6.17666e-08c-.374985-.375099-.88361-.585887-1.414-.586h-6.172l-8.74228e-08 1.77636e-15c-1.10457 4.82823e-08-2 .895431-2 2v14l2.30926e-14 3.01992e-07c1.66785e-07 1.10457.895431 2 2 2h10l-8.74228e-08-3.55271e-15c1.10457 4.82823e-08 2-.89543 2-2v-10.172l4.56117e-08.000427138c0-.53039-.210679-1.03906-.585698-1.41413Z"></path><line x1="8" x2="10.68" y1="14.44" y2="14.44"></line><line x1="10.68" x2="10.68" y1="18" y2="14.44"></line><line x1="13.33" x2="13.33" y1="11.78" y2="18"></line></g><rect width="24" height="24" fill="none"></rect></svg>