<svg width="32" height="32" viewBox="0 0 32 32" fill="none" xmlns="http://www.w3.org/2000/svg">
<path d="M20.9999 19C24.5849 19 27.509 21.8297 27.6604 25.3775L27.6666 25.6667V26.6667C27.6666 27.219 27.2189 27.6667 26.6666 27.6667C26.1603 27.6667 25.7419 27.2905 25.6757 26.8024L25.6666 26.6667V25.6667C25.6666 23.1752 23.7142 21.1398 21.256 21.0069L20.9999 21H10.9999C8.5085 21 6.47308 22.9524 6.34016 25.4106L6.33325 25.6667V26.6667C6.33325 27.219 5.88554 27.6667 5.33325 27.6667C4.82699 27.6667 4.4086 27.2905 4.34238 26.8024L4.33325 26.6667V25.6667C4.33325 22.0817 7.16299 19.1576 10.7107 19.0062L10.9999 19H20.9999Z" fill="white"/>
<path fill-rule="evenodd" clip-rule="evenodd" d="M9.66675 9.33333C9.66675 5.83553 12.5023 3 16.0001 3C19.4979 3 22.3334 5.83553 22.3334 9.33333C22.3334 12.8311 19.4979 15.6667 16.0001 15.6667C12.5023 15.6667 9.66675 12.8311 9.66675 9.33333ZM20.3334 9.33333C20.3334 6.9401 18.3933 5 16.0001 5C13.6068 5 11.6667 6.9401 11.6667 9.33333C11.6667 11.7266 13.6068 13.6667 16.0001 13.6667C18.3933 13.6667 20.3334 11.7266 20.3334 9.33333Z" fill="white"/>
</svg>
