<svg id="Layer_3" data-name="Layer 3" xmlns="http://www.w3.org/2000/svg" viewBox="0 0 24 24"><rect y="0.00001" width="24" height="24" fill="none"/><path d="M0,0H24V24H0Z" fill="none"/><path d="M17.22611,15.15749,17,15.38708l-.22614-.22962a2.18706,2.18706,0,0,0-3.12635,0h0a2.2692,2.2692,0,0,0,0,3.17449l2.11508,2.14762a1.73131,1.73131,0,0,0,2.47486,0L20.35249,18.332a2.2692,2.2692,0,0,0,0-3.17451h0A2.18708,2.18708,0,0,0,17.22611,15.15749Z" fill="none" stroke="#323232" stroke-linecap="round" stroke-linejoin="round" stroke-width="1.5"/><path d="M10,15H7a4,4,0,0,0-4,4v1" fill="none" stroke="#323232" stroke-linecap="round" stroke-linejoin="round" stroke-width="1.5"/><circle cx="11" cy="7.00001" r="4" fill="none" stroke="#323232" stroke-linecap="round" stroke-linejoin="round" stroke-width="1.5"/></svg>