<svg id="Layer_3" data-name="Layer 3" xmlns="http://www.w3.org/2000/svg" viewBox="0 0 24 24"><path d="M0,0H24V24H0Z" fill="none"/><path d="M11,15H7a4,4,0,0,0-4,4v1" fill="none" stroke="#323232" stroke-linecap="round" stroke-linejoin="round" stroke-width="1.5"/><circle cx="11" cy="7.00001" r="4" fill="none" stroke="#323232" stroke-linecap="round" stroke-linejoin="round" stroke-width="1.5"/><path d="M22,16.5A3.5,3.5,0,0,1,18.5,20a3.46127,3.46127,0,0,1-1.02325-.1698" fill="none" stroke="#323232" stroke-linecap="round" stroke-linejoin="round" stroke-width="1.5"/><path d="M18.5,13A3.5,3.5,0,0,1,22,16.5" fill="none" stroke="#323232" stroke-linecap="round" stroke-linejoin="round" stroke-width="1.5"/><path d="M15.16888,17.52032A3.46045,3.46045,0,0,1,15,16.5,3.5,3.5,0,0,1,18.5,13" fill="none" stroke="#323232" stroke-linecap="round" stroke-linejoin="round" stroke-width="1.5"/><path d="M15.16888,17.52032l-1.8966,1.89954A.93892.93892,0,0,0,13,20.07922v.988A.93279.93279,0,0,0,13.93274,22H14.925a.92675.92675,0,0,0,.65936-.27441l1.8924-1.89539" fill="none" stroke="#323232" stroke-linecap="round" stroke-linejoin="round" stroke-width="1.5"/><path d="M18.55,16.50006a.05.05,0,1,1-.05006-.05006.05.05,0,0,1,.05006.05006" fill="none" stroke="#323232" stroke-linecap="round" stroke-linejoin="round" stroke-width="1.5"/></svg>