<?xml version="1.0" encoding="UTF-8"?><svg version="1.1" viewBox="0 0 24 24" xmlns="http://www.w3.org/2000/svg" xmlns:xlink="http://www.w3.org/1999/xlink"><!--Generated by IJSVG (https://github.com/iconjar/IJSVG)--><g stroke-linecap="round" stroke-width="1.5" stroke="#323232" fill="none" stroke-linejoin="round"><path d="M12.4692,3.02278c1.36371,1.36371 1.36371,3.57472 0,4.93843c-1.36371,1.36371 -3.57472,1.36371 -4.93843,8.88178e-16c-1.36371,-1.36371 -1.36371,-3.57472 -8.88178e-16,-4.93843c1.36371,-1.36371 3.57472,-1.36371 4.93843,-8.88178e-16"></path><path d="M14.363,12.796c-1.299,-0.519 -2.823,-0.805 -4.363,-0.805c-4.048,0 -8,1.967 -8,4.992v1c0,0.552 0.448,1 1,1h9.413"></path><path d="M17,22c-2.761,0 -5,-2.238 -5,-5c0,-2.704 2.3,-5.003 5.004,-5c2.76,0.002 4.996,2.24 4.996,5c0,2.761 -2.238,5 -5,5"></path><path d="M17,16.78v-2"></path><path d="M17.001,19.25c0.077,0 0.139,-0.062 0.138,-0.139c0,-0.077 -0.062,-0.139 -0.139,-0.139c-0.077,0 -0.139,0.062 -0.139,0.139c-3.55271e-15,0.077 0.062,0.139 0.14,0.139"></path></g><path fill="none" d="M0,0h24v24h-24v-24Z"></path></svg>