<svg id="Layer_3" data-name="Layer 3" xmlns="http://www.w3.org/2000/svg" viewBox="0 0 24 24"><path d="M3.5,16.5v-.5677A17.86226,17.86226,0,0,1,4.03333,11.6h0a17.86266,17.86266,0,0,0,.53334-4.33233v-2.201A1.06666,1.06666,0,0,1,5.63333,4h5.33334a1.06666,1.06666,0,0,1,1.06666,1.06667V6.82988a5.5,5.5,0,0,0,4.72219,5.44472l.16874.0241A3,3,0,0,1,19.5,15.26854V16.5A1.5,1.5,0,0,1,18,18H15.05032a2.13333,2.13333,0,0,1-1.50849-.62484l-.88366-.88365a2.13331,2.13331,0,0,0-1.50849-.62484H9.9a1.06667,1.06667,0,0,0-1.06667,1.06666h0A1.06666,1.06666,0,0,1,7.76667,18H5A1.5,1.5,0,0,1,3.5,16.5Z" fill="none" stroke="#323232" stroke-linecap="round" stroke-linejoin="round" stroke-width="1.5"/><line x1="6" y1="18" x2="6" y2="21" fill="none" stroke="#323232" stroke-linecap="round" stroke-linejoin="round" stroke-width="1.5"/><line x1="16.5" y1="18" x2="16.5" y2="21" fill="none" stroke="#323232" stroke-linecap="round" stroke-linejoin="round" stroke-width="1.5"/><path d="M21,19h0a2,2,0,0,1-2,2H3" fill="none" stroke="#323232" stroke-linecap="round" stroke-linejoin="round" stroke-width="1.5"/><line x1="12.03333" y1="6.97442" x2="4.56667" y2="6.97442" fill="none" stroke="#323232" stroke-linecap="round" stroke-linejoin="round" stroke-width="1.5"/><path d="M0,0H24V24H0Z" fill="none"/></svg>