<?xml version="1.0" encoding="UTF-8"?><svg version="1.1" viewBox="0 0 24 24" xmlns="http://www.w3.org/2000/svg" xmlns:xlink="http://www.w3.org/1999/xlink"><!--Generated by IJSVG (https://github.com/iconjar/IJSVG)--><g fill="none"><path d="M0,0h24v24h-24Z"></path><path stroke="#323232" stroke-linecap="round" stroke-linejoin="round" stroke-width="1.5" d="M12.002,3v0c4.969,0 8.998,4.029 8.998,8.998v0.004c0,4.97 -4.029,8.998 -8.998,8.998h-0.004c-4.969,0 -8.998,-4.028 -8.998,-8.998v0c0,-4.971 4.03,-9.002 9.002,-9.002Z"></path><path stroke="#323232" stroke-linecap="round" stroke-linejoin="round" stroke-width="1.5" d="M7.146,11.877l4.44,4.883c0.222,0.244 0.606,0.245 0.829,0c1.008,-1.108 3.568,-3.924 4.441,-4.884c0.174,-0.191 0.194,-0.477 0.048,-0.691l-1.967,-2.885c-0.103,-0.152 -0.274,-0.242 -0.457,-0.242h-4.959c-0.183,0 -0.354,0.091 -0.457,0.242l-1.966,2.885c-0.147,0.214 -0.127,0.5 0.048,0.692Z"></path></g></svg>