<svg xmlns="http://www.w3.org/2000/svg" viewBox="0 0 24 24"><g id="Layer_2" data-name="Layer 2"><path d="M15,14l.21115-.10557A3.23609,3.23609,0,0,0,17,11h0c0-2.20917-2.23854-4-5-4S7,8.79082,7,11H7a3.23645,3.23645,0,0,0,1.78906,2.89453L9,14v2a1,1,0,0,0,1,1h4a1,1,0,0,0,1-1Z" fill="none" stroke="#323232" stroke-linecap="round" stroke-linejoin="round" stroke-width="1.5"/><path d="M17.369,17.364l1,1-.006.00082A8.99995,8.99995,0,0,1,5.63519,5.637L5.637,5.631l1,1" fill="none" stroke="#323232" stroke-linecap="round" stroke-linejoin="round" stroke-width="1.5"/><path d="M20.34912,15.34912A8.99056,8.99056,0,0,0,8.65088,3.65088" fill="none" stroke="#323232" stroke-linecap="round" stroke-linejoin="round" stroke-width="1.5"/><path d="M13.50064,11a.125.125,0,1,1-.12548.125A.12434.12434,0,0,1,13.50064,11" fill="none" stroke="#323232" stroke-linecap="round" stroke-linejoin="round" stroke-width="1.5"/><path d="M10.50064,11a.125.125,0,1,1-.12548.125A.12434.12434,0,0,1,10.50064,11" fill="none" stroke="#323232" stroke-linecap="round" stroke-linejoin="round" stroke-width="1.5"/><path d="M0,0H24V24H0Z" fill="none"/></g></svg>