<?xml version="1.0" encoding="UTF-8"?><svg version="1.1" viewBox="0 0 24 24" xmlns="http://www.w3.org/2000/svg" xmlns:xlink="http://www.w3.org/1999/xlink"><!--Generated by IJSVG (https://github.com/iconjar/IJSVG)--><g stroke-linecap="round" stroke-width="1.5" stroke="#323232" fill="none" stroke-linejoin="round"><path d="M5.137,3.916c1.55,-1.119 3.743,-1.215 5.393,-0.258c1.861,-0.323 3.829,-0.016 5.49,0.889c1.854,0.996 3.309,2.706 3.987,4.7c0.466,1.349 0.574,2.815 0.332,4.221c0.596,1.048 0.803,2.31 0.561,3.493c-0.255,1.305 -1.06,2.487 -2.172,3.214c-1.54,1.036 -3.656,1.094 -5.261,0.165c-1.787,0.307 -3.671,0.041 -5.287,-0.784c-1.879,-0.944 -3.377,-2.614 -4.11,-4.585c-0.531,-1.408 -0.664,-2.958 -0.412,-4.44c-0.609,-1.067 -0.806,-2.356 -0.546,-3.556c0.258,-1.226 1,-2.341 2.025,-3.059Z"></path><path d="M9.079,14.436c0.302,0.88 1.493,1.539 2.921,1.539c2,0 3,-0.884 3,-1.975v0.025v0c0,-0.88 -0.636,-1.631 -1.504,-1.775l-1.496,-0.25l-1.496,-0.249c-0.868,-0.145 -1.504,-0.896 -1.504,-1.776v0c0,-1.091 1,-1.975 3,-1.975c1.429,0 2.619,0.659 2.921,1.539"></path></g><path fill="none" fill-rule="evenodd" d="M0,0h24v24h-24Z"></path></svg>