<?xml version="1.0" encoding="UTF-8"?><svg version="1.1" viewBox="0 0 24 24" xmlns="http://www.w3.org/2000/svg" xmlns:xlink="http://www.w3.org/1999/xlink"><path d="M0 0h24v24h-24Z" fill="none" fill-rule="evenodd"></path><path fill="none" stroke="#323232" stroke-linecap="round" stroke-linejoin="round" stroke-width="1.5" d="M11.998 19.5c-.276 0-.5.224-.498.5 0 .276.224.5.5.5 .276 0 .5-.224.5-.5 0-.276-.224-.5-.502-.5"></path><g stroke-linecap="round" stroke-width="1.5" stroke="#323232" fill="#323232" stroke-linejoin="round"><path d="M16.0884 19.9116c.0488155.0488155.0488155.127961 0 .176777 -.0488155.0488155-.127961.0488155-.176777 0 -.0488155-.0488155-.0488155-.127961 0-.176777 .0488155-.0488155.127961-.0488155.176777 0"></path><path d="M8.08839 19.9116c.0488155.0488155.0488155.127961 0 .176777 -.0488155.0488155-.127961.0488155-.176777 0 -.0488155-.0488155-.0488155-.127961 0-.176777 .0488155-.0488155.127961-.0488155.176777 0"></path><path fill="none" fill-rule="evenodd" d="M18.918 16h-13.836c-1.15 0-2.082-.932-2.082-2.082v-8.836c0-1.15.932-2.082 2.082-2.082h13.837c1.149 0 2.081.932 2.081 2.082v8.837c0 1.149-.932 2.081-2.082 2.081Z"></path></g></svg>