<?xml version="1.0" encoding="UTF-8"?><svg version="1.1" viewBox="0 0 24 24" xmlns="http://www.w3.org/2000/svg" xmlns:xlink="http://www.w3.org/1999/xlink"><g stroke-linecap="round" stroke-width="1.5" stroke="#323232" fill="none" stroke-linejoin="round"><path d="M18 21.014h-12c-1.657 0-3-1.343-3-3v-12c0-1.657 1.343-3 3-3h12c1.657 0 3 1.343 3 3v12c0 1.657-1.343 3-3 3Z"></path><path d="M14 8.784l1.606-.688c.66-.283 1.394.201 1.394.919v5.998c0 .664-.636 1.144-1.275.962l-1.725-.493"></path><path d="M14 16.013v-7.998c0-.718-.734-1.202-1.394-.919l-5 2.143c-.368.157-.606.519-.606.919v4.427c0 .446.296.839.725.962l5 1.429c.639.181 1.275-.298 1.275-.963Z"></path></g><path fill="none" d="M0 .014h24v24h-24Z"></path></svg>