<?xml version="1.0" encoding="UTF-8"?><svg version="1.1" viewBox="0 0 24 24" xmlns="http://www.w3.org/2000/svg" xmlns:xlink="http://www.w3.org/1999/xlink"><!--Generated by IJSVG (https://github.com/iconjar/IJSVG)--><g fill="none"><path d="M0,0h24v24h-24v-24Z"></path><path stroke="#323232" stroke-linecap="round" stroke-linejoin="round" stroke-width="1.5" d="M13,21h4.714c1.105,0 2,-0.895 2,-2v-15c0,-0.552 -0.448,-1 -1,-1h-1.857c-0.552,0 -1,0.448 -1,1v2.306"></path><path stroke="#323232" stroke-linecap="round" stroke-linejoin="round" stroke-width="1.5" d="M3,10.714l7.698,-6.598c0.749,-0.642 1.854,-0.642 2.603,0l7.699,6.598"></path><path stroke="#323232" stroke-linecap="round" stroke-linejoin="round" stroke-width="1.5" d="M3.262,20.475c-0.145,0 -0.262,0.118 -0.261,0.262c-0.001,0.145 0.117,0.263 0.261,0.263c0.144,0 0.262,-0.118 0.262,-0.262c0,-0.144 -0.117,-0.263 -0.262,-0.263"></path><path stroke="#323232" stroke-linecap="round" stroke-linejoin="round" stroke-width="1.5" d="M6.5,21c-0.045,-2.049 -1.451,-3.455 -3.5,-3.5"></path><path stroke="#323232" stroke-linecap="round" stroke-linejoin="round" stroke-width="1.5" d="M3,14c0.885,0.01 1.715,0.16 2.474,0.428c1.943,0.687 3.412,2.155 4.098,4.098c0.268,0.759 0.418,1.589 0.428,2.474"></path></g></svg>