<?xml version="1.0" encoding="UTF-8"?><svg version="1.1" viewBox="0 0 24 24" xmlns="http://www.w3.org/2000/svg" xmlns:xlink="http://www.w3.org/1999/xlink"><!--Generated by IJSVG (https://github.com/iconjar/IJSVG)--><g stroke-linecap="round" stroke-width="1.5" stroke="#323232" fill="none" stroke-linejoin="round"><path d="M11,15.021c0,-2.21 1.79,-4 4,-4"></path><path d="M17.5,22.021v0c-1.933,0 -3.5,-1.567 -3.5,-3.5v-2.5c0,-1.105 0.895,-2 2,-2h3c1.105,0 2,0.895 2,2v2.5c0,1.933 -1.567,3.5 -3.5,3.5Z"></path><path d="M19,11.021v-1.249c0,-0.943 -0.444,-1.832 -1.198,-2.399l-4.994,-3.751c-1.066,-0.801 -2.534,-0.802 -3.601,-0.002l-5.006,3.753c-0.756,0.567 -1.201,1.456 -1.201,2.401v7.247c0,1.105 0.895,2 2,2h6"></path></g><path fill="none" d="M0,0.021h24v24h-24v-24Z"></path></svg>