<?xml version="1.0" encoding="UTF-8"?><svg version="1.1" viewBox="0 0 24 24" xmlns="http://www.w3.org/2000/svg" xmlns:xlink="http://www.w3.org/1999/xlink"><!--Generated by IJSVG (https://github.com/iconjar/IJSVG)--><g stroke-linecap="round" stroke-width="1.5" stroke="#323232" fill="none" stroke-linejoin="round"><path d="M14.986,10.577l-2.519,-1.763c-0.28,-0.196 -0.654,-0.196 -0.934,0l-2.518,1.762c-0.218,0.152 -0.347,0.402 -0.347,0.667v3.274c0,0.45 0.365,0.815 0.815,0.815h5.037c0.45,0 0.815,-0.365 0.815,-0.815v-3.274c-0.002,-0.265 -0.131,-0.514 -0.349,-0.666Z"></path><path d="M16,3c2.761,0 5,2.239 5,5"></path><path d="M16,6c1.105,0 2,0.895 2,2"></path><path d="M12,3h-5c-2.209,0 -4,1.791 -4,4v9c0,2.761 2.239,5 5,5h9c2.209,0 4,-1.791 4,-4v-5"></path></g><path fill="none" d="M0,0h24v24h-24v-24Z"></path></svg>