<?xml version="1.0" encoding="UTF-8"?><svg version="1.1" viewBox="0 0 24 24" xmlns="http://www.w3.org/2000/svg" xmlns:xlink="http://www.w3.org/1999/xlink"><g fill="none"><path d="M0 0h24v24h-24v-24Z"></path><path stroke="#323232" stroke-linecap="round" stroke-linejoin="round" stroke-width="1.5" d="M8.07 8.07c2.171-2.171 5.69-2.171 7.86 0"></path><path stroke="#323232" stroke-linecap="round" stroke-linejoin="round" stroke-width="1.5" d="M3.795 8.795c-1.232 3.159-.577 6.884 1.974 9.435 3.441 3.441 9.02 3.441 12.461 0 2.551-2.551 3.206-6.276 1.974-9.435"></path><path stroke="#323232" stroke-linecap="round" stroke-linejoin="round" stroke-width="1.5" d="M14.686 12.221l-2.267-1.587c-.252-.176-.589-.176-.841 0l-2.266 1.586c-.196.137-.312.362-.312.6v2.946c0 .406.328.734.733.734h4.533c.405 0 .733-.328.733-.733v-2.947c-.001-.238-.117-.462-.313-.599Z"></path><path stroke="#323232" stroke-linecap="round" stroke-linejoin="round" stroke-width="1.5" d="M5.77 5.77c3.441-3.441 9.02-3.441 12.461 0"></path></g></svg>