<?xml version="1.0" encoding="UTF-8"?><svg version="1.1" viewBox="0 0 24 24" xmlns="http://www.w3.org/2000/svg" xmlns:xlink="http://www.w3.org/1999/xlink"><!--Generated by IJSVG (https://github.com/iconjar/IJSVG)--><g fill="none"><path d="M0,24v-24h24v24"></path><path stroke="#323232" stroke-linecap="round" stroke-linejoin="round" stroke-width="1.5" d="M8,11v2"></path><path stroke="#323232" stroke-linecap="round" stroke-linejoin="round" stroke-width="1.5" d="M3,5.003v13.994c0,1.487 1.565,2.454 2.894,1.789l4,-2c0.678,-0.34 1.106,-1.032 1.106,-1.79v-9.993c0,-0.758 -0.428,-1.45 -1.106,-1.789l-4,-2c-1.329,-0.665 -2.894,0.302 -2.894,1.789Z"></path><path stroke="#323232" stroke-linecap="round" stroke-linejoin="round" stroke-width="1.5" d="M19.891,15.247c1.478,-1.894 1.478,-4.601 0,-6.495"></path><path stroke="#323232" stroke-linecap="round" stroke-linejoin="round" stroke-width="1.5" d="M17.354,10.106c0.861,1.104 0.861,2.683 0,3.788"></path><path stroke="#323232" stroke-linecap="round" stroke-linejoin="round" stroke-width="1.5" d="M18,17.999v1c0,1.105 -0.895,2 -2,2h-11c-1.105,0 -2,-0.895 -2,-2v-13.999c0,-1.105 0.895,-2 2,-2h11c1.105,0 2,0.895 2,2v1"></path></g></svg>