<?xml version="1.0" encoding="UTF-8"?><svg version="1.1" viewBox="0 0 24 24" xmlns="http://www.w3.org/2000/svg" xmlns:xlink="http://www.w3.org/1999/xlink"><!--Generated by IJSVG (https://github.com/iconjar/IJSVG)--><g stroke-linecap="round" stroke-width="1.5" stroke="#323232" fill="none" stroke-linejoin="round"><path d="M16.882,7.842c0,-2.696 -2.186,-4.882 -4.882,-4.882c-2.696,0 -4.882,2.186 -4.882,4.882c0,4.273 -0.213,6.409 -4.118,8.118c2,0.882 2,0.882 3,3c3,0 4,2 6,2c2,0 3,-2 6,-2c1,-2.118 1,-2.118 3,-3c-3.906,-1.709 -4.118,-3.845 -4.118,-8.118Z"></path><path d="M3,15.961c4,-2.118 4,-4.118 1,-7.118"></path><path d="M21,15.961c-4,-2.118 -4,-4.118 -1,-7.118"></path></g><path fill="none" d="M0,0h24v24h-24Z" transform="matrix(6.12323e-17,-1,1,6.12323e-17,0,24)"></path></svg>