<?xml version="1.0" encoding="UTF-8"?><svg version="1.1" viewBox="0 0 24 24" xmlns="http://www.w3.org/2000/svg" xmlns:xlink="http://www.w3.org/1999/xlink"><g stroke-linecap="round" stroke-width="1.5" stroke="#323232" fill="none" stroke-linejoin="round"><path d="M15 3h-5.172l4.3004e-08-9.18376e-12c-.53039.000113263-1.03901.210901-1.414.586l-.414.414"></path><path d="M14.5 9h-5v-2l1.06581e-14 1.50996e-07c-8.33927e-08-.552285.447715-1 1-1h3l-4.37114e-08 8.88178e-16c.552285-2.41411e-08 1 .447715 1 1Z"></path><path d="M18 12.714v1.77636e-15c0-2.05119-1.66281-3.714-3.714-3.714h-4.572l-1.62344e-07 3.55271e-15c-2.05119 8.96602e-08-3.714 1.66281-3.714 3.714v6.286l2.30926e-14 3.01992e-07c1.66785e-07 1.10457.895431 2 2 2h5"></path><line x1="12" x2="12" y1="3" y2="6"></line><path d="M18.316 15.948l1.261 1.687 4.51255e-08 5.97953e-08c.69864.925761.514523 2.2426-.411238 2.94124 -.364605.275155-.808983.423927-1.26576.423762v0l-5.91625e-08 1.90724e-10c-1.15979.00373887-2.10302-.933427-2.10676-2.09322 -.00147917-.458838.14736-.905533.423759-1.27178l1.262-1.687 2.6118e-08-3.43029e-08c.175982-.231131.506012-.275838.737144-.0998563 .0376226.0286457.0712108.0622338.0998564.0998564Z"></path></g><path fill="none" d="M0 0h24v24h-24Z"></path></svg>