<svg id="Layer_3" data-name="Layer 3" xmlns="http://www.w3.org/2000/svg" viewBox="0 0 24 24"><rect y="0.00001" width="24" height="24" transform="translate(24 24.00002) rotate(-180)" fill="none"/><line x1="3" y1="19.73054" x2="3" y2="21.00001" fill="none" stroke="#323232" stroke-linecap="round" stroke-linejoin="round" stroke-width="1.5"/><path d="M13,13.5V12a3,3,0,0,0-3-3H7a3,3,0,0,0-3,3v1.5" fill="none" stroke="#323232" stroke-linecap="round" stroke-linejoin="round" stroke-width="1.5"/><line x1="14" y1="19.72872" x2="14" y2="21.00001" fill="none" stroke="#323232" stroke-linecap="round" stroke-linejoin="round" stroke-width="1.5"/><path d="M4.5,20H13a2,2,0,0,0,2-2V15a1.5,1.5,0,0,0-1.5-1.5H13A1.5,1.5,0,0,0,11.5,15v2h-6V15A1.5,1.5,0,0,0,4,13.5H3.5A1.5,1.5,0,0,0,2,15v3a2,2,0,0,0,2,2Z" fill="none" stroke="#323232" stroke-linecap="round" stroke-linejoin="round" stroke-width="1.5"/><line x1="19" y1="20.00001" x2="19" y2="9.00001" fill="none" stroke="#323232" stroke-linecap="round" stroke-linejoin="round" stroke-width="1.5"/><path d="M20.57082,2H17.42918a1,1,0,0,0-.96152.72528l-1.42858,5A1,1,0,0,0,16.00061,9h5.99878a1,1,0,0,0,.96153-1.27472l-1.42858-5A1,1,0,0,0,20.57082,2Z" fill="none" stroke="#323232" stroke-linecap="round" stroke-linejoin="round" stroke-width="1.5"/></svg>