<?xml version="1.0" encoding="UTF-8"?><svg version="1.1" viewBox="0 0 24 24" xmlns="http://www.w3.org/2000/svg" xmlns:xlink="http://www.w3.org/1999/xlink"><g stroke-linecap="round" stroke-width="1.5" stroke="#323232" fill="none" stroke-linejoin="round"><path d="M10.5 20.933c-2.711-.459-5.009-2.134-6.321-4.455"></path><path d="M5.15 6.126c-1.338 1.583-2.15 3.632-2.15 5.875 0 .559.058 1.104.154 1.636"></path><path d="M13.5 20.933c2.711-.459 5.009-2.134 6.321-4.455"></path><path d="M16.55 4.186c-1.336-.792-2.888-1.254-4.55-1.254 -1.662 0-3.214.462-4.55 1.254"></path><path d="M18.85 6.126c1.338 1.583 2.15 3.632 2.15 5.875 0 .559-.058 1.104-.154 1.636"></path><path d="M11.924 12.965c.694.694.694 1.82 0 2.514 -.694.694-1.82.694-2.514 0 -.694-.694-.694-1.82 0-2.514 .694-.694 1.819-.694 2.514 0"></path><path d="M15.111 8.889l-2.667-.889v6.222"></path></g><path fill="none" d="M24 24h-24v-24h24v24Z"></path></svg>