<?xml version="1.0" encoding="UTF-8"?><svg version="1.1" viewBox="0 0 24 24" xmlns="http://www.w3.org/2000/svg" xmlns:xlink="http://www.w3.org/1999/xlink"><g fill="none"><path d="M24 24h-24v-24h24Z"></path><path stroke="#323232" stroke-linecap="round" stroke-linejoin="round" stroke-width="1.5" d="M11.924 12.965l5.52584e-08 5.52377e-08c.694482.694222.694694 1.81999.000471559 2.51447 -.694222.694482-1.81999.694694-2.51447.000471559 -.694482-.694222-.694694-1.81999-.000471559-2.51447 .000157194-.000157253.000314417-.000314476.00047167-.00047167l5.96634e-08-5.9641e-08c.694298-.694038 1.8197-.694038 2.514 1.19282e-07"></path><path stroke="#323232" stroke-linecap="round" stroke-linejoin="round" stroke-width="1.5" d="M15.111 8.889l-2.667-.889v6.222"></path><path stroke="#323232" stroke-linecap="round" stroke-linejoin="round" stroke-width="1.5" d="M3 12l1.46809e-09-1.13644e-06c-.00642148 4.97056 4.01781 9.0052 8.98837 9.01162 4.97056.00642148 9.0052-4.01781 9.01162-8.98837 .00642148-4.97056-4.01781-9.0052-8.98837-9.01162 -3.29686-.00425923-6.33219 1.79445-7.91162 4.68837"></path><polyline stroke="#323232" stroke-linecap="round" stroke-linejoin="round" stroke-width="1.5" points="3.576,4.803 3.576,7.696 6.469,7.696"></polyline></g></svg>