<?xml version="1.0" encoding="UTF-8"?><svg version="1.1" viewBox="0 0 24 24" xmlns="http://www.w3.org/2000/svg" xmlns:xlink="http://www.w3.org/1999/xlink"><g stroke-linecap="round" stroke-width="1.5" stroke="#323232" fill="none" stroke-linejoin="round"><path d="M17.0957 12.1235l-5.39675 4.3174 1.64474e-08-1.31579e-08c-.39789.318312-.971494.286544-1.3318-.07376l-2.73422-2.73422 -8.76814e-08-8.76818e-08c-.360304-.360306-.392072-.93391-.0737598-1.3318l4.3174-5.39675 -6.85763e-07 8.57205e-07c1.97422-2.46778 4.96317-3.90434 8.12347-3.90434v0l-4.37114e-08 8.88178e-16c.552285-2.41411e-08 1 .447715 1 1v0l5.3717e-12 1.0571e-05c0 3.1603-1.43657 6.14925-3.90435 8.12347Z"></path><path d="M16 13v4.382l4.03979e-11-8.98876e-06c0 .37877-.214.725032-.552782.894425l-2.41593 1.208 5.8517e-08-2.9258e-08c-.49398.246986-1.09465.0467575-1.34164-.447223 -.02116-.0423206-.0392896-.0860897-.0542523-.130977l-.635398-1.90622"></path><path d="M7 13l-1.90616-.63539 7.6144e-08 2.53815e-08c-.523943-.174649-.807101-.74097-.632452-1.26491 .0149627-.0448876.0330923-.0886567.0542522-.130977l1.208-2.41593 -1.91137e-08 3.82279e-08c.16938-.338764.515611-.552764.89436-.55279h4.382"></path><path d="M5.7501 20.5869l-2.7501.41315 .41315-2.7501 -1.83538e-08 1.22172e-07c.134024-.892135.834355-1.59247 1.72649-1.72649v0l-9.6652e-08 1.45231e-08c1.12208-.168606 2.16839.60434 2.337 1.72642 .0304114.20239.0304115.408187 2.90462e-08.610577v0l4.3039e-08-2.86434e-07c-.13405.892131-.834401 1.59244-1.72654 1.72644Z"></path></g><rect width="24" height="24" fill="none"></rect></svg>