<?xml version="1.0" encoding="UTF-8"?><svg version="1.1" viewBox="0 0 24 24" xmlns="http://www.w3.org/2000/svg" xmlns:xlink="http://www.w3.org/1999/xlink"><g fill="none"><path d="M0 0h24v24h-24Z"></path><path stroke="#323232" stroke-linecap="round" stroke-linejoin="round" stroke-width="1.5" d="M16.95 8.33972c3.02.79 5.05 2.27 5.05 3.97 0 2.53-4.48 4.57-10 4.57 -5.52 0-10-2.04-10-4.57 0-1.7 2.04-3.19 5.07-3.98"></path><path stroke="#323232" stroke-linecap="round" stroke-linejoin="round" stroke-width="1.5" d="M17 9.02515c0 1.26236-2.23858 2.28571-5 2.28571 -2.76142 0-5-1.02335-5-2.28571"></path><path stroke="#323232" stroke-linecap="round" stroke-linejoin="round" stroke-width="1.5" d="M17 9.02515v-.03544 0c0-2.75574-2.23397-4.98971-4.98971-4.98971v0l-1.06171e-07-2.11386e-13c-2.75574-5.46421e-06-4.98971 2.23396-4.98972 4.9897 -6.60894e-12 3.33319e-06-9.87921e-12 6.66682e-06-9.80815e-12 1e-05v.03544"></path><line x1="15.09" x2="17" y1="16.66" y2="20" stroke="#323232" stroke-linecap="round" stroke-linejoin="round" stroke-width="1.5"></line><line x1="8.91" x2="7" y1="16.66" y2="20" stroke="#323232" stroke-linecap="round" stroke-linejoin="round" stroke-width="1.5"></line><path stroke="#323232" stroke-linecap="round" stroke-linejoin="round" stroke-width="1.5" d="M12.05 14.1394v0c0 .0276142-.0223858.05-.05.05 -.0276142 0-.05-.0223858-.05-.05 0-.0276142.0223858-.05.05-.05"></path><path stroke="#323232" stroke-linecap="round" stroke-linejoin="round" stroke-width="1.5" d="M12 14.0894h-2.18557e-09c.0276142-1.20706e-09.05.0223858.05.05 0 0 0 1.77636e-15 0 1.77636e-15"></path><path stroke="#323232" stroke-linecap="round" stroke-linejoin="round" stroke-width="1.5" d="M7.02 12.8252h-8.88178e-16c0 .0276142-.0223858.05-.05.05 -.0276142 0-.05-.0223858-.05-.05 0-.0276142.0223858-.05.05-.05"></path><path stroke="#323232" stroke-linecap="round" stroke-linejoin="round" stroke-width="1.5" d="M6.97 12.7752h-2.18557e-09c.0276142-1.20706e-09.05.0223858.05.05 0 0 0 0 0 0"></path><path stroke="#323232" stroke-linecap="round" stroke-linejoin="round" stroke-width="1.5" d="M17.087 12.8252v0c0 .0276142-.0223858.05-.05.05 -.0276142 0-.05-.0223858-.05-.05 0-.0276142.0223858-.05.05-.05"></path><path stroke="#323232" stroke-linecap="round" stroke-linejoin="round" stroke-width="1.5" d="M17.037 12.7752h-2.18557e-09c.0276142-1.20706e-09.05.0223858.05.05 0 0 0 1.77636e-15 0 1.77636e-15"></path></g></svg>