<?xml version="1.0" encoding="UTF-8"?><svg version="1.1" viewBox="0 0 24 24" xmlns="http://www.w3.org/2000/svg" xmlns:xlink="http://www.w3.org/1999/xlink"><!--Generated by IJSVG (https://github.com/iconjar/IJSVG)--><g fill="none"><path d="M0,0h24v24h-24Z"></path><path fill-rule="evenodd" stroke="#323232" stroke-linecap="round" stroke-linejoin="round" stroke-width="1.5" d="M17.3,21h-10.6c-0.552,0 -1,-0.448 -1,-1v-16c0,-0.552 0.448,-1 1,-1h10.6c0.552,0 1,0.448 1,1v16c0,0.552 -0.448,1 -1,1Z"></path><path stroke="#323232" stroke-linecap="round" stroke-linejoin="round" stroke-width="1.5" d="M12.2652,14.2348c0.146447,0.146447 0.146447,0.383883 0,0.53033c-0.146447,0.146447 -0.383883,0.146447 -0.53033,0c-0.146447,-0.146447 -0.146447,-0.383883 0,-0.53033c0.146447,-0.146447 0.383883,-0.146447 0.53033,0"></path><path fill-rule="evenodd" stroke="#323232" stroke-linecap="round" stroke-linejoin="round" stroke-width="1.5" d="M14.4749,12.0251c1.36684,1.36684 1.36684,3.58291 0,4.94975c-1.36684,1.36684 -3.58291,1.36684 -4.94975,0c-1.36684,-1.36684 -1.36684,-3.58291 -1.77636e-15,-4.94975c1.36684,-1.36684 3.58291,-1.36684 4.94975,-1.77636e-15"></path><path stroke="#323232" stroke-linecap="round" stroke-linejoin="round" stroke-width="1.5" d="M12.2652,6.73483c0.146447,0.146447 0.146447,0.383883 0,0.53033c-0.146447,0.146447 -0.383883,0.146447 -0.53033,0c-0.146447,-0.146447 -0.146447,-0.383883 0,-0.53033c0.146447,-0.146447 0.383883,-0.146447 0.53033,0"></path></g></svg>