<?xml version="1.0" encoding="UTF-8"?><svg version="1.1" viewBox="0 0 24 24" xmlns="http://www.w3.org/2000/svg" xmlns:xlink="http://www.w3.org/1999/xlink"><!--Generated by IJSVG (https://github.com/iconjar/IJSVG)--><g stroke-linecap="round" stroke-width="1.5" stroke="#323232" fill="none" stroke-linejoin="round"><path d="M18.364,5.63604c3.51472,3.51472 3.51472,9.2132 0,12.7279c-3.51472,3.51472 -9.2132,3.51472 -12.7279,0c-3.51472,-3.51472 -3.51472,-9.2132 -1.77636e-15,-12.7279c3.51472,-3.51472 9.2132,-3.51472 12.7279,-1.77636e-15"></path><path d="M17.413,19.031c-0.177,-0.446 -0.452,-0.846 -0.804,-1.172c-0.595,-0.552 -1.373,-0.859 -2.185,-0.859c-1.354,0 -3.494,0 -4.848,0c-0.812,0 -1.59,0.307 -2.186,0.859c-0.352,0.326 -0.626,0.726 -0.804,1.172"></path><path d="M13.4142,10.5858c0.781049,0.781049 0.781049,2.04738 0,2.82843c-0.781049,0.781049 -2.04738,0.781049 -2.82843,0c-0.781049,-0.781049 -0.781049,-2.04738 0,-2.82843c0.781049,-0.781049 2.04738,-0.781049 2.82843,0"></path><path d="M12,3v2"></path><path d="M16.5,4.21l-0.87,1.5"></path><path d="M7.5,4.21l0.87,1.5"></path><path d="M4.21,7.5l1.5,0.87"></path><path d="M21,12h-1.5"></path><path d="M4.5,12h-1.5"></path><path d="M13.79,11.13l6,-3.63"></path></g><path fill="none" d="M0,0h24v24h-24Z"></path></svg>