<?xml version="1.0" encoding="UTF-8"?><svg version="1.1" viewBox="0 0 24 24" xmlns="http://www.w3.org/2000/svg" xmlns:xlink="http://www.w3.org/1999/xlink"><g stroke-linecap="round" stroke-width="1.5" stroke="#323232" fill="none" stroke-linejoin="round"><polyline points="12.345,9.834 10.995,8.484 12.345,7.134"></polyline><path d="M21 12c0-1.942-4.029-3.516-9-3.516h-1"></path><path d="M7.794 8.9c-2.845.592-4.794 1.753-4.794 3.1"></path><polyline points="11.655,14.166 13.005,15.516 11.655,16.866"></polyline><path d="M3 12c0 1.942 4.029 3.516 9 3.516h1.005"></path><path d="M16.206 15.1c2.845-.592 4.794-1.753 4.794-3.1"></path><polyline points="12.345,9.834 10.995,8.484 12.345,7.134"></polyline><polyline points="11.655,14.166 13.005,15.516 11.655,16.866"></polyline><path d="M13.005 15.516h-1.005c-4.971 0-9-1.574-9-3.516 0-1.347 1.949-2.508 4.794-3.1"></path><path d="M16.206 15.1c2.845-.592 4.794-1.753 4.794-3.1 0-1.942-4.029-3.516-9-3.516h-1"></path><circle cx="12" cy="12" r="9"></circle></g><path fill="none" d="M24 0v24h-24v-24Z"></path></svg>