<?xml version="1.0" encoding="UTF-8"?><svg version="1.1" viewBox="0 0 24 24" xmlns="http://www.w3.org/2000/svg" xmlns:xlink="http://www.w3.org/1999/xlink"><g stroke-linecap="round" stroke-width="1.5" stroke="#323232" fill="none" stroke-linejoin="round"><path d="M12 15.745v0"></path><path d="M12 8.255v0"></path><path d="M4.51 14.256l-4.97487e-08 6.32477e-08c-.500454.63625-.627465 1.48958-.334 2.244 .8 1.381 4.125 1 7.823-.755"></path><path d="M19.49 9.744l-2.25894e-08 2.87631e-08c.499879-.636498.626843-1.48951.334-2.244 -.8-1.381-4.125-1-7.823.755"></path><path d="M15.255 13.872c-.318 4.072-1.655 7.128-3.255 7.128 -.657 0-1.268-.522-1.784-1.411"></path><path d="M6.294 6.666l1.24886e-07 1.76395e-08c-.803502-.11349-1.6076.203138-2.118.834 -.8 1.381 1.189 4.062 4.569 6.372"></path><path d="M17.706 17.334l-5.22126e-08-7.37473e-09c.803502.11349 1.6076-.203138 2.118-.834 .8-1.381-1.189-4.062-4.569-6.372"></path><path d="M8.745 10.128c.318-4.072 1.655-7.128 3.255-7.128 .657 0 1.268.522 1.784 1.411"></path></g><path fill="none" d="M24 0v24h-24v-24Z"></path></svg>