<svg id="Layer_3" data-name="Layer 3" xmlns="http://www.w3.org/2000/svg" viewBox="0 0 24 24"><path d="M0,0H24V24H0Z" fill="none"/><path d="M22,16.5V20a1,1,0,0,1-1,1H18a1,1,0,0,1-1-1V18.5" fill="none" stroke="#323232" stroke-linecap="round" stroke-linejoin="round" stroke-width="1.5"/><path d="M7,18.5V20a1,1,0,0,1-1,1H3a1,1,0,0,1-1-1V16.5" fill="none" stroke="#323232" stroke-linecap="round" stroke-linejoin="round" stroke-width="1.5"/><path d="M7,18.5l1.69976-2.1247A1,1,0,0,1,9.48062,16h5.03876a1,1,0,0,1,.78086.3753L17,18.5" fill="none" stroke="#323232" stroke-linecap="round" stroke-linejoin="round" stroke-width="1.5"/><line x1="22" y1="14" x2="18" y2="15" fill="none" stroke="#323232" stroke-linecap="round" stroke-linejoin="round" stroke-width="1.5"/><line x1="2" y1="14" x2="6" y2="15" fill="none" stroke="#323232" stroke-linecap="round" stroke-linejoin="round" stroke-width="1.5"/><line x1="18.88889" y1="9" x2="21" y2="9" fill="none" stroke="#323232" stroke-linecap="round" stroke-linejoin="round" stroke-width="1.5"/><line x1="3" y1="9" x2="5.11111" y2="9" fill="none" stroke="#323232" stroke-linecap="round" stroke-linejoin="round" stroke-width="1.5"/><path d="M2,13v3.5a2,2,0,0,0,2,2H20a2,2,0,0,0,2-2V13a2,2,0,0,0-2-2h0l-3,1H7L4,11H4A2,2,0,0,0,2,13Z" fill="none" stroke="#323232" stroke-linecap="round" stroke-linejoin="round" stroke-width="1.5"/><path d="M20,11,18.07151,7.52871A2,2,0,0,0,16.32319,6.5H7.67681A2,2,0,0,0,5.92849,7.52871L4,11" fill="none" stroke="#323232" stroke-linecap="round" stroke-linejoin="round" stroke-width="1.5"/></svg>