<?xml version="1.0" encoding="UTF-8"?><svg version="1.1" viewBox="0 0 24 24" xmlns="http://www.w3.org/2000/svg" xmlns:xlink="http://www.w3.org/1999/xlink"><g stroke-linecap="round" stroke-width="1.5" stroke="#323232" fill="none" stroke-linejoin="round"><path d="M9.879 14.121l9.08754e-08 9.09028e-08c1.1714 1.17175 3.07089 1.17204 4.24264.00064032 1.17175-1.1714 1.17204-3.07089.00064032-4.24264 -.562792-.562962-1.32625-.87917-2.12228-.879"></path><path d="M5.636 5.636l4.42405e-07-4.424e-07c-3.51474 3.5147-3.51478 9.21318-7.8823e-05 12.7279 3.5147 3.51474 9.21318 3.51478 12.7279 7.8823e-05 3.51474-3.5147 3.51478-9.21318 7.8823e-05-12.7279 -1.68781-1.68783-3.97698-2.63606-6.36392-2.63608"></path><path d="M12 6l-2.62268e-07 6.21725e-15c3.31371-1.44847e-07 6 2.68629 6 6 1.44847e-07 3.31371-2.68629 6-6 6 -3.31371 1.44847e-07-6-2.68629-6-6"></path></g><rect width="24" height="24" fill="none"></rect></svg>