<?xml version="1.0" encoding="UTF-8"?><svg version="1.1" viewBox="0 0 24 24" xmlns="http://www.w3.org/2000/svg" xmlns:xlink="http://www.w3.org/1999/xlink"><!--Generated by IJSVG (https://github.com/iconjar/IJSVG)--><g fill="none"><path d="M0,0h24v24h-24Z"></path><path stroke="#323232" stroke-linecap="round" stroke-linejoin="round" stroke-width="1.5" d="M3.249,13.322c-0.189,0.188 -0.295,0.443 -0.295,0.71v6.138c0,0.562 0.448,1.018 1,1.018h9.468c0.552,0 1,-0.456 1,-1.018v-6.103c0,-0.287 -0.123,-0.56 -0.338,-0.75l-3.758,-3.317h-3.732l-3.345,3.322Z"></path><path stroke="#323232" stroke-linecap="round" stroke-linejoin="round" stroke-width="1.5" d="M6.594,10v-4.353c0,-0.611 0.495,-1.106 1.106,-1.106h1.519c0.611,0 1.106,0.495 1.106,1.106v4.353"></path><path stroke="#323232" stroke-linecap="round" stroke-linejoin="round" stroke-width="1.5" d="M14.67,6.812c-0.207,0.001 -0.374,0.169 -0.374,0.376c0,0.207 0.168,0.375 0.375,0.374c0.207,0 0.375,-0.168 0.375,-0.375c0,-0.207 -0.168,-0.375 -0.375,-0.375"></path><path stroke="#323232" stroke-linecap="round" stroke-linejoin="round" stroke-width="1.5" d="M17.67,4.812c-0.207,0.001 -0.374,0.169 -0.374,0.376c0,0.207 0.168,0.374 0.375,0.374c0.207,0 0.375,-0.168 0.375,-0.375c-3.55271e-15,-0.207 -0.167,-0.375 -0.376,-0.375"></path><path stroke="#323232" stroke-linecap="round" stroke-linejoin="round" stroke-width="1.5" d="M17.67,8.813c-0.207,0.001 -0.374,0.169 -0.374,0.376c0,0.207 0.168,0.375 0.375,0.374c0.207,0 0.375,-0.168 0.375,-0.375c-3.55271e-15,-0.208 -0.167,-0.375 -0.376,-0.375"></path><path stroke="#323232" stroke-linecap="round" stroke-linejoin="round" stroke-width="1.5" d="M20.67,2.812c-0.207,0.001 -0.374,0.169 -0.374,0.376c0,0.207 0.168,0.375 0.375,0.374c0.207,0 0.375,-0.168 0.375,-0.375c-3.55271e-15,-0.207 -0.167,-0.375 -0.376,-0.375"></path><path stroke="#323232" stroke-linecap="round" stroke-linejoin="round" stroke-width="1.5" d="M20.67,6.812c-0.207,0.001 -0.374,0.169 -0.374,0.376c0,0.207 0.168,0.375 0.375,0.374c0.207,0 0.375,-0.168 0.375,-0.375c-3.55271e-15,-0.207 -0.167,-0.375 -0.376,-0.375"></path><path stroke="#323232" stroke-linecap="round" stroke-linejoin="round" stroke-width="1.5" d="M20.67,10.813c-0.207,0.001 -0.374,0.169 -0.374,0.376c0,0.207 0.168,0.375 0.375,0.374c0.207,0 0.375,-0.168 0.375,-0.375c-3.55271e-15,-0.208 -0.167,-0.375 -0.376,-0.375"></path><path stroke="#323232" stroke-linecap="round" stroke-linejoin="round" stroke-width="1.5" d="M2.95,14h11.47"></path></g></svg>