<svg viewBox="0 0 24 24" xmlns="http://www.w3.org/2000/svg"><g stroke-linecap="round" stroke-width="1.5" stroke="#323232" fill="none" stroke-linejoin="round"><path d="M12 3a9 9 0 1 0 0 18 9 9 0 1 0 0-18Z"/><path d="M8 13l0 0c-.56-.01-1.01.44-1.01.99 -.01.04 0 .08 0 .13l.19 1.43 0 0c.03.24.24.43.49.43h8.56l0 0c.24 0 .45-.18.49-.42l.23-1.42 -.01 0c.09-.55-.28-1.06-.83-1.16 -.06-.01-.11-.02-.17-.02Z"/><path d="M13.55 13l.79-3.58 0-.01c.28-1.3-.53-2.59-1.83-2.88 -1.3-.29-2.59.52-2.88 1.82 -.08.34-.08.7 0 1.04l.79 3.57"/></g><path fill="none" d="M0 0h24v24H0Z"/></svg>