<svg id="Layer_3" data-name="Layer 3" xmlns="http://www.w3.org/2000/svg" viewBox="0 0 24 24"><path d="M10.25,10.5l-1.97809.30432A1.5,1.5,0,0,0,7,12.28688V13a1,1,0,0,0,1,1h8a1,1,0,0,0,1-1v-.71312a1.5,1.5,0,0,0-1.27191-1.48256L13.75,10.5V7.75A1.75,1.75,0,0,0,12,6h0a1.75,1.75,0,0,0-1.75,1.75Z" fill="none" stroke="#323232" stroke-linecap="round" stroke-linejoin="round" stroke-width="1.5"/><path d="M16.5,13.8656V16a1,1,0,0,1-1,1h-7a1,1,0,0,1-1-1V13.8656" fill="none" stroke="#323232" stroke-linecap="round" stroke-linejoin="round" stroke-width="1.5"/><rect x="3" y="3" width="18" height="18" rx="5" stroke-width="1.5" stroke="#323232" stroke-linecap="round" stroke-linejoin="round" fill="none"/><path d="M0,0H24V24H0Z" fill="none"/></svg>