<?xml version="1.0" encoding="UTF-8"?><svg version="1.1" viewBox="0 0 24 24" xmlns="http://www.w3.org/2000/svg" xmlns:xlink="http://www.w3.org/1999/xlink"><g fill="none"><path d="M0 0h24v24h-24Z"></path><path stroke="#323232" stroke-linecap="round" stroke-linejoin="round" stroke-width="1.5" d="M16 14.743v-.769l-5.99e-09-1.24459e-05c-.00018679-.382547-.245076-.722079-.608012-.842991l-2.059-.686v-1.777l.619-.4 -7.2538e-08 4.65497e-08c.455232-.292136.666909-.846862.522012-1.368v0l3.05493e-08 1.09955e-07c-.147966-.532567-.633261-.900834-1.186-.9h-2.576l-4.0444e-08 5.95524e-12c-.552652 8.13875e-05-1.03774.367885-1.187.9v0l1.6163e-09-5.79185e-09c-.14568.522032.0660187 1.07805.522 1.371l.619.4v1.778l-2.059.686 -1.33118e-08 4.4405e-09c-.361338.120533-.605555.458092-.607.839v.769l1.21778e-08-1.78948e-05c-.000163014.236043.0937636.462415.260987.629005l.368.368 6.78857e-08 6.7806e-08c.166877.166681.393152.260215.629013.260013h5.486l-3.55255e-08-2.38192e-11c.236043.000158261.462413-.0937729.629-.261l.368-.368 1.45867e-08-1.46918e-08c.165784-.166979.258876-.3927.259-.628Z"></path><path stroke="#323232" stroke-linecap="round" stroke-linejoin="round" stroke-width="1.5" d="M8 3h8l-2.18557e-07 5.32907e-15c2.76142-1.20706e-07 5 2.23858 5 5v9 0c0 2.20914-1.79086 4-4 4h-9l-2.18557e-07-7.10543e-15c-2.76142-1.20706e-07-5-2.23858-5-5 0 0 0-1.77636e-15 0-1.77636e-15v-8l5.68434e-14 7.54979e-07c-4.16963e-07-2.76142 2.23858-5 5-5Z"></path></g></svg>