<?xml version="1.0" encoding="UTF-8"?><svg version="1.1" viewBox="0 0 24 24" xmlns="http://www.w3.org/2000/svg" xmlns:xlink="http://www.w3.org/1999/xlink"><defs><path d="M0 0h24v24h-24Z" id="a"></path></defs><g fill="none"><use xlink:href="#a"></use><use xlink:href="#a"></use><path stroke="#323232" stroke-linecap="round" stroke-linejoin="round" stroke-width="1.5" d="M19.052 13.025l2.081-2.013"></path><path stroke="#323232" stroke-linecap="round" stroke-linejoin="round" stroke-width="1.5" d="M7.442 20.887l3.9-2.034"></path><path stroke="#323232" stroke-linecap="round" stroke-linejoin="round" stroke-width="1.5" d="M21.133 11.016l9.35173e-09-9.20215e-09c.472392-.464836.478517-1.22461.0136817-1.697 -.183958-.186949-.4241-.30848-.683682-.345999l-5.1-.731 -2.28-4.574 1.47541e-09 2.92756e-09c-.301994-.599229-1.03258-.840185-1.63181-.538191 -.232407.117127-.421064.305784-.538191.538191l-2.277 4.574 -5.1.733 -2.15007e-08 2.88325e-09c-.653578.0876449-1.11236.688524-1.02471 1.3421 .0357985.266953.160805.513961.354712.700898l3.689 3.557 -.869 5.025 -3.86772e-08 2.41087e-07c-.10568.658737.342661 1.27842 1.0014 1.3841 .258336.0414443.523145-.00210516.754602-.124099"></path><line x1="16.01" x2="19.02" y1="17.02" y2="20.02" stroke="#323232" stroke-linecap="round" stroke-linejoin="round" stroke-width="1.5"></line><line x1="16.01" x2="19.02" y1="20.02" y2="17.02" stroke="#323232" stroke-linecap="round" stroke-linejoin="round" stroke-width="1.5"></line></g></svg>