<svg id="Layer_3" data-name="Layer 3" xmlns="http://www.w3.org/2000/svg" viewBox="0 0 24 24"><path d="M0,0H24V24H0Z" fill="none"/><path d="M20.76929,14A9.02818,9.02818,0,1,0,14,20.76929" fill="none" stroke="#323232" stroke-linecap="round" stroke-linejoin="round" stroke-width="1.5"/><path d="M18.74914,17.25v3" fill="none" stroke="#323232" stroke-linecap="round" stroke-linejoin="round" stroke-width="1.5"/><path d="M17.25,18.74914h3" fill="none" stroke="#323232" stroke-linecap="round" stroke-linejoin="round" stroke-width="1.5"/><path d="M11.10318,8.24159a1,1,0,0,1,1.79364,0l.61572,1.24816a1,1,0,0,0,.753.5472l1.3772.20017a1,1,0,0,1,.5544,1.70547l-.99686.97232a1,1,0,0,0-.28737.88494l.23526,1.37138a1,1,0,0,1-1.45084,1.05426l-1.23208-.64755a.99994.99994,0,0,0-.93046,0l-1.23208.64755a1,1,0,0,1-1.45084-1.05426l.23526-1.37138a1,1,0,0,0-.28737-.88494l-.99686-.97232a1,1,0,0,1,.5544-1.70547l1.3772-.20017a1,1,0,0,0,.753-.5472Z" fill="none" stroke="#323232" stroke-linecap="round" stroke-linejoin="round" stroke-width="1.5"/></svg>