<?xml version="1.0" encoding="UTF-8"?><svg version="1.1" viewBox="0 0 24 24" xmlns="http://www.w3.org/2000/svg" xmlns:xlink="http://www.w3.org/1999/xlink"><g fill="none"><rect width="24" height="24"></rect><path stroke="#323232" stroke-linecap="round" stroke-linejoin="round" stroke-width="1.5" d="M21 12v0c0 4.97056-4.02944 9-9 9 -4.97056 0-9-4.02944-9-9 0-4.97056 4.02944-9 9-9"></path><path stroke="#323232" stroke-width="1.5" d="M11.119 8.522l3.91755e-08-7.29495e-08c.261295-.486563.867553-.669179 1.35412-.407884 .173075.0929448.314939.234809.407884.407884l.777 1.422 1.47038e-08 2.70023e-08c.092056.169053.230947.307944.4.4l1.422.777 1.11459e-07 5.9856e-08c.486563.261295.669179.867553.407884 1.35412 -.0929448.173075-.234809.314939-.407884.407884l-1.422.777 -3.74751e-08 2.04067e-08c-.169053.092056-.307944.230947-.4.4l-.777 1.422 -2.41368e-08 4.49456e-08c-.261295.486563-.867553.669179-1.35412.407884 -.173075-.0929448-.314939-.234809-.407884-.407884l-.777-1.422 1.475e-08 2.7087e-08c-.092056-.169053-.230947-.307944-.4-.4l-1.422-.777 -8.34553e-08-4.48173e-08c-.486563-.261295-.669179-.867553-.407884-1.35412 .0929448-.173075.234809-.314939.407884-.407884l1.422-.777 6.53911e-08-3.56081e-08c.169053-.092056.307944-.230947.4-.4Z"></path><path stroke="#323232" stroke-width="1.5" d="M18.339 2.392l-2.26772e-08 4.15598e-08c.199196-.36506.656617-.499519 1.02168-.300323 .126851.0692167.231106.173472.300323.300323l.583 1.066 1.10279e-08 2.02517e-08c.069042.12679.17321.230958.3.3l1.066.583 6.61308e-08 3.60845e-08c.36506.199197.499519.656617.300323 1.02168 -.0692167.126851-.173472.231106-.300323.300323l-1.066.583 -2.81064e-08 1.5305e-08c-.12679.069042-.230958.17321-.3.3l-.583 1.066 -8.85416e-09 1.62267e-08c-.199196.36506-.656617.499519-1.02168.300323 -.126851-.0692167-.231106-.173472-.300323-.300323l-.583-1.066 1.10625e-08 2.03153e-08c-.069042-.12679-.17321-.230958-.3-.3l-1.066-.583 -1.23917e-07-6.76159e-08c-.36506-.199197-.499519-.656617-.300323-1.02168 .0692167-.126851.173472-.231106.300323-.300323l1.066-.583 4.90433e-08-2.67061e-08c.12679-.069042.230958-.17321.3-.3Z"></path><rect width="24" height="24"></rect></g></svg>