<svg width="36" height="36" viewBox="0 0 36 36" fill="none" xmlns="http://www.w3.org/2000/svg">
<path fill-rule="evenodd" clip-rule="evenodd" d="M4.3606 12.9717L13.0319 11.889L16.9944 3.99538C17.4095 3.16821 18.5902 3.16821 19.0054 3.99538L22.9664 11.889L31.6392 12.9717C32.5081 13.0801 32.9068 14.0807 32.4084 14.7526L32.3043 14.8745L26.1359 21.183L27.8351 29.782C28.0043 30.6385 27.1837 31.3318 26.3885 31.0721L26.2487 31.0162L17.9999 27.0975L9.75108 31.0162C8.96244 31.3908 8.08865 30.7659 8.14493 29.9313L8.16472 29.782L9.86239 21.183L3.69549 14.8745C3.08329 14.2483 3.39479 13.2173 4.20328 13.0021L4.3606 12.9717ZM21.2259 13.4361L17.9999 7.008L14.7739 13.4361C14.6054 13.7718 14.2804 14.0013 13.9077 14.0478L6.89089 14.9235L11.8863 20.0335C12.1084 20.2607 12.2224 20.5692 12.2052 20.8818L12.1856 21.038L10.8044 28.0245L17.5172 24.8363C17.7717 24.7154 18.0603 24.6953 18.3262 24.7759L18.4826 24.8363L25.1939 28.0245L23.8142 21.038C23.7526 20.7263 23.8261 20.4057 24.0115 20.1535L24.1135 20.0335L29.1074 14.9235L22.0921 14.0478C21.7726 14.008 21.4882 13.8337 21.3074 13.5733L21.2259 13.4361Z" fill="#07082F"/>
</svg>
