<?xml version="1.0" encoding="UTF-8"?><svg version="1.1" viewBox="0 0 24 24" xmlns="http://www.w3.org/2000/svg" xmlns:xlink="http://www.w3.org/1999/xlink"><g fill="none"><rect width="24" height="24"></rect><rect width="18" height="18" x="3" y="3" rx="2.7614" ry="0" stroke="#323232" stroke-linecap="round" stroke-linejoin="round" stroke-width="1.5"></rect><path stroke="#323232" stroke-linecap="round" stroke-linejoin="round" stroke-width="1.5" d="M16.833 13.333l-6.55671e-08-1.77636e-15c-.828427-3.62117e-08-1.5-.671573-1.5-1.5 0 0 0-1.77636e-15 0-1.77636e-15v0c0 .828427-.671573 1.5-1.5 1.5l-6.55671e-08 1.77636e-15c.828427-3.62117e-08 1.5.671573 1.5 1.5l1.06581e-14-9.53595e-08c1.25089e-07-.828427.671573-1.5 1.5-1.5Z"></path><path stroke="#323232" stroke-linecap="round" stroke-linejoin="round" stroke-width="1.5" d="M12.833 8.667l-6.55671e-08-1.77636e-15c-.828427-3.62117e-08-1.5-.671573-1.5-1.5 0 0 0-8.88178e-16 0-8.88178e-16v0c0 .828427-.671573 1.5-1.5 1.5l-6.55671e-08 1.77636e-15c.828427-3.62117e-08 1.5.671573 1.5 1.5l1.24345e-14-9.53595e-08c1.25089e-07-.828427.671573-1.5 1.5-1.5Z"></path><path stroke="#323232" stroke-linecap="round" stroke-linejoin="round" stroke-width="1.5" d="M10.167 15.333l-6.55671e-08-1.77636e-15c-.828427-3.62117e-08-1.5-.671573-1.5-1.5 0 0 0-1.77636e-15 0-1.77636e-15v0c0 .828427-.671573 1.5-1.5 1.5h-6.55671e-08c.828427-3.62117e-08 1.5.671573 1.5 1.5l1.24345e-14-9.53595e-08c1.25089e-07-.828427.671573-1.5 1.5-1.5Z"></path></g></svg>