<?xml version="1.0" encoding="UTF-8"?><svg version="1.1" viewBox="0 0 24 24" xmlns="http://www.w3.org/2000/svg" xmlns:xlink="http://www.w3.org/1999/xlink"><g stroke-linecap="round" stroke-width="1.5" stroke="#323232" fill="none" stroke-linejoin="round"><path d="M12.041 15.077l2.146 1.127c.414.218.898-.134.819-.596l-.41-2.39 1.731-1.686c.337-.328.151-.9-.314-.968l-2.393-.347 -1.072-2.174c-.207-.42-.806-.42-1.013 0l-1.072 2.174 -2.538.368c-.407.059-.569.559-.275.845l1.836 1.788 -.411 2.39c-.079.461.405.813.819.596l2.146-1.127"></path><path d="M17 21h-10c-2.209 0-4-1.791-4-4v-10c0-2.209 1.791-4 4-4h10c2.209 0 4 1.791 4 4v10c0 2.209-1.791 4-4 4Z"></path></g><path fill="none" d="M0 0h24v24h-24v-24Z"></path></svg>