<svg id="Layer_3" data-name="Layer 3" xmlns="http://www.w3.org/2000/svg" viewBox="0 0 24 24"><path d="M0,24V0H24V24Z" fill="none"/><line x1="4.5" y1="9" x2="3" y2="9" fill="none" stroke="#323232" stroke-linecap="round" stroke-linejoin="round" stroke-width="1.5"/><line x1="4.5" y1="15" x2="3" y2="15" fill="none" stroke="#323232" stroke-linecap="round" stroke-linejoin="round" stroke-width="1.5"/><line x1="4" y1="12" x2="2" y2="12" fill="none" stroke="#323232" stroke-linecap="round" stroke-linejoin="round" stroke-width="1.5"/><path d="M5.3053,18A9,9,0,1,0,5.30524,6" fill="none" stroke="#323232" stroke-linecap="round" stroke-linejoin="round" stroke-width="1.5"/><path d="M11.10322,8.0857a1,1,0,0,1,1.79356,0l.50879,1.03141a.99994.99994,0,0,0,.75295.54718l1.13813.16542A1,1,0,0,1,15.851,11.5351l-.8239.80361a1,1,0,0,0-.28735.8849l.1944,1.13328a1,1,0,0,1-1.45077,1.05421l-1.0182-.53515a1,1,0,0,0-.93042,0l-1.0182.53515a1,1,0,0,1-1.45077-1.05421l.1944-1.13328a1,1,0,0,0-.28735-.8849L8.149,11.5351a1,1,0,0,1,.55438-1.70539l1.13813-.16542a.99994.99994,0,0,0,.75295-.54718Z" fill="none" stroke="#323232" stroke-linecap="round" stroke-linejoin="round" stroke-width="1.5"/></svg>