<svg width="32" height="32" viewBox="0 0 32 32" fill="none" xmlns="http://www.w3.org/2000/svg">
<path fill-rule="evenodd" clip-rule="evenodd" d="M3.87617 11.5304L11.584 10.568L15.1062 3.55145C15.4752 2.81618 16.5247 2.81618 16.8937 3.55145L20.4147 10.568L28.1238 11.5304C28.8962 11.6267 29.2505 12.5161 28.8075 13.1135L28.715 13.2218L23.232 18.8293L24.7424 26.4729C24.8928 27.2342 24.1634 27.8505 23.4566 27.6196L23.3323 27.5699L16 24.0867L8.66771 27.5699C7.96669 27.9029 7.18999 27.3474 7.24002 26.6056L7.25761 26.4729L8.76665 18.8293L3.28496 13.2218C2.74079 12.6652 3.01767 11.7487 3.73633 11.5575L3.87617 11.5304ZM18.8676 11.9432L16 6.22933L13.1324 11.9432C12.9826 12.2416 12.6938 12.4456 12.3625 12.487L6.12532 13.2653L10.5657 17.8076C10.7631 18.0095 10.8645 18.2838 10.8492 18.5616L10.8317 18.7005L9.60398 24.9107L15.5709 22.0767C15.7972 21.9693 16.0537 21.9513 16.2901 22.023L16.429 22.0767L22.3946 24.9107L21.1683 18.7005C21.1135 18.4234 21.1788 18.1384 21.3437 17.9143L21.4343 17.8076L25.8733 13.2653L19.6375 12.487C19.3535 12.4515 19.1007 12.2966 18.94 12.0651L18.8676 11.9432Z" fill="#07082F"/>
</svg>
