<svg id="Layer_3" data-name="Layer 3" xmlns="http://www.w3.org/2000/svg" viewBox="0 0 24 24"><rect width="24" height="24" fill="none"/><path d="M12,3h4a5,5,0,0,1,5,5v6.92893a5,5,0,0,1-1.46447,3.53554l-1.07106,1.07106A5,5,0,0,1,14.92893,21H8a5,5,0,0,1-5-5V14" fill="none" stroke="#323232" stroke-linecap="round" stroke-linejoin="round" stroke-width="1.5"/><path d="M21,15H18a3,3,0,0,0-3,3v3" fill="none" stroke="#323232" stroke-linecap="round" stroke-linejoin="round" stroke-width="1.5"/><path d="M6,8V4.5A1.5,1.5,0,0,1,7.5,3h0A1.5,1.5,0,0,1,9,4.5V8a3,3,0,0,1-3,3H6A3,3,0,0,1,3,8V4.9997" fill="none" stroke="#323232" stroke-linecap="round" stroke-linejoin="round" stroke-width="1.5"/></svg>