<?xml version="1.0" encoding="UTF-8"?><svg version="1.1" viewBox="0 0 24 24" xmlns="http://www.w3.org/2000/svg" xmlns:xlink="http://www.w3.org/1999/xlink"><g fill="none"><path d="M0 0h24v24h-24v-24Z"></path><path stroke="#323232" stroke-linecap="round" stroke-linejoin="round" stroke-width="1.5" d="M6.826 11.539c.562-.461 1.382-.42 1.895.094l.868.867v-3.498c0-1.365 1.337-2.329 2.632-1.897l2.803.934c.817.272 1.368 1.037 1.368 1.897v4.098c0 1.905-1.545 3.45-3.45 3.45h-1.626c-1.087 0-2.11-.512-2.762-1.382l-1.964-2.623c-.453-.606-.349-1.461.236-1.94v0Z"></path><path stroke="#323232" stroke-linecap="round" stroke-linejoin="round" stroke-width="1.5" d="M7.415 20.415l-3.829-3.829c-.375-.375-.586-.884-.586-1.415v-6.343c0-.53.211-1.039.585-1.413l3.829-3.829c.375-.375.884-.586 1.414-.586h6.342c.531 0 1.04.211 1.415.586l3.828 3.828c.376.376.587.886.587 1.417v6.34c0 .53-.211 1.038-.585 1.413l-3.829 3.83c-.375.375-.884.586-1.415.586h-6.343c-.53 0-1.039-.211-1.413-.585Z"></path></g></svg>