<svg id="Layer_3" data-name="Layer 3" xmlns="http://www.w3.org/2000/svg" viewBox="0 0 24 24"><path d="M12,21H3" fill="none" stroke="#323232" stroke-linecap="round" stroke-linejoin="round" stroke-width="1.5"/><path d="M3.92658,21l-.0001-10.05838" fill="none" stroke="#323232" stroke-linecap="round" stroke-linejoin="round" stroke-width="1.5"/><line x1="9" y1="21" x2="9" y2="10.95032" fill="none" stroke="#323232" stroke-linecap="round" stroke-linejoin="round" stroke-width="1.5"/><line x1="9" y1="16" x2="11" y2="16" fill="none" stroke="#323232" stroke-linecap="round" stroke-linejoin="round" stroke-width="1.5"/><circle cx="18" cy="18" r="4" fill="none" stroke="#323232" stroke-linecap="round" stroke-linejoin="round" stroke-width="1.5"/><path d="M2.27573,7.47765A2.33862,2.33862,0,0,0,2.113,9.28433a2.4607,2.4607,0,0,0,4.7201-.10092.14405.14405,0,0,1,.27625,0A2.46262,2.46262,0,0,0,11.8619,9.1829a.144.144,0,0,1,.27621,0,2.46264,2.46264,0,0,0,4.75263-.00017.14407.14407,0,0,1,.27626,0,2.46068,2.46068,0,0,0,4.71992.10108,2.3386,2.3386,0,0,0-.16272-1.807L20.01748,4.09822A2,2,0,0,0,18.23232,3H5.768A2,2,0,0,0,3.98289,4.09822Z" fill="none" stroke="#323232" stroke-linecap="round" stroke-linejoin="round" stroke-width="1.5"/><line x1="16.75" y1="18" x2="19.25" y2="18" fill="none" stroke="#323232" stroke-linecap="round" stroke-linejoin="round" stroke-width="1.5"/><line x1="18" y1="19.25" x2="18" y2="16.75" fill="none" stroke="#323232" stroke-linecap="round" stroke-linejoin="round" stroke-width="1.5"/><path d="M0,24H24V0H0Z" fill="none"/></svg>