<?xml version="1.0" encoding="UTF-8"?><svg version="1.1" viewBox="0 0 24 24" xmlns="http://www.w3.org/2000/svg" xmlns:xlink="http://www.w3.org/1999/xlink"><g stroke-linecap="round" stroke-width="1.5" stroke="#323232" fill="none" stroke-linejoin="round"><path d="M8 21h-3.286l-9.71092e-08-5.66089e-11c-.946387-.000551722-1.71345-.767613-1.714-1.714v-3.286"></path><path d="M16 4h3.286l-5.28209e-08-3.07905e-11c.946387.00055164 1.71345.767612 1.714 1.714v3.286"></path><rect width="3" height="3.75" x="12" y="17.25"></rect><rect width="3" height="8" x="15" y="13"></rect><path d="M3.1 7.178v4.822"></path><path d="M11.1 12v-4.892"></path><line x1="7" x2="7" y1="12" y2="10"></line><path d="M2.6 12h8.96"></path><path d="M7 7.237l-6.06905e-08-6.35403e-12c.746167 7.81308e-05 1.40942-.47534 1.649-1.182l-1.82338e-09 4.13526e-09c.0222821-.0505341.0813113-.0734368.131845-.0511546 .022838.01007.0410846.0283166.0511546.0511546l1.24412e-08 3.65975e-08c.240215.706624.903662 1.18189 1.65 1.182"></path><path d="M3.518 7.237l2.80595e-08-4.03944e-12c.746338-.000107444 1.40978-.475376 1.65-1.182l-1.82337e-09 4.13526e-09c.0222821-.0505341.0813113-.0734368.131845-.0511546 .022838.01007.0410846.0283166.0511546.0511546l-2.98569e-08-8.80656e-08c.239579.706659.902832 1.18208 1.649 1.182"></path><path d="M10.482 7.237l7.29023e-08-1.22394e-10c.837815-.00140661 1.51586-.68173 1.51445-1.51954 -.000396854-.236377-.0560263-.469391-.162451-.680455l-.659-1.3 3.52013e-08 6.9148e-08c-.230348-.452486-.695257-.737305-1.203-.737h-5.944l-3.74856e-09 7.49845e-12c-.506884.0010139-.970418.286087-1.2.738l-.658 1.3 -5.2682e-08 1.04203e-07c-.377763.747198-.0782772 1.65916.668921 2.03692 .211489.106923.445098.162776.682079.163077v0"></path><rect width="3" height="5.75" x="18" y="15.25"></rect></g><path fill="none" d="M0 24v-24h24v24"></path></svg>