<?xml version="1.0" encoding="UTF-8"?><svg version="1.1" viewBox="0 0 24 24" xmlns="http://www.w3.org/2000/svg" xmlns:xlink="http://www.w3.org/1999/xlink"><g fill="none"><path d="M0 0h24v24h-24Z"></path><path stroke="#323232" stroke-linecap="round" stroke-linejoin="round" stroke-width="1.5" d="M13 19.91h8"></path><path stroke="#323232" stroke-linecap="round" stroke-linejoin="round" stroke-width="1.5" d="M19.78 9.78v10.13"></path><path stroke="#323232" stroke-linecap="round" stroke-linejoin="round" stroke-width="1.5" d="M13 13h3v3h-3"></path><path stroke="#323232" stroke-linecap="round" stroke-linejoin="round" stroke-width="1.5" d="M4.253 9.778v0l9.34061e-08 1.06404e-12c-1.24264-1.41271e-05-2.24999-1.00738-2.24997-2.25003 4.0259e-06-.354125.0835951-.703248.243974-1.01897l1.735-3.415 -4.84086e-08 9.52688e-08c.34105-.671192 1.03013-1.09399 1.783-1.094h12.47l9.993e-08 1.05338e-12c.75287 7.95476e-06 1.44195.422808 1.783 1.094l1.735 3.415 6.1538e-08 1.21145e-07c.562778 1.1079.120872 2.46225-.987026 3.02503 -.315726.160379-.66485.24397-1.01897.243974v0"></path><path stroke="#323232" stroke-linecap="round" stroke-linejoin="round" stroke-width="1.5" d="M14.582 9.778l-1.29703e-07-5.03917e-11c1.42483.000553613 2.58079-1.15317 2.583-2.578l2.84217e-14-3.89871e-07c-2.1532e-07 1.426 1.156 2.582 2.582 2.582"></path><path stroke="#323232" stroke-linecap="round" stroke-linejoin="round" stroke-width="1.5" d="M9.417 9.778l-1.29703e-07-5.03917e-11c1.42483.000553613 2.58079-1.15317 2.583-2.578l2.84217e-14 3.89871e-07c2.1532e-07 1.426 1.156 2.582 2.582 2.582"></path><path stroke="#323232" stroke-linecap="round" stroke-linejoin="round" stroke-width="1.5" d="M4.252 9.778l-1.29703e-07-5.03917e-11c1.42483.000553613 2.58079-1.15317 2.583-2.578l-2.03185e-08-1.31367e-05c.00219955 1.42444 1.15755 2.57801 2.58199 2.57801"></path><path stroke="#323232" stroke-linecap="round" stroke-linejoin="round" stroke-width="1.5" d="M3 16.617v-1.894l-6.36522e-10-1.83746e-06c-.000134148-.388406.251623-.732041.622002-.848999l2.667-.833 -1.46405e-08 4.64061e-09c.173415-.0549673.359585-.0549673.533-5.43603e-08l2.667.833 -4.1469e-08-1.30951e-08c.370378.116958.622135.460594.622.849v1.894l1.43449e-09.000112927c0 1.85282-1.14928 3.5113-2.88411 4.16193l-.515.193 -8.93031e-09 3.27123e-09c-.10105.0370153-.21195.0370153-.313-6.54245e-09l-.516-.193 1.36665e-07 5.13004e-08c-1.73438-.65104-2.88313-2.30949-2.8829-4.16204Z"></path></g></svg>