<?xml version="1.0" encoding="UTF-8"?><svg version="1.1" viewBox="0 0 24 24" xmlns="http://www.w3.org/2000/svg" xmlns:xlink="http://www.w3.org/1999/xlink"><g fill="none"><path d="M0 0h24v24h-24Z"></path><circle cx="16" cy="6" r="4" stroke="#323232" stroke-linecap="round" stroke-linejoin="round" stroke-width="1.5"></circle><line x1="21" x2="18.83" y1="11" y2="8.83" stroke="#323232" stroke-linecap="round" stroke-linejoin="round" stroke-width="1.5"></line><path stroke="#323232" stroke-linecap="round" stroke-linejoin="round" stroke-width="1.5" d="M16 21h2l-1.31134e-07-3.55271e-15c1.65685 7.24234e-08 3-1.34315 3-3v-3"></path><path stroke="#323232" stroke-linecap="round" stroke-linejoin="round" stroke-width="1.5" d="M3 9v-2l3.41949e-14 4.52987e-07c-2.50178e-07-1.65685 1.34315-3 3-3h2"></path><path stroke="#323232" stroke-linecap="round" stroke-linejoin="round" stroke-width="1.5" d="M3.5 16.178v4.822"></path><path stroke="#323232" stroke-linecap="round" stroke-linejoin="round" stroke-width="1.5" d="M11.5 21v-4.892"></path><line x1="7.4" x2="7.4" y1="21" y2="19" stroke="#323232" stroke-linecap="round" stroke-linejoin="round" stroke-width="1.5"></line><path stroke="#323232" stroke-linecap="round" stroke-linejoin="round" stroke-width="1.5" d="M3 21h8.96"></path><path stroke="#323232" stroke-linecap="round" stroke-linejoin="round" stroke-width="1.5" d="M7.4 16.237l-6.06905e-08-6.35225e-12c.746167 7.81308e-05 1.40942-.47534 1.649-1.182l-1.82338e-09 4.13526e-09c.0222821-.0505341.0813113-.0734368.131845-.0511546 .022838.01007.0410846.0283166.0511546.0511546l1.24412e-08 3.65975e-08c.240215.706624.903662 1.18189 1.65 1.182"></path><path stroke="#323232" stroke-linecap="round" stroke-linejoin="round" stroke-width="1.5" d="M3.922 16.237l2.80595e-08-4.03944e-12c.746338-.000107444 1.40978-.475376 1.65-1.182l-1.82337e-09 4.13526e-09c.0222821-.0505341.0813113-.0734368.131845-.0511546 .022838.01007.0410846.0283166.0511546.0511546l5.43665e-08 1.6036e-07c.239106.705268.900304 1.18037 1.645 1.182"></path><path stroke="#323232" stroke-linecap="round" stroke-linejoin="round" stroke-width="1.5" d="M10.886 16.237l7.29023e-08-1.22395e-10c.837815-.00140661 1.51586-.68173 1.51445-1.51954 -.000396854-.236377-.0560263-.469391-.162451-.680455l-.659-1.3 -4.95239e-08-9.74838e-08c-.229582-.451913-.693116-.736986-1.2-.738h-5.947l-3.74856e-09 7.498e-12c-.506884.0010139-.970418.286087-1.2.738l-.658 1.3 -5.2682e-08 1.04203e-07c-.377763.747198-.0782772 1.65916.668921 2.03692 .211489.106923.445098.162776.682079.163077v0"></path></g></svg>