<?xml version="1.0" encoding="UTF-8"?><svg version="1.1" viewBox="0 0 24 24" xmlns="http://www.w3.org/2000/svg" xmlns:xlink="http://www.w3.org/1999/xlink"><g fill="none"><path d="M24 0h-24v24h24v-24Z"></path><path d="M0 24h24v-24h-24v24Z"></path><path stroke="#323232" stroke-linecap="round" stroke-linejoin="round" stroke-width="1.5" d="M12 20.91h-9"></path><path stroke="#323232" stroke-linecap="round" stroke-linejoin="round" stroke-width="1.5" d="M4.22 10.78v10.13"></path><path stroke="#323232" stroke-linecap="round" stroke-linejoin="round" stroke-width="1.5" d="M19.699 10.778c1.698-.012 2.805-1.693 2.069-3.142l-1.716-3.377c-.39-.77-1.212-1.259-2.114-1.259h-11.876c-.902 0-1.724.489-2.115 1.259l-1.716 3.377c-.736 1.449.371 3.13 2.069 3.142 1.417 0 2.566-.968 2.566-2.163v-.048c0 1.221 1.149 2.211 2.566 2.211 1.419 0 2.568-.99 2.568-2.211 0 1.221 1.149 2.211 2.566 2.211 1.417 0 2.566-.99 2.566-2.211v.048c.001 1.195 1.15 2.163 2.567 2.163Z"></path><line x1="20" x2="20.02" y1="13" y2="10.78" stroke="#323232" stroke-linecap="round" stroke-linejoin="round" stroke-width="1.5"></line><path stroke="#323232" stroke-linecap="round" stroke-linejoin="round" stroke-width="1.5" d="M16 21h1.5c1.381 0 2.5-1.119 2.5-2.5v0c0-1.381-1.119-2.5-2.5-2.5h-4.5"></path><polyline stroke="#323232" stroke-linecap="round" stroke-linejoin="round" stroke-width="1.5" points="15,18 13,16 15,14"></polyline></g></svg>