<svg id="Layer_3" data-name="Layer 3" xmlns="http://www.w3.org/2000/svg" viewBox="0 0 24 24"><path d="M0,0H24V24H0Z" fill="none"/><line x1="7" y1="9" x2="7" y2="11" fill="none" stroke="#323232" stroke-linecap="round" stroke-linejoin="round" stroke-width="1.5"/><line x1="9" y1="11" x2="2" y2="11" fill="none" stroke="#323232" stroke-linecap="round" stroke-linejoin="round" stroke-width="1.5"/><line x1="3" y1="11" x2="3" y2="5.86575" fill="none" stroke="#323232" stroke-linecap="round" stroke-linejoin="round" stroke-width="1.5"/><path d="M6.575,16.575,8,18,6.575,19.425" fill="none" stroke="#323232" stroke-linecap="round" stroke-linejoin="round" stroke-width="1.5"/><path d="M3.25,15.15v.00036A2.84982,2.84982,0,0,0,6.1,18H8" fill="none" stroke="#323232" stroke-linecap="round" stroke-linejoin="round" stroke-width="1.5"/><path d="M19,21H14a2,2,0,0,1-2-2V10a2,2,0,0,1,2-2h5a2,2,0,0,1,2,2v9A2,2,0,0,1,19,21Z" fill="none" stroke="#323232" stroke-linecap="round" stroke-linejoin="round" stroke-width="1.5"/><path d="M15,18.49991,18,18.5" fill="none" stroke="#323232" stroke-linecap="round" stroke-linejoin="round" stroke-width="1.5"/><path d="M3.64478,5.99963A1.62817,1.62817,0,0,0,4.90944,5.396a.48019.48019,0,0,1,.82572,0,1.62662,1.62662,0,0,0,2.52932,0,.4802.4802,0,0,1,.82573,0,1.62815,1.62815,0,0,0,1.26466.60362A1.66055,1.66055,0,0,0,11.956,4.73327,1.53154,1.53154,0,0,0,11.80909,3.649l-.41661-.82477A1.50107,1.50107,0,0,0,10.05264,2H3.94688a1.5,1.5,0,0,0-1.3389.82372l-.41706.8257A1.53154,1.53154,0,0,0,2.044,4.73364,1.66062,1.66062,0,0,0,3.64514,6" fill="none" stroke="#323232" stroke-linecap="round" stroke-linejoin="round" stroke-width="1.5"/></svg>