<svg id="Layer_3" data-name="Layer 3" xmlns="http://www.w3.org/2000/svg" viewBox="0 0 24 24"><path d="M24,0H0V24H24Z" fill="none"/><path d="M8.001,10.3a.25.25,0,1,1-.251.25.2486.2486,0,0,1,.251-.25" fill="none"/><path d="M16.001,10.3a.25.25,0,1,1-.251.25.2486.2486,0,0,1,.251-.25" fill="none"/><path d="M0,0H24V24H0Z" fill="none"/><path d="M21,20l-5-.0001" fill="none" stroke="#323232" stroke-linecap="round" stroke-linejoin="round" stroke-width="1.5"/><path d="M19.78,20V9.98706" fill="none" stroke="#323232" stroke-linecap="round" stroke-linejoin="round" stroke-width="1.5"/><path d="M4,16.97385V15.046A2.046,2.046,0,0,1,6.04605,13H7.97353a2.04606,2.04606,0,0,1,1.4467.59919l2.98042,2.98007a2.046,2.046,0,0,1,.00025,2.89342l-1.92743,1.92788a2.04606,2.04606,0,0,1-2.89364.00025L4.59935,18.42069A2.046,2.046,0,0,1,4,16.97385Z" fill="none" stroke="#323232" stroke-linecap="round" stroke-linejoin="round" stroke-width="1.5"/><path d="M6.96469,15.9646a.05.05,0,1,1-.00009.00009l.00009-.00009" fill="none" stroke="#323232" stroke-linecap="round" stroke-linejoin="round" stroke-width="1.5"/><path d="M2.27578,6.47765A2.33858,2.33858,0,0,0,2.113,8.28433a2.4607,2.4607,0,0,0,4.7201-.10092.14405.14405,0,0,1,.27625,0,2.46262,2.46262,0,0,0,4.75259-.00051.144.144,0,0,1,.27621,0,2.46264,2.46264,0,0,0,4.75263-.00017.14407.14407,0,0,1,.27626,0,2.46068,2.46068,0,0,0,4.71992.10108,2.3386,2.3386,0,0,0-.16272-1.807L20.01752,3.09822A2,2,0,0,0,18.23236,2H5.76809A2,2,0,0,0,3.98293,3.09822Z" fill="none" stroke="#323232" stroke-linecap="round" stroke-linejoin="round" stroke-width="1.5"/></svg>