<?xml version="1.0" encoding="UTF-8"?><svg version="1.1" viewBox="0 0 24 24" xmlns="http://www.w3.org/2000/svg" xmlns:xlink="http://www.w3.org/1999/xlink"><g stroke-linecap="round" stroke-width="1.5" stroke="#323232" fill="none" stroke-linejoin="round"><path d="M3 21h3"></path><path d="M18 21h3"></path><path d="M20 21v-10.24"></path><path d="M4.253 10.778v0l9.34061e-08 1.06404e-12c-1.24264-1.41271e-05-2.24999-1.00738-2.24997-2.25003 4.0259e-06-.354125.0835951-.703248.243974-1.01897l1.735-3.415 -4.84086e-08 9.52688e-08c.34105-.671192 1.03013-1.09399 1.783-1.094h12.47l9.993e-08 1.05338e-12c.75287 7.95476e-06 1.44195.422808 1.783 1.094l1.735 3.415 6.1538e-08 1.21145e-07c.562778 1.1079.120872 2.46225-.987026 3.02503 -.315726.160379-.66485.24397-1.01897.243974v0"></path><path d="M14.582 10.778l-1.29703e-07-5.03917e-11c1.42483.000553613 2.58079-1.15317 2.583-2.578l2.84217e-14-3.89871e-07c-2.1532e-07 1.426 1.156 2.582 2.582 2.582"></path><path d="M9.417 10.778l-1.29703e-07-5.03917e-11c1.42483.000553613 2.58079-1.15317 2.583-2.578l2.84217e-14 3.89871e-07c2.1532e-07 1.426 1.156 2.582 2.582 2.582"></path><path d="M4.252 10.778l-1.29703e-07-5.03917e-11c1.42483.000553613 2.58079-1.15317 2.583-2.578l2.84217e-14 3.89871e-07c2.1532e-07 1.426 1.156 2.582 2.582 2.582"></path><path d="M4 21v-10.24"></path><path d="M11.329 14.429l-3.08068e-08 6.24872e-08c.182429-.370031.630286-.522112 1.00032-.339684 .14754.0727387.266945.192143.339684.339683l.546 1.107 -1.9998e-08-4.07154e-08c.108336.220569.318723.373306.562.408l1.223.182 1.27245e-08 1.86663e-09c.408188.0598794.690548.439323.630669.847511 -.0237934.162196-.100281.312061-.217669.426489l-.884.862 -2.2211e-08 2.15574e-08c-.176455.171262-.256602.418818-.214.661l.208 1.216 -1.70148e-08-9.84119e-08c.0701915.405981-.20202.791996-.608001.862187 -.162292.0280591-.329307.00162254-.474999-.0751869l-1.092-.574 7.52871e-08 4.02052e-08c-.218717-.1168-.481283-.1168-.7-8.04104e-08l-1.091.574 4.16555e-08-2.1961e-08c-.364457.192143-.81567.0524554-1.00781-.312001 -.0768095-.145692-.103246-.312707-.075187-.474999l.208-1.216 1.77413e-08-1.02132e-07c.0420629-.242144-.038004-.489453-.214-.661l-.88-.862 2.13282e-08 2.07802e-08c-.295493-.2879-.301649-.760835-.0137482-1.05633 .114233-.117246.263816-.193723.425748-.217672l1.222-.182 2.76931e-08-3.94937e-09c.243277-.0346943.453664-.187431.562-.408Z"></path></g><path fill="none" d="M0 0h24v24h-24Z"></path></svg>