<svg viewBox="0 0 24 24" xmlns="http://www.w3.org/2000/svg"><g fill="none"><path d="M24 24H0V0h24Z"/><g stroke-linecap="round" stroke-width="1.5" stroke="#323232" fill="none" stroke-linejoin="round"><path d="M9.33 6.58l-2.3 2.29L5.65 7.49"/><path d="M12.78 6l0 0c-.83-2.93-3.87-4.62-6.79-3.8 -2.93.82-4.62 3.86-3.8 6.78 .52 1.83 1.95 3.27 3.79 3.79"/><path d="M16 21l0-2.31"/><path d="M10 21h12"/><path d="M10.99 14.79v6.2"/><path d="M20.99 20.99v-6.2"/><path d="M11.84 15v0l-.01-.001c-1.02-.01-1.85-.83-1.85-1.85 0-.29.06-.57.19-.83l.6-1.22 -.01 0c.34-.69 1.04-1.13 1.81-1.13h6.76l-.01 0c.76-.01 1.46.43 1.81 1.11l.6 1.2 0 0c.46.91.09 2.02-.82 2.48 -.26.13-.55.19-.84.19v0l-.01-.001c-.91-.01-1.72-.6-1.99-1.46l0 0c-.02-.06-.07-.09-.12-.08 -.04 0-.07.03-.08.07l0-.01c-.35 1.09-1.51 1.7-2.61 1.36 -.66-.21-1.17-.72-1.37-1.37l0 0c-.02-.06-.07-.09-.12-.08 -.04 0-.07.03-.08.07l0-.01c-.28.86-1.08 1.45-1.99 1.45Z"/></g></g></svg>