<?xml version="1.0" encoding="UTF-8"?><svg version="1.1" viewBox="0 0 24 24" xmlns="http://www.w3.org/2000/svg" xmlns:xlink="http://www.w3.org/1999/xlink"><!--Generated by IJSVG (https://github.com/iconjar/IJSVG)--><g stroke-linecap="round" stroke-width="1.5" stroke="#323232" fill="none" stroke-linejoin="round"><path d="M7,21h-2c-1.105,0 -2,-0.895 -2,-2v-2"></path><path d="M3,7v-2c0,-1.105 0.895,-2 2,-2h2"></path><path d="M17,3h2c1.105,0 2,0.895 2,2v2"></path><path d="M21,17v2c0,1.105 -0.895,2 -2,2h-2"></path><path stroke-dasharray="0 2.9129" d="M16.5962,7.40381c2.53841,2.53841 2.53841,6.65398 0,9.19239c-2.53841,2.53841 -6.65398,2.53841 -9.19239,0c-2.53841,-2.53841 -2.53841,-6.65398 -8.88178e-16,-9.19239c2.53841,-2.53841 6.65398,-2.53841 9.19239,-8.88178e-16"></path><path d="M12,10v4"></path><path d="M14,12h-4"></path></g><path fill="none" d="M0,0h24v24h-24Z"></path></svg>