<?xml version="1.0" encoding="UTF-8"?><svg version="1.1" viewBox="0 0 24 24" xmlns="http://www.w3.org/2000/svg" xmlns:xlink="http://www.w3.org/1999/xlink"><g fill="none"><path d="M0 0h24v24h-24v-24Z"></path><path stroke="#323232" stroke-linecap="round" stroke-linejoin="round" stroke-width="1.5" d="M14 19.91h7"></path><path stroke="#323232" stroke-linecap="round" stroke-linejoin="round" stroke-width="1.5" d="M19.78 9.78v10.13"></path><path stroke="#323232" stroke-linecap="round" stroke-linejoin="round" stroke-width="1.5" d="M4.301 9.778c-1.698-.012-2.805-1.693-2.069-3.142l1.716-3.377c.39-.77 1.212-1.259 2.114-1.259h11.876c.902 0 1.724.489 2.115 1.259l1.716 3.377c.736 1.449-.371 3.13-2.069 3.142 -1.417 0-2.566-.968-2.566-2.163v-.048c0 1.221-1.149 2.211-2.566 2.211 -1.419 0-2.568-.99-2.568-2.211 0 1.221-1.149 2.211-2.566 2.211 -1.417 0-2.566-.99-2.566-2.211v.048c-.001 1.195-1.15 2.163-2.567 2.163Z"></path><path stroke="#323232" stroke-linecap="round" stroke-linejoin="round" stroke-width="1.5" d="M7.901 16.8l-1.75 1.75 -1.051-1.05"></path><path stroke="#323232" stroke-linecap="round" stroke-linejoin="round" stroke-width="1.5" d="M2.248 18.232l.598.782 .129.973c.072.54.496.965 1.036 1.037l.976.13 .781.597c.432.33 1.032.331 1.465 0l.782-.597h-.001l.974-.129c.54-.072.965-.496 1.037-1.036l.13-.976c0 0 .302-.395.598-.781 .33-.432.33-1.032 0-1.464l-.598-.782 -.129-.973c-.072-.54-.496-.965-1.036-1.037l-.976-.13 -.781-.597c-.432-.33-1.032-.331-1.465 0l-.782.597h.001l-.974.129c-.54.072-.965.496-1.037 1.036l-.13.976c0 0-.302.395-.598.781 -.33.432-.33 1.032 0 1.464Z"></path><path d="M24 24h-24v-24h24v24Z"></path></g></svg>