<?xml version="1.0" encoding="UTF-8"?><svg version="1.1" viewBox="0 0 24 24" xmlns="http://www.w3.org/2000/svg" xmlns:xlink="http://www.w3.org/1999/xlink"><!--Generated by IJSVG (https://github.com/iconjar/IJSVG)--><defs><path d="M0,0h24v24h-24Z" id="a"></path></defs><g stroke-linecap="round" stroke-width="1.5" stroke="#323232" fill="none" stroke-linejoin="round"><path d="M17,18h-10c-0.552,0 -1,-0.448 -1,-1v-5c0,-0.552 0.448,-1 1,-1h10c0.552,0 1,0.448 1,1v5c0,0.552 -0.448,1 -1,1Z"></path><path d="M5,21h14c1.105,0 2,-0.895 2,-2v-14c0,-1.105 -0.895,-2 -2,-2h-14c-1.105,0 -2,0.895 -2,2v14c0,1.105 0.895,2 2,2Z"></path><path d="M21,8h-18"></path><path d="M6,5.5v0"></path><path d="M9,5.5v0"></path><path d="M12,5.5v0"></path><path d="M18,5.5v0"></path></g><use fill="none" transform="matrix(-1,-4.50201e-11,4.50201e-11,-1,24,24)" xlink:href="#a"></use><use transform="matrix(-1,-4.50201e-11,4.50201e-11,-1,24,24)" xlink:href="#a" fill="none"></use></svg>