<svg viewBox="0 0 24 24" xmlns="http://www.w3.org/2000/svg"><g stroke-linecap="round" stroke-width="1.5" fill-rule="evenodd" stroke="#323232" fill="none" stroke-linejoin="round"><path d="M18.92 12.05l0-.01c.01-.15-.09-.27-.23-.29 -.05-.01-.09 0-.13.01L5.39 15.93l0-.01c-.21.07-.35.27-.35.49v4.26l-.01 0c-.02.14.08.26.22.28 .04 0 .08 0 .12-.02l13.16-4.18 -.01 0c.2-.08.34-.28.34-.5Z"/><path d="M5.07 11.91l0 0c0 .21.14.41.34.49l13.16 4.17 -.01-.01c.13.05.28-.02.33-.15 .01-.04.02-.09.01-.13V12.01l0 0c-.01-.22-.15-.42-.35-.5L5.38 7.33l-.01-.01c-.14-.06-.29.01-.34.14 -.02.03-.03.08-.02.12Z"/><path d="M18.92 3.28l0-.01c.01-.15-.09-.27-.23-.29 -.05-.01-.09 0-.13.01L5.39 7.16l0-.01c-.21.07-.35.27-.35.49v4.26l-.01 0c-.02.14.08.26.22.28 .04 0 .08-.01.12-.02l13.16-4.18 -.01 0c.2-.08.34-.28.34-.5Z"/></g><path fill="none" d="M0 24V0h24v24Z"/></svg>