<?xml version="1.0" encoding="UTF-8"?><svg version="1.1" viewBox="0 0 24 24" xmlns="http://www.w3.org/2000/svg" xmlns:xlink="http://www.w3.org/1999/xlink"><g fill="none"><path d="M0 0h24v24h-24Z"></path><path stroke="#323232" stroke-linecap="round" stroke-linejoin="round" stroke-width="1.5" d="M19 21h-14l-8.74228e-08-3.55271e-15c-1.10457-4.82823e-08-2-.895431-2-2 0 0 0 0 0 0v-9l2.30926e-14 3.01992e-07c-1.66785e-07-1.10457.89543-2 2-2h14l-8.74228e-08 1.77636e-15c1.10457-4.82823e-08 2 .89543 2 2v9l3.55271e-15 8.74228e-08c0 1.10457-.895431 2-2 2 -2.70922e-08 0-6.03305e-08 0-8.74228e-08-3.55271e-15Z"></path><path stroke="#323232" stroke-linecap="round" stroke-linejoin="round" stroke-width="1.5" d="M16 21v-15 0c0-1.10457-.895431-2-2-2h-4l-8.74228e-08 1.77636e-15c-1.10457 4.82823e-08-2 .895431-2 2 0 0 0 8.88178e-16 0 8.88178e-16v15"></path></g></svg>