<svg xmlns="http://www.w3.org/2000/svg" viewBox="0 0 24 24"><g id="Layer_2" data-name="Layer 2"><path d="M17.99986,13,18,19.54313a1.97434,1.97434,0,0,1-1.45361,1.92627,19.74289,19.74289,0,0,1-9.09276,0A1.97434,1.97434,0,0,1,6,19.54311L6.00014,13" fill="none" stroke="#323232" stroke-linecap="round" stroke-linejoin="round" stroke-width="1.5"/><path d="M6,19H3.08329a1,1,0,0,1-.99982-.98115l-.08276-4.3898a3.99982,3.99982,0,0,1,.17-1.23137L3.80642,6.979A2,2,0,0,1,5.06871,5.66642L7,5,8.41421,3.58579A2,2,0,0,1,9.82843,3h4.34314a2,2,0,0,1,1.41422.58579L17,5l1.93129.66642A2,2,0,0,1,20.19358,6.979l1.63574,5.41864a3.99982,3.99982,0,0,1,.17,1.23137l-.08276,4.3898A1,1,0,0,1,20.91671,19H18" fill="none" stroke="#323232" stroke-linecap="round" stroke-linejoin="round" stroke-width="1.5"/><path d="M12.53061,7.11624l2.49651.83214a1,1,0,0,0,1.27257-.65646L17,5" fill="none" stroke="#323232" stroke-linecap="round" stroke-linejoin="round" stroke-width="1.5"/><path d="M11.46939,7.11624l-2.49651.83214a1,1,0,0,1-1.27257-.65646L7,5" fill="none" stroke="#323232" stroke-linecap="round" stroke-linejoin="round" stroke-width="1.5"/><polyline points="14.914 3.143 12 8 9.086 3.143" fill="none" stroke="#323232" stroke-linecap="round" stroke-linejoin="round" stroke-width="1.5"/><rect width="24" height="24" transform="translate(24 24) rotate(-180)" fill="none"/></g></svg>