<svg xmlns="http://www.w3.org/2000/svg" viewBox="0 0 24 24"><g id="Layer_2" data-name="Layer 2"><rect width="24" height="24" fill="none"/><line x1="18.70165" y1="5" x2="5.29835" y2="5" fill="none" stroke="#323232" stroke-linecap="round" stroke-linejoin="round" stroke-width="1.5"/><path d="M20,17.46642V20.328a1,1,0,0,1-.82111.98387l-3.695.67182a1,1,0,0,1-1.16276-.805L12.5,11.16258h-1L9.67889,21.17871a1,1,0,0,1-1.16276.805l-3.695-.67182A1,1,0,0,1,4,20.328V17.46643A60.49969,60.49969,0,0,1,5.73818,3.06857L5.81329,2.762A1,1,0,0,1,6.78456,2H17.21544a1,1,0,0,1,.97127.762l.07512.30657A60.5,60.5,0,0,1,20,17.46642Z" fill="none" stroke="#323232" stroke-linecap="round" stroke-linejoin="round" stroke-width="1.5"/><line x1="10.5" y1="5" x2="10.5" y2="7" fill="none" stroke="#323232" stroke-linecap="round" stroke-linejoin="round" stroke-width="1.5"/><line x1="13.5" y1="5" x2="13.5" y2="7" fill="none" stroke="#323232" stroke-linecap="round" stroke-linejoin="round" stroke-width="1.5"/></g></svg>