<svg id="Layer_3" data-name="Layer 3" xmlns="http://www.w3.org/2000/svg" viewBox="0 0 24 24"><rect width="24" height="24" fill="none"/><path d="M15.5,3.01987h0A2.98013,2.98013,0,0,1,12.51987,6H11.48013A2.98013,2.98013,0,0,1,8.5,3.01987h0" fill="none" stroke="#323232" stroke-linecap="round" stroke-linejoin="round" stroke-width="1.5"/><path d="M17.98759,13.996l3.24144-.76355a1,1,0,0,0,.74087-1.21589L20.67418,6.83366a4,4,0,0,0-2.16609-2.64379l-1.69431-.8038A3.99992,3.99992,0,0,0,15.09929,3H8.90071a3.99992,3.99992,0,0,0-1.71449.38607l-1.69431.8038A4,4,0,0,0,3.32582,6.83366L2.0301,12.01654A1,1,0,0,0,2.771,13.23243l3.2165.75767" fill="none" stroke="#323232" stroke-linecap="round" stroke-linejoin="round" stroke-width="1.5"/><path d="M6.00012,11,6,19.54327A1.97448,1.97448,0,0,0,7.454,21.46972a19.748,19.748,0,0,0,9.09225-.00023A1.97445,1.97445,0,0,0,18,19.54309L17.99988,11" fill="none" stroke="#323232" stroke-linecap="round" stroke-linejoin="round" stroke-width="1.5"/></svg>