<?xml version="1.0" encoding="UTF-8"?><svg version="1.1" viewBox="0 0 24 24" xmlns="http://www.w3.org/2000/svg" xmlns:xlink="http://www.w3.org/1999/xlink"><g fill="none"><path d="M24 24h-24v-24h24Z"></path><path stroke="#323232" stroke-linecap="round" stroke-linejoin="round" stroke-width="1.5" d="M6.293 12.707l6.414-6.414 -3.0608e-08 3.06172e-08c.390382-.3905.390382-1.0235 6.1216e-08-1.414l-1.586-1.586 4.18572e-08 4.18445e-08c-.3905-.390382-1.0235-.390382-1.414-8.3689e-08l-6.414 6.414 8.42765e-08-8.4251e-08c-.187549.187493-.292943.441805-.293.707v2.586h2.586l1.02845e-08-2.19558e-12c.265195-5.66401e-05.519507-.105451.707-.293Z"></path><rect width="18" height="4" x="3" y="17" stroke="#323232" stroke-linecap="round" stroke-linejoin="round" stroke-width="1.5"></rect></g></svg>