<?xml version="1.0" encoding="UTF-8"?><svg version="1.1" viewBox="0 0 24 24" xmlns="http://www.w3.org/2000/svg" xmlns:xlink="http://www.w3.org/1999/xlink"><g fill="none"><path d="M0 0h24v24h-24Z"></path><path stroke="#323232" stroke-linecap="round" stroke-linejoin="round" stroke-width="1.5" d="M10.5 18h-5.5l-8.74228e-08-3.55271e-15c-1.10457-4.82823e-08-2-.895431-2-2 0 0 0 0 0 0v-11l2.30926e-14 3.01992e-07c-1.66785e-07-1.10457.89543-2 2-2h11l-8.74228e-08 1.77636e-15c1.10457-4.82823e-08 2 .89543 2 2v5.5"></path><line x1="18" x2="3" y1="10.5" y2="10.5" stroke="#323232" stroke-linecap="round" stroke-linejoin="round" stroke-width="1.5"></line><line x1="10.5" x2="10.5" y1="3" y2="18" stroke="#323232" stroke-linecap="round" stroke-linejoin="round" stroke-width="1.5"></line><path stroke="#323232" stroke-linecap="round" stroke-linejoin="round" stroke-width="1.5" d="M18.293 20.707l3.414-3.414 -3.0608e-08 3.06172e-08c.390382-.3905.390382-1.0235 6.1216e-08-1.414l-1.586-1.586 4.18572e-08 4.18445e-08c-.3905-.390382-1.0235-.390382-1.414-8.3689e-08l-3.414 3.414 8.42765e-08-8.4251e-08c-.187549.187493-.292943.441805-.293.707v2.586h2.586l5.69877e-08-1.21751e-11c.265195-5.66717e-05.519507-.105451.707-.293Z"></path></g></svg>