<svg id="Layer_3" data-name="Layer 3" xmlns="http://www.w3.org/2000/svg" viewBox="0 0 24 24"><rect width="24" height="24" fill="none"/><rect x="8" y="3" width="8" height="4" rx="1" stroke-width="1.5" stroke="#323232" stroke-linecap="round" stroke-linejoin="round" fill="none"/><path d="M12,21H6a2,2,0,0,1-2-2V7A2,2,0,0,1,6,5H8" fill="none" stroke="#323232" stroke-linecap="round" stroke-linejoin="round" stroke-width="1.5"/><path d="M16,5h2a2,2,0,0,1,2,2V9" fill="none" stroke="#323232" stroke-linecap="round" stroke-linejoin="round" stroke-width="1.5"/><line x1="18" y1="21" x2="18" y2="18.5" fill="none" stroke="#323232" stroke-linecap="round" stroke-linejoin="round" stroke-width="1.5"/><path d="M15.889,15.0423l-.3692-1.84626A1,1,0,0,1,16.50033,12H19.4997a.99994.99994,0,0,1,.98053,1.196L20.111,15.0423a1,1,0,0,0,.12309.71059l1.19387,1.9898a.5.5,0,0,1-.42878.75731H15.00082a.5.5,0,0,1-.42879-.75732l1.19386-1.98979A1,1,0,0,0,15.889,15.0423Z" fill="none" stroke="#323232" stroke-linecap="round" stroke-linejoin="round" stroke-width="1.5"/></svg>