<svg viewBox="0 0 24 24" xmlns="http://www.w3.org/2000/svg"><path fill="none" stroke="#323232" stroke-linecap="round" stroke-linejoin="round" stroke-width="1.5" d="M11 21H8l-.01-.001c-2.77-.01-5-2.24-5-5.01 0 0 0-.001 0-.001v-8l0 0c-.01-2.77 2.23-5.01 4.99-5.01h8l-.01 0c2.76-.01 5 2.23 5 4.99v3"/><g stroke-width="1.5" fill="none" stroke="#323232"><path d="M17.5 13a4.5 4.5 0 1 0 0 9 4.5 4.5 0 1 0 0-9Z"/><g stroke-linecap="round" stroke-width="1.5" stroke="#323232" fill="none" stroke-linejoin="round"><path d="M17.5 16l0 3"/><path d="M16 17.5l3 0"/><path d="M6.952 9.72l.91.82 1.85-1.67"/><path d="M12.95 10h4"/><path d="M6.952 14.72l.91.82 1.85-1.67"/></g></g><path fill="none" d="M0 0h24v24H0Z"/></svg>