<svg viewBox="0 0 24 24" xmlns="http://www.w3.org/2000/svg"><g fill="none"><path d="M0 0h24v24H0Z"/><g stroke-linecap="round" stroke-width="1.5" stroke="#323232" fill="none" stroke-linejoin="round"><path d="M16.5 18.5v-1.67"/><path d="M16.5 14.49h0c-.04-.01-.06.02-.06.05v0l-.01 0c-.01.03.02.05.05.05 .03 0 .05-.03.05-.06 0-.04-.03-.06-.06-.06 -.01-.001-.01 0-.01 0"/><path d="M14.5 12H13l-.01 0c-.56 0-1 .44-1 1 0 0 0 0 0 0v7l0 0c0 .55.44.99 1 .99h1.5"/><path d="M18.5 12H20l-.01 0c.55-.01 1 .44 1 .99v7 0c0 .55-.45 1-1 1h-1.5"/><path d="M8 5H6l-.01 0c-1.11 0-2 .89-2 2 0 0 0 0 0 0v12l0 0c0 1.1.89 1.99 2 1.99h2.99"/><rect width="8" height="4" x="8" y="3" rx="1"/><path d="M16 5h2l-.01 0c1.1-.01 2 .89 2 1.99v2"/></g></g></svg>