<svg id="Layer_3" data-name="Layer 3" xmlns="http://www.w3.org/2000/svg" viewBox="0 0 24 24"><g id="Layer_22" data-name="Layer 22"><path d="M0,0H24V24H0Z" fill="none"/><rect x="0.00001" width="24" height="24" fill="none"/><rect x="8" y="3" width="8" height="4" rx="1" stroke-width="1.5" stroke="#323232" stroke-linecap="round" stroke-linejoin="round" fill="none"/><path d="M16,5h2a2,2,0,0,1,2,2V19a2,2,0,0,1-2,2H6a2,2,0,0,1-2-2V7A2,2,0,0,1,6,5H8" fill="none" stroke="#323232" stroke-linecap="round" stroke-linejoin="round" stroke-width="1.5"/><path d="M16.20764,14.63467l-2.07246,2.07246A1,1,0,0,1,13.42807,17H11.75a.25.25,0,0,1-.25-.25V15.07187a1,1,0,0,1,.29279-.707L13.864,12.293a1,1,0,0,1,1.41437-.00012l.92841.92841A.9992.9992,0,0,1,16.20764,14.63467Z" fill="none" stroke="#323232" stroke-linecap="round" stroke-linejoin="round" stroke-width="1.5"/><line x1="7.5" y1="17" x2="8.5" y2="17" fill="none" stroke="#323232" stroke-linecap="round" stroke-linejoin="round" stroke-width="1.5"/></g></svg>