<svg id="Layer_3" data-name="Layer 3" xmlns="http://www.w3.org/2000/svg" viewBox="0 0 24 24"><path d="M9,6H5.8A1.8,1.8,0,0,0,4,7.8V19.2A1.8,1.8,0,0,0,5.8,21H18.2A1.8,1.8,0,0,0,20,19.2V7.8A1.8,1.8,0,0,0,18.2,6H15" fill="none" stroke="#323232" stroke-linecap="round" stroke-linejoin="round" stroke-width="1.5"/><path d="M15,6h0a3,3,0,0,0-3-3h0A3,3,0,0,0,9,6H9" fill="none" stroke="#323232" stroke-linecap="round" stroke-linejoin="round" stroke-width="1.5"/><path d="M12,15V12" fill="none" stroke="#323232" stroke-linecap="round" stroke-linejoin="round" stroke-width="1.5"/><path d="M13.5,13.5h-3" fill="none" stroke="#323232" stroke-linecap="round" stroke-linejoin="round" stroke-width="1.5"/><rect width="24" height="24" fill="none"/></svg>