<svg viewBox="0 0 24 24" xmlns="http://www.w3.org/2000/svg"><g stroke-linecap="round" stroke-width="1.5" stroke="#323232" fill="none" stroke-linejoin="round"><path d="M13.5 17.5h5v3 0c0 .55-.45 1-1 1h-3 -.01c-.56-.01-1-.45-1-1.01 0 0 0-.001 0-.001Z"/><path d="M14 11.5h4l-.01 0c.55-.01 1 .44 1 .99v2h-6v-2l0-.01c0-.56.44-1 1-1Z"/><path d="M13.432 19.5h-1.44 -.01c-.56-.01-1-.45-1-1.01 0 0 0-.001 0-.001v-3l0 0c-.01-.56.44-1.01.99-1.01h8l-.01 0c.55-.01 1 .44 1 .99v3 0c0 .55-.45 1-1 1h-1.44"/><path d="M7 4H5l-.01 0c-1.11 0-2 .89-2 2 0 0 0 0 0 0v12l0 0c0 1.1.89 1.99 2 1.99h2.99"/><rect width="8" height="4" x="7" y="2" rx="1"/><path d="M15 4h2l-.01 0c1.1-.01 2 .89 2 1.99v2"/></g><path fill="none" d="M0 0h24v24H0Z"/></svg>