<svg id="Layer_3" data-name="Layer 3" xmlns="http://www.w3.org/2000/svg" viewBox="0 0 24 24"><polyline points="0 0 24 0 24 24 0 24" fill="none"/><path d="M14.5,8.0625H16a1,1,0,0,1,1,1V16a1,1,0,0,1-1,1H8a1,1,0,0,1-1-1V9.0625a1,1,0,0,1,1-1H9.5" fill="none" stroke="#323232" stroke-linecap="round" stroke-linejoin="round" stroke-width="1.5"/><rect x="9.5" y="6.4375" width="5" height="3" rx="1" stroke-width="1.5" stroke="#323232" stroke-linecap="round" stroke-linejoin="round" fill="none"/><line x1="10.75" y1="13" x2="13.25" y2="13" fill="none" stroke="#323232" stroke-linecap="round" stroke-linejoin="round" stroke-width="1.5"/><rect x="3" y="3" width="18" height="18" rx="5" stroke-width="1.5" stroke="#323232" stroke-linecap="round" stroke-linejoin="round" fill="none"/><path d="M0,0H24V24H0" fill="none"/></svg>