<svg id="Layer_3" data-name="Layer 3" xmlns="http://www.w3.org/2000/svg" viewBox="0 0 24 24"><path d="M7,6H17" fill="none" stroke="#323232" stroke-linecap="round" stroke-linejoin="round" stroke-width="1.5"/><path d="M20,21H18a1.003,1.003,0,0,1-1-1V16a1.003,1.003,0,0,1,1-1h2a1.003,1.003,0,0,1,1,1v4A1.003,1.003,0,0,1,20,21Z" fill="none" stroke="#323232" stroke-linecap="round" stroke-linejoin="round" stroke-width="1.5"/><line x1="12" y1="18" x2="12" y2="15.5" fill="none" stroke="#323232" stroke-linecap="round" stroke-linejoin="round" stroke-width="1.5"/><line x1="12" y1="6" x2="12" y2="8.5" fill="none" stroke="#323232" stroke-linecap="round" stroke-linejoin="round" stroke-width="1.5"/><path d="M7,18H17" fill="none" stroke="#323232" stroke-linecap="round" stroke-linejoin="round" stroke-width="1.5"/><path d="M6,21H4a1.003,1.003,0,0,1-1-1V16a1.00294,1.00294,0,0,1,1-1H6a1.00294,1.00294,0,0,1,1,1v4A1.003,1.003,0,0,1,6,21Z" fill="none" stroke="#323232" stroke-linecap="round" stroke-linejoin="round" stroke-width="1.5"/><path d="M20,9H18a1.003,1.003,0,0,1-1-1V4a1.003,1.003,0,0,1,1-1h2a1.003,1.003,0,0,1,1,1V8A1.003,1.003,0,0,1,20,9Z" fill="none" stroke="#323232" stroke-linecap="round" stroke-linejoin="round" stroke-width="1.5"/><path d="M6,9H4A1.00294,1.00294,0,0,1,3,8V4A1.00294,1.00294,0,0,1,4,3H6A1.00294,1.00294,0,0,1,7,4V8A1.00294,1.00294,0,0,1,6,9Z" fill="none" stroke="#323232" stroke-linecap="round" stroke-linejoin="round" stroke-width="1.5"/><line x1="14" y1="11.3" x2="12.5" y2="12.8" fill="none" stroke="#323232" stroke-linecap="round" stroke-linejoin="round" stroke-width="1.5"/><line x1="12.5" y1="12.8" x2="11.25" y2="11.55" fill="none" stroke="#323232" stroke-linecap="round" stroke-linejoin="round" stroke-width="1.5"/><line x1="11.25" y1="11.55" x2="10" y2="12.8" fill="none" stroke="#323232" stroke-linecap="round" stroke-linejoin="round" stroke-width="1.5"/><path d="M24,24H0V0H24Z" fill="none"/></svg>