<?xml version="1.0" encoding="UTF-8"?><svg version="1.1" viewBox="0 0 24 24" xmlns="http://www.w3.org/2000/svg" xmlns:xlink="http://www.w3.org/1999/xlink"><g stroke-linecap="round" stroke-width="1.5" stroke="#323232" fill="none" stroke-linejoin="round"><path d="M12 3l-3.93403e-07 8.88178e-15c4.97056-2.1727e-07 9 4.02944 9 9 2.1727e-07 4.97056-4.02944 9-9 9 -4.97056 2.1727e-07-9-4.02944-9-9l1.03029e-13 1.35896e-06c-7.50534e-07-4.97056 4.02944-9 9-9"></path><path d="M14.55 15.783l-2.983 5.217"></path><path d="M4.43 7.14l3.009 5.16"></path><circle cx="8.46" cy="14.05" r="2"></circle><circle cx="15.544" cy="14.05" r="2"></circle><circle cx="12" cy="7.91" r="2"></circle><path d="M14 7.91h6.02"></path></g><path fill="none" d="M0 0h24v24h-24Z"></path></svg>