<?xml version="1.0" encoding="UTF-8"?><svg version="1.1" viewBox="0 0 24 24" xmlns="http://www.w3.org/2000/svg" xmlns:xlink="http://www.w3.org/1999/xlink"><g stroke-linecap="round" stroke-width="1.5" stroke="#323232" fill="none" stroke-linejoin="round"><path d="M12.693 14.449l.567 1.417 1.77923e-08 4.44795e-08c.152933.38232.523227.633011.935.633v0l-4.99475e-08 2.97824e-11c.502945-.000299877.957458-.299901 1.156-.762l.14-.326 2.56639e-08-5.98816e-08c.689203-1.60811 1.04472-3.33942 1.045-5.089v0l4.1614e-08-3.46157e-05c.000611527-.511293-.137648-1.01315-.400018-1.452v0l1.09602e-08 1.82573e-08c-.655368-1.0917-1.96025-1.60979-3.18598-1.26497l-.538.151 3.33131e-08-9.34026e-09c-.267509.0750035-.550491.0750035-.818 1.86805e-08l-.538-.151 7.75824e-08 2.17992e-08c-1.22543-.344323-2.52975.17372-3.185 1.265v0l-8.89436e-08 1.48872e-07c-.262225.438905-.400467.940728-.4 1.452v0l-3.1351e-07.00284209c-2.64189e-07 1.74965.355923 3.48101 1.04612 5.08877l.14.326 -7.80972e-08-1.82998e-07c.197459.462686.651941.76292 1.155.763v0l3.36219e-08 9.30811e-13c.411773 1.13571e-05.782067-.25068.935-.633l.567-1.417 1.01089e-09-2.54538e-09c.111838-.281604.382895-.467588.685879-.470612v0l-4.04528e-08 9.83391e-11c.304778-.000740905.579271.184235.693.467Z"></path><path d="M12.949 10.3l-5.54835e-08 1.55939e-08c-.619335.174067-1.27466.174067-1.894-3.11878e-08"></path><rect width="18" height="18" x="3.002" y="3" rx="2.7614" ry="0"></rect></g><path fill="none" d="M0 0h24v24h-24Z"></path></svg>