<?xml version="1.0" encoding="UTF-8"?><svg version="1.1" viewBox="0 0 24 24" xmlns="http://www.w3.org/2000/svg" xmlns:xlink="http://www.w3.org/1999/xlink"><g stroke-linecap="round" stroke-width="1.5" stroke="#323232" fill="none" stroke-linejoin="round"><path d="M12.691 14.449l.567 1.417c.153.382.523.633.935.633v0c.503 0 .957-.3 1.156-.762l.14-.326c.689-1.608 1.045-3.34 1.045-5.089v0c0-.512-.139-1.013-.402-1.452v0c-.655-1.091-1.959-1.609-3.184-1.265l-.538.151c-.267.075-.55.075-.818 0l-.538-.151c-1.226-.344-2.53.174-3.185 1.265v0c-.263.439-.402.941-.402 1.452v0c0 1.75.355 3.481 1.045 5.089l.14.326c.198.463.652.763 1.155.763v0c.412 0 .782-.251.935-.633l.567-1.417c.113-.282.387-.468.691-.468v0c.304 0 .578.185.691.467Z"></path><circle cx="12" cy="12" r="9"></circle><path d="M12.947 10.304c-.619.174-1.275.174-1.894 0"></path></g><path fill="none" d="M0 0h24v24h-24v-24Z"></path></svg>