<?xml version="1.0" encoding="UTF-8"?><svg version="1.1" viewBox="0 0 24 24" xmlns="http://www.w3.org/2000/svg" xmlns:xlink="http://www.w3.org/1999/xlink"><g stroke-linecap="round" stroke-width="1.5" stroke="#323232" fill="none" stroke-linejoin="round"><path d="M14.149 14.875c-.441.387-1.017.625-1.649.625 -1.381 0-2.5-1.119-2.5-2.5 0-1.381 1.119-2.5 2.5-2.5 .633 0 1.209.237 1.649.625"></path><circle cx="12" cy="12" r="9"></circle><path d="M9.249 7.981c-.138 0-.25.112-.249.25 0 .138.112.25.25.25 .138 0 .25-.112.25-.25 0-.138-.112-.25-.251-.25"></path></g><path fill="none" d="M24 0v24h-24v-24h24Z"></path></svg>