<?xml version="1.0" encoding="UTF-8"?><svg version="1.1" viewBox="0 0 24 24" xmlns="http://www.w3.org/2000/svg" xmlns:xlink="http://www.w3.org/1999/xlink"><g fill="none"><path d="M0 0h24v24h-24Z"></path><path stroke="#323232" stroke-linecap="round" stroke-linejoin="round" stroke-width="1.5" d="M7.5 3h-2.5l-4.4316e-08-1.21911e-11c-1.10427-.000303774-1.9997.894634-2 1.9989 -1.00881e-07.000366717-1.00873e-07.000733434 2.442e-11.00110015v2.5"></path><path stroke="#323232" stroke-linecap="round" stroke-linejoin="round" stroke-width="1.5" d="M3 16.5v2.5l-7.56666e-08.000549774c-1.66739e-07 1.10427.895184 1.99945 1.99945 1.99945 .000366717 5.53726e-11.000733434-1.00778e-07.00110015-3.025e-07h2.49945"></path><path stroke="#323232" stroke-linecap="round" stroke-linejoin="round" stroke-width="1.5" d="M16.5 21h2.5l1.07872e-07 2.96758e-11c1.10427.000303739 1.9997-.894634 2-1.9989 1.00869e-07-.000366717 1.00849e-07-.000733434-5.93907e-11-.00110015v-2.5"></path><path stroke="#323232" stroke-linecap="round" stroke-linejoin="round" stroke-width="1.5" d="M21 7.5v-2.5l7.56666e-08-.000550076c0-1.10427-.895184-1.99945-1.99945-1.99945 -.000366717 0-.000733434 1.00889e-07-.00110015 3.02667e-07h-2.49945"></path><path stroke="#323232" stroke-linecap="round" stroke-linejoin="round" stroke-width="1.5" d="M7 8h10"></path><path stroke="#323232" stroke-linecap="round" stroke-linejoin="round" stroke-width="1.5" d="M7 12h10"></path><path stroke="#323232" stroke-linecap="round" stroke-linejoin="round" stroke-width="1.5" d="M7 16h5"></path></g></svg>