<svg id="Layer_3" data-name="Layer 3" xmlns="http://www.w3.org/2000/svg" viewBox="0 0 24 24"><rect x="2.5" y="2.5" width="19" height="19" rx="9.49999" stroke-width="1.5" stroke="#323232" stroke-linecap="round" stroke-linejoin="round" fill="none"/><line x1="10.09991" y1="10.24792" x2="10.09991" y2="15.94836" fill="none" stroke="#323232" stroke-linecap="round" stroke-linejoin="round" stroke-width="1.5"/><path d="M14.902,16a1.5,1.5,0,0,0,1.46489-1.1775l.59747-2.71419a1.5,1.5,0,0,0-1.46489-1.82242H13.91662l0-2.1329a1,1,0,0,0-.553-.89453l-.253-.12641a1.25,1.25,0,0,0-1.6669.54l-1.34375,2.57586H8a.75.75,0,0,0-.75.75V15.25A.75.75,0,0,0,8,16Z" fill="none" stroke="#323232" stroke-linecap="round" stroke-linejoin="round" stroke-width="1.5"/><path d="M0,0H24V24H0Z" fill="none"/></svg>