<svg id="Layer_3" data-name="Layer 3" xmlns="http://www.w3.org/2000/svg" viewBox="0 0 24 24"><path d="M0,0H24V24H0Z" fill="none"/><line x1="10" y1="10.73438" x2="10" y2="15.99999" fill="none" stroke="#323232" stroke-linecap="round" stroke-linejoin="round" stroke-width="1.5"/><path d="M14,10.5h1.55567a1.44375,1.44375,0,0,1,1.41,1.75413l-.57509,2.61249A1.44375,1.44375,0,0,1,14.98058,16" fill="none" stroke="#323232" stroke-linecap="round" stroke-linejoin="round" stroke-width="1.5"/><path d="M14.98058,16H7.72188A.72187.72187,0,0,1,7,15.27812V11.22188A.72187.72187,0,0,1,7.72188,10.5H10" fill="none" stroke="#323232" stroke-linecap="round" stroke-linejoin="round" stroke-width="1.5"/><rect x="3" y="3" width="18" height="18" rx="5" stroke-width="1.5" stroke="#323232" stroke-linecap="round" stroke-linejoin="round" fill="none"/><path d="M14,10.5V8.67975a1,1,0,0,0-.55305-.89456l-.34523-.17249a1.3125,1.3125,0,0,0-1.72112.51411L10,10.5" fill="none" stroke="#323232" stroke-linecap="round" stroke-linejoin="round" stroke-width="1.5"/></svg>