<svg id="Layer_3" data-name="Layer 3" xmlns="http://www.w3.org/2000/svg" viewBox="0 0 24 24"><path d="M0,0H24V24H0Z" fill="none"/><path d="M17.332,6.58479,15.0415,8.87646l-1.37622-1.375" fill="none" stroke="#323232" stroke-linecap="round" stroke-linejoin="round" stroke-width="1.5"/><path d="M16,12.97479A5.49884,5.49884,0,1,0,10,7.5c0,.16882.01031.33508.02521.5" fill="none" stroke="#323232" stroke-linecap="round" stroke-linejoin="round" stroke-width="1.5"/><rect x="3" y="14.81252" width="3" height="6.18748" rx="0.5" stroke-width="1.5" stroke="#323232" stroke-linecap="round" stroke-linejoin="round" fill="none"/><path d="M6.09374,19.67247l1.21582,1.00418A1.412,1.412,0,0,0,8.20873,21h4.0894a1.5,1.5,0,0,0,1.44228-1.08791l.69363-2.42762a1.6875,1.6875,0,0,0-1.62256-2.1511H11" fill="none" stroke="#323232" stroke-linecap="round" stroke-linejoin="round" stroke-width="1.5"/><path d="M11,15.33334V13.66959a1.66667,1.66667,0,0,0-3.087-.87207L6,15.91318" fill="none" stroke="#323232" stroke-linecap="round" stroke-linejoin="round" stroke-width="1.5"/></svg>