<?xml version="1.0" encoding="UTF-8"?><svg version="1.1" viewBox="0 0 24 24" xmlns="http://www.w3.org/2000/svg" xmlns:xlink="http://www.w3.org/1999/xlink"><!--Generated by IJSVG (https://github.com/iconjar/IJSVG)--><g stroke-linecap="round" stroke-width="1.5" stroke="#323232" fill="none" stroke-linejoin="round"><path d="M4.597,21.998h-1.849c-0.413,0 -0.748,-0.335 -0.748,-0.748v-5.863c0,-0.413 0.335,-0.748 0.748,-0.748h1.849c0.413,0 0.748,0.335 0.748,0.804v5.863c-8.88178e-16,0.357 -0.335,0.692 -0.748,0.692Z"></path><path d="M5.345,20.412l1.448,1.201c0.3,0.249 0.678,0.385 1.068,0.385h4.867c0.558,0 1.049,-0.37 1.202,-0.907l1.067,-3.733c0.101,-0.353 0.041,-0.734 -0.163,-1.039l-0.34,-0.507c-0.232,-0.347 -0.622,-0.554 -1.039,-0.554h-2.499l0.007,-2.278c0.005,-1.692 -2.218,-2.321 -3.1,-0.877l-2.518,4.122"></path><path d="M16.85,6.995c-0.003,0 -0.005,0.002 -0.005,0.005c0,0.003 0.002,0.005 0.005,0.005c0.003,0 0.005,-0.002 0.005,-0.005c0,-0.003 -0.002,-0.005 -0.005,-0.005"></path><path d="M14.85,6.997c-0.003,0 -0.005,0.002 -0.005,0.005c0,0.003 0.002,0.005 0.005,0.005c0.003,0 0.005,-0.002 0.005,-0.005c0,-0.003 -0.002,-0.005 -0.005,-0.005"></path><path d="M18.85,6.997c-0.003,0 -0.005,0.002 -0.005,0.005c0,0.003 0.002,0.005 0.005,0.005c0.003,0 0.005,-0.002 0.005,-0.005c0,-0.003 -0.002,-0.005 -0.005,-0.005"></path><path d="M21.364,8.954c0.289,-0.625 0.462,-1.315 0.462,-2.05c0,-2.708 -2.196,-4.904 -4.904,-4.904c-2.708,0 -4.904,2.196 -4.904,4.904c0,2.708 2.196,4.904 4.904,4.904c0.729,0 1.414,-0.169 2.036,-0.454l3.042,0.646l-0.636,-3.046Z"></path></g><path fill="none" d="M0,0h24v24h-24Z"></path></svg>