<?xml version="1.0" encoding="UTF-8"?><svg version="1.1" viewBox="0 0 24 24" xmlns="http://www.w3.org/2000/svg" xmlns:xlink="http://www.w3.org/1999/xlink"><g stroke-linecap="round" stroke-width="1.5" stroke="#323232" fill="none" stroke-linejoin="round"><path d="M21 15v4.286l-1.52906e-08 2.58956e-05c-.000565959.946387-.767638 1.71344-1.71403 1.71397h-4.28597"></path><path d="M3 9v-4.286l1.53776e-08-2.6041e-05c.000566039-.946387.767639-1.71344 1.71403-1.71397h4.28597"></path><path d="M3.941 19.984h-1.382 -2.44347e-08c-.308727-1.34949e-08-.559-.250273-.559-.559 0 0 0 0 0 0v-4.382l6.66134e-15-8.44067e-08c4.66165e-08-.308727.250273-.559.559-.559h1.382l-1.18395e-08-1.90433e-10c.314209.00505389.564829.263868.559776.578077 -.000117608.00731187-.000376163.0146208-.000775522.0219227v4.382l1.4822e-08-2.40601e-07c-.0181258.29423-.264243.522296-.559.518Z"></path><path d="M4.5 15.669l1.846-3.021 4.44064e-08-7.22244e-08c.390508-.635138 1.22196-.833449 1.8571-.442942 .397373.244321.64046.676475.642905 1.14294v1.595h1.51l-7.22938e-08-3.37899e-11c.453794.000212092.877308.227738 1.128.606l-2.51881e-08-3.78632e-08c.223101.335368.287805.751743.177 1.139l-.732 2.562 6.72804e-09-2.34491e-08c-.123914.431874-.518701.729596-.968.73h-3.581l5.1334e-08-6.07479e-11c-.292113.000345671-.575136-.101543-.8-.288l-1.08-.892"></path><path d="M13.04 6.148v4.852"></path><path d="M20.96 8v-1.852"></path><path d="M15.248 5h.057l-8.18825e-08-2.53285e-07c.303078.937503 1.30877 1.45181 2.24627 1.14873 .545152-.176238.972491-.603576 1.14873-1.14873h.057l-1.24705e-08-4.7337e-08c.201023.763069.912268 1.27851 1.7 1.232l6.2663e-08 2.31663e-09c.816823.0301976 1.50347-.607489 1.53367-1.42431 .00878434-.23761-.0398093-.473838-.141667-.688688l-.659-1.3 -2.24072e-08-4.39764e-08c-.256975-.504339-.77597-.821073-1.342-.819h-5.7l-1.28397e-08-4.11093e-12c-.565033-.000180897-1.08223.317171-1.338.821l-.658 1.3 9.17214e-08-1.92913e-07c-.35074.737693-.0370533 1.62004.70064 1.97078 .215598.102507.452806.151303.69136.142217l-2.15545e-08-1.29603e-09c.789543.0474735 1.5028-.469049 1.704-1.234Z"></path><path d="M20.96 11v-4.852"></path><line x1="17" x2="17" y1="11" y2="9"></line><path d="M12.444 11h9.112"></path></g><path fill="none" d="M0 0h24v24h-24Z"></path></svg>