<svg viewBox="0 0 24 24" xmlns="http://www.w3.org/2000/svg"><g fill="none"><path d="M0 0h24v24H0Z"/><g stroke-linecap="round" stroke-width="1.5" stroke="#323232" fill="none" stroke-linejoin="round"><path d="M8.3 10.5l0 9.5"/><path d="M8.3 10.5l2.33-5.87 -.01 0c.2-.51.77-.76 1.28-.57l.63.24 -.01-.01c1.16.44 1.94 1.55 1.94 2.8v3.38h2.99l0 0c1.38 0 2.49 1.11 2.49 2.5 -.01.2-.03.4-.08.6l-1.125 4.5 -.01 0c-.28 1.11-1.28 1.89-2.43 1.89H5.41 5.4c-.83-.01-1.5-.68-1.5-1.5 0 0 0-.001 0-.001v-6.5l0 0c-.01-.83.67-1.51 1.49-1.51Z"/></g></g></svg>