<?xml version="1.0" encoding="UTF-8"?><svg version="1.1" viewBox="0 0 24 24" xmlns="http://www.w3.org/2000/svg" xmlns:xlink="http://www.w3.org/1999/xlink"><defs><path d="M12.33 15.33l1.67-3.33h-4l1.67-3.33" id="a"></path></defs><g stroke-linecap="round" stroke-width="1.5" stroke="#323232" fill="none" stroke-linejoin="round"><path d="M11.928 3l-3.93403e-07 8.88178e-15c4.97056-2.1727e-07 9 4.02944 9 9 2.1727e-07 4.97056-4.02944 9-9 9"></path><path d="M8.853 20.449l8.14809e-07 2.95015e-07c-.986521-.357187-1.90299-.884121-2.708-1.557"></path><path d="M6.145 5.108l4.11403e-07-3.4444e-07c.804525-.673574 1.72112-1.20058 2.708-1.557"></path><path d="M3.072 10.438l3.52951e-07-2.0203e-06c.180696-1.03431.541863-2.02878 1.067-2.938"></path><path d="M3.072 13.561l1.49281e-07 8.55307e-07c.180583 1.03465.541752 2.02948 1.067 2.939"></path><use xlink:href="#a"></use><use xlink:href="#a"></use><circle cx="12" cy="12" r="9"></circle></g><path fill="none" d="M24 24h-24v-24h24Z"></path></svg>