<?xml version="1.0" encoding="UTF-8"?><svg version="1.1" viewBox="0 0 24 24" xmlns="http://www.w3.org/2000/svg" xmlns:xlink="http://www.w3.org/1999/xlink"><g stroke-linecap="round" stroke-width="1.5" stroke="#323232" fill="none" stroke-linejoin="round"><rect width="18" height="18" x="3" y="3" rx="2.7614" ry="0"></rect><path d="M11.275 7.3l-3.187 5.415 -3.77055e-08 6.2952e-08c-.17623.294229-.0805734.675611.213655.851841 .09329.0558767.199617.0862766.308345.0881587h2.984v2.723l6.40988e-09-2.80144e-07c-.00766851.335149.257807.613058.592956.620726 .220688.00504953.42672-.110107.538044-.300726l3.187-5.413 9.80952e-09-1.63777e-08c.17623-.294229.0805735-.675611-.213655-.851841 -.09329-.0558767-.199617-.0862766-.308345-.0881588h-2.984v-2.723l2.22552e-08-8.45475e-07c.00882104-.335121-.255697-.613941-.590818-.622762 -.221453-.00582909-.428495.109448-.540183.300763Z"></path></g><path fill="none" d="M0 0h24v24h-24Z"></path></svg>