<?xml version="1.0" encoding="UTF-8"?><svg version="1.1" viewBox="0 0 24 24" xmlns="http://www.w3.org/2000/svg" xmlns:xlink="http://www.w3.org/1999/xlink"><g transform="matrix(1 0 0 1 21 -9)"><path fill="none" stroke="#323232" stroke-linecap="round" stroke-linejoin="round" stroke-width="1.5" d="M12.5 3h5l-2.18557e-08 4.44089e-16c.276142-1.20706e-08.5.223858.5.5v3.5 0c0 1.10457-.895431 2-2 2h-2l-8.74228e-08-1.77636e-15c-1.10457-4.82823e-08-2-.895431-2-2 0 0 0-8.88178e-16 0-8.88178e-16v-3.5l3.55271e-15 7.54979e-08c-4.16963e-08-.276142.223858-.5.5-.5Z" transform="matrix(6.12323e-17 1 -1 6.12323e-17 0 0)"></path></g><path d="M18 4h2.5l-2.18557e-08 8.88178e-16c.276142-1.20706e-08.5.223858.5.5v3 0c0 .276142-.223858.5-.5.5h-2.5" stroke-linecap="round" stroke-width="1.5" stroke="#323232" fill="none" stroke-linejoin="round"></path><g transform="matrix(1 0 0 1 -9 27)"><path fill="none" stroke="#323232" stroke-linecap="round" stroke-linejoin="round" stroke-width="1.5" d="M6.5 15h5 -2.18557e-08c.276142-1.20706e-08.5.223858.5.5v3.5 0c0 1.10457-.895431 2-2 2h-2l-8.74228e-08-3.55271e-15c-1.10457-4.82823e-08-2-.895431-2-2 0 0 0 0 0 0v-3.5l5.32907e-15 7.54979e-08c-4.16963e-08-.276142.223858-.5.5-.5Z" transform="matrix(6.12323e-17 -1 1 6.12323e-17 0 0)"></path></g><g stroke-linecap="round" stroke-width="1.5" stroke="#323232" fill="none" stroke-linejoin="round"><path d="M6 20h-2.5 -2.18557e-08c-.276142-1.20706e-08-.5-.223858-.5-.5 0 0 0 0 0 0v-3l5.77316e-15 7.54979e-08c-4.16963e-08-.276142.223858-.5.5-.5h2.5"></path><path d="M12 6h-6l-1.31134e-07 3.55271e-15c-1.65685 7.24234e-08-3 1.34315-3 3 0 0 0 1.77636e-15 0 1.77636e-15h-3.55271e-15l3.37508e-14 4.52987e-07c2.50178e-07 1.65685 1.34315 3 3 3h12l-1.31134e-07 3.55271e-15c1.65685-7.24234e-08 3 1.34315 3 3v0 0c0 1.65685-1.34315 3-3 3h-6"></path></g><rect width="24" height="24" fill="none"></rect></svg>