<svg id="Layer_3" data-name="Layer 3" xmlns="http://www.w3.org/2000/svg" viewBox="0 0 24 24"><circle cx="12" cy="17" r="4" fill="none" stroke="#323232" stroke-linecap="round" stroke-linejoin="round" stroke-width="1.5"/><path d="M19.5,13.5a7.5,7.5,0,0,1-15,0" fill="none" stroke="#323232" stroke-linecap="round" stroke-linejoin="round" stroke-width="1.5"/><path d="M5,11H4A2,2,0,0,1,2,9V7A1,1,0,0,1,3,6H6A1,1,0,0,1,7,7V9A2,2,0,0,1,5,11Z" fill="none" stroke="#323232" stroke-linecap="round" stroke-linejoin="round" stroke-width="1.5"/><path d="M3.25,3h2.5A.25.25,0,0,1,6,3.25V6A0,0,0,0,1,6,6H3A0,0,0,0,1,3,6V3.25A.25.25,0,0,1,3.25,3Z" fill="none" stroke="#323232" stroke-linecap="round" stroke-linejoin="round" stroke-width="1.5"/><path d="M18.25,3h2.5a.25.25,0,0,1,.25.25V6a0,0,0,0,1,0,0H18a0,0,0,0,1,0,0V3.25A.25.25,0,0,1,18.25,3Z" fill="none" stroke="#323232" stroke-linecap="round" stroke-linejoin="round" stroke-width="1.5"/><line x1="4.5" y1="13.5" x2="4.5" y2="11" fill="none" stroke="#323232" stroke-linecap="round" stroke-linejoin="round" stroke-width="1.5"/><line x1="19.5" y1="13.5" x2="19.5" y2="11" fill="none" stroke="#323232" stroke-linecap="round" stroke-linejoin="round" stroke-width="1.5"/><path d="M20,11H19a2,2,0,0,1-2-2V7a1,1,0,0,1,1-1h3a1,1,0,0,1,1,1V9A2,2,0,0,1,20,11Z" fill="none" stroke="#323232" stroke-linecap="round" stroke-linejoin="round" stroke-width="1.5"/><path d="M0,0H24V24H0Z" fill="none"/></svg>