<?xml version="1.0" encoding="UTF-8"?><svg version="1.1" viewBox="0 0 24 24" xmlns="http://www.w3.org/2000/svg" xmlns:xlink="http://www.w3.org/1999/xlink"><g stroke-linecap="round" stroke-width="1.5" stroke="#323232" fill="none" stroke-linejoin="round"><path d="M11.688 7.217l5.8739e-09-7.85259e-09c.165405-.221124.478749-.266293.699873-.100888 .120719.0903.19425.230247.200127.380888v3.251h2.912l-2.63784e-08-3.98085e-10c.276111.00416688.496565.231377.492398.507488 -.00143665.095197-.0300231.188005-.0823982.267512l-3.6 5.26 3.64592e-09-4.8741e-09c-.165405.221124-.478749.266293-.699873.100888 -.120719-.0903-.19425-.230247-.200127-.380888v-3.251h-2.91l1.03598e-08 1.63309e-10c-.276108-.00435251-.496409-.231711-.492057-.507819 .00150531-.0954914.0303273-.188554.083057-.268181Z"></path><path d="M3 7l4.61853e-14 6.03983e-07c-3.33571e-07-2.20914 1.79086-4 4-4h10l-1.74846e-07 3.55271e-15c2.20914-9.65645e-08 4 1.79086 4 4v10 0c0 2.20914-1.79086 4-4 4h-10l-1.74846e-07-3.55271e-15c-2.20914-9.65645e-08-4-1.79086-4-4 0 0 0 0 0 0Z"></path></g><path fill="none" d="M0 24v-24h24v24Z"></path></svg>