<?xml version="1.0" encoding="UTF-8"?><svg version="1.1" viewBox="0 0 24 24" xmlns="http://www.w3.org/2000/svg" xmlns:xlink="http://www.w3.org/1999/xlink"><g fill="none"><path d="M24 24h-24v-24h24Z"></path><path stroke="#323232" stroke-linecap="round" stroke-linejoin="round" stroke-width="1.5" d="M7.63 14.866l3.656-2.229v-4.651"></path><path stroke="#323232" stroke-linecap="round" stroke-linejoin="round" stroke-width="1.5" d="M11 21l5.80162e-08-2.10889e-11c-4.97056.00180702-9.00146-4.02617-9.00327-8.99673 -.00180702-4.97056 4.02617-9.00146 8.99673-9.00327 4.58484-.00166679 8.43812 3.44355 8.94754 8"></path><path stroke="#323232" stroke-linecap="round" stroke-linejoin="round" stroke-width="1.5" d="M18 14l-1.74846e-07 3.55271e-15c2.20914-9.65645e-08 4 1.79086 4 4 9.65645e-08 2.20914-1.79086 4-4 4 -2.20914 9.65645e-08-4-1.79086-4-4l4.61853e-14 6.03983e-07c-3.33571e-07-2.20914 1.79086-4 4-4"></path><path stroke="#323232" stroke-linecap="round" stroke-linejoin="round" stroke-width="1.5" d="M19.333 17.956l2.12843e-09 5.01039e-11c-.0237417-.000558863-.0434411.0182345-.044.0419762 -1.58776e-05.000674512-1.58776e-05.0013493-1.00201e-10.00202382v6.64382e-09c3.66928e-09.0243005.0196995.044.044.044 .0243005-3.66928e-09.044-.0196995.044-.044h3.55271e-15c0-.0243005-.0196995-.044-.044-.044 0 0 0 0 0 0"></path><path stroke="#323232" stroke-linecap="round" stroke-linejoin="round" stroke-width="1.5" d="M16.667 17.956l2.12844e-09 5.01039e-11c-.0237417-.000558863-.0434411.0182345-.044.0419762 -1.58776e-05.000674512-1.58776e-05.0013493-1.00201e-10.00202382l-3.55271e-15 6.64382e-09c3.66928e-09.0243005.0196995.044.044.044 .0243005-3.66928e-09.044-.0196995.044-.044 -3.66928e-09-.0243005-.0196995-.044-.044-.044"></path></g></svg>