<svg viewBox="0 0 24 24" xmlns="http://www.w3.org/2000/svg"><g stroke-linecap="round" stroke-width="1.5" stroke="#323232" fill="none" stroke-linejoin="round"><path d="M21 12l2 0"/><path d="M6 9h12l-.01 0c1.65-.01 3 1.34 3 3v7 0c0 1.1-.9 2-2 2h-14l-.01-.001c-1.11-.01-2-.9-2-2.01 0 0 0 0 0 0v-7l0 0c-.01-1.66 1.34-3.01 2.99-3.01Z"/><path d="M6 15l3 0"/><path d="M21 18L3 18"/><path d="M6.5 9V4l0 0c-.01-1.11.89-2.01 1.99-2.01h7l-.01 0c1.1-.01 2 .89 2 1.99v5"/><path d="M10 4.75l0 1.5"/><path d="M14 4.75l0 1.5"/></g><path fill="none" d="M0 0h24v24H0Z"/></svg>