<?xml version="1.0" encoding="UTF-8"?><svg version="1.1" viewBox="0 0 24 24" xmlns="http://www.w3.org/2000/svg" xmlns:xlink="http://www.w3.org/1999/xlink"><g fill="none"><rect width="24" height="24"></rect><path stroke="#323232" stroke-linecap="round" stroke-linejoin="round" stroke-width="1.5" d="M8.431 7.012l-.221-.222 -1.21926e-07-1.21961e-07c-.612913-.613087-.612913-1.60691 2.43853e-07-2.22v0l-1.55999e-07 1.55955e-07c.613087-.612913 1.60691-.612913 2.22-3.1191e-07l-7.10543e-15 4.08524e-08c1.30926e-07-.867087.702913-1.57 1.57-1.57v0l-6.86269e-08 1.77636e-15c.867087-3.79016e-08 1.57.702913 1.57 1.57 0 0 0 0 0 0l-1.55999e-07 1.55955e-07c.613087-.612913 1.60691-.612913 2.22-3.1191e-07v0l2.48872e-08 2.48943e-08c.612913.613087.612913 1.60691-4.97744e-08 2.22l-.22.22"></path><path stroke="#323232" stroke-linecap="round" stroke-linejoin="round" stroke-width="1.5" d="M8.8 7l1.89876e-06 1.70007e-07c1.07722.0964499 2.14645.267527 3.19999.511998l-6.81125e-07 1.58053e-07c1.05354-.244472 2.12278-.415549 3.20001-.511998v-6.23552e-08c3.2 0 4.8 2.51 4.8 6v0c0 4.41828-3.58172 8-8 8 -4.41828 0-8-3.58172-8-8 0-3.49 1.6-6 4.8-6"></path></g></svg>