<?xml version="1.0" encoding="UTF-8"?><svg version="1.1" viewBox="0 0 24 24" xmlns="http://www.w3.org/2000/svg" xmlns:xlink="http://www.w3.org/1999/xlink"><path d="M0 0h24v24h-24Z" fill="none"></path><g transform="matrix(1 0 0 1 9.206 -11.715)"><path fill="none" stroke="#323232" stroke-linecap="round" stroke-linejoin="round" stroke-width="1.5" d="M17.81 3.387h1.869l-4.08264e-08 1.33227e-15c.515834-2.25478e-08.934.418166.934.934 0 0 0 8.88178e-16 0 8.88178e-16v2.8h-3.738v-2.8l7.10543e-15 1.4103e-07c-7.78888e-08-.515834.418166-.934.934-.934 0 0 0 0 0 0Z" transform="matrix(.707107 .707107 -.707107 .707107 0 0)"></path></g><g stroke-linecap="round" stroke-width="1.5" stroke="#323232" fill="none" stroke-linejoin="round"><circle cx="12.09" cy="11.91" r="1.75"></circle><path fill-rule="evenodd" d="M4.869 12.524l-1.322 1.321 3.0202e-08-3.0238e-08c-.729228.730099-.729228 1.9129-6.04039e-08 2.643l3.965 3.965 -4.60156e-08-4.59607e-08c.730099.729228 1.9129.729228 2.643 9.19214e-08l1.321-1.322 8.024-9.253 7.33095e-10-8.47281e-10c.320797-.370764.300721-.926357-.046-1.273l-4.054-4.055 6.03286e-08 6.11624e-08c-.3462-.350984-.905437-.372864-1.278-.0500001Z"></path><line x1="11.48" x2="4.87" y1="19.13" y2="12.52"></line></g></svg>