<?xml version="1.0" encoding="UTF-8"?><svg version="1.1" viewBox="0 0 24 24" xmlns="http://www.w3.org/2000/svg" xmlns:xlink="http://www.w3.org/1999/xlink"><g stroke-linecap="round" stroke-width="1.5" stroke="#323232" fill="none" stroke-linejoin="round"><path d="M10.75 10.364v-1.93 0c0-.276142-.223858-.5-.5-.5h-2l-2.18557e-08 8.88178e-16c-.276142 1.20706e-08-.5.223858-.5.5 0 0 0 1.77636e-15 0 1.77636e-15v1.93"></path><path d="M16.25 10.364v-1.93 0c0-.276142-.223858-.5-.5-.5h-2l-2.18557e-08 8.88178e-16c-.276142 1.20706e-08-.5.223858-.5.5 0 0 0 1.77636e-15 0 1.77636e-15v1.93"></path><rect width="18" height="18" x="3" y="3" rx="2.7614" ry="0"></rect><rect width="11" height="5.455" x="6.5" y="10.364" rx=".27614" ry="0"></rect></g><rect width="24" height="24" fill="none"></rect></svg>