<?xml version="1.0" encoding="UTF-8"?><svg version="1.1" viewBox="0 0 24 24" xmlns="http://www.w3.org/2000/svg" xmlns:xlink="http://www.w3.org/1999/xlink"><g stroke-linecap="round" stroke-width="1.5" stroke="#323232" fill="none" stroke-linejoin="round"><line x1="8" x2="16" y1="2" y2="2"></line><line x1="18" x2="15.92" y1="22" y2="18.88"></line><line x1="8.08" x2="6" y1="18.88" y2="22"></line><line x1="12" x2="12" y1="5" y2="2"></line><path d="M15 19h-6c-2.209 0-4-1.791-4-4v-7c0-1.657 1.343-3 3-3h8c1.657 0 3 1.343 3 3v7c0 2.209-1.791 4-4 4Z"></path><line x1="14" x2="10" y1="22" y2="22"></line><line x1="19" x2="5" y1="12" y2="12"></line><path d="M15.623 15c-.207 0-.375.168-.373.375 0 .207.168.375.375.375 .207 0 .375-.168.375-.375 0-.207-.168-.375-.377-.375"></path><path d="M8.373 15c-.207 0-.375.168-.373.375 0 .207.168.375.375.375 .207 0 .375-.168.375-.375 0-.207-.168-.375-.377-.375"></path></g><path fill="none" d="M0 0h24v24h-24v-24Z"></path></svg>