<?xml version="1.0" encoding="UTF-8"?><svg version="1.1" viewBox="0 0 24 24" xmlns="http://www.w3.org/2000/svg" xmlns:xlink="http://www.w3.org/1999/xlink"><g stroke-linecap="round" stroke-width="1.5" stroke="#323232" fill="none" stroke-linejoin="round"><path d="M7.25 9.153h9.5"></path><path d="M10.5 6.584h3"></path><path d="M8.368 9.153v7.038l-4.85821e-08 2.81594e-06c-.0122563.710448.553561 1.29641 1.264 1.309h4.736l3.09407e-08-5.48425e-10c.710442-.0125926 1.27626-.598552 1.264-1.309v-7.038"></path><path d="M18.364 5.636l-3.84004e-08-3.84008e-08c3.5147 3.51474 3.51466 9.21322-7.78621e-05 12.7279 -3.51474 3.5147-9.21322 3.51466-12.7279-7.78621e-05 -3.51467-3.51471-3.51467-9.21313-7.68007e-08-12.7278l-5.17951e-07 5.17958e-07c3.5147-3.51474 9.21318-3.51478 12.7279-7.89748e-05 2.59798e-05 2.59794e-05 5.19595e-05 5.19591e-05 7.79389e-05 7.79389e-05"></path></g><path fill="none" d="M0 0h24v24h-24Z"></path></svg>