<?xml version="1.0" encoding="UTF-8"?><svg version="1.1" viewBox="0 0 24 24" xmlns="http://www.w3.org/2000/svg" xmlns:xlink="http://www.w3.org/1999/xlink"><g stroke-linecap="round" stroke-width="1.5" stroke="#323232" fill="none" stroke-linejoin="round"><path d="M13 5h-2c-.552 0-1 .448-1 1v2h4v-2c0-.552-.448-1-1-1Z"></path><line x1="18" x2="6" y1="8" y2="8"></line><path d="M17 8l-.917 10.091c-.047.515-.479.909-.996.909h-6.174c-.517 0-.949-.394-.996-.909l-.917-10.091"></path><path d="M3 19v1c0 .552.447 1 1 1h1"></path><path d="M21 5v-1c0-.553-.448-1-1-1h-1"></path><path d="M19 21h1c.552 0 1-.448 1-1v-1"></path><path d="M5 3h-1c-.552 0-1 .447-1 1v1"></path></g><path fill="none" d="M0 0h24v24h-24v-24Z"></path></svg>