<svg id="Layer_3" data-name="Layer 3" xmlns="http://www.w3.org/2000/svg" viewBox="0 0 24 24"><path d="M15.93749,6.5v-2a1.5,1.5,0,0,0-1.5-1.5h-4.875a1.5,1.5,0,0,0-1.5,1.5v2" fill="none" stroke="#323232" stroke-linecap="round" stroke-linejoin="round" stroke-width="1.5"/><path d="M13.17142,21H8.45856a2.25,2.25,0,0,1-2.24335-2.07745L5.25964,6.5" fill="none" stroke="#323232" stroke-linecap="round" stroke-linejoin="round" stroke-width="1.5"/><line x1="20" y1="6.5" x2="4" y2="6.5" fill="none" stroke="#323232" stroke-linecap="round" stroke-linejoin="round" stroke-width="1.5"/><path d="M16,22a4.5,4.5,0,1,1,4.5-4.5A4.5,4.5,0,0,1,16,22" fill="none" stroke="#323232" stroke-linecap="round" stroke-linejoin="round" stroke-width="1.5"/><path d="M17.25,17.50006a.05.05,0,1,1,0-.00012v.00012" fill="none" stroke="#323232" stroke-linecap="round" stroke-linejoin="round" stroke-width="1.5"/><path d="M14.85,17.50006a.05.05,0,1,1,0-.00012v.00012" fill="none" stroke="#323232" stroke-linecap="round" stroke-linejoin="round" stroke-width="1.5"/><path d="M18.19644,13.571,18.74036,6.5" fill="none" stroke="#323232" stroke-linecap="round" stroke-linejoin="round" stroke-width="1.5"/><rect width="24" height="24" fill="none"/></svg>