<?xml version="1.0" encoding="UTF-8"?><svg version="1.1" viewBox="0 0 24 24" xmlns="http://www.w3.org/2000/svg" xmlns:xlink="http://www.w3.org/1999/xlink"><g stroke-linecap="round" stroke-width="1.5" stroke="#323232" fill="none" stroke-linejoin="round"><path d="M15.331 20.986h-6.662c-3.131 0-5.669-2.538-5.669-5.669v-6.662c0-3.131 2.538-5.669 5.669-5.669h6.661c3.132 0 5.67 2.538 5.67 5.669v6.661c0 3.132-2.538 5.67-5.669 5.67Z"></path><path d="M15.607 12.664l1.044 1.809c.417.722-.104 1.625-.938 1.625h-2.089"></path><path d="M8.393 12.664l-1.044 1.809c-.417.722.104 1.625.938 1.625h2.089"></path><path d="M10.018 9.851l1.044-1.809c.417-.722 1.459-.722 1.876 0l1.044 1.809"></path></g><path fill="none" d="M0 0h24v24h-24v-24Z"></path></svg>