<?xml version="1.0" encoding="UTF-8"?><svg version="1.1" viewBox="0 0 24 24" xmlns="http://www.w3.org/2000/svg" xmlns:xlink="http://www.w3.org/1999/xlink"><g stroke-linecap="round" stroke-width="1.5" stroke="#323232" fill="none" stroke-linejoin="round"><path d="M18.45 13.346l2.306 3.965 -1.53294e-09-2.65697e-09c.494866.857727.200708 1.95422-.657019 2.44909 -.275676.159051-.588719.241857-.906981.239914h-5.644l2.064-2.049"></path><path d="M8.13 8.91l2.306-3.965 -4.32897e-08 7.3834e-08c.50644-.863773 1.61722-1.15345 2.48099-.647009 .267441.156804.490205.379568.647009.647009l2.822 4.855 -2.82-.75"></path><path d="M6.822 15.258l-.756-2.8 -2.822 4.853 8.34225e-08-1.44592e-07c-.494866.857727-.200708 1.95422.657019 2.44909 .275676.159051.588719.241857.906981.239914h4.612"></path></g><path fill="none" d="M0 0h24v24h-24Z"></path></svg>