<?xml version="1.0" encoding="UTF-8"?><svg version="1.1" viewBox="0 0 24 24" xmlns="http://www.w3.org/2000/svg" xmlns:xlink="http://www.w3.org/1999/xlink"><g stroke-linecap="round" stroke-width="1.5" stroke="#323232" fill="none" stroke-linejoin="round"><path d="M16.75 11.184h-9.5l5.41789e-14-7.1723e-07c-3.96115e-07 2.62335 2.12665 4.75 4.75 4.75 2.62335 3.96115e-07 4.75-2.12665 4.75-4.75 3.96115e-07-2.62335-2.12665-4.75-4.75-4.75 0 0-1.77636e-15 0-1.77636e-15 0v4.75"></path><rect width="18" height="18" x="3" y="3" rx="4.97052" ry="0"></rect><path d="M14.083 17.809h-2.75382e-09c-.0347939 1.52089e-09-.063.0282061-.063.063 1.52089e-09.0347939.0282061.063.063.063 .0347939-1.52089e-09.063-.0282061.063-.063 0 0 0 0 0 0v3.55271e-15c0-.0347939-.0282061-.063-.063-.063"></path><path d="M9.916 17.809h-2.75381e-09c-.0347939 1.52089e-09-.063.0282061-.063.063 1.52089e-09.0347939.0282061.063.063.063 .0347939-1.52089e-09.063-.0282061.063-.063 0 0 0 0 0 0v3.55271e-15c0-.0347939-.0282061-.063-.063-.063"></path></g><rect width="24" height="24" fill="none"></rect></svg>