<?xml version="1.0" encoding="UTF-8"?><svg version="1.1" viewBox="0 0 24 24" xmlns="http://www.w3.org/2000/svg" xmlns:xlink="http://www.w3.org/1999/xlink"><g stroke-linecap="round" stroke-width="1.5" stroke="#323232" fill="none" stroke-linejoin="round"><path d="M16.75 10.75h-9.5l5.41789e-14 7.1723e-07c3.96115e-07 2.62335 2.12665 4.75 4.75 4.75 2.62335-3.96115e-07 4.75-2.12665 4.75-4.75 -3.96115e-07-2.62335-2.12665-4.75-4.75-4.75v4.75"></path><rect width="18" height="18" x="3" y="3" rx="2.7614" ry="0"></rect><path d="M14.083 17.375l3.49056e-09-4.44089e-13c-.0347939 4.38156e-06-.0629964.028214-.0629921.0630079 4.38156e-06.0347939.028214.0629964.0630079.0629921 .0347939-4.38156e-06.0629964-.028214.0629921-.0630079 -4.1645e-08-.000330703-2.68721e-06-.000661401-7.93645e-06-.000992063l5.24556e-10-8.06505e-06c0-.0342417-.0277583-.062-.062-.062 -.000336038 0-.000672071 2.73198e-06-.00100806 8.19566e-06"></path><path d="M9.916 17.375l3.49056e-09-4.44089e-13c-.0347939 4.38156e-06-.0629964.028214-.0629921.0630079 4.38156e-06.0347939.028214.0629964.0630079.0629921 .0347939-4.38156e-06.0629964-.028214.0629921-.0630079 -4.1645e-08-.000330703-2.68721e-06-.000661401-7.93645e-06-.000992063l5.24556e-10-8.06505e-06c0-.0342417-.0277583-.062-.062-.062 -.000336038 0-.000672071 2.73198e-06-.00100806 8.19566e-06"></path></g><rect width="24" height="24" fill="none"></rect></svg>