<?xml version="1.0" encoding="UTF-8"?><svg version="1.1" viewBox="0 0 24 24" xmlns="http://www.w3.org/2000/svg" xmlns:xlink="http://www.w3.org/1999/xlink"><g fill="none"><path d="M0 0h24v24h-24v-24Z"></path><path stroke="#323232" stroke-linecap="round" stroke-linejoin="round" stroke-width="1.5" d="M19.596 12.411l-5.688 1.524c-1.01.271-2.048-.329-2.319-1.339l-1.524-5.688c-.271-1.01.329-2.048 1.339-2.319l5.688-1.524c1.01-.271 2.048.329 2.319 1.339l1.524 5.688c.271 1.01-.329 2.048-1.339 2.319Z"></path><circle cx="9.75" cy="18.25" r="2.75" stroke="#323232" stroke-linecap="round" stroke-linejoin="round" stroke-width="1.5"></circle><path stroke="#323232" stroke-linecap="round" stroke-linejoin="round" stroke-width="1.5" d="M2 3.633l1.666-.446c1.067-.286 2.164.347 2.45 1.414"></path><path stroke="#323232" stroke-linecap="round" stroke-linejoin="round" stroke-width="1.5" d="M6.116 4.601l2.944 10.986"></path><line x1="21.55" x2="12.41" y1="15.11" y2="17.55" stroke="#323232" stroke-linecap="round" stroke-linejoin="round" stroke-width="1.5"></line></g></svg>