<?xml version="1.0" encoding="UTF-8"?><svg version="1.1" viewBox="0 0 24 24" xmlns="http://www.w3.org/2000/svg" xmlns:xlink="http://www.w3.org/1999/xlink"><g fill="none"><path d="M0 0h24v24h-24Z"></path><rect width="3" height="19" x="19" y="2" rx=".82842" ry="0" stroke="#323232" stroke-linecap="round" stroke-linejoin="round" stroke-width="1.5"></rect><path stroke="#323232" stroke-linecap="round" stroke-linejoin="round" stroke-width="1.5" d="M6.21 10.27h-.01l-.14-5.27 -7.55855e-08-4.88826e-06c-.0165658-1.07143.838573-1.95343 1.91-1.97 1.07143-.0165658 1.95343.838573 1.97 1.91v.0599951l-.14 5.27h-.01"></path><path stroke="#323232" stroke-linecap="round" stroke-linejoin="round" stroke-width="1.5" d="M8 10v0l-2.62268e-07 7.10543e-15c-3.31371 1.44847e-07-6 2.68629-6 6 0 0 0 3.55271e-15 0 3.55271e-15v4l1.06581e-14 1.50996e-07c8.33927e-08.552285.447715 1 1 1h10 -4.37114e-08c.552285 2.41411e-08 1-.447715 1-1v-4 0c0-3.31371-2.68629-6-6-6Z"></path><line x1="14" x2="2" y1="18" y2="18" stroke="#323232" stroke-linecap="round" stroke-linejoin="round" stroke-width="1.5"></line><path stroke="#323232" stroke-linecap="round" stroke-linejoin="round" stroke-width="1.5" d="M19.079 3.017l-2.839-.707 -7.41361e-09-1.83284e-09c-.536143-.132549-1.07822.19463-1.21077.730773 -.019351.0782726-.0291646.158598-.0292269.239227v7.44l-5.12818e-10-6.63856e-07c.000426447.552285.448487.999654 1.00077.999228 .0806292-6.22578e-05.160955-.00987575.239228-.0292267l2.76-.69"></path></g></svg>