<svg id="Layer_3" data-name="Layer 3" xmlns="http://www.w3.org/2000/svg" viewBox="0 0 24 24"><path d="M0,0H24V24H0Z" fill="none"/><path d="M8,19.5V21a1.00036,1.00036,0,0,1-1,1H5.5a1.00036,1.00036,0,0,1-1-1V19.11429" fill="none" stroke="#323232" stroke-linecap="round" stroke-linejoin="round" stroke-width="1.5"/><path d="M19.5,19.11429V21a1.00036,1.00036,0,0,1-1,1H17a1.00036,1.00036,0,0,1-1-1V19.5" fill="none" stroke="#323232" stroke-linecap="round" stroke-linejoin="round" stroke-width="1.5"/><path d="M8,12l3.483-.932a2,2,0,0,1,1.034,0L16,12v4.93845H8Z" fill="none" stroke="#323232" stroke-linecap="round" stroke-linejoin="round" stroke-width="1.5"/><path d="M18,6.5H6" fill="none" stroke="#323232" stroke-linecap="round" stroke-linejoin="round" stroke-width="1.5"/><path d="M18,12V5a2,2,0,0,0-2-2H8A2,2,0,0,0,6,5v6.94068" fill="none" stroke="#323232" stroke-linecap="round" stroke-linejoin="round" stroke-width="1.5"/><path d="M18,10h1.5a1,1,0,0,0,1-1V7a1,1,0,0,0-1-1H18" fill="none" stroke="#323232" stroke-linecap="round" stroke-linejoin="round" stroke-width="1.5"/><path d="M6,10H4.5a1,1,0,0,1-1-1V7a1,1,0,0,1,1-1H6" fill="none" stroke="#323232" stroke-linecap="round" stroke-linejoin="round" stroke-width="1.5"/><line x1="15.5" y1="19.5" x2="8.5" y2="19.5" fill="none" stroke="#323232" stroke-linecap="round" stroke-linejoin="round" stroke-width="1.5"/><path d="M8,12H5.5A1.5,1.5,0,0,0,4,13.5V18a1.5,1.5,0,0,0,1.5,1.5h13A1.5,1.5,0,0,0,20,18V13.5A1.5,1.5,0,0,0,18.5,12H16" fill="none" stroke="#323232" stroke-linecap="round" stroke-linejoin="round" stroke-width="1.5"/><line x1="18" y1="5" x2="18" y2="2" fill="none" stroke="#323232" stroke-linecap="round" stroke-linejoin="round" stroke-width="1.5"/><line x1="6" y1="5" x2="6" y2="2" fill="none" stroke="#323232" stroke-linecap="round" stroke-linejoin="round" stroke-width="1.5"/></svg>