<?xml version="1.0" encoding="UTF-8"?><svg version="1.1" viewBox="0 0 24 24" xmlns="http://www.w3.org/2000/svg" xmlns:xlink="http://www.w3.org/1999/xlink"><defs><path d="M0 0h24v24h-24v-24Z" id="a"></path></defs><g fill="none"><use xlink:href="#a"></use><path stroke="#323232" stroke-linecap="round" stroke-linejoin="round" stroke-width="1.5" d="M6.5 6h11c1.105 0 2 .895 2 2v1c0 1.105-.895 2-2 2h-11c-1.105 0-2-.895-2-2v-1c0-1.105.895-2 2-2Z"></path><path stroke="#323232" stroke-linecap="round" stroke-linejoin="round" stroke-width="1.5" d="M4.5 17c0 1.105.895 2 2 2h11c1.105 0 2-.895 2-2v-13c0-1.105-.895-2-2-2h-11c-1.105 0-2 .895-2 2v13Z"></path><line x1="16.88" x2="16" y1="15" y2="15" stroke="#323232" stroke-linecap="round" stroke-linejoin="round" stroke-width="1.5"></line><line x1="8" x2="6.8" y1="15" y2="15" stroke="#323232" stroke-linecap="round" stroke-linejoin="round" stroke-width="1.5"></line><line x1="13.5" x2="10.5" y1="16.33" y2="16.33" stroke="#323232" stroke-linecap="round" stroke-linejoin="round" stroke-width="1.5"></line><line x1="13.5" x2="10.5" y1="14.08" y2="14.08" stroke="#323232" stroke-linecap="round" stroke-linejoin="round" stroke-width="1.5"></line><path stroke="#323232" stroke-linecap="round" stroke-linejoin="round" stroke-width="1.5" d="M19.264 17.934v2.566c0 .552-.448 1-1 1h-2c-.552 0-1-.448-1-1v-1.5"></path><path stroke="#323232" stroke-linecap="round" stroke-linejoin="round" stroke-width="1.5" d="M8.736 19v1.5c0 .552-.448 1-1 1h-2c-.552 0-1-.448-1-1v-2.566"></path><path stroke="#323232" stroke-linecap="round" stroke-linejoin="round" stroke-width="1.5" d="M4.5 7h-1.5c-.552 0-1 .448-1 1v3.062"></path><path stroke="#323232" stroke-linecap="round" stroke-linejoin="round" stroke-width="1.5" d="M19.5 7h1.5c.552 0 1 .448 1 1v3.062"></path><use xlink:href="#a"></use></g></svg>