<svg id="Layer_3" data-name="Layer 3" xmlns="http://www.w3.org/2000/svg" viewBox="0 0 24 24"><path d="M22,3.99989V16.00011a.99485.99485,0,0,1-1.08829.99507,104.2998,104.2998,0,0,0-17.82342,0A.99485.99485,0,0,1,2,16.00011V3.99989a.99485.99485,0,0,1,1.08829-.99507,104.2998,104.2998,0,0,0,17.82342,0A.99485.99485,0,0,1,22,3.99989Z" fill="none" stroke="#323232" stroke-linecap="round" stroke-linejoin="round" stroke-width="1.5"/><path d="M5,21a25.00006,25.00006,0,0,1,14,0" fill="none" stroke="#323232" stroke-linecap="round" stroke-linejoin="round" stroke-width="1.5"/><path d="M0,0H24V24H0Z" fill="none"/></svg>