<?xml version="1.0" encoding="UTF-8"?><svg version="1.1" viewBox="0 0 24 24" xmlns="http://www.w3.org/2000/svg" xmlns:xlink="http://www.w3.org/1999/xlink"><!--Generated by IJSVG (https://github.com/iconjar/IJSVG)--><g fill="none"><path d="M0,0h24v24h-24Z"></path><path stroke="#323232" stroke-linecap="round" stroke-linejoin="round" stroke-width="1.5" d="M19.0711,4.92893c3.90524,3.90524 3.90524,10.2369 0,14.1421c-3.90524,3.90524 -10.2369,3.90524 -14.1421,0c-3.90524,-3.90524 -3.90524,-10.2369 -1.77636e-15,-14.1421c3.90524,-3.90524 10.2369,-3.90524 14.1421,-1.77636e-15"></path><path stroke="#323232" stroke-linecap="round" stroke-linejoin="round" stroke-width="1.5" d="M17.3,10.733c0,4.2 -2.4,7.2 -6.6,7.2c-2.4,0 -3.362,-1.253 -4.2,-2.4m-8.88178e-16,0c0.019,-0.003 1.8,-0.6 1.8,-0.6c-2.004,-2.026 -2.156,-5.027 -0.6,-7.2c0.738,1.373 2.116,2.639 3.6,3c0.057,-1.733 1.233,-3 3,-3c1.203,0 1.911,0.459 2.4,1.2h1.8l-1.2,1.8"></path></g></svg>