<svg id="Layer_3" data-name="Layer 3" xmlns="http://www.w3.org/2000/svg" viewBox="0 0 24 24"><rect width="24" height="24" fill="none"/><line x1="20.04693" y1="6" x2="3.95307" y2="6" fill="none" stroke="#323232" stroke-linecap="round" stroke-linejoin="round" stroke-width="1.5"/><line x1="3.12334" y1="9" x2="20.87668" y2="9" fill="none" stroke="#323232" stroke-linecap="round" stroke-linejoin="round" stroke-width="1.5"/><path d="M15,9v5.68151a4,4,0,0,1-1.82,3.35376l-2.52805,1.64326a1.98955,1.98955,0,0,1-1.38413.29871l-5.59823-.8534a1,1,0,0,1-.83576-.82446l-.01807-.10883A23.38508,23.38508,0,0,1,3.39862,7.94038L3.95264,6" fill="none" stroke="#323232" stroke-linecap="round" stroke-linejoin="round" stroke-width="1.5"/><path d="M9,9v5.68151a4,4,0,0,0,1.82,3.35376l2.52806,1.64326a1.98953,1.98953,0,0,0,1.38412.29871l5.59824-.8534a1.00005,1.00005,0,0,0,.83576-.82446l.01806-.10883a23.38508,23.38508,0,0,0-.58288-10.25017L20.04736,6" fill="none" stroke="#323232" stroke-linecap="round" stroke-linejoin="round" stroke-width="1.5"/></svg>