<svg id="Layer_3" data-name="Layer 3" xmlns="http://www.w3.org/2000/svg" viewBox="0 0 24 24"><path d="M0,0H24V24H0Z" fill="none"/><path d="M9.8198,20h4.3604a1,1,0,0,0,.98058-.80388l.05475-.27379A4.87924,4.87924,0,0,1,20,15h0a1,1,0,0,0,1-1V7a1,1,0,0,0-1-1H4A1,1,0,0,0,3,7v7a1,1,0,0,0,1,1H4a4.87921,4.87921,0,0,1,4.78446,3.92232l.05476.2738A1,1,0,0,0,9.8198,20Z" fill="none" stroke="#323232" stroke-linecap="round" stroke-linejoin="round" stroke-width="1.5"/><line x1="21" y1="9" x2="3" y2="9" fill="none" stroke="#323232" stroke-linecap="round" stroke-linejoin="round" stroke-width="1.5"/><path d="M17,16h0a6.82841,6.82841,0,0,1-2-4.82842V9" fill="none" stroke="#323232" stroke-linecap="round" stroke-linejoin="round" stroke-width="1.5"/><path d="M7,16H7a6.82841,6.82841,0,0,0,2-4.82842V9" fill="none" stroke="#323232" stroke-linecap="round" stroke-linejoin="round" stroke-width="1.5"/></svg>