<?xml version="1.0" encoding="UTF-8"?><svg version="1.1" viewBox="0 0 24 24" xmlns="http://www.w3.org/2000/svg" xmlns:xlink="http://www.w3.org/1999/xlink"><!--Generated by IJSVG (https://github.com/iconjar/IJSVG)--><g stroke-linecap="round" stroke-width="1.5" stroke="#323232" fill="none" stroke-linejoin="round"><path d="M18.364,5.63604c3.51472,3.51472 3.51472,9.2132 0,12.7279c-3.51472,3.51472 -9.2132,3.51472 -12.7279,0c-3.51472,-3.51472 -3.51472,-9.2132 -1.77636e-15,-12.7279c3.51472,-3.51472 9.2132,-3.51472 12.7279,-1.77636e-15"></path><path d="M7.607,13.464v0c-0.809,-0.809 -0.809,-2.12 0,-2.929v0c0.809,-0.809 2.12,-0.809 2.929,0l1.464,1.465l-1.464,1.464c-0.809,0.809 -2.121,0.809 -2.929,0Z"></path><path d="M16.393,10.536v0c0.809,0.809 0.809,2.12 0,2.929v0c-0.809,0.809 -2.12,0.809 -2.929,0l-1.464,-1.465l1.464,-1.464c0.809,-0.809 2.121,-0.809 2.929,0Z"></path></g><path fill="none" d="M0,0h24v24h-24Z"></path></svg>