<svg viewBox="0 0 24 24" xmlns="http://www.w3.org/2000/svg"><path fill="none" stroke="#323232" stroke-linecap="round" stroke-linejoin="round" stroke-width="1.5" d="M16 20.05l0-.01c4.45-2.22 6.26-7.62 4.05-12.07 -2.22-4.46-7.62-6.27-12.07-4.06 -3.07 1.52-5 4.64-5 8.06l-.01 0c-.01 2.48.98 4.86 2.74 6.62v0l0 0c1.3 1.3 3.08 2.03 4.92 2.03v0l-.01 0c.73-.01 1.32-.6 1.32-1.33v-3.34"/><g fill="none"><path d="M0 0h24v24H0Z"/><g stroke-linecap="round" stroke-width="1.5" stroke="#323232" fill="none" stroke-linejoin="round"><path d="M15.5 11.5v0c0-.56-.45-1-1-1h-5l-.01 0c-.56 0-1 .44-1 1 0 0 0 0 0 0V14l0 0c0 1.1.89 1.99 2 1.99h3l-.01-.001c1.1 0 2-.9 2-2Z"/><path d="M10 10.5V8l0 0c-.01-.28.22-.51.49-.51h3l-.01 0c.27-.01.5.22.5.49 0 0 0 0 0 0v2.5"/></g></g></svg>