<?xml version="1.0" encoding="UTF-8"?><svg version="1.1" viewBox="0 0 24 24" xmlns="http://www.w3.org/2000/svg" xmlns:xlink="http://www.w3.org/1999/xlink"><g stroke-linecap="round" stroke-width="1.5" stroke="#323232" fill="none" stroke-linejoin="round"><path d="M18.364 5.63604c3.51472 3.51472 3.51472 9.2132 0 12.7279 -3.51472 3.51472-9.2132 3.51472-12.7279 0 -3.51472-3.51472-3.51472-9.2132-1.77636e-15-12.7279 3.51472-3.51472 9.2132-3.51472 12.7279-1.77636e-15"></path><path d="M17.307 19.257c-.384-1.84-2.602-3.257-5.307-3.257 -2.705 0-4.923 1.417-5.307 3.257"></path><path d="M14.1213 7.87868c1.17157 1.17157 1.17157 3.07107 0 4.24264 -1.17157 1.17157-3.07107 1.17157-4.24264 0 -1.17157-1.17157-1.17157-3.07107 0-4.24264 1.17157-1.17157 3.07107-1.17157 4.24264-8.88178e-16"></path></g><path fill="none" d="M0 0h24v24h-24Z"></path></svg>