<?xml version="1.0" encoding="UTF-8"?><svg version="1.1" viewBox="0 0 24 24" xmlns="http://www.w3.org/2000/svg" xmlns:xlink="http://www.w3.org/1999/xlink"><!--Generated by IJSVG (https://github.com/iconjar/IJSVG)--><g fill="none"><path d="M0,0h24v24h-24Z"></path><path stroke="#323232" stroke-linecap="round" stroke-linejoin="round" stroke-width="1.5" d="M15.0052,5.2448c1.65973,1.65973 1.65973,4.35068 0,6.01041c-1.65973,1.65973 -4.35068,1.65973 -6.01041,0c-1.65973,-1.65973 -1.65973,-4.35068 -1.77636e-15,-6.01041c1.65973,-1.65973 4.35068,-1.65973 6.01041,-1.77636e-15"></path><path stroke="#323232" stroke-linecap="round" stroke-linejoin="round" stroke-width="1.5" d="M4,20v0c0,-2.485 2.015,-4.5 4.5,-4.5h2.583"></path><path stroke="#323232" stroke-linecap="round" stroke-linejoin="round" stroke-width="1.5" d="M18.966,17.571v-1.106c0,-0.768 -0.656,-1.465 -1.466,-1.465c-0.81,0 -1.466,0.656 -1.466,1.466v1.106"></path><path stroke="#323232" stroke-linecap="round" stroke-linejoin="round" stroke-width="1.5" d="M19,17.571h-3c-0.552,0 -1,0.448 -1,1v1.429c0,0.552 0.448,1 1,1h3c0.552,0 1,-0.448 1,-1v-1.429c0,-0.552 -0.448,-1 -1,-1Z"></path></g></svg>