<svg id="Layer_3" data-name="Layer 3" xmlns="http://www.w3.org/2000/svg" viewBox="0 0 24 24"><rect y="0.00001" width="24" height="24" fill="none"/><path d="M12,21h4a5,5,0,0,0,5-5V8a5,5,0,0,0-5-5H8A5,5,0,0,0,3,8v4" fill="none" stroke="#323232" stroke-linecap="round" stroke-linejoin="round" stroke-width="1.5"/><path d="M6.77389,15.15749,7,15.38708l.22614-.22962a2.18706,2.18706,0,0,1,3.12635,0h0a2.2692,2.2692,0,0,1,0,3.17449L8.23743,20.47956a1.73131,1.73131,0,0,1-2.47486,0L3.64751,18.332a2.2692,2.2692,0,0,1,0-3.17451h0A2.18708,2.18708,0,0,1,6.77389,15.15749Z" fill="none" stroke="#323232" stroke-linecap="round" stroke-linejoin="round" stroke-width="1.5"/><path d="M17,16a2.5,2.5,0,0,0-2.5-2.5H13" fill="none" stroke="#323232" stroke-linecap="round" stroke-linejoin="round" stroke-width="1.5"/><circle cx="12" cy="8.50001" r="2.5" fill="none" stroke="#323232" stroke-linecap="round" stroke-linejoin="round" stroke-width="1.5"/></svg>