<svg id="Layer_3" data-name="Layer 3" xmlns="http://www.w3.org/2000/svg" viewBox="0 0 24 24"><path d="M24,0H0V24H24Z" fill="none"/><rect y="0.00001" width="24" height="24" fill="none"/><path d="M0,0H24V24H0Z" fill="none"/><circle cx="12" cy="9.50001" r="2.5" fill="none" stroke="#323232" stroke-linecap="round" stroke-linejoin="round" stroke-width="1.5"/><path d="M11,21H8a5,5,0,0,1-5-5V8A5,5,0,0,1,8,3h8a5,5,0,0,1,5,5v4" fill="none" stroke="#323232" stroke-linecap="round" stroke-linejoin="round" stroke-width="1.5"/><path d="M7,17H7a2.5,2.5,0,0,1,2.5-2.5H11" fill="none" stroke="#323232" stroke-linecap="round" stroke-linejoin="round" stroke-width="1.5"/><path d="M19.99473,21h-5a1,1,0,0,1-1-1V17.03633a1.35,1.35,0,0,1,.50668-1.05419l2.108-1.68632a1.35,1.35,0,0,1,1.68664,0l2.192,1.75354a1.35,1.35,0,0,1,.50668,1.05419V20A1,1,0,0,1,19.99473,21Z" fill="none" stroke="#323232" stroke-linecap="round" stroke-linejoin="round" stroke-width="1.5"/></svg>