<?xml version="1.0" encoding="UTF-8"?><svg version="1.1" viewBox="0 0 24 24" xmlns="http://www.w3.org/2000/svg" xmlns:xlink="http://www.w3.org/1999/xlink"><!--Generated by IJSVG (https://github.com/iconjar/IJSVG)--><g stroke-linecap="round" stroke-width="1.5" stroke="#323232" fill="none" stroke-linejoin="round"><path d="M5.16,6.16c0.461,-0.54 0.986,-1.021 1.562,-1.438"></path><path d="M17,19.482c-1.43,0.958 -3.149,1.518 -5,1.518c-0.912,0 -1.791,-0.138 -2.62,-0.39"></path><path d="M6.349,19c-1.281,-1.035 -2.265,-2.417 -2.826,-4"></path><path d="M3.523,9c-0.333,0.94 -0.523,1.946 -0.523,3"></path><path d="M19.463,17c0.964,-1.431 1.537,-3.145 1.537,-5c0,-4.971 -4.029,-9 -9,-9"></path><path d="M13.768,7.732c0.976,0.976 0.976,2.559 0,3.536c-0.976,0.977 -2.559,0.976 -3.536,0c-0.977,-0.976 -0.976,-2.559 0,-3.536c0.976,-0.977 2.559,-0.976 3.536,-8.88178e-16"></path><path d="M16.5,16c-0.131,-0.329 -0.334,-0.625 -0.594,-0.866v0c-0.439,-0.408 -1.014,-0.634 -1.614,-0.634c-1,0 -3.584,0 -4.584,0c-0.6,0 -1.174,0.227 -1.614,0.634v0c-0.26,0.241 -0.463,0.537 -0.594,0.866"></path></g><path fill="none" d="M0,0h24v24h-24v-24Z"></path></svg>