<?xml version="1.0" encoding="UTF-8"?><svg version="1.1" viewBox="0 0 24 24" xmlns="http://www.w3.org/2000/svg" xmlns:xlink="http://www.w3.org/1999/xlink"><g fill="none"><path d="M0 0h24v24h-24Z"></path><path stroke="#323232" stroke-linecap="round" stroke-linejoin="round" stroke-width="1.5" d="M16.674 17l-.284-.713c-.144-.361-.367-.686-.652-.95v0c-.483-.448-1.118-.696-1.776-.696h-3.924c-.659 0-1.293.249-1.776.696v0c-.285.264-.508.589-.652.95l-.284.713"></path><path stroke="#323232" stroke-linecap="round" stroke-linejoin="round" stroke-width="1.5" d="M13.9445 7.80546c1.07394 1.07394 1.07394 2.81515 0 3.88909 -1.07394 1.07394-2.81515 1.07394-3.88909 0 -1.07394-1.07394-1.07394-2.81515 0-3.88909 1.07394-1.07394 2.81515-1.07394 3.88909-8.88178e-16"></path><path stroke="#323232" stroke-linecap="round" stroke-linejoin="round" stroke-width="1.5" d="M7.588 3h-2.588c-1.105 0-2 .895-2 2v2.588"></path><path stroke="#323232" stroke-linecap="round" stroke-linejoin="round" stroke-width="1.5" d="M16.412 21h2.588c1.105 0 2-.895 2-2v-2.588"></path><path stroke="#323232" stroke-linecap="round" stroke-linejoin="round" stroke-width="1.5" d="M3 16.412v2.588c0 1.105.895 2 2 2h2.588"></path><path stroke="#323232" stroke-linecap="round" stroke-linejoin="round" stroke-width="1.5" d="M21 7.588v-2.588c0-1.105-.895-2-2-2h-2.588"></path></g></svg>