<?xml version="1.0" encoding="UTF-8"?><svg version="1.1" viewBox="0 0 24 24" xmlns="http://www.w3.org/2000/svg" xmlns:xlink="http://www.w3.org/1999/xlink"><g stroke-linecap="round" stroke-width="1.5" stroke="#323232" fill="none" stroke-linejoin="round"><path d="M19.905 7.7l1.61793e-07 2.97266e-07c-2.37617-4.36581-7.84163-5.97873-12.2074-3.60256 -2.89461 1.57545-4.69667 4.60699-4.69756 7.90256"></path><path d="M9 20.477l4.88346e-07 1.72656e-07c-3.59305-1.27033-5.99649-4.66599-6-8.477"></path><path d="M20.5 21h-6.5 -2.18557e-08c-.276142-1.20706e-08-.5-.223858-.5-.5 0 0 0 0 0 0v-.406l-3.57907e-08 1.25577e-05c.00328875-1.15512.938871-2.09071 2.09399-2.09401h3.312l1.13854e-07 3.24157e-10c1.15512.00328881 2.09072.938879 2.09401 2.094v.406 0c0 .276142-.223858.5-.5.5 0 0-3.24832e-10 0-3.24832e-10 0Z"></path><path d="M17.25 15.5l-6.14033e-08-4.92051e-13c-1.10457-8.8705e-06-1.99999-.895447-1.99998-2.00002 8.8705e-06-1.10457.895447-1.99999 2.00002-1.99998 1.10144 8.84537e-06 1.99556.890569 1.99997 1.992l2.57745e-08 6.44622e-06c.00441468 1.10456-.88743 2.00356-1.99199 2.00798 -.00267197 1.06793e-05-.00534395 1.60039e-05-.00801594 1.59739e-05Z"></path><polyline points="17.531,7.696 20.424,7.696 20.424,4.803"></polyline></g><path fill="none" d="M0 0h24v24h-24Z"></path></svg>