<?xml version="1.0" encoding="UTF-8"?><svg version="1.1" viewBox="0 0 24 24" xmlns="http://www.w3.org/2000/svg" xmlns:xlink="http://www.w3.org/1999/xlink"><!--Generated by IJSVG (https://github.com/iconjar/IJSVG)--><g fill="none"><path d="M0,0h24v24h-24Z"></path><path stroke="#323232" stroke-linecap="round" stroke-linejoin="round" stroke-width="1.5" d="M19.333,18h-11.666c-0.921,0 -1.667,-0.746 -1.667,-1.667v-11.666c0,-0.921 0.746,-1.667 1.667,-1.667h11.667c0.92,0 1.666,0.746 1.666,1.667v11.667c0,0.92 -0.746,1.666 -1.667,1.666Z"></path><path stroke="#323232" stroke-linecap="round" stroke-linejoin="round" stroke-width="1.5" d="M15.268,7.166c0.976,0.976 0.976,2.559 0,3.536c-0.976,0.976 -2.559,0.976 -3.536,0c-0.977,-0.976 -0.976,-2.559 0,-3.536c0.976,-0.977 2.559,-0.976 3.536,0"></path><path stroke="#323232" stroke-linecap="round" stroke-linejoin="round" stroke-width="1.5" d="M18,15.434c-0.131,-0.329 -0.334,-0.625 -0.594,-0.866v0c-0.439,-0.408 -1.014,-0.634 -1.614,-0.634c-1,0 -3.584,0 -4.584,0c-0.6,0 -1.174,0.227 -1.614,0.634v0c-0.26,0.241 -0.463,0.537 -0.594,0.866"></path><path stroke="#323232" stroke-linecap="round" stroke-linejoin="round" stroke-width="1.5" d="M18,18v1.333c0,0.921 -0.746,1.667 -1.667,1.667h-11.666c-0.921,0 -1.667,-0.746 -1.667,-1.667v-11.666c0,-0.921 0.746,-1.667 1.667,-1.667h1.333"></path></g></svg>