<svg id="Layer_3" data-name="Layer 3" xmlns="http://www.w3.org/2000/svg" viewBox="0 0 24 24"><path d="M0,0H24V24H0Z" fill="none"/><rect x="13" y="15" width="5" height="3" rx="1" stroke-width="1.5" stroke="#323232" stroke-linecap="round" stroke-linejoin="round" fill="none"/><path d="M9,21H2.5a.5.5,0,0,1-.5-.5v-.406A2.1,2.1,0,0,1,4.094,18H7.406A2.1,2.1,0,0,1,9.5,20.094V20.5A.5.5,0,0,1,9,21Z" fill="none" stroke="#323232" stroke-linecap="round" stroke-linejoin="round" stroke-width="1.5"/><path d="M5.75,15.5a2.001,2.001,0,1,1,.008,0Z" fill="none" stroke="#323232" stroke-linecap="round" stroke-linejoin="round" stroke-width="1.5"/><path d="M4,9V5A2,2,0,0,1,6,3H20a2,2,0,0,1,2,2V16a2,2,0,0,1-2,2H12" fill="none" stroke="#323232" stroke-linecap="round" stroke-linejoin="round" stroke-width="1.5"/></svg>