<?xml version="1.0" encoding="UTF-8"?><svg version="1.1" viewBox="0 0 24 24" xmlns="http://www.w3.org/2000/svg" xmlns:xlink="http://www.w3.org/1999/xlink"><!--Generated by IJSVG (https://github.com/iconjar/IJSVG)--><g stroke-linecap="round" stroke-width="1.5" stroke="#323232" fill="none" stroke-linejoin="round"><path d="M1,21v0c0,-1.999 1.62,-3.619 3.619,-3.619h3.619c1.999,0 3.619,1.62 3.619,3.619v0"></path><path d="M8.66841,9.26059c1.23679,1.23679 1.23679,3.24202 0,4.47881c-1.23679,1.23679 -3.24202,1.23679 -4.47881,0c-1.23679,-1.23679 -1.23679,-3.24202 -8.88178e-16,-4.47881c1.23679,-1.23679 3.24202,-1.23679 4.47881,0"></path><path d="M18.096,13.808c2.708,0 4.904,-2.196 4.904,-4.904c0,-2.708 -2.195,-4.904 -4.904,-4.904c-2.709,0 -4.904,2.196 -4.904,4.904"></path><path d="M18.101,13.813c-0.738,0 -1.437,-0.163 -2.065,-0.454l-3.018,0.641l0.631,-3.024c-0.293,-0.63 -0.457,-1.332 -0.457,-2.072"></path><path d="M15.8134,8.96464c0.0195262,0.0195262 0.0195262,0.0511845 0,0.0707107c-0.0195262,0.0195262 -0.0511845,0.0195262 -0.0707107,0c-0.0195262,-0.0195262 -0.0195262,-0.0511845 0,-0.0707107c0.0195262,-0.0195262 0.0511845,-0.0195262 0.0707107,0"></path><path d="M18.0634,8.96464c0.0195262,0.0195262 0.0195262,0.0511845 0,0.0707107c-0.0195262,0.0195262 -0.0511845,0.0195262 -0.0707107,0c-0.0195262,-0.0195262 -0.0195262,-0.0511845 0,-0.0707107c0.0195262,-0.0195262 0.0511845,-0.0195262 0.0707107,0"></path><path d="M20.3134,8.96464c0.0195262,0.0195262 0.0195262,0.0511845 0,0.0707107c-0.0195262,0.0195262 -0.0511845,0.0195262 -0.0707107,0c-0.0195262,-0.0195262 -0.0195262,-0.0511845 0,-0.0707107c0.0195262,-0.0195262 0.0511845,-0.0195262 0.0707107,0"></path></g><path fill="none" d="M0,0h24v24h-24Z"></path></svg>