<?xml version="1.0" encoding="UTF-8"?><svg version="1.1" viewBox="0 0 24 24" xmlns="http://www.w3.org/2000/svg" xmlns:xlink="http://www.w3.org/1999/xlink"><!--Generated by IJSVG (https://github.com/iconjar/IJSVG)--><g stroke-linecap="round" stroke-width="1.5" stroke="#323232" fill="none" stroke-linejoin="round"><path d="M16,19v1c0,0.552 -0.448,1 -1,1h-12c-0.552,0 -1,-0.448 -1,-1v-1v-0.016c0,-3.026 3.458,-4.992 7,-4.992c3.542,0 7,1.967 7,4.992"></path><path d="M11.4692,5.02278c1.36371,1.36371 1.36371,3.57472 0,4.93843c-1.36371,1.36371 -3.57472,1.36371 -4.93843,1.77636e-15c-1.36371,-1.36371 -1.36371,-3.57472 -8.88178e-16,-4.93843c1.36371,-1.36371 3.57472,-1.36371 4.93843,-8.88178e-16"></path><path d="M20.5,9.305h-3c-0.276,0 -0.5,-0.224 -0.5,-0.5v-1.5c0,-0.276 0.224,-0.5 0.5,-0.5h3c0.276,0 0.5,0.224 0.5,0.5v1.5c0,0.276 -0.224,0.5 -0.5,0.5Z"></path><path d="M17.75,6.805v-1.055c0,-0.69 0.56,-1.25 1.25,-1.25v0c0.69,0 1.25,0.56 1.25,1.25v1.055"></path></g><path fill="none" d="M0,0h24v24h-24Z"></path></svg>