<?xml version="1.0" encoding="UTF-8"?><svg version="1.1" viewBox="0 0 24 24" xmlns="http://www.w3.org/2000/svg" xmlns:xlink="http://www.w3.org/1999/xlink"><g fill="none"><path d="M24 23.969h-24v-24h24Z"></path><path stroke="#323232" stroke-linecap="round" stroke-linejoin="round" stroke-width="1.5" d="M12 3h7l-8.74228e-08 1.77636e-15c1.10457-4.82823e-08 2 .89543 2 2v5"></path><path stroke="#323232" stroke-linecap="round" stroke-linejoin="round" stroke-width="1.5" d="M9 21h-4l-8.74228e-08-3.55271e-15c-1.10457-4.82823e-08-2-.895431-2-2 0 0 0 0 0 0v-3"></path><path stroke="#323232" stroke-linecap="round" stroke-linejoin="round" stroke-width="1.5" d="M3 12.031v-.406l-3.57283e-08 1.25358e-05c.00328875-1.15512.938871-2.09071 2.09399-2.09401h3.31201l7.30085e-08 2.08299e-10c1.15512.00329568 2.0907.938884 2.094 2.094v.406 0c0 .276142-.223858.5-.5.5h-6.5l-2.18557e-08-1.77636e-15c-.276142-1.20706e-08-.5-.223858-.5-.5 1.33227e-15-2.43308e-08 3.9968e-15-4.86777e-08 8.43769e-15-7.30085e-08Z"></path><path stroke="#323232" stroke-linecap="round" stroke-linejoin="round" stroke-width="1.5" d="M4.75 5.023l-2.59819e-08 6.49807e-06c.00441469-1.10456.903417-1.99641 2.00798-1.99199 1.10456.00441469 1.99641.903417 1.99199 2.00798 -.00440218 1.10143-.898521 1.99199-1.99996 1.99201l6.4155e-08-7.23865e-13c-1.10457 1.24608e-05-2.00001-.895408-2.00002-1.99998 -3.01678e-08-.00267417 5.30307e-06-.00534835 1.59997e-05-.0080225Z"></path><path stroke="#323232" stroke-linecap="round" stroke-linejoin="round" stroke-width="1.5" d="M13 21h8"></path><path stroke="#323232" stroke-linecap="round" stroke-linejoin="round" stroke-width="1.5" d="M14 21v-4.58"></path><path stroke="#323232" stroke-linecap="round" stroke-linejoin="round" stroke-width="1.5" d="M17 21v-4.58"></path><path stroke="#323232" stroke-linecap="round" stroke-linejoin="round" stroke-width="1.5" d="M20 21v-4.58"></path><path stroke="#323232" stroke-linecap="round" stroke-linejoin="round" stroke-width="1.5" d="M13 16.42h8v-1.783l-4-1.637 -4 1.637Z"></path></g></svg>