<?xml version="1.0" encoding="UTF-8"?><svg version="1.1" viewBox="0 0 24 24" xmlns="http://www.w3.org/2000/svg" xmlns:xlink="http://www.w3.org/1999/xlink"><g fill="none"><rect width="24" height="24"></rect><path stroke="#323232" stroke-linecap="round" stroke-linejoin="round" stroke-width="1.5" d="M16.333 21h-11.666c-.921 0-1.667-.746-1.667-1.667v-11.666c0-.921.746-1.667 1.667-1.667h11.667c.92 0 1.666.746 1.666 1.667v11.667c0 .92-.746 1.666-1.667 1.666Z"></path><path stroke="#323232" stroke-linecap="round" stroke-linejoin="round" stroke-width="1.5" d="M12.268 10.166c.976.976.976 2.559 0 3.536 -.976.976-2.559.976-3.536 0 -.977-.976-.976-2.559 0-3.536 .976-.977 2.559-.976 3.536 0"></path><path stroke="#323232" stroke-linecap="round" stroke-linejoin="round" stroke-width="1.5" d="M15 18.434c-.131-.329-.334-.625-.594-.866v0c-.439-.408-1.014-.634-1.614-.634 -1 0-3.584 0-4.584 0 -.6 0-1.174.227-1.614.634v0c-.26.241-.463.537-.594.866"></path><path stroke="#323232" stroke-linecap="round" stroke-linejoin="round" stroke-width="1.5" d="M6 6v-1.333c0-.921.746-1.667 1.667-1.667h11.667c.92 0 1.666.746 1.666 1.667v11.667c0 .92-.746 1.666-1.667 1.666h-1.333"></path></g></svg>