<svg id="Layer_3" data-name="Layer 3" xmlns="http://www.w3.org/2000/svg" viewBox="0 0 24 24"><path d="M0,0H24V24H0Z" fill="none"/><path d="M15,16.45314v.84861A3.75,3.75,0,0,0,17.43328,20.813l.43505.16314a.37494.37494,0,0,0,.26334,0l.43505-.16314A3.75,3.75,0,0,0,21,17.30175v-.84861a.75.75,0,0,0-.5263-.71588l-2.25-.70312a.75.75,0,0,0-.4474,0l-2.25.70312A.75.75,0,0,0,15,16.45314Z" fill="none" stroke="#323232" stroke-linecap="round" stroke-linejoin="round" stroke-width="1.5"/><path d="M11.343,16a8.071,8.071,0,0,0-5.707,2.364" fill="none" stroke="#323232" stroke-linecap="round" stroke-linejoin="round" stroke-width="1.5"/><path d="M21,12a9,9,0,1,0-9,9" fill="none" stroke="#323232" stroke-linecap="round" stroke-linejoin="round" stroke-width="1.5"/><path d="M15,9.75v.5h0a3,3,0,0,1-3,3h0a3,3,0,0,1-3-3H9v-.5H9a3,3,0,0,1,3-3h0a3,3,0,0,1,3,3Z" fill="none" stroke="#323232" stroke-linecap="round" stroke-linejoin="round" stroke-width="1.5"/></svg>