<?xml version="1.0" encoding="UTF-8"?><svg version="1.1" viewBox="0 0 24 24" xmlns="http://www.w3.org/2000/svg" xmlns:xlink="http://www.w3.org/1999/xlink"><g fill="none"><path d="M0 0h24v24h-24v-24Z"></path><line x1="18" x2="20" y1="5" y2="5" stroke="#323232" stroke-linecap="round" stroke-linejoin="round" stroke-width="1.5"></line><path stroke="#323232" stroke-linecap="round" stroke-linejoin="round" stroke-width="1.5" d="M19 9c-2.209 0-4-1.791-4-4 0-2.209 1.791-4 4-4 2.209 0 4 1.791 4 4 0 2.209-1.791 4-4 4"></path><path stroke="#323232" stroke-linecap="round" stroke-linejoin="round" stroke-width="1.5" d="M11.5 9.025c1.227 0 2.222.995 2.222 2.222 0 1.227-.995 2.222-2.222 2.222 -1.227 0-2.222-.995-2.222-2.222 0-1.227.995-2.222 2.222-2.222"></path><path stroke="#323232" stroke-linecap="round" stroke-linejoin="round" stroke-width="1.5" d="M15.5 17.025c-.116-.293-.297-.555-.528-.769v0c-.391-.362-.901-.564-1.434-.564 -.889 0-3.186 0-4.075 0 -.533 0-1.044.202-1.435.564v0c-.231.214-.411.477-.528.769"></path><path stroke="#323232" stroke-linecap="round" stroke-linejoin="round" stroke-width="1.5" d="M15.006 4.765c-1.07-.486-2.254-.765-3.506-.765 -4.694 0-8.5 3.806-8.5 8.5 0 4.694 3.806 8.5 8.5 8.5 4.694 0 8.5-3.806 8.5-8.5 0-1.252-.279-2.436-.765-3.506"></path></g></svg>