<svg id="Layer_3" data-name="Layer 3" xmlns="http://www.w3.org/2000/svg" viewBox="0 0 24 24"><path d="M0,0H24V24H0Z" fill="none"/><path d="M17,20H12.5a2,2,0,0,1-2-2V17a5,5,0,0,1,5-5h4a2,2,0,0,1,2,2v4.5" fill="none" stroke="#323232" stroke-linecap="round" stroke-linejoin="round" stroke-width="1.5"/><circle cx="19" cy="18.5" r="2.5" fill="none" stroke="#323232" stroke-linecap="round" stroke-linejoin="round" stroke-width="1.5"/><path d="M3.5,18h3A1.5,1.5,0,0,1,8,19.5V20a1,1,0,0,1-1,1H3a1,1,0,0,1-1-1v-.5A1.5,1.5,0,0,1,3.5,18Z" fill="none" stroke="#323232" stroke-linecap="round" stroke-linejoin="round" stroke-width="1.5"/><path d="M14.24768,12.17749l.95288-4.44678A3.91119,3.91119,0,0,0,11.37619,3h0A3.90742,3.90742,0,0,0,7.55253,6.08832C6.58433,10.60662,5,18,5,18" fill="none" stroke="#323232" stroke-linecap="round" stroke-linejoin="round" stroke-width="1.5"/></svg>