<svg id="Layer_3" data-name="Layer 3" xmlns="http://www.w3.org/2000/svg" viewBox="0 0 24 24"><path d="M0,0H24V24H0Z" fill="none"/><path d="M3,13V6A3,3,0,0,1,6,3H18a3,3,0,0,1,3,3v7a3,3,0,0,1-3,3H6A3,3,0,0,1,3,13Z" fill="none" stroke="#323232" stroke-linecap="round" stroke-linejoin="round" stroke-width="1.5"/><path d="M10.1,11.3829V7.61709a.62757.62757,0,0,1,.94685-.53038l3.24564,1.88351a.6101.6101,0,0,1,0,1.05955l-3.24564,1.88352A.62757.62757,0,0,1,10.1,11.3829Z" fill="none" stroke="#323232" stroke-linecap="round" stroke-linejoin="round" stroke-width="1.5"/><path d="M20,20H10" fill="none" stroke="#323232" stroke-linecap="round" stroke-linejoin="round" stroke-width="1.5"/><path d="M4,20H7" fill="none" stroke="#323232" stroke-linecap="round" stroke-linejoin="round" stroke-width="1.5"/><circle cx="8.5" cy="20" r="1.5" fill="none" stroke="#323232" stroke-linecap="round" stroke-linejoin="round" stroke-width="1.5"/></svg>