<?xml version="1.0" encoding="UTF-8"?><svg version="1.1" viewBox="0 0 24 24" xmlns="http://www.w3.org/2000/svg" xmlns:xlink="http://www.w3.org/1999/xlink"><!--Generated by IJSVG (https://github.com/iconjar/IJSVG)--><g stroke-linecap="round" stroke-width="1.5" stroke="#323232" fill="none" stroke-linejoin="round"><path d="M3,11.291c0,2.683 1.42,5.045 3.599,6.534c-0.001,0.855 0.001,2.007 0.001,3.216l3.531,-1.747c0.604,0.116 1.228,0.179 1.869,0.179c4.952,0 9,-3.643 9,-8.182c0,-4.539 -4.048,-8.182 -9,-8.182c-4.952,0 -9,3.643 -9,8.182Z"></path><path d="M11.313,8.721l3.195,1.89c0.46,0.272 0.46,0.938 0,1.211l-3.195,1.89c-0.469,0.277 -1.061,-0.061 -1.061,-0.605v-3.78c0,-0.546 0.592,-0.884 1.061,-0.606Z"></path></g><path fill="none" d="M0,0h24v24h-24Z"></path></svg>