<svg id="Layer_3" data-name="Layer 3" xmlns="http://www.w3.org/2000/svg" viewBox="0 0 24 24"><path d="M20,21H4a1.99945,1.99945,0,0,1-2-2V5A1.99945,1.99945,0,0,1,4,3H20a1.99945,1.99945,0,0,1,2,2V19A1.99945,1.99945,0,0,1,20,21Z" fill="none" stroke="#323232" stroke-linecap="round" stroke-linejoin="round" stroke-width="1.5"/><path d="M2,8H22" fill="none" stroke="#323232" stroke-linecap="round" stroke-linejoin="round" stroke-width="1.5"/><path d="M6,8,8,3" fill="none" stroke="#323232" stroke-linecap="round" stroke-linejoin="round" stroke-width="1.5"/><path d="M11,8l2-5" fill="none" stroke="#323232" stroke-linecap="round" stroke-linejoin="round" stroke-width="1.5"/><path d="M16,8l2-5" fill="none" stroke="#323232" stroke-linecap="round" stroke-linejoin="round" stroke-width="1.5"/><path d="M10.12255,16.34908V12.65092a.65011.65011,0,0,1,.97544-.56271l3.19979,1.84908a.64987.64987,0,0,1,0,1.12542L11.098,16.91179A.65011.65011,0,0,1,10.12255,16.34908Z" fill="none" stroke="#323232" stroke-linecap="round" stroke-linejoin="round" stroke-width="1.5"/><path d="M0,0H24V24H0Z" fill="none"/></svg>