<?xml version="1.0" encoding="UTF-8"?><svg version="1.1" viewBox="0 0 24 24" xmlns="http://www.w3.org/2000/svg" xmlns:xlink="http://www.w3.org/1999/xlink"><!--Generated by IJSVG (https://github.com/iconjar/IJSVG)--><path d="M21,12v0c0,4.971 -4.029,9 -9,9v0c-4.971,0 -9,-4.029 -9,-9v0c0,-4.971 4.029,-9 9,-9v0c4.971,0 9,4.029 9,9Z" stroke-linecap="round" stroke-width="1.5" stroke="#323232" fill="none" stroke-dasharray="4.0381 4.0381" stroke-linejoin="round"></path><path fill="none" stroke="#323232" stroke-linecap="round" stroke-linejoin="round" stroke-width="1.5" d="M11.206,9.115l3.694,2.185c0.532,0.315 0.532,1.085 0,1.4l-3.695,2.185c-0.542,0.321 -1.227,-0.07 -1.227,-0.7v-4.37c0,-0.63 0.686,-1.021 1.228,-0.7Z"></path><path d="M0,0h24v24h-24Z" fill="none"></path></svg>