<?xml version="1.0" encoding="UTF-8"?><svg version="1.1" viewBox="0 0 24 24" xmlns="http://www.w3.org/2000/svg" xmlns:xlink="http://www.w3.org/1999/xlink"><!--Generated by IJSVG (https://github.com/iconjar/IJSVG)--><g stroke-linecap="round" stroke-width="1.5" stroke="#323232" fill="none" stroke-linejoin="round"><path d="M7,8h-4"></path><path d="M7,13h-4"></path><path d="M14,8h4"></path><path d="M17,21c-2.761,0 -5,-2.239 -5,-5c0,-2.761 2.239,-5 5,-5c2.762,0 5,2.239 5,5c0,2.761 -2.238,5 -5,5"></path><path d="M17,14v4"></path><path d="M19,16h-4"></path><path d="M14,12v-9"></path><path d="M7,18v-15"></path><path d="M18,11.101v-6.101c0,-1.105 -0.895,-2 -2,-2h-11c-1.105,0 -2,0.895 -2,2v11c0,1.105 0.895,2 2,2h7.418"></path></g><path fill="none" d="M0,0h24v24h-24Z"></path></svg>