<?xml version="1.0" encoding="UTF-8"?><svg version="1.1" viewBox="0 0 24 24" xmlns="http://www.w3.org/2000/svg" xmlns:xlink="http://www.w3.org/1999/xlink"><!--Generated by IJSVG (https://github.com/iconjar/IJSVG)--><g stroke-linecap="round" stroke-width="1.5" stroke="#323232" fill="none" stroke-linejoin="round"><path d="M5.16,6.16c0.461,-0.54 0.986,-1.021 1.562,-1.438"></path><path d="M17,19.482c-1.43,0.958 -3.149,1.518 -5,1.518c-0.912,0 -1.791,-0.138 -2.62,-0.39"></path><path d="M6.349,19c-1.281,-1.035 -2.265,-2.417 -2.826,-4"></path><path d="M3.523,9c-0.333,0.94 -0.523,1.946 -0.523,3"></path><path d="M12,8.5v7"></path><path d="M15.5,12h-7"></path><path d="M19.463,17c0.964,-1.431 1.537,-3.145 1.537,-5c0,-4.971 -4.029,-9 -9,-9"></path></g><path fill="none" d="M0,0h24v24h-24Z"></path></svg>