<?xml version="1.0" encoding="UTF-8"?><svg version="1.1" viewBox="0 0 24 24" xmlns="http://www.w3.org/2000/svg" xmlns:xlink="http://www.w3.org/1999/xlink"><!--Generated by IJSVG (https://github.com/iconjar/IJSVG)--><g stroke-linecap="round" stroke-width="1.5" stroke="#323232" fill="none" stroke-linejoin="round"><path d="M3,5h4"></path><path d="M5,3v4"></path><path d="M6,17v3"></path><path d="M7.5,18.5h-3"></path><path d="M21,12l-3.79,-1.524c-0.758,-0.305 -1.359,-0.905 -1.664,-1.663l-1.535,-3.813l-1.535,3.813c-0.305,0.758 -0.906,1.359 -1.664,1.663l-3.79,1.524h-0.022l3.79,1.524c0.758,0.305 1.359,0.905 1.664,1.663l1.535,3.813l1.535,-3.813c0.305,-0.758 0.906,-1.359 1.664,-1.663l3.79,-1.524"></path></g><path fill="none" d="M0,0h24v24h-24Z"></path></svg>