<svg id="Layer_3" data-name="Layer 3" xmlns="http://www.w3.org/2000/svg" viewBox="0 0 24 24"><path d="M6.5,5h3" fill="none" stroke="#323232" stroke-linecap="round" stroke-linejoin="round" stroke-width="1.5"/><path d="M6.5,5V3a1,1,0,0,1,1-1h1a1,1,0,0,1,1,1V5" fill="none" stroke="#323232" stroke-linecap="round" stroke-linejoin="round" stroke-width="1.5"/><path d="M12,14v4H4V14" fill="none" stroke="#323232" stroke-linecap="round" stroke-linejoin="round" stroke-width="1.5"/><path d="M4,14A8.72124,8.72124,0,0,1,5.25,9.5h0A8.72567,8.72567,0,0,0,6.5,5" fill="none" stroke="#323232" stroke-linecap="round" stroke-linejoin="round" stroke-width="1.5"/><path d="M9.5,5a8.72124,8.72124,0,0,0,1.25,4.5h0A8.72564,8.72564,0,0,1,12,14" fill="none" stroke="#323232" stroke-linecap="round" stroke-linejoin="round" stroke-width="1.5"/><path d="M18,13.5244h0a2.99971,2.99971,0,0,0,2.98482-3.29819l-.12313-1.23127A1.10487,1.10487,0,0,0,19.7623,8H16.2377a1.10487,1.10487,0,0,0-1.09939.99494l-.12313,1.23127A2.99971,2.99971,0,0,0,18,13.5244Z" fill="none" stroke="#323232" stroke-linecap="round" stroke-linejoin="round" stroke-width="1.5"/><line x1="18" y1="13.5244" x2="18" y2="18" fill="none" stroke="#323232" stroke-linecap="round" stroke-linejoin="round" stroke-width="1.5"/><path d="M20,21H4a2,2,0,0,1-2-2H2a1,1,0,0,1,1-1H21a1,1,0,0,1,1,1h0A2,2,0,0,1,20,21Z" fill="none" stroke="#323232" stroke-linecap="round" stroke-linejoin="round" stroke-width="1.5"/><line x1="11.63371" y1="11.5" x2="4.36602" y2="11.5" fill="none" stroke="#323232" stroke-linecap="round" stroke-linejoin="round" stroke-width="1.5"/><rect width="24" height="24" fill="none"/></svg>