<svg viewBox="0 0 24 24" xmlns="http://www.w3.org/2000/svg"><g stroke-linecap="round" stroke-width="1.5" stroke="#323232" fill="none" stroke-linejoin="round"><path d="M12 6.5l0 11"/><path d="M15 9.5l0 5"/><path d="M18 11l0 2"/><path d="M9 14.5l0-5"/><path d="M3 16v2l0 0c0 1.65 1.34 2.99 3 2.99h1.99"/><path d="M3 8V6l0 0c-.01-1.66 1.34-3.01 2.99-3.01h2"/><path d="M16 21h2l-.01-.001c1.65 0 3-1.35 3-3v-2.01"/><path d="M16 3h2l-.01 0c1.65-.01 3 1.34 3 3v2"/><path d="M6 13l0-2"/></g><path fill="none" d="M0 24V0h24v24Z"/></svg>