<svg id="Layer_3" data-name="Layer 3" xmlns="http://www.w3.org/2000/svg" viewBox="0 0 24 24"><path d="M0,24V0H24V24Z" fill="none"/><line x1="12" y1="7" x2="12" y2="12" fill="none" stroke="#323232" stroke-linecap="round" stroke-linejoin="round" stroke-width="1.5"/><line x1="15" y1="9" x2="15" y2="10" fill="none" stroke="#323232" stroke-linecap="round" stroke-linejoin="round" stroke-width="1.5"/><line x1="9" y1="15" x2="9" y2="9" fill="none" stroke="#323232" stroke-linecap="round" stroke-linejoin="round" stroke-width="1.5"/><path d="M17.499,16.25a.25.25,0,1,0,.251.25.24869.24869,0,0,0-.251-.25" fill="none" stroke="#323232" stroke-linecap="round" stroke-linejoin="round" stroke-width="1.5"/><path d="M14,16.5h0A3.5,3.5,0,0,1,17.5,13h0A3.5,3.5,0,0,1,21,16.5h0c0,1.63851-1.788,3.38881-2.808,4.25435a1.09611,1.09611,0,0,1-1.383,0C15.788,19.88881,14,18.13851,14,16.5Z" fill="none" stroke="#323232" stroke-linecap="round" stroke-linejoin="round" stroke-width="1.5"/><path d="M3,16v2a3,3,0,0,0,3,3H8" fill="none" stroke="#323232" stroke-linecap="round" stroke-linejoin="round" stroke-width="1.5"/><path d="M3,8V6A3,3,0,0,1,6,3H8" fill="none" stroke="#323232" stroke-linecap="round" stroke-linejoin="round" stroke-width="1.5"/><path d="M16,3h2a3,3,0,0,1,3,3V8" fill="none" stroke="#323232" stroke-linecap="round" stroke-linejoin="round" stroke-width="1.5"/><line x1="6" y1="13" x2="6" y2="11" fill="none" stroke="#323232" stroke-linecap="round" stroke-linejoin="round" stroke-width="1.5"/></svg>