<svg viewBox="0 0 24 24" xmlns="http://www.w3.org/2000/svg"><g stroke-linecap="round" stroke-width="1.5" stroke="#323232" fill="none" stroke-linejoin="round"><path d="M11.61 11H5.1l-.01-.001c-.83-.01-1.5-.68-1.5-1.5 0 0 0-.001 0-.001v-1.5l0 0c-.01-.56.44-1.01.99-1.01h7"/><path d="M13.11 6.5a2.5 2.5 0 1 0 0 5 2.5 2.5 0 1 0 0-5Z"/></g><g fill="none"><path d="M0 0h24v24H0Z"/><g stroke-linecap="round" stroke-width="1.5" stroke="#323232" fill="none" stroke-linejoin="round"><path d="M9.83 17.32l-.79 2.35 -.01 0c-.18.52.1 1.09.63 1.26 .1.03.2.05.31.05h7.22l0-.001c.55-.01.99-.45.99-1.01 -.01-.11-.02-.22-.06-.32l-.27-.8 -.01-.01c-.83-2.47-.53-5.17.81-7.4v0l0-.01c.58-.98.89-2.09.89-3.23v0l0-.01c0-3.46-2.81-6.27-6.27-6.27h-.74l0 0c-3.02-.01-5.63 2.06-6.32 5"/><path d="M4.88 10.98l-.72 1.07 0-.01c-.31.45-.19 1.08.27 1.38 .03.02.07.04.1.06l.94.47v2.01l-.001-.01c0 1.1.89 1.99 2 1.99 .21-.01.42-.04.63-.11l2-.67 -.01 0c.81-.28 1.36-1.04 1.36-1.9v-.56"/></g></g></svg>