<?xml version="1.0" encoding="UTF-8"?><svg version="1.1" viewBox="0 0 24 24" xmlns="http://www.w3.org/2000/svg" xmlns:xlink="http://www.w3.org/1999/xlink"><g fill="none"><path d="M0 0h24v24h-24v-24Z"></path><path stroke="#323232" stroke-linecap="round" stroke-linejoin="round" stroke-width="1.5" d="M13.499 13.48c-.138.001-.249.113-.249.251 0 .138.112.25.25.249 .138 0 .25-.112.25-.25 0-.138-.112-.25-.251-.25"></path><path stroke="#323232" stroke-linecap="round" stroke-linejoin="round" stroke-width="1.5" d="M3 6.283v-.283c0-1.657 1.343-3 3-3h12c1.657 0 3 1.343 3 3v9c0 1.657-1.343 3-3 3h-1"></path><line x1="21" x2="17" y1="9" y2="9" stroke="#323232" stroke-linecap="round" stroke-linejoin="round" stroke-width="1.5"></line><path stroke="#323232" stroke-linecap="round" stroke-linejoin="round" stroke-width="1.5" d="M13.325 20.922c1.88.434 3.675-.994 3.675-2.923v-8.612c0-1.397-.964-2.609-2.325-2.923l-9.225-2.129c-1.254-.29-2.45.662-2.45 1.948v9.869c0 1.397.964 2.609 2.325 2.923l8 1.847Z"></path></g></svg>