<svg id="Layer_3" data-name="Layer 3" xmlns="http://www.w3.org/2000/svg" viewBox="0 0 24 24"><path d="M3,9V6.5A2.5,2.5,0,0,1,5.5,4h13A2.5,2.5,0,0,1,21,6.5v3" fill="none" stroke="#323232" stroke-linecap="round" stroke-linejoin="round" stroke-width="1.5"/><path d="M21,14.5v3A2.5,2.5,0,0,1,18.5,20H15" fill="none" stroke="#323232" stroke-linecap="round" stroke-linejoin="round" stroke-width="1.5"/><path d="M19.5,9.5H21a1,1,0,0,1,1,1v3a1,1,0,0,1-1,1H19.5A2.5,2.5,0,0,1,17,12v0A2.5,2.5,0,0,1,19.5,9.5Z" fill="none" stroke="#323232" stroke-linecap="round" stroke-linejoin="round" stroke-width="1.5"/><path d="M5.5,19A3.5,3.5,0,1,1,9,15.5,3.49936,3.49936,0,0,1,5.5,19" fill="none" stroke="#323232" stroke-linecap="round" stroke-linejoin="round" stroke-width="1.5"/><path d="M5.345,18.992A3.49312,3.49312,0,1,0,8.67,14.018" fill="none" stroke="#323232" stroke-linecap="round" stroke-linejoin="round" stroke-width="1.5"/><path d="M0,0H24V24H0Z" fill="none"/><path d="M0,0H24V24H0Z" fill="none"/></svg>