<?xml version="1.0" encoding="UTF-8"?><svg version="1.1" viewBox="0 0 24 24" xmlns="http://www.w3.org/2000/svg" xmlns:xlink="http://www.w3.org/1999/xlink"><path d="M18 20h-12c-1.657 0-3-1.343-3-3v-11c0-1.105.895-2 2-2h14c1.105 0 2 .895 2 2v11c0 1.657-1.343 3-3 3Z" stroke-linecap="round" stroke-width="1.5" fill-rule="evenodd" stroke="#323232" fill="none" stroke-linejoin="round"></path><path fill="none" stroke="#323232" stroke-linecap="round" stroke-linejoin="round" stroke-width="1.5" d="M21 11.5h-3.5c-.53 0-1.039.211-1.414.586l-.828.828c-.375.375-.884.586-1.414.586h-3.101c-.53 0-1.039-.211-1.414-.586l-.829-.828c-.375-.375-.884-.586-1.414-.586h-4.086"></path><line x1="21" x2="3" y1="8" y2="8" stroke-linecap="round" stroke-width="1.5" stroke="#323232" fill="none" stroke-linejoin="round"></line><path fill="none" d="M0 0h24v24h-24v-24Z"></path></svg>