<svg id="Layer_3" data-name="Layer 3" xmlns="http://www.w3.org/2000/svg" viewBox="0 0 24 24"><rect width="24" height="24" fill="none"/><path d="M18.5,6.95324l-2.36482-3.1531a2,2,0,0,0-2.7094-.4641L7.92984,7" fill="none" stroke="#323232" stroke-linecap="round" stroke-linejoin="round" stroke-width="1.5"/><path d="M18.5,11.5H21a1,1,0,0,1,1,1v3a1,1,0,0,1-1,1H18.5A2.5,2.5,0,0,1,16,14v0a2.5,2.5,0,0,1,2.5-2.5Z" fill="none" stroke="#323232" stroke-linecap="round" stroke-linejoin="round" stroke-width="1.5"/><path d="M12,21h6.5A2.5,2.5,0,0,0,21,18.5v-2" fill="none" stroke="#323232" stroke-linecap="round" stroke-linejoin="round" stroke-width="1.5"/><circle cx="6" cy="18" r="4" fill="none" stroke="#323232" stroke-linecap="round" stroke-linejoin="round" stroke-width="1.5"/><path d="M7.345,17.208l-1.68,1.679L4.655,17.88" fill="none" stroke="#323232" stroke-linecap="round" stroke-linejoin="round" stroke-width="1.5"/><path d="M21,11.5v-2A2.5,2.5,0,0,0,18.5,7H5.5A2.5,2.5,0,0,0,3,9.5V12" fill="none" stroke="#323232" stroke-linecap="round" stroke-linejoin="round" stroke-width="1.5"/></svg>