<svg id="Layer_3" data-name="Layer 3" xmlns="http://www.w3.org/2000/svg" viewBox="0 0 24 24"><path d="M24,0V24H0V0Z" fill="none"/><path d="M13.75,7.796H15a2,2,0,0,1,2,2v4.908a2,2,0,0,1-2,2H9a2,2,0,0,1-2-2V9.796a2,2,0,0,1,2-2h1.25" fill="none" stroke="#323232" stroke-linecap="round" stroke-linejoin="round" stroke-width="1.5"/><circle cx="12" cy="12" r="9.5" fill="none" stroke="#323232" stroke-linecap="round" stroke-linejoin="round" stroke-width="1.5"/><path d="M12,7h1.25a.5.5,0,0,1,.5.5V10a.5.5,0,0,1-.5.5H12a1.75,1.75,0,0,1-1.75-1.75v0A1.75,1.75,0,0,1,12,7Z" transform="translate(3.25 20.75) rotate(-90)" fill="none" stroke="#323232" stroke-linecap="round" stroke-linejoin="round" stroke-width="1.5"/></svg>