<svg id="Layer_3" data-name="Layer 3" xmlns="http://www.w3.org/2000/svg" viewBox="0 0 24 24"><path d="M0,0H24V24H0Z" fill="none"/><path d="M0,0H24V24H0Z" fill="none"/><path d="M9,21H5a2,2,0,0,1-2-2V9.20044a3,3,0,0,1,1.58809-2.647l6-3.20042a3,3,0,0,1,2.82382,0l6,3.20042A3,3,0,0,1,21,9.20044V10" fill="none" stroke="#323232" stroke-linecap="round" stroke-linejoin="round" stroke-width="1.5"/><line x1="10" y1="9" x2="14" y2="9" fill="none" stroke="#323232" stroke-linecap="round" stroke-linejoin="round" stroke-width="1.5"/><path d="M9,13H8a1,1,0,0,0-1,1v7" fill="none" stroke="#323232" stroke-linecap="round" stroke-linejoin="round" stroke-width="1.5"/><line x1="9" y1="17" x2="7" y2="17" fill="none" stroke="#323232" stroke-linecap="round" stroke-linejoin="round" stroke-width="1.5"/><path d="M18.5,13h1A1.5,1.5,0,0,1,21,14.5v5A1.5,1.5,0,0,1,19.5,21h-6A1.5,1.5,0,0,1,12,19.5v-5A1.5,1.5,0,0,1,13.5,13h1" fill="none" stroke="#323232" stroke-linecap="round" stroke-linejoin="round" stroke-width="1.5"/><rect x="14.5" y="11.375" width="4" height="3" rx="1" stroke-width="1.5" stroke="#323232" stroke-linecap="round" stroke-linejoin="round" fill="none"/></svg>