<svg id="Layer_3" data-name="Layer 3" xmlns="http://www.w3.org/2000/svg" viewBox="0 0 24 24"><rect width="24" height="24" fill="none"/><path d="M19.30953,14.08333H13.90476A.90476.90476,0,0,1,13,13.17857V10" fill="none" stroke="#323232" stroke-linecap="round" stroke-linejoin="round" stroke-width="1.5"/><circle cx="18.5" cy="19.5" r="1.5" fill="none" stroke="#323232" stroke-linecap="round" stroke-linejoin="round" stroke-width="1.5"/><path d="M10,10h3.40476a4.52382,4.52382,0,0,1,3.61905,1.80952l1.09511,1.46015a1.85,1.85,0,0,0,.65265.54469l2.12286,1.06143A2,2,0,0,1,22,16.66464V18.15a1.35,1.35,0,0,1-1.35,1.35H20" fill="none" stroke="#323232" stroke-linecap="round" stroke-linejoin="round" stroke-width="1.5"/><line x1="17" y1="19.5" x2="14" y2="19.5" fill="none" stroke="#323232" stroke-linecap="round" stroke-linejoin="round" stroke-width="1.5"/><path d="M21,11V8.20044a3,3,0,0,0-1.58809-2.647l-6-3.20042a3,3,0,0,0-2.82382,0l-6,3.20042A3,3,0,0,0,3,8.20044V10" fill="none" stroke="#323232" stroke-linecap="round" stroke-linejoin="round" stroke-width="1.5"/><polyline points="4.75 16.887 5.75 17.887 7.25 16.387" fill="none" stroke="#323232" stroke-linecap="round" stroke-linejoin="round" stroke-width="1.5"/><rect x="2" y="13" width="8" height="8" rx="2.22222" stroke-width="1.5" stroke="#323232" stroke-linecap="round" stroke-linejoin="round" fill="none"/></svg>