<?xml version="1.0" encoding="UTF-8"?><svg version="1.1" viewBox="0 0 24 24" xmlns="http://www.w3.org/2000/svg" xmlns:xlink="http://www.w3.org/1999/xlink"><defs><path d="M13.743 7.662l3.046 5.414 4.90285e-10 8.7106e-10c.541791.962567.200685 2.18209-.761882 2.72388 -.299514.168584-.637418.257138-.981118.257118h-6.091l7.21298e-08-4.24194e-12c-1.10457 6.49991e-05-2.00005-.895313-2.00012-1.99988 -2.02252e-05-.343699.0885331-.681604.257118-.981118l3.046-5.414 5.01122e-08-8.89502e-08c.542166-.962356 1.76182-1.30299 2.72418-.760821 .318344.179347.581474.442477.760821.760821Z" id="a"></path></defs><g stroke-linecap="round" stroke-width="1.5" stroke="#323232" fill="none" stroke-linejoin="round"><use xlink:href="#a"></use><use xlink:href="#a"></use><path d="M12 11.477v-1.835"></path><path d="M12 21v0l-3.93403e-07-7.10543e-15c-4.97056-2.1727e-07-9-4.02944-9-9 0 0 0-5.32907e-15 0-5.32907e-15h-8.88178e-15l1.03029e-13 1.35896e-06c-7.50534e-07-4.97056 4.02944-9 9-9v0l-3.93403e-07 8.88178e-15c4.97056-2.1727e-07 9 4.02944 9 9v0l3.55271e-14 7.86805e-07c0 4.97056-4.02944 9-9 9Z"></path><path d="M12 13.5l-3.97774e-09 1.77636e-15c-.0502579 2.19684e-09-.091.0407421-.091.091 2.19684e-09.0502579.0407421.091.091.091h-3.97774e-09c.0502579 2.19684e-09.091-.0407421.091-.091 2.19684e-09-.0502579-.0407421-.091-.091-.091"></path></g><path fill="none" d="M0 0h24v24h-24Z"></path></svg>