<svg id="Layer_3" data-name="Layer 3" xmlns="http://www.w3.org/2000/svg" viewBox="0 0 24 24"><path d="M17.99957,8H4.00043A1,1,0,0,0,3.026,9.22486l2.53846,11A1,1,0,0,0,6.53889,21h8.92222a1,1,0,0,0,.97439-.77514l2.53846-11A1,1,0,0,0,17.99957,8Z" fill="none" stroke="#323232" stroke-linecap="round" stroke-linejoin="round" stroke-width="1.5"/><path d="M5,8V6.69231a3.68129,3.68129,0,0,1,6.87254-1.84616h2.35823A2.76923,2.76923,0,0,1,17,7.61538V8" fill="none" stroke="#323232" stroke-linecap="round" stroke-linejoin="round" stroke-width="1.5"/><path d="M11,12l6.68075,3.71836a2.234,2.234,0,0,0,3.083-.95377h0a2.234,2.234,0,0,0-.9132-2.95188l-1.30492-.73179" fill="none" stroke="#323232" stroke-linecap="round" stroke-linejoin="round" stroke-width="1.5"/><rect width="24" height="24" fill="none"/></svg>