<?xml version="1.0" encoding="UTF-8"?><svg version="1.1" viewBox="0 0 24 24" xmlns="http://www.w3.org/2000/svg" xmlns:xlink="http://www.w3.org/1999/xlink"><g fill="none"><path d="M0 0h24v24h-24Z"></path><path stroke="#323232" stroke-linecap="round" stroke-linejoin="round" stroke-width="1.5" d="M10 18h4"></path><path stroke="#323232" stroke-linecap="round" stroke-linejoin="round" stroke-width="1.5" d="M16.979 3h-9.958c-.552 0-1 .448-1 1v2.378c0 .421.133.832.38 1.173l3.22 4.449 -3.22 4.449c-.247.341-.38.752-.38 1.173v2.378c0 .552.448 1 1 1h9.957c.552 0 1-.448 1-1v-2.342c0-.444-.148-.875-.42-1.226l-3.437-4.432 3.438-4.433c.272-.351.42-.782.42-1.226v-2.341c-3.55271e-15-.552-.448-1-1-1Z"></path></g></svg>