<?xml version="1.0" encoding="UTF-8"?><svg version="1.1" viewBox="0 0 24 24" xmlns="http://www.w3.org/2000/svg" xmlns:xlink="http://www.w3.org/1999/xlink"><g fill="none"><path d="M24 0v24h-24v-24h24Z"></path><path stroke="#323232" stroke-linecap="round" stroke-linejoin="round" stroke-width="1.5" d="M5.3 14l-1.5 1.5c-1.5-3.3-.8-7.2 1.8-9.9 3.3-3.2 8.4-3.5 11.9-.7"></path><path stroke="#323232" stroke-linecap="round" stroke-linejoin="round" stroke-width="1.5" d="M6.5 19.1c3.5 2.7 8.6 2.5 11.9-.7 2.7-2.7 3.3-6.6 1.9-9.9l-1.6 1.5"></path><path stroke="#323232" stroke-linecap="round" stroke-linejoin="round" stroke-width="1.5" d="M10.4 12l-1.2 1.7c-.2.2-.2.4-.2.6v1.2c0 .3.2.5.5.5h5.1c.3 0 .5-.2.5-.5v-1.2c0-.2-.1-.4-.2-.6l-1.4-1.7c0 0 1.3-1.7 1.3-1.7 .2-.2.2-.4.2-.6v-1.2c0-.3-.2-.5-.5-.5h-5c-.3 0-.5.2-.5.5v1.2c0 .2.1.4.2.6l1.2 1.7Z"></path></g></svg>