<svg id="Layer_3" data-name="Layer 3" xmlns="http://www.w3.org/2000/svg" viewBox="0 0 24 24"><path d="M6,14V9a6,6,0,0,1,6-6h0a6,6,0,0,1,6,6v5" fill="none" stroke="#323232" stroke-linecap="round" stroke-linejoin="round" stroke-width="1.5"/><line x1="11.5" y1="14.00001" x2="11.5" y2="11.00001" fill="none" stroke="#323232" stroke-linecap="round" stroke-linejoin="round" stroke-width="1.5"/><line x1="13.5" y1="11.00001" x2="11.5" y2="11.00001" fill="none" stroke="#323232" stroke-linecap="round" stroke-linejoin="round" stroke-width="1.5"/><rect x="2" y="14.00001" width="20" height="3" rx="1.5" stroke-width="1.5" stroke="#323232" stroke-linecap="round" stroke-linejoin="round" fill="none"/><path d="M17.31939,21H6.68061a2.5,2.5,0,0,1-2.47-2.11409L4.0061,17.57719A.5.5,0,0,1,4.50011,17H19.49989a.5.5,0,0,1,.494.57718l-.20447,1.30873A2.5,2.5,0,0,1,17.31939,21Z" fill="none" stroke="#323232" stroke-linecap="round" stroke-linejoin="round" stroke-width="1.5"/><rect y="0.00001" width="24" height="24" fill="none"/></svg>