<svg id="Layer_3" data-name="Layer 3" xmlns="http://www.w3.org/2000/svg" viewBox="0 0 24 24"><path d="M16.36179,20.61791A13.93378,13.93378,0,0,1,3.38209,7.63821a1.0686,1.0686,0,0,1,.87508-1.09885l14.8324-2.89864a1.08224,1.08224,0,0,1,1.26971,1.26971l-2.89864,14.8324A1.0686,1.0686,0,0,1,16.36179,20.61791Z" fill="none" stroke="#323232" stroke-linecap="round" stroke-linejoin="round" stroke-width="1.5"/><line x1="12" y1="9" x2="11.5" y2="9.5" fill="none" stroke="#323232" stroke-linecap="round" stroke-linejoin="round" stroke-width="1.5"/><line x1="15" y1="12" x2="14.5" y2="12.5" fill="none" stroke="#323232" stroke-linecap="round" stroke-linejoin="round" stroke-width="1.5"/><line x1="15.5" y1="8.5" x2="15" y2="9" fill="none" stroke="#323232" stroke-linecap="round" stroke-linejoin="round" stroke-width="1.5"/><path d="M9.87061,14.12939a10.3105,10.3105,0,0,0,8.03862,2.995" fill="none" stroke="#323232" stroke-linecap="round" stroke-linejoin="round" stroke-width="1.5"/><path d="M9.87061,14.12939a10.3105,10.3105,0,0,1-2.995-8.03862" fill="none" stroke="#323232" stroke-linecap="round" stroke-linejoin="round" stroke-width="1.5"/><rect width="24" height="24" fill="none"/></svg>