<?xml version="1.0" encoding="UTF-8"?><svg version="1.1" viewBox="0 0 24 24" xmlns="http://www.w3.org/2000/svg" xmlns:xlink="http://www.w3.org/1999/xlink"><path d="M3.6 16.061l4.34 4.34 -1.07483e-07-1.07553e-07c.798364.79888 2.09319.799298 2.89207.000933631 .000311239-.000311038.000622378-.000622177.000933416-.000933416l1.916-1.916 3.67427e-08-3.67291e-08c.164477-.164416.268153-.379878.294-.611l.051-.457 4.79979e-09-4.22146e-08c.0537795-.472995.427005-.846221.9-.9v0l4.3618e-09-4.99373e-10c.472825-.0541326.845867-.427175.9-.9v0l9.28437e-09-8.10949e-08c.0541326-.472825.427176-.845867.9-.9l.457-.051 4.95957e-08-5.52925e-09c.230662-.0257157.445747-.129027.61-.293l.47-.47 4.18937e-08-4.18667e-08c.79888-.798364.799298-2.09319.000933332-2.89207 -.000311038-.000311239-.000622177-.000622377-.000933416-.000933416l-4.331-4.352 -1.88919e-08-1.89041e-08c-.798364-.79888-2.09319-.799298-2.89207-.000933378 -.000311239.000311038-.000622377.000622177-.000933416.000933416l-.47.47 8.10411e-09-8.11795e-09c-.163973.164253-.267284.379338-.293.61l-.044.462 -1.25213e-08 1.09368e-07c-.0541326.472825-.427176.845867-.9.9v0l2.79448e-08-3.19933e-09c-.472825.0541326-.845867.427175-.9.9v0l-1.48934e-08 1.30989e-07c-.0537795.472995-.427005.846221-.9.9l-.457.051 2.66904e-08-2.98488e-09c-.231122.0258471-.446584.129523-.611.294l-1.932 1.923 9.03036e-08-9.02453e-08c-.79888.798364-.799298 2.09319-.000933596 2.89207 .000311038.000311239.000622177.000622378.000933416.000933416Z" stroke-linecap="round" stroke-width="1.5" stroke="#323232" fill="none" stroke-linejoin="round"></path><g transform="matrix(1 0 0 1 2.18 14.962)"><path fill="none" stroke="#323232" stroke-linecap="round" stroke-linejoin="round" stroke-width="1.5" d="M17.616 3.169h2.046l-4.47168e-08 1.33227e-15c.564987-2.46964e-08 1.023.458013 1.023 1.023v1.316 0c0 .564987-.458013 1.023-1.023 1.023h-2.046v-3.362Z" transform="matrix(.707107 -.707107 .707107 .707107 0 0)"></path></g><g transform="matrix(1 0 0 1 10.087 -9.589)"><path fill="none" stroke="#323232" stroke-linecap="round" stroke-linejoin="round" stroke-width="1.5" d="M15.6 5.336h2.046l2.2808e-08 3.71294e-11c1.69106.00275284 3.06125 1.37294 3.064 3.064v.023 0c0 .552285-.447715 1-1 1h-6.183l-4.37114e-08-1.77636e-15c-.552285-2.41411e-08-1-.447715-1-1 0 0 0 0 0 0v-.023l-4.41306e-08 2.71754e-05c.00274434-1.69457 1.3784-3.06622 3.07297-3.06403Z" transform="matrix(.707107 .707107 -.707107 .707107 0 0)"></path></g><rect width="24" height="24" fill="none"></rect></svg>