<svg width="14" height="14" viewBox="0 0 14 14" fill="none" xmlns="http://www.w3.org/2000/svg">
<g clip-path="url(#clip0_442_8191)">
<path d="M13.7412 12.2498L12.3704 4.60187C12.2433 3.89275 11.6263 3.3766 10.906 3.3766H9.21836C9.34601 3.08242 9.41712 2.75824 9.41712 2.4177C9.41712 1.08457 8.33255 0 6.99942 0C5.6663 0 4.58173 1.08457 4.58173 2.4177C4.58173 2.75824 4.65289 3.08242 4.78049 3.3766H3.09288C2.37246 3.3766 1.75559 3.89275 1.62849 4.60187L0.257721 12.2498C0.180011 12.6833 0.298436 13.1291 0.581109 13.4669C0.863782 13.8048 1.28164 14 1.72212 14H12.2767C12.7173 14 13.1351 13.8048 13.4177 13.4669C13.7005 13.1291 13.8189 12.6833 13.7412 12.2498ZM6.99942 1.48775C7.5122 1.48775 7.92937 1.90492 7.92937 2.4177C7.92937 2.93048 7.5122 3.34764 6.99942 3.34764C6.48664 3.34764 6.06948 2.93048 6.06948 2.4177C6.06948 1.90492 6.48669 1.48775 6.99942 1.48775ZM1.72212 12.5122L3.09293 4.86436H10.906L12.2768 12.5122H1.72212Z" fill="#07082F"/>
</g>
<defs>
<clipPath id="clip0_442_8191">
<rect width="14" height="14" fill="white"/>
</clipPath>
</defs>
</svg>
