<svg width="20" height="20" viewBox="0 0 20 20" fill="none" xmlns="http://www.w3.org/2000/svg">
<g clip-path="url(#clip0_94_1391)">
<path d="M19.6314 17.4997L17.6731 6.57409C17.4915 5.56108 16.6102 4.82372 15.5811 4.82372H13.1702C13.3526 4.40346 13.4541 3.94035 13.4541 3.45385C13.4541 1.54939 11.9048 0 10.0003 0C8.09583 0 6.54644 1.54939 6.54644 3.45385C6.54644 3.94035 6.6481 4.40346 6.83039 4.82372H4.41952C3.39035 4.82372 2.5091 5.56108 2.32753 6.57409L0.369289 17.4997C0.258274 18.1191 0.427453 18.7559 0.831272 19.2385C1.23509 19.7211 1.83203 20 2.46128 20H17.5393C18.1686 20 18.7655 19.7211 19.1693 19.2385C19.5732 18.7559 19.7424 18.1191 19.6314 17.4997ZM10.0003 2.12536C10.7328 2.12536 11.3288 2.72131 11.3288 3.45385C11.3288 4.18639 10.7328 4.78234 10.0003 4.78234C9.26775 4.78234 8.6718 4.18639 8.6718 3.45385C8.6718 2.72131 9.26782 2.12536 10.0003 2.12536ZM2.46128 17.8746L4.41959 6.94908H15.5811L17.5394 17.8746H2.46128Z" fill="#07082F"/>
</g>
<defs>
<clipPath id="clip0_94_1391">
<rect width="20" height="20" fill="white"/>
</clipPath>
</defs>
</svg>
