<?xml version="1.0" encoding="UTF-8"?><svg version="1.1" viewBox="0 0 24 24" xmlns="http://www.w3.org/2000/svg" xmlns:xlink="http://www.w3.org/1999/xlink"><g fill="none"><path d="M0 0h24v24h-24Z"></path><path stroke="#323232" stroke-linecap="round" stroke-linejoin="round" stroke-width="1.5" d="M3 8v8l5.68434e-14 7.54979e-07c4.16963e-07 2.76142 2.23858 5 5 5h8l-2.18557e-07-7.10543e-15c2.76142 1.20706e-07 5-2.23858 5-5v-8 0c0-2.76142-2.23858-5-5-5h-8l-2.18557e-07 5.32907e-15c-2.76142 1.20706e-07-5 2.23858-5 5 0 0 0 1.77636e-15 0 1.77636e-15Z"></path><path stroke="#323232" stroke-linecap="round" stroke-linejoin="round" stroke-width="1.5" d="M14.36 12h-4.72l-1.44063e-11 7.10543e-15c-.953749.000377769-1.77507-.67275-1.962-1.608l-.2-1 5.4497e-09 2.72653e-08c-.216496-1.08315.486062-2.13671 1.56921-2.35321 .129331-.0258504.260903-.0388443.392792-.0387921h5.12l-1.1211e-07 4.44125e-11c1.10457-.000437604 2.00035.894638 2.00079 1.99921 5.22515e-05.13189-.0129417.263461-.0387921.392792l-.2 1 2.16203e-08-1.08168e-07c-.186935.93525-1.00825 1.60838-1.962 1.608Z"></path><path stroke="#323232" stroke-linecap="round" stroke-linejoin="round" stroke-width="1.5" d="M11 12l1-2"></path></g></svg>