<?xml version="1.0" encoding="UTF-8"?><svg version="1.1" viewBox="0 0 24 24" xmlns="http://www.w3.org/2000/svg" xmlns:xlink="http://www.w3.org/1999/xlink"><g fill="none"><path d="M0 0h24v24h-24v-24Z"></path><path stroke="#323232" stroke-linecap="round" stroke-linejoin="round" stroke-width="1.5" d="M11.999 19.25c-.207 0-.375.168-.373.375 -.001.207.167.375.374.375 .207 0 .375-.168.375-.375 0-.207-.168-.375-.376-.375"></path><line x1="6" x2="19" y1="20" y2="3" stroke="#323232" stroke-linecap="round" stroke-linejoin="round" stroke-width="1.5"></line><path stroke="#323232" stroke-linecap="round" stroke-linejoin="round" stroke-width="1.5" d="M14.116 9.387c-3.335-.628-6.937.24-9.525 2.613"></path><path stroke="#323232" stroke-linecap="round" stroke-linejoin="round" stroke-width="1.5" d="M17.514 4.944c-5.31-1.891-11.616-.938-15.92 2.86"></path><path stroke="#323232" stroke-linecap="round" stroke-linejoin="round" stroke-width="1.5" d="M17.267 10.497c.765.405 1.487.902 2.141 1.503"></path><path stroke="#323232" stroke-linecap="round" stroke-linejoin="round" stroke-width="1.5" d="M20.421 6.372c.693.425 1.366.887 1.985 1.432"></path><path stroke="#323232" stroke-linecap="round" stroke-linejoin="round" stroke-width="1.5" d="M14.262 14.427c.786.301 1.524.764 2.158 1.394"></path></g></svg>