<?xml version="1.0" encoding="UTF-8"?><svg version="1.1" viewBox="0 0 24 24" xmlns="http://www.w3.org/2000/svg" xmlns:xlink="http://www.w3.org/1999/xlink"><g stroke-linecap="round" stroke-width="1.5" stroke="#323232" fill="none" stroke-linejoin="round"><path d="M12 15.2l1.69534e-08 3.46061e-10c.162338.00331372.291252.137601.287939.299939 -.00331372.162338-.137601.291252-.299939.287939 -.159976-.00326551-.287967-.133868-.288-.293878l4.0151e-09-2.00711e-07c.00326752-.163338.13663-.294033.3-.294"></path><path d="M16.875 9.875l5.27899e-07 4.07995e-07c-2.87121-2.21906-6.87879-2.21906-9.75-9.67385e-07"></path><path d="M9.157 12.714l-3.55247e-07 2.74174e-07c1.67522-1.29291 4.01178-1.29291 5.687-5.48348e-07"></path><path d="M19.487 17.012l-2.475 2.475"></path><path d="M17.013 17.012l2.475 2.475"></path><path d="M13 21h-5l-2.18557e-07-7.10543e-15c-2.76142-1.20706e-07-5-2.23858-5-5 0 0 0-1.77636e-15 0-1.77636e-15v-8l5.68434e-14 7.54979e-07c-4.16963e-07-2.76142 2.23858-5 5-5h8l-2.18557e-07 5.32907e-15c2.76142-1.20706e-07 5 2.23858 5 5v5"></path></g><path fill="none" d="M0 0h24v24h-24Z"></path></svg>