<svg viewBox="0 0 24 24" xmlns="http://www.w3.org/2000/svg"><g fill="none"><path d="M0 24h24V0H0Z"/><path d="M24 24H0V0h24Z"/><path d="M0 0h24v24H0Z"/><g stroke-linecap="round" stroke-width="1.5" stroke="#323232" fill="none" stroke-linejoin="round"><path d="M19.48 17l-2.5 2.5 -1.5-1.5"/><path d="M12.48 20.938l0-.01c-.34.04-.67.06-1 .06l-.01-.001c-4.98-.01-9-4.03-9-9.01 0-4.98 4.02-9 9-9 4.97 0 9 4.02 8.99 9v0l0-.01c-.01.33-.03.66-.07 1"/><path d="M6.48 10.34l0-.01c1.37-1.22 3.16-1.88 5-1.86l-.01 0c1.83-.03 3.62.63 5 1.85"/><path d="M8.15 12.38l-.01 0c.95-.75 2.12-1.14 3.33-1.12l0-.01c1.2-.03 2.38.36 3.33 1.11"/><path d="M9.81 14.49l0-.01c.98-.75 2.34-.75 3.33 0"/></g></g></svg>