<?xml version="1.0" encoding="UTF-8"?><svg version="1.1" viewBox="0 0 24 24" xmlns="http://www.w3.org/2000/svg" xmlns:xlink="http://www.w3.org/1999/xlink"><defs><path d="M24 0v24h-24v-24h24Z" id="a"></path></defs><g fill="none"><use transform="matrix(4.50198e-11 1 -1 4.50198e-11 24 -1.08048e-09)" xlink:href="#a"></use><use transform="matrix(4.50198e-11 1 -1 4.50198e-11 24 -1.08048e-09)" xlink:href="#a"></use><path stroke="#323232" stroke-linecap="round" stroke-linejoin="round" stroke-width="1.5" d="M14 17h-7"></path><path stroke="#323232" stroke-linecap="round" stroke-linejoin="round" stroke-width="1.5" d="M7 13h10c2.209 0 4 1.791 4 4v0c0 2.209-1.791 4-4 4h-10c-2.209 0-4-1.791-4-4v0c0-2.209 1.791-4 4-4Z"></path><path stroke="#323232" stroke-linecap="round" stroke-linejoin="round" stroke-width="1.5" d="M17 13v-4"></path><path stroke="#323232" stroke-linecap="round" stroke-linejoin="round" stroke-width="1.5" d="M16.965 17.035c-.02-.02-.02-.051 0-.071 .02-.02.051-.02.071 0 .02.02.02.051 0 .071 -.02.02-.052.02-.071 0"></path><path stroke="#323232" stroke-linecap="round" stroke-linejoin="round" stroke-width="1.5" d="M17 3c-.759.009-1.47.137-2.121.367 -1.665.588-2.924 1.847-3.513 3.513 -.229.65-.357 1.361-.366 2.12"></path><path stroke="#323232" stroke-linecap="round" stroke-linejoin="round" stroke-width="1.5" d="M14 9c.039-1.756 1.244-2.961 3-3"></path></g></svg>