<?xml version="1.0" encoding="UTF-8"?><svg version="1.1" viewBox="0 0 24 24" xmlns="http://www.w3.org/2000/svg" xmlns:xlink="http://www.w3.org/1999/xlink"><g stroke-linecap="round" stroke-width="1.5" stroke="#323232" fill="none" stroke-linejoin="round"><path d="M1.594 7.804c5.747-5.072 15.065-5.072 20.812 0"></path><path d="M14.4 11.9c0-1.325-1.075-2.4-2.4-2.4 -1.325 0-2.4 1.075-2.4 2.4"></path><path d="M14.4 11.9c0 .96-.594 1.48-1.187 1.88"></path><path d="M12 15.7c0-.98.606-1.511 1.213-1.92"></path><line x1="12" x2="12" y1="15.7" y2="16"></line><path d="M19.409 12c-.729-.668-1.546-1.197-2.409-1.621"></path><path d="M7 10.379c-.863.424-1.68.953-2.409 1.621"></path><path d="M16 15.463c.142.116.288.225.42.358"></path><path d="M8 15.463c-.142.116-.288.225-.421.358"></path><path d="M11.999 19.25c-.138 0-.25.112-.249.25 0 .138.112.25.25.25 .138 0 .25-.112.25-.25 0-.138-.112-.25-.251-.25"></path></g><rect width="24" height="24" fill="none"></rect></svg>