<svg viewBox="0 0 24 24" xmlns="http://www.w3.org/2000/svg"><g fill="none"><path d="M24 24H0V0h24Z"/><g stroke-linecap="round" stroke-width="1.5" stroke="#323232" fill="none" stroke-linejoin="round"><path d="M7 10.34l-.01 0c1.37-1.22 3.16-1.88 4.99-1.86l0-.01c1.83-.03 3.62.63 4.99 1.85"/><path d="M8.667 12.38l0-.01c.95-.75 2.12-1.14 3.33-1.12l-.01 0c1.2-.03 2.38.36 3.33 1.11"/><path d="M10.333 14.49l0-.01c.98-.75 2.34-.75 3.33 0"/><path d="M16 21.5l-2-2 2-2"/><path d="M20 19.5h-6"/><path d="M20.058 15.5l-.01 0c2.21-4.46.39-9.86-4.06-12.07 -4.46-2.22-9.86-.4-12.07 4.05 -2.22 4.45-.4 9.85 4.05 12.06 .63.31 1.31.55 2 .71"/></g></g></svg>