<?xml version="1.0" encoding="UTF-8"?><svg version="1.1" viewBox="0 0 24 24" xmlns="http://www.w3.org/2000/svg" xmlns:xlink="http://www.w3.org/1999/xlink"><g fill="none"><path d="M0 0h24v24h-24Z"></path><path stroke="#323232" stroke-linecap="round" stroke-linejoin="round" stroke-width="1.5" d="M4.424 19.594v-2.387h2.389"></path><path stroke="#323232" stroke-linecap="round" stroke-linejoin="round" stroke-width="1.5" d="M12 15.412c.168 0 .305.132.305.294 0 .162-.137.294-.305.294 -.168 0-.305-.132-.305-.294 0-.162.137-.294.305-.294"></path><path stroke="#323232" stroke-linecap="round" stroke-linejoin="round" stroke-width="1.5" d="M16.875 10.081c-2.843-2.219-6.907-2.219-9.75 0"></path><path stroke="#323232" stroke-linecap="round" stroke-linejoin="round" stroke-width="1.5" d="M9.157 12.92c1.658-1.293 4.028-1.293 5.687 0"></path><path stroke="#323232" stroke-linecap="round" stroke-linejoin="round" stroke-width="1.5" d="M4.668 17.207c1.631 2.293 4.304 3.793 7.332 3.793 4.971 0 9-4.029 9-9 0-4.971-4.029-9-9-9 -4.971 0-9 4.029-9 9 0 .539.056 1.064.147 1.576"></path></g></svg>