<?xml version="1.0" encoding="UTF-8"?><svg version="1.1" viewBox="0 0 24 24" xmlns="http://www.w3.org/2000/svg" xmlns:xlink="http://www.w3.org/1999/xlink"><g transform="matrix(1 0 0 1 43.639 18.076)"><path fill="none" stroke="#323232" stroke-linecap="round" stroke-linejoin="round" stroke-width="1.5" d="M18.076 14.564v0h-6.57856e-08c.831189-3.63324e-08 1.505.673811 1.505 1.505v5.519h-3.01v-5.519l1.77636e-14-2.27249e-07c1.25506e-07-.831189.673812-1.505 1.505-1.505Z" transform="matrix(-.707107 .707107 -.707107 -.707107 0 0)"></path></g><g stroke-linecap="round" stroke-width="1.5" stroke="#323232" fill="none" stroke-linejoin="round"><path d="M14 21h-6l-2.18557e-07-7.10543e-15c-2.76142-1.20706e-07-5-2.23858-5-5 0 0 0-1.77636e-15 0-1.77636e-15v-8l5.68434e-14 7.54979e-07c-4.16963e-07-2.76142 2.23858-5 5-5h8l-2.18557e-07 5.32907e-15c2.76142-1.20706e-07 5 2.23858 5 5v6"></path><line x1="15.16" x2="16.66" y1="10.35" y2="14.53"></line><line x1="10.35" x2="14.53" y1="15.16" y2="16.66"></line></g><g transform="matrix(1 0 0 1 -4.791 11.566)"><rect width="13.584" height="3.363" x="4.774" y="9.884" fill="none" rx=".567744" ry="0" stroke="#323232" stroke-linecap="round" stroke-linejoin="round" stroke-width="1.5" transform="matrix(.707107 -.707107 .707107 .707107 0 0)"></rect></g><rect width="24" height="24" fill="none"></rect></svg>