<?xml version="1.0" encoding="UTF-8"?><svg version="1.1" viewBox="0 0 24 24" xmlns="http://www.w3.org/2000/svg" xmlns:xlink="http://www.w3.org/1999/xlink"><g stroke-linecap="round" stroke-width="1.5" stroke="#323232" fill="none" stroke-linejoin="round"><path d="M15.085 16.236l-7-1.166 -5.98386e-08-1.00106e-08c-.482175-.0806644-.835345-.498124-.835-.987v-4.166l-4.30929e-08.000293423c7.37611e-08-.488498.352932-.905501.834711-.986245l7-1.166 -3.20454e-08 5.361e-09c.544715-.0911275 1.06017.276578 1.15129.821293 .00905075.0541009.0136348.108855.0137057.163707v6.5l1.65828e-08-4.50852e-05c-.000190686.552285-.44806.999845-1.00035.999655 -.055056-1.9009e-05-.110016-.00458472-.164321-.0136506Z"></path><path d="M7.25 11.93h9"></path><circle cx="12" cy="12" r="9"></circle><line x1="11.75" x2="11.75" y1="8.32" y2="15.68"></line></g><path fill="none" d="M0 24v-24h24v24Z"></path></svg>