<svg id="Layer_3" data-name="Layer 3" xmlns="http://www.w3.org/2000/svg" viewBox="0 0 24 24"><g id="Layer_22" data-name="Layer 22"><path d="M0,0H24V24H0Z" fill="none"/><path d="M19,21H5a2,2,0,0,1-2-2V11A2,2,0,0,1,5,9H19a2,2,0,0,1,2,2v8A2,2,0,0,1,19,21Z" fill="none" stroke="#323232" stroke-linecap="round" stroke-linejoin="round" stroke-width="1.5"/><path d="M4,9.26837V8A1.99944,1.99944,0,0,1,5.9989,6H18a1.99944,1.99944,0,0,1,2,1.9989V9.26806" fill="none" stroke="#323232" stroke-linecap="round" stroke-linejoin="round" stroke-width="1.5"/><path d="M5,6.26805V5A1.99944,1.99944,0,0,1,6.9989,3H17a1.99944,1.99944,0,0,1,2,1.9989V6.26805" fill="none" stroke="#323232" stroke-linecap="round" stroke-linejoin="round" stroke-width="1.5"/><path d="M10.65,14.8l1.2,1.2,2-2" fill="none" stroke="#323232" stroke-linecap="round" stroke-linejoin="round" stroke-width="1.5"/></g></svg>