<svg id="Layer_3" data-name="Layer 3" xmlns="http://www.w3.org/2000/svg" viewBox="0 0 24 24"><path d="M0,0H24V24H0Z" fill="none"/><rect x="4" y="7" width="16" height="14" rx="3" stroke-width="1.5" stroke="#323232" stroke-linecap="round" stroke-linejoin="round" fill="none"/><path d="M4,10V8.09067a3,3,0,0,1,1.94-2.807l8.353-3.154A2,2,0,0,1,17,3.99967V7" fill="none" stroke="#323232" stroke-linecap="round" stroke-linejoin="round" stroke-width="1.5"/><path d="M12,15h0a2.715,2.715,0,0,0,2.70149-2.98511l-.11144-1.11439A1,1,0,0,0,13.595,10h-3.19a1,1,0,0,0-.995.9005l-.11144,1.11439A2.715,2.715,0,0,0,12,15Z" fill="none" stroke="#323232" stroke-linecap="round" stroke-linejoin="round" stroke-width="1.5"/><line x1="12" y1="15" x2="12" y2="18" fill="none" stroke="#323232" stroke-linecap="round" stroke-linejoin="round" stroke-width="1.5"/><line x1="10.17922" y1="18" x2="13.82078" y2="18" fill="none" stroke="#323232" stroke-linecap="round" stroke-linejoin="round" stroke-width="1.5"/></svg>