<?xml version="1.0" encoding="UTF-8"?><svg version="1.1" viewBox="0 0 24 24" xmlns="http://www.w3.org/2000/svg" xmlns:xlink="http://www.w3.org/1999/xlink"><!--Generated by IJSVG (https://github.com/iconjar/IJSVG)--><g fill="none"><path d="M0,0h24v24h-24Z"></path><path stroke="#323232" stroke-linecap="round" stroke-linejoin="round" stroke-width="1.5" d="M19.071,4.929c3.905,3.905 3.905,10.237 0,14.142c-3.905,3.905 -10.237,3.905 -14.142,0c-3.905,-3.905 -3.905,-10.237 0,-14.142c3.905,-3.905 10.237,-3.905 14.142,1.77636e-15"></path><path stroke="#323232" stroke-linecap="round" stroke-linejoin="round" stroke-width="1.5" d="M5.5,12h13"></path><path stroke="#323232" stroke-linecap="round" stroke-linejoin="round" stroke-width="1.5" d="M16.5962,7.40381c2.53841,2.53841 2.53841,6.65398 0,9.19239c-2.53841,2.53841 -6.65398,2.53841 -9.19239,0c-2.53841,-2.53841 -2.53841,-6.65398 -8.88178e-16,-9.19239c2.53841,-2.53841 6.65398,-2.53841 9.19239,-8.88178e-16"></path><path stroke="#323232" stroke-linecap="round" stroke-linejoin="round" stroke-width="1.5" d="M14.0329,7.40381c1.12276,2.53841 1.12276,6.65398 0,9.19239c-1.12276,2.53841 -2.94311,2.53841 -4.06586,0c-1.12276,-2.53841 -1.12276,-6.65398 0,-9.19239c1.12276,-2.53841 2.94311,-2.53841 4.06586,-8.88178e-16"></path></g></svg>