<?xml version="1.0" encoding="UTF-8"?><svg version="1.1" viewBox="0 0 24 24" xmlns="http://www.w3.org/2000/svg" xmlns:xlink="http://www.w3.org/1999/xlink"><!--Generated by IJSVG (https://github.com/iconjar/IJSVG)--><path d="M0,0h24v24h-24Z" fill="none" fill-rule="evenodd"></path><path fill="none" stroke="#323232" stroke-linecap="round" stroke-linejoin="round" stroke-width="1.5" d="M3,12v0c0,2.428 1.968,4.396 4.396,4.396v0c2.101,0 3.917,-1.47 4.354,-3.525l0.625,-2.937c0.365,-1.711 1.876,-2.934 3.625,-2.934v0c2.761,0 5,2.239 5,5v0"></path><g stroke-linecap="round" stroke-width="1.5" stroke="#323232" fill="none" stroke-linejoin="round"><path d="M7.498,11.75c-0.138,0 -0.25,0.112 -0.249,0.25c0,0.138 0.112,0.25 0.25,0.25c0.138,0 0.25,-0.112 0.25,-0.25c-8.88178e-16,-0.138 -0.112,-0.25 -0.251,-0.25"></path><path d="M16.498,11.75c-0.138,0 -0.25,0.112 -0.249,0.25c0,0.138 0.112,0.25 0.25,0.25c0.138,0 0.25,-0.112 0.25,-0.25c-3.55271e-15,-0.138 -0.112,-0.25 -0.251,-0.25"></path></g><path fill="none" stroke="#323232" stroke-width="1.5" d="M18.364,5.63604c3.51472,3.51472 3.51472,9.2132 0,12.7279c-3.51472,3.51472 -9.2132,3.51472 -12.7279,0c-3.51472,-3.51472 -3.51472,-9.2132 -1.77636e-15,-12.7279c3.51472,-3.51472 9.2132,-3.51472 12.7279,-1.77636e-15"></path></svg>