<?xml version="1.0" encoding="UTF-8"?><svg version="1.1" viewBox="0 0 24 24" xmlns="http://www.w3.org/2000/svg" xmlns:xlink="http://www.w3.org/1999/xlink"><g fill="none"><path d="M0 0h24v24h-24Z"></path><circle cx="12" cy="16.5" r="1.5" stroke="#323232" stroke-linecap="round" stroke-linejoin="round" stroke-width="1.5"></circle><rect width="18" height="18" x="3" y="3" rx="2.20912" ry="0" stroke="#323232" stroke-linecap="round" stroke-linejoin="round" stroke-width="1.5"></rect><path stroke="#323232" stroke-linecap="round" stroke-linejoin="round" stroke-width="1.5" d="M12.12 9.005v0c0 .0690356-.0559644.125-.125.125 -.0690356 0-.125-.0559644-.125-.125 0-.0690356.0559644-.125.125-.125"></path><path stroke="#323232" stroke-linecap="round" stroke-linejoin="round" stroke-width="1.5" d="M11.995 8.88h-5.46392e-09c.0690356-3.01764e-09.125.0559644.125.125"></path><path stroke="#323232" stroke-linecap="round" stroke-linejoin="round" stroke-width="1.5" d="M12.13 5.995v0c0 .0690356-.0559644.125-.125.125 -.0690356 0-.125-.0559644-.125-.125 0-.0690356.0559644-.125.125-.125"></path><path stroke="#323232" stroke-linecap="round" stroke-linejoin="round" stroke-width="1.5" d="M12.005 5.87h-5.46392e-09c.0690356-3.01764e-09.125.0559644.125.125"></path><path stroke="#323232" stroke-linecap="round" stroke-linejoin="round" stroke-width="1.5" d="M12.125 12v0c0 .0690356-.0559644.125-.125.125 -.0690356 0-.125-.0559644-.125-.125 0-.0690356.0559644-.125.125-.125 0 0 1.77636e-15 0 1.77636e-15 0"></path><path stroke="#323232" stroke-linecap="round" stroke-linejoin="round" stroke-width="1.5" d="M12 11.875h-5.46392e-09c.0690356-3.01764e-09.125.0559644.125.125"></path></g></svg>