<svg xmlns="http://www.w3.org/2000/svg" viewBox="0 0 24 24"><g id="Layer_2" data-name="Layer 2"><rect width="24" height="24" fill="none"/><line x1="14.9875" y1="6.1874" x2="14.9875" y2="9.421" fill="none" stroke="#323232" stroke-linecap="round" stroke-linejoin="round" stroke-width="1.5"/><line x1="8.9875" y1="6.17769" x2="8.9875" y2="9.421" fill="none" stroke="#323232" stroke-linecap="round" stroke-linejoin="round" stroke-width="1.5"/><path d="M7,5.5V4.36932A2,2,0,0,1,8.51493,2.429h0a14.36933,14.36933,0,0,1,6.97013,0h0A2,2,0,0,1,17,4.36932V5.5" fill="none" stroke="#323232" stroke-linecap="round" stroke-linejoin="round" stroke-width="1.5"/><path d="M17,5.5l1.73181.81242a4,4,0,0,1,2.07641,2.29937l.967,2.76161A4.00012,4.00012,0,0,1,22,12.69536V18a1,1,0,0,1-1,1H17.98763" fill="none" stroke="#323232" stroke-linecap="round" stroke-linejoin="round" stroke-width="1.5"/><path d="M7,5.5l-1.73181.81242A4,4,0,0,0,3.19178,8.61179l-.967,2.76161A4.00012,4.00012,0,0,0,2,12.69536V18a1,1,0,0,0,1,1H6" fill="none" stroke="#323232" stroke-linecap="round" stroke-linejoin="round" stroke-width="1.5"/><path d="M7,5.5l3.69266,1.27954A4,4,0,0,0,13.3134,6.779L17,5.5" fill="none" stroke="#323232" stroke-linecap="round" stroke-linejoin="round" stroke-width="1.5"/><line x1="12" y1="7.00001" x2="12" y2="21.9998" fill="none" stroke="#323232" stroke-linecap="round" stroke-linejoin="round" stroke-width="1.5"/><path d="M17.99986,13,18,19.543a1.9745,1.9745,0,0,1-1.45373,1.92643,19.743,19.743,0,0,1-9.09253,0A1.9745,1.9745,0,0,1,6,19.543L6.00014,13" fill="none" stroke="#323232" stroke-linecap="round" stroke-linejoin="round" stroke-width="1.5"/></g></svg>