<?xml version="1.0" encoding="UTF-8"?><svg version="1.1" viewBox="0 0 24 24" xmlns="http://www.w3.org/2000/svg" xmlns:xlink="http://www.w3.org/1999/xlink"><!--Generated by IJSVG (https://github.com/iconjar/IJSVG)--><g stroke-linecap="round" stroke-width="1.5" stroke="#323232" fill="none" stroke-linejoin="round"><path d="M6.324,9.068c-2.439,0.333 -4.324,2.402 -4.324,4.932c0,2.761 2.239,5 5,5h11c2.209,0 4,-1.791 4,-4c0,-2.209 -1.791,-4 -4,-4c0,-3.314 -2.686,-6 -6,-6c-2.637,0 -4.871,1.703 -5.676,4.068Z"></path><path d="M10.729,10.771c0,-0.702 0.569,-1.271 1.271,-1.271c0.702,0 1.271,0.604 1.271,1.271"></path><path d="M10.73,10.77v1.23"></path><path d="M13.27,10.77v1.23"></path><path d="M13.5,12h-3c-0.552,0 -1,0.448 -1,1v1.5c0,0.552 0.448,1 1,1h3c0.552,0 1,-0.448 1,-1v-1.5c0,-0.552 -0.448,-1 -1,-1Z"></path></g><path fill="none" d="M0,0h24v24h-24Z"></path></svg>