<?xml version="1.0" encoding="UTF-8"?><svg version="1.1" viewBox="0 0 24 24" xmlns="http://www.w3.org/2000/svg" xmlns:xlink="http://www.w3.org/1999/xlink"><!--Generated by IJSVG (https://github.com/iconjar/IJSVG)--><g stroke-linecap="round" stroke-width="1.5" stroke="#323232" fill="none" stroke-linejoin="round"><path d="M6.324,9.068c-2.439,0.333 -4.324,2.402 -4.324,4.932c0,2.761 2.239,5 5,5h11c2.209,0 4,-1.791 4,-4c0,-2.209 -1.791,-4 -4,-4c0,-3.314 -2.686,-6 -6,-6c-2.637,0 -4.871,1.703 -5.676,4.068Z"></path><path d="M12,10.6v0.8"></path><path d="M12,14.6v0.8"></path><path d="M9.92,11.8l0.69,0.4"></path><path d="M13.39,13.8l0.69,0.4"></path><path d="M9.92,14.2l0.69,-0.4"></path><path d="M13.39,12.2l0.69,-0.4"></path><path d="M13.1314,11.8686c0.624839,0.624839 0.624839,1.6379 0,2.26274c-0.624839,0.624839 -1.6379,0.624839 -2.26274,0c-0.624839,-0.624839 -0.624839,-1.6379 0,-2.26274c0.624839,-0.624839 1.6379,-0.624839 2.26274,0"></path></g><path fill="none" d="M0,0h24v24h-24Z"></path></svg>