<?xml version="1.0" encoding="UTF-8"?><svg version="1.1" viewBox="0 0 24 24" xmlns="http://www.w3.org/2000/svg" xmlns:xlink="http://www.w3.org/1999/xlink"><!--Generated by IJSVG (https://github.com/iconjar/IJSVG)--><g stroke-linecap="round" stroke-width="1.5" stroke="#323232" fill="none" stroke-linejoin="round"><path d="M6.324,9.068c-2.439,0.333 -4.324,2.402 -4.324,4.932c0,2.761 2.239,5 5,5h11c2.209,0 4,-1.791 4,-4c0,-2.209 -1.791,-4 -4,-4c0,-3.314 -2.686,-6 -6,-6c-2.637,0 -4.871,1.703 -5.676,4.068Z"></path><path d="M15.33,13h-4"></path><path d="M15.33,14.24v-1.24"></path><path d="M13.33,14.24v-1.24"></path><path d="M10.9426,12.0574c0.520569,0.520569 0.520569,1.36458 0,1.88515c-0.520569,0.520569 -1.36458,0.520569 -1.88515,0c-0.520569,-0.520569 -0.520569,-1.36458 0,-1.88515c0.520569,-0.520569 1.36458,-0.520569 1.88515,0"></path></g><path fill="none" d="M0,0h24v24h-24Z"></path></svg>