<?xml version="1.0" encoding="UTF-8"?><svg version="1.1" viewBox="0 0 24 24" xmlns="http://www.w3.org/2000/svg" xmlns:xlink="http://www.w3.org/1999/xlink"><!--Generated by IJSVG (https://github.com/iconjar/IJSVG)--><g stroke-linecap="round" stroke-width="1.5" fill-rule="evenodd" stroke="#323232" fill="none" stroke-linejoin="round"><path d="M18,6l-0.443,-1.549c-0.245,-0.859 -1.03,-1.451 -1.923,-1.451h-7.268c-0.893,0 -1.678,0.592 -1.923,1.451l-0.443,1.549"></path><path d="M18.417,9l-1.208,10.234c-0.119,1.007 -0.973,1.766 -1.987,1.766h-6.444c-1.014,0 -1.867,-0.759 -1.986,-1.766l-1.209,-10.234"></path><path d="M13.4142,13.5858c0.781049,0.781049 0.781049,2.04738 0,2.82843c-0.781049,0.781049 -2.04738,0.781049 -2.82843,0c-0.781049,-0.781049 -0.781049,-2.04738 0,-2.82843c0.781049,-0.781049 2.04738,-0.781049 2.82843,0"></path></g><path fill="none" stroke="#323232" stroke-linecap="round" stroke-linejoin="round" stroke-width="1.5" d="M5.334,6h13.332c0.43,0 0.813,0.275 0.949,0.684l0.333,1c0.216,0.647 -0.266,1.316 -0.949,1.316h-13.998c-0.683,0 -1.165,-0.669 -0.949,-1.316l0.333,-1c0.137,-0.409 0.519,-0.684 0.949,-0.684Z"></path><path d="M0,0h24v24h-24Z" fill="none"></path></svg>