<?xml version="1.0" encoding="UTF-8"?><svg version="1.1" viewBox="0 0 24 24" xmlns="http://www.w3.org/2000/svg" xmlns:xlink="http://www.w3.org/1999/xlink"><!--Generated by IJSVG (https://github.com/iconjar/IJSVG)--><g fill="none"><path d="M0,0h24v24h-24Z"></path><path d="M14.85,19.871l1.629,-1.629"></path><path d="M16.479,21.5l-1.629,-1.629"></path><path stroke="#323232" stroke-linecap="round" stroke-linejoin="round" stroke-width="1.5" d="M14.85,19.871h1.629c2.248,0 4.071,-1.823 4.071,-4.071"></path><path stroke="#323232" stroke-linecap="round" stroke-linejoin="round" stroke-width="1.5" d="M16.071,21.093l-1.221,-1.221l1.221,-1.221"></path><path d="M9.15,4.129l-1.629,1.628"></path><path d="M7.521,2.5l1.629,1.629"></path><path stroke="#323232" stroke-linecap="round" stroke-linejoin="round" stroke-width="1.5" d="M9.15,4.129h-1.629c-2.248,0 -4.071,1.823 -4.071,4.071"></path><path stroke="#323232" stroke-linecap="round" stroke-linejoin="round" stroke-width="1.5" d="M7.929,2.907l1.221,1.222l-1.221,1.221"></path><path stroke="#323232" stroke-linecap="round" stroke-linejoin="round" stroke-width="1.5" d="M17.24,12.019c2.618,0 4.76,-2.142 4.76,-4.759c0,-2.617 -2.142,-4.76 -4.76,-4.76c-2.618,0 -4.759,2.142 -4.759,4.76c0,1.068 0.361,2.053 0.96,2.849c0.871,1.156 2.25,1.91 3.799,1.91Z"></path><path stroke="#323232" stroke-linecap="round" stroke-linejoin="round" stroke-width="1.5" d="M17.24,5.118v-0.714"></path><path stroke="#323232" stroke-linecap="round" stroke-linejoin="round" stroke-width="1.5" d="M17.24,9.401v0.714"></path><path stroke="#323232" stroke-linecap="round" stroke-linejoin="round" stroke-width="1.5" d="M16.001,8.891c0.185,0.303 0.501,0.512 0.882,0.512h0.357h0.425c0.554,0 1.002,-0.449 1.002,-1.002c0,-0.46 -0.313,-0.861 -0.759,-0.973l-1.338,-0.336c-0.445,-0.112 -0.759,-0.513 -0.759,-0.973c0,-0.554 0.449,-1.002 1.002,-1.002h0.425h0.357c0.381,0 0.696,0.208 0.881,0.51"></path><path stroke="#323232" stroke-linecap="round" stroke-linejoin="round" stroke-width="1.5" d="M10.109,20.099c-1.855,1.855 -4.863,1.855 -6.718,0c-1.855,-1.855 -1.855,-4.863 0,-6.718c1.855,-1.855 4.863,-1.855 6.718,0c1.855,1.856 1.855,4.863 0,6.718"></path><path stroke="#323232" stroke-linecap="round" stroke-linejoin="round" stroke-width="1.5" d="M4.144,16.74h2.85"></path><path stroke="#323232" stroke-linecap="round" stroke-linejoin="round" stroke-width="1.5" d="M7.926,18.906c-0.866,0.375 -1.903,0.221 -2.611,-0.487c-0.928,-0.928 -0.928,-2.431 0,-3.359c0.708,-0.708 1.746,-0.862 2.611,-0.487"></path></g></svg>