<?xml version="1.0" encoding="UTF-8"?><svg version="1.1" viewBox="0 0 24 24" xmlns="http://www.w3.org/2000/svg" xmlns:xlink="http://www.w3.org/1999/xlink"><!--Generated by IJSVG (https://github.com/iconjar/IJSVG)--><g fill="none"><path d="M0,0h24v24h-24Z"></path><path stroke="#323232" stroke-width="1.5" d="M13,16.5h-2c-2.209,0 -4,-1.791 -4,-4v-8c0,-0.552 0.448,-1 1,-1h8c0.552,0 1,0.448 1,1v8c0,2.209 -1.791,4 -4,4Z"></path><path stroke="#323232" stroke-width="1.5" d="M12,16.5v4"></path><path stroke="#323232" stroke-linecap="round" stroke-linejoin="round" stroke-width="1.5" d="M9,20.5h6"></path><path stroke="#323232" stroke-linecap="round" stroke-linejoin="round" stroke-width="1.5" d="M17,6.5h3c0.552,0 1,0.448 1,1v2c0,1.657 -1.343,3 -3,3h-1"></path><path stroke="#323232" stroke-linecap="round" stroke-linejoin="round" stroke-width="1.5" d="M7,6.5h-3c-0.552,0 -1,0.448 -1,1v2c0,1.657 1.343,3 3,3h1"></path></g></svg>