<svg viewBox="0 0 24 24" xmlns="http://www.w3.org/2000/svg"><g stroke-linecap="round" stroke-width="1.5" stroke="#323232" fill="none" stroke-linejoin="round"><path d="M14.82 21l-.88-3.5"/><rect width="18" height="18" x="3" y="3" rx="5"/><path d="M9.18 21l.88-3.5"/><rect width="11" height="5.5" x="6.5" y="9" rx="1.5"/><path d="M10.25 11.5l3.5 0"/><path d="M7.83 9.02l-.01 0c.43-1.78 2.03-3.03 3.85-3.03h.62l-.01 0c1.82-.01 3.42 1.24 3.86 3.02"/><path d="M15.95 14.5l-.01 0c-.27 2.18-2.26 3.73-4.44 3.47 -1.82-.23-3.25-1.66-3.48-3.48"/></g><path fill="none" d="M0 0h24v24H0Z"/></svg>