<?xml version="1.0" encoding="UTF-8"?><svg version="1.1" viewBox="0 0 24 24" xmlns="http://www.w3.org/2000/svg" xmlns:xlink="http://www.w3.org/1999/xlink"><!--Generated by IJSVG (https://github.com/iconjar/IJSVG)--><g fill="none"><path d="M0,0h24v24h-24Z"></path><path stroke="#323232" stroke-linecap="round" stroke-linejoin="round" stroke-width="1.5" d="M20.792,5.996l-3.775,2.643c-0.337,0.235 -0.737,0.361 -1.147,0.361h-7.74c-0.41,0 -0.81,-0.126 -1.146,-0.362l-3.774,-2.641"></path><path stroke="#323232" stroke-linecap="round" stroke-linejoin="round" stroke-width="1.5" d="M20.792,18.004l-3.775,-2.643c-0.337,-0.235 -0.737,-0.361 -1.147,-0.361h-7.74c-0.41,0 -0.811,0.126 -1.147,0.362l-3.775,2.642"></path><path stroke="#323232" stroke-linecap="round" stroke-linejoin="round" stroke-width="1.5" d="M7.5,8.9v12.37"></path><path stroke="#323232" stroke-linecap="round" stroke-linejoin="round" stroke-width="1.5" d="M16.5,8.9v12.37"></path><path stroke="#323232" stroke-linecap="round" stroke-linejoin="round" stroke-width="1.5" d="M3.853,18.755l3.367,2.357c0.336,0.235 0.737,0.362 1.147,0.362h7.265c0.41,0 0.811,-0.126 1.147,-0.362l3.367,-2.357c0.536,-0.374 0.854,-0.986 0.854,-1.638v-10.234c0,-0.653 -0.318,-1.264 -0.853,-1.638l-3.367,-2.357c-0.336,-0.235 -0.737,-0.362 -1.147,-0.362h-7.266c-0.41,0 -0.811,0.126 -1.147,0.362l-3.367,2.357c-0.535,0.374 -0.853,0.986 -0.853,1.638v10.233c0,0.653 0.318,1.265 0.853,1.639Z"></path></g></svg>