<?xml version="1.0" encoding="UTF-8"?><svg version="1.1" viewBox="0 0 24 24" xmlns="http://www.w3.org/2000/svg" xmlns:xlink="http://www.w3.org/1999/xlink"><g stroke-linecap="round" stroke-width="1.5" stroke="#323232" fill="none" stroke-linejoin="round"><path d="M14.053 21l-1.55668e-07 3.55855e-08c3.45713-.790296 6.1567-3.48987 6.947-6.947"></path><path d="M3 9.947l-1.25574e-07 5.49319e-07c.790296-3.45713 3.48987-6.1567 6.947-6.947"></path><path d="M9.947 21l-6.31634e-07-1.44391e-07c-3.45713-.790296-6.1567-3.48987-6.947-6.947"></path><path d="M9.947 3l-6.31634e-07 1.44391e-07c-3.45713.790296-6.1567 3.48987-6.947 6.947"></path><path d="M21 14.053l2.21689e-07-9.69774e-07c-.790295 3.45713-3.48987 6.1567-6.947 6.947"></path><path d="M14.053 3l-1.55668e-07-3.55855e-08c3.45713.790296 6.1567 3.48987 6.947 6.947"></path><path d="M12.05 12l1.07031e-09-2.67364e-08c-.00110456.0275921-.0243678.0490646-.05196.04796 -.0275921-.00110456-.0490646-.0243678-.04796-.05196 .00107282-.0267992.0230993-.0479785.0499199-.048l-1.38763e-09-2.6942e-11c.0281612.000546764.0505472.0238192.0500004.0519804 -1.26875e-07 6.53472e-06-2.55006e-07 1.30694e-05-3.84393e-07 1.96041e-05"></path></g><g transform="matrix(1 0 0 1 -4.971 12)"><ellipse cx="12" cy="12" rx="3.048" ry="6.378" fill="none" stroke="#323232" stroke-linecap="round" stroke-linejoin="round" stroke-width="1.5" transform="matrix(.707107 -.707107 .707107 .707107 0 0)"></ellipse><ellipse cx="12" cy="12" rx="6.378" ry="3.048" fill="none" stroke="#323232" stroke-linecap="round" stroke-linejoin="round" stroke-width="1.5" transform="matrix(.707107 -.707107 .707107 .707107 0 0)"></ellipse></g><rect width="24" height="24" fill="none"></rect></svg>