<?xml version="1.0" encoding="UTF-8"?><svg version="1.1" viewBox="0 0 24 24" xmlns="http://www.w3.org/2000/svg" xmlns:xlink="http://www.w3.org/1999/xlink"><g stroke-linecap="round" stroke-width="1.5" stroke="#323232" fill="none" stroke-linejoin="round"><path d="M7.8 10.46l-9.03905e-08 3.33606e-07c.152768-.563825.662855-.956514 1.247-.96h-5.76553e-08c.728464-3.18422e-08 1.319.590536 1.319 1.319l3.55271e-15 5.53364e-08c0 .652248-.528752 1.181-1.181 1.181l-5.16232e-08 1.77636e-15c.652248-2.85107e-08 1.181.528752 1.181 1.181l1.77636e-15 5.16231e-08c0 .728464-.590536 1.319-1.319 1.319l1.17135e-09 6.98996e-12c-.584144-.00348574-1.09423-.396175-1.247-.96"></path><path d="M14.275 14.5h-1.409v-5h1.409l-8.41444e-08 3.55271e-15c1.06315-4.64717e-08 1.925.861852 1.925 1.925v1.151l4.87855e-09-4.70438e-06c-.00110057 1.06253-.862466 1.92345-1.925 1.924Z"></path><rect width="18" height="18" x="3" y="3" rx="2.7614" ry="0"></rect></g><path fill="none" d="M0 0h24v24h-24Z"></path></svg>