<?xml version="1.0" encoding="UTF-8"?><svg version="1.1" viewBox="0 0 24 24" xmlns="http://www.w3.org/2000/svg" xmlns:xlink="http://www.w3.org/1999/xlink"><g stroke-linecap="round" stroke-width="1.5" stroke="#323232" fill="none" stroke-linejoin="round"><path d="M13.747 7.876l-1.247-.739 5.2919e-08 3.14417e-08c-.306338-.18201-.687662-.18201-.994-6.28833e-08l-1.25.739 9.81163e-08-5.95277e-08c-.314037.190528-.504137.532709-.5.9v1.464l-2.22255e-08 1.97318e-06c-.00413673.367291.185965.709472.500002.899999l1.744 1.025 1.747-1.033 3.60128e-08-2.18491e-08c.314037-.190528.504137-.532709.5-.9v-1.46l-1.06197e-08 1.42801e-06c.00272113-.36587-.187196-.706203-.499999-.896001Z"></path><path d="M16 11.868l-1.25-.739 5.2919e-08 3.14417e-08c-.306338-.18201-.687662-.18201-.994-6.28834e-08l-1.25.739 9.81163e-08-5.95277e-08c-.314037.190528-.504137.532709-.5.9v1.464l-2.22255e-08 1.97318e-06c-.00413673.367291.185965.709472.500002.899999l1.25.739 -2.63298e-08-1.56438e-08c.306338.18201.687662.18201.994 3.12876e-08l1.25-.747001 3.60128e-08-2.18491e-08c.314037-.190528.504137-.532709.5-.9v-1.46l-1.06197e-08 1.42801e-06c.00272113-.36587-.187196-.706203-.499999-.896001Z"></path><path d="M11.5 11.868l-1.25-.739 5.2919e-08 3.14417e-08c-.306338-.18201-.687662-.18201-.994-6.28834e-08l-1.256.739 9.81163e-08-5.95277e-08c-.314037.190528-.504137.532709-.5.9v1.464l-2.22255e-08 1.97318e-06c-.00413673.367291.185965.709472.500002.899999l1.25.739 -2.63298e-08-1.56438e-08c.306338.18201.687662.18201.994 3.12876e-08l1.25-.739 3.60128e-08-2.18491e-08c.314037-.190528.504137-.532709.5-.9v-1.468l3.54894e-09-3.24216e-07c.00399165-.364666-.183499-.704728-.494002-.896Z"></path><path d="M3 10.432v-2.255l-6.93341e-08-.000526325c-1.0972e-07-.72664.394112-1.39611 1.02946-1.74873l1.97054-1.09474"></path><path d="M21 13.568v2.255l5.60187e-08-.000473365c0 .726282-.393727 1.39548-1.02859 1.74824l-1.97141 1.09623"></path><path d="M21 10.432v-2.255l5.60187e-08.000473365c0-.726282-.393727-1.39548-1.02859-1.74824l-1.97141-1.09623"></path><path d="M3 13.568v2.255l-5.60186e-08-.000473063c1.09666e-07.726282.393728 1.39548 1.02859 1.74824l1.97141 1.09623"></path><path d="M15 20.333l-2.029 1.127 1.19072e-07-6.61702e-08c-.604156.335739-1.33884.335739-1.943 2.04362e-07l-2.028-1.127"></path><path d="M9 3.667l2.029-1.127 -2.71904e-07 1.51101e-07c.604156-.335739 1.33884-.335739 1.943-3.74224e-07l2.028 1.127"></path></g><path fill="none" d="M24 0v24h-24v-24Z"></path></svg>