<?xml version="1.0" encoding="UTF-8"?><svg version="1.1" viewBox="0 0 24 24" xmlns="http://www.w3.org/2000/svg" xmlns:xlink="http://www.w3.org/1999/xlink"><g fill="none"><path d="M0 0h24v24h-24v-24Z"></path><path stroke="#323232" stroke-linecap="round" stroke-linejoin="round" stroke-width="1.5" d="M7.801 10.46c.159-.55.645-.96 1.246-.96 .728 0 1.319.59 1.319 1.319 0 .652-.529 1.181-1.181 1.181 .652 0 1.181.529 1.181 1.181 0 .728-.59 1.319-1.319 1.319 -.601 0-1.087-.41-1.246-.96"></path><path stroke="#323232" stroke-linecap="round" stroke-linejoin="round" stroke-width="1.5" d="M14.275 14.5h-1.409v-5h1.409c1.063 0 1.925.862 1.925 1.925v1.151c-.001 1.062-.862 1.924-1.925 1.924Z"></path><path stroke="#323232" stroke-linecap="round" stroke-linejoin="round" stroke-width="1.5" d="M3 14.381v-4.762c0-1.602.852-3.083 2.236-3.889l4.5-2.619c1.399-.814 3.128-.814 4.527 0l4.5 2.619c1.385.806 2.237 2.287 2.237 3.889v4.762c0 1.602-.852 3.083-2.236 3.889l-4.5 2.619c-1.399.814-3.128.814-4.527 0l-4.5-2.619c-1.385-.806-2.237-2.287-2.237-3.889Z"></path></g></svg>