<?xml version="1.0" encoding="UTF-8"?><svg version="1.1" viewBox="0 0 24 24" xmlns="http://www.w3.org/2000/svg" xmlns:xlink="http://www.w3.org/1999/xlink"><path d="M0 0h24v24h-24Z" fill="none" fill-rule="evenodd"></path><path fill="none" stroke="#323232" stroke-linecap="round" stroke-linejoin="round" stroke-width="1.5" d="M9 3.667l2.029-1.127c.604-.336 1.339-.336 1.943 0l2.028 1.127"></path><g stroke-linecap="round" stroke-width="1.5" stroke="#323232" fill="none" stroke-linejoin="round"><path d="M3 10.432v-2.255c0-.727.394-1.396 1.029-1.749l1.971-1.095"></path><path d="M15 20.333l-2.029 1.127c-.604.336-1.339.336-1.943 0l-2.028-1.127"></path><path d="M21 13.568v2.255c0 .726-.394 1.396-1.029 1.748l-1.971 1.096"></path><path d="M9.376 10.546l2.624 1.454 2.624-1.454"></path><path d="M12 12v3"></path><path d="M12 2.29v2.71"></path><path d="M12 19v2.71"></path><path d="M3.28 7.16l2.34 1.29"></path><path d="M18.38 15.55l2.34 1.29"></path><path d="M21 10.432v-2.255c0-.726-.394-1.396-1.029-1.748l-1.971-1.096"></path><path d="M3 13.568v2.255c0 .726.394 1.396 1.029 1.748l1.971 1.096"></path><path d="M20.72 7.16l-2.34 1.29"></path><path d="M5.62 15.55l-2.34 1.29"></path></g></svg>