<?xml version="1.0" encoding="UTF-8"?><svg version="1.1" viewBox="0 0 24 24" xmlns="http://www.w3.org/2000/svg" xmlns:xlink="http://www.w3.org/1999/xlink"><!--Generated by IJSVG (https://github.com/iconjar/IJSVG)--><g stroke-linecap="round" stroke-width="1.5" stroke="#323232" fill="none" stroke-linejoin="round"><path d="M18.364,5.63604c3.51472,3.51472 3.51472,9.2132 0,12.7279c-3.51472,3.51472 -9.2132,3.51472 -12.7279,0c-3.51472,-3.51472 -3.51472,-9.2132 -1.77636e-15,-12.7279c3.51472,-3.51472 9.2132,-3.51472 12.7279,-1.77636e-15"></path><path d="M7.639,13.811c0.271,0.413 0.725,0.689 1.258,0.689c0.854,0 1.546,-0.692 1.546,-1.545c0,-0.69 -0.56,-1.25 -1.25,-1.25h-1.375l0.25,-2.205h2.161"></path><path d="M15.076,11.994h1.285v2.213c-1.142,0.603 -2.645,0.279 -3.378,-0.999c-0.415,-0.724 -0.428,-1.65 -0.026,-2.381c0.656,-1.195 1.967,-1.571 3.067,-1.176"></path></g><path fill="none" d="M0,0h24v24h-24Z"></path></svg>