<?xml version="1.0" encoding="UTF-8"?><svg version="1.1" viewBox="0 0 24 24" xmlns="http://www.w3.org/2000/svg" xmlns:xlink="http://www.w3.org/1999/xlink"><g stroke-linecap="round" stroke-width="1.5" stroke="#323232" fill="none" stroke-linejoin="round"><path d="M21 5v13.879c0 1.171-.95 2.121-2.121 2.121h-13.758c-1.171 0-2.121-.95-2.121-2.121v-13.758c0-1.171.95-2.121 2.121-2.121h13.879c1.105 0 2 .895 2 2Z"></path><line x1="7" x2="7" y1="3" y2="21"></line><path d="M14.001 14.015c-.829 0-1.5-.672-1.5-1.5 0-.828.672-1.5 1.5-1.5v0c.829 0 1.5.672 1.5 1.5v.666c0 .689.56 1.25 1.25 1.25 .69 0 1.25-.559 1.25-1.25v-.666c0-2.209-1.791-4.001-4.001-4.001 -2.21 0-4.001 1.791-4.001 4 0 2.209 1.791 4.001 4 4.001 .511 0 1.03-.097 1.532-.304"></path><path d="M15.501 12.515c0 .829-.672 1.5-1.5 1.5"></path></g><rect width="24" height="24" fill="none"></rect></svg>