<?xml version="1.0" encoding="UTF-8"?><svg version="1.1" viewBox="0 0 24 24" xmlns="http://www.w3.org/2000/svg" xmlns:xlink="http://www.w3.org/1999/xlink"><!--Generated by IJSVG (https://github.com/iconjar/IJSVG)--><g fill="none"><path d="M0,0h24v24h-24v-24Z"></path><path stroke="#323232" stroke-linecap="round" stroke-linejoin="round" stroke-width="1.5" d="M15.344,7.483c1.377,1.029 2.28,2.662 2.28,4.517c0,1.855 -0.904,3.489 -2.28,4.517"></path><path stroke="#323232" stroke-linecap="round" stroke-linejoin="round" stroke-width="1.5" d="M18.364,18.389c3.515,-3.529 3.515,-9.249 0,-12.778"></path><path stroke="#323232" stroke-linecap="round" stroke-linejoin="round" stroke-width="1.5" d="M8.656,16.517c-1.376,-1.028 -2.28,-2.661 -2.28,-4.517c0,-1.856 0.905,-3.489 2.28,-4.517"></path><path stroke="#323232" stroke-linecap="round" stroke-linejoin="round" stroke-width="1.5" d="M5.636,5.611c-3.515,3.529 -3.515,9.249 0,12.778"></path><path stroke="#323232" stroke-linecap="round" stroke-linejoin="round" stroke-width="1.5" d="M9.028,20.5c0.961,0.338 1.966,0.496 2.972,0.5c1.006,-0.005 2.011,-0.162 2.971,-0.501"></path><path stroke="#323232" stroke-linecap="round" stroke-linejoin="round" stroke-width="1.5" d="M9.029,3.501c0.96,-0.339 1.965,-0.496 2.971,-0.501c1.006,0.004 2.011,0.162 2.972,0.5"></path><path stroke="#323232" stroke-linecap="round" stroke-linejoin="round" stroke-width="1.5" d="M13.591,10.403c0.879,0.882 0.879,2.312 0,3.194c-0.879,0.882 -2.303,0.882 -3.182,0c-0.879,-0.882 -0.879,-2.312 0,-3.194c0.879,-0.882 2.303,-0.882 3.182,-1.77636e-15"></path></g></svg>