<?xml version="1.0" encoding="UTF-8"?><svg version="1.1" viewBox="0 0 24 24" xmlns="http://www.w3.org/2000/svg" xmlns:xlink="http://www.w3.org/1999/xlink"><g fill="none"><path d="M0 0h24v24h-24Z"></path><path stroke="#323232" stroke-linecap="round" stroke-linejoin="round" stroke-width="1.5" d="M9.032 17.077l2.55-2.889 -1.88849e-08 2.13537e-08c.203427-.230021.554806-.25158.784827-.0481532 5.77081e-05 5.10361e-05.000115406.000102084.000173093.000153144 .017.015.033.031.049.048l2.55 2.889 -8.13112e-09-9.17951e-09c.203242.229447.181998.580211-.0474487.783453 -.101901.090263-.233422.139927-.369551.139547h-5.1l-1.49036e-08 1.47011e-11c-.306518.000302353-.555245-.247934-.555547-.554452 -.000133939-.135783.0495141-.266905.139547-.368548Z"></path><rect width="18" height="18" x="3" y="3" rx="2.7614" ry="0" stroke="#323232" stroke-linecap="round" stroke-linejoin="round" stroke-width="1.5"></rect><path stroke="#323232" stroke-linecap="round" stroke-linejoin="round" stroke-width="1.5" d="M9.444 12.661l-2.84467e-08-7.72007e-08c-.520157-1.41164.202532-2.97767 1.61417-3.49783 1.41164-.520157 2.97767.202532 3.49783 1.61417 .224.607907.224 1.27575-5.68934e-08 1.88366"></path><path stroke="#323232" stroke-linecap="round" stroke-linejoin="round" stroke-width="1.5" d="M6.984 15.285l-2.37231e-07-3.61426e-07c-1.81833-2.77026-1.04664-6.49005 1.72362-8.30838 2.77026-1.81833 6.49005-1.04664 8.30838 1.72362 1.312 1.99886 1.312 4.5859-4.74462e-07 6.58475"></path></g></svg>