<svg id="Layer_3" data-name="Layer 3" xmlns="http://www.w3.org/2000/svg" viewBox="0 0 24 24"><circle cx="12" cy="12.00001" r="10" fill="none" stroke="#323232" stroke-linecap="round" stroke-linejoin="round" stroke-width="1.5"/><path d="M10.5,8.96686,6.4453,11.67A1,1,0,0,0,6,12.50205v1.62929a.5.5,0,0,0,.71177.45294L10.5,12.81312" fill="none" stroke="#323232" stroke-linecap="round" stroke-linejoin="round" stroke-width="1.5"/><path d="M13.5,12.81312l3.78823,1.77116A.5.5,0,0,0,18,14.13134V12.50205a1,1,0,0,0-.4453-.83205L13.5,8.96686" fill="none" stroke="#323232" stroke-linecap="round" stroke-linejoin="round" stroke-width="1.5"/><path d="M13.5,8.96686V6.5A1.5,1.5,0,0,0,12,5h0a1.5,1.5,0,0,0-1.5,1.5V8.96686" fill="none" stroke="#323232" stroke-linecap="round" stroke-linejoin="round" stroke-width="1.5"/><path d="M10.5,12.81312l.00006,2.077-1.1.82476A1,1,0,0,0,9,16.515v.98476a.5.5,0,0,0,.62123.48508L12,17.39035l2.37877.59449A.5.5,0,0,0,15,17.49976V16.515a1,1,0,0,0-.4001-.80008l-1.1-.82476.00006-2.077" fill="none" stroke="#323232" stroke-linecap="round" stroke-linejoin="round" stroke-width="1.5"/><path d="M24,0H0V24H24Z" fill="none"/></svg>