<svg id="Layer_3" data-name="Layer 3" xmlns="http://www.w3.org/2000/svg" viewBox="0 0 24 24"><line x1="16.5" y1="7" x2="17" y2="7" fill="none" stroke="#323232" stroke-linecap="round" stroke-linejoin="round" stroke-width="1.5"/><line x1="19.5" y1="6.75" x2="19.5" y2="7.25" fill="none" stroke="#323232" stroke-linecap="round" stroke-linejoin="round" stroke-width="1.5"/><path d="M17.5,11v9a1,1,0,0,1-1,1h-1a1,1,0,0,1-1-1V9.644" fill="none" stroke="#323232" stroke-linecap="round" stroke-linejoin="round" stroke-width="1.5"/><path d="M13.5,7h0a4,4,0,0,0,4,4h.2889a4,4,0,0,0,2.2188-.6718l.6564-.4376A3,3,0,0,0,22,7.39445v-.7889A3,3,0,0,0,20.6641,4.1094l-.6564-.4376A4,4,0,0,0,17.7889,3H17.5A4,4,0,0,0,13.5,7Z" fill="none" stroke="#323232" stroke-linecap="round" stroke-linejoin="round" stroke-width="1.5"/><line x1="7.5" y1="7" x2="7" y2="7" fill="none" stroke="#323232" stroke-linecap="round" stroke-linejoin="round" stroke-width="1.5"/><line x1="4.5001" y1="6.75" x2="4.5" y2="7.25" fill="none" stroke="#323232" stroke-linecap="round" stroke-linejoin="round" stroke-width="1.5"/><path d="M6.5,11v9a1,1,0,0,0,1,1h1a1,1,0,0,0,1-1V9.644" fill="none" stroke="#323232" stroke-linecap="round" stroke-linejoin="round" stroke-width="1.5"/><path d="M10.5,7h0a4,4,0,0,1-4,4H6.2111a4,4,0,0,1-2.2188-.6718l-.6564-.4376A3,3,0,0,1,2,7.39445v-.7889A3,3,0,0,1,3.3359,4.1094l.6564-.4376A4,4,0,0,1,6.2111,3H6.5A4,4,0,0,1,10.5,7Z" fill="none" stroke="#323232" stroke-linecap="round" stroke-linejoin="round" stroke-width="1.5"/><rect width="24" height="24" fill="none"/></svg>