<svg id="Layer_3" data-name="Layer 3" xmlns="http://www.w3.org/2000/svg" viewBox="0 0 24 24"><path d="M2,8V5A3,3,0,0,1,5,2h5" fill="none" stroke="#323232" stroke-linecap="round" stroke-linejoin="round" stroke-width="1.5"/><path d="M22,13v6a3,3,0,0,1-3,3H18" fill="none" stroke="#323232" stroke-linecap="round" stroke-linejoin="round" stroke-width="1.5"/><path d="M13.3587,14,9.6516,10.29289A1,1,0,0,0,8.94449,10H8.00134A1,1,0,0,0,7.113,11.4592L8.42642,14" fill="none" stroke="#323232" stroke-linecap="round" stroke-linejoin="round" stroke-width="1.5"/><path d="M7.42642,18H5.05486a2,2,0,0,1-1.89737-1.36754L2.05208,13.31623A1,1,0,0,1,3.00077,12h.99454a1,1,0,0,1,.89442.55279L5.61334,14" fill="none" stroke="#323232" stroke-linecap="round" stroke-linejoin="round" stroke-width="1.5"/><path d="M5.61334,14H16a2,2,0,0,1,2,2h0a2,2,0,0,1-2,2" fill="none" stroke="#323232" stroke-linecap="round" stroke-linejoin="round" stroke-width="1.5"/><path d="M12.3587,18,8.6516,21.70711A1,1,0,0,1,7.94449,22H7.00134A1,1,0,0,1,6.113,20.5408L7.42642,18" fill="none" stroke="#323232" stroke-linecap="round" stroke-linejoin="round" stroke-width="1.5"/><line x1="16" y1="18" x2="12.3587" y2="18" fill="none" stroke="#323232" stroke-linecap="round" stroke-linejoin="round" stroke-width="1.5"/><path d="M14,5.5c0,1.63851,1.788,3.38881,2.808,4.25435a1.09613,1.09613,0,0,0,1.383,0C19.212,8.88881,21,7.13851,21,5.5" fill="none" stroke="#323232" stroke-linecap="round" stroke-linejoin="round" stroke-width="1.5"/><path d="M17.50048,5.375A.125.125,0,1,1,17.375,5.5a.12434.12434,0,0,1,.12548-.125" fill="none" stroke="#323232" stroke-linecap="round" stroke-linejoin="round" stroke-width="1.5"/><path d="M14,5.5h0A3.5,3.5,0,0,1,17.5,2h0A3.5,3.5,0,0,1,21,5.5h0" fill="none" stroke="#323232" stroke-linecap="round" stroke-linejoin="round" stroke-width="1.5"/><path d="M0,0H24V24H0Z" fill="none"/></svg>