<?xml version="1.0" encoding="UTF-8"?><svg version="1.1" viewBox="0 0 24 24" xmlns="http://www.w3.org/2000/svg" xmlns:xlink="http://www.w3.org/1999/xlink"><g fill="none"><path d="M0 0h24v24h-24Z"></path><path stroke="#323232" stroke-linecap="round" stroke-linejoin="round" stroke-width="1.5" d="M19.9988 20.8279l-2.25967-2.25967"></path><path stroke="#323232" stroke-linecap="round" stroke-linejoin="round" stroke-width="1.5" d="M6.26084 18.5683l-2.25967 2.25967"></path><path stroke="#323232" stroke-linecap="round" stroke-linejoin="round" stroke-width="1.5" d="M8.93852 5.61116l-2.18848e-07 9.06844e-08c4.08065-1.69091 8.75941.246362 10.4503 4.32701 1.69091 4.08065-.246362 8.75941-4.32701 10.4503 -4.08065 1.69091-8.75941-.246362-10.4503-4.32701 -.000117275-.000283019-.000234534-.000566045-.000351777-.000849078l1.46835e-07 3.54467e-07c-1.69032-4.08051.247032-8.75871 4.32736-10.4495"></path><path stroke="#323232" stroke-linecap="round" stroke-linejoin="round" stroke-width="1.5" d="M7.50072 3.13808l-1.87633e-07-5.52021e-08c-1.86096-.547497-3.81339.517272-4.36089 2.37823 -.141569.481198-.178432.987136-.108108 1.48377"></path><path stroke="#323232" stroke-linecap="round" stroke-linejoin="round" stroke-width="1.5" d="M16.499 3.13808l7.89868e-08-2.32062e-08c1.8616-.546937 3.81411.518811 4.36105 2.38042 .141177.480521.177982.985674.107949 1.48158"></path><path stroke="#323232" stroke-linecap="round" stroke-linejoin="round" stroke-width="1.5" d="M11.9999 12.7452v-2.57345"></path><path stroke="#323232" stroke-linecap="round" stroke-linejoin="round" stroke-width="1.5" d="M12.1274 15.7003v1.77636e-15c0 .0704163-.0570837.1275-.1275.1275 -.0704163 0-.1275-.0570837-.1275-.1275 0-.0704163.0570837-.1275.1275-.1275 0 0 0 0 0 0"></path><path stroke="#323232" stroke-linecap="round" stroke-linejoin="round" stroke-width="1.5" d="M11.9999 15.5728h-5.5732e-09c.0704163-3.07799e-09.1275.0570837.1275.1275"></path></g></svg>