<?xml version="1.0" encoding="UTF-8"?><svg version="1.1" viewBox="0 0 24 24" xmlns="http://www.w3.org/2000/svg" xmlns:xlink="http://www.w3.org/1999/xlink"><g fill="none"><path d="M24 24h-24v-24h24Z"></path><path stroke="#323232" stroke-linecap="round" stroke-linejoin="round" stroke-width="1.5" d="M7.63 14.866l3.656-2.229v-4.651"></path><path stroke="#323232" stroke-linecap="round" stroke-linejoin="round" stroke-width="1.5" d="M11 21l5.80162e-08-2.10889e-11c-4.97056.00180702-9.00146-4.02617-9.00327-8.99673 -.00180702-4.97056 4.02617-9.00146 8.99673-9.00327 4.58484-.00166679 8.43812 3.44355 8.94754 8"></path><path stroke="#323232" stroke-linecap="round" stroke-linejoin="round" stroke-width="1.5" d="M19.333 17.333l-1.666 1.667 -1-1"></path><path stroke="#323232" stroke-linecap="round" stroke-linejoin="round" stroke-width="1.5" d="M20 22h-4l-8.74228e-08-3.55271e-15c-1.10457-4.82823e-08-2-.895431-2-2 0 0 0 0 0 0v-4l2.13163e-14 3.01992e-07c-1.66785e-07-1.10457.89543-2 2-2h4 -8.74228e-08c1.10457-4.82823e-08 2 .89543 2 2v4 8.74228e-08c0 1.10457-.89543 2-2 2Z"></path></g></svg>