<svg id="Layer_3" data-name="Layer 3" xmlns="http://www.w3.org/2000/svg" viewBox="0 0 24 24"><rect width="24" height="24" fill="none"/><path d="M8.30867,13h7.33688a1,1,0,0,1,.94279.66661l.35362,1A1,1,0,0,1,15.99917,16H8.00068a1,1,0,0,1-.9557-1.29434l.308-1A1,1,0,0,1,8.30867,13Z" fill="none" stroke="#323232" stroke-linecap="round" stroke-linejoin="round" stroke-width="1.5"/><path d="M12,21.5A9.5,9.5,0,1,0,2.5,12,9.5,9.5,0,0,0,12,21.5Z" fill="none" stroke="#323232" stroke-linecap="round" stroke-linejoin="round" stroke-width="1.5"/><path d="M12,7h0a3,3,0,0,1,3,3v3a0,0,0,0,1,0,0H9a0,0,0,0,1,0,0V10a3,3,0,0,1,3-3Z" fill="none" stroke="#323232" stroke-linecap="round" stroke-linejoin="round" stroke-width="1.5"/></svg>