<?xml version="1.0" encoding="UTF-8"?><svg version="1.1" viewBox="0 0 24 24" xmlns="http://www.w3.org/2000/svg" xmlns:xlink="http://www.w3.org/1999/xlink"><g fill="none"><path d="M0 0h24v24h-24Z"></path><path stroke="#323232" stroke-linecap="round" stroke-linejoin="round" stroke-width="1.5" d="M17.657 7.343l1.2066e-07 1.20667e-07c3.12411 3.12427 3.12398 8.18959-.000291746 11.3137 -3.12427 3.12411-8.18959 3.12398-11.3137-.000291746 -3.124-3.12416-3.124-8.18926 2.41321e-07-11.3134l5.91467e-08-5.91498e-08c3.12411-3.12427 8.18943-3.12441 11.3137-.000291386 9.71708e-05 9.71658e-05.000194339.000194334.000291505.000291505"></path><path stroke="#323232" stroke-linecap="round" stroke-linejoin="round" stroke-width="1.5" d="M10 2h4"></path><path stroke="#323232" stroke-linecap="round" stroke-linejoin="round" stroke-width="1.5" d="M14.233 11.851l-2.79 2.79 -1.678-1.672"></path><path stroke="#323232" stroke-linecap="round" stroke-linejoin="round" stroke-width="1.5" d="M21 6l-2-2 1 1 -2.343 2.343"></path></g></svg>