<?xml version="1.0" encoding="UTF-8"?><svg version="1.1" viewBox="0 0 24 24" xmlns="http://www.w3.org/2000/svg" xmlns:xlink="http://www.w3.org/1999/xlink"><g stroke-linecap="round" stroke-width="1.5" stroke="#323232" fill="none" stroke-linejoin="round"><path d="M16 21h-8c-2.761 0-5-2.239-5-5v-8c0-2.761 2.239-5 5-5h8c2.761 0 5 2.239 5 5v8c0 2.761-2.239 5-5 5Z"></path><path d="M9.705 6.458c3.061-1.268 6.569.186 7.837 3.247 1.268 3.061-.186 6.569-3.247 7.837 -3.061 1.268-6.569-.186-7.837-3.247 -1.267-3.06.186-6.569 3.247-7.837"></path><path d="M11.812 9.323v3.101l2.437 1.486"></path></g><path fill="none" d="M0 0h24v24h-24v-24Z"></path></svg>