<svg id="Layer_3" data-name="Layer 3" xmlns="http://www.w3.org/2000/svg" viewBox="0 0 24 24"><path d="M0,0H24V24H0Z" fill="none"/><circle cx="8.5" cy="14.5" r="1.5" fill="none" stroke="#323232" stroke-linecap="round" stroke-linejoin="round" stroke-width="1.5"/><path d="M17,15h4a1,1,0,0,1,1,1v4a1,1,0,0,1-1,1H19a3,3,0,0,1-3-3V16A1,1,0,0,1,17,15Z" fill="none" stroke="#323232" stroke-linecap="round" stroke-linejoin="round" stroke-width="1.5"/><line x1="22" y1="18" x2="16" y2="18" fill="none" stroke="#323232" stroke-linecap="round" stroke-linejoin="round" stroke-width="1.5"/><line x1="16" y1="16" x2="16.05737" y2="11.13311" fill="none" stroke="#323232" stroke-linecap="round" stroke-linejoin="round" stroke-width="1.5"/><path d="M10.15811,3.1947A9.20041,9.20041,0,0,0,3,12.29671v.60654A7.0218,7.0218,0,0,0,10,20h0a3,3,0,0,0,3-3V13.50655a1.99091,1.99091,0,0,1,1.44988-1.916l5.37433-1.51763a1.00593,1.00593,0,0,0,.66566-1.33058A9.06677,9.06677,0,0,0,10.15811,3.1947Z" fill="none" stroke="#323232" stroke-linecap="round" stroke-linejoin="round" stroke-width="1.5"/><line x1="21" y1="15" x2="13" y2="15" fill="none" stroke="#323232" stroke-linecap="round" stroke-linejoin="round" stroke-width="1.5"/></svg>