<?xml version="1.0" encoding="UTF-8"?><svg version="1.1" viewBox="0 0 24 24" xmlns="http://www.w3.org/2000/svg" xmlns:xlink="http://www.w3.org/1999/xlink"><g fill="none"><path d="M0 0h24v24h-24v-24Z"></path><path stroke="#323232" stroke-linecap="round" stroke-linejoin="round" stroke-width="1.5" d="M17 21c2.209 0 4-1.791 4-4 0 0 0-3 0-3v-7c0-2.209-1.791-4-4-4h-10c-2.209 0-4 1.791-4 4v10c0 2.209 1.791 4 4 4 0 0 10 0 10 0Z"></path><path stroke="#323232" stroke-linecap="round" stroke-linejoin="round" stroke-width="1.5" d="M13.061 7.439c.586.586.586 1.536 0 2.121 -.586.586-1.536.586-2.121 0 -.586-.586-.586-1.536 0-2.121 .585-.585 1.535-.585 2.121 8.88178e-16"></path><path stroke="#323232" stroke-linecap="round" stroke-linejoin="round" stroke-width="1.5" d="M12 17v-7"></path><path stroke="#323232" stroke-linecap="round" stroke-linejoin="round" stroke-width="1.5" d="M8.5 12h-1.5c0 2.761 2.239 5 5 5 2.761 0 5-2.239 5-5h-1.5"></path></g></svg>