<?xml version="1.0" encoding="UTF-8"?><svg version="1.1" viewBox="0 0 24 24" xmlns="http://www.w3.org/2000/svg" xmlns:xlink="http://www.w3.org/1999/xlink"><g fill="none"><path d="M0 0h24v24h-24v-24Z"></path><path stroke="#323232" stroke-linecap="round" stroke-linejoin="round" stroke-width="1.5" d="M12 21v0c-4.971 0-9-4.029-9-9v0c0-4.971 4.029-9 9-9v0c4.971 0 9 4.029 9 9v0c0 4.971-4.029 9-9 9Z"></path><path stroke="#323232" stroke-linecap="round" stroke-linejoin="round" stroke-width="1.5" d="M10.333 7.667v0c0-.92.746-1.667 1.667-1.667v0c.92 0 1.667.746 1.667 1.667v0c0 .92-.746 1.667-1.667 1.667v0c-.921-.001-1.667-.747-1.667-1.667Z"></path><path stroke="#323232" stroke-linecap="round" stroke-linejoin="round" stroke-width="1.5" d="M6.293 14.333v0c0-.92.746-1.667 1.667-1.667v0c.92 0 1.667.746 1.667 1.667v0c-.001.92-.746 1.667-1.667 1.667v0c-.921 0-1.667-.746-1.667-1.667Z"></path><path stroke="#323232" stroke-linecap="round" stroke-linejoin="round" stroke-width="1.5" d="M14.373 14.333v0c0-.92.746-1.667 1.667-1.667v0c.92 0 1.667.746 1.667 1.667v0c0 .92-.746 1.667-1.667 1.667v0c-.921 0-1.667-.746-1.667-1.667Z"></path><path stroke="#323232" stroke-linecap="round" stroke-linejoin="round" stroke-width="1.5" d="M9.89 10.95l-1.21 1.89"></path><path stroke="#323232" stroke-linecap="round" stroke-linejoin="round" stroke-width="1.5" d="M12.9 9.07l1.21 1.88"></path><path stroke="#323232" stroke-linecap="round" stroke-linejoin="round" stroke-width="1.5" d="M14.37 14.33h-2.37"></path></g></svg>