<?xml version="1.0" encoding="UTF-8"?><svg version="1.1" viewBox="0 0 24 24" xmlns="http://www.w3.org/2000/svg" xmlns:xlink="http://www.w3.org/1999/xlink"><g stroke-linecap="round" stroke-width="1.5" stroke="#323232" fill="none" stroke-linejoin="round"><path d="M9.6 6l.9.9"></path><path d="M14.4 6l-.9.9"></path><path d="M14.933 16.2h-5.866l-2.91555e-08-3.55271e-15c-.368374-1.61021e-08-.667-.298626-.667-.667 0 0 0 0 0 0v-5.333h7.2v5.333 -1.77636e-15c0 .368374-.298626.667-.667.667 0 0-1.77636e-15 0-1.77636e-15 0Z"></path><rect width="18" height="18" x="3" y="3" rx="2.7614" ry="0"></rect><path d="M15.6 10.2v0 0c0-1.98823-1.61177-3.6-3.6-3.6v0l-1.57361e-07 3.55271e-15c-1.98823 8.69081e-08-3.6 1.61178-3.6 3.6 0 0 0 1.77636e-15 0 1.77636e-15v0"></path><path d="M6.25 10.167v3.666"></path><path d="M10.2 16.2v1.8"></path><path d="M13.8 16.2v1.8"></path><path d="M17.75 13.833v-3.666"></path></g><path fill="none" d="M0 24v-24h24v24Z"></path></svg>