<?xml version="1.0" encoding="UTF-8"?><svg version="1.1" viewBox="0 0 24 24" xmlns="http://www.w3.org/2000/svg" xmlns:xlink="http://www.w3.org/1999/xlink"><!--Generated by IJSVG (https://github.com/iconjar/IJSVG)--><g stroke-linecap="round" stroke-width="1.5" stroke="#323232" fill="none" stroke-linejoin="round"><path d="M21.63,12.555l-4.807,7.21c-0.394,0.59 -1.26,0.594 -1.659,0.008l-4.905,-7.21c-0.231,-0.339 -0.231,-0.785 0,-1.125l4.905,-7.21c0.399,-0.587 1.265,-0.583 1.659,0.008l4.807,7.21c0.224,0.335 0.224,0.773 -3.55271e-15,1.109Z"></path><path d="M11.46,3.794l-5.582,8.206l5.584,8.21"></path><path d="M7.47,3.79v0"></path><path stroke-dasharray="0 3.2873" d="M5.65,6.53l-2.74,4.1"></path><path d="M2,12v0"></path><path stroke-dasharray="0 3.289" d="M3.82,14.74l2.74,4.1"></path><path d="M7.47,20.21v0"></path></g><path fill="none" d="M0,0h24v24h-24Z"></path></svg>