<?xml version="1.0" encoding="UTF-8"?><svg version="1.1" viewBox="0 0 24 24" xmlns="http://www.w3.org/2000/svg" xmlns:xlink="http://www.w3.org/1999/xlink"><g fill="none"><rect width="24" height="24"></rect><path stroke="#323232" stroke-linecap="round" stroke-linejoin="round" stroke-width="1.5" d="M12 10.25v0l-1.31134e-07 3.55271e-15c1.65685-7.24234e-08 3 1.34315 3 3v0 0c0 .552285-.447715 1-1 1h-4l-4.37114e-08-1.77636e-15c-.552285-2.41411e-08-1-.447715-1-1 0 0 0 0 0 0v0l2.84217e-14-2.78142e-07c2.50178e-07-1.65685 1.34315-3 3-3Z"></path><path stroke="#323232" stroke-linecap="round" stroke-linejoin="round" stroke-width="1.5" d="M17.494 5.276v0l2.61723e-07 2.61744e-07c3.03408 3.03432 3.03408 7.95368-5.23445e-07 10.988v0l-4.2 4.2 1.91897e-08-1.91834e-08c-.715001.714767-1.874.714767-2.589 3.83668e-08l-4.2-4.2 -3.43261e-07-3.43112e-07c-3.03425-3.03293-3.03532-7.95136-.00238862-10.9856 .000796263-.000796609.0015927-.00159304.00238931-.00238931v0l6.55781e-08-6.56185e-08c3.03266-3.03453 7.95108-3.03605 10.9856-.00338928 .00113017.00112947.00226.0022593.00338947.00338947Z"></path><path stroke="#323232" stroke-linecap="round" stroke-linejoin="round" stroke-width="1.5" d="M9 8l4.6214e-09-1.84848e-11c-.13807.000552282-.24955.112928-.248998.250998 .000552282.13807.112928.24955.250998.248998 .137679-.000550718.248999-.112316.249-.249996l7.21973e-09-1.78492e-06c.000555747-.137518-.110474-.249448-.247992-.250004 -.00100337-4.05488e-06-.00200675-2.04494e-06-.00301009 6.02972e-06"></path><path stroke="#323232" stroke-linecap="round" stroke-linejoin="round" stroke-width="1.5" d="M15 8l4.6214e-09-1.84848e-11c-.13807.000552282-.24955.112928-.248998.250998 .000552282.13807.112928.24955.250998.248998 .137679-.000550718.248999-.112316.249-.249996l7.21973e-09-1.78492e-06c.000555747-.137518-.110474-.249448-.247992-.250004 -.00100337-4.05488e-06-.00200675-2.04494e-06-.00301009 6.02972e-06"></path><path stroke="#323232" stroke-linecap="round" stroke-linejoin="round" stroke-width="1.5" d="M12 7l4.6214e-09-1.84857e-11c-.13807.000552282-.24955.112928-.248998.250998 .000552282.13807.112928.24955.250998.248998 .137679-.000550718.248999-.112316.249-.249996l7.21973e-09-1.78492e-06c.000555747-.137518-.110474-.249448-.247992-.250004 -.00100337-4.05488e-06-.00200675-2.04494e-06-.00301009 6.02972e-06"></path></g></svg>