<svg id="Layer_3" data-name="Layer 3" xmlns="http://www.w3.org/2000/svg" viewBox="0 0 24 24"><line x1="14" y1="15.75" x2="19" y2="15.75" fill="none" stroke="#323232" stroke-linecap="round" stroke-linejoin="round" stroke-width="1.5"/><line x1="14" y1="12.25" x2="19" y2="12.25" fill="none" stroke="#323232" stroke-linecap="round" stroke-linejoin="round" stroke-width="1.5"/><line x1="17" y1="8.75" x2="19" y2="8.75" fill="none" stroke="#323232" stroke-linecap="round" stroke-linejoin="round" stroke-width="1.5"/><path d="M8,12.25H8a2.625,2.625,0,0,1,2.625,2.625v0a.875.875,0,0,1-.875.875H6.25a.875.875,0,0,1-.875-.875v0A2.625,2.625,0,0,1,8,12.25Z" fill="none" stroke="#323232" stroke-linecap="round" stroke-linejoin="round" stroke-width="1.5"/><rect x="2" y="4" width="20" height="16" rx="2" stroke-width="1.5" stroke="#323232" stroke-linecap="round" stroke-linejoin="round" fill="none"/><path d="M11.00033,9.99166a.2414.2414,0,1,1-.24171-.2417.2414.2414,0,0,1,.24171.2417" fill="none" stroke="#323232" stroke-linecap="round" stroke-linejoin="round" stroke-width="1.5"/><path d="M8.2417,8.99166A.2414.2414,0,1,1,8,8.75a.24139.24139,0,0,1,.2417.2417" fill="none" stroke="#323232" stroke-linecap="round" stroke-linejoin="round" stroke-width="1.5"/><path d="M5.48308,9.99166a.2414.2414,0,1,1-.2417-.2417.24139.24139,0,0,1,.2417.2417" fill="none" stroke="#323232" stroke-linecap="round" stroke-linejoin="round" stroke-width="1.5"/><rect width="24" height="24" fill="none"/></svg>