<?xml version="1.0" encoding="UTF-8"?><svg version="1.1" viewBox="0 0 24 24" xmlns="http://www.w3.org/2000/svg" xmlns:xlink="http://www.w3.org/1999/xlink"><g stroke-linecap="round" stroke-width="1.5" stroke="#323232" fill="none" stroke-linejoin="round"><path d="M3.5 13.464l1.2 1.564 .258 1.946 -1.5656e-08-1.18167e-07c.143077 1.07991.992232 1.92988 2.072 2.074l1.952.26 1.553 1.192 7.45661e-08 5.70107e-08c.864769.661172 2.06523.661172 2.93-1.14021e-07l1.564-1.194v0l1.948-.258 -1.36489e-08 1.80835e-09c1.07991-.143077 1.92988-.992232 2.074-2.072l.26-1.952c0 0 .6-.79 1.2-1.562l1.14169e-07-1.49487e-07c.660153-.86437.660153-2.06363-2.28339e-07-2.928l-1.2-1.564 -.258-1.946 3.51673e-08 2.65433e-07c-.143077-1.07991-.992232-1.92988-2.072-2.074l-1.952-.26 -1.564-1.19 1.0055e-07 7.68773e-08c-.864768-.661172-2.06523-.661172-2.93-1.53755e-07l-1.564 1.192v0l-1.946.258 -1.95388e-07 2.5887e-08c-1.07991.143077-1.92988.992232-2.074 2.072l-.26 1.952c0 0-.6.79-1.2 1.562l-9.99031e-08 1.31644e-07c-.6575.866398-.653814 2.06566.00900023 2.928Z"></path><path d="M12 11.625v0l-1.31134e-07 3.55271e-15c1.65685-7.24234e-08 3 1.34315 3 3v0 0c0 .552285-.447715 1-1 1h-4l-4.37114e-08-1.77636e-15c-.552285-2.41411e-08-1-.447715-1-1 0 0 0 0 0 0v0l3.37508e-14 4.52987e-07c-2.50178e-07-1.65685 1.34315-3 3-3Z"></path><path d="M9 9.375l4.6214e-09-1.84865e-11c-.13807.000552282-.24955.112928-.248998.250998 .000552282.13807.112928.24955.250998.248998 .137679-.000550718.248999-.112316.249-.249996l7.21973e-09-1.78492e-06c.000555747-.137518-.110474-.249448-.247992-.250004 -.00100337-4.05488e-06-.00200675-2.04494e-06-.00301009 6.02972e-06"></path><path d="M15 9.375l4.6214e-09-1.84865e-11c-.13807.000552282-.24955.112928-.248998.250998 .000552282.13807.112928.24955.250998.248998 .137679-.000550718.248999-.112316.249-.249996l7.21973e-09-1.78492e-06c.000555747-.137518-.110474-.249448-.247992-.250004 -.00100337-4.05488e-06-.00200675-2.04494e-06-.00301009 6.02972e-06"></path><path d="M12 8.375l4.6214e-09-1.84865e-11c-.13807.000552282-.24955.112928-.248998.250998 .000552282.13807.112928.24955.250998.248998 .137679-.000550718.248999-.112316.249-.249996l7.21973e-09-1.78492e-06c.000555747-.137518-.110474-.249448-.247992-.250004 -.00100337-4.05488e-06-.00200675-2.04494e-06-.00301009 6.02972e-06"></path></g><path fill="none" d="M0 0h24v24h-24Z"></path></svg>