<svg id="Layer_3" data-name="Layer 3" xmlns="http://www.w3.org/2000/svg" viewBox="0 0 24 24"><path d="M0,0H24V24H0Z" fill="none"/><path d="M14,3H8.828a2,2,0,0,0-1.414.586L7,4" fill="none" stroke="#323232" stroke-linecap="round" stroke-linejoin="round" stroke-width="1.5"/><path d="M8.5,9V7a1,1,0,0,1,1-1h3a1,1,0,0,1,1,1V9" fill="none" stroke="#323232" stroke-linecap="round" stroke-linejoin="round" stroke-width="1.5"/><line x1="11" y1="3" x2="11" y2="6" fill="none" stroke="#323232" stroke-linecap="round" stroke-linejoin="round" stroke-width="1.5"/><path d="M16.56249,11A3.69912,3.69912,0,0,0,13.286,9H8.714A3.714,3.714,0,0,0,5,12.714V19a2,2,0,0,0,2,2h4" fill="none" stroke="#323232" stroke-linecap="round" stroke-linejoin="round" stroke-width="1.5"/><path d="M16.99968,17h0a3,3,0,0,1,3,3v0a1,1,0,0,1-1,1h-4a1,1,0,0,1-1-1v0A3,3,0,0,1,16.99968,17Z" fill="none" stroke="#323232" stroke-linecap="round" stroke-linejoin="round" stroke-width="1.5"/><path d="M17.25,14.00032a.25.25,0,1,1-.25032-.25031.25.25,0,0,1,.25032.25031" fill="none" stroke="#323232" stroke-linecap="round" stroke-linejoin="round" stroke-width="1.5"/><path d="M20.25,15.00032a.25.25,0,1,1-.25032-.25031.25.25,0,0,1,.25032.25031" fill="none" stroke="#323232" stroke-linecap="round" stroke-linejoin="round" stroke-width="1.5"/><path d="M14.25,15.00032a.25.25,0,1,1-.25032-.25031.25.25,0,0,1,.25032.25031" fill="none" stroke="#323232" stroke-linecap="round" stroke-linejoin="round" stroke-width="1.5"/></svg>