<?xml version="1.0" encoding="UTF-8"?><svg version="1.1" viewBox="0 0 24 24" xmlns="http://www.w3.org/2000/svg" xmlns:xlink="http://www.w3.org/1999/xlink"><g fill="none"><rect width="24" height="24"></rect><path stroke="#323232" stroke-linecap="round" stroke-linejoin="round" stroke-width="1.5" d="M17.9875 12l.00013 7.54307 3.83552e-08 3.47278e-06c.00991686.897969-.587396 1.68952-1.45363 1.92633l9.37476e-07-2.21841e-07c-2.98969.70747-6.10322.70747-9.09291 4.43683e-07l-6.35672e-08-1.73765e-08c-.866255-.236797-1.46359-1.02835-1.45368-1.92633l9.23822e-05-7.54307"></path><path stroke="#323232" stroke-linecap="round" stroke-linejoin="round" stroke-width="1.5" d="M17 5.08333l1.97872.60455 8.45408e-08 2.58292e-08c.638378.19504 1.13737.695704 1.33028 1.33473l1.52033 5.03631 1.23831e-07 4.10193e-07c.186622.618188.220798 1.27237.0996099 1.90664l-.80667 4.2221 2.45378e-08-1.28434e-07c-.0900648.47141-.502334.812357-.98227.81234h-2.13971"></path><line x1="10" x2="10" y1="6.08" y2="10" stroke="#323232" stroke-linecap="round" stroke-linejoin="round" stroke-width="1.5"></line><line x1="14" x2="14" y1="6.08" y2="10" stroke="#323232" stroke-linecap="round" stroke-linejoin="round" stroke-width="1.5"></line><path stroke="#323232" stroke-linecap="round" stroke-linejoin="round" stroke-width="1.5" d="M8.51493 2.429v0l4.64465e-08-1.16116e-08c-.890347.222586-1.51495 1.02257-1.51493 1.94032v.714l3.73509 1.245 2.51389e-07 8.37964e-08c.821067.273689 1.70875.273688 2.52982-1.67593e-07l3.73509-1.24499v-.714l4.99234e-10-4.46871e-05c0-.917752-.624618-1.71773-1.51497-1.9403v0l6.89116e-07 1.72277e-07c-2.28816-.572031-4.68194-.572027-6.9701 1.04931e-05Z"></path><path stroke="#323232" stroke-linecap="round" stroke-linejoin="round" stroke-width="1.5" d="M7 5.08333l-1.97872.60455 -2.3742e-08 7.25376e-09c-.638378.19504-1.13737.695704-1.33028 1.33473l-1.52032 5.03631 -2.5934e-07 8.5907e-07c-.186621.618189-.220798 1.27237-.0996097 1.90664l.80667 4.2221 -4.01204e-08-2.09995e-07c.0900642.471406.502327.812352.98226.81234h2.13971"></path></g><g transform="matrix(1 0 0 1 24 24)"><rect width="24" height="24" fill="none" transform="matrix(-1 -1.22465e-16 1.22465e-16 -1 0 0)"></rect></g></svg>