<?xml version="1.0" encoding="UTF-8"?><svg version="1.1" viewBox="0 0 24 24" xmlns="http://www.w3.org/2000/svg" xmlns:xlink="http://www.w3.org/1999/xlink"><!--Generated by IJSVG (https://github.com/iconjar/IJSVG)--><g fill="none"><path d="M0,0h24v24h-24v-24Z"></path><path stroke="#323232" stroke-linecap="round" stroke-linejoin="round" stroke-width="1.5" d="M7.334,17.5h9.334c1.288,0 2.333,-0.971 2.333,-2.169v-6.662c-0.001,-1.198 -1.045,-2.169 -2.334,-2.169h-9.333c-1.288,0 -2.333,0.971 -2.333,2.169v6.661c-0.002,1.199 1.043,2.17 2.333,2.17Z"></path><path stroke="#323232" stroke-linecap="round" stroke-linejoin="round" stroke-width="1.5" d="M9.879,9.879c1.297,-1.297 3.488,-1.158 4.593,0.418c0.703,1.003 0.703,2.403 0,3.406c-1.106,1.576 -3.296,1.716 -4.593,0.418"></path><path stroke="#323232" stroke-linecap="round" stroke-linejoin="round" stroke-width="1.7021" d="M12.1004,11.8996c0.0554545,0.0554545 0.0554545,0.145364 0,0.200818c-0.0554545,0.0554545 -0.145364,0.0554545 -0.200818,0c-0.0554545,-0.0554545 -0.0554545,-0.145364 0,-0.200818c0.0554545,-0.0554545 0.145364,-0.0554545 0.200818,0"></path><path stroke="#323232" stroke-linecap="round" stroke-linejoin="round" stroke-width="1.5" d="M16.5,6.5l-0.519,-2.002c-0.229,-0.882 -1.025,-1.498 -1.936,-1.498h-4.09c-0.911,0 -1.707,0.616 -1.936,1.498l-0.519,2.002"></path><path stroke="#323232" stroke-linecap="round" stroke-linejoin="round" stroke-width="1.5" d="M7.5,17.5l0.519,2.002c0.229,0.882 1.025,1.498 1.936,1.498h4.089c0.911,0 1.707,-0.616 1.936,-1.498l0.52,-2.002"></path></g></svg>