<?xml version="1.0" encoding="UTF-8"?><svg version="1.1" viewBox="0 0 24 24" xmlns="http://www.w3.org/2000/svg" xmlns:xlink="http://www.w3.org/1999/xlink"><g stroke-linecap="round" stroke-width="1.5" stroke="#323232" fill="none" stroke-linejoin="round"><path d="M11.92 9.126c-.436 0-1.116-.509-1.823-.509l4.28883e-08-1.47095e-09c-.959047.0328925-1.82857.572348-2.284 1.417 -.974 1.692-.251 4.192.7 5.567 .467.669 1.017 1.422 1.746 1.4 .7-.03.962-.454 1.811-.454 .849 0 1.083.454 1.824.436 .741-.018 1.232-.681 1.692-1.356l1.00916e-07-1.47978e-07c.330258-.484272.587981-1.0142.765-1.573l8.29246e-08 3.533e-08c-.896717-.382046-1.47987-1.26129-1.483-2.236l-4.24847e-08 4.25267e-06c.00859854-.860778.46277-1.65558 1.2-2.1l-2.86876e-08-4.06316e-08c-.465833-.659782-1.21288-1.06437-2.02-1.094 -.925996-.0720021-1.697.501998-2.128.501998Z"></path><circle cx="12" cy="12" r="9"></circle><line x1="12.51" x2="13.14" y1="6.75" y2="6"></line></g><path fill="none" d="M0 24v-24h24v24Z"></path></svg>