<?xml version="1.0" encoding="UTF-8"?><svg version="1.1" viewBox="0 0 24 24" xmlns="http://www.w3.org/2000/svg" xmlns:xlink="http://www.w3.org/1999/xlink"><!--Generated by IJSVG (https://github.com/iconjar/IJSVG)--><defs><path d="M0,0h24v24h-24Z" id="a"></path></defs><g stroke-linecap="round" stroke-width="1.5" stroke="#323232" fill="none" stroke-linejoin="round"><path d="M19,21h-13c-1.105,0 -2,-0.895 -2,-2v-7c0,-1.105 0.895,-2 2,-2h13c1.105,0 2,0.895 2,2v7c0,1.105 -0.895,2 -2,2Z"></path><path d="M19,10h-13v-5c0,-1.105 0.895,-2 2,-2h9c1.105,0 2,0.895 2,2v5Z"></path><path d="M10.4142,14.0858c0.781049,0.781049 0.781049,2.04738 0,2.82843c-0.781049,0.781049 -2.04738,0.781049 -2.82843,0c-0.781049,-0.781049 -0.781049,-2.04738 -8.88178e-16,-2.82843c0.781049,-0.781049 2.04738,-0.781049 2.82843,0"></path><path d="M15,13.5v4"></path><path d="M18,13.5v4"></path></g><use fill="none" transform="matrix(4.49816e-11,1,-1,4.49816e-11,24,-2.16095e-09)" xlink:href="#a"></use><use transform="matrix(4.49816e-11,1,-1,4.49816e-11,24,-2.16095e-09)" xlink:href="#a" fill="none"></use></svg>