<?xml version="1.0" encoding="UTF-8"?><svg version="1.1" viewBox="0 0 24 24" xmlns="http://www.w3.org/2000/svg" xmlns:xlink="http://www.w3.org/1999/xlink"><g stroke-linecap="round" stroke-width="1.5" stroke="#323232" fill="none" stroke-linejoin="round"><path d="M4 16.688c.884-1.75 2.316-1.75 3.2 0 .884 1.75 2.316 1.749 3.2 0 .884-1.749 2.316-1.75 3.2 0 .884 1.75 2.316 1.749 3.2 0 .884-1.749 2.316-1.75 3.2 0"></path><path d="M4 7.312c.884-1.749 2.316-1.749 3.2 0 .884 1.749 2.316 1.75 3.2 0 .884-1.75 2.316-1.749 3.2 0 .884 1.749 2.316 1.75 3.2 0 .884-1.75 2.316-1.749 3.2 0"></path></g><rect width="24" height="24" fill="none"></rect></svg>