<?xml version="1.0" encoding="UTF-8"?><svg version="1.1" viewBox="0 0 24 24" xmlns="http://www.w3.org/2000/svg" xmlns:xlink="http://www.w3.org/1999/xlink"><rect width="24" height="24" fill="none"></rect><g transform="matrix(1 0 0 1 24 16)"><rect width="14" height="4" x="5" y="6" fill="none" rx=".55228" ry="0" stroke="#323232" stroke-linecap="round" stroke-linejoin="round" stroke-width="1.5" transform="matrix(-1 -1.22465e-16 1.22465e-16 -1 0 0)"></rect></g><g transform="matrix(1 0 0 1 24 32)"><rect width="8" height="4" x="8" y="14" fill="none" rx=".55228" ry="0" stroke="#323232" stroke-linecap="round" stroke-linejoin="round" stroke-width="1.5" transform="matrix(-1 -1.22465e-16 1.22465e-16 -1 0 0)"></rect></g><g stroke-linecap="round" stroke-width="1.5" stroke="#323232" fill="none" stroke-linejoin="round"><line x1="12" x2="12" y1="10" y2="14"></line><line x1="21" x2="19" y1="8" y2="8"></line><line x1="8" x2="3" y1="16" y2="16"></line><line x1="16" x2="21" y1="16" y2="16"></line><line x1="5" x2="3" y1="8" y2="8"></line></g></svg>