<?xml version="1.0" encoding="UTF-8"?><svg version="1.1" viewBox="0 0 24 24" xmlns="http://www.w3.org/2000/svg" xmlns:xlink="http://www.w3.org/1999/xlink"><!--Generated by IJSVG (https://github.com/iconjar/IJSVG)--><g stroke-linecap="round" stroke-width="1.5" stroke="#323232" fill="none" stroke-linejoin="round"><path d="M19,18.979l2,-2l-2,-2"></path><path d="M10.182,9l-1.58,-2.172c-0.378,-0.52 -0.983,-0.826 -1.626,-0.824l-3.976,0.017"></path><path d="M19,8l2,-2l-2,-2"></path><path d="M13.818,14l1.58,2.172c0.378,0.52 0.983,0.826 1.626,0.824l3.976,-0.017"></path><path d="M21,6.021l-3.976,-0.017c-0.643,-0.003 -1.248,0.304 -1.626,0.824l-6.796,9.344c-0.378,0.52 -0.983,0.826 -1.626,0.824l-3.976,-0.017"></path></g><path fill="none" d="M0,0h24v24h-24Z"></path></svg>