<?xml version="1.0" encoding="UTF-8"?><svg version="1.1" viewBox="0 0 24 24" xmlns="http://www.w3.org/2000/svg" xmlns:xlink="http://www.w3.org/1999/xlink"><g stroke-linecap="round" stroke-width="1.5" stroke="#323232" fill="none" stroke-linejoin="round"><path d="M13.561 3.145c-.508-.089-1.027-.145-1.561-.145 -.534 0-1.053.056-1.561.145"></path><path d="M20.449 8.973c.351.969.551 2.01.551 3.1"></path><path d="M18.892 6.243c-.673-.807-1.485-1.49-2.396-2.021"></path><path d="M7.503 4.222c-.91.531-1.722 1.214-2.395 2.021"></path><path d="M3 12.073c0-1.091.2-2.132.551-3.1"></path><path d="M7.503 19.924c.893.521 1.882.89 2.935 1.076"></path><path d="M3.551 15.173c.363 1.004.889 1.927 1.557 2.73"></path><path d="M13.561 21c1.053-.186 2.041-.555 2.935-1.076"></path><path d="M18.892 17.903c.669-.803 1.194-1.726 1.557-2.73"></path><path d="M13.25 13l2-2 -2-2"></path><path d="M9.75 15v-2c0-1.105.895-2 2-2h3.5"></path></g><rect width="24" height="24" fill="none"></rect></svg>