<?xml version="1.0" encoding="UTF-8"?><svg version="1.1" viewBox="0 0 24 24" xmlns="http://www.w3.org/2000/svg" xmlns:xlink="http://www.w3.org/1999/xlink"><path d="M12.3796 14.7579l2.23753.91277 6.16154e-09 2.53018e-09c.510279.209542 1.09381-.0342541 1.30335-.544534 .113982-.277571.0971353-.591679-.0458819-.855466l-2.99619-5.50015 7.67487e-09 1.40514e-08c-.264677-.48458-.872071-.662847-1.35665-.398169 -.168131.0918329-.306336.230039-.398169.398169l-2.99842 5.50423 -4.92907e-09 9.09118e-09c-.262487.484131-.082809 1.08938.401322 1.35187 .263352.142785.576944.159604.854058.0458084l2.24184-.91453 3.57719e-08-1.45888e-08c.2427-.0989796.51451-.0989796.75721 3.31059e-08Z" stroke-linecap="round" stroke-width="1.5" stroke="#323232" fill="none" stroke-linejoin="round"></path><path fill="none" d="M24 24h-24v-24h24Z"></path><rect width="18" height="18" x="2.9" y="3.00138" rx="2.7614" ry="0" stroke-linecap="round" stroke-width="1.5" stroke="#323232" fill="none" stroke-linejoin="round"></rect></svg>