<svg id="Layer_3" data-name="Layer 3" xmlns="http://www.w3.org/2000/svg" viewBox="0 0 24 24"><path d="M0,24V0H24V24Z" fill="none"/><path d="M8.11186,12.18754l2.22775.93644a.99882.99882,0,0,1,.53366.5335l.93838,2.23087a.9996.9996,0,0,0,1.8802-.106L15.458,9.78246A.999.999,0,0,0,14.21737,8.542L8.21776,10.30755A.99937.99937,0,0,0,8.11186,12.18754Z" fill="none" stroke="#323232" stroke-linecap="round" stroke-linejoin="round" stroke-width="1.5"/><path d="M16.28441,16.28436l3.25,3.25065" fill="none" stroke="#323232" stroke-linecap="round" stroke-linejoin="round" stroke-width="1.5"/><path d="M16,21H8a5,5,0,0,1-5-5V8A5,5,0,0,1,8,3h8a5,5,0,0,1,5,5v8A5,5,0,0,1,16,21Z" fill="none" stroke="#323232" stroke-linecap="round" stroke-linejoin="round" stroke-width="1.5"/><path d="M7.71559,7.71564,4.46559,4.465" fill="none" stroke="#323232" stroke-linecap="round" stroke-linejoin="round" stroke-width="1.5"/></svg>