<svg id="Layer_3" data-name="Layer 3" xmlns="http://www.w3.org/2000/svg" viewBox="0 0 24 24"><path d="M0,0H24V24H0Z" fill="none"/><path d="M12,3a9,9,0,1,0,9,9" fill="none" stroke="#323232" stroke-linecap="round" stroke-linejoin="round" stroke-width="1.5"/><line x1="16" y1="5.5" x2="21" y2="5.5" fill="none" stroke="#323232" stroke-linecap="round" stroke-linejoin="round" stroke-width="1.5"/><line x1="18.5" y1="3" x2="18.5" y2="8" fill="none" stroke="#323232" stroke-linecap="round" stroke-linejoin="round" stroke-width="1.5"/><path d="M14.61809,15.17155l-2.23841-.91366a1,1,0,0,0-.75557-.00009l-2.24242.91467A1,1,0,0,1,8.126,13.76793l2.99595-5.49652a1,1,0,0,1,1.756-.00007L15.874,13.767A1,1,0,0,1,14.61809,15.17155Z" fill="none" stroke="#323232" stroke-linecap="round" stroke-linejoin="round" stroke-width="1.5"/></svg>