<?xml version="1.0" encoding="UTF-8"?><svg version="1.1" viewBox="0 0 24 24" xmlns="http://www.w3.org/2000/svg" xmlns:xlink="http://www.w3.org/1999/xlink"><g fill="none"><path d="M0 24v-24h24v24Z"></path><path fill-rule="evenodd" stroke="#323232" stroke-linecap="round" stroke-linejoin="round" stroke-width="1.5" d="M8.61 13.072l4.8981e-08-2.80131e-11c-.965946.000552415-1.74855.784054-1.748 1.75 .000552415.965946.784054 1.74855 1.75 1.748 .965946-.000552415 1.74855-.784054 1.748-1.75l7.72171e-08.00014571c-.000471653-.965946-.783908-1.74862-1.74985-1.74815 -1.90077e-07 9.28111e-11-3.81678e-07 1.86398e-10-5.71755e-07 2.79272e-10Z"></path><rect width="18" height="18" x="3" y="3" rx="1.86395" ry="0" stroke="#323232" stroke-linecap="round" stroke-linejoin="round" stroke-width="1.5"></rect><path fill-rule="evenodd" stroke="#323232" stroke-linecap="round" stroke-linejoin="round" stroke-width="1.5" d="M15.39 13.071l-2.82362e-08 1.61435e-11c-.965946.0005523-1.74855.784054-1.748 1.75 .0005523.965946.784054 1.74855 1.75 1.748 .965555-.000552077 1.748-.783444 1.748-1.749l7.70981e-08.000145508c-.000471732-.966108-.783747-1.74907-1.74985-1.74915Z"></path><path fill-rule="evenodd" stroke="#323232" stroke-linecap="round" stroke-linejoin="round" stroke-width="1.5" d="M12 7.431l-2.82362e-08 1.61444e-11c-.965946.0005523-1.74855.784054-1.748 1.75 .0005523.965946.784054 1.74855 1.75 1.748 .965555-.000552077 1.748-.783444 1.748-1.749l7.71142e-08.000145536c-.000471732-.966108-.783747-1.74907-1.74985-1.74915Z"></path></g></svg>