<?xml version="1.0" encoding="UTF-8"?><svg version="1.1" viewBox="0 0 24 24" xmlns="http://www.w3.org/2000/svg" xmlns:xlink="http://www.w3.org/1999/xlink"><g stroke-linecap="round" stroke-width="1.5" stroke="#323232" fill="none" stroke-linejoin="round"><path d="M7.66177 8.03731l-3.43961e-08 1.04063e-08c.436113-.131942.896613.114636 1.02855.550749 .0556457.183927.0453413.38151-.029135.558651l5.96825e-08-1.34078e-07c-1.05335 2.36636.0110658 5.13859 2.37743 6.19193 1.21412.540443 2.60052.540424 3.81462-5.23719e-05l2.04191e-08-8.58495e-09c.420022-.176592.903673.020746 1.08027.440768 .0744726.177132.0847802.374703.0291443.558622l2.77256e-07-8.93387e-07c-1.08576 3.4986-4.80212 5.45459-8.30072 4.36883 -3.4986-1.08576-5.45459-4.80212-4.36883-8.30072 .647676-2.08698 2.28171-3.72105 4.36867-4.36878Z"></path><path d="M17.9504 7.82884l-3.42637e-08 6.38001e-08c.163028-.303563.541275-.41749.844838-.254462 .107973.0579864.196475.146489.254462.254462l.48477.88718 -1.57407e-08-2.89071e-08c.0574328.105473.144087.192127.24956.24956l.88718.48477 2.57493e-08 1.38286e-08c.303563.163028.41749.541275.254462.844838 -.0579864.107973-.146489.196475-.254462.254462l-.88718.48477 2.23733e-08-1.21829e-08c-.105473.0574328-.192127.144087-.24956.24956l-.48477.88718 8.45751e-09-1.57482e-08c-.163028.303563-.541275.41749-.844838.254462 -.107973-.0579864-.196475-.146489-.254462-.254462l-.48477-.88718 1.63327e-08 2.99943e-08c-.0574328-.105473-.144087-.192127-.24956-.24956l-.88718-.48477 -7.38012e-08-3.96348e-08c-.303563-.163028-.41749-.541275-.254462-.844838 .0579864-.107973.146489-.196475.254462-.254462l.88718-.48477 6.03595e-08-3.28674e-08c.105473-.0574328.192127-.144087.24956-.24956Z"></path><path d="M12.5603 3.26307l-2.41895e-10 4.50454e-10c.130411-.242851.432999-.334001.675849-.203591 .0863892.046391.1572.117201.203591.203591l.38782.70975 -5.07946e-09-9.32811e-09c.0459447.0843746.115265.153695.19964.19964l.70975.38782 1.87703e-08 1.00797e-08c.242851.130411.334001.432999.203591.675849 -.046391.0863892-.117201.1572-.203591.203591l-.70975.38782 4.10121e-09-2.23324e-09c-.0843746.0459447-.153695.115265-.19964.19964l-.38782.70975 7.74762e-09-1.44276e-08c-.130411.242851-.432999.334001-.675849.203591 -.0863892-.046391-.1572-.117201-.203591-.203591l-.38782-.70975 -1.56014e-09-2.8651e-09c-.0459447-.0843746-.115265-.153695-.19964-.19964l-.70975-.38782 -4.79315e-09-2.57392e-09c-.242851-.130411-.334001-.432999-.203591-.675849 .046391-.0863892.117201-.1572.203591-.203591l.70975-.38782 9.83141e-09-5.35352e-09c.0843746-.0459447.153695-.115265.19964-.19964Z"></path></g><rect width="24" height="24" fill="none"></rect></svg>