<?xml version="1.0" encoding="UTF-8"?><svg version="1.1" viewBox="0 0 24 24" xmlns="http://www.w3.org/2000/svg" xmlns:xlink="http://www.w3.org/1999/xlink"><g fill="none"><rect width="24" height="24"></rect><rect width="24" height="24"></rect><path stroke="#323232" stroke-linecap="round" stroke-linejoin="round" stroke-width="1.5" d="M21 12v0c0 4.97056-4.02944 9-9 9 -4.97056 0-9-4.02944-9-9 0-4.97056 4.02944-9 9-9"></path><path stroke="#323232" stroke-linecap="round" stroke-linejoin="round" stroke-width="1.5" d="M18.3401 2.39182l-3.32386e-08 6.09193e-08c.19884-.364431.655461-.498668 1.01989-.299829 .126645.0690995.230729.173184.299829.299829l.58288 1.06528 4.14651e-08 7.59805e-08c.0691481.126707.173258.230869.29993.30008l1.06478.58215 2.14706e-08 1.16962e-08c.364878.198769.499536.655696.300766 1.02057 -.0692378.127099-.173667.231529-.300766.300766l-1.06478.58315 -6.57107e-08 3.56005e-08c-.126983.0687962-.231197.173063-.29993.30008l-.58288 1.06428 -8.96608e-09 1.64329e-08c-.19884.364431-.655461.498668-1.01989.299829 -.126645-.0690995-.230729-.173184-.299829-.299829l-.58288-1.06528 -1.94152e-08-3.5879e-08c-.0687327-.127017-.172947-.231284-.29993-.30008l-1.06478-.58215 -4.70163e-10-2.56123e-10c-.364878-.198769-.499536-.655696-.300766-1.02057 .0692378-.127099.173667-.231529.300766-.300766l1.06478-.58215 7.63729e-09-4.17288e-09c.126672-.0692114.230782-.173373.29993-.30008Z"></path><path stroke="#323232" stroke-linecap="round" stroke-linejoin="round" stroke-width="1.5" d="M10.586 7.02873l4.0069e-09-1.21199e-09c.335485-.101476.689712.0882262.791188.423712 .042789.141463.0348638.293424-.0224084.429668l-1.22466e-07 2.75139e-07c-.810234 1.82032.00860082 3.9528 1.82892 4.76303 .933899.415684 2.0003.415672 2.93419-3.41267e-05l2.02479e-09-8.51132e-10c.323115-.135824.695159.0160065.830983.339122 .057267.136235.0651953.288183.0224174.429638l-4.81486e-08 1.55146e-07c-.835206 2.69123-3.69395 4.19583-6.38518 3.36063 -2.69123-.835206-4.19583-3.69395-3.36063-6.38518 .498214-1.60536 1.75516-2.86234 3.36051-3.36059Z"></path></g></svg>