<?xml version="1.0" encoding="UTF-8"?><svg version="1.1" viewBox="0 0 24 24" xmlns="http://www.w3.org/2000/svg" xmlns:xlink="http://www.w3.org/1999/xlink"><g stroke-linecap="round" stroke-width="1.5" stroke="#323232" fill="none" stroke-linejoin="round"><circle cx="12" cy="12" r="2"></circle><rect width="16" height="3" x="4" y="18" rx=".285197" ry="0"></rect><path d="M12.7992 10.1635l4.63341-3.7734 -4.4015e-08 3.58544e-08c.431348-.351374.49618-.985896.144806-1.41724 -.0490293-.0601885-.104852-.114508-.166356-.161876l1.92539e-07 1.45223e-07c-3.96584-2.99125-9.60568-2.20118-12.5969 1.76466 -2.59059 3.43465-2.38625 8.22288.487529 11.4243"></path><path d="M19 18v-1.26541l9.59233e-14-6.25183e-07c0-.995302-.731862-1.83914-1.71716-1.9799l-5.28284-.75469"></path><path d="M18.3117 15.2314l1.65348e-07-3.74472e-07c1.25597-2.84447.748263-6.15918-1.30152-8.49731"></path></g><path fill="none" d="M0 0h24v24h-24Z"></path></svg>