<?xml version="1.0" encoding="UTF-8"?><svg version="1.1" viewBox="0 0 24 24" xmlns="http://www.w3.org/2000/svg" xmlns:xlink="http://www.w3.org/1999/xlink"><g fill="none"><path d="M0 0h24v24h-24Z"></path><path stroke="#323232" stroke-linecap="round" stroke-linejoin="round" stroke-width="1.5" d="M15.333 19l-1.666 1 -1.667-1 -1.667 1 -1.666-1 -1.667 1v-13h10v13Z"></path><path stroke="#323232" stroke-linecap="round" stroke-linejoin="round" stroke-width="1.5" d="M10 16h4"></path><path stroke="#323232" stroke-linecap="round" stroke-linejoin="round" stroke-width="1.5" d="M17 11h2l8.53747e-08-6.06341e-09c1.18111-.0838839 2.07379-1.10421 2-2.286v-3.428l1.15354e-07-1.84747e-06c.0737887-1.18179-.818889-2.20212-2-2.286h-14l-2.51255e-08 1.78444e-09c-1.18111.0838839-2.07379 1.10421-2 2.286v3.429l-6.89358e-09 1.1041e-07c-.0737747 1.1816.81904 2.20164 2 2.285h2"></path><polyline stroke="#323232" stroke-linecap="round" stroke-linejoin="round" stroke-width="1.5" points="13.75,11.013 11.731,13.031 10.75,12.053"></polyline></g></svg>