<?xml version="1.0" encoding="UTF-8"?><svg version="1.1" viewBox="0 0 24 24" xmlns="http://www.w3.org/2000/svg" xmlns:xlink="http://www.w3.org/1999/xlink"><g stroke-linecap="round" stroke-width="1.5" stroke="#323232" fill="none" stroke-linejoin="round"><path d="M12 15.6v3.6l-5.44358e-09-.000139723c1.50102e-07.994081.80578 1.79999 1.79986 1.80014h5.4l7.86875e-08-1.42109e-14c.994135-1.93565e-07 1.80006-.805865 1.80014-1.8v-3.6l5.4436e-09.000139995c0-.994081-.805779-1.79999-1.79986-1.80014h-5.40014l9.65011e-10-7.4607e-14c-.994081 7.73078e-05-1.79992.805919-1.8 1.8Z"></path><path d="M21 17h-9"></path><line x1="9" x2="3" y1="21" y2="21"></line><path d="M4 21v-16l2.30926e-14 3.01992e-07c-1.66785e-07-1.10457.89543-2 2-2h9l-8.74228e-08 1.77636e-15c1.10457-4.82823e-08 2 .89543 2 2v6"></path><rect width="7" height="5" x="7" y="6" rx=".27614" ry="0"></rect><line x1="7" x2="9" y1="14" y2="14"></line></g><path fill="none" d="M0 0h24v24h-24Z"></path></svg>