<?xml version="1.0" encoding="UTF-8"?><svg version="1.1" viewBox="0 0 24 24" xmlns="http://www.w3.org/2000/svg" xmlns:xlink="http://www.w3.org/1999/xlink"><g stroke-linecap="round" stroke-width="1.5" stroke="#323232" fill="none" stroke-linejoin="round"><path d="M17 15h2l-8.74228e-08-1.77636e-15c1.10457 4.82823e-08 2-.89543 2-2v-7 0c0-1.10457-.895431-2-2-2h-14l-8.74228e-08 1.77636e-15c-1.10457 4.82823e-08-2 .895431-2 2 0 0 0 8.88178e-16 0 8.88178e-16v7l2.30926e-14 3.01992e-07c1.66785e-07 1.10457.895431 2 2 2h2"></path><path d="M7 10h10v8 0c0 1.10457-.895431 2-2 2h-6l-8.74228e-08-3.55271e-15c-1.10457-4.82823e-08-2-.895431-2-2 0 0 0 0 0 0v-8Z"></path><line x1="13" x2="13" y1="10" y2="20"></line><line x1="17" x2="15" y1="7" y2="7"></line></g><path fill="none" d="M0 24v-24h24v24Z"></path></svg>