<?xml version="1.0" encoding="UTF-8"?><svg version="1.1" viewBox="0 0 24 24" xmlns="http://www.w3.org/2000/svg" xmlns:xlink="http://www.w3.org/1999/xlink"><!--Generated by IJSVG (https://github.com/iconjar/IJSVG)--><g stroke-linecap="round" stroke-width="1.5" stroke="#323232" fill="none" stroke-linejoin="round"><path d="M17,8h-10v11.857c0,0.552 0.448,1 1,1h8c0.552,0 1,-0.448 1,-1v-11.857Z"></path><path d="M13.4142,11.5858c0.781049,0.781049 0.781049,2.04738 0,2.82843c-0.781049,0.781049 -2.04738,0.781049 -2.82843,0c-0.781049,-0.781049 -0.781049,-2.04738 0,-2.82843c0.781049,-0.781049 2.04738,-0.781049 2.82843,0"></path><path d="M10,18h4"></path><path d="M17,12h2c1.105,0 2,-0.895 2,-2v-4c0,-1.105 -0.895,-2 -2,-2h-14c-1.105,0 -2,0.895 -2,2v4c0,1.105 0.895,2 2,2h2"></path></g><path fill="none" d="M0,0h24v24h-24Z"></path></svg>