<?xml version="1.0" encoding="UTF-8"?><svg version="1.1" viewBox="0 0 24 24" xmlns="http://www.w3.org/2000/svg" xmlns:xlink="http://www.w3.org/1999/xlink"><defs><path d="M0 24v-24h24v24Z" id="a"></path></defs><g stroke-linecap="round" stroke-width="1.5" stroke="#323232" fill="none" stroke-linejoin="round"><rect width="18" height="18" x="3" y="3" rx="2.20912" ry="0"></rect><path d="M10.958 12.372l3.03135e-08-3.04026e-06c-.0122305 1.22656.972181 2.2308 2.19874 2.24303 .597.00595292 1.17126-.228698 1.59325-.65103l1.571-1.571 -9.37517e-09 9.34972e-09c.868533-.866175.870444-2.27243.00426935-3.14097 -.529501-.530942-1.29116-.758859-2.02527-.606037"></path><path d="M13.042 11.628l-2.97127e-08 2.98001e-06c.0122305-1.22656-.972181-2.2308-2.19874-2.24303 -.597-.0059529-1.17126.228698-1.59325.65103l-1.571 1.571 -1.2542e-07 1.2508e-07c-.868531.866176-.870441 2.27243-.00426477 3.14097 .529501.53094 1.29116.758856 2.02527.606034"></path></g><use fill="none" xlink:href="#a"></use><use xlink:href="#a" fill="none"></use></svg>