<?xml version="1.0" encoding="UTF-8"?><svg version="1.1" viewBox="0 0 24 24" xmlns="http://www.w3.org/2000/svg" xmlns:xlink="http://www.w3.org/1999/xlink"><g fill="none"><path d="M0 0h24v24h-24Z"></path><path stroke="#323232" stroke-linecap="round" stroke-linejoin="round" stroke-width="1.5" d="M8 17.5l2 2 -2 2"></path><path stroke="#323232" stroke-linecap="round" stroke-linejoin="round" stroke-width="1.5" d="M10 19.5h-6"></path><path stroke="#323232" stroke-linecap="round" stroke-linejoin="round" stroke-width="1.5" d="M13.9975 20.2735l3.42075e-07-7.7882e-08c4.84546-1.10319 7.87917-5.92553 6.77598-10.771 -1.10319-4.84546-5.92553-7.87917-10.771-6.77598 -4.84546 1.10319-7.87917 5.92553-6.77598 10.771 .158146.694613.398222 1.36799.715186 2.00598"></path><path stroke="#323232" stroke-linecap="round" stroke-linejoin="round" stroke-width="1.5" d="M13 8.4936l-.668-.667 -9.73689e-08-8.80464e-08c-1.16011-1.04903-2.95097-.958989-4 .201117 -.975255 1.07852-.975255 2.72037 1.76093e-07 3.79888l.668.667"></path><path stroke="#323232" stroke-linecap="round" stroke-linejoin="round" stroke-width="1.5" d="M11 14.4936l.668.667 3.89353e-08 3.52074e-08c1.16011 1.04903 2.95097.958989 4-.201117 .975255-1.07852.975255-2.72037-7.04149e-08-3.79888l-.668-.667"></path><line x1="10.33" x2="13.67" y1="9.83" y2="13.16" stroke="#323232" stroke-linecap="round" stroke-linejoin="round" stroke-width="1.5"></line></g></svg>