<?xml version="1.0" encoding="UTF-8"?><svg version="1.1" viewBox="0 0 24 24" xmlns="http://www.w3.org/2000/svg" xmlns:xlink="http://www.w3.org/1999/xlink"><g fill="none"><path d="M24 24h-24v-24h24v24Z"></path><path stroke="#323232" stroke-linecap="round" stroke-linejoin="round" stroke-width="1.5" d="M11.021 12.981v0c.976.976 2.558.976 3.533 0l1.602-1.602c.771-.771.771-2.02 0-2.79l-.742-.742c-.771-.771-2.02-.771-2.79 0v0"></path><path stroke="#323232" stroke-linecap="round" stroke-linejoin="round" stroke-width="1.5" d="M3 19v-13c0-1.657 1.343-3 3-3h12c1.657 0 3 1.343 3 3v12c0 1.657-1.343 3-3 3h-13c-1.105 0-2-.895-2-2Z"></path><path stroke="#323232" stroke-linecap="round" stroke-linejoin="round" stroke-width="1.5" d="M12.979 11.019v0c-.976-.976-2.558-.976-3.533 0l-1.602 1.602c-.771.771-.771 2.02 0 2.79l.742.742c.771.771 2.02.771 2.79 0v0"></path></g></svg>