<?xml version="1.0" encoding="UTF-8"?><svg version="1.1" viewBox="0 0 24 24" xmlns="http://www.w3.org/2000/svg" xmlns:xlink="http://www.w3.org/1999/xlink"><defs><path d="M0 0h24v24h-24Z" id="a"></path></defs><g fill="none"><use xlink:href="#a"></use><use xlink:href="#a"></use><path stroke="#323232" stroke-linecap="round" stroke-linejoin="round" stroke-width="1.5" d="M11.086 18h1.828l4.63467e-08 2.79251e-09c.595388.0358737 1.10713-.417702 1.143-1.01309 .00260678-.0432642.00260678-.086646-5.58503e-09-.12991v-3.143l1.143-1.371 3.94905e-08-6.50082e-08c.126739-.208634.204998-.44307.229-.686v-2.514l1.28458e-08-2.13199e-07c.0358736-.595388-.417702-1.10713-1.01309-1.143 -.0432642-.00260677-.086646-.00260676-.12991 2.49853e-08h-4.572l-1.13026e-08-6.81013e-10c-.595388-.0358737-1.10713.417702-1.143 1.01309 -.00260678.0432642-.00260678.086646 6.32015e-10.12991v2.514l-1.52121e-08-1.53966e-07c.0240018.242929.102261.477366.229.686l1.143 1.371v3.143l-3.75035e-08 6.22438e-07c-.0358735.595388.417702 1.10713 1.01309 1.143 .0432643.00260678.0866464.00260676.129911-6.88013e-08Z"></path><circle cx="12" cy="3.714" r="1.714" stroke="#323232" stroke-linecap="round" stroke-linejoin="round" stroke-width="1.5"></circle><line x1="21" x2="21" y1="7.4" y2="17.6" stroke="#323232" stroke-linecap="round" stroke-linejoin="round" stroke-width="1.5"></line><line x1="3" x2="3" y1="17.6" y2="7.4" stroke="#323232" stroke-linecap="round" stroke-linejoin="round" stroke-width="1.5"></line><path stroke="#323232" stroke-linecap="round" stroke-linejoin="round" stroke-width="1.5" d="M21 7.4c0-1.661-3.154-3.041-7.321-3.339"></path><path stroke="#323232" stroke-linecap="round" stroke-linejoin="round" stroke-width="1.5" d="M10.321 4.061c-4.167.298-7.321 1.678-7.321 3.339"></path><path stroke="#323232" stroke-linecap="round" stroke-linejoin="round" stroke-width="1.5" d="M9.943 14.293c-3.978.352-6.943 1.697-6.943 3.307 0 1.878 4.029 3.4 9 3.4 4.971 0 9-1.522 9-3.4 0-1.61-2.965-2.955-6.943-3.307"></path></g></svg>