<?xml version="1.0" encoding="UTF-8"?><svg version="1.1" viewBox="0 0 24 24" xmlns="http://www.w3.org/2000/svg" xmlns:xlink="http://www.w3.org/1999/xlink"><g transform="matrix(1 0 0 1 24 24)"><rect width="24" height="24" fill="none" transform="matrix(-1 1.22465e-16 -1.22465e-16 -1 0 0)"></rect></g><g stroke-linecap="round" stroke-width="1.5" stroke="#323232" fill="none" stroke-linejoin="round"><path d="M7 9.5v10.5c-2.411-.538-4-1.454-4-2.494 0-1.657 4.029-3 9-3 4.971 0 9 1.343 9 3 0 1.04-1.589 1.956-4 2.494v-10.506c2.411-.538 4-1.454 4-2.494 0-1.657-4.029-3-9-3 -4.971 0-9 1.343-9 3 0 1.04 1.589 1.956 4 2.494"></path><path d="M9.551 9.476l-6.57822e-09 1.86177e-05c6.23127e-05-.180417.0418122-.35838.121992-.520002v0l-1.86655e-08 3.44278e-08c.696772-1.28517 2.30345-1.76215 3.58862-1.06538 .450833.244426.820956.614549 1.06538 1.06538v0l4.70726e-08 9.47769e-08c.162697.327577.162697.712422-4.71345e-08 1.04v0l2.11688e-08-3.9045e-08c-.696772 1.28517-2.30345 1.76215-3.58862 1.06538 -.450833-.244426-.820956-.614549-1.06538-1.06538v0l-2.65551e-08-5.34476e-08c-.0802846-.161589-.12204-.339582-.121992-.520017Z"></path><line x1="21" x2="21" y1="7" y2="17.51"></line><line x1="3" x2="3" y1="7" y2="17.51"></line><path d="M12 9.426h-2.18557e-09c-.0276142 1.20706e-09-.05.0223858-.05.05 1.20706e-09.0276142.0223858.05.05.05 .0276142-1.20706e-09.05-.0223858.05-.05v0c0-.0276142-.0223858-.05-.05-.05 0 0-1.77636e-15 0-1.77636e-15 0"></path></g></svg>