<svg id="Layer_3" data-name="Layer 3" xmlns="http://www.w3.org/2000/svg" viewBox="0 0 24 24"><path d="M19,14.09112h0a7.59751,7.59751,0,0,0-1.6091-4.66331h0a5.073,5.073,0,0,1-1.07315-3.11006h0A4.31775,4.31775,0,0,0,12,2h0A4.31775,4.31775,0,0,0,7.68225,6.31775h0A5.073,5.073,0,0,1,6.6091,9.42781h0A7.59751,7.59751,0,0,0,5,14.09112H5A6.95489,6.95489,0,0,0,12,21h0A6.95488,6.95488,0,0,0,19,14.09112Z" fill="none" stroke="#323232" stroke-linecap="round" stroke-linejoin="round" stroke-width="1.5"/><ellipse cx="12" cy="13.93225" rx="3" ry="3.25" fill="none" stroke="#323232" stroke-linecap="round" stroke-linejoin="round" stroke-width="1.5"/><rect width="24" height="24" fill="none"/></svg>