<?xml version="1.0" encoding="UTF-8"?><svg version="1.1" viewBox="0 0 24 24" xmlns="http://www.w3.org/2000/svg" xmlns:xlink="http://www.w3.org/1999/xlink"><g stroke-linecap="round" stroke-width="1.5" stroke="#323232" fill="none" stroke-linejoin="round"><rect width="6" height="4.2" x="9" y="11.94" rx=".662736" ry="0"></rect><path d="M10.2 11.94v-1.14l2.13163e-14 2.71792e-07c-1.50107e-07-.994113.805887-1.8 1.8-1.8v0l-7.86805e-08 1.77636e-15c.994113-4.3454e-08 1.8.805887 1.8 1.8 0 0 0 1.77636e-15 0 1.77636e-15v1.14"></path><path d="M4 13l9.14824e-14 1.20797e-06c6.67141e-07 4.41828 3.58172 8 8 8 4.41828-6.67141e-07 8-3.58172 8-8 -6.67141e-07-4.41828-3.58172-8-8-8h-7"></path><polyline points="7.5,7.5 5,5 7.5,2.5"></polyline></g><path fill="none" d="M0 0h24v24h-24Z"></path></svg>