<?xml version="1.0" encoding="UTF-8"?><svg version="1.1" viewBox="0 0 24 24" xmlns="http://www.w3.org/2000/svg" xmlns:xlink="http://www.w3.org/1999/xlink"><g stroke-linecap="round" stroke-width="1.5" stroke="#323232" fill="none" stroke-linejoin="round"><line x1="12" x2="5" y1="5" y2="5"></line><path d="M12 5l-3.49691e-07 7.99361e-15c4.41828-1.93129e-07 8 3.58172 8 8 1.93129e-07 4.41828-3.58172 8-8 8 -4.41828 1.93129e-07-8-3.58172-8-8"></path><polyline points="8,8 5,5 8,2"></polyline><path d="M12 12.927h-3.19093e-09c-.0403168 1.7623e-09-.073.0326832-.073.073 1.7623e-09.0403168.0326832.073.073.073 .0403168-1.7623e-09.073-.0326832.073-.073v3.19093e-09c0-.0403168-.0326832-.073-.073-.073"></path><path d="M15.556 12.927h-3.19093e-09c-.0403168 1.7623e-09-.073.0326832-.073.073 1.7623e-09.0403168.0326832.073.073.073 .0403168-1.7623e-09.073-.0326832.073-.073v0c0-.0403168-.0326832-.073-.073-.073 0 0 0 0 0 0"></path><path d="M8.445 12.927h-3.19093e-09c-.0403168 1.7623e-09-.073.0326832-.073.073 1.7623e-09.0403168.0326832.073.073.073 .0403168-1.7623e-09.073-.0326832.073-.073 0 0 0 0 0 0v0c0-.0403168-.0326832-.073-.073-.073 0 0 0 0 0 0"></path><path d="M11.928 9.445l-2.33614e-09-1.98573e-08c.00471063.0400406.0409887.0686813.0810293.0639707 .0335591-.00394809.0600225-.0304115.0639707-.0639706l1.90822e-09-1.622e-08c.00471063-.0400406-.02393-.0763187-.0639707-.0810293 -.0400406-.00471063-.0763187.02393-.0810293.0639707 -.000666665.0056667-.000666664.011392 3.81645e-09.0170587"></path><path d="M11.928 16.556l-3.21352e-10-6.83861e-06c6.08767e-09.0403168.0326832.073.073.073 .0403168-6.08767e-09.073-.0326832.073-.073 -6.08767e-09-.0403168-.0326832-.073-.073-.073 -.000331062 4.99902e-11-.00066212 2.25219e-06-.000993151 6.75627e-06l-1.7193e-09-2.40483e-11c-.0397606-.000556174-.0724438.0312253-.073.0709859 -9.39059e-06.000671329-9.39057e-06.00134276 4.80984e-11.00201409"></path></g><rect width="24" height="24" fill="none"></rect></svg>