<?xml version="1.0" encoding="UTF-8"?><svg version="1.1" viewBox="0 0 24 24" xmlns="http://www.w3.org/2000/svg" xmlns:xlink="http://www.w3.org/1999/xlink"><g stroke-linecap="round" stroke-width="1.5" stroke="#323232" fill="none" stroke-linejoin="round"><line x1="11.25" x2="15.25" y1="10" y2="14"></line><line x1="15.25" x2="11.25" y1="10" y2="14"></line><path d="M6.842 17.784l-3.017-3.543 -1.386e-07-1.62717e-07c-1.10008-1.29149-1.10008-3.19051 2.772e-07-4.482l3.017-3.543 -1.67637e-07 1.97011e-07c.656595-.771648 1.61881-1.2162 2.632-1.216h8.069l1.0757e-07-5.32907e-15c1.90925-8.34559e-08 3.457 1.54775 3.457 3.457 3.55271e-15 8.20506e-08 3.55271e-15 1.7668e-07 0 2.5873e-07v7.086 -1.0757e-07c0 1.90925-1.54775 3.457-3.457 3.457h-8.069l-1.4859e-10 2.84217e-14c-1.01319.000196105-1.9754-.444352-2.632-1.216Z"></path></g><path fill="none" d="M24 24h-24v-24h24Z"></path></svg>