<?xml version="1.0" encoding="UTF-8"?><svg version="1.1" viewBox="0 0 24 24" xmlns="http://www.w3.org/2000/svg" xmlns:xlink="http://www.w3.org/1999/xlink"><!--Generated by IJSVG (https://github.com/iconjar/IJSVG)--><g fill="none"><path d="M0,0h24v24h-24Z"></path><path stroke="#323232" stroke-linecap="round" stroke-linejoin="round" stroke-width="1.5" d="M18.064,7h-12.128c-0.527,0 -0.963,0.408 -0.998,0.933l-0.796,11.934c-0.077,1.154 0.839,2.133 1.996,2.133h11.724c1.157,0 2.073,-0.979 1.996,-2.133l-0.796,-11.934c-0.035,-0.525 -0.471,-0.933 -0.998,-0.933Z"></path><path stroke="#323232" stroke-linecap="round" stroke-linejoin="round" stroke-width="1.5" d="M15.001,9v-4v0v0c0,-1.657 -1.343,-3 -3,-3h-0.001c-1.657,0 -3,1.343 -3,3v0v0v4"></path><path stroke="#323232" stroke-linecap="round" stroke-linejoin="round" stroke-width="1.5" d="M12,13.535c0.23,-0.252 0.627,-0.535 1.232,-0.535c1.058,0 1.768,0.931 1.768,1.798c0,1.813 -2.407,3.202 -3,3.202c-0.593,0 -3,-1.389 -3,-3.202c0,-0.867 0.71,-1.798 1.768,-1.798c0.605,0 1.002,0.283 1.232,0.535Z"></path></g></svg>