<?xml version="1.0" encoding="UTF-8"?><svg version="1.1" viewBox="0 0 24 24" xmlns="http://www.w3.org/2000/svg" xmlns:xlink="http://www.w3.org/1999/xlink"><!--Generated by IJSVG (https://github.com/iconjar/IJSVG)--><g fill="none"><path d="M0,0h24v24h-24v-24Z"></path><path stroke="#323232" stroke-linecap="round" stroke-linejoin="round" stroke-width="1.5" d="M8.64,8v-1.8v0c0,-1.767 1.433,-3.2 3.2,-3.2v0c1.767,0 3.2,1.433 3.2,3.2v0v1.8"></path><path stroke="#323232" stroke-linecap="round" stroke-linejoin="round" stroke-width="1.5" d="M19.071,11l-0.16,-2.077c-0.04,-0.521 -0.474,-0.923 -0.997,-0.923h-12.148c-0.523,0 -0.957,0.402 -0.997,0.924l-0.763,9.923c-0.089,1.161 0.829,2.153 1.994,2.153h5"></path><path stroke="#323232" stroke-linecap="round" stroke-linejoin="round" stroke-width="1.5" d="M20.256,17.341l0.516,-0.516c0.464,1.097 0.251,2.411 -0.643,3.304c-0.717,0.717 -1.703,0.987 -2.631,0.828"></path><path stroke="#323232" stroke-linecap="round" stroke-linejoin="round" stroke-width="1.5" d="M15.744,18.659l-0.516,0.516c-0.464,-1.097 -0.251,-2.411 0.643,-3.304c0.761,-0.761 1.825,-1.017 2.801,-0.793"></path></g></svg>