<?xml version="1.0" encoding="UTF-8"?><svg version="1.1" viewBox="0 0 24 24" xmlns="http://www.w3.org/2000/svg" xmlns:xlink="http://www.w3.org/1999/xlink"><g fill="none"><path d="M0 0h24v24h-24Z"></path><line x1="10" x2="14" y1="3" y2="3" stroke="#323232" stroke-linecap="round" stroke-linejoin="round" stroke-width="1.5"></line><path stroke="#323232" stroke-linecap="round" stroke-linejoin="round" stroke-width="1.5" d="M3 7v0l4.57412e-14 6.03983e-07c-3.33571e-07-2.20914 1.79086-4 4-4h6.03983e-07"></path><rect width="9" height="7.875" x="7.5" y="8.969" rx=".60806" ry="0" stroke="#323232" stroke-linecap="round" stroke-linejoin="round" stroke-width="1.5"></rect><path stroke="#323232" stroke-linecap="round" stroke-linejoin="round" stroke-width="1.5" d="M13.772 8.969v-1.042 0c0-.978649-.793351-1.772-1.772-1.772v0l-7.74566e-08 1.77636e-15c-.978649 4.27781e-08-1.772.793352-1.772 1.772 0 0 0 0 0 0v1.042"></path><line x1="10" x2="14" y1="21" y2="21" stroke="#323232" stroke-linecap="round" stroke-linejoin="round" stroke-width="1.5"></line><line x1="21" x2="21" y1="10" y2="14" stroke="#323232" stroke-linecap="round" stroke-linejoin="round" stroke-width="1.5"></line><path stroke="#323232" stroke-linecap="round" stroke-linejoin="round" stroke-width="1.5" d="M7 21v0l-1.74846e-07-3.55271e-15c-2.20914-9.65645e-08-4-1.79086-4-4 0 0 0 0 0 0h-3.9968e-15"></path><line x1="3" x2="3" y1="10" y2="14" stroke="#323232" stroke-linecap="round" stroke-linejoin="round" stroke-width="1.5"></line><path stroke="#323232" stroke-linecap="round" stroke-linejoin="round" stroke-width="1.5" d="M17 3v0l-1.74846e-07 3.9968e-15c2.20914-9.65645e-08 4 1.79086 4 4v0"></path><path stroke="#323232" stroke-linecap="round" stroke-linejoin="round" stroke-width="1.5" d="M21 17v0 0c0 2.20914-1.79086 4-4 4v0"></path></g></svg>