<?xml version="1.0" encoding="UTF-8"?><svg version="1.1" viewBox="0 0 24 24" xmlns="http://www.w3.org/2000/svg" xmlns:xlink="http://www.w3.org/1999/xlink"><!--Generated by IJSVG (https://github.com/iconjar/IJSVG)--><g stroke-linecap="round" stroke-width="1.5" stroke="#323232" fill="none" stroke-linejoin="round"><path d="M13.975,9.5v-0.899c0,-1.156 -0.89,-2.101 -1.976,-2.101c-1.086,0 -1.975,0.945 -1.975,2.101v0.899"></path><path d="M15.091,9.5h-6.182c-0.515,0 -0.946,0.392 -0.995,0.905l-0.573,6c-0.057,0.587 0.405,1.095 0.995,1.095h7.328c0.59,0 1.052,-0.508 0.995,-1.095l-0.573,-6c-0.049,-0.513 -0.48,-0.905 -0.995,-0.905Z"></path><path d="M19,21h-13c-1.657,0 -3,-1.343 -3,-3v-12c0,-1.657 1.343,-3 3,-3h12c1.657,0 3,1.343 3,3v13c0,1.105 -0.895,2 -2,2Z"></path></g><path fill="none" d="M0,0h24v24h-24v-24Z"></path></svg>