<?xml version="1.0" encoding="UTF-8"?><svg version="1.1" viewBox="0 0 24 24" xmlns="http://www.w3.org/2000/svg" xmlns:xlink="http://www.w3.org/1999/xlink"><g transform="matrix(1 0 0 1 -4.97056 12)"><rect width="22.0943" height="8.11551" x=".95286" y="7.94224" fill="none" rx="2.24101" ry="0" stroke="#323232" stroke-linecap="round" stroke-linejoin="round" stroke-width="1.5" transform="matrix(.707107 -.707107 .707107 .707107 0 0)"></rect></g><g transform="matrix(1 0 0 1 28.9706 12)"><rect width="22.0943" height="8.11551" x=".95286" y="7.94224" fill="none" rx="2.24101" ry="0" stroke="#323232" stroke-linecap="round" stroke-linejoin="round" stroke-width="1.5" transform="matrix(-.707107 .707107 -.707107 -.707107 0 0)"></rect></g><g stroke-linecap="round" stroke-width="1.5" stroke="#323232" fill="none" stroke-linejoin="round"><line x1="17.74" x2="12" y1="12" y2="6.26"></line><line x1="6.26" x2="12" y1="12" y2="17.74"></line><path d="M4 9.95h-2.18557e-09c-.0276142 1.20706e-09-.05.0223858-.05.05 1.20706e-09.0276142.0223858.05.05.05 .0276142-1.20706e-09.05-.0223858.05-.05l2.5671e-09-4.25367e-08c.00157166-.0260425-.0182659-.0484283-.0443085-.05 -.00189547-.000114391-.00379612-.00011439-.00569159 5.27919e-09"></path><path d="M10.05 4v-4.44089e-16c0 .0276142-.0223858.05-.05.05 -.0276142 0-.05-.0223858-.05-.05 0-.0276142.0223858-.05.05-.05"></path><path d="M10 3.95h-2.18557e-09c.0276142-1.20706e-09.05.0223858.05.05 0 0 0 4.44089e-16 0 4.44089e-16"></path><path d="M7.05 3v-4.44089e-16c0 .0276142-.0223858.05-.05.05 -.0276142 0-.05-.0223858-.05-.05 0-.0276142.0223858-.05.05-.05"></path><path d="M7 2.95h-2.18557e-09c.0276142-1.20706e-09.05.0223858.05.05 0 0 0 0 0 0"></path><path d="M4.05 4v-4.44089e-16c0 .0276142-.0223858.05-.05.05 -.0276142 0-.05-.0223858-.05-.05 0-.0276142.0223858-.05.05-.05"></path><path d="M4 3.95h-2.18557e-09c.0276142-1.20706e-09.05.0223858.05.05 0 0 0 0 0 0"></path><path d="M3.05 7v0c0 .0276142-.0223858.05-.05.05 -.0276142 0-.05-.0223858-.05-.05 0-.0276142.0223858-.05.05-.05 0 0 4.44089e-16 0 4.44089e-16 0"></path><path d="M3 6.95h-2.18557e-09c.0276142-1.20706e-09.05.0223858.05.05"></path><path d="M4.05 10v1.77636e-15c0 .0276142-.0223858.05-.05.05 -.0276142 0-.05-.0223858-.05-.05 0-.0276142.0223858-.05.05-.05 0 0 8.88178e-16 0 8.88178e-16 0"></path><path d="M4 9.95h-2.18557e-09c.0276142-1.20706e-09.05.0223858.05.05 0 0 0 0 0 0"></path><path d="M20 14.05h-2.18557e-09c.0276142 1.20706e-09.05-.0223858.05-.05 1.20706e-09-.0276142-.0223858-.05-.05-.05 -.0276142-1.20706e-09-.05.0223858-.05.05l4.01752e-10-6.65694e-09c-.00157169.0260425.0182659.0484283.0443084.05 .00189547.000114394.00379612.000114394.00569159 8.03505e-10"></path><path d="M13.95 20l1.77636e-15-7.54979e-09c4.16963e-09-.0276142.0223858-.05.05-.05 .0276142 4.16964e-09.05.0223858.05.05 -4.16963e-09.0276142-.0223858.05-.05.05"></path><path d="M14 20.05h-2.18557e-09c-.0276142-1.20706e-09-.05-.0223858-.05-.05 0 0 0-3.55271e-15 0-3.55271e-15"></path><path d="M16.95 21v-7.54979e-09c4.16964e-09-.0276142.0223858-.05.05-.05 .0276142 4.16964e-09.05.0223858.05.05 -4.16964e-09.0276142-.0223858.05-.05.05"></path><path d="M17 21.05h-2.18557e-09c-.0276142-1.20706e-09-.05-.0223858-.05-.05 0 0 0-3.55271e-15 0-3.55271e-15"></path><path d="M19.95 20v-7.54979e-09c4.16964e-09-.0276142.0223858-.05.05-.05 .0276142 4.16964e-09.05.0223858.05.05 -4.16964e-09.0276142-.0223858.05-.05.05"></path><path d="M20 20.05h-2.18557e-09c-.0276142-1.20706e-09-.05-.0223858-.05-.05 0 0 0-3.55271e-15 0-3.55271e-15"></path><path d="M20.95 17v-7.54979e-09c4.16964e-09-.0276142.0223858-.05.05-.05 .0276142 4.16964e-09.05.0223858.05.05 -4.16964e-09.0276142-.0223858.05-.05.05"></path><path d="M21 17.05h-2.18557e-09c-.0276142-1.20706e-09-.05-.0223858-.05-.05 0 0 0-3.55271e-15 0-3.55271e-15"></path><path d="M19.95 14v-7.54979e-09c4.16964e-09-.0276142.0223858-.05.05-.05 .0276142 4.16963e-09.05.0223858.05.05 -4.16964e-09.0276142-.0223858.05-.05.05"></path><path d="M20 14.05h-2.18557e-09c-.0276142-1.20706e-09-.05-.0223858-.05-.05 0 0 0-1.77636e-15 0-1.77636e-15"></path></g><path fill="none" d="M0 0h24v24h-24Z"></path></svg>