<svg viewBox="0 0 24 24" xmlns="http://www.w3.org/2000/svg"><g stroke-linecap="round" stroke-width="1.5" stroke="#323232" fill="none" stroke-linejoin="round"><path d="M20.58 9.35l0 0c.27.85.41 1.74.41 2.64v0c0 4.97-4.03 9-9 9 -4.98 0-9-4.03-9-9 0-4.98 4.02-9 9-9l-.01-.001c.89 0 1.79.14 2.64.41"/><path d="M21 4.274l-1.99 1.98 -1.28-1.28"/><path d="M9 15.75v-4.58"/><path d="M12 15.75v-4.58"/><path d="M15 15.75v-4.58"/><path d="M8 15.75h8"/><path d="M8 11.17h8V9.38l-4-1.64 -4 1.63Z"/></g><path fill="none" d="M24 0H0v24h24Z"/></svg>