<svg id="Layer_3" data-name="Layer 3" xmlns="http://www.w3.org/2000/svg" viewBox="0 0 24 24"><path d="M13.5,17.25h2a.5.5,0,0,1,.5.5V21H13.5a.5.5,0,0,1-.5-.5V17.75A.5.5,0,0,1,13.5,17.25Z" fill="none" stroke="#323232" stroke-linecap="round" stroke-linejoin="round" stroke-width="1.5"/><path d="M16.5,13h2a.5.5,0,0,1,.5.5V21H16V13.5A.5.5,0,0,1,16.5,13Z" fill="none" stroke="#323232" stroke-linecap="round" stroke-linejoin="round" stroke-width="1.5"/><path d="M19.5,15.25h2a.5.5,0,0,1,.5.5V20.5a.5.5,0,0,1-.5.5H19V15.75A.5.5,0,0,1,19.5,15.25Z" fill="none" stroke="#323232" stroke-linecap="round" stroke-linejoin="round" stroke-width="1.5"/><path d="M8.357,17V8.934" fill="none" stroke="#323232" stroke-linecap="round" stroke-linejoin="round" stroke-width="1.5"/><path d="M4,8.934V17" fill="none" stroke="#323232" stroke-linecap="round" stroke-linejoin="round" stroke-width="1.5"/><path d="M10,17H3L2,19v1h8" fill="none" stroke="#323232" stroke-linecap="round" stroke-linejoin="round" stroke-width="1.5"/><polygon points="20 5.928 11 2 2 5.928 2 8.934 20 8.934 20 5.928" fill="none" stroke="#323232" stroke-linecap="round" stroke-linejoin="round" stroke-width="1.5"/><rect width="24" height="24" fill="none"/></svg>