<?xml version="1.0" encoding="UTF-8"?><svg version="1.1" viewBox="0 0 24 24" xmlns="http://www.w3.org/2000/svg" xmlns:xlink="http://www.w3.org/1999/xlink"><g fill="none"><path d="M0 0h24v24h-24Z"></path><circle cx="16" cy="6" r="4" stroke="#323232" stroke-linecap="round" stroke-linejoin="round" stroke-width="1.5"></circle><line x1="21" x2="18.83" y1="11" y2="8.83" stroke="#323232" stroke-linecap="round" stroke-linejoin="round" stroke-width="1.5"></line><path stroke="#323232" stroke-linecap="round" stroke-linejoin="round" stroke-width="1.5" d="M15 21h3l-1.31134e-07-3.55271e-15c1.65685 7.24234e-08 3-1.34315 3-3v-3"></path><path stroke="#323232" stroke-linecap="round" stroke-linejoin="round" stroke-width="1.5" d="M4 21v-4.58"></path><path stroke="#323232" stroke-linecap="round" stroke-linejoin="round" stroke-width="1.5" d="M7 21v-4.58"></path><path stroke="#323232" stroke-linecap="round" stroke-linejoin="round" stroke-width="1.5" d="M10 21v-4.58"></path><path stroke="#323232" stroke-linecap="round" stroke-linejoin="round" stroke-width="1.5" d="M3 21h8"></path><path stroke="#323232" stroke-linecap="round" stroke-linejoin="round" stroke-width="1.5" d="M3 16.42h8v-1.783l-4-1.637 -4 1.637Z"></path><path stroke="#323232" stroke-linecap="round" stroke-linejoin="round" stroke-width="1.5" d="M3 11v-4l3.41949e-14 4.52987e-07c-2.50178e-07-1.65685 1.34315-3 3-3h2"></path></g></svg>