<?xml version="1.0" encoding="UTF-8"?><svg version="1.1" viewBox="0 0 24 24" xmlns="http://www.w3.org/2000/svg" xmlns:xlink="http://www.w3.org/1999/xlink"><defs><path d="M3 12h7" id="b"></path><path d="M13 6h-10v-1.6l5-2.4 5 2.4v1.6Z" id="a"></path></defs><g stroke-linecap="round" stroke-width="1.5" stroke="#323232" fill="none" stroke-linejoin="round"><use xlink:href="#a"></use><use xlink:href="#b"></use><use xlink:href="#a"></use><use xlink:href="#b"></use><path d="M4 12v-6"></path><path d="M7 12v-6"></path><path d="M10 12v-6"></path><path d="M9 21h-4.286c-.946 0-1.714-.768-1.714-1.714v-3.286"></path><path d="M16 4h3.286c.946 0 1.714.768 1.714 1.714v3.286"></path><path d="M22.5 16.5l-1.5-1.5 -1.5 1.5"></path><path d="M11.5 17.5l1.5 1.5 1.5-1.5"></path><path d="M13 19v-4c0-1.105.895-2 2-2h3"></path><path d="M21 15v4c0 1.1-.9 2-2 2h-2.989"></path></g><path fill="none" d="M0 0h24v24h-24v-24Z"></path></svg>