<?xml version="1.0" encoding="UTF-8"?><svg version="1.1" viewBox="0 0 24 24" xmlns="http://www.w3.org/2000/svg" xmlns:xlink="http://www.w3.org/1999/xlink"><g fill="none"><path d="M0 0h24v24h-24v-24Z"></path><path stroke="#323232" stroke-linecap="round" stroke-linejoin="round" stroke-width="1.5" d="M7.901 15.8l-1.75 1.751 -1.05-1.05"></path><path stroke="#323232" stroke-linecap="round" stroke-linejoin="round" stroke-width="1.5" d="M2.248 17.232l.598.782 .129.973c.072.54.496.965 1.036 1.037l.976.13 .781.597c.432.33 1.032.331 1.465 0l.782-.597h-.002l.974-.129c.54-.072.965-.496 1.037-1.036l.13-.976c0 0 .302-.395.598-.781 .33-.432.33-1.032 0-1.464l-.598-.782 -.129-.973c-.072-.54-.496-.965-1.036-1.037l-.976-.13 -.781-.597c-.432-.33-1.032-.331-1.465 0l-.782.597h.001l-.974.129c-.54.072-.965.496-1.037 1.036l-.13.976c0 0-.302.395-.598.781 -.33.432-.33 1.032.001 1.464Z"></path><path stroke="#323232" stroke-linecap="round" stroke-linejoin="round" stroke-width="1.5" d="M15.643 8.934v8.066"></path><path stroke="#323232" stroke-linecap="round" stroke-linejoin="round" stroke-width="1.5" d="M20 17v-8.066"></path><path stroke="#323232" stroke-linecap="round" stroke-linejoin="round" stroke-width="1.5" d="M14 20h8v-1l-1-2h-7"></path><polygon stroke="#323232" stroke-linecap="round" stroke-linejoin="round" stroke-width="1.5" points="4,8.934 22,8.934 22,5.928 13,2 4,5.928"></polygon></g></svg>