<?xml version="1.0" encoding="UTF-8"?><svg version="1.1" viewBox="0 0 24 24" xmlns="http://www.w3.org/2000/svg" xmlns:xlink="http://www.w3.org/1999/xlink"><!--Generated by IJSVG (https://github.com/iconjar/IJSVG)--><g stroke-linecap="round" stroke-width="1.5" stroke="#323232" fill="none" stroke-linejoin="round"><path d="M4,18v-9"></path><path d="M20,9v9"></path><path d="M8,9v9"></path><path d="M12,9v9"></path><path d="M16,9v9"></path><path d="M12,6.275c-0.069,0 -0.125,0.056 -0.124,0.125c0,0.069 0.056,0.125 0.125,0.125c0.069,0 0.125,-0.056 0.125,-0.125c-0.001,-0.069 -0.057,-0.125 -0.126,-0.125"></path><path d="M21.5,9h-19v-2.639l9.5,-3.361l9.5,3.361Z"></path><path d="M21,18h-18l-1,1v2h20v-2Z"></path></g><path fill="none" d="M0,0h24v24h-24Z"></path></svg>