<?xml version="1.0" encoding="UTF-8"?><svg version="1.1" viewBox="0 0 24 24" xmlns="http://www.w3.org/2000/svg" xmlns:xlink="http://www.w3.org/1999/xlink"><!--Generated by IJSVG (https://github.com/iconjar/IJSVG)--><g stroke-linecap="round" stroke-width="1.5" stroke="#323232" fill="none" stroke-linejoin="round"><path d="M19.5,11.25l1.5,-1.5l1.5,1.5"></path><path d="M4.5,12.75l-1.5,1.5l-1.5,-1.5"></path><path d="M9,15.5v-4.58"></path><path d="M12,15.5v-4.58"></path><path d="M15,15.5v-4.58"></path><path d="M8,15.5h8"></path><path d="M8,9.137v1.783h8v-1.783l-4,-1.637Z"></path><path d="M3.227,13.988c-0.144,-0.64 -0.227,-1.304 -0.227,-1.988c0,-4.97 4.03,-9 9,-9c3.025,0 5.69,1.501 7.322,3.79"></path><path d="M20.777,10.008c0.144,0.64 0.227,1.304 0.227,1.988c0,4.97 -4.03,9 -9,9c-3.026,0 -5.691,-1.501 -7.322,-3.79"></path></g><path fill="none" d="M0,0h24v24h-24Z"></path></svg>