<?xml version="1.0" encoding="UTF-8"?><svg version="1.1" viewBox="0 0 24 24" xmlns="http://www.w3.org/2000/svg" xmlns:xlink="http://www.w3.org/1999/xlink"><g fill="none"><path d="M0 0h24v24h-24Z"></path><path stroke="#323232" stroke-linecap="round" stroke-linejoin="round" stroke-width="1.5" d="M15.643 9v8"></path><path stroke="#323232" stroke-linecap="round" stroke-linejoin="round" stroke-width="1.5" d="M20 17v-8"></path><path stroke="#323232" stroke-linecap="round" stroke-linejoin="round" stroke-width="1.5" d="M14 20h8v-1l-1-2h-7"></path><polygon stroke="#323232" stroke-linecap="round" stroke-linejoin="round" stroke-width="1.5" points="4,9 22,9 22,5.928 13,2 4,5.928 4,9"></polygon><path stroke="#323232" stroke-linecap="round" stroke-linejoin="round" stroke-width="1.5" d="M5.274 17.725l2.45-2.45"></path><path stroke="#323232" stroke-linecap="round" stroke-linejoin="round" stroke-width="1.5" d="M8.123 18.055l1.3609e-09 1.38896e-09c.0189394.01933.0186228.0503534-.000707146.0692929 -.01933.0189394-.0503534.0186228-.0692929-.000707146 -.0186667-.0190516-.0186667-.0495341 2.72179e-09-.0685857l-3.76675e-09 4.01351e-09c.0181415-.01933.0485182-.0202934.0678481-.00215187 .000739852.000694364.0014575.00141201.00215186.00215186"></path><path stroke="#323232" stroke-linecap="round" stroke-linejoin="round" stroke-width="1.5" d="M11 16.5v0c0 2.48528-2.01472 4.5-4.5 4.5 -2.48528 0-4.5-2.01472-4.5-4.5 0-2.48528 2.01472-4.5 4.5-4.5l5.95123e-08-9.27916e-11c2.48141-.00386898 4.49613 2.00458 4.5 4.48599 7.28186e-06.0046703 7.2818e-06.00934062-1.85583e-10.0140109Z"></path><path stroke="#323232" stroke-linecap="round" stroke-linejoin="round" stroke-width="1.5" d="M4.877 14.945l-2.70846e-10-2.76433e-10c-.0189394-.01933-.0186228-.0503534.000707144-.0692929 .01933-.0189394.0503534-.0186228.0692929.000707144 .0186667.0190516.0186667.0495341-5.41693e-10.0685857l8.9508e-10-9.53715e-10c-.0181415.01933-.0485182.0202934-.0678481.00215187 -.000739852-.000694364-.0014575-.00141201-.00215186-.00215186"></path></g></svg>