<svg id="Layer_3" data-name="Layer 3" xmlns="http://www.w3.org/2000/svg" viewBox="0 0 24 24"><g id="Layer_22" data-name="Layer 22"><path id="a" d="M0,0H24V24H0Z" fill="none"/><path id="a-2" d="M0,0H24V24H0Z" fill="none"/><path d="M7.5,3H6A3,3,0,0,0,3,6V7.5" fill="none" stroke="#323232" stroke-linecap="round" stroke-linejoin="round" stroke-width="1.5"/><path d="M3,16.5V18a3,3,0,0,0,3,3H7.5" fill="none" stroke="#323232" stroke-linecap="round" stroke-linejoin="round" stroke-width="1.5"/><path d="M16.5,21H18a3,3,0,0,0,3-3V16.5" fill="none" stroke="#323232" stroke-linecap="round" stroke-linejoin="round" stroke-width="1.5"/><path d="M21,7.5V6a3,3,0,0,0-3-3H16.5" fill="none" stroke="#323232" stroke-linecap="round" stroke-linejoin="round" stroke-width="1.5"/><line x1="3" y1="12" x2="21" y2="12" fill="none" stroke="#323232" stroke-linecap="round" stroke-linejoin="round" stroke-width="1.5"/><path d="M17,9V8.5A1.5,1.5,0,0,0,15.5,7h-7A1.5,1.5,0,0,0,7,8.5V9" fill="none" stroke="#323232" stroke-linecap="round" stroke-linejoin="round" stroke-width="1.5"/><path d="M7,15v.5A1.5,1.5,0,0,0,8.5,17h7A1.5,1.5,0,0,0,17,15.5V15" fill="none" stroke="#323232" stroke-linecap="round" stroke-linejoin="round" stroke-width="1.5"/></g></svg>