<svg xmlns="http://www.w3.org/2000/svg" viewBox="0 0 24 24"><g id="Layer_2" data-name="Layer 2"><path d="M7.93188,7.74957a8.92915,8.92915,0,0,1,.42383.90576" fill="none" stroke="#323232" stroke-linecap="round" stroke-linejoin="round" stroke-width="1.5"/><path d="M8.97614,11.5a9.05014,9.05014,0,0,1,0,1" fill="none" stroke="#323232" stroke-linecap="round" stroke-linejoin="round" stroke-width="1.5"/><path d="M8.35571,15.3446a8.94045,8.94045,0,0,1-.42383.90577" fill="none" stroke="#323232" stroke-linecap="round" stroke-linejoin="round" stroke-width="1.5"/><circle cx="12" cy="12" r="9" fill="none" stroke="#323232" stroke-linecap="round" stroke-linejoin="round" stroke-width="1.5"/><path d="M16.06812,16.25043a8.92915,8.92915,0,0,1-.42383-.90576" fill="none" stroke="#323232" stroke-linecap="round" stroke-linejoin="round" stroke-width="1.5"/><path d="M15.02386,12.5a9.05014,9.05014,0,0,1,0-1" fill="none" stroke="#323232" stroke-linecap="round" stroke-linejoin="round" stroke-width="1.5"/><path d="M15.64429,8.6554a8.94045,8.94045,0,0,1,.42383-.90577" fill="none" stroke="#323232" stroke-linecap="round" stroke-linejoin="round" stroke-width="1.5"/><path d="M24,0H0V24H24Z" fill="none"/></g></svg>