<svg viewBox="0 0 24 24" xmlns="http://www.w3.org/2000/svg"><g fill="none"><path d="M0 0h24v24H0Z"/><g stroke-linecap="round" stroke-width="1.5" stroke="#323232" fill="none" stroke-linejoin="round"><path d="M13 20.938l0-.01c-.34.04-.67.06-1 .06l-.01-.001c-4.98-.01-9-4.03-9-9.01 0-4.98 4.02-9 9-9 4.97 0 9 4.02 8.99 9l-.01 0c-.01.33-.03.66-.07.99"/><path d="M21 18l-2.5 2.5L17 19"/><path d="M9.05 10.25h6.4l-.7 3.5h-5l-1-5H7.5"/><path d="M14.28 16.21l-.01-.01c.01.01.01.05 0 .07 -.02.01-.06.01-.08 0 -.02-.02-.02-.06-.01-.08 0-.01 0-.01 0-.01l-.01 0c.01-.02.05-.02.07-.01"/><path d="M10.28 16.21l-.01-.01c.01.01.01.05 0 .07 -.02.01-.06.01-.08 0 -.02-.02-.02-.06-.01-.08 0-.01 0-.01 0-.01l-.01 0c.01-.02.05-.02.07-.01"/></g></g></svg>