<svg id="Layer_3" data-name="Layer 3" xmlns="http://www.w3.org/2000/svg" viewBox="0 0 24 24"><path d="M0,0H24V24H0Z" fill="none"/><path d="M10,8.5l-.752,2" fill="none" stroke="#323232" stroke-linecap="round" stroke-linejoin="round" stroke-width="1.5"/><path d="M20.582,9.353A8.839,8.839,0,0,1,21,12a9,9,0,1,1-9-9,8.839,8.839,0,0,1,2.647.418" fill="none" stroke="#323232" stroke-linecap="round" stroke-linejoin="round" stroke-width="1.5"/><polyline points="21 4.274 19.012 6.262 17.737 4.987" fill="none" stroke="#323232" stroke-linecap="round" stroke-linejoin="round" stroke-width="1.5"/><path d="M15,10.5l-.752-2" fill="none" stroke="#323232" stroke-linecap="round" stroke-linejoin="round" stroke-width="1.5"/><path d="M9.00039,10.5a1,1,0,0,0-.97734,1.21166l.64969,3A1,1,0,0,0,9.65008,15.5h4.69979a1,1,0,0,0,.97735-.78833l.64973-3A1,1,0,0,0,14.99961,10.5Z" fill="none" stroke="#323232" stroke-linecap="round" stroke-linejoin="round" stroke-width="1.5"/></svg>