<?xml version="1.0" encoding="UTF-8"?><svg version="1.1" viewBox="0 0 24 24" xmlns="http://www.w3.org/2000/svg" xmlns:xlink="http://www.w3.org/1999/xlink"><g fill="none"><path d="M0 0h24v24h-24Z"></path><path stroke="#323232" stroke-linecap="round" stroke-linejoin="round" stroke-width="1.5" d="M12 21h-7l-8.74228e-08-3.55271e-15c-1.10457-4.82823e-08-2-.895431-2-2 0 0 0 0 0 0v-10.5l1.59872e-14 2.26494e-07c-1.25089e-07-.828427.671573-1.5 1.5-1.5h13l-1.78873e-08 2.66454e-15c.828427-1.34968e-07 1.5.671573 1.5 1.5 1.42109e-14 7.64678e-08 2.13163e-14 1.50026e-07 2.13163e-14 2.26494e-07v3.5"></path><path stroke="#323232" stroke-linecap="round" stroke-linejoin="round" stroke-width="1.5" d="M7 6.75v0l4.26326e-14 5.66234e-07c-3.12723e-07-2.07107 1.67893-3.75 3.75-3.75h.5l-4.47183e-08 6.66134e-15c2.07107-3.3742e-07 3.75 1.67893 3.75 3.75 3.19744e-14 1.9117e-07 4.61853e-14 3.75065e-07 4.9738e-14 5.66234e-07v0"></path><line x1="15" x2="15" y1="6.75" y2="7" stroke="#323232" stroke-linecap="round" stroke-linejoin="round" stroke-width="1.5"></line><path stroke="#323232" stroke-linecap="round" stroke-linejoin="round" stroke-width="1.5" d="M19.583 16.269h1.417v-1.415"></path><path stroke="#323232" stroke-linecap="round" stroke-linejoin="round" stroke-width="1.5" d="M16.42 19.33h-1.414v1.415"></path><path stroke="#323232" stroke-linecap="round" stroke-linejoin="round" stroke-width="1.5" d="M21 18.866l4.0111e-08-1.21226e-07c-.149314.451267-.400853.861943-.735 1.2l1.9915e-08-1.99103e-08c-1.24983 1.24953-3.27595 1.24929-4.52548-.000538769 -.216631-.216682-.401019-.463354-.547517-.732461"></path><path stroke="#323232" stroke-linecap="round" stroke-linejoin="round" stroke-width="1.5" d="M20.812 16.268l5.8817e-08 1.08043e-07c-.845002-1.55221-2.78833-2.12552-4.34054-1.28052 -.269107.146498-.515779.330886-.732461.547517l1.64872e-07-1.66461e-07c-.334833.338062-.587353.748663-.738 1.2"></path></g></svg>