<svg xmlns="http://www.w3.org/2000/svg" viewBox="0 0 24 24"><g id="Layer_2" data-name="Layer 2"><path d="M0,24V0H24V24Z" fill="none"/><circle cx="19" cy="5" r="2" fill="none" stroke="#323232" stroke-linecap="round" stroke-linejoin="round" stroke-width="1.5"/><path d="M14,3.26465A8.81891,8.81891,0,0,0,12,3a9,9,0,1,0,9,9,8.81847,8.81847,0,0,0-.26465-2" fill="none" stroke="#323232" stroke-linecap="round" stroke-linejoin="round" stroke-width="1.5"/><polyline points="7.65 8.75 8.908 8.75 9.909 13.75 14.954 13.75 15.65 10.25 9.208 10.25" fill="none" stroke="#323232" stroke-linecap="round" stroke-linejoin="round" stroke-width="1.5"/><path d="M14.478,16.16479a.05.05,0,1,1-.00029-.00029l.00029.00029" fill="none" stroke="#323232" stroke-linecap="round" stroke-linejoin="round" stroke-width="1.5"/><path d="M10.45,16.16479a.05.05,0,1,1-.00029-.00029l.00029.00029" fill="none" stroke="#323232" stroke-linecap="round" stroke-linejoin="round" stroke-width="1.5"/></g></svg>