<?xml version="1.0" encoding="UTF-8"?><svg version="1.1" viewBox="0 0 24 24" xmlns="http://www.w3.org/2000/svg" xmlns:xlink="http://www.w3.org/1999/xlink"><!--Generated by IJSVG (https://github.com/iconjar/IJSVG)--><g stroke-linecap="round" stroke-width="1.5" stroke="#323232" fill="none" stroke-linejoin="round"><path d="M7,14h10"></path><path d="M12,14v7.25"></path><path d="M15.909,11.184v-3c0,-0.552 -0.448,-1 -1,-1h-6c-0.552,0 -1,0.448 -1,1v3"></path><path fill-rule="evenodd" d="M19,17h-14c-1.105,0 -2,-0.895 -2,-2v-10c0,-1.105 0.895,-2 2,-2h14c1.105,0 2,0.895 2,2v10c0,1.105 -0.895,2 -2,2Z"></path><path d="M8,14l1.04,7.25"></path><path d="M15.97,14l-1,7.25"></path><path d="M15.09,20.34h-6.18"></path></g><path fill="none" fill-rule="evenodd" d="M0,0h24v24h-24Z"></path></svg>