<?xml version="1.0" encoding="UTF-8"?><svg version="1.1" viewBox="0 0 24 24" xmlns="http://www.w3.org/2000/svg" xmlns:xlink="http://www.w3.org/1999/xlink"><g stroke-linecap="round" stroke-width="1.5" stroke="#323232" fill="none" stroke-linejoin="round"><path d="M17 21c-2.209 0-4-1.791-4-4 0-2.209 1.791-4 4-4 2.21 0 4 1.791 4 4 0 2.209-1.79 4-4 4"></path><path d="M18.445 13.269l.491-1.801c.308-1.131-.543-2.246-1.715-2.246h-12.442c-1.172 0-2.024 1.115-1.715 2.246l1.697 6.222c.211.773.913 1.31 1.715 1.31h7.06"></path><path d="M17.222 9.222h-.001l-4.89-5.612c-.709-.814-1.964-.814-2.671.001 -1.646 1.898-3.489 4.039-4.881 5.611h-.001 .001"></path><path d="M17.909 16.091l-1.818 1.818"></path><path d="M16.091 16.091l1.818 1.818"></path></g><path fill="none" d="M0 0h24v24h-24v-24Z"></path></svg>