<?xml version="1.0" encoding="UTF-8"?><svg version="1.1" viewBox="0 0 24 24" xmlns="http://www.w3.org/2000/svg" xmlns:xlink="http://www.w3.org/1999/xlink"><g fill="none"><path d="M24 24h-24v-24h24v24Z"></path><path stroke="#323232" stroke-linecap="round" stroke-linejoin="round" stroke-width="1.5" d="M11.863 8.523l-2.955 2.955 -1.771-1.774"></path><path stroke="#323232" stroke-linecap="round" stroke-linejoin="round" stroke-width="1.5" d="M20 10v-3c0-2.209-1.791-4-4-4h-9c-2.209 0-4 1.791-4 4v6c0 2.209 1.791 4 4 4h4"></path><path stroke="#323232" stroke-linecap="round" stroke-linejoin="round" stroke-width="1.5" d="M14.56 14.509h6.44l-.704 3.522h-5.031l-1.007-5.031h-1.258"></path><path stroke="#323232" stroke-linecap="round" stroke-linejoin="round" stroke-width="1.5" d="M19.828 20.413c.02.02.02.051 0 .071 -.02.02-.051.02-.071 0 -.02-.02-.02-.051 0-.071 .019-.02.052-.02.071 0"></path><path stroke="#323232" stroke-linecap="round" stroke-linejoin="round" stroke-width="1.5" d="M15.803 20.413c.02.02.02.051 0 .071 -.02.02-.051.02-.071 0 -.02-.02-.02-.051 0-.071 .019-.02.051-.02.071 0"></path></g></svg>