<?xml version="1.0" encoding="UTF-8"?><svg version="1.1" viewBox="0 0 24 24" xmlns="http://www.w3.org/2000/svg" xmlns:xlink="http://www.w3.org/1999/xlink"><g fill="none"><path d="M24 24h-24v-24h24Z"></path><path stroke="#323232" stroke-linecap="round" stroke-linejoin="round" stroke-width="1.5" d="M16 21.5l-2-2 2-2"></path><path stroke="#323232" stroke-linecap="round" stroke-linejoin="round" stroke-width="1.5" d="M20 19.5h-6"></path><path stroke="#323232" stroke-linecap="round" stroke-linejoin="round" stroke-width="1.5" d="M20.058 15.5l-1.5841e-07 3.19113e-07c2.2101-4.45219.392528-9.85303-4.05966-12.0631 -4.45219-2.2101-9.85303-.392528-12.0631 4.05966 -2.2101 4.45219-.392528 9.85303 4.05966 12.0631 .637767.316593 1.31085.556383 2.00513.714342"></path><path stroke="#323232" stroke-linecap="round" stroke-linejoin="round" stroke-width="1.5" d="M13.994 14.5h-3.989l8.05674e-10-1.66978e-13c-.451072 9.20917e-05-.846368-.301808-.965-.737l-.5-1.851 4.92495e-10 1.814e-09c-.144706-.53299.170061-1.08237.703052-1.22708 .0837708-.0227436.170146-.0344832.256948-.0349228h5l4.23438e-08-8.64198e-12c.552285-.000112738 1.00009.447511 1.0002.999796 1.81491e-05.0889096-.0118209.177425-.0352042.263204l-.505 1.851 -6.57392e-09 2.40179e-08c-.119106.435154-.51484.736666-.966.736Z"></path><path stroke="#323232" stroke-linecap="round" stroke-linejoin="round" stroke-width="1.5" d="M9.136 10.725l2.051-2.813 -1.11264e-08 1.52314e-08c.325775-.44597.951398-.543407 1.39737-.217632 .0833401.0608788.156754.134292.217632.217632l2.058 2.814"></path></g></svg>