<svg xmlns="http://www.w3.org/2000/svg" viewBox="0 0 24 24"><g id="Layer_2" data-name="Layer 2"><path d="M0,0H24V24H0Z" fill="none"/><line x1="12" y1="20.5" x2="12" y2="3" fill="none" stroke="#323232" stroke-linecap="round" stroke-linejoin="round" stroke-width="1.5"/><circle cx="12" cy="12" r="9" fill="none" stroke="#323232" stroke-linecap="round" stroke-linejoin="round" stroke-width="1.5"/><path d="M19.71,16.62549a8.72937,8.72937,0,0,0-1.25415-1.59863l-1.49133-1.49134a4.99993,4.99993,0,0,1,0-7.071,4.94839,4.94839,0,0,1,1.30475-.91455" fill="none" stroke="#323232" stroke-linecap="round" stroke-linejoin="round" stroke-width="1.5"/><path d="M4.29,16.62549a8.72937,8.72937,0,0,1,1.25415-1.59863l1.49133-1.49134a4.99993,4.99993,0,0,0,0-7.071,4.94839,4.94839,0,0,0-1.30475-.91455" fill="none" stroke="#323232" stroke-linecap="round" stroke-linejoin="round" stroke-width="1.5"/><path d="M3.03741,11.25867a18.006,18.006,0,0,1,17.9408.31006" fill="none" stroke="#323232" stroke-linecap="round" stroke-linejoin="round" stroke-width="1.5"/></g></svg>