<?xml version="1.0" encoding="UTF-8"?><svg version="1.1" viewBox="0 0 24 24" xmlns="http://www.w3.org/2000/svg" xmlns:xlink="http://www.w3.org/1999/xlink"><!--Generated by IJSVG (https://github.com/iconjar/IJSVG)--><g fill="none"><path d="M0,0h24v24h-24v-24Z"></path><path d="M0,0h24v24h-24Z"></path><path stroke="#323232" stroke-linecap="round" stroke-linejoin="round" stroke-width="1.5" d="M20,12h-16c-0.552,0 -1,-0.448 -1,-1v-2c0,-0.552 0.448,-1 1,-1h16c0.552,0 1,0.448 1,1v2c0,0.552 -0.448,1 -1,1Z"></path><path stroke="#323232" stroke-linecap="round" stroke-linejoin="round" stroke-width="1.5" d="M14.04,3.03l2.96,4.94"></path><path stroke="#323232" stroke-linecap="round" stroke-linejoin="round" stroke-width="1.5" d="M9.96,3.03l-2.96,4.94"></path><path stroke="#323232" stroke-linecap="round" stroke-linejoin="round" stroke-width="1.5" d="M17.005,22.004c-2.77,0 -5,-2.24 -5,-5c0,-2.71 2.3,-5.01 5,-5c2.76,0 5,2.24 5,5c0,2.76 -2.24,5 -5,5Z"></path><path stroke="#323232" stroke-linecap="round" stroke-linejoin="round" stroke-width="1.5" d="M13.963,20.972h-6.568c-0.706,0 -1.316,-0.492 -1.466,-1.182l-1.687,-7.79"></path><path stroke="#323232" stroke-linecap="round" stroke-linejoin="round" stroke-width="1.5" d="M19,17h-4"></path><path stroke="#323232" stroke-linecap="round" stroke-linejoin="round" stroke-width="1.5" d="M17,19l2,-2l-2,-2"></path></g></svg>