<svg id="Layer_3" data-name="Layer 3" xmlns="http://www.w3.org/2000/svg" viewBox="0 0 24 24"><polyline points="16.5 6.75 15.242 6.75 14.241 11.75 9.196 11.75 8.5 8.25 14.942 8.25" fill="none" stroke="#323232" stroke-linecap="round" stroke-linejoin="round" stroke-width="1.5"/><path d="M12.5,18h5.493a3,3,0,0,0,3-3V6a3,3,0,0,0-3-3h-12a3,3,0,0,0-3,3v9a3,3,0,0,0,3,3H8v2.4429a.5561.5561,0,0,0,.90349.43424Z" fill="none" stroke="#323232" stroke-linecap="round" stroke-linejoin="round" stroke-width="1.5"/><path d="M9.672,14.16479a.05.05,0,1,0,.00029-.00029l-.00029.00029" fill="none" stroke="#323232" stroke-linecap="round" stroke-linejoin="round" stroke-width="1.5"/><path d="M13.7,14.16479a.05.05,0,1,0,.00029-.00029L13.7,14.16479" fill="none" stroke="#323232" stroke-linecap="round" stroke-linejoin="round" stroke-width="1.5"/><path d="M0,0H24V24H0Z" fill="none"/></svg>