<svg id="Layer_3" data-name="Layer 3" xmlns="http://www.w3.org/2000/svg" viewBox="0 0 24 24"><path d="M0,0H24V24H0Z" fill="none"/><polyline points="7.65 8.75 8.908 8.75 9.909 13.75 14.954 13.75 15.65 10.25 9.208 10.25" fill="none" stroke="#323232" stroke-linecap="round" stroke-linejoin="round" stroke-width="1.5"/><path d="M20.582,9.353A8.839,8.839,0,0,1,21,12a9,9,0,1,1-9-9,8.839,8.839,0,0,1,2.647.418" fill="none" stroke="#323232" stroke-linecap="round" stroke-linejoin="round" stroke-width="1.5"/><polyline points="21 4.274 19.012 6.262 17.737 4.987" fill="none" stroke="#323232" stroke-linecap="round" stroke-linejoin="round" stroke-width="1.5"/><path d="M14.478,16.16479a.05.05,0,1,1-.00029-.00029l.00029.00029" fill="none" stroke="#323232" stroke-linecap="round" stroke-linejoin="round" stroke-width="1.5"/><path d="M10.45,16.16479a.05.05,0,1,1-.00029-.00029l.00029.00029" fill="none" stroke="#323232" stroke-linecap="round" stroke-linejoin="round" stroke-width="1.5"/></svg>