<?xml version="1.0" encoding="UTF-8"?><svg version="1.1" viewBox="0 0 24 24" xmlns="http://www.w3.org/2000/svg" xmlns:xlink="http://www.w3.org/1999/xlink"><!--Generated by IJSVG (https://github.com/iconjar/IJSVG)--><g fill="none"><path d="M0,0h24v24h-24v-24Z"></path><path stroke="#323232" stroke-linecap="round" stroke-linejoin="round" stroke-width="1.5" d="M12,8.958v-0.791c0,-0.817 0.505,-1.26 1.011,-1.6c0.494,-0.333 0.989,-0.767 0.989,-1.567c0,-1.105 -0.895,-2 -2,-2c-1.105,0 -2,0.895 -2,2"></path><path stroke="#323232" stroke-linecap="round" stroke-linejoin="round" stroke-width="1.5" d="M15.951,21h-7.902c-1.131,0 -2.049,-0.918 -2.049,-2.049v-3.926c0,-0.566 0.459,-1.025 1.025,-1.025h9.951c0.565,0 1.024,0.459 1.024,1.025v3.926c0,1.131 -0.918,2.049 -2.049,2.049Z"></path><path stroke="#323232" stroke-linecap="round" stroke-linejoin="round" stroke-width="1.5" d="M18,15.418h0.676c1.284,0 2.324,-1.041 2.324,-2.325v0c0,-1.001 -0.64,-1.889 -1.59,-2.205l-4.248,-1.416c-2.053,-0.684 -4.272,-0.684 -6.325,0l-4.248,1.416c-0.949,0.316 -1.589,1.204 -1.589,2.215v0.049c0,1.253 1.016,2.269 2.269,2.269h0.731"></path></g></svg>