<?xml version="1.0" encoding="UTF-8"?><svg version="1.1" viewBox="0 0 24 24" xmlns="http://www.w3.org/2000/svg" xmlns:xlink="http://www.w3.org/1999/xlink"><g stroke-linecap="round" stroke-width="1.5" stroke="#323232" fill="none" stroke-linejoin="round"><path d="M15.719 15.709v0l-2.89311e-08 2.2558e-11c.708029-.000552053 1.28155-.57497 1.281-1.283 -2.02821e-10-2.60123e-07-4.05453e-10-5.19908e-07-6.08431e-10-7.80031e-07v0l-1.94735e-08-1.26499e-05c-.000556522-.360422-.144475-.705817-.400009-.959996l-.852-.852v-2.53l9.30456e-12 8.35398e-06c0-2.07028-1.6777-3.74889-3.74798-3.75v0l-1.97678e-07 1.05432e-10c-2.07029.00110426-3.748 1.67971-3.748 3.75v2.53l-.852.852 -1.49244e-08 1.48456e-08c-.255532.254181-.399447.599578-.4.96h-8.35395e-06v0l-7.53671e-09-9.71302e-06c.000546705.708029.574961 1.28156 1.28299 1.28101 2.60123e-07-2.00854e-10 5.19908e-07-4.01526e-10 7.80031e-07-6.02538e-10h7.434"></path><path d="M11 17.834h2"></path><path d="M12 21l-3.93403e-07-7.10543e-15c-4.97056-2.1727e-07-9-4.02944-9-9 2.1727e-07-4.97056 4.02944-9 9-9 4.97056 2.1727e-07 9 4.02944 9 9v0c0 4.97056-4.02944 9-9 9"></path></g><path fill="none" d="M0 0h24v24h-24Z"></path></svg>