<?xml version="1.0" encoding="UTF-8"?><svg version="1.1" viewBox="0 0 24 24" xmlns="http://www.w3.org/2000/svg" xmlns:xlink="http://www.w3.org/1999/xlink"><g stroke-width="1.5" fill="none" stroke="#323232"><path d="M16 11c-2.209 0-4-1.791-4-4 0-2.164 1.84-4.002 4.003-4 2.208.002 3.997 1.792 3.997 4 0 2.209-1.79 4-4 4"></path><path stroke-linecap="round" stroke-linejoin="round" d="M13.6 21h-3.2"></path><path stroke-linecap="round" stroke-linejoin="round" d="M12.133 6c0 0-.133 0-.133 0v0c-2.761 0-5 2.239-5 5v0 .032 2.472c0 .324-.183.619-.472.764l-.503.251c-.628.315-1.025.957-1.025 1.659v0c0 1.024.83 1.854 1.854 1.854h10.292c1.024 0 1.854-.83 1.854-1.854v0c0-.702-.397-1.344-1.025-1.658l-.503-.251c-.289-.146-.472-.441-.472-.765v-2.633"></path><path stroke-linecap="round" stroke-linejoin="round" d="M17.13 8.13l-2.26-2.26"></path><path stroke-linecap="round" stroke-linejoin="round" d="M17.13 5.87l-2.26 2.26"></path></g><path fill="none" d="M0 0h24v24h-24Z"></path></svg>