<?xml version="1.0" encoding="UTF-8"?><svg version="1.1" viewBox="0 0 24 24" xmlns="http://www.w3.org/2000/svg" xmlns:xlink="http://www.w3.org/1999/xlink"><g fill="none"><path d="M0 0h24v24h-24v-24Z"></path><path stroke="#323232" stroke-linecap="round" stroke-linejoin="round" stroke-width="1.5" d="M7.66 15.3c-.276 0-.5-.224-.5-.5v-1.443c0-.162.078-.313.21-.407l1.33-.95v-2.592 0c0-1.606 1.302-2.908 2.908-2.908h.785c1.606 0 2.908 1.302 2.908 2.908v0 2.592l1.331.95c.131.094.209.245.209.406v1.444c0 .276-.224.5-.5.5h-8.681Z"></path><path stroke="#323232" stroke-linecap="round" stroke-linejoin="round" stroke-width="1.5" d="M10.9 17.5h2.2 -2.2Z"></path><path stroke="#323232" stroke-linecap="round" stroke-linejoin="round" stroke-width="1.5" d="M18 21h-12c-1.657 0-3-1.343-3-3v-12c0-1.657 1.343-3 3-3h12c1.657 0 3 1.343 3 3v12c0 1.657-1.343 3-3 3Z"></path></g></svg>