<?xml version="1.0" encoding="UTF-8"?><svg version="1.1" viewBox="0 0 24 24" xmlns="http://www.w3.org/2000/svg" xmlns:xlink="http://www.w3.org/1999/xlink"><g stroke-linecap="round" stroke-width="1.5" stroke="#323232" fill="none" stroke-linejoin="round"><path d="M21 12v0c0 4.971-4.029 9-9 9v0c-4.971 0-9-4.029-9-9v0c0-4.971 4.029-9 9-9v0c4.971 0 9 4.029 9 9Z"></path><path d="M11.608 6.5h.785c1.606 0 2.908 1.302 2.908 2.908v0 2.592l1.331.95c.131.094.209.245.209.407v1.443c0 .276-.224.5-.5.5h-8.681c-.276 0-.5-.224-.5-.5v-1.443c0-.161.078-.313.209-.407l1.331-.95v-2.592 0c0-1.606 1.302-2.908 2.908-2.908Z"></path><path d="M10.9 17.5h2.2"></path></g><path fill="none" d="M0 0h24v24h-24Z"></path></svg>