<svg id="Layer_3" data-name="Layer 3" xmlns="http://www.w3.org/2000/svg" viewBox="0 0 24 24"><path d="M24,0V24H0V0Z" fill="none"/><path d="M7.12132,20.12132,3.87868,16.87868A3,3,0,0,1,3,14.75736V9.24364a3,3,0,0,1,.87868-2.12132L7.12232,3.87868A3,3,0,0,1,9.24364,3h5.51272a3,3,0,0,1,2.12132.87868l3.24364,3.24364A3,3,0,0,1,21,9.24364v5.51372a3,3,0,0,1-.87835,2.121L16.88,20.121A3,3,0,0,1,14.75836,21H9.24264A3,3,0,0,1,7.12132,20.12132Z" fill="none" stroke="#323232" stroke-linecap="round" stroke-linejoin="round" stroke-width="1.5"/><line x1="11.01277" y1="17" x2="12.98723" y2="17" fill="none" stroke="#323232" stroke-linecap="round" stroke-linejoin="round" stroke-width="1.5"/><path d="M17,14.5h0a1.25,1.25,0,0,1-1.25-1.25v-3A3.75,3.75,0,0,0,12,6.5h0a3.75,3.75,0,0,0-3.75,3.75v3A1.25,1.25,0,0,1,7,14.5H17Z" fill="none" stroke="#323232" stroke-linecap="round" stroke-linejoin="round" stroke-width="1.5"/></svg>