<svg id="Layer_3" data-name="Layer 3" xmlns="http://www.w3.org/2000/svg" viewBox="0 0 24 24"><path d="M0,0H24V24H0Z" fill="none"/><line x1="20" y1="17" x2="4" y2="17" fill="none" stroke="#323232" stroke-linecap="round" stroke-linejoin="round" stroke-width="1.5"/><path d="M4,17H4a2,2,0,0,0,2-2V10a6,6,0,0,1,6-6h0a6,6,0,0,1,6,6v5a2,2,0,0,0,2,2h0" fill="none" stroke="#323232" stroke-linecap="round" stroke-linejoin="round" stroke-width="1.5"/><path d="M14.75,17v.25A2.75,2.75,0,0,1,12,20h0a2.75,2.75,0,0,1-2.75-2.75V17" fill="none" stroke="#323232" stroke-linecap="round" stroke-linejoin="round" stroke-width="1.5"/></svg>