<svg id="Layer_3" data-name="Layer 3" xmlns="http://www.w3.org/2000/svg" viewBox="0 0 24 24"><path d="M9.66563,18.1875v.48A2.33249,2.33249,0,0,0,11.99811,21H12a2.33343,2.33343,0,0,0,2.33437-2.33249h0v-.48" fill="none" stroke="#323232" stroke-linecap="round" stroke-linejoin="round" stroke-width="1.5"/><path d="M17.625,9.625v3.7325l1.27875,1.27781a2.0409,2.0409,0,0,1,.59625,1.44h0A1.92469,1.92469,0,0,1,17.57531,18H6.42469A1.92469,1.92469,0,0,1,4.5,16.07531h0a2.0409,2.0409,0,0,1,.59625-1.44L6.375,13.3575V9.625A5.625,5.625,0,0,1,12,4h0A5.625,5.625,0,0,1,17.625,9.625Z" fill="none" stroke="#323232" stroke-linecap="round" stroke-linejoin="round" stroke-width="1.5"/><line x1="22.0213" y1="3" x2="20.0213" y2="4.33331" fill="none" stroke="#323232" stroke-linecap="round" stroke-linejoin="round" stroke-width="1.5"/><line x1="23" y1="9" x2="21.0213" y2="9" fill="none" stroke="#323232" stroke-linecap="round" stroke-linejoin="round" stroke-width="1.5"/><line x1="1.9787" y1="3" x2="3.9787" y2="4.33331" fill="none" stroke="#323232" stroke-linecap="round" stroke-linejoin="round" stroke-width="1.5"/><line x1="1" y1="9" x2="2.9787" y2="9" fill="none" stroke="#323232" stroke-linecap="round" stroke-linejoin="round" stroke-width="1.5"/><rect width="24" height="24" fill="none"/><path d="M13.69583,10.79271,11.57717,12.9125l-1.273-1.27188" fill="none" stroke="#323232" stroke-linecap="round" stroke-linejoin="round" stroke-width="1.5"/></svg>