<svg id="Layer_3" data-name="Layer 3" xmlns="http://www.w3.org/2000/svg" viewBox="0 0 24 24"><path d="M0,0H24V24H0Z" fill="none"/><rect x="3" y="3" width="18" height="18" rx="8.99999" transform="translate(24 0) rotate(90)" stroke-width="1.5" stroke="#323232" stroke-linecap="round" stroke-linejoin="round" fill="none"/><path d="M15.5,10.34707V10A3.5,3.5,0,0,0,12,6.5h0A3.5,3.5,0,0,0,8.5,10v.34709" fill="none" stroke="#323232" stroke-linecap="round" stroke-linejoin="round" stroke-width="1.5"/><path d="M15.5,10.34709a5.62487,5.62487,0,0,0,1.43342,3.736.24659.24659,0,0,1-.17623.41675L7.24281,14.5a.24673.24673,0,0,1-.17623-.41693A5.62487,5.62487,0,0,0,8.5,10.34709" fill="none" stroke="#323232" stroke-linecap="round" stroke-linejoin="round" stroke-width="1.5"/><path d="M13.62736,17a2.5,2.5,0,0,1-3,0" fill="none" stroke="#323232" stroke-linecap="round" stroke-linejoin="round" stroke-width="1.5"/></svg>