<?xml version="1.0" encoding="UTF-8"?><svg version="1.1" viewBox="0 0 24 24" xmlns="http://www.w3.org/2000/svg" xmlns:xlink="http://www.w3.org/1999/xlink"><g fill="none"><rect width="24" height="24"></rect><path stroke="#323232" stroke-linecap="round" stroke-linejoin="round" stroke-width="1.5" d="M5.079 11.5c1.384-1.194 3.962-2 6.921-2 2.959 0 5.537.806 6.921 2"></path><path stroke="#323232" stroke-linecap="round" stroke-linejoin="round" stroke-width="1.5" d="M12 5.5c-4.41827 0-8 1.79077-8 4 0 1.689 2.09668 3.13037 5.05713 3.717"></path><path stroke="#323232" stroke-linecap="round" stroke-linejoin="round" stroke-width="1.5" d="M14.9429 13.217c2.96045-.58663 5.05713-2.028 5.05713-3.717 0-2.20923-3.58173-4-8-4"></path><path stroke="#323232" stroke-linecap="round" stroke-linejoin="round" stroke-width="1.5" d="M20 9.5v4c0 1.6781-2.06946 3.11267-5 3.70642"></path><path stroke="#323232" stroke-linecap="round" stroke-linejoin="round" stroke-width="1.5" d="M9 17.2064c-2.93054-.59375-5-2.02832-5-3.70642v-4"></path><rect width="6" height="6" x="9" y="12.5" rx=".55228" ry="0" stroke="#323232" stroke-linecap="round" stroke-linejoin="round" stroke-width="1.5"></rect><line x1="15" x2="13" y1="15.5" y2="15.5" stroke="#323232" stroke-linecap="round" stroke-linejoin="round" stroke-width="1.5"></line></g></svg>