<?xml version="1.0" encoding="UTF-8"?><svg version="1.1" viewBox="0 0 24 24" xmlns="http://www.w3.org/2000/svg" xmlns:xlink="http://www.w3.org/1999/xlink"><g stroke-linecap="round" stroke-width="1.5" stroke="#323232" fill="none" stroke-linejoin="round"><path d="M13.036 3.278l6 3.464 -1.27758e-08-7.37613e-09c.640954.370055 1.03586 1.05389 1.036 1.794v6.928l3.95148e-08-.000404659c0 .74011-.394768 1.42402-1.03565 1.7942l-6 3.464 1.93637e-07-1.12085e-07c-.640857.370954-1.43114.370954-2.072 2.2417e-07l-6-3.464 -1.44096e-07-8.31939e-08c-.640954-.370055-1.03586-1.05389-1.036-1.794v-6.9278l-9.86275e-09.000201854c1.11743e-07-.740037.394692-1.42389 1.03547-1.7941l6-3.464 -2.72665e-07 1.57865e-07c.640883-.371053 1.43126-.371092 2.07217-.000101321Z"></path><line x1="7.64" x2="11.36" y1="8.74" y2="6.6"></line><line x1="11.36" x2="7.64" y1="17.4" y2="15.26"></line><line x1="17" x2="17" y1="9.85" y2="14.15"></line></g><rect width="24" height="24" fill="none"></rect></svg>