<?xml version="1.0" encoding="UTF-8"?><svg version="1.1" viewBox="0 0 24 24" xmlns="http://www.w3.org/2000/svg" xmlns:xlink="http://www.w3.org/1999/xlink"><!--Generated by IJSVG (https://github.com/iconjar/IJSVG)--><g stroke-linecap="round" stroke-width="1.5" stroke="#323232" fill="none" stroke-linejoin="round"><path d="M11,5h2c0.552,0 1,0.448 1,1v2c0,0.552 -0.448,1 -1,1h-2c-0.552,0 -1,-0.448 -1,-1v-2c0,-0.552 0.448,-1 1,-1Z"></path><path d="M17,18.011v-2.023c0,-0.545 0.443,-0.988 0.989,-0.988h2.023c0.545,0 0.988,0.443 0.988,0.989v2.023c0,0.545 -0.443,0.988 -0.989,0.988h-2.023c-0.545,0 -0.988,-0.443 -0.988,-0.989Z"></path><path d="M18.992,15v-1c0,-3.168 -2.105,-5.841 -4.992,-6.704"></path><path d="M7,18.011v-2.023c0,-0.545 -0.443,-0.988 -0.989,-0.988h-2.022c-0.546,0 -0.989,0.443 -0.989,0.989v2.023c0,0.545 0.443,0.988 0.989,0.988h2.023c0.545,0 0.988,-0.443 0.988,-0.989Z"></path><path d="M5.008,15v-1c0,-3.168 2.105,-5.841 4.992,-6.704"></path><path d="M22.2374,5.76256c0.683418,0.683418 0.683418,1.79146 0,2.47487c-0.683418,0.683418 -1.79146,0.683418 -2.47487,0c-0.683418,-0.683418 -0.683418,-1.79146 0,-2.47487c0.683418,-0.683418 1.79146,-0.683418 2.47487,-8.88178e-16"></path><path d="M14,7h5.25"></path><path d="M4.23744,5.76256c0.683418,0.683418 0.683418,1.79146 0,2.47487c-0.683418,0.683418 -1.79146,0.683418 -2.47487,0c-0.683418,-0.683418 -0.683418,-1.79146 -4.44089e-16,-2.47487c0.683418,-0.683418 1.79146,-0.683418 2.47487,-8.88178e-16"></path><path d="M10,7h-5.25"></path></g><path fill="none" d="M0,0h24v24h-24Z"></path></svg>