<svg id="Layer_3" data-name="Layer 3" xmlns="http://www.w3.org/2000/svg" viewBox="0 0 24 24"><path d="M0,0H24V24H0Z" fill="none"/><path id="a-2" d="M5,18H3a1.00036,1.00036,0,0,1-1-1V15a1.00036,1.00036,0,0,1,1-1H5a1.00036,1.00036,0,0,1,1,1v2A1.00036,1.00036,0,0,1,5,18Z" fill="none" stroke="#323232" stroke-linecap="round" stroke-linejoin="round" stroke-width="1.5"/><path d="M17,6H15a1.00036,1.00036,0,0,1-1-1V3a1.00036,1.00036,0,0,1,1-1h2a1.00036,1.00036,0,0,1,1,1V5A1.00036,1.00036,0,0,1,17,6Z" fill="none" stroke="#323232" stroke-linecap="round" stroke-linejoin="round" stroke-width="1.5"/><path d="M14,4H11.5A7.5,7.5,0,0,0,4,11.5V14" fill="none" stroke="#323232" stroke-linecap="round" stroke-linejoin="round" stroke-width="1.5"/><rect x="10" y="10" width="11" height="11" rx="3" stroke-width="1.5" stroke="#323232" stroke-linecap="round" stroke-linejoin="round" fill="none"/></svg>