<svg id="Layer_3" data-name="Layer 3" xmlns="http://www.w3.org/2000/svg" viewBox="0 0 24 24"><path d="M24,0V24H0V0Z" fill="none"/><path d="M17,11H16a1,1,0,0,1-1-1V9a1,1,0,0,1,1-1h1a1,1,0,0,1,1,1v1A1,1,0,0,1,17,11Z" fill="none" stroke="#323232" stroke-linecap="round" stroke-linejoin="round" stroke-width="1.5"/><rect x="3" y="3" width="18" height="18" rx="5" stroke-width="1.5" stroke="#323232" stroke-linecap="round" stroke-linejoin="round" fill="none"/><path d="M7.5,11h0A1.5,1.5,0,0,1,6,9.5H6A1.5,1.5,0,0,1,7.5,8h0A1.5,1.5,0,0,1,9,9.5H9A1.5,1.5,0,0,1,7.5,11Z" fill="none" stroke="#323232" stroke-linecap="round" stroke-linejoin="round" stroke-width="1.5"/><path d="M11.14285,17H9.85713A.85713.85713,0,0,1,9,16.14287V14.85714A.85713.85713,0,0,1,9.85714,14h1.28571A.85715.85715,0,0,1,12,14.85715v1.2857A.85691.85691,0,0,1,11.14333,17Z" fill="none" stroke="#323232" stroke-linecap="round" stroke-linejoin="round" stroke-width="1.5"/><line x1="15.00001" y1="9.5" x2="8.99999" y2="9.5" fill="none" stroke="#323232" stroke-linecap="round" stroke-linejoin="round" stroke-width="1.5"/><path d="M10.5,14h0A4.5,4.5,0,0,1,15,9.5h0" fill="none" stroke="#323232" stroke-linecap="round" stroke-linejoin="round" stroke-width="1.5"/></svg>