<?xml version="1.0" encoding="UTF-8"?><svg version="1.1" viewBox="0 0 24 24" xmlns="http://www.w3.org/2000/svg" xmlns:xlink="http://www.w3.org/1999/xlink"><g stroke-linecap="round" stroke-width="1.5" stroke="#323232" fill="none" stroke-linejoin="round"><rect width="18" height="18" x="3" y="3" rx="2.7614" ry="0"></rect><path d="M14.5 9h-5.5"></path><path d="M7.5 10.5v0l-6.55671e-08-1.77636e-15c-.828427-3.62117e-08-1.5-.671573-1.5-1.5 0 0 0-1.77636e-15 0-1.77636e-15h-1.77636e-15l1.5099e-14-1.60927e-07c1.25089e-07-.828427.671573-1.5 1.5-1.5v0l-4.76798e-08-4.44089e-15c.828427 6.25445e-08 1.5.671573 1.5 1.5h1.77636e-15v4.76798e-08c0 .828427-.671573 1.5-1.5 1.5 -1.3971e-08 0-3.37088e-08 0-4.76798e-08-1.77636e-15Z"></path><path d="M16.833 10.75h-1.166l-5.7125e-08-4.88907e-11c-.644288-.000551412-1.16645-.522712-1.167-1.167v-1.166l-9.9142e-09 1.16527e-05c.000544953-.644288.522701-1.16645 1.16699-1.16701h1.166l5.10719e-08 4.31992e-11c.644292.000544985 1.16646.522708 1.16701 1.167v1.166l1.00068e-08-1.17621e-05c-.000544892.644288-.5227 1.16645-1.16699 1.16701Z"></path><path d="M10.583 18h-1.166l-5.7125e-08-4.88889e-11c-.644288-.000551412-1.16645-.522712-1.167-1.167v-1.166l-9.9142e-09 1.16527e-05c.000544953-.644288.522701-1.16645 1.16699-1.16701h1.166l-4.49848e-08-3.84972e-11c.644288.000551356 1.16645.522712 1.167 1.167v1.166l9.96829e-09-1.17171e-05c-.000544888.644283-.522693 1.16645-1.16698 1.16701Z"></path><path d="M14.5 9.667h-.5l-1.74846e-07 3.55271e-15c-2.20914 9.65645e-08-4 1.79086-4 4 0 0 0 1.77636e-15 0 1.77636e-15v.833"></path></g><rect width="24" height="24" fill="none"></rect></svg>