<?xml version="1.0" encoding="UTF-8"?><svg version="1.1" viewBox="0 0 24 24" xmlns="http://www.w3.org/2000/svg" xmlns:xlink="http://www.w3.org/1999/xlink"><g fill="none"><path d="M0 0h24v24h-24Z"></path><path stroke="#323232" stroke-linecap="round" stroke-linejoin="round" stroke-width="1.5" d="M20.525 8h-17.05l-3.70101e-08 3.80176e-11c-.537925.000552548-.974447-.435074-.975-.972999 -3.5153e-10-3.42226e-07-7.02894e-10-6.84468e-07-1.05406e-09-1.02669e-06v-2.052l8.66118e-09 8.39643e-06c-.000557205-.537925.435066-.974451.972991-.975008 3.42213e-07-3.54478e-10 6.84518e-07-7.08871e-10 1.02673e-06-1.06299e-09h17.053l-4.25749e-08 8.88178e-16c.537925-2.35135e-08.974.436075.974.974 0 0 0 8.88178e-16 0 8.88178e-16v2.052 0c0 .537925-.436075.974-.974.974 0 0 0 0 0 0Z"></path><path stroke="#323232" stroke-linecap="round" stroke-linejoin="round" stroke-width="1.5" d="M17.16 20h-10.32l6.34468e-08 3.1406e-12c-1.04017-5.15048e-05-1.90667-.797415-1.993-1.834l-.847-10.166h16l-.847 10.166 -1.56776e-09 1.88236e-08c-.0863345 1.03659-.952826 1.83395-1.993 1.834Z"></path><line x1="12" x2="12" y1="16.35" y2="12" stroke="#323232" stroke-linecap="round" stroke-linejoin="round" stroke-width="1.5"></line><polyline stroke="#323232" stroke-linecap="round" stroke-linejoin="round" stroke-width="1.5" points="10,14.349 12,16.349 14,14.349"></polyline></g></svg>