<?xml version="1.0" encoding="UTF-8"?><svg version="1.1" viewBox="0 0 24 24" xmlns="http://www.w3.org/2000/svg" xmlns:xlink="http://www.w3.org/1999/xlink"><path d="M10.594 14.666v-6.158l6.23124e-08-9.87839e-05c.000497728-.832293-.673806-1.5074-1.5061-1.5079 -.000333444-1.99406e-07-.000666888-2.88144e-07-.00100033-2.66213e-07v0l7.72286e-08-1.89431e-11c-.686906.000168469-1.28702.46423-1.46 1.129l-1.5569 6.01" stroke-linecap="round" stroke-width="1.5" stroke="#323232" fill="none" stroke-linejoin="round"></path><path fill="none" stroke="#323232" stroke-width="1.5" d="M9.922 13.078l8.10557e-08 8.08721e-08c.899224.897187.900876 2.35347.00368894 3.25269 -.897187.899224-2.35347.900876-3.25269.00368894 -.899224-.897187-.900876-2.35347-.00368894-3.25269 .00122831-.00123109.00245801-.0024608.0036891-.0036891l-2.93013e-08 2.92349e-08c.897782-.895748 2.35122-.895748 3.249-5.84698e-08"></path><path d="M17.93 14.139l-1.557-6.01 4.28267e-08 1.64586e-07c-.172978-.66477-.773094-1.12883-1.46-1.129v0l-3.83613e-08-7.10543e-15c-.832293-1.62053e-07-1.507.674707-1.507 1.507 -6.49241e-11.000333444 1.10539e-07.000666888 3.31811e-07.00100033v6.158" stroke-linecap="round" stroke-width="1.5" stroke="#323232" fill="none" stroke-linejoin="round"></path><path fill="none" stroke="#323232" stroke-width="1.5" d="M14.078 13.078l9.86292e-09-9.88532e-09c.897187-.899224 2.35347-.900876 3.25269-.00368908 .899224.897187.900876 2.35347.00368908 3.25269 -.897187.899224-2.35347.900876-3.25269.00368908 -.00123109-.00122831-.0024608-.00245801-.0036891-.0036891l9.86292e-09 9.88532e-09c-.895748-.897782-.895748-2.35122-1.97258e-08-3.249"></path><g stroke-linecap="round" stroke-width="1.5" stroke="#323232" fill="none" stroke-linejoin="round"><line x1="10.6" x2="13.4" y1="9.5" y2="9.5"></line><line x1="10.6" x2="13.4" y1="13.5" y2="13.5"></line><rect width="18" height="18" x="3" y="3" rx="2.20912" ry="0"></rect></g><path fill="none" d="M0 0h24v24h-24Z"></path></svg>