<svg id="Layer_3" data-name="Layer 3" xmlns="http://www.w3.org/2000/svg" viewBox="0 0 24 24"><path d="M21,15v4a2,2,0,0,1-2,2H13a2,2,0,0,1-2-2V15a2,2,0,0,1,2-2h6A2,2,0,0,1,21,15Z" fill="none" stroke="#323232" stroke-linecap="round" stroke-linejoin="round" stroke-width="1.5"/><path d="M18.238,16l-1.74563.88192a1.13638,1.13638,0,0,1-1.00881,0L13.738,16" fill="none" stroke="#323232" stroke-linecap="round" stroke-linejoin="round" stroke-width="1.5"/><path d="M20,10V6a3,3,0,0,0-3-3H9.50931A3,3,0,0,0,7.388,3.87869L4.87868,6.388A3,3,0,0,0,4,8.50932V18a3,3,0,0,0,3,3H8" fill="none" stroke="#323232" stroke-linecap="round" stroke-linejoin="round" stroke-width="1.5"/><path d="M9.5,3V6.5a2,2,0,0,1-2,2H4" fill="none" stroke="#323232" stroke-linecap="round" stroke-linejoin="round" stroke-width="1.5"/><rect width="24" height="24" transform="translate(24 24) rotate(-180)" fill="none"/></svg>