<svg id="Layer_3" data-name="Layer 3" xmlns="http://www.w3.org/2000/svg" viewBox="0 0 24 24"><path d="M9,3V7A1,1,0,0,1,8,8H4" fill="none" stroke="#323232" stroke-linecap="round" stroke-linejoin="round" stroke-width="1.5"/><path d="M8,21H6a2,2,0,0,1-2-2V7.828a2,2,0,0,1,.586-1.414L7.414,3.586A2,2,0,0,1,8.828,3H17a2,2,0,0,1,2,2v5" fill="none" stroke="#323232" stroke-linecap="round" stroke-linejoin="round" stroke-width="1.5"/><path d="M11,15v4a2,2,0,0,0,2,2h6a2,2,0,0,0,2-2V15a2,2,0,0,0-2-2H13A2,2,0,0,0,11,15Z" fill="none" stroke="#323232" stroke-linecap="round" stroke-linejoin="round" stroke-width="1.5"/><path d="M21,16H11" fill="none" stroke="#323232" stroke-linecap="round" stroke-linejoin="round" stroke-width="1.5"/><path d="M24,24H0V0H24Z" fill="none"/></svg>