<?xml version="1.0" encoding="UTF-8"?><svg version="1.1" viewBox="0 0 24 24" xmlns="http://www.w3.org/2000/svg" xmlns:xlink="http://www.w3.org/1999/xlink"><g stroke-linecap="round" stroke-width="1.5" stroke="#323232" fill="none" stroke-linejoin="round"><path d="M17.999 11.75c-.138 0-.25.112-.249.25 0 .138.112.25.25.25 .138 0 .25-.112.25-.25 0-.138-.112-.25-.251-.25"></path><path d="M5.999 11.75c-.138 0-.25.112-.249.25 0 .138.112.25.25.25 .138 0 .25-.112.25-.25 0-.138-.112-.25-.251-.25"></path><path d="M6 17l11-9.5 -6-4.5v18l6-4.5 -11-9.5"></path></g><path fill="none" d="M0 0h24v24h-24Z"></path></svg>