<svg viewBox="0 0 24 24" xmlns="http://www.w3.org/2000/svg"><g fill="none"><path d="M0 0h24v24H0Z"/><g stroke-linecap="round" stroke-width="1.5" stroke="#323232" fill="none" stroke-linejoin="round"><path d="M6.5 9l0-3"/><path d="M11.5 9l0-3"/><path d="M5 4.5v1l0 0c0 .27.22.49.5.49h7l-.01-.001c.27 0 .5-.23.5-.5v-2.5h-6.5l-.01 0c-.83 0-1.5.67-1.5 1.5 0 0 0 0 0 0Z"/><path d="M14 13v-2.5 0c0-.83-.68-1.5-1.5-1.5h-7l-.01 0c-.83 0-1.5.67-1.5 1.5 0 0 0 0 0 0v9l0 0c0 .82.67 1.49 1.5 1.49h3.49"/><path d="M15 3l-2 0"/><path d="M17.5 18l-.01-.001c1.1 0 2-.9 2-2 0-1.11-.9-2-2-2.01 0 .82-.9 1.5-2 1.5h-.75 -.01c-.7 0-1.25.55-1.25 1.25 0 .69.55 1.24 1.24 1.24h-1.26 -.01c-.83 0-1.5.67-1.5 1.5 0 0 0 0 0 0v0l0 0c0 .82.67 1.49 1.5 1.49h6l-.01 0c.82-.01 1.49-.68 1.49-1.5v0 -.01c0-.83-.68-1.5-1.5-1.5 -.01 0-.01 0-.01 0Z"/></g></g></svg>