<svg id="Layer_3" data-name="Layer 3" xmlns="http://www.w3.org/2000/svg" viewBox="0 0 24 24"><path d="M0,0H24V24H0Z" fill="none"/><line x1="12" y1="10" x2="12" y2="4.86393" fill="none" stroke="#323232" stroke-linecap="round" stroke-linejoin="round" stroke-width="1.5"/><path d="M8,15.17292a6.29382,6.29382,0,0,0-3.492.69873A1.00537,1.00537,0,0,1,3,15.01265V5.79393a1.982,1.982,0,0,1,.812-1.617,6.36462,6.36462,0,0,1,8.188.687,6.36462,6.36462,0,0,1,8.188-.687A1.982,1.982,0,0,1,21,5.79393v4.206" fill="none" stroke="#323232" stroke-linecap="round" stroke-linejoin="round" stroke-width="1.5"/><path d="M12,14.25V20.5a.5.5,0,0,0,.5.5h8a.5.5,0,0,0,.5-.5V14.25" fill="none" stroke="#323232" stroke-linecap="round" stroke-linejoin="round" stroke-width="1.5"/><path d="M17.95,21V17.5a.5.5,0,0,0-.5-.5h-2a.5.5,0,0,0-.5.5V21" fill="none" stroke="#323232" stroke-linecap="round" stroke-linejoin="round" stroke-width="1.5"/><path d="M22,15l-5.2-3.9a.5.5,0,0,0-.6,0L11,15" fill="none" stroke="#323232" stroke-linecap="round" stroke-linejoin="round" stroke-width="1.5"/></svg>