<?xml version="1.0" encoding="UTF-8"?><svg version="1.1" viewBox="0 0 24 24" xmlns="http://www.w3.org/2000/svg" xmlns:xlink="http://www.w3.org/1999/xlink"><g fill="none"><path d="M0 0h24v24h-24Z"></path><path stroke="#323232" stroke-linecap="round" stroke-linejoin="round" stroke-width="1.5" d="M8 3v13"></path><path stroke="#323232" stroke-linecap="round" stroke-linejoin="round" stroke-width="1.5" d="M19 16v4"></path><path stroke="#323232" stroke-linecap="round" stroke-linejoin="round" stroke-width="1.5" d="M19 3h-4.37114e-08c.552285-2.41411e-08 1 .447715 1 1v11 0c0 .552285-.447715 1-1 1h-13l-8.74228e-08 3.55271e-15c-1.10457 4.82823e-08-2 .895431-2 2 0 0 0 0 0 0h-1.77636e-15l2.30926e-14 3.01992e-07c1.66785e-07 1.10457.895431 2 2 2"></path><path stroke="#323232" stroke-linecap="round" stroke-linejoin="round" stroke-width="1.5" d="M6 20h6"></path><path stroke="#323232" stroke-linecap="round" stroke-linejoin="round" stroke-width="1.5" d="M16 20h4"></path><polygon stroke="#323232" stroke-linecap="round" stroke-linejoin="round" stroke-width="1.5" points="12,18.5 16,18.5 16,22.5 14,21.5 12,22.5 12,18.5"></polygon><path stroke="#323232" stroke-linecap="round" stroke-linejoin="round" stroke-width="1.5" d="M4 18v-13l2.30926e-14 3.01992e-07c-1.66785e-07-1.10457.89543-2 2-2h13"></path></g></svg>