<?xml version="1.0" encoding="UTF-8"?><svg version="1.1" viewBox="0 0 24 24" xmlns="http://www.w3.org/2000/svg" xmlns:xlink="http://www.w3.org/1999/xlink"><g fill="none"><path d="M0 23.994v-24h24v24h-24Z"></path><path stroke="#323232" stroke-linecap="round" stroke-linejoin="round" stroke-width="1.5" d="M4 8.994v10.996c0 .759.807 1.244 1.474.881 1.629-.889 4.026-2.196 4.026-2.196 0 0 2.397 1.308 4.026 2.196 .667.363 1.474-.122 1.474-.881v-10.996c0-1.105-.895-2-2-2h-7c-1.104 0-2 .895-2 2Z"></path><path stroke="#323232" stroke-linecap="round" stroke-linejoin="round" stroke-width="1.5" d="M15 14.994l3.521 1.921c.666.364 1.479-.118 1.479-.878v-11.043c0-1.105-.895-2-2-2h-6.5c-1.105 0-2 .895-2 2v2"></path><line x1="8.09" x2="10.91" y1="11.58" y2="14.41" stroke="#323232" stroke-linecap="round" stroke-linejoin="round" stroke-width="1.5"></line><line x1="8.09" x2="10.91" y1="14.41" y2="11.58" stroke="#323232" stroke-linecap="round" stroke-linejoin="round" stroke-width="1.5"></line></g></svg>