<?xml version="1.0" encoding="UTF-8"?><svg version="1.1" viewBox="0 0 24 24" xmlns="http://www.w3.org/2000/svg" xmlns:xlink="http://www.w3.org/1999/xlink"><g fill="none"><path d="M0 0h24v24h-24Z"></path><path stroke="#323232" stroke-linecap="round" stroke-linejoin="round" stroke-width="1.5" d="M8.313 7.759l9.49001e-09 9.48556e-09c.15195.151878.152007.398179.000129042.550129 -.151878.15195-.398179.152007-.550129.000129042 -.15195-.151878-.152007-.398179-.000129042-.550129 4.30101e-05-4.30303e-05 8.60303e-05-8.60505e-05.000129061-.000129061l-7.44621e-10 7.44271e-10c.151899-.151828.398101-.151828.55-1.48854e-09"></path><path stroke="#323232" stroke-linecap="round" stroke-linejoin="round" stroke-width="1.5" d="M17.464 9.536l2.951 2.952 5.75263e-09 5.7503e-09c.781207.78089.781463 2.04722.000572922 2.82843 -.000190939.000191016-.000381917.000381994-.000572933.000572933l-5.094 5.1 1.09942e-07-1.10064e-07c-.780614.781483-2.04694.782187-2.82843.00157353 -.000524729-.000524146-.00104917-.00104858-.00157331-.00157331l-2.952-2.956"></path><line x1="19.5" x2="4.5" y1="4.5" y2="19.5" stroke="#323232" stroke-linecap="round" stroke-linejoin="round" stroke-width="1.5"></line><path stroke="#323232" stroke-linecap="round" stroke-linejoin="round" stroke-width="1.5" d="M14.465 6.535l-2.954-2.955 -1.7205e-08-1.71869e-08c-.375882-.375487-.88672-.584433-1.418-.58l-2.849.025 -9.4482e-08 7.53951e-10c-.519586.00414622-1.0167.212473-1.384.58l-2.28 2.281 -1.30328e-07 1.30424e-07c-.371389.371662-.580008.875583-.58 1.401v2.813l-1.82439e-09-3.72984e-06c.000256336.52507.208853 1.02858.579997 1.4l2.96 2.96"></path></g></svg>