<svg viewBox="0 0 24 24" xmlns="http://www.w3.org/2000/svg"><g fill="none"><path d="M0 0h24v24H0Z"/><g stroke-linecap="round" stroke-width="1.5" stroke="#323232" fill="none" stroke-linejoin="round"><path d="M12 7.99v12.6"/><path d="M6 8.5l3 0"/><path d="M6 12l3 0"/><path d="M6 15.5l3 0"/><path d="M15 8.5l3 0"/><path d="M15 12l3 0"/><path d="M15 15.5l3 0"/><path d="M12 21v0l-.01-.01c-.62-1.23-1.87-2.01-3.24-2H4.48l-.01 0c-.83 0-1.5-.68-1.5-1.5 -.001-.01-.001-.01 0-.01H2.96V5.47l-.001-.01c-.01-.83.67-1.5 1.49-1.5 0-.001 0 0 0 0h3.5l0 0c2.2 0 3.99 1.79 3.99 3.99v0l0 0c-.01-2.21 1.79-4 3.99-4 0 0 0-.001 0-.001h3.5l-.01 0c.82-.01 1.49.67 1.49 1.49 0 0 0 0 0 0v12l0-.01c0 .82-.67 1.49-1.5 1.49h-4.27l0 0c-1.38-.01-2.63.77-3.24 1.99Z"/></g></g></svg>