<?xml version="1.0" encoding="UTF-8"?><svg version="1.1" viewBox="0 0 24 24" xmlns="http://www.w3.org/2000/svg" xmlns:xlink="http://www.w3.org/1999/xlink"><!--Generated by IJSVG (https://github.com/iconjar/IJSVG)--><defs><path d="M0,0h24v24h-24Z" id="a"></path></defs><g fill="none"><use xlink:href="#a"></use><use xlink:href="#a"></use><path stroke="#323232" stroke-linecap="round" stroke-linejoin="round" stroke-width="1.5" d="M13.5,14v0c0,1.105 -0.895,2 -2,2h-4v-4h4c1.105,0 2,0.895 2,2Z"></path><path stroke="#323232" stroke-linecap="round" stroke-linejoin="round" stroke-width="1.5" d="M12.5,10v0c0,1.105 -0.895,2 -2,2h-3v-3c0,-0.552 0.448,-1 1,-1h2c1.105,0 2,0.895 2,2Z"></path><path stroke="#323232" stroke-linecap="round" stroke-linejoin="round" stroke-width="1.5" d="M16.5,15.325c-0.186,0.001 -0.337,0.152 -0.337,0.338c0,0.186 0.152,0.337 0.338,0.337c0.186,0 0.337,-0.151 0.337,-0.337c0.001,-0.187 -0.151,-0.338 -0.338,-0.338"></path><path stroke="#323232" stroke-linecap="round" stroke-linejoin="round" stroke-width="1.5" d="M12,21v0c-4.971,0 -9,-4.029 -9,-9v0c0,-4.971 4.029,-9 9,-9v0c4.971,0 9,4.029 9,9v0c0,4.971 -4.029,9 -9,9Z"></path></g></svg>