<?xml version="1.0" encoding="UTF-8"?><svg version="1.1" viewBox="0 0 24 24" xmlns="http://www.w3.org/2000/svg" xmlns:xlink="http://www.w3.org/1999/xlink"><path d="M5 19.5v-12.5l3.37508e-14 4.52987e-07c-2.50178e-07-1.65685 1.34315-3 3-3h8l-1.31134e-07 3.55271e-15c1.65685-7.24234e-08 3 1.34315 3 3v12.5l1.56014e-08 1.97051e-05c.000213193.276142-.223472.500173-.499614.500386 -.10451 8.0686e-05-.206418-.0325888-.291402-.0934171l-5.918-4.228 -4.69823e-09-3.36253e-09c-.174012-.124541-.407988-.124541-.582 6.72505e-09l-5.91798 4.22701 5.8231e-09-4.16761e-09c-.224556.160715-.536879.108962-.697594-.115594 -.0606262-.0847087-.0932817-.186238-.0934055-.290406Z" stroke-linecap="round" stroke-width="1.5" stroke="#323232" fill="none" stroke-linejoin="round"></path><rect width="24" height="24" fill="none"></rect></svg>