<?xml version="1.0" encoding="UTF-8"?><svg version="1.1" viewBox="0 0 24 24" xmlns="http://www.w3.org/2000/svg" xmlns:xlink="http://www.w3.org/1999/xlink"><g fill="none"><path d="M0 0h24v24h-24Z"></path><path stroke="#323232" stroke-linecap="round" stroke-linejoin="round" stroke-width="1.5" d="M15.17 14.573l1.60264e-09-6.6591e-10c.111692-.0464091.239859.00651354.286268.118206 .0188136.0452785.0218884.0955606.00873201.142794l1.00881e-07-3.91669e-07c-.160569.623409-.485143 1.19245-.94 1.648l1.05484e-07-1.1023e-07c-1.34332 1.40375-3.57025 1.45273-4.974.109417 -1.40375-1.34332-1.45273-3.57025-.109417-4.974 .0356656-.03727.0721466-.073751.109417-.109417l-1.57146e-07 1.57235e-07c.455006-.455263 1.02375-.78021 1.647-.941l3.17642e-09-9.17447e-10c.11567-.033409.236522.0332766.269931.148947 .0139388.0482595.0107839.0998519-.00893133.146053l1.51438e-08-2.9958e-08c-.688169 1.36136-.14244 3.02283 1.21892 3.711 .783486.396053 1.70859.396053 2.49208 3.02876e-08Z"></path><rect width="16" height="14" x="4" y="7" rx="1.65684" ry="0" stroke="#323232" stroke-linecap="round" stroke-linejoin="round" stroke-width="1.5"></rect><path stroke="#323232" stroke-linecap="round" stroke-linejoin="round" stroke-width="1.5" d="M4 10v-1.909l-4.29279e-08-.000507058c-1.88462e-07-1.24813.772779-2.36586 1.94047-2.80667l8.35253-3.15382 -3.67177e-08 1.38756e-08c1.03325-.390465 2.1874.130616 2.57787 1.16387 .0852779.225663.129026.464893.129131.706131v3"></path></g></svg>