<?xml version="1.0" encoding="UTF-8"?><svg version="1.1" viewBox="0 0 24 24" xmlns="http://www.w3.org/2000/svg" xmlns:xlink="http://www.w3.org/1999/xlink"><g stroke-linecap="round" stroke-width="1.5" stroke="#323232" fill="none" stroke-linejoin="round"><path d="M14.025 16.909v2.338l-2.7458e-08.000271976c-7.71859e-08.511179.28893.978446.746243 1.20685l.522.261 -3.28341e-07-1.6409e-07c.759864.379744 1.65414.379745 2.414 3.28179e-07l.522-.261 1.11594e-07-5.57635e-08c.457267-.228496.746103-.695821.746-1.207v-2.33812"></path><path d="M12.413 16.116l3.087 1.542 5.87345e-08 2.92983e-08c.63156.315038 1.37444.315038 2.006-5.85966e-08l3.084-1.542 6.35964e-08-3.17118e-08c.369202-.1841.519258-.632639.335158-1.00184 -.0723733-.145141-.190017-.262785-.335158-.335158l-3.09-1.542 2.20321e-07 1.1027e-07c-.631337-.315981-1.37466-.315982-2.006-2.20539e-07l-3.084 1.542 -5.75104e-09 2.8838e-09c-.368789.184926-.51784.6338-.332915 1.00259 .0726992.144981.190609.262363.335915.334411Z"></path><path d="M21 15.447v1.8"></path><path d="M19 11v-6 0c0-1.10457-.895431-2-2-2h-12l-8.74228e-08 1.77636e-15c-1.10457 4.82823e-08-2 .895431-2 2 0 0 0 8.88178e-16 0 8.88178e-16v13"></path><path d="M7 3v13"></path><path d="M9 16h-4l-8.74228e-08 3.55271e-15c-1.10457 4.82823e-08-2 .895431-2 2 0 0 0 0 0 0h-1.77636e-15l2.30926e-14 3.01992e-07c1.66785e-07 1.10457.895431 2 2 2h6"></path></g><rect width="24" height="24" fill="none"></rect></svg>