<svg id="Layer_3" data-name="Layer 3" xmlns="http://www.w3.org/2000/svg" viewBox="0 0 24 24"><path d="M16,9.71368v4.63025a.71816.71816,0,0,1-.682.70785A6.56908,6.56908,0,0,0,12,16a6.569,6.569,0,0,0-3.318-.94822A.71816.71816,0,0,1,8,14.34393V9.71368a.70938.70938,0,0,1,.75658-.71239A7.04515,7.04515,0,0,1,12,9.93421a7.04515,7.04515,0,0,1,3.24342-.93292A.70938.70938,0,0,1,16,9.71368Z" fill="none" stroke="#323232" stroke-linecap="round" stroke-linejoin="round" stroke-width="1.5"/><path d="M12,9.93377V16" fill="none" stroke="#323232" stroke-linecap="round" stroke-linejoin="round" stroke-width="1.5"/><circle cx="12" cy="12" r="9" fill="none" stroke="#323232" stroke-linecap="round" stroke-linejoin="round" stroke-width="1.5"/><path d="M0,0H24V24H0Z" fill="none"/></svg>