<?xml version="1.0" encoding="UTF-8"?><svg version="1.1" viewBox="0 0 24 24" xmlns="http://www.w3.org/2000/svg" xmlns:xlink="http://www.w3.org/1999/xlink"><g stroke-linecap="round" stroke-width="1.5" stroke="#323232" fill="none" stroke-linejoin="round"><path d="M11.9979 16.9444v0l1.0952e-07 2.19044e-07c-.340477-.680963-1.03647-1.11111-1.79781-1.11111h-2.36885l-3.01761e-09 3.55271e-14c-.460235 5.52118e-06-.833334-.373085-.83334-.83332 -3.99885e-11-3.33336e-06-5.99769e-11-6.6667e-06-5.99645e-11-1.00001e-05v-6l9.76996e-15 1.25769e-07c-6.94936e-08-.460235.373094-.83333.83333-.83333 3.33336e-06-5.02709e-13 6.6667e-06 1.89946e-11 1.00001e-05 5.84919e-11h1.94444l2.942e-08 1.84404e-09c1.25805.0788542 2.2344 1.12843 2.22222 2.38889Z"></path><path d="M11.9979 16.9444v0l-1.34497e-07 2.68997e-07c.340479-.680966 1.03648-1.11112 1.79782-1.11111h2.36885l-7.02407e-09-8.70415e-14c.46023 5.72594e-06.833325-.37308.83333-.83331 8.44409e-11-6.78692e-06 8.5965e-11-1.35739e-05 4.57945e-12-2.03608e-05v-6l6.00018e-11-1.00001e-05c0-.46023-.37309-.83332-.83332-.83332 -6.66671e-06 0-1.33334e-05 8.00036e-11-2.00001e-05 2.40007e-10h-1.94443l8.15073e-08-5.10883e-09c-1.25805.078854-2.2344 1.12843-2.22223 2.38889Z"></path><rect width="18" height="18" x="2.99794" y="3" rx="2.20912" ry="0"></rect></g><path fill="none" d="M-.00206 0h24v24h-24Z"></path></svg>