<?xml version="1.0" encoding="UTF-8"?><svg version="1.1" viewBox="0 0 24 24" xmlns="http://www.w3.org/2000/svg" xmlns:xlink="http://www.w3.org/1999/xlink"><g stroke-linecap="round" stroke-width="1.5" stroke="#323232" fill="none" stroke-linejoin="round"><path d="M19 11v-6 0c0-1.10457-.895431-2-2-2h-12l-8.74228e-08 1.77636e-15c-1.10457 4.82823e-08-2 .895431-2 2 0 0 0 8.88178e-16 0 8.88178e-16v13"></path><path d="M7 3v13"></path><path d="M11 16h-6l-8.74228e-08 3.55271e-15c-1.10457 4.82823e-08-2 .895431-2 2 0 0 0 0 0 0h-1.77636e-15l2.30926e-14 3.01992e-07c1.66785e-07 1.10457.895431 2 2 2h6"></path><path d="M19.121 14.879l8.80365e-08 8.80514e-08c1.17147 1.17167 1.17131 3.07117-.000359504 4.24264 -1.17167 1.17147-3.07117 1.17131-4.24264-.000359504 -1.17133-1.17153-1.17133-3.07075 1.76073e-07-4.24228l1.05817e-07-1.05835e-07c1.17147-1.17167 3.07097-1.17183 4.24264-.000359116 .000119786.000119766.000239562.000239542.000359328.000359328"></path><path d="M21 21l-1.88-1.88"></path></g><path fill="none" d="M0 0h24v24h-24Z"></path></svg>