<svg id="Layer_3" data-name="Layer 3" xmlns="http://www.w3.org/2000/svg" viewBox="0 0 24 24"><path d="M10,15H20a1,1,0,0,1,1,1v0a6,6,0,0,1-6,6h0a6,6,0,0,1-6-6v0a1,1,0,0,1,1-1Z" fill="none" stroke="#323232" stroke-linecap="round" stroke-linejoin="round" stroke-width="1.5"/><path d="M10,15H20a1,1,0,0,1,1,1v0a6,6,0,0,1-6,6h0a6,6,0,0,1-6-6v0a1,1,0,0,1,1-1Z" fill="none" stroke="#323232" stroke-linecap="round" stroke-linejoin="round" stroke-width="1.5"/><line x1="13" y1="10.25" x2="3" y2="10.25" fill="none" stroke="#323232" stroke-linecap="round" stroke-linejoin="round" stroke-width="1.5"/><line x1="5.5" y1="4.5" x2="10.5" y2="4.5" fill="none" stroke="#323232" stroke-linecap="round" stroke-linejoin="round" stroke-width="1.5"/><path d="M11.57,20.92A2.121,2.121,0,0,1,11,21H5a2.00588,2.00588,0,0,1-2-2V10.53A4.00309,4.00309,0,0,1,4.12,7.75L5.44,6.39A1.99265,1.99265,0,0,0,6,5V3A1.00294,1.00294,0,0,1,7,2H9a1.00294,1.00294,0,0,1,1,1V5a1.99265,1.99265,0,0,0,.56,1.39l1.32,1.36A4.00309,4.00309,0,0,1,13,10.53V15" fill="none" stroke="#323232" stroke-linecap="round" stroke-linejoin="round" stroke-width="1.5"/><path d="M0,0H24V24H0Z" fill="none"/></svg>