<?xml version="1.0" encoding="UTF-8"?><svg version="1.1" viewBox="0 0 24 24" xmlns="http://www.w3.org/2000/svg" xmlns:xlink="http://www.w3.org/1999/xlink"><!--Generated by IJSVG (https://github.com/iconjar/IJSVG)--><path d="M0,0h24v24h-24Z" fill="none" fill-rule="evenodd"></path><path fill="none" stroke="#323232" stroke-linecap="round" stroke-linejoin="round" stroke-width="1.5" d="M4.004,4.5v0c0,0.996 0.122,1.989 0.364,2.955l0.314,1.257c0.205,0.82 0.055,1.688 -0.414,2.392l-0.938,1.407c-1.432,2.148 -1.566,4.91 -0.347,7.186l0.429,0.802c0.495,0.924 1.458,1.501 2.506,1.501h1.484c1.106,0 2.111,-0.641 2.577,-1.644l0.368,-0.792c1.029,-2.213 0.83,-4.803 -0.523,-6.833l-1.084,-1.627c-0.469,-0.703 -0.619,-1.572 -0.414,-2.392l0.38,-1.518c0.198,-0.793 0.299,-1.608 0.299,-2.425v-0.269c0,-1.381 -1.119,-2.5 -2.5,-2.5v0c-1.382,0 -2.501,1.119 -2.501,2.5Z"></path><g stroke-linecap="round" stroke-width="1.5" stroke="#323232" fill="none" stroke-linejoin="round"><path d="M4.72,10h3.58"></path><path d="M18.3083,12.6917c0.140979,0.140979 0.140979,0.369552 0,0.510531c-0.140979,0.140979 -0.369552,0.140979 -0.510531,0c-0.140979,-0.140979 -0.140979,-0.369552 0,-0.510531c0.140979,-0.140979 0.369552,-0.140979 0.510531,0"></path><path d="M14.7343,13.2017c0.140979,0.140979 0.140979,0.369552 0,0.510531c-0.140979,0.140979 -0.369552,0.140979 -0.510531,0c-0.140979,-0.140979 -0.140979,-0.369552 0,-0.510531c0.140979,-0.140979 0.369552,-0.140979 0.510531,0"></path><path d="M17.7983,16.2657c0.140979,0.140979 0.140979,0.369552 0,0.510531c-0.140979,0.140979 -0.369552,0.140979 -0.510531,0c-0.140979,-0.140979 -0.140979,-0.369552 0,-0.510531c0.140979,-0.140979 0.369552,-0.140979 0.510531,0"></path><path d="M9.709,12.558c1.075,-2.11 3.261,-3.558 5.791,-3.558c3.59,0 6.5,2.91 6.5,6.5c0,3.59 -2.91,6.5 -6.5,6.5c-2.084,0 -3.934,-0.985 -5.124,-2.51"></path></g></svg>