<svg id="Layer_3" data-name="Layer 3" xmlns="http://www.w3.org/2000/svg" viewBox="0 0 24 24"><rect width="24" height="24" fill="none"/><rect x="7.5" y="6.5" width="9" height="8" rx="2" transform="translate(24 21) rotate(-180)" stroke-width="1.5" stroke="#323232" stroke-linecap="round" stroke-linejoin="round" fill="none"/><path d="M11,6.5h2a.5.5,0,0,1,.5.5V9.5a0,0,0,0,1,0,0h-3a0,0,0,0,1,0,0V7A.5.5,0,0,1,11,6.5Z" transform="translate(24 16) rotate(-180)" fill="none" stroke="#323232" stroke-linecap="round" stroke-linejoin="round" stroke-width="1.5"/><path d="M18.0104,4.47977h0a8.443,8.443,0,0,1,0,11.97353h0L14.47,19.97976a3.5,3.5,0,0,1-4.93584.00411l-.02579-.0256L5.98958,16.45333A8.44316,8.44316,0,0,1,5.98952,4.47977h0A8.52387,8.52387,0,0,1,17.982,4.45166l.02832.02811Z" fill="none" stroke="#323232" stroke-linecap="round" stroke-linejoin="round" stroke-width="1.5"/></svg>