<svg id="Layer_3" data-name="Layer 3" xmlns="http://www.w3.org/2000/svg" viewBox="0 0 24 24"><path d="M24,0H0V24H24Z" fill="none"/><path d="M10.5,8h3a0,0,0,0,1,0,0v2.5a.5.5,0,0,1-.5.5H11a.5.5,0,0,1-.5-.5V8A0,0,0,0,1,10.5,8Z" fill="none" stroke="#323232" stroke-linecap="round" stroke-linejoin="round" stroke-width="1.5"/><rect x="7.5" y="8" width="9" height="8" rx="2" stroke-width="1.5" stroke="#323232" stroke-linecap="round" stroke-linejoin="round" fill="none"/><polyline points="18.25 4.693 19.5 5.943 21.5 3.943" fill="none" stroke="#323232" stroke-linecap="round" stroke-linejoin="round" stroke-width="1.5"/><path d="M21.05878,9.206A9.33447,9.33447,0,0,1,21.5,12,9.5,9.5,0,1,1,12,2.5a9.33454,9.33454,0,0,1,2.79406.44122" fill="none" stroke="#323232" stroke-linecap="round" stroke-linejoin="round" stroke-width="1.5"/><path d="M21.05878,9.206A9.33447,9.33447,0,0,1,21.5,12,9.5,9.5,0,1,1,12,2.5a9.33454,9.33454,0,0,1,2.79406.44122" fill="none" stroke="#323232" stroke-linecap="round" stroke-linejoin="round" stroke-width="1.5"/></svg>