<svg id="Layer_3" data-name="Layer 3" xmlns="http://www.w3.org/2000/svg" viewBox="0 0 24 24"><path d="M0,0,24,0l0,24L0,24Z" fill="none"/><path d="M20,3.94638c2.202,2.21682.41693,7.6081-3.987,12.04176S6.25383,22.21889,4.05185,20.00207" fill="none" stroke="#323232" stroke-linecap="round" stroke-linejoin="round" stroke-width="1.5"/><path d="M12.02592,10.51462A6.10248,6.10248,0,0,0,7.61483,8.70391,2.90387,2.90387,0,0,0,4.7911,11.55965a6.24785,6.24785,0,0,0,.12849,1.31311,5.58963,5.58963,0,0,1,3.44622,1.32665" fill="none" stroke="#323232" stroke-linecap="round" stroke-linejoin="round" stroke-width="1.5"/><path d="M8.37108,14.1941a5.56855,5.56855,0,0,0-2.86215-1.27554,1.9685,1.9685,0,0,0-2.10365,1.34352c-.76132,2.36378-.60628,4.47869.64657,5.74" fill="none" stroke="#323232" stroke-linecap="round" stroke-linejoin="round" stroke-width="1.5"/><path d="M12.02592,10.51462A6.10207,6.10207,0,0,0,8.06826,8.71969q-.00749-.1186-.01051-.23738a3.00377,3.00377,0,0,1,3.11995-3.0584A6.10046,6.10046,0,0,1,15.288,7.2305" fill="none" stroke="#323232" stroke-linecap="round" stroke-linejoin="round" stroke-width="1.5"/><path d="M10.78778,5.44989C14.05792,2.66254,18.02069,1.95465,20,3.94635" fill="none" stroke="#323232" stroke-linecap="round" stroke-linejoin="round" stroke-width="1.5"/></svg>