<?xml version="1.0" encoding="UTF-8"?><svg version="1.1" viewBox="0 0 24 24" xmlns="http://www.w3.org/2000/svg" xmlns:xlink="http://www.w3.org/1999/xlink"><g stroke-linecap="round" stroke-width="1.5" stroke="#323232" fill="none" stroke-linejoin="round"><path d="M8.952 3.956c.95-.36 1.976-.566 3.051-.566 4.027 0 7.398 2.767 8.343 6.5"></path><path d="M6.558 18.67c-.786-.642-1.478-1.427-2.016-2.359 -2.013-3.487-1.302-7.79 1.458-10.475"></path><path d="M20.498 13.386c-.163 1.002-.497 1.993-1.035 2.925 -2.014 3.487-6.096 5.024-9.801 3.974"></path><path d="M10.586 13.414c.781.781 2.047.781 2.828 0 .781-.781.781-2.047 0-2.829 -.781-.781-2.047-.781-2.828 0 -.781.782-.781 2.048 0 2.829Z"></path><path d="M12 7.71v-.71"></path><path d="M12 16.29v.71"></path><path d="M15.54 8.46l-.51.51"></path><path d="M8.97 15.03l-.51.51"></path><path d="M8.46 8.46l.51.51"></path><path d="M15.03 15.03l.51.51"></path><path d="M7.71 12h-.71"></path><path d="M17 12h-.71"></path></g><path fill="none" d="M0 0h24v24h-24v-24Z"></path></svg>