<?xml version="1.0" encoding="UTF-8"?><svg version="1.1" viewBox="0 0 24 24" xmlns="http://www.w3.org/2000/svg" xmlns:xlink="http://www.w3.org/1999/xlink"><!--Generated by IJSVG (https://github.com/iconjar/IJSVG)--><g stroke-linecap="round" stroke-width="1.625" stroke="#323232" fill="none" stroke-linejoin="round"><path d="M15.8891,8.11091c2.14788,2.14788 2.14788,5.63029 0,7.77817c-2.14788,2.14788 -5.63029,2.14788 -7.77817,0c-2.14788,-2.14788 -2.14788,-5.63029 -1.77636e-15,-7.77817c2.14788,-2.14788 5.63029,-2.14788 7.77817,-1.77636e-15"></path><path d="M12,3v-1"></path><path d="M12,22v-1"></path><path d="M18.36,5.64l0.71,-0.71"></path><path d="M4.93,19.07l0.71,-0.71"></path><path d="M21,12h1"></path><path d="M2,12h1"></path><path d="M18.36,18.36l0.71,0.71"></path><path d="M4.93,4.93l0.71,0.71"></path></g><path fill="none" d="M0,0h24v24h-24Z"></path></svg>