<?xml version="1.0" encoding="UTF-8"?><svg version="1.1" viewBox="0 0 24 24" xmlns="http://www.w3.org/2000/svg" xmlns:xlink="http://www.w3.org/1999/xlink"><g fill="none"><path d="M24 24h-24v-24h24v24Z"></path><path stroke="#323232" stroke-linecap="round" stroke-linejoin="round" stroke-width="1.5" d="M10 11v1c0 1.657 1.343 3 3 3h2c1.657 0 3-1.343 3-3v-7c0-1.657-1.343-3-3-3h-2c-1.657 0-3 1.343-3 3v0"></path><path stroke="#323232" stroke-linecap="round" stroke-linejoin="round" stroke-width="1.5" d="M22.182 16.109l-1.287-.637"></path><path stroke="#323232" stroke-linecap="round" stroke-linejoin="round" stroke-width="1.5" d="M19.478 18.644l-.52-1.534"></path><path stroke="#323232" stroke-linecap="round" stroke-linejoin="round" stroke-width="1.5" d="M22.455 12.455l-1.43.481"></path><path stroke="#323232" stroke-linecap="round" stroke-linejoin="round" stroke-width="1.5" d="M14 12v-1c0-1.657-1.343-3-3-3h-2c-1.657 0-3 1.343-3 3v7c0 1.657 1.343 3 3 3h2c1.657 0 3-1.343 3-3v0"></path><path stroke="#323232" stroke-linecap="round" stroke-linejoin="round" stroke-width="1.5" d="M1.818 6.891l1.287.637"></path><path stroke="#323232" stroke-linecap="round" stroke-linejoin="round" stroke-width="1.5" d="M4.522 4.356l.52 1.534"></path><path stroke="#323232" stroke-linecap="round" stroke-linejoin="round" stroke-width="1.5" d="M1.545 10.545l1.43-.481"></path></g></svg>