<?xml version="1.0" encoding="UTF-8"?><svg version="1.1" viewBox="0 0 24 24" xmlns="http://www.w3.org/2000/svg" xmlns:xlink="http://www.w3.org/1999/xlink"><g stroke-linecap="round" stroke-width="1.5" stroke="#323232" fill="none" stroke-linejoin="round"><line x1="8.38" x2="7.66" y1="8.38" y2="7.66"></line><line x1="10.7" x2="10.7" y1="7.07" y2="6"></line><line x1="6" x2="7.07" y1="10.7" y2="10.7"></line><line x1="15.62" x2="16.34" y1="15.62" y2="16.34"></line><line x1="13.3" x2="13.3" y1="16.93" y2="18"></line><line x1="16.93" x2="18" y1="13.3" y2="13.3"></line><path d="M15.163 11.689l1.237-1.241 -1.96632e-10 1.969e-10c.752872-.753891.752872-1.97511 3.93264e-10-2.729v0l2.19126e-08 2.1883e-08c-.753891-.752872-1.97511-.752872-2.729-4.3766e-08l-1.237 1.241"></path><path d="M8.96 12.434l-1.241 1.241 -3.77612e-08 3.78123e-08c-.752872.753891-.752872 1.97511 7.55224e-08 2.729v0l2.15188e-08 2.14897e-08c.753891.752872 1.97511.752872 2.729-4.29794e-08l1.241-1.241"></path><rect width="18" height="18" x="3" y="3" rx="2.20912" ry="0"></rect></g><path fill="none" d="M0 0h24v24h-24Z"></path></svg>