<?xml version="1.0" encoding="UTF-8"?><svg version="1.1" viewBox="0 0 24 24" xmlns="http://www.w3.org/2000/svg" xmlns:xlink="http://www.w3.org/1999/xlink"><g stroke-linecap="round" stroke-width="1.5" stroke="#323232" fill="none" stroke-linejoin="round"><line x1="18.43" x2="21" y1="14.57" y2="14.57"></line><line x1="14.57" x2="14.57" y1="21" y2="18.43"></line><line x1="19.39" x2="17.46" y1="19.39" y2="17.46"></line><line x1="5.57" x2="3" y1="9.43" y2="9.43"></line><line x1="9.43" x2="9.43" y1="3" y2="5.57"></line><line x1="4.61" x2="6.54" y1="4.61" y2="6.54"></line><path d="M12.643 16.013l-2.133 2.133c-1.264 1.264-3.314 1.264-4.578 0v0c-1.264-1.264-1.264-3.314 0-4.578l2.133-2.133"></path><path d="M11.412 8.01l2.133-2.133c1.264-1.264 3.314-1.264 4.578 0v0c1.264 1.264 1.264 3.314 0 4.578l-2.133 2.133"></path></g><rect width="24" height="24" fill="none"></rect></svg>