<?xml version="1.0" encoding="UTF-8"?><svg version="1.1" viewBox="0 0 24 24" xmlns="http://www.w3.org/2000/svg" xmlns:xlink="http://www.w3.org/1999/xlink"><g stroke-linecap="round" stroke-width="1.5" stroke="#323232" fill="none" stroke-linejoin="round"><line x1="8.5" x2="8.5" y1="22" y2="20"></line><line x1="15.5" x2="15.5" y1="22" y2="20"></line><path d="M16.765 22h-9.53l1.14336e-07-1.41682e-11c-1.10457.000136894-2.00011-.895183-2.00025-1.99975 -9.16106e-06-.0739189.00407969-.147782.0122477-.221248l.358-3.221 -1.28723e-07 1.15778e-06c.225187-2.02542 1.9371-3.55774 3.975-3.558h4.84l1.42741e-07-1.60453e-10c2.03981-.00229289 3.7546 1.53068 3.98 3.558l.358 3.221 -1.15089e-08-1.03512e-07c.122059 1.0978-.66894 2.0867-1.76674 2.20876 -.0751265.00835289-.150666.01244-.226255.0122416Z"></path><path d="M12 2v0l-6.55671e-08 1.77636e-15c.828427-3.62117e-08 1.5.671573 1.5 1.5v6 0c0 .276142-.223858.5-.5.5h-2 -2.18557e-08c-.276142-1.20706e-08-.5-.223858-.5-.5 0 0 0-1.77636e-15 0-1.77636e-15v-6l1.42109e-14-1.39071e-07c1.25089e-07-.828427.671573-1.5 1.5-1.5Z"></path><path d="M14.25 13h-4.5l-2.60496e-08 2.17426e-12c-.552285 4.60621e-05-1.00004-.447632-1.00008-.999917 -1.10254e-05-.132194.0261886-.263079.0770834-.385083l.417-1 -1.93763e-08 4.64486e-08c.155378-.37247.51942-.615034.923-.615h3.666l5.49327e-08-4.583e-12c.40358-3.36468e-05.767622.24253.923.615l.417 1 3.3394e-09 8.00516e-09c.21263.509713-.0282039 1.09529-.537917 1.30792 -.122004.0508948-.252889.0770944-.385083.0770834Z"></path><line x1="12" x2="12" y1="22" y2="20"></line></g><rect width="24" height="24" fill="none"></rect></svg>