<svg id="Layer_3" data-name="Layer 3" xmlns="http://www.w3.org/2000/svg" viewBox="0 0 24 24"><circle cx="12" cy="12" r="9" fill="none" stroke="#323232" stroke-linecap="round" stroke-linejoin="round" stroke-width="1.5"/><path d="M15.11277,11.89l.76534-.76534a2.12327,2.12327,0,0,0,0-3.00276h0a2.12327,2.12327,0,0,0-3.00276,0l-.76288.76288" fill="none" stroke="#323232" stroke-linecap="round" stroke-linejoin="round" stroke-width="1.5"/><line x1="15.87811" y1="8.12189" x2="18.36376" y2="5.63624" fill="none" stroke="#323232" stroke-linecap="round" stroke-linejoin="round" stroke-width="1.5"/><path d="M14.32372,16.54044a7.81772,7.81772,0,0,0,1.14943-3.25395,2.00295,2.00295,0,0,0-.57783-1.64885c-.70288-.70285-1.83121-1.83117-2.53376-2.53372a2.001,2.001,0,0,0-1.64823-.57709A7.81818,7.81818,0,0,0,7.45954,9.67629,2.04863,2.04863,0,0,0,6.761,12.34164a12.73745,12.73745,0,0,0,4.8974,4.8974A2.04863,2.04863,0,0,0,14.32372,16.54044Z" fill="none" stroke="#323232" stroke-linecap="round" stroke-linejoin="round" stroke-width="1.5"/><line x1="8.86575" y1="15.13425" x2="10" y2="14" fill="none" stroke="#323232" stroke-linecap="round" stroke-linejoin="round" stroke-width="1.5"/><line x1="7.10877" y1="12.89123" x2="8" y2="12" fill="none" stroke="#323232" stroke-linecap="round" stroke-linejoin="round" stroke-width="1.5"/><line x1="11.09139" y1="16.90861" x2="12" y2="16" fill="none" stroke="#323232" stroke-linecap="round" stroke-linejoin="round" stroke-width="1.5"/><rect width="24" height="24" fill="none"/></svg>