<?xml version="1.0" encoding="UTF-8"?><svg version="1.1" viewBox="0 0 24 24" xmlns="http://www.w3.org/2000/svg" xmlns:xlink="http://www.w3.org/1999/xlink"><!--Generated by IJSVG (https://github.com/iconjar/IJSVG)--><g stroke-linecap="round" stroke-width="1.5" stroke="#323232" fill="none" stroke-linejoin="round"><path d="M20,21h-16c-1.105,0 -2,-0.895 -2,-2v-14c0,-1.105 0.895,-2 2,-2h16c1.105,0 2,0.895 2,2v14c0,1.105 -0.895,2 -2,2Z"></path><path d="M2,8h20"></path><path d="M4.779,5.49c-0.003,0 -0.005,0.002 -0.005,0.005c0,0.003 0.002,0.005 0.005,0.005c0.003,0 0.005,-0.002 0.005,-0.005c0,-0.003 -0.002,-0.005 -0.005,-0.005"></path><path d="M7.322,5.49c-0.003,0 -0.005,0.002 -0.005,0.005c0,0.003 0.003,0.005 0.005,0.005c0.003,0 0.005,-0.002 0.005,-0.005c0,-0.003 -0.002,-0.005 -0.005,-0.005"></path><path d="M9.861,5.49c-0.003,0 -0.005,0.002 -0.005,0.005c0,0.003 0.002,0.005 0.005,0.005c0.003,0 0.005,-0.002 0.005,-0.005c-1.77636e-15,-0.003 -0.002,-0.005 -0.005,-0.005"></path><path d="M13.153,14.498l0.988,1.273c0.105,0.135 0.161,0.301 0.161,0.472v0.902c0,0.212 -0.173,0.385 -0.385,0.385h-3.833c-0.212,0 -0.385,-0.173 -0.385,-0.385v-0.916c0,-0.162 0.052,-0.321 0.146,-0.452l0.926,-1.28l-0.926,-1.279c-0.095,-0.132 -0.146,-0.29 -0.146,-0.452v-0.916c0,-0.212 0.173,-0.385 0.385,-0.385h3.833c0.212,0 0.385,0.173 0.385,0.385v0.901c0,0.171 -0.057,0.337 -0.161,0.472l-0.988,1.275Z"></path></g><path fill="none" d="M0,0h24v24h-24v-24Z"></path></svg>