<?xml version="1.0" encoding="UTF-8"?><svg version="1.1" viewBox="0 0 24 24" xmlns="http://www.w3.org/2000/svg" xmlns:xlink="http://www.w3.org/1999/xlink"><!--Generated by IJSVG (https://github.com/iconjar/IJSVG)--><g stroke-linecap="round" stroke-width="1.5" stroke="#323232" fill="none" stroke-linejoin="round"><path d="M20,21h-16c-1.105,0 -2,-0.895 -2,-2v-14c0,-1.105 0.895,-2 2,-2h16c1.105,0 2,0.895 2,2v14c0,1.105 -0.895,2 -2,2Z"></path><path d="M2,8h20"></path><path d="M4.779,5.49c-0.003,0 -0.005,0.002 -0.005,0.005c0,0.003 0.002,0.005 0.005,0.005c0.003,0 0.005,-0.002 0.005,-0.005c0,-0.003 -0.002,-0.005 -0.005,-0.005"></path><path d="M7.322,5.49c-0.003,0 -0.005,0.002 -0.005,0.005c0,0.003 0.003,0.005 0.005,0.005c0.003,0 0.005,-0.002 0.005,-0.005c0,-0.003 -0.002,-0.005 -0.005,-0.005"></path><path d="M9.861,5.49c-0.003,0 -0.005,0.002 -0.005,0.005c0,0.003 0.002,0.005 0.005,0.005c0.003,0 0.005,-0.002 0.005,-0.005c-1.77636e-15,-0.003 -0.002,-0.005 -0.005,-0.005"></path><path d="M10,14h-3c-0.552,0 -1,-0.448 -1,-1v-1c0,-0.552 0.448,-1 1,-1h3c0.552,0 1,0.448 1,1v1c0,0.552 -0.448,1 -1,1Z"></path><path d="M14,11h4"></path><path d="M14,14h3"></path><path d="M18,21v-3c0,-0.552 -0.448,-1 -1,-1h-10c-0.552,0 -1,0.448 -1,1v3"></path></g><path fill="none" d="M0,0h24v24h-24v-24Z"></path></svg>