<?xml version="1.0" encoding="UTF-8"?><svg version="1.1" viewBox="0 0 24 24" xmlns="http://www.w3.org/2000/svg" xmlns:xlink="http://www.w3.org/1999/xlink"><!--Generated by IJSVG (https://github.com/iconjar/IJSVG)--><g stroke-linecap="round" stroke-width="1.5" stroke="#323232" fill="none" stroke-linejoin="round"><path d="M20,21h-16c-1.105,0 -2,-0.895 -2,-2v-14c0,-1.105 0.895,-2 2,-2h16c1.105,0 2,0.895 2,2v14c0,1.105 -0.895,2 -2,2Z"></path><path d="M2,8h20"></path><path d="M4.779,5.49c-0.003,0 -0.005,0.002 -0.005,0.005c0,0.003 0.002,0.005 0.005,0.005c0.003,0 0.005,-0.002 0.005,-0.005c0,-0.003 -0.002,-0.005 -0.005,-0.005"></path><path d="M7.322,5.49c-0.003,0 -0.005,0.002 -0.005,0.005c0,0.003 0.003,0.005 0.005,0.005c0.003,0 0.005,-0.002 0.005,-0.005c0,-0.003 -0.002,-0.005 -0.005,-0.005"></path><path d="M9.861,5.49c-0.003,0 -0.005,0.002 -0.005,0.005c0,0.003 0.002,0.005 0.005,0.005c0.003,0 0.005,-0.002 0.005,-0.005c-1.77636e-15,-0.003 -0.002,-0.005 -0.005,-0.005"></path><path d="M8.5,11h7c0.552,0 1,0.451 1,1.007v4.987c0,0.556 -0.448,1.007 -1,1.007h-7c-0.552,0 -1,-0.451 -1,-1.007v-4.987c0,-0.556 0.448,-1.007 1,-1.007Z"></path><path d="M7.5,12.245l3.329,2.381c0.695,0.497 1.629,0.498 2.325,0.002l3.346,-2.387"></path></g><path fill="none" d="M0,0h24v24h-24v-24Z"></path></svg>