<?xml version="1.0" encoding="UTF-8"?><svg version="1.1" viewBox="0 0 24 24" xmlns="http://www.w3.org/2000/svg" xmlns:xlink="http://www.w3.org/1999/xlink"><!--Generated by IJSVG (https://github.com/iconjar/IJSVG)--><g fill="none"><path d="M0,0h24v24h-24Z"></path><path stroke="#323232" stroke-linecap="round" stroke-linejoin="round" stroke-width="1.5" d="M20,13v-8c0,-1.105 -0.895,-2 -2,-2h-13c-1.105,0 -2,0.895 -2,2v13c0,1.105 0.895,2 2,2h8"></path><path stroke="#323232" stroke-linecap="round" stroke-linejoin="round" stroke-width="1.5" d="M5.815,5.49c-0.003,0 -0.005,0.002 -0.005,0.005c-8.88178e-16,0.003 0.002,0.005 0.005,0.005c0.003,0 0.005,-0.002 0.005,-0.005c0,-0.003 -0.002,-0.005 -0.005,-0.005"></path><path stroke="#323232" stroke-linecap="round" stroke-linejoin="round" stroke-width="1.5" d="M8.358,5.49c-0.003,0 -0.005,0.002 -0.005,0.005c0,0.003 0.003,0.005 0.005,0.005c0.003,0 0.005,-0.002 0.005,-0.005c-1.77636e-15,-0.003 -0.002,-0.005 -0.005,-0.005"></path><path stroke="#323232" stroke-linecap="round" stroke-linejoin="round" stroke-width="1.5" d="M10.897,5.49c-0.003,0 -0.005,0.002 -0.005,0.005c0,0.003 0.002,0.005 0.005,0.005c0.003,0 0.005,-0.002 0.005,-0.005c-1.77636e-15,-0.003 -0.002,-0.005 -0.005,-0.005"></path><path stroke="#323232" stroke-linecap="round" stroke-linejoin="round" stroke-width="1.5" d="M3.036,8h16.964"></path><path stroke="#323232" stroke-linecap="round" stroke-linejoin="round" stroke-width="1.5" d="M17,22c-2.761,0 -5,-2.239 -5,-5c0,-2.761 2.239,-5 5,-5c2.762,0 5,2.239 5,5c0,2.761 -2.238,5 -5,5"></path><path stroke="#323232" stroke-linecap="round" stroke-linejoin="round" stroke-width="1.5" d="M18.771,16.483l0.405,-0.405c0.365,0.861 0.197,1.893 -0.505,2.594c-0.563,0.563 -1.337,0.775 -2.065,0.65"></path><path stroke="#323232" stroke-linecap="round" stroke-linejoin="round" stroke-width="1.5" d="M15.229,17.517l-0.405,0.405c-0.365,-0.861 -0.197,-1.893 0.505,-2.594c0.597,-0.597 1.433,-0.798 2.199,-0.623"></path></g></svg>