<svg id="Layer_3" data-name="Layer 3" xmlns="http://www.w3.org/2000/svg" viewBox="0 0 24 24"><path d="M3,8H21" fill="none" stroke="#323232" stroke-linecap="round" stroke-linejoin="round" stroke-width="1.5"/><path d="M10.866,5.495l-.005.005.005.005.005-.005-.005-.005" fill="none" stroke="#323232" stroke-linecap="round" stroke-linejoin="round" stroke-width="1.5"/><path d="M8.327,5.495,8.322,5.5l.005.005L8.332,5.5l-.005-.005" fill="none" stroke="#323232" stroke-linecap="round" stroke-linejoin="round" stroke-width="1.5"/><path d="M5.779,5.49l-.005.005.005.005.005-.005L5.779,5.49" fill="none" stroke="#323232" stroke-linecap="round" stroke-linejoin="round" stroke-width="1.5"/><path d="M10,21H4.9989A1.9989,1.9989,0,0,1,3,19.0011V5A2,2,0,0,1,5,3H19.0011A1.9989,1.9989,0,0,1,21,4.9989V11" fill="none" stroke="#323232" stroke-linecap="round" stroke-linejoin="round" stroke-width="1.5"/><path d="M14.0405,15.619V20a1.00294,1.00294,0,0,0,1,1h5a1,1,0,0,0,1-1V15.68756" fill="none" stroke="#323232" stroke-linecap="round" stroke-linejoin="round" stroke-width="1.5"/><path d="M22,16.5l-3.8538-3.26314a1,1,0,0,0-1.2924,0L13,16.5" fill="none" stroke="#323232" stroke-linecap="round" stroke-linejoin="round" stroke-width="1.5"/><path d="M0,0H24V24H0Z" fill="none"/></svg>