<svg id="Layer_3" data-name="Layer 3" xmlns="http://www.w3.org/2000/svg" viewBox="0 0 24 24"><rect width="24" height="24" fill="none"/><path d="M3,9H21" fill="none" stroke="#323232" stroke-linecap="round" stroke-linejoin="round" stroke-width="1.5"/><path d="M11,5.995,10.995,6,11,6.005,11.005,6,11,5.995" fill="none" stroke="#323232" stroke-linecap="round" stroke-linejoin="round" stroke-width="1.5"/><path d="M8.5,5.995,8.495,6l.005.005L8.505,6,8.5,5.995" fill="none" stroke="#323232" stroke-linecap="round" stroke-linejoin="round" stroke-width="1.5"/><path d="M6,5.995,5.995,6,6,6.005,6.005,6,6,5.995" fill="none" stroke="#323232" stroke-linecap="round" stroke-linejoin="round" stroke-width="1.5"/><path d="M11,5.995,10.995,6,11,6.005,11.005,6,11,5.995" fill="none" stroke="#323232" stroke-linecap="round" stroke-linejoin="round" stroke-width="1.5"/><path d="M8.5,5.995,8.495,6l.005.005L8.505,6,8.5,5.995" fill="none" stroke="#323232" stroke-linecap="round" stroke-linejoin="round" stroke-width="1.5"/><path d="M6,5.995,5.995,6,6,6.005,6.005,6,6,5.995" fill="none" stroke="#323232" stroke-linecap="round" stroke-linejoin="round" stroke-width="1.5"/><path d="M20.61079,16.79179A1,1,0,0,0,21,16V15a1,1,0,0,0-1-1H14a1,1,0,0,0-1,1v1a1,1,0,0,0,.38921.79179L15.5,18.42008v2.07864a1,1,0,0,0,1.44727.89441l1-.50006A1,1,0,0,0,18.5,19.99866V18.42008Z" fill="none" stroke="#323232" stroke-linecap="round" stroke-linejoin="round" stroke-width="1.5"/><path d="M12,21H6a3,3,0,0,1-3-3V6A3,3,0,0,1,6,3H18a3,3,0,0,1,3,3v5" fill="none" stroke="#323232" stroke-linecap="round" stroke-linejoin="round" stroke-width="1.5"/></svg>