<svg viewBox="0 0 24 24" xmlns="http://www.w3.org/2000/svg"><g stroke-linecap="round" stroke-width="1.5" stroke="#323232" fill="none" stroke-linejoin="round"><path d="M8.82 8.74l-.01 0 0 0 0-.01 -.01-.01"/><path d="M11.368 8.74l-.01 0 0 0 0-.01 -.01-.01"/><path d="M13.907 8.74l-.01 0 0 0 0-.01 -.01-.01"/><path d="M16 17.75H8l-.01 0c-1.11 0-2-.9-2-2 -.01-.01-.01-.01 0-.01v-7.5l-.01-.01c-.01-1.11.89-2 1.99-2 0-.001 0 0 0 0h8l0-.001c1.1-.01 1.99.89 1.99 1.99 0 0 0 0-.001 0v7.5l0 0c0 1.1-.9 1.99-2 1.99 -.01 0-.01-.01-.01-.01Z"/><path d="M7 21H5l-.01-.001c-1.11-.01-2-.9-2-2.01 0 0 0 0 0 0v-2"/><path d="M17 3h2l-.01 0c1.1-.01 2 .89 2 1.99v2"/><path d="M3 7V5l0 0c-.01-1.11.89-2.01 1.99-2.01h2"/><path d="M21 17v2 0c0 1.1-.9 2-2 2h-2"/><path d="M6 11.25h12"/></g><path fill="none" d="M0 0h24v24H0Z"/></svg>