<?xml version="1.0" encoding="UTF-8"?><svg version="1.1" viewBox="0 0 24 24" xmlns="http://www.w3.org/2000/svg" xmlns:xlink="http://www.w3.org/1999/xlink"><g stroke-linecap="round" stroke-width="1.5" stroke="#323232" fill="none" stroke-linejoin="round"><path d="M19.5 21h-15l-8.74228e-08-3.55271e-15c-1.10457-4.82823e-08-2-.895431-2-2 0 0 0 0 0 0v-14l2.4869e-14 3.01992e-07c-1.66785e-07-1.10457.89543-2 2-2h15l-8.74228e-08 1.77636e-15c1.10457-4.82823e-08 2 .89543 2 2v14l-3.55271e-15 2.13163e-14c0 1.10457-.89543 2-2 2Z"></path><path d="M2.5 8h19"></path></g><g transform="matrix(1 0 0 1 -.032 .026)"><rect width="12" height="4" x="6.006" y="12.5" fill="none" rx="1.10456" ry="0" stroke="#323232" stroke-linecap="round" stroke-linejoin="round" stroke-width="1.5" transform="matrix(.999998 -.00219911 .00219911 .999998 0 0)"></rect></g><g stroke-linecap="round" stroke-width="1.5" stroke="#323232" fill="none" stroke-linejoin="round"><line x1="11" x2="9.01" y1="12.5" y2="16.51"></line><line x1="15" x2="13.01" y1="12.49" y2="16.5"></line><path d="M10.638 5.5v0c0-.0276142-.0223858-.05-.05-.05 0 0 0 0 0 0h-2.18557e-09c-.0276142 1.20706e-09-.05.0223858-.05.05 0 0 0 8.88178e-16 0 8.88178e-16l1.77636e-15 3.27242e-09c4.16963e-09.0276142.0223858.05.05.05 .0276142-4.16963e-09.05-.0223858.05-.05"></path><path d="M8.1 5.5v0c0-.0276142-.0223858-.05-.05-.05 0 0 0 0 0 0h-2.18557e-09c-.0276142 1.20706e-09-.05.0223858-.05.05v7.54979e-09c4.16963e-09.0276142.0223858.05.05.05 .0276142-4.16963e-09.05-.0223858.05-.05"></path><path d="M5.555 5.5h-8.88178e-16c0-.0276142-.0223858-.05-.05-.05h-2.18557e-09c-.0276142 1.20706e-09-.05.0223858-.05.05v3.27242e-09c4.16963e-09.0276142.0223858.05.05.05 .0276142-4.16963e-09.05-.0223858.05-.05"></path></g><path fill="none" d="M0 0h24v24h-24Z"></path></svg>