<?xml version="1.0" encoding="UTF-8"?><svg version="1.1" viewBox="0 0 24 24" xmlns="http://www.w3.org/2000/svg" xmlns:xlink="http://www.w3.org/1999/xlink"><!--Generated by IJSVG (https://github.com/iconjar/IJSVG)--><g stroke-linecap="round" stroke-width="1.5" stroke="#323232" fill="none" stroke-linejoin="round"><path d="M10.866,5.495c-0.003,0 -0.005,0.002 -0.005,0.005c0,0.003 0.002,0.005 0.005,0.005c0.003,0 0.005,-0.002 0.005,-0.005c0,-0.003 -0.002,-0.005 -0.005,-0.005"></path><path d="M8.327,5.495c-0.003,0 -0.005,0.002 -0.005,0.005c0,0.003 0.002,0.005 0.005,0.005c0.003,0 0.005,-0.002 0.005,-0.005c0,-0.003 -0.002,-0.005 -0.005,-0.005"></path><path d="M5.779,5.49c-0.003,0 -0.005,0.002 -0.005,0.005c0,0.003 0.002,0.005 0.005,0.005c0.003,0 0.005,-0.002 0.005,-0.005c0,-0.003 -0.002,-0.005 -0.005,-0.005"></path><path d="M3,8h18"></path><path d="M21,10v-5c0,-1.105 -0.895,-2 -2,-2h-14c-1.105,0 -2,0.895 -2,2v13c0,1.105 0.895,2 2,2h4"></path><path d="M21,21l-1.98,-1.98"></path><path d="M15.834,20.334c-2.485,0 -4.5,-2.015 -4.5,-4.5c0,-2.485 2.015,-4.5 4.5,-4.5c2.486,0 4.5,2.015 4.5,4.5c0,2.485 -2.014,4.5 -4.5,4.5"></path><path d="M15.084,15.084l0.75,-0.751v3.001"></path><path d="M15.087,17.337h1.494"></path></g><path fill="none" d="M0,0h24v24h-24v-24Z"></path></svg>