<?xml version="1.0" encoding="UTF-8"?><svg version="1.1" viewBox="0 0 24 24" xmlns="http://www.w3.org/2000/svg" xmlns:xlink="http://www.w3.org/1999/xlink"><g stroke-linecap="round" stroke-width="1.5" stroke="#323232" fill="none" stroke-linejoin="round"><path d="M21 12v4 0c0 2.76142-2.23858 5-5 5h-8l-2.18557e-07-7.10543e-15c-2.76142-1.20706e-07-5-2.23858-5-5 0 0 0-1.77636e-15 0-1.77636e-15v-8l5.68434e-14 7.54979e-07c-4.16963e-07-2.76142 2.23858-5 5-5h4"></path><path d="M12.309 10.939l.144-.577 7.97088e-08-3.19433e-07c.17486-.700752.536737-1.34086 1.047-1.852l4.889-4.89 1.74751e-08-1.83851e-08c.80512-.847047 2.14447-.881036 2.99151-.0759163 .847047.80512.881036 2.14447.0759163 2.99151 -.0248218.0261145-.0503066.0515907-.0764294.0764038l-4.89 4.888 1.60127e-07-1.60611e-07c-.510497.51204-1.15126.874781-1.853 1.049l-.725.182"></path><path d="M11.381 16l1.39646e-07-4.51593e-10c1.44698-.00467935 2.61619-1.18148 2.61151-2.62846 -.00448725-1.38758-1.09004-2.53103-2.47552-2.60754 -2.249-.114-2.769 2.6-4.017 3.313l1.0531e-07 1.41559e-07c.911403 1.22512 2.35415 1.93999 3.881 1.923Z"></path></g><rect width="24" height="24" fill="none"></rect></svg>