<?xml version="1.0" encoding="UTF-8"?><svg version="1.1" viewBox="0 0 24 24" xmlns="http://www.w3.org/2000/svg" xmlns:xlink="http://www.w3.org/1999/xlink"><!--Generated by IJSVG (https://github.com/iconjar/IJSVG)--><g stroke-linecap="round" stroke-width="1.5" stroke="#323232" fill="none" stroke-linejoin="round"><path d="M9,16.64v-4.64c0,-0.552 0.448,-1 1,-1h4c0.552,0 1,0.448 1,1v4.64"></path><path d="M14.442,11.104v-3.939c0,-0.354 -0.357,-0.596 -0.686,-0.464l-3.9,1.559c-0.095,0.038 -0.157,0.13 -0.157,0.232v2.557"></path><path d="M18.7175,5.28249c3.70998,3.70998 3.70998,9.72505 0,13.435c-3.70998,3.70998 -9.72505,3.70998 -13.435,3.55271e-15c-3.70998,-3.70998 -3.70998,-9.72505 -2.66454e-15,-13.435c3.70998,-3.70998 9.72505,-3.70998 13.435,-2.66454e-15"></path><path d="M17.177,19.959c-0.022,-2.011 -1.656,-3.636 -3.672,-3.636h-3.01c-2.016,0 -3.65,1.625 -3.672,3.636"></path></g><path fill="none" d="M0,0h24v24h-24Z"></path></svg>