<svg id="Layer_3" data-name="Layer 3" xmlns="http://www.w3.org/2000/svg" viewBox="0 0 24 24"><path d="M0,0H24V24H0Z" fill="none"/><line x1="10.39016" y1="8.50713" x2="15.49287" y2="13.60984" fill="none" stroke="#323232" stroke-linecap="round" stroke-linejoin="round" stroke-width="1.5"/><path d="M11.49314,14.63308l.42759.42758a1.5,1.5,0,0,0,2.12132,0L17.21169,11.891a.98433.98433,0,0,0,0-1.39206L13.50105,6.78831a.98433.98433,0,0,0-1.39206,0L8.93934,9.958a1.5,1.5,0,0,0,0,2.12132l.42754.42757L7.94037,13.93335a1.50349,1.50349,0,1,0,2.12628,2.12622Z" fill="none" stroke="#323232" stroke-linecap="round" stroke-linejoin="round" stroke-width="1.5"/><circle cx="12.00002" cy="11.99999" r="9" fill="none" stroke="#323232" stroke-linecap="round" stroke-linejoin="round" stroke-width="1.5"/></svg>