<svg id="Layer_3" data-name="Layer 3" xmlns="http://www.w3.org/2000/svg" viewBox="0 0 24 24"><rect width="24" height="24" fill="none"/><circle cx="18.5" cy="19" r="3.5" fill="none" stroke="#323232" stroke-linecap="round" stroke-linejoin="round" stroke-width="1.5"/><path d="M19.66666,18.4167,18.20909,19.875,17.33332,19" fill="none" stroke="#323232" stroke-linecap="round" stroke-linejoin="round" stroke-width="1.5"/><path d="M7.83484,8h8.33032a1,1,0,0,0,1-1V6.16515A5.16515,5.16515,0,0,0,12,1h0A5.16515,5.16515,0,0,0,6.83484,6.16515V7A1,1,0,0,0,7.83484,8Z" fill="none" stroke="#323232" stroke-linecap="round" stroke-linejoin="round" stroke-width="1.5"/><line x1="6.5" y1="8" x2="17.5" y2="8" fill="none" stroke="#323232" stroke-linecap="round" stroke-linejoin="round" stroke-width="1.5"/><path d="M16,8V9.99951a4,4,0,0,1-4,4h0a4,4,0,0,1-4-4V8" fill="none" stroke="#323232" stroke-linecap="round" stroke-linejoin="round" stroke-width="1.5"/><line x1="9.90123" y1="13.40491" x2="9.17719" y2="16.30127" fill="none" stroke="#323232" stroke-linecap="round" stroke-linejoin="round" stroke-width="1.5"/><path d="M13.5,1.22136V2.60055a1.5,1.5,0,0,1-1.5,1.5h0a1.5,1.5,0,0,1-1.5-1.5V1.22136" fill="none" stroke="#323232" stroke-linecap="round" stroke-linejoin="round" stroke-width="1.5"/><line x1="14.10126" y1="13.40491" x2="14.5" y2="15" fill="none" stroke="#323232" stroke-linecap="round" stroke-linejoin="round" stroke-width="1.5"/><path d="M13,16.97687a5.51045,5.51045,0,0,1-4.06323-.825H8.93671a.90437.90437,0,0,0-.67908-.13434l-2.846.56915A3.00005,3.00005,0,0,0,3,19.5285V20" fill="none" stroke="#323232" stroke-linecap="round" stroke-linejoin="round" stroke-width="1.5"/></svg>