<?xml version="1.0" encoding="UTF-8"?><svg version="1.1" viewBox="0 0 24 24" xmlns="http://www.w3.org/2000/svg" xmlns:xlink="http://www.w3.org/1999/xlink"><!--Generated by IJSVG (https://github.com/iconjar/IJSVG)--><g stroke-linecap="round" stroke-width="1.5" stroke="#323232" fill="none" stroke-linejoin="round"><path d="M4,16.309v0c0,-0.723 0.586,-1.309 1.309,-1.309h13.382c0.723,0 1.309,0.586 1.309,1.309v0c0,0.454 -0.106,0.902 -0.309,1.309l-0.138,0.276c-0.339,0.678 -1.031,1.106 -1.789,1.106h-11.528c-0.758,0 -1.45,-0.428 -1.789,-1.105l-0.138,-0.276c-0.203,-0.407 -0.309,-0.856 -0.309,-1.31Z"></path><path d="M19.2,7.4v0c-2.077,-1.558 -4.604,-2.4 -7.2,-2.4v0c-2.596,0 -5.123,0.842 -7.2,2.4v0c-0.504,0.378 -0.8,0.97 -0.8,1.6v0.5c0,0.828 0.672,1.5 1.5,1.5h13c0.828,0 1.5,-0.672 1.5,-1.5v-0.5c0,-0.63 -0.296,-1.222 -0.8,-1.6Z"></path><path d="M19,15h-14c-1.105,0 -2,-0.895 -2,-2v0c0,-1.105 0.895,-2 2,-2h14c1.105,0 2,0.895 2,2v0c0,1.105 -0.895,2 -2,2Z"></path></g><path fill="none" d="M0,0h24v24h-24Z"></path></svg>