<svg id="Layer_3" data-name="Layer 3" xmlns="http://www.w3.org/2000/svg" viewBox="0 0 24 24"><path d="M24,0H0V24H24Z" fill="none"/><path d="M11,2h5a1.00036,1.00036,0,0,1,1,1V6H10V3A1.00036,1.00036,0,0,1,11,2Z" fill="none" stroke="#323232" stroke-linecap="round" stroke-linejoin="round" stroke-width="1.5"/><path d="M3,15V14a2.99981,2.99981,0,0,1,3-3h4a2.99981,2.99981,0,0,1,3,3v1" fill="none" stroke="#323232" stroke-linecap="round" stroke-linejoin="round" stroke-width="1.5"/><path d="M13,19V18H3v1a1.99945,1.99945,0,0,0,2,2h6A1.99945,1.99945,0,0,0,13,19Z" fill="none" stroke="#323232" stroke-linecap="round" stroke-linejoin="round" stroke-width="1.5"/><path d="M14,15H2" fill="none" stroke="#323232" stroke-linecap="round" stroke-linejoin="round" stroke-width="1.5"/><path d="M6,8V7.5A1.5,1.5,0,0,1,7.5,6h12A1.5,1.5,0,0,1,21,7.5v12A1.5,1.5,0,0,1,19.5,21H16" fill="none" stroke="#323232" stroke-linecap="round" stroke-linejoin="round" stroke-width="1.5"/></svg>