<svg viewBox="0 0 24 24" xmlns="http://www.w3.org/2000/svg"><g fill="none"><path d="M0 0h24v24H0Z"/><g stroke-linecap="round" stroke-width="1.5" stroke="#323232" fill="none" stroke-linejoin="round"><path d="M16 5L5 5"/><path d="M16 18.5H6.16"/><path d="M14 10V5"/><path d="M18.7 17.29l0 0c.61.61.61 1.62 0 2.24 -.62.61-1.63.61-2.25 0 -.62-.62-.62-1.63-.01-2.25 0-.01 0-.01 0-.01l0-.01 -.01 0c.61-.62 1.62-.62 2.24-.01v0"/><path d="M5.704 17.29l0 0c.61.61.61 1.62 0 2.24 -.62.61-1.63.61-2.25 0 -.62-.62-.62-1.63-.01-2.25 0-.01 0-.01 0-.01l0-.01 0-.01c.61-.62 1.62-.62 2.23 0 0 0 0 0 0 0v0"/><path d="M7 5l0 5"/><path d="M22 12h-4l-1.42-1.42 0 0c-.38-.38-.89-.59-1.42-.59H2.98"/><path d="M19.169 18.5h1.33 -.01c.82 0 1.5-.68 1.5-1.5V9v0c0-2.21-1.8-4-4-4h-15"/></g></g></svg>