<?xml version="1.0" encoding="UTF-8"?><svg version="1.1" viewBox="0 0 24 24" xmlns="http://www.w3.org/2000/svg" xmlns:xlink="http://www.w3.org/1999/xlink"><g stroke-linecap="round" stroke-width="1.5" stroke="#323232" fill="none" stroke-linejoin="round"><path d="M17.5 19h-11c-1.105 0-2-.895-2-2v-11c0-1.657 1.343-3 3-3h9c1.657 0 3 1.343 3 3v11c0 1.105-.895 2-2 2Z"></path><line x1="7.5" x2="8.5" y1="16" y2="16"></line><line x1="15.5" x2="16.5" y1="16" y2="16"></line><path d="M8.236 19v1.5c0 .552-.448 1-1 1h-1c-.552 0-1-.448-1-1v-1.956"></path><path d="M18.764 18.544v1.956c0 .552-.448 1-1 1h-1c-.552 0-1-.448-1-1v-1.5"></path><path d="M19.5 7h1.5c.552 0 1 .448 1 1v3"></path><path d="M4.5 7h-1.5c-.552 0-1 .448-1 1v3"></path><path d="M18.355 3.645c0 0-1.769 1.769-1.769 1.769 -.375.375-.884.586-1.414.586h-6.344c-.53 0-1.039-.211-1.414-.586 0 0-1.771-1.771-1.771-1.771"></path><line x1="19.5" x2="4.5" y1="13" y2="13"></line></g><path fill="none" d="M0 0h24v24h-24v-24Z"></path></svg>