<svg id="Layer_3" data-name="Layer 3" xmlns="http://www.w3.org/2000/svg" viewBox="0 0 24 24"><path d="M0,0H24V24H0Z" fill="none"/><line x1="12" y1="17.50001" x2="12" y2="15.00002" fill="none" stroke="#323232" stroke-linecap="round" stroke-linejoin="round" stroke-width="1.5"/><path d="M10.25,9.5v-2a.5.5,0,0,1,.5-.5h2.5a.5.5,0,0,1,.5.5v2" fill="none" stroke="#323232" stroke-linecap="round" stroke-linejoin="round" stroke-width="1.5"/><path d="M10,9.5h4a1,1,0,0,1,1,1V13a2,2,0,0,1-2,2H11a2,2,0,0,1-2-2V10.5A1,1,0,0,1,10,9.5Z" fill="none" stroke="#323232" stroke-linecap="round" stroke-linejoin="round" stroke-width="1.5"/><rect x="3" y="3.00001" width="18" height="18" rx="5" stroke-width="1.5" stroke="#323232" stroke-linecap="round" stroke-linejoin="round" fill="none"/></svg>