<svg id="Layer_3" data-name="Layer 3" xmlns="http://www.w3.org/2000/svg" viewBox="0 0 24 24"><rect width="24" height="24" fill="none"/><path d="M20.5,19h-3a.5.5,0,0,1-.5-.5V15.33333A1.33333,1.33333,0,0,1,18.33333,14h1.33334A1.33333,1.33333,0,0,1,21,15.33333V18.5A.5.5,0,0,1,20.5,19Z" fill="none" stroke="#323232" stroke-linecap="round" stroke-linejoin="round" stroke-width="1.5"/><path d="M3.5,6h5a.5.5,0,0,1,.5.5V10a2,2,0,0,1-2,2H5a2,2,0,0,1-2-2V6.5A.5.5,0,0,1,3.5,6Z" fill="none" stroke="#323232" stroke-linecap="round" stroke-linejoin="round" stroke-width="1.5"/><path d="M4,6V3.5A.5.5,0,0,1,4.5,3h3a.5.5,0,0,1,.5.5V6" fill="none" stroke="#323232" stroke-linecap="round" stroke-linejoin="round" stroke-width="1.5"/><line x1="19" y1="21" x2="19" y2="19" fill="none" stroke="#323232" stroke-linecap="round" stroke-linejoin="round" stroke-width="1.5"/><path d="M19,14V6a3,3,0,0,0-3-3h0a3,3,0,0,0-3,3V17.5A3.5,3.5,0,0,1,9.5,21h0A3.5,3.5,0,0,1,6,17.5V12" fill="none" stroke="#323232" stroke-linecap="round" stroke-linejoin="round" stroke-width="1.5"/></svg>