<?xml version="1.0" encoding="UTF-8"?><svg version="1.1" viewBox="0 0 24 24" xmlns="http://www.w3.org/2000/svg" xmlns:xlink="http://www.w3.org/1999/xlink"><g fill="none"><path d="M0 0h24v24h-24Z"></path><path stroke="#323232" stroke-linecap="round" stroke-linejoin="round" stroke-width="1.5" d="M12.691 19.154v-3.306l1.60824e-08-5.61203e-06c.00121355-.423121.230592-.812678.600005-1.019l2.986-1.68 -2.48464e-08 1.38787e-08c.356106-.198914.789894-.198914 1.146-2.77574e-08l2.986 1.68 3.2857e-08 1.86903e-08c.366247.208336.592039.597648.590995 1.019v3.306l3.82935e-08-2.9357e-05c-.000544805.421718-.227807.810568-.594974 1.01801l-2.988 1.679 5.74534e-08-3.20924e-08c-.356106.198914-.789894.198914-1.146 6.41847e-08l-2.986-1.68 -1.4097e-07-7.95421e-08c-.36694-.207045-.593934-.595664-.594026-1.01699Z"></path><path stroke="#323232" stroke-linecap="round" stroke-linejoin="round" stroke-width="1.5" d="M16.846 17.5v4.5"></path><path stroke="#323232" stroke-linecap="round" stroke-linejoin="round" stroke-width="1.5" d="M12.851 15.257l3.995 2.243 4-2.243"></path><path stroke="#323232" stroke-linecap="round" stroke-linejoin="round" stroke-width="1.5" d="M15 3v2"></path><path stroke="#323232" stroke-linecap="round" stroke-linejoin="round" stroke-width="1.5" d="M7 3v2"></path><path stroke="#323232" stroke-linecap="round" stroke-linejoin="round" stroke-width="1.5" d="M3 9h16"></path><path stroke="#323232" stroke-linecap="round" stroke-linejoin="round" stroke-width="1.5" d="M19 10v-3 0c0-1.65685-1.34315-3-3-3h-10l-1.31134e-07 3.55271e-15c-1.65685 7.24234e-08-3 1.34315-3 3 0 0 0 1.77636e-15 0 1.77636e-15v9l3.37508e-14-4.52987e-07c-2.50178e-07 1.65685 1.34315 3 3 3h3"></path></g></svg>