<?xml version="1.0" encoding="UTF-8"?><svg version="1.1" viewBox="0 0 24 24" xmlns="http://www.w3.org/2000/svg" xmlns:xlink="http://www.w3.org/1999/xlink"><g fill="none"><path d="M0 0h24v24h-24Z"></path><path stroke="#323232" stroke-linecap="round" stroke-linejoin="round" stroke-width="1.5" d="M15 3v2"></path><path stroke="#323232" stroke-linecap="round" stroke-linejoin="round" stroke-width="1.5" d="M7 3v2"></path><path stroke="#323232" stroke-linecap="round" stroke-linejoin="round" stroke-width="1.5" d="M3 9h16"></path><path stroke="#323232" stroke-linecap="round" stroke-linejoin="round" stroke-width="1.5" d="M19 10v-3 0c0-1.65685-1.34315-3-3-3h-10l-1.31134e-07 3.55271e-15c-1.65685 7.24234e-08-3 1.34315-3 3 0 0 0 1.77636e-15 0 1.77636e-15v9l3.37508e-14-4.52987e-07c-2.50178e-07 1.65685 1.34315 3 3 3h3"></path><path stroke="#323232" stroke-linecap="round" stroke-linejoin="round" stroke-width="1.5" d="M13.286 13h6.428l-5.62128e-08 3.55271e-15c.710238-3.10455e-08 1.286.575762 1.286 1.286 0 0 0 1.77636e-15 0 1.77636e-15v5.714 0c0 .710238-.575762 1.286-1.286 1.286 0 0-3.55271e-15 0-3.55271e-15 0h-6.428l-5.62128e-08-3.55271e-15c-.710238-3.10455e-08-1.286-.575762-1.286-1.286 0 0 0 0 0 0v-5.714l1.42109e-14-1.94181e-07c1.07243e-07-.710238.575762-1.286 1.286-1.286Z"></path><line x1="17.5" x2="15.5" y1="16" y2="16" stroke="#323232" stroke-linecap="round" stroke-linejoin="round" stroke-width="1.5"></line></g></svg>