<?xml version="1.0" encoding="UTF-8"?><svg version="1.1" viewBox="0 0 24 24" xmlns="http://www.w3.org/2000/svg" xmlns:xlink="http://www.w3.org/1999/xlink"><g stroke-linecap="round" stroke-width="1.5" stroke="#323232" fill="none" stroke-linejoin="round"><path d="M16 2v4"></path><path d="M8 2v4"></path><path d="M3 9h18"></path><path d="M19 4h-14c-1.105 0-2 .895-2 2v13c0 1.105.895 2 2 2h14c1.105 0 2-.895 2-2v-13c0-1.105-.895-2-2-2Z"></path><path d="M10 17l4-4"></path><path d="M14.249 17c-.138 0-.25.112-.249.25 0 .138.112.25.25.25 .138 0 .25-.112.25-.25 0-.138-.112-.25-.251-.25"></path><path d="M9.749 12.5c-.138 0-.25.112-.249.25 0 .138.112.25.25.25 .138 0 .25-.112.25-.25 0-.138-.112-.25-.251-.25"></path></g><path fill="none" d="M0 0h24v24h-24Z"></path></svg>