<?xml version="1.0" encoding="UTF-8"?><svg version="1.1" viewBox="0 0 24 24" xmlns="http://www.w3.org/2000/svg" xmlns:xlink="http://www.w3.org/1999/xlink"><g fill="none"><path d="M0 0h24v24h-24Z"></path><rect width="7" height="5" x="14" y="16" rx=".82842" ry="0" stroke="#323232" stroke-linecap="round" stroke-linejoin="round" stroke-width="1.5"></rect><path stroke="#323232" stroke-linecap="round" stroke-linejoin="round" stroke-width="1.5" d="M15.4 16v-1.4l2.30926e-14-3.17091e-07c1.75125e-07-1.1598.940202-2.1 2.1-2.1v0l-9.17939e-08 3.55271e-15c1.1598-5.06964e-08 2.1.940202 2.1 2.1 0 0 0 0 0 0v0 1.4"></path><path stroke="#323232" stroke-linecap="round" stroke-linejoin="round" stroke-width="1.5" d="M15 3v2"></path><path stroke="#323232" stroke-linecap="round" stroke-linejoin="round" stroke-width="1.5" d="M7 3v2"></path><path stroke="#323232" stroke-linecap="round" stroke-linejoin="round" stroke-width="1.5" d="M3 9h16"></path><path stroke="#323232" stroke-linecap="round" stroke-linejoin="round" stroke-width="1.5" d="M19 10v-3 0c0-1.65685-1.34315-3-3-3h-10l-1.31134e-07 3.55271e-15c-1.65685 7.24234e-08-3 1.34315-3 3 0 0 0 1.77636e-15 0 1.77636e-15v9l3.37508e-14-4.52987e-07c-2.50178e-07 1.65685 1.34315 3 3 3h5"></path></g></svg>