<?xml version="1.0" encoding="UTF-8"?><svg version="1.1" viewBox="0 0 24 24" xmlns="http://www.w3.org/2000/svg" xmlns:xlink="http://www.w3.org/1999/xlink"><!--Generated by IJSVG (https://github.com/iconjar/IJSVG)--><g fill="none"><path d="M0,0h24v24h-24Z"></path><path stroke="#323232" stroke-linecap="round" stroke-linejoin="round" stroke-width="1.5" d="M16,3v2.25"></path><path stroke="#323232" stroke-linecap="round" stroke-linejoin="round" stroke-width="1.5" d="M8,3v2.25"></path><path stroke="#323232" stroke-linecap="round" stroke-linejoin="round" stroke-width="1.5" d="M3,9h18"></path><path stroke="#323232" stroke-linecap="round" stroke-linejoin="round" stroke-width="1.5" d="M18,21h-12c-1.657,0 -3,-1.343 -3,-3v-11c0,-1.657 1.343,-3 3,-3h12c1.657,0 3,1.343 3,3v11c0,1.657 -1.343,3 -3,3Z"></path><path stroke="#323232" stroke-linecap="round" stroke-linejoin="round" stroke-width="1.5" d="M9.899,17.1l4.2,-4.2"></path><path stroke="#323232" stroke-linecap="round" stroke-linejoin="round" stroke-width="1.5" d="M14.29,16.953c0.094,0.094 0.094,0.246 0,0.339c-0.094,0.094 -0.246,0.094 -0.339,0c-0.094,-0.094 -0.094,-0.246 0,-0.339c0.093,-0.094 0.245,-0.094 0.339,0"></path><path stroke="#323232" stroke-linecap="round" stroke-linejoin="round" stroke-width="1.5" d="M10.05,12.707c0.094,0.094 0.094,0.246 0,0.339c-0.094,0.094 -0.246,0.094 -0.339,0c-0.094,-0.094 -0.094,-0.246 0,-0.339c0.094,-0.093 0.245,-0.093 0.339,0"></path></g></svg>