<svg id="Layer_3" data-name="Layer 3" xmlns="http://www.w3.org/2000/svg" viewBox="0 0 24 24"><line x1="16.5" y1="3" x2="16.5" y2="6" fill="none" stroke="#323232" stroke-linecap="round" stroke-linejoin="round" stroke-width="1.5"/><line x1="7.5" y1="3" x2="7.5" y2="6" fill="none" stroke="#323232" stroke-linecap="round" stroke-linejoin="round" stroke-width="1.5"/><path d="M14,21h4a3,3,0,0,0,3-3V7.5a3,3,0,0,0-3-3H6a3,3,0,0,0-3,3V10" fill="none" stroke="#323232" stroke-linecap="round" stroke-linejoin="round" stroke-width="1.5"/><polyline points="6.516 18.5 8.016 17 6.516 15.5" fill="none" stroke="#323232" stroke-linecap="round" stroke-linejoin="round" stroke-width="1.5"/><path d="M9.04544,13H4.95456A1.95456,1.95456,0,0,0,3,14.95456v4.09088A1.95456,1.95456,0,0,0,4.95455,21H9.04544A1.95456,1.95456,0,0,0,11,19.04544V14.95456A1.95456,1.95456,0,0,0,9.04544,13Z" fill="none" stroke="#323232" stroke-linecap="round" stroke-linejoin="round" stroke-width="1.5"/><path d="M24,0H0V24H24Z" fill="none"/></svg>