<svg viewBox="0 0 24 24" xmlns="http://www.w3.org/2000/svg"><g stroke-linecap="round" stroke-width="1.5" stroke="#323232" fill="none" stroke-linejoin="round"><path d="M3.88 13.5h16.23"/><path d="M20.14 13.163l.82-4.83 0-.01c.18-1.09-.55-2.13-1.64-2.31 -.12-.02-.23-.03-.34-.03h-14l-.01-.001c-1.11-.01-2.01.89-2.01 1.99 -.01.11 0 .22.02.33l.82 4.82 0 0c.03.22.03.45-.01.67l-.83 4.82 -.01 0c-.19 1.08.54 2.12 1.63 2.3 .11.01.22.02.33.02H18.9l0-.001c1.1-.01 1.99-.9 1.99-2.01 -.01-.12-.01-.23-.03-.34l-.83-4.83 -.01-.01c-.04-.23-.04-.46-.01-.68Z"/><path d="M5.14 6l-.12-.67 -.01-.01c-.19-1.09.54-2.13 1.63-2.31 .11-.02.22-.03.33-.03h9.99l0-.001c1.1-.01 1.99.89 1.99 1.99 0 .11-.01.22-.03.33l-.12.66"/></g><path fill="none" d="M0 0h24v24H0Z"/></svg>