<svg id="Layer_3" data-name="Layer 3" xmlns="http://www.w3.org/2000/svg" viewBox="0 0 24 24"><line x1="16.5" y1="3" x2="16.5" y2="6" fill="none" stroke="#323232" stroke-linecap="round" stroke-linejoin="round" stroke-width="1.5"/><line x1="7.5" y1="3" x2="7.5" y2="6" fill="none" stroke="#323232" stroke-linecap="round" stroke-linejoin="round" stroke-width="1.5"/><line x1="7" y1="17" x2="8.5" y2="17.00015" fill="none" stroke="#323232" stroke-linecap="round" stroke-linejoin="round" stroke-width="1.5"/><path d="M15.779,12.2929l.9281.9281a1.00006,1.00006,0,0,1,0,1.41427L14.63527,16.7071A1,1,0,0,1,13.92814,17H12.25a.25.25,0,0,1-.25-.25V15.07186a1,1,0,0,1,.29291-.70713l2.07182-2.07183A1.00006,1.00006,0,0,1,15.779,12.2929Z" fill="none" stroke="#323232" stroke-linecap="round" stroke-linejoin="round" stroke-width="1.5"/><rect x="3" y="4.5" width="18" height="16.5" rx="3" stroke-width="1.5" stroke="#323232" stroke-linecap="round" stroke-linejoin="round" fill="none"/><path d="M24,0H0V24H24Z" fill="none"/></svg>