<?xml version="1.0" encoding="UTF-8"?><svg version="1.1" viewBox="0 0 24 24" xmlns="http://www.w3.org/2000/svg" xmlns:xlink="http://www.w3.org/1999/xlink"><g stroke-linecap="round" stroke-width="1.5" stroke="#323232" fill="none" stroke-linejoin="round"><path d="M18.383 8h1.061c.86 0 1.556.696 1.556 1.556v9.889c0 .859-.696 1.555-1.556 1.555h-10.888c-.86 0-1.556-.696-1.556-1.556v-1.444"></path><path d="M4.001 18h11.312c.669 0 1.293-.334 1.664-.891l.734-1.102c.438-.657.672-1.429.672-2.219v-7.788c0-1.105-.895-2-2-2h-10c-1.105 0-2 .895-2 2v7.056c0 .621-.145 1.233-.422 1.789l-.854 1.708c-.333.665.151 1.447.894 1.447Z"></path><path d="M13.651 9.593l-2.813 2.813 -1.688-1.687"></path><path d="M8.38 3v2"></path><path d="M14.38 3v2"></path></g><path fill="none" d="M0 0h24v24h-24v-24Z"></path></svg>