<?xml version="1.0" encoding="UTF-8"?><svg version="1.1" viewBox="0 0 24 24" xmlns="http://www.w3.org/2000/svg" xmlns:xlink="http://www.w3.org/1999/xlink"><!--Generated by IJSVG (https://github.com/iconjar/IJSVG)--><g fill="none"><path d="M24,24h-24v-24h24v24Z"></path><path stroke="#323232" stroke-linecap="round" stroke-linejoin="round" stroke-width="1.5" d="M14.133,9.722l-0.564,-0.938c-0.181,-0.3 -0.506,-0.484 -0.857,-0.484h-1.441c-0.355,0 -0.684,0.189 -0.863,0.496l-0.541,0.926h-0.867c-0.552,0 -1,0.448 -1,1v2.978c0,0.552 0.448,1 1,1h6c0.552,0 1,-0.448 1,-1v-2.978c0,-0.552 -0.448,-1 -1,-1h-0.867Z"></path><path stroke="#323232" stroke-linecap="round" stroke-linejoin="round" stroke-width="1.5" d="M12.303,11.735c0.146,0.146 0.146,0.384 0,0.53c-0.146,0.146 -0.384,0.146 -0.53,0c-0.146,-0.146 -0.146,-0.384 0,-0.53c0.146,-0.146 0.384,-0.147 0.53,0"></path><path stroke="#323232" stroke-linecap="round" stroke-linejoin="round" stroke-width="1.5" d="M14,3.225c-2.915,-0.662 -6.094,0.133 -8.364,2.403c-3.515,3.515 -3.515,9.213 0,12.728c0.228,0.227 0.465,0.438 0.709,0.636"></path><path stroke="#323232" stroke-linecap="round" stroke-linejoin="round" stroke-width="1.5" d="M4,18.992h2.5v-2.5"></path><path stroke="#323232" stroke-linecap="round" stroke-linejoin="round" stroke-width="1.5" d="M10,20.775c2.915,0.662 6.094,-0.133 8.364,-2.403c3.515,-3.515 3.515,-9.213 0,-12.728c-0.228,-0.227 -0.465,-0.438 -0.709,-0.636"></path><path stroke="#323232" stroke-linecap="round" stroke-linejoin="round" stroke-width="1.5" d="M20,5.008h-2.5v2.5"></path></g></svg>