<svg id="Layer_3" data-name="Layer 3" xmlns="http://www.w3.org/2000/svg" viewBox="0 0 24 24"><path d="M0,0H24V24H0Z" fill="none"/><path d="M0,0H24V24H0Z" fill="none"/><circle cx="12" cy="12" r="2.25" fill="none" stroke="#323232" stroke-linecap="round" stroke-linejoin="round" stroke-width="1.5"/><path d="M15.25,8H16a2,2,0,0,1,2,2v5a2,2,0,0,1-2,2H8a2,2,0,0,1-2-2V10A2,2,0,0,1,8,8h.75l.9-1.2a2,2,0,0,1,1.6-.8h1.5a2,2,0,0,1,1.6.8Z" fill="none" stroke="#323232" stroke-linecap="round" stroke-linejoin="round" stroke-width="1.5"/><rect x="3" y="3.00001" width="18" height="18" rx="5" stroke-width="1.5" stroke="#323232" stroke-linecap="round" stroke-linejoin="round" fill="none"/></svg>