<?xml version="1.0" encoding="UTF-8"?><svg version="1.1" viewBox="0 0 24 24" xmlns="http://www.w3.org/2000/svg" xmlns:xlink="http://www.w3.org/1999/xlink"><g stroke-linecap="round" stroke-width="1.5" stroke="#323232" fill="none" stroke-linejoin="round"><path d="M12.429 15.571h-4.429c-.552 0-1-.448-1-1v-5.142c0-.552.448-1 1-1h4.429c.552 0 1 .448 1 1v5.143c0 .552-.448.999-1 .999Z"></path><path d="M13.429 11.286l1.996-1.996c.094-.094.221-.146.354-.146h.721c.276 0 .5.224.5.5v4.714c0 .276-.224.5-.5.5h-.721c-.133 0-.26-.053-.354-.146l-1.996-1.996"></path><path d="M17 21h-10c-2.209 0-4-1.791-4-4v-10c0-2.209 1.791-4 4-4h10c2.209 0 4 1.791 4 4v10c0 2.209-1.791 4-4 4Z"></path></g><path fill="none" d="M0 0h24v24h-24v-24Z"></path></svg>