<svg id="Layer_3" data-name="Layer 3" xmlns="http://www.w3.org/2000/svg" viewBox="0 0 24 24"><path d="M7,21H5a2,2,0,0,1-2-2V15.236A2,2,0,0,1,4.10553,13.4472l2.47216-1.23614a2,2,0,0,1,.89447-.21117h5.05566a1.99986,1.99986,0,0,1,.8945.21119l.78808.39408a1,1,0,0,0,1.2793-.33971l.91657-1.37485A2,2,0,0,1,18.07037,10H19a2,2,0,0,1,2,2v7a2,2,0,0,1-2,2H13" fill="none" stroke="#323232" stroke-linecap="round" stroke-linejoin="round" stroke-width="1.5"/><rect x="7" y="15" width="6" height="7" rx="1" stroke-width="1.5" stroke="#323232" stroke-linecap="round" stroke-linejoin="round" fill="none"/><line x1="14" y1="5" x2="6" y2="5" fill="none" stroke="#323232" stroke-linecap="round" stroke-linejoin="round" stroke-width="1.5"/><rect width="24" height="24" fill="none"/><circle cx="17" cy="17" r="1.5" fill="none" stroke="#323232" stroke-linecap="round" stroke-linejoin="round" stroke-width="1.5"/><path d="M7,9h6a1,1,0,0,0,1-1l0-3.70393a2.01873,2.01873,0,0,0-1.43479-1.92586,9.07221,9.07221,0,0,0-5.13041,0A2.01873,2.01873,0,0,0,6,4.29609L6,8A1,1,0,0,0,7,9Z" fill="none" stroke="#323232" stroke-linecap="round" stroke-linejoin="round" stroke-width="1.5"/><line x1="7" y1="12.05831" x2="7" y2="9" fill="none" stroke="#323232" stroke-linecap="round" stroke-linejoin="round" stroke-width="1.5"/><line x1="13" y1="12.05831" x2="13" y2="9" fill="none" stroke="#323232" stroke-linecap="round" stroke-linejoin="round" stroke-width="1.5"/><path d="M18.55006,13.00006A.05.05,0,1,1,18.5,12.95a.05.05,0,0,1,.05006.05006" fill="none" stroke="#323232" stroke-linecap="round" stroke-linejoin="round" stroke-width="1.5"/></svg>