<?xml version="1.0" encoding="UTF-8"?><svg version="1.1" viewBox="0 0 24 24" xmlns="http://www.w3.org/2000/svg" xmlns:xlink="http://www.w3.org/1999/xlink"><!--Generated by IJSVG (https://github.com/iconjar/IJSVG)--><g stroke-linecap="round" stroke-width="1.5" stroke="#323232" fill="none" stroke-linejoin="round"><path d="M12.429,15.571h-4.429c-0.552,0 -1,-0.448 -1,-1v-5.142c0,-0.552 0.448,-1 1,-1h4.429c0.552,0 1,0.448 1,1v5.143c0,0.552 -0.448,0.999 -1,0.999Z"></path><path d="M18.364,5.63604c3.51472,3.51472 3.51472,9.2132 0,12.7279c-3.51472,3.51472 -9.2132,3.51472 -12.7279,0c-3.51472,-3.51472 -3.51472,-9.2132 -1.77636e-15,-12.7279c3.51472,-3.51472 9.2132,-3.51472 12.7279,-1.77636e-15"></path><path d="M13.429,11.286l1.996,-1.996c0.094,-0.094 0.221,-0.146 0.354,-0.146h0.721c0.276,0 0.5,0.224 0.5,0.5v4.714c0,0.276 -0.224,0.5 -0.5,0.5h-0.721c-0.133,0 -0.26,-0.053 -0.354,-0.146l-1.996,-1.996"></path></g><path fill="none" d="M0,0h24v24h-24Z"></path></svg>