<svg xmlns="http://www.w3.org/2000/svg" viewBox="0 0 24 24"><g id="Layer_2" data-name="Layer 2"><path d="M20.244,15.5a23.40451,23.40451,0,0,0-16.488,0" fill="none" stroke="#323232" stroke-linecap="round" stroke-linejoin="round" stroke-width="1.5"/><path d="M5.78675,20.86743a2.04492,2.04492,0,0,1-2.7307-2.3624l.89259-3.82237a1.99989,1.99989,0,0,0,.05238-.45474V10.999A7.999,7.999,0,0,1,12,3h0a7.999,7.999,0,0,1,7.999,7.999v3.22894a1.99977,1.99977,0,0,0,.05239.45474L20.944,18.505a2.04493,2.04493,0,0,1-2.7307,2.36241A18.52571,18.52571,0,0,0,5.78675,20.86743Z" fill="none" stroke="#323232" stroke-linecap="round" stroke-linejoin="round" stroke-width="1.5"/><path d="M15,10.91951V10a3,3,0,0,0-3-3h0a3,3,0,0,0-3,3v.91949A25.39265,25.39265,0,0,1,15,10.91951Z" fill="none" stroke="#323232" stroke-linecap="round" stroke-linejoin="round" stroke-width="1.5"/><rect width="24" height="24" fill="none"/></g></svg>