<svg id="Layer_3" data-name="Layer 3" xmlns="http://www.w3.org/2000/svg" viewBox="0 0 24 24"><rect width="24" height="24" fill="none"/><path d="M20.21058,15.49584a22.66426,22.66426,0,0,0-16.42116,0" fill="none" stroke="#323232" stroke-linecap="round" stroke-linejoin="round" stroke-width="1.5"/><path d="M4,14.46222l-.944,4.04224a2.04517,2.04517,0,0,0,2.73065,2.363,18.526,18.526,0,0,1,12.42664,0A2.04515,2.04515,0,0,0,20.944,18.50452c-.33942-1.45343-.67487-2.8899-.944-4.04248" fill="none" stroke="#323232" stroke-linecap="round" stroke-linejoin="round" stroke-width="1.5"/><path d="M20,14.462V11A8,8,0,0,0,4,11v3.46222" fill="none" stroke="#323232" stroke-linecap="round" stroke-linejoin="round" stroke-width="1.5"/><path d="M9,14.13394V10.18451a10,10,0,0,1,2.482-6.59386L12,3" fill="none" stroke="#323232" stroke-linecap="round" stroke-linejoin="round" stroke-width="1.5"/><path d="M15,14.13394V10.18451a10,10,0,0,0-2.482-6.59386L12,3" fill="none" stroke="#323232" stroke-linecap="round" stroke-linejoin="round" stroke-width="1.5"/></svg>