<?xml version="1.0" encoding="UTF-8"?><svg version="1.1" viewBox="0 0 24 24" xmlns="http://www.w3.org/2000/svg" xmlns:xlink="http://www.w3.org/1999/xlink"><!--Generated by IJSVG (https://github.com/iconjar/IJSVG)--><g stroke-linecap="round" stroke-width="1.5" stroke="#323232" fill="none" stroke-linejoin="round"><path d="M7,5h10"></path><path d="M20,22h-2c-0.55,0 -1,-0.45 -1,-1v-4c0,-0.55 0.45,-1 1,-1h2c0.55,0 1,0.45 1,1v4c0,0.55 -0.45,1 -1,1Z"></path><path d="M7,19h10"></path><path d="M6,22h-2c-0.55,0 -1,-0.45 -1,-1v-4c0,-0.55 0.45,-1 1,-1h2c0.55,0 1,0.45 1,1v4c0,0.55 -0.45,1 -1,1Z"></path><path d="M20,8h-2c-0.55,0 -1,-0.45 -1,-1v-4c0,-0.55 0.45,-1 1,-1h2c0.55,0 1,0.45 1,1v4c0,0.55 -0.45,1 -1,1Z"></path><path d="M6,8h-2c-0.55,0 -1,-0.45 -1,-1v-4c0,-0.55 0.45,-1 1,-1h2c0.55,0 1,0.45 1,1v4c0,0.55 -0.45,1 -1,1Z"></path><path d="M12.3,15l1.5,-3h-3.6l1.5,-3"></path></g><path fill="none" d="M0,0h24v24h-24Z"></path></svg>