<svg id="Layer_3" data-name="Layer 3" xmlns="http://www.w3.org/2000/svg" viewBox="0 0 24 24"><path d="M12,3h4a5,5,0,0,1,5,5v2" fill="none" stroke="#323232" stroke-linecap="round" stroke-linejoin="round" stroke-width="1.5"/><path d="M9,21H8a5,5,0,0,1-5-5V14" fill="none" stroke="#323232" stroke-linecap="round" stroke-linejoin="round" stroke-width="1.5"/><path d="M19,19.5H15V20a1,1,0,0,1-1,1H13a1,1,0,0,1-1-1V18.25a1.75,1.75,0,0,1,1.75-1.75h6.5A1.75,1.75,0,0,1,22,18.25V20a1,1,0,0,1-1,1H20a1,1,0,0,1-1-1Z" fill="none" stroke="#323232" stroke-linecap="round" stroke-linejoin="round" stroke-width="1.5"/><path d="M13.13928,16.61573l.5749-2.45741A1.5,1.5,0,0,1,15.17474,13h3.65052a1.5,1.5,0,0,1,1.46056,1.15831l.5749,2.45741" fill="none" stroke="#323232" stroke-linecap="round" stroke-linejoin="round" stroke-width="1.5"/><path d="M13.23913,16.12251,12,15.5" fill="none" stroke="#323232" stroke-linecap="round" stroke-linejoin="round" stroke-width="1.5"/><path d="M20.76087,16.12251,22,15.5" fill="none" stroke="#323232" stroke-linecap="round" stroke-linejoin="round" stroke-width="1.5"/><path id="a1080z" d="M6.68019,3.21871A.49993.49993,0,0,1,7.5928,3.501V6.74539h2.90641a.5.5,0,0,1,.41268.78227L7.31983,12.78131a.49993.49993,0,0,1-.91261-.28225V9.25463H3.5008a.5.5,0,0,1-.41267-.78227Z" fill="none" stroke="#323232" stroke-linecap="round" stroke-linejoin="round" stroke-width="1.5"/><path d="M0,0,24,0l0,24L0,24Z" fill="none"/></svg>