<svg id="Layer_3" data-name="Layer 3" xmlns="http://www.w3.org/2000/svg" viewBox="0 0 24 24"><path d="M0,0H24V24H0Z" fill="none"/><path d="M16.8,12.64a1.6,1.6,0,0,0-1.6-1.6H8.8a1.6,1.6,0,0,0-1.6,1.6" fill="none" stroke="#323232" stroke-linecap="round" stroke-linejoin="round" stroke-width="1.5"/><path d="M7.2,12.64V14.7a.8.8,0,0,0,.8.8H9.2a.8.8,0,0,0,.8-.8v-.5288h4V14.7a.8.8,0,0,0,.8.8H16a.8.8,0,0,0,.8-.8V12.64" fill="none" stroke="#323232" stroke-linecap="round" stroke-linejoin="round" stroke-width="1.5"/><path d="M15.604,10.9896,16.8,10.392" fill="none" stroke="#323232" stroke-linecap="round" stroke-linejoin="round" stroke-width="1.5"/><path d="M8.4,10.9896,7.2,10.392" fill="none" stroke="#323232" stroke-linecap="round" stroke-linejoin="round" stroke-width="1.5"/><path d="M10.0544,8a1.2,1.2,0,0,0-1.1648.924l-.5072,2.168.5072-2.168A1.2,1.2,0,0,1,10.0544,8h3.8912a1.2,1.2,0,0,1,1.1648.924l.5072,2.168" fill="none" stroke="#323232" stroke-linecap="round" stroke-linejoin="round" stroke-width="1.5"/><path d="M20.5,17.75l-2,2-1.2-1.2" fill="none" stroke="#323232" stroke-linecap="round" stroke-linejoin="round" stroke-width="1.5"/><path d="M14,20.76929A9.02818,9.02818,0,1,1,20.76929,14" fill="none" stroke="#323232" stroke-linecap="round" stroke-linejoin="round" stroke-width="1.5"/></svg>