<svg id="Layer_3" data-name="Layer 3" xmlns="http://www.w3.org/2000/svg" viewBox="0 0 24 24"><path d="M0,24V0H24V24Z" fill="none"/><path d="M19.04545,1.45456H18.02273A2.27272,2.27272,0,0,0,15.75,3.72728v.45455a2.27273,2.27273,0,0,0,2.27273,2.27273h1.02272A.45455.45455,0,0,0,19.5,6V1.9091A.45454.45454,0,0,0,19.04545,1.45456Z" fill="none" stroke="#323232" stroke-linecap="round" stroke-linejoin="round" stroke-width="1.5"/><path d="M19.5,5.31819h2" fill="none" stroke="#323232" stroke-linecap="round" stroke-linejoin="round" stroke-width="1.5"/><path d="M19.5,2.59092h2" fill="none" stroke="#323232" stroke-linecap="round" stroke-linejoin="round" stroke-width="1.5"/><path d="M12,4h0a9,9,0,0,0-9,9v0a9,9,0,0,0,9,9h0a9,9,0,0,0,9-9v0" fill="none" stroke="#323232" stroke-linecap="round" stroke-linejoin="round" stroke-width="1.5"/><line x1="15.75" y1="4.00001" x2="12" y2="4.00001" fill="none" stroke="#323232" stroke-linecap="round" stroke-linejoin="round" stroke-width="1.5"/><path d="M14,15H10v.5a1,1,0,0,1-1,1H8a1,1,0,0,1-1-1V13.75A1.75,1.75,0,0,1,8.75,12h6.5A1.75,1.75,0,0,1,17,13.75V15.5a1,1,0,0,1-1,1H15a1,1,0,0,1-1-1Z" fill="none" stroke="#323232" stroke-linecap="round" stroke-linejoin="round" stroke-width="1.5"/><path d="M8.13928,12.11573l.5749-2.45741A1.5,1.5,0,0,1,10.17474,8.5h3.65052a1.5,1.5,0,0,1,1.46056,1.15831l.5749,2.45741" fill="none" stroke="#323232" stroke-linecap="round" stroke-linejoin="round" stroke-width="1.5"/><path d="M8.23913,11.62251,7,11" fill="none" stroke="#323232" stroke-linecap="round" stroke-linejoin="round" stroke-width="1.5"/><path d="M15.76087,11.62251,17,11" fill="none" stroke="#323232" stroke-linecap="round" stroke-linejoin="round" stroke-width="1.5"/></svg>