<svg id="Layer_3" data-name="Layer 3" xmlns="http://www.w3.org/2000/svg" viewBox="0 0 24 24"><path d="M6.5,2A3.5,3.5,0,1,1,3,5.5,3.5,3.5,0,0,1,6.5,2" fill="none" stroke="#323232" stroke-linecap="round" stroke-linejoin="round" stroke-width="1.5"/><path d="M7.511,4.99525,6.248,6.262,5.489,5.5" fill="none" stroke="#323232" stroke-linecap="round" stroke-linejoin="round" stroke-width="1.5"/><circle cx="9.55338" cy="19.5" r="2.5" fill="none" stroke="#323232" stroke-linecap="round" stroke-linejoin="round" stroke-width="1.5"/><path d="M7.26319,20.5H5.47992a2,2,0,0,1-1.97675-1.69594L3.035,15.76019A2.79511,2.79511,0,0,1,5.12024,12.609a24.77806,24.77806,0,0,1,6.43182-.65808,19.86538,19.86538,0,0,1,4.14746-2.78406A11.04858,11.04858,0,0,1,20.64246,8H21" fill="none" stroke="#323232" stroke-linecap="round" stroke-linejoin="round" stroke-width="1.5"/><line x1="21" y1="20.5" x2="11.84382" y2="20.5" fill="none" stroke="#323232" stroke-linecap="round" stroke-linejoin="round" stroke-width="1.5"/><path d="M24,24H0V0H24Z" fill="none"/></svg>