<svg id="Layer_3" data-name="Layer 3" xmlns="http://www.w3.org/2000/svg" viewBox="0 0 24 24"><circle cx="12" cy="12" r="10" fill="none" stroke="#323232" stroke-linecap="round" stroke-linejoin="round" stroke-width="1.5"/><path d="M14,14.5H10V15a1,1,0,0,1-1,1H8a1,1,0,0,1-1-1V13.25A1.75,1.75,0,0,1,8.75,11.5h6.5A1.75,1.75,0,0,1,17,13.25V15a1,1,0,0,1-1,1H15a1,1,0,0,1-1-1Z" fill="none" stroke="#323232" stroke-linecap="round" stroke-linejoin="round" stroke-width="1.5"/><path d="M15.85923,11.60938l-.57341-2.45107A1.5,1.5,0,0,0,13.82526,8H10.17474A1.5,1.5,0,0,0,8.71418,9.15831l-.57341,2.45107" fill="none" stroke="#323232" stroke-linecap="round" stroke-linejoin="round" stroke-width="1.5"/><path d="M15.74707,11.12943,17,10.5" fill="none" stroke="#323232" stroke-linecap="round" stroke-linejoin="round" stroke-width="1.5"/><path d="M8.25293,11.12943,7,10.5" fill="none" stroke="#323232" stroke-linecap="round" stroke-linejoin="round" stroke-width="1.5"/><path d="M0,0H24V24H0Z" fill="none"/><path d="M0,0H24V24H0Z" fill="none"/></svg>