<?xml version="1.0" encoding="UTF-8"?><svg version="1.1" viewBox="0 0 24 24" xmlns="http://www.w3.org/2000/svg" xmlns:xlink="http://www.w3.org/1999/xlink"><g fill="none"><path d="M0 0h24v24h-24v-24Z"></path><path stroke="#323232" stroke-linecap="round" stroke-linejoin="round" stroke-width="1.5" d="M21 18.5v1.5c0 .552-.448 1-1 1h-2c-.552 0-1-.448-1-1v-1.5"></path><path stroke="#323232" stroke-linecap="round" stroke-linejoin="round" stroke-width="1.5" d="M7 18.5v1.5c0 .552-.448 1-1 1h-2c-.552 0-1-.448-1-1v-1.5"></path><path stroke="#323232" stroke-linecap="round" stroke-linejoin="round" stroke-width="1.5" d="M3 18.5v-4.757c0-.796.316-1.559.879-2.121l1.121-1.122h14l1.121 1.121c.563.563.879 1.326.879 2.122v4.757h-18Z"></path><path stroke="#323232" stroke-linecap="round" stroke-linejoin="round" stroke-width="1.5" d="M21 14.5l-3 .25"></path><path stroke="#323232" stroke-linecap="round" stroke-linejoin="round" stroke-width="1.5" d="M6 14.75l-3-.25"></path><polyline stroke="#323232" stroke-linecap="round" stroke-linejoin="round" stroke-width="1.5" points="8,18.5 9,15.5 15,15.5 16,18.5"></polyline><path stroke="#323232" stroke-linecap="round" stroke-linejoin="round" stroke-width="1.5" d="M21 9.5l-2 .5"></path><path stroke="#323232" stroke-linecap="round" stroke-linejoin="round" stroke-width="1.5" d="M5 10l-2-.5"></path><path stroke="#323232" stroke-linecap="round" stroke-linejoin="round" stroke-width="1.5" d="M5 10.5v-.506l.836-3.137c.291-1.095 1.283-1.857 2.415-1.857h7.584c1.157 0 2.163.794 2.432 1.92l.733 3.074v.506"></path></g></svg>