<?xml version="1.0" encoding="UTF-8"?><svg version="1.1" viewBox="0 0 24 24" xmlns="http://www.w3.org/2000/svg" xmlns:xlink="http://www.w3.org/1999/xlink"><!--Generated by IJSVG (https://github.com/iconjar/IJSVG)--><g stroke-linecap="round" stroke-width="1.5" stroke="#323232" fill="none" stroke-linejoin="round"><path d="M4,12.562v-3.484c0,-1.105 0.895,-2 2,-2h12c1.105,0 2,0.895 2,2v3.484v1.438c0,0.552 -0.448,1 -1,1h-2c-0.552,0 -1,-0.448 -1,-1v-1h-8v1c0,0.552 -0.448,1 -1,1h-2c-0.552,0 -1,-0.448 -1,-1v-1.438Z"></path><path d="M6,7.078l0.826,-3.534c0.212,-0.904 1.019,-1.544 1.948,-1.544h6.539c0.947,0 1.764,0.664 1.958,1.59l0.729,3.488"></path><path d="M16.94,10h-2"></path><path d="M9,10h-2"></path><path d="M18,7l2,-1"></path><path d="M6,7l-2,-1"></path><path d="M9.577,22c0.77,-0.552 0.77,-1.448 0,-2c-0.77,-0.552 -0.77,-1.448 0,-2"></path><path d="M14.423,22c0.77,-0.552 0.77,-1.448 0,-2c-0.77,-0.552 -0.77,-1.448 0,-2"></path></g><path fill="none" d="M0,0h24v24h-24Z"></path></svg>