<?xml version="1.0" encoding="UTF-8"?><svg version="1.1" viewBox="0 0 24 24" xmlns="http://www.w3.org/2000/svg" xmlns:xlink="http://www.w3.org/1999/xlink"><g stroke-linecap="round" stroke-width="1.5" stroke="#323232" fill="none" stroke-linejoin="round"><rect width="14" height="18" x="4.863" y="2.95338" rx="1.10456" ry="0"></rect><path d="M9.486 10.3918v0l3.91682e-08-3.89954e-08c-.64598.64313-.64829 1.68816-.00516044 2.33414 .00171632.00172392.00343644.00344405.00516036.00516036l1.949 1.94294 4.35988e-08 4.34089e-08c.312439.311078.817561.311078 1.13-8.68178e-08l1.949-1.94293 6.77275e-08-6.74287e-08c.64598-.64313.64829-1.68816.00516023-2.33414 -.00171632-.00172392-.00343644-.00344405-.00516036-.00516036v0l1.80884e-08 1.80081e-08c-.648838-.645958-1.69776-.645958-2.3466-3.60161e-08l-.1674.16687 -.1674-.16688 1.80884e-08 1.80081e-08c-.648838-.645958-1.69776-.645958-2.3466-3.60161e-08Z"></path></g><rect width="24" height="24" fill="none"></rect></svg>