<svg id="Layer_3" data-name="Layer 3" xmlns="http://www.w3.org/2000/svg" viewBox="0 0 24 24"><rect y="-0.02771" width="24" height="24" fill="none"/><circle cx="9" cy="16.5" r="1.625" fill="none" stroke="#323232" stroke-linecap="round" stroke-linejoin="round" stroke-width="1.5"/><path d="M3,14v5a2,2,0,0,0,2,2h8a2,2,0,0,0,2-2V14a2,2,0,0,0-2-2H5A2,2,0,0,0,3,14Z" fill="none" stroke="#323232" stroke-linecap="round" stroke-linejoin="round" stroke-width="1.5"/><path d="M17,5h2a2,2,0,0,1,2,2V19a2,2,0,0,1-2,2H18" fill="none" stroke="#323232" stroke-linecap="round" stroke-linejoin="round" stroke-width="1.5"/><rect x="9" y="3" width="8" height="4" rx="1" stroke-width="1.5" stroke="#323232" stroke-linecap="round" stroke-linejoin="round" fill="none"/><path d="M9,5H7A2,2,0,0,0,5,7V9" fill="none" stroke="#323232" stroke-linecap="round" stroke-linejoin="round" stroke-width="1.5"/></svg>