<svg id="Layer_3" data-name="Layer 3" xmlns="http://www.w3.org/2000/svg" viewBox="0 0 24 24"><path d="M19.80388,18.21332h0a17.2513,17.2513,0,0,0-7.56727.18007L12,18.45254a18.33593,18.33593,0,0,1-8.043.19139l-.15308-.03061A1,1,0,0,1,3,17.63273V6.794a1,1,0,0,1,1.19612-.98059h0a17.25125,17.25125,0,0,0,7.56726-.18007l.47324-.11831A17.25106,17.25106,0,0,1,19.80387,5.335l.39225.07844A1,1,0,0,1,21,6.394V17.23273A1,1,0,0,1,19.80388,18.21332Z" fill="none" stroke="#323232" stroke-linecap="round" stroke-linejoin="round" stroke-width="1.5"/><circle cx="12" cy="12" r="2.5" fill="none" stroke="#323232" stroke-linecap="round" stroke-linejoin="round" stroke-width="1.5"/><line x1="17" y1="15" x2="18" y2="15" fill="none" stroke="#323232" stroke-linecap="round" stroke-linejoin="round" stroke-width="1.5"/><line x1="6" y1="9" x2="7" y2="9" fill="none" stroke="#323232" stroke-linecap="round" stroke-linejoin="round" stroke-width="1.5"/><path d="M0,0H24V24H0Z" fill="none"/></svg>