<svg id="Layer_3" data-name="Layer 3" xmlns="http://www.w3.org/2000/svg" viewBox="0 0 24 24"><path d="M24,24H0V0H24Z" fill="none"/><circle cx="16" cy="16.5" r="1.5" fill="none" stroke="#323232" stroke-linecap="round" stroke-linejoin="round" stroke-width="1.5"/><path d="M7,21H3a1,1,0,0,1-1-1V4.49752A1,1,0,0,1,2.551,3.604l.99-.49752a1,1,0,0,1,.89228-.00287l1.57248.77759,1.5409-.77407a1,1,0,0,1,.89456-.00162L10,3.88151l1.55876-.776a1,1,0,0,1,.89456.00162l1.5409.77407,1.57248-.77759a1,1,0,0,1,.89228.00287l.99.49752A1,1,0,0,1,18,4.49752L18.00005,9" fill="none" stroke="#323232" stroke-linecap="round" stroke-linejoin="round" stroke-width="1.5"/><path d="M6,8.99994h8.004" fill="none" stroke="#323232" stroke-linecap="round" stroke-linejoin="round" stroke-width="1.5"/><path d="M7,14.99994H6" fill="none" stroke="#323232" stroke-linecap="round" stroke-linejoin="round" stroke-width="1.5"/><path d="M6.004,11.99994H7" fill="none" stroke="#323232" stroke-linecap="round" stroke-linejoin="round" stroke-width="1.5"/><rect x="10" y="12" width="12" height="9" rx="2" transform="translate(32 33) rotate(-180)" stroke-width="1.5" stroke="#323232" stroke-linecap="round" stroke-linejoin="round" fill="none"/></svg>