<svg xmlns="http://www.w3.org/2000/svg" viewBox="0 0 24 24"><g id="Layer_2" data-name="Layer 2"><path d="M24,0H0V24H24Z" fill="none"/><path d="M10,18H6a3,3,0,0,1-3-3V7A3,3,0,0,1,6,4H18a3,3,0,0,1,3,3v4" fill="none" stroke="#323232" stroke-linecap="round" stroke-linejoin="round" stroke-width="1.5"/><line x1="6" y1="15" x2="7" y2="15" fill="none" stroke="#323232" stroke-linecap="round" stroke-linejoin="round" stroke-width="1.5"/><line x1="17" y1="7" x2="18" y2="7" fill="none" stroke="#323232" stroke-linecap="round" stroke-linejoin="round" stroke-width="1.5"/><path d="M10.23223,12.76777a2.5,2.5,0,0,1,3.53554-3.53554" fill="none" stroke="#323232" stroke-linecap="round" stroke-linejoin="round" stroke-width="1.5"/><path d="M14,17.49483c0,1.68347,2.11839,2.92962,3.06072,3.40085a.977.977,0,0,0,.87921-.00034C18.88259,20.42383,21,19.18057,21,17.49483l0-2.397a.51157.51157,0,0,0-.47317-.49442,4.98257,4.98257,0,0,1-2.4566-.91867.97235.97235,0,0,0-1.14041,0,4.98257,4.98257,0,0,1-2.4566.91867.51157.51157,0,0,0-.47317.49442Z" fill="none" stroke="#323232" stroke-linecap="round" stroke-linejoin="round" stroke-width="1.5"/></g></svg>