<svg xmlns="http://www.w3.org/2000/svg" viewBox="0 0 24 24"><g id="Layer_2" data-name="Layer 2"><path d="M24,0V24H0V0Z" fill="none"/><path d="M8,20H5a2,2,0,0,1-2-2V5A2,2,0,0,1,5,3h9a2,2,0,0,1,2,2V9" fill="none" stroke="#323232" stroke-linecap="round" stroke-linejoin="round" stroke-width="1.5"/><path d="M7.8383,13.16171a2.35,2.35,0,0,1,3.3234-3.3234" fill="none" stroke="#323232" stroke-linecap="round" stroke-linejoin="round" stroke-width="1.5"/><line x1="7" y1="17.00001" x2="6" y2="17.00001" fill="none" stroke="#323232" stroke-linecap="round" stroke-linejoin="round" stroke-width="1.5"/><line x1="13" y1="6.00001" x2="12" y2="6.00001" fill="none" stroke="#323232" stroke-linecap="round" stroke-linejoin="round" stroke-width="1.5"/><path d="M21,18.59091V20a2,2,0,0,1-2,2H13a2,2,0,0,1-2-2V14a2,2,0,0,1,2-2h6a2,2,0,0,1,2,2v1.40909" fill="none" stroke="#323232" stroke-linecap="round" stroke-linejoin="round" stroke-width="1.5"/><path d="M20.09091,15.40909H21.5a.5.5,0,0,1,.5.5v2.18182a.5.5,0,0,1-.5.5H20.09091A1.59091,1.59091,0,0,1,18.5,17v0a1.59091,1.59091,0,0,1,1.59091-1.59091Z" fill="none" stroke="#323232" stroke-linecap="round" stroke-linejoin="round" stroke-width="1.5"/></g></svg>