<svg id="Layer_3" data-name="Layer 3" xmlns="http://www.w3.org/2000/svg" viewBox="0 0 24 24"><path d="M0,0H24V24H0Z" fill="none"/><path d="M8.5,7.5h-3a1.00036,1.00036,0,0,1-1-1v-1a1.00036,1.00036,0,0,1,1-1h3a1.00036,1.00036,0,0,1,1,1v1A1.00036,1.00036,0,0,1,8.5,7.5Z" fill="none" stroke="#323232" stroke-linecap="round" stroke-linejoin="round" stroke-width="1.5"/><path d="M5,10h6a1,1,0,0,1,1,1v3.5a0,0,0,0,1,0,0H4a0,0,0,0,1,0,0V11A1,1,0,0,1,5,10Z" fill="none" stroke="#323232" stroke-linecap="round" stroke-linejoin="round" stroke-width="1.5"/><line x1="7" y1="7.5" x2="7" y2="10" fill="none" stroke="#323232" stroke-linecap="round" stroke-linejoin="round" stroke-width="1.5"/><path d="M15,10h3a2.00574,2.00574,0,0,1,2,2" fill="none" stroke="#323232" stroke-linecap="round" stroke-linejoin="round" stroke-width="1.5"/><path d="M16.39276,7.5a1.81972,1.81972,0,0,1-1.61195-.92818,2.01136,2.01136,0,1,1,3.62188-.43866A2.06762,2.06762,0,0,1,16.39276,7.5Z" fill="none" stroke="#323232" stroke-linecap="round" stroke-linejoin="round" stroke-width="1.5"/><path d="M3,21H21V15.5a1,1,0,0,0-1-1H4a1,1,0,0,0-1,1Z" fill="none" stroke="#323232" stroke-linecap="round" stroke-linejoin="round" stroke-width="1.5"/></svg>