<?xml version="1.0" encoding="UTF-8"?><svg version="1.1" viewBox="0 0 24 24" xmlns="http://www.w3.org/2000/svg" xmlns:xlink="http://www.w3.org/1999/xlink"><!--Generated by IJSVG (https://github.com/iconjar/IJSVG)--><g fill="none"><path d="M0,0h24v24h-24Z"></path><path stroke="#323232" stroke-linecap="round" stroke-linejoin="round" stroke-width="1.5" d="M10,3v6"></path><path stroke="#323232" stroke-linecap="round" stroke-linejoin="round" stroke-width="1.5" d="M13,5.5v1"></path><path stroke="#323232" stroke-linecap="round" stroke-linejoin="round" stroke-width="1.5" d="M16,5.5v1"></path><path stroke="#323232" stroke-linecap="round" stroke-linejoin="round" stroke-width="1.5" d="M20.923,15.731l-1.846,-6.461c-0.051,-0.179 -0.077,-0.364 -0.077,-0.55v-4.72c0,-0.552 -0.448,-1 -1,-1h-12c-0.552,0 -1,0.448 -1,1v4.72c0,0.186 -0.026,0.371 -0.077,0.549l-1.846,6.461c-0.051,0.179 -0.077,0.364 -0.077,0.55v3.72c0,0.552 0.448,1 1,1h16c0.552,0 1,-0.448 1,-1v-3.72c0,-0.186 -0.026,-0.371 -0.077,-0.549Z"></path><path stroke="#323232" stroke-linecap="round" stroke-linejoin="round" stroke-width="1.5" d="M4.98,9h14.04"></path><path stroke="#323232" stroke-linecap="round" stroke-linejoin="round" stroke-width="1.5" d="M3.04,16h17.92"></path></g></svg>