<svg id="Layer_3" data-name="Layer 3" xmlns="http://www.w3.org/2000/svg" viewBox="0 0 24 24"><path d="M3,10V6.5A2.5,2.5,0,0,1,5.5,4h13A2.5,2.5,0,0,1,21,6.5v3" fill="none" stroke="#323232" stroke-linecap="round" stroke-linejoin="round" stroke-width="1.5"/><path d="M21,14.5v3A2.5,2.5,0,0,1,18.5,20H13" fill="none" stroke="#323232" stroke-linecap="round" stroke-linejoin="round" stroke-width="1.5"/><path d="M19.5,9.5H21a1,1,0,0,1,1,1v3a1,1,0,0,1-1,1H19.5A2.5,2.5,0,0,1,17,12v0A2.5,2.5,0,0,1,19.5,9.5Z" fill="none" stroke="#323232" stroke-linecap="round" stroke-linejoin="round" stroke-width="1.5"/><path d="M0,0H24V24H0Z" fill="none"/><path d="M0,0H24V24H0Z" fill="none"/><path d="M6.17618,20h0a3.84152,3.84152,0,0,1-3.08813-3.76692V14.98525a1.94444,1.94444,0,0,1,1.94444-1.94444H8.1436a1.94444,1.94444,0,0,1,1.94445,1.94444V16.2331A3.84151,3.84151,0,0,1,7,20l-.00009,0A2.10018,2.10018,0,0,1,6.17618,20Z" fill="none" stroke="#323232" stroke-linecap="round" stroke-linejoin="round" stroke-width="1.5"/></svg>