<?xml version="1.0" encoding="UTF-8"?><svg version="1.1" viewBox="0 0 24 24" xmlns="http://www.w3.org/2000/svg" xmlns:xlink="http://www.w3.org/1999/xlink"><!--Generated by IJSVG (https://github.com/iconjar/IJSVG)--><defs><path d="M16.2426,7.75736c2.34315,2.34315 2.34315,6.14214 0,8.48528c-2.34315,2.34315 -6.14214,2.34315 -8.48528,0c-2.34315,-2.34315 -2.34315,-6.14214 -1.77636e-15,-8.48528c2.34315,-2.34315 6.14214,-2.34315 8.48528,-1.77636e-15" id="b"></path><path d="M18.7175,5.28249c3.70998,3.70998 3.70998,9.72505 0,13.435c-3.70998,3.70998 -9.72505,3.70998 -13.435,3.55271e-15c-3.70998,-3.70998 -3.70998,-9.72505 -2.66454e-15,-13.435c3.70998,-3.70998 9.72505,-3.70998 13.435,-2.66454e-15" id="a"></path></defs><g stroke-linecap="round" stroke-width="1.5" fill-rule="evenodd" stroke="#323232" fill="none" stroke-linejoin="round"><use xlink:href="#a"></use><use xlink:href="#a"></use><use xlink:href="#b"></use><use xlink:href="#b"></use></g><path fill="none" stroke="#323232" stroke-linecap="round" stroke-linejoin="round" stroke-width="1.5" d="M7.75,3.51l1.57,3.13"></path><g stroke-linecap="round" stroke-width="1.5" stroke="#323232" fill="none" stroke-linejoin="round"><path d="M14.68,17.36l1.57,3.13"></path><path d="M14.68,6.64l1.57,-3.13"></path><path d="M9.32,17.36l-1.57,3.13"></path><path d="M20.49,7.75l-3.13,1.57"></path><path d="M6.64,14.68l-3.13,1.57"></path><path d="M20.49,16.25l-3.13,-1.57"></path><path d="M6.64,9.32l-3.13,-1.57"></path><path d="M12,15l2.75,-3l-2.75,-3l-2.75,3Z"></path></g><path fill="none" fill-rule="evenodd" d="M0,0h24v24h-24Z"></path></svg>