<svg id="Layer_3" data-name="Layer 3" xmlns="http://www.w3.org/2000/svg" viewBox="0 0 24 24"><path d="M15.07432,6.41931l2.38835-2.04645A1.53716,1.53716,0,0,1,20,5.54013V13a8,8,0,0,1-8,8h0a8,8,0,0,1-8-8V5.54013A1.53716,1.53716,0,0,1,6.53733,4.37286L8.92568,6.41931A9.223,9.223,0,0,1,15.07432,6.41931Z" fill="none" stroke="#323232" stroke-linecap="round" stroke-linejoin="round" stroke-width="1.5"/><path d="M10.25,10.75032A.25.25,0,1,1,9.99968,10.5a.25.25,0,0,1,.25032.25032" fill="none" stroke="#323232" stroke-linecap="round" stroke-linejoin="round" stroke-width="1.5"/><path d="M14.25,10.75032A.25.25,0,1,1,13.99968,10.5a.25.25,0,0,1,.25032.25032" fill="none" stroke="#323232" stroke-linecap="round" stroke-linejoin="round" stroke-width="1.5"/><path d="M12,13.83333h0a.5.5,0,0,1,.5.5v0a.16667.16667,0,0,1-.16667.16667h-.66667A.16667.16667,0,0,1,11.5,14.33333v0a.5.5,0,0,1,.5-.5Z" transform="translate(24 28.33333) rotate(-180)" fill="none" stroke="#323232" stroke-linecap="round" stroke-linejoin="round" stroke-width="1.5"/><path d="M9.81318,17.12482A1.27707,1.27707,0,0,0,10.719,17.5h0A1.281,1.281,0,0,0,12,16.219a1.281,1.281,0,0,0,2.18681.90578" fill="none" stroke="#323232" stroke-linecap="round" stroke-linejoin="round" stroke-width="1.5"/><line x1="12" y1="14.5" x2="12" y2="16.219" fill="none" stroke="#323232" stroke-linecap="round" stroke-linejoin="round" stroke-width="1.5"/><line x1="17" y1="12.80664" x2="21" y2="12.14001" fill="none" stroke="#323232" stroke-linecap="round" stroke-linejoin="round" stroke-width="1.5"/><line x1="21" y1="16" x2="17" y2="15.33331" fill="none" stroke="#323232" stroke-linecap="round" stroke-linejoin="round" stroke-width="1.5"/><line x1="7" y1="12.80664" x2="3" y2="12.14001" fill="none" stroke="#323232" stroke-linecap="round" stroke-linejoin="round" stroke-width="1.5"/><line x1="3" y1="16" x2="7" y2="15.33331" fill="none" stroke="#323232" stroke-linecap="round" stroke-linejoin="round" stroke-width="1.5"/><rect width="24" height="24" fill="none"/></svg>