<svg viewBox="0 0 24 24" xmlns="http://www.w3.org/2000/svg"><g stroke-linecap="round" stroke-width="1.5" stroke="#323232" fill="none" stroke-linejoin="round"><path d="M21 12v0c0 4.97-4.03 9-9 9 -4.98 0-9-4.03-9-9 0-4.98 4.02-9 9-9"/><path d="M18.34 2.39l0-.01c.19-.37.65-.5 1.02-.3 .12.06.23.17.29.29l.58 1.06 -.01-.01c.06.12.17.23.29.3l1.064.58 0 0c.36.19.49.65.3 1.02 -.07.12-.18.23-.31.3L20.5 6.2l0-.01c-.13.06-.24.17-.31.29l-.59 1.06 -.01 0c-.2.36-.66.49-1.03.29 -.13-.07-.24-.18-.3-.3l-.59-1.07 -.01-.01c-.07-.13-.18-.24-.31-.3l-1.064-.59 -.01-.01c-.37-.2-.5-.66-.31-1.03 .06-.13.17-.24.3-.31l1.064-.59 0-.01c.12-.07.23-.18.29-.31Z"/><path d="M13.25 10h2.5 -.01c.27-.01.5.22.5.49v5 0c0 .27-.23.5-.5.5h-2.5"/><path d="M10.25 16h-2.5 -.01c-.28-.01-.5-.23-.5-.51 0 0 0-.001 0-.001v-3l0 0c-.01-.28.22-.51.49-.51h2.5"/><path d="M13.25 16h-3V7.5l0 0c-.01-.28.22-.51.49-.51h2l-.01 0c.27-.01.5.22.5.49Z"/></g><path fill="none" d="M0 0h24v24H0Z"/></svg>