<?xml version="1.0" encoding="UTF-8"?><svg version="1.1" viewBox="0 0 24 24" xmlns="http://www.w3.org/2000/svg" xmlns:xlink="http://www.w3.org/1999/xlink"><g stroke-linecap="round" stroke-width="1.5" stroke="#323232" fill="none" stroke-linejoin="round"><path d="M13.25 10.5h2.5 -2.18557e-08c.276142-1.20706e-08.5.223858.5.5v5 0c0 .276142-.223858.5-.5.5h-2.5"></path><path d="M10.25 16.5h-2.5 -2.18557e-08c-.276142-1.20706e-08-.5-.223858-.5-.5 0 0 0-1.77636e-15 0-1.77636e-15v-3l5.32907e-15 7.54979e-08c-4.16963e-08-.276142.223858-.5.5-.5h2.5"></path><path d="M13.25 16.5h-3v-8.5l5.32907e-15 7.54979e-08c-4.16963e-08-.276142.223858-.5.5-.5h2l-2.18557e-08 8.88178e-16c.276142-1.20706e-08.5.223858.5.5Z"></path><rect width="18" height="18" x="2.9" y="3.00138" rx="2.7614" ry="0"></rect></g><path fill="none" d="M0 0h24v24h-24Z"></path></svg>