<svg id="Layer_3" data-name="Layer 3" xmlns="http://www.w3.org/2000/svg" viewBox="0 0 24 24"><path d="M0,0H24V24H0Z" fill="none"/><line x1="12.00037" y1="15.5" x2="12.00037" y2="13.5" fill="none" stroke="#323232" stroke-linecap="round" stroke-linejoin="round" stroke-width="1.5"/><path d="M7,15.5H17" fill="none" stroke="#323232" stroke-linecap="round" stroke-linejoin="round" stroke-width="1.5"/><line x1="16" y1="15.5" x2="16" y2="10.36576" fill="none" stroke="#323232" stroke-linecap="round" stroke-linejoin="round" stroke-width="1.5"/><line x1="8" y1="15.5" x2="8" y2="10.36551" fill="none" stroke="#323232" stroke-linecap="round" stroke-linejoin="round" stroke-width="1.5"/><path d="M8.64477,10.49964A1.62815,1.62815,0,0,0,9.90943,9.896a.4802.4802,0,0,1,.82573,0,1.62662,1.62662,0,0,0,2.52932,0,.48019.48019,0,0,1,.82572,0,1.62817,1.62817,0,0,0,1.26466.60362A1.66057,1.66057,0,0,0,16.956,9.23328a1.53164,1.53164,0,0,0-.14691-1.08423l-.41662-.82477A1.50105,1.50105,0,0,0,15.05264,6.5H8.94688a1.5,1.5,0,0,0-1.3389.82372l-.41707.8257A1.53164,1.53164,0,0,0,7.044,9.23365,1.66064,1.66064,0,0,0,8.64514,10.5" fill="none" stroke="#323232" stroke-linecap="round" stroke-linejoin="round" stroke-width="1.5"/><path d="M14.41418,19H18a3,3,0,0,0,3-3V6a3,3,0,0,0-3-3H6A3,3,0,0,0,3,6V16a3,3,0,0,0,3,3H9.58582" fill="none" stroke="#323232" stroke-linecap="round" stroke-linejoin="round" stroke-width="1.5"/><path d="M14.41418,19l-1.70709,1.70709a1,1,0,0,1-1.41418,0L9.58582,19" fill="none" stroke="#323232" stroke-linecap="round" stroke-linejoin="round" stroke-width="1.5"/></svg>