<svg id="Layer_3" data-name="Layer 3" xmlns="http://www.w3.org/2000/svg" viewBox="0 0 24 24"><rect y="0.00001" width="24" height="24" fill="none"/><path d="M3,12a8.95077,8.95077,0,0,0,1.63043,5.15686l-.632,2.844,2.84388-.63195A8.99566,8.99566,0,1,0,3,12Z" fill="none" stroke="#323232" stroke-linecap="round" stroke-linejoin="round" stroke-width="1.5"/><line x1="12" y1="8" x2="12" y2="8.80786" fill="none" stroke="#323232" stroke-linecap="round" stroke-linejoin="round" stroke-width="1.5"/><path d="M10,10.42358a1.83893,1.83893,0,0,1,2-1.61572" fill="none" stroke="#323232" stroke-linecap="round" stroke-linejoin="round" stroke-width="1.5"/><line x1="12" y1="16" x2="12" y2="15.19214" fill="none" stroke="#323232" stroke-linecap="round" stroke-linejoin="round" stroke-width="1.5"/><path d="M14,13.57642a1.83893,1.83893,0,0,1-2,1.61572" fill="none" stroke="#323232" stroke-linecap="round" stroke-linejoin="round" stroke-width="1.5"/><path d="M13.94907,10.07108A1.95077,1.95077,0,0,0,12,8.80786" fill="none" stroke="#323232" stroke-linecap="round" stroke-linejoin="round" stroke-width="1.5"/><path d="M10.05093,13.92892A1.95077,1.95077,0,0,0,12,15.19214" fill="none" stroke="#323232" stroke-linecap="round" stroke-linejoin="round" stroke-width="1.5"/><path d="M10,10.42358h0a1.435,1.435,0,0,0,1.15357,1.40713l1.69286.33858A1.435,1.435,0,0,1,14,13.57642h0" fill="none" stroke="#323232" stroke-linecap="round" stroke-linejoin="round" stroke-width="1.5"/></svg>