<?xml version="1.0" encoding="UTF-8"?><svg version="1.1" viewBox="0 0 24 24" xmlns="http://www.w3.org/2000/svg" xmlns:xlink="http://www.w3.org/1999/xlink"><g fill="none"><path d="M0 0h24v24h-24Z"></path><path stroke="#323232" stroke-linecap="round" stroke-linejoin="round" stroke-width="1.5" d="M20.993 6.162v7.647l-3.18736e-08-9.6568e-05c.000605618 1.75406-1.42085 3.17649-3.1749 3.1771 -.000333386 1.15107e-07-.000666772 1.77721e-07-.00100016 1.87841e-07h-4.8231l-5 4v-4h-1.825l8.23506e-08-3.55271e-15c-1.75406 1.32428e-07-3.176-1.42194-3.176-3.176 -2.5171e-11-.000333386 5.24431e-08-.000666772 1.57405e-07-.00100016v-7.647l3.55271e-14-4.79563e-07c2.64855e-07-1.75406 1.42194-3.176 3.176-3.176 0 0 2.59259e-11 0 2.59259e-11 0h11.648l-1.38827e-07 3.10862e-15c1.75406-7.66722e-08 3.176 1.42194 3.176 3.176Z"></path><line x1="14.83" x2="9.18" y1="7.18" y2="12.83" stroke="#323232" stroke-linecap="round" stroke-linejoin="round" stroke-width="1.5"></line><circle cx="12" cy="10" r="4" stroke="#323232" stroke-linecap="round" stroke-linejoin="round" stroke-width="1.5"></circle></g></svg>