<svg id="Layer_3" data-name="Layer 3" xmlns="http://www.w3.org/2000/svg" viewBox="0 0 24 24"><path d="M4.62892,17.16368a8.99979,8.99979,0,1,1,2.20679,2.2067l-2.83727.63045Z" fill="none" stroke="#323232" stroke-linecap="round" stroke-linejoin="round" stroke-width="1.5"/><path d="M11.77389,9.90748,12,10.13707l.22614-.22962a2.18706,2.18706,0,0,1,3.12635,0h0a2.26919,2.26919,0,0,1,0,3.17449l-2.11508,2.14762a1.73132,1.73132,0,0,1-2.47487,0L8.6475,13.082a2.26922,2.26922,0,0,1,0-3.17451h0A2.18708,2.18708,0,0,1,11.77389,9.90748Z" fill="none" stroke="#323232" stroke-linecap="round" stroke-linejoin="round" stroke-width="1.5"/><rect width="24" height="24" fill="none"/></svg>