<svg id="Layer_3" data-name="Layer 3" xmlns="http://www.w3.org/2000/svg" viewBox="0 0 24 24"><rect width="24" height="24" fill="none"/><path d="M12,15.5a5.16794,5.16794,0,0,1-4.42684-2.40836l-.0309-.0507a2,2,0,0,1,0-2.08189l.0309-.05069A5.16794,5.16794,0,0,1,12,8.5" fill="none" stroke="#323232" stroke-linecap="round" stroke-linejoin="round" stroke-width="1.5"/><path d="M12,8.5a5.16794,5.16794,0,0,1,4.42684,2.40836l.0309.05069a2,2,0,0,1,0,2.0819l-.0309.05069A5.16794,5.16794,0,0,1,12,15.5" fill="none" stroke="#323232" stroke-linecap="round" stroke-linejoin="round" stroke-width="1.5"/><path d="M11.99952,12.125A.125.125,0,1,1,12.125,12a.12434.12434,0,0,1-.12548.125" fill="none" stroke="#323232" stroke-linecap="round" stroke-linejoin="round" stroke-width="1.5"/><path d="M7.1377,19.566a9.01637,9.01637,0,1,0-2.7038-2.7038" fill="none" stroke="#323232" stroke-linecap="round" stroke-linejoin="round" stroke-width="1.5"/><path d="M4.4339,16.86224,4.007,19.41742a.5.5,0,0,0,.57556.57556l2.555-.427" fill="none" stroke="#323232" stroke-linecap="round" stroke-linejoin="round" stroke-width="1.5"/></svg>