<?xml version="1.0" encoding="UTF-8"?><svg version="1.1" viewBox="0 0 24 24" xmlns="http://www.w3.org/2000/svg" xmlns:xlink="http://www.w3.org/1999/xlink"><!--Generated by IJSVG (https://github.com/iconjar/IJSVG)--><g stroke-linecap="round" stroke-width="1.5" stroke="#323232" fill="none" stroke-linejoin="round"><path d="M3,11.291c0,2.683 1.42,5.045 3.599,6.534c-0.001,0.855 0.001,2.007 0.001,3.216l3.531,-1.747c0.604,0.116 1.228,0.179 1.869,0.179c4.952,0 9,-3.643 9,-8.182c0,-4.539 -4.048,-8.182 -9,-8.182c-4.952,0 -9,3.643 -9,8.182Z"></path><path d="M11.899,12.328v-0.207c0,-0.678 0.419,-1.045 0.839,-1.327c0.41,-0.276 0.821,-0.636 0.821,-1.3c0,-0.917 -0.743,-1.659 -1.659,-1.659c-0.916,0 -1.66,0.741 -1.66,1.658"></path><path d="M11.898,14.667c-0.083,0 -0.15,0.067 -0.149,0.15c0,0.083 0.067,0.15 0.15,0.15c0.083,0 0.15,-0.067 0.15,-0.15c-1.77636e-15,-0.083 -0.066,-0.15 -0.151,-0.15"></path></g><path fill="none" d="M0,0h24v24h-24Z"></path></svg>