<svg id="Layer_3" data-name="Layer 3" xmlns="http://www.w3.org/2000/svg" viewBox="0 0 24 24"><path d="M19,16v1.49905a.5.5,0,0,1-.81573.38771L15.86732,16H11a3,3,0,0,1-3-3V6a3,3,0,0,1,3-3h8a3,3,0,0,1,3,3v7a3,3,0,0,1-3,3Z" fill="none" stroke="#323232" stroke-linecap="round" stroke-linejoin="round" stroke-width="1.5"/><path d="M14,16v1a3,3,0,0,1-3,3H8.13268l-2.317,1.88676A.5.5,0,0,1,5,21.499V20H5a3,3,0,0,1-3-3V13a3,3,0,0,1,3-3H8" fill="none" stroke="#323232" stroke-linecap="round" stroke-linejoin="round" stroke-width="1.5"/><path d="M13.22627,11.27285,16.772,7.72716" fill="none" stroke="#323232" stroke-linecap="round" stroke-linejoin="round" stroke-width="1.5"/><path d="M13,7.57472a.075.075,0,1,1,0,.00056V7.57472" fill="none" stroke="#323232" stroke-linecap="round" stroke-linejoin="round" stroke-width="1.5"/><path d="M17,11.42528a.075.075,0,1,1,0-.00056v.00056" fill="none" stroke="#323232" stroke-linecap="round" stroke-linejoin="round" stroke-width="1.5"/><path d="M0,0H24V24H0Z" fill="none"/></svg>