<svg viewBox="0 0 24 24" xmlns="http://www.w3.org/2000/svg"><g fill="none"><path d="M24 24H0V0h24Z"/><g stroke-linecap="round" stroke-width="1.5" stroke="#323232" fill="none" stroke-linejoin="round"><path d="M10.33 7.58l-2.3 2.29L6.65 8.49"/><path d="M13.78 7l0 0c-.83-2.93-3.87-4.62-6.79-3.8 -2.93.82-4.62 3.86-3.8 6.78 .52 1.83 1.95 3.27 3.79 3.79"/><path d="M15.5 15.88v1.83"/><path d="M15.5 13.31h-.01c-.04 0-.07.02-.07.06 0 .03.02.06.06.06 .03-.01.06-.03.06-.07 0 0 0 0 0 0v0c0-.04-.03-.07-.07-.07v0"/><rect width="11" height="11" x="10" y="10" rx="4"/></g></g></svg>