<?xml version="1.0" encoding="UTF-8"?><svg version="1.1" viewBox="0 0 24 24" xmlns="http://www.w3.org/2000/svg" xmlns:xlink="http://www.w3.org/1999/xlink"><defs><path d="M0 0h24v24h-24Z" id="a"></path></defs><g fill="none"><use xlink:href="#a"></use><polyline stroke="#323232" stroke-linecap="round" stroke-linejoin="round" stroke-width="1.5" points="16,9 11.966,12.948 10.641,11.623"></polyline><path stroke="#323232" stroke-linecap="round" stroke-linejoin="round" stroke-width="1.5" d="M13 8h-2.676l-7.03793e-08-3.03029e-11c-1.28296-.000552365-2.32345 1.03904-2.324 2.322 -2.87089e-07.00066681-2.87068e-07.00133362 6.07088e-11.00200043v3.352l-7.67481e-08.000197824c-.000443109 1.28296 1.03924 2.32336 2.3222 2.3238 .000666787 2.30296e-07.00133357 1.73502e-07.00200036-1.70379e-07h3.352l4.26117e-08 1.47171e-11c1.28296.000443125 2.32336-1.03924 2.3238-2.3222 2.07516e-07-.000600812 1.81945e-07-.00120162-7.6714e-08-.00180244v-.676"></path><rect width="18" height="18" x="3" y="3" rx="2.7614" ry="0" stroke="#323232" stroke-linecap="round" stroke-linejoin="round" stroke-width="1.5"></rect><use xlink:href="#a"></use></g></svg>