<svg id="Layer_3" data-name="Layer 3" xmlns="http://www.w3.org/2000/svg" viewBox="0 0 24 24"><path d="M13,9h4" fill="none" stroke="#323232" stroke-linecap="round" stroke-linejoin="round" stroke-width="1.5"/><path d="M7,8.726l.919.828,1.85-1.666" fill="none" stroke="#323232" stroke-linecap="round" stroke-linejoin="round" stroke-width="1.5"/><path d="M10,20H8a5,5,0,0,1-5-5V7A5,5,0,0,1,8,2h8a5,5,0,0,1,5,5v3" fill="none" stroke="#323232" stroke-linecap="round" stroke-linejoin="round" stroke-width="1.5"/><path d="M7,13.726l.919.828,1.85-1.666" fill="none" stroke="#323232" stroke-linecap="round" stroke-linejoin="round" stroke-width="1.5"/><path d="M14,13.8998v5.7004C14.001,20.37309,15.56678,21,17.4995,21s3.4985-.62691,3.4995-1.3998V13.8998" fill="none" stroke="#323232" stroke-linecap="round" stroke-linejoin="round" stroke-width="1.5"/><path d="M14.001,16.75c0,.77289,1.56678,1.3998,3.4995,1.3998S21,17.52289,21,16.75" fill="none" stroke="#323232" stroke-linecap="round" stroke-linejoin="round" stroke-width="1.5"/><path d="M14.001,13.8998c0,.77289,1.56678,1.3998,3.4995,1.3998s3.4985-.62691,3.4985-1.3998c0-.77389-1.56778-1.3998-3.4995-1.3998S14.001,13.12691,14,13.8998" fill="none" stroke="#323232" stroke-linecap="round" stroke-linejoin="round" stroke-width="1.5"/><path d="M0,0H24V24H0Z" fill="none"/></svg>