<svg viewBox="0 0 24 24" xmlns="http://www.w3.org/2000/svg" xmlns:xlink="http://www.w3.org/1999/xlink"><defs><path d="M7 14l-.01-.001c-2.21-.01-4-1.8-4-4.01 0 0 0-.001 0-.001v-3l0 0c-.01-2.21 1.79-4.01 3.99-4.01h3l-.01 0c2.2-.01 4 1.79 4 3.99" id="e"/><path d="M10.33 7.58l-2.3 2.29L6.65 8.49" id="b"/><path d="M15.5 15.88v1.83" id="c"/><path d="M24 24H0V0h24Z" id="a"/><path d="M15.5 13.31h-.01c-.04 0-.07.02-.07.06 0 .03.02.06.06.06 .03-.01.06-.03.06-.07 0 0 0 0 0 0v0 0c0-.04-.03-.07-.07-.07v0" id="d"/></defs><g fill="none"><use xlink:href="#a"/><use xlink:href="#a"/><g stroke-linecap="round" stroke-width="1.5" stroke="#323232" fill="none" stroke-linejoin="round"><use xlink:href="#b"/><use xlink:href="#c"/><use xlink:href="#d"/><rect width="11" height="11" x="10" y="10" rx="4"/><use xlink:href="#e"/><use xlink:href="#b"/><use xlink:href="#c"/><use xlink:href="#d"/><rect width="11" height="11" x="10" y="10" rx="4"/><use xlink:href="#e"/></g></g></svg>