<?xml version="1.0" encoding="UTF-8"?><svg version="1.1" viewBox="0 0 24 24" xmlns="http://www.w3.org/2000/svg" xmlns:xlink="http://www.w3.org/1999/xlink"><!--Generated by IJSVG (https://github.com/iconjar/IJSVG)--><g fill="none"><path d="M24,24h-24v-24h24v24Z"></path><path stroke="#323232" stroke-linecap="round" stroke-linejoin="round" stroke-width="1.5" d="M16.062,3.004c0.672,-0.672 1.762,-0.673 2.434,0v0c0.672,0.672 0.672,1.762 0,2.434l-7.774,7.769c-0.188,0.187 -0.442,0.293 -0.707,0.293h-2.015v-2.015c0,-0.265 0.105,-0.519 0.293,-0.707l7.769,-7.774Z"></path><path stroke="#323232" stroke-linecap="round" stroke-linejoin="round" stroke-width="1.5" d="M15,13.5h2"></path><path stroke="#323232" stroke-linecap="round" stroke-linejoin="round" stroke-width="1.5" d="M7,17.5h10"></path><path stroke="#323232" stroke-linecap="round" stroke-linejoin="round" stroke-width="1.5" d="M19,10.5v0c1.105,0 2,0.895 2,2v7c0,1.105 -0.895,2 -2,2h-14c-1.105,0 -2,-0.895 -2,-2v-7c0,-1.105 0.895,-2 2,-2v0"></path><path stroke="#323232" stroke-linecap="round" stroke-linejoin="round" stroke-width="1.5" d="M14.07,5l2.43,2.43"></path><path stroke="#323232" stroke-linecap="round" stroke-linejoin="round" stroke-width="1.5" d="M10.066,5.566l1.641,-1.641c0.474,-0.474 1.243,-0.474 1.718,0v0c0.474,0.474 0.474,1.243 0,1.718l-1.141,1.141"></path></g></svg>