<?xml version="1.0" encoding="UTF-8"?><svg version="1.1" viewBox="0 0 24 24" xmlns="http://www.w3.org/2000/svg" xmlns:xlink="http://www.w3.org/1999/xlink"><g stroke-linecap="round" stroke-width="1.5" stroke="#323232" fill="none" stroke-linejoin="round"><path d="M8.278 17.111l-2.222 2.222 -1.334-1.333"></path><path d="M8.5 22h-4c-1.105 0-2-.895-2-2v-4c0-1.105.895-2 2-2h4c1.105 0 2 .895 2 2v4c0 1.105-.895 2-2 2Z"></path></g><path fill="none" stroke="#323232" stroke-width="1.5" d="M17.5 22c-2.209 0-4-1.791-4-4 0-2.164 1.84-4.002 4.003-4 2.208.002 3.997 1.792 3.997 4 0 2.209-1.79 4-4 4"></path><g stroke-linecap="round" stroke-width="1.5" stroke="#323232" fill="none" stroke-linejoin="round"><path d="M17.673 18.172c.095-.095.095-.25-.001-.344 -.095-.095-.25-.095-.345 0 -.095.095-.095.25 0 .345 .095.095.25.095.346-.001"></path><path d="M9 5h-2c-.828 0-1.5.672-1.5 1.5v0c0 .828.672 1.5 1.5 1.5h2c.828 0 1.5-.672 1.5-1.5v0c0-.828-.672-1.5-1.5-1.5Z"></path><path d="M7 2h10c2.485 0 4.5 2.015 4.5 4.5v0c0 2.485-2.015 4.5-4.5 4.5h-10c-2.485 0-4.5-2.015-4.5-4.5v0c0-2.485 2.015-4.5 4.5-4.5Z"></path></g><path fill="none" d="M0 0h24v24h-24Z"></path></svg>