<svg id="Layer_3" data-name="Layer 3" xmlns="http://www.w3.org/2000/svg" viewBox="0 0 24 24"><circle cx="7.5" cy="16.5" r="1.5" fill="none" stroke="#323232" stroke-linecap="round" stroke-linejoin="round" stroke-width="1.5"/><path d="M3.75061,11.37769l8.65082-6.93643A2.05078,2.05078,0,0,1,13.92127,4.014,8.01285,8.01285,0,0,1,21,11.97954v7.01591A2.00228,2.00228,0,0,1,19,21H5a2.00228,2.00228,0,0,1-2-2.00455V12.943A2.00623,2.00623,0,0,1,3.75061,11.37769Z" fill="none" stroke="#323232" stroke-linecap="round" stroke-linejoin="round" stroke-width="1.5"/><path d="M14.5,17.5H17a1,1,0,0,1,1,1v.25A2.25,2.25,0,0,1,15.75,21h0a2.25,2.25,0,0,1-2.25-2.25V18.5A1,1,0,0,1,14.5,17.5Z" transform="translate(31.5 38.5) rotate(-180)" fill="none" stroke="#323232" stroke-linecap="round" stroke-linejoin="round" stroke-width="1.5"/><line x1="21" y1="11.9999" x2="3.23755" y2="12" fill="none" stroke="#323232" stroke-linecap="round" stroke-linejoin="round" stroke-width="1.5"/><path d="M12.25,12h2a1,1,0,0,1,1,1v0a2,2,0,0,1-2,2h0a2,2,0,0,1-2-2v0a1,1,0,0,1,1-1Z" fill="none" stroke="#323232" stroke-linecap="round" stroke-linejoin="round" stroke-width="1.5"/><rect width="24" height="24" transform="translate(24 24) rotate(-180)" fill="none"/></svg>