<?xml version="1.0" encoding="UTF-8"?><svg version="1.1" viewBox="0 0 24 24" xmlns="http://www.w3.org/2000/svg" xmlns:xlink="http://www.w3.org/1999/xlink"><!--Generated by IJSVG (https://github.com/iconjar/IJSVG)--><g stroke-linecap="round" stroke-width="1.5" stroke="#323232" fill="none" stroke-linejoin="round"><path d="M12,6c0.97,0 1.801,0.558 2.216,1.365"></path><path d="M14.216,7.365c0.376,-0.227 0.812,-0.365 1.284,-0.365c1.381,0 2.5,1.119 2.5,2.5"></path><path d="M18,9.5c0,1.209 -0.859,2.218 -2,2.45"></path><path d="M16,11.95v4.05c0,1.105 -0.895,2 -2,2h-4c-1.105,0 -2,-0.895 -2,-2v-4.05"></path><path d="M12,6c-0.97,0 -1.801,0.558 -2.216,1.365"></path><path d="M9.784,7.365c-0.376,-0.227 -0.812,-0.365 -1.284,-0.365c-1.381,0 -2.5,1.119 -2.5,2.5"></path><path d="M6,9.5c0,1.209 0.859,2.218 2,2.45"></path><path d="M16,14.5h-8"></path><path d="M19,21h-14c-1.105,0 -2,-0.895 -2,-2v-14c0,-1.105 0.895,-2 2,-2h14c1.105,0 2,0.895 2,2v14c0,1.105 -0.895,2 -2,2Z"></path></g><path fill="none" d="M0,0h24v24h-24Z"></path></svg>