<svg id="Layer_3" data-name="Layer 3" xmlns="http://www.w3.org/2000/svg" viewBox="0 0 24 24"><path d="M12,15H10.5A1.5,1.5,0,0,1,9,13.5v-3A1.5,1.5,0,0,1,10.5,9h3A1.5,1.5,0,0,1,15,10.5V12" fill="none" stroke="#323232" stroke-linecap="round" stroke-linejoin="round" stroke-width="1.5"/><path d="M12,18.5H8.75A3.25,3.25,0,0,1,5.5,15.25V8.75A3.25,3.25,0,0,1,8.75,5.5h6.5A3.25,3.25,0,0,1,18.5,8.75V12" fill="none" stroke="#323232" stroke-linecap="round" stroke-linejoin="round" stroke-width="1.5"/><line x1="21.00001" y1="9.00001" x2="18.50001" y2="9.00001" fill="none" stroke="#323232" stroke-linecap="round" stroke-linejoin="round" stroke-width="1.5"/><line x1="5.50001" y1="9.00001" x2="3.00001" y2="9.00001" fill="none" stroke="#323232" stroke-linecap="round" stroke-linejoin="round" stroke-width="1.5"/><line x1="5.50001" y1="12.00001" x2="3.00001" y2="12.00001" fill="none" stroke="#323232" stroke-linecap="round" stroke-linejoin="round" stroke-width="1.5"/><line x1="5.50001" y1="15.00001" x2="3.00001" y2="15.00001" fill="none" stroke="#323232" stroke-linecap="round" stroke-linejoin="round" stroke-width="1.5"/><line x1="9.00001" y1="3.00001" x2="9.00001" y2="5.50001" fill="none" stroke="#323232" stroke-linecap="round" stroke-linejoin="round" stroke-width="1.5"/><line x1="12.00001" y1="3.00001" x2="12.00001" y2="5.50001" fill="none" stroke="#323232" stroke-linecap="round" stroke-linejoin="round" stroke-width="1.5"/><line x1="15.00001" y1="3.00001" x2="15.00001" y2="5.50001" fill="none" stroke="#323232" stroke-linecap="round" stroke-linejoin="round" stroke-width="1.5"/><line x1="9.00001" y1="18.50001" x2="9.00001" y2="21.00001" fill="none" stroke="#323232" stroke-linecap="round" stroke-linejoin="round" stroke-width="1.5"/><path d="M18,22H16.25A1.25,1.25,0,0,1,15,20.75v-1.5A1.25,1.25,0,0,1,16.25,18h3.5A1.25,1.25,0,0,1,21,19.25v1.5A1.25,1.25,0,0,1,19.75,22H18" fill="none" stroke="#323232" stroke-linecap="round" stroke-linejoin="round" stroke-width="1.5"/><path d="M16.25,18V16.75A1.75,1.75,0,0,1,18,15h0a1.75,1.75,0,0,1,1.75,1.75V18" fill="none" stroke="#323232" stroke-linecap="round" stroke-linejoin="round" stroke-width="1.5"/><path d="M0,0H24V24H0Z" fill="none"/></svg>