<?xml version="1.0" encoding="UTF-8"?><svg version="1.1" viewBox="0 0 24 24" xmlns="http://www.w3.org/2000/svg" xmlns:xlink="http://www.w3.org/1999/xlink"><g stroke-linecap="round" stroke-width="1.5" stroke="#323232" fill="none" stroke-linejoin="round"><rect width="18" height="18" x="3" y="3" rx="1.65684" ry="0"></rect><rect width="4.84001" height="4.84001" x="9.58" y="9.58" rx=".62374" ry="0"></rect><path d="M6.59545 6.54546h-8.88178e-16c0 .0276142-.0223858.05-.05.05 -.0276142 0-.05-.0223858-.05-.05 0-.0276142.0223858-.05.05-.05 0 0 0 0 0 0"></path><path d="M6.54545 6.49546h-2.18557e-09c.0276142-1.20706e-09.05.0223858.05.05"></path><path d="M10.2318 6.54545v8.88178e-16c0 .0276142-.0223858.05-.05.05 -.0276142 0-.05-.0223858-.05-.05 0-.0276142.0223858-.05.05-.05"></path><path d="M10.1818 6.49545l-2.18557e-09 8.88178e-16c.0276142-1.20706e-09.05.0223858.05.05 0 0 0 0 0 0"></path><path d="M13.8682 6.54545v8.88178e-16c0 .0276142-.0223858.05-.05.05 -.0276142 0-.05-.0223858-.05-.05 0-.0276142.0223858-.05.05-.05"></path><path d="M13.8182 6.49545l-2.18557e-09 8.88178e-16c.0276142-1.20706e-09.05.0223858.05.05 0 0 0 0 0 0"></path><path d="M17.5046 6.54545l3.55271e-15 8.88178e-16c0 .0276142-.0223858.05-.05.05 -.0276142 0-.05-.0223858-.05-.05 0-.0276142.0223858-.05.05-.05"></path><path d="M17.4546 6.49545l-2.18557e-09 8.88178e-16c.0276142-1.20706e-09.05.0223858.05.05 0 0 0 0 0 0"></path><path d="M17.5046 10.1818h3.55271e-15c0 .0276142-.0223858.05-.05.05 -.0276142 0-.05-.0223858-.05-.05 0-.0276142.0223858-.05.05-.05"></path><path d="M17.4546 10.1318h-2.18557e-09c.0276142-1.20706e-09.05.0223858.05.05 0 0 0 1.77636e-15 0 1.77636e-15"></path><path d="M17.5046 13.8182h3.55271e-15c0 .0276142-.0223858.05-.05.05 -.0276142 0-.05-.0223858-.05-.05 0-.0276142.0223858-.05.05-.05"></path><path d="M17.4546 13.7682h-2.18557e-09c.0276142-1.20706e-09.05.0223858.05.05 0 0 0 1.77636e-15 0 1.77636e-15"></path><path d="M17.5046 17.4546l3.55271e-15-3.55271e-15c0 .0276142-.0223858.05-.05.05 -.0276142 0-.05-.0223858-.05-.05 0-.0276142.0223858-.05.05-.05"></path><path d="M17.4546 17.4046l-2.18557e-09-3.55271e-15c.0276142-1.20706e-09.05.0223858.05.05 0 0 0 0 0 0"></path><path d="M13.8682 17.4546v-3.55271e-15c0 .0276142-.0223858.05-.05.05 -.0276142 0-.05-.0223858-.05-.05 0-.0276142.0223858-.05.05-.05"></path><path d="M13.8182 17.4046l-2.18557e-09-3.55271e-15c.0276142-1.20706e-09.05.0223858.05.05 0 0 0 0 0 0"></path><path d="M10.2318 17.4546v-3.55271e-15c0 .0276142-.0223858.05-.05.05 -.0276142 0-.05-.0223858-.05-.05 0-.0276142.0223858-.05.05-.05"></path><path d="M10.1818 17.4046l-2.18557e-09-3.55271e-15c.0276142-1.20706e-09.05.0223858.05.05 0 0 0 0 0 0"></path><path d="M6.59545 17.4546l-8.88178e-16-3.55271e-15c0 .0276142-.0223858.05-.05.05 -.0276142 0-.05-.0223858-.05-.05 0-.0276142.0223858-.05.05-.05"></path><path d="M6.54545 17.4046l-2.18557e-09-3.55271e-15c.0276142-1.20706e-09.05.0223858.05.05 0 0 0 0 0 0"></path><path d="M6.59545 13.8182h-8.88178e-16c0 .0276142-.0223858.05-.05.05 -.0276142 0-.05-.0223858-.05-.05 0-.0276142.0223858-.05.05-.05"></path><path d="M6.54545 13.7682h-2.18557e-09c.0276142-1.20706e-09.05.0223858.05.05 0 0 0 0 0 0"></path><path d="M6.59545 10.1818h-8.88178e-16c0 .0276142-.0223858.05-.05.05 -.0276142 0-.05-.0223858-.05-.05 0-.0276142.0223858-.05.05-.05"></path><path d="M6.54545 10.1318h-2.18557e-09c.0276142-1.20706e-09.05.0223858.05.05 0 0 0 0 0 0"></path></g><path fill="none" d="M0 0h24v24h-24Z"></path></svg>