<svg viewBox="0 0 24 24" xmlns="http://www.w3.org/2000/svg"><g stroke-linecap="round" stroke-width="1.5" stroke="#323232" fill="none" stroke-linejoin="round"><path d="M15 19H9l-.01-.001c-2.21-.01-4-1.8-4-4v-6l0-.01c0-2.21 1.79-4 4-4h6l0 0c2.2 0 3.99 1.79 3.99 4v6l-.01 0c-.01 2.2-1.8 3.99-4.01 3.99Z"/><path d="M13.38 5l0-2"/><path d="M16.15 5.17l0-2.17"/><path d="M7.85 5.17l0-2.17"/><path d="M10.62 5l0-2"/><path d="M13.38 21l0-2"/><path d="M16.15 21l0-2.17"/><path d="M7.85 21l0-2.17"/><path d="M10.62 21l0-2"/><path d="M19 13.38l2 0"/><path d="M18.83 16.15l2.17 0"/><path d="M18.83 7.85l2.17 0"/><path d="M19 10.62l2 0"/><path d="M3 13.38l2 0"/><path d="M3 16.15l2.17 0"/><path d="M3 7.85l2.17 0"/><path d="M3 10.62l2 0"/><path d="M12 9a3 3 0 1 0 0 6 3 3 0 1 0 0-6Z"/></g><path fill="none" d="M0 0h24v24H0Z"/></svg>