<?xml version="1.0" encoding="UTF-8"?><svg version="1.1" viewBox="0 0 24 24" xmlns="http://www.w3.org/2000/svg" xmlns:xlink="http://www.w3.org/1999/xlink"><!--Generated by IJSVG (https://github.com/iconjar/IJSVG)--><g stroke-linecap="round" stroke-width="1.5" stroke="#323232" fill="none" stroke-linejoin="round"><path d="M17,21h-10c-0.552,0 -1,-0.448 -1,-1v-9c0,-0.552 0.448,-1 1,-1h10c0.552,0 1,0.448 1,1v9c0,0.552 -0.448,1 -1,1Z"></path><path d="M17,10l-2.841,2.841c-0.674,0.674 -1.73,0.779 -2.524,0.25l-4.635,-3.091"></path><path d="M7,10v-6c0,-0.552 0.448,-1 1,-1h8c0.552,0 1,0.448 1,1v6"></path><path d="M9,18v-2"></path></g><path fill="none" d="M0,0h24v24h-24Z"></path></svg>