<svg id="Layer_3" data-name="Layer 3" xmlns="http://www.w3.org/2000/svg" viewBox="0 0 24 24"><path d="M0,0H24V24H0Z" fill="none"/><path d="M2,20a7.07107,7.07107,0,0,1,10,0" fill="none" stroke="#323232" stroke-linecap="round" stroke-linejoin="round" stroke-width="1.5"/><line x1="6.00964" y1="15" x2="6.00964" y2="17.99834" fill="none" stroke="#323232" stroke-linecap="round" stroke-linejoin="round" stroke-width="1.5"/><path d="M5.65609,7.094l-2.499,2.499a.5.5,0,0,0,.35355.85354h4.998A.5.5,0,0,0,8.86219,9.593l-2.499-2.499A.5.5,0,0,0,5.65609,7.094Z" fill="none" stroke="#323232" stroke-linecap="round" stroke-linejoin="round" stroke-width="1.5"/><path d="M21,16V4H18V5.66667" fill="none" stroke="#323232" stroke-linecap="round" stroke-linejoin="round" stroke-width="1.5"/><path d="M14.5,16V12h3v4" fill="none" stroke="#323232" stroke-linecap="round" stroke-linejoin="round" stroke-width="1.5"/><line x1="22" y1="16" x2="13" y2="16" fill="none" stroke="#323232" stroke-linecap="round" stroke-linejoin="round" stroke-width="1.5"/><polyline points="12 7.333 16 4 22 9" fill="none" stroke="#323232" stroke-linecap="round" stroke-linejoin="round" stroke-width="1.5"/><path d="M5.06854,10.44653l-2.89612,3.428A.684.684,0,0,0,2.695,15H9.32434a.684.684,0,0,0,.52246-1.12543l-2.89612-3.428" fill="none" stroke="#323232" stroke-linecap="round" stroke-linejoin="round" stroke-width="1.5"/></svg>