<?xml version="1.0" encoding="UTF-8"?><svg version="1.1" viewBox="0 0 24 24" xmlns="http://www.w3.org/2000/svg" xmlns:xlink="http://www.w3.org/1999/xlink"><g fill="none"><rect width="24" height="24"></rect><path stroke="#323232" stroke-linecap="round" stroke-linejoin="round" stroke-width="1.5" d="M3 21v-8l1.15463e-14 1.50996e-07c-8.33927e-08-.552285.447715-1 1-1h2"></path><path stroke="#323232" stroke-linecap="round" stroke-linejoin="round" stroke-width="1.5" d="M18 12h2l-4.37114e-08 1.77636e-15c.552285-2.41411e-08 1 .447715 1 1v8"></path><path stroke="#323232" stroke-linecap="round" stroke-linejoin="round" stroke-width="1.5" d="M6 21v-10.143l-4.01204e-08-2.04356e-05c-.000699131-.357971.190001-.689011.500018-.86799l5-2.857 -4.38286e-08 2.50356e-08c.307362-.17557.684638-.17557.992-5.00712e-08l5 2.857 6.37708e-08 3.68179e-08c.310013.178985.500706.510029.5.868v10.143"></path><path stroke="#323232" stroke-linecap="round" stroke-linejoin="round" stroke-width="1.5" d="M12 10.95l4.6214e-09-1.84865e-11c-.13807.000552282-.24955.112928-.248998.250998 .000552282.13807.112928.24955.250998.248998 .137679-.000550718.248999-.112316.249-.249996l7.21973e-09-1.78492e-06c.000555747-.137518-.110474-.249448-.247992-.250004 -.00100337-4.05488e-06-.00200675-2.04494e-06-.00301009 6.02972e-06"></path><line x1="15" x2="15" y1="16" y2="21" stroke="#323232" stroke-linecap="round" stroke-linejoin="round" stroke-width="1.5"></line><line x1="9" x2="9" y1="21" y2="16" stroke="#323232" stroke-linecap="round" stroke-linejoin="round" stroke-width="1.5"></line><line x1="12" x2="12" y1="16" y2="21" stroke="#323232" stroke-linecap="round" stroke-linejoin="round" stroke-width="1.5"></line><line x1="2" x2="22" y1="21" y2="21" stroke="#323232" stroke-linecap="round" stroke-linejoin="round" stroke-width="1.5"></line><line x1="12" x2="12" y1="3" y2="7" stroke="#323232" stroke-linecap="round" stroke-linejoin="round" stroke-width="1.5"></line><line x1="10.5" x2="13.5" y1="4.5" y2="4.5" stroke="#323232" stroke-linecap="round" stroke-linejoin="round" stroke-width="1.5"></line><line x1="9" x2="15" y1="16" y2="16" stroke="#323232" stroke-linecap="round" stroke-linejoin="round" stroke-width="1.5"></line><line x1="8.5" x2="15.5" y1="16" y2="16" stroke="#323232" stroke-linecap="round" stroke-linejoin="round" stroke-width="1.5"></line></g></svg>