<svg xmlns="http://www.w3.org/2000/svg" viewBox="0 0 24 24"><g id="Layer_2" data-name="Layer 2"><rect width="24" height="24" fill="none"/><line x1="22" y1="21.99999" x2="2" y2="21.99999" fill="none" stroke="#323232" stroke-linecap="round" stroke-linejoin="round" stroke-width="1.5"/><line x1="19.9999" y1="11" x2="4" y2="11.00001" fill="none" stroke="#323232" stroke-linecap="round" stroke-linejoin="round" stroke-width="1.5"/><path d="M3,22c.55229,0,1-4.92485,1-11a26.00136,26.00136,0,0,0,8-6,26.00334,26.00334,0,0,0,7.99994,6c0,6.07512.44772,11,1,11" fill="none" stroke="#323232" stroke-linecap="round" stroke-linejoin="round" stroke-width="1.5"/><polygon points="12 2 16 2 15.5 3.5 16 5 12 5 12 2" fill="none" stroke="#323232" stroke-linecap="round" stroke-linejoin="round" stroke-width="1.5"/><path d="M12,17h0a1.6575,1.6575,0,0,0-1.64926,1.49255L10,22h4l-.35074-3.50745A1.6575,1.6575,0,0,0,12,17Z" fill="none" stroke="#323232" stroke-linecap="round" stroke-linejoin="round" stroke-width="1.5"/></g></svg>