<?xml version="1.0" encoding="UTF-8"?><svg version="1.1" viewBox="0 0 24 24" xmlns="http://www.w3.org/2000/svg" xmlns:xlink="http://www.w3.org/1999/xlink"><!--Generated by IJSVG (https://github.com/iconjar/IJSVG)--><g stroke-linecap="round" stroke-width="1.5" stroke="#323232" fill="none" stroke-linejoin="round"><path d="M3.523,9c0.561,-1.583 1.545,-2.965 2.826,-4"></path><path d="M3,12c0,1.054 0.19,2.06 0.523,3"></path><path d="M9.38,20.61c0.829,0.252 1.708,0.39 2.62,0.39c4.971,0 9,-4.029 9,-9c0,-0.543 -0.056,-1.072 -0.148,-1.588"></path><path d="M6.349,18.973c-0.427,-0.345 -0.832,-0.716 -1.188,-1.133"></path><path d="M19.419,6.909c-1.623,-2.36 -4.339,-3.909 -7.419,-3.909c-0.912,0 -1.791,0.138 -2.62,0.39"></path><path d="M9.91,13.271c0.551,0.551 0.551,1.445 0,1.997c-0.551,0.552 -1.445,0.551 -1.997,0c-0.552,-0.551 -0.551,-1.445 0,-1.997c0.551,-0.552 1.446,-0.551 1.997,0"></path><path d="M15.086,12.33c0.551,0.551 0.551,1.445 0,1.997c-0.551,0.552 -1.445,0.551 -1.997,0c-0.552,-0.551 -0.551,-1.445 0,-1.997c0.551,-0.552 1.446,-0.551 1.997,0"></path><path d="M10.324,14.27v-3.72c0,-0.385 0.234,-0.731 0.592,-0.874l3.213,-1.285c0.657,-0.263 1.371,0.221 1.371,0.928v4.01"></path></g><path fill="none" d="M0,0h24v24h-24v-24Z"></path></svg>