<?xml version="1.0" encoding="UTF-8"?><svg version="1.1" viewBox="0 0 24 24" xmlns="http://www.w3.org/2000/svg" xmlns:xlink="http://www.w3.org/1999/xlink"><!--Generated by IJSVG (https://github.com/iconjar/IJSVG)--><g fill="none"><path d="M0,0h24v24h-24Z"></path><path stroke="#323232" stroke-linecap="round" stroke-linejoin="round" stroke-width="1.5" d="M15,18h-5c-1.657,0 -3,-1.343 -3,-3v-5c0,-1.657 1.343,-3 3,-3h5c1.657,0 3,1.343 3,3v5c0,1.657 -1.343,3 -3,3Z"></path><path stroke="#323232" stroke-linecap="round" stroke-linejoin="round" stroke-width="1.5" d="M1,1h11v11h-11Z"></path><path stroke="#323232" stroke-linecap="round" stroke-linejoin="round" stroke-width="1.5" d="M18,23v0c-2.761,0 -5,-2.239 -5,-5v0c0,-2.761 2.239,-5 5,-5v0c2.761,0 5,2.239 5,5v0c0,2.761 -2.239,5 -5,5Z"></path></g></svg>