<?xml version="1.0" encoding="UTF-8"?><svg version="1.1" viewBox="0 0 24 24" xmlns="http://www.w3.org/2000/svg" xmlns:xlink="http://www.w3.org/1999/xlink"><g stroke-linecap="round" stroke-width="1.5" stroke="#323232" fill="none" stroke-linejoin="round"><rect width="18" height="18" x="3" y="3" rx="1.65684" ry="0"></rect><line x1="12" x2="12" y1="3" y2="21"></line><path d="M7.5 6.5v0c0 .552285-.447715 1-1 1l-4.37114e-08 8.88178e-16c.552285-2.41411e-08 1 .447715 1 1l1.24345e-14 1.50996e-07c-8.33927e-08-.552285.447715-1 1-1l-1.19249e-08-1.77636e-15c-.552285-8.99786e-08-1-.447715-1-1Z"></path><path d="M16.5 15v0c0 .552285-.447715 1-1 1h-4.37114e-08c.552285-2.41411e-08 1 .447715 1 1l1.06581e-14 1.50996e-07c-8.33927e-08-.552285.447715-1 1-1l-1.19249e-08-3.55271e-15c-.552285-8.99786e-08-1-.447715-1-1Z"></path></g><rect width="24" height="24" fill="none"></rect></svg>