<svg id="Layer_3" data-name="Layer 3" xmlns="http://www.w3.org/2000/svg" viewBox="0 0 24 24"><rect width="24" height="24" fill="none"/><path d="M18,20.59a4.03085,4.03085,0,0,0-1.17-2.76l-.00157-.00157-3.53554-3.53554A1,1,0,0,1,13,13.58579v-1.865a1,1,0,0,1,.68377-.94868l2.07906-.693a.5.5,0,0,0,.31623-.31623l.4822-1.4466A1,1,0,0,0,15.61257,7H7.5a.5.5,0,0,0-.5.5V8.79289a.5.5,0,0,0,.14645.35356l1.26776,1.26776A2,2,0,0,1,9,11.82843v1.566a2,2,0,0,1-.3359,1.1094l-1.3282,1.9923A2,2,0,0,0,7,17.60555v3.29412" fill="none" stroke="#323232" stroke-linecap="round" stroke-linejoin="round" stroke-width="1.5"/><rect x="3" y="3" width="18" height="18" rx="5" stroke-width="1.5" stroke="#323232" stroke-linecap="round" stroke-linejoin="round" fill="none"/><line x1="14.71429" y1="10.42853" x2="16" y2="13" fill="none" stroke="#323232" stroke-linecap="round" stroke-linejoin="round" stroke-width="1.5"/><line x1="13" y1="14" x2="9" y2="14" fill="none" stroke="#323232" stroke-linecap="round" stroke-linejoin="round" stroke-width="1.5"/></svg>