<?xml version="1.0" encoding="UTF-8"?><svg version="1.1" viewBox="0 0 24 24" xmlns="http://www.w3.org/2000/svg" xmlns:xlink="http://www.w3.org/1999/xlink"><g fill="none"><path d="M24 24h-24v-24h24Z"></path><path stroke="#323232" stroke-linecap="round" stroke-linejoin="round" stroke-width="1.5" d="M16 21.5l-2-2 2-2"></path><path stroke="#323232" stroke-linecap="round" stroke-linejoin="round" stroke-width="1.5" d="M20 19.5h-6"></path><path stroke="#323232" stroke-linecap="round" stroke-linejoin="round" stroke-width="1.5" d="M20.0583 15.5036l5.31936e-08-1.07069e-07c2.21106-4.45047.39566-9.85072-4.05481-12.0618 -4.45047-2.21106-9.85072-.39566-12.0618 4.05481 -2.21106 4.45047-.39566 9.85072 4.05481 12.0618 .63799.316963 1.31136.557039 2.00598.715186"></path><path stroke="#323232" stroke-linecap="round" stroke-linejoin="round" stroke-width="1.5" d="M11.293 12.707l3.182-3.182 1.72787e-08-1.72505e-08c.585978-.585022 1.53502-.585022 2.121 3.42944e-08v0l6.36064e-08 6.37104e-08c.585021.585978.585021 1.53502-1.27006e-07 2.121l-3.889 3.889 8.00132e-08-8.00449e-08c-1.17121 1.17167-3.07049 1.17205-4.24216.000840389 -.000280132-.000280021-.000560208-.000560097-.000840229-.000840229v0l1.13762e-07 1.13717e-07c-1.17167-1.17121-1.17205-3.07049-.000840456-4.24216 .000280021-.000280132.000560097-.000560208.000840229-.000840229l3.536-3.535"></path></g></svg>