<?xml version="1.0" encoding="UTF-8"?><svg version="1.1" viewBox="0 0 24 24" xmlns="http://www.w3.org/2000/svg" xmlns:xlink="http://www.w3.org/1999/xlink"><g stroke-linecap="round" stroke-width="1.5" stroke="#323232" fill="none" stroke-linejoin="round"><path d="M12 21v0c4.971 0 9-4.029 9-9v0c0-4.971-4.029-9-9-9v0c-4.971 0-9 4.029-9 9v0c0 4.971 4.029 9 9 9Z"></path><path d="M14 14l-2-2v-3"></path><path d="M5.5 12h.5"></path><path d="M18.5 12h-.5"></path><path d="M7.76 16.24l-.36.36"></path><path d="M16.24 7.76l.36-.36"></path><path d="M12 18v.5"></path><path d="M12 5.5v.5"></path><path d="M16.24 16.24l.36.36"></path><path d="M7.4 7.4l.36.36"></path></g><path fill="none" d="M0 0h24v24h-24v-24Z"></path></svg>