<?xml version="1.0" encoding="UTF-8"?><svg version="1.1" viewBox="0 0 24 24" xmlns="http://www.w3.org/2000/svg" xmlns:xlink="http://www.w3.org/1999/xlink"><g fill="none"><path d="M0 0h24v24h-24v-24Z"></path><path stroke="#323232" stroke-linecap="round" stroke-linejoin="round" stroke-width="1.5" d="M17.657 7.343c3.124 3.124 3.124 8.19 0 11.314 -3.124 3.124-8.19 3.124-11.314 0 -3.124-3.124-3.124-8.19 0-11.314 3.124-3.124 8.19-3.124 11.314 0"></path><path stroke="#323232" stroke-linecap="round" stroke-linejoin="round" stroke-width="1.5" d="M12.5 12.998c0-.276-.224-.499-.5-.498 -.276.001-.5.225-.5.501 0 .276.223.499.499.499 .276 0 .5-.224.501-.501"></path><path stroke="#323232" stroke-linecap="round" stroke-linejoin="round" stroke-width="1.5" d="M12 9v4"></path><path stroke="#323232" stroke-linecap="round" stroke-linejoin="round" stroke-width="1.5" d="M10 2h4"></path><path stroke="#323232" stroke-linecap="round" stroke-linejoin="round" stroke-width="1.5" d="M21 6l-2-2 1 1 -2.343 2.343"></path></g></svg>