<?xml version="1.0" encoding="UTF-8"?><svg version="1.1" viewBox="0 0 24 24" xmlns="http://www.w3.org/2000/svg" xmlns:xlink="http://www.w3.org/1999/xlink"><g stroke-linecap="round" stroke-width="1.5" stroke="#323232" fill="none" stroke-linejoin="round"><path d="M10 2h4"></path><path d="M17.6569 7.34315c3.12419 3.12419 3.12419 8.18951 0 11.3137 -3.12419 3.12419-8.18951 3.12419-11.3137 0 -3.12419-3.12419-3.12419-8.18951-1.77636e-15-11.3137 3.12419-3.12419 8.18951-3.12419 11.3137-1.77636e-15"></path><path stroke-width="1.625" d="M11.999 8c-.135 0-.244.109-.243.244 0 .135.109.244.244.244 .135 0 .244-.109.244-.244 0-.135-.109-.244-.245-.244"></path><path stroke-width="1.625" d="M11.999 17.512c-.135 0-.244.109-.243.244 0 .135.109.244.244.244 .135 0 .244-.109.244-.244 0-.135-.109-.244-.245-.244"></path><path stroke-width="1.625" d="M17 12.999c0-.135-.109-.244-.244-.243 -.135 0-.244.109-.244.244 0 .135.109.244.244.244 .135 0 .244-.109.244-.245"></path><path stroke-width="1.625" d="M7.488 12.999c0-.135-.109-.244-.244-.243 -.135 0-.244.109-.244.244 0 .135.109.244.244.244 .135 0 .244-.109.244-.245"></path><path stroke-width="1.625" d="M15.535 9.464c-.095-.095-.25-.095-.344.001 -.095.095-.095.25 0 .345 .095.095.25.095.345 0 .095-.096.095-.25-.001-.346"></path><path stroke-width="1.625" d="M8.809 16.19c-.095-.095-.25-.095-.344.001 -.095.095-.095.25 0 .345 .095.095.25.095.345 0 .095-.095.095-.25-.001-.346"></path><path stroke-width="1.625" d="M15.536 16.535c.095-.095.095-.25-.001-.344 -.095-.095-.25-.095-.345 0 -.095.095-.095.25 0 .345 .096.095.25.095.346-.001"></path><path stroke-width="1.625" d="M8.81 9.809c.095-.095.095-.25-.001-.344 -.095-.095-.25-.095-.345 0 -.095.095-.095.25 0 .345 .095.095.25.095.346-.001"></path></g><path fill="none" d="M0 0h24v24h-24Z"></path></svg>