<?xml version="1.0" encoding="UTF-8"?><svg version="1.1" viewBox="0 0 24 24" xmlns="http://www.w3.org/2000/svg" xmlns:xlink="http://www.w3.org/1999/xlink"><g stroke-linecap="round" stroke-width="1.5" stroke="#323232" fill="none" stroke-linejoin="round"><path d="M12 6l-3.27835e-07 7.10543e-15c4.14214-1.81059e-07 7.5 3.35786 7.5 7.5 1.81059e-07 4.14214-3.35786 7.5-7.5 7.5 -4.14214 1.81059e-07-7.5-3.35786-7.5-7.5l7.90479e-14 8.04633e-07c-6.25445e-07-4.14214 3.35786-7.5 7.5-7.5 1.01596e-07-1.5099e-14 2.2624e-07-3.19744e-14 3.27835e-07-4.26326e-14"></path><path d="M12 9v4"></path><path d="M10 3h4"></path><line x1="20" x2="19" y1="7" y2="6"></line></g><rect width="24" height="24" fill="none"></rect></svg>