<?xml version="1.0" encoding="UTF-8"?><svg version="1.1" viewBox="0 0 24 24" xmlns="http://www.w3.org/2000/svg" xmlns:xlink="http://www.w3.org/1999/xlink"><g stroke-linecap="round" stroke-width="1.5" stroke="#323232" fill="none" stroke-linejoin="round"><path d="M7.722 17.45h-2.18557e-09c-.0276142 1.20706e-09-.05.0223858-.05.05 1.20706e-09.0276142.0223858.05.05.05h-2.18557e-09c.0276142 1.20706e-09.05-.0223858.05-.05 1.20706e-09-.0276142-.0223858-.05-.05-.05"></path><path d="M5.277 17.45l-2.63515e-09-5.47118e-13c-.027062-5.6347e-06-.0490046.0219278-.0490102.0489898 -7.01188e-08.000336762 3.33145e-06.000673515 1.02042e-05.00101021v-7.54979e-09c-4.16963e-09.0276142.0223858.05.05.05 0 0 8.88178e-16 0 8.88178e-16 0h-2.18557e-09c.0276142 1.20706e-09.05-.0223858.05-.05 1.20706e-09-.0276142-.0223858-.05-.05-.05"></path><circle cx="6.5" cy="17.5" r="4.5"></circle><path d="M4.369 13.536l-1.18016e-07-4.00841e-07c-1.40635-4.77667 1.32584-9.789 6.10251-11.1954 4.77667-1.40635 9.789 1.32584 11.1954 6.10251 1.40635 4.77667-1.32584 9.789-6.10251 11.1954 -1.66523.490279-3.4366.489407-5.10135-.00251043"></path><polyline points="16.891,11.391 12.5,11.391 12.5,6"></polyline></g><path fill="none" d="M24 24h-24v-24h24Z"></path></svg>