<svg id="Layer_3" data-name="Layer 3" xmlns="http://www.w3.org/2000/svg" viewBox="0 0 24 24"><rect width="24" height="24" fill="none"/><path d="M12,10V7.90738l1.38234-.768A2.17279,2.17279,0,0,0,14.5,5.24,2.39232,2.39232,0,0,0,11.98005,3,2.442,2.442,0,0,0,9.5,4.88793" fill="none" stroke="#323232" stroke-linecap="round" stroke-linejoin="round" stroke-width="1.5"/><path d="M7,16.5H17a1,1,0,0,1,1,1V21a0,0,0,0,1,0,0H6a0,0,0,0,1,0,0V17.5A1,1,0,0,1,7,16.5Z" fill="none" stroke="#323232" stroke-linecap="round" stroke-linejoin="round" stroke-width="1.5"/><path d="M18,18h1.23858a1.74873,1.74873,0,0,0,.9582-3.21729l-6.71843-4.34652a2.72332,2.72332,0,0,0-2.9567,0L3.80322,14.78271A1.74873,1.74873,0,0,0,4.76142,18H6" fill="none" stroke="#323232" stroke-linecap="round" stroke-linejoin="round" stroke-width="1.5"/></svg>