<svg id="Layer_3" data-name="Layer 3" xmlns="http://www.w3.org/2000/svg" viewBox="0 0 24 24"><path d="M0,24H24V0H0Z" fill="none"/><path d="M3,12V5A2,2,0,0,1,5,3H7" fill="none" stroke="#323232" stroke-linecap="round" stroke-linejoin="round" stroke-width="1.5"/><path d="M21,15v4a2,2,0,0,1-2,2H18" fill="none" stroke="#323232" stroke-linecap="round" stroke-linejoin="round" stroke-width="1.5"/><path d="M5.65167,15.03516A2.99214,2.99214,0,0,0,6,21h6.5" fill="none" stroke="#323232" stroke-linecap="round" stroke-linejoin="round" stroke-width="1.5"/><path d="M12.5,16a2.5,2.5,0,0,1,0,5" fill="none" stroke="#323232" stroke-linecap="round" stroke-linejoin="round" stroke-width="1.5"/><path d="M5.65167,15.03516A3.49085,3.49085,0,0,1,12.5,16" fill="none" stroke="#323232" stroke-linecap="round" stroke-linejoin="round" stroke-width="1.5"/><path d="M15,12h3.75A2.25,2.25,0,0,0,21,9.75V5.25A2.25,2.25,0,0,0,18.75,3h-6.5A2.25,2.25,0,0,0,10,5.25V9" fill="none" stroke="#323232" stroke-linecap="round" stroke-linejoin="round" stroke-width="1.5"/><path d="M13,6.5l1.98914.8908a1.25,1.25,0,0,0,1.02181,0L18,6.5" fill="none" stroke="#323232" stroke-linecap="round" stroke-linejoin="round" stroke-width="1.5"/></svg>