<?xml version="1.0" encoding="UTF-8"?><svg version="1.1" viewBox="0 0 24 24" xmlns="http://www.w3.org/2000/svg" xmlns:xlink="http://www.w3.org/1999/xlink"><g stroke-linecap="round" stroke-width="1.5" stroke="#323232" fill="none" stroke-linejoin="round"><path d="M14.6177 10.9008l-5.79424e-08-1.96467e-07c-.607453-2.05971-2.76961-3.23699-4.82932-2.62954 -2.05971.607453-3.23699 2.76961-2.62954 4.82932 .487689 1.65362 2.00606 2.78864 3.73009 2.78835h3.61111l-3.60686e-08-6.54392e-11c1.37814.00250035 2.49737-1.11268 2.49987-2.49082 .00242372-1.3359-1.04769-2.43675-2.38222-2.49731Z"></path><path d="M12 21l-1.54354e-07 3.08376e-12c-4.97046 9.9327e-05-8.9999-4.02918-9-8.99964 -2.39804e-09-.000120001-2.39598e-09-.000240002 6.17284e-12-.000360004l-3.6411e-07 2.42085e-05c.0743278-4.94224 4.06488-8.92962 9.00718-9.00002l3.51072e-07 1.39968e-10c4.97056.00198182 8.99839 4.03303 8.99641 9.00359 -.00198182 4.97056-4.03303 8.99839-9.00359 8.99641"></path></g><path fill="none" d="M0 0h24v24h-24Z"></path></svg>