<?xml version="1.0" encoding="UTF-8"?><svg version="1.1" viewBox="0 0 24 24" xmlns="http://www.w3.org/2000/svg" xmlns:xlink="http://www.w3.org/1999/xlink"><g fill="none"><path d="M0 0h24v24h-24Z"></path><path stroke="#323232" stroke-linecap="round" stroke-linejoin="round" stroke-width="1.5" d="M20.582 9.353l8.58714e-08 2.69255e-07c.272989.855976.413941 1.74856.418 2.647v0c0 4.97056-4.02944 9-9 9 -4.97056 0-9-4.02944-9-9 0-4.97056 4.02944-9 9-9l-7.21809e-08-3.26054e-10c.898444.00405844 1.79102.14501 2.647.418"></path><path stroke="#323232" stroke-linecap="round" stroke-linejoin="round" stroke-width="1.5" d="M14.618 10.9l4.51438e-08 1.53043e-07c-.607513-2.05955-2.7696-3.23666-4.82915-2.62915 -2.05955.607513-3.23666 2.7696-2.62915 4.82915 .487664 1.65325 2.00562 2.78807 3.7293 2.788h3.611l1.0025e-07-4.16158e-09c1.37952-.0572667 2.45142-1.22202 2.39416-2.60154 -.0520596-1.25409-1.02594-2.27516-2.27616-2.38646Z"></path><path stroke="#323232" stroke-linecap="round" stroke-linejoin="round" stroke-width="1.5" d="M19.012 6.262l-1.275-1.275"></path><line x1="21" x2="19.01" y1="4.27" y2="6.26" stroke="#323232" stroke-linecap="round" stroke-linejoin="round" stroke-width="1.5"></line></g></svg>