<?xml version="1.0" encoding="UTF-8"?><svg version="1.1" viewBox="0 0 24 24" xmlns="http://www.w3.org/2000/svg" xmlns:xlink="http://www.w3.org/1999/xlink"><!--Generated by IJSVG (https://github.com/iconjar/IJSVG)--><g fill="none"><path d="M0,0h24v24h-24v-24Z"></path><path stroke="#323232" stroke-linecap="round" stroke-linejoin="round" stroke-width="1.5" d="M16,19.5h2"></path><path stroke="#323232" stroke-linecap="round" stroke-linejoin="round" stroke-width="1.5" d="M19,22h-4c-1.105,0 -2,-0.895 -2,-2v-7c0,-1.105 0.895,-2 2,-2h4c1.105,0 2,0.895 2,2v7c0,1.105 -0.895,2 -2,2Z"></path><path stroke="#323232" stroke-linecap="round" stroke-linejoin="round" stroke-width="1.5" d="M9,21h-4.286c-0.946,0 -1.714,-0.768 -1.714,-1.714v-4.286"></path><path stroke="#323232" stroke-linecap="round" stroke-linejoin="round" stroke-width="1.5" d="M16,3h3.286c0.946,0 1.714,0.768 1.714,1.714v3.286"></path><path stroke="#323232" stroke-linecap="round" stroke-linejoin="round" stroke-width="1.5" d="M4.162,4.035c-1.219,0.166 -2.162,1.2 -2.162,2.465c0,1.38 1.12,2.5 2.5,2.5h5.499c1.105,0 2,-0.895 2,-2c0,-1.105 -0.895,-2 -2,-2c0,-1.657 -1.343,-3 -3,-3c-1.317,0 -2.435,0.852 -2.837,2.035Z"></path></g></svg>