<svg id="Layer_3" data-name="Layer 3" xmlns="http://www.w3.org/2000/svg" viewBox="0 0 24 24"><path d="M0,0H24V24H0Z" fill="none"/><line x1="9" y1="15" x2="14.5" y2="15" fill="none" stroke="#323232" stroke-linecap="round" stroke-linejoin="round" stroke-width="1.5"/><path d="M14.5,15A2.5,2.5,0,0,0,17,12.5" fill="none" stroke="#323232" stroke-linecap="round" stroke-linejoin="round" stroke-width="1.5"/><path d="M9,11a2,2,0,0,0,0,4" fill="none" stroke="#323232" stroke-linecap="round" stroke-linejoin="round" stroke-width="1.5"/><path d="M12,8a3,3,0,0,0-3,3" fill="none" stroke="#323232" stroke-linecap="round" stroke-linejoin="round" stroke-width="1.5"/><path d="M14.82648,10.0329A2.49211,2.49211,0,0,1,17,12.5" fill="none" stroke="#323232" stroke-linecap="round" stroke-linejoin="round" stroke-width="1.5"/><path d="M12,8a2.99036,2.99036,0,0,1,2.82648,2.0329" fill="none" stroke="#323232" stroke-linecap="round" stroke-linejoin="round" stroke-width="1.5"/><path d="M6.82843,19.82843,4.17157,17.17157A4,4,0,0,1,3,14.34315V9.65785A4,4,0,0,1,4.17157,6.82943L6.82943,4.17157A4,4,0,0,1,9.65785,3h4.6843a4,4,0,0,1,2.82842,1.17157l2.65786,2.65786A4,4,0,0,1,21,9.65785v4.68539a4,4,0,0,1-1.17114,2.828L17.17292,19.828A4,4,0,0,1,14.34405,21H9.65685A4,4,0,0,1,6.82843,19.82843Z" fill="none" stroke="#323232" stroke-linecap="round" stroke-linejoin="round" stroke-width="1.5"/></svg>