<?xml version="1.0" encoding="UTF-8"?><svg version="1.1" viewBox="0 0 24 24" xmlns="http://www.w3.org/2000/svg" xmlns:xlink="http://www.w3.org/1999/xlink"><!--Generated by IJSVG (https://github.com/iconjar/IJSVG)--><g stroke-linecap="round" stroke-width="1.5" stroke="#323232" fill="none" stroke-linejoin="round"><path d="M17.233,6.689c-0.58,0 -1.125,0.116 -1.602,0.347c-0.358,-2.283 -2.404,-4.036 -4.858,-4.036c-2.676,0 -4.858,2.084 -4.926,4.665c-1.603,0.198 -2.847,1.521 -2.847,3.159c0,1.753 1.466,3.176 3.273,3.176h10.96c2.08,0 3.767,-1.638 3.767,-3.656c0,-2.018 -1.687,-3.655 -3.767,-3.655Z"></path><path d="M6.75,17l-1,2"></path><path d="M14.75,17l-1,2"></path><path d="M10.75,18l-1,2"></path><path d="M18.25,18l-0.5,1"></path></g><path fill="none" d="M0,0h24v24h-24Z"></path></svg>