<?xml version="1.0" encoding="UTF-8"?><svg version="1.1" viewBox="0 0 24 24" xmlns="http://www.w3.org/2000/svg" xmlns:xlink="http://www.w3.org/1999/xlink"><!--Generated by IJSVG (https://github.com/iconjar/IJSVG)--><g stroke-linecap="round" stroke-width="1.5" stroke="#323232" fill="none" stroke-linejoin="round"><path d="M2.511,15.5l1.5,-1.5l1.5,1.5"></path><path d="M21.5,7.5l-1.5,1.5l-1.5,-1.5"></path><path d="M20,9v-4c0,-1.105 -0.895,-2 -2,-2h-3"></path><path d="M4.011,14v5c0,1.1 0.9,2 2,2h2.989"></path><path d="M7,3c-1.657,0 -3,1.343 -3,3c-1.105,0 -2,0.895 -2,2c0,1.105 0.895,2 2,2h5.5c1.381,0 2.5,-1.12 2.5,-2.5c0,-1.265 -0.943,-2.3 -2.162,-2.466c-0.402,-1.183 -1.52,-2.034 -2.838,-2.034Z"></path><path d="M13.1,14.762v5.133c0,0.61 0.495,1.105 1.105,1.105h5.585c0.61,0 1.105,-0.495 1.105,-1.105v-5.145"></path><path d="M12.053,15.474l4.872,-3.316l5.075,3.316"></path></g><path fill="none" d="M0,0h24v24h-24Z"></path></svg>