<svg id="Layer_3" data-name="Layer 3" xmlns="http://www.w3.org/2000/svg" viewBox="0 0 24 24"><path d="M18.5,14H5.5A1.5,1.5,0,0,1,4,12.5V5A2,2,0,0,1,6,3h5" fill="none" stroke="#323232" stroke-linecap="round" stroke-linejoin="round" stroke-width="1.5"/><path d="M18.99906,21H5.00094a1.99972,1.99972,0,0,1-1.92281-2.549l1.06431-3.72568A1,1,0,0,1,5.104,14H18.896a1,1,0,0,1,.96153.72532L20.92187,18.451A1.99972,1.99972,0,0,1,18.99906,21Z" fill="none" stroke="#323232" stroke-linecap="round" stroke-linejoin="round" stroke-width="1.5"/><line x1="10" y1="18" x2="14" y2="18" fill="none" stroke="#323232" stroke-linecap="round" stroke-linejoin="round" stroke-width="1.5"/><path d="M22,7.5A2.5,2.5,0,0,1,19.5,10H14a2,2,0,0,1,0-4,2.99222,2.99222,0,0,1,5.82648-.9671A2.49211,2.49211,0,0,1,22,7.5Z" fill="none" stroke="#323232" stroke-linecap="round" stroke-linejoin="round" stroke-width="1.5"/><path d="M0,0H24V24H0Z" fill="none"/></svg>