<?xml version="1.0" encoding="UTF-8"?><svg version="1.1" viewBox="0 0 24 24" xmlns="http://www.w3.org/2000/svg" xmlns:xlink="http://www.w3.org/1999/xlink"><!--Generated by IJSVG (https://github.com/iconjar/IJSVG)--><g fill="none"><path d="M24,0.007v24h-24v-24h24Z"></path><path d="M0,0.007v24h24v-24h-24Z"></path><path stroke="#323232" stroke-linecap="round" stroke-linejoin="round" stroke-width="1.5" d="M18.763,17.932c-1.283,1.463 -3.028,2.51 -5.013,2.902"></path><path stroke="#323232" stroke-linecap="round" stroke-linejoin="round" stroke-width="1.5" d="M5.237,6.082c1.283,-1.463 3.028,-2.51 5.013,-2.902"></path><path stroke="#323232" stroke-linecap="round" stroke-linejoin="round" stroke-width="1.5" d="M3.485,14.903c-0.31,-0.91 -0.485,-1.882 -0.485,-2.896c0,-1.014 0.175,-1.986 0.485,-2.896"></path><path stroke="#323232" stroke-linecap="round" stroke-linejoin="round" stroke-width="1.5" d="M20.515,14.903c0.31,-0.91 0.485,-1.882 0.485,-2.896c0,-1.014 -0.175,-1.986 -0.485,-2.896"></path><path stroke="#323232" stroke-linecap="round" stroke-linejoin="round" stroke-width="1.5" d="M9.162,10.305c-1.22,0.166 -2.162,1.201 -2.162,2.466c0,1.381 1.12,2.5 2.5,2.5h5.5c1.105,0 2,-0.895 2,-2c0,-1.105 -0.895,-2 -2,-2c0,-1.657 -1.343,-3 -3,-3c-1.318,0 -2.436,0.852 -2.838,2.034Z"></path><path stroke="#323232" stroke-linecap="round" stroke-linejoin="round" stroke-width="1.5" d="M5.237,17.932c1.283,1.463 3.028,2.51 5.013,2.902"></path><path stroke="#323232" stroke-linecap="round" stroke-linejoin="round" stroke-width="1.5" d="M13.75,3.18c1.985,0.391 3.729,1.438 5.013,2.902"></path></g></svg>