<?xml version="1.0" encoding="UTF-8"?><svg version="1.1" viewBox="0 0 24 24" xmlns="http://www.w3.org/2000/svg" xmlns:xlink="http://www.w3.org/1999/xlink"><!--Generated by IJSVG (https://github.com/iconjar/IJSVG)--><g stroke-linecap="round" stroke-width="1.5" stroke="#323232" fill="none" stroke-linejoin="round"><path d="M8.384,14.387c0.515,0 1,0.106 1.424,0.319c0.318,-2.096 2.137,-3.706 4.318,-3.706c2.379,0 4.318,1.914 4.379,4.283c1.424,0.182 2.53,1.397 2.53,2.901c0,1.61 -1.303,2.916 -2.909,2.916h-9.742c-1.848,0 -3.348,-1.504 -3.348,-3.356c-8.88178e-16,-1.854 1.5,-3.357 3.348,-3.357Z"></path><path d="M10.96,2.8v-0.8"></path><path d="M16.06,4.91l0.56,-0.57"></path><path d="M2.96,10h0.8"></path><path d="M5.31,4.34l0.56,0.57"></path><path d="M13.793,7.172c-0.724,-0.724 -1.724,-1.172 -2.829,-1.172c-2.209,0 -4,1.791 -4,4"></path></g><path fill="none" d="M0,0h24v24h-24Z"></path></svg>