<?xml version="1.0" encoding="UTF-8"?><svg version="1.1" viewBox="0 0 24 24" xmlns="http://www.w3.org/2000/svg" xmlns:xlink="http://www.w3.org/1999/xlink"><!--Generated by IJSVG (https://github.com/iconjar/IJSVG)--><g fill="none"><path d="M0,0h24v24h-24v-24Z"></path><path stroke="#323232" stroke-linecap="round" stroke-linejoin="round" stroke-width="1.5" d="M6,19.5h2"></path><path stroke="#323232" stroke-linecap="round" stroke-linejoin="round" stroke-width="1.5" d="M9,22h-4c-1.105,0 -2,-0.895 -2,-2v-7c0,-1.105 0.895,-2 2,-2h4c1.105,0 2,0.895 2,2v7c0,1.105 -0.895,2 -2,2Z"></path><path stroke="#323232" stroke-linecap="round" stroke-linejoin="round" stroke-width="1.5" d="M15,17.767h2.667c1.841,0 3.333,-1.492 3.333,-3.333"></path><path stroke="#323232" stroke-linecap="round" stroke-linejoin="round" stroke-width="1.5" d="M16.667,19.434l-1.667,-1.667l1.667,-1.666"></path><path stroke="#323232" stroke-linecap="round" stroke-linejoin="round" stroke-width="1.5" d="M10,3.667h-2.667c-1.841,0 -3.333,1.492 -3.333,3.333"></path><path stroke="#323232" stroke-linecap="round" stroke-linejoin="round" stroke-width="1.5" d="M8.333,2l1.667,1.667l-1.667,1.666"></path><path stroke="#323232" stroke-linecap="round" stroke-linejoin="round" stroke-width="1.5" d="M14.162,5.034c-1.22,0.166 -2.162,1.201 -2.162,2.466c0,1.381 1.12,2.5 2.5,2.5h5.5c1.105,0 2,-0.895 2,-2c0,-1.105 -0.895,-2 -2,-2c0,-1.657 -1.343,-3 -3,-3c-1.318,-0.001 -2.436,0.851 -2.838,2.034Z"></path></g></svg>