<?xml version="1.0" encoding="UTF-8"?><svg version="1.1" viewBox="0 0 24 24" xmlns="http://www.w3.org/2000/svg" xmlns:xlink="http://www.w3.org/1999/xlink"><!--Generated by IJSVG (https://github.com/iconjar/IJSVG)--><g stroke-linecap="round" stroke-width="1.5" stroke="#323232" fill="none" stroke-linejoin="round"><path d="M13.723,17v-1.277c0,-0.904 -0.771,-1.723 -1.723,-1.723c-0.952,0 -1.723,0.771 -1.723,1.723v1.277"></path><path d="M14.026,21h-4.052c-0.538,0 -0.974,-0.436 -0.974,-0.974v-2.052c0,-0.538 0.436,-0.974 0.974,-0.974h4.052c0.538,0 0.974,0.436 0.974,0.974v2.052c0,0.538 -0.436,0.974 -0.974,0.974Z"></path><path d="M19,17c1.731,-0.522 3,-2.109 3,-4.009c0,-2.323 -1.885,-4.207 -4.211,-4.207c0,-3.194 -2.592,-5.784 -5.789,-5.784c-3.197,0 -5.789,2.59 -5.789,5.784c-2.326,0 -4.211,1.884 -4.211,4.207c0,1.9 1.269,3.487 3,4.009"></path></g><path fill="none" d="M0,0h24v24h-24Z"></path></svg>