<?xml version="1.0" encoding="UTF-8"?><svg version="1.1" viewBox="0 0 24 24" xmlns="http://www.w3.org/2000/svg" xmlns:xlink="http://www.w3.org/1999/xlink"><!--Generated by IJSVG (https://github.com/iconjar/IJSVG)--><g fill="none"><path d="M0,0h24v24h-24v-24Z"></path><path stroke="#323232" stroke-linecap="round" stroke-linejoin="round" stroke-width="1.5" d="M15,3h4.286c0.946,0 1.714,0.768 1.714,1.714v3.286"></path><path stroke="#323232" stroke-linecap="round" stroke-linejoin="round" stroke-width="1.5" d="M9,21h-4.286c-0.946,0 -1.714,-0.768 -1.714,-1.714v-3.286"></path><path stroke="#323232" stroke-linecap="round" stroke-linejoin="round" stroke-width="1.5" d="M19.667,14.47h-2.814c-0.221,0 -0.427,-0.109 -0.551,-0.292l-0.604,-0.887c-0.124,-0.182 -0.33,-0.291 -0.551,-0.291h-1.814c-0.736,0 -1.333,0.597 -1.333,1.333v5.333c0,0.737 0.597,1.334 1.333,1.334h6.333c0.737,0 1.334,-0.597 1.334,-1.333v-3.864c0,-0.736 -0.597,-1.333 -1.333,-1.333Z"></path><path stroke="#323232" stroke-linecap="round" stroke-linejoin="round" stroke-width="1.5" d="M5.162,5.035c-1.219,0.166 -2.162,1.2 -2.162,2.465c0,1.381 1.12,2.5 2.5,2.5h5.5c1.105,0 2,-0.895 2,-2c0,-1.105 -0.895,-2 -2,-2c0,-1.657 -1.343,-3 -3,-3c-1.318,0 -2.436,0.852 -2.838,2.035Z"></path></g></svg>