<?xml version="1.0" encoding="UTF-8"?><svg version="1.1" viewBox="0 0 24 24" xmlns="http://www.w3.org/2000/svg" xmlns:xlink="http://www.w3.org/1999/xlink"><defs><path d="M14.0437 9.66165l7.45864e-08-2.64907e-07c.215307-.764701-.0615741-1.5831-.69694-2.06l5.85399e-08 6.10329e-08c-.368656-.384355-.878325-.60143-1.4109-.60092l-7.85526e-08 1.28293e-09c-1.15762.0189064-2.08073.972671-2.06183 2.13029 .0029313.179481.028903.357843.0772775.530707l-1.11332e-07-3.79739e-09c-1.16955-.039892-2.15.875877-2.18989 2.04543 -.039892 1.16955.875877 2.15 2.04543 2.18989 .820823.0279973 1.58389-.420867 1.95823-1.1519l8.47225e-09-1.71411e-08c.0634815-.128436.219062-.181093.347498-.117611 .0533883.0263879.0960714.0703418.120882.124481l9.70462e-08 1.88286e-07c.537229 1.04231 1.8177 1.45176 2.86001.914534 .118366-.0610084.230731-.133017.335608-.215074l1.58887e-07-1.23508e-07c.923839-.718133 1.0906-2.04921.372464-2.97305 -.419772-.540014-1.07442-.844164-1.75784-.816696Z" id="a"></path><path d="M18.364 5.636l-2.46375e-07-2.46375e-07c3.51472 3.51472 3.51472 9.2132 2.55411e-06 12.7279 -3.51472 3.51472-9.2132 3.51472-12.7279 2.55411e-06 -3.51472-3.51472-3.51472-9.2132-2.55411e-06-12.7279 6.86377e-07-6.86377e-07 1.37498e-06-1.37498e-06 2.06136e-06-2.06136e-06l4.48663e-07-4.48663e-07c3.51472-3.51472 9.2132-3.51472 12.7279 8.97326e-07" id="b"></path></defs><use xlink:href="#a" stroke-linecap="round" stroke-width="1.5" stroke="#323232" fill="none" stroke-linejoin="round"></use><rect width="24" height="24" fill="none"></rect><g stroke-linecap="round" stroke-width="1.5" stroke="#323232" fill="none" stroke-linejoin="round"><line x1="13.74" x2="10.25" y1="16" y2="16"></line><line x1="12" x2="12" y1="12.6" y2="16"></line><use xlink:href="#b"></use><use xlink:href="#b"></use><use xlink:href="#a"></use></g></svg>