<?xml version="1.0" encoding="UTF-8"?><svg version="1.1" viewBox="0 0 24 24" xmlns="http://www.w3.org/2000/svg" xmlns:xlink="http://www.w3.org/1999/xlink"><g stroke-linecap="round" stroke-width="1.5" stroke="#323232" fill="none" stroke-linejoin="round"><path d="M9 9h-3c-1.657 0-3-1.343-3-3v0c0-1.657 1.343-3 3-3v0c1.657 0 3 1.343 3 3v3Z"></path><path d="M9 9h6v6h-6Z"></path><path d="M6 21v0c-1.657 0-3-1.343-3-3v0c0-1.657 1.343-3 3-3h3v3c0 1.657-1.343 3-3 3Z"></path><path d="M15 15h3c1.657 0 3 1.343 3 3v0c0 1.657-1.343 3-3 3v0c-1.657 0-3-1.343-3-3v-3Z"></path><path d="M18 3v0c1.657 0 3 1.343 3 3v0c0 1.657-1.343 3-3 3h-3v-3c0-1.657 1.343-3 3-3Z"></path></g><path fill="none" d="M0 0h24v24h-24Z"></path></svg>