<svg viewBox="0 0 24 24" xmlns="http://www.w3.org/2000/svg"><g fill="none"><path d="M0 0h24v24H0Z"/><g stroke-linecap="round" stroke-width="1.5" stroke="#323232" fill="none" stroke-linejoin="round"><path d="M20 20.83l-2.26-2.26"/><path d="M6.26 18.57L4 20.83"/><path d="M8.939 5.611l0-.01c4.08-1.7 8.76.24 10.45 4.32 1.69 4.08-.25 8.76-4.33 10.45 -4.09 1.69-8.77-.25-10.46-4.33 -.01-.01-.01-.01-.01-.01l-.01-.01 -.01-.01c-1.69-4.09.24-8.76 4.32-10.46"/><path d="M7.51 3.1l-.01-.01c-1.87-.55-3.82.51-4.37 2.37 -.15.48-.18.98-.11 1.48"/><path d="M16.5 3.1l0-.01c1.86-.55 3.81.51 4.36 2.37 .14.48.17.98.1 1.48"/><path d="M11.46 13.54l0-4.98"/><path d="M15.6 13.54l-4.14 0"/></g></g></svg>