<?xml version="1.0" encoding="UTF-8"?><svg version="1.1" viewBox="0 0 24 24" xmlns="http://www.w3.org/2000/svg" xmlns:xlink="http://www.w3.org/1999/xlink"><g stroke-linecap="round" stroke-width="1.5" stroke="#323232" fill="none" stroke-linejoin="round"><path d="M15.944 16.667l2.167-2.167 -2.167-2.167"></path><path d="M13.056 12.333l-2.167 2.167 2.167 2.167"></path><path d="M5.167 16c-1.197 0-2.167-.97-2.167-2.167v-8.666c0-1.197.97-2.167 2.167-2.167h8.667c1.196 0 2.166.97 2.166 2.167"></path><path d="M18.833 21h-8.667c-1.196 0-2.166-.97-2.166-2.167v-8.667c0-1.196.97-2.166 2.167-2.166h8.667c1.196 0 2.166.97 2.166 2.167v8.667c0 1.196-.97 2.166-2.167 2.166Z"></path></g><path fill="none" d="M0 0h24v24h-24v-24Z"></path></svg>