<svg id="Layer_3" data-name="Layer 3" xmlns="http://www.w3.org/2000/svg" viewBox="0 0 24 24"><path d="M5.14112,18.047l-1.55166-.51722A2.32454,2.32454,0,0,1,2,15.32456V15a2,2,0,0,1,2-2H6" fill="none" stroke="#323232" stroke-linecap="round" stroke-linejoin="round" stroke-width="1.5"/><path d="M14,14v3a4,4,0,0,1-4,4H9a4,4,0,0,1-4-4V14a1,1,0,0,1,1-1h7A1,1,0,0,1,14,14Z" fill="none" stroke="#323232" stroke-linecap="round" stroke-linejoin="round" stroke-width="1.5"/><path d="M8,10V5.47214a2,2,0,0,1,.21115-.89443l.23606-.47214A2,2,0,0,1,10.23607,3h9.52786a2,2,0,0,1,1.78886,1.10557l.23606.47214A2,2,0,0,1,22,5.47214V16.52786a2,2,0,0,1-.21115.89443l-.23606.47214A2,2,0,0,1,19.76393,19H17" fill="none" stroke="#323232" stroke-linecap="round" stroke-linejoin="round" stroke-width="1.5"/><path d="M8,6H22" fill="none" stroke="#323232" stroke-linecap="round" stroke-linejoin="round" stroke-width="1.5"/><line x1="22" y1="16" x2="17" y2="16" fill="none" stroke="#323232" stroke-linecap="round" stroke-linejoin="round" stroke-width="1.5"/><rect width="24" height="24" fill="none"/></svg>