<svg id="Layer_3" data-name="Layer 3" xmlns="http://www.w3.org/2000/svg" viewBox="0 0 24 24"><path d="M4,10.5H16a1,1,0,0,1,1,1v3a6,6,0,0,1-6,6H9a6,6,0,0,1-6-6v-3a1,1,0,0,1,1-1Z" fill="none" stroke="#323232" stroke-linecap="round" stroke-linejoin="round" stroke-width="1.5"/><path d="M13.5,7.5a1.81251,1.81251,0,0,1,0-2.5,1.81249,1.81249,0,0,0,0-2.5" fill="none" stroke="#323232" stroke-linecap="round" stroke-linejoin="round" stroke-width="1.5"/><path d="M10,7.5A1.81251,1.81251,0,0,1,10,5a1.81251,1.81251,0,0,0,0-2.5" fill="none" stroke="#323232" stroke-linecap="round" stroke-linejoin="round" stroke-width="1.5"/><path d="M6.5,7.5A1.81249,1.81249,0,0,1,6.5,5a1.81251,1.81251,0,0,0,0-2.5" fill="none" stroke="#323232" stroke-linecap="round" stroke-linejoin="round" stroke-width="1.5"/><path d="M16.1278,17.61494l1.84579-.42239A3.89534,3.89534,0,0,0,21,13.39536h0A2.89535,2.89535,0,0,0,18.10465,10.5H15.5" fill="none" stroke="#323232" stroke-linecap="round" stroke-linejoin="round" stroke-width="1.5"/><path d="M0,0H24V24H0Z" fill="none"/></svg>