<svg id="Layer_3" data-name="Layer 3" xmlns="http://www.w3.org/2000/svg" viewBox="0 0 24 24"><path d="M0,24V0H24V24Z" fill="none"/><path d="M11.0288,3A9.02735,9.02735,0,1,0,21,12.9712" fill="none" stroke="#323232" stroke-linecap="round" stroke-linejoin="round" stroke-width="1.5"/><line x1="12" y1="18" x2="12" y2="17" fill="none" stroke="#323232" stroke-linecap="round" stroke-linejoin="round" stroke-width="1.5"/><line x1="6" y1="12" x2="7" y2="12" fill="none" stroke="#323232" stroke-linecap="round" stroke-linejoin="round" stroke-width="1.5"/><line x1="16.24264" y1="16.24264" x2="15.53553" y2="15.53553" fill="none" stroke="#323232" stroke-linecap="round" stroke-linejoin="round" stroke-width="1.5"/><line x1="8.46447" y1="8.46447" x2="7.75736" y2="7.75736" fill="none" stroke="#323232" stroke-linecap="round" stroke-linejoin="round" stroke-width="1.5"/><line x1="7.75736" y1="16.24264" x2="8.46447" y2="15.53553" fill="none" stroke="#323232" stroke-linecap="round" stroke-linejoin="round" stroke-width="1.5"/><path d="M18.3658,2.6294,13.45,7.53854C11.7535,9.24728,12.83429,11.16125,12,12c.8421-.83652,2.7583.24426,4.46146-1.45l4.91583-4.90914-.00168-.00168a2.1318,2.1318,0,0,0-3.01482-3.01482" fill="none" stroke="#323232" stroke-linecap="round" stroke-linejoin="round" stroke-width="1.5"/><path d="M19.75,8.75l-4.5-4.5" fill="none" stroke="#323232" stroke-linecap="round" stroke-linejoin="round" stroke-width="1.5"/></svg>