<svg id="Layer_3" data-name="Layer 3" xmlns="http://www.w3.org/2000/svg" viewBox="0 0 24 24"><path d="M0,0H24V24H0Z" fill="none"/><rect x="3" y="6" width="18" height="15" rx="3" stroke-width="1.5" stroke="#323232" stroke-linecap="round" stroke-linejoin="round" fill="none"/><line x1="5.5" y1="3" x2="18.5" y2="3" fill="none" stroke="#323232" stroke-linecap="round" stroke-linejoin="round" stroke-width="1.5"/><path d="M11.21532,10.48788a.875.875,0,0,1,1.56936,0l.44519.90248a.87494.87494,0,0,0,.65883.47878l.99587.14475a.875.875,0,0,1,.48508,1.49221l-.72091.70316a.875.875,0,0,0-.25144.77429l.17011.99162a.875.875,0,0,1-1.26942.92243l-.89093-.46825a.875.875,0,0,0-.81412,0l-.89093.46825a.875.875,0,0,1-1.26942-.92243l.17011-.99162a.875.875,0,0,0-.25144-.77429l-.72091-.70316a.875.875,0,0,1,.48508-1.49221l.99587-.14475a.87494.87494,0,0,0,.65883-.47878Z" fill="none" stroke="#323232" stroke-linecap="round" stroke-linejoin="round" stroke-width="1.5"/></svg>