<svg id="Layer_3" data-name="Layer 3" xmlns="http://www.w3.org/2000/svg" viewBox="0 0 24 24"><path d="M14,14h1.5A1.5,1.5,0,0,1,17,15.5h0A1.5,1.5,0,0,1,15.5,17h0A1.5,1.5,0,0,1,14,15.5V12.65" fill="none" stroke="#323232" stroke-linecap="round" stroke-linejoin="round" stroke-width="1.5"/><path d="M10,10H8.5A1.5,1.5,0,0,1,7,8.5H7A1.5,1.5,0,0,1,8.5,7h0A1.5,1.5,0,0,1,10,8.5v2.85" fill="none" stroke="#323232" stroke-linecap="round" stroke-linejoin="round" stroke-width="1.5"/><path d="M14,10V8.5A1.5,1.5,0,0,1,15.5,7h0A1.5,1.5,0,0,1,17,8.5h0A1.5,1.5,0,0,1,15.5,10H12.65" fill="none" stroke="#323232" stroke-linecap="round" stroke-linejoin="round" stroke-width="1.5"/><path d="M10,14v1.5A1.5,1.5,0,0,1,8.5,17h0A1.5,1.5,0,0,1,7,15.5H7A1.5,1.5,0,0,1,8.5,14h2.85" fill="none" stroke="#323232" stroke-linecap="round" stroke-linejoin="round" stroke-width="1.5"/><circle cx="12" cy="12" r="9.5" fill="none" stroke="#323232" stroke-linecap="round" stroke-linejoin="round" stroke-width="1.5"/><path d="M24,24H0V0H24Z" fill="none"/></svg>