<svg id="Layer_3" data-name="Layer 3" xmlns="http://www.w3.org/2000/svg" viewBox="0 0 24 24"><line x1="15.5" y1="21.00001" x2="8.5" y2="21.00001" fill="none" stroke="#323232" stroke-linecap="round" stroke-linejoin="round" stroke-width="1.5"/><line x1="12" y1="17.00001" x2="12" y2="21.00001" fill="none" stroke="#323232" stroke-linecap="round" stroke-linejoin="round" stroke-width="1.5"/><path d="M19,10h1a1,1,0,0,1,1,1v2a2,2,0,0,1-2,2h-.5" fill="none" stroke="#323232" stroke-linecap="round" stroke-linejoin="round" stroke-width="1.5"/><path d="M5,10H4a1,1,0,0,0-1,1v2a2,2,0,0,0,2,2h.5" fill="none" stroke="#323232" stroke-linecap="round" stroke-linejoin="round" stroke-width="1.5"/><rect x="5.5" y="13.00001" width="13" height="4" rx="2" stroke-width="1.5" stroke="#323232" stroke-linecap="round" stroke-linejoin="round" fill="none"/><path d="M16.66705,13l-.24347-1.06237a4.99985,4.99985,0,0,1-.084-1.76612l.64318-4.91188A2,2,0,0,0,14.99969,3H9.00031a2,2,0,0,0-1.983,2.25964l.6432,4.91177a5.00019,5.00019,0,0,1-.084,1.76618L7.333,13" fill="none" stroke="#323232" stroke-linecap="round" stroke-linejoin="round" stroke-width="1.5"/><rect y="0.00001" width="24" height="24" fill="none"/></svg>