<svg id="Layer_3" data-name="Layer 3" xmlns="http://www.w3.org/2000/svg" viewBox="0 0 24 24"><rect width="24" height="24" fill="none"/><line x1="16" y1="15.5" x2="8" y2="15.5" fill="none" stroke="#323232" stroke-linecap="round" stroke-linejoin="round" stroke-width="1.5"/><rect x="4" y="1.5" width="16" height="11" rx="2" stroke-width="1.5" stroke="#323232" stroke-linecap="round" stroke-linejoin="round" fill="none"/><path d="M16,15.5h-.5A1.5,1.5,0,0,1,14,14V12.5" fill="none" stroke="#323232" stroke-linecap="round" stroke-linejoin="round" stroke-width="1.5"/><rect x="4" y="18" width="10" height="4" rx="1" stroke-width="1.5" stroke="#323232" stroke-linecap="round" stroke-linejoin="round" fill="none"/><path d="M18.25,18h.5A1.25,1.25,0,0,1,20,19.25V20.5A1.5,1.5,0,0,1,18.5,22h0A1.5,1.5,0,0,1,17,20.5V19.25A1.25,1.25,0,0,1,18.25,18Z" fill="none" stroke="#323232" stroke-linecap="round" stroke-linejoin="round" stroke-width="1.5"/><path d="M8,15.5h.5A1.5,1.5,0,0,0,10,14V12.5" fill="none" stroke="#323232" stroke-linecap="round" stroke-linejoin="round" stroke-width="1.5"/></svg>