<?xml version="1.0" encoding="UTF-8"?><svg version="1.1" viewBox="0 0 24 24" xmlns="http://www.w3.org/2000/svg" xmlns:xlink="http://www.w3.org/1999/xlink"><!--Generated by IJSVG (https://github.com/iconjar/IJSVG)--><g stroke-linecap="round" stroke-width="1.5" stroke="#323232" fill="none" stroke-linejoin="round"><path d="M20.999,16c0,1.105 -1.567,2 -3.5,2c-1.933,0 -3.499,-0.896 -3.499,-2"></path><path d="M14,13c0,1.105 1.567,2 3.5,2c1.933,0 3.5,-0.895 3.5,-2"></path><path d="M14,13c0.001,-1.104 1.568,-2 3.5,-2c1.932,0 3.5,0.895 3.499,2v6c0,1.105 -1.567,2 -3.5,2c-1.933,0 -3.499,-0.896 -3.499,-2v-6Z"></path><path d="M3,7.062v-3.937c0,-0.621 0.504,-1.125 1.125,-1.125h6.875c0.621,0 1.125,0.504 1.125,1.125v3.938c0,0.621 -0.504,1.125 -1.125,1.125h-6.875c-0.621,0 -1.125,-0.504 -1.125,-1.126Z"></path><path d="M10,20h-5.286c-0.946,0 -1.714,-0.768 -1.714,-1.714v-4.286"></path><path d="M16,3h3.286c0.946,0 1.714,0.768 1.714,1.714v3.286"></path><path d="M7.56,8.19v2.81"></path><path d="M5.56,11h4"></path></g><path fill="none" d="M0,0h24v24h-24v-24Z"></path></svg>