<?xml version="1.0" encoding="UTF-8"?><svg version="1.1" viewBox="0 0 24 24" xmlns="http://www.w3.org/2000/svg" xmlns:xlink="http://www.w3.org/1999/xlink"><g stroke-linecap="round" stroke-width="1.5" stroke="#323232" fill="none" stroke-linejoin="round"><path d="M7.9 15.507l1.14-5.682 1.76808e-08-8.81259e-08c.0794169-.395835.389064-.705088.785-.784l5.682-1.136 -4.25481e-08 8.47035e-09c.270828-.0539156.534084.121926.588.392754 .0128304.0644495.0128304.130796 1.69407e-08.195246l-1.136 5.682 1.68995e-08-8.43242e-08c-.079272.395548-.388452.704728-.784.784l-5.682 1.141 2.24948e-08-4.7796e-09c-.270112.0573924-.535608-.115051-.593-.385164 -.0145576-.068514-.0145576-.139322-9.55921e-09-.207836Z"></path><circle cx="12" cy="12" r="9"></circle></g><path fill="none" d="M0 0h24v24h-24Z"></path></svg>