<?xml version="1.0" encoding="UTF-8"?><svg version="1.1" viewBox="0 0 24 24" xmlns="http://www.w3.org/2000/svg" xmlns:xlink="http://www.w3.org/1999/xlink"><g fill="none"><path d="M0 0h24v24h-24Z"></path><line x1="4" x2="19" y1="5" y2="20" stroke="#323232" stroke-linecap="round" stroke-linejoin="round" stroke-width="1.5"></line><path stroke="#323232" stroke-linecap="round" stroke-linejoin="round" stroke-width="1.5" d="M15.289 12.089l.7-3.506 4.26539e-09-2.13419e-08c.0527125-.263747-.118365-.520288-.382111-.573 -.0630066-.0125925-.127882-.0125925-.190889 8.53078e-09l-3.506.7"></path><path stroke="#323232" stroke-linecap="round" stroke-linejoin="round" stroke-width="1.5" d="M9.077 10.077l-1.068 5.34 -9.63368e-10 4.80923e-09c-.0528281.263724.118136.520339.38186.573168 .0634223.0127045.12874.0126476.19214-.000167517l5.34-1.067"></path><rect width="18" height="18" x="3" y="3" rx="2.7614" ry="0" stroke="#323232" stroke-linecap="round" stroke-linejoin="round" stroke-width="1.5"></rect></g></svg>