<svg id="Layer_3" data-name="Layer 3" xmlns="http://www.w3.org/2000/svg" viewBox="0 0 24 24"><line x1="10.5" y1="10.00005" x2="10.5" y2="14" fill="none" stroke="#323232" stroke-linecap="round" stroke-linejoin="round" stroke-width="1.5"/><path d="M10.5,10.00005h2.03572a.96428.96428,0,0,1,.96428.96428v.48213a.96429.96429,0,0,1-.96429.96429H10.5a0,0,0,0,1,0,0v-2.4107A0,0,0,0,1,10.5,10.00005Z" fill="none" stroke="#323232" stroke-linecap="round" stroke-linejoin="round" stroke-width="1.5"/><path d="M8,10H5.96429A.96429.96429,0,0,0,5,10.96429v2.07142A.96429.96429,0,0,0,5.96429,14H8" fill="none" stroke="#323232" stroke-linecap="round" stroke-linejoin="round" stroke-width="1.5"/><path d="M19,10v3a1,1,0,0,1-1,1H17a1,1,0,0,1-1-1V10" fill="none" stroke="#323232" stroke-linecap="round" stroke-linejoin="round" stroke-width="1.5"/><rect x="2" y="2" width="20" height="20" rx="4.44444" stroke-width="1.5" stroke="#323232" stroke-linecap="round" stroke-linejoin="round" fill="none"/><path d="M0,0H24V24H0Z" fill="none"/></svg>