<?xml version="1.0" encoding="UTF-8"?><svg version="1.1" viewBox="0 0 24 24" xmlns="http://www.w3.org/2000/svg" xmlns:xlink="http://www.w3.org/1999/xlink"><defs><path d="M0 0h24v24h-24Z" id="a"></path></defs><g fill="none"><use xlink:href="#a"></use><path stroke="#323232" stroke-linecap="round" stroke-linejoin="round" stroke-width="1.5" d="M13 20.938l-5.12224e-08 6.3506e-09c-.331749.0411305-.665711.0618362-1 .062l-3.93403e-07-7.10543e-15c-4.97056-2.1727e-07-9-4.02944-9-9 2.1727e-07-4.97056 4.02944-9 9-9 4.97056 2.1727e-07 9 4.02944 9 9l6.63454e-09-1.35644e-05c-.000163227.334289-.0208684.668251-.0619983 1"></path><path stroke="#323232" stroke-linecap="round" stroke-linejoin="round" stroke-width="1.5" d="M13.58 15.042l-3.727.914 5.76596e-09-1.38581e-09c-.805489.193594-1.61541-.302445-1.809-1.10793 -.055377-.230408-.055377-.470658 1.85461e-08-.701066l.914-3.727 -9.2506e-08 3.74478e-07c.1781-.720974.741026-1.2839 1.462-1.462l3.727-.914 -1.33269e-07 3.20304e-08c.805489-.193594 1.61541.302445 1.809 1.10793 .055377.230408.055377.470658 4.2743e-08.701066l-.914 3.727 5.47585e-08-2.21671e-07c-.1781.720974-.741026 1.2839-1.462 1.462Z"></path><path stroke="#323232" stroke-linecap="round" stroke-linejoin="round" stroke-width="1.5" d="M19.487 17.012l-2.475 2.475"></path><path stroke="#323232" stroke-linecap="round" stroke-linejoin="round" stroke-width="1.5" d="M17.013 17.012l2.475 2.475"></path><path stroke="#323232" stroke-linecap="round" stroke-linejoin="round" stroke-width="1.5" d="M12 11.75l4.6214e-09-1.84848e-11c-.13807.000552282-.24955.112928-.248998.250998 .000552282.13807.112928.24955.250998.248998 .137679-.000550718.248999-.112316.249-.249996l7.21973e-09-1.78492e-06c.000555747-.137518-.110474-.249448-.247992-.250004 -.00100337-4.05488e-06-.00200675-2.04494e-06-.00301009 6.02972e-06"></path><use xlink:href="#a"></use></g></svg>