<?xml version="1.0" encoding="UTF-8"?><svg version="1.1" viewBox="0 0 24 24" xmlns="http://www.w3.org/2000/svg" xmlns:xlink="http://www.w3.org/1999/xlink"><g stroke-linecap="round" stroke-width="1.5" stroke="#323232" fill="none" stroke-linejoin="round"><path d="M7.904 15.507l1.136-5.682c.08-.396.389-.705.785-.784l5.682-1.136c.35-.07.658.238.588.588l-1.136 5.682c-.079.396-.389.705-.784.784l-5.682 1.136c-.35.071-.659-.238-.589-.588Z"></path><path d="M17 21h-10c-2.209 0-4-1.791-4-4v-10c0-2.209 1.791-4 4-4h10c2.209 0 4 1.791 4 4v10c0 2.209-1.791 4-4 4Z"></path></g><path fill="none" d="M0 0h24v24h-24v-24Z"></path></svg>