<?xml version="1.0" encoding="UTF-8"?><svg version="1.1" viewBox="0 0 24 24" xmlns="http://www.w3.org/2000/svg" xmlns:xlink="http://www.w3.org/1999/xlink"><g stroke-linecap="round" stroke-width="1.5" stroke="#323232" fill="none" stroke-linejoin="round"><path d="M15.276 17.447l.447-.894c.17-.339.516-.553.895-.553h4.382c.552 0 1 .448 1 1v2c0 1.105-.895 2-2 2h-16c-1.105 0-2-.895-2-2v-2c0-.552.448-1 1-1h4.382c.379 0 .725.214.894.553l.447.894c.17.339.516.553.895.553h4.764c.379 0 .725-.214.894-.553Z"></path><path d="M13.644 9.665v-1.134c0-.804-.684-1.531-1.53-1.531 -.846 0-1.531.685-1.531 1.531v1.134"></path><path d="M13.914 13.218h-3.599c-.478 0-.865-.387-.865-.865v-1.823c0-.478.387-.865.865-.865h3.599c.478 0 .865.387.865.865v1.823c0 .478-.388.865-.865.865Z"></path><path d="M21 16v-11c0-1.105-.895-2-2-2h-14c-1.105 0-2 .895-2 2v11"></path></g><path fill="none" d="M0 0h24v24h-24v-24Z"></path></svg>