<svg id="Layer_3" data-name="Layer 3" xmlns="http://www.w3.org/2000/svg" viewBox="0 0 24 24"><path d="M10.33722,3.1598a8.98546,8.98546,0,0,0-5.2218,3.04906" fill="none" stroke="#323232" stroke-linecap="round" stroke-linejoin="round" stroke-width="1.5"/><path d="M3.49319,9.08178A8.8707,8.8707,0,0,0,3.542,15.05155" fill="none" stroke="#323232" stroke-linecap="round" stroke-linejoin="round" stroke-width="1.5"/><path d="M5.2117,17.89711a8.97911,8.97911,0,0,0,5.12552,2.94309" fill="none" stroke="#323232" stroke-linecap="round" stroke-linejoin="round" stroke-width="1.5"/><path d="M13.66278,3.1598a8.98546,8.98546,0,0,1,5.2218,3.04906" fill="none" stroke="#323232" stroke-linecap="round" stroke-linejoin="round" stroke-width="1.5"/><path d="M20.50681,9.08178a8.8707,8.8707,0,0,1-.04879,5.96977" fill="none" stroke="#323232" stroke-linecap="round" stroke-linejoin="round" stroke-width="1.5"/><path d="M18.7883,17.89711a8.97911,8.97911,0,0,1-5.12552,2.94309" fill="none" stroke="#323232" stroke-linecap="round" stroke-linejoin="round" stroke-width="1.5"/><path d="M8.26623,15.10132l1.55066-4.652a1,1,0,0,1,.63245-.63245l4.652-1.55066a.5.5,0,0,1,.63245.63245l-1.55066,4.652a1,1,0,0,1-.63245.63245l-4.652,1.55066A.5.5,0,0,1,8.26623,15.10132Z" fill="none" stroke="#323232" stroke-linecap="round" stroke-linejoin="round" stroke-width="1.5"/><path d="M0,0H24V24H0Z" fill="none"/></svg>