<?xml version="1.0" encoding="UTF-8"?><svg version="1.1" viewBox="0 0 24 24" xmlns="http://www.w3.org/2000/svg" xmlns:xlink="http://www.w3.org/1999/xlink"><g stroke-linecap="round" stroke-width="1.5" stroke="#323232" fill="none" stroke-linejoin="round"><path d="M14.722 20.676l3.0874e-08-3.08833e-08c-.187493.187549-.441805.292943-.707.293h-2.015v-2.015l-2.28059e-08.000213418c4.00433e-08-.265195.10534-.51953.292849-.707063l6.769-6.774 -1.189e-07 1.18914e-07c.672054-.672131 1.76173-.672193 2.43386-.000138701 4.6157e-05 4.61517e-05 9.23114e-05 9.23061e-05.000138463.000138463v0l1.72633e-08 1.72412e-08c.672131.671273.672826 1.76032.00155313 2.43245 -.000517392.000518053-.00103512.00103578-.00155317.00155317Z"></path><path d="M16.564 13.978l2.43 2.43"></path><path d="M20.718 14.684l.9.9v0l2.99041e-08 2.99627e-08c.473756.474684.473756 1.24332-5.98081e-08 1.718l-1.641 1.641"></path><line x1="7" x2="13" y1="8.97" y2="8.97"></line><line x1="7" x2="11" y1="12.97" y2="12.97"></line><path d="M9 20.969h-3l-1.31134e-07-3.55271e-15c-1.65685-7.24234e-08-3-1.34315-3-3 0 0 0-3.55271e-15 0-3.55271e-15v-12l3.37508e-14 4.52987e-07c-2.50178e-07-1.65685 1.34315-3 3-3h12l-1.31134e-07 2.66454e-15c1.65685-7.24234e-08 3 1.34315 3 3v2"></path></g><path fill="none" d="M0 23.969v-24h24v24Z"></path></svg>