<svg xmlns="http://www.w3.org/2000/svg" viewBox="0 0 24 24"><g id="Layer_2" data-name="Layer 2"><path d="M9.49954,13.45a.04954.04954,0,0,0-.04954.04954h0V13.5a.05.05,0,1,0,.05-.05H9.49954" fill="none" stroke="#323232" stroke-linecap="round" stroke-linejoin="round" stroke-width="1.5"/><path d="M10,9.95a.04953.04953,0,0,0-.05.04906h0v.00141A.05.05,0,1,0,10,9.95" fill="none" stroke="#323232" stroke-linecap="round" stroke-linejoin="round" stroke-width="1.5"/><path d="M12.99958,14.45a.04958.04958,0,0,0-.04958.04958h0v.00052a.05.05,0,1,0,.05005-.05005" fill="none" stroke="#323232" stroke-linecap="round" stroke-linejoin="round" stroke-width="1.5"/><path d="M12,6a6,6,0,0,0,6,6,6,6,0,1,1-6-6Z" fill="none" stroke="#323232" stroke-linecap="round" stroke-linejoin="round" stroke-width="1.5"/><path d="M12.05,12.00007A.05.05,0,1,1,12.05,12v.00012" fill="none" stroke="#323232" stroke-linecap="round" stroke-linejoin="round" stroke-width="1.5"/><path d="M20.76929,10A9.02818,9.02818,0,1,1,14,3.23071" fill="none" stroke="#323232" stroke-linecap="round" stroke-linejoin="round" stroke-width="1.5"/><circle cx="18.5" cy="5.5" r="2" fill="none" stroke="#323232" stroke-linecap="round" stroke-linejoin="round" stroke-width="1.5"/><path d="M24,24H0V0H24Z" fill="none"/></g></svg>