<?xml version="1.0" encoding="UTF-8"?><svg version="1.1" viewBox="0 0 24 24" xmlns="http://www.w3.org/2000/svg" xmlns:xlink="http://www.w3.org/1999/xlink"><g stroke-linecap="round" stroke-width="1.5" stroke="#323232" fill="none" stroke-linejoin="round"><path d="M7.999 13.838l6.05031e-10 1.47082e-12c-.088161-.000214067-.159803.071081-.160017.159242 -2.2324e-06.00091939 3.4781e-06.00183878 1.71309e-05.00275807l-5.81694e-09-1.55552e-06c.00033363.0893312.0726672.161666.161998.162002l-4.63222e-09 2.85922e-11c.0894701-.000552282.161552-.0735299.161-.163 -.000552282-.0894701-.0735299-.161552-.163-.161"></path><path d="M8.999 8.838l6.05032e-10 1.47082e-12c-.088161-.000214067-.159803.071081-.160017.159242 -2.2324e-06.00091939 3.4781e-06.00183878 1.71309e-05.00275807l-5.81694e-09-1.55552e-06c.00033363.0893312.0726672.161666.161998.162002l-4.63222e-09 2.85922e-11c.0894701-.000552282.161552-.0735299.161-.163 -.000552282-.0894701-.0735299-.161552-.163-.161"></path><path d="M12.999 15.838l6.05032e-10 1.47082e-12c-.088161-.000214067-.159803.071081-.160017.159242 -2.2324e-06.00091939 3.4781e-06.00183878 1.71309e-05.00275807l-5.81694e-09-1.55552e-06c.00033363.0893312.0726672.161666.161998.162002l-4.63222e-09 2.85958e-11c.0894701-.000552282.161552-.0735299.161-.163 -.000552282-.0894701-.0735299-.161552-.163-.161"></path><path d="M11.999 11.838l6.05032e-10 1.47082e-12c-.088161-.000214067-.159803.071081-.160017.159242 -2.2324e-06.00091939 3.4781e-06.00183878 1.71309e-05.00275807l-5.81694e-09-1.55552e-06c.00033363.0893312.0726672.161666.161998.162002l-4.63222e-09 2.85922e-11c.0894701-.000552282.161552-.0735299.161-.163 -.000552282-.0894701-.0735299-.161552-.163-.161"></path><path d="M12 3l1.03029e-13 1.35896e-06c7.50534e-07 4.97056 4.02944 9 9 9v0c0 4.97056-4.02944 9-9 9 -4.97056 0-9-4.02944-9-9 0-4.97056 4.02944-9 9-9Z"></path></g><path fill="none" d="M0 0h24v24h-24Z"></path></svg>