<svg id="Layer_3" data-name="Layer 3" xmlns="http://www.w3.org/2000/svg" viewBox="0 0 24 24"><path d="M0,0H24V24H0Z" fill="none"/><path d="M18.06942,3.50281h0a1.71669,1.71669,0,0,1-2.42777,0h0a1.71668,1.71668,0,0,0-2.42776,0h0a1.71668,1.71668,0,0,1-2.42776,0h0a1.71668,1.71668,0,0,0-2.42776,0h0a1.71669,1.71669,0,0,1-2.42777,0h0a1.71669,1.71669,0,0,0-2.42777,0h0a1.71669,1.71669,0,0,0,0,2.42777h0a1.71669,1.71669,0,0,1,0,2.42777h0a1.71668,1.71668,0,0,0,0,2.42776h0a1.71668,1.71668,0,0,1,0,2.42776h0a1.71668,1.71668,0,0,0,0,2.42776h0a1.71669,1.71669,0,0,1,0,2.42777h0a1.71669,1.71669,0,0,0,0,2.42777h0a1.71669,1.71669,0,0,0,2.42777,0h0a1.71669,1.71669,0,0,1,2.42777,0h0a1.71668,1.71668,0,0,0,2.42776,0h0a1.71668,1.71668,0,0,1,2.42776,0h0a1.71668,1.71668,0,0,0,2.42776,0h0a1.71669,1.71669,0,0,1,2.42777,0h0a1.71669,1.71669,0,0,0,2.42777,0h0a1.71669,1.71669,0,0,0,0-2.42777h0a1.71669,1.71669,0,0,1,0-2.42777h0a1.71668,1.71668,0,0,0,0-2.42776h0a1.71668,1.71668,0,0,1,0-2.42776h0a1.71668,1.71668,0,0,0,0-2.42776h0a1.71669,1.71669,0,0,1,0-2.42777h0a1.71669,1.71669,0,0,0,0-2.42777h0A1.71669,1.71669,0,0,0,18.06942,3.50281Z" fill="none" stroke="#323232" stroke-linecap="round" stroke-linejoin="round" stroke-width="1.5"/><line x1="8" y1="8" x2="8" y2="8.5" fill="none" stroke="#323232" stroke-linecap="round" stroke-linejoin="round" stroke-width="1.5"/><line x1="8" y1="15.5" x2="8" y2="16" fill="none" stroke="#323232" stroke-linecap="round" stroke-linejoin="round" stroke-width="1.5"/><line x1="8" y1="11.75" x2="8" y2="12.25" fill="none" stroke="#323232" stroke-linecap="round" stroke-linejoin="round" stroke-width="1.5"/><line x1="12" y1="8" x2="12" y2="8.5" fill="none" stroke="#323232" stroke-linecap="round" stroke-linejoin="round" stroke-width="1.5"/><line x1="12" y1="15.5" x2="12" y2="16" fill="none" stroke="#323232" stroke-linecap="round" stroke-linejoin="round" stroke-width="1.5"/><line x1="12" y1="11.75" x2="12" y2="12.25" fill="none" stroke="#323232" stroke-linecap="round" stroke-linejoin="round" stroke-width="1.5"/><line x1="16" y1="8" x2="16" y2="8.5" fill="none" stroke="#323232" stroke-linecap="round" stroke-linejoin="round" stroke-width="1.5"/><line x1="16" y1="15.5" x2="16" y2="16" fill="none" stroke="#323232" stroke-linecap="round" stroke-linejoin="round" stroke-width="1.5"/><line x1="16" y1="11.75" x2="16" y2="12.25" fill="none" stroke="#323232" stroke-linecap="round" stroke-linejoin="round" stroke-width="1.5"/></svg>