<svg id="Layer_3" data-name="Layer 3" xmlns="http://www.w3.org/2000/svg" viewBox="0 0 24 24"><path d="M7.757,16.243l-.00072-.00072A6,6,0,1,1,7.757,16.243" fill="none" stroke="#323232" stroke-linecap="round" stroke-linejoin="round" stroke-width="1.5"/><circle cx="12" cy="12" r="2" fill="none" stroke="#323232" stroke-linecap="round" stroke-linejoin="round" stroke-width="1.5"/><line x1="14" y1="12" x2="14" y2="17.65321" fill="none" stroke="#323232" stroke-linecap="round" stroke-linejoin="round" stroke-width="1.5"/><line x1="10" y1="12" x2="10" y2="6.34362" fill="none" stroke="#323232" stroke-linecap="round" stroke-linejoin="round" stroke-width="1.5"/><line x1="13.00098" y1="10.26647" x2="17.8968" y2="13.09308" fill="none" stroke="#323232" stroke-linecap="round" stroke-linejoin="round" stroke-width="1.5"/><line x1="11.00098" y1="13.73057" x2="6.10241" y2="10.90238" fill="none" stroke="#323232" stroke-linecap="round" stroke-linejoin="round" stroke-width="1.5"/><line x1="11.00018" y1="10.26489" x2="15.89601" y2="7.43828" fill="none" stroke="#323232" stroke-linecap="round" stroke-linejoin="round" stroke-width="1.5"/><line x1="13.00018" y1="13.72899" x2="8.10161" y2="16.55718" fill="none" stroke="#323232" stroke-linecap="round" stroke-linejoin="round" stroke-width="1.5"/><path d="M6.04546,18.04547A.04546.04546,0,1,0,6,18.09092H6a.045.045,0,0,0,.04545-.04455v-.0009" fill="none" stroke="#323232" stroke-linecap="round" stroke-linejoin="round" stroke-width="1.5"/><path d="M17.95454,6.04545A.04546.04546,0,1,0,18,6h0a.045.045,0,0,0-.04545.04455v.0009" fill="none" stroke="#323232" stroke-linecap="round" stroke-linejoin="round" stroke-width="1.5"/><path d="M18,18a.04546.04546,0,1,0,.04545.04547v0A.045.045,0,0,0,18.00091,18H18" fill="none" stroke="#323232" stroke-linecap="round" stroke-linejoin="round" stroke-width="1.5"/><path d="M6,6.09092a.04546.04546,0,1,0-.04545-.04547v0a.045.045,0,0,0,.04455.04545H6" fill="none" stroke="#323232" stroke-linecap="round" stroke-linejoin="round" stroke-width="1.5"/><rect x="3" y="3" width="18" height="18" rx="4" stroke-width="1.5" stroke="#323232" stroke-linecap="round" stroke-linejoin="round" fill="none"/><path d="M0,0H24V24H0Z" fill="none"/></svg>