<?xml version="1.0" encoding="UTF-8"?><svg version="1.1" viewBox="0 0 24 24" xmlns="http://www.w3.org/2000/svg" xmlns:xlink="http://www.w3.org/1999/xlink"><g stroke-linecap="round" stroke-width="1.5" stroke="#323232" fill="none" stroke-linejoin="round"><path d="M12 10l-1.11451e-08-2.29452e-05c-.000716283-1.46695-.718212-2.84098-1.92159-3.67992"></path><path d="M12 14l1.09535e-08 2.25528e-05c.000716155 1.46695.718212 2.84098 1.92159 3.67992"></path><path d="M6.11658 10.8256l-1.44719e-07 6.79845e-08c1.32903-.624338 2.87939-.559192 4.15136.17444"></path><path d="M17.8834 13.1744l7.50382e-08-3.52492e-08c-1.32903.624314-2.87939.559168-4.15136-.17444"></path><path d="M8.04224 16.5015l-7.91884e-08 9.21306e-07c.125543-1.46062.956483-2.76787 2.2257-3.50153"></path><path d="M15.9578 7.49841l1.52313e-07-1.77191e-06c-.125556 1.46063-.956489 2.7679-2.2257 3.50159"></path><circle cx="12" cy="12" r="2"></circle><rect width="18" height="18" x="3" y="3" rx="2.20912" ry="0"></rect><circle cx="12" cy="12" r="6"></circle><path d="M6 6.05l-1.61085e-09-3.54383e-13c.0251069 5.52313e-06.0454645-.0203431.04547-.04545 5.52313e-06-.0251069-.0203431-.0454645-.04545-.04547 -.0251069-5.52313e-06-.0454645.0203431-.04547.04545 -1.4664e-09 6.66593e-06-1.46664e-09 1.33319e-05-7.08766e-13 1.99978e-05l-9.8233e-10 9.77446e-08c-.00024973.0248516.019694.0452002.0445456.0454499 .000301508 3.02982e-06.000603039 3.02917e-06.000904547-1.94884e-09"></path><rect width="18" height="18" x="3" y="3" rx="2.20912" ry="0"></rect><path d="M6.05 18l1.09963e-09-9.9989e-06c0-.0251069-.0203531-.04546-.04546-.04546 -.0251069 0-.04546.0203531-.04546.04546 0 .0251069.0203531.04546.04546.04546 6.66593e-06 0 1.33319e-05-1.46617e-09 1.99978e-05-4.3985e-09l-2.10842e-09-2.07194e-11c.0248516.000244262.0451958-.0197039.0454401-.0445556 2.93037e-06-.000298141 2.89759e-06-.000596303-9.83242e-08-.000894443"></path><path d="M17.95 6l-1.09963e-09 9.99204e-06c-3.79103e-09.0251069.0203531.04546.04546.04546 .0251069 3.79103e-09.04546-.0203531.04546-.04546 3.79103e-09-.0251069-.0203531-.04546-.04546-.04546 -6.66593e-06-1.00631e-12-1.33319e-05 1.46416e-09-1.99978e-05 4.39548e-09l2.03793e-09 2.00311e-11c-.0248516-.000244266-.0451958.0197039-.0454401.0445555 -2.93044e-06.000298143-2.89768e-06.000596308 9.82588e-08.00089445"></path><path d="M18 17.95l-2.36339e-09-5.18696e-13c-.0251069-5.52093e-06-.0454645.0203431-.04547.04545 -5.52093e-06.0251069.0203431.0454645.04545.04547 .0251069 5.52093e-06.0454645-.0203431.04547-.04545 1.46582e-09-6.66593e-06 1.46548e-09-1.33319e-05-1.03739e-12-1.99978e-05l9.88337e-10-9.83433e-08c.000249728-.0248516-.019694-.0452002-.0445456-.0454499 -.000301507-3.02977e-06-.000603036-3.02911e-06-.000904543 2.00041e-09"></path></g><rect width="24" height="24" fill="none"></rect></svg>