<?xml version="1.0" encoding="UTF-8"?><svg version="1.1" viewBox="0 0 24 24" xmlns="http://www.w3.org/2000/svg" xmlns:xlink="http://www.w3.org/1999/xlink"><defs><path d="M7 21v0l-1.74846e-07-3.55271e-15c-2.20914-9.65645e-08-4-1.79086-4-4 0 0 0 0 0 0h-3.9968e-15" id="b"></path><path d="M0 0h24v24h-24Z" id="a"></path></defs><g fill="none"><use xlink:href="#a"></use><use stroke="#323232" stroke-linecap="round" stroke-linejoin="round" stroke-width="1.5" xlink:href="#b"></use><path stroke="#323232" stroke-linecap="round" stroke-linejoin="round" stroke-width="1.5" d="M8.4 17.02h4.417 -4.37114e-08c.552285 2.41411e-08 1-.447715 1-1v-5.29 0c0-.552285-.447715-1-1-1h-4.417l-4.37114e-08 1.77636e-15c-.552285 2.41411e-08-1 .447715-1 1 0 0 0 0 0 0v5.291l-2.32921e-08-2.35688e-05c.000538911.551894.448082.999011.999976.999024Z"></path><path stroke="#323232" stroke-linecap="round" stroke-linejoin="round" stroke-width="1.5" d="M10.15 9.73v-1.75l1.06581e-14 1.50996e-07c-8.33927e-08-.552285.447715-1 1-1h4.45l-4.37114e-08 8.88178e-16c.552285-2.41411e-08 1 .447715 1 1 0 0 0 1.77636e-15 0 1.77636e-15v5.291 0c0 .552285-.447715 1-1 1h-1.784"></path><line x1="10" x2="14" y1="21" y2="21" stroke="#323232" stroke-linecap="round" stroke-linejoin="round" stroke-width="1.5"></line><line x1="10" x2="14" y1="3" y2="3" stroke="#323232" stroke-linecap="round" stroke-linejoin="round" stroke-width="1.5"></line><line x1="3" x2="3" y1="10" y2="14" stroke="#323232" stroke-linecap="round" stroke-linejoin="round" stroke-width="1.5"></line><line x1="21" x2="21" y1="10" y2="14" stroke="#323232" stroke-linecap="round" stroke-linejoin="round" stroke-width="1.5"></line><use stroke="#323232" stroke-linecap="round" stroke-linejoin="round" stroke-width="1.5" xlink:href="#b"></use><path stroke="#323232" stroke-linecap="round" stroke-linejoin="round" stroke-width="1.5" d="M17 3v0l-1.74846e-07 3.9968e-15c2.20914-9.65645e-08 4 1.79086 4 4v0"></path><path stroke="#323232" stroke-linecap="round" stroke-linejoin="round" stroke-width="1.5" d="M3 7v0l4.57412e-14 6.03983e-07c-3.33571e-07-2.20914 1.79086-4 4-4h6.03983e-07"></path><path stroke="#323232" stroke-linecap="round" stroke-linejoin="round" stroke-width="1.5" d="M21 17v0 0c0 2.20914-1.79086 4-4 4v0"></path><use xlink:href="#a"></use></g></svg>