<svg id="Layer_3" data-name="Layer 3" xmlns="http://www.w3.org/2000/svg" viewBox="0 0 24 24"><path d="M7,6v8a3,3,0,0,0,3,3h8a3,3,0,0,0,3-3V6a3,3,0,0,0-3-3H10A3,3,0,0,0,7,6Z" fill="none" stroke="#323232" stroke-linecap="round" stroke-linejoin="round" stroke-width="1.5"/><path d="M17,17v1a3,3,0,0,1-3,3H6a3,3,0,0,1-3-3V10A3,3,0,0,1,6,7H7" fill="none" stroke="#323232" stroke-linecap="round" stroke-linejoin="round" stroke-width="1.5"/><path d="M16,8.75l-2.49906,2.5L12,9.7503" fill="none" stroke="#323232" stroke-linecap="round" stroke-linejoin="round" stroke-width="1.5"/><path d="M0,24V0H24V24Z" fill="none"/></svg>