<?xml version="1.0" encoding="UTF-8"?><svg version="1.1" viewBox="0 0 24 24" xmlns="http://www.w3.org/2000/svg" xmlns:xlink="http://www.w3.org/1999/xlink"><g stroke-linecap="round" stroke-width="1.5" stroke="#323232" fill="none" stroke-linejoin="round"><path d="M8.4 17.02h4.417 -4.37114e-08c.552285 2.41411e-08 1-.447715 1-1v-5.29 0c0-.552285-.447715-1-1-1h-4.417l-4.37114e-08 1.77636e-15c-.552285 2.41411e-08-1 .447715-1 1 0 0 0 0 0 0v5.291l-2.32921e-08-2.35688e-05c.000538911.551894.448082.999011.999976.999024Z"></path><path d="M10.15 9.73v-1.75l1.06581e-14 1.50996e-07c-8.33927e-08-.552285.447715-1 1-1h4.45l-4.37114e-08 8.88178e-16c.552285-2.41411e-08 1 .447715 1 1 0 0 0 1.77636e-15 0 1.77636e-15v5.291 0c0 .552285-.447715 1-1 1h-1.784"></path><rect width="18" height="18" x="3" y="3" rx="2.7614" ry="0"></rect></g><path fill="none" d="M0 0h24v24h-24Z"></path></svg>