<svg id="Layer_3" data-name="Layer 3" xmlns="http://www.w3.org/2000/svg" viewBox="0 0 24 24"><path d="M0,0H24V24H0Z" fill="none"/><line x1="10" y1="12" x2="6.14589" y2="17.80292" fill="none" stroke="#323232" stroke-linecap="round" stroke-linejoin="round" stroke-width="1.5"/><path d="M9,3h6a0,0,0,0,1,0,0V5a1,1,0,0,1-1,1H10A1,1,0,0,1,9,5V3A0,0,0,0,1,9,3Z" fill="none" stroke="#323232" stroke-linecap="round" stroke-linejoin="round" stroke-width="1.5"/><path d="M3,15.108v4.16776A1.7242,1.7242,0,0,0,4.72421,21H9.874" fill="none" stroke="#323232" stroke-linecap="round" stroke-linejoin="round" stroke-width="1.5"/><path d="M3,6V5A2,2,0,0,1,5,3H19a2,2,0,0,1,2,2V19a2,2,0,0,1-2,2H16.59133" fill="none" stroke="#323232" stroke-linecap="round" stroke-linejoin="round" stroke-width="1.5"/><path d="M3,15.108l7.19805,6.16974A3,3,0,0,0,12.15042,22h3.28866a1.15,1.15,0,0,0,.85953-1.914L14,17.5v-1h2.06286A1.43714,1.43714,0,0,0,17.5,15.06286h0A1.43715,1.43715,0,0,0,16.42482,13.672L10,12,3,6" fill="none" stroke="#323232" stroke-linecap="round" stroke-linejoin="round" stroke-width="1.5"/></svg>