<svg viewBox="0 0 24 24" xmlns="http://www.w3.org/2000/svg"><path fill="none" stroke="#323232" stroke-linecap="round" stroke-linejoin="round" stroke-width="1.5" d="M12 3a9 9 0 1 0 0 18 9 9 0 1 0 0-18Z"/><g fill="none"><path d="M0 0h24v24H0Z"/><g stroke-linecap="round" stroke-width="1.5" stroke="#323232" fill="none" stroke-linejoin="round"><path d="M14.64 16.5h-5.3l0-.001c-.82 0-1.56-.5-1.86-1.26l-.4-1 0 0c-.42-1.03.08-2.19 1.11-2.6 .23-.1.48-.15.74-.15h6.09l-.01 0c1.1-.01 2 .89 2 1.99 0 .25-.05.5-.15.74l-.4 1 0-.01c-.31.75-1.04 1.25-1.86 1.25Z"/><path d="M10.5 11.5h-.44l0 0c-.87-.01-1.57-.7-1.57-1.57v0l-.01 0c0-.87.69-1.57 1.56-1.57h.43c1.38-.01 2.5-.84 2.5-1.88l-.01 0c1.38-.01 2.5 1.11 2.5 2.49 0 1.38-1.12 2.5-2.5 2.5"/></g></g></svg>