<?xml version="1.0" encoding="UTF-8"?><svg version="1.1" viewBox="0 0 24 24" xmlns="http://www.w3.org/2000/svg" xmlns:xlink="http://www.w3.org/1999/xlink"><g fill="none"><path d="M0 0h24v24h-24Z"></path><path stroke="#323232" stroke-linecap="round" stroke-linejoin="round" stroke-width="1.5" d="M14.889 8h-7.778l-9.22747e-08-3.55271e-15c-1.16587-5.09619e-08-2.111-.945127-2.111-2.111 0 0 0-8.88178e-16 0-8.88178e-16v-.778l2.4869e-14 3.18752e-07c-1.76042e-07-1.16587.945127-2.111 2.111-2.111h7.778l-2.51734e-08 3.9968e-15c1.16587-1.89945e-07 2.111.945127 2.111 2.111 1.77636e-14 1.07616e-07 2.4869e-14 2.11136e-07 2.84217e-14 3.18752e-07v.778 2.51734e-08c0 1.16587-.945127 2.111-2.111 2.111 0 0-2.51734e-08 0-2.51734e-08 0Z"></path><path stroke="#323232" stroke-linecap="round" stroke-linejoin="round" stroke-width="1.5" d="M13.535 20h-6.368l-1.38434e-07-3.55271e-15c-1.74909-7.6455e-08-3.167-1.41791-3.167-3.167v-5.667l3.10146e-08-9.38219e-05c.000603966-1.7487 1.4184-3.16596 3.16709-3.16591h7.667l1.38429e-07 4.78124e-11c1.74866.00060403 3.16591 1.41834 3.16591 3.167v2.959"></path><path stroke="#323232" stroke-linecap="round" stroke-linejoin="round" stroke-width="1.5" d="M17 22l-1.74846e-07-3.55271e-15c-2.20914-9.65645e-08-4-1.79086-4-4 9.65645e-08-2.20914 1.79086-4 4-4 2.20914 9.65645e-08 4 1.79086 4 4v0c0 2.20914-1.79086 4-4 4"></path><path stroke="#323232" stroke-linecap="round" stroke-linejoin="round" stroke-width="1.5" d="M18.422 17.289l-1.778 1.778 -1.066-1.067"></path><line x1="11" x2="11" y1="5.3" y2="5.81" stroke="#323232" stroke-linecap="round" stroke-linejoin="round" stroke-width="1.5"></line><line x1="8.25" x2="8.25" y1="5.3" y2="5.81" stroke="#323232" stroke-linecap="round" stroke-linejoin="round" stroke-width="1.5"></line><line x1="13.75" x2="13.75" y1="5.3" y2="5.81" stroke="#323232" stroke-linecap="round" stroke-linejoin="round" stroke-width="1.5"></line></g></svg>