<svg id="Layer_3" data-name="Layer 3" xmlns="http://www.w3.org/2000/svg" viewBox="0 0 24 24"><path d="M7.5,3H6A3,3,0,0,0,3,6V7.5" fill="none" stroke="#323232" stroke-linecap="round" stroke-linejoin="round" stroke-width="1.5"/><path d="M3,16.5V18a3,3,0,0,0,3,3H7.5" fill="none" stroke="#323232" stroke-linecap="round" stroke-linejoin="round" stroke-width="1.5"/><path d="M16.5,21H18a3,3,0,0,0,3-3V16.5" fill="none" stroke="#323232" stroke-linecap="round" stroke-linejoin="round" stroke-width="1.5"/><path d="M21,7.5V6a3,3,0,0,0-3-3H16.5" fill="none" stroke="#323232" stroke-linecap="round" stroke-linejoin="round" stroke-width="1.5"/><path d="M6,9.9v4.2a2.4,2.4,0,0,0,2.4,2.4h7.2A2.4,2.4,0,0,0,18,14.1V9.9a2.4,2.4,0,0,0-2.4-2.4H8.4A2.4,2.4,0,0,0,6,9.9Z" fill="none" stroke="#323232" stroke-linecap="round" stroke-linejoin="round" stroke-width="1.5"/><path d="M18,11.5H6" fill="none" stroke="#323232" stroke-linecap="round" stroke-linejoin="round" stroke-width="1.5"/><path id="a" d="M0,0H24V24H0Z" fill="none"/></svg>