<?xml version="1.0" encoding="UTF-8"?><svg version="1.1" viewBox="0 0 24 24" xmlns="http://www.w3.org/2000/svg" xmlns:xlink="http://www.w3.org/1999/xlink"><g fill="none"><path d="M0 0h24v24h-24v-24Z"></path><path stroke="#323232" stroke-linecap="round" stroke-linejoin="round" stroke-width="1.5" d="M3 7h18"></path><path stroke="#323232" stroke-linecap="round" stroke-linejoin="round" stroke-width="1.5" d="M9.57 11h-2.57"></path><path stroke="#323232" stroke-linecap="round" stroke-linejoin="round" stroke-width="1.5" d="M9 17h-3c-1.657 0-3-1.343-3-3v-8c0-1.657 1.343-3 3-3h12c1.657 0 3 1.343 3 3v4"></path><path stroke="#323232" stroke-linecap="round" stroke-linejoin="round" stroke-width="1.5" d="M13.561 18.306c-.32-.485-.32-1.125 0-1.61 .99-1.497 2.544-2.696 4.099-2.696 1.555 0 3.108 1.199 4.099 2.695 .321.485.321 1.126 0 1.61 -.992 1.496-2.545 2.695-4.099 2.695 -1.555.001-3.109-1.198-4.099-2.694Z"></path><path stroke="#323232" stroke-linecap="round" stroke-linejoin="round" stroke-width="1.5" d="M17.776 17.384c.065.065.065.169 0 .234 -.065.065-.169.065-.234 0 -.065-.065-.065-.169 0-.234 .065-.065.17-.065.234 0"></path></g></svg>