<svg id="Layer_3" data-name="Layer 3" xmlns="http://www.w3.org/2000/svg" viewBox="0 0 24 24"><path d="M0,0H24V24H0Z" fill="none"/><path d="M3,7H21" fill="none" stroke="#323232" stroke-linecap="round" stroke-linejoin="round" stroke-width="1.5"/><path d="M9,11H6.479" fill="none" stroke="#323232" stroke-linecap="round" stroke-linejoin="round" stroke-width="1.5"/><path d="M10,17H6a3,3,0,0,1-3-3V6A3,3,0,0,1,6,3H18a3,3,0,0,1,3,3V9" fill="none" stroke="#323232" stroke-linecap="round" stroke-linejoin="round" stroke-width="1.5"/><path d="M15.16274,16.64983l-1.90511,1.90906A.88839.88839,0,0,0,13,19.18274v.93479A.88247.88247,0,0,0,13.88246,21h.93874a.87657.87657,0,0,0,.62384-.25961l1.90115-1.90511a3.39565,3.39565,0,0,0,1.08285.19051,3.51315,3.51315,0,1,0-3.2663-2.376Z" fill="none" stroke="#323232" stroke-linecap="round" stroke-linejoin="round" stroke-width="1.5"/><path d="M18.42906,15.5209a.05.05,0,1,0,.05.05.05.05,0,0,0-.05-.05h0" fill="none" stroke="#323232" stroke-linecap="round" stroke-linejoin="round" stroke-width="1.5"/></svg>