<?xml version="1.0" encoding="UTF-8"?><svg version="1.1" viewBox="0 0 24 24" xmlns="http://www.w3.org/2000/svg" xmlns:xlink="http://www.w3.org/1999/xlink"><g stroke-linecap="round" stroke-width="1.5" stroke="#323232" fill="none" stroke-linejoin="round"><path d="M18.9 16.8l-1.75 1.751 -1.05-1.051"></path><path d="M13.249 18.233l.6.782 .129.973 -7.82802e-09-5.90837e-08c.0715386.539953.496116.964941 1.036 1.037l.976.13 .781.6 3.72831e-08 2.85053e-08c.432384.330586 1.03262.330586 1.465-5.70107e-08l.782-.6v0l.974-.129 -6.82445e-09 9.04176e-10c.539953-.0715386.964941-.496116 1.037-1.036l.13-.976 .6-.781 5.70846e-08-7.47436e-08c.330077-.432185.330077-1.03181-1.14169e-07-1.464l-.6-.782 -.129-.973 1.75836e-08 1.32716e-07c-.0715385-.539953-.496116-.964941-1.036-1.037l-.976-.13 -.781-.6 5.02752e-08 3.84387e-08c-.432384-.330586-1.03262-.330586-1.465-7.68773e-08l-.782.6v0l-.974.129 -9.76941e-08 1.29435e-08c-.539953.0715386-.96494.496116-1.037 1.036l-.13.976 -.6.781 -4.29396e-08 5.57794e-08c-.332158.431479-.332158 1.03252-1.58138e-08 1.464Z"></path><path d="M9 21h-4.286l-9.71092e-08-5.66089e-11c-.946387-.000551722-1.71345-.767613-1.714-1.714v-3.286"></path><path d="M16 4h3.286l-5.28209e-08-3.07905e-11c.946387.00055164 1.71345.767612 1.714 1.714v3.286"></path><path d="M2 5v4l2.30926e-14 3.01992e-07c1.66785e-07 1.10457.895431 2 2 2h6l-8.74228e-08-1.77636e-15c1.10457 4.82823e-08 2-.89543 2-2v-4 0c0-1.10457-.895431-2-2-2h-6l-8.74228e-08 1.77636e-15c-1.10457 4.82823e-08-2 .895431-2 2 0 0 0 8.88178e-16 0 8.88178e-16Z"></path><path d="M12 6h-10"></path></g><path fill="none" d="M0 0h24v24h-24Z"></path></svg>