<svg id="Layer_3" data-name="Layer 3" xmlns="http://www.w3.org/2000/svg" viewBox="0 0 24 24"><path d="M18,11h1a2,2,0,0,1,2,2v1.25" fill="none" stroke="#323232" stroke-linecap="round" stroke-linejoin="round" stroke-width="1.5"/><path d="M21,17.75V19a2,2,0,0,1-2,2H13a2,2,0,0,1-2-2V14.97229" fill="none" stroke="#323232" stroke-linecap="round" stroke-linejoin="round" stroke-width="1.5"/><path d="M20.25,14.25H21.5a.5.5,0,0,1,.5.5v2.5a.5.5,0,0,1-.5.5H20.25A1.75,1.75,0,0,1,18.5,16v0a1.75,1.75,0,0,1,1.75-1.75Z" fill="none" stroke="#323232" stroke-linecap="round" stroke-linejoin="round" stroke-width="1.5"/><path d="M3,5v5a2,2,0,0,0,2,2h8a2,2,0,0,0,2-2V5a2,2,0,0,0-2-2H5A2,2,0,0,0,3,5Z" fill="none" stroke="#323232" stroke-linecap="round" stroke-linejoin="round" stroke-width="1.5"/><line x1="3" y1="7" x2="15" y2="7" fill="none" stroke="#323232" stroke-linecap="round" stroke-linejoin="round" stroke-width="1.5"/><path d="M21.0003,8.02771v-2a3,3,0,0,0-3-3h0" fill="none" stroke="#323232" stroke-linecap="round" stroke-linejoin="round" stroke-width="1.5"/><path d="M3.0003,15v3a3,3,0,0,0,3,3h2" fill="none" stroke="#323232" stroke-linecap="round" stroke-linejoin="round" stroke-width="1.5"/><path d="M0,0H24V24H0Z" fill="none"/></svg>