<svg id="Layer_3" data-name="Layer 3" xmlns="http://www.w3.org/2000/svg" viewBox="0 0 24 24"><path d="M21,12a9,9,0,1,0-9,9" fill="none" stroke="#323232" stroke-linecap="round" stroke-linejoin="round" stroke-width="1.5"/><path d="M21.46462,18.2266l-1.94928.81938a.874.874,0,0,0-.46695.46682l-.82108,1.952a.87465.87465,0,0,1-1.64518-.09276l-1.54539-5.2499a.87413.87413,0,0,1,1.08557-1.08542L21.372,16.5816A.87445.87445,0,0,1,21.46462,18.2266Z" fill="none" stroke="#323232" stroke-linecap="round" stroke-linejoin="round" stroke-width="1.5"/><path d="M17,12V10.22222A2.22222,2.22222,0,0,0,14.77778,8H9.22222A2.22222,2.22222,0,0,0,7,10.22222v3.55556A2.22222,2.22222,0,0,0,9.22222,16H12" fill="none" stroke="#323232" stroke-linecap="round" stroke-linejoin="round" stroke-width="1.5"/><path d="M17,11H7" fill="none" stroke="#323232" stroke-linecap="round" stroke-linejoin="round" stroke-width="1.5"/><path d="M0,0H24V24H0Z" fill="none"/></svg>