<?xml version="1.0" encoding="UTF-8"?><svg version="1.1" viewBox="0 0 24 24" xmlns="http://www.w3.org/2000/svg" xmlns:xlink="http://www.w3.org/1999/xlink"><!--Generated by IJSVG (https://github.com/iconjar/IJSVG)--><g fill="none"><path d="M0,0h24v24h-24Z"></path><path stroke="#323232" stroke-linecap="round" stroke-linejoin="round" stroke-width="1.5" d="M16.625,18.5h1.75"></path><path stroke="#323232" stroke-linecap="round" stroke-linejoin="round" stroke-width="1.5" d="M2,4v5c0,0.552 0.44,1 0.983,1h7.034c0.543,0 0.983,-0.448 0.983,-1v-5c0,-0.552 -0.44,-1 -0.983,-1h-7.034c-0.543,0 -0.983,0.448 -0.983,1Z"></path><path stroke="#323232" stroke-linecap="round" stroke-linejoin="round" stroke-width="1.5" d="M11,6h-8.846"></path><path stroke="#323232" stroke-linecap="round" stroke-linejoin="round" stroke-width="1.5" d="M19.25,21h-3.5c-0.967,0 -1.75,-0.764 -1.75,-1.708v-6.583c0,-0.945 0.783,-1.709 1.75,-1.709h3.5c0.967,0 1.75,0.764 1.75,1.708v6.583c0,0.945 -0.783,1.709 -1.75,1.709Z"></path><path d="M10,19l-2,-2"></path><path d="M8,21l2,-2"></path><path stroke="#323232" stroke-linecap="round" stroke-linejoin="round" stroke-width="1.5" d="M10,19h-2c-2.761,0 -5,-2.239 -5,-5"></path><path stroke="#323232" stroke-linecap="round" stroke-linejoin="round" stroke-width="1.5" d="M16.5,2.5l-1.5,1.5l1.5,1.5"></path><path stroke="#323232" stroke-linecap="round" stroke-linejoin="round" stroke-width="1.5" d="M15,4h2c1.657,0 3,1.343 3,3"></path><path stroke="#323232" stroke-linecap="round" stroke-linejoin="round" stroke-width="1.5" d="M8.5,20.5l1.5,-1.5l-1.5,-1.5"></path></g></svg>