<?xml version="1.0" encoding="UTF-8"?><svg version="1.1" viewBox="0 0 24 24" xmlns="http://www.w3.org/2000/svg" xmlns:xlink="http://www.w3.org/1999/xlink"><g stroke-linecap="round" stroke-width="1.5" stroke="#323232" fill="none" stroke-linejoin="round"><path d="M3 8h18"></path><path d="M9.5 12h-2.5"></path><path d="M20.999 17l2.42054e-08.000440025c0 2.20889-1.79066 3.99955-3.99955 3.99956l8.58439e-09 1.27883e-10c-2.19587-.0327119-3.96798-1.80502-4.00045-4.00089l-2.47531e-08.000444396c3.33571e-07-2.20914 1.79086-4 4-4 2.20914 3.33571e-07 4 1.79086 4 4"></path><path d="M16.8941 15.5013v1.736l1.36533.83289"></path><path d="M10 18h-4l-1.31134e-07-3.55271e-15c-1.65685-7.24234e-08-3-1.34315-3-3 0 0 0-1.77636e-15 0-1.77636e-15v-8l3.37508e-14 4.52987e-07c-2.50178e-07-1.65685 1.34315-3 3-3h12l-1.31134e-07 3.55271e-15c1.65685-7.24234e-08 3 1.34315 3 3v4"></path></g><path fill="none" d="M0 24v-24h24v24Z"></path></svg>