<svg id="Layer_3" data-name="Layer 3" xmlns="http://www.w3.org/2000/svg" viewBox="0 0 24 24"><path d="M24,24H0V0H24Z" fill="none"/><line x1="7" y1="11.75001" x2="8" y2="11.75001" fill="none" stroke="#323232" stroke-linecap="round" stroke-linejoin="round" stroke-width="1.5"/><line x1="7" y1="15.50001" x2="8" y2="15.50001" fill="none" stroke="#323232" stroke-linecap="round" stroke-linejoin="round" stroke-width="1.5"/><path d="M20,9V4.55991a1,1,0,0,0-.551-.89352l-1.11419-.55991a1,1,0,0,0-.89229-.00287l-1.69869.84-1.66513-.83648a1,1,0,0,0-.89456-.00162L11.5,3.94394,9.81584,3.10551a1,1,0,0,0-.89456.00162l-1.66514.83648-1.69868-.84a1,1,0,0,0-.89229.00287L3.551,3.66639A1,1,0,0,0,3,4.55991V19a2,2,0,0,0,2,2H8" fill="none" stroke="#323232" stroke-linecap="round" stroke-linejoin="round" stroke-width="1.5"/><line x1="11" y1="15.5" x2="22" y2="15.5" fill="none" stroke="#323232" stroke-linecap="round" stroke-linejoin="round" stroke-width="1.5"/><path d="M13.25,21h6.5A2.25,2.25,0,0,0,22,18.75v-4.5A2.25,2.25,0,0,0,19.75,12h-6.5A2.25,2.25,0,0,0,11,14.25v4.5A2.25,2.25,0,0,0,13.25,21Z" fill="none" stroke="#323232" stroke-linecap="round" stroke-linejoin="round" stroke-width="1.5"/><line x1="7" y1="8.00001" x2="16" y2="8.00001" fill="none" stroke="#323232" stroke-linecap="round" stroke-linejoin="round" stroke-width="1.5"/></svg>