<?xml version="1.0" encoding="UTF-8"?><svg version="1.1" viewBox="0 0 24 24" xmlns="http://www.w3.org/2000/svg" xmlns:xlink="http://www.w3.org/1999/xlink"><g fill="none"><path d="M24 24h-24v-24h24Z"></path><path d="M24 0v24h-24"></path><path stroke="#323232" stroke-linecap="round" stroke-linejoin="round" stroke-width="1.5" d="M11.0033 20l5.80162e-08-2.10889e-11c-4.97056.00180702-9.00146-4.02617-9.00327-8.99673 -.00180702-4.97056 4.02617-9.00146 8.99673-9.00327 4.58484-.00166679 8.43812 3.44355 8.94754 8"></path><path stroke="#323232" stroke-linecap="round" stroke-linejoin="round" stroke-width="1.5" d="M7.24346 9.5v3l1.68754e-14 2.26494e-07c1.25089e-07.828427.671573 1.5 1.5 1.5h4.5l-6.55671e-08-1.77636e-15c.828427 3.62117e-08 1.5-.671573 1.5-1.5v-3 0c0-.828427-.671573-1.5-1.5-1.5h-4.5l6.55671e-08 1.06581e-14c-.828427-1.61301e-07-1.5.671573-1.5 1.5 -1.06581e-14 5.38117e-08-1.77636e-14 1.07115e-07-2.30926e-14 1.60927e-07Z"></path><path stroke="#323232" stroke-linecap="round" stroke-linejoin="round" stroke-width="1.5" d="M14.7435 10.5h-7.5"></path><path stroke="#323232" stroke-linecap="round" stroke-linejoin="round" stroke-width="1.5" d="M15.2926 17.8387l3.542-3.54475 -7.1819e-08 7.18731e-08c.391548-.391843 1.02661-.392082 1.41846-.000534005 1.79665e-05 1.7953e-05 3.59323e-05 3.59066e-05 5.38974e-05 5.38609e-05l1.45317 1.45234 3.06312e-08 3.06148e-08c.39141.391201.391579 1.02563.000378 1.41704 -.000125987.000126054-.000252007.000252074-.000378061.000378061l-3.5463 3.54411 1.43403e-08-1.43316e-08c-.187513.1874-.441766.292674-.70687.29268h-2.45313v-2.45449l-5.96323e-12 3.30577e-06c4.00262e-08-.265081.10525-.519317.292618-.706831Z"></path></g></svg>