<?xml version="1.0" encoding="UTF-8"?><svg version="1.1" viewBox="0 0 24 24" xmlns="http://www.w3.org/2000/svg" xmlns:xlink="http://www.w3.org/1999/xlink"><!--Generated by IJSVG (https://github.com/iconjar/IJSVG)--><path d="M5,5h11c1.105,0 2,0.895 2,2v7c0,1.105 -0.895,2 -2,2h-11c-1.105,0 -2,-0.895 -2,-2v-7c0,-1.105 0.895,-2 2,-2Z" stroke-linecap="round" stroke-width="1.5" fill-rule="evenodd" stroke="#323232" fill="none" stroke-linejoin="round"></path><path fill="none" stroke="#323232" stroke-linecap="round" stroke-linejoin="round" stroke-width="1.5" d="M21,12h-3"></path><path d="M18,8h1c1.105,0 2,0.895 2,2v7c0,1.105 -0.895,2 -2,2h-11c-1.105,0 -2,-0.895 -2,-2v-1" stroke-linecap="round" stroke-width="1.5" fill-rule="evenodd" stroke="#323232" fill="none" stroke-linejoin="round"></path><path fill="none" stroke="#323232" stroke-linecap="round" stroke-linejoin="round" stroke-width="1.5" d="M8,11h-1c-0.552,0 -1,-0.448 -1,-1v-1c0,-0.552 0.448,-1 1,-1h1c0.552,0 1,0.448 1,1v1c0,0.552 -0.448,1 -1,1Z"></path><path d="M0,0h24v24h-24Z" fill="none"></path></svg>