<?xml version="1.0" encoding="UTF-8"?><svg version="1.1" viewBox="0 0 24 24" xmlns="http://www.w3.org/2000/svg" xmlns:xlink="http://www.w3.org/1999/xlink"><g stroke-linecap="round" stroke-width="1.5" stroke="#323232" fill="none" stroke-linejoin="round"><path d="M15 9h-12"></path><path d="M7 4h-2c-1.105 0-2 .895-2 2v14c0 1.105.895 2 2 2h8c1.105 0 2-.895 2-2v-14c0-1.105-.895-2-2-2h-2"></path><path d="M20 17.5l2 2 -2 2"></path><path d="M18 19.5h4"></path><path d="M15 13.03h-12"></path><path d="M7 2h4v4h-4v-4Z"></path><path d="M5.999 15.833c-.092 0-.167.075-.166.167 0 .092.075.167.167.167 .092 0 .167-.075.167-.167 0-.092-.075-.167-.168-.167"></path><path d="M8.999 15.833c-.092 0-.167.075-.166.167 0 .092.075.167.167.167 .092 0 .167-.075.167-.167 0-.092-.075-.167-.168-.167"></path><path d="M11.999 18.833c-.092 0-.167.075-.166.167 0 .092.075.167.167.167 .092 0 .167-.075.167-.167 0-.092-.075-.167-.168-.167"></path><path d="M5.999 18.833c-.092 0-.167.075-.166.167 0 .092.075.167.167.167 .092 0 .167-.075.167-.167 0-.092-.075-.167-.168-.167"></path><path d="M8.999 18.833c-.092 0-.167.075-.166.167 0 .092.075.167.167.167 .092 0 .167-.075.167-.167 0-.092-.075-.167-.168-.167"></path><path d="M15 7h5c.552 0 1 .448 1 1v5c0 .552-.448 1-1 1h-5"></path><path d="M15 10h6"></path><path d="M11.999 15.833c-.092 0-.167.075-.166.167 0 .092.075.167.167.167 .092 0 .167-.075.167-.167 0-.092-.075-.167-.168-.167"></path></g><path fill="none" d="M0 0h24v24h-24v-24Z"></path></svg>