<?xml version="1.0" encoding="UTF-8"?><svg version="1.1" viewBox="0 0 24 24" xmlns="http://www.w3.org/2000/svg" xmlns:xlink="http://www.w3.org/1999/xlink"><!--Generated by IJSVG (https://github.com/iconjar/IJSVG)--><g fill="none"><path d="M24,0v24h-24v-24h24Z"></path><path stroke="#323232" stroke-linecap="round" stroke-linejoin="round" stroke-width="1.5" d="M19,3c1.105,0 2,0.895 2,2v9c0,1.105 -0.895,2 -2,2h-1.5"></path><path stroke="#323232" stroke-linecap="round" stroke-linejoin="round" stroke-width="1.5" d="M6.5,16h-1.5c-1.105,0 -2,-0.895 -2,-2v-9c0,-1.105 0.895,-2 2,-2h14"></path><path stroke="#323232" stroke-linecap="round" stroke-linejoin="round" stroke-width="1.5" d="M12,15v-8"></path><path stroke="#323232" stroke-linecap="round" stroke-linejoin="round" stroke-width="1.5" d="M15,12h1.5c0.552,0 1,0.448 1,1v6c0,1.105 -0.895,2 -2,2h-7c-1.105,0 -2,-0.895 -2,-2v-6c0,-0.552 0.448,-1 1,-1h1.5"></path><path stroke="#323232" stroke-linecap="round" stroke-linejoin="round" stroke-width="1.5" d="M14,9l-2,-2l-2,2"></path></g></svg>