<?xml version="1.0" encoding="UTF-8"?><svg version="1.1" viewBox="0 0 24 24" xmlns="http://www.w3.org/2000/svg" xmlns:xlink="http://www.w3.org/1999/xlink"><g fill="none"><path d="M0 0h24v24h-24Z"></path><path stroke="#323232" stroke-linecap="round" stroke-linejoin="round" stroke-width="1.5" d="M11.718 7.985v4.651l3.656 2.229"></path><path stroke="#323232" stroke-linecap="round" stroke-linejoin="round" stroke-width="1.5" d="M3.059 11l-4.0707e-07 3.64095e-06c.552283-4.93979 5.00448-8.49656 9.94427-7.94428 4.93979.552283 8.49656 5.00448 7.94428 9.94427 -.509425 4.55645-4.3627 8.00167-8.94754 8"></path><path stroke="#323232" stroke-linecap="round" stroke-linejoin="round" stroke-width="1.5" d="M2 16.4v2.8l1.59872e-14 2.11394e-07c1.1675e-07.773199.626802 1.4 1.4 1.4h4.2 -6.11959e-08c.773199 3.37976e-08 1.4-.626801 1.4-1.4v-2.8h1.77636e-15c0-.773199-.626801-1.4-1.4-1.4h-4.2l-6.11959e-08 1.77636e-15c-.773199 3.37976e-08-1.4.626801-1.4 1.4 0 0 0 3.55271e-15 0 3.55271e-15Z"></path><path stroke="#323232" stroke-linecap="round" stroke-linejoin="round" stroke-width="1.5" d="M9 17.6h-7"></path></g></svg>