<?xml version="1.0" encoding="UTF-8"?><svg version="1.1" viewBox="0 0 24 24" xmlns="http://www.w3.org/2000/svg" xmlns:xlink="http://www.w3.org/1999/xlink"><g stroke-linecap="round" stroke-width="1.5" stroke="#323232" fill="none" stroke-linejoin="round"><path d="M3 7.5h18"></path><path d="M9.5 11.5h-2.5"></path><path d="M10 17.5h-4l-1.31134e-07-3.55271e-15c-1.65685-7.24234e-08-3-1.34315-3-3 0 0 0-1.77636e-15 0-1.77636e-15v-8l3.37508e-14 4.52987e-07c-2.50178e-07-1.65685 1.34315-3 3-3h12l-1.31134e-07 2.66454e-15c1.65685-7.24234e-08 3 1.34315 3 3v4"></path><path d="M14 20.5v-4.58"></path><path d="M17 20.5v-4.58"></path><path d="M20 20.5v-4.58"></path><path d="M13 20.5h8"></path><path d="M13 15.92h8v-1.783l-4-1.637 -4 1.637Z"></path></g><path fill="none" d="M0 24v-24h24v24Z"></path></svg>