<?xml version="1.0" encoding="UTF-8"?><svg version="1.1" viewBox="0 0 24 24" xmlns="http://www.w3.org/2000/svg" xmlns:xlink="http://www.w3.org/1999/xlink"><defs><path d="M0 0h24v24h-24Z" id="a"></path></defs><g fill="none"><use xlink:href="#a"></use><use xlink:href="#a"></use><path stroke="#323232" stroke-linecap="round" stroke-linejoin="round" stroke-width="1.5" d="M8.25 10.5v3l1.77636e-14 2.26494e-07c1.25089e-07.828427.671573 1.5 1.5 1.5h4.5l-6.55671e-08-1.77636e-15c.828427 3.62117e-08 1.5-.671573 1.5-1.5v-3l1.77636e-15-6.55671e-08c0-.828427-.671573-1.5-1.5-1.5 -9.80746e-08 0-1.93986e-07 8.88178e-15-2.92061e-07 2.84217e-14h-4.5l-6.55671e-08 1.77636e-15c-.828427 3.62117e-08-1.5.671573-1.5 1.5 0 0 0 1.77636e-15 0 1.77636e-15Z"></path><path stroke="#323232" stroke-linecap="round" stroke-linejoin="round" stroke-width="1.5" d="M18.249 16.5v3.5"></path><path stroke="#323232" stroke-linecap="round" stroke-linejoin="round" stroke-width="1.5" d="M16.5 18.249h3.5"></path><path stroke="#323232" stroke-linecap="round" stroke-linejoin="round" stroke-width="1.5" d="M13 20.938l-5.12224e-08 6.3506e-09c-.331749.0411305-.665711.0618362-1 .062l-3.93403e-07-7.10543e-15c-4.97056-2.1727e-07-9-4.02944-9-9 2.1727e-07-4.97056 4.02944-9 9-9 4.97056 2.1727e-07 9 4.02944 9 9l6.63454e-09-1.35644e-05c-.000163227.334289-.0208684.668251-.0619983 1"></path><path stroke="#323232" stroke-linecap="round" stroke-linejoin="round" stroke-width="1.5" d="M15.75 11.5h-7.5"></path></g></svg>