<svg id="Layer_3" data-name="Layer 3" xmlns="http://www.w3.org/2000/svg" viewBox="0 0 24 24"><path d="M0,0H24V24H0Z" fill="none"/><line x1="17" y1="14" x2="7" y2="14" fill="none" stroke="#323232" stroke-linecap="round" stroke-linejoin="round" stroke-width="1.5"/><path d="M16,14V9.5a2,2,0,0,0-2-2H10a2,2,0,0,0-2,2V14" fill="none" stroke="#323232" stroke-linecap="round" stroke-linejoin="round" stroke-width="1.5"/><line x1="11.5" y1="7.5" x2="11.5" y2="14" fill="none" stroke="#323232" stroke-linecap="round" stroke-linejoin="round" stroke-width="1.5"/><path d="M10.94091,20.89514h0A9.87816,9.87816,0,0,1,3,11.20879V8A5,5,0,0,1,8,3h8a5,5,0,0,1,5,5v3.20876a9.87819,9.87819,0,0,1-7.94069,9.68631l-.00023,0A5.40017,5.40017,0,0,1,10.94091,20.89514Z" fill="none" stroke="#323232" stroke-linecap="round" stroke-linejoin="round" stroke-width="1.5"/><path d="M0,0H24V24H0Z" fill="none"/></svg>