<svg id="Layer_3" data-name="Layer 3" xmlns="http://www.w3.org/2000/svg" viewBox="0 0 24 24"><path d="M24,0H0V24H24Z" fill="none"/><path d="M3,9H21" fill="none" stroke="#323232" stroke-linecap="round" stroke-linejoin="round" stroke-width="1.5"/><path d="M10,19H6a3,3,0,0,1-3-3V7A3,3,0,0,1,6,4H18a3,3,0,0,1,3,3v4" fill="none" stroke="#323232" stroke-linecap="round" stroke-linejoin="round" stroke-width="1.5"/><path d="M14.61987,17.07837l-1.35022,1.35016a.92067.92067,0,0,0-.26965.651v.99975A.92073.92073,0,0,0,13.92072,21h.99969a.92062.92062,0,0,0,.65106-.26971l1.35016-1.35016" fill="none" stroke="#323232" stroke-linecap="round" stroke-linejoin="round" stroke-width="1.5"/><path d="M14.61987,17.07837a3.30593,3.30593,0,1,1,2.30176,2.30176" fill="none" stroke="#323232" stroke-linecap="round" stroke-linejoin="round" stroke-width="1.5"/><path d="M17.75,16.245l.005.005-.005.005-.005-.005.005-.005" fill="none" stroke="#323232" stroke-linecap="round" stroke-linejoin="round" stroke-width="1.5"/></svg>