<?xml version="1.0" encoding="UTF-8"?><svg version="1.1" viewBox="0 0 24 24" xmlns="http://www.w3.org/2000/svg" xmlns:xlink="http://www.w3.org/1999/xlink"><g stroke-linecap="round" stroke-width="1.5" stroke="#323232" fill="none" stroke-linejoin="round"><path d="M8 17.5l2 2 -2 2"></path><path d="M10 19.5h-6"></path><path d="M14 20.271l8.22706e-07-1.87309e-07c4.84654-1.10343 7.88092-5.92684 6.77749-10.7734 -1.10343-4.84654-5.92684-7.88092-10.7734-6.77749 -4.84654 1.10343-7.88092 5.92684-6.77749 10.7734 .158186.694791.398327 1.36834.715376 2.00649"></path><path d="M8.25 10.5v3l1.77636e-14 2.26494e-07c1.25089e-07.828427.671573 1.5 1.5 1.5h4.5l-6.55671e-08-1.77636e-15c.828427 3.62117e-08 1.5-.671573 1.5-1.5v-3l1.77636e-15-6.55671e-08c0-.828427-.671573-1.5-1.5-1.5 -9.80746e-08 0-1.93986e-07 8.88178e-15-2.92061e-07 2.84217e-14h-4.5l-6.55671e-08 1.77636e-15c-.828427 3.62117e-08-1.5.671573-1.5 1.5 0 0 0 1.77636e-15 0 1.77636e-15Z"></path><path d="M15.75 11.5h-7.5"></path></g><path fill="none" d="M0 0h24v24h-24Z"></path></svg>