<svg id="Layer_3" data-name="Layer 3" xmlns="http://www.w3.org/2000/svg" viewBox="0 0 24 24"><g id="Layer_22" data-name="Layer 22"><path d="M19.47489,3.52514A3.50393,3.50393,0,1,1,15.65946,2.749a3.46356,3.46356,0,0,1,3.8154.77612l0,0h0" fill="none" stroke="#323232" stroke-linecap="round" stroke-linejoin="round" stroke-width="1.5"/><line x1="19.5" y1="8.5" x2="21" y2="10" fill="none" stroke="#323232" stroke-linecap="round" stroke-linejoin="round" stroke-width="1.5"/><rect width="24" height="24" fill="none"/><path d="M3,9V6A3,3,0,0,1,6,3h5" fill="none" stroke="#323232" stroke-linecap="round" stroke-linejoin="round" stroke-width="1.5"/><circle cx="8.5" cy="16.5" r="1.63636" fill="none" stroke="#323232" stroke-linecap="round" stroke-linejoin="round" stroke-width="1.5"/><path d="M5.25,21h6.5A2.25,2.25,0,0,0,14,18.75v-4.5A2.25,2.25,0,0,0,11.75,12H5.25A2.25,2.25,0,0,0,3,14.25v4.5A2.25,2.25,0,0,0,5.25,21Z" fill="none" stroke="#323232" stroke-linecap="round" stroke-linejoin="round" stroke-width="1.5"/><path d="M21,14v4a3,3,0,0,1-3,3H17" fill="none" stroke="#323232" stroke-linecap="round" stroke-linejoin="round" stroke-width="1.5"/></g><path d="M0,0H24V24H0Z" fill="none"/></svg>