<?xml version="1.0" encoding="UTF-8"?><svg version="1.1" viewBox="0 0 24 24" xmlns="http://www.w3.org/2000/svg" xmlns:xlink="http://www.w3.org/1999/xlink"><!--Generated by IJSVG (https://github.com/iconjar/IJSVG)--><g fill="none"><path d="M0,0h24v24h-24v-24Z"></path><path stroke="#323232" stroke-linecap="round" stroke-linejoin="round" stroke-width="1.5" d="M2,6.85h19"></path><path stroke="#323232" stroke-linecap="round" stroke-linejoin="round" stroke-width="1.5" d="M21,13v-8c0,-1.105 -0.895,-2 -2,-2h-15c-1.105,0 -2,0.895 -2,2v9c0,1.105 0.895,2 2,2h8"></path><path stroke="#323232" stroke-linecap="round" stroke-linejoin="round" stroke-width="1.5" d="M20.536,12.464c1.953,1.953 1.953,5.118 0,7.071c-1.953,1.953 -5.118,1.953 -7.071,0c-1.953,-1.953 -1.953,-5.118 0,-7.071c1.953,-1.953 5.118,-1.952 7.071,0"></path><path stroke="#323232" stroke-linecap="round" stroke-linejoin="round" stroke-width="1.5" d="M17,18.65c-0.027,0 -0.05,0.023 -0.05,0.05c0,0.027 0.023,0.05 0.05,0.05c0.027,0 0.05,-0.023 0.05,-0.05c0,-0.027 -0.023,-0.05 -0.05,-0.05v0"></path><path stroke="#323232" stroke-linecap="round" stroke-linejoin="round" stroke-width="1.5" d="M17,16.625c0.863,0 1.563,-0.7 1.563,-1.563c0,-0.863 -0.699,-1.563 -1.563,-1.563c-0.842,0 -1.523,0.666 -1.556,1.5"></path></g></svg>