<?xml version="1.0" encoding="UTF-8"?><svg version="1.1" viewBox="0 0 24 24" xmlns="http://www.w3.org/2000/svg" xmlns:xlink="http://www.w3.org/1999/xlink"><g stroke-linecap="round" stroke-width="1.5" stroke="#323232" fill="none" stroke-linejoin="round"><path d="M3 8h18"></path><path d="M18.853 13.006l-2.55031e-08-2.55145e-08c1.33842 1.33901 1.33794 3.5095-.00107598 4.84792 -1.33901 1.33842-3.5095 1.33794-4.84792-.00107598 -1.338-1.33859-1.338-3.50825-5.10063e-08-4.84685l-4.1912e-08 4.19306e-08c1.33842-1.33901 3.50891-1.3395 4.84792-.00107611 .000358755.000358596.000717431.000717272.00107603.00107603"></path><path d="M21 20l-2.147-2.146"></path><path d="M9.5 12h-2.5"></path><path d="M10 18h-4l-1.31134e-07-3.55271e-15c-1.65685-7.24234e-08-3-1.34315-3-3 0 0 0-1.77636e-15 0-1.77636e-15v-8l3.37508e-14 4.52987e-07c-2.50178e-07-1.65685 1.34315-3 3-3h12l-1.31134e-07 3.55271e-15c1.65685-7.24234e-08 3 1.34315 3 3v4"></path></g><path fill="none" d="M0 24v-24h24v24Z"></path></svg>