<?xml version="1.0" encoding="UTF-8"?><svg version="1.1" viewBox="0 0 24 24" xmlns="http://www.w3.org/2000/svg" xmlns:xlink="http://www.w3.org/1999/xlink"><!--Generated by IJSVG (https://github.com/iconjar/IJSVG)--><g stroke-linecap="round" stroke-width="1.5" stroke="#323232" fill="none" stroke-linejoin="round"><path d="M19.71,17v-1.29c0,-0.897 -0.765,-1.71 -1.71,-1.71c-0.945,0 -1.71,0.765 -1.71,1.71v1.29"></path><path d="M20.018,21h-4.036c-0.542,0 -0.982,-0.44 -0.982,-0.982v-2.036c0,-0.542 0.44,-0.982 0.982,-0.982h4.036c0.542,0 0.982,0.44 0.982,0.982v2.036c0,0.542 -0.44,0.982 -0.982,0.982Z"></path><path d="M3,8h18"></path><path d="M7,12.91h4"></path><path d="M11,17h-6c-1.105,0 -2,-0.895 -2,-2v-9c0,-1.105 0.895,-2 2,-2h14c1.105,0 2,0.895 2,2v5"></path></g><path fill="none" d="M0,0h24v24h-24Z"></path></svg>