<svg viewBox="0 0 24 24" xmlns="http://www.w3.org/2000/svg"><g fill="none"><path d="M0 0h24v24H0Z"/><g stroke-linecap="round" stroke-width="1.5" stroke="#323232" fill="none" stroke-linejoin="round"><path d="M20.58 9.35l0 0c.27.85.41 1.74.41 2.64v0c0 4.97-4.03 9-9 9 -4.98 0-9-4.03-9-9 0-4.98 4.02-9 9-9l-.01-.001c.89 0 1.79.14 2.64.41"/><path d="M19.012 6.262l-1.28-1.28"/><path d="M21 4.27l-1.99 1.99"/><path d="M8.25 10.5v3l0 0c0 .82.67 1.49 1.5 1.49h4.5l-.01-.001c.82 0 1.5-.68 1.5-1.5v-3l0-.01c0-.83-.68-1.5-1.5-1.5 -.01 0-.01 0-.01 0h-4.5l-.01 0c-.83 0-1.5.67-1.5 1.5Z"/><path d="M15.75 11.5h-7.5"/></g></g></svg>