<?xml version="1.0" encoding="UTF-8"?><svg version="1.1" viewBox="0 0 24 24" xmlns="http://www.w3.org/2000/svg" xmlns:xlink="http://www.w3.org/1999/xlink"><!--Generated by IJSVG (https://github.com/iconjar/IJSVG)--><g fill="none"><path d="M0,0h24v24h-24v-24Z"></path><path stroke="#323232" stroke-linecap="round" stroke-linejoin="round" stroke-width="1.5" d="M3,7h18"></path><path stroke="#323232" stroke-linecap="round" stroke-linejoin="round" stroke-width="1.5" d="M9.57,11h-2.57"></path><path stroke="#323232" stroke-linecap="round" stroke-linejoin="round" stroke-width="1.5" d="M9,17h-3c-1.657,0 -3,-1.343 -3,-3v-8c0,-1.657 1.343,-3 3,-3h12c1.657,0 3,1.343 3,3v4"></path><path stroke="#323232" stroke-linecap="round" stroke-linejoin="round" stroke-width="1.5" d="M22,16.958c0,2.791 -2.251,5.042 -5.042,5.042c-2.791,0 -5.042,-2.251 -5.042,-5.042c0,-2.791 2.251,-5.042 5.042,-5.042c2.791,0 5.042,2.251 5.042,5.042Z"></path><path stroke="#323232" stroke-linecap="round" stroke-linejoin="round" stroke-width="1.5" d="M13.394,20.522l7.128,-7.128"></path></g></svg>