<?xml version="1.0" encoding="UTF-8"?><svg version="1.1" viewBox="0 0 24 24" xmlns="http://www.w3.org/2000/svg" xmlns:xlink="http://www.w3.org/1999/xlink"><g fill="none"><path d="M0 0h24v24h-24v-24Z"></path><path stroke="#323232" stroke-linecap="round" stroke-linejoin="round" stroke-width="1.5" d="M3 7h18"></path><path stroke="#323232" stroke-linecap="round" stroke-linejoin="round" stroke-width="1.5" d="M9.57 11h-2.57"></path><path stroke="#323232" stroke-linecap="round" stroke-linejoin="round" stroke-width="1.5" d="M9 17h-3c-1.657 0-3-1.343-3-3v-8c0-1.657 1.343-3 3-3h12c1.657 0 3 1.343 3 3v4"></path><path stroke="#323232" stroke-linecap="round" stroke-linejoin="round" stroke-width="1.5" d="M14.914 21.414l-1.328-1.328c-.375-.375-.586-.884-.586-1.414v-2.343c0-.53.211-1.039.586-1.414l1.328-1.328c.375-.376.884-.587 1.414-.587h2.343c.53 0 1.039.211 1.414.586l1.329 1.329c.375.375.586.883.586 1.414v2.342c0 .53-.211 1.039-.586 1.414l-1.329 1.329c-.374.375-.883.586-1.414.586h-2.343c-.53 0-1.039-.211-1.414-.586Z"></path><path stroke="#323232" stroke-linecap="round" stroke-linejoin="round" stroke-width="1.5" d="M17.501 17.323v-1.754"></path><path stroke="#323232" stroke-linecap="round" stroke-linejoin="round" stroke-width="1.5" d="M17.5 19.257c-.048 0-.087.039-.086.087 0 .048.039.087.087.087 .048 0 .086-.039.086-.087 0-.048-.039-.087-.087-.087"></path></g></svg>