<?xml version="1.0" encoding="UTF-8"?><svg version="1.1" viewBox="0 0 24 24" xmlns="http://www.w3.org/2000/svg" xmlns:xlink="http://www.w3.org/1999/xlink"><g stroke-linecap="round" stroke-width="1.5" stroke="#323232" fill="none" stroke-linejoin="round"><line x1="2" x2="9" y1="10" y2="10"></line><polyline points="7,8 9,10 7,12"></polyline><line x1="22" x2="15" y1="13.5" y2="13.5"></line><polyline points="17,15.5 15,13.5 17,11.5"></polyline><path d="M12 6h8c1.105 0 2 .895 2 2v11c0 1.105-.895 2-2 2h-6c-1.105 0-2-.895-2-2v-14c0-1.105-.895-2-2-2h-6c-1.105 0-2 .895-2 2v10c0 1.105.895 2 2 2h8"></path></g><rect width="24" height="24" fill="none"></rect></svg>