<?xml version="1.0" encoding="UTF-8"?><svg version="1.1" viewBox="0 0 24 24" xmlns="http://www.w3.org/2000/svg" xmlns:xlink="http://www.w3.org/1999/xlink"><!--Generated by IJSVG (https://github.com/iconjar/IJSVG)--><g fill="none"><path d="M0,0h24v24h-24Z"></path><path stroke="#323232" stroke-linecap="round" stroke-linejoin="round" stroke-width="1.5" d="M8,14c0,1.105 0.895,2 2,2"></path><path stroke="#323232" stroke-linecap="round" stroke-linejoin="round" stroke-width="1.5" d="M16,10c0,-1.105 -0.895,-2 -2,-2"></path><path stroke="#323232" stroke-linecap="round" stroke-linejoin="round" stroke-width="1.5" d="M8,11v-6c0,-1.105 0.895,-2 2,-2h9c1.105,0 2,0.895 2,2v9c0,1.105 -0.895,2 -2,2h-6"></path><path stroke="#323232" stroke-linecap="round" stroke-linejoin="round" stroke-width="1.5" d="M16,13v6c0,1.105 -0.895,2 -2,2h-9c-1.105,0 -2,-0.895 -2,-2v-9c0,-1.105 0.895,-2 2,-2h6"></path></g></svg>