<?xml version="1.0" encoding="UTF-8"?><svg version="1.1" viewBox="0 0 24 24" xmlns="http://www.w3.org/2000/svg" xmlns:xlink="http://www.w3.org/1999/xlink"><!--Generated by IJSVG (https://github.com/iconjar/IJSVG)--><g fill="none"><path d="M0,0h24v24h-24Z"></path><path stroke="#323232" stroke-linecap="round" stroke-linejoin="round" stroke-width="1.5" d="M14.143,11.25l2.048,-1.613c0.328,-0.258 0.809,-0.024 0.809,0.393v4.47c0,0.276 -0.224,0.5 -0.5,0.5h-9c-0.276,0 -0.5,-0.224 -0.5,-0.5v-4.47c0,-0.417 0.481,-0.651 0.809,-0.393l2.048,1.613l1.781,-1.87c0.197,-0.207 0.527,-0.207 0.724,0l1.781,1.87Z"></path><path stroke="#323232" stroke-linecap="round" stroke-linejoin="round" stroke-width="1.5" d="M18.364,5.63604c3.51472,3.51472 3.51472,9.2132 0,12.7279c-3.51472,3.51472 -9.2132,3.51472 -12.7279,0c-3.51472,-3.51472 -3.51472,-9.2132 -1.77636e-15,-12.7279c3.51472,-3.51472 9.2132,-3.51472 12.7279,-1.77636e-15"></path></g></svg>