<?xml version="1.0" encoding="UTF-8"?><svg version="1.1" viewBox="0 0 24 24" xmlns="http://www.w3.org/2000/svg" xmlns:xlink="http://www.w3.org/1999/xlink"><!--Generated by IJSVG (https://github.com/iconjar/IJSVG)--><g stroke-linecap="round" stroke-width="1.5" stroke="#323232" fill="none" stroke-linejoin="round"><path d="M12,5.683c0.91,-0.433 1.925,-0.683 3,-0.683c3.866,0 7,3.134 7,7c0,3.866 -3.134,7 -7,7c-1.075,0 -2.09,-0.25 -3,-0.683"></path><path d="M13.9497,7.05025c2.73367,2.73367 2.73367,7.16582 0,9.89949c-2.73367,2.73367 -7.16582,2.73367 -9.89949,3.55271e-15c-2.73367,-2.73367 -2.73367,-7.16582 -1.77636e-15,-9.89949c2.73367,-2.73367 7.16582,-2.73367 9.89949,-1.77636e-15"></path><path d="M6.879,9.879h4.243v4.243h-4.243Z" transform="matrix(0.7071,0.7071,-0.7071,0.7071,11.1213,-2.8492)"></path></g><path fill="none" d="M0,0h24v24h-24Z"></path></svg>