<?xml version="1.0" encoding="UTF-8"?><svg version="1.1" viewBox="0 0 24 24" xmlns="http://www.w3.org/2000/svg" xmlns:xlink="http://www.w3.org/1999/xlink"><!--Generated by IJSVG (https://github.com/iconjar/IJSVG)--><g fill="none"><path d="M0,0h24v24h-24Z"></path><path stroke="#323232" stroke-linecap="round" stroke-linejoin="round" stroke-width="1.5" d="M13.4,14.729h-2.305c-0.508,0 -0.919,-0.412 -0.919,-0.919v-1.776h3.224c0.739,0 1.337,0.599 1.337,1.337v0.02c0,0.74 -0.598,1.338 -1.337,1.338Z"></path><path stroke="#323232" stroke-linecap="round" stroke-linejoin="round" stroke-width="1.5" d="M13.076,12.034h-2.901v-1.846c0,-0.516 0.418,-0.934 0.934,-0.934h1.967c0.75,0 1.358,0.608 1.358,1.358v0.063c-1.77636e-15,0.751 -0.608,1.359 -1.358,1.359Z"></path><path stroke="#323232" stroke-linecap="round" stroke-linejoin="round" stroke-width="1.5" d="M12,8.34v0.92"></path><path stroke="#323232" stroke-linecap="round" stroke-linejoin="round" stroke-width="1.5" d="M12,15.64v-0.91"></path><path stroke="#323232" stroke-linecap="round" stroke-linejoin="round" stroke-width="1.5" d="M12,9.26h-2.74"></path><path stroke="#323232" stroke-linecap="round" stroke-linejoin="round" stroke-width="1.5" d="M12,14.73h-2.74"></path><path stroke="#323232" stroke-linecap="round" stroke-linejoin="round" stroke-width="1.5" d="M20,11.182c0,4.541 -3.413,8.787 -8,9.818c-4.587,-1.031 -8,-5.277 -8,-9.818v-3.567c0,-0.812 0.491,-1.544 1.243,-1.851l5,-2.046c1.126,-0.461 2.388,-0.461 3.514,0l5,2.046c0.752,0.308 1.243,1.039 1.243,1.851v3.567Z"></path></g></svg>