<?xml version="1.0" encoding="UTF-8"?><svg version="1.1" viewBox="0 0 24 24" xmlns="http://www.w3.org/2000/svg" xmlns:xlink="http://www.w3.org/1999/xlink"><!--Generated by IJSVG (https://github.com/iconjar/IJSVG)--><g stroke-linecap="round" stroke-width="1.5" stroke="#323232" fill="none" stroke-linejoin="round"><path d="M19.199,10.199v0c0.994,0 1.801,0.806 1.801,1.801v0c0,0.994 -0.806,1.801 -1.801,1.801v0c-0.994,0 -1.801,-0.806 -1.801,-1.801v0c0.002,-0.995 0.808,-1.801 1.801,-1.801Z"></path><path d="M12,5.836v0c0.994,0 1.801,0.806 1.801,1.801v0c0,0.994 -0.806,1.801 -1.801,1.801v0c-0.994,-0.001 -1.801,-0.806 -1.801,-1.801v0c0,-0.995 0.806,-1.801 1.801,-1.801Z"></path><path d="M12,14.563v0c0.994,0 1.801,0.806 1.801,1.801v0c0,0.994 -0.806,1.801 -1.801,1.801v0c-0.994,0 -1.801,-0.806 -1.801,-1.801v0c0,-0.996 0.806,-1.801 1.801,-1.801Z"></path><path d="M15.3,9.5l-1.69,-1.08"></path><path d="M17.69,12.97l-1.69,1.08"></path><path d="M4.801,13.801v0c-0.994,0 -1.801,-0.806 -1.801,-1.801v0c0,-0.994 0.806,-1.8 1.801,-1.8v0c0.994,0 1.801,0.806 1.801,1.801v0c-0.002,0.994 -0.808,1.8 -1.801,1.8Z"></path><path d="M8.7,14.5l1.69,1.08"></path><path d="M6.31,11.03l1.69,-1.08"></path><path d="M3,18v1c0,1.105 0.895,2 2,2h1"></path><path d="M21,6v-1c0,-1.105 -0.895,-2 -2,-2h-1"></path><path d="M6,3h-1c-1.105,0 -2,0.895 -2,2v1"></path><path d="M18,21h1c1.105,0 2,-0.895 2,-2v-1"></path></g><path fill="none" d="M0,0h24v24h-24Z"></path></svg>