<?xml version="1.0" encoding="UTF-8"?><svg version="1.1" viewBox="0 0 24 24" xmlns="http://www.w3.org/2000/svg" xmlns:xlink="http://www.w3.org/1999/xlink"><!--Generated by IJSVG (https://github.com/iconjar/IJSVG)--><g fill="none"><path d="M0,0h24v24h-24Z"></path><path stroke="#323232" stroke-linecap="round" stroke-linejoin="round" stroke-width="1.5" d="M11.973,2.1c5.523,0 10,4.477 10,10c0,4.838 -3.436,8.873 -8,9.799"></path><path stroke="#323232" stroke-linecap="round" stroke-linejoin="round" stroke-width="1.5" d="M9.973,21.9c-1.927,-0.391 -3.649,-1.338 -5,-2.663"></path><path stroke="#323232" stroke-linecap="round" stroke-linejoin="round" stroke-width="1.5" d="M3.321,7.1c-0.364,0.628 -0.668,1.295 -0.89,2"></path><path stroke="#323232" stroke-linecap="round" stroke-linejoin="round" stroke-width="1.5" d="M6.973,3.448c-0.348,0.202 -0.68,0.428 -1,0.67"></path><path stroke="#323232" stroke-linecap="round" stroke-linejoin="round" stroke-width="1.5" d="M2.027,13.1c0.108,1.048 0.376,2.047 0.782,2.974"></path><path stroke="#323232" stroke-linecap="round" stroke-linejoin="round" stroke-width="1.5" d="M7.119,16.908c-2.73,-2.73 -2.731,-7.157 0,-9.888c2.392,-2.392 6.085,-2.688 8.8,-0.889"></path><path stroke="#323232" stroke-linecap="round" stroke-linejoin="round" stroke-width="1.5" d="M17.897,8.108c0.759,1.146 1.143,2.466 1.155,3.789"></path><path stroke="#323232" stroke-linecap="round" stroke-linejoin="round" stroke-width="1.5" d="M13.868,18.713c0.49,-0.131 0.97,-0.31 1.429,-0.549"></path><path stroke="#323232" stroke-linecap="round" stroke-linejoin="round" stroke-width="1.5" d="M10.258,18.713c0.272,0.072 0.548,0.124 0.826,0.163"></path><path stroke="#323232" stroke-linecap="round" stroke-linejoin="round" stroke-width="1.5" d="M17.474,16.386c0.465,-0.571 0.826,-1.198 1.084,-1.857"></path><path stroke="#323232" stroke-linecap="round" stroke-linejoin="round" stroke-width="1.5" d="M10.003,10.131h3.94v3.94h-3.94Z" transform="matrix(0.7071,0.7071,-0.7071,0.7071,12.063,-4.9218)"></path></g></svg>