<?xml version="1.0" encoding="UTF-8"?><svg version="1.1" viewBox="0 0 24 24" xmlns="http://www.w3.org/2000/svg" xmlns:xlink="http://www.w3.org/1999/xlink"><!--Generated by IJSVG (https://github.com/iconjar/IJSVG)--><g stroke-linecap="round" stroke-width="1.5" stroke="#323232" fill="none" stroke-linejoin="round"><path d="M20.424,4.803v2.893h-2.893h2.893"></path><path d="M13.494,15.255h-3.818v-3.273h3.817c0.905,0 1.636,0.733 1.636,1.636v0c0.001,0.906 -0.73,1.637 -1.635,1.637Z"></path><path d="M9.676,11.983v-3.376h3.405c0.932,0 1.687,0.755 1.687,1.689v0c0,0.932 -0.755,1.687 -1.687,1.687"></path><path d="M11.808,7.636v0.967"></path><path d="M11.808,16.364v-1.091"></path><path d="M19.905,7.696c-1.526,-2.797 -4.493,-4.696 -7.905,-4.696c-4.971,0 -9,4.03 -9,9c0,4.97 4.029,9 9,9c4.971,0 9,-4.03 9,-9"></path></g><path fill="none" d="M0,0h24v24h-24v-24Z"></path></svg>