<?xml version="1.0" encoding="UTF-8"?><svg version="1.1" viewBox="0 0 24 24" xmlns="http://www.w3.org/2000/svg" xmlns:xlink="http://www.w3.org/1999/xlink"><!--Generated by IJSVG (https://github.com/iconjar/IJSVG)--><g stroke-linecap="round" stroke-width="1.5" stroke="#323232" fill="none" stroke-linejoin="round"><path d="M14,19.333h2.667c1.841,0 3.333,-1.492 3.333,-3.333"></path><path d="M15.667,21l-1.667,-1.667l1.667,-1.666"></path><path d="M10,4.667h-2.667c-1.841,0 -3.333,1.492 -3.333,3.333"></path><path d="M8.333,3l1.667,1.667l-1.667,1.666"></path><path d="M4,17.751v0.123c0,0.898 0.728,1.626 1.626,1.626h1.749c0.897,0 1.625,-0.728 1.625,-1.626v0c0,-0.755 -0.52,-1.411 -1.255,-1.583l-2.489,-0.583c-0.736,-0.171 -1.256,-0.827 -1.256,-1.582v0c0,-0.898 0.728,-1.626 1.626,-1.626h1.749c0.897,0 1.625,0.728 1.625,1.626v0.123"></path><path d="M18.277,11.5h-3.269c-0.004,0 -0.008,-0.004 -0.008,-0.008v-3.43c0,-0.004 0.004,-0.008 0.008,-0.008h3.269c0.952,-1.77636e-15 1.723,0.771 1.723,1.723v0c0,0.952 -0.771,1.723 -1.723,1.723Z"></path><path d="M15,8.054v-3.554h2.839c0.981,0 1.777,0.796 1.777,1.777v0c0,0.981 -0.801,1.777 -1.788,1.777"></path><path d="M17,4.5v-1"></path><path d="M17,12.5v-1"></path><path d="M6.5,12.5v-1"></path><path d="M6.5,20.5v-1"></path></g><path fill="none" d="M0,0h24v24h-24Z"></path></svg>