<?xml version="1.0" encoding="UTF-8"?><svg version="1.1" viewBox="0 0 24 24" xmlns="http://www.w3.org/2000/svg" xmlns:xlink="http://www.w3.org/1999/xlink"><!--Generated by IJSVG (https://github.com/iconjar/IJSVG)--><g stroke-linecap="round" stroke-width="1.5" stroke="#323232" fill="none" stroke-linejoin="round"><path d="M7.833,12.833h3.334v3.334h-3.334Z" transform="matrix(0.7071,0.7071,-0.7071,0.7071,13.0355,-2.4706)"></path><path d="M8,4h-2c-2.209,0 -4,1.791 -4,4"></path><path d="M6,2l2,2l-2,2"></path><path d="M16,20h2c2.209,0 4,-1.791 4,-4"></path><path d="M18,22l-2,-2l2,-2"></path><path d="M9.024,9.024c0.242,-2.814 2.599,-5.024 5.476,-5.024c3.038,0 5.5,2.462 5.5,5.5c0,2.877 -2.21,5.234 -5.024,5.476"></path><path d="M13.3891,10.6109c2.14788,2.14788 2.14788,5.63029 0,7.77817c-2.14788,2.14788 -5.63029,2.14788 -7.77817,0c-2.14788,-2.14788 -2.14788,-5.63029 -1.77636e-15,-7.77817c2.14788,-2.14788 5.63029,-2.14788 7.77817,-1.77636e-15"></path></g><path fill="none" d="M0,0h24v24h-24Z"></path></svg>