<?xml version="1.0" encoding="UTF-8"?><svg version="1.1" viewBox="0 0 24 24" xmlns="http://www.w3.org/2000/svg" xmlns:xlink="http://www.w3.org/1999/xlink"><!--Generated by IJSVG (https://github.com/iconjar/IJSVG)--><g stroke-linecap="round" stroke-width="1.5" stroke="#323232" fill="none" stroke-linejoin="round"><path d="M9.68,4.942c2.589,-2.59 6.788,-2.589 9.378,0c2.59,2.589 2.59,6.788 0,9.378"></path><path d="M16.264,14.368c0,3.663 -2.969,6.632 -6.632,6.632c-3.663,0 -6.632,-2.969 -6.632,-6.632c0,-3.663 2.969,-6.632 6.632,-6.632c3.663,-8.88178e-16 6.632,2.969 6.632,6.632"></path><path d="M10.871,17.067h-3.166v-2.714h3.165c0.749,0 1.357,0.608 1.357,1.357v0c0,0.749 -0.607,1.357 -1.356,1.357Z"></path><path d="M7.705,14.353v-2.799h2.822c0.773,0 1.399,0.626 1.399,1.399v0c0,0.773 -0.626,1.399 -1.399,1.399"></path><path d="M9.472,10.751v0.802"></path><path d="M9.472,17.985v-0.904"></path></g><path fill="none" d="M0,0h24v24h-24Z"></path></svg>