<?xml version="1.0" encoding="UTF-8"?><svg version="1.1" viewBox="0 0 24 24" xmlns="http://www.w3.org/2000/svg" xmlns:xlink="http://www.w3.org/1999/xlink"><!--Generated by IJSVG (https://github.com/iconjar/IJSVG)--><g fill="none"><path d="M0,0h24v24h-24Z"></path><path stroke="#323232" stroke-linecap="round" stroke-linejoin="round" stroke-width="1.5" d="M14.472,21h-9.472c-1.105,0 -2,-0.895 -2,-2v-9.472c0,-0.53 0.211,-1.039 0.586,-1.414l4.528,-4.528c0.375,-0.375 0.884,-0.586 1.414,-0.586h9.472c1.105,0 2,0.895 2,2v9.472c0,0.53 -0.211,1.039 -0.586,1.414l-4.528,4.528c-0.375,0.375 -0.884,0.586 -1.414,0.586Z"></path><path stroke="#323232" stroke-linecap="round" stroke-linejoin="round" stroke-width="1.5" d="M20.95,15h-9.95c-1.105,0 -2,-0.895 -2,-2v-9.922"></path><path stroke="#323232" stroke-linecap="round" stroke-linejoin="round" stroke-width="1.5" d="M3.072,9h9.928c1.105,0 2,0.895 2,2v9.934"></path></g></svg>