<?xml version="1.0" encoding="UTF-8"?><svg version="1.1" viewBox="0 0 24 24" xmlns="http://www.w3.org/2000/svg" xmlns:xlink="http://www.w3.org/1999/xlink"><!--Generated by IJSVG (https://github.com/iconjar/IJSVG)--><g fill="none"><path d="M0,0h24v24h-24v-24Z"></path><path stroke="#323232" stroke-linecap="round" stroke-linejoin="round" stroke-width="1.5" d="M18.429,17h-12.858c-1.42,0 -2.571,-1.151 -2.571,-2.571v-8.858c0,-1.42 1.151,-2.571 2.571,-2.571h12.857c1.421,0 2.572,1.151 2.572,2.571v8.857c0,1.421 -1.151,2.572 -2.571,2.572Z"></path><path stroke="#323232" stroke-linecap="round" stroke-linejoin="round" stroke-width="1.5" d="M14,17l0.5,4"></path><path stroke="#323232" stroke-linecap="round" stroke-linejoin="round" stroke-width="1.5" d="M10,17l-0.5,4"></path><path stroke="#323232" stroke-linecap="round" stroke-linejoin="round" stroke-width="1.5" d="M8.14,21h7.72"></path><path stroke="#323232" stroke-linecap="round" stroke-linejoin="round" stroke-width="1.5" d="M13.125,12.611h-3.062v-2.626h3.062c0.725,0 1.313,0.588 1.313,1.313v0c0,0.726 -0.588,1.313 -1.313,1.313Z"></path><path stroke="#323232" stroke-linecap="round" stroke-linejoin="round" stroke-width="1.5" d="M10.062,9.985v-2.707h2.731c0.748,0 1.354,0.606 1.354,1.354v0c0,0.748 -0.606,1.354 -1.354,1.354"></path><path stroke="#323232" stroke-linecap="round" stroke-linejoin="round" stroke-width="1.5" d="M11.772,6.5v0.776"></path><path stroke="#323232" stroke-linecap="round" stroke-linejoin="round" stroke-width="1.5" d="M11.772,13.5v-0.875"></path></g></svg>