<svg id="Layer_3" data-name="Layer 3" xmlns="http://www.w3.org/2000/svg" viewBox="0 0 24 24"><path d="M0,0H24V24H0Z" fill="none"/><path d="M21.29991,17.87875l-1.98146.83277a1.12936,1.12936,0,0,0-.60343.60321l-.83532,1.98554A1.14284,1.14284,0,0,1,15.73,21.17986l-1.68193-5.71277A1.14282,1.14282,0,0,1,15.46694,14.048l5.71276,1.68087A1.14282,1.14282,0,0,1,21.29991,17.87875Z" fill="none" stroke="#323232" stroke-linecap="round" stroke-linejoin="round" stroke-width="1.5"/><path d="M21,12V8a5,5,0,0,0-5-5H8A5,5,0,0,0,3,8v8a5,5,0,0,0,5,5h4" fill="none" stroke="#323232" stroke-linecap="round" stroke-linejoin="round" stroke-width="1.5"/><rect x="13.00002" y="7.49999" width="3" height="3" rx="1" stroke-width="1.5" stroke="#323232" stroke-linecap="round" stroke-linejoin="round" fill="none"/><rect x="7.50002" y="12.99999" width="3" height="3" rx="1" stroke-width="1.5" stroke="#323232" stroke-linecap="round" stroke-linejoin="round" fill="none"/><path d="M13,9H11.25A2.25,2.25,0,0,0,9,11.25V13" fill="none" stroke="#323232" stroke-linecap="round" stroke-linejoin="round" stroke-width="1.5"/><path d="M0,0H24V24H0Z" fill="none"/></svg>