<?xml version="1.0" encoding="UTF-8"?><svg version="1.1" viewBox="0 0 24 24" xmlns="http://www.w3.org/2000/svg" xmlns:xlink="http://www.w3.org/1999/xlink"><g stroke-linecap="round" stroke-width="1.5" stroke="#323232" fill="none" stroke-linejoin="round"><path d="M15.85 9.487l-2.281 3.613 5.14823e-08-8.14263e-08c-.35448.560659-.971679.900402-1.635.9v0l4.96767e-08-3.55271e-15c-1.06812 8.06407e-08-1.934-.865881-1.934-1.934 -3.55271e-15-3.44636e-08-5.32907e-15-6.19309e-08-5.32907e-15-9.63945e-08v0l-8.29292e-09-1.37832e-05c-.000396735-.663321.33935-1.28052.900012-1.63499l3.61299-2.28099 -1.81123e-08 1.14606e-08c.154972-.0980586.33461-.150078.518-.15v0h-2.09228e-08c.535164-2.33928e-08.969.433836.969.969 0 1.29643e-08 0 8.47836e-09 0 2.14426e-08v0l2.88402e-08 7.50939e-05c6.33184e-05.18339-.0519695.363024-.15004.517988Z"></path><rect width="18" height="18" x="3" y="3" rx="2.7614" ry="0"></rect><path d="M11.768 6.381l-3.24774e-09-8.12259e-07c.000551836.13807.112927.249551.250997.248999 .13807-.000551836.249551-.112927.248999-.250997 -.000550273-.137679-.112315-.248999-.249995-.249001l5.90969e-09 2.39258e-11c-.137518-.000556733-.249449.110472-.250006.24799 -4.06207e-06.00100337-2.05934e-06.00200675 6.00809e-06.00301009"></path><path d="M11.718 17.671l-3.24774e-09-8.12259e-07c.000551836.13807.112927.249551.250997.248999 .13807-.000551836.249551-.112927.248999-.250997 -.000550273-.137679-.112315-.248999-.249995-.249001l5.90969e-09 2.3924e-11c-.137518-.000556733-.249449.110472-.250006.24799 -4.06207e-06.00100337-2.05934e-06.00200675 6.00809e-06.00301009"></path><path d="M7.806 15.823l-1.76416e-08 1.76863e-08c-.0975076.0977544-.0973075.256046.000446927.353553 .0977544.0975076.256046.0973075.353553-.000446927 .0973333-.0975797.0973333-.255527-3.52833e-08-.353106l-1.20459e-09-1.22741e-09c-.0959371-.0977544-.252955-.0992276-.35071-.00329047 -.00110709.00108651-.00220396.00218338-.00329047.00329047"></path><path d="M17.636 11.8l4.62141e-09-1.84848e-11c-.13807.000552282-.24955.112928-.248998.250998 .000552282.13807.112928.24955.250998.248998 .137679-.000550718.248999-.112316.249-.249996l7.20102e-09-1.7803e-06c.000555747-.137518-.110474-.249448-.247992-.250004 -.00100337-4.05487e-06-.00200675-2.04494e-06-.00301009 6.02968e-06"></path><path d="M6.347 11.75l1.0941e-08-1.31301e-10c-.138061.00165685-.248639.114921-.246982.252982 .00165685.138061.114921.248639.252982.246982 .136884-.00164272.24699-.11307.247-.249964l7.20102e-09-1.7803e-06c.000555747-.137518-.110474-.249448-.247992-.250004 -.00100337-4.05487e-06-.00200675-2.04494e-06-.00301009 6.02968e-06"></path><path d="M16.142 15.857l5.67908e-09 5.70695e-09c-.0970023-.0974783-.25466-.0978641-.352138-.000861889 -.000287995.000286589-.000575289.000573882-.000861878.000861878l-1.05535e-09 1.05535e-09c-.0977544.0977544-.0977544.256246 2.1107e-09.354 .0977544.0977544.256246.0977544.354-2.1107e-09l1.10566e-08-1.09401e-08c.0977544-.096724.0985897-.25438.00186574-.352134 -.000618622-.000625213-.00124055-.00124714-.00186577-.00186577"></path><path d="M8.2 7.839l5.67908e-09 5.70695e-09c-.0970023-.0974783-.25466-.0978641-.352138-.000861889 -.000287995.000286589-.000575289.000573882-.000861878.000861878l3.0747e-09-3.0651e-09c-.0977837.0974783-.0980312.255769-.000552964.353553 .0974783.0977837.255769.0980312.353553.000552964 .0977837-.0974783.0980312-.255769.000552964-.353553 -.000184031-.000184608-.000368351-.000368927-.000552958-.000552958"></path></g><path fill="none" d="M0 0h24v24h-24Z"></path></svg>