<?xml version="1.0" encoding="UTF-8"?><svg version="1.1" viewBox="0 0 24 24" xmlns="http://www.w3.org/2000/svg" xmlns:xlink="http://www.w3.org/1999/xlink"><g fill="none"><path d="M0 0h24v24h-24Z"></path><path stroke="#323232" stroke-linecap="round" stroke-linejoin="round" stroke-width="1.5" d="M12 3.44v2"></path><path stroke="#323232" stroke-linecap="round" stroke-linejoin="round" stroke-width="1.5" d="M21 12h-2"></path><path stroke="#323232" stroke-linecap="round" stroke-linejoin="round" stroke-width="1.5" d="M3 12h2"></path><path stroke="#323232" stroke-linecap="round" stroke-linejoin="round" stroke-width="1.5" d="M18.36 5.64l-2.12 2.12"></path><path stroke="#323232" stroke-linecap="round" stroke-linejoin="round" stroke-width="1.5" d="M5.64 18.36l2-2"></path><path stroke="#323232" stroke-linecap="round" stroke-linejoin="round" stroke-width="1.5" d="M18.36 18.36l-2.12-2.12"></path><path stroke="#323232" stroke-linecap="round" stroke-linejoin="round" stroke-width="1.5" d="M5.64 5.64l2.12 2.12"></path><path stroke="#323232" stroke-linecap="round" stroke-linejoin="round" stroke-width="1.5" d="M18.364 5.63604c3.51472 3.51472 3.51472 9.2132 0 12.7279 -3.51472 3.51472-9.2132 3.51472-12.7279 0 -3.51472-3.51472-3.51472-9.2132-1.77636e-15-12.7279 3.51472-3.51472 9.2132-3.51472 12.7279-1.77636e-15"></path><path stroke="#323232" stroke-linecap="round" stroke-linejoin="round" stroke-width="1.4991" d="M10.547 11.042v0c-.755.755-.755 1.979 0 2.733l.006.006c.755.755 1.979.755 2.733 0v0l.002-.004 .001.001c.851-.851.846-2.692.817-3.324 -.006-.129-.102-.226-.232-.232 -.632-.029-2.473-.035-3.324.817"></path></g></svg>