<svg id="Layer_3" data-name="Layer 3" xmlns="http://www.w3.org/2000/svg" viewBox="0 0 24 24"><path d="M0,0H24V24H0Z" fill="none"/><line x1="8.5" y1="17.00671" x2="15.5" y2="17.00671" fill="none" stroke="#323232" stroke-linecap="round" stroke-linejoin="round" stroke-width="1.5"/><path d="M12.90869,7.73151l.90529,4.00584a1.85794,1.85794,0,0,1-.49954,1.7229h0a1.8589,1.8589,0,0,1-2.62887,0v0h0a1.85794,1.85794,0,0,1-.49954-1.7229l.90529-4.00584a.93043.93043,0,0,1,.25011-.454h0a.93138.93138,0,0,1,1.31716,0h0A.93043.93043,0,0,1,12.90869,7.73151Z" fill="none" stroke="#323232" stroke-linecap="round" stroke-linejoin="round" stroke-width="1.5"/><path d="M6.74284,19.797A8.9759,8.9759,0,0,1,3,12.481a9.32679,9.32679,0,0,1,8.71911-8.97667,8.99493,8.99493,0,0,1,5.50111,16.31914A3.822,3.822,0,0,1,14.99288,20.5H9.01124A3.86813,3.86813,0,0,1,6.74284,19.797Z" fill="none" stroke="#323232" stroke-linecap="round" stroke-linejoin="round" stroke-width="1.5"/></svg>