<?xml version="1.0" encoding="UTF-8"?><svg version="1.1" viewBox="0 0 24 24" xmlns="http://www.w3.org/2000/svg" xmlns:xlink="http://www.w3.org/1999/xlink"><g stroke-linecap="round" stroke-width="1.5" stroke="#323232" fill="none" stroke-linejoin="round"><path d="M12.007 10.313l1.6444e-08 6.81908e-11c-.932249-.00386584-1.69112.748737-1.69499 1.68099 -.00386584.932249.748737 1.69112 1.68099 1.69499 .932249.00386584 1.69112-.748737 1.69499-1.68099 1.10376e-05-.00266172 1.57794e-05-.00532346 1.42255e-05-.0079852l5.4416e-08 4.695e-05c-.00106372-.928913-.75205-1.68262-1.68095-1.68705"></path><path d="M13.2 10.8l3-3"></path></g><g transform="matrix(1 0 0 1 24 24)"><rect width="18" height="18" x="3" y="3" fill="none" rx="2.7614" ry="0" stroke="#323232" stroke-linecap="round" stroke-linejoin="round" stroke-width="1.5" transform="matrix(-1 1.22465e-16 -1.22465e-16 -1 0 0)"></rect></g><g stroke-linecap="round" stroke-width="1.5" stroke="#323232" fill="none" stroke-linejoin="round"><path d="M9.807 14.193l1-1"></path><path d="M5.5 12h.5"></path><path d="M18.5 12h-.5"></path><path d="M7.76 16.24l-.36.36"></path><path d="M12 18v.5"></path><path d="M12 5.5v.5"></path><path d="M16.24 16.24l.36.36"></path><path d="M7.4 7.4l.36.36"></path></g><path fill="none" d="M0 0h24v24h-24Z"></path></svg>