<?xml version="1.0" encoding="UTF-8"?><svg version="1.1" viewBox="0 0 24 24" xmlns="http://www.w3.org/2000/svg" xmlns:xlink="http://www.w3.org/1999/xlink"><!--Generated by IJSVG (https://github.com/iconjar/IJSVG)--><g stroke-linecap="round" stroke-width="1.5" stroke="#323232" fill="none" stroke-linejoin="round"><path d="M14,3h4.286c0.946,0 1.714,0.768 1.714,1.714v3.286"></path><path d="M9.999,7c0,1.105 -1.567,2 -3.5,2c-1.933,0 -3.499,-0.896 -3.499,-2"></path><path d="M3,4c0,1.105 1.567,2 3.5,2c1.933,0 3.5,-0.895 3.5,-2"></path><path d="M3,4c0.001,-1.104 1.568,-2 3.5,-2c1.932,0 3.5,0.895 3.499,2v6c0,1.105 -1.567,2 -3.5,2c-1.933,0 -3.499,-0.896 -3.499,-2v-6Z"></path><path d="M20.999,17c0,1.105 -1.567,2 -3.5,2c-1.933,0 -3.499,-0.896 -3.499,-2"></path><path d="M14,14c0,1.105 1.567,2 3.5,2c1.933,0 3.5,-0.895 3.5,-2"></path><path d="M14,14c0.001,-1.104 1.568,-2 3.5,-2c1.932,0 3.5,0.895 3.499,2v6c0,1.105 -1.567,2 -3.5,2c-1.933,0 -3.499,-0.896 -3.499,-2v-6Z"></path><path d="M10,21h-4.286c-0.946,0 -1.714,-0.768 -1.714,-1.714v-3.286"></path></g><path fill="none" d="M0,0h24v24h-24v-24Z"></path></svg>