<?xml version="1.0" encoding="UTF-8"?><svg version="1.1" viewBox="0 0 24 24" xmlns="http://www.w3.org/2000/svg" xmlns:xlink="http://www.w3.org/1999/xlink"><g stroke-linecap="round" stroke-width="1.5" stroke="#323232" fill="none" stroke-linejoin="round"><path d="M16.5 12v0c0 2.48528-2.01472 4.5-4.5 4.5 -2.48528 0-4.5-2.01472-4.5-4.5 0-2.48528 2.01472-4.5 4.5-4.5l5.95123e-08-9.27916e-11c2.48141-.00386898 4.49613 2.00458 4.5 4.48599 7.28186e-06.0046703 7.2818e-06.00934062-1.8558e-10.0140109Z"></path><path d="M8.819 15.181l6.362-6.362"></path><path d="M15.6 21h-7.2l-2.36042e-07-3.55271e-15c-2.98234-1.30362e-07-5.4-2.41766-5.4-5.4 0 0 0-1.77636e-15 0-1.77636e-15v-7.2l6.21725e-14 8.15377e-07c-4.5032e-07-2.98234 2.41766-5.4 5.4-5.4h7.2l-6.43944e-08 8.88178e-15c2.98234-4.85884e-07 5.4 2.41766 5.4 5.4 4.26326e-14 2.75284e-07 6.75016e-14 5.40093e-07 7.10543e-14 8.15377e-07v7.2 6.43944e-08c0 2.98234-2.41766 5.4-5.4 5.4 0 0-6.43944e-08-3.55271e-15-6.43944e-08-3.55271e-15Z"></path></g><path fill="none" d="M24 24h-24v-24h24Z"></path></svg>