<?xml version="1.0" encoding="UTF-8"?><svg version="1.1" viewBox="0 0 24 24" xmlns="http://www.w3.org/2000/svg" xmlns:xlink="http://www.w3.org/1999/xlink"><g stroke-linecap="round" stroke-width="1.5" stroke="#323232" fill="none" stroke-linejoin="round"><path d="M21 10v-5c0-1.105-.895-2-2-2h-14c-1.105 0-2 .895-2 2v13c0 1.105.895 2 2 2h4"></path><path d="M15 3v4.434c0 .552-.448 1-1 1h-4c-.552 0-1-.448-1-1v-4.434"></path><path d="M21 21l-1.98-1.98"></path><path d="M15.834 11.334c2.485 0 4.5 2.015 4.5 4.5 0 2.485-2.015 4.5-4.5 4.5 -2.485 0-4.5-2.015-4.5-4.5 0-2.485 2.015-4.5 4.5-4.5"></path><path d="M17.584 14.959l-2.188 2.188 -1.313-1.313"></path></g><path fill="none" d="M0 0h24v24h-24v-24Z"></path></svg>