<svg id="Layer_3" data-name="Layer 3" xmlns="http://www.w3.org/2000/svg" viewBox="0 0 24 24"><rect y="0.00001" width="24" height="24" fill="none"/><path d="M15.28573,11.07144H9.9524a1,1,0,0,1-1-1V7" fill="none" stroke="#323232" stroke-linecap="round" stroke-linejoin="round" stroke-width="1.5"/><path d="M3,7A4,4,0,0,1,7,3H17a4,4,0,0,1,4,4V17a4,4,0,0,1-4,4H7a4,4,0,0,1-4-4" fill="none" stroke="#323232" stroke-linecap="round" stroke-linejoin="round" stroke-width="1.5"/><line x1="2.80665" y1="14.00001" x2="5" y2="14.00001" fill="none" stroke="#323232" stroke-linecap="round" stroke-linejoin="round" stroke-width="1.5"/><line x1="1.79456" y1="11.00907" x2="5" y2="11.00907" fill="none" stroke="#323232" stroke-linecap="round" stroke-linejoin="round" stroke-width="1.5"/><circle cx="14.5" cy="16.50001" r="1.5" fill="none" stroke="#323232" stroke-linecap="round" stroke-linejoin="round" stroke-width="1.5"/><path d="M7,7H9.41667a4.5,4.5,0,0,1,3.6,1.8l1.081,1.44134a1.99992,1.99992,0,0,0,.70557.58885l2.09119,1.04559A2,2,0,0,1,18,13.66465V15.25a1.25,1.25,0,0,1-1.25,1.25H16" fill="none" stroke="#323232" stroke-linecap="round" stroke-linejoin="round" stroke-width="1.5"/><line x1="13" y1="16.50001" x2="7" y2="16.50001" fill="none" stroke="#323232" stroke-linecap="round" stroke-linejoin="round" stroke-width="1.5"/></svg>