<?xml version="1.0" encoding="UTF-8"?><svg version="1.1" viewBox="0 0 24 24" xmlns="http://www.w3.org/2000/svg" xmlns:xlink="http://www.w3.org/1999/xlink"><!--Generated by IJSVG (https://github.com/iconjar/IJSVG)--><g stroke-linecap="round" stroke-width="1.5" fill-rule="evenodd" stroke="#323232" fill="none" stroke-linejoin="round"><path d="M20.926,15.999v-7.998c0,-0.715 -0.381,-1.375 -1,-1.732l-6.926,-3.999c-0.619,-0.357 -1.381,-0.357 -2,0l-6.926,3.999c-0.619,0.357 -1,1.018 -1,1.732v7.997c0,0.715 0.381,1.375 1,1.732l6.926,4c0.619,0.357 1.381,0.357 2,0l6.926,-3.999c0.619,-0.357 1,-1.018 1,-1.732Z"></path><path d="M6.17,12.63l3,1.74"></path></g><path fill="none" stroke="#323232" stroke-linecap="round" stroke-linejoin="round" stroke-width="1.5" d="M3.342,7.001l8.658,4.999l8.658,-4.999"></path><g stroke-linecap="round" stroke-width="1.5" stroke="#323232" fill="none" stroke-linejoin="round"><path d="M12,22v-10"></path><path d="M7.67,9.5l8.93,-5.15"></path></g><path fill="none" d="M0,0h24v24h-24v-24Z"></path></svg>