<?xml version="1.0" encoding="UTF-8"?><svg version="1.1" viewBox="0 0 24 24" xmlns="http://www.w3.org/2000/svg" xmlns:xlink="http://www.w3.org/1999/xlink"><!--Generated by IJSVG (https://github.com/iconjar/IJSVG)--><g stroke-linecap="round" stroke-width="1.5" fill-rule="evenodd" stroke="#323232" fill="none" stroke-linejoin="round"><path d="M15,8h4.323c0.409,0 0.777,0.249 0.928,0.629l1.606,4.014c0.094,0.236 0.143,0.488 0.143,0.742v5.948c0,0.552 -0.448,1 -1,1h-1.831"></path><path d="M16,20.42h-7.83"></path></g><path fill="none" stroke="#323232" stroke-linecap="round" stroke-linejoin="round" stroke-width="1.5" d="M22,15h-4v-4h3.2"></path><g stroke-linecap="round" stroke-width="1.5" stroke="#323232" fill="none" stroke-linejoin="round"><path d="M12.556,6h1.444c0.552,0 1,0.448 1,1v9h-13"></path><path d="M7.739,2.05c-1.751,0.268 -3.183,1.7 -3.451,3.451c-0.43,2.81 1.956,5.196 4.766,4.766c1.751,-0.268 3.183,-1.7 3.451,-3.451c0.431,-2.81 -1.956,-5.196 -4.766,-4.766Z"></path><path d="M18.7041,19.2959c0.61859,0.61859 0.61859,1.62152 0,2.24011c-0.61859,0.61859 -1.62152,0.61859 -2.24011,0c-0.61859,-0.61859 -0.61859,-1.62152 0,-2.24011c0.61859,-0.61859 1.62152,-0.61859 2.24011,0"></path><path d="M7.70406,19.2959c0.61859,0.61859 0.61859,1.62152 0,2.24011c-0.61859,0.61859 -1.62152,0.61859 -2.24011,0c-0.61859,-0.61859 -0.61859,-1.62152 0,-2.24011c0.61859,-0.61859 1.62152,-0.61859 2.24011,0"></path><path d="M5,20.416h-2c-0.552,0 -1,-0.448 -1,-1v-12.416c0,-0.552 0.448,-1 1,-1h1.238"></path><path d="M10,6h-2v-1.841"></path></g><path fill="none" d="M0,0h24v24h-24v-24Z"></path></svg>