<?xml version="1.0" encoding="UTF-8"?><svg version="1.1" viewBox="0 0 24 24" xmlns="http://www.w3.org/2000/svg" xmlns:xlink="http://www.w3.org/1999/xlink"><g fill="none"><path d="M0 0h24v24h-24v-24Z"></path><path stroke="#323232" stroke-linecap="round" stroke-linejoin="round" stroke-width="1.5" d="M21 10v-5c0-1.105-.895-2-2-2h-14c-1.105 0-2 .895-2 2v14c0 1.105.895 2 2 2h6"></path><path stroke="#323232" stroke-linecap="round" stroke-linejoin="round" stroke-width="1.5" d="M15 3.077v4.489c0 .552-.448 1-1 1h-4c-.552 0-1-.448-1-1v-4.566"></path><path stroke="#323232" stroke-linecap="round" stroke-linejoin="round" stroke-width="1.5" d="M18.287 20.707l3.42-3.42c.391-.391.391-1.024 0-1.414l-1.586-1.586c-.391-.391-1.024-.391-1.414 0l-3.42 3.42c-.188.188-.293.442-.293.707v2.586h2.586c.265 0 .519-.105.707-.293Z"></path></g></svg>