<?xml version="1.0" encoding="UTF-8"?><svg version="1.1" viewBox="0 0 24 24" xmlns="http://www.w3.org/2000/svg" xmlns:xlink="http://www.w3.org/1999/xlink"><!--Generated by IJSVG (https://github.com/iconjar/IJSVG)--><path d="M17.196,14.423v-4.846c0,-0.357 -0.191,-0.687 -0.5,-0.866l-4.196,-2.422c-0.309,-0.179 -0.691,-0.179 -1,0l-4.196,2.422c-0.309,0.179 -0.5,0.509 -0.5,0.866v4.845c0,0.357 0.191,0.687 0.5,0.866l4.196,2.423c0.309,0.179 0.691,0.179 1,0l4.196,-2.423c0.31,-0.178 0.5,-0.508 0.5,-0.865Z" stroke-linecap="round" stroke-width="1.25" fill-rule="evenodd" stroke="#323232" fill="none" stroke-linejoin="round"></path><path fill="none" stroke="#323232" stroke-linecap="round" stroke-linejoin="round" stroke-width="1.3825" d="M7.5,3h-2.5c-1.105,0 -2,0.895 -2,2v2.5"></path><g stroke-linecap="round" stroke-width="1.3825" stroke="#323232" fill="none" stroke-linejoin="round"><path d="M3,16.5v2.5c0,1.105 0.895,2 2,2h2.5"></path><path d="M16.5,21h2.5c1.105,0 2,-0.895 2,-2v-2.5"></path><path d="M21,7.5v-2.5c0,-1.105 -0.895,-2 -2,-2h-2.5"></path><path stroke-width="1.25" d="M12,17.84v-5.84"></path><path stroke-width="1.25" d="M6.938,9.077l5.062,2.923l5.062,-2.923"></path></g><path fill="none" d="M0,0h24v24h-24v-24Z"></path></svg>