<?xml version="1.0" encoding="UTF-8"?><svg version="1.1" viewBox="0 0 24 24" xmlns="http://www.w3.org/2000/svg" xmlns:xlink="http://www.w3.org/1999/xlink"><g stroke-linecap="round" stroke-width="1.5" stroke="#323232" fill="none" stroke-linejoin="round"><path d="M12 21h-7c-1.105 0-2-.895-2-2v-14c0-1.105.895-2 2-2h14c1.105 0 2 .895 2 2v7"></path><path d="M14.767 18.691c-.274-.416-.274-.964 0-1.38 .848-1.283 2.18-2.311 3.513-2.311 1.333 0 2.664 1.028 3.513 2.31 .275.416.275.965 0 1.38 -.85 1.282-2.181 2.31-3.513 2.31 -1.333.001-2.665-1.027-3.513-2.309Z"></path><path d="M18.38 17.901c.056.056.056.145 0 .201 -.056.056-.145.056-.201 0 -.056-.056-.056-.145 0-.201 .056-.056.146-.056.201 0"></path><path d="M15 3v5c0 .552-.448 1-1 1h-4c-.552 0-1-.448-1-1v-5"></path></g><path fill="none" d="M0 0h24v24h-24v-24Z"></path></svg>