<svg id="Layer_3" data-name="Layer 3" xmlns="http://www.w3.org/2000/svg" viewBox="0 0 24 24"><rect y="0.00001" width="24" height="24" fill="none"/><rect x="7.5" y="8" width="9" height="8" rx="2" stroke-width="1.5" stroke="#323232" stroke-linecap="round" stroke-linejoin="round" fill="none"/><path d="M10.5,8h3a0,0,0,0,1,0,0v2.5a.5.5,0,0,1-.5.5H11a.5.5,0,0,1-.5-.5V8A0,0,0,0,1,10.5,8Z" fill="none" stroke="#323232" stroke-linecap="round" stroke-linejoin="round" stroke-width="1.5"/><path d="M3,12a8.95077,8.95077,0,0,0,1.63043,5.15686l-.632,2.844,2.84388-.63195A8.99566,8.99566,0,1,0,3,12Z" fill="none" stroke="#323232" stroke-linecap="round" stroke-linejoin="round" stroke-width="1.5"/></svg>