<?xml version="1.0" encoding="UTF-8"?><svg version="1.1" viewBox="0 0 24 24" xmlns="http://www.w3.org/2000/svg" xmlns:xlink="http://www.w3.org/1999/xlink"><g stroke-linecap="round" stroke-width="1.5" stroke="#323232" fill="none" stroke-linejoin="round"><line x1="17" x2="18" y1="7.5" y2="7.5"></line><line x1="17" x2="18" y1="10.5" y2="10.5"></line><line x1="6" x2="7" y1="7.5" y2="7.5"></line><line x1="6" x2="7" y1="10.5" y2="10.5"></line><path d="M12 20.5v0c4.971 0 9-3.029 9-8v-5 0c0-2.20914-1.79086-4-4-4h-10l-1.74846e-07 3.9968e-15c-2.20914 9.65645e-08-4 1.79086-4 4 0 8.88178e-16 0 2.66454e-15 0 2.66454e-15v5c-3.9968e-15 4.971 4.029 8 9 8Z"></path><path d="M12 20.5v0c-4.971 0-9-3.029-9-8v-5l4.61853e-14 6.03983e-07c-3.33571e-07-2.20914 1.79086-4 4-4h10l-1.74846e-07 3.9968e-15c2.20914-9.65645e-08 4 1.79086 4 4v5c3.55271e-15 4.971-4.029 8-9 8Z"></path><path d="M9 20.1v-1.6 0c0-2.76142-2.23858-5-5-5h-.943"></path></g><g transform="matrix(1 0 0 1 9.879 -5.849)"><rect width="3.875" height="3.875" x="10.062" y="7.062" fill="none" rx=".653347" ry="0" stroke="#323232" stroke-linecap="round" stroke-linejoin="round" stroke-width="1.5" transform="matrix(.707107 .707107 -.707107 .707107 0 0)"></rect></g><path d="M15 20.1v-1.6l5.68434e-14 7.54979e-07c-4.16963e-07-2.76142 2.23858-5 5-5h.943" stroke-linecap="round" stroke-width="1.5" stroke="#323232" fill="none" stroke-linejoin="round"></path><rect width="24" height="24" fill="none"></rect></svg>