<?xml version="1.0" encoding="UTF-8"?><svg version="1.1" viewBox="0 0 24 24" xmlns="http://www.w3.org/2000/svg" xmlns:xlink="http://www.w3.org/1999/xlink"><!--Generated by IJSVG (https://github.com/iconjar/IJSVG)--><g fill="none"><path d="M0,0h24v24h-24Z"></path><path stroke="#323232" stroke-linecap="round" stroke-linejoin="round" stroke-width="1.5" d="M19.5,10v3"></path><path stroke="#323232" stroke-linecap="round" stroke-linejoin="round" stroke-width="1.5" d="M18,11.5h3"></path><path stroke="#323232" stroke-linecap="round" stroke-linejoin="round" stroke-width="1.5" d="M5.56066,11.4393c0.585786,0.585786 0.585786,1.53553 0,2.12132c-0.585786,0.585786 -1.53553,0.585786 -2.12132,0c-0.585786,-0.585786 -0.585786,-1.53553 -4.44089e-16,-2.12132c0.585786,-0.585786 1.53553,-0.585786 2.12132,0"></path><path stroke="#323232" stroke-linecap="round" stroke-linejoin="round" stroke-width="1.5" d="M15.661,15.349l-2.405,2.405c-0.967,0.967 -2.536,0.967 -3.503,0l-0.002,-0.002c-0.967,-0.967 -0.967,-2.536 0,-3.503l4.497,-4.497c0.967,-0.967 0.967,-2.536 0,-3.503v0c-0.968,-0.969 -2.538,-0.968 -3.505,0.001l-2.743,2.75"></path></g></svg>