<svg id="Layer_3" data-name="Layer 3" xmlns="http://www.w3.org/2000/svg" viewBox="0 0 24 24"><path d="M0,24V0H24V24Z" fill="none"/><rect x="2.5" y="2.5" width="19" height="19" rx="5.27778" stroke-width="1.5" stroke="#323232" stroke-linecap="round" stroke-linejoin="round" fill="none"/><path d="M7,12A4.95525,4.95525,0,0,1,8.01239,9.01238" fill="none" stroke="#323232" stroke-linecap="round" stroke-linejoin="round" stroke-width="1.5"/><path d="M10.31653,7.31652A4.78029,4.78029,0,0,1,12,7" fill="none" stroke="#323232" stroke-linecap="round" stroke-linejoin="round" stroke-width="1.5"/><path d="M17,12a4.95525,4.95525,0,0,0-1.01239-2.98761" fill="none" stroke="#323232" stroke-linecap="round" stroke-linejoin="round" stroke-width="1.5"/><path d="M13.68347,7.31652A4.78029,4.78029,0,0,0,12,7" fill="none" stroke="#323232" stroke-linecap="round" stroke-linejoin="round" stroke-width="1.5"/><path d="M10.38145,15.922l1.61969-.6608,1.61529.65969a1,1,0,0,0,1.22991-1.44952l-1.99549-3.24523a1,1,0,0,0-1.70375.00015l-1.99532,3.2462A1,1,0,0,0,10.38145,15.922Z" fill="none" stroke="#323232" stroke-linecap="round" stroke-linejoin="round" stroke-width="1.5"/></svg>