<svg id="Layer_3" data-name="Layer 3" xmlns="http://www.w3.org/2000/svg" viewBox="0 0 24 24"><path d="M0,0H24V24H0Z" fill="none"/><path d="M6.499,5.245a.25.25,0,1,0,.251.25.24868.24868,0,0,0-.251-.25" fill="none" stroke="#323232" stroke-linecap="round" stroke-linejoin="round" stroke-width="1.5"/><path d="M3,5.5H3A3.5,3.5,0,0,1,6.5,2h0A3.5,3.5,0,0,1,10,5.5h0c0,1.63851-1.788,3.38881-2.808,4.25435a1.09611,1.09611,0,0,1-1.383,0C4.788,8.88881,3,7.13851,3,5.5Z" fill="none" stroke="#323232" stroke-linecap="round" stroke-linejoin="round" stroke-width="1.5"/><path d="M16,17.2a1,1,0,0,1,1.51452-.85751l3,1.8a1,1,0,0,1,0,1.715l-3,1.8A1,1,0,0,1,16,20.8Z" fill="none" stroke="#323232" stroke-linecap="round" stroke-linejoin="round" stroke-width="1.5"/><path d="M12.234,18.995H8.627A2.83164,2.83164,0,0,1,6,15.996v-.003a2.83164,2.83164,0,0,1,2.627-2.999h6.745a2.83164,2.83164,0,0,0,2.627-2.999h0a2.82962,2.82962,0,0,0-2.629-3L13,7" fill="none" stroke="#323232" stroke-linecap="round" stroke-linejoin="round" stroke-width="1.5"/></svg>