<svg viewBox="0 0 24 24" xmlns="http://www.w3.org/2000/svg"><g fill="none"><path d="M0 0h24v24H0Z"/><g stroke-linecap="round" stroke-width="1.5" stroke="#323232" fill="none" stroke-linejoin="round"><path d="M18 6l2.5-2.5"/><path d="M18 3.5L20.5 6"/><path d="M14 3.26l0 0c-.66-.17-1.33-.26-2-.27l-.01 0c-4.98 0-9 4.02-9 9 0 4.97 4.02 9 9 8.99 4.97-.01 9-4.03 8.99-9.01l0 0c-.02-.68-.11-1.35-.27-2"/><path d="M9.38 15.17l2.23-.92 -.01 0c.24-.1.51-.1.75-.001l2.24.91 0 0c.51.2 1.09-.04 1.3-.55 .11-.28.09-.6-.05-.86l-3-5.5 0 0c-.27-.49-.88-.67-1.36-.4 -.17.09-.31.23-.4.39l-3 5.49 -.01 0c-.27.48-.09 1.09.39 1.35 .26.14.57.16.85.04Z"/></g></g></svg>