<svg id="Layer_3" data-name="Layer 3" xmlns="http://www.w3.org/2000/svg" viewBox="0 0 24 24"><path d="M0,0H24V24H0Z" fill="none"/><path d="M8,17H6a3,3,0,0,1-3-3V6A3,3,0,0,1,6,3H18a3,3,0,0,1,3,3v5" fill="none" stroke="#323232" stroke-linecap="round" stroke-linejoin="round" stroke-width="1.5"/><path d="M19.55583,22H15.05237a2,2,0,0,1-1.66416-.89068L11.26129,17.9186a1.55581,1.55581,0,0,1,.19443-1.96308h0a1.55582,1.55582,0,0,1,2.20028,0l.844.844V11.5A1.5,1.5,0,0,1,16,10h0a1.5,1.5,0,0,1,1.5,1.5v2.51306l2.82178.46021a2,2,0,0,1,1.6626,2.22187l-.444,3.55285A2,2,0,0,1,19.55583,22Z" fill="none" stroke="#323232" stroke-linecap="round" stroke-linejoin="round" stroke-width="1.5"/><path d="M7.198,10.30124l3.10248-3.10248" fill="none" stroke="#323232" stroke-linecap="round" stroke-linejoin="round" stroke-width="1.5"/><path d="M7,7.07472a.075.075,0,1,1,0,.00056V7.07472" fill="none" stroke="#323232" stroke-linecap="round" stroke-linejoin="round" stroke-width="1.5"/><path d="M10.5,10.42528a.075.075,0,1,1,0-.00056v.00056" fill="none" stroke="#323232" stroke-linecap="round" stroke-linejoin="round" stroke-width="1.5"/></svg>