<?xml version="1.0" encoding="UTF-8"?><svg version="1.1" viewBox="0 0 24 24" xmlns="http://www.w3.org/2000/svg" xmlns:xlink="http://www.w3.org/1999/xlink"><g stroke-linecap="round" stroke-width="1.5" stroke="#323232" fill="none" stroke-linejoin="round"><path d="M10.749 13.25l2.5-2.5"></path><path d="M13.628 13.559l3.45605e-09 3.45605e-09c.0196061.0196061.0196061.0513939-6.9121e-09.071 -.0196061.0196061-.0513939.0196061-.071-6.9121e-09l1.14997e-09 1.14058e-09c-.0196061-.019446-.0197359-.051104-.000289919-.0707101 9.62421e-05-9.70346e-05.000192882-.000193674.000289916-.000289916l4.54008e-09-4.40168e-09c.0197814-.0191783.0512186-.0191783.071 8.80336e-09"></path><path d="M17.25 12v0c0 2.89949-2.35051 5.25-5.25 5.25 -2.89949 0-5.25-2.35051-5.25-5.25 0-2.89949 2.35051-5.25 5.25-5.25l-2.68112e-07 4.09495e-10c2.89507-.0044218 5.24558 2.33891 5.25 5.23399 8.15211e-06.00533741 8.15238e-06.0106748 8.16062e-10.0160122Z"></path><path d="M3.5 13.464l1.2 1.565 .258 1.946 4.39402e-08 3.32957e-07c.14225 1.0779.987799 1.92754 2.065 2.075l1.952.26 1.562 1.19 7.45661e-08 5.70107e-08c.864769.661172 2.06523.661172 2.93-1.14021e-07l1.564-1.194v0l1.948-.258 2.93793e-09-3.90365e-10c1.08006-.143509 1.92997-.993004 2.074-2.073l.26-1.952 1.2-1.563 1.14169e-07-1.49487e-07c.660153-.86437.660153-2.06363-2.28339e-07-2.928l-1.2-1.565 -.258-1.946 4.82722e-09 3.59321e-08c-.145071-1.07986-.995796-1.92853-2.076-2.071l-1.952-.26 -1.562-1.19 1.0055e-07 7.68773e-08c-.864768-.661172-2.06523-.661172-2.93-1.53755e-07l-1.564 1.19v0l-1.948.258 -1.41001e-07 1.8857e-08c-1.07929.144341-1.92818.993644-2.072 2.073l-.26 1.952 -1.191 1.563 9.67916e-08-1.26567e-07c-.660843.864137-.660843 2.06386-1.93583e-07 2.928Z"></path><path d="M10.372 10.441l-2.11665e-10-2.11665e-10c-.0196061-.0196061-.0196061-.0513939 4.23332e-10-.071 .0196061-.0196061.0513939-.0196061.071 4.23332e-10l2.09441e-09 2.07731e-09c.0196061.019446.0197359.051104.000289912.0707101 -9.62421e-05 9.70346e-05-.000192882.000193674-.000289916.000289916l-1.19368e-09 1.15729e-09c-.0197814.0191783-.0512186.0191783-.071-2.31458e-09"></path></g><path fill="none" d="M0 0h24v24h-24Z"></path></svg>