<svg id="Layer_3" data-name="Layer 3" xmlns="http://www.w3.org/2000/svg" viewBox="0 0 24 24"><line x1="14.101" y1="12.405" x2="14.49975" y2="14" fill="none" stroke="#323232" stroke-linecap="round" stroke-linejoin="round" stroke-width="1.5"/><line x1="16" y1="7" x2="8" y2="7" fill="none" stroke="#323232" stroke-linecap="round" stroke-linejoin="round" stroke-width="1.5"/><path d="M10,3h4a2,2,0,0,1,2,2V9a4,4,0,0,1-4,4h0A4,4,0,0,1,8,9V5A2,2,0,0,1,10,3Z" fill="none" stroke="#323232" stroke-linecap="round" stroke-linejoin="round" stroke-width="1.5"/><line x1="9.901" y1="12.405" x2="9.158" y2="15.377" fill="none" stroke="#323232" stroke-linecap="round" stroke-linejoin="round" stroke-width="1.5"/><path d="M13,16.06421a5.37046,5.37046,0,0,1-4.063-.8252.905.905,0,0,0-.679-.134l-2.846.569A3,3,0,0,0,3,18.616V19" fill="none" stroke="#323232" stroke-linecap="round" stroke-linejoin="round" stroke-width="1.5"/><line x1="8" y1="15.15656" x2="8" y2="19" fill="none" stroke="#323232" stroke-linecap="round" stroke-linejoin="round" stroke-width="1.5"/><circle cx="8" cy="20.5" r="1.5" fill="none" stroke="#323232" stroke-linecap="round" stroke-linejoin="round" stroke-width="1.5"/><path d="M17.8303,16.51723l.1697.1723.17541-.1854a1.59479,1.59479,0,0,1,2.305-.02314l.03566.03621a1.70808,1.70808,0,0,1,0,2.38246l-1.75428,1.78127a1.06892,1.06892,0,0,1-1.52357,0L15.484,18.8997a1.70809,1.70809,0,0,1,0-2.38247h0A1.64617,1.64617,0,0,1,17.8303,16.51723Z" fill="none" stroke="#323232" stroke-linecap="round" stroke-linejoin="round" stroke-width="1.5"/><path d="M0,0H24V24H0Z" fill="none"/></svg>