<?xml version="1.0" encoding="UTF-8"?><svg version="1.1" viewBox="0 0 24 24" xmlns="http://www.w3.org/2000/svg" xmlns:xlink="http://www.w3.org/1999/xlink"><g stroke-linecap="round" stroke-width="1.5" stroke="#323232" fill="none" stroke-linejoin="round"><path d="M13.432 20.037h-1.432 -4.37114e-08c-.552285-2.41411e-08-1-.447715-1-1 0 0 0-3.55271e-15 0-3.55271e-15v-3.037l1.06581e-14 1.50996e-07c-8.33927e-08-.552285.447715-1 1-1h8l-4.37114e-08 1.77636e-15c.552285-2.41411e-08 1 .447715 1 1v3.037 0c0 .552285-.447715 1-1 1h-1.432"></path><path d="M13.5 18h5v3 0c0 .552285-.447715 1-1 1h-3 -4.37114e-08c-.552285-2.41411e-08-1-.447715-1-1 0 0 0-3.55271e-15 0-3.55271e-15Z"></path><path d="M14 12h4l-4.37114e-08 1.77636e-15c.552285-2.41411e-08 1 .447715 1 1v2h-6v-2l1.06581e-14 1.50996e-07c-8.33927e-08-.552285.447715-1 1-1Z"></path><line x1="8" x2="12" y1="8" y2="8"></line><line x1="8" x2="10" y1="12" y2="12"></line><path d="M19 9v-4 0c0-1.10457-.895431-2-2-2h-11l-8.74228e-08 1.77636e-15c-1.10457 4.82823e-08-2 .895431-2 2 0 0 0 0 0 0v13l2.30926e-14 3.01992e-07c1.66785e-07 1.10457.895431 2 2 2h2"></path></g><path fill="none" d="M0 0h24v24h-24Z"></path></svg>