<svg id="Layer_3" data-name="Layer 3" xmlns="http://www.w3.org/2000/svg" viewBox="0 0 24 24"><path d="M24,0H0V24H24Z" fill="none"/><path d="M4,8.5H7.5a2,2,0,0,0,2-2V3" fill="none" stroke="#323232" stroke-linecap="round" stroke-linejoin="round" stroke-width="1.5"/><path d="M15,21H7a3,3,0,0,1-3-3V8.50931A3,3,0,0,1,4.87868,6.388L7.388,3.87868A3,3,0,0,1,9.50931,3H17a3,3,0,0,1,3,3V9" fill="none" stroke="#323232" stroke-linecap="round" stroke-linejoin="round" stroke-width="1.5"/><line x1="13" y1="15" x2="15" y2="15" fill="none" stroke="#323232" stroke-linecap="round" stroke-linejoin="round" stroke-width="1.5"/><line x1="14" y1="18" x2="15" y2="18" fill="none" stroke="#323232" stroke-linecap="round" stroke-linejoin="round" stroke-width="1.5"/><line x1="20" y1="12" x2="20" y2="12.80786" fill="none" stroke="#323232" stroke-linecap="round" stroke-linejoin="round" stroke-width="1.5"/><path d="M18,14.42358a1.83893,1.83893,0,0,1,2-1.61572" fill="none" stroke="#323232" stroke-linecap="round" stroke-linejoin="round" stroke-width="1.5"/><line x1="20" y1="20" x2="20" y2="19.19214" fill="none" stroke="#323232" stroke-linecap="round" stroke-linejoin="round" stroke-width="1.5"/><path d="M22,17.57642a1.83893,1.83893,0,0,1-2,1.61572" fill="none" stroke="#323232" stroke-linecap="round" stroke-linejoin="round" stroke-width="1.5"/><path d="M21.94907,14.07108A1.95077,1.95077,0,0,0,20,12.80786" fill="none" stroke="#323232" stroke-linecap="round" stroke-linejoin="round" stroke-width="1.5"/><path d="M18.05093,17.92892A1.95077,1.95077,0,0,0,20,19.19214" fill="none" stroke="#323232" stroke-linecap="round" stroke-linejoin="round" stroke-width="1.5"/><path d="M18,14.42358h0a1.435,1.435,0,0,0,1.15357,1.40713l1.69286.33858A1.435,1.435,0,0,1,22,17.57642h0" fill="none" stroke="#323232" stroke-linecap="round" stroke-linejoin="round" stroke-width="1.5"/></svg>