<?xml version="1.0" encoding="UTF-8"?><svg version="1.1" viewBox="0 0 24 24" xmlns="http://www.w3.org/2000/svg" xmlns:xlink="http://www.w3.org/1999/xlink"><!--Generated by IJSVG (https://github.com/iconjar/IJSVG)--><g fill="none"><path d="M0,0h24v24h-24v-24Z"></path><path stroke="#323232" stroke-linecap="round" stroke-linejoin="round" stroke-width="1.5" d="M14,10v2.5c0,0.828 0.672,1.5 1.5,1.5v0c0.828,0 1.5,-0.672 1.5,-1.5v-7c0,-1.381 -1.119,-2.5 -2.5,-2.5v0c-1.381,0 -2.5,1.119 -2.5,2.5v0.5"></path><path stroke="#323232" stroke-linecap="round" stroke-linejoin="round" stroke-width="1.5" d="M19,17.333h-11c-0.921,0 -1.667,-0.746 -1.667,-1.667v-7.666c0,-1.105 0.895,-2 2,-2h10.667c1.105,0 2,0.895 2,2v7.333c0,1.105 -0.895,2 -2,2Z"></path><path stroke="#323232" stroke-linecap="round" stroke-linejoin="round" stroke-width="1.5" d="M18,17.333v1.667c0,1.105 -0.895,2 -2,2h-11c-1.105,0 -2,-0.895 -2,-2v-9c0,-1.105 0.895,-2 2,-2h1.333"></path></g></svg>