<?xml version="1.0" encoding="UTF-8"?><svg version="1.1" viewBox="0 0 24 24" xmlns="http://www.w3.org/2000/svg" xmlns:xlink="http://www.w3.org/1999/xlink"><!--Generated by IJSVG (https://github.com/iconjar/IJSVG)--><g fill="none"><path d="M0,0h24v24h-24v-24Z"></path><path stroke="#323232" stroke-linecap="round" stroke-linejoin="round" stroke-width="1.5" d="M6,6h12"></path><path stroke="#323232" stroke-linecap="round" stroke-linejoin="round" stroke-width="1.5" d="M8,3h8"></path><path stroke="#323232" stroke-linecap="round" stroke-linejoin="round" stroke-width="1.5" d="M17,21v-3c0,-0.552 0.448,-1 1,-1h3"></path><path stroke="#323232" stroke-linecap="round" stroke-linejoin="round" stroke-width="1.5" d="M18.586,20.414l1.828,-1.828c0.375,-0.375 0.586,-0.884 0.586,-1.414v-6.172c0,-1.105 -0.895,-2 -2,-2h-14c-1.105,0 -2,0.895 -2,2v8c0,1.105 0.895,2 2,2h12.172c0.53,0 1.039,-0.211 1.414,-0.586Z"></path></g></svg>