<svg id="Layer_3" data-name="Layer 3" xmlns="http://www.w3.org/2000/svg" viewBox="0 0 24 24"><path d="M24,0H0V24H24Z" fill="none"/><path d="M12.41421,11.34755,10.65245,9.58579A2,2,0,0,0,9.23824,9H5a2,2,0,0,0-2,2v8a2,2,0,0,0,2,2h6a2,2,0,0,0,2-2V12.76176A2,2,0,0,0,12.41421,11.34755Z" fill="none" stroke="#323232" stroke-linecap="round" stroke-linejoin="round" stroke-width="1.5" fill-rule="evenodd"/><path d="M21,18v1a2,2,0,0,1-2,2H17" fill="none" stroke="#323232" stroke-linecap="round" stroke-linejoin="round" stroke-width="1.5"/><path d="M3,6V5A2,2,0,0,1,5,3H7" fill="none" stroke="#323232" stroke-linecap="round" stroke-linejoin="round" stroke-width="1.5"/><path d="M16,15h3a2,2,0,0,0,2-2V6.76176a2,2,0,0,0-.58579-1.41421L18.65245,3.58579A2,2,0,0,0,17.23824,3H13a2,2,0,0,0-2,2v.83333" fill="none" stroke="#323232" stroke-linecap="round" stroke-linejoin="round" stroke-width="1.5" fill-rule="evenodd"/></svg>