<svg id="Layer_3" data-name="Layer 3" xmlns="http://www.w3.org/2000/svg" viewBox="0 0 24 24"><path d="M0,24H24V0H0Z" fill="none"/><path d="M0,0H24V24H0Z" fill="none"/><path d="M16,21h1a3,3,0,0,0,3-3V8.50931A3,3,0,0,0,19.12132,6.388L16.612,3.87868A3,3,0,0,0,14.49069,3H7A3,3,0,0,0,4,6V9" fill="none" stroke="#323232" stroke-linecap="round" stroke-linejoin="round" stroke-width="1.5" fill-rule="evenodd"/><path d="M20,8.5H16.5a2,2,0,0,1-2-2V3" fill="none" stroke="#323232" stroke-linecap="round" stroke-linejoin="round" stroke-width="1.5" fill-rule="evenodd"/><path d="M6,12h5a2,2,0,0,1,2,2v5a2,2,0,0,1-2,2H6a2,2,0,0,1-2-2V14A2,2,0,0,1,6,12Z" fill="none" stroke="#323232" stroke-linecap="round" stroke-linejoin="round" stroke-width="1.5"/><path d="M13,16.5H4" fill="none" stroke="#323232" stroke-linecap="round" stroke-linejoin="round" stroke-width="1.5"/><path d="M8.5,12v9" fill="none" stroke="#323232" stroke-linecap="round" stroke-linejoin="round" stroke-width="1.5"/></svg>