<?xml version="1.0" encoding="UTF-8"?><svg version="1.1" viewBox="0 0 24 24" xmlns="http://www.w3.org/2000/svg" xmlns:xlink="http://www.w3.org/1999/xlink"><g stroke-linecap="round" stroke-width="1.5" stroke="#323232" fill="none" stroke-linejoin="round"><path d="M9.541 12.434l2.249 2.473 4.14932e-09 4.55739e-09c.105595.11598.285216.124399.401196.0188038 .00655809-.00597087.0128329-.0122457.0188038-.0188038l2.249-2.473 1.09318e-08-1.19955e-08c.0885894-.0972089.0985333-.242637.024-.351l-1-1.461 1.38775e-09 2.03035e-09c-.0521485-.076296-.138585-.121946-.231-.122h-2.508l1.03597e-08 1.14451e-11c-.0927257-.000102442-.179532.0455459-.232.122l-1 1.461 -6.15787e-09 9.3251e-09c-.072433.109688-.060453.254687.029.351Z"></path><path d="M18.414 6.414l-2.828-2.828 6.1748e-08 6.17666e-08c-.374985-.375099-.88361-.585887-1.414-.586h-7.172l-8.74228e-08 1.77636e-15c-1.10457 4.82823e-08-2 .895431-2 2v14l2.30926e-14 3.01992e-07c1.66785e-07 1.10457.895431 2 2 2h10l-8.74228e-08-3.55271e-15c1.10457 4.82823e-08 2-.89543 2-2v-11.172l4.56117e-08.000427138c0-.53039-.210679-1.03906-.585698-1.41413Z"></path></g><path fill="none" d="M0 0h24v24h-24Z"></path></svg>