<?xml version="1.0" encoding="UTF-8"?><svg version="1.1" viewBox="0 0 24 24" xmlns="http://www.w3.org/2000/svg" xmlns:xlink="http://www.w3.org/1999/xlink"><!--Generated by IJSVG (https://github.com/iconjar/IJSVG)--><g fill="none"><path d="M24,24h-24v-24h24v24Z"></path><path stroke="#323232" stroke-linecap="round" stroke-linejoin="round" stroke-width="1.5" d="M5,21h9c1.105,0 2,-0.895 2,-2v-10.714c0,-1.105 -0.895,-2 -2,-2h-9c-1.105,0 -2,0.895 -2,2v10.714c0,1.105 0.895,2 2,2Z"></path><path stroke="#323232" stroke-linecap="round" stroke-linejoin="round" stroke-width="1.5" d="M8.09,12.23l2.82,2.83"></path><path stroke="#323232" stroke-linecap="round" stroke-linejoin="round" stroke-width="1.5" d="M10.91,12.23l-2.82,2.83"></path><path stroke="#323232" stroke-linecap="round" stroke-linejoin="round" stroke-width="1.5" d="M8,6.286v-1.286c0,-1.105 0.895,-2 2,-2h9c1.105,0 2,0.895 2,2v11c0,1.105 -0.895,2 -2,2h-3"></path></g></svg>