<?xml version="1.0" encoding="UTF-8"?><svg version="1.1" viewBox="0 0 24 24" xmlns="http://www.w3.org/2000/svg" xmlns:xlink="http://www.w3.org/1999/xlink"><!--Generated by IJSVG (https://github.com/iconjar/IJSVG)--><g stroke-linecap="round" stroke-width="1.5" stroke="#323232" fill="none" stroke-linejoin="round"><path d="M19,12v-4.172c0,-0.53 -0.211,-1.039 -0.586,-1.414l-2.828,-2.828c-0.375,-0.375 -0.884,-0.586 -1.414,-0.586h-7.172c-1.105,0 -2,0.895 -2,2v14c0,1.105 0.895,2 2,2h5"></path><path d="M8,9h8"></path><path d="M8,12h8"></path><path d="M8,15h2"></path><path d="M17.5,21c0,0 2.5,-1.2 2.5,-3v-2.1l-1.823,-0.656c-0.438,-0.158 -0.917,-0.158 -1.355,0l-1.822,0.656v2.1c0,1.8 2.5,3 2.5,3Z"></path></g><path fill="none" d="M0,0h24v24h-24Z"></path></svg>