<?xml version="1.0" encoding="UTF-8"?><svg version="1.1" viewBox="0 0 24 24" xmlns="http://www.w3.org/2000/svg" xmlns:xlink="http://www.w3.org/1999/xlink"><!--Generated by IJSVG (https://github.com/iconjar/IJSVG)--><path d="M9,11h6c0.552,0 1,0.448 1,1v4c0,0.552 -0.448,1 -1,1h-6c-0.552,0 -1,-0.448 -1,-1v-4c0,-0.552 0.448,-1 1,-1Z" stroke-linecap="round" stroke-width="1.5" stroke="#323232" fill="none" stroke-linejoin="round"></path><path fill="none" d="M0,0h24v24h-24v-24Z"></path><g stroke-linecap="round" stroke-width="1.5" stroke="#323232" fill="none" stroke-linejoin="round"><path d="M19.242,6.414l-2.828,-2.828c-0.375,-0.375 -0.884,-0.586 -1.414,-0.586h-9c-1.105,0 -2,0.895 -2,2v14c0,1.105 0.895,2 2,2h11.828c1.105,0 2,-0.895 2,-2v-11.172c0,-0.53 -0.211,-1.039 -0.586,-1.414Z"></path><path d="M7.98,8h8.02"></path><path d="M16,14h-8"></path><path d="M13,11v6"></path></g></svg>