<?xml version="1.0" encoding="UTF-8"?><svg version="1.1" viewBox="0 0 24 24" xmlns="http://www.w3.org/2000/svg" xmlns:xlink="http://www.w3.org/1999/xlink"><!--Generated by IJSVG (https://github.com/iconjar/IJSVG)--><g stroke-linecap="round" stroke-width="1.5" stroke="#323232" fill="none" stroke-linejoin="round"><path d="M19.0711,4.92893c3.90524,3.90524 3.90524,10.2369 0,14.1421c-3.90524,3.90524 -10.2369,3.90524 -14.1421,0c-3.90524,-3.90524 -3.90524,-10.2369 -1.77636e-15,-14.1421c3.90524,-3.90524 10.2369,-3.90524 14.1421,-1.77636e-15"></path><path d="M15,18h-6c-1.105,0 -2,-0.895 -2,-2v-8c0,-1.105 0.895,-2 2,-2h6c1.105,0 2,0.895 2,2v8c0,1.105 -0.895,2 -2,2Z"></path><path d="M10,9h4"></path><path d="M10,12h4"></path><path d="M10,15h2"></path></g><path fill="none" fill-rule="evenodd" d="M0,0h24v24h-24Z"></path></svg>