<?xml version="1.0" encoding="UTF-8"?><svg version="1.1" viewBox="0 0 24 24" xmlns="http://www.w3.org/2000/svg" xmlns:xlink="http://www.w3.org/1999/xlink"><g stroke-linecap="round" stroke-width="1.5" stroke="#323232" fill="none" stroke-linejoin="round"><rect width="3" height="3.75" x="12" y="17.25"></rect><rect width="3" height="8" x="15" y="13"></rect><path d="M20 10v-5 0c0-1.10457-.895431-2-2-2h-13l-8.74228e-08 1.77636e-15c-1.10457 4.82823e-08-2 .895431-2 2 0 0 0 0 0 0v12l2.30926e-14 3.01992e-07c1.66785e-07 1.10457.895431 2 2 2h4"></path><line x1="9.25" x2="12" y1="11" y2="11"></line><line x1="9.25" x2="16" y1="7.12" y2="7.12"></line><path d="M6.125 11.125h-5.46392e-09c.0690356 3.01764e-09.125-.0559644.125-.125 3.01764e-09-.0690356-.0559644-.125-.125-.125 -.0690356-3.01764e-09-.125.0559644-.125.125 0 0 0 1.77636e-15 0 1.77636e-15l1.77636e-15 1.88745e-08c1.04241e-08.0690356.0559644.125.125.125"></path><path d="M6.125 7.25h-5.46392e-09c.0690356 3.01764e-09.125-.0559644.125-.125 3.01764e-09-.0690356-.0559644-.125-.125-.125 -.0690356-3.01764e-09-.125.0559644-.125.125l1.77636e-15 1.88745e-08c1.04241e-08.0690356.0559644.125.125.125"></path><rect width="3" height="5.75" x="18" y="15.25"></rect></g><path fill="none" d="M0 0h24v24h-24Z"></path></svg>