<?xml version="1.0" encoding="UTF-8"?><svg version="1.1" viewBox="0 0 24 24" xmlns="http://www.w3.org/2000/svg" xmlns:xlink="http://www.w3.org/1999/xlink"><!--Generated by IJSVG (https://github.com/iconjar/IJSVG)--><g stroke-linecap="round" stroke-width="1.5" stroke="#323232" fill="none" stroke-linejoin="round"><path d="M17.172,10h-9.172c-1.105,0 -2,0.895 -2,2v7c0,1.105 0.895,2 2,2h11c1.105,0 2,-0.895 2,-2v-5.172c0,-0.53 -0.211,-1.039 -0.586,-1.414l-1.828,-1.828c-0.375,-0.375 -0.884,-0.586 -1.414,-0.586Z"></path><path d="M21,14h-3c-0.552,0 -1,-0.448 -1,-1v-3"></path><path d="M14,10v-3.172c0,-0.53 -0.211,-1.039 -0.586,-1.414l-1.828,-1.828c-0.375,-0.375 -0.884,-0.586 -1.414,-0.586h-5.172c-1.105,0 -2,0.895 -2,2v11c0,1.105 0.895,2 2,2h1"></path><path d="M14,7h-3c-0.552,0 -1,-0.448 -1,-1v-3"></path></g><path fill="none" d="M0,0h24v24h-24v-24Z"></path></svg>