<?xml version="1.0" encoding="UTF-8"?><svg version="1.1" viewBox="0 0 24 24" xmlns="http://www.w3.org/2000/svg" xmlns:xlink="http://www.w3.org/1999/xlink"><g stroke-linecap="round" stroke-width="1.5" stroke="#323232" fill="none" stroke-linejoin="round"><path d="M19 11v-3.172c0-.53-.211-1.039-.586-1.414l-2.828-2.828c-.375-.375-.884-.586-1.414-.586h-7.172c-1.105 0-2 .895-2 2v14c0 1.105.895 2 2 2h4"></path><path d="M19 8h-4c-.552 0-1-.448-1-1v-4"></path><path d="M15.489 20.544l-1.033-1.033c-.292-.291-.456-.687-.456-1.099v-1.822c0-.412.164-.808.456-1.1l1.033-1.033c.291-.293.687-.457 1.099-.457h1.822c.412 0 .808.164 1.1.456l1.034 1.034c.292.292.456.687.456 1.1v1.822c0 .412-.164.808-.456 1.1l-1.034 1.034c-.29.29-.686.454-1.099.454h-1.822c-.413 0-.809-.164-1.1-.456Z"></path></g><path fill="none" d="M0 0h24v24h-24v-24Z"></path></svg>