<svg id="Layer_3" data-name="Layer 3" xmlns="http://www.w3.org/2000/svg" viewBox="0 0 24 24"><path d="M16,19.316V19.5A1.5,1.5,0,0,1,14.5,21H3.5A1.5,1.5,0,0,1,2,19.5V4.5A1.5,1.5,0,0,1,3.5,3h11A1.5,1.5,0,0,1,16,4.5V14" fill="none" stroke="#323232" stroke-linecap="round" stroke-linejoin="round" stroke-width="1.5"/><path d="M16,9h1.2918a2.99994,2.99994,0,0,1,1.34162.31671l.654.327a3,3,0,0,1,1.15453,1.01919L22,13" fill="none" stroke="#323232" stroke-linecap="round" stroke-linejoin="round" stroke-width="1.5"/><path d="M5,8.22126V7.08794a.66666.66666,0,0,1,.44067-.62733l1.01666-.366a1.6,1.6,0,0,1,1.084,0l1.018.36666A.66668.66668,0,0,1,9,7.08794V8.22126C9,9.06993,7.81267,9.69793,7.26667,9.9426a.648.648,0,0,1-.53334,0C6.18733,9.69793,5,9.0686,5,8.22126Z" fill="none" stroke="#323232" stroke-linecap="round" stroke-linejoin="round" stroke-width="1.5"/><line x1="5" y1="13.50001" x2="7" y2="13.50001" fill="none" stroke="#323232" stroke-linecap="round" stroke-linejoin="round" stroke-width="1.5"/><line x1="5" y1="16.50001" x2="9" y2="16.50001" fill="none" stroke="#323232" stroke-linecap="round" stroke-linejoin="round" stroke-width="1.5"/><path d="M17.5,14H16l.00186-.003-2.37892-2.52071a1.51853,1.51853,0,0,0-2.14663-.06212l-.03151.03061h0a1.51855,1.51855,0,0,0-.19083,1.91445l2.98716,4.49343a4.00007,4.00007,0,0,0,2.06412,1.57959L21,21" fill="none" stroke="#323232" stroke-linecap="round" stroke-linejoin="round" stroke-width="1.5"/><rect width="24" height="24" fill="none"/></svg>