<?xml version="1.0" encoding="UTF-8"?><svg version="1.1" viewBox="0 0 24 24" xmlns="http://www.w3.org/2000/svg" xmlns:xlink="http://www.w3.org/1999/xlink"><g stroke-linecap="round" stroke-width="1.5" stroke="#323232" fill="none" stroke-linejoin="round"><path d="M20 8h-4l-4.37114e-08-8.88178e-16c-.552285-2.41411e-08-1-.447715-1-1 0 0 0 0 0 0v-4"></path><path d="M6 8v-3l2.30926e-14 3.01992e-07c-1.66785e-07-1.10457.89543-2 2-2h7.172l2.05691e-08 4.39293e-12c.53039.00011328 1.03901.210901 1.414.586l2.828 2.828 -4.69231e-09-4.69089e-09c.375099.374985.585887.88361.586 1.414v11.172 0c0 1.10457-.895431 2-2 2h-10l-8.74228e-08-3.55271e-15c-1.10457-4.82823e-08-2-.895431-2-2 0 0 0 0 0 0v-1"></path><path d="M6.391 11l1.80012e-09 1.78058e-09c.109157.107972.110117.283989.00214551.393146 -.107972.109157-.283989.110117-.393146.00214551 -.109157-.107972-.110117-.283989-.00214551-.393146 .000711264-.00071907.00142645-.00143425.00214552-.00214552l1.77981e-08-1.76576e-08c.108775-.107917.284225-.107917.393 3.53153e-08"></path><path d="M13 11.95l2.81472e-07 4.3085e-08c-2.89778-.443564-5.60647 1.54597-6.05003 4.44374 -.0426589.278688-.0630464.560331-.0609689.842257l-1.91736e-07-3.13229e-05c.00156516.255818.0219519.511173.0609951.763999"></path><rect width="10" height="10" x="3" y="8" rx="1.65684" ry="0"></rect></g><path fill="none" d="M0 0h24v24h-24Z"></path></svg>