<svg id="Layer_3" data-name="Layer 3" xmlns="http://www.w3.org/2000/svg" viewBox="0 0 24 24"><path d="M15,15v1a1,1,0,0,1-1,1H10a1,1,0,0,1-1-1V15" fill="none" stroke="#323232" stroke-linecap="round" stroke-linejoin="round" stroke-width="1.5"/><path d="M3,13.17415V19a2,2,0,0,0,2,2H19a2,2,0,0,0,2-2V13.17415a7.99989,7.99989,0,0,0-.33739-2.29878l-1.935-6.45007A2,2,0,0,0,16.81194,3H7.18806A2,2,0,0,0,5.27241,4.4253l-1.935,6.45007A7.99989,7.99989,0,0,0,3,13.17415Z" fill="none" stroke="#323232" stroke-linecap="round" stroke-linejoin="round" stroke-width="1.5"/><line x1="20.91258" y1="12" x2="3.08729" y2="12" fill="none" stroke="#323232" stroke-linecap="round" stroke-linejoin="round" stroke-width="1.5"/><line x1="15.5" y1="6" x2="8.5" y2="6" fill="none" stroke="#323232" stroke-linecap="round" stroke-linejoin="round" stroke-width="1.5"/><line x1="16.5" y1="9" x2="7.5" y2="9" fill="none" stroke="#323232" stroke-linecap="round" stroke-linejoin="round" stroke-width="1.5"/><rect width="24" height="24" fill="none"/></svg>