<svg id="Layer_3" data-name="Layer 3" xmlns="http://www.w3.org/2000/svg" viewBox="0 0 24 24"><rect width="24" height="24" fill="none"/><path d="M17,5h3.5" fill="none" stroke="#323232" stroke-linecap="round" stroke-linejoin="round" stroke-width="1.5"/><path d="M6,17V13" fill="none" stroke="#323232" stroke-linecap="round" stroke-linejoin="round" stroke-width="1.5"/><path d="M17.5,21H5a2,2,0,0,1-2-2V18a1,1,0,0,1,1-1H15a1,1,0,0,1,1,1v1.5A1.5,1.5,0,0,0,17.5,21h0A1.5,1.5,0,0,0,19,19.5V6.5A1.5,1.5,0,0,1,20.5,5h0A1.5,1.5,0,0,1,22,6.5V9a1,1,0,0,1-1,1H19" fill="none" stroke="#323232" stroke-linecap="round" stroke-linejoin="round" stroke-width="1.5"/><rect x="2" y="3" width="12" height="7" rx="2" stroke-width="1.5" stroke="#323232" stroke-linecap="round" stroke-linejoin="round" fill="none"/><path d="M4.995,6.5,5,6.505,5.005,6.5,5,6.495,4.995,6.5" fill="none" stroke="#323232" stroke-linecap="round" stroke-linejoin="round" stroke-width="1.5"/><path d="M7.995,6.5,8,6.505,8.005,6.5,8,6.495,7.995,6.5" fill="none" stroke="#323232" stroke-linecap="round" stroke-linejoin="round" stroke-width="1.5"/><path d="M10.9953,6.5l.005.005.005-.005-.005-.005-.005.005" fill="none" stroke="#323232" stroke-linecap="round" stroke-linejoin="round" stroke-width="1.5"/></svg>