<?xml version="1.0" encoding="UTF-8"?><svg version="1.1" viewBox="0 0 24 24" xmlns="http://www.w3.org/2000/svg" xmlns:xlink="http://www.w3.org/1999/xlink"><g fill="none"><path d="M0 0h24v24h-24Z"></path><path stroke="#323232" stroke-linecap="round" stroke-linejoin="round" stroke-width="1.5" d="M14.5 12.5v0c0 1.38071-1.11929 2.5-2.5 2.5 -1.38071 0-2.5-1.11929-2.5-2.5 0-1.38071 1.11929-2.5 2.5-2.5l-1.09278e-07 3.55271e-15c1.38071-6.03528e-08 2.5 1.11929 2.5 2.5Z"></path><path stroke="#323232" stroke-linecap="round" stroke-linejoin="round" stroke-width="1.5" d="M10.233 14.267l3.534-3.534"></path><path stroke="#323232" stroke-linecap="round" stroke-linejoin="round" stroke-width="1.5" d="M18.414 6.414l-2.828-2.828 6.1748e-08 6.17666e-08c-.374985-.375099-.88361-.585887-1.414-.586h-7.172l-8.74228e-08 1.77636e-15c-1.10457 4.82823e-08-2 .895431-2 2v14l2.30926e-14 3.01992e-07c1.66785e-07 1.10457.895431 2 2 2h10l-8.74228e-08-3.55271e-15c1.10457 4.82823e-08 2-.89543 2-2v-11.172l4.56117e-08.000427138c0-.53039-.210679-1.03906-.585698-1.41413Z"></path></g></svg>