<svg id="Layer_3" data-name="Layer 3" xmlns="http://www.w3.org/2000/svg" viewBox="0 0 24 24"><path d="M16,21h1a3,3,0,0,0,3-3V8.50931A3,3,0,0,0,19.12132,6.388L16.612,3.87868A3,3,0,0,0,14.49069,3H7A3,3,0,0,0,4,6V9" fill="none" stroke="#323232" stroke-linecap="round" stroke-linejoin="round" stroke-width="1.5" fill-rule="evenodd"/><path d="M20,8.5H16.5a2,2,0,0,1-2-2V3" fill="none" stroke="#323232" stroke-linecap="round" stroke-linejoin="round" stroke-width="1.5" fill-rule="evenodd"/><path d="M11.5,13.633H8.52859a1,1,0,0,1-.82685-.43757l-.51549-.75785A1,1,0,0,0,6.3594,12H4.5A1.5,1.5,0,0,0,3,13.5v6A1.5,1.5,0,0,0,4.5,21h7A1.5,1.5,0,0,0,13,19.5V15.133A1.5,1.5,0,0,0,11.5,13.633Z" fill="none" stroke="#323232" stroke-linecap="round" stroke-linejoin="round" stroke-width="1.5"/><path d="M24,24H0V0H24Z" fill="none"/></svg>