<svg id="Layer_3" data-name="Layer 3" xmlns="http://www.w3.org/2000/svg" viewBox="0 0 24 24"><path d="M24,24H0V0H24Z" fill="none"/><path d="M15.025,17.00341v2.24935a1.35,1.35,0,0,0,.74627,1.20749l.49892.24945a2.75,2.75,0,0,0,2.45962,0l.49892-.24945a1.35,1.35,0,0,0,.74627-1.20749V17.00341" fill="none" stroke="#323232" stroke-linecap="round" stroke-linejoin="round" stroke-width="1.5"/><path d="M13.4056,16.16628l3.06118,1.58244a2.25,2.25,0,0,0,2.06644,0l3.06118-1.58244a.75.75,0,0,0,0-1.33257l-3.06118-1.58244a2.25,2.25,0,0,0-2.06644,0L13.4056,14.83371A.75.75,0,0,0,13.4056,16.16628Z" fill="none" stroke="#323232" stroke-linecap="round" stroke-linejoin="round" stroke-width="1.5"/><path d="M22,15.51031v1.737" fill="none" stroke="#323232" stroke-linecap="round" stroke-linejoin="round" stroke-width="1.5"/><path d="M20,10V6a3,3,0,0,0-3-3H6A3,3,0,0,0,3,6V18a3,3,0,0,0,3,3h5" fill="none" stroke="#323232" stroke-linecap="round" stroke-linejoin="round" stroke-width="1.5"/><line x1="7" y1="8.00001" x2="16" y2="8.00001" fill="none" stroke="#323232" stroke-linecap="round" stroke-linejoin="round" stroke-width="1.5"/><line x1="7" y1="12.00001" x2="11" y2="12.00001" fill="none" stroke="#323232" stroke-linecap="round" stroke-linejoin="round" stroke-width="1.5"/><line x1="7" y1="16.00001" x2="9" y2="16.00001" fill="none" stroke="#323232" stroke-linecap="round" stroke-linejoin="round" stroke-width="1.5"/></svg>