<?xml version="1.0" encoding="UTF-8"?><svg version="1.1" viewBox="0 0 24 24" xmlns="http://www.w3.org/2000/svg" xmlns:xlink="http://www.w3.org/1999/xlink"><g fill="none"><path d="M0 0h24v24h-24Z"></path><path stroke="#323232" stroke-linecap="round" stroke-linejoin="round" stroke-width="1.5" d="M3 19l2.30926e-14 3.01992e-07c1.66785e-07 1.10457.895431 2 2 2"></path><path stroke="#323232" stroke-linecap="round" stroke-linejoin="round" stroke-width="1.5" d="M3 5v14"></path><path stroke="#323232" stroke-linecap="round" stroke-linejoin="round" stroke-width="1.5" d="M9 21h-4"></path><path stroke="#323232" stroke-linecap="round" stroke-linejoin="round" stroke-width="1.5" d="M21 5v0c0-1.10457-.895431-2-2-2"></path><path stroke="#323232" stroke-linecap="round" stroke-linejoin="round" stroke-width="1.5" d="M21 8v-3"></path><path stroke="#323232" stroke-linecap="round" stroke-linejoin="round" stroke-width="1.5" d="M5 3h14"></path><path stroke="#323232" stroke-linecap="round" stroke-linejoin="round" stroke-width="1.5" d="M3 5l2.30926e-14 3.01992e-07c-1.66785e-07-1.10457.89543-2 2-2"></path><path stroke="#323232" stroke-linecap="round" stroke-linejoin="round" stroke-width="1.5" d="M8.5 17.062v0h-6.55671e-08c-.828427-3.62117e-08-1.5-.671573-1.5-1.5 0 0 0-1.77636e-15 0-1.77636e-15h-1.77636e-15l1.68754e-14 2.26494e-07c-1.25089e-07-.828427.671573-1.5 1.5-1.5v0l-6.55671e-08 1.77636e-15c.828427-3.62117e-08 1.5.671573 1.5 1.5v0l5.32907e-15 1.31134e-07c0 .828427-.671573 1.5-1.5 1.5Z"></path><path stroke="#323232" stroke-linecap="round" stroke-linejoin="round" stroke-width="1.5" d="M7 7.062h8"></path><path stroke="#323232" stroke-linecap="round" stroke-linejoin="round" stroke-width="1.5" d="M7 10.562h5"></path><path stroke="#323232" stroke-linecap="round" stroke-linejoin="round" stroke-width="1.5" d="M13.5 20.5v-.406l-3.57283e-08 1.25358e-05c.00328875-1.15512.938871-2.09071 2.09399-2.09401h3.312l9.19974e-08 2.61931e-10c1.15512.00328881 2.09072.938879 2.09401 2.094v.406 0c0 .276142-.223858.5-.5.5h-6.5 -2.18557e-08c-.276142-1.20706e-08-.5-.223858-.5-.5 0 0 0 0 0 0Z"></path><path stroke="#323232" stroke-linecap="round" stroke-linejoin="round" stroke-width="1.5" d="M15.25 13.492l-2.59819e-08 6.49807e-06c.00441469-1.10456.903417-1.99641 2.00798-1.99199 1.10456.00441469 1.99641.903417 1.99199 2.00798 -.00440218 1.10143-.898521 1.99199-1.99996 1.99201l6.4155e-08-7.22977e-13c-1.10457 1.24608e-05-2.00001-.895408-2.00002-1.99998 -3.01678e-08-.00267417 5.30307e-06-.00534835 1.59997e-05-.0080225Z"></path></g></svg>