<svg id="Layer_3" data-name="Layer 3" xmlns="http://www.w3.org/2000/svg" viewBox="0 0 24 24"><path d="M15,17h4a2,2,0,0,0,2-2V7.45411a3,3,0,0,0-.87868-2.12132L18.66721,3.87868A3,3,0,0,0,16.54589,3H10.957a2,2,0,0,0-2,2V7" fill="none" stroke="#323232" stroke-linecap="round" stroke-linejoin="round" stroke-width="1.5" fill-rule="evenodd"/><path d="M14.12132,9.33279,12.66721,7.87868A3,3,0,0,0,10.54589,7H5A2,2,0,0,0,3,9V19a2,2,0,0,0,2,2h8a2,2,0,0,0,2-2V11.45411A3,3,0,0,0,14.12132,9.33279Z" fill="none" stroke="#323232" stroke-linecap="round" stroke-linejoin="round" stroke-width="1.5" fill-rule="evenodd"/><path d="M0,0H24V24H0Z" fill="none"/></svg>