<?xml version="1.0" encoding="UTF-8"?><svg version="1.1" viewBox="0 0 24 24" xmlns="http://www.w3.org/2000/svg" xmlns:xlink="http://www.w3.org/1999/xlink"><g fill="none"><path d="M0 0h24v24h-24Z"></path><path stroke="#323232" stroke-linecap="round" stroke-linejoin="round" stroke-width="1.5" d="M15 19.4v-8.537l2.08659e-08-.000258401c0-.424618-.168786-.831821-.469183-1.13192l-2.26182-2.26182 5.75171e-08 5.75548e-08c-.300152-.300348-.707382-.469069-1.132-.469h-5.537 -6.99382e-08c-.883656 3.86258e-08-1.6.716344-1.6 1.6 0 0 0 1.31379e-11 0 1.31379e-11v10.8l1.77636e-14-2.41593e-07c-1.33428e-07.883656.716344 1.6 1.6 1.6h7.8 -1.90798e-08c.883656 1.43966e-07 1.6-.716344 1.6-1.6 1.42109e-14-8.15657e-08 2.13163e-14-1.60028e-07 2.13163e-14-2.41593e-07Z"></path><path stroke="#323232" stroke-linecap="round" stroke-linejoin="round" stroke-width="1.5" d="M15 17h3.4l-6.99382e-08-3.55271e-15c.883656 3.86258e-08 1.6-.716344 1.6-1.6 0 0 0 0 0 0v-10.4 0c0-1.10457-.895431-2-2-2h-7.4l-6.99382e-08 1.77636e-15c-.883656 3.86258e-08-1.6.716344-1.6 1.6v2.4"></path><path stroke="#323232" stroke-linecap="round" stroke-linejoin="round" stroke-width="1.5" d="M15 11h-3.2l-3.49691e-08-1.77636e-15c-.441828-1.93129e-08-.8-.358172-.8-.8 0 0 0 0 0 0v-3.2"></path></g></svg>