<?xml version="1.0" encoding="UTF-8"?><svg version="1.1" viewBox="0 0 24 24" xmlns="http://www.w3.org/2000/svg" xmlns:xlink="http://www.w3.org/1999/xlink"><defs><path d="M12 3l-3.93403e-07 8.88178e-15c4.97056-2.1727e-07 9 4.02944 9 9 2.1727e-07 4.97056-4.02944 9-9 9 -4.97056 2.1727e-07-9-4.02944-9-9l1.03029e-13 1.35896e-06c-7.50534e-07-4.97056 4.02944-9 9-9" id="a"></path></defs><g stroke-linecap="round" stroke-width="1.5" stroke="#323232" fill="none" stroke-linejoin="round"><path d="M12.001 9v-1"></path><path d="M12.001 15v1"></path><path d="M10.2661 14.2857l5.08834e-08 8.7492e-08c.256224.440568.725791.713361 1.23543.71772h1.096l-3.55742e-08 2.86722e-11c.7757-.00062516 1.40402-.629961 1.4034-1.40566 -.00051875-.643667-.4385-1.2046-1.06283-1.3612l-1.87428-.47085 -8.08771e-08-2.02857e-08c-.752394-.188717-1.20935-.951638-1.02063-1.70403 .156595-.624328.717532-1.06231 1.3612-1.06283h1.096l2.95899e-08 2.05292e-10c.508666.00352909.97778.275006 1.23428.71428"></path><use xlink:href="#a"></use><use xlink:href="#a"></use></g><rect width="24" height="24" fill="none"></rect></svg>