<?xml version="1.0" encoding="UTF-8"?><svg version="1.1" viewBox="0 0 24 24" xmlns="http://www.w3.org/2000/svg" xmlns:xlink="http://www.w3.org/1999/xlink"><g stroke-linecap="round" stroke-width="1.5" stroke="#323232" fill="none" stroke-linejoin="round"><polyline points="6,8.25 3,8.25 3,5.25"></polyline><path d="M7.467 19.924c.9.521 1.897.89 2.959 1.076"></path><path d="M3.482 15.173c.366 1.004.896 1.927 1.57 2.73"></path><path d="M13.574 21c1.062-.186 2.058-.555 2.959-1.076"></path><path d="M18.948 17.903c.674-.803 1.204-1.726 1.57-2.73"></path><path d="M21 12c0-4.971-4.029-9-9-9 -3.63 0-6.751 2.154-8.174 5.25"></path><path d="M12 9.137v-.637"></path><path d="M12 14.864v.636"></path><path d="M10.343 14.181c.247.405.669.684 1.18.684h.477 .569c.741 0 1.34-.6 1.34-1.34 0-.615-.419-1.15-1.015-1.301l-1.79-.45c-.595-.149-1.014-.684-1.014-1.299 0-.741.6-1.34 1.34-1.34h.57 .477c.509 0 .931.279 1.177.683"></path></g><rect width="24" height="24" fill="none"></rect></svg>