<?xml version="1.0" encoding="UTF-8"?><svg version="1.1" viewBox="0 0 24 24" xmlns="http://www.w3.org/2000/svg" xmlns:xlink="http://www.w3.org/1999/xlink"><!--Generated by IJSVG (https://github.com/iconjar/IJSVG)--><g fill="none"><path d="M0,0h24v24h-24Z"></path><path stroke="#323232" stroke-linecap="round" stroke-linejoin="round" stroke-width="1.5" d="M6.73,14h10.54"></path><path stroke="#323232" stroke-linecap="round" stroke-linejoin="round" stroke-width="1.5" d="M6,10v-0.803c0,-0.131 0.016,-0.261 0.048,-0.388l0.005,-0.022c0.557,-2.226 2.557,-3.787 4.851,-3.787h2.301c2.29,0 4.27,1.594 4.759,3.831v0c0.024,0.112 0.036,0.227 0.036,0.342v0.827l-1.851,10.179c-0.086,0.475 -0.5,0.821 -0.984,0.821h-6.33c-0.483,0 -0.897,-0.346 -0.984,-0.821l-1.851,-10.179Z"></path><path stroke="#323232" stroke-linecap="round" stroke-linejoin="round" stroke-width="1.5" d="M5,10h14"></path><path stroke="#323232" stroke-linecap="round" stroke-linejoin="round" stroke-width="1.5" d="M11.956,14l1.856,-11.163c0.099,-0.597 0.702,-0.97 1.281,-0.792l2.907,0.896"></path></g></svg>