<?xml version="1.0" encoding="UTF-8"?><svg version="1.1" viewBox="0 0 24 24" xmlns="http://www.w3.org/2000/svg" xmlns:xlink="http://www.w3.org/1999/xlink"><g fill="none"><path d="M0 0h24v24h-24v-24Z"></path><path stroke="#323232" stroke-linecap="round" stroke-linejoin="round" stroke-width="1.5" d="M18 7v-2c0-1.105-.895-2-2-2h-11c-1.105 0-2 .895-2 2v5c0 1.105.895 2 2 2h2"></path><path stroke="#323232" stroke-linecap="round" stroke-linejoin="round" stroke-width="1.5" d="M19.444 21h-10.888c-.86 0-1.556-.696-1.556-1.556v-10.888c0-.86.696-1.556 1.556-1.556h10.889c.859 0 1.555.696 1.555 1.556v10.889c0 .859-.696 1.555-1.556 1.555Z"></path><path stroke="#323232" stroke-linecap="round" stroke-linejoin="round" stroke-width="1.5" d="M15.556 10l-1.944 1.944 -1.167-1.167"></path><path stroke="#323232" stroke-linecap="round" stroke-linejoin="round" stroke-width="1.5" d="M10 15h8"></path><path stroke="#323232" stroke-linecap="round" stroke-linejoin="round" stroke-width="1.5" d="M10 18h8"></path></g></svg>