<?xml version="1.0" encoding="UTF-8"?><svg version="1.1" viewBox="0 0 24 24" xmlns="http://www.w3.org/2000/svg" xmlns:xlink="http://www.w3.org/1999/xlink"><g fill="none"><rect width="24" height="24"></rect><path stroke="#323232" stroke-linecap="round" stroke-linejoin="round" stroke-width="1.5" d="M3 9v-4l2.30926e-14 3.01992e-07c-1.66785e-07-1.10457.89543-2 2-2h4"></path><path stroke="#323232" stroke-linecap="round" stroke-linejoin="round" stroke-width="1.5" d="M21 15v4 0c0 1.10457-.895431 2-2 2h-4"></path><path stroke="#323232" stroke-linecap="round" stroke-linejoin="round" stroke-width="1.5" d="M17 2.5v-.5"></path><path stroke="#323232" stroke-linecap="round" stroke-linejoin="round" stroke-width="1.5" d="M17 12v-.5"></path><path stroke="#323232" stroke-linecap="round" stroke-linejoin="round" stroke-width="1.5" d="M20.18 3.82l.355-.355"></path><path stroke="#323232" stroke-linecap="round" stroke-linejoin="round" stroke-width="1.5" d="M13.465 10.535l.355-.355"></path><path stroke="#323232" stroke-linecap="round" stroke-linejoin="round" stroke-width="1.5" d="M21.5 7h.5"></path><path stroke="#323232" stroke-linecap="round" stroke-linejoin="round" stroke-width="1.5" d="M12 7h.5"></path><path stroke="#323232" stroke-linecap="round" stroke-linejoin="round" stroke-width="1.5" d="M20.18 10.18l.355.355"></path><path stroke="#323232" stroke-linecap="round" stroke-linejoin="round" stroke-width="1.5" d="M13.465 3.465l.355.355"></path><circle cx="17" cy="7" r="2.105" stroke="#323232" stroke-linecap="round" stroke-linejoin="round" stroke-width="1.5"></circle><path stroke="#323232" stroke-linecap="round" stroke-linejoin="round" stroke-width="1.5" d="M6.84 13.321l1.917 2.565 2.20587e-08 2.95553e-08c1.05708 1.41632.765851 3.42141-.650474 4.47849 -.550775.411073-1.21926.633902-1.90653.635509v0l1.53497e-07 3.11026e-10c-1.76731-.003581-3.19709-1.43917-3.19351-3.20648 .00139326-.687605.224233-1.35647.635509-1.90752l1.918-2.565 4.10507e-08-5.47342e-08c.265097-.353462.766538-.425097 1.12-.16 .0606445.0454834.114517.0993555.16.16Z"></path></g></svg>