<?xml version="1.0" encoding="UTF-8"?><svg version="1.1" viewBox="0 0 24 24" xmlns="http://www.w3.org/2000/svg" xmlns:xlink="http://www.w3.org/1999/xlink"><g fill="none"><path d="M0 0h24v24h-24Z"></path><path stroke="#323232" stroke-linecap="round" stroke-linejoin="round" stroke-width="1.5" d="M19.552 13.812l2.186 3.788 4.51387e-08 7.82285e-08c.625739 1.08445.253881 2.47083-.830568 3.09657 -.344635.198858-.73554.303508-1.13343.303432h-4.374"></path><path stroke="#323232" stroke-linecap="round" stroke-linejoin="round" stroke-width="1.5" d="M4.448 13.812l-2.186 3.788 5.84075e-08-1.01224e-07c-.625739 1.08445-.253881 2.47083.830568 3.09657 .344635.198858.73554.303508 1.13343.303432h4.374"></path><path stroke="#323232" stroke-linecap="round" stroke-linejoin="round" stroke-width="1.5" d="M7.85 7.92l2.186-3.786 -8.97772e-08 1.55453e-07c.62643-1.08469 2.01356-1.45618 3.09825-.829748 .344583.199004.630744.485165.829748.829748l2.186 3.786"></path><path stroke="#323232" stroke-linecap="round" stroke-linejoin="round" stroke-width="1.5" d="M12.56 10.781l1.677 2.244 -2.09084e-08-2.80076e-08c.925081 1.23918.670454 2.99366-.568727 3.91874 -.481923.359768-1.06687.55481-1.66827.556257v0l9.26112e-09 1.8975e-11c-1.54639-.0031684-2.79743-1.25934-2.79426-2.80573 .0012329-.601739.196286-1.18707.556257-1.66927l1.678-2.244 -1.40759e-08 1.87678e-08c.23196-.309279.67072-.37196.98-.14 .053064.039798.100202.0869361.14.14Z"></path></g></svg>