<?xml version="1.0" encoding="UTF-8"?><svg version="1.1" viewBox="0 0 24 24" xmlns="http://www.w3.org/2000/svg" xmlns:xlink="http://www.w3.org/1999/xlink"><!--Generated by IJSVG (https://github.com/iconjar/IJSVG)--><g fill="none"><path d="M0,0h24v24h-24Z" transform="matrix(-1,-4.48687e-11,4.48687e-11,-1,24,24)"></path><path stroke="#323232" stroke-linecap="round" stroke-linejoin="round" stroke-width="1.5" d="M15,10c0,0 3.502,-2.875 3.502,-5.5c0,-1.933 -1.568,-3.5 -3.502,-3.5c-1.934,0 -3.502,1.567 -3.502,3.5c-1.77636e-15,2.625 3.502,5.5 3.502,5.5Z"></path><path stroke="#323232" stroke-linecap="round" stroke-linejoin="round" stroke-width="1.5" d="M15.001,4.35c0.138,0 0.25,0.112 0.249,0.25c0,0.138 -0.112,0.25 -0.25,0.25c-0.138,0 -0.25,-0.112 -0.25,-0.25c0,-0.138 0.112,-0.25 0.251,-0.25"></path><path stroke="#323232" stroke-linecap="round" stroke-linejoin="round" stroke-width="1.5" d="M11.531,4.025c-4.751,0.246 -8.531,4.163 -8.531,8.975c0,4.971 4.029,9 9,9c4.971,0 9,-4.029 9,-9c0,-2.652 -1.152,-5.028 -2.977,-6.671"></path><path stroke="#323232" stroke-linecap="round" stroke-linejoin="round" stroke-width="1.5" d="M8,21.068v-0.071c0,-2 4,-1.764 4,-4c0,-2 -3,-2 -3,-5c0,-2.828 -2,-3 -5,-3h-0.061"></path><path stroke="#323232" stroke-linecap="round" stroke-linejoin="round" stroke-width="1.5" d="M17.97,19.72c-0.151,-0.058 -0.301,-0.119 -0.444,-0.203c-1.436,-0.84 -1.918,-2.684 -1.079,-4.12c0.84,-1.436 2.684,-1.918 4.12,-1.079c0.106,0.062 0.195,0.14 0.291,0.212"></path></g></svg>