<?xml version="1.0" encoding="UTF-8"?><svg version="1.1" viewBox="0 0 24 24" xmlns="http://www.w3.org/2000/svg" xmlns:xlink="http://www.w3.org/1999/xlink"><defs><path d="M0 0h24v24h-24v-24Z" id="a"></path></defs><g fill="none"><use xlink:href="#a"></use><use xlink:href="#a"></use><path stroke="#323232" stroke-linecap="round" stroke-linejoin="round" stroke-width="1.5" d="M16.2426 7.75736c2.34315 2.34315 2.34315 6.14214 0 8.48528 -2.34315 2.34315-6.14214 2.34315-8.48528 0 -2.34315-2.34315-2.34315-6.14214-1.77636e-15-8.48528 2.34315-2.34315 6.14214-2.34315 8.48528-1.77636e-15"></path><path stroke="#323232" stroke-linecap="round" stroke-linejoin="round" stroke-width="1.5" d="M16.2426 10.5858c2.34315.781049 2.34315 2.04738 0 2.82843 -2.34315.781049-6.14214.781049-8.48528 0 -2.34315-.781049-2.34315-2.04738-1.77636e-15-2.82843 2.34315-.781049 6.14214-.781049 8.48528 0"></path><path stroke="#323232" stroke-linecap="round" stroke-linejoin="round" stroke-width="1.5" d="M12 6v12"></path><path stroke="#323232" stroke-linecap="round" stroke-linejoin="round" stroke-width="1.5" d="M7.5 3h-2.5c-1.105 0-2 .895-2 2v2.5"></path><path stroke="#323232" stroke-linecap="round" stroke-linejoin="round" stroke-width="1.5" d="M3 16.5v2.5c0 1.105.895 2 2 2h2.5"></path><path stroke="#323232" stroke-linecap="round" stroke-linejoin="round" stroke-width="1.5" d="M16.5 21h2.5c1.105 0 2-.895 2-2v-2.5"></path><path stroke="#323232" stroke-linecap="round" stroke-linejoin="round" stroke-width="1.5" d="M21 7.5v-2.5c0-1.105-.895-2-2-2h-2.5"></path></g></svg>