<svg viewBox="0 0 24 24" xmlns="http://www.w3.org/2000/svg"><g stroke-linecap="round" stroke-width="1.5" stroke="#323232" fill="none" stroke-linejoin="round"><path d="M12 21l-.01-.001c-4.98-.01-9-4.03-9-9.01 0-4.98 4.02-9 9-9 4.97 0 9 4.02 8.99 9"/><path d="M3.51 9l16.98 0"/><path d="M3.51 15L12 15"/><path d="M16 12l0-.01c0-2.8-.75-5.54-2.17-7.94l-.01-.01c-.59-1.02-1.88-1.37-2.89-.78 -.33.18-.6.45-.78.77l0-.01C7.25 8.91 7.25 15 10.14 19.9l-.01-.01c.37.65 1.07 1.05 1.83 1.06"/><path d="M18 14l-.01 0c2.2-.01 4 1.79 4 3.99s-1.8 4-4 4c-2.21 0-4-1.8-4.01-4l0 0c-.01-2.21 1.79-4.01 3.99-4.01"/><path d="M19.086 17.956l0 0c-.03-.01-.05.01-.05.04 -.01.02.01.04.04.04h0l0 0c.02 0 .04-.02.04-.05 0-.03-.02-.05-.05-.05 0 0 0 0 0 0h-.01"/><path d="M16.913 17.956h-.01c-.03 0-.05.01-.05.04 0 0 0 0 0 0v0l-.01 0c-.01.02.01.04.04.04 .02 0 .04-.02.04-.05 0-.03-.02-.05-.05-.05h-.01"/></g><path fill="none" d="M0 0h24v24H0Z"/></svg>