<svg id="Layer_3" data-name="Layer 3" xmlns="http://www.w3.org/2000/svg" viewBox="0 0 24 24"><path d="M0,0H24V24H0Z" fill="none"/><rect x="2.5" y="2.5" width="19" height="19" rx="9.49999" stroke-width="1.5" stroke="#323232" stroke-linecap="round" stroke-linejoin="round" fill="none"/><line x1="7" y1="15" x2="8.5" y2="15" fill="none" stroke="#323232" stroke-linecap="round" stroke-linejoin="round" stroke-width="1.5"/><line x1="7" y1="12" x2="8.5" y2="12" fill="none" stroke="#323232" stroke-linecap="round" stroke-linejoin="round" stroke-width="1.5"/><line x1="7" y1="9" x2="11" y2="9" fill="none" stroke="#323232" stroke-linecap="round" stroke-linejoin="round" stroke-width="1.5"/><path d="M14.16571,14.70709l3.11465-3.11481a.75.75,0,0,0,0-1.06059l-1.312-1.312a.75.75,0,0,0-1.06064,0l-3.1148,3.11461a1,1,0,0,0-.29292.70714V14.5a.5.5,0,0,0,.5.5h1.45859A1,1,0,0,0,14.16571,14.70709Z" fill="none" stroke="#323232" stroke-linecap="round" stroke-linejoin="round" stroke-width="1.5"/></svg>