<svg id="Layer_3" data-name="Layer 3" xmlns="http://www.w3.org/2000/svg" viewBox="0 0 24 24"><rect width="24" height="24" fill="none"/><line x1="7" y1="14.99987" x2="8" y2="14.99997" fill="none" stroke="#323232" stroke-linecap="round" stroke-linejoin="round" stroke-width="1.5"/><path d="M14.13363,14.70575l3.07348-3.07348a1,1,0,0,0,0-1.41422l-.92654-.92652a1,1,0,0,0-1.4142,0L11.79285,12.365a1,1,0,0,0-.29289.70711v1.6765a.25.25,0,0,0,.25.25h1.67656A1.0001,1.0001,0,0,0,14.13363,14.70575Z" fill="none" stroke="#323232" stroke-linecap="round" stroke-linejoin="round" stroke-width="1.5"/><path d="M7.1377,19.566a9.01637,9.01637,0,1,0-2.7038-2.7038" fill="none" stroke="#323232" stroke-linecap="round" stroke-linejoin="round" stroke-width="1.5"/><path d="M4.4339,16.86224,4.007,19.41742a.5.5,0,0,0,.57556.57556l2.555-.427" fill="none" stroke="#323232" stroke-linecap="round" stroke-linejoin="round" stroke-width="1.5"/></svg>