<svg id="Layer_3" data-name="Layer 3" xmlns="http://www.w3.org/2000/svg" viewBox="0 0 24 24"><path d="M0,24V0H24V24Z" fill="none"/><line x1="8" y1="15" x2="16" y2="15" fill="none" stroke="#323232" stroke-linecap="round" stroke-linejoin="round" stroke-width="1.5"/><path d="M14.70764,9.63467l-2.07246,2.07246A1,1,0,0,1,11.92807,12H10.25a.25.25,0,0,1-.25-.25V10.07187a1,1,0,0,1,.29279-.707L12.364,7.29305a1,1,0,0,1,1.41437-.00012l.92841.92841A.9992.9992,0,0,1,14.70764,9.63467Z" fill="none" stroke="#323232" stroke-linecap="round" stroke-linejoin="round" stroke-width="1.5"/><rect x="3" y="3" width="18" height="18" rx="8.99999" stroke-width="1.5" stroke="#323232" stroke-linecap="round" stroke-linejoin="round" fill="none"/><path d="M0,24V0H24V24Z" fill="none"/></svg>