<svg id="Layer_3" data-name="Layer 3" xmlns="http://www.w3.org/2000/svg" viewBox="0 0 24 24"><path d="M18,5l2.41421,2.41421A2,2,0,0,1,21,8.82843V15.5A1.5,1.5,0,0,1,19.5,17h0A1.5,1.5,0,0,1,18,15.5V12" fill="none" stroke="#323232" stroke-linecap="round" stroke-linejoin="round" stroke-width="1.5"/><line x1="21" y1="21" x2="3" y2="21" fill="none" stroke="#323232" stroke-linecap="round" stroke-linejoin="round" stroke-width="1.5"/><path d="M7,3h6a2,2,0,0,1,2,2V18a0,0,0,0,1,0,0H5a0,0,0,0,1,0,0V5A2,2,0,0,1,7,3Z" fill="none" stroke="#323232" stroke-linecap="round" stroke-linejoin="round" stroke-width="1.5"/><path d="M10.20625,13,11.25,11H8.75L9.79375,9" fill="none" stroke="#323232" stroke-linecap="round" stroke-linejoin="round" stroke-width="1.5"/><path d="M0,0H24V24H0Z" fill="none"/></svg>