<svg id="Layer_3" data-name="Layer 3" xmlns="http://www.w3.org/2000/svg" viewBox="0 0 24 24"><path d="M13.4646,10.4647l.00009-.00009a.05.05,0,1,1-.00009.00009" fill="none" stroke="#323232" stroke-linecap="round" stroke-linejoin="round" stroke-width="1.5"/><path d="M7.5,11.57563A4.20509,4.20509,0,0,1,12.42438,16.5" fill="none" stroke="#323232" stroke-linecap="round" stroke-linejoin="round" stroke-width="1.5"/><rect x="7.5" y="7.50001" width="9" height="9" rx="2" stroke-width="1.5" stroke="#323232" stroke-linecap="round" stroke-linejoin="round" fill="none"/><path d="M3.68855,3.68855h0a2.35083,2.35083,0,0,0,0,3.32457h0a2.35085,2.35085,0,0,1,0,3.32458h0a2.35085,2.35085,0,0,0,0,3.32458h0a2.35085,2.35085,0,0,1,0,3.32458h0a2.35085,2.35085,0,0,0,0,3.32458h0a2.35083,2.35083,0,0,0,3.32457,0h0a2.35085,2.35085,0,0,1,3.32458,0h0a2.35085,2.35085,0,0,0,3.32458,0h0a2.35085,2.35085,0,0,1,3.32458,0h0a2.35085,2.35085,0,0,0,3.32458,0h0a2.35085,2.35085,0,0,0,0-3.32458h0a2.35085,2.35085,0,0,1,0-3.32458h0a2.35085,2.35085,0,0,0,0-3.32458h0a2.35085,2.35085,0,0,1,0-3.32458h0a2.35083,2.35083,0,0,0,0-3.32457h0a2.35083,2.35083,0,0,0-3.32457,0h0a2.35085,2.35085,0,0,1-3.32458,0h0a2.35085,2.35085,0,0,0-3.32458,0h0a2.35085,2.35085,0,0,1-3.32458,0h0A2.35083,2.35083,0,0,0,3.68855,3.68855Z" fill="none" stroke="#323232" stroke-linecap="round" stroke-linejoin="round" stroke-width="1.5"/><path d="M0,0H24V24H0Z" fill="none"/></svg>