<svg xmlns="http://www.w3.org/2000/svg" viewBox="0 0 24 24"><g id="Layer_2" data-name="Layer 2"><path d="M18,22h1.6A2.4,2.4,0,0,0,22,19.6V18" fill="none" stroke="#323232" stroke-linecap="round" stroke-linejoin="round" stroke-width="1.5"/><path d="M16.5,17.5h-9A2.5,2.5,0,0,1,5,15V9A2.5,2.5,0,0,1,7.5,6.5h9A2.5,2.5,0,0,1,19,9v6A2.5,2.5,0,0,1,16.5,17.5Z" fill="none" stroke="#323232" stroke-linecap="round" stroke-linejoin="round" stroke-width="1.5"/><path d="M14,9.5h1a1.00036,1.00036,0,0,1,1,1v1a1.00036,1.00036,0,0,1-1,1H14a1.00036,1.00036,0,0,1-1-1v-1A1.00036,1.00036,0,0,1,14,9.5Z" fill="none" stroke="#323232" stroke-linecap="round" stroke-linejoin="round" stroke-width="1.5"/><path d="M10,14H8" fill="none" stroke="#323232" stroke-linecap="round" stroke-linejoin="round" stroke-width="1.5"/><path d="M9,11.5H8" fill="none" stroke="#323232" stroke-linecap="round" stroke-linejoin="round" stroke-width="1.5"/><path d="M6,2H4.4A2.4,2.4,0,0,0,2,4.4V6" fill="none" stroke="#323232" stroke-linecap="round" stroke-linejoin="round" stroke-width="1.5"/><path d="M22,6V4.4A2.4,2.4,0,0,0,19.6,2H18" fill="none" stroke="#323232" stroke-linecap="round" stroke-linejoin="round" stroke-width="1.5"/><path d="M2,18v1.6A2.4,2.4,0,0,0,4.4,22H6" fill="none" stroke="#323232" stroke-linecap="round" stroke-linejoin="round" stroke-width="1.5"/><path d="M0,0H24V24H0Z" fill="none"/></g></svg>