<svg id="Layer_3" data-name="Layer 3" xmlns="http://www.w3.org/2000/svg" viewBox="0 0 24 24"><rect width="24" height="24" fill="none"/><path d="M9,16H6.5A3.5,3.5,0,0,1,3,12.5v-6A3.5,3.5,0,0,1,6.5,3h10A3.5,3.5,0,0,1,20,6.5V9" fill="none" stroke="#323232" stroke-linecap="round" stroke-linejoin="round" stroke-width="1.5"/><path d="M6.5,7.25l4.20463,1.83327a2,2,0,0,0,1.59313.00241L16.5,7.26861" fill="none" stroke="#323232" stroke-linecap="round" stroke-linejoin="round" stroke-width="1.5"/><path d="M15,16.99976l-.58547-.58549a1.41435,1.41435,0,0,0-2.00022,0h0a1.41435,1.41435,0,0,0-.17677,1.78455l1.94,2.91047A2.00007,2.00007,0,0,0,15.84179,22h3.79608a2,2,0,0,0,1.98455-1.752l.36195-2.89685a2,2,0,0,0-1.66266-2.22186L18,14.75067V12.5A1.5,1.5,0,0,0,16.5,11h0A1.5,1.5,0,0,0,15,12.5Z" fill="none" stroke="#323232" stroke-linecap="round" stroke-linejoin="round" stroke-width="1.5"/></svg>