<svg id="Layer_3" data-name="Layer 3" xmlns="http://www.w3.org/2000/svg" viewBox="0 0 24 24"><rect width="24" height="24" fill="none"/><path d="M7.625,10.25v3.5a1.75,1.75,0,0,0,1.75,1.75h5.25a1.75,1.75,0,0,0,1.75-1.75v-3.5a1.75,1.75,0,0,0-1.75-1.75H9.375A1.75,1.75,0,0,0,7.625,10.25Z" fill="none" stroke="#323232" stroke-linecap="round" stroke-linejoin="round" stroke-width="1.5"/><path d="M10.01055,11l1.48761.86236a1.02263,1.02263,0,0,0,1.02482,0L14.01055,11" fill="none" stroke="#323232" stroke-linecap="round" stroke-linejoin="round" stroke-width="1.5"/><path d="M4.62892,17.16368a8.99979,8.99979,0,1,1,2.20679,2.2067l-2.83727.63045Z" fill="none" stroke="#323232" stroke-linecap="round" stroke-linejoin="round" stroke-width="1.5"/></svg>