<svg id="Layer_3" data-name="Layer 3" xmlns="http://www.w3.org/2000/svg" viewBox="0 0 24 24"><path d="M11,21H7.5A4.5,4.5,0,0,1,3,16.5v-9A4.5,4.5,0,0,1,7.5,3h9A4.5,4.5,0,0,1,21,7.5V11" fill="none" stroke="#323232" stroke-linecap="round" stroke-linejoin="round" stroke-width="1.5"/><circle cx="18" cy="18.00001" r="4" fill="none" stroke="#323232" stroke-linecap="round" stroke-linejoin="round" stroke-width="1.5"/><polyline points="16.75 17.887 17.75 18.887 19.25 17.387" fill="none" stroke="#323232" stroke-linecap="round" stroke-linejoin="round" stroke-width="1.5"/><path d="M17,11V10a2,2,0,0,0-2-2H9a2,2,0,0,0-2,2v4a2,2,0,0,0,2,2h2" fill="none" stroke="#323232" stroke-linecap="round" stroke-linejoin="round" stroke-width="1.5"/><path d="M9.76205,11l1.74563.88192a1.13635,1.13635,0,0,0,1.00881,0L14.26205,11" fill="none" stroke="#323232" stroke-linecap="round" stroke-linejoin="round" stroke-width="1.5"/><rect y="0.00001" width="24" height="24" fill="none"/></svg>