<svg id="Layer_3" data-name="Layer 3" xmlns="http://www.w3.org/2000/svg" viewBox="0 0 24 24"><path d="M24,0H0V24H24Z" fill="none"/><path d="M17.5,20.5,16,19l1.5-1.5" fill="none" stroke="#323232" stroke-linecap="round" stroke-linejoin="round" stroke-width="1.5"/><path d="M16,19h3a2,2,0,0,0,2-2V16" fill="none" stroke="#323232" stroke-linecap="round" stroke-linejoin="round" stroke-width="1.5"/><path d="M6.5,3.5,8,5,6.5,6.5" fill="none" stroke="#323232" stroke-linecap="round" stroke-linejoin="round" stroke-width="1.5"/><path d="M8,5H5A2,2,0,0,0,3,7V8" fill="none" stroke="#323232" stroke-linecap="round" stroke-linejoin="round" stroke-width="1.5"/><path d="M3.6291,11H5.47079a1,1,0,0,1,.82685.43758l.91395,1.34363A.5.5,0,0,0,7.625,13h3.7459A1.6291,1.6291,0,0,1,13,14.6291v4.7418A1.6291,1.6291,0,0,1,11.3709,21H3.6291A1.6291,1.6291,0,0,1,2,19.3709H2V12.6291A1.6291,1.6291,0,0,1,3.6291,11Z" fill="none" stroke="#323232" stroke-linecap="round" stroke-linejoin="round" stroke-width="1.5"/><path d="M16,12h3.75A2.25,2.25,0,0,0,22,9.75V5.25A2.25,2.25,0,0,0,19.75,3h-6.5A2.25,2.25,0,0,0,11,5.25V9" fill="none" stroke="#323232" stroke-linecap="round" stroke-linejoin="round" stroke-width="1.5"/><path d="M14,6.5l1.98914.8908a1.25,1.25,0,0,0,1.02181,0L19,6.5" fill="none" stroke="#323232" stroke-linecap="round" stroke-linejoin="round" stroke-width="1.5"/></svg>