<?xml version="1.0" encoding="UTF-8"?><svg version="1.1" viewBox="0 0 24 24" xmlns="http://www.w3.org/2000/svg" xmlns:xlink="http://www.w3.org/1999/xlink"><g fill="none"><path d="M0 0h24v24h-24Z"></path><path stroke="#323232" stroke-linecap="round" stroke-linejoin="round" stroke-width="1.5" d="M14 17h-2l-2.18557e-07-7.10543e-15c-2.76142-1.20706e-07-5-2.23858-5-5 1.20706e-07-2.76142 2.23858-5 5-5 2.76142 1.20706e-07 5 2.23858 5 5v.833 0c0 .767124-.621876 1.389-1.389 1.389 -.767124 0-1.389-.621876-1.389-1.389v-.833 -1.77636e-15c0-1.22718-.994823-2.222-2.222-2.222v0l-9.71267e-08 1.77636e-15c-1.22718 5.36416e-08-2.222.994823-2.222 2.222 5.36416e-08 1.22718.994823 2.222 2.222 2.222 1.22718-5.36416e-08 2.222-.994823 2.222-2.222"></path><circle cx="12" cy="12" r="9" stroke="#323232" stroke-linecap="round" stroke-linejoin="round" stroke-width="1.5"></circle></g></svg>