<svg id="Layer_3" data-name="Layer 3" xmlns="http://www.w3.org/2000/svg" viewBox="0 0 24 24"><path d="M0,0H24V24H0Z" fill="none"/><path d="M2,20.5v-.406A2.1,2.1,0,0,1,4.094,18H7.906A2.1,2.1,0,0,1,10,20.094V20.5a.5.5,0,0,1-.5.5h-7A.5.5,0,0,1,2,20.5Z" fill="none" stroke="#323232" stroke-linecap="round" stroke-linejoin="round" stroke-width="1.5"/><circle cx="6" cy="13.5" r="2" fill="none" stroke="#323232" stroke-linecap="round" stroke-linejoin="round" stroke-width="1.5"/><path d="M4,8V6A3,3,0,0,1,7,3H19a3,3,0,0,1,3,3v9a3,3,0,0,1-3,3H12" fill="none" stroke="#323232" stroke-linecap="round" stroke-linejoin="round" stroke-width="1.5"/><path d="M11.25044,12.49925V8.50075A.5.5,0,0,1,12.005,8.0704l3.38038,1.99924a.5.5,0,0,1,0,.86072L12.005,12.9296A.5.5,0,0,1,11.25044,12.49925Z" fill="none" stroke="#323232" stroke-linecap="round" stroke-linejoin="round" stroke-width="1.5"/></svg>