<svg viewBox="0 0 24 24" xmlns="http://www.w3.org/2000/svg"><g stroke-linecap="round" stroke-width="1.5" stroke="#323232" fill="none" stroke-linejoin="round"><path d="M13.23 14.79l-.01-.01c.68.68.68 1.79 0 2.47 -.69.68-1.8.68-2.48 0 -.69-.69-.69-1.8-.01-2.48 0-.01 0-.01 0-.01l-.01 0c.68-.69 1.79-.69 2.47-.01"/><path d="M17.73 10.29l0 0c.68.68.68 1.79-.01 2.47 -.69.68-1.8.68-2.48-.01 -.69-.69-.69-1.8 0-2.48l-.01 0c.68-.69 1.79-.69 2.47-.01 0 0 0 0 0 0"/><path d="M21 13V5.25v0C21 4 19.99 3 18.75 3H5.25l-.01 0C3.99 3 2.99 4 2.99 5.25s0 0 0 0V13"/><path d="M17 16l0-.01c1.08-.01 2.13.34 3 1"/><path d="M9.25 11.75v0c0 .96-.79 1.75-1.75 1.75 -.97 0-1.75-.79-1.75-1.75 0-.97.78-1.75 1.75-1.75l-.01 0c.96-.01 1.75.78 1.75 1.74"/><path d="M4 17l0-.01c.84-.65 1.88-.99 2.94-.99"/><path d="M15 21l0 0c-1.78-1.34-4.23-1.34-6-.01"/></g><path fill="none" d="M0 24V0h24v24"/></svg>