<?xml version="1.0" encoding="UTF-8"?><svg version="1.1" viewBox="0 0 24 24" xmlns="http://www.w3.org/2000/svg" xmlns:xlink="http://www.w3.org/1999/xlink"><!--Generated by IJSVG (https://github.com/iconjar/IJSVG)--><g stroke-linecap="round" stroke-width="1.5" stroke="#323232" fill="none" stroke-linejoin="round"><path d="M4,3h14c1.105,0 2,0.895 2,2v13"></path><path d="M8,21v0c1.105,0 2,-0.895 2,-2v-1"></path><path d="M13.986,7c0.846,0 1.414,0.745 1.414,1.439c0,1.408 -2.357,2.561 -2.4,2.561"></path><path d="M12.014,7c-0.846,0 -1.414,0.745 -1.414,1.439c0,1.408 2.357,2.561 2.4,2.561"></path><path d="M13,7.428c0.184,-0.202 0.502,-0.428 0.986,-0.428"></path><path d="M13,7.428c-0.184,-0.202 -0.502,-0.428 -0.986,-0.428"></path><path d="M10,14h7"></path><path d="M10,18h12v0.895c0,1.163 -0.942,2.105 -2.105,2.105v0h-11.895c-1.105,0 -2,-0.895 -2,-2v-13v-1c0,-1.105 -0.895,-2 -2,-2v0c-1.105,0 -2,0.895 -2,2v1"></path><path d="M2,6h4"></path></g><path fill="none" d="M0,0h24v24h-24Z"></path></svg>