<svg id="Layer_3" data-name="Layer 3" xmlns="http://www.w3.org/2000/svg" viewBox="0 0 24 24"><path d="M0,0H24V24H0Z" fill="none"/><path d="M6.82843,19.82843,4.17157,17.17157A4,4,0,0,1,3,14.34315V9.65785A4,4,0,0,1,4.17157,6.82943L6.82943,4.17157A4,4,0,0,1,9.65785,3h4.68329a4,4,0,0,1,2.82843,1.17157l2.65886,2.65886A4,4,0,0,1,21,9.65886v4.68329A4,4,0,0,1,19.829,17.17l-2.6569,2.6579A4,4,0,0,1,14.34315,21H9.65686A4,4,0,0,1,6.82843,19.82843Z" fill="none" stroke="#323232" stroke-linecap="round" stroke-linejoin="round" stroke-width="1.5"/><path d="M9.3,16h5.4a1.8,1.8,0,0,0,1.8-1.8V10.4875a1.8,1.8,0,0,0-.846-1.5264l-2.7-1.6875a1.8,1.8,0,0,0-1.908,0l-2.7,1.6875A1.8,1.8,0,0,0,7.5,10.4875V14.2A1.8,1.8,0,0,0,9.3,16Z" fill="none" stroke="#323232" stroke-linecap="round" stroke-linejoin="round" stroke-width="1.5"/><path d="M13.75,11.25l-1.30661.64635a1,1,0,0,1-.88678,0L10.25,11.25" fill="none" stroke="#323232" stroke-linecap="round" stroke-linejoin="round" stroke-width="1.5"/></svg>