<?xml version="1.0" encoding="UTF-8"?><svg version="1.1" viewBox="0 0 24 24" xmlns="http://www.w3.org/2000/svg" xmlns:xlink="http://www.w3.org/1999/xlink"><g fill="none"><path d="M0 0h24v24h-24Z"></path><path stroke="#323232" stroke-linecap="round" stroke-linejoin="round" stroke-width="1.5" d="M3 13v-5l5.68434e-14 7.54979e-07c-4.16963e-07-2.76142 2.23858-5 5-5h8l-2.18557e-07 5.32907e-15c2.76142-1.20706e-07 5 2.23858 5 5v8 1.77636e-15c0 2.76142-2.23858 5-5 5 0 0-1.77636e-15 0-1.77636e-15 0h-3"></path><path stroke="#323232" stroke-linecap="round" stroke-linejoin="round" stroke-width="1.5" d="M8.05805 21h-2.00355l-1.1523e-07-4.15668e-13c-.530432-1.92016e-06-1.03914-.210717-1.41421-.58579l-1.0532-1.05321 -2.90942e-09-2.90942e-09c-.782795-.782794-.782795-2.05195-1.33481e-06-2.83475 4.46754e-07-4.46754e-07 8.93876e-07-8.93876e-07 1.34063e-06-1.34063e-06l6.93917-6.93915 1.2389e-07-1.23888e-07c.782792-.782782 2.05194-.782782 2.83473 2.47777e-07l2.0519 2.05184 -1.55895e-08-1.55892e-08c.782786.782771.782799 2.05191 2.79405e-05 2.83469 -9.30301e-06 9.30319e-06-1.86061e-05 1.86063e-05-2.79093e-05 2.79093e-05l-5.94063 5.94056 4.09898e-10-4.09894e-10c-.375073.37507-.883779.585781-1.41421.58578Z"></path><line x1="7.06" x2="11.94" y1="13.06" y2="17.94" stroke="#323232" stroke-linecap="round" stroke-linejoin="round" stroke-width="1.5"></line></g></svg>