<svg viewBox="0 0 24 24" xmlns="http://www.w3.org/2000/svg"><g stroke-linecap="round" stroke-width="1.5" stroke="#323232" fill="none" stroke-linejoin="round"><path d="M8 4H5.25l-.01-.001c-1.25-.01-2.25 1-2.25 2.24 -.01 0-.01 0 0 0v11.5l-.01 0c-.01 1.24 1 2.24 2.24 2.24 0 0 0-.01 0-.01h2.74"/><path d="M13.6 20.94l5.62-1.25 0-.01c1.03-.23 1.76-1.15 1.76-2.2V6.46l0-.01c0-1.06-.74-1.97-1.77-2.2L13.585 3l0 0c-1.22-.27-2.42.49-2.69 1.71 -.04.15-.06.32-.06.48v13.49l-.01-.01c0 1.24 1 2.24 2.24 2.24 .16-.01.32-.02.48-.06Z"/><path d="M14.09 11.9l0 0c.05.05.05.14-.01.19 -.06.05-.15.05-.2-.01 -.06-.06-.06-.15 0-.2l-.01 0c.05-.06.14-.06.19-.01 0 0 0 0 0 0"/></g><path fill="none" d="M0 0h24v24H0Z"/></svg>