<?xml version="1.0" encoding="UTF-8"?><svg version="1.1" viewBox="0 0 24 24" xmlns="http://www.w3.org/2000/svg" xmlns:xlink="http://www.w3.org/1999/xlink"><g stroke-linecap="round" stroke-width="1.5" stroke="#323232" fill="none" stroke-linejoin="round"><path d="M10.181 16.817c-1.004-1.004-1.004-2.633 0-3.639 1.004-1.004 2.633-1.004 3.639 0 1.004 1.004 1.004 2.633 0 3.639 -1.006 1.006-2.634 1.006-3.639 0"></path><path d="M20 15c0 .565-.135 1.124-.396 1.639v0c-1.347 2.654-4.323 4.361-7.604 4.361 -3.281 0-6.257-1.707-7.604-4.361v0c-.261-.515-.396-1.074-.396-1.639 0-.565.135-1.124.396-1.639v0c1.347-2.654 4.323-4.361 7.604-4.361 3.281 0 6.257 1.707 7.604 4.361v0c.261.515.396 1.074.396 1.639Z"></path><path d="M12 3v6"></path><path d="M9.5 5.5l2.5-2.5 2.5 2.5"></path></g><path fill="none" d="M24 24h-24v-24h24v24Z"></path></svg>