<svg id="Layer_3" data-name="Layer 3" xmlns="http://www.w3.org/2000/svg" viewBox="0 0 24 24"><path d="M0,0H24V24H0Z" fill="none"/><line x1="19.83333" y1="19.16667" x2="4.83333" y2="4.16667" fill="none" stroke="#323232" stroke-linecap="round" stroke-linejoin="round" stroke-width="1.5"/><rect x="3" y="3" width="18" height="18" rx="5" stroke-width="1.5" stroke="#323232" stroke-linecap="round" stroke-linejoin="round" fill="none"/><path d="M10.96375,10.29706a1.9951,1.9951,0,1,0,2.73919,2.73919" fill="none" stroke="#323232" stroke-linecap="round" stroke-linejoin="round" stroke-width="1.5"/><path d="M8.9198,8.25317a6.31285,6.31285,0,0,0-2.53064,2.34327,2.72547,2.72547,0,0,0,0,2.80712A6.52838,6.52838,0,0,0,12,16.5" fill="none" stroke="#323232" stroke-linecap="round" stroke-linejoin="round" stroke-width="1.5"/><path d="M15.91089,15.24414A6.67734,6.67734,0,0,1,12,16.5" fill="none" stroke="#323232" stroke-linecap="round" stroke-linejoin="round" stroke-width="1.5"/><path d="M17.69849,13.19849a2.70994,2.70994,0,0,0-.08765-2.60205A6.52838,6.52838,0,0,0,12,7.5" fill="none" stroke="#323232" stroke-linecap="round" stroke-linejoin="round" stroke-width="1.5"/></svg>