<?xml version="1.0" encoding="UTF-8"?><svg version="1.1" viewBox="0 0 24 24" xmlns="http://www.w3.org/2000/svg" xmlns:xlink="http://www.w3.org/1999/xlink"><g stroke-linecap="round" stroke-width="1.5" stroke="#323232" fill="none" stroke-linejoin="round"><path d="M13.179 10.822c.651.651.651 1.707 0 2.358 -.651.651-1.707.651-2.358 0 -.651-.651-.651-1.707 0-2.358 .651-.652 1.707-.652 2.358 1.77636e-15"></path><path d="M7 12c0-.366.084-.728.248-1.062v0c.841-1.721 2.701-2.827 4.752-2.827 2.051 0 3.911 1.106 4.752 2.827v0c.164.334.248.696.248 1.062 0 .366-.084.728-.248 1.062v0c-.842 1.72-2.702 2.827-4.752 2.827 -2.051 0-3.911-1.106-4.752-2.827v0c-.164-.334-.248-.696-.248-1.062Z"></path><circle cx="12" cy="12" r="9"></circle></g><path fill="none" d="M0 0h24v24h-24v-24Z"></path></svg>