<svg id="Layer_3" data-name="Layer 3" xmlns="http://www.w3.org/2000/svg" viewBox="0 0 24 24"><rect width="24" height="24" fill="none"/><rect x="15" y="16" width="7" height="5" rx="1.5" stroke-width="1.5" stroke="#323232" stroke-linecap="round" stroke-linejoin="round" fill="none"/><path d="M13.4145,8.58725a2.00111,2.00111,0,1,1-2.83,0,2.00259,2.00259,0,0,1,2.83,0" fill="none" stroke="#323232" stroke-linecap="round" stroke-linejoin="round" stroke-width="1.5"/><path d="M20.88074,9a4.40141,4.40141,0,0,0-.32672-.912A9.4531,9.4531,0,0,0,12,3,9.45309,9.45309,0,0,0,3.446,8.088h0a4.32137,4.32137,0,0,0,0,3.824h0A9.34827,9.34827,0,0,0,11,16.93286" fill="none" stroke="#323232" stroke-linecap="round" stroke-linejoin="round" stroke-width="1.5"/><path d="M16.4,16V14.6a2.1,2.1,0,0,1,2.1-2.1h0a2.1,2.1,0,0,1,2.1,2.1h0V16" fill="none" stroke="#323232" stroke-linecap="round" stroke-linejoin="round" stroke-width="1.5"/></svg>