<?xml version="1.0" encoding="UTF-8"?><svg version="1.1" viewBox="0 0 24 24" xmlns="http://www.w3.org/2000/svg" xmlns:xlink="http://www.w3.org/1999/xlink"><g stroke-linecap="round" stroke-width="1.5" stroke="#323232" fill="none" stroke-linejoin="round"><path d="M14.25 14.5h-4.5c-.414 0-.75-.314-.75-.7v-2.1c0-.386.336-.7.75-.7h4.5c.414 0 .75.314.75.7v2.1c0 .386-.336.7-.75.7Z"></path><path d="M4 15.667v-10.667c0-1.105.895-2 2-2h12c1.105 0 2 .895 2 2v10.667c0 .726-.394 1.396-1.029 1.748l-6 3.333c-.604.336-1.339.336-1.943 0l-6-3.333c-.634-.353-1.028-1.022-1.028-1.748Z"></path><path d="M10.179 10.858v-1.537c0-1.005.816-1.821 1.821-1.821v0c1.005 0 1.821.816 1.821 1.821v1.537"></path></g><rect width="24" height="24" fill="none"></rect></svg>