<?xml version="1.0" encoding="UTF-8"?><svg version="1.1" viewBox="0 0 24 24" xmlns="http://www.w3.org/2000/svg" xmlns:xlink="http://www.w3.org/1999/xlink"><!--Generated by IJSVG (https://github.com/iconjar/IJSVG)--><g stroke-linecap="round" stroke-width="1.5" stroke="#323232" fill="none" stroke-linejoin="round"><path d="M19,21h-14c-1.105,0 -2,-0.895 -2,-2v-14c0,-1.105 0.895,-2 2,-2h14c1.105,0 2,0.895 2,2v14c0,1.105 -0.895,2 -2,2Z"></path><path d="M11.999,15.425l2.4,1.251c0.467,0.244 1.013,-0.15 0.924,-0.666l-0.458,-2.651l1.942,-1.877c0.378,-0.366 0.17,-1.003 -0.353,-1.078l-2.683,-0.387l-1.2,-2.414c-0.234,-0.47 -0.909,-0.47 -1.142,0l-1.2,2.414l-2.683,0.387c-0.522,0.075 -0.731,0.713 -0.353,1.078l1.942,1.877l-0.458,2.651c-0.089,0.516 0.457,0.91 0.924,0.666l2.4,-1.251"></path></g><path fill="none" d="M0,0h24v24h-24Z"></path></svg>