<?xml version="1.0" encoding="UTF-8"?><svg version="1.1" viewBox="0 0 24 24" xmlns="http://www.w3.org/2000/svg" xmlns:xlink="http://www.w3.org/1999/xlink"><g fill="none"><path d="M0 0h24v24h-24Z"></path><path stroke="#323232" stroke-linecap="round" stroke-linejoin="round" stroke-width="1.5" d="M14 10l-7 7"></path><path stroke="#323232" stroke-linecap="round" stroke-linejoin="round" stroke-width="1.5" d="M12 7.44177l-2.91421 2.91423 1.38049e-07-1.38048e-07c-.375071.375069-.585786.883771-.58579 1.4142v3.7298h3.72926l-7.30029e-08-1.06581e-13c.530426 7.81966e-07 1.03913-.210707 1.4142-.58577l2.9106-2.91057 6.77325e-08-6.76164e-08c1.25974-1.25758 1.26149-3.29827.00390955-4.55801 -.000636296-.000637389-.00127286-.00127451-.00190969-.00191137v0l3.37637e-08 3.37521e-08c-1.25802-1.25759-3.29695-1.25847-4.55606-.00197005Z"></path><rect width="18" height="18" x="3" y="3" rx="2.7614" ry="0" stroke="#323232" stroke-linecap="round" stroke-linejoin="round" stroke-width="1.5"></rect></g></svg>