<?xml version="1.0" encoding="UTF-8"?><svg version="1.1" viewBox="0 0 24 24" xmlns="http://www.w3.org/2000/svg" xmlns:xlink="http://www.w3.org/1999/xlink"><!--Generated by IJSVG (https://github.com/iconjar/IJSVG)--><g stroke-linecap="round" stroke-width="1.5" stroke="#323232" fill="none" stroke-linejoin="round"><path d="M12,9h-3c-1.657,0 -3,-1.343 -3,-3v0c0,-1.657 1.343,-3 3,-3h3v6Z"></path><path d="M12,9h-3c-1.657,0 -3,1.343 -3,3v0c0,1.657 1.343,3 3,3h3v-6Z"></path><path d="M12,15h-3c-1.657,0 -3,1.343 -3,3v0c0,1.657 1.343,3 3,3v0c1.657,0 3,-1.343 3,-3v-3Z"></path><path d="M17.1213,9.87868c1.17157,1.17157 1.17157,3.07107 0,4.24264c-1.17157,1.17157 -3.07107,1.17157 -4.24264,0c-1.17157,-1.17157 -1.17157,-3.07107 0,-4.24264c1.17157,-1.17157 3.07107,-1.17157 4.24264,0"></path><path d="M15,9h-3v-6h3c1.657,0 3,1.343 3,3v0c0,1.657 -1.343,3 -3,3Z"></path></g><path fill="none" d="M0,0h24v24h-24v-24Z"></path></svg>