<?xml version="1.0" encoding="UTF-8"?><svg version="1.1" viewBox="0 0 24 24" xmlns="http://www.w3.org/2000/svg" xmlns:xlink="http://www.w3.org/1999/xlink"><!--Generated by IJSVG (https://github.com/iconjar/IJSVG)--><g fill="none"><path d="M0,0h24v24h-24v-24Z"></path><path stroke="#323232" stroke-linecap="round" stroke-linejoin="round" stroke-width="1.5" d="M12.25,10.417h-1.833c-1.013,0 -1.833,-0.821 -1.833,-1.833v0c0,-1.013 0.821,-1.833 1.833,-1.833h1.833v3.666Z"></path><path stroke="#323232" stroke-linecap="round" stroke-linejoin="round" stroke-width="1.5" d="M12.25,10.417h-1.833c-1.013,0 -1.833,0.821 -1.833,1.833v0c0,1.013 0.821,1.833 1.833,1.833h1.833v-3.666Z"></path><path stroke="#323232" stroke-linecap="round" stroke-linejoin="round" stroke-width="1.5" d="M12.25,14.083h-1.833c-1.013,0 -1.833,0.821 -1.833,1.833v0c0,1.013 0.821,1.833 1.833,1.833v0c1.013,0 1.833,-0.821 1.833,-1.833v-1.833Z"></path><path stroke="#323232" stroke-linecap="round" stroke-linejoin="round" stroke-width="1.5" d="M15.3791,10.9539c0.715831,0.715831 0.715831,1.87642 0,2.59225c-0.715831,0.715831 -1.87642,0.715831 -2.59225,0c-0.715831,-0.715831 -0.715831,-1.87642 0,-2.59225c0.715831,-0.715831 1.87642,-0.715831 2.59225,0"></path><path stroke="#323232" stroke-linecap="round" stroke-linejoin="round" stroke-width="1.5" d="M14.083,10.417h-1.833v-3.667h1.833c1.013,0 1.833,0.821 1.833,1.833v0c0.001,1.013 -0.82,1.834 -1.833,1.834Z"></path><path stroke="#323232" stroke-linecap="round" stroke-linejoin="round" stroke-width="1.5" d="M18.364,5.63604c3.51472,3.51472 3.51472,9.2132 0,12.7279c-3.51472,3.51472 -9.2132,3.51472 -12.7279,0c-3.51472,-3.51472 -3.51472,-9.2132 -1.77636e-15,-12.7279c3.51472,-3.51472 9.2132,-3.51472 12.7279,-1.77636e-15"></path></g></svg>