<?xml version="1.0" encoding="UTF-8"?><svg version="1.1" viewBox="0 0 24 24" xmlns="http://www.w3.org/2000/svg" xmlns:xlink="http://www.w3.org/1999/xlink"><!--Generated by IJSVG (https://github.com/iconjar/IJSVG)--><g stroke-linecap="round" stroke-width="1.5" stroke="#323232" fill="none" stroke-linejoin="round"><path d="M12.25,10.417h-1.833c-1.013,0 -1.833,-0.821 -1.833,-1.833v0c0,-1.013 0.821,-1.833 1.833,-1.833h1.833v3.666Z"></path><path d="M12.25,10.417h-1.833c-1.013,0 -1.833,0.821 -1.833,1.833v0c0,1.013 0.821,1.833 1.833,1.833h1.833v-3.666Z"></path><path d="M12.25,14.083h-1.833c-1.013,0 -1.833,0.821 -1.833,1.833v0c0,1.013 0.821,1.833 1.833,1.833v0c1.013,0 1.833,-0.821 1.833,-1.833v-1.833Z"></path><path d="M15.3791,10.9539c0.715831,0.715831 0.715831,1.87642 0,2.59225c-0.715831,0.715831 -1.87642,0.715831 -2.59225,0c-0.715831,-0.715831 -0.715831,-1.87642 0,-2.59225c0.715831,-0.715831 1.87642,-0.715831 2.59225,0"></path><path d="M14.083,10.417h-1.833v-3.667h1.833c1.013,0 1.833,0.821 1.833,1.833v0c0.001,1.013 -0.82,1.834 -1.833,1.834Z"></path></g><path fill="none" d="M0,0h24v24h-24v-24Z"></path><path d="M7.5,3h9.004c2.483,0 4.496,2.013 4.496,4.496v9.009c0,2.482 -2.013,4.495 -4.496,4.495h-9.008c-2.483,0 -4.496,-2.013 -4.496,-4.496v-9.004c0,-2.485 2.015,-4.5 4.5,-4.5Z" stroke-linecap="round" stroke-width="1.5" stroke="#323232" fill="none" stroke-linejoin="round"></path></svg>