<svg id="Layer_3" data-name="Layer 3" xmlns="http://www.w3.org/2000/svg" viewBox="0 0 24 24"><path d="M0,0H24V24H0Z" fill="none"/><path d="M16,18h2a2,2,0,0,0,2-2V5a2,2,0,0,0-2-2H9A2,2,0,0,0,7,5V7" fill="none" stroke="#323232" stroke-linecap="round" stroke-linejoin="round" stroke-width="1.5"/><path d="M15.3593,9.47041,13.52959,7.6407A2.1875,2.1875,0,0,0,11.9828,7H6A2,2,0,0,0,4,9V19a2,2,0,0,0,2,2h8a2,2,0,0,0,2-2V11.0172A2.1875,2.1875,0,0,0,15.3593,9.47041Z" fill="none" stroke="#323232" stroke-linecap="round" stroke-linejoin="round" stroke-width="1.5" fill-rule="evenodd"/><path d="M16,11.5H13A1.5,1.5,0,0,1,11.5,10V7" fill="none" stroke="#323232" stroke-linecap="round" stroke-linejoin="round" stroke-width="1.5"/></svg>