<?xml version="1.0" encoding="UTF-8"?><svg version="1.1" viewBox="0 0 24 24" xmlns="http://www.w3.org/2000/svg" xmlns:xlink="http://www.w3.org/1999/xlink"><g fill="none"><path d="M0 0h24v24h-24Z"></path><path stroke="#323232" stroke-linecap="round" stroke-linejoin="round" stroke-width="1.5" d="M20.4142 2.58579c.781049.781049.781049 2.04738 0 2.82843 -.781049.781049-2.04738.781049-2.82843 0 -.781049-.781049-.781049-2.04738 0-2.82843 .781049-.781049 2.04738-.781049 2.82843-4.44089e-16"></path><path stroke="#323232" stroke-linecap="round" stroke-linejoin="round" stroke-width="1.5" d="M3 10v-5c0-1.105.895-2 2-2h8"></path><path stroke="#323232" stroke-linecap="round" stroke-linejoin="round" stroke-width="1.5" d="M3 18v1c0 1.105.895 2 2 2h12c1.105 0 2-.895 2-2v-9"></path><path stroke="#323232" stroke-linecap="round" stroke-linejoin="round" stroke-width="1.5" d="M3 14h9"></path><path stroke="#323232" stroke-linecap="round" stroke-linejoin="round" stroke-width="1.5" d="M8.409 17.599l3.591-3.591 -3.591-3.591"></path></g></svg>