<svg id="Layer_3" data-name="Layer 3" xmlns="http://www.w3.org/2000/svg" viewBox="0 0 24 24"><path d="M0,0H24V24H0Z" fill="none"/><path d="M16,21h1.5A2.5,2.5,0,0,0,20,18.5V8.37167a3,3,0,0,0-.87868-2.12132L16.74965,3.87868A3,3,0,0,0,14.62833,3H7.5A2.5,2.5,0,0,0,5,5.5V11" fill="none" stroke="#323232" stroke-linecap="round" stroke-linejoin="round" stroke-width="1.5" fill-rule="evenodd"/><path d="M10,15a3.00185,3.00185,0,0,1,3,3h0a3.00185,3.00185,0,0,1-3,3" fill="none" stroke="#323232" stroke-linecap="round" stroke-linejoin="round" stroke-width="1.5"/><path d="M7,21a3.00185,3.00185,0,0,1-3-3H4a3.00185,3.00185,0,0,1,3-3" fill="none" stroke="#323232" stroke-linecap="round" stroke-linejoin="round" stroke-width="1.5"/><line x1="10" y1="18" x2="7" y2="18" fill="none" stroke="#323232" stroke-linecap="round" stroke-linejoin="round" stroke-width="1.5"/><path d="M19.97643,8H16.5A1.5,1.5,0,0,1,15,6.5V3.02362" fill="none" stroke="#323232" stroke-linecap="round" stroke-linejoin="round" stroke-width="1.5" fill-rule="evenodd"/></svg>