<svg id="Layer_3" data-name="Layer 3" xmlns="http://www.w3.org/2000/svg" viewBox="0 0 24 24"><path d="M0,0H24V24H0Z" fill="none"/><path d="M16,21h1.5A2.5,2.5,0,0,0,20,18.5V8.37167a3,3,0,0,0-.87868-2.12132L16.74965,3.87868A3,3,0,0,0,14.62833,3H7.5A2.5,2.5,0,0,0,5,5.5V12" fill="none" stroke="#323232" stroke-linecap="round" stroke-linejoin="round" stroke-width="1.5" fill-rule="evenodd"/><path d="M19.97643,8H16.5A1.5,1.5,0,0,1,15,6.5V3.02362" fill="none" stroke="#323232" stroke-linecap="round" stroke-linejoin="round" stroke-width="1.5" fill-rule="evenodd"/><path d="M5.71358,18.00214l.00429.00429.00428-.00429-.00428-.00428-.00429.00428" fill="none" stroke="#323232" stroke-linecap="round" stroke-linejoin="round" stroke-width="1.5"/><path d="M10.28071,17.99786l.00429.00428.00429-.00428-.00429-.00429-.00429.00429" fill="none" stroke="#323232" stroke-linecap="round" stroke-linejoin="round" stroke-width="1.5"/><path d="M7.99571,17.99786,8,18.00214l.00429-.00428L8,17.99357l-.00429.00429" fill="none" stroke="#323232" stroke-linecap="round" stroke-linejoin="round" stroke-width="1.5"/><rect x="3" y="15" width="10" height="6" rx="1.5" stroke-width="1.5" stroke="#323232" stroke-linecap="round" stroke-linejoin="round" fill="none"/></svg>