<svg id="Layer_3" data-name="Layer 3" xmlns="http://www.w3.org/2000/svg" viewBox="0 0 24 24"><path d="M3,15v4a2,2,0,0,0,2,2h6a2,2,0,0,0,2-2V15a2,2,0,0,0-2-2H5A2,2,0,0,0,3,15Z" fill="none" stroke="#323232" stroke-linecap="round" stroke-linejoin="round" stroke-width="1.5"/><path d="M16,21h1.5A2.5,2.5,0,0,0,20,18.5V8.37167a3,3,0,0,0-.87868-2.12132L16.74965,3.87868A3,3,0,0,0,14.62833,3H7.5A2.5,2.5,0,0,0,5,5.5V10" fill="none" stroke="#323232" stroke-linecap="round" stroke-linejoin="round" stroke-width="1.5" fill-rule="evenodd"/><path d="M19.97643,8H16.5A1.5,1.5,0,0,1,15,6.5V3.02362" fill="none" stroke="#323232" stroke-linecap="round" stroke-linejoin="round" stroke-width="1.5" fill-rule="evenodd"/><path d="M5.76205,16l1.74563.88192a1.13638,1.13638,0,0,0,1.00881,0L10.26205,16" fill="none" stroke="#323232" stroke-linecap="round" stroke-linejoin="round" stroke-width="1.5"/><rect width="24" height="24" fill="none"/></svg>