<svg id="Layer_3" data-name="Layer 3" xmlns="http://www.w3.org/2000/svg" viewBox="0 0 24 24"><path d="M0,0H24V24H0Z" fill="none"/><line x1="8.5" y1="14" x2="11" y2="14" fill="none" stroke="#323232" stroke-linecap="round" stroke-linejoin="round" stroke-width="1.5"/><line x1="11" y1="16.5" x2="11" y2="14" fill="none" stroke="#323232" stroke-linecap="round" stroke-linejoin="round" stroke-width="1.5"/><line x1="11" y1="14" x2="8" y2="17" fill="none" stroke="#323232" stroke-linecap="round" stroke-linejoin="round" stroke-width="1.5"/><path d="M14,17h4a2,2,0,0,0,2-2V7.0172a2.1875,2.1875,0,0,0-.6407-1.54679L17.52959,3.6407A2.1875,2.1875,0,0,0,15.9828,3H10A2,2,0,0,0,8,5v6" fill="none" stroke="#323232" stroke-linecap="round" stroke-linejoin="round" stroke-width="1.5" fill-rule="evenodd"/><path d="M20,7.5H17A1.5,1.5,0,0,1,15.5,6V3" fill="none" stroke="#323232" stroke-linecap="round" stroke-linejoin="round" stroke-width="1.5"/><path d="M17,17v2a1.99945,1.99945,0,0,1-2,2H6a1.99945,1.99945,0,0,1-2-2V8A1.99945,1.99945,0,0,1,6,6H8" fill="none" stroke="#323232" stroke-linecap="round" stroke-linejoin="round" stroke-width="1.5"/></svg>