<?xml version="1.0" encoding="UTF-8"?><svg version="1.1" viewBox="0 0 24 24" xmlns="http://www.w3.org/2000/svg" xmlns:xlink="http://www.w3.org/1999/xlink"><g fill="none"><path d="M0 0h24v24h-24v-24Z"></path><path stroke="#323232" stroke-linecap="round" stroke-linejoin="round" stroke-width="1.5" d="M18.364 5.654c3.575 3.575 3.514 9.408-.183 12.906 -3.413 3.229-8.949 3.229-12.362 0 -3.697-3.498-3.758-9.331-.183-12.906 3.515-3.515 9.213-3.515 12.728-8.88178e-16"></path><path stroke="#323232" stroke-linecap="round" stroke-linejoin="round" stroke-width="1.5" d="M15.563 8.897l-1.571-1.571c-.208-.209-.491-.326-.785-.326h-3.985c-.614 0-1.111.497-1.111 1.111v7.778c0 .614.497 1.111 1.111 1.111h5.556c.614 0 1.111-.497 1.111-1.111v-6.207c1.77636e-15-.294-.117-.577-.326-.785Z"></path><path stroke="#323232" stroke-linecap="round" stroke-linejoin="round" stroke-width="1.5" d="M15.889 10.25h-2.6c-.359 0-.65-.291-.65-.65v-2.6"></path></g></svg>