<svg id="Layer_3" data-name="Layer 3" xmlns="http://www.w3.org/2000/svg" viewBox="0 0 24 24"><path d="M0,0H24V24H0Z" fill="none"/><path d="M4,14v3a4,4,0,0,0,4,4h7.34315a4,4,0,0,0,2.82842-1.17157l1.65686-1.65686A4,4,0,0,0,21,15.34315V8a4,4,0,0,0-4-4H14" fill="none" stroke="#323232" stroke-linecap="round" stroke-linejoin="round" stroke-width="1.5"/><path d="M15,21V17a1.99944,1.99944,0,0,1,1.9989-2H21" fill="none" stroke="#323232" stroke-linecap="round" stroke-linejoin="round" stroke-width="1.5"/><circle cx="7.5" cy="7.5" r="4.5" fill="none" stroke="#323232" stroke-linecap="round" stroke-linejoin="round" stroke-width="1.5"/><path d="M7.49023,7.95V9.2" fill="none" stroke="#323232" stroke-linecap="round" stroke-linejoin="round" stroke-width="1.5"/><path d="M7.5,5.79l.005.005L7.5,5.8l-.005-.005L7.5,5.79" fill="none" stroke="#323232" stroke-linecap="round" stroke-linejoin="round" stroke-width="1.5"/></svg>