<svg id="Layer_3" data-name="Layer 3" xmlns="http://www.w3.org/2000/svg" viewBox="0 0 24 24"><rect width="24" height="24" fill="none"/><path d="M10,18H8.5a.5.5,0,0,1-.5-.5V16" fill="none" stroke="#323232" stroke-linecap="round" stroke-linejoin="round" stroke-width="1.5"/><path d="M8,8V6.5A.5.5,0,0,1,8.5,6H10" fill="none" stroke="#323232" stroke-linecap="round" stroke-linejoin="round" stroke-width="1.5"/><path d="M17,16v1.5a.5.5,0,0,1-.5.5H15" fill="none" stroke="#323232" stroke-linecap="round" stroke-linejoin="round" stroke-width="1.5"/><line x1="11.25" y1="12" x2="13.75" y2="12" fill="none" stroke="#323232" stroke-linecap="round" stroke-linejoin="round" stroke-width="1.5"/><line x1="12.5" y1="10.75" x2="12.5" y2="13.25" fill="none" stroke="#323232" stroke-linecap="round" stroke-linejoin="round" stroke-width="1.5"/><path d="M7,21H17.5A2.5,2.5,0,0,0,20,18.5V8.37167a3,3,0,0,0-.87868-2.12132L16.74965,3.87868A3,3,0,0,0,14.62833,3H7.5A2.5,2.5,0,0,0,5,5.5V19A2,2,0,0,0,7,21Z" fill="none" stroke="#323232" stroke-linecap="round" stroke-linejoin="round" stroke-width="1.5" fill-rule="evenodd"/><path d="M19.97643,8H16.5A1.5,1.5,0,0,1,15,6.5V3.02362" fill="none" stroke="#323232" stroke-linecap="round" stroke-linejoin="round" stroke-width="1.5" fill-rule="evenodd"/></svg>