<svg id="Layer_3" data-name="Layer 3" xmlns="http://www.w3.org/2000/svg" viewBox="0 0 24 24"><g id="Layer_22" data-name="Layer 22"><path d="M24,0H0V24H24Z" fill="none"/><path d="M21,12a9,9,0,1,0-9,9" fill="none" stroke="#323232" stroke-linecap="round" stroke-linejoin="round" stroke-width="1.5"/><line x1="20" y1="16" x2="19" y2="16" fill="none" stroke="#323232" stroke-linecap="round" stroke-linejoin="round" stroke-width="1.5"/><line x1="20" y1="19" x2="16" y2="19" fill="none" stroke="#323232" stroke-linecap="round" stroke-linejoin="round" stroke-width="1.5"/><path d="M13.75052,13.58063v1.66812a1,1,0,0,1-.55281.89444l-1.5.75a1,1,0,0,1-1.44719-.89444V13.58118" fill="none" stroke="#323232" stroke-linecap="round" stroke-linejoin="round" stroke-width="1.5"/><path d="M8,10V9.85A.85.85,0,0,1,8.85,9h6.3a.85.85,0,0,1,.85.85V10" fill="none" stroke="#323232" stroke-linecap="round" stroke-linejoin="round" stroke-width="1.5"/><path d="M10.25055,13.58118A3.98777,3.98777,0,0,1,8,10" fill="none" stroke="#323232" stroke-linecap="round" stroke-linejoin="round" stroke-width="1.5"/><path d="M16,10a3.98773,3.98773,0,0,1-2.24945,3.58063" fill="none" stroke="#323232" stroke-linecap="round" stroke-linejoin="round" stroke-width="1.5"/></g></svg>