<?xml version="1.0" encoding="UTF-8"?><svg version="1.1" viewBox="0 0 24 24" xmlns="http://www.w3.org/2000/svg" xmlns:xlink="http://www.w3.org/1999/xlink"><g stroke-linecap="round" stroke-width="1.5" stroke="#323232" fill="none" stroke-linejoin="round"><path d="M20 6v-1c0-.552-.448-1-1-1h-14c-.552 0-1 .448-1 1v2.586c0 .265.105.52.293.707l5.207 5.207v6.249c0 .813.764 1.41 1.553 1.213l2.5-.625c.556-.139.947-.639.947-1.213v-2.149"></path><path d="M17.5 9.642c.268-.302.73-.642 1.437-.642 1.233 0 2.063 1.117 2.063 2.158 -.001 2.175-2.808 3.842-3.5 3.842 -.692 0-3.5-1.667-3.5-3.842 0-1.041.828-2.158 2.063-2.158 .705 0 1.168.34 1.437.642Z"></path></g><rect width="24" height="24" fill="none"></rect></svg>