<?xml version="1.0" encoding="UTF-8"?><svg version="1.1" viewBox="0 0 24 24" xmlns="http://www.w3.org/2000/svg" xmlns:xlink="http://www.w3.org/1999/xlink"><g fill="none"><path d="M24 24h-24v-24h24v24Z"></path><path stroke="#323232" stroke-linecap="round" stroke-linejoin="round" stroke-width="1.5" d="M10.875 20.091c-2.567-2.567-2.545-6.742.066-9.281 2.481-2.413 6.603-2.413 9.084 0 2.611 2.539 2.633 6.715.066 9.281 -2.545 2.545-6.671 2.545-9.216 0"></path><path stroke="#323232" stroke-linecap="round" stroke-linejoin="round" stroke-width="1.5" d="M7 19.941h-1c-1.657 0-3-1.343-3-3v-10.941c0-1.657 1.343-3 3-3h11c1.657 0 3 1.343 3 3v1"></path><path stroke="#323232" stroke-linecap="round" stroke-linejoin="round" stroke-width="1.5" d="M15.483 16.646v-2.499"></path><path stroke="#323232" stroke-linecap="round" stroke-linejoin="round" stroke-width="1.5" d="M14.12 12.227c.601-.418 1.371-.605 2.213-.338 1.066.338 1.753 1.382 1.753 2.5v1.907"></path><path stroke="#323232" stroke-linecap="round" stroke-linejoin="round" stroke-width="1.5" d="M17.019 18.739c-.601.418-1.371.605-2.213.338 -1.066-.338-1.753-1.382-1.753-2.5v-1.907"></path></g></svg>