<svg id="Layer_3" data-name="Layer 3" xmlns="http://www.w3.org/2000/svg" viewBox="0 0 24 24"><path d="M0,24V0H24V24" fill="none"/><rect width="24" height="24" fill="none"/><path d="M9,12.09244a3,3,0,0,1,6,0" fill="none" stroke="#323232" stroke-linecap="round" stroke-linejoin="round" stroke-width="1.5"/><path d="M15,12.09242c0,.35913-.032.7099-.05981,1.06164" fill="none" stroke="#323232" stroke-linecap="round" stroke-linejoin="round" stroke-width="1.5"/><path d="M14.35956,16.15406a13.9258,13.9258,0,0,1-.63922,1.68506" fill="none" stroke="#323232" stroke-linecap="round" stroke-linejoin="round" stroke-width="1.5"/><path d="M10.30611,17.84594A10.60515,10.60515,0,0,0,12,12.09244" fill="none" stroke="#323232" stroke-linecap="round" stroke-linejoin="round" stroke-width="1.5"/><path d="M7.73336,16.30862A7.62635,7.62635,0,0,0,9,12.09244" fill="none" stroke="#323232" stroke-linecap="round" stroke-linejoin="round" stroke-width="1.5"/><path d="M6,12.15406A5.96988,5.96988,0,0,1,6.53424,9.6883" fill="none" stroke="#323232" stroke-linecap="round" stroke-linejoin="round" stroke-width="1.5"/><path d="M18,12.15406A5.99083,5.99083,0,0,0,8.88135,7.03541" fill="none" stroke="#323232" stroke-linecap="round" stroke-linejoin="round" stroke-width="1.5"/><path d="M3,17v1a3,3,0,0,0,3,3H7" fill="none" stroke="#323232" stroke-linecap="round" stroke-linejoin="round" stroke-width="1.5"/><path d="M17,3h1a3,3,0,0,1,3,3V7" fill="none" stroke="#323232" stroke-linecap="round" stroke-linejoin="round" stroke-width="1.5"/><path d="M7,3H6A3,3,0,0,0,3,6V7" fill="none" stroke="#323232" stroke-linecap="round" stroke-linejoin="round" stroke-width="1.5"/><path d="M21,17v1a3,3,0,0,1-3,3H17" fill="none" stroke="#323232" stroke-linecap="round" stroke-linejoin="round" stroke-width="1.5"/></svg>