<svg viewBox="0 0 24 24" xmlns="http://www.w3.org/2000/svg"><g fill="none"><path d="M0 0h24v24H0Z"/><g stroke-linecap="round" stroke-width="1.5" stroke="#323232" fill="none" stroke-linejoin="round"><path d="M4 10l0 0c-.01-1.37.4-2.71 1.15-3.85"/><path d="M11 16.83l-.01-.001c-.77-.01-1.51-.26-2.11-.73"/><path d="M13.11 6.891l0 0c-1.53-1.18-3.72-.9-4.89.63 -.48.61-.73 1.36-.73 2.14v3"/><path d="M11 10l0 3"/><path d="M14.5 10.33l0 1.67"/><path d="M4 13v0l0 0c0 3.86 3.13 6.99 7 6.99v0"/><path d="M7.78 3.78l0-.01c.99-.52 2.09-.79 3.21-.79v0l-.01 0c3.86-.01 7 3.13 7 6.99v0"/><path d="M18 11l0-1"/><path d="M18 14a4 4 0 1 0 0 8 4 4 0 1 0 0-8Z"/><path d="M18.99 16.99l-2 2"/><path d="M16.99 17l2 1.99"/></g></g></svg>