<?xml version="1.0" encoding="UTF-8"?><svg version="1.1" viewBox="0 0 24 24" xmlns="http://www.w3.org/2000/svg" xmlns:xlink="http://www.w3.org/1999/xlink"><g stroke-linecap="round" stroke-width="1.5" stroke="#323232" fill="none" stroke-linejoin="round"><path d="M18.84 17.84l4.10248e-07-4.79342e-07c-.461801.539577-.986151 1.0223-1.562 1.438"></path><path d="M7 4.518l-1.81735e-07 1.2155e-07c2.24231-1.49972 5.03937-1.91378 7.62-1.128"></path><path d="M17.651 5l-2.06833e-07-1.6743e-07c1.29322 1.04686 2.27136 2.43133 2.826 4"></path><path d="M20.477 15l2.24416e-07-6.27541e-07c.344313-.962812.521203-1.97748.523-3"></path><path d="M4.537 7l-5.68922e-07 8.42691e-07c-2.77414 4.10908-1.69196 9.68903 2.41711 12.4632 1.49011 1.00601 3.24798 1.54141 5.04589 1.53683"></path><path d="M8.5 11.167v2.333l-8.67907e-08 1.90448e-05c-.00876341 1.92414 1.54396 3.49107 3.4681 3.49983 .774589.00352783 1.52827-.251177 2.14192-.723862"></path><path d="M12 10.834v2.333"></path><path d="M15.5 12.834v-2.334l8.7332e-08-1.91636e-05c.00876334-1.92414-1.54396-3.49107-3.4681-3.49983 -.774589-.0035278-1.52827.251177-2.14192.723862"></path></g><path fill="none" d="M24 24h-24v-24h24Z"></path></svg>