<svg id="Layer_3" data-name="Layer 3" xmlns="http://www.w3.org/2000/svg" viewBox="0 0 24 24"><line x1="12" y1="10.5" x2="12" y2="13.5" fill="none" stroke="#323232" stroke-linecap="round" stroke-linejoin="round" stroke-width="1.5"/><path d="M9.37952,8A3.98166,3.98166,0,0,1,16,11v2" fill="none" stroke="#323232" stroke-linecap="round" stroke-linejoin="round" stroke-width="1.5"/><path d="M8,11v2a3.98166,3.98166,0,0,0,6.62048,3" fill="none" stroke="#323232" stroke-linecap="round" stroke-linejoin="round" stroke-width="1.5"/><path d="M18.921,7A7.95228,7.95228,0,0,1,20,11v2A7.99021,7.99021,0,0,1,8,19.921" fill="none" stroke="#323232" stroke-linecap="round" stroke-linejoin="round" stroke-width="1.5"/><path d="M16,4.079A7.99021,7.99021,0,0,0,4,11v2a7.95228,7.95228,0,0,0,1.079,4" fill="none" stroke="#323232" stroke-linecap="round" stroke-linejoin="round" stroke-width="1.5"/><rect width="24" height="24" fill="none"/></svg>