<svg xmlns="http://www.w3.org/2000/svg" viewBox="0 0 24 24"><g id="Layer_2" data-name="Layer 2"><path d="M15.71388,5c1.49884,0,2.71388,3.134,2.71388,7s-1.215,7-2.71388,7" fill="none" stroke="#323232" stroke-linecap="round" stroke-linejoin="round" stroke-width="1.5"/><path d="M19.53612,5C20.89688,5,22,8.134,22,12s-1.10312,7-2.46388,7" fill="none" stroke="#323232" stroke-linecap="round" stroke-linejoin="round" stroke-width="1.5"/><line x1="19.53612" y1="19" x2="15.71388" y2="19" fill="none" stroke="#323232" stroke-linecap="round" stroke-linejoin="round" stroke-width="1.5"/><line x1="19.53612" y1="5" x2="15.71388" y2="5" fill="none" stroke="#323232" stroke-linecap="round" stroke-linejoin="round" stroke-width="1.5"/><path d="M8.03612,5C9.39688,5,10.5,8.134,10.5,12s-1.10312,7-2.46388,7" fill="none" stroke="#323232" stroke-linecap="round" stroke-linejoin="round" stroke-width="1.5"/><line x1="8.03612" y1="19" x2="4.46388" y2="19" fill="none" stroke="#323232" stroke-linecap="round" stroke-linejoin="round" stroke-width="1.5"/><line x1="8.03612" y1="5" x2="4.46388" y2="5" fill="none" stroke="#323232" stroke-linecap="round" stroke-linejoin="round" stroke-width="1.5"/><ellipse cx="4.46388" cy="12" rx="2.46388" ry="7" fill="none" stroke="#323232" stroke-linecap="round" stroke-linejoin="round" stroke-width="1.5"/><path d="M10.43693,10.421h4.51044A1.05263,1.05263,0,0,1,16,11.47368v1.05264A1.05263,1.05263,0,0,1,14.94737,13.579H10.43694" fill="none" stroke="#323232" stroke-linecap="round" stroke-linejoin="round" stroke-width="1.5"/><path d="M13.0719,10.421C13.34979,7.31665,14.42584,5,15.71387,5" fill="none" stroke="#323232" stroke-linecap="round" stroke-linejoin="round" stroke-width="1.5"/><path d="M15.71387,19c-1.288,0-2.36408-2.31665-2.642-5.42114" fill="none" stroke="#323232" stroke-linecap="round" stroke-linejoin="round" stroke-width="1.5"/><path d="M0,0H24V24H0Z" fill="none"/></g></svg>