<?xml version="1.0" encoding="UTF-8"?><svg version="1.1" viewBox="0 0 24 24" xmlns="http://www.w3.org/2000/svg" xmlns:xlink="http://www.w3.org/1999/xlink"><g fill="none"><rect width="24" height="24"></rect><line x1="4" x2="4" y1="14" y2="21" stroke="#323232" stroke-linecap="round" stroke-linejoin="round" stroke-width="1.5"></line><path stroke="#323232" stroke-linecap="round" stroke-linejoin="round" stroke-width="1.5" d="M20.5353 13.4645l2.25648e-07 2.2564e-07c1.95262 1.95255 1.95269 5.11832.00014008 7.07094 -1.95255 1.95262-5.11832 1.95269-7.07094.00014008 -1.95262-1.95254-1.95269-5.1183-.000149548-7.07093l.00016-.00015 6.08533e-08-6.08509e-08c1.95257-1.95249 5.11822-1.95249 7.07079 1.21702e-07"></path><path stroke="#323232" stroke-linecap="round" stroke-linejoin="round" stroke-width="1.5" d="M12.55 14.7175l-7.00312e-08-1.9448e-08c-.552621-.153465-1.07627-.396706-1.55-.72l-1.09852e-07-6.81512e-08c-2.14381-1.33-4.85619-1.33-7 1.36302e-07v-10l-3.83352e-07 2.37829e-07c2.14381-1.33 4.85619-1.33 7-4.75657e-07l-3.83352e-07-2.37829e-07c2.14381 1.33 4.85619 1.33 7 4.75657e-07v8.1"></path><path stroke="#323232" stroke-linecap="round" stroke-linejoin="round" stroke-width="1.5" d="M19.275 17h3.55271e-15c0 .0276142-.0223858.05-.05.05 -.0276142 0-.05-.0223858-.05-.05 0-.0276142.0223858-.05.05-.05"></path><path stroke="#323232" stroke-linecap="round" stroke-linejoin="round" stroke-width="1.5" d="M19.225 16.95h-2.18557e-09c.0276142-1.20706e-09.05.0223858.05.05 0 0 0 0 0 0"></path><path stroke="#323232" stroke-linecap="round" stroke-linejoin="round" stroke-width="1.5" d="M17.05 17v0c0 .0276142-.0223858.05-.05.05 -.0276142 0-.05-.0223858-.05-.05 0-.0276142.0223858-.05.05-.05"></path><path stroke="#323232" stroke-linecap="round" stroke-linejoin="round" stroke-width="1.5" d="M17 16.95h-2.18557e-09c.0276142-1.20706e-09.05.0223858.05.05 0 0 0 0 0 0"></path><path stroke="#323232" stroke-linecap="round" stroke-linejoin="round" stroke-width="1.5" d="M14.828 17v0c0 .0276142-.0223858.05-.05.05 -.0276142 0-.05-.0223858-.05-.05 0-.0276142.0223858-.05.05-.05"></path><path stroke="#323232" stroke-linecap="round" stroke-linejoin="round" stroke-width="1.5" d="M14.778 16.95h-2.18557e-09c.0276142-1.20706e-09.05.0223858.05.05 0 0 0 0 0 0"></path></g></svg>