<?xml version="1.0" encoding="UTF-8"?><svg version="1.1" viewBox="0 0 24 24" xmlns="http://www.w3.org/2000/svg" xmlns:xlink="http://www.w3.org/1999/xlink"><g stroke-linecap="round" stroke-width="1.5" stroke="#323232" fill="none" stroke-linejoin="round"><path d="M17 9h-10v-5c0-.552.448-1 1-1h8c.552 0 1 .448 1 1v5Z"></path><path d="M14.183 21h-4.366c-2.66 0-4.817-2.157-4.817-4.817v-5.183c0-1.105.895-2 2-2h10c1.105 0 2 .895 2 2v5.183c0 2.66-2.157 4.817-4.817 4.817Z"></path><line x1="10.5" x2="10.5" y1="5.5" y2="6.5"></line><line x1="13.5" x2="13.5" y1="5.5" y2="6.5"></line></g><path fill="none" d="M0 0h24v24h-24v-24Z"></path></svg>