<?xml version="1.0" encoding="UTF-8"?><svg version="1.1" viewBox="0 0 24 24" xmlns="http://www.w3.org/2000/svg" xmlns:xlink="http://www.w3.org/1999/xlink"><!--Generated by IJSVG (https://github.com/iconjar/IJSVG)--><g stroke-linecap="round" stroke-width="1.5" stroke="#323232" fill="none" stroke-linejoin="round"><path d="M12.002,3v0c4.969,0 8.998,4.029 8.998,8.998v0.004c0,4.969 -4.029,8.998 -8.998,8.998h-0.004c-4.969,0 -8.998,-4.029 -8.998,-8.998v0c0,-4.972 4.03,-9.002 9.002,-9.002Z"></path><path d="M8.745,10.25c-0.966,0.003 -1.747,0.787 -1.745,1.753c0.002,0.966 0.786,1.748 1.751,1.747c0.966,-0.001 1.749,-0.784 1.749,-1.75c0,-0.966 -0.784,-1.75 -1.75,-1.75"></path><path d="M15.245,10.25c-0.966,0.003 -1.747,0.787 -1.745,1.753c0.002,0.966 0.786,1.748 1.751,1.747c0.966,-0.001 1.749,-0.784 1.749,-1.75c0,-0.966 -0.784,-1.75 -1.75,-1.75"></path></g><path fill="none" d="M0,24v-24h24v24h-24Z"></path></svg>