<?xml version="1.0" encoding="UTF-8"?><svg version="1.1" viewBox="0 0 24 24" xmlns="http://www.w3.org/2000/svg" xmlns:xlink="http://www.w3.org/1999/xlink"><!--Generated by IJSVG (https://github.com/iconjar/IJSVG)--><g stroke-linecap="round" stroke-width="1.5" stroke="#323232" fill="none" stroke-linejoin="round"><path d="M14.976,13.172l1.014,-5.642c0.063,-0.35 -0.206,-0.673 -0.562,-0.673h-6.285c-0.631,0 -1.143,0.512 -1.143,1.143v8.719c0,0.377 0.456,0.566 0.723,0.299l2.905,-2.905h2.224c0.553,-1.77636e-15 1.026,-0.396 1.124,-0.941Z"></path><path d="M7.5,3h9.004c2.483,0 4.496,2.013 4.496,4.496v9.009c0,2.482 -2.013,4.495 -4.496,4.495h-9.008c-2.483,0 -4.496,-2.013 -4.496,-4.496v-9.004c0,-2.485 2.015,-4.5 4.5,-4.5Z"></path><path d="M12,10.29h3.43"></path></g><path fill="none" d="M0,0h24v24h-24Z" transform="matrix(6.12323e-17,-1,1,6.12323e-17,0,24)"></path></svg>