<?xml version="1.0" encoding="UTF-8"?><svg version="1.1" viewBox="0 0 24 24" xmlns="http://www.w3.org/2000/svg" xmlns:xlink="http://www.w3.org/1999/xlink"><!--Generated by IJSVG (https://github.com/iconjar/IJSVG)--><g stroke-linecap="round" stroke-width="1.5" stroke="#323232" fill="none" stroke-linejoin="round"><path d="M21,4c0,-1.105 -0.895,-2 -2,-2"></path><path d="M5,2c-1.105,0 -2,0.895 -2,2"></path><path d="M12.833,7h-2.5v2.5"></path><path d="M10.333,7.391c1.954,0.77 3.333,2.63 3.333,4.806c0,2.176 -1.38,4.033 -3.333,4.802"></path><path d="M7,12h-2c-1.105,0 -2,0.895 -2,2v6c0,1.105 0.895,2 2,2h14c1.105,0 2,-0.895 2,-2v-6c0,-1.105 -0.895,-2 -2,-2h-2"></path><path d="M10.33,2h-2"></path><path d="M15.67,2h-2"></path><path d="M3,7.33v2"></path><path d="M21,7.33v2"></path></g><path fill="none" d="M0,0h24v24h-24Z" transform="matrix(-1.83697e-16,1,-1,-1.83697e-16,24,1.77636e-15)"></path></svg>