<?xml version="1.0" encoding="UTF-8"?><svg version="1.1" viewBox="0 0 24 24" xmlns="http://www.w3.org/2000/svg" xmlns:xlink="http://www.w3.org/1999/xlink"><g stroke-linecap="round" stroke-width="1.5" stroke="#323232" fill="none" stroke-linejoin="round"><path d="M14.082 7.5h-5.582l1.31e-08 3.19744e-13c-.552285-1.35384e-05-1.00001.447691-1.00002.999975 -5.73987e-08.00234152 8.10929e-06.00468304 2.44999e-05.0070245l.052 7 -2.8925e-09-4.13217e-07c.00384671.549549.450437.993014 1 .993h6.948 -4.37114e-08c.552285 2.41411e-08 1-.447715 1-1v-5.586l2.28059e-08.000213569c0-.265195-.10534-.51953-.292849-.707063l-1.41715-1.41415 3.97378e-08 3.97499e-08c-.187738-.187795-.442459-.293209-.708-.293Z"></path><path d="M13.83 7.5v2.354 1.77636e-15c0 .252946-.205054.458-.458.458 0 0 0 0 0 0h-2.75 -2.00198e-08c-.252946-1.10566e-08-.458-.205054-.458-.458 0 0 0 0 0 0v-2.354"></path><circle cx="12" cy="12" r="9"></circle><path d="M10.125 16.5v-2.893l5.32907e-15-7.278e-08c4.01953e-08-.266201.215799-.482.482-.482h2.786 -2.10689e-08c.266201-1.1636e-08.482.215799.482.482v2.893"></path></g><path fill="none" d="M0 0h24v24h-24Z"></path></svg>