<?xml version="1.0" encoding="UTF-8"?><svg version="1.1" viewBox="0 0 24 24" xmlns="http://www.w3.org/2000/svg" xmlns:xlink="http://www.w3.org/1999/xlink"><g stroke-linecap="round" stroke-width="1.5" stroke="#323232" fill="none" stroke-linejoin="round"><path d="M20 11v-3.43964l6.37428e-11 1.5521e-05c0-.501134-.19907-.981743-.553419-1.3361l-2.67066-2.67066 7.80853e-08 7.80847e-08c-.354473-.354471-.835241-.55361-1.33654-.55361h-10.4394l-8.74228e-08 1.77636e-15c-1.10457 4.82823e-08-2 .895431-2 2v13l2.30926e-14 3.01992e-07c1.66785e-07 1.10457.895431 2 2 2h6"></path><path d="M14.9936 3v4.125l6.29838e-09-1.77224e-05c-.000166825.483176-.391806.874831-.874982.875018h-5.25l-2.2406e-08-8.18989e-12c-.483176-.00017662-.874823-.391824-.875-.875v-4.125"></path><path d="M7 19.9996v-5.67393l-4.83431e-09-4.30644e-07c-.00777835-.692911.523588-1.27291 1.21453-1.32568h3.78547"></path><circle cx="17.5" cy="17.5" r="4.5"></circle><path d="M18.836 17.5v0c0 .0276142-.0223858.05-.05.05 -.0276142 0-.05-.0223858-.05-.05 0-.0276142.0223858-.05.05-.05"></path><path d="M18.786 17.45h-2.18557e-09c.0276142-1.20706e-09.05.0223858.05.05 0 0 0 0 0 0"></path><path d="M16.264 17.5v0c0 .0276142-.0223858.05-.05.05 -.0276142 0-.05-.0223858-.05-.05 0-.0276142.0223858-.05.05-.05"></path><path d="M16.214 17.45h-2.18557e-09c.0276142-1.20706e-09.05.0223858.05.05 0 0 0 0 0 0"></path></g><path fill="none" d="M0 0h24v24h-24Z"></path></svg>