<?xml version="1.0" encoding="UTF-8"?><svg version="1.1" viewBox="0 0 24 24" xmlns="http://www.w3.org/2000/svg" xmlns:xlink="http://www.w3.org/1999/xlink"><g stroke-linecap="round" stroke-width="1.5" stroke="#323232" fill="none" stroke-linejoin="round"><path d="M14.082 7.5h-5.578c-.555 0-1.004.452-1 1.007l.052 7c.004.549.451.993 1 .993h6.941c.552 0 1-.448 1-1v-5.586c0-.265-.105-.52-.293-.707l-1.414-1.414c-.188-.188-.443-.293-.708-.293Z"></path><path d="M13.83 7.5v2.354c0 .253-.205.458-.458.458h-2.75c-.253 0-.458-.205-.458-.458v-2.354"></path><path d="M10.125 16.5v-2.893c0-.266.216-.482.482-.482h2.786c.266 0 .482.216.482.482v2.893"></path><path d="M20.996 7v10c0 2.209-1.791 4-4 4h-10c-2.209 0-4-1.791-4-4v-10c0-2.209 1.791-4 4-4h10c2.209 0 4 1.791 4 4Z"></path></g><path fill="none" d="M0 0h24v24h-24v-24Z"></path></svg>