<?xml version="1.0" encoding="UTF-8"?><svg version="1.1" viewBox="0 0 24 24" xmlns="http://www.w3.org/2000/svg" xmlns:xlink="http://www.w3.org/1999/xlink"><!--Generated by IJSVG (https://github.com/iconjar/IJSVG)--><g fill="none"><path d="M0,0h24v24h-24Z"></path><path stroke="#323232" stroke-linecap="round" stroke-linejoin="round" stroke-width="1.5" d="M17,20.571c-0.828,-1 -1.914,-1.5 -3,-1.5c1.086,0 2.172,-0.5 3,-1.5"></path><path stroke="#323232" stroke-linecap="round" stroke-linejoin="round" stroke-width="1.5" d="M10,15.934v6.066h4v-6.067"></path><path stroke="#323232" stroke-linecap="round" stroke-linejoin="round" stroke-width="1.5" d="M14,19.07h-4"></path><path stroke="#323232" stroke-linecap="round" stroke-linejoin="round" stroke-width="1.5" d="M19.441,10.457c0.178,-0.115 0.349,-0.246 0.505,-0.402l2.054,-2.055c-0.846,-0.846 -1.979,-1.232 -3.086,-1.156c0.075,-1.107 -0.31,-2.24 -1.156,-3.086l-2.054,2.054c-0.979,0.978 -1.129,2.458 -0.474,3.604"></path><path stroke="#323232" stroke-linecap="round" stroke-linejoin="round" stroke-width="1.5" d="M19.591,12.336l-4.992,3.328c-0.329,0.219 -0.715,0.336 -1.11,0.336h-2.98c-0.395,0 -0.781,-0.117 -1.109,-0.336l-4.992,-3.328c-0.496,-0.331 -0.586,-1.013 -0.214,-1.48c0.791,-0.995 2.011,-1.636 3.383,-1.636c0.419,0 0.828,0.084 1.216,0.199c0.796,-0.87 1.939,-1.415 3.206,-1.415c1.267,0 2.41,0.545 3.217,1.415c0.388,-0.115 0.786,-0.199 1.216,-0.199c1.363,0 2.582,0.641 3.374,1.636c0.37,0.467 0.281,1.149 -0.215,1.48Z"></path><path stroke="#323232" stroke-linecap="round" stroke-linejoin="round" stroke-width="1.5" d="M13.8,8.398c0.733,-0.547 1.214,-1.413 1.214,-2.398v-2.905c-1.197,0 -2.27,0.528 -3,1.365c-0.73,-0.836 -1.803,-1.365 -3,-1.365v2.905c0,0.979 0.476,1.84 1.202,2.388"></path><path stroke="#323232" stroke-linecap="round" stroke-linejoin="round" stroke-width="1.5" d="M4.559,10.457c-0.178,-0.115 -0.349,-0.246 -0.505,-0.402l-2.054,-2.055c0.846,-0.846 1.979,-1.232 3.086,-1.156c-0.075,-1.107 0.31,-2.24 1.156,-3.086l2.054,2.054c0.979,0.978 1.129,2.458 0.474,3.604"></path></g></svg>