<svg id="Layer_3" data-name="Layer 3" xmlns="http://www.w3.org/2000/svg" viewBox="0 0 24 24"><path d="M14,11H10.07444a1,1,0,0,1-.82685-.43759L8.4825,9.43759A1,1,0,0,0,7.65564,9H5a2,2,0,0,0-2,2v8a2,2,0,0,0,2,2h9a2,2,0,0,0,2-2V13A2,2,0,0,0,14,11Z" fill="none" stroke="#323232" stroke-linecap="round" stroke-linejoin="round" stroke-width="1.5"/><path d="M6,6V5A2,2,0,0,1,8,3H19a2,2,0,0,1,2,2V16a2,2,0,0,1-2,2" fill="none" stroke="#323232" stroke-linecap="round" stroke-linejoin="round" stroke-width="1.5"/><path d="M0,0H24V24H0Z" fill="none"/></svg>