<?xml version="1.0" encoding="UTF-8"?><svg version="1.1" viewBox="0 0 24 24" xmlns="http://www.w3.org/2000/svg" xmlns:xlink="http://www.w3.org/1999/xlink"><g fill="none"><path d="M0 0h24v24h-24v-24Z"></path><path stroke="#323232" stroke-linecap="round" stroke-linejoin="round" stroke-width="1.5" d="M15.997 3h3.286c.946 0 1.714.768 1.714 1.714v3.286"></path><path stroke="#323232" stroke-linecap="round" stroke-linejoin="round" stroke-width="1.5" d="M8 21h-3.286c-.946 0-1.714-.768-1.714-1.714v-3.286"></path><path stroke="#323232" stroke-linecap="round" stroke-linejoin="round" stroke-width="1.5" d="M20.519 14.633h-3.127c-.245 0-.475-.121-.613-.324l-.67-.985c-.138-.203-.367-.324-.612-.324h-2.016c-.818 0-1.481.663-1.481 1.481v6.037c0 .819.663 1.482 1.481 1.482h7.037c.819 0 1.482-.663 1.482-1.481v-4.404c0-.818-.663-1.482-1.481-1.482Z"></path><path stroke="#323232" stroke-linecap="round" stroke-linejoin="round" stroke-width="1.5" d="M10.519 3.633h-3.127c-.245 0-.475-.121-.613-.324l-.67-.985c-.138-.203-.367-.324-.612-.324h-2.016c-.818 0-1.481.663-1.481 1.481v6.037c0 .819.663 1.482 1.481 1.482h7.037c.819 0 1.482-.663 1.482-1.481v-4.404c0-.818-.663-1.482-1.481-1.482Z"></path></g></svg>