<svg id="Layer_3" data-name="Layer 3" xmlns="http://www.w3.org/2000/svg" viewBox="0 0 24 24"><path d="M0,0H24V24H0Z" fill="none"/><path d="M20,11.27207V8.94a2,2,0,0,0-2-2H12.52914a1,1,0,0,1-.82678-.43747l-1.405-2.06506A1,1,0,0,0,9.47054,4H5A2,2,0,0,0,3,6V18.33534A1.66466,1.66466,0,0,0,4.66466,20h0a1.66467,1.66467,0,0,0,1.625-1.30354L7.652,12.56614A2,2,0,0,1,9.60434,11h9.39485a2,2,0,0,1,1.95237,2.43386l-1.11111,5A2,2,0,0,1,17.88808,20H4.66466" fill="none" stroke="#323232" stroke-linecap="round" stroke-linejoin="round" stroke-width="1.5"/></svg>