<?xml version="1.0" encoding="UTF-8"?><svg version="1.1" viewBox="0 0 24 24" xmlns="http://www.w3.org/2000/svg" xmlns:xlink="http://www.w3.org/1999/xlink"><g fill="none"><path d="M0 0h24v24h-24v-24Z"></path><path stroke="#323232" stroke-linecap="round" stroke-linejoin="round" stroke-width="1.5" d="M22 17.5c0 1.937-1.563 3.5-3.5 3.5 -1.937 0-3.5-1.563-3.5-3.5 0-1.937 1.563-3.5 3.5-3.5 1.937 0 3.5 1.563 3.5 3.5Z"></path><path stroke="#323232" stroke-linecap="round" stroke-linejoin="round" stroke-width="1.5" d="M16.026 19.974l4.948-4.948"></path><path stroke="#323232" stroke-linecap="round" stroke-linejoin="round" stroke-width="1.5" d="M21 11v-3.06c0-1.104-.895-2-2-2h-6.471c-.331 0-.641-.164-.827-.438l-1.405-2.065c-.186-.273-.495-.437-.826-.437h-4.471c-1.105 0-2 .895-2 2v12c0 1.105.895 2 2 2h6"></path></g></svg>