<svg id="Layer_3" data-name="Layer 3" xmlns="http://www.w3.org/2000/svg" viewBox="0 0 24 24"><path d="M0,0H24V24H0Z" fill="none"/><line x1="12" y1="16" x2="12" y2="14" fill="none" stroke="#323232" stroke-linecap="round" stroke-linejoin="round" stroke-width="1.5"/><circle cx="12" cy="12.5" r="1.5" fill="none" stroke="#323232" stroke-linecap="round" stroke-linejoin="round" stroke-width="1.5"/><path d="M3,18V6A2,2,0,0,1,5,4H9.04345a2,2,0,0,1,1.65355.87494l1.14822,1.68759A1,1,0,0,0,12.672,7H19a2,2,0,0,1,2,2v9a2,2,0,0,1-2,2H5A2,2,0,0,1,3,18Z" fill="none" stroke="#323232" stroke-linecap="round" stroke-linejoin="round" stroke-width="1.5"/></svg>