<?xml version="1.0" encoding="UTF-8"?><svg version="1.1" viewBox="0 0 24 24" xmlns="http://www.w3.org/2000/svg" xmlns:xlink="http://www.w3.org/1999/xlink"><g stroke-linecap="round" stroke-width="1.5" stroke="#323232" fill="none" stroke-linejoin="round"><path d="M19 6.94h-6.471l5.06946e-09-2.57216e-12c-.332272.000168565-.642928-.164715-.829-.44l-1.4-2.063 -1.47521e-09-2.16556e-09c-.186752-.274145-.497291-.437843-.829-.437h-4.471l-8.74228e-08 1.77636e-15c-1.10457 4.82823e-08-2 .895431-2 2v12l2.30926e-14 3.01992e-07c1.66785e-07 1.10457.895431 2 2 2h14l-8.74228e-08-3.55271e-15c1.10457 4.82823e-08 2-.89543 2-2v-9.06h3.55271e-15c0-1.10457-.895431-2-2-2Z"></path><path d="M3 9.88h6.471l3.81354e-08-1.74278e-11c.330648-.000151108.639845-.163734.826-.437l1.4-2.065 6.87824e-08-1.01232e-07c.186128-.273939.495811-.437954.827-.438"></path></g><path fill="none" d="M0 0h24v24h-24Z"></path></svg>