<svg id="Layer_3" data-name="Layer 3" xmlns="http://www.w3.org/2000/svg" viewBox="0 0 24 24"><path d="M0,0H24V24H0Z" fill="none"/><path d="M19,9V8a2,2,0,0,0-2-2H12.53485a1,1,0,0,1-.83205-.4453L10.29653,3.4453A1,1,0,0,0,9.46448,3H5A2,2,0,0,0,3,5V17.85328A1.14673,1.14673,0,0,0,4.14672,19h0a1.14671,1.14671,0,0,0,1.09836-.81723l2.32707-7.75731A2.00019,2.00019,0,0,1,9.488,9h9.51073a2,2,0,0,1,1.91914,2.56294L20,14.68" fill="none" stroke="#323232" stroke-linecap="round" stroke-linejoin="round" stroke-width="1.5"/><path d="M16.5,22A4.5,4.5,0,1,1,21,17.5,4.50036,4.50036,0,0,1,16.5,22" fill="none" stroke="#323232" stroke-linecap="round" stroke-linejoin="round" stroke-width="1.5"/><path d="M17.75,17.50006a.05.05,0,1,1-.05006-.05006.05.05,0,0,1,.05006.05006" fill="none" stroke="#323232" stroke-linecap="round" stroke-linejoin="round" stroke-width="1.5"/><path d="M15.35,17.50006a.05.05,0,1,1-.05006-.05006.05.05,0,0,1,.05006.05006" fill="none" stroke="#323232" stroke-linecap="round" stroke-linejoin="round" stroke-width="1.5"/><line x1="12.25761" y1="19" x2="4.14672" y2="19" fill="none" stroke="#323232" stroke-linecap="round" stroke-linejoin="round" stroke-width="1.5"/></svg>