<svg id="Layer_3" data-name="Layer 3" xmlns="http://www.w3.org/2000/svg" viewBox="0 0 24 24"><path d="M0,0H24V24H0Z" fill="none"/><path d="M14,8V7a2,2,0,0,0-2-2H9.1671a1,1,0,0,1-.82686-.43758L7.5751,3.43757A1,1,0,0,0,6.74826,3H4.6291A1.6291,1.6291,0,0,0,3,4.6291V11a2,2,0,0,0,2,2H7" fill="none" stroke="#323232" stroke-linecap="round" stroke-linejoin="round" stroke-width="1.5"/><path d="M12,21h7.3698A1.63022,1.63022,0,0,0,21,19.3698V15a2,2,0,0,0-2-2H16.16709a1,1,0,0,1-.82685-.43758l-.76513-1.12484A1,1,0,0,0,13.74826,11H11.6291A1.6291,1.6291,0,0,0,10,12.6291V19A2,2,0,0,0,12,21Z" fill="none" stroke="#323232" stroke-linecap="round" stroke-linejoin="round" stroke-width="1.5"/><line x1="3" y1="17" x2="6" y2="20" fill="none" stroke="#323232" stroke-linecap="round" stroke-linejoin="round" stroke-width="1.5"/><polyline points="3 20 3 17 6 17" fill="none" stroke="#323232" stroke-linecap="round" stroke-linejoin="round" stroke-width="1.5"/><line x1="21" y1="7" x2="18" y2="4" fill="none" stroke="#323232" stroke-linecap="round" stroke-linejoin="round" stroke-width="1.5"/><polyline points="21 4 21 7 18 7" fill="none" stroke="#323232" stroke-linecap="round" stroke-linejoin="round" stroke-width="1.5"/></svg>