<svg id="Layer_3" data-name="Layer 3" xmlns="http://www.w3.org/2000/svg" viewBox="0 0 24 24"><rect width="24" height="24" fill="none"/><path d="M9,3H6A3,3,0,0,0,3,6V9" fill="none" stroke="#323232" stroke-linecap="round" stroke-linejoin="round" stroke-width="1.5"/><path d="M16,21h2a3,3,0,0,0,3-3V12" fill="none" stroke="#323232" stroke-linecap="round" stroke-linejoin="round" stroke-width="1.5"/><path d="M15,9a3.00185,3.00185,0,0,1-3-3h0a3.00185,3.00185,0,0,1,3-3" fill="none" stroke="#323232" stroke-linecap="round" stroke-linejoin="round" stroke-width="1.5"/><path d="M18,3a3.00184,3.00184,0,0,1,3,3h0a3.00185,3.00185,0,0,1-3,3" fill="none" stroke="#323232" stroke-linecap="round" stroke-linejoin="round" stroke-width="1.5"/><line x1="15" y1="6" x2="18" y2="6" fill="none" stroke="#323232" stroke-linecap="round" stroke-linejoin="round" stroke-width="1.5"/><path d="M11.5,13.633H8.52859a1,1,0,0,1-.82685-.43757l-.51549-.75785A1,1,0,0,0,6.3594,12H4.5A1.5,1.5,0,0,0,3,13.5v6A1.5,1.5,0,0,0,4.5,21h7A1.5,1.5,0,0,0,13,19.5V15.133A1.5,1.5,0,0,0,11.5,13.633Z" fill="none" stroke="#323232" stroke-linecap="round" stroke-linejoin="round" stroke-width="1.5"/></svg>