<?xml version="1.0" encoding="UTF-8"?><svg version="1.1" viewBox="0 0 24 24" xmlns="http://www.w3.org/2000/svg" xmlns:xlink="http://www.w3.org/1999/xlink"><g fill="none"><path d="M0 0h24v24h-24Z"></path><path stroke="#323232" stroke-linecap="round" stroke-linejoin="round" stroke-width="1.5" d="M16 19h3l-8.74228e-08-3.55271e-15c1.10457 4.82823e-08 2-.89543 2-2v-9.06 -8.88178e-16c0-1.10457-.895431-2-2-2h-6.471l5.06946e-09-2.57128e-12c-.332272.000168565-.642928-.164715-.829-.44l-1.4-2.063 -1.47521e-09-2.16556e-09c-.186752-.274145-.497291-.437843-.829-.437h-4.471l-8.74228e-08 1.77636e-15c-1.10457 4.82823e-08-2 .895431-2 2v4"></path><path stroke="#323232" stroke-linecap="round" stroke-linejoin="round" stroke-width="1.5" d="M9.766 14.937l-2.128 2.127 -1.275-1.276"></path><rect width="10" height="10" x="3" y="11" rx="1.65684" ry="0" stroke="#323232" stroke-linecap="round" stroke-linejoin="round" stroke-width="1.5"></rect></g></svg>