<svg id="Layer_3" data-name="Layer 3" xmlns="http://www.w3.org/2000/svg" viewBox="0 0 24 24"><path d="M12,20h7a1.99945,1.99945,0,0,0,2-2V8.94a2.00009,2.00009,0,0,0-2-2H12.529a.99981.99981,0,0,1-.827-.438L10.297,4.437A.99961.99961,0,0,0,9.471,4H5A1.99945,1.99945,0,0,0,3,6v4" fill="none" stroke="#323232" stroke-linecap="round" stroke-linejoin="round" stroke-width="1.5"/><path d="M6,17V13.5A1.5,1.5,0,0,1,7.5,12h0A1.5,1.5,0,0,1,9,13.5V17a3,3,0,0,1-3,3H6a3,3,0,0,1-3-3V13.9997" fill="none" stroke="#323232" stroke-linecap="round" stroke-linejoin="round" stroke-width="1.5"/><rect width="24" height="24" fill="none"/></svg>