<?xml version="1.0" encoding="UTF-8"?><svg version="1.1" viewBox="0 0 24 24" xmlns="http://www.w3.org/2000/svg" xmlns:xlink="http://www.w3.org/1999/xlink"><g stroke-linecap="round" stroke-width="1.5" stroke="#323232" fill="none" stroke-linejoin="round"><path d="M19 5.45h-3.971l-4.95662e-08 2.69154e-11c-.331002.000179719-.640646-.163441-.827-.437l-1.071-1.576 2.13755e-08 3.1379e-08c-.187149-.274733-.498584-.438508-.831-.437h-3.3l-8.74228e-08 1.77636e-15c-1.10457 4.82823e-08-2 .895431-2 2 0 0 0 5.36996e-10 0 5.36996e-10v9l2.30926e-14 3.01992e-07c1.66785e-07 1.10457.895431 2 2 2h10l-8.74228e-08-3.55271e-15c1.10457 4.82823e-08 2-.89543 2-2v-6.55h3.55271e-15c0-1.10457-.895431-2-2-2Z"></path><path d="M7 7h-2l-8.74228e-08 1.77636e-15c-1.10457 4.82823e-08-2 .895431-2 2 0 0 0 0 0 0v10l2.30926e-14 3.01992e-07c1.66785e-07 1.10457.895431 2 2 2h11.75l-8.74228e-08-3.55271e-15c1.10457 4.82823e-08 2-.89543 2-2v-3"></path></g><path fill="none" d="M0 0h24v24h-24Z"></path></svg>