<svg id="Layer_3" data-name="Layer 3" xmlns="http://www.w3.org/2000/svg" viewBox="0 0 24 24"><path d="M0,0H24V24H0Z" fill="none"/><path d="M6.82843,19.82843,4.17157,17.17157A4,4,0,0,1,3,14.34315V9.65785A4,4,0,0,1,4.17157,6.82943L6.82943,4.17157A4,4,0,0,1,9.65785,3h4.68329a4,4,0,0,1,2.82843,1.17157l2.65886,2.65886A4,4,0,0,1,21,9.65886v4.68329A4,4,0,0,1,19.829,17.17l-2.6569,2.6579A4,4,0,0,1,14.34315,21H9.65686A4,4,0,0,1,6.82843,19.82843Z" fill="none" stroke="#323232" stroke-linecap="round" stroke-linejoin="round" stroke-width="1.5"/><path d="M15.5,9.47H12l-.70137-1.03207A1,1,0,0,0,10.47154,8H8.5a1,1,0,0,0-1,1v6a1,1,0,0,0,1,1h7a1,1,0,0,0,1-1V10.47A1,1,0,0,0,15.5,9.47Z" fill="none" stroke="#323232" stroke-linecap="round" stroke-linejoin="round" stroke-width="1.5"/></svg>