<svg id="Layer_3" data-name="Layer 3" xmlns="http://www.w3.org/2000/svg" viewBox="0 0 24 24"><path d="M0,24V0L24,0V24Z" fill="none"/><path d="M14,3.23071A9.02824,9.02824,0,1,0,20.76929,10" fill="none" stroke="#323232" stroke-linecap="round" stroke-linejoin="round" stroke-width="1.5"/><path d="M17.25,5.25085h3" fill="none" stroke="#323232" stroke-linecap="round" stroke-linejoin="round" stroke-width="1.5"/><path d="M18.74915,6.75v-3" fill="none" stroke="#323232" stroke-linecap="round" stroke-linejoin="round" stroke-width="1.5"/><path d="M15.5,9.47H12l-.70137-1.03207A1,1,0,0,0,10.47154,8H8.5a1,1,0,0,0-1,1v6a1,1,0,0,0,1,1h7a1,1,0,0,0,1-1V10.47A1,1,0,0,0,15.5,9.47Z" fill="none" stroke="#323232" stroke-linecap="round" stroke-linejoin="round" stroke-width="1.5"/></svg>