<svg id="Layer_3" data-name="Layer 3" xmlns="http://www.w3.org/2000/svg" viewBox="0 0 24 24"><path d="M9.007,16h6" fill="none" stroke="#323232" stroke-linecap="round" stroke-linejoin="round" stroke-width="1.5"/><path d="M10.4,11.8,11.60107,13,13.6,11" fill="none" stroke="#323232" stroke-linecap="round" stroke-linejoin="round" stroke-width="1.5"/><path d="M19,6.94H12.529a.99981.99981,0,0,1-.827-.438L10.297,4.437A.99961.99961,0,0,0,9.471,4H5A1.99945,1.99945,0,0,0,3,6V18a1.99945,1.99945,0,0,0,2,2H19a1.99945,1.99945,0,0,0,2-2V8.94A2.00009,2.00009,0,0,0,19,6.94Z" fill="none" stroke="#323232" stroke-linecap="round" stroke-linejoin="round" stroke-width="1.5"/><path d="M0,0H24V24H0Z" fill="none"/></svg>