<?xml version="1.0" encoding="UTF-8"?><svg version="1.1" viewBox="0 0 24 24" xmlns="http://www.w3.org/2000/svg" xmlns:xlink="http://www.w3.org/1999/xlink"><g fill="none"><path d="M24 24h-24v-24h24Z"></path><path stroke="#323232" stroke-linecap="round" stroke-linejoin="round" stroke-width="1.5" d="M13 21h6l-8.74228e-08-3.55271e-15c1.10457 4.82823e-08 2-.89543 2-2v-3"></path><path stroke="#323232" stroke-linecap="round" stroke-linejoin="round" stroke-width="1.5" d="M8 3h-3l-8.74228e-08 1.77636e-15c-1.10457 4.82823e-08-2 .895431-2 2 0 0 0 8.88178e-16 0 8.88178e-16v6"></path><path stroke="#323232" stroke-linecap="round" stroke-linejoin="round" stroke-width="1.5" d="M19.5 4.633h-2.971l3.75316e-08-1.97894e-10c-.330961.00174508-.641347-.160375-.829-.433l-.516-.757 4.71149e-08 7.02533e-08c-.184598-.275255-.493581-.44117-.825-.443h-1.859l-6.55671e-08 1.77636e-15c-.828427 3.62117e-08-1.5.671573-1.5 1.5v6l1.59872e-14 1.60927e-07c1.25089e-07.828427.671573 1.5 1.5 1.5h7l-4.76798e-08 5.32907e-15c.828427-6.25445e-08 1.5-.671573 1.5-1.5v-4.367 0c0-.828427-.671573-1.5-1.5-1.5Z"></path><path stroke="#323232" stroke-linecap="round" stroke-linejoin="round" stroke-width="1.5" d="M3 16h6l-2-2"></path><path stroke="#323232" stroke-linecap="round" stroke-linejoin="round" stroke-width="1.5" d="M9 19h-6l2 2"></path></g></svg>