<svg id="Layer_3" data-name="Layer 3" xmlns="http://www.w3.org/2000/svg" viewBox="0 0 24 24"><path d="M0,0H24V24H0Z" fill="none"/><path d="M19.999,11H4.00081a2,2,0,0,0-1.95237,2.43386l1.11111,5A2,2,0,0,0,5.11192,20H18.75775a2,2,0,0,0,1.94108-1.51812l1.24128-5A2,2,0,0,0,19.999,11Z" fill="none" stroke="#323232" stroke-linecap="round" stroke-linejoin="round" stroke-width="1.5"/><path d="M21,11.27137V8.94a2,2,0,0,0-2-2H12.52914a1,1,0,0,1-.82678-.43747l-1.405-2.06506A1,1,0,0,0,9.47054,4H5A2,2,0,0,0,3,6v5.27137" fill="none" stroke="#323232" stroke-linecap="round" stroke-linejoin="round" stroke-width="1.5"/></svg>