<?xml version="1.0" encoding="UTF-8"?><svg version="1.1" viewBox="0 0 24 24" xmlns="http://www.w3.org/2000/svg" xmlns:xlink="http://www.w3.org/1999/xlink"><g stroke-linecap="round" stroke-width="1.5" stroke="#323232" fill="none" stroke-linejoin="round"><path d="M18.364 5.63604c3.51472 3.51472 3.51472 9.2132 0 12.7279 -3.51472 3.51472-9.2132 3.51472-12.7279 0 -3.51472-3.51472-3.51472-9.2132-1.77636e-15-12.7279 3.51472-3.51472 9.2132-3.51472 12.7279-1.77636e-15"></path><path d="M16.5 12.5h-9"></path><path d="M15.5 9.47h-3.5l-.702-1.033c-.187-.273-.496-.437-.827-.437h-1.971c-.552 0-1 .448-1 1v6c0 .552.448 1 1 1h7c.552 0 1-.448 1-1v-4.53c0-.552-.448-1-1-1Z"></path></g><path fill="none" d="M0 0h24v24h-24Z"></path></svg>