<?xml version="1.0" encoding="UTF-8"?><svg version="1.1" viewBox="0 0 24 24" xmlns="http://www.w3.org/2000/svg" xmlns:xlink="http://www.w3.org/1999/xlink"><g stroke-linecap="round" stroke-width="1.5" stroke="#323232" fill="none" stroke-linejoin="round"><path d="M15 19h4l-8.74228e-08-3.55271e-15c1.10457 4.82823e-08 2-.89543 2-2v-9.06 -8.88178e-16c0-1.10457-.895431-2-2-2h-6.471l5.06946e-09-2.57128e-12c-.332272.000168565-.642928-.164715-.829-.44l-1.4-2.063 -1.47521e-09-2.16556e-09c-.186752-.274145-.497291-.437843-.829-.437h-4.471l-8.74228e-08 1.77636e-15c-1.10457 4.82823e-08-2 .895431-2 2v5"></path><path d="M8.457 15.543l-1.914 1.914"></path><path d="M6.543 15.543l1.914 1.914"></path><path d="M12 16.5v0c0 2.48528-2.01472 4.5-4.5 4.5 -2.48528 0-4.5-2.01472-4.5-4.5 0-2.48528 2.01472-4.5 4.5-4.5l-1.96701e-07 3.55271e-15c2.48528-1.08635e-07 4.5 2.01472 4.5 4.5 0 0 0 0 0 0"></path></g><path fill="none" d="M0 0h24v24h-24Z"></path></svg>