<svg id="Layer_3" data-name="Layer 3" xmlns="http://www.w3.org/2000/svg" viewBox="0 0 24 24"><rect y="0.00001" width="24" height="24" fill="none"/><line x1="21.99169" y1="15.50001" x2="2" y2="15.50001" fill="none" stroke="#323232" stroke-linecap="round" stroke-linejoin="round" stroke-width="1.5"/><path d="M2,8.5v8A1.5,1.5,0,0,0,3.5,18h17A1.5,1.5,0,0,0,22,16.5v-.7918a3,3,0,0,0-.31672-1.34164l-.09309-.18618a3,3,0,0,0-1.85912-1.54293l-4.79891-1.37112a2,2,0,0,1-1.30054-1.16307L12.04459,6.24a2,2,0,0,0-1.85-1.24h-.12424a1,1,0,0,0-.83205.4453L7.83205,7.55471A1,1,0,0,1,7,8H5.5a1,1,0,0,1-.8-.4h0A1.5,1.5,0,0,0,2,8.5Z" fill="none" stroke="#323232" stroke-linecap="round" stroke-linejoin="round" stroke-width="1.5"/><path d="M2,11.5h.5a4,4,0,0,1,4,4h0" fill="none" stroke="#323232" stroke-linecap="round" stroke-linejoin="round" stroke-width="1.5"/></svg>