<svg xmlns="http://www.w3.org/2000/svg" viewBox="0 0 24 24"><g id="Layer_2" data-name="Layer 2"><line x1="12" y1="15" x2="12" y2="17" fill="none" stroke="#323232" stroke-linecap="round" stroke-linejoin="round" stroke-width="1.5"/><path d="M11.64842,7.14339l-2.68923,2.659A.69992.69992,0,0,0,9.45138,11h5.09718a.69993.69993,0,0,0,.49219-1.19764l-2.6892-2.659A.50267.50267,0,0,0,11.64842,7.14339Z" fill="none" stroke="#323232" stroke-linecap="round" stroke-linejoin="round" stroke-width="1.5"/><path d="M13.5,11l2.34015,2.85637A.7.7,0,0,1,15.29873,15H8.70127a.7.7,0,0,1-.54142-1.14364L10.5,11" fill="none" stroke="#323232" stroke-linecap="round" stroke-linejoin="round" stroke-width="1.5"/><rect x="3" y="3.00015" width="18" height="18" rx="5" transform="translate(24 24.00029) rotate(-180)" stroke-width="1.5" stroke="#323232" stroke-linecap="round" stroke-linejoin="round" fill="none"/><rect y="0.00015" width="24" height="24" fill="none"/></g></svg>