<?xml version="1.0" encoding="UTF-8"?><svg version="1.1" viewBox="0 0 24 24" xmlns="http://www.w3.org/2000/svg" xmlns:xlink="http://www.w3.org/1999/xlink"><!--Generated by IJSVG (https://github.com/iconjar/IJSVG)--><g stroke-linecap="round" stroke-width="1.5" stroke="#323232" fill="none" stroke-linejoin="round"><path d="M5,21h14c1.105,0 2,-0.895 2,-2v-14c0,-1.105 -0.895,-2 -2,-2h-14c-1.105,0 -2,0.895 -2,2v14c0,1.105 0.895,2 2,2Z"></path><path d="M8.67,11.59v5.41"></path><path d="M10.333,7v2.723v-0.043c0,1.052 -0.746,1.905 -1.667,1.905c-0.92,1.77636e-15 -1.666,-0.853 -1.666,-1.905v0.043v-2.723"></path><path d="M15.33,11.76v5.24"></path><path d="M17,9.857c0,1.052 -0.746,1.905 -1.667,1.905c-0.92,0 -1.667,-0.853 -1.667,-1.905c0.001,-1.578 0.747,-2.857 1.667,-2.857c0.921,0 1.667,1.279 1.667,2.857Z"></path></g><path fill="none" d="M0,0h24v24h-24Z" transform="matrix(-1,-4.48687e-11,4.48687e-11,-1,24,24)"></path></svg>