<svg xmlns="http://www.w3.org/2000/svg" viewBox="0 0 24 24"><g id="Layer_2" data-name="Layer 2"><rect width="24" height="24" fill="none"/><path d="M9,18h6a2,2,0,0,1,2,2v0a1,1,0,0,1-1,1H8a1,1,0,0,1-1-1v0a2,2,0,0,1,2-2Z" fill="none" stroke="#323232" stroke-linecap="round" stroke-linejoin="round" stroke-width="1.5"/><path d="M12,11a2.78445,2.78445,0,0,1,3-2.5A2.78445,2.78445,0,0,1,18,11" fill="none" stroke="#323232" stroke-linecap="round" stroke-linejoin="round" stroke-width="1.5"/><path d="M6,11A2.78445,2.78445,0,0,1,9,8.5,2.78445,2.78445,0,0,1,12,11" fill="none" stroke="#323232" stroke-linecap="round" stroke-linejoin="round" stroke-width="1.5"/><path d="M12,6a2.5,2.5,0,0,1,5,0" fill="none" stroke="#323232" stroke-linecap="round" stroke-linejoin="round" stroke-width="1.5"/><path d="M7,6a2.5,2.5,0,0,1,5,0" fill="none" stroke="#323232" stroke-linecap="round" stroke-linejoin="round" stroke-width="1.5"/><line x1="12" y1="14" x2="12" y2="6" fill="none" stroke="#323232" stroke-linecap="round" stroke-linejoin="round" stroke-width="1.5"/><path d="M5,14H19a1,1,0,0,1,1,1v0a3,3,0,0,1-3,3H7a3,3,0,0,1-3-3v0a1,1,0,0,1,1-1Z" fill="none" stroke="#323232" stroke-linecap="round" stroke-linejoin="round" stroke-width="1.5"/></g></svg>