<?xml version="1.0" encoding="UTF-8"?><svg version="1.1" viewBox="0 0 24 24" xmlns="http://www.w3.org/2000/svg" xmlns:xlink="http://www.w3.org/1999/xlink"><!--Generated by IJSVG (https://github.com/iconjar/IJSVG)--><path d="M20.863,10.437c0.863,4.895 -2.406,9.563 -7.3,10.426c-4.895,0.863 -9.563,-2.405 -10.426,-7.3c-0.863,-4.895 2.405,-9.563 7.3,-10.426c4.895,-0.863 9.563,2.405 10.426,7.3" stroke-linecap="round" stroke-width="1.5" stroke="#323232" fill="none" stroke-linejoin="round"></path><path fill="none" d="M20.966,11.216c0.433,4.951 -3.23,9.317 -8.181,9.75c-4.951,0.433 -9.317,-3.23 -9.75,-8.181c-0.433,-4.951 3.23,-9.317 8.181,-9.75c4.951,-0.434 9.317,3.229 9.75,8.181"></path><g stroke-linecap="round" stroke-width="1.5" stroke="#323232" fill="none" stroke-linejoin="round"><path d="M7.045,4.496l1.446,2.19"></path><path d="M16.955,19.504l-1.446,-2.19"></path><path d="M10.266,14.289c0.258,0.423 0.7,0.714 1.233,0.714h1.096c0.775,0 1.404,-0.628 1.404,-1.404c0,-0.644 -0.438,-1.206 -1.062,-1.362l-1.874,-0.47c-0.625,-0.157 -1.063,-0.719 -1.063,-1.363c0,-0.775 0.628,-1.404 1.404,-1.404h1.096c0.533,0 0.975,0.292 1.233,0.714"></path><path d="M12,8v1"></path><path d="M12,16v-1"></path></g><path fill="none" d="M0,0h24v24h-24Z"></path></svg>