<?xml version="1.0" encoding="UTF-8"?><svg version="1.1" viewBox="0 0 24 24" xmlns="http://www.w3.org/2000/svg" xmlns:xlink="http://www.w3.org/1999/xlink"><g stroke-linecap="round" stroke-width="1.5" stroke="#323232" fill="none" stroke-linejoin="round"><path d="M20.9981 11.9992v0l8.0255e-09.00038007c0 4.97035-4.02927 8.99962-8.99962 8.99962 -.000500026 0-.00100005-4.16727e-08-.00150008-1.25018e-07v0l-8.51397e-08-1.86269e-11c-.93451-.000204464-1.69191-.75794-1.69171-1.69245 2.0368e-05-.0930925.00772312-.186024.0230298-.27785l.08928-.53572 4.32399e-08-2.59393e-07c.272392-1.63406-.831456-3.17954-2.46551-3.45193 -.163172-.0272002-.328314-.0408556-.493737-.0408265l-1.45862.00033 -1.44844e-07 2.79883e-11c-1.65764.000320247-3.00168-1.3432-3.002-3.00084 -4.57265e-08-.000236686-6.34561e-08-.000473373-5.31887e-08-.000710059v0l-8.0228e-09-.000378649c-7.50502e-07-4.97035 4.02927-8.99962 8.99962-8.99962 0 0 1.60451e-08-3.55271e-15 1.60451e-08-3.55271e-15h.00152l3.40565e-07 1.39444e-11c4.97035.000203607 8.99945 4.02964 8.99925 8.99999 -1.63531e-10 3.99205e-06-3.29763e-10 7.98519e-06-4.98609e-10 1.19772e-05Z"></path><circle cx="11.312" cy="9.31202" r="2.5"></circle></g><rect width="24" height="24" fill="none"></rect></svg>