<?xml version="1.0" encoding="UTF-8"?><svg version="1.1" viewBox="0 0 24 24" xmlns="http://www.w3.org/2000/svg" xmlns:xlink="http://www.w3.org/1999/xlink"><g stroke-linecap="round" stroke-width="1.5" stroke="#323232" fill="none" stroke-linejoin="round"><path d="M12 21l-2.7413e-07 2.94698e-11c-4.4178.000474839-7.99952-3.58048-8-7.99828 -6.16269e-08-.000573364-6.16073e-08-.00114673 5.89475e-11-.00172009"></path><path d="M4 13c0-3.49091 1.6-6.00051 4.8-6.00051"></path><path d="M12 21l-4.25177e-07-4.57234e-11c4.4178.000475225 7.99953-3.58048 8-7.99828 6.16771e-08-.000573364 6.17075e-08-.00114673 9.14255e-11-.00172009"></path><path d="M20 13c0-3.49091-1.6-6.00051-4.8-6.00051"></path><path d="M15.2 7.00154l-1.4646e-06 1.31233e-07c-1.07723.096523-2.14646.267654-3.2.51216l-1.25695e-07-2.91715e-08c-1.05354-.244506-2.12277-.415637-3.2-.51216"></path><line x1="12" x2="12" y1="11.44" y2="16.44"></line><line x1="14.05" x2="9.95" y1="12.51" y2="15.37"></line><line x1="9.95" x2="14.05" y1="12.51" y2="15.37"></line><path d="M13.7227 7h-1.474v-1.474l-8.11248e-08-.000639727c-2.10597e-07-1.39472 1.13064-2.52536 2.52536-2.52536 .000460063-6.94675e-11.000920126 1.25581e-07.00138019 3.7695e-07h1.47331v1.474l4.71715e-08-.000127332c-.0004816 1.39486-1.13106 2.52553-2.52592 2.52613Z"></path><path d="M12.2488 7v-.5 0c0-1.38071-1.11929-2.5-2.5-2.5h-.5"></path></g><rect width="24" height="24" fill="none"></rect></svg>