<?xml version="1.0" encoding="UTF-8"?><svg version="1.1" viewBox="0 0 24 24" xmlns="http://www.w3.org/2000/svg" xmlns:xlink="http://www.w3.org/1999/xlink"><!--Generated by IJSVG (https://github.com/iconjar/IJSVG)--><g stroke-linecap="round" stroke-width="1.5" stroke="#323232" fill="none" stroke-linejoin="round"><path d="M13.4946,10.3604c0.832598,0.832598 0.832598,2.18251 0,3.0151c-0.832598,0.832598 -2.18251,0.832598 -3.0151,0c-0.832598,-0.832598 -0.832598,-2.18251 0,-3.0151c0.832598,-0.832598 2.18251,-0.832598 3.0151,0"></path><path d="M2,18.5h2.75"></path><path d="M2,12c0,-5.523 4.477,-10 10,-10c5.523,0 10,4.477 10,10"></path><path d="M12,2v2"></path><path d="M19.07,4.93l-1,1"></path><path d="M4.93,4.93l1,1"></path><path d="M2,12h2"></path><path d="M22,12h-2"></path><path d="M15.99,7.86l-2.5,2.5"></path><path d="M22,16.004h-3.568v4.996v-2.5"></path><path d="M5.568,21h-3.568v-4.996h3.568"></path><path d="M18.43,18.5h2.75"></path></g><path fill="none" d="M0,0h24v24h-24Z"></path></svg>