<?xml version="1.0" encoding="UTF-8"?><svg version="1.1" viewBox="0 0 24 24" xmlns="http://www.w3.org/2000/svg" xmlns:xlink="http://www.w3.org/1999/xlink"><g stroke-linecap="round" stroke-width="1.5" stroke="#323232" fill="none" stroke-linejoin="round"><path d="M5.333 5.469c1.64-1.512 4.015-2.469 6.667-2.469 2.652 0 5.027.957 6.667 2.469"></path><path d="M7.556 8.185c1.093-.907 2.676-1.481 4.444-1.481 1.768 0 3.351.574 4.444 1.481"></path><path d="M9.778 11c.547-.454 1.338-.741 2.222-.741 .884 0 1.676.287 2.222.741"></path><path d="M4.406 11l-1.353 6.764c-.335 1.674.946 3.236 2.654 3.236h12.587c1.707 0 2.988-1.562 2.653-3.236l-1.353-6.764"></path></g><path fill="none" d="M24 24h-24v-24h24v24Z"></path></svg>