<svg xmlns="http://www.w3.org/2000/svg" viewBox="0 0 24 24"><g id="Layer_2" data-name="Layer 2"><path d="M0,0H24V24H0Z" fill="none"/><rect x="3" y="3" width="18" height="18" rx="5" stroke-width="1.5" stroke="#323232" stroke-linecap="round" stroke-linejoin="round" fill="none"/><path d="M9.07155,8.48692a9.04951,9.04951,0,0,1,5.85667-.00006,2.99609,2.99609,0,0,1,1.8277,1.88059L17.916,13.84791a1.635,1.635,0,0,1-.395,1.67316l-.00006,0a1.635,1.635,0,0,1-2.31224,0L14.0171,14.32944a.5.5,0,0,0-.35356-.14645H10.33639a.5.5,0,0,0-.35355.14645L8.79117,15.52111a1.635,1.635,0,0,1-2.31225,0h0a1.635,1.635,0,0,1-.395-1.67309l1.16-3.48042A2.99607,2.99607,0,0,1,9.07155,8.48692Z" fill="none" stroke="#323232" stroke-linecap="round" stroke-linejoin="round" stroke-width="1.5"/></g></svg>