<?xml version="1.0" encoding="UTF-8"?><svg version="1.1" viewBox="0 0 24 24" xmlns="http://www.w3.org/2000/svg" xmlns:xlink="http://www.w3.org/1999/xlink"><!--Generated by IJSVG (https://github.com/iconjar/IJSVG)--><g fill="none"><path d="M0,0h24v24h-24Z"></path><path stroke="#323232" stroke-width="1.5" d="M15.5,16.5h-7c-0.552,0 -1,-0.448 -1,-1v-7c0,-0.552 0.448,-1 1,-1h7c0.552,0 1,0.448 1,1v7c0,0.552 -0.448,1 -1,1Z"></path><path stroke="#323232" stroke-width="1.5" d="M20,12h-7c-0.552,0 -1,-0.448 -1,-1v-7c0,-0.552 0.448,-1 1,-1h7c0.552,0 1,0.448 1,1v7c0,0.552 -0.448,1 -1,1Z"></path><path stroke="#323232" stroke-width="1.5" d="M11,21h-7c-0.552,0 -1,-0.448 -1,-1v-7c0,-0.552 0.448,-1 1,-1h7c0.552,0 1,0.448 1,1v7c0,0.552 -0.448,1 -1,1Z"></path></g></svg>