<?xml version="1.0" encoding="UTF-8"?><svg version="1.1" viewBox="0 0 24 24" xmlns="http://www.w3.org/2000/svg" xmlns:xlink="http://www.w3.org/1999/xlink"><!--Generated by IJSVG (https://github.com/iconjar/IJSVG)--><g fill="none"><path d="M0,0h24v24h-24Z"></path><path stroke="#323232" stroke-linecap="round" stroke-linejoin="round" stroke-width="1.5" d="M3.28,17.03l17.44,-10.06"></path><path stroke="#323232" stroke-linecap="round" stroke-linejoin="round" stroke-width="1.5" d="M12,1.95v20.1"></path><path stroke="#323232" stroke-linecap="round" stroke-linejoin="round" stroke-width="1.5" d="M12,12l-8.72,-5.03"></path><path stroke="#323232" stroke-linecap="round" stroke-linejoin="round" stroke-width="1.5" d="M21,16.041v-8.082c0,-0.715 -0.381,-1.375 -1,-1.732l-7,-4.041c-0.619,-0.357 -1.381,-0.357 -2,0l-7,4.04c-0.619,0.358 -1,1.018 -1,1.733v8.083c0,0.715 0.381,1.375 1,1.732l7,4.041c0.619,0.357 1.381,0.357 2,0l7,-4.041c0.619,-0.358 1,-1.018 1,-1.733Z"></path></g></svg>