<?xml version="1.0" encoding="UTF-8"?><svg version="1.1" viewBox="0 0 24 24" xmlns="http://www.w3.org/2000/svg" xmlns:xlink="http://www.w3.org/1999/xlink"><g stroke-linecap="round" stroke-width="1.5" stroke="#323232" fill="none" stroke-linejoin="round"><path d="M6.678 10.765l1.322-3.965 -3.37804e-09 9.52289e-09c.046529-.131168.190581-.199781.321748-.153252 .0715641.0253859.127866.0816878.153252.153252l1.325 3.965 2.2 6.6 -5.794-4.101 -1.5481e-08-1.07628e-08c-.174265-.121153-.248275-.342372-.182-.544Z"></path><path d="M17.322 10.765l-1.322-3.965 1.10776e-08 3.12283e-08c-.0465289-.131168-.19058-.199781-.321748-.153252 -.0715641.0253859-.127866.0816878-.153252.153252l-1.325 3.965 -2.2 6.6 5.794-4.105 4.51747e-09-3.14066e-09c.174265-.121153.248275-.342372.182-.544Z"></path><rect width="18" height="18" x="3" y="3" rx="2.7614" ry="0"></rect><path d="M9.742 10.593h4.516"></path></g><path fill="none" d="M0 0h24v24h-24Z"></path></svg>