<?xml version="1.0" encoding="UTF-8"?><svg version="1.1" viewBox="0 0 24 24" xmlns="http://www.w3.org/2000/svg" xmlns:xlink="http://www.w3.org/1999/xlink"><g stroke-linecap="round" stroke-width="1.5" stroke="#323232" fill="none" stroke-linejoin="round"><path d="M21 20h-16l-8.74228e-08-3.55271e-15c-1.10457-4.82823e-08-2-.895431-2-2 0 0 0 0 0 0v-2l2.30926e-14 3.01992e-07c-1.66785e-07-1.10457.89543-2 2-2h16"></path><line x1="20" x2="6" y1="17" y2="17"></line><circle cx="7.285" cy="7" r="3"></circle><circle cx="16.715" cy="7" r="3"></circle><path d="M10.285 7l-1.29502e-07 1.72697e-07c.710054-.946892 2.05327-1.13889 3.00017-.428834 .16255.121893.30694.266283.428833.428833"></path><line x1="3" x2="4.28" y1="7" y2="7"></line><line x1="19.72" x2="21" y1="7" y2="7"></line></g><path fill="none" d="M0 0h24v24h-24Z"></path></svg>