<?xml version="1.0" encoding="UTF-8"?><svg version="1.1" viewBox="0 0 24 24" xmlns="http://www.w3.org/2000/svg" xmlns:xlink="http://www.w3.org/1999/xlink"><g stroke-linecap="round" stroke-width="1.5" stroke="#323232" fill="none" stroke-linejoin="round"><path d="M11 21c-4.971 0-9-4.029-9-9 0-4.971 4.029-9 9-9 4.971 0 9 4.029 9 9"></path><line x1="2.51" x2="19.49" y1="9" y2="9"></line><line x1="2.51" x2="12" y1="15" y2="15"></line><path d="M15 11.999c0-2.764-.723-5.528-2.167-7.94 -.847-1.413-2.819-1.413-3.665 0 -2.89 4.825-2.89 11.056 0 15.88 .423.707 1.128 1.061 1.833 1.061"></path><path d="M19.008 15.284l2.91 4.855c.261.436-.144.964-.648.844l-2.77-.661 -2.77.66c-.504.12-.909-.408-.648-.844l2.91-4.854c.227-.379.789-.379 1.016 0Z"></path></g><rect width="24" height="24" fill="none"></rect></svg>