<?xml version="1.0" encoding="UTF-8"?><svg version="1.1" viewBox="0 0 24 24" xmlns="http://www.w3.org/2000/svg" xmlns:xlink="http://www.w3.org/1999/xlink"><!--Generated by IJSVG (https://github.com/iconjar/IJSVG)--><g stroke-linecap="round" stroke-width="1.5" stroke="#323232" fill="none" stroke-linejoin="round"><path d="M8,18l2,2l-2,2"></path><path d="M10,20h-6"></path><path d="M3,12h4.172c1.562,0 2.828,-1.266 2.828,-2.828v0c0,-0.75 -0.298,-1.47 -0.828,-2l-2.455,-2.455"></path><path d="M18.292,18.438l-1.777,-2.665c-0.322,-0.483 -0.863,-0.773 -1.443,-0.773v0c-0.657,0 -1.257,-0.371 -1.551,-0.959l-0.133,-0.266c-0.244,-0.488 -0.244,-1.063 0,-1.551l1.133,-2.266c0.293,-0.587 0.894,-0.958 1.551,-0.958h4.408"></path><path d="M14,20.771c4.013,-0.907 7,-4.477 7,-8.771c0,-4.982 -4.018,-9 -9,-9c-4.982,0 -9,4.018 -9,9c0,1.44 0.344,2.795 0.942,4"></path></g><path fill="none" d="M0,0h24v24h-24Z"></path></svg>