<svg id="Layer_3" data-name="Layer 3" xmlns="http://www.w3.org/2000/svg" viewBox="0 0 24 24"><path d="M0,0H24V24H0Z" fill="none"/><path d="M0,24H24V0H0Z" fill="none"/><line x1="3.51401" y1="9.00001" x2="20.53905" y2="9.00001" fill="none" stroke="#323232" stroke-linecap="round" stroke-linejoin="round" stroke-width="1.5"/><path d="M12.00562,21C9.79338,21,8,16.97057,8,12s1.79338-9,4.00562-9" fill="none" stroke="#323232" stroke-linecap="round" stroke-linejoin="round" stroke-width="1.5"/><line x1="11" y1="15.00001" x2="3.51404" y2="15.00001" fill="none" stroke="#323232" stroke-linecap="round" stroke-linejoin="round" stroke-width="1.5"/><path d="M12,3a9,9,0,0,0,0,18" fill="none" stroke="#323232" stroke-linecap="round" stroke-linejoin="round" stroke-width="1.5"/><path d="M21,11a9.03638,9.03638,0,0,0-9-8" fill="none" stroke="#323232" stroke-linecap="round" stroke-linejoin="round" stroke-width="1.5"/><path d="M16,11c-.22276-4.49945-1.92779-8-4-8" fill="none" stroke="#323232" stroke-linecap="round" stroke-linejoin="round" stroke-width="1.5"/><path d="M14,17.49484c0,1.68347,2.11839,2.92962,3.06072,3.40085a.977.977,0,0,0,.87921-.00034C18.88257,20.42384,21,19.18058,21,17.49484l0-2.397a.51159.51159,0,0,0-.47317-.49442,4.98261,4.98261,0,0,1-2.45661-.91867.9723.9723,0,0,0-1.1404,0,4.98261,4.98261,0,0,1-2.45661.91867A.51159.51159,0,0,0,14,15.09782Z" fill="none" stroke="#323232" stroke-linecap="round" stroke-linejoin="round" stroke-width="1.5"/></svg>