<?xml version="1.0" encoding="UTF-8"?><svg version="1.1" viewBox="0 0 24 24" xmlns="http://www.w3.org/2000/svg" xmlns:xlink="http://www.w3.org/1999/xlink"><g stroke-linecap="round" stroke-width="1.5" stroke="#323232" fill="none" stroke-linejoin="round"><path d="M9 7.934h6l-4.37114e-08 1.77636e-15c.552285-2.41411e-08 1 .447715 1 1 0 0 0 1.77636e-15 0 1.77636e-15v2h-8v-2l8.88178e-15-1.07284e-07c8.33927e-08-.552285.447715-1 1-1Z"></path><rect width="12" height="10.066" x="6" y="10.934" rx="1.10456" ry="0"></rect><path d="M9.543 7.934c0-2.725 1.1-4.934 2.457-4.934 1.357 0 2.457 2.209 2.457 4.934"></path></g><path fill="none" d="M0 0h24v24h-24Z"></path></svg>