<svg id="Layer_3" data-name="Layer 3" xmlns="http://www.w3.org/2000/svg" viewBox="0 0 24 24"><path d="M0,0H24V24H0Z" fill="none"/><path d="M0,0H24V24H0Z" fill="none"/><path d="M16.99913,16H13.00087a1,1,0,0,1-.9398-1.34173l.72725-2A1,1,0,0,1,13.72812,12h2.54372a1,1,0,0,1,.93979.65825l.72729,2A1,1,0,0,1,16.99913,16Z" fill="none" stroke="#323232" stroke-linecap="round" stroke-linejoin="round" stroke-width="1.5"/><path d="M9.30048,9.5l.48785-1.34174A1,1,0,0,1,10.72809,7.5h2.54376a1,1,0,0,1,.93976.65826L14.69952,9.5" fill="none" stroke="#323232" stroke-linecap="round" stroke-linejoin="round" stroke-width="1.5"/><path d="M9,16H7.00087a1,1,0,0,1-.9398-1.34173l.72725-2A1,1,0,0,1,7.72812,12H10" fill="none" stroke="#323232" stroke-linecap="round" stroke-linejoin="round" stroke-width="1.5"/><rect x="3" y="3" width="18" height="18" rx="5" stroke-width="1.5" stroke="#323232" stroke-linecap="round" stroke-linejoin="round" fill="none"/></svg>