<svg id="Layer_3" data-name="Layer 3" xmlns="http://www.w3.org/2000/svg" viewBox="0 0 24 24"><rect x="3" y="3" width="18" height="18" rx="5" stroke-width="1.5" stroke="#323232" stroke-linecap="round" stroke-linejoin="round" fill="none"/><path d="M9.525,11.92177v2.32508a1.35,1.35,0,0,0,.74627,1.20749l.52128.26063a2.7,2.7,0,0,0,2.4149,0l.52128-.26063a1.35,1.35,0,0,0,.74627-1.20749V11.92177" fill="none" stroke="#323232" stroke-linecap="round" stroke-linejoin="round" stroke-width="1.5"/><path d="M7.91321,11.11588l3.08391,1.542a2.24247,2.24247,0,0,0,2.00576,0l3.08391-1.54195a.74751.74751,0,0,0,0-1.33718L13.00288,8.23675a2.24247,2.24247,0,0,0-2.00576,0L7.91321,9.7787A.74751.74751,0,0,0,7.91321,11.11588Z" fill="none" stroke="#323232" stroke-linecap="round" stroke-linejoin="round" stroke-width="1.5"/><path d="M16.5,10.44729v1.8" fill="none" stroke="#323232" stroke-linecap="round" stroke-linejoin="round" stroke-width="1.5"/><path d="M0,0H24V24H0Z" fill="none"/></svg>