<svg id="Layer_3" data-name="Layer 3" xmlns="http://www.w3.org/2000/svg" viewBox="0 0 24 24"><circle cx="12" cy="10" r="3" fill="none" stroke="#323232" stroke-linecap="round" stroke-linejoin="round" stroke-width="1.5"/><path d="M9.5,11.66a3,3,0,1,1,0-3.32" fill="none" stroke="#323232" stroke-linecap="round" stroke-linejoin="round" stroke-width="1.5"/><path d="M11.82,12.99A2.787,2.787,0,0,1,12,14a3,3,0,0,1-6,0,2.92963,2.92963,0,0,1,.22-1.11" fill="none" stroke="#323232" stroke-linecap="round" stroke-linejoin="round" stroke-width="1.5"/><path d="M14.5,11.66a3,3,0,1,0,0-3.32" fill="none" stroke="#323232" stroke-linecap="round" stroke-linejoin="round" stroke-width="1.5"/><path d="M12.18,12.99A2.787,2.787,0,0,0,12,14a3,3,0,0,0,6,0,2.92963,2.92963,0,0,0-.22-1.11" fill="none" stroke="#323232" stroke-linecap="round" stroke-linejoin="round" stroke-width="1.5"/><path d="M14.82,16.99A2.787,2.787,0,0,1,15,18a3,3,0,0,1-6,0,2.787,2.787,0,0,1,.18-1.01" fill="none" stroke="#323232" stroke-linecap="round" stroke-linejoin="round" stroke-width="1.5"/><path d="M12.86859,7h0a.92121.92121,0,0,1-.92121-.92122h0A4.07878,4.07878,0,0,1,16.02615,2h0a.92121.92121,0,0,1,.92122.92122h0A4.07878,4.07878,0,0,1,12.86859,7Z" fill="none" stroke="#323232" stroke-linecap="round" stroke-linejoin="round" stroke-width="1.5"/><path d="M11.94737,7V5.72281A2.45614,2.45614,0,0,0,9.49123,3.26667H9" fill="none" stroke="#323232" stroke-linecap="round" stroke-linejoin="round" stroke-width="1.5"/><rect width="24" height="24" fill="none"/></svg>