<?xml version="1.0" encoding="UTF-8"?><svg version="1.1" viewBox="0 0 24 24" xmlns="http://www.w3.org/2000/svg" xmlns:xlink="http://www.w3.org/1999/xlink"><!--Generated by IJSVG (https://github.com/iconjar/IJSVG)--><g fill="none"><path d="M24,0v24h-24v-24h24Z"></path><path stroke="#323232" stroke-linecap="round" stroke-linejoin="round" stroke-width="1.5" d="M9.167,20.5h-4.723c-0.522,0 -0.944,-0.423 -0.944,-0.944v-3.778c0,-0.522 0.423,-0.944 0.944,-0.944h4.722"></path><path stroke="#323232" stroke-linecap="round" stroke-linejoin="round" stroke-width="1.5" d="M14.833,4.444v16.056h4.722c0.522,0 0.944,-0.423 0.944,-0.944v-15.112c0,-0.522 -0.423,-0.944 -0.944,-0.944h-3.778c-0.521,0 -0.944,0.423 -0.944,0.944Z"></path><path stroke="#323232" stroke-linecap="round" stroke-linejoin="round" stroke-width="1.5" d="M14.833,20.5c0,0 -5.667,0 -5.667,0v-10.389c0,-0.522 0.423,-0.944 0.944,-0.944h4.722"></path></g></svg>