<?xml version="1.0" encoding="UTF-8"?><svg version="1.1" viewBox="0 0 24 24" xmlns="http://www.w3.org/2000/svg" xmlns:xlink="http://www.w3.org/1999/xlink"><g fill="none"><path d="M0 0h24v24h-24Z"></path><path stroke="#323232" stroke-linecap="round" stroke-linejoin="round" stroke-width="1.5" d="M6.5 10v0c-1.933 0-3.5-1.567-3.5-3.5v0c0-1.933 1.567-3.5 3.5-3.5v0c1.933 0 3.5 1.567 3.5 3.5v0c0 1.933-1.567 3.5-3.5 3.5Z"></path><path stroke="#323232" stroke-linecap="round" stroke-linejoin="round" stroke-width="1.5" d="M17.5 10v0c-1.933 0-3.5-1.567-3.5-3.5v0c0-1.933 1.567-3.5 3.5-3.5v0c1.933 0 3.5 1.567 3.5 3.5v0c0 1.933-1.567 3.5-3.5 3.5Z"></path><path stroke="#323232" stroke-linecap="round" stroke-linejoin="round" stroke-width="1.5" d="M6.5 21v0c-1.933 0-3.5-1.567-3.5-3.5v0c0-1.933 1.567-3.5 3.5-3.5v0c1.933 0 3.5 1.567 3.5 3.5v0c0 1.933-1.567 3.5-3.5 3.5Z"></path><path stroke="#323232" stroke-linecap="round" stroke-linejoin="round" stroke-width="1.5" d="M21 17.5v0c0-1.933-1.567-3.5-3.5-3.5v0c-1.933 0-3.5 1.567-3.5 3.5v0c0 1.933 1.567 3.5 3.5 3.5v0c1.933 0 3.5-1.567 3.5-3.5Z"></path></g></svg>