<?xml version="1.0" encoding="UTF-8"?><svg version="1.1" viewBox="0 0 24 24" xmlns="http://www.w3.org/2000/svg" xmlns:xlink="http://www.w3.org/1999/xlink"><g stroke-linecap="round" stroke-width="1.5" stroke="#323232" fill="none" stroke-linejoin="round"><path d="M8 10h-3c-1.105 0-2-.895-2-2v-3c0-1.105.895-2 2-2h3c1.105 0 2 .895 2 2v3c0 1.105-.895 2-2 2Z"></path><path d="M19 10h-3c-1.105 0-2-.895-2-2v-3c0-1.105.895-2 2-2h3c1.105 0 2 .895 2 2v3c0 1.105-.895 2-2 2Z"></path><path d="M8 21h-3c-1.105 0-2-.895-2-2v-3c0-1.105.895-2 2-2h3c1.105 0 2 .895 2 2v3c0 1.105-.895 2-2 2Z"></path><line x1="17.5" x2="17.5" y1="15" y2="20"></line><line x1="20" x2="15" y1="17.5" y2="17.5"></line></g><rect width="24" height="24" fill="none" transform="matrix(-1 -1.22465e-16 1.22465e-16 -1 24 24)"></rect></svg>