<svg viewBox="0 0 24 24" xmlns="http://www.w3.org/2000/svg"><g fill="none"><path d="M0 0h24v24H0Z"/><g stroke-linecap="round" stroke-width="1.5" stroke="#323232" fill="none" stroke-linejoin="round"><path d="M8 3h8l-.01 0c2.76-.01 5 2.23 5 4.99v8 0c0 2.76-2.24 5-5 5 0 0-.001 0-.001 0h-8l-.01-.001c-2.77-.01-5-2.24-5-5.01 0 0 0-.001 0-.001v-8l0 0C2.96 5.2 5.2 2.96 7.96 2.96Z"/><path d="M18 12v0c0 3.31-2.69 6-6 6 -3.32 0-6-2.69-6-6 0-3.32 2.68-6 6-6l-.01 0c3.31-.01 6 2.68 6 6 0 0 0 0 0 0Z"/><path d="M3 3l18 18"/><path d="M21 3L3 21"/></g></g></svg>