<?xml version="1.0" encoding="UTF-8"?><svg version="1.1" viewBox="0 0 24 24" xmlns="http://www.w3.org/2000/svg" xmlns:xlink="http://www.w3.org/1999/xlink"><g stroke-linecap="round" stroke-width="1.5" stroke="#323232" fill="none" stroke-linejoin="round"><path d="M15.5 7h-7.368 -4.94813e-08c-.625186 2.73278e-08-1.132.506814-1.132 1.132v7.736l1.06581e-14 1.21446e-07c9.44005e-08.625186.506814 1.132 1.132 1.132h7.736l-3.59823e-08 3.55271e-15c.625186-4.72003e-08 1.132-.506814 1.132-1.132v-4.052 0c0-.625186-.506814-1.132-1.132-1.132h-4.052 -4.94813e-08c-.625186 2.73278e-08-1.132.506814-1.132 1.132v.894l1.24345e-14 1.70927e-07c9.44005e-08.625186.506814 1.132 1.132 1.132h1.026"></path><path d="M17 21h-10l-1.74846e-07-3.55271e-15c-2.20914-9.65645e-08-4-1.79086-4-4 0 0 0 0 0 0v-10l4.61853e-14 6.03983e-07c-3.33571e-07-2.20914 1.79086-4 4-4h10l-1.74846e-07 3.55271e-15c2.20914-9.65645e-08 4 1.79086 4 4v10h3.55271e-15c0 2.20914-1.79086 4-4 4Z"></path><path d="M16 6.5l-2.18557e-08 8.88178e-16c-.276142 1.20706e-08-.5.223858-.5.5 1.20706e-08.276142.223858.5.5.5 .276142-1.20706e-08.5-.223858.5-.5v0c0-.276142-.223858-.5-.5-.5"></path><path d="M13.34 13.342h-2.18557e-08c-.276142 1.20706e-08-.5.223858-.5.5 1.20706e-08.276142.223858.5.5.5 .276142-1.20706e-08.5-.223858.5-.5v0c0-.276142-.223858-.5-.5-.5"></path></g><path fill="none" d="M0 24v-24h24v24Z"></path></svg>