<svg viewBox="0 0 24 24" xmlns="http://www.w3.org/2000/svg"><g fill="none"><path d="M0 0h24v24H0Z"/><g stroke-linecap="round" stroke-width="1.5" stroke="#323232" fill="none" stroke-linejoin="round"><path d="M5 9.32V6.44l-.001 0c0-.94.65-1.75 1.56-1.96l2-.45 -.01 0c1.07-.25 2.14.43 2.38 1.51 .03.14.04.28.04.43v3.32"/><path d="M14.87 7.12l-.01 0c-.07 0-.13.05-.13.12 0 .06.05.12.12.12 .06-.01.12-.06.12-.13 -.01-.07-.06-.13-.13-.13"/><path d="M20.87 3l-.01 0c-.07 0-.13.05-.13.12 0 .06.05.12.12.12 .06-.01.12-.06.12-.13l0 0c-.01-.07-.06-.13-.13-.13"/><path d="M20.87 7.12l-.01 0c-.07 0-.13.05-.13.12 0 .06.05.12.12.12 .06-.01.12-.06.12-.13l0 0c-.01-.07-.06-.13-.13-.13"/><path d="M20.87 11l-.01 0c-.07 0-.13.05-.13.12 0 .06.05.12.12.12 .06-.01.12-.06.12-.13l0 0c-.01-.07-.06-.13-.13-.13"/><path d="M17.87 5l-.01 0c-.07 0-.13.05-.13.12 0 .06.05.12.12.12 .06-.01.12-.06.12-.13l0 0c-.01-.07-.06-.13-.13-.13"/><path d="M17.87 9l-.01 0c-.07 0-.13.05-.13.12 0 .06.05.12.12.12 .06-.01.12-.06.12-.13l0 0c-.01-.07-.06-.13-.13-.13"/><path d="M13 11.38v7.61 0c0 1.1-.9 2-2 2H5l-.01-.001c-1.11-.01-2-.9-2-2.01 0 0 0 0 0 0l-.001-7.62 -.01 0c0-.91.61-1.71 1.48-1.94l-.01 0c2.3-.6 4.72-.6 7.02-.01l0 0c.87.23 1.48 1.03 1.48 1.93Z"/></g></g></svg>