<svg xmlns="http://www.w3.org/2000/svg" viewBox="0 0 24 24"><g id="Layer_2" data-name="Layer 2"><path d="M0,0H24V24H0Z" fill="none"/><path d="M21,21l.578-1.156A3.99769,3.99769,0,0,0,22,18.05569V11.5A1.5,1.5,0,0,0,20.5,10h0A1.5,1.5,0,0,0,19,11.5v4" fill="none" stroke="#323232" stroke-linecap="round" stroke-linejoin="round" stroke-width="1.5"/><path d="M14,21V18.08666a2,2,0,0,1,.4-1.2l1.67794-2.23727a1.62336,1.62336,0,0,1,2.44657-.17388h0a1.62335,1.62335,0,0,1,.15079,2.1219L17.62335,18" fill="none" stroke="#323232" stroke-linecap="round" stroke-linejoin="round" stroke-width="1.5"/><path d="M3,21l-.578-1.156A3.99769,3.99769,0,0,1,2,18.05569V11.5A1.5,1.5,0,0,1,3.5,10h0A1.5,1.5,0,0,1,5,11.5v4" fill="none" stroke="#323232" stroke-linecap="round" stroke-linejoin="round" stroke-width="1.5"/><path d="M10,21V18.08666a2,2,0,0,0-.4-1.2L7.92206,14.64939a1.62336,1.62336,0,0,0-2.44657-.17388h0a1.62335,1.62335,0,0,0-.15079,2.1219L6.37665,18" fill="none" stroke="#323232" stroke-linecap="round" stroke-linejoin="round" stroke-width="1.5"/><path d="M9.46048,9.84558h0a3.38885,3.38885,0,0,1,0-4.45627l1.78608-2.04679a1,1,0,0,1,1.50692,0L14.53956,5.3893a3.38883,3.38883,0,0,1,0,4.45626h0A3.37049,3.37049,0,0,1,9.46048,9.84558Z" fill="none" stroke="#323232" stroke-linecap="round" stroke-linejoin="round" stroke-width="1.5"/></g></svg>