<svg viewBox="0 0 24 24" xmlns="http://www.w3.org/2000/svg"><g fill="none"><path d="M0 0h24v24H0Z"/><g stroke-linecap="round" stroke-width="1.5" stroke="#323232" fill="none" stroke-linejoin="round"><path d="M6 21H4h-.01c-.56-.01-1-.45-1-1.01 0 0 0-.001 0-.001v-6l0 0c-.01-.56.44-1.01.99-1.01h2l-.01 0c.55-.01 1 .44 1 .99v6l0 0c0 .55-.45 1-1 1 -.01 0-.01 0-.01 0Z"/><path d="M13.12 17h2.333l-.01-.001c.43 0 .85-.15 1.2-.4l2.41-1.82 -.01 0c.6-.46 1.44-.4 1.98.14v0l0 0c.59.59.59 1.54 0 2.14 -.01 0-.01 0-.01 0l-.01 0 -2.08 2.07 -.01 0c-.56.55-1.27.93-2.05 1.09l-2.93.58 0-.01c-.59.11-1.19.1-1.76-.05l-2.65-.67 0 0c-.32-.08-.65-.13-.97-.13H6.91"/><path d="M13.12 17h1.48l-.01-.001c.83 0 1.51-.68 1.51-1.52 0 0 0-.001 0-.001v0 -.3l0-.01c0-.7-.48-1.31-1.15-1.47l-2.292-.58 0 0c-.38-.1-.76-.15-1.14-.15v0l0 0c-.93-.01-1.84.27-2.61.78l-1.95 1.29"/><path d="M14.21 6.28h-.375l-.01-.001c-.74-.01-1.34-.6-1.34-1.34 0-.01 0-.01 0-.01v0l-.001-.01c-.01-.74.59-1.34 1.33-1.34 0-.001 0 0 0 0h.375c1.18 0 2.14-.72 2.14-1.61l0-.001c1.18-.01 2.14.95 2.14 2.13s-.96 2.14-2.14 2.14c-.01 0-.01 0-.01-.001"/><path d="M17.28 10H13.7l-.01 0c-1.5 0-2.72-1.22-2.72-2.72 -.001-.01-.001-.01 0-.01v0l0 0c-.01-.56.44-1.01.99-1.01h7l-.01 0c.55-.01 1 .44 1 .99v0l0 0c0 1.49-1.22 2.71-2.72 2.71Z"/></g></g></svg>