<svg viewBox="0 0 24 24" xmlns="http://www.w3.org/2000/svg"><g stroke-linecap="round" stroke-width="1.5" stroke="#323232" fill="none" stroke-linejoin="round"><path d="M2 14l2.55-4.26 -.01 0c.29-.49.72-.89 1.23-1.14l.58-.3 0-.01c.41-.21.87-.32 1.34-.32h14.29"/><path d="M4 21l5.76-2.09 -.01 0c.8-.3 1.49-.84 1.96-1.55l2.99-4.49 -.01 0c.43-.66.34-1.53-.21-2.08v0l-.01-.01c-.65-.65-1.69-.65-2.33-.01l-2.2 2.18h-2"/><path d="M13.98 14h5.7l-.01 0c1.3-.03 2.33-1.1 2.31-2.4V7.4l0-.01c.02-1.31-1.02-2.38-2.32-2.4h-7.37l-.01 0c-1.31.02-2.34 1.09-2.32 2.4v0 5.6"/></g><path fill="none" d="M0 0h24v24H0Z"/></svg>