<?xml version="1.0" encoding="UTF-8"?><svg version="1.1" viewBox="0 0 24 24" xmlns="http://www.w3.org/2000/svg" xmlns:xlink="http://www.w3.org/1999/xlink"><g fill="none"><path d="M0 0h24v24h-24Z"></path><path stroke="#323232" stroke-linecap="round" stroke-linejoin="round" stroke-width="1.5" d="M6 21h-2 -4.37114e-08c-.552285-2.41411e-08-1-.447715-1-1 0 0 0-3.55271e-15 0-3.55271e-15v-6l1.15463e-14 1.50996e-07c-8.33927e-08-.552285.447715-1 1-1h2l-4.37114e-08 1.77636e-15c.552285-2.41411e-08 1 .447715 1 1v6l1.77636e-15 4.37114e-08c0 .552285-.447715 1-1 1 -1.35461e-08 0-3.01653e-08 0-4.37114e-08 0Z"></path><path stroke="#323232" stroke-linecap="round" stroke-linejoin="round" stroke-width="1.5" d="M13 17h2.333l-8.74228e-08-3.55271e-15c.43274 1.89157e-08.853808-.140356 1.2-.4l2.416-1.812 1.14261e-07-8.5735e-08c.603355-.452723 1.44785-.392615 1.981.141v0l4.68877e-08 4.68309e-08c.591221.590505.591801 1.54848.00129518 2.1397 -.000431496.000432019-.000863253.000863776-.00129527.00129527v0l-2.074 2.073 -1.82759e-08 1.82774e-08c-.558399.558447-1.26961.939105-2.044 1.094l-2.93.586 3.74233e-07-7.48139e-08c-.580893.116128-1.18033.101782-1.755-.0419997l-2.65-.662 3.39611e-07 8.51572e-08c-.316861-.0794527-.64233-.119423-.969001-.119001h-1.508"></path><path stroke="#323232" stroke-linecap="round" stroke-linejoin="round" stroke-width="1.5" d="M13 17h1.485l-6.62228e-08-3.55271e-15c.836711 3.65738e-08 1.515-.678289 1.515-1.515v0 -.3l7.88655e-09-.000154533c0-.69486-.472997-1.30051-1.14715-1.46888l-2.292-.574 2.03195e-07 5.11083e-08c-.372392-.0936654-.75486-.141342-1.13885-.141963v0l-1.81684e-07 1.23066e-11c-.927331 6.28309e-05-1.83384.274973-2.605.79l-1.817 1.21"></path><path stroke="#323232" stroke-linecap="round" stroke-linejoin="round" stroke-width="1.5" d="M16.73 4.458l3.2566e-09-5.9438e-09c.232999-.425259.766622-.581117 1.19188-.348118 .146864.0804663.267652.201255.348118.348119l.68 1.242 -3.42572e-08-6.23658e-08c.0810471.147548.202452.268953.35.35l1.243.679 5.21658e-08 2.84403e-08c.425259.231847.582051.764537.350204 1.1898 -.0806642.147956-.202248.269539-.350204.350204l-1.243.682 -8.34382e-08 4.51802e-08c-.147919.0800957-.269481.20131-.35.349l-.68 1.242 1.01535e-08-1.85318e-08c-.232999.425259-.766622.581117-1.19188.348119 -.146864-.0804663-.267652-.201255-.348119-.348118l-.68-1.242 -1.18436e-08-2.18913e-08c-.0801777-.148198-.201802-.269822-.35-.35l-1.242-.68 -1.19481e-07-6.514e-08c-.425259-.231847-.582051-.764537-.350203-1.1898 .0806642-.147956.202248-.269539.350204-.350204l1.242-.679 1.56941e-08-8.5802e-09c.14775-.0807772.269223-.20225.35-.35Z"></path><path stroke="#323232" stroke-linecap="round" stroke-linejoin="round" stroke-width="1.5" d="M7.95 3.326l1.2491e-08-2.26642e-08c.167411-.303757.549367-.414287.853124-.246876 .103973.0573029.189573.142903.246876.246876l.485.888 3.11715e-08 5.71158e-08c.0576265.105589.144411.192373.25.25l.888.485 9.34872e-09 5.11709e-09c.303757.166263.415217.54729.248953.851047 -.0575044.105058-.143895.191449-.248953.248953l-.888.486 -6.36789e-08 3.47534e-08c-.105589.0576265-.192373.144411-.25.25l-.485.887 -3.32479e-10 6.07428e-10c-.166263.303757-.54729.415217-.851047.248953 -.105058-.0575044-.191449-.143895-.248953-.248953l-.486-.888 -1.74253e-10-3.24066e-10c-.0570195-.106042-.143958-.192981-.25-.25l-.887-.485 8.13386e-09 4.45213e-09c-.303757-.166263-.415217-.54729-.248954-.851047 .0575044-.105058.143895-.191449.248953-.248953l.887-.485 3.63148e-08-1.9663e-08c.105831-.0573032.192697-.144169.25-.25Z"></path></g></svg>