<?xml version="1.0" encoding="UTF-8"?><svg version="1.1" viewBox="0 0 24 24" xmlns="http://www.w3.org/2000/svg" xmlns:xlink="http://www.w3.org/1999/xlink"><g fill="none"><path d="M0 0h24v24h-24Z"></path><path stroke="#323232" stroke-linecap="round" stroke-linejoin="round" stroke-width="1.5" d="M6 21h-2 -4.37114e-08c-.552285-2.41411e-08-1-.447715-1-1 0 0 0-3.55271e-15 0-3.55271e-15v-6l1.15463e-14 1.50996e-07c-8.33927e-08-.552285.447715-1 1-1h2l-4.37114e-08 1.77636e-15c.552285-2.41411e-08 1 .447715 1 1v6l1.77636e-15 4.37114e-08c0 .552285-.447715 1-1 1 -1.35461e-08 0-3.01653e-08 0-4.37114e-08 0Z"></path><path stroke="#323232" stroke-linecap="round" stroke-linejoin="round" stroke-width="1.5" d="M13.5 4v4.6"></path><path stroke="#323232" stroke-linecap="round" stroke-linejoin="round" stroke-width="1.5" d="M20 14v-3.96l3.64964e-08 1.05593e-05c-.00274733-.795708-.648277-1.43946-1.44399-1.44001h-10.112l-5.39503e-08 3.70139e-11c-.795713.000545933-1.44125.644292-1.444 1.44v5.06"></path><path stroke="#323232" stroke-linecap="round" stroke-linejoin="round" stroke-width="1.5" d="M7 14v-6.029l-7.62821e-08.000148469c.000190438-.390086.0790782-.776125.231942-1.13501l.791-1.85 -1.32529e-09 3.10302e-09c.255534-.598304.84347-.986365 1.49406-.986137h7.965l-6.47355e-08 2.08895e-10c.652555-.00210575 1.24315.386114 1.5.986l.791 1.852 3.58047e-08 8.4936e-08c.151405.359163.228618.745232.227 1.135v6.512"></path><path stroke="#323232" stroke-linecap="round" stroke-linejoin="round" stroke-width="1.5" d="M13 17h2.333l-8.74228e-08-3.55271e-15c.43274 1.89157e-08.853808-.140356 1.2-.4l2.416-1.812 -1.50537e-07 1.12843e-07c.603167-.452138 1.44699-.392048 1.98.141v0l4.54332e-08 4.53958e-08c.591497.591011.591891 1.54962.000880757 2.14112 -.000293495.000293737-.000587111.000587353-.000880848.000880848l-2.073 2.073 -1.82759e-08 1.82774e-08c-.558399.558447-1.26961.939105-2.044 1.094l-2.93.586 3.74233e-07-7.48139e-08c-.580893.116128-1.18033.101782-1.755-.0419997l-2.65-.662 -3.53023e-09-8.89781e-10c-.316808-.0798502-.642285-.120157-.969001-.12h-1.508"></path><path stroke="#323232" stroke-linecap="round" stroke-linejoin="round" stroke-width="1.5" d="M13 17h1.485l-6.62228e-08-3.55271e-15c.836711 3.65738e-08 1.515-.678289 1.515-1.515v-.3l7.88655e-09-.000154533c0-.69486-.472997-1.30051-1.14715-1.46888l-2.292-.573 6.00931e-08 1.51626e-08c-.372359-.0939529-.75482-.141964-1.13885-.142963v0l7.64187e-08 2.41638e-11c-.927236-.000293209-1.83375.274272-2.605.789l-1.817 1.211"></path></g></svg>