<svg viewBox="0 0 24 24" xmlns="http://www.w3.org/2000/svg"><g stroke-linecap="round" stroke-width="1.5" stroke="#323232" fill="none" stroke-linejoin="round"><path d="M3.5 5.5l2.082 5.76 -.01-.01c.29.8.83 1.49 1.54 1.96l4.48 2.99 0 0c.65.43 1.52.34 2.07-.21v0l-.01 0c.64-.65.64-1.69 0-2.33l-2.19-2.2v-2"/><path d="M10.5 3.5l4.25 2.55 0 0c.48.29.88.72 1.13 1.23l.29.58 0 0c.2.41.31.87.31 1.34v2.29"/><path d="M11.5 11.5H18l-.01 0c1.38-.01 2.5 1.11 2.5 2.49v4l0 0c0 1.38-1.12 2.5-2.5 2.5 -.01 0-.01 0-.01-.001h-9 -.01c-1.39-.01-2.5-1.12-2.5-2.51v-5.29"/></g><path fill="none" d="M0 0h24v24H0Z"/></svg>