<svg viewBox="0 0 24 24" xmlns="http://www.w3.org/2000/svg"><g fill="none"><path d="M0 0h24v24H0Z"/><g stroke-linecap="round" stroke-width="1.5" stroke="#323232" fill="none" stroke-linejoin="round"><path d="M2 13l2.55-4.26 -.01 0c.29-.49.72-.89 1.23-1.14l.58-.3 0-.01c.41-.21.87-.32 1.34-.32h3.13"/><path d="M13.23 14.14l0 0c.96.31 2 .3 2.96-.03l2.59 2.58 -.01-.01c.18.18.43.28.7.29h1.49l0-.001c.55-.01.99-.45 1-1v-1.51l0-.01c0-.27-.11-.53-.3-.71l-2.6-2.58 0-.01c.16-.47.25-.96.25-1.45l0-.01c.04-2.59-2.02-4.72-4.61-4.76 -.01-.01-.01-.01-.01-.01l-.01-.001C12.1 4.9 10 6.95 9.92 9.51l-.01 0c-.02.68.12 1.35.41 1.97"/><path d="M4 20l5.76-2.09 -.01 0c.8-.3 1.49-.84 1.96-1.55l2.99-4.49 0-.01c.43-.66.34-1.53-.21-2.08v0l-.01-.01c-.65-.65-1.69-.65-2.33-.01l-2.2 2.18h-2"/></g></g></svg>