<?xml version="1.0" encoding="UTF-8"?><svg version="1.1" viewBox="0 0 24 24" xmlns="http://www.w3.org/2000/svg" xmlns:xlink="http://www.w3.org/1999/xlink"><!--Generated by IJSVG (https://github.com/iconjar/IJSVG)--><g fill="none"><path d="M0,0h24v24h-24Z"></path><path stroke="#323232" stroke-linecap="round" stroke-linejoin="round" stroke-width="1.5" d="M13.554,7.833v-4.333c0,-0.828 -0.672,-1.5 -1.5,-1.5v0c-0.828,0 -1.5,0.672 -1.5,1.5v7.333"></path><path stroke="#323232" stroke-linecap="round" stroke-linejoin="round" stroke-width="1.5" d="M16.554,9v-3.5c0,-0.828 -0.672,-1.5 -1.5,-1.5c0,0 0,0 0,0c-0.828,0 -1.5,0.672 -1.5,1.5"></path><path stroke="#323232" stroke-linecap="round" stroke-linejoin="round" stroke-width="1.5" d="M20.55,5l-16.5,16.5"></path><path stroke="#323232" stroke-linecap="round" stroke-linejoin="round" stroke-width="1.5" d="M6.554,19c0,0 0.219,0.328 0.219,0.328c1.113,1.669 2.986,2.672 4.992,2.672h1.789c3.314,0 6,-2.686 6,-6v-6"></path><path stroke="#323232" stroke-linecap="round" stroke-linejoin="round" stroke-width="1.5" d="M4.954,16.6l-1.693,-2.54c-0.411,-0.616 -0.33,-1.437 0.194,-1.961c0.607,-0.607 1.591,-0.607 2.198,0l1.901,1.901v-8.5c0,-0.828 0.672,-1.5 1.5,-1.5v0c0.828,0 1.5,0.672 1.5,1.5"></path></g></svg>