<?xml version="1.0" encoding="UTF-8"?><svg version="1.1" viewBox="0 0 24 24" xmlns="http://www.w3.org/2000/svg" xmlns:xlink="http://www.w3.org/1999/xlink"><g stroke-linecap="round" stroke-width="1.5" stroke="#323232" fill="none" stroke-linejoin="round"><path d="M2 14l2.55054-4.25089 -1.73483e-07 2.89142e-07c.293544-.489245.720515-.884639 1.23083-1.1398l.58519-.29259 1.07711e-08-5.3855e-09c.416567-.208281.875905-.316717 1.34164-.31672h2.2918"></path><path d="M4 21l5.76187-2.082 -1.52802e-07 5.5214e-08c.804204-.290594 1.49412-.831254 1.96854-1.54267l2.99287-4.48795 -4.60952e-08 6.91213e-08c.435302-.652751.349292-1.52202-.20549-2.07681v0l-2.94566e-08-2.94563e-08c-.642614-.642608-1.68446-.642711-2.3272-.000229941l-2.19059 2.18966h-2"></path><path d="M13.9813 14h5.70291l-9.23093e-08 1.6769e-09c1.30206-.0236533 2.33864-1.09793 2.31579-2.4v-4.2l7.03824e-08-4.01106e-06c.0228464-1.30207-1.01374-2.37634-2.31579-2.4h-7.36842l-1.15165e-07 2.09211e-09c-1.30206.0236534-2.33864 1.09793-2.31579 2.4v0 5.6"></path></g><rect width="24" height="24" fill="none"></rect></svg>