<?xml version="1.0" encoding="UTF-8"?><svg version="1.1" viewBox="0 0 24 24" xmlns="http://www.w3.org/2000/svg" xmlns:xlink="http://www.w3.org/1999/xlink"><!--Generated by IJSVG (https://github.com/iconjar/IJSVG)--><g stroke-linecap="round" stroke-width="1.5" stroke="#323232" fill="none" stroke-linejoin="round"><path d="M12,14h3.5c0.828,0 1.5,-0.672 1.5,-1.5v0c0,-0.828 -0.672,-1.5 -1.5,-1.5"></path><path d="M14.5,14c0.828,0 1.5,0.672 1.5,1.5v0c0,0.828 -0.672,1.5 -1.5,1.5h-3.5"></path><path d="M10,8l1.884,-1.884c0.616,-0.616 0.616,-1.616 0,-2.232v0c-0.514,-0.514 -1.319,-0.594 -1.924,-0.191l-4.769,3.18c-1.994,1.329 -3.191,3.566 -3.191,5.962v0c0,3.957 3.208,7.165 7.165,7.165h2.835h1.5c0.828,0 1.5,-0.672 1.5,-1.5v0c0,-0.828 -0.672,-1.5 -1.5,-1.5"></path><path d="M10,8h10.5c0.828,0 1.5,0.672 1.5,1.5v0c0,0.828 -0.672,1.5 -1.5,1.5h-8.5"></path></g><path fill="none" d="M0,0h24v24h-24Z" transform="matrix(-1.83697e-16,1,-1,-1.83697e-16,24,1.77636e-15)"></path></svg>