<svg id="Layer_3" data-name="Layer 3" xmlns="http://www.w3.org/2000/svg" viewBox="0 0 24 24"><path d="M9,9v2l2.1897,2.19055a1.64575,1.64575,0,0,1-2.077,2.53272l-4.488-2.99286A3.9998,3.9998,0,0,1,3.082,10.76184L2,7.7674" fill="none" stroke="#323232" stroke-linecap="round" stroke-linejoin="round" stroke-width="1.5"/><path d="M8,3l4.25089,2.55054a3,3,0,0,1,1.1398,1.23084l.29259.58519A3,3,0,0,1,14,8.70821V10" fill="none" stroke="#323232" stroke-linecap="round" stroke-linejoin="round" stroke-width="1.5"/><path d="M20.5,14V13a3,3,0,0,0-3-3H9" fill="none" stroke="#323232" stroke-linecap="round" stroke-linejoin="round" stroke-width="1.5"/><path d="M14,20.5H9a3,3,0,0,1-3-3V13.64755" fill="none" stroke="#323232" stroke-linecap="round" stroke-linejoin="round" stroke-width="1.5"/><path d="M20.9988,18,18,21" fill="none" stroke="#323232" stroke-linecap="round" stroke-linejoin="round" stroke-width="1.5"/><path d="M18.0012,18,21,21" fill="none" stroke="#323232" stroke-linecap="round" stroke-linejoin="round" stroke-width="1.5"/><path d="M0,0H24V24H0Z" fill="none"/></svg>