<svg id="Layer_3" data-name="Layer 3" xmlns="http://www.w3.org/2000/svg" viewBox="0 0 24 24"><rect width="24" height="24" fill="none"/><path d="M3,16l2.55054-4.25089a3,3,0,0,1,1.23084-1.1398l.58519-.29259A3,3,0,0,1,8.70821,10H10" fill="none" stroke="#323232" stroke-linecap="round" stroke-linejoin="round" stroke-width="1.5"/><path d="M15,3.5H13a3,3,0,0,0-3,3V15" fill="none" stroke="#323232" stroke-linecap="round" stroke-linejoin="round" stroke-width="1.5"/><path d="M20.5,9v7a3,3,0,0,1-3,3H13" fill="none" stroke="#323232" stroke-linecap="round" stroke-linejoin="round" stroke-width="1.5"/><path d="M18.0012,6,21,3" fill="none" stroke="#323232" stroke-linecap="round" stroke-linejoin="round" stroke-width="1.5"/><path d="M20.9988,6,18,3" fill="none" stroke="#323232" stroke-linecap="round" stroke-linejoin="round" stroke-width="1.5"/><path d="M8,22l2.80844-1.07381a4,4,0,0,0,1.89934-1.51694l3.0155-4.52189a1.64575,1.64575,0,0,0-.20549-2.07681h0a1.64575,1.64575,0,0,0-2.3272-.00023L11,15H9" fill="none" stroke="#323232" stroke-linecap="round" stroke-linejoin="round" stroke-width="1.5"/></svg>