<svg id="Layer_3" data-name="Layer 3" xmlns="http://www.w3.org/2000/svg" viewBox="0 0 24 24"><path d="M0,0H24V24H0Z" fill="none"/><path d="M21,21l.578-1.156A3.99769,3.99769,0,0,0,22,18.05569V11.5A1.5,1.5,0,0,0,20.5,10h0A1.5,1.5,0,0,0,19,11.5v4" fill="none" stroke="#323232" stroke-linecap="round" stroke-linejoin="round" stroke-width="1.5"/><path d="M14,21V18.08666a2,2,0,0,1,.4-1.2l1.67794-2.23727a1.62336,1.62336,0,0,1,2.44657-.17388h0a1.62335,1.62335,0,0,1,.15079,2.1219L17.62335,18" fill="none" stroke="#323232" stroke-linecap="round" stroke-linejoin="round" stroke-width="1.5"/><path d="M3,21l-.578-1.156A3.99769,3.99769,0,0,1,2,18.05569V11.5A1.5,1.5,0,0,1,3.5,10h0A1.5,1.5,0,0,1,5,11.5v4" fill="none" stroke="#323232" stroke-linecap="round" stroke-linejoin="round" stroke-width="1.5"/><path d="M10,21V18.08666a2,2,0,0,0-.4-1.2L7.92206,14.64939a1.62336,1.62336,0,0,0-2.44657-.17388h0a1.62335,1.62335,0,0,0-.15079,2.1219L6.37665,18" fill="none" stroke="#323232" stroke-linecap="round" stroke-linejoin="round" stroke-width="1.5"/><path d="M11.47046,11.94757h0A4.93909,4.93909,0,0,1,7.5,7.1044V5.5A2.5,2.5,0,0,1,10,3h4a2.5,2.5,0,0,1,2.5,2.5V7.10438a4.93908,4.93908,0,0,1-3.97035,4.84315l-.00011,0A2.70006,2.70006,0,0,1,11.47046,11.94757Z" fill="none" stroke="#323232" stroke-linecap="round" stroke-linejoin="round" stroke-width="1.5"/></svg>