<?xml version="1.0" encoding="UTF-8"?><svg version="1.1" viewBox="0 0 24 24" xmlns="http://www.w3.org/2000/svg" xmlns:xlink="http://www.w3.org/1999/xlink"><!--Generated by IJSVG (https://github.com/iconjar/IJSVG)--><g stroke-linecap="round" stroke-width="1.5" stroke="#323232" fill="none" stroke-linejoin="round"><path d="M13.5,8.5v-3.5c0,-0.828 -0.672,-1.5 -1.5,-1.5v0c-0.828,0 -1.5,0.672 -1.5,1.5v3.5"></path><path d="M13.5,6c0,-0.828 0.672,-1.5 1.5,-1.5v0c0.828,0 1.5,0.672 1.5,1.5v4.5"></path><path d="M7.5,11.5v-5.5c0,-0.828 0.672,-1.5 1.5,-1.5v0c0.828,0 1.5,0.672 1.5,1.5"></path><path d="M7.5,9.5h-1.293c-0.453,0 -0.887,0.18 -1.207,0.5v0c-0.32,0.32 -0.5,0.754 -0.5,1.207v3.293c0,3.314 2.686,6 6,6h3c3.314,0 6,-2.686 6,-6v-3.5v-3c0,-0.828 -0.672,-1.5 -1.5,-1.5v0c-0.828,0 -1.5,0.672 -1.5,1.5"></path></g><path fill="none" d="M0,0h24v24h-24Z"></path></svg>