<?xml version="1.0" encoding="UTF-8"?><svg version="1.1" viewBox="0 0 24 24" xmlns="http://www.w3.org/2000/svg" xmlns:xlink="http://www.w3.org/1999/xlink"><g transform="matrix(1 0 0 1 24 0)"><rect width="24" height="24" fill="none" transform="matrix(6.12323e-17 1 -1 6.12323e-17 0 0)"></rect></g><g stroke-linecap="round" stroke-width="1.5" stroke="#323232" fill="none" stroke-linejoin="round"><path d="M11 4l4.25089 2.55054 1.2997e-07 7.79808e-08c.489245.293544.884638.720515 1.1398 1.23083l.29259.58519 -7.45832e-08-1.49168e-07c.208281.416567.316717.875905.31672 1.34164v1.70871"></path><path d="M10.0648 15.3577l9.1432e-08-5.4571e-07c-.0355978.212464-.0572308.427034-.06476.642328l-1.23503e-08 1.41721e-06c-.0242755 2.7857 2.2143 5.06364 5 5.08791 2.7857.0242755 5.06364-2.2143 5.08791-5 .0242755-2.7857-2.2143-5.06364-5-5.08791 -1.10858-.00966053-2.18947.346164-3.07552 1.01245"></path><path d="M4 6l2.082 5.76187 -1.14633e-07-3.17242e-07c.290594.804204.831254 1.49412 1.54267 1.96854l4.488 2.99287 -4.736e-08-3.15831e-08c.652751.435302 1.52202.349292 2.07681-.20549v0l-2.14113e-08 2.14116e-08c.642608-.642614.642711-1.68446.000230043-2.3272l-2.18971-2.19059v-2"></path></g></svg>