<svg id="Layer_3" data-name="Layer 3" xmlns="http://www.w3.org/2000/svg" viewBox="0 0 24 24"><path d="M0,24V0H24V24Z" fill="none"/><line x1="4" y1="7.00001" x2="4" y2="17.00001" fill="none" stroke="#323232" stroke-linecap="round" stroke-linejoin="round" stroke-width="1.5"/><line x1="20" y1="17.00001" x2="20" y2="7.00001" fill="none" stroke="#323232" stroke-linecap="round" stroke-linejoin="round" stroke-width="1.5"/><line x1="20" y1="10.50001" x2="17" y2="10.50001" fill="none" stroke="#323232" stroke-linecap="round" stroke-linejoin="round" stroke-width="1.5"/><line x1="20" y1="13.50001" x2="17" y2="13.50001" fill="none" stroke="#323232" stroke-linecap="round" stroke-linejoin="round" stroke-width="1.5"/><line x1="17" y1="10.50001" x2="20" y2="10.50001" fill="none" stroke="#323232" stroke-linecap="round" stroke-linejoin="round" stroke-width="1.5"/><line x1="17" y1="13.50001" x2="20" y2="13.50001" fill="none" stroke="#323232" stroke-linecap="round" stroke-linejoin="round" stroke-width="1.5"/><path d="M21,19V17H17V7h4V5a2,2,0,0,0-2-2H5A2,2,0,0,0,3,5V7H7V17H3v2a2,2,0,0,0,2,2H19A2,2,0,0,0,21,19Z" fill="none" stroke="#323232" stroke-linecap="round" stroke-linejoin="round" stroke-width="1.5"/><line x1="7" y1="13.50001" x2="4" y2="13.50001" fill="none" stroke="#323232" stroke-linecap="round" stroke-linejoin="round" stroke-width="1.5"/><line x1="7" y1="10.50001" x2="4" y2="10.50001" fill="none" stroke="#323232" stroke-linecap="round" stroke-linejoin="round" stroke-width="1.5"/></svg>