<?xml version="1.0" encoding="UTF-8"?><svg version="1.1" viewBox="0 0 24 24" xmlns="http://www.w3.org/2000/svg" xmlns:xlink="http://www.w3.org/1999/xlink"><g stroke-linecap="round" stroke-width="1.5" stroke="#323232" fill="none" stroke-linejoin="round"><rect width="16" height="20" x="4" y="2" rx="1.10456" ry="0"></rect><path d="M8.72 13.77l3.34181e-07 2.89503e-07c-2.0887-1.80945-2.31507-4.96953-.50562-7.05823 1.80945-2.0887 4.96953-2.31507 7.05823-.50562 2.0887 1.80945 2.31507 4.96953.50562 7.05823 -.919897 1.06186-2.24382 1.68808-3.64823 1.72562"></path><path d="M12.3458 11.1753v0l9.74277e-08 5.62529e-08c.545158.314764.78885.973152.58 1.567l-1.67131 4.75166 7.80036e-08-2.21789e-07c-.41272 1.17349-1.6986 1.79022-2.87209 1.3775 -.131446-.0462299-.258319-.104558-.378987-.174233v0l-3.10566e-07-1.79326e-07c-1.07744-.622133-1.44654-1.99991-.824412-3.07735 .0696032-.120542.150229-.234374.240842-.340036l3.279-3.82328 -4.00899e-08 4.67492e-08c.409782-.47785 1.10182-.596033 1.64696-.28126Z"></path><line x1="14" x2="17" y1="19" y2="19"></line></g><path fill="none" d="M0 0h24v24h-24Z"></path></svg>