<svg id="Layer_3" data-name="Layer 3" xmlns="http://www.w3.org/2000/svg" viewBox="0 0 24 24"><path d="M0,24V0H24V24Z" fill="none"/><path d="M2.17477,12.12613l1.3429-6.71448A3,3,0,0,1,6.45941,3H17.54059a3,3,0,0,1,2.94174,2.41165l1.3429,6.71448A9.00017,9.00017,0,0,1,22,13.89118V18a3,3,0,0,1-3,3H5a3,3,0,0,1-3-3V13.89118A9.00017,9.00017,0,0,1,2.17477,12.12613Z" fill="none" stroke="#323232" stroke-linecap="round" stroke-linejoin="round" stroke-width="1.5"/><path d="M4,13H20a2,2,0,0,1,2,2v3a3,3,0,0,1-3,3H5a3,3,0,0,1-3-3V15A2,2,0,0,1,4,13Z" fill="none" stroke="#323232" stroke-linecap="round" stroke-linejoin="round" stroke-width="1.5"/><line x1="12" y1="17" x2="6" y2="17" fill="none" stroke="#323232" stroke-linecap="round" stroke-linejoin="round" stroke-width="1.5"/><path d="M15,16.9999l.005,0L15,17l-.005-.00005.005,0" fill="none" stroke="#323232" stroke-linecap="round" stroke-linejoin="round" stroke-width="1.5"/><path d="M18,16.99995,18.005,17,18,17.00005,17.995,17,18,16.99995" fill="none" stroke="#323232" stroke-linecap="round" stroke-linejoin="round" stroke-width="1.5"/></svg>