<?xml version="1.0" encoding="UTF-8"?><svg version="1.1" viewBox="0 0 24 24" xmlns="http://www.w3.org/2000/svg" xmlns:xlink="http://www.w3.org/1999/xlink"><g stroke-linecap="round" stroke-width="1.5" stroke="#323232" fill="none" stroke-linejoin="round"><path d="M21 17v-5c0-4.971-4.029-9-9-9v0c-4.971 0-9 4.029-9 9v5"></path><path d="M7.5 20h-.5c-.828 0-1.5-.672-1.5-1.5v-4c0-.828.672-1.5 1.5-1.5h.5c.552 0 1 .448 1 1v5c0 .552-.448 1-1 1Z"></path><path d="M17 20h-.5c-.552 0-1-.448-1-1v-5c0-.552.448-1 1-1h.5c.828 0 1.5.672 1.5 1.5v4c0 .828-.672 1.5-1.5 1.5Z"></path></g><path fill="none" d="M0 0h24v24h-24v-24Z"></path></svg>