<?xml version="1.0" encoding="UTF-8"?><svg version="1.1" viewBox="0 0 24 24" xmlns="http://www.w3.org/2000/svg" xmlns:xlink="http://www.w3.org/1999/xlink"><!--Generated by IJSVG (https://github.com/iconjar/IJSVG)--><g stroke-linecap="round" stroke-width="1.5" stroke="#323232" fill="none" stroke-linejoin="round"><path d="M12,3v0c-4.952,0 -9.004,4.052 -9.004,9.004v0c0,0 0,2.311 0,2.311"></path><path d="M12,3v0c4.952,0 9.004,4.052 9.004,9.004v0c0,0 0,2.311 0,2.311"></path><path d="M17.547,21h1.457c1.105,0 2,-0.895 2,-2v-4.686h-3.457c-0.552,0 -1,0.448 -1,1v4.686c0,0.552 0.447,1 1,1Z"></path><path d="M6.453,21h-1.457c-1.105,0 -2,-0.895 -2,-2v-4.686h3.457c0.552,0 1,0.448 1,1v4.686c0,0.552 -0.447,1 -1,1Z"></path></g><path fill="none" d="M0,0h24v24h-24Z"></path></svg>