<svg id="Layer_3" data-name="Layer 3" xmlns="http://www.w3.org/2000/svg" viewBox="0 0 24 24"><path d="M21,12a9,9,0,0,1-9,9" fill="none" stroke="#323232" stroke-linecap="round" stroke-linejoin="round" stroke-width="1.5"/><path d="M3,12a9,9,0,0,1,9-9" fill="none" stroke="#323232" stroke-linecap="round" stroke-linejoin="round" stroke-width="1.5"/><path d="M3,12a8.89678,8.89678,0,0,0,.55376,3.08859,1.01031,1.01031,0,0,0,1.1211.64943l.98619-.1739A1.5,1.5,0,0,0,6.8855,13.87478l-.29682-2.07772A1.5,1.5,0,0,0,4.84329,10.532l-1.76059.31043" fill="none" stroke="#323232" stroke-linecap="round" stroke-linejoin="round" stroke-width="1.5"/><path d="M21,12a9,9,0,0,0-9-9" fill="none" stroke="#323232" stroke-linecap="round" stroke-linejoin="round" stroke-width="1.5"/><path d="M21,12a8.89678,8.89678,0,0,1-.55376,3.08859,1.01031,1.01031,0,0,1-1.1211.64943l-.98619-.1739a1.5,1.5,0,0,1-1.22445-1.68934l.29682-2.07772A1.5,1.5,0,0,1,19.15671,10.532l1.76059.31043" fill="none" stroke="#323232" stroke-linecap="round" stroke-linejoin="round" stroke-width="1.5"/><path d="M13.49254,12.491a.00747.00747,0,1,0,.00746.00747.00705.00705,0,0,0-.00746-.00747" fill="none" stroke="#323232" stroke-linecap="round" stroke-linejoin="round" stroke-width="1.5"/><path d="M10.50746,12.494a.00747.00747,0,1,0,.00747.00746.007.007,0,0,0-.00747-.00746" fill="none" stroke="#323232" stroke-linecap="round" stroke-linejoin="round" stroke-width="1.5"/><path d="M0,0H24V24H0Z" fill="none"/></svg>