<svg id="Layer_3" data-name="Layer 3" xmlns="http://www.w3.org/2000/svg" viewBox="0 0 24 24"><rect width="24" height="24" transform="translate(24 24) rotate(-180)" fill="none"/><path d="M15.0657,19.125,16.47852,14.875a1.27785,1.27785,0,0,1,1.52333-.8364l.42648.10691A2.57622,2.57622,0,0,1,20.2466,17.457l-.59132,1.7789a2.57621,2.57621,0,0,1-3.07114,1.68623l-.61661-.15458A1.2778,1.2778,0,0,1,15.0657,19.125Z" fill="none" stroke="#323232" stroke-linecap="round" stroke-linejoin="round" stroke-width="1.5"/><path d="M18.67232,7.82769a1.26258,1.26258,0,0,1-1.73476.02768,7.49759,7.49759,0,0,0-9.875,0,1.26232,1.26232,0,0,1-1.73459-.02741l-.296-.296a1.26336,1.26336,0,0,1-.02257-1.85377,10.46279,10.46279,0,0,1,13.9813,0,1.24587,1.24587,0,0,1,.02929,1.80195Z" fill="none" stroke="#323232" stroke-linecap="round" stroke-linejoin="round" stroke-width="1.5"/><path d="M8.9343,19.125,7.52148,14.875a1.27785,1.27785,0,0,0-1.52333-.8364l-.42648.10691A2.57622,2.57622,0,0,0,3.7534,17.457l.59132,1.7789a2.57621,2.57621,0,0,0,3.07114,1.68623l.61661-.15458A1.2778,1.2778,0,0,0,8.9343,19.125Z" fill="none" stroke="#323232" stroke-linecap="round" stroke-linejoin="round" stroke-width="1.5"/><path d="M19.65527,19.2359l.65375-1.96667A13.53513,13.53513,0,0,0,21,13a8.95356,8.95356,0,0,0-1.94348-5.5755" fill="none" stroke="#323232" stroke-linecap="round" stroke-linejoin="round" stroke-width="1.5"/><path d="M4.95148,7.41382A8.95427,8.95427,0,0,0,3,13a13.53513,13.53513,0,0,0,.691,4.26923l.65375,1.96667" fill="none" stroke="#323232" stroke-linecap="round" stroke-linejoin="round" stroke-width="1.5"/></svg>