<?xml version="1.0" encoding="UTF-8"?><svg version="1.1" viewBox="0 0 24 24" xmlns="http://www.w3.org/2000/svg" xmlns:xlink="http://www.w3.org/1999/xlink"><!--Generated by IJSVG (https://github.com/iconjar/IJSVG)--><g stroke-linecap="round" stroke-width="1.5" stroke="#323232" fill="none" stroke-linejoin="round"><path d="M15.531,14.276h-0.813c-0.223,0 -0.427,0.126 -0.526,0.325l-0.751,1.502c-0.108,0.217 -0.418,0.217 -0.526,0l-1.837,-3.675c-0.107,-0.213 -0.409,-0.218 -0.522,-0.008l-0.836,1.547c-0.103,0.19 -0.302,0.309 -0.518,0.309h-0.733"></path><path d="M4.919,12h-0.918c-1.282,0 -2.233,1.19 -1.951,2.44l0.677,3c0.206,0.912 1.016,1.56 1.951,1.56h1.196c0.321,0 0.558,-0.297 0.488,-0.61l-1.292,-5.721c-1.003,-4.443 2.375,-8.669 6.93,-8.669v0v0c4.555,0 7.933,4.226 6.93,8.669l-1.291,5.721c-0.071,0.313 0.167,0.61 0.487,0.61h1.196c0.935,0 1.745,-0.648 1.951,-1.56l0.677,-3c0.282,-1.25 -0.669,-2.44 -1.951,-2.44h-0.918"></path></g><path fill="none" d="M0,0h24v24h-24v-24Z"></path></svg>