<?xml version="1.0" encoding="UTF-8"?><svg version="1.1" viewBox="0 0 24 24" xmlns="http://www.w3.org/2000/svg" xmlns:xlink="http://www.w3.org/1999/xlink"><!--Generated by IJSVG (https://github.com/iconjar/IJSVG)--><g stroke-linecap="round" stroke-width="1.5" stroke="#323232" fill="none" stroke-linejoin="round"><path d="M19,17h-1c-0.552,0 -1,-0.448 -1,-1v-5c0,-0.552 0.448,-1 1,-1h1c1.105,0 2,0.895 2,2v3c0,1.105 -0.895,2 -2,2Z"></path><path d="M6,17h-1c-1.105,0 -2,-0.895 -2,-2v-3c0,-1.105 0.895,-2 2,-2h1c0.552,0 1,0.448 1,1v5c0,0.552 -0.448,1 -1,1Z"></path><path d="M18.5,10v-0.5c0,-3.59 -2.91,-6.5 -6.5,-6.5v0c-3.59,0 -6.5,2.91 -6.5,6.5v0.5"></path><path d="M12.625,21.25h-1.25c-0.69,0 -1.25,-0.56 -1.25,-1.25v0c0,-0.69 0.56,-1.25 1.25,-1.25h1.25c0.69,0 1.25,0.56 1.25,1.25v0c0,0.69 -0.56,1.25 -1.25,1.25Z"></path><path d="M13.875,20h2.125c1.105,0 2,-0.895 2,-2v-1"></path></g><path fill="none" d="M0,0h24v24h-24Z"></path></svg>