<svg id="Layer_3" data-name="Layer 3" xmlns="http://www.w3.org/2000/svg" viewBox="0 0 24 24"><path d="M17.365,5.635a.50023.50023,0,0,0-.02684-.738,8.45951,8.45951,0,0,0-10.6764,0,.50023.50023,0,0,0-.02684.738L7.70014,6.70014a.50381.50381,0,0,0,.66728.03194,5.971,5.971,0,0,1,7.26516,0,.50381.50381,0,0,0,.66727-.03194Z" fill="none" stroke="#323232" stroke-linecap="round" stroke-linejoin="round" stroke-width="1.5"/><path d="M5.32408,14.56359H6.78391a3.40622,3.40622,0,0,1,3.40622,3.40622v0a1.94642,1.94642,0,0,1-1.94642,1.94642H3.86428a1.94642,1.94642,0,0,1-1.94642-1.94642v0a3.40622,3.40622,0,0,1,3.40622-3.40622Z" transform="translate(-7.01214 30.01259) rotate(-115)" fill="none" stroke="#323232" stroke-linecap="round" stroke-linejoin="round" stroke-width="1.5"/><path d="M15.75629,14.56359h4.37944A1.94642,1.94642,0,0,1,22.08214,16.51v0a3.40622,3.40622,0,0,1-3.40622,3.40622H17.21609A3.40622,3.40622,0,0,1,13.80987,16.51v0a1.94642,1.94642,0,0,1,1.94642-1.94642Z" transform="translate(-5.26297 26.21861) rotate(-65)" fill="none" stroke="#323232" stroke-linecap="round" stroke-linejoin="round" stroke-width="1.5"/><path d="M20.12665,13.99341a8.5,8.5,0,1,0-16.2533,0" fill="none" stroke="#323232" stroke-linecap="round" stroke-linejoin="round" stroke-width="1.5"/><rect width="24" height="24" fill="none"/></svg>