<svg id="Layer_3" data-name="Layer 3" xmlns="http://www.w3.org/2000/svg" viewBox="0 0 24 24"><path d="M20.74091,11A7.35768,7.35768,0,0,0,21,9.13068,5.04192,5.04192,0,0,0,15.87329,4,4.62052,4.62052,0,0,0,12,5.92181,4.62052,4.62052,0,0,0,8.12671,4,5.04192,5.04192,0,0,0,3,9.13068a9.60216,9.60216,0,0,0,2.53583,6.04889A16.24606,16.24606,0,0,0,9.8432,18.7171,4.16777,4.16777,0,0,0,11,19.158" fill="none" stroke="#323232" stroke-linecap="round" stroke-linejoin="round" stroke-width="1.5"/><path d="M17.74968,17h0a3,3,0,0,1,3,3v0a1,1,0,0,1-1,1h-4a1,1,0,0,1-1-1v0A3,3,0,0,1,17.74968,17Z" fill="none" stroke="#323232" stroke-linecap="round" stroke-linejoin="round" stroke-width="1.5"/><path d="M18,14.00032a.25.25,0,1,1-.25032-.25031A.25.25,0,0,1,18,14.00032" fill="none" stroke="#323232" stroke-linecap="round" stroke-linejoin="round" stroke-width="1.5"/><path d="M21,15.00032a.25.25,0,1,1-.25032-.25031A.25.25,0,0,1,21,15.00032" fill="none" stroke="#323232" stroke-linecap="round" stroke-linejoin="round" stroke-width="1.5"/><path d="M15,15.00032a.25.25,0,1,1-.25032-.25031A.25.25,0,0,1,15,15.00032" fill="none" stroke="#323232" stroke-linecap="round" stroke-linejoin="round" stroke-width="1.5"/><path d="M0,0H24V24H0Z" fill="none"/></svg>