<?xml version="1.0" encoding="UTF-8"?><svg version="1.1" viewBox="0 0 24 24" xmlns="http://www.w3.org/2000/svg" xmlns:xlink="http://www.w3.org/1999/xlink"><g fill="none"><path d="M0 0h24v24h-24Z"></path><path stroke="#323232" stroke-linecap="round" stroke-linejoin="round" stroke-width="1.5" d="M15.006 4.765l2.62659e-07 1.1948e-07c-4.28465-1.94904-9.33806-.0556529-11.2871 4.229 -1.94904 4.28465-.0556529 9.33806 4.229 11.2871 4.28465 1.94904 9.33806.0556529 11.2871-4.229 1.01993-2.24216 1.01993-4.81594-2.4364e-07-7.0581"></path><path stroke="#323232" stroke-linecap="round" stroke-linejoin="round" stroke-width="1.5" d="M12.69 15.533l3.52675e-09-3.50826e-09c-.322511.32082-.759096.500632-1.214.5v0l7.6951e-08-1.06954e-10c-.454904.000632288-.891489-.17918-1.214-.5l-2.056-2.056 -9.09868e-09-9.09868e-09c-.842787-.842787-.842787-2.20921 1.81974e-08-3.052 .842787-.842787 2.20921-.842787 3.052 1.81974e-08l.218.217 .218-.217 -9.09868e-09 9.09868e-09c.842787-.842787 2.20921-.842787 3.052-1.81974e-08 .842787.842787.842787 2.20921 1.81974e-08 3.052Z"></path><path stroke="#323232" stroke-linecap="round" stroke-linejoin="round" stroke-width="1.5" d="M19 9l-1.74846e-07-3.55271e-15c-2.20914-9.65645e-08-4-1.79086-4-4 9.65645e-08-2.20914 1.79086-4 4-4 2.20914 9.65645e-08 4 1.79086 4 4v8.88178e-16c0 2.20914-1.79086 4-4 4 0 0 0 0 0 0"></path><path stroke="#323232" stroke-linecap="round" stroke-linejoin="round" stroke-width="1.5" d="M20 4l-2 2"></path><path stroke="#323232" stroke-linecap="round" stroke-linejoin="round" stroke-width="1.5" d="M18 4l2 2"></path></g></svg>