<?xml version="1.0" encoding="UTF-8"?><svg version="1.1" viewBox="0 0 24 24" xmlns="http://www.w3.org/2000/svg" xmlns:xlink="http://www.w3.org/1999/xlink"><!--Generated by IJSVG (https://github.com/iconjar/IJSVG)--><g fill="none"><path d="M0,0h24v24h-24Z"></path><path stroke="#323232" stroke-linecap="round" stroke-linejoin="round" stroke-width="1.5" d="M21,21l-4.34,-4.34"></path><path stroke="#323232" stroke-linecap="round" stroke-linejoin="round" stroke-width="1.5" d="M16.6569,5.34315c3.12419,3.12419 3.12419,8.18951 0,11.3137c-3.12419,3.12419 -8.18951,3.12419 -11.3137,0c-3.12419,-3.12419 -3.12419,-8.18951 -1.77636e-15,-11.3137c3.12419,-3.12419 8.18951,-3.12419 11.3137,-1.77636e-15"></path><path stroke="#323232" stroke-linecap="round" stroke-linejoin="round" stroke-width="1.5" d="M12.552,8.111c1.332,0 2.226,1.241 2.226,2.398c0,2.347 -3.71,4.269 -3.778,4.269c-0.068,0 -3.778,-1.922 -3.778,-4.269c0,-1.156 0.894,-2.398 2.226,-2.398c0.762,0 1.262,0.377 1.552,0.713c0.289,-0.336 0.79,-0.713 1.552,-0.713Z"></path></g></svg>