<?xml version="1.0" encoding="UTF-8"?><svg version="1.1" viewBox="0 0 24 24" xmlns="http://www.w3.org/2000/svg" xmlns:xlink="http://www.w3.org/1999/xlink"><g stroke-linecap="round" stroke-width="1.5" stroke="#323232" fill="none" stroke-linejoin="round"><path d="M11.174 16.748l-1.20907e-07-8.1323e-08c.499436.335924 1.15256.335924 1.652 2.02729e-07l.626-.42 -1.38296e-07 9.28649e-08c1.34216-.901247 2.49512-2.05625 3.394-3.4l1.49362e-08-2.23385e-08c.601732-.899951.721432-2.03859.32-3.044l-7.9071e-09-1.97804e-08c-.32968-.824726-1.00558-1.46259-1.848-1.744l-1.09201e-07-3.63965e-08c-1.0767-.358863-2.26281-.00363053-2.965.888l-.353.446 -.353-.448 8.85631e-08 1.12456e-07c-.702189-.891631-1.8883-1.24686-2.965-.888l1.19109e-07-3.97884e-08c-.842419.281411-1.51832.919274-1.848 1.744l-1.46552e-07 3.67048e-07c-.401431 1.00541-.281732 2.14405.32 3.044l1.31839e-08 1.97089e-08c.898875 1.34375 2.05184 2.49875 3.394 3.4Z"></path><rect width="18" height="18" x="3" y="3" rx="2.7614" ry="0"></rect></g><rect width="24" height="24" fill="none"></rect></svg>