<?xml version="1.0" encoding="UTF-8"?><svg version="1.1" viewBox="0 0 24 24" xmlns="http://www.w3.org/2000/svg" xmlns:xlink="http://www.w3.org/1999/xlink"><!--Generated by IJSVG (https://github.com/iconjar/IJSVG)--><g fill="none"><path d="M0,0h24v24h-24Z"></path><path stroke="#323232" stroke-linecap="round" stroke-linejoin="round" stroke-width="1.5" d="M19.56,7.119c1.92,2.97 1.919,6.794 0.001,9.763"></path><path stroke="#323232" stroke-linecap="round" stroke-linejoin="round" stroke-width="1.5" d="M15.5476,8.45245c1.95926,1.95926 1.95926,5.13585 0,7.09511c-1.95926,1.95926 -5.13585,1.95926 -7.09511,0c-1.95926,-1.95926 -1.95926,-5.13585 0,-7.09511c1.95926,-1.95926 5.13585,-1.95926 7.09511,0"></path><path stroke="#323232" stroke-linecap="round" stroke-linejoin="round" stroke-width="1.5" d="M14.321,7.551l2.584,-3.139c0.376,-0.457 1.064,-0.49 1.483,-0.072l1.273,1.273c0.419,0.419 0.385,1.107 -0.072,1.483l-3.139,2.584"></path><path stroke="#323232" stroke-linecap="round" stroke-linejoin="round" stroke-width="1.5" d="M9.679,16.449l-2.584,3.139c-0.376,0.457 -1.064,0.49 -1.483,0.072l-1.273,-1.273c-0.419,-0.419 -0.385,-1.107 0.072,-1.483l3.139,-2.584"></path><path stroke="#323232" stroke-linecap="round" stroke-linejoin="round" stroke-width="1.5" d="M7.551,9.679l-3.14,-2.584c-0.457,-0.376 -0.49,-1.064 -0.072,-1.483l1.273,-1.273c0.419,-0.419 1.107,-0.385 1.483,0.072l2.584,3.139"></path><path stroke="#323232" stroke-linecap="round" stroke-linejoin="round" stroke-width="1.5" d="M16.449,14.321l3.139,2.584c0.457,0.376 0.49,1.064 0.072,1.483l-1.273,1.273c-0.419,0.419 -1.107,0.385 -1.483,-0.072l-2.584,-3.139"></path><path stroke="#323232" stroke-linecap="round" stroke-linejoin="round" stroke-width="1.5" d="M16.882,19.561c-2.969,1.918 -6.794,1.919 -9.763,-0.001"></path><path stroke="#323232" stroke-linecap="round" stroke-linejoin="round" stroke-width="1.5" d="M4.439,7.118c-1.918,2.969 -1.919,6.793 0.001,9.763"></path><path stroke="#323232" stroke-linecap="round" stroke-linejoin="round" stroke-width="1.5" d="M16.881,4.44c-2.97,-1.92 -6.794,-1.919 -9.763,-0.001"></path></g></svg>