<?xml version="1.0" encoding="UTF-8"?><svg version="1.1" viewBox="0 0 24 24" xmlns="http://www.w3.org/2000/svg" xmlns:xlink="http://www.w3.org/1999/xlink"><!--Generated by IJSVG (https://github.com/iconjar/IJSVG)--><path d="M11.204,3.008l-6.032,2.906c-0.503,0.242 -0.868,0.7 -0.992,1.244l-1.49,6.531c-0.124,0.544 0.006,1.114 0.354,1.551l4.175,5.237c0.348,0.436 0.876,0.691 1.434,0.691h6.695c0.558,0 1.086,-0.254 1.434,-0.691l4.175,-5.237c0.348,-0.436 0.478,-1.007 0.354,-1.551l-1.49,-6.531c-0.124,-0.544 -0.489,-1.002 -0.992,-1.244l-6.032,-2.906c-0.504,-0.243 -1.09,-0.243 -1.593,-4.44089e-16Z" stroke-linecap="round" stroke-width="1.5" stroke="#323232" fill="none" stroke-linejoin="round"></path><path fill="none" d="M0,0h24v24h-24Z"></path></svg>