<svg id="Layer_3" data-name="Layer 3" xmlns="http://www.w3.org/2000/svg" viewBox="0 0 24 24"><polyline points="15.5 14 15.5 12 13.5 12" fill="none" stroke="#323232" stroke-linecap="round" stroke-linejoin="round" stroke-width="1.5"/><path d="M21,17V10.66747a3.6,3.6,0,0,0-1.35109-2.81112L14.81114,3.98611a4.5,4.5,0,0,0-5.62228,0L4.35109,7.85635A3.6,3.6,0,0,0,3,10.66747V17a4,4,0,0,0,4,4H17A4,4,0,0,0,21,17Z" fill="none" stroke="#323232" stroke-linecap="round" stroke-linejoin="round" stroke-width="1.5"/><path d="M15.5,12l-3,3L10,13,8,15" fill="none" stroke="#323232" stroke-linecap="round" stroke-linejoin="round" stroke-width="1.5"/><path d="M0,24V0H24V24Z" fill="none"/></svg>