<svg id="Layer_3" data-name="Layer 3" xmlns="http://www.w3.org/2000/svg" viewBox="0 0 24 24"><rect width="24" height="24" fill="none"/><path d="M17.65686,5.351h0a8.04572,8.04572,0,0,1,0,11.35153h0L14.345,20.02541a3.30859,3.30859,0,0,1-4.679.01105L9.655,20.02541,6.34313,16.70254A8.04586,8.04586,0,0,1,6.34307,5.351h0a7.9812,7.9812,0,0,1,11.28708-.02665l.02666.02665Z" fill="none" stroke="#323232" stroke-linecap="round" stroke-linejoin="round" stroke-width="1.5"/><path d="M15,10.62875V13a1,1,0,0,1-1,1H10a1,1,0,0,1-1-1V10.57113a1,1,0,0,1,.37532-.78088l1.964-1.57113a1,1,0,0,1,1.24936,0l2.036,1.62875A1,1,0,0,1,15,10.62875Z" fill="none" stroke="#323232" stroke-linecap="round" stroke-linejoin="round" stroke-width="1.5"/></svg>