<svg id="Layer_3" data-name="Layer 3" xmlns="http://www.w3.org/2000/svg" viewBox="0 0 24 24"><rect width="24" height="24" fill="none"/><path d="M17.5,17.49962l-1.5,1.5,1.5,1.5" fill="none" stroke="#323232" stroke-linecap="round" stroke-linejoin="round" stroke-width="1.5"/><path d="M4,7.5V7.49962A2.99981,2.99981,0,0,1,7,4.5H9" fill="none" stroke="#323232" stroke-linecap="round" stroke-linejoin="round" stroke-width="1.5"/><path d="M9,15.4V12a1,1,0,0,0-1-1H4a1,1,0,0,0-1,1v8a1,1,0,0,0,1,1H9.6" fill="none" stroke="#323232" stroke-linecap="round" stroke-linejoin="round" stroke-width="1.5"/><rect x="7" y="15.4" width="6" height="5.6" rx="1" stroke-width="1.5" stroke="#323232" stroke-linecap="round" stroke-linejoin="round" fill="none"/><path d="M21,6.53834V10a1,1,0,0,1-1,1H14a1,1,0,0,1-1-1V6.46152a1.5,1.5,0,0,1,.563-1.17132l2.452-1.96152a1.5,1.5,0,0,1,1.87405,0L20.437,5.367A1.5,1.5,0,0,1,21,6.53834Z" fill="none" stroke="#323232" stroke-linecap="round" stroke-linejoin="round" stroke-width="1.5"/><path d="M21,15.99962V16a2.99981,2.99981,0,0,1-3,2.99962H16" fill="none" stroke="#323232" stroke-linecap="round" stroke-linejoin="round" stroke-width="1.5"/><path d="M7.5,6,9,4.5,7.5,3" fill="none" stroke="#323232" stroke-linecap="round" stroke-linejoin="round" stroke-width="1.5"/></svg>