<svg id="Layer_3" data-name="Layer 3" xmlns="http://www.w3.org/2000/svg" viewBox="0 0 24 24"><path d="M0,0H24V24H0Z" fill="none"/><path d="M19,12V8.33159a2.90318,2.90318,0,0,0-.85034-2.05289L15.7213,3.85034A2.90318,2.90318,0,0,0,13.66841,3H6.90323A2.90323,2.90323,0,0,0,4,5.90323V18.09677A2.90323,2.90323,0,0,0,6.90323,21H11" fill="none" stroke="#323232" stroke-linecap="round" stroke-linejoin="round" stroke-width="1.5" fill-rule="evenodd"/><path d="M18.98017,8H15.5A1.5,1.5,0,0,1,14,6.5V3.01945" fill="none" stroke="#323232" stroke-linecap="round" stroke-linejoin="round" stroke-width="1.5" fill-rule="evenodd"/><line x1="10" y1="13.5" x2="7.5" y2="13.5" fill="none" stroke="#323232" stroke-linecap="round" stroke-linejoin="round" stroke-width="1.5"/><path d="M11.33333,7.7525V9.66667A.33333.33333,0,0,1,11,10H7.66667a.33334.33334,0,0,1-.33334-.33333V7.71409a.66668.66668,0,0,1,.25022-.52059L8.89287,6.14608a.66668.66668,0,0,1,.83291,0l1.35734,1.08583A.66667.66667,0,0,1,11.33333,7.7525Z" fill="none" stroke="#323232" stroke-linecap="round" stroke-linejoin="round" stroke-width="1.5"/><line x1="10" y1="16.5" x2="7.5" y2="16.5" fill="none" stroke="#323232" stroke-linecap="round" stroke-linejoin="round" stroke-width="1.5"/><path d="M14.258,14H13" fill="none" stroke="#323232" stroke-linecap="round" stroke-linejoin="round" stroke-width="1.5"/><path d="M14.56,15.5H21" fill="none" stroke="#323232" stroke-linecap="round" stroke-linejoin="round" stroke-width="1.5"/><line x1="14.258" y1="14" x2="15.25879" y2="19" fill="none" stroke="#323232" stroke-linecap="round" stroke-linejoin="round" stroke-width="1.5"/><line x1="21" y1="15.50897" x2="20.30615" y2="19" fill="none" stroke="#323232" stroke-linecap="round" stroke-linejoin="round" stroke-width="1.5"/><line x1="20.30615" y1="19" x2="15.25879" y2="19" fill="none" stroke="#323232" stroke-linecap="round" stroke-linejoin="round" stroke-width="1.5"/><path d="M19.828,21.41479a.05.05,0,1,1-.00029-.00029l.00029.00029" fill="none" stroke="#323232" stroke-linecap="round" stroke-linejoin="round" stroke-width="1.5"/><path d="M15.8,21.41479a.05.05,0,1,1-.00029-.00029l.00029.00029" fill="none" stroke="#323232" stroke-linecap="round" stroke-linejoin="round" stroke-width="1.5"/></svg>