<svg id="Layer_3" data-name="Layer 3" xmlns="http://www.w3.org/2000/svg" viewBox="0 0 24 24"><path d="M24,0H0V24H24Z" fill="none"/><path d="M13,19v-3.7403a2,2,0,0,0-.75061-1.56173L9.56174,11.54784a2.5,2.5,0,0,0-3.12349,0L3.7506,13.698A2,2,0,0,0,3,15.25971V19a2,2,0,0,0,2,2h6A2,2,0,0,0,13,19Z" fill="none" stroke="#323232" stroke-linecap="round" stroke-linejoin="round" stroke-width="1.5"/><path d="M16,13h3a2,2,0,0,0,2-2V7.25972A2,2,0,0,0,20.24939,5.698L17.56174,3.54785a2.5,2.5,0,0,0-3.12349,0L11.7506,5.698A2,2,0,0,0,11,7.25972V9" fill="none" stroke="#323232" stroke-linecap="round" stroke-linejoin="round" stroke-width="1.5"/><path d="M17.5,20.5,16,19l1.5-1.5" fill="none" stroke="#323232" stroke-linecap="round" stroke-linejoin="round" stroke-width="1.5"/><path d="M16,19h2a3,3,0,0,0,3-3" fill="none" stroke="#323232" stroke-linecap="round" stroke-linejoin="round" stroke-width="1.5"/><path d="M3,5,4.20106,6.2,6.2,4.2" fill="none" stroke="#323232" stroke-linecap="round" stroke-linejoin="round" stroke-width="1.5"/></svg>