<svg id="Layer_3" data-name="Layer 3" xmlns="http://www.w3.org/2000/svg" viewBox="0 0 24 24"><path d="M24,0H0V24H24Z" fill="none"/><path d="M21,14v4a3,3,0,0,1-3,3H14" fill="none" stroke="#323232" stroke-linecap="round" stroke-linejoin="round" stroke-width="1.5"/><path d="M3,10V6A3,3,0,0,1,6,3H8" fill="none" stroke="#323232" stroke-linecap="round" stroke-linejoin="round" stroke-width="1.5"/><path d="M3,19.5v-3a1.5,1.5,0,0,1,.56295-1.1713l2.5-2a1.5,1.5,0,0,1,1.87409,0l2.5,2A1.5,1.5,0,0,1,11,16.5v3A1.5,1.5,0,0,1,9.5,21h-5A1.5,1.5,0,0,1,3,19.5Z" fill="none" stroke="#323232" stroke-linecap="round" stroke-linejoin="round" stroke-width="1.5"/><polyline points="14.75 7 15.75 8 17.25 6.5" fill="none" stroke="#323232" stroke-linecap="round" stroke-linejoin="round" stroke-width="1.5"/><path d="M17.13257,11l-2.31685,1.88673A.5.5,0,0,1,14,12.499V11.001H13a2,2,0,0,1-2-2V5a2,2,0,0,1,2-2h6a2,2,0,0,1,2,2V9.001a2,2,0,0,1-2,2H17.13257" fill="none" stroke="#323232" stroke-linecap="round" stroke-linejoin="round" stroke-width="1.5"/></svg>