<svg viewBox="0 0 24 24" xmlns="http://www.w3.org/2000/svg"><g stroke-linecap="round" stroke-width="1.5" stroke="#323232" fill="none" stroke-linejoin="round"><path d="M21 10V7.5v0C21 5.01 18.98 3 16.5 3h-9l-.01 0C5 3 2.99 5.01 2.99 7.5s0 0 0 0v9l0 0c0 2.48 2.01 4.49 4.5 4.49h2.49"/><path d="M11 12l2 0"/><path d="M11 8l6 0"/><path d="M7 12.25l-.01 0c-.14 0-.25-.11-.25-.25 -.01-.01-.01-.01-.01-.01v-.01l0 0c-.01-.14.11-.26.24-.26 .13-.01.25.11.25.24s-.12.25-.25.25"/><path d="M7 8.25l-.01 0c-.14 0-.25-.11-.25-.25 -.01-.01-.01-.01-.01-.01v-.01l0 0c-.01-.14.11-.26.24-.26 .13-.01.25.11.25.24s-.12.25-.25.25"/><path d="M13.94 15.595v4.05l0-.01c-.01.74.6 1.35 1.34 1.35h4.5l-.01-.001c.74 0 1.35-.61 1.35-1.35 0 0 0 0 0 0v-4"/><path d="M22 16.34l-3.94-3.16 0 0c-.33-.27-.8-.27-1.13-.01l-3.94 3.15"/></g><path fill="none" d="M0 0h24v24H0Z"/></svg>