<svg id="Layer_3" data-name="Layer 3" xmlns="http://www.w3.org/2000/svg" viewBox="0 0 24 24"><path d="M17.5,21.5,16,20l1.5-1.5" fill="none" stroke="#323232" stroke-linecap="round" stroke-linejoin="round" stroke-width="1.5"/><path d="M6.5,3.5,8,5,6.5,6.5" fill="none" stroke="#323232" stroke-linecap="round" stroke-linejoin="round" stroke-width="1.5"/><path d="M16,20h2a3,3,0,0,0,3-3h0" fill="none" stroke="#323232" stroke-linecap="round" stroke-linejoin="round" stroke-width="1.5"/><path d="M8,5H6A3,3,0,0,0,3,8H3" fill="none" stroke="#323232" stroke-linecap="round" stroke-linejoin="round" stroke-width="1.5"/><path d="M3.563,14.12859l3.5-2.7999a1.5,1.5,0,0,1,1.874,0l3.5,2.7999A1.5,1.5,0,0,1,13,15.29991V19.5A1.5,1.5,0,0,1,11.5,21h-7A1.5,1.5,0,0,1,3,19.5v-4.2001A1.5,1.5,0,0,1,3.563,14.12859Z" fill="none" stroke="#323232" stroke-linecap="round" stroke-linejoin="round" stroke-width="1.5"/><path d="M11,9V7.29991a1.5,1.5,0,0,1,.563-1.17132l3.5-2.7999a1.5,1.5,0,0,1,1.874,0l3.5,2.7999A1.5,1.5,0,0,1,21,7.29991V11.5A1.5,1.5,0,0,1,19.5,13H15" fill="none" stroke="#323232" stroke-linecap="round" stroke-linejoin="round" stroke-width="1.5"/><rect y="0.00001" width="24" height="24" fill="none"/></svg>