<?xml version="1.0" encoding="UTF-8"?><svg version="1.1" viewBox="0 0 24 24" xmlns="http://www.w3.org/2000/svg" xmlns:xlink="http://www.w3.org/1999/xlink"><!--Generated by IJSVG (https://github.com/iconjar/IJSVG)--><g stroke-linecap="round" stroke-width="1.5" stroke="#323232" fill="none" stroke-linejoin="round"><path d="M7.455,9.614v7.045h9.091v-7.045"></path><path d="M6.318,10.409l5.682,-3.977l5.682,3.977"></path><path d="M13.705,16.659v-3.409c0,-0.628 -0.509,-1.136 -1.136,-1.136h-1.136c-0.628,0 -1.136,0.509 -1.136,1.136v3.409"></path><path d="M7.5,3h9.004c2.483,0 4.496,2.013 4.496,4.496v9.009c0,2.482 -2.013,4.495 -4.496,4.495h-9.008c-2.483,0 -4.496,-2.013 -4.496,-4.496v-9.004c0,-2.485 2.015,-4.5 4.5,-4.5Z"></path></g><path fill="none" d="M0,0h24v24h-24Z"></path></svg>