<svg id="Layer_3" data-name="Layer 3" xmlns="http://www.w3.org/2000/svg" viewBox="0 0 24 24"><rect width="24" height="24" fill="none"/><path d="M8.5,12.5h0A3.5,3.5,0,0,1,12,9h0a3.5,3.5,0,0,1,3.5,3.5h0c0,1.63851-1.788,3.38881-2.808,4.25435a1.09611,1.09611,0,0,1-1.383,0C10.288,15.88881,8.5,14.13851,8.5,12.5Z" fill="none" stroke="#323232" stroke-linecap="round" stroke-linejoin="round" stroke-width="1.5"/><path d="M11.999,12.25a.25.25,0,1,0,.251.25.24869.24869,0,0,0-.251-.25" fill="none" stroke="#323232" stroke-linecap="round" stroke-linejoin="round" stroke-width="1.5"/><path d="M21,17V10.7194a4,4,0,0,0-1.50121-3.12346L15.12348,4.09567a5,5,0,0,0-6.247,0L4.50121,7.59594A4,4,0,0,0,3,10.71941V17a4,4,0,0,0,4,4H17A4,4,0,0,0,21,17Z" fill="none" stroke="#323232" stroke-linecap="round" stroke-linejoin="round" stroke-width="1.5"/></svg>