<svg id="Layer_3" data-name="Layer 3" xmlns="http://www.w3.org/2000/svg" viewBox="0 0 24 24"><rect y="0.00001" width="24" height="24" fill="none"/><circle cx="12" cy="10.5" r="2.5" fill="none" stroke="#323232" stroke-linecap="round" stroke-linejoin="round" stroke-width="1.5"/><path d="M7.5,17a2.49821,2.49821,0,0,1,2.28894-1.5h4.42212A2.49821,2.49821,0,0,1,16.5,17" fill="none" stroke="#323232" stroke-linecap="round" stroke-linejoin="round" stroke-width="1.5"/><path d="M16,21H8a5,5,0,0,1-5-5V11.2A5,5,0,0,1,4.87653,7.29569l4-3.2a5,5,0,0,1,6.247,0l4,3.2A5.00008,5.00008,0,0,1,21,11.2V16A5,5,0,0,1,16,21Z" fill="none" stroke="#323232" stroke-linecap="round" stroke-linejoin="round" stroke-width="1.5"/></svg>