<svg id="Layer_3" data-name="Layer 3" xmlns="http://www.w3.org/2000/svg" viewBox="0 0 24 24"><path d="M24,24,24,0,0,0,0,24Z" fill="none"/><rect x="3.00002" y="3" width="18" height="18" rx="5" transform="translate(24.00002 -0.00002) rotate(90)" stroke-width="1.5" stroke="#323232" stroke-linecap="round" stroke-linejoin="round" fill="none"/><line x1="16.49999" y1="15.5" x2="7.49999" y2="15.5" fill="none" stroke="#323232" stroke-linecap="round" stroke-linejoin="round" stroke-width="1.5"/><line x1="16.49999" y1="8.5" x2="14.49999" y2="8.5" fill="none" stroke="#323232" stroke-linecap="round" stroke-linejoin="round" stroke-width="1.5"/><line x1="16.49999" y1="12" x2="14.49999" y2="12" fill="none" stroke="#323232" stroke-linecap="round" stroke-linejoin="round" stroke-width="1.5"/><path d="M7.5,11.25V9.67985a.75.75,0,0,1,.28148-.58565l1.09382-.87507a1,1,0,0,1,1.2494,0l1.09382.87507A.75.75,0,0,1,11.5,9.67985V11.25a.75.75,0,0,1-.75.75H8.25A.75.75,0,0,1,7.5,11.25Z" fill="none" stroke="#323232" stroke-linecap="round" stroke-linejoin="round" stroke-width="1.5"/></svg>