<svg id="Layer_3" data-name="Layer 3" xmlns="http://www.w3.org/2000/svg" viewBox="0 0 24 24"><path d="M3,10V6A3,3,0,0,1,6,3h5" fill="none" stroke="#323232" stroke-linecap="round" stroke-linejoin="round" stroke-width="1.5"/><path d="M21,12v6a3,3,0,0,1-3,3H16" fill="none" stroke="#323232" stroke-linecap="round" stroke-linejoin="round" stroke-width="1.5"/><path d="M17.50048,5.375A.125.125,0,1,1,17.375,5.5a.12434.12434,0,0,1,.12548-.125" fill="none" stroke="#323232" stroke-linecap="round" stroke-linejoin="round" stroke-width="1.5"/><path d="M14,5.5h0A3.5,3.5,0,0,1,17.5,2h0A3.5,3.5,0,0,1,21,5.5h0" fill="none" stroke="#323232" stroke-linecap="round" stroke-linejoin="round" stroke-width="1.5"/><path d="M14,5.5c0,1.66118,1.85606,3.43784,2.86468,4.28117a1.03021,1.03021,0,0,0,1.26926.00034C19.14351,8.93829,21,7.1614,21,5.5" fill="none" stroke="#323232" stroke-linecap="round" stroke-linejoin="round" stroke-width="1.5"/><path d="M11.5,21h-7A1.5,1.5,0,0,1,3,19.5v-4.1481a2,2,0,0,1,.75064-1.56176l2.94-2.3519a2,2,0,0,1,2.49872,0l3.06,2.44793A2,2,0,0,1,13,15.44794V19.5A1.5,1.5,0,0,1,11.5,21Z" fill="none" stroke="#323232" stroke-linecap="round" stroke-linejoin="round" stroke-width="1.5"/><path d="M0,0H24V24H0Z" fill="none"/></svg>