<svg id="Layer_3" data-name="Layer 3" xmlns="http://www.w3.org/2000/svg" viewBox="0 0 24 24"><path d="M24,24H0V0H24Z" fill="none"/><path d="M21,17V11.2a5,5,0,0,0-1.87652-3.90434l-4-3.2a5,5,0,0,0-6.247,0l-4,3.2A5,5,0,0,0,3,11.2V17a4,4,0,0,0,4,4H17A4,4,0,0,0,21,17Z" fill="none" stroke="#323232" stroke-linecap="round" stroke-linejoin="round" stroke-width="1.5"/><path d="M21,17V10.7194a4,4,0,0,0-1.50121-3.12346L15.12348,4.09567a5,5,0,0,0-6.247,0L4.50121,7.59594A4,4,0,0,0,3,10.71941V17a4,4,0,0,0,4,4H17A4,4,0,0,0,21,17Z" fill="none" stroke="#323232" stroke-linecap="round" stroke-linejoin="round" stroke-width="1.5"/><path d="M8.5,11.09784l0,2.397c0,1.68346,2.11834,2.92959,3.06071,3.40084a.977.977,0,0,0,.87925-.00035c.9427-.47153,3.06-1.71478,3.06-3.40049l0-2.397a.51156.51156,0,0,0-.47315-.49441,4.98286,4.98286,0,0,1-2.45664-.91868.9723.9723,0,0,0-1.14038,0,4.98286,4.98286,0,0,1-2.45664.91868A.51156.51156,0,0,0,8.5,11.09784Z" fill="none" stroke="#323232" stroke-linecap="round" stroke-linejoin="round" stroke-width="1.5"/></svg>