<svg id="Layer_3" data-name="Layer 3" xmlns="http://www.w3.org/2000/svg" viewBox="0 0 24 24"><circle cx="11.99998" cy="12.00001" r="9.5" fill="none" stroke="#323232" stroke-linecap="round" stroke-linejoin="round" stroke-width="1.5"/><line x1="7.49999" y1="8.5" x2="16.49999" y2="8.5" fill="none" stroke="#323232" stroke-linecap="round" stroke-linejoin="round" stroke-width="1.5"/><line x1="7.49999" y1="15.5" x2="9.49999" y2="15.5" fill="none" stroke="#323232" stroke-linecap="round" stroke-linejoin="round" stroke-width="1.5"/><line x1="7.49999" y1="11.75" x2="9.49999" y2="11.75" fill="none" stroke="#323232" stroke-linecap="round" stroke-linejoin="round" stroke-width="1.5"/><path d="M12.5,14.75V13.17985a.75.75,0,0,1,.28148-.58565l1.09382-.87507a1,1,0,0,1,1.2494,0l1.09382.87507a.75.75,0,0,1,.28148.58565V14.75a.75.75,0,0,1-.75.75h-2.5A.75.75,0,0,1,12.5,14.75Z" fill="none" stroke="#323232" stroke-linecap="round" stroke-linejoin="round" stroke-width="1.5"/><path d="M0,0,0,24l24,0L24,0Z" fill="none"/></svg>