<svg id="Layer_3" data-name="Layer 3" xmlns="http://www.w3.org/2000/svg" viewBox="0 0 24 24"><path d="M24,24V0H0V24Z" fill="none"/><path d="M11.15069,9.704a1,1,0,0,1,1.79362,0l.46121.935a1,1,0,0,0,.753.5472l1.03175.15a1,1,0,0,1,.5544,1.70545l-.74694.72854a1,1,0,0,0-.28736.88494l.17623,1.02731a1,1,0,0,1-1.45082,1.05426l-.923-.48513a1,1,0,0,0-.93046,0l-.923.48513a1,1,0,0,1-1.45082-1.05426L9.38465,14.655a1,1,0,0,0-.28736-.88494l-.74694-.72854a1,1,0,0,1,.5544-1.70545l1.03175-.15a1,1,0,0,0,.753-.5472Z" fill="none" stroke="#323232" stroke-linecap="round" stroke-linejoin="round" stroke-width="1.5"/><path d="M3,17V11.1a4.5,4.5,0,0,1,1.68886-3.5139l4.5-3.6a4.5,4.5,0,0,1,5.62228,0l4.5,3.6A4.5,4.5,0,0,1,21,11.1V17a4,4,0,0,1-4,4H7A4,4,0,0,1,3,17Z" fill="none" stroke="#323232" stroke-linecap="round" stroke-linejoin="round" stroke-width="1.5"/></svg>