<svg id="Layer_3" data-name="Layer 3" xmlns="http://www.w3.org/2000/svg" viewBox="0 0 24 24"><path d="M0,0H24V24H0Z" fill="none"/><path d="M12,2a2,2,0,1,1-2,2,1.99945,1.99945,0,0,1,2-2" fill="none" stroke="#323232" stroke-linecap="round" stroke-linejoin="round" stroke-width="1.5"/><line x1="10.577" y1="5.403" x2="5.98" y2="10" fill="none" stroke="#323232" stroke-linecap="round" stroke-linejoin="round" stroke-width="1.5"/><line x1="18" y1="9.98" x2="13.423" y2="5.403" fill="none" stroke="#323232" stroke-linecap="round" stroke-linejoin="round" stroke-width="1.5"/><path d="M19,21H5a1.99945,1.99945,0,0,1-2-2V12a1.99945,1.99945,0,0,1,2-2H19a1.99945,1.99945,0,0,1,2,2v7.001A1.99924,1.99924,0,0,1,19,21Z" fill="none" stroke="#323232" stroke-linecap="round" stroke-linejoin="round" stroke-width="1.5"/><line x1="14" y1="14" x2="17" y2="14" fill="none" stroke="#323232" stroke-linecap="round" stroke-linejoin="round" stroke-width="1.5"/><line x1="14" y1="17" x2="15" y2="17" fill="none" stroke="#323232" stroke-linecap="round" stroke-linejoin="round" stroke-width="1.5"/><path d="M11,15.2525v1.91417a.33333.33333,0,0,1-.33333.33333H7.33333A.33333.33333,0,0,1,7,17.16667V15.21409a.66667.66667,0,0,1,.25021-.52059l1.30933-1.04742a.66668.66668,0,0,1,.83291,0l1.35734,1.08583A.66667.66667,0,0,1,11,15.2525Z" fill="none" stroke="#323232" stroke-linecap="round" stroke-linejoin="round" stroke-width="1.5"/></svg>