<svg id="Layer_3" data-name="Layer 3" xmlns="http://www.w3.org/2000/svg" viewBox="0 0 24 24"><path d="M15,16.99977l-.58544-.58548a1.41439,1.41439,0,0,0-2.00027,0h0a1.41437,1.41437,0,0,0-.17675,1.78462l1.94,2.91038A2.00007,2.00007,0,0,0,15.8418,22h3.79608a2,2,0,0,0,1.98455-1.752l.362-2.89685a2,2,0,0,0-1.66266-2.22186L18,14.75068V12.5A1.5,1.5,0,0,0,16.5,11h0A1.5,1.5,0,0,0,15,12.5Z" fill="none" stroke="#323232" stroke-linecap="round" stroke-linejoin="round" stroke-width="1.5"/><path d="M9,16H5a3,3,0,0,1-3-3V6A3,3,0,0,1,5,3H18a3,3,0,0,1,3,3v6" fill="none" stroke="#323232" stroke-linecap="round" stroke-linejoin="round" stroke-width="1.5"/><path d="M10.5,12.5h-4a1,1,0,0,1-1-1V9.12115a1.25,1.25,0,0,1,.46915-.9761l1.714-1.37114a1.25,1.25,0,0,1,1.5617,0l1.786,1.42876a1.25,1.25,0,0,1,.46915.9761V11.5A1,1,0,0,1,10.5,12.5Z" fill="none" stroke="#323232" stroke-linecap="round" stroke-linejoin="round" stroke-width="1.5"/><path d="M0,0H24V24H0Z" fill="none"/></svg>