<?xml version="1.0" encoding="UTF-8"?><svg version="1.1" viewBox="0 0 24 24" xmlns="http://www.w3.org/2000/svg" xmlns:xlink="http://www.w3.org/1999/xlink"><!--Generated by IJSVG (https://github.com/iconjar/IJSVG)--><g stroke-linecap="round" stroke-width="1.5" stroke="#323232" fill="none" stroke-linejoin="round"><path d="M15.583,10.292l-3.023,-2.115c-0.337,-0.236 -0.785,-0.236 -1.121,0l-3.022,2.115c-0.261,0.183 -0.417,0.482 -0.417,0.801v3.929c0,0.54 0.438,0.978 0.978,0.978h6.044c0.54,0 0.978,-0.438 0.978,-0.978v-3.929c0,-0.319 -0.156,-0.618 -0.417,-0.801Z"></path><path d="M7.5,3h9.004c2.483,0 4.496,2.013 4.496,4.496v9.009c0,2.482 -2.013,4.495 -4.496,4.495h-9.008c-2.483,0 -4.496,-2.013 -4.496,-4.496v-9.004c0,-2.485 2.015,-4.5 4.5,-4.5Z"></path></g><path fill="none" d="M0,24v-24h24v24h-24Z"></path></svg>