<svg viewBox="0 0 24 24" xmlns="http://www.w3.org/2000/svg" xmlns:xlink="http://www.w3.org/1999/xlink"><defs><path d="M0 0h24v24H0Z" id="a"/></defs><g fill="none"><use xlink:href="#a"/><g stroke-linecap="round" stroke-width="1.5" stroke="#323232" fill="none" stroke-linejoin="round"><path d="M8 18h4"/><path d="M16 15v4 0c0 1.1-.9 2-2 2H6l-.01-.001c-1.11-.01-2-.9-2-2.01 0 0 0 0 0 0v-14l0 0c-.01-1.11.89-2.01 1.99-2.01h3"/><path d="M12.045 4.88v4.61l0 0c0 .82.67 1.49 1.5 1.49h5l-.01-.001c.82 0 1.5-.68 1.5-1.5V4.92"/><path d="M21 5.71L16.62 2.2l0 0c-.37-.3-.89-.3-1.25-.01l-4.38 3.5"/></g><use xlink:href="#a"/></g></svg>