<svg id="Layer_3" data-name="Layer 3" xmlns="http://www.w3.org/2000/svg" viewBox="0 0 24 24"><line x1="12" y1="9.00001" x2="12" y2="9.80787" fill="none" stroke="#323232" stroke-linecap="round" stroke-linejoin="round" stroke-width="1.5"/><path d="M10,11.42359a1.83893,1.83893,0,0,1,2-1.61572" fill="none" stroke="#323232" stroke-linecap="round" stroke-linejoin="round" stroke-width="1.5"/><line x1="12" y1="17.00001" x2="12" y2="16.19215" fill="none" stroke="#323232" stroke-linecap="round" stroke-linejoin="round" stroke-width="1.5"/><path d="M14,14.57643a1.83893,1.83893,0,0,1-2,1.61572" fill="none" stroke="#323232" stroke-linecap="round" stroke-linejoin="round" stroke-width="1.5"/><path d="M13.94907,11.07109A1.95077,1.95077,0,0,0,12,9.80787" fill="none" stroke="#323232" stroke-linecap="round" stroke-linejoin="round" stroke-width="1.5"/><path d="M10.05093,14.92893A1.95077,1.95077,0,0,0,12,16.19215" fill="none" stroke="#323232" stroke-linecap="round" stroke-linejoin="round" stroke-width="1.5"/><path d="M10,11.42359h0a1.435,1.435,0,0,0,1.15357,1.40713l1.69286.33857A1.435,1.435,0,0,1,14,14.57643h0" fill="none" stroke="#323232" stroke-linecap="round" stroke-linejoin="round" stroke-width="1.5"/><path d="M21,17V10.7194a4,4,0,0,0-1.50121-3.12346L15.12348,4.09567a5,5,0,0,0-6.247,0L4.50121,7.59594A4,4,0,0,0,3,10.71941V17a4,4,0,0,0,4,4H17A4,4,0,0,0,21,17Z" fill="none" stroke="#323232" stroke-linecap="round" stroke-linejoin="round" stroke-width="1.5"/><path d="M0,24,0,0,24,0l0,24Z" fill="none"/></svg>