<svg id="Layer_3" data-name="Layer 3" xmlns="http://www.w3.org/2000/svg" viewBox="0 0 24 24"><path d="M0,0H24V24H0Z" fill="none"/><path d="M17,3h1a3,3,0,0,1,3,3V18a3,3,0,0,1-3,3H15" fill="none" stroke="#323232" stroke-linecap="round" stroke-linejoin="round" stroke-width="1.5"/><path d="M12,3H6A3,3,0,0,0,3,6v5" fill="none" stroke="#323232" stroke-linecap="round" stroke-linejoin="round" stroke-width="1.5"/><path d="M10,21H4a1,1,0,0,1-1-1V16.46152a1.5,1.5,0,0,1,.563-1.17132l2.452-1.96152a1.5,1.5,0,0,1,1.874,0L10.437,15.367A1.5,1.5,0,0,1,11,16.53834V20A1,1,0,0,1,10,21Z" fill="none" stroke="#323232" stroke-linecap="round" stroke-linejoin="round" stroke-width="1.5"/><path d="M12,8.49916V3a1,1,0,0,1,1-1h3a1,1,0,0,1,1,1V8.49916a.5.5,0,0,1-.77735.416L14.5,7.76675,12.77735,8.91518A.5.5,0,0,1,12,8.49916Z" fill="none" stroke="#323232" stroke-linecap="round" stroke-linejoin="round" stroke-width="1.5"/></svg>