<?xml version="1.0" encoding="UTF-8"?><svg version="1.1" viewBox="0 0 24 24" xmlns="http://www.w3.org/2000/svg" xmlns:xlink="http://www.w3.org/1999/xlink"><g stroke-linecap="round" stroke-width="1.5" stroke="#323232" fill="none" stroke-linejoin="round"><path d="M9 21h-4.286c-.946 0-1.714-.768-1.714-1.714v-4.286"></path><path d="M3 4.355v4.645c0 .552.448 1 1 1h5.053c.552 0 1-.448 1-1v-4.645"></path><path d="M2 5l4.592-3 4.408 3"></path><path d="M16 3h3.286c.946 0 1.714.768 1.714 1.714v3.286"></path><path d="M20.475 20.738c0 .145.118.262.262.261 .145.001.263-.117.263-.261 0-.144-.118-.262-.262-.262 -.144 0-.263.117-.263.262"></path><path d="M21 17.5c-2.049.045-3.455 1.451-3.5 3.5"></path><path d="M14 21c.01-.885.16-1.715.428-2.474 .687-1.943 2.155-3.412 4.098-4.098 .759-.268 1.589-.418 2.474-.428"></path></g><path fill="none" d="M0 0h24v24h-24v-24Z"></path></svg>