<svg id="Layer_3" data-name="Layer 3" xmlns="http://www.w3.org/2000/svg" viewBox="0 0 24 24"><path d="M0,0H24V24H0Z" fill="none"/><line x1="5.15751" y1="6.15752" x2="17.8432" y2="18.84321" fill="none" stroke="#323232" stroke-linecap="round" stroke-linejoin="round" stroke-width="1.5"/><path d="M21,12a9,9,0,1,1-9-9" fill="none" stroke="#323232" stroke-linecap="round" stroke-linejoin="round" stroke-width="1.5"/><line x1="5.15723" y1="17.84278" x2="11" y2="12.00001" fill="none" stroke="#323232" stroke-linecap="round" stroke-linejoin="round" stroke-width="1.5"/><path d="M15.063,4.63387l1.5-1.19995a1.5,1.5,0,0,1,1.874,0l1.5,1.19995A1.5,1.5,0,0,1,20.5,5.80519V8a1,1,0,0,1-1,1h-4a1,1,0,0,1-1-1V5.80519A1.5,1.5,0,0,1,15.063,4.63387Z" fill="none" stroke="#323232" stroke-linecap="round" stroke-linejoin="round" stroke-width="1.5"/></svg>