<svg id="Layer_3" data-name="Layer 3" xmlns="http://www.w3.org/2000/svg" viewBox="0 0 24 24"><path d="M21,17v2a2,2,0,0,1-2,2H16" fill="none" stroke="#323232" stroke-linecap="round" stroke-linejoin="round" stroke-width="1.5"/><path d="M3,10V5A2,2,0,0,1,5,3H7" fill="none" stroke="#323232" stroke-linecap="round" stroke-linejoin="round" stroke-width="1.5"/><path d="M10,8V5a2,2,0,0,1,2-2h7a2,2,0,0,1,2,2v7a2,2,0,0,1-2,2H16" fill="none" stroke="#323232" stroke-linecap="round" stroke-linejoin="round" stroke-width="1.5"/><line x1="18" y1="10.00001" x2="15" y2="10.00001" fill="none" stroke="#323232" stroke-linecap="round" stroke-linejoin="round" stroke-width="1.5"/><line x1="18" y1="7.00001" x2="13" y2="7.00001" fill="none" stroke="#323232" stroke-linecap="round" stroke-linejoin="round" stroke-width="1.5"/><path d="M3.563,14.12859l3.5-2.7999a1.5,1.5,0,0,1,1.874,0l3.5,2.7999A1.5,1.5,0,0,1,13,15.29991V19.5A1.5,1.5,0,0,1,11.5,21h-7A1.5,1.5,0,0,1,3,19.5v-4.2001A1.5,1.5,0,0,1,3.563,14.12859Z" fill="none" stroke="#323232" stroke-linecap="round" stroke-linejoin="round" stroke-width="1.5"/><rect y="0.00001" width="24" height="24" fill="none"/></svg>