<?xml version="1.0" encoding="UTF-8"?><svg version="1.1" viewBox="0 0 24 24" xmlns="http://www.w3.org/2000/svg" xmlns:xlink="http://www.w3.org/1999/xlink"><g stroke-linecap="round" stroke-width="1.5" stroke="#323232" fill="none" stroke-linejoin="round"><rect width="18" height="18" x="3" y="3" rx="2.20912" ry="0"></rect><path d="M13.5 17v-3.88889h-3v3.88889h-2.94444 -2.42843e-08c-.306827-1.34118e-08-.55556-.248733-.55556-.55556 0 0 0-3.55271e-15 0-3.55271e-15v-4.93827l-6.82121e-13 7.90349e-07c2.39607e-08-.158685.0678579-.309795.186459-.41522l4.44445-3.95062 2.66057e-08-2.36506e-08c.210489-.18711.527691-.18711.73818 4.73012e-08l4.44445 3.95067 1.78737e-11 1.5886e-11c.118589.105413.186445.256503.18646.41517v4.93827l-3.55271e-15-2.39098e-11c0 .306827-.248733.55556-.55556.55556Z"></path></g><path fill="none" d="M0 0h24v24h-24Z"></path></svg>