<svg id="Layer_3" data-name="Layer 3" xmlns="http://www.w3.org/2000/svg" viewBox="0 0 24 24"><path d="M20,10V5a2,2,0,0,0-2-2H6A2,2,0,0,0,4,5V19a2,2,0,0,0,2,2h5" fill="none" stroke="#323232" stroke-linecap="round" stroke-linejoin="round" stroke-width="1.5"/><path d="M22,21l-1.639-1.639" fill="none" stroke="#323232" stroke-linecap="round" stroke-linejoin="round" stroke-width="1.5"/><path d="M17.724,13A3.724,3.724,0,1,1,14,16.724,3.72427,3.72427,0,0,1,17.724,13" fill="none" stroke="#323232" stroke-linecap="round" stroke-linejoin="round" stroke-width="1.5"/><line x1="8" y1="14.5" x2="11" y2="14.5" fill="none" stroke="#323232" stroke-linecap="round" stroke-linejoin="round" stroke-width="1.5"/><line x1="8" y1="17.5" x2="11" y2="17.5" fill="none" stroke="#323232" stroke-linecap="round" stroke-linejoin="round" stroke-width="1.5"/><path d="M13,8.224V10.5a.5.5,0,0,1-.5.5h-4a.5.5,0,0,1-.5-.5V8.176a1,1,0,0,1,.37532-.78088l1.47-1.17595a1,1,0,0,1,1.24936,0l1.53,1.224A1,1,0,0,1,13,8.224Z" fill="none" stroke="#323232" stroke-linecap="round" stroke-linejoin="round" stroke-width="1.5"/><path d="M24,24H0V0H24Z" fill="none"/></svg>