<?xml version="1.0" encoding="UTF-8"?><svg version="1.1" viewBox="0 0 24 24" xmlns="http://www.w3.org/2000/svg" xmlns:xlink="http://www.w3.org/1999/xlink"><g stroke-linecap="round" stroke-width="1.5" stroke="#323232" fill="none" stroke-linejoin="round"><path d="M18.216 20.859c1.657 0 3-1.343 3-3v-7.333c0-.926-.427-1.8-1.158-2.368l-6-4.667c-1.083-.843-2.6-.843-3.684 0l-6 4.667c-.731.568-1.158 1.442-1.158 2.368v7.333c0 1.657 1.343 3 3 3"></path><line x1="18.22" x2="6.22" y1="20.86" y2="20.86"></line><path d="M10.216 10.859v1"></path><path d="M14.216 10.859v1"></path><path d="M15.716 15.547c0 0-1.312 1.312-3.5 1.312 -2.188 0-3.5-1.312-3.5-1.312"></path></g><path fill="none" d="M0 0h24v24h-24v-24Z"></path></svg>