<svg id="Layer_3" data-name="Layer 3" xmlns="http://www.w3.org/2000/svg" viewBox="0 0 24 24"><path d="M0,0H24V24H0Z" fill="none"/><path d="M8.20369,13.97553l1.04684,2.6414A1.39824,1.39824,0,0,0,10.55041,17.5h0a1.39825,1.39825,0,0,0,1.30111-1.9103L11.22588,14" fill="none" stroke="#323232" stroke-linecap="round" stroke-linejoin="round" stroke-width="1.5"/><path d="M12.5,8.99967l2.52089-1.376A1,1,0,0,1,16.5,8.50143v5.99714a1,1,0,0,1-1.47911.87775L12.5,14.00033" fill="none" stroke="#323232" stroke-linecap="round" stroke-linejoin="round" stroke-width="1.5"/><path d="M8.5,9h4a0,0,0,0,1,0,0v5a0,0,0,0,1,0,0h-4a2,2,0,0,1-2-2V11A2,2,0,0,1,8.5,9Z" fill="none" stroke="#323232" stroke-linecap="round" stroke-linejoin="round" stroke-width="1.5"/><path d="M6.89909,20.62371,3.37868,17.1033A3,3,0,0,1,2.5,14.982V9.02383A3,3,0,0,1,3.37869,6.9025L6.90017,3.38107a3,3,0,0,1,2.1213-.87867h5.95706a3,3,0,0,1,2.12132.87868l3.52147,3.52148A3,3,0,0,1,21.5,9.02388v5.95806a3,3,0,0,1-.87835,2.121l-3.51934,3.52046a3,3,0,0,1-2.12166.879H9.02041A3,3,0,0,1,6.89909,20.62371Z" fill="none" stroke="#323232" stroke-linecap="round" stroke-linejoin="round" stroke-width="1.5"/></svg>