<?xml version="1.0" encoding="UTF-8"?><svg version="1.1" viewBox="0 0 24 24" xmlns="http://www.w3.org/2000/svg" xmlns:xlink="http://www.w3.org/1999/xlink"><g stroke-linecap="round" stroke-width="1.5" stroke="#323232" fill="none" stroke-linejoin="round"><path d="M16 10.182h-2.18v-2.182 0c0-.552285-.447715-1-1-1h-1.636 -4.37114e-08c-.552285 2.41411e-08-1 .447715-1 1 0 0 0 0 0 0v2.182h-2.184l-4.37114e-08 1.77636e-15c-.552285 2.41411e-08-1 .447715-1 1 0 0 0 0 0 0v1.636l1.06581e-14 1.50996e-07c8.33927e-08.552285.447715 1 1 1h2.182v2.182l1.06581e-14 1.50996e-07c8.33927e-08.552285.447715 1 1 1h1.638 -4.37114e-08c.552285 2.41411e-08 1-.447715 1-1v-2.182h2.18l-4.37114e-08-1.77636e-15c.552285 2.41411e-08 1-.447715 1-1v-1.636 0c0-.552285-.447715-1-1-1Z"></path><rect width="18" height="18" x="3.002" y="3" rx="2.7614" ry="0"></rect></g><path fill="none" d="M0 0h24v24h-24Z"></path></svg>