<svg id="Layer_3" data-name="Layer 3" xmlns="http://www.w3.org/2000/svg" viewBox="0 0 24 24"><path d="M0,0H24V24H0Z" fill="none"/><path d="M20,17l-2.5,2.5L16,18" fill="none" stroke="#323232" stroke-linecap="round" stroke-linejoin="round" stroke-width="1.5"/><path d="M8.7905,10.34871V14a1.00294,1.00294,0,0,0,1,1h4.5a1,1,0,0,0,1-1V10.41545" fill="none" stroke="#323232" stroke-linecap="round" stroke-linejoin="round" stroke-width="1.5"/><path d="M13,20.938A8.15936,8.15936,0,0,1,12,21a9,9,0,1,1,9-9,8.15936,8.15936,0,0,1-.062,1" fill="none" stroke="#323232" stroke-linecap="round" stroke-linejoin="round" stroke-width="1.5"/><path d="M16,11,12.63589,8.22822a1,1,0,0,0-1.27178,0L8,11" fill="none" stroke="#323232" stroke-linecap="round" stroke-linejoin="round" stroke-width="1.5"/></svg>