<svg id="Layer_3" data-name="Layer 3" xmlns="http://www.w3.org/2000/svg" viewBox="0 0 24 24"><rect width="24" height="24" fill="none"/><path d="M10,20V15a1,1,0,0,1,1-1h2" fill="none" stroke="#323232" stroke-linecap="round" stroke-linejoin="round" stroke-width="1.5"/><path d="M3,10.58027,10.6984,3.9815a2,2,0,0,1,2.6032,0L21,10.58027" fill="none" stroke="#323232" stroke-linecap="round" stroke-linejoin="round" stroke-width="1.5"/><line x1="12" y1="20" x2="3" y2="20" fill="none" stroke="#323232" stroke-linecap="round" stroke-linejoin="round" stroke-width="1.5"/><path d="M15.62359,5.97182V3.75a.75.75,0,0,1,.75-.75H18.9645a.75.75,0,0,1,.75.75V9.47839" fill="none" stroke="#323232" stroke-linecap="round" stroke-linejoin="round" stroke-width="1.5"/><path d="M4.2855,9.47839V20" fill="none" stroke="#323232" stroke-linecap="round" stroke-linejoin="round" stroke-width="1.5"/><path d="M18.5,21A3.5,3.5,0,0,0,15,17.5,3.5,3.5,0,0,0,18.5,14,3.5,3.5,0,0,0,22,17.5,3.5,3.5,0,0,0,18.5,21Z" fill="none" stroke="#323232" stroke-linecap="round" stroke-linejoin="round" stroke-width="1.5"/></svg>