<?xml version="1.0" encoding="UTF-8"?><svg version="1.1" viewBox="0 0 24 24" xmlns="http://www.w3.org/2000/svg" xmlns:xlink="http://www.w3.org/1999/xlink"><g fill="none"><path d="M0 0h24v24h-24Z"></path><line x1="7" x2="7" y1="9.86" y2="14.14" stroke="#323232" stroke-linecap="round" stroke-linejoin="round" stroke-width="1.5"></line><path stroke="#323232" stroke-linecap="round" stroke-linejoin="round" stroke-width="1.5" d="M12 21v0l-3.93403e-07-7.10543e-15c-4.97056-2.1727e-07-9-4.02944-9-9 0 0 0-5.32907e-15 0-5.32907e-15h-8.88178e-15l1.03029e-13 1.35896e-06c-7.50534e-07-4.97056 4.02944-9 9-9v0l-3.93403e-07 8.88178e-15c4.97056-2.1727e-07 9 4.02944 9 9v0l3.55271e-14 7.86805e-07c0 4.97056-4.02944 9-9 9Z"></path><path stroke="#323232" stroke-linecap="round" stroke-linejoin="round" stroke-width="1.5" d="M12.113 9.857h-1.19l-5.47238e-09 5.74296e-12c-.525937.000551878-.952.427063-.952.953v2.38l1.06581e-14 1.43748e-07c7.93898e-08.525775.426225.952.952.952h1.19"></path><path stroke="#323232" stroke-linecap="round" stroke-linejoin="round" stroke-width="1.5" d="M16.392 14.25h-.75l-4.37114e-08-1.77636e-15c-.552285-2.41411e-08-1-.447715-1-1 0 0 0 0 0 0v-2.5l1.06581e-14 1.50996e-07c-8.33927e-08-.552285.447715-1 1-1h.75l-4.37114e-08 1.77636e-15c.552285-2.41411e-08 1 .447715 1 1v2.5l7.10543e-15 8.74228e-08c0 .552285-.447715 1-1 1Z"></path></g></svg>