<?xml version="1.0" encoding="UTF-8"?><svg version="1.1" viewBox="0 0 24 24" xmlns="http://www.w3.org/2000/svg" xmlns:xlink="http://www.w3.org/1999/xlink"><g fill="none"><path d="M0 0h24v24h-24Z"></path><line x1="7" x2="7" y1="9.86" y2="14.14" stroke="#323232" stroke-linecap="round" stroke-linejoin="round" stroke-width="1.5"></line><path stroke="#323232" stroke-linecap="round" stroke-linejoin="round" stroke-width="1.5" d="M12.113 9.858h-1.19 -4.16132e-08c-.525775 2.29824e-08-.952.426225-.952.952 0 0 0 1.77636e-15 0 1.77636e-15v2.38l1.06581e-14 1.43748e-07c7.93898e-08.525775.426225.952.952.952h1.19"></path><path stroke="#323232" stroke-linecap="round" stroke-linejoin="round" stroke-width="1.5" d="M16.392 14.25h-.75l-4.37114e-08-1.77636e-15c-.552285-2.41411e-08-1-.447715-1-1 0 0 0 0 0 0v-2.5l1.06581e-14 1.50996e-07c-8.33927e-08-.552285.447715-1 1-1h.75l-4.37114e-08 1.77636e-15c.552285-2.41411e-08 1 .447715 1 1v2.5l7.10543e-15 8.74228e-08c0 .552285-.447715 1-1 1Z"></path><path stroke="#323232" stroke-linecap="round" stroke-linejoin="round" stroke-width="1.5" d="M3 16v-8l5.68434e-14 7.54979e-07c-4.16963e-07-2.76142 2.23858-5 5-5h8l-2.18557e-07 5.32907e-15c2.76142-1.20706e-07 5 2.23858 5 5v8 1.77636e-15c0 2.76142-2.23858 5-5 5 0 0-1.77636e-15 0-1.77636e-15 0h-8l-2.18557e-07-7.10543e-15c-2.76142-1.20706e-07-5-2.23858-5-5Z"></path></g></svg>