<?xml version="1.0" encoding="UTF-8"?><svg version="1.1" viewBox="0 0 24 24" xmlns="http://www.w3.org/2000/svg" xmlns:xlink="http://www.w3.org/1999/xlink"><g stroke-linecap="round" stroke-width="1.5" stroke="#323232" fill="none" stroke-linejoin="round"><path d="M10.415 9h-2.654l-7.4027e-08 2.85638e-12c-.351126 1.35465e-05-.689323-.13248-.947-.371l-.047-.043 -4.63102e-08-4.278e-08c-.455365-.420653-.577678-1.09174-.3-1.646v0l4.17503e-08-8.37028e-08c.215447-.431938.639282-.721432 1.12-.765l2.621-.238 -.3-.61 5.58647e-08 1.13597e-07c-.155924-.31706-.237005-.665674-.237-1.019v0l1.59872e-14 1.20396e-07c-1.9247e-07-1.27467 1.03333-2.308 2.308-2.308 .000333387-5.03402e-11.000666774 7.21352e-08.00100016 2.16557e-07h.04l-1.00886e-07 1.77636e-15c1.27467-5.57177e-08 2.308 1.03333 2.308 2.308v0l2.13548e-10 3.14034e-05c0 .353326-.0810858.701939-.237014 1.019l-.3.61 2.621.238 6.36951e-09 5.77277e-10c.480718.043568.904553.333062 1.12.765v0l3.83685e-08 7.65854e-08c.277678.554258.155365 1.22535-.3 1.646l-.047.043 4.06041e-08-3.7457e-08c-.257742.237765-.595326.37015-.945986.370972h-.774"></path><path d="M10.415 9l-5.73056e-08 1.77636e-15c.724045-3.1649e-08 1.311.586955 1.311 1.311v0l7.01061e-08.000111932c.000183481.306815-.0710455.609461-.20805.883988l-.472.943 1.03323e-07-2.07252e-07c-.136885.274572-.208091.577198-.208.884v0l-8.7205e-08.000217764c-.00037711 1.09187.88445 1.97731 1.97632 1.97768 .000316887 1.09447e-07.000633775 1.42704e-07.000950662 9.97726e-08h.25l-4.55308e-08-2.30393e-11c1.09187.00055245 1.97745-.884133 1.978-1.976 3.37397e-07-.000666835 3.37413e-07-.00133367 4.60716e-11-.00200051v0l4.4173e-08-6.25306e-05c.000211948-.306933-.0713707-.609661-.209028-.883993l-.471-.943 1.14127e-07 2.2814e-07c-.1373-.274463-.208854-.57711-.209-.884v0l-1.17868e-09 5.53947e-05c1.09313e-07-.72395.586805-1.31086 1.31075-1.311h1.442l-3.46676e-09-2.8102e-12c.680186.000551426 1.23145.551814 1.232 1.232v0l4.33686e-09.000103331c0 .326737-.129897.64007-.361073.87097v0l4.09045e-08-4.11089e-08c-.128936.12958-.200913.305203-.2.488v0l7.73141e-09-1.00974e-05c-.000162825.210872.084953.412849.235993.560003v0l3.68309e-08 3.57626e-08c1.03773 1.00763 1.43533 2.50534 1.034 3.895l-.785 2.72 7.02293e-08-2.43128e-07c-.382321 1.32356-1.59419 2.23452-2.97186 2.23393h-6.182l1.55943e-07 2.88587e-11c-1.377-.000254823-2.58789-.911073-2.97-2.234l-.785-2.72 8.03681e-08 2.78287e-07c-.401326-1.38966-.00373086-2.88737 1.034-3.895v0l1.16022e-08-1.13034e-08c.151042-.147152.23616-.349128.236-.56v0l3.05028e-09-6.11038e-07c.000912432-.182797-.0710644-.35842-.2-.488v0l-7.46275e-08-7.45507e-08c-.231157-.230919-.361027-.544263-.361-.871v0l-3.51228e-08 4.44493e-05c.000524605-.679407.550551-1.23037 1.22996-1.23204Z"></path></g><path fill="none" d="M0 24v-24h24v24Z"></path></svg>