<?xml version="1.0" encoding="UTF-8"?><svg version="1.1" viewBox="0 0 24 24" xmlns="http://www.w3.org/2000/svg" xmlns:xlink="http://www.w3.org/1999/xlink"><!--Generated by IJSVG (https://github.com/iconjar/IJSVG)--><g stroke-linecap="round" stroke-width="1.5" stroke="#323232" fill="none" stroke-linejoin="round"><path d="M18.429,17h-12.858c-1.42,0 -2.571,-1.151 -2.571,-2.571v-8.858c0,-1.42 1.151,-2.571 2.571,-2.571h12.857c1.421,0 2.572,1.151 2.572,2.571v8.857c0,1.421 -1.151,2.572 -2.571,2.572Z"></path><path d="M14,17l0.5,4"></path><path d="M10,17l-0.5,4"></path><path d="M8.14,21h7.72"></path><path d="M12,7v-1"></path><path d="M12,13v1"></path><path d="M10.264,12.286c0.259,0.424 0.701,0.718 1.236,0.718h0.5h0.596c0.776,0 1.404,-0.629 1.404,-1.404c0,-0.644 -0.438,-1.205 -1.063,-1.362l-1.875,-0.47c-0.624,-0.158 -1.062,-0.72 -1.062,-1.364c0,-0.775 0.629,-1.404 1.404,-1.404h0.596h0.5c0.533,0 0.974,0.292 1.234,0.714"></path></g><path fill="none" d="M0,0h24v24h-24v-24Z"></path></svg>