<svg id="Layer_3" data-name="Layer 3" xmlns="http://www.w3.org/2000/svg" viewBox="0 0 24 24"><rect width="24" height="24" fill="none"/><circle cx="12" cy="9.49999" r="2.5" fill="none" stroke="#323232" stroke-linecap="round" stroke-linejoin="round" stroke-width="1.5"/><path d="M7,18V17a2.5,2.5,0,0,1,2.5-2.5h5A2.5,2.5,0,0,1,17,17v1" fill="none" stroke="#323232" stroke-linecap="round" stroke-linejoin="round" stroke-width="1.5"/><path d="M21,11v9a2,2,0,0,1-2,2H5a2,2,0,0,1-2-2V5A2,2,0,0,1,5,3h8" fill="none" stroke="#323232" stroke-linecap="round" stroke-linejoin="round" stroke-width="1.5"/><line x1="20.99998" y1="18" x2="2.99998" y2="18" fill="none" stroke="#323232" stroke-linecap="round" stroke-linejoin="round" stroke-width="1.5"/><path d="M18.342,2.39017a.75.75,0,0,1,1.3161,0l.5846,1.069a.74993.74993,0,0,0,.29818.29818l1.069.5846a.75.75,0,0,1,0,1.3161l-1.069.5846a.74993.74993,0,0,0-.29818.29818l-.5846,1.069a.75.75,0,0,1-1.3161,0l-.5846-1.069a.74993.74993,0,0,0-.29818-.29818l-1.069-.5846a.75.75,0,0,1,0-1.3161l1.069-.5846a.74993.74993,0,0,0,.29818-.29818Z" fill="none" stroke="#323232" stroke-linecap="round" stroke-linejoin="round" stroke-width="1.5"/></svg>