<svg id="Layer_3" data-name="Layer 3" xmlns="http://www.w3.org/2000/svg" viewBox="0 0 24 24"><rect width="24" height="24" fill="none"/><path d="M15,21h1a5,5,0,0,0,5-5V8a5,5,0,0,0-5-5H8A5,5,0,0,0,3,8V9" fill="none" stroke="#323232" stroke-linecap="round" stroke-linejoin="round" stroke-width="1.5"/><path d="M8.03642,21a4.30681,4.30681,0,0,0,.05-.625h0A4.375,4.375,0,0,0,3.71142,16a4.441,4.441,0,0,0-.625.05" fill="none" stroke="#323232" stroke-linecap="round" stroke-linejoin="round" stroke-width="1.5"/><path d="M3.08642,14v5a2,2,0,0,0,2,2h5a2,2,0,0,0,2-2V14a2,2,0,0,0-2-2h-5A2,2,0,0,0,3.08642,14Z" fill="none" stroke="#323232" stroke-linecap="round" stroke-linejoin="round" stroke-width="1.5"/><line x1="16.5" y1="7.5" x2="14" y2="10" fill="none" stroke="#323232" stroke-linecap="round" stroke-linejoin="round" stroke-width="1.5"/><line x1="16.5" y1="10" x2="14" y2="7.5" fill="none" stroke="#323232" stroke-linecap="round" stroke-linejoin="round" stroke-width="1.5"/><path d="M9.00048,14.875A.125.125,0,1,1,8.875,15a.12434.12434,0,0,1,.12548-.125" fill="none" stroke="#323232" stroke-linecap="round" stroke-linejoin="round" stroke-width="1.5"/></svg>