<svg xmlns="http://www.w3.org/2000/svg" viewBox="0 0 24 24"><g id="Layer_2" data-name="Layer 2"><path d="M21,13A13.25,13.25,0,0,0,7,13" fill="none" stroke="#323232" stroke-linecap="round" stroke-linejoin="round" stroke-width="1.5"/><path d="M7,6.11111v7.77778A3.11111,3.11111,0,0,0,10.11111,17h7.77778A3.11111,3.11111,0,0,0,21,13.88889V6.11111A3.11111,3.11111,0,0,0,17.88889,3H10.11111A3.11111,3.11111,0,0,0,7,6.11111Z" fill="none" stroke="#323232" stroke-linecap="round" stroke-linejoin="round" stroke-width="1.5"/><path d="M17,17v1a3,3,0,0,1-3,3H6a3,3,0,0,1-3-3V10A3,3,0,0,1,6,7H7" fill="none" stroke="#323232" stroke-linecap="round" stroke-linejoin="round" stroke-width="1.5"/><path d="M17.00048,6.87505A.125.125,0,1,1,16.875,7a.12433.12433,0,0,1,.12548-.125" fill="none" stroke="#323232" stroke-linecap="round" stroke-linejoin="round" stroke-width="1.5"/><path d="M0,24V0H24V24Z" fill="none"/></g></svg>