<svg viewBox="0 0 24 24" xmlns="http://www.w3.org/2000/svg"><g stroke-linecap="round" stroke-width="1.5" stroke="#323232" fill="none" stroke-linejoin="round"><path d="M11.009 11.25l1.15 0 0 4.25"/><path d="M11 15.5l2.31 0"/><path d="M6.82 19.828l-2.657-2.66 -.01-.01c-.75-.76-1.18-1.77-1.18-2.83V9.63l-.01-.01c-.01-1.07.42-2.08 1.17-2.83l2.65-2.66 -.01 0c.74-.76 1.76-1.18 2.82-1.18h4.68l-.01 0c1.06-.01 2.07.42 2.82 1.17l2.65 2.65 0 0c.75.74 1.17 1.76 1.17 2.82v4.68l0 0c0 1.06-.43 2.07-1.18 2.82l-2.657 2.65 0-.01c-.76.74-1.77 1.17-2.83 1.17h-4.69l0-.001c-1.07 0-2.08-.43-2.83-1.18Z"/><path d="M12.1 8.24l-.01 0c-.01.13-.12.24-.26.24 -.14-.01-.25-.12-.25-.26s.11-.25.24-.25l-.01 0c.13-.01.25.11.25.24 0 0 0 0 0 0"/></g><path fill="none" d="M0 0h24v24H0Z"/></svg>