<?xml version="1.0" encoding="UTF-8"?><svg version="1.1" viewBox="0 0 24 24" xmlns="http://www.w3.org/2000/svg" xmlns:xlink="http://www.w3.org/1999/xlink"><g fill="none"><path d="M0 0h24v24h-24v-24Z"></path><path stroke="#323232" stroke-linecap="round" stroke-linejoin="round" stroke-width="1.5" d="M20.117 3.883c1.177 1.177 1.177 3.085 0 4.262 -1.177 1.177-3.085 1.177-4.262 0 -1.177-1.177-1.177-3.085 0-4.262 1.177-1.177 3.085-1.177 4.262 0"></path><path stroke="#323232" stroke-linecap="round" stroke-linejoin="round" stroke-width="1.5" d="M19 13v6c0 1.105-.895 2-2 2h-12c-1.105 0-2-.895-2-2v-12c0-1.105.895-2 2-2h6"></path><path stroke="#323232" stroke-linecap="round" stroke-linejoin="round" stroke-width="1.5" d="M11 9.5c-.107 0-.194.087-.194.194 0 .107.087.194.194.194 .107 0 .194-.087.194-.194 .001-.107-.086-.194-.194-.194"></path><path stroke="#323232" stroke-linecap="round" stroke-linejoin="round" stroke-width="1.5" d="M11.001 12.611v3.889"></path></g></svg>