<svg id="Layer_3" data-name="Layer 3" xmlns="http://www.w3.org/2000/svg" viewBox="0 0 24 24"><path d="M10.33722,3.1598a8.98545,8.98545,0,0,0-5.2218,3.049" fill="none" stroke="#323232" stroke-linecap="round" stroke-linejoin="round" stroke-width="1.5"/><path d="M3.49319,9.08178A8.87078,8.87078,0,0,0,3.542,15.05155" fill="none" stroke="#323232" stroke-linecap="round" stroke-linejoin="round" stroke-width="1.5"/><path d="M5.2117,17.89711a8.97916,8.97916,0,0,0,5.12552,2.94309" fill="none" stroke="#323232" stroke-linecap="round" stroke-linejoin="round" stroke-width="1.5"/><polyline points="11.104 11.502 12.254 11.502 12.254 15.752" fill="none" stroke="#323232" stroke-linecap="round" stroke-linejoin="round" stroke-width="1.5"/><line x1="11.09533" y1="15.75119" x2="13.40467" y2="15.75119" fill="none" stroke="#323232" stroke-linecap="round" stroke-linejoin="round" stroke-width="1.5"/><path d="M13.63637,3.15581a8.993,8.993,0,0,1,0,17.68838" fill="none" stroke="#323232" stroke-linecap="round" stroke-linejoin="round" stroke-width="1.5"/><path d="M12.19565,8.49875a.25.25,0,1,1-.25032-.25031.25.25,0,0,1,.25032.25031" fill="none" stroke="#323232" stroke-linecap="round" stroke-linejoin="round" stroke-width="1.5"/><path d="M0,0H24V24H0Z" fill="none"/></svg>