<?xml version="1.0" encoding="UTF-8"?><svg version="1.1" viewBox="0 0 24 24" xmlns="http://www.w3.org/2000/svg" xmlns:xlink="http://www.w3.org/1999/xlink"><g stroke-linecap="round" stroke-width="1.5" stroke="#323232" fill="none" stroke-linejoin="round"><path d="M5.628 18.355l-3.74965e-07-3.76022e-07c3.50977 3.51966 9.20825 3.52768 12.7279.0179101 3.51966-3.50977 3.52768-9.20825.0179101-12.7279 -1.68877-1.69353-3.98217-2.64524-6.37382-2.645"></path><line x1="11" x2="13.31" y1="15.5" y2="15.5"></line><polyline points="12.159,15.5 12.159,11.25 11.009,11.25"></polyline><path d="M12.1 8.24726v0c0 .138071-.111929.25-.25.25 -.138071 0-.25-.111929-.25-.25 0-.138071.111929-.25.25-.25"></path><path d="M11.85 7.99726h-1.09278e-08c.138071-6.03528e-09.25.111929.25.25"></path><path d="M8.625 3.731v0c0 .0276142-.0223858.05-.05.05 -.0276142 0-.05-.0223858-.05-.05 0-.0276142.0223858-.05.05-.05"></path><path d="M8.575 3.681h-2.18557e-09c.0276142-1.20706e-09.05.0223858.05.05 0 0 0 4.44089e-16 0 4.44089e-16"></path><path d="M5.721 5.671l-8.88178e-16 8.88178e-16c0 .0276142-.0223858.05-.05.05 -.0276142 0-.05-.0223858-.05-.05 0-.0276142.0223858-.05.05-.05 0 0 0 0 0 0"></path><path d="M5.671 5.621h-2.18557e-09c.0276142-1.20706e-09.05.0223858.05.05"></path><path d="M3.781 8.575v0c0 .0276142-.0223858.05-.05.05 -.0276142 0-.05-.0223858-.05-.05 0-.0276142.0223858-.05.05-.05"></path><path d="M3.731 8.525h-2.18557e-09c.0276142-1.20706e-09.05.0223858.05.05 0 0 0 0 0 0"></path><path d="M3.1 12v0c0 .0276142-.0223858.05-.05.05 -.0276142 0-.05-.0223858-.05-.05 0-.0276142.0223858-.05.05-.05"></path><path d="M3.05 11.95h-2.18557e-09c.0276142-1.20706e-09.05.0223858.05.05"></path><path d="M3.781 15.425v0c0 .0276142-.0223858.05-.05.05 -.0276142 0-.05-.0223858-.05-.05 0-.0276142.0223858-.05.05-.05"></path><path d="M3.731 15.375h-2.18557e-09c.0276142-1.20706e-09.05.0223858.05.05 0 0 0 0 0 0"></path></g><rect width="24" height="24" fill="none"></rect></svg>