<?xml version="1.0" encoding="UTF-8"?><svg version="1.1" viewBox="0 0 24 24" xmlns="http://www.w3.org/2000/svg" xmlns:xlink="http://www.w3.org/1999/xlink"><g fill="none"><path d="M0 0h24v24h-24Z"></path><path fill-rule="evenodd" stroke="#323232" stroke-linecap="round" stroke-linejoin="round" stroke-width="1.5" d="M20 16h-16c-.552 0-1-.448-1-1v-6c0-.552.448-1 1-1h16c.552 0 1 .448 1 1v6c0 .552-.448 1-1 1Z"></path><path stroke="#323232" stroke-linecap="round" stroke-linejoin="round" stroke-width="1.5" d="M11 20h-1c-1.105 0-2-.895-2-2 0 1.105-.895 2-2 2h-1"></path><path stroke="#323232" stroke-linecap="round" stroke-linejoin="round" stroke-width="1.5" d="M8 6v12"></path><path stroke="#323232" stroke-linecap="round" stroke-linejoin="round" stroke-width="1.5" d="M5 4h1c1.105 0 2 .895 2 2 0-1.105.895-2 2-2h1"></path></g></svg>