<?xml version="1.0" encoding="UTF-8"?><svg version="1.1" viewBox="0 0 24 24" xmlns="http://www.w3.org/2000/svg" xmlns:xlink="http://www.w3.org/1999/xlink"><g fill="none"><path d="M0 0h24v24h-24Z"></path><path stroke="#323232" stroke-linecap="round" stroke-linejoin="round" stroke-width="1.5" d="M7.761 11.823l2.20686e-09 2.21245e-09c.0975076.0977544.0973075.256046-.000446896.353553 -.0977544.0975076-.256046.0973075-.353553-.000446896 -.0973333-.0975797-.0973333-.255527 4.41373e-09-.353106l-4.3151e-09 4.258e-09c.0981335-.0968348.255866-.0968348.354-8.51599e-09"></path><path stroke="#323232" stroke-linecap="round" stroke-linejoin="round" stroke-width="1.5" d="M12.177 11.823l2.20687e-09 2.21245e-09c.0975076.0977544.0973075.256046-.000446896.353553 -.0977544.0975076-.256046.0973075-.353553-.000446896 -.0973333-.0975797-.0973333-.255527 4.41373e-09-.353106l-4.3151e-09 4.258e-09c.0981335-.0968348.255866-.0968348.354-8.51599e-09"></path><path stroke="#323232" stroke-linecap="round" stroke-linejoin="round" stroke-width="1.5" d="M16 14.5v-5"></path><path stroke="#323232" stroke-linecap="round" stroke-linejoin="round" stroke-width="1.5" d="M17 3h-10l-1.74846e-07 3.55271e-15c-2.20914 9.65645e-08-4 1.79086-4 4 0 0 0 0 0 0v10l4.61853e-14-6.03983e-07c-3.33571e-07 2.20914 1.79086 4 4 4h10l-1.74846e-07-3.55271e-15c2.20914 9.65645e-08 4-1.79086 4-4v-10h3.55271e-15c0-2.20914-1.79086-4-4-4Z"></path></g></svg>