<?xml version="1.0" encoding="UTF-8"?><svg version="1.1" viewBox="0 0 24 24" xmlns="http://www.w3.org/2000/svg" xmlns:xlink="http://www.w3.org/1999/xlink"><g fill="none"><path d="M0 0h24v24h-24Z"></path><path stroke="#323232" stroke-linecap="round" stroke-linejoin="round" stroke-width="1.5" d="M7.849 11.735l-3.2794e-09-3.27532e-09c.146538.146355.146685.383792.00032999.53033 -.146355.146538-.383792.146685-.53033.00032999 -.146538-.146355-.146685-.383792-.00032999-.53033 .000109926-.000110063.00021992-.000220057.000329983-.000329983l1.17133e-08-1.16987e-08c.146409-.146227.383591-.146227.53 2.33975e-08"></path><path stroke="#323232" stroke-linecap="round" stroke-linejoin="round" stroke-width="1.5" d="M12.265 11.735l-3.27939e-09-3.27532e-09c.146538.146355.146685.383792.00032999.53033 -.146355.146538-.383792.146685-.53033.00032999 -.146538-.146355-.146685-.383792-.00032999-.53033 .000109926-.000110063.00021992-.000220057.000329983-.000329983l1.17133e-08-1.16987e-08c.146409-.146227.383591-.146227.53 2.33975e-08"></path><path stroke="#323232" stroke-linecap="round" stroke-linejoin="round" stroke-width="1.5" d="M16 14.5v-5"></path><circle cx="12" cy="12" r="9" stroke="#323232" stroke-linecap="round" stroke-linejoin="round" stroke-width="1.5"></circle></g></svg>