<?xml version="1.0" encoding="UTF-8"?><svg version="1.1" viewBox="0 0 24 24" xmlns="http://www.w3.org/2000/svg" xmlns:xlink="http://www.w3.org/1999/xlink"><g stroke-linecap="round" stroke-width="1.5" stroke="#323232" fill="none" stroke-linejoin="round"><path d="M19 10v-5 0c0-1.10457-.895431-2-2-2h-12l-8.74228e-08 1.77636e-15c-1.10457 4.82823e-08-2 .895431-2 2 0 0 0 0 0 0v14l2.30926e-14 3.01992e-07c1.66785e-07 1.10457.895431 2 2 2h5"></path><path d="M17.147 20.707l3.56-3.56 -3.0608e-08 3.06172e-08c.390382-.3905.390382-1.0235 6.1216e-08-1.414l-1.586-1.586 4.18572e-08 4.18445e-08c-.3905-.390382-1.0235-.390382-1.414-8.3689e-08l-3.56 3.56 8.42765e-08-8.4251e-08c-.187549.187493-.292943.441805-.293.707v2.586h2.586l1.02845e-08-2.19558e-12c.265195-5.66401e-05.519507-.105451.707-.293Z"></path><path d="M11 12v3"></path><path d="M12.5 13.5h-3"></path><path d="M8 7h6"></path></g><path fill="none" d="M0 0h24v24h-24Z"></path></svg>