<svg id="Layer_3" data-name="Layer 3" xmlns="http://www.w3.org/2000/svg" viewBox="0 0 24 24"><path d="M8.004,15.50006h8" fill="none" stroke="#323232" stroke-linecap="round" stroke-linejoin="round" stroke-width="1.5"/><path d="M13.004,8.50006h-5" fill="none" stroke="#323232" stroke-linecap="round" stroke-linejoin="round" stroke-width="1.5"/><path d="M8.004,12.00006h8" fill="none" stroke="#323232" stroke-linecap="round" stroke-linejoin="round" stroke-width="1.5"/><path d="M19.449,20.396l-.99.49752a1,1,0,0,1-.89228.00287l-1.57248-.77759-1.5409.77407a1,1,0,0,1-.89456.00162L12,20.11849l-1.55876.776a1,1,0,0,1-.89456-.00162l-1.5409-.77407-1.57248.77759a1,1,0,0,1-.89228-.00287l-.99-.49752A1,1,0,0,1,4,19.50248V4.49752A1,1,0,0,1,4.551,3.604l.99-.49752a1,1,0,0,1,.89228-.00287l1.57248.77759,1.5409-.77407a1,1,0,0,1,.89456-.00162L12,3.88151l1.55876-.776a1,1,0,0,1,.89456.00162l1.5409.77407,1.57248-.77759a1,1,0,0,1,.89228.00287l.99.49752A1,1,0,0,1,20,4.49752v15.005A1,1,0,0,1,19.449,20.396Z" fill="none" stroke="#323232" stroke-linecap="round" stroke-linejoin="round" stroke-width="1.5"/><path d="M0,24H24V0H0Z" fill="none"/></svg>