<?xml version="1.0" encoding="UTF-8"?><svg version="1.1" viewBox="0 0 24 24" xmlns="http://www.w3.org/2000/svg" xmlns:xlink="http://www.w3.org/1999/xlink"><!--Generated by IJSVG (https://github.com/iconjar/IJSVG)--><g stroke-linecap="round" stroke-width="1.5" stroke="#323232" fill="none" stroke-linejoin="round"><path d="M17.5,21h-11c-1.105,0 -2,-0.895 -2,-2v-14c0,-1.105 0.895,-2 2,-2h11c1.105,0 2,0.895 2,2v14c0,1.105 -0.895,2 -2,2Z"></path><path d="M14,7.5h2"></path><path d="M14,10.5h2"></path><path d="M8,15h8"></path><path d="M8,18h8"></path><path d="M9.5,6.75v-0.75"></path><path d="M9.5,11.25v0.75"></path><path d="M8.198,10.714c0.194,0.318 0.526,0.538 0.927,0.538h0.375h0.447c0.582,0 1.053,-0.472 1.053,-1.053c0,-0.483 -0.329,-0.904 -0.797,-1.022l-1.406,-0.352c-0.468,-0.118 -0.797,-0.539 -0.797,-1.022c0,-0.581 0.472,-1.053 1.053,-1.053h0.447h0.375c0.4,0 0.731,0.219 0.925,0.536"></path></g><path fill="none" d="M0,0h24v24h-24Z"></path></svg>