<svg id="Layer_3" data-name="Layer 3" xmlns="http://www.w3.org/2000/svg" viewBox="0 0 24 24"><path d="M13.556,11l-1.944,1.944-1.167-1.167" fill="none" stroke="#323232" stroke-linecap="round" stroke-linejoin="round" stroke-width="1.5"/><path d="M9,16h6" fill="none" stroke="#323232" stroke-linecap="round" stroke-linejoin="round" stroke-width="1.5"/><path d="M20.04846,21V4.7169a.5.5,0,0,0-.75725-.42874l-1.41108.84664a1,1,0,0,1-1.029,0l-1.65383-.99229a1,1,0,0,0-1.029,0L12.5145,5.1348a1,1,0,0,1-1.029,0L9.83168,4.14251a1,1,0,0,0-1.029,0L7.14886,5.1348a1,1,0,0,1-1.029,0L4.70879,4.28816a.5.5,0,0,0-.75725.42874V21" fill="none" stroke="#323232" stroke-linecap="round" stroke-linejoin="round" stroke-width="1.5"/><line x1="21" y1="21" x2="3" y2="21" fill="none" stroke="#323232" stroke-linecap="round" stroke-linejoin="round" stroke-width="1.5"/><path d="M0,0H24V24H0Z" fill="none"/></svg>