<svg id="Layer_3" data-name="Layer 3" xmlns="http://www.w3.org/2000/svg" viewBox="0 0 24 24"><line x1="10.25" y1="11.25" x2="13.75" y2="11.25" fill="none" stroke="#323232" stroke-linecap="round" stroke-linejoin="round" stroke-width="1.5"/><line x1="10.25" y1="13.75" x2="13.75" y2="13.75" fill="none" stroke="#323232" stroke-linecap="round" stroke-linejoin="round" stroke-width="1.5"/><path d="M10.33333,8.215l1.22436-.60952a1,1,0,0,1,.89455.00162l1.20961.60764,1.23592-.61116a1,1,0,0,1,.89229.00287l.659.33115A1,1,0,0,1,17,8.83115V15.5a1,1,0,0,1-1,1H8a1,1,0,0,1-1-1V8.83141a1,1,0,0,1,.551-.89352l.659-.33115a1,1,0,0,1,.89229-.00287l1.23592.61116" fill="none" stroke="#323232" stroke-linecap="round" stroke-linejoin="round" stroke-width="1.5"/><rect x="2.5" y="2.5" width="19" height="19" rx="9.49999" stroke-width="1.5" stroke="#323232" stroke-linecap="round" stroke-linejoin="round" fill="none"/><path d="M0,24V0H24V24Z" fill="none"/></svg>