<svg id="Layer_3" data-name="Layer 3" xmlns="http://www.w3.org/2000/svg" viewBox="0 0 24 24"><rect x="3" y="3" width="18" height="18" rx="5" stroke-width="1.5" stroke="#323232" stroke-linecap="round" stroke-linejoin="round" fill="none"/><path d="M17,9v6.66859a1,1,0,0,1-.551.89352l-.659.33115a1,1,0,0,1-.89229.00287L13.66185,16.285h.00482l-1.22436.60952a1,1,0,0,1-.89455-.00162l-1.20961-.60764-1.23592.61116a1,1,0,0,1-.89229-.00287l-.659-.33115A1,1,0,0,1,7,15.66885V9A2,2,0,0,1,9,7h6A2,2,0,0,1,17,9Z" fill="none" stroke="#323232" stroke-linecap="round" stroke-linejoin="round" stroke-width="1.5"/><line x1="10" y1="10.25" x2="14" y2="10.25" fill="none" stroke="#323232" stroke-linecap="round" stroke-linejoin="round" stroke-width="1.5"/><line x1="10" y1="13.25" x2="14" y2="13.25" fill="none" stroke="#323232" stroke-linecap="round" stroke-linejoin="round" stroke-width="1.5"/><path d="M0,24V0H24V24Z" fill="none"/></svg>