<svg xmlns="http://www.w3.org/2000/svg" viewBox="0 0 24 24"><g id="Layer_2" data-name="Layer 2"><path d="M10.33333,7.715l1.22436-.60952a1,1,0,0,1,.89455.00162l1.20961.60764,1.23592-.61116a1,1,0,0,1,.89229.00287l.659.33115A1,1,0,0,1,17,8.33115v7.33744a1,1,0,0,1-.551.89352l-.659.33115a1,1,0,0,1-.89229.00287L13.66185,16.285h.00482l-1.22436.60952a1,1,0,0,1-.89455-.00162l-1.20961-.60764-1.23592.61116a1,1,0,0,1-.89229-.00287l-.659-.33115A1,1,0,0,1,7,15.66885V8.33141a1,1,0,0,1,.551-.89352l.659-.33115a1,1,0,0,1,.89229-.00287l1.23592.61116" fill="none" stroke="#323232" stroke-linecap="round" stroke-linejoin="round" stroke-width="1.5"/><rect x="3" y="3" width="18" height="18" rx="5" stroke-width="1.5" stroke="#323232" stroke-linecap="round" stroke-linejoin="round" fill="none"/><line x1="10" y1="10.5" x2="14" y2="10.5" fill="none" stroke="#323232" stroke-linecap="round" stroke-linejoin="round" stroke-width="1.5"/><line x1="10" y1="13.5" x2="14" y2="13.5" fill="none" stroke="#323232" stroke-linecap="round" stroke-linejoin="round" stroke-width="1.5"/><path d="M0,24V0H24V24Z" fill="none"/></g></svg>