<svg id="Layer_3" data-name="Layer 3" xmlns="http://www.w3.org/2000/svg" viewBox="0 0 24 24"><rect width="24" height="24" fill="none"/><path d="M20,19V4.49752a1,1,0,0,0-.551-.89352l-.99-.49752a1,1,0,0,0-.89228-.00287l-1.57248.77759-1.5409-.77407a1,1,0,0,0-.89456-.00162L12,3.88151l-1.55876-.776a1,1,0,0,0-.89456.00162l-1.5409.77407L6.4333,3.10361a1,1,0,0,0-.89228.00287l-.99.49752A1,1,0,0,0,4,4.49752V19a2,2,0,0,0,2,2H18A2,2,0,0,0,20,19Z" fill="none" stroke="#323232" stroke-linecap="round" stroke-linejoin="round" stroke-width="1.5"/><path d="M8.002,8.99994H12" fill="none" stroke="#323232" stroke-linecap="round" stroke-linejoin="round" stroke-width="1.5"/><path d="M12,15.99994H8.002" fill="none" stroke="#323232" stroke-linecap="round" stroke-linejoin="round" stroke-width="1.5"/><path d="M8.002,12.49994H12" fill="none" stroke="#323232" stroke-linecap="round" stroke-linejoin="round" stroke-width="1.5"/><path d="M15.0015,8.99994H16.002" fill="none" stroke="#323232" stroke-linecap="round" stroke-linejoin="round" stroke-width="1.5"/><path d="M16.002,15.99994H15.0015" fill="none" stroke="#323232" stroke-linecap="round" stroke-linejoin="round" stroke-width="1.5"/><path d="M15.0015,12.49994H16.002" fill="none" stroke="#323232" stroke-linecap="round" stroke-linejoin="round" stroke-width="1.5"/></svg>