<?xml version="1.0" encoding="UTF-8"?><svg version="1.1" viewBox="0 0 24 24" xmlns="http://www.w3.org/2000/svg" xmlns:xlink="http://www.w3.org/1999/xlink"><!--Generated by IJSVG (https://github.com/iconjar/IJSVG)--><g stroke-linecap="round" stroke-width="1.5" stroke="#323232" fill="none" stroke-linejoin="round"><path d="M16.875,7.021v0c0,-1.036 -0.839,-1.875 -1.875,-1.875v0"></path><path d="M20,6.021c0,-2.209 -1.791,-4 -4,-4"></path><path d="M10.499,17.854c-0.092,0 -0.167,0.075 -0.166,0.167c0,0.092 0.075,0.167 0.167,0.167c0.092,0 0.167,-0.075 0.167,-0.167c0,-0.092 -0.075,-0.167 -0.168,-0.167"></path><path d="M12,5.021h-6c-1.105,0 -2,0.895 -2,2v12c0,1.105 0.895,2 2,2h9c1.105,0 2,-0.895 2,-2v-9"></path></g><path fill="none" d="M0,0.021h24v24h-24v-24Z"></path></svg>