<svg id="Layer_3" data-name="Layer 3" xmlns="http://www.w3.org/2000/svg" viewBox="0 0 24 24"><path d="M0,0H24V24H0Z" fill="none"/><path d="M0,0H24V24H0Z" fill="none"/><path d="M19.70361,18.15583l-.74252,3.07864A1,1,0,0,1,17.989,22H15.011a.99994.99994,0,0,1-.9721-.76556l-.74249-3.07856" fill="none" stroke="#323232" stroke-linecap="round" stroke-linejoin="round" stroke-width="1.5"/><circle cx="16.5" cy="15.00001" r="4.5" fill="none" stroke="#323232" stroke-linecap="round" stroke-linejoin="round" stroke-width="1.5"/><path d="M13.29639,11.84419l.74252-3.07864A1,1,0,0,1,15.011,8H17.989a.99994.99994,0,0,1,.9721.76556l.74249,3.07856" fill="none" stroke="#323232" stroke-linecap="round" stroke-linejoin="round" stroke-width="1.5"/><path d="M16,5V4a2,2,0,0,0-2-2H6A2,2,0,0,0,4,4V18a2,2,0,0,0,2,2h4" fill="none" stroke="#323232" stroke-linecap="round" stroke-linejoin="round" stroke-width="1.5"/><path d="M7.5,2h5a0,0,0,0,1,0,0V3.9a.5.5,0,0,1-.5.5H8a.5.5,0,0,1-.5-.5V2A0,0,0,0,1,7.5,2Z" fill="none" stroke="#323232" stroke-linecap="round" stroke-linejoin="round" stroke-width="1.5"/></svg>