<svg id="Layer_3" data-name="Layer 3" xmlns="http://www.w3.org/2000/svg" viewBox="0 0 24 24"><path d="M0,0H24V24H0Z" fill="none"/><path d="M16,4.85855V4a2,2,0,0,0-2-2H6A2,2,0,0,0,4,4V18a2,2,0,0,0,2,2h4" fill="none" stroke="#323232" stroke-linecap="round" stroke-linejoin="round" stroke-width="1.5"/><path d="M12.50191,2V4a.5.5,0,0,1-.5.5H8A.5.5,0,0,1,7.5,4V2" fill="none" stroke="#323232" stroke-linecap="round" stroke-linejoin="round" stroke-width="1.5"/><path d="M19.59805,18.59359l-.637,2.64087A1,1,0,0,1,17.989,22H15.011a.99994.99994,0,0,1-.9721-.76556l-.637-2.64087" fill="none" stroke="#323232" stroke-linecap="round" stroke-linejoin="round" stroke-width="1.5"/><path d="M14.86291,11h3.27418a2.8629,2.8629,0,0,1,1.537.44758h0A2.86292,2.86292,0,0,1,21,13.86291v2.27418a2.86292,2.86292,0,0,1-1.32589,2.41533h0A2.8629,2.8629,0,0,1,18.13709,19H14.86291a2.8629,2.8629,0,0,1-1.537-.44758h0A2.86292,2.86292,0,0,1,12,16.13709V13.86291a2.86292,2.86292,0,0,1,1.32589-2.41533h0A2.8629,2.8629,0,0,1,14.86291,11Z" fill="none" stroke="#323232" stroke-linecap="round" stroke-linejoin="round" stroke-width="1.5"/><path d="M13.402,11.40641l.637-2.64087A1,1,0,0,1,15.011,8H17.989a.99994.99994,0,0,1,.9721.76556l.637,2.64087" fill="none" stroke="#323232" stroke-linecap="round" stroke-linejoin="round" stroke-width="1.5"/></svg>