<?xml version="1.0" encoding="UTF-8"?><svg version="1.1" viewBox="0 0 24 24" xmlns="http://www.w3.org/2000/svg" xmlns:xlink="http://www.w3.org/1999/xlink"><g stroke-linecap="round" stroke-width="1.5" stroke="#323232" fill="none" stroke-linejoin="round"><rect width="14" height="14" x="7" y="7" rx="1.65684" ry="0"></rect><line x1="14" x2="14" y1="12" y2="16"></line><line x1="12" x2="16" y1="14" y2="14"></line><path d="M7 17h-1l-1.31134e-07-3.55271e-15c-1.65685-7.24234e-08-3-1.34315-3-3 0 0 0-1.77636e-15 0-1.77636e-15v-8l3.37508e-14 4.52987e-07c-2.50178e-07-1.65685 1.34315-3 3-3h8l-1.31134e-07 2.66454e-15c1.65685-7.24234e-08 3 1.34315 3 3 0 0 0 1.77636e-15 0 1.77636e-15v1"></path></g><rect width="24" height="24" fill="none"></rect></svg>