<?xml version="1.0" encoding="UTF-8"?><svg version="1.1" viewBox="0 0 24 24" xmlns="http://www.w3.org/2000/svg" xmlns:xlink="http://www.w3.org/1999/xlink"><g stroke-linecap="round" stroke-width="1.5" stroke="#323232" fill="none" stroke-linejoin="round"><line x1="16" x2="11" y1="7" y2="7"></line><line x1="11" x2="16" y1="11" y2="11"></line><line x1="11" x2="16" y1="15" y2="15"></line><path d="M4 4.778v14.722c0 .743.782 1.227 1.447.894l.771-.386c.282-.141.613-.141.894 0l1.773.886c.281.141.613.141.894 0l1.773-.886c.281-.141.613-.141.894 0l1.773.886c.282.141.613.141.895 0l1.771-.886c.282-.141.613-.141.895 0l.772.386c.666.333 1.448-.151 1.448-.894v-14.722c0-.982-.796-1.778-1.778-1.778h-12.444c-.982 0-1.778.796-1.778 1.778Z"></path><path d="M7.874 6.875c-.068 0-.125.056-.124.125 0 .069.056.125.125.125 .069 0 .125-.056.125-.125 0-.069-.056-.125-.126-.125"></path><path d="M7.874 10.875c-.069 0-.125.056-.124.125 0 .069.056.125.125.125 .069 0 .125-.056.125-.125 0-.069-.056-.125-.126-.125"></path><path d="M7.874 14.875c-.069 0-.125.056-.124.125 0 .069.056.125.125.125 .069 0 .125-.056.125-.125 0-.069-.056-.125-.126-.125"></path></g><path fill="none" d="M0 0h24v24h-24v-24Z"></path></svg>