<?xml version="1.0" encoding="UTF-8"?><svg version="1.1" viewBox="0 0 24 24" xmlns="http://www.w3.org/2000/svg" xmlns:xlink="http://www.w3.org/1999/xlink"><path d="M5 16h-.556c-.797 0-1.444-.647-1.444-1.444v-10.112c0-.797.647-1.444 1.444-1.444h10.111c.798 0 1.445.647 1.445 1.444v.556" stroke-linecap="round" stroke-width="1.5" stroke="#323232" fill="none" stroke-linejoin="round"></path><path fill="none" stroke="#323232" stroke-width="1.5" d="M19.556 21h-10.112c-.797 0-1.444-.647-1.444-1.444v-10.112c0-.797.647-1.444 1.444-1.444h10.111c.798 0 1.445.647 1.445 1.444v10.111c0 .798-.647 1.445-1.444 1.445Z"></path><g stroke-linecap="round" stroke-width="1.5" stroke="#323232" fill="none" stroke-linejoin="round"><line x1="14.5" x2="14.5" y1="12" y2="17"></line><line x1="17" x2="12" y1="14.5" y2="14.5"></line></g><path fill="none" d="M0 0h24v24h-24v-24Z"></path></svg>