<svg id="Layer_3" data-name="Layer 3" xmlns="http://www.w3.org/2000/svg" viewBox="0 0 24 24"><rect x="3" y="3" width="18" height="18" rx="5" stroke-width="1.5" stroke="#323232" stroke-linecap="round" stroke-linejoin="round" fill="none"/><line x1="7" y1="16.5" x2="17" y2="16.5" fill="none" stroke="#323232" stroke-linecap="round" stroke-linejoin="round" stroke-width="1.5"/><line x1="7" y1="12.50001" x2="8.5" y2="12.50001" fill="none" stroke="#323232" stroke-linecap="round" stroke-linejoin="round" stroke-width="1.5"/><line x1="7" y1="8.50001" x2="8.5" y2="8.50001" fill="none" stroke="#323232" stroke-linecap="round" stroke-linejoin="round" stroke-width="1.5"/><path d="M14.6697,8.51413,14.5,8.68538l-.17541-.18427A1.60148,1.60148,0,0,0,12.01975,8.478l-.0358.03613a1.69021,1.69021,0,0,0,0,2.36789l1.80574,1.82231a1.001,1.001,0,0,0,1.42066,0L17.01606,10.882a1.69022,1.69022,0,0,0,0-2.3679h0A1.65329,1.65329,0,0,0,14.6697,8.51413Z" fill="none" stroke="#323232" stroke-linecap="round" stroke-linejoin="round" stroke-width="1.5"/><rect width="24" height="24" fill="none"/></svg>