<svg xmlns="http://www.w3.org/2000/svg" viewBox="0 0 24 24"><g id="Layer_2" data-name="Layer 2"><path d="M24,24H0V0H24Z" fill="none"/><path d="M20.04975,14.29288a1,1,0,0,0-1.41416,0l-2.84268,2.84268a1.00007,1.00007,0,0,0-.29291.70716V20h2.15727a1,1,0,0,0,.70715-.29291l2.84269-2.84269a1,1,0,0,0,0-1.41422Z" fill="none" stroke="#323232" stroke-linecap="round" stroke-linejoin="round" stroke-width="1.5"/><path d="M12,21a8.998,8.998,0,1,1,8.9-10" fill="none" stroke="#323232" stroke-linecap="round" stroke-linejoin="round" stroke-width="1.5"/><path d="M12.00019,11.95A.05.05,0,1,1,11.95,12a.04974.04974,0,0,1,.05019-.05" fill="none" stroke="#323232" stroke-linecap="round" stroke-linejoin="round" stroke-width="1.5"/><path d="M8.50019,11.95A.05.05,0,1,1,8.45,12a.04974.04974,0,0,1,.05019-.05" fill="none" stroke="#323232" stroke-linecap="round" stroke-linejoin="round" stroke-width="1.5"/><path d="M15.50019,11.95A.05.05,0,1,1,15.45,12a.04974.04974,0,0,1,.05019-.05" fill="none" stroke="#323232" stroke-linecap="round" stroke-linejoin="round" stroke-width="1.5"/><path d="M12.0002,8.45A.05.05,0,1,1,11.95,8.5a.04974.04974,0,0,1,.05019-.05" fill="none" stroke="#323232" stroke-linecap="round" stroke-linejoin="round" stroke-width="1.5"/><path d="M11.95,15.49981A.05.05,0,1,1,12,15.55a.04974.04974,0,0,1-.05-.05019" fill="none" stroke="#323232" stroke-linecap="round" stroke-linejoin="round" stroke-width="1.5"/></g></svg>