<?xml version="1.0" encoding="UTF-8"?><svg version="1.1" viewBox="0 0 24 24" xmlns="http://www.w3.org/2000/svg" xmlns:xlink="http://www.w3.org/1999/xlink"><g fill="none"><path d="M0 0h24v24h-24Z"></path><path stroke="#323232" stroke-linecap="round" stroke-linejoin="round" stroke-width="1.5" d="M21 5v0l7.56666e-08-.000550076c0-1.10427-.895184-1.99945-1.99945-1.99945 -.000366717 0-.000733434 1.00889e-07-.00110015 3.02667e-07v0"></path><path stroke="#323232" stroke-linecap="round" stroke-linejoin="round" stroke-width="1.5" d="M21 12v1"></path><path stroke="#323232" stroke-linecap="round" stroke-linejoin="round" stroke-width="1.5" d="M21 8v1"></path><path stroke="#323232" stroke-linecap="round" stroke-linejoin="round" stroke-width="1.5" d="M21 16v0l7.56666e-08.000550076c0 1.10427-.895184 1.99945-1.99945 1.99945 -.000366717 0-.000733434-1.00889e-07-.00110015-3.02667e-07v0"></path><path stroke="#323232" stroke-linecap="round" stroke-linejoin="round" stroke-width="1.5" d="M14 21h-9l-4.4316e-08 1.21929e-11c-1.10427.000303774-1.9997-.894634-2-1.9989 -1.00881e-07-.000366717-1.00873e-07-.000733434 2.44196e-11-.00110015v-9l-7.56666e-08-.000549774c-1.66739e-07-1.10427.895184-1.99945 1.99945-1.99945 .000366717-5.53726e-11.000733434 1.00778e-07.00110015 3.025e-07h9l1.07872e-07-2.9674e-11c1.10427-.000303739 1.9997.894634 2 1.9989 1.00869e-07.000366717 1.00849e-07.000733434-5.93907e-11.00110015v9l7.56369e-08.000549968c0 1.10427-.895184 1.99945-1.99945 1.99945 -.000549939 0-.00109988-2.26887e-07-.00164982-6.80661e-07Z"></path><path stroke="#323232" stroke-linecap="round" stroke-linejoin="round" stroke-width="1.5" d="M6 11.5h7"></path><path stroke="#323232" stroke-linecap="round" stroke-linejoin="round" stroke-width="1.5" d="M6 17.5h7"></path><path stroke="#323232" stroke-linecap="round" stroke-linejoin="round" stroke-width="1.5" d="M6 14.5h7"></path><path stroke="#323232" stroke-linecap="round" stroke-linejoin="round" stroke-width="1.5" d="M8 3v0l-4.4316e-08-1.21911e-11c-1.10427-.000303774-1.9997.894634-2 1.9989 -1.00881e-07.000366717-1.00873e-07.000733434 2.44196e-11.00110015h-1.22284e-11"></path><path stroke="#323232" stroke-linecap="round" stroke-linejoin="round" stroke-width="1.5" d="M15 3h1"></path><path stroke="#323232" stroke-linecap="round" stroke-linejoin="round" stroke-width="1.5" d="M11 3h1"></path></g></svg>