<svg viewBox="0 0 24 24" xmlns="http://www.w3.org/2000/svg" xmlns:xlink="http://www.w3.org/1999/xlink"><defs><path d="M3 12l6 0" id="c"/><path d="M21 4L3 4" id="b"/><path d="M3 8l10 0" id="a"/><path d="M3 16l5 0" id="d"/></defs><g stroke-linecap="round" stroke-width="1.5" stroke="#323232" fill="none" stroke-linejoin="round"><use xlink:href="#a"/><use xlink:href="#b"/><use xlink:href="#c"/><use xlink:href="#d"/><use xlink:href="#a"/><use xlink:href="#b"/><use xlink:href="#c"/><use xlink:href="#d"/><path d="M21 20L3 20"/><path d="M17 16l0 0c0-2.21-1.8-4-4-4.01l-.01-.001c2.2 0 3.99 1.79 4 3.99"/><path d="M17 8l-.01-.01c0 2.2 1.79 3.99 3.99 4l-.01 0c-2.21 0-4 1.79-4 4l-.01 0c0-2.21 1.79-4 3.99-4.01l-.01-.001c-2.21-.01-4-1.8-4-4.01l0-.01c0 2.2-1.8 3.99-4 4l-.01 0c2.2-.01 3.99-1.8 4-4"/></g><path fill="none" d="M0 0h24v24H0Z"/></svg>