<?xml version="1.0" encoding="UTF-8"?><svg version="1.1" viewBox="0 0 24 24" xmlns="http://www.w3.org/2000/svg" xmlns:xlink="http://www.w3.org/1999/xlink"><g stroke-linecap="round" stroke-width="1.5" stroke="#323232" fill="none" stroke-linejoin="round"><path d="M10 12h-5c-1.105 0-2-.895-2-2v-5c0-1.105.895-2 2-2h5c1.105 0 2 .895 2 2v5c0 1.105-.895 2-2 2Z"></path><path d="M18.5 20h-3c-.828 0-1.5-.672-1.5-1.5v-3c0-.828.672-1.5 1.5-1.5h3c.828 0 1.5.672 1.5 1.5v3c0 .828-.672 1.5-1.5 1.5Z"></path><path d="M19.5 11h-3c-.828 0-1.5-.672-1.5-1.5v-3c0-.828.672-1.5 1.5-1.5h3c.828 0 1.5.672 1.5 1.5v3c0 .828-.672 1.5-1.5 1.5Z"></path><path d="M9.5 21h-3c-.828 0-1.5-.672-1.5-1.5v-3c0-.828.672-1.5 1.5-1.5h3c.828 0 1.5.672 1.5 1.5v3c0 .828-.672 1.5-1.5 1.5Z"></path></g><rect width="24" height="24" fill="none"></rect></svg>