<svg viewBox="0 0 24 24" xmlns="http://www.w3.org/2000/svg"><g stroke-linecap="round" stroke-width="1.5" stroke="#323232" fill="none" stroke-linejoin="round"><path d="M19 15v0l-.01-.001c1.65 0 3-1.35 3-3v-3 0c0-1.66-1.35-3-3-3h-3"/><path d="M16 9V5.67l0 0c0-1.05-.8-1.91-1.84-2l-8.11-.68 0 0c-.56-.05-1.04.36-1.08.91 -.02.22.03.44.16.63l.68 1.02 -.01-.01c.1.16.16.35.16.55v2.86l0-.01c-3.31 2.46-3.99 7.13-1.52 10.43 .25.33.53.65.83.94l0 0c.38.39.9.61 1.45.62h8.44l-.01 0c.55-.01 1.07-.23 1.45-.63l-.01 0c2.98-2.84 3.09-7.56.25-10.54 -.3-.31-.61-.59-.95-.84Z"/><path d="M18.93 14L3.07 14"/><path d="M16 9L6 9"/></g><path fill="none" d="M24 24H0V0h24Z"/></svg>