<svg id="Layer_3" data-name="Layer 3" xmlns="http://www.w3.org/2000/svg" viewBox="0 0 24 24"><rect width="24" height="24" fill="none"/><path d="M6,10H9" fill="none" stroke="#323232" stroke-linecap="round" stroke-linejoin="round" stroke-width="1.5"/><path d="M7.5,8.5v3" fill="none" stroke="#323232" stroke-linecap="round" stroke-linejoin="round" stroke-width="1.5"/><path d="M19.6493,5.37612a21.94755,21.94755,0,0,0-15.29856,0A2.939,2.939,0,0,0,2.59939,7.36363,23.22693,23.22693,0,0,0,2.684,18.20327a2.00238,2.00238,0,0,0,1.301,1.36519l1.139.37957a.9959.9959,0,0,0,1.24293-.5732c.40047-1.00123,1.0478-2.61961,1.40146-3.50361a.9956.9956,0,0,1,.92723-.62555h6.60853a1,1,0,0,1,.92853.62866l1.39837,3.49623a1,1,0,0,0,1.24476.57732l1.13944-.37984a2.00239,2.00239,0,0,0,1.30079-1.36514,23.22793,23.22793,0,0,0,.08459-10.83923A2.939,2.939,0,0,0,19.6493,5.37612Z" fill="none" stroke="#323232" stroke-linecap="round" stroke-linejoin="round" stroke-width="1.5"/><path d="M14.35,10.00019a.175.175,0,1,1-.17522-.17522.175.175,0,0,1,.17522.17522" fill="none" stroke="#323232" stroke-linecap="round" stroke-linejoin="round" stroke-width="1.5"/><path d="M18,10.00019a.175.175,0,1,1-.17522-.17522A.175.175,0,0,1,18,10.00019" fill="none" stroke="#323232" stroke-linecap="round" stroke-linejoin="round" stroke-width="1.5"/><path d="M16.00022,11.65a.175.175,0,1,1-.17522.17522.175.175,0,0,1,.17522-.17522" fill="none" stroke="#323232" stroke-linecap="round" stroke-linejoin="round" stroke-width="1.5"/><path d="M16.00022,8a.175.175,0,1,1-.17522.17522A.175.175,0,0,1,16.00022,8" fill="none" stroke="#323232" stroke-linecap="round" stroke-linejoin="round" stroke-width="1.5"/></svg>