<svg id="Layer_3" data-name="Layer 3" xmlns="http://www.w3.org/2000/svg" viewBox="0 0 24 24"><rect width="24" height="24" fill="none"/><path d="M7,10.5h3" fill="none" stroke="#323232" stroke-linecap="round" stroke-linejoin="round" stroke-width="1.5"/><path d="M8.5,9v3" fill="none" stroke="#323232" stroke-linecap="round" stroke-linejoin="round" stroke-width="1.5"/><path d="M15.00433,16.5,18.281,20h0a3.71651,3.71651,0,0,0,3.55691-4.79393L19.77425,8.39322a5.94858,5.94858,0,0,0-4.84118-4.196,21.90965,21.90965,0,0,0-5.86628.00007,5.94857,5.94857,0,0,0-4.84109,4.196L2.162,15.20607A3.71651,3.71651,0,0,0,5.719,20h0l3.277-3.5Z" fill="none" stroke="#323232" stroke-linecap="round" stroke-linejoin="round" stroke-width="1.5"/><path d="M15.00048,8.5a.125.125,0,1,1-.12548.125.12434.12434,0,0,1,.12548-.125" fill="none" stroke="#323232" stroke-linecap="round" stroke-linejoin="round" stroke-width="1.5"/><path d="M15.00048,12.25a.125.125,0,1,1-.12548.125.12434.12434,0,0,1,.12548-.125" fill="none" stroke="#323232" stroke-linecap="round" stroke-linejoin="round" stroke-width="1.5"/><path d="M13.12548,10.375A.125.125,0,1,1,13,10.5a.12434.12434,0,0,1,.12548-.125" fill="none" stroke="#323232" stroke-linecap="round" stroke-linejoin="round" stroke-width="1.5"/><path d="M16.87548,10.375A.125.125,0,1,1,16.75,10.5a.12434.12434,0,0,1,.12548-.125" fill="none" stroke="#323232" stroke-linecap="round" stroke-linejoin="round" stroke-width="1.5"/></svg>