<?xml version="1.0" encoding="UTF-8"?><svg version="1.1" viewBox="0 0 24 24" xmlns="http://www.w3.org/2000/svg" xmlns:xlink="http://www.w3.org/1999/xlink"><g fill="none"><polyline points="24,14 24,0 0,0 0,24 24,24 24,14"></polyline><path stroke="#323232" stroke-linecap="round" stroke-linejoin="round" stroke-width="1.5" d="M10 11.461l3.316-3.326 2.71017e-08 7.10053e-08c-.883676-2.31519.276795-4.90838 2.59199-5.79206 2.31519-.883676 4.90838.276795 5.79206 2.59199 .883676 2.31519-.276795 4.90838-2.59199 5.79206 -1.05431.402415-2.22154.39278-3.26906-.0269852l-3.3 3.31h-2.539Z"></path><path stroke="#323232" stroke-linecap="round" stroke-linejoin="round" stroke-width="1.5" d="M17.625 6.505v0c0-.0690356-.0559644-.125-.125-.125 -.0690356 0-.125.0559644-.125.125 0 .0690356.0559644.125.125.125h-5.46392e-09c.0690356 3.01764e-09.125-.0559644.125-.125"></path><path stroke="#323232" stroke-linecap="round" stroke-linejoin="round" stroke-width="1.5" d="M10 3.231l-7.10818e-08 1.61353e-08c-4.84725 1.10031-7.88475 5.92175-6.78444 10.769 1.10031 4.84725 5.92175 7.88475 10.769 6.78444 3.37889-.766994 6.01745-3.40555 6.78444-6.78444"></path></g></svg>