<?xml version="1.0" encoding="UTF-8"?><svg version="1.1" viewBox="0 0 24 24" xmlns="http://www.w3.org/2000/svg" xmlns:xlink="http://www.w3.org/1999/xlink"><g stroke-linecap="round" stroke-width="1.5" stroke="#323232" fill="none" stroke-linejoin="round"><circle cx="9" cy="12" r="2.5"></circle><polyline points="11.5,12 17,12 17,14.25"></polyline><path d="M16 3h-8l-2.18557e-07 5.32907e-15c-2.76142 1.20706e-07-5 2.23858-5 5 0 0 0 1.77636e-15 0 1.77636e-15v8l5.68434e-14 7.54979e-07c4.16963e-07 2.76142 2.23858 5 5 5h8l-2.18557e-07-3.55271e-15c2.76142 1.20706e-07 5-2.23858 5-5v-8 -5.68434e-14c0-2.76142-2.23858-5-5-5 -2.54893e-07 0-5.00086e-07 1.86517e-14-7.54979e-07 5.68434e-14Z"></path></g><rect width="24" height="24" fill="none"></rect></svg>