<?xml version="1.0" encoding="UTF-8"?><svg version="1.1" viewBox="0 0 24 24" xmlns="http://www.w3.org/2000/svg" xmlns:xlink="http://www.w3.org/1999/xlink"><g stroke-linecap="round" stroke-width="1.5" stroke="#323232" fill="none" stroke-linejoin="round"><path d="M9.178 12.114l-2.359 2.364 -2.68011e-08 2.70216e-08c-.203704.205379-.31831.482733-.319.772v1.157l1.15463e-14 1.2698e-07c9.11482e-08.603647.489353 1.093 1.093 1.093h1.162l-4.84062e-08-2.26947e-11c.290118.000136035.56832-.115392.773-.321l2.354-2.359 2.06893e-07 7.21051e-08c.431035.150222.88357.229584 1.34.235l8.5269e-08 1.41918e-09c2.40266.0399888 4.38281-1.87533 4.4228-4.27799 .0399888-2.40266-1.87533-4.38281-4.27799-4.4228 -2.40266-.0399888-4.38281 1.87533-4.4228 4.27799 -.0083843.503757.0707894 1.00514.233991 1.4818Z"></path><rect width="18" height="18" x="3" y="3" rx="2.7614" ry="0"></rect><path d="M13.222 10.728h-2.18557e-09c-.0276142 1.20706e-09-.05.0223858-.05.05 1.20706e-09.0276142.0223858.05.05.05 .0276142-1.20706e-09.05-.0223858.05-.05v0c0-.0276142-.0223858-.05-.05-.05 0 0-1.77636e-15 0-1.77636e-15 0"></path></g><path fill="none" d="M0 0h24v24h-24Z"></path></svg>