<?xml version="1.0" encoding="UTF-8"?><svg version="1.1" viewBox="0 0 24 24" xmlns="http://www.w3.org/2000/svg" xmlns:xlink="http://www.w3.org/1999/xlink"><g stroke-linecap="round" stroke-width="1.5" stroke="#323232" fill="none" stroke-linejoin="round"><path d="M9 13.833l8.5158e-09-1.01993e-10c-.0922249.00110457-.166093.0767631-.164988.168988 .00110457.0922249.0767631.166093.168988.164988 .0914402-.00109517.164993-.0755293.165-.166976l4.3006e-10-1.1985e-05c0-.0922316-.0747684-.167-.167-.167 -.00067068 0-.00134135 4.04022e-06-.00201198 1.21204e-05"></path><path d="M6.02 13.772l2.39865e-09-1.43636e-11c-.0922299.000552283-.166549.0757671-.165997.167997 .000552283.0922299.0757671.166549.167997.165997 .0918385-.000549939.165998-.0751539.166-.166994l2.18304e-09 3.66812e-07c-.000549767-.0923931-.0756049-.167002-.168-.167"></path><path d="M15 17l-6 .05"></path><path d="M18.67 21h-13.339l-1.01891e-07-7.10543e-15c-1.28738-5.6273e-08-2.331-1.04362-2.331-2.331 0 0 0 0 0 0v-6.339l-7.54699e-08.000194917c.0004445-1.28699 1.04382-2.33009 2.33081-2.33019h13.3392l1.12741e-07-8.88178e-15c1.28682-5.62488e-08 2.33 1.04318 2.33 2.33 1.45732e-11.000333402-7.15312e-08.000666804-2.14637e-07.00100021v6.339h-3.55271e-15c0 1.28682-1.04318 2.33-2.33 2.33Z"></path><path d="M6.02 16.833l-7.2998e-09-3.55271e-15c-.0922316 4.03157e-09-.167.0747685-.167.167 4.03157e-09.0922316.0747685.167.167.167 .0922316-4.03157e-09.167-.0747685.167-.167 0 0 0 0 0 0l2.68093e-09-4.4378e-07c.000553713-.0916776-.0733168-.166446-.164994-.167 -.000668681-4.03869e-06-.00133738-4.0369e-06-.00200606 5.36305e-09"></path><path d="M11.985 13.894l2.39865e-09-1.43636e-11c-.0922299.000552283-.166549.0757671-.165997.167997 .000552283.0922299.0757671.166549.167997.165997 .0918385-.000549939.165998-.0751539.166-.166994l-1.26323e-09-1.06733e-07c-.00109545-.0925541-.0764395-.167006-.169-.167"></path><path d="M14.968 13.955l-7.2998e-09 1.77636e-15c-.0922316 4.03157e-09-.167.0747685-.167.167 4.03157e-09.0922316.0747685.167.167.167 .0922316-4.03157e-09.167-.0747685.167-.167 0 0 0 0 0 0l4.86457e-09 4.11665e-07c-.001089-.092166-.0758288-.166461-.168-.167"></path><path d="M17.986 17.26l2.9096e-09-1.74261e-11c.0922299-.000552286.166549-.0757671.165997-.167997 -.000552286-.0922299-.0757671-.166549-.167997-.165997 -.0918385.000549942-.165998.0751539-.166.166994l-2.29045e-09-3.84863e-07c.000549757.0923931.0756049.167002.168.167"></path><path d="M17.95 14.016h8.29683e-10c-.0922316 4.03157e-09-.167.0747685-.167.167 4.03157e-09.0922315.0747684.167.167.167h8.29683e-10c.0922316 4.03157e-09.167-.0747684.167-.167 4.03157e-09-.0922316-.0747684-.167-.167-.167 -5.18184e-09 0-1.07523e-08 0-1.59341e-08 0"></path><path d="M17 2v2 0c0 1.10457-.895431 2-2 2h-6l-8.74228e-08 1.77636e-15c-1.10457 4.82823e-08-2 .895431-2 2 0 0 0 0 0 0v2"></path></g><rect width="24" height="24" fill="none"></rect></svg>