<?xml version="1.0" encoding="UTF-8"?><svg version="1.1" viewBox="0 0 24 24" xmlns="http://www.w3.org/2000/svg" xmlns:xlink="http://www.w3.org/1999/xlink"><g stroke-linecap="round" stroke-width="1.5" stroke="#323232" fill="none" stroke-linejoin="round"><path d="M21 7.5v-1.5c0-1.657-1.343-3-3-3h-1.5 -10.5c-1.657 0-3 1.343-3 3v10.5 1.5c0 1.657 1.343 3 3 3h10.5 1.5c1.657 0 3-1.343 3-3v-10.5Z"></path><path d="M13.5 7.5l-1.5-1.5 -1.5 1.5"></path><path d="M10.5 16.5l1.5 1.5 1.5-1.5"></path><path d="M16.5 13.5l1.5-1.5 -1.5-1.5"></path><path d="M7.5 10.5l-1.5 1.5 1.5 1.5"></path></g><path fill="none" d="M0 0h24v24h-24v-24Z"></path></svg>