<?xml version="1.0" encoding="UTF-8"?><svg version="1.1" viewBox="0 0 24 24" xmlns="http://www.w3.org/2000/svg" xmlns:xlink="http://www.w3.org/1999/xlink"><g stroke-linecap="round" stroke-width="1.5" stroke="#323232" fill="none" stroke-linejoin="round"><path d="M16 19l-3.99 2h-.01l-4-2"></path><path d="M8.999 7.833c-.092 0-.166.075-.166.167 0 .092.075.167.167.167 .092 0 .167-.075.167-.167 0-.092-.075-.167-.168-.167"></path><path d="M6.017 7.772c-.092 0-.167.075-.166.167 0 .092.075.167.167.167 .092 0 .167-.075.167-.167 0-.092-.076-.167-.168-.167"></path><path d="M15 11l-6 .05"></path><path d="M18.667 15h-13.339c-1.287 0-2.331-1.043-2.331-2.331v-6.339c-4.44089e-16-1.287 1.044-2.33 2.331-2.33h13.339c1.287 0 2.331 1.043 2.331 2.331v6.339c-.001 1.287-1.044 2.33-2.331 2.33Z"></path><path d="M6.017 10.833c-.092 0-.167.075-.166.167 0 .092.075.167.167.167 .092 0 .166-.075.166-.167 0-.092-.075-.167-.167-.167"></path><path d="M11.982 7.894c-.092 0-.167.075-.166.167 0 .092.075.167.167.167 .092 0 .167-.075.167-.167 -.001-.092-.075-.167-.168-.167"></path><path d="M14.965 7.955c-.092 0-.167.075-.166.167 0 .092.075.167.167.167 .092 0 .167-.075.167-.167 -.001-.092-.076-.167-.168-.167"></path><path d="M17.983 11.26c.092 0 .167-.075.166-.167 0-.092-.075-.167-.167-.167 -.092 0-.167.075-.167.167 0 .092.076.167.168.167"></path><path d="M17.947 8.016c-.092 0-.167.075-.166.167 0 .092.075.167.167.167 .092 0 .167-.075.167-.167 -3.55271e-15-.092-.075-.167-.168-.167"></path></g><path fill="none" d="M0 0h24v24h-24v-24Z"></path></svg>