<svg viewBox="0 0 24 24" xmlns="http://www.w3.org/2000/svg"><g stroke-linecap="round" stroke-width="1.5" stroke="#323232" fill="none" stroke-linejoin="round"><path d="M3 8h18"/><path d="M10.86 5.495l-.01 0 0 0 0-.01 -.01-.01"/><path d="M8.327 5.495l-.01 0 0 0 0-.01 -.01-.01"/><path d="M5.77 5.49l-.01 0 0 0 0-.01 -.01-.01"/><path d="M10 21H5l-.01 0c-1.11 0-2-.9-2-2 -.01-.01-.01-.01 0-.01v-14l-.01-.01c-.01-1.11.89-2 1.99-2 0-.001 0 0 0 0h13.99l0-.001c1.1-.01 1.99.89 1.99 1.99 0 0 0 0-.001 0v5"/><path d="M15.16 16.64l-1.91 1.9 -.01 0c-.17.16-.26.39-.26.62v.93l-.001-.01c0 .48.39.88.88.88h.93l0 0c.23 0 .45-.1.62-.26l1.9-1.91 0 0c.34.12.71.18 1.08.19l0 0c1.93.03 3.53-1.52 3.57-3.46 .03-1.94-1.52-3.54-3.46-3.58 -1.94-.04-3.54 1.51-3.58 3.45 -.01.4.05.81.18 1.19Z"/><path d="M18.42 15.53h-.01c-.03 0-.05.01-.05.04 0 .02.01.04.04.04 .02-.01.04-.02.04-.05 0 0 0-.001 0-.001v0c0-.03-.02-.05-.05-.05v0"/></g><path fill="none" d="M0 0h24v24H0Z"/></svg>