<?xml version="1.0" encoding="UTF-8"?><svg version="1.1" viewBox="0 0 24 24" xmlns="http://www.w3.org/2000/svg" xmlns:xlink="http://www.w3.org/1999/xlink"><!--Generated by IJSVG (https://github.com/iconjar/IJSVG)--><g fill="none"><path d="M0,0h24v24h-24v-24Z"></path><path stroke="#323232" stroke-linecap="round" stroke-linejoin="round" stroke-width="1.5" d="M18.364,5.636c3.515,3.515 3.515,9.213 0,12.728c-3.515,3.515 -9.213,3.515 -12.728,0c-3.515,-3.515 -3.515,-9.213 0,-12.728c3.515,-3.515 9.213,-3.515 12.728,-8.88178e-16"></path><path stroke="#323232" stroke-linecap="round" stroke-linejoin="round" stroke-width="1.5" d="M12,21v-1"></path><path stroke="#323232" stroke-linecap="round" stroke-linejoin="round" stroke-width="1.5" d="M12,3v1"></path><path stroke="#323232" stroke-linecap="round" stroke-linejoin="round" stroke-width="1.5" d="M3,12h1"></path><path stroke="#323232" stroke-linecap="round" stroke-linejoin="round" stroke-width="1.5" d="M21,12h-1"></path><path stroke="#323232" stroke-linecap="round" stroke-linejoin="round" stroke-width="1.5" d="M13.243,10.888c0.069,0 0.125,-0.056 0.125,-0.125c0,-0.069 -0.057,-0.125 -0.125,-0.125c-0.069,0 -0.125,0.056 -0.125,0.125c0,0.069 0.056,0.125 0.125,0.125"></path><path stroke="#323232" stroke-linecap="round" stroke-linejoin="round" stroke-width="1.5" d="M10.157,11.742c-0.354,-1.122 -0.104,-2.396 0.783,-3.287c1.27,-1.273 3.329,-1.274 4.6,-0.002c1.271,1.271 1.274,3.336 0.006,4.61c-0.891,0.893 -2.167,1.146 -3.29,0.787l-0.007,0.006l-2.203,2.207c-0.581,0.582 -1.524,0.582 -2.105,0c-0.579,-0.58 -0.579,-1.52 0,-2.101l2.203,-2.207"></path></g></svg>