<svg id="Layer_3" data-name="Layer 3" xmlns="http://www.w3.org/2000/svg" viewBox="0 0 24 24"><path d="M19,21H5a2,2,0,0,1-2-2H3a1,1,0,0,1,1-1H20a1,1,0,0,1,1,1h0A2,2,0,0,1,19,21Z" fill="none" stroke="#323232" stroke-linecap="round" stroke-linejoin="round" stroke-width="1.5"/><path d="M4.5,18A7.263,7.263,0,0,1,12,11a7.263,7.263,0,0,1,7.5,7" fill="none" stroke="#323232" stroke-linecap="round" stroke-linejoin="round" stroke-width="1.5"/><path d="M11.85868,7.41091,12,7.5544l.14134-.14351a1.367,1.367,0,0,1,1.954,0h0a1.41816,1.41816,0,0,1,0,1.984l-1.21968,1.2384a1.22872,1.22872,0,0,1-1.75128,0L9.90469,9.39489a1.41815,1.41815,0,0,1,0-1.984h0A1.367,1.367,0,0,1,11.85868,7.41091Z" fill="none" stroke="#323232" stroke-linecap="round" stroke-linejoin="round" stroke-width="1.5"/><line x1="6" y1="8" x2="5" y2="8" fill="none" stroke="#323232" stroke-linecap="round" stroke-linejoin="round" stroke-width="1.5"/><line x1="8" y1="4" x2="7.29289" y2="3.29289" fill="none" stroke="#323232" stroke-linecap="round" stroke-linejoin="round" stroke-width="1.5"/><line x1="18" y1="8" x2="19" y2="8" fill="none" stroke="#323232" stroke-linecap="round" stroke-linejoin="round" stroke-width="1.5"/><line x1="16" y1="4" x2="16.70711" y2="3.29289" fill="none" stroke="#323232" stroke-linecap="round" stroke-linejoin="round" stroke-width="1.5"/><line x1="12" y1="3" x2="12" y2="2" fill="none" stroke="#323232" stroke-linecap="round" stroke-linejoin="round" stroke-width="1.5"/><path d="M0,0H24V24H0Z" fill="none"/></svg>