<svg id="Layer_3" data-name="Layer 3" xmlns="http://www.w3.org/2000/svg" viewBox="0 0 24 24"><path d="M3.29391,15.74171l7.44844-7.44882a1,1,0,0,1,1.41424,0l3.5431,3.5429a.98567.98567,0,0,1,.27311.92845,12.02735,12.02735,0,0,1-8.20757,8.20815.9773.9773,0,0,1-.925-.26965c-.79562-.79583-2.56031-2.5607-3.54837-3.54884A.99755.99755,0,0,1,3.29391,15.74171Z" fill="none" stroke="#323232" stroke-linecap="round" stroke-linejoin="round" stroke-width="1.5"/><path d="M13.86236,9.99852l4.43748-3.57559a1.87935,1.87935,0,0,0,.14973-2.7923h0" fill="none" stroke="#323232" stroke-linecap="round" stroke-linejoin="round" stroke-width="1.5"/><path d="M18.44957,3.63063h0a2.15312,2.15312,0,0,0-3.045,0L10.74235,8.29289" fill="none" stroke="#323232" stroke-linecap="round" stroke-linejoin="round" stroke-width="1.5"/><rect width="24" height="24" fill="none"/></svg>