<?xml version="1.0" encoding="UTF-8"?><svg version="1.1" viewBox="0 0 24 24" xmlns="http://www.w3.org/2000/svg" xmlns:xlink="http://www.w3.org/1999/xlink"><g fill="none"><path d="M0 0h24v24h-24Z"></path><path stroke="#323232" stroke-linecap="round" stroke-linejoin="round" stroke-width="1.5" d="M8 17.5l2 2 -2 2"></path><path stroke="#323232" stroke-linecap="round" stroke-linejoin="round" stroke-width="1.5" d="M10 19.5h-6"></path><path stroke="#323232" stroke-linecap="round" stroke-linejoin="round" stroke-width="1.5" d="M13.9975 20.2735l3.42075e-07-7.7882e-08c4.84546-1.10319 7.87917-5.92553 6.77598-10.771 -1.10319-4.84546-5.92553-7.87917-10.771-6.77598 -4.84546 1.10319-7.87917 5.92553-6.77598 10.771 .158146.694613.398222 1.36799.715186 2.00598"></path><path stroke="#323232" stroke-linecap="round" stroke-linejoin="round" stroke-width="1.5" d="M7.92651 11.3492v-1.84941l2.39808e-14 3.01992e-07c-1.66785e-07-1.10457.89543-2 2-2h1.84886l-5.73719e-08-2.04281e-13c.530403 1.87368e-06 1.03908.210693 1.41415.58573l2.87655 2.8763 4.22433e-08 4.22396e-08c.781082.781015.781137 2.04734.000122793 2.82843 -4.09575e-05 4.09611e-05-8.19168e-05 8.19204e-05-.000122878.000122878l-1.84961 1.84946 2.4567e-08-2.45649e-08c-.781081.781016-2.04741.780964-2.82843-.000117061 -2.76267e-05-2.7629e-05-5.52526e-05-5.52588e-05-8.28777e-05-8.28894e-05l-2.87579-2.87635 -1.20003e-07-1.20026e-07c-.37499-.375062-.585651-.883713-.58565-1.41408Z"></path><path stroke="#323232" stroke-linecap="round" stroke-linejoin="round" stroke-width="1.5" d="M10.8099 10.2838v0c0 .0276142-.0223858.05-.05.05 -.0276142 0-.05-.0223858-.05-.05 0-.0276142.0223858-.05.05-.05"></path><path stroke="#323232" stroke-linecap="round" stroke-linejoin="round" stroke-width="1.5" d="M10.7599 10.2338h-2.18557e-09c.0276142-1.20706e-09.05.0223858.05.05 0 0 0 1.77636e-15 0 1.77636e-15"></path></g></svg>