<?xml version="1.0" encoding="UTF-8"?><svg version="1.1" viewBox="0 0 24 24" xmlns="http://www.w3.org/2000/svg" xmlns:xlink="http://www.w3.org/1999/xlink"><!--Generated by IJSVG (https://github.com/iconjar/IJSVG)--><g stroke-linecap="round" stroke-width="1.5" stroke="#323232" fill="none" stroke-linejoin="round"><path d="M19.3891,13.5858c2.14788,0.781049 2.14788,2.04738 0,2.82843c-2.14788,0.781049 -5.63029,0.781049 -7.77817,0c-2.14788,-0.781049 -2.14788,-2.04738 -1.77636e-15,-2.82843c2.14788,-0.781049 5.63029,-0.781049 7.77817,0"></path><path d="M21,15v0.5c0,3.038 -2.462,5.5 -5.5,5.5v0c-3.038,0 -5.5,-2.462 -5.5,-5.5v-0.5v-9c0,-1.657 -1.343,-3 -3,-3v0c-1.657,0 -3,1.343 -3,3v0"></path></g><path fill="none" d="M0,0h24v24h-24Z"></path></svg>