<?xml version="1.0" encoding="UTF-8"?><svg version="1.1" viewBox="0 0 24 24" xmlns="http://www.w3.org/2000/svg" xmlns:xlink="http://www.w3.org/1999/xlink"><g fill="none"><path d="M24 24h-24v-24h24Z"></path><path stroke="#323232" stroke-linecap="round" stroke-linejoin="round" stroke-width="1.5" d="M14 21h5l-8.74228e-08-3.55271e-15c1.10457 4.82823e-08 2-.89543 2-2v-4"></path><path stroke="#323232" stroke-linecap="round" stroke-linejoin="round" stroke-width="1.5" d="M10 3h-5l-8.74228e-08 1.77636e-15c-1.10457 4.82823e-08-2 .895431-2 2 0 0 0 8.88178e-16 0 8.88178e-16v5"></path><circle cx="17" cy="7" r="5" stroke="#323232" stroke-linecap="round" stroke-linejoin="round" stroke-width="1.5"></circle><path stroke="#323232" stroke-linecap="round" stroke-linejoin="round" stroke-width="1.5" d="M7 22v0l-2.18557e-07-7.10543e-15c-2.76142-1.20706e-07-5-2.23858-5-5 0 0 0-3.55271e-15 0-3.55271e-15h-5.32907e-15l5.68434e-14 7.54979e-07c-4.16963e-07-2.76142 2.23858-5 5-5h7.54979e-07l-2.18557e-07 5.32907e-15c2.76142-1.20706e-07 5 2.23858 5 5v0l1.77636e-14 4.37114e-07c0 2.76142-2.23858 5-5 5 -1.52394e-07 0-2.8472e-07-7.10543e-15-4.37114e-07-1.77636e-14Z"></path><path stroke="#323232" stroke-linecap="round" stroke-linejoin="round" stroke-width="1.5" d="M5.464 17.83h3.082"></path><polyline stroke="#323232" stroke-linecap="round" stroke-linejoin="round" stroke-width="1.5" points="8.8,18.55 7.504,14.95 6.496,14.95 5.2,18.55"></polyline><line x1="18.5" x2="17" y1="6.12" y2="6.12" stroke="#323232" stroke-linecap="round" stroke-linejoin="round" stroke-width="1.5"></line><line x1="17" x2="17" y1="4.96" y2="6.12" stroke="#323232" stroke-linecap="round" stroke-linejoin="round" stroke-width="1.5"></line><line x1="15.5" x2="17" y1="6.12" y2="6.12" stroke="#323232" stroke-linecap="round" stroke-linejoin="round" stroke-width="1.5"></line><path stroke="#323232" stroke-linecap="round" stroke-linejoin="round" stroke-width="1.5" d="M18.356 8.625l2.85927e-07 1.86433e-07c-.845044-.550995-1.35501-1.49119-1.356-2.5"></path><path stroke="#323232" stroke-linecap="round" stroke-linejoin="round" stroke-width="1.5" d="M17 6.125l2.47601e-08-2.52451e-05c-.000985165 1.00881-.51094 1.94901-1.35598 2.50001"></path></g></svg>