<svg id="Layer_3" data-name="Layer 3" xmlns="http://www.w3.org/2000/svg" viewBox="0 0 24 24"><path d="M20.5,14l1.89434,3.78891a1.00006,1.00006,0,0,1,.10556.44708l.00006.51276a2.23423,2.23423,0,0,1-2.18384,2.25119L20.29991,21H3.7l-.01621-.00007A2.2436,2.2436,0,0,1,1.5,18.73624l0-.50021a1,1,0,0,1,.10557-.44712L3.5,14V4a1,1,0,0,1,1-1h15a1,1,0,0,1,1,1Z" fill="none" stroke="#323232" stroke-linecap="round" stroke-linejoin="round" stroke-width="1.5"/><line x1="22.47035" y1="18.00001" x2="1.52989" y2="18.00001" fill="none" stroke="#323232" stroke-linecap="round" stroke-linejoin="round" stroke-width="1.5"/><line x1="3.5" y1="14.00001" x2="20.5" y2="14.00001" fill="none" stroke="#323232" stroke-linecap="round" stroke-linejoin="round" stroke-width="1.5"/><rect y="0.00001" width="24" height="24" fill="none"/></svg>