<?xml version="1.0" encoding="UTF-8"?><svg version="1.1" viewBox="0 0 24 24" xmlns="http://www.w3.org/2000/svg" xmlns:xlink="http://www.w3.org/1999/xlink"><g stroke-linecap="round" stroke-width="1.5" stroke="#323232" fill="none" stroke-linejoin="round"><path d="M17.077 13.385h-2.277l6.98592e-09 9.29745e-12c-.308467-.000410511-.596704.153466-.768.41l-.375.563 3.59447e-08-5.36292e-08c-.171667.256125-.459667.409875-.768.41h-1.78l5.79024e-09 2.34657e-12c-.308333-.000124985-.596333-.153875-.768-.41l-.375-.558 -1.33017e-08-1.98957e-08c-.17142-.256397-.459577-.410231-.768-.41h-2.275l-4.95282e-08-7.24754e-13c-.507813-7.42373e-06-.920249.410195-.923.918v.923l-5.12873e-08 9.95536e-05c-.000497453 1.01897.825134 1.8454 1.8441 1.8459 .000666847 3.25551e-07.00133369 2.89569e-07.00200054-1.07946e-07h8.308l-2.17619e-08-1.06262e-11c1.01897.000497465 1.8454-.825134 1.8459-1.8441 3.09348e-07-.000633643 2.92271e-07-.00126729-5.12331e-08-.00190093v-.923 -2.17619e-08c0-.509759-.413241-.923-.923-.923 -1.15838e-08 0-1.01898e-08 0-2.17736e-08 0Z"></path><rect width="18" height="18" x="3" y="3" rx="2.7614" ry="0"></rect><path d="M17.077 13.385v-4.616l5.03833e-08 9.7874e-05c-.0004977-1.01929-.826613-1.84549-1.8459-1.8461h-6.6671l9.95011e-08 5.79226e-09c-.852482-.0496255-1.5853.597894-1.641 1.45v5.012"></path></g><path fill="none" d="M0 0h24v24h-24Z"></path></svg>