<?xml version="1.0" encoding="UTF-8"?><svg version="1.1" viewBox="0 0 24 24" xmlns="http://www.w3.org/2000/svg" xmlns:xlink="http://www.w3.org/1999/xlink"><g fill="none"><path d="M0 0h24v24h-24Z"></path><path stroke="#323232" stroke-linecap="round" stroke-linejoin="round" stroke-width="1.5" d="M20 17h-3.465l3.77439e-08 5.64881e-12c-.334279-5.00359e-05-.646475.16693-.832.445l-.406.609 -2.17191e-08 3.25532e-08c-.185525.27807-.497721.44505-.832.445h-4.93l3.77439e-08-5.64881e-12c-.334279 5.00359e-05-.646475-.16693-.832-.445l-.403-.609 -1.98201e-08-2.97076e-08c-.186309-.279252-.500305-.446391-.836-.445h-3.464 -4.37114e-08c-.552285 2.41411e-08-1 .447715-1 1 0 0 0 3.55271e-15 0 3.55271e-15v1l2.4869e-14 3.01992e-07c1.66785e-07 1.10457.895431 2 2 2h14l-8.74228e-08-3.55271e-15c1.10457 4.82823e-08 2-.89543 2-2v-1h3.55271e-15c0-.552285-.447715-1-1-1Z"></path><path stroke="#323232" stroke-linecap="round" stroke-linejoin="round" stroke-width="1.5" d="M20 17v-2"></path><path stroke="#323232" stroke-linecap="round" stroke-linejoin="round" stroke-width="1.5" d="M4 17v-10l2.30926e-14 3.01992e-07c-1.66785e-07-1.10457.89543-2 2-2h3"></path><path stroke="#323232" stroke-linecap="round" stroke-linejoin="round" stroke-width="1.5" d="M12.54 7.178v4.822"></path><path stroke="#323232" stroke-linecap="round" stroke-linejoin="round" stroke-width="1.5" d="M20.54 12v-4.892"></path><line x1="16.44" x2="16.44" y1="12" y2="10" stroke="#323232" stroke-linecap="round" stroke-linejoin="round" stroke-width="1.5"></line><path stroke="#323232" stroke-linecap="round" stroke-linejoin="round" stroke-width="1.5" d="M12.04 12h8.96"></path><path stroke="#323232" stroke-linecap="round" stroke-linejoin="round" stroke-width="1.5" d="M16.444 7.237l-6.06905e-08-6.35403e-12c.746167 7.81308e-05 1.40942-.47534 1.649-1.182l-1.82337e-09 4.13526e-09c.0222821-.0505341.0813113-.0734368.131845-.0511546 .022838.01007.0410846.0283166.0511546.0511546l1.24412e-08 3.65975e-08c.240215.706624.903662 1.18189 1.65 1.182"></path><path stroke="#323232" stroke-linecap="round" stroke-linejoin="round" stroke-width="1.5" d="M12.962 7.237l2.80595e-08-4.03944e-12c.746338-.000107444 1.40978-.475376 1.65-1.182l-1.82338e-09 4.13526e-09c.0222821-.0505341.0813113-.0734368.131845-.0511546 .022838.01007.0410846.0283166.0511546.0511546l-4.02651e-08-1.18765e-07c.239579.706659.902832 1.18208 1.649 1.182"></path><path stroke="#323232" stroke-linecap="round" stroke-linejoin="round" stroke-width="1.5" d="M19.926 7.237l7.29023e-08-1.22394e-10c.837815-.00140661 1.51586-.68173 1.51445-1.51954 -.000396854-.236377-.0560263-.469391-.162451-.680455l-.659-1.3 3.52013e-08 6.9148e-08c-.230348-.452486-.695257-.737305-1.203-.737h-5.944l-3.74856e-09 7.49845e-12c-.506884.0010139-.970418.286087-1.2.738l-.658 1.3 -5.2682e-08 1.04203e-07c-.377763.747198-.0782772 1.65916.668921 2.03692 .211489.106923.445098.162776.682079.163077v0"></path></g></svg>