<?xml version="1.0" encoding="UTF-8"?><svg version="1.1" viewBox="0 0 24 24" xmlns="http://www.w3.org/2000/svg" xmlns:xlink="http://www.w3.org/1999/xlink"><!--Generated by IJSVG (https://github.com/iconjar/IJSVG)--><g fill="none"><path d="M0,0h24v24h-24Z"></path><path stroke="#323232" stroke-linecap="round" stroke-linejoin="round" stroke-width="1.5" d="M19,17h-3.465c-0.334,0 -0.647,0.167 -0.832,0.445l-0.406,0.609c-0.185,0.278 -0.498,0.445 -0.832,0.445h-4.93c-0.334,0 -0.647,-0.167 -0.832,-0.445l-0.406,-0.609c-0.186,-0.278 -0.498,-0.445 -0.833,-0.445h-3.464c-0.552,0 -1,0.448 -1,1v1c0,1.105 0.895,2 2,2h14c1.105,0 2,-0.895 2,-2v-1c0,-0.552 -0.448,-1 -1,-1Z"></path><path stroke="#323232" stroke-linecap="round" stroke-linejoin="round" stroke-width="1.5" d="M11,5h-6.222c-0.982,0 -1.778,0.703 -1.778,1.571v10.429"></path><path stroke="#323232" stroke-linecap="round" stroke-linejoin="round" stroke-width="1.5" d="M19,17v-4"></path><path stroke="#323232" stroke-linecap="round" stroke-linejoin="round" stroke-width="1.5" d="M19.75,8.69l2.25,2.31"></path><path stroke="#323232" stroke-linecap="round" stroke-linejoin="round" stroke-width="1.5" d="M19.7528,3.97621c1.30162,1.30162 1.30162,3.41196 0,4.71357c-1.30162,1.30162 -3.41196,1.30162 -4.71357,1.77636e-15c-1.30162,-1.30162 -1.30162,-3.41196 -1.77636e-15,-4.71357c1.30162,-1.30162 3.41196,-1.30162 4.71357,-1.33227e-15"></path></g></svg>