<svg viewBox="0 0 24 24" xmlns="http://www.w3.org/2000/svg"><g fill="none"><path d="M0 0h24v24H0Z"/><g stroke-linecap="round" stroke-width="1.5" stroke="#323232" fill="none" stroke-linejoin="round"><path d="M20 17h-3.465l0 0c-.34-.01-.65.16-.84.44l-.41.6 -.01 0c-.19.27-.5.44-.84.44h-4.93l0-.001c-.34 0-.65-.17-.84-.45l-.41-.61 0 0c-.19-.28-.5-.45-.84-.45H3.94l-.01 0c-.56 0-1 .44-1 1v1l-.01 0c-.01 1.1.89 1.99 1.99 1.99 0 0 0-.01 0-.01h13.99l0 0c1.1 0 1.99-.9 1.99-2 0-.01 0-.01-.001-.01v-1l0 0c-.01-.56-.45-1-1-1.01Z"/><path d="M10 5H6l-.01 0c-1.11 0-2 .89-2 2 0 0 0 0 0 0v10"/><path d="M20 17v-2"/><path d="M18.125 6.29l0 0c.78.78.78 2.04 0 2.82 -.79.78-2.05.78-2.83 0 -.79-.79-.79-2.05-.01-2.83 0-.01 0-.01 0-.01l0-.01c.78-.79 2.04-.79 2.82-.01 0 0 0 0 0 0"/><path d="M19 9.99l-.88-.88"/><path d="M17 3a5 5 0 1 0 0 10 5 5 0 1 0 0-10Z"/></g></g></svg>