<svg id="Layer_3" data-name="Layer 3" xmlns="http://www.w3.org/2000/svg" viewBox="0 0 24 24"><path d="M0,0H24V24H0Z" fill="none"/><path d="M18.5,14H5.5A1.5,1.5,0,0,1,4,12.5V5A2,2,0,0,1,6,3H8" fill="none" stroke="#323232" stroke-linecap="round" stroke-linejoin="round" stroke-width="1.5"/><path d="M18.99906,21H5.00094a1.99972,1.99972,0,0,1-1.92281-2.549l1.06431-3.72568A1,1,0,0,1,5.104,14H18.896a1,1,0,0,1,.96153.72532L20.92187,18.451A1.99972,1.99972,0,0,1,18.99906,21Z" fill="none" stroke="#323232" stroke-linecap="round" stroke-linejoin="round" stroke-width="1.5"/><line x1="10" y1="18" x2="14" y2="18" fill="none" stroke="#323232" stroke-linecap="round" stroke-linejoin="round" stroke-width="1.5"/><line x1="9" y1="7" x2="11" y2="7" fill="none" stroke="#323232" stroke-linecap="round" stroke-linejoin="round" stroke-width="1.5"/><line x1="11" y1="10" x2="13" y2="10" fill="none" stroke="#323232" stroke-linecap="round" stroke-linejoin="round" stroke-width="1.5"/><path d="M18.7067,4.29277,20.707,6.29251a1,1,0,0,1,.0002,1.41421L18.70747,9.707a1,1,0,0,1-1.41422.0002L15.293,7.70749a1,1,0,0,1-.0002-1.41421L17.29249,4.293A1,1,0,0,1,18.7067,4.29277Z" fill="none" stroke="#323232" stroke-linecap="round" stroke-linejoin="round" stroke-width="1.5"/><line x1="11" y1="3.96714" x2="13" y2="3.96714" fill="none" stroke="#323232" stroke-linecap="round" stroke-linejoin="round" stroke-width="1.5"/></svg>