<svg id="Layer_3" data-name="Layer 3" xmlns="http://www.w3.org/2000/svg" viewBox="0 0 24 24"><path d="M0,0H24V24H0Z" fill="none"/><path d="M18.5,14H5.5A1.5,1.5,0,0,1,4,12.5V5A2,2,0,0,1,6,3h4" fill="none" stroke="#323232" stroke-linecap="round" stroke-linejoin="round" stroke-width="1.5"/><path d="M18.99906,21H5.00094a1.99972,1.99972,0,0,1-1.92281-2.549l1.06431-3.72568A1,1,0,0,1,5.104,14H18.896a1,1,0,0,1,.96153.72532L20.92187,18.451A1.99972,1.99972,0,0,1,18.99906,21Z" fill="none" stroke="#323232" stroke-linecap="round" stroke-linejoin="round" stroke-width="1.5"/><line x1="10" y1="18" x2="14" y2="18" fill="none" stroke="#323232" stroke-linecap="round" stroke-linejoin="round" stroke-width="1.5"/><path d="M16.55708,10.95339h0a4.3903,4.3903,0,0,1-3.52929-4.305V5.25a2.25,2.25,0,0,1,2.25-2.25h3.5a2.25,2.25,0,0,1,2.25,2.25V6.64833a4.3903,4.3903,0,0,1-3.5292,4.305l-.00009,0A2.39977,2.39977,0,0,1,16.55708,10.95339Z" fill="none" stroke="#323232" stroke-linecap="round" stroke-linejoin="round" stroke-width="1.5"/><line x1="16.77778" y1="7.69792" x2="18.27778" y2="6.19792" fill="none" stroke="#323232" stroke-linecap="round" stroke-linejoin="round" stroke-width="1.5"/><line x1="15.77778" y1="6.69792" x2="16.77778" y2="7.69792" fill="none" stroke="#323232" stroke-linecap="round" stroke-linejoin="round" stroke-width="1.5"/></svg>