<svg id="Layer_3" data-name="Layer 3" xmlns="http://www.w3.org/2000/svg" viewBox="0 0 24 24"><path d="M0,0H24V24H0Z" fill="none"/><path d="M19,17H15.535a1,1,0,0,0-.832.445l-.406.609a1,1,0,0,1-.832.445H8.535a1,1,0,0,1-.832-.445l-.406-.609A1.00173,1.00173,0,0,0,6.464,17H3a1.00036,1.00036,0,0,0-1,1v1a1.99945,1.99945,0,0,0,2,2H18a1.99945,1.99945,0,0,0,2-2V18A1.00036,1.00036,0,0,0,19,17Z" fill="none" stroke="#323232" stroke-linecap="round" stroke-linejoin="round" stroke-width="1.5"/><path d="M19,17V13" fill="none" stroke="#323232" stroke-linecap="round" stroke-linejoin="round" stroke-width="1.5"/><path d="M14.5,10v1.499a.5.5,0,0,0,.81572.38771L17.63263,10H20a2,2,0,0,0,2-2V4a2,2,0,0,0-2-2H13a2,2,0,0,0-2,2V8a2,2,0,0,0,2,2Z" fill="none" stroke="#323232" stroke-linecap="round" stroke-linejoin="round" stroke-width="1.5"/><path d="M3,17V7A1.99945,1.99945,0,0,1,5,5H8" fill="none" stroke="#323232" stroke-linecap="round" stroke-linejoin="round" stroke-width="1.5"/></svg>