<svg id="Layer_3" data-name="Layer 3" xmlns="http://www.w3.org/2000/svg" viewBox="0 0 24 24"><g id="Light"><path d="M22.5,17.25v.738a1.98765,1.98765,0,0,1-1.77382,1.98744C20.55782,19.99193,20.40954,20,20.3,20H3.7a4.19224,4.19224,0,0,1-.45223-.03133A1.99169,1.99169,0,0,1,1.5,17.984V17.25A.25.25,0,0,1,1.75,17h20.5A.25.25,0,0,1,22.5,17.25Z" fill="none" stroke="#323232" stroke-linecap="round" stroke-linejoin="round" stroke-width="1.5"/></g><path d="M4.5,4h15a1,1,0,0,1,1,1V17a0,0,0,0,1,0,0H3.5a0,0,0,0,1,0,0V5A1,1,0,0,1,4.5,4Z" fill="none" stroke="#323232" stroke-linecap="round" stroke-linejoin="round" stroke-width="1.5"/><rect width="24" height="24" fill="none"/></svg>