<svg viewBox="0 0 24 24" xmlns="http://www.w3.org/2000/svg"><g stroke-linecap="round" stroke-width="1.5" stroke="#323232" fill="none" stroke-linejoin="round"><path d="M17.4 12.96l0-4.17"/><path d="M6.6 15.05l3.6 2.09"/><path d="M13.8 10.88l-7.2 4.17"/><path d="M13.8 6.71l3.6 2.08"/><path d="M3 17.14L3 4.78"/><path d="M17.401 12.964l-3.6-2.09 0-4.17 3.6-2.09L21 6.69l0 4.171 -3.6 2.08"/><path d="M17.4 17.13l-7.2 4.18"/><path d="M10.2 21.31L3 17.14"/><path d="M10.2 21.31l0-4.17"/><path d="M10.2 17.14l7.2-4.18"/><path d="M17.4 12.96v4.17"/><path d="M17.4 8.79L21 6.71"/><path d="M6.6 6.86l0 8.19"/><path d="M10.2 12.97l0-8.19"/><path d="M6.6 2.69L3 4.77 6.6 6.85l3.6-2.09 -3.61-2.09Z"/></g><path fill="none" d="M0 24V0h24v24Z"/></svg>