<?xml version="1.0" encoding="UTF-8"?><svg version="1.1" viewBox="0 0 24 24" xmlns="http://www.w3.org/2000/svg" xmlns:xlink="http://www.w3.org/1999/xlink"><g stroke-linecap="round" stroke-width="1.5" stroke="#323232" fill="none" stroke-linejoin="round"><path d="M11.621 8.369l-1.12286e-07 1.77636e-15c-2.00535 8.76565e-08-3.631 1.62565-3.631 3.631 8.76565e-08 2.00535 1.62565 3.631 3.631 3.631 2.958 0 3.684-3.632 5.379-4.6l1.1396e-08 1.5303e-08c-1.26371-1.69697-3.26333-2.68655-5.379-2.662Z"></path><path d="M20.16 19.235v-2.735h-2.734"></path><path d="M4.205 16.5l5.3239e-07 9.24816e-07c2.4771 4.30298 7.97343 5.78314 12.2764 3.30605 1.37227-.789977 2.51156-1.92838 3.30259-3.30005"></path><path d="M3.074 13.126l-1.41269e-07-1.09461e-06c-.634591-4.91708 2.83705-9.4176 7.75413-10.0522 .388594-.0501513.780054-.0748075 1.17187-.0738106h.006l8.39039e-08-1.90054e-10c4.9573-.011229 8.98508 3.99835 8.99631 8.95565 .00088257.389631-.0236055.778906-.0733089 1.16535"></path><path d="M12.059 11.605l-4.4099e-07 7.37751e-08c-2.03054.339698-3.82006 1.52871-4.92 3.269"></path></g><path fill="none" d="M0 0h24v24h-24Z"></path></svg>