<svg xmlns="http://www.w3.org/2000/svg" viewBox="0 0 24 24"><g id="Layer_2" data-name="Layer 2"><path d="M24,24,0,24,0,0,24,0Z" fill="none"/><path d="M20,12.52085c0,3.77466-4.64474,6.57871-6.85981,7.70459a2.50478,2.50478,0,0,1-2.27648.002C8.65019,19.10272,4,16.29179,4,12.52085L4,7.06943a1.01225,1.01225,0,0,1,.9021-.99168A11.39247,11.39247,0,0,0,10.77472,3.9059a2.05228,2.05228,0,0,1,2.45054,0,11.39248,11.39248,0,0,0,5.87262,2.17185A1.01136,1.01136,0,0,1,20,7.06853Z" fill="none" stroke="#323232" stroke-linecap="round" stroke-linejoin="round" stroke-width="1.5"/><line x1="9.84504" y1="14.15895" x2="8.99999" y2="15" fill="none" stroke="#323232" stroke-linecap="round" stroke-linejoin="round" stroke-width="1.5"/><path d="M13.84045,14.18955h0A2.8256,2.8256,0,0,1,9.845,14.159h0a2.82524,2.82524,0,0,1-.0306-3.9956h0A5.30854,5.30854,0,0,1,14.034,9.02819a1.02,1.02,0,0,1,.94154.94159A5.30829,5.30829,0,0,1,13.84045,14.18955Z" fill="none" stroke="#323232" stroke-linecap="round" stroke-linejoin="round" stroke-width="1.5"/></g></svg>