<svg id="Layer_3" data-name="Layer 3" xmlns="http://www.w3.org/2000/svg" viewBox="0 0 24 24"><circle cx="18" cy="10.11301" r="4.5" fill="none" stroke="#323232" stroke-linecap="round" stroke-linejoin="round" stroke-width="1.5"/><path d="M21,16.75V18a3,3,0,0,1-3,3H6a3,3,0,0,1-3-3V10.36042a2,2,0,0,1,.784-1.58787l7-5.36044a2,2,0,0,1,2.43194,0l1.034.79181" fill="none" stroke="#323232" stroke-linecap="round" stroke-linejoin="round" stroke-width="1.5"/><path d="M13.21594,15.58791a2,2,0,0,1-2.43194,0L3.10972,9.71112" fill="none" stroke="#323232" stroke-linecap="round" stroke-linejoin="round" stroke-width="1.5"/><path d="M18.00977,9.663V8.413" fill="none" stroke="#323232" stroke-linecap="round" stroke-linejoin="round" stroke-width="1.5"/><path d="M18,11.903l.005.005L18,11.913l-.005-.005L18,11.903" fill="none" stroke="#323232" stroke-linecap="round" stroke-linejoin="round" stroke-width="1.5"/><rect y="0.00001" width="24" height="24" fill="none"/></svg>