<svg id="Layer_3" data-name="Layer 3" xmlns="http://www.w3.org/2000/svg" viewBox="0 0 24 24"><path d="M0,0H24V24H0Z" fill="none"/><path d="M4.5,16h15A1.5,1.5,0,0,1,21,17.5v0A3.5,3.5,0,0,1,17.5,21H6.5A3.5,3.5,0,0,1,3,17.5v0A1.5,1.5,0,0,1,4.5,16Z" transform="translate(24 37) rotate(-180)" fill="none" stroke="#323232" stroke-linecap="round" stroke-linejoin="round" stroke-width="1.5"/><line x1="21" y1="19.49999" x2="21" y2="4.5" fill="none" stroke="#323232" stroke-linecap="round" stroke-linejoin="round" stroke-width="1.5"/><line x1="3" y1="19.49999" x2="3" y2="4.5" fill="none" stroke="#323232" stroke-linecap="round" stroke-linejoin="round" stroke-width="1.5"/><line x1="12" y1="16" x2="12" y2="8" fill="none" stroke="#323232" stroke-linecap="round" stroke-linejoin="round" stroke-width="1.5"/><path d="M4.5,3h15A1.5,1.5,0,0,1,21,4.5v0A3.5,3.5,0,0,1,17.5,8H6.5A3.5,3.5,0,0,1,3,4.5v0A1.5,1.5,0,0,1,4.5,3Z" fill="none" stroke="#323232" stroke-linecap="round" stroke-linejoin="round" stroke-width="1.5"/></svg>