<svg id="Layer_3" data-name="Layer 3" xmlns="http://www.w3.org/2000/svg" viewBox="0 0 24 24"><circle cx="18" cy="10.113" r="4.5" fill="none" stroke="#323232" stroke-linecap="round" stroke-linejoin="round" stroke-width="1.5"/><path d="M21,16.75V18a3,3,0,0,1-3,3H6a3,3,0,0,1-3-3V10.36041a2,2,0,0,1,.784-1.58787l7-5.36044a2,2,0,0,1,2.43194,0l1.034.79181" fill="none" stroke="#323232" stroke-linecap="round" stroke-linejoin="round" stroke-width="1.5"/><path d="M13.21594,15.5879a2,2,0,0,1-2.43194,0L3.10972,9.71111" fill="none" stroke="#323232" stroke-linecap="round" stroke-linejoin="round" stroke-width="1.5"/><path d="M17.99023,10.563v1.25" fill="none" stroke="#323232" stroke-linecap="round" stroke-linejoin="round" stroke-width="1.5"/><path d="M17.99465,8.41271a.05.05,0,1,0-.04436-.05506v.0107a.05.05,0,0,0,.04436.04436" fill="none" stroke="#323232" stroke-linecap="round" stroke-linejoin="round" stroke-width="1.5"/><rect width="24" height="24" fill="none"/></svg>