<?xml version="1.0" encoding="UTF-8"?><svg version="1.1" viewBox="0 0 24 24" xmlns="http://www.w3.org/2000/svg" xmlns:xlink="http://www.w3.org/1999/xlink"><g stroke-linecap="round" stroke-width="1.5" stroke="#323232" fill="none" stroke-linejoin="round"><path d="M13.86 13.83h-3.72"></path><path d="M9.965 13.659c-1.045-.738-1.671-2.027-1.451-3.446 .239-1.534 1.517-2.758 3.059-2.938 2.14-.251 3.956 1.415 3.956 3.504 0 1.191-.592 2.242-1.496 2.881 -.162.115-.269.292-.269.491v1.628c0 .812-.658 1.471-1.471 1.471h-.588c-.812 0-1.471-.658-1.471-1.471v-1.625c.001-.201-.106-.379-.269-.495Z"></path><path d="M18.364 5.63604c3.51472 3.51472 3.51472 9.2132 0 12.7279 -3.51472 3.51472-9.2132 3.51472-12.7279 0 -3.51472-3.51472-3.51472-9.2132-1.77636e-15-12.7279 3.51472-3.51472 9.2132-3.51472 12.7279-1.77636e-15"></path></g><path fill="none" d="M24 24h-24v-24h24v24Z"></path></svg>