<?xml version="1.0" encoding="UTF-8"?><svg version="1.1" viewBox="0 0 24 24" xmlns="http://www.w3.org/2000/svg" xmlns:xlink="http://www.w3.org/1999/xlink"><g fill="none"><path d="M24 0v24h-24"></path><path stroke="#323232" stroke-linecap="round" stroke-linejoin="round" stroke-width="1.5" d="M10.0684 11.942l3.20543e-07 2.79846e-07c1.07246.936298 2.67173.936298 3.74419-5.59693e-07l.93559-.9356v0l6.09667e-08-6.2208e-08c1.02351-1.04435 1.00662-2.72068-.0377303-3.74419 -1.0295-1.00896-2.67698-1.00896-3.70648 1.5268e-05"></path><path stroke="#323232" stroke-linecap="round" stroke-linejoin="round" stroke-width="1.5" d="M11.0312 20l1.29117e-08 3.51505e-11c-4.97054-.013532-8.989-4.05392-8.97546-9.02447 .013532-4.97054 4.05392-8.989 9.02447-8.97546 4.57421.012453 8.4115 3.45404 8.91977 7.99993"></path><path stroke="#323232" stroke-linecap="round" stroke-linejoin="round" stroke-width="1.5" d="M15.2926 17.8387l3.542-3.54475 -7.1819e-08 7.18731e-08c.391548-.391843 1.02661-.392082 1.41846-.000534005 1.79665e-05 1.7953e-05 3.59323e-05 3.59066e-05 5.38974e-05 5.38609e-05l1.45317 1.45234 3.06312e-08 3.06148e-08c.39141.391201.391579 1.02563.000378 1.41704 -.000125987.000126054-.000252007.000252074-.000378061.000378061l-3.5463 3.54411 1.43403e-08-1.43316e-08c-.187513.1874-.441766.292674-.70687.29268h-2.45313v-2.45449l-5.96323e-12 3.30577e-06c4.00262e-08-.265081.10525-.519317.292618-.706831Z"></path><path stroke="#323232" stroke-linecap="round" stroke-linejoin="round" stroke-width="1.5" d="M11.9396 10.0708l-9.79458e-08-8.5511e-08c-1.07246-.936301-2.67172-.936301-3.74418 1.71022e-07l-.9356.93559v0l7.57603e-08-7.74359e-08c-1.02262 1.04523-1.00428 2.72156.0409507 3.74418 1.0291 1.00683 2.6741 1.00684 3.70321 1.48967e-05"></path><path d="M24 24h-24v-24h24Z"></path></g></svg>