<?xml version="1.0" encoding="UTF-8"?><svg version="1.1" viewBox="0 0 24 24" xmlns="http://www.w3.org/2000/svg" xmlns:xlink="http://www.w3.org/1999/xlink"><!--Generated by IJSVG (https://github.com/iconjar/IJSVG)--><g fill="none"><path d="M0,0h24v24h-24Z"></path><path stroke="#323232" stroke-linecap="round" stroke-linejoin="round" stroke-width="1.5" d="M8.649,10.574v4.909"></path><path stroke="#323232" stroke-linecap="round" stroke-linejoin="round" stroke-width="1.5" d="M11.92,15.483v-2.864c0,-1.13 0.915,-2.045 2.045,-2.045v0c1.13,0 2.045,0.915 2.045,2.045v2.864"></path><path stroke="#323232" stroke-linecap="round" stroke-linejoin="round" stroke-width="1.5" d="M8.647,7.608c-0.113,0 -0.205,0.092 -0.204,0.205c0,0.113 0.092,0.205 0.205,0.205c0.113,0 0.205,-0.092 0.205,-0.205c-0.001,-0.114 -0.093,-0.205 -0.206,-0.205"></path><path stroke="#323232" stroke-linecap="round" stroke-linejoin="round" stroke-width="1.5" d="M19.071,4.929c3.905,3.905 3.905,10.237 0,14.142c-3.905,3.905 -10.237,3.905 -14.142,0c-3.905,-3.905 -3.905,-10.237 0,-14.142c3.905,-3.905 10.237,-3.905 14.142,1.77636e-15"></path></g></svg>