<?xml version="1.0" encoding="UTF-8"?><svg version="1.1" viewBox="0 0 24 24" xmlns="http://www.w3.org/2000/svg" xmlns:xlink="http://www.w3.org/1999/xlink"><g stroke-linecap="round" stroke-width="1.5" stroke="#323232" fill="none" stroke-linejoin="round"><path d="M18 12.37l1.23072e-06-8.78009e-08c-3.99492.285001-8.00508.285001-12 1.75602e-07"></path><path d="M14.182 9.5c-1.309 0-1.309.574-2.182.574 -.873 0-.873-.574-2.182-.574 -2.182 0-2.1 2.571-3.818 2.87 1.714.559 1.714 3.13 6 3.13 4.286 0 4.286-2.571 6-3.13 -1.714-.299-1.636-2.87-3.818-2.87Z"></path><path d="M3 8v8l5.68434e-14 7.54979e-07c4.16963e-07 2.76142 2.23858 5 5 5h8l-2.18557e-07-7.10543e-15c2.76142 1.20706e-07 5-2.23858 5-5v-8 0c0-2.76142-2.23858-5-5-5h-8l-2.18557e-07 5.32907e-15c-2.76142 1.20706e-07-5 2.23858-5 5 0 0 0 1.77636e-15 0 1.77636e-15Z"></path></g><path fill="none" d="M0 0h24v24h-24Z"></path></svg>