<svg viewBox="0 0 24 24" xmlns="http://www.w3.org/2000/svg"><g stroke-linecap="round" stroke-width="1.5" stroke="#323232" fill="none" stroke-linejoin="round"><path d="M18 12.37l-.01 0c-4 .28-8.01.28-12-.01"/><path d="M21 12v0c0 4.97-4.03 9-9 9 -4.98 0-9-4.03-9-9 0-4.98 4.02-9 9-9"/><path d="M19.65 2.38l.55 1 -.01-.01c.09.16.22.3.39.39l1 .54 0 0c.36.19.49.65.29 1.01 -.07.12-.18.22-.3.29l-1.01.54 0-.01c-.17.09-.31.22-.4.39l-.56 1 0-.01c-.2.36-.66.49-1.02.29 -.13-.07-.23-.18-.3-.3l-.55-1.01 0 0c-.1-.17-.23-.31-.4-.4l-1.01-.56 0 0c-.37-.2-.5-.66-.3-1.02 .06-.13.17-.23.29-.3l1-.56 0-.01c.16-.1.3-.23.39-.4l.54-1.01 -.01 0c.19-.37.65-.5 1.01-.3 .12.06.22.17.29.29Z"/><path d="M14.182 9.5c-1.31 0-1.31.57-2.19.57 -.88 0-.88-.58-2.19-.58 -2.19 0-2.1 2.57-3.82 2.87 1.71.55 1.71 3.13 6 3.13 4.28 0 4.28-2.58 6-3.13 -1.72-.3-1.64-2.87-3.82-2.87Z"/></g><path fill="none" d="M0 0h24v24H0Z"/></svg>