<?xml version="1.0" encoding="UTF-8"?><svg version="1.1" viewBox="0 0 24 24" xmlns="http://www.w3.org/2000/svg" xmlns:xlink="http://www.w3.org/1999/xlink"><g stroke-linecap="round" stroke-width="1.5" stroke="#323232" fill="none" stroke-linejoin="round"><path d="M7.5 3l-1.96701e-07 4.44089e-15c2.48528-1.08635e-07 4.5 2.01472 4.5 4.5 1.08635e-07 2.48528-2.01472 4.5-4.5 4.5 -2.48528 1.08635e-07-4.5-2.01472-4.5-4.5l4.70735e-14 4.8278e-07c-3.75267e-07-2.48528 2.01472-4.5 4.5-4.5 6.09575e-08-8.88178e-15 1.35744e-07-1.95399e-14 1.96701e-07-2.57572e-14"></path><line x1="15" x2="21" y1="10" y2="10"></line><line x1="15" x2="21" y1="5" y2="5"></line><line x1="21" x2="9" y1="15" y2="15"></line><line x1="21" x2="9" y1="20" y2="20"></line><path d="M5 15v0c0 .138071-.111929.25-.25.25 -.138071 0-.25-.111929-.25-.25 0-.138071.111929-.25.25-.25h-1.09278e-08c.138071-6.03528e-09.25.111929.25.25"></path><path d="M5 20v0c0 .138071-.111929.25-.25.25 -.138071 0-.25-.111929-.25-.25 0-.138071.111929-.25.25-.25h-1.09278e-08c.138071-6.03528e-09.25.111929.25.25"></path><path d="M8.722 7.45h2.0918e-09c-.0276142 1.20706e-09-.05.0223858-.05.05 1.20706e-09.0276142.0223858.05.05.05h-5.02476e-10c.0276142-2.08482e-09.05-.0223858.05-.05 -2.08482e-09-.0276142-.0223858-.05-.05-.05"></path><path d="M6.277 7.45l-2.63515e-09-5.48894e-13c-.027062-5.6347e-06-.0490046.0219278-.0490102.0489898 -7.01188e-08.000336762 3.33145e-06.000673515 1.02042e-05.00101021v7.54979e-09c4.16963e-09.0276142.0223858.05.05.05h2.0918e-09c.0276142 1.20706e-09.05-.0223858.05-.05 1.20706e-09-.0276142-.0223858-.05-.05-.05 -2.87522e-09 0-5.61975e-09 0-8.49497e-09 0"></path></g><path fill="none" d="M24 24h-24v-24h24Z"></path></svg>