<?xml version="1.0" encoding="UTF-8"?><svg version="1.1" viewBox="0 0 24 24" xmlns="http://www.w3.org/2000/svg" xmlns:xlink="http://www.w3.org/1999/xlink"><g stroke-linecap="round" stroke-width="1.5" stroke="#323232" fill="none" stroke-linejoin="round"><path d="M8 4l1.3-1.625 1.82359e-08-2.27766e-08c.189861-.237137.477222-.375114.781-.375h3.839l-1.48987e-09 5.58664e-13c.303778-.000113976.591139.137863.781.375l1.299 1.625v0 1 0c0 .552285-.447715 1-1 1h-6l-4.37114e-08-8.88178e-16c-.552285-2.41411e-08-1-.447715-1-1 0 0 0 0 0 0v-1Z"></path><path d="M8 17h2"></path><path d="M8 9h8"></path><path d="M8 13h4"></path><path d="M15.355 21h-9.355l-8.74228e-08-3.55271e-15c-1.10457-4.82823e-08-2-.895431-2-2 0 0 0 0 0 0v-13l2.30926e-14 3.01992e-07c-1.66785e-07-1.10457.89543-2 2-2h2"></path><path d="M16 4h2l-8.74228e-08 1.77636e-15c1.10457-4.82823e-08 2 .89543 2 2v8.537"></path><path d="M19 17l-2 2"></path><path d="M17 17l2 2"></path><path d="M18 22l-1.74846e-07-3.55271e-15c-2.20914-9.65645e-08-4-1.79086-4-4 9.65645e-08-2.20914 1.79086-4 4-4 2.20914 9.65645e-08 4 1.79086 4 4v0c0 2.20914-1.79086 4-4 4"></path></g><path fill="none" d="M0 0h24v24h-24Z"></path></svg>