<?xml version="1.0" encoding="UTF-8"?><svg version="1.1" viewBox="0 0 24 24" xmlns="http://www.w3.org/2000/svg" xmlns:xlink="http://www.w3.org/1999/xlink"><g fill="none"><path d="M0 0h24v24h-24Z"></path><path stroke="#323232" stroke-linecap="round" stroke-linejoin="round" stroke-width="1.5" d="M13.136 16.546l2.818-7.6 1.82693e-08-5.14041e-08c.129466-.364277-.0608866-.764534-.425164-.894 -.151633-.053891-.317204-.053891-.468837 3.65385e-08l-7.6 2.819 7.43252e-08-2.85708e-08c-.360857.138714-.540938.543696-.402224.904553 .0800966.208367.254771.366036.470224.424447l3.426.861 .855 3.415 5.65248e-09 2.06251e-08c.102183.372851.487274.592271.860124.490088 .213235-.0584388.386327-.214184.466876-.420088Z"></path><rect width="18" height="18" x="3" y="3" rx="2.7614" ry="0" stroke="#323232" stroke-linecap="round" stroke-linejoin="round" stroke-width="1.5"></rect></g></svg>