<svg id="Layer_3" data-name="Layer 3" xmlns="http://www.w3.org/2000/svg" viewBox="0 0 24 24"><path d="M24,24V0H0V24Z" fill="none"/><line x1="14.82918" y1="9.99983" x2="16.96441" y2="9.99983" fill="none" stroke="#323232" stroke-linecap="round" stroke-linejoin="round" stroke-width="1.5"/><line x1="16.96441" y1="7.8646" x2="16.96441" y2="9.99983" fill="none" stroke="#323232" stroke-linecap="round" stroke-linejoin="round" stroke-width="1.5"/><path d="M16.929,12.7755a.05.05,0,1,0,0-.0708.05.05,0,0,0,0,.0708" fill="none" stroke="#323232" stroke-linecap="round" stroke-linejoin="round" stroke-width="1.5"/><path d="M16.03928,15.08867a.05.05,0,1,0,0-.0708.05.05,0,0,0,0,.0708" fill="none" stroke="#323232" stroke-linecap="round" stroke-linejoin="round" stroke-width="1.5"/><path d="M14.15277,16.61929a.05.05,0,1,0,0,.0708.05.05,0,0,0,0-.0708" fill="none" stroke="#323232" stroke-linecap="round" stroke-linejoin="round" stroke-width="1.5"/><circle cx="12" cy="12" r="9.5" fill="none" stroke="#323232" stroke-linecap="round" stroke-linejoin="round" stroke-width="1.5"/><path d="M16.52448,9.99976a4.97789,4.97789,0,1,0-5.254,6.95414" fill="none" stroke="#323232" stroke-linecap="round" stroke-linejoin="round" stroke-width="1.5"/></svg>