<?xml version="1.0" encoding="UTF-8"?><svg version="1.1" viewBox="0 0 24 24" xmlns="http://www.w3.org/2000/svg" xmlns:xlink="http://www.w3.org/1999/xlink"><g stroke-linecap="round" stroke-width="1.5" stroke="#323232" fill="none" stroke-linejoin="round"><path d="M8 10.018l8-.018 -3.70679e-08 7.8515e-13c1.09951-2.32478e-05 1.99285.887511 2 1.987v0l5.11264e-08-2.04925e-05c-.00274525 1.10262-.89736 1.99501-1.99998 1.99502l-7.99002.018 1.00641e-07-2.12985e-12c-1.09951 2.32828e-05-1.99285-.887511-2-1.987v0l-1.52006e-08-3.06537e-05c-.000537055-1.10009.889947-1.99278 1.99003-1.99497Z"></path><circle cx="12" cy="12" r="9"></circle><line x1="11" x2="9.01" y1="10.01" y2="14"></line><line x1="15" x2="13.01" y1="10" y2="13.99"></line></g><path fill="none" d="M0 0h24v24h-24Z"></path></svg>