<?xml version="1.0" encoding="UTF-8"?><svg version="1.1" viewBox="0 0 24 24" xmlns="http://www.w3.org/2000/svg" xmlns:xlink="http://www.w3.org/1999/xlink"><g stroke-linecap="round" stroke-width="1.5" stroke="#323232" fill="none" stroke-linejoin="round"><circle cx="12" cy="12" r="9"></circle><path d="M12 3v0c2.254 0 4.124 1.742 4.285 3.99v.003c.129 1.805-.887 3.497-2.54 4.232l-3.49 1.551c-1.653.735-2.669 2.427-2.54 4.232v.003c.161 2.247 2.031 3.989 4.285 3.989v0"></path><path d="M4.206 7.5v0c1.127-1.952 3.571-2.701 5.598-1.716l.003.001c1.627.791 2.585 2.516 2.395 4.316l-.402 3.798c-.19 1.799.767 3.525 2.395 4.316l.003.001c2.027.985 4.471.236 5.598-1.716v0"></path><path d="M4.206 16.5v0c-1.127-1.952-.554-4.443 1.313-5.706l.002-.002c1.499-1.014 3.472-.98 4.935.084l3.088 2.247c1.463 1.064 3.436 1.098 4.935.084l.002-.002c1.867-1.263 2.44-3.754 1.313-5.706v0"></path></g><path fill="none" d="M0 0h24v24h-24v-24Z"></path></svg>