<?xml version="1.0" encoding="UTF-8"?><svg version="1.1" viewBox="0 0 24 24" xmlns="http://www.w3.org/2000/svg" xmlns:xlink="http://www.w3.org/1999/xlink"><g fill="none"><path d="M0 0h24v24h-24v-24Z"></path><path stroke="#323232" stroke-linecap="round" stroke-linejoin="round" stroke-width="1.5" d="M8.07 8.07c2.171-2.171 5.69-2.171 7.86 0"></path><path stroke="#323232" stroke-linecap="round" stroke-linejoin="round" stroke-width="1.5" d="M3.795 8.795c-1.232 3.159-.577 6.884 1.974 9.435 3.441 3.441 9.02 3.441 12.461 0 2.551-2.551 3.206-6.276 1.974-9.435"></path><path stroke="#323232" stroke-linecap="round" stroke-linejoin="round" stroke-width="1.5" d="M5.77 5.77c3.441-3.441 9.02-3.441 12.461 0"></path><path stroke="#323232" stroke-linecap="round" stroke-linejoin="round" stroke-width="1.5" d="M13.723 13v-1.277c0-.904-.771-1.723-1.723-1.723 -.952 0-1.723.771-1.723 1.723v1.277"></path><path stroke="#323232" stroke-linecap="round" stroke-linejoin="round" stroke-width="1.5" d="M14.026 17h-4.052c-.538 0-.974-.436-.974-.974v-2.052c0-.538.436-.974.974-.974h4.052c.538 0 .974.436.974.974v2.052c0 .538-.436.974-.974.974Z"></path></g></svg>