<?xml version="1.0" encoding="UTF-8"?><svg version="1.1" viewBox="0 0 24 24" xmlns="http://www.w3.org/2000/svg" xmlns:xlink="http://www.w3.org/1999/xlink"><!--Generated by IJSVG (https://github.com/iconjar/IJSVG)--><g stroke-linecap="round" stroke-width="1.5" stroke="#323232" fill="none" stroke-linejoin="round"><path d="M13.71,13v-1.29c0,-0.897 -0.765,-1.71 -1.71,-1.71c-0.945,0 -1.71,0.765 -1.71,1.71v1.29"></path><path d="M14.018,17h-4.036c-0.542,0 -0.982,-0.44 -0.982,-0.982v-2.036c0,-0.542 0.44,-0.982 0.982,-0.982h4.036c0.542,0 0.982,0.44 0.982,0.982v2.036c0,0.542 -0.44,0.982 -0.982,0.982Z"></path><path d="M19,4h-5"></path><path d="M19.222,20h-14.444c-0.982,0 -1.778,-0.796 -1.778,-1.778v-12.407c0,-0.982 0.796,-1.778 1.778,-1.778h4.024c0.497,0 0.972,0.208 1.309,0.574l1.361,1.48c0.337,0.366 0.811,0.574 1.309,0.574h6.442c0.981,0.002 1.777,0.798 1.777,1.779v9.778c0,0.982 -0.796,1.778 -1.778,1.778Z"></path></g></svg>