<?xml version="1.0" encoding="UTF-8"?><svg version="1.1" viewBox="0 0 24 24" xmlns="http://www.w3.org/2000/svg" xmlns:xlink="http://www.w3.org/1999/xlink"><!--Generated by IJSVG (https://github.com/iconjar/IJSVG)--><g fill="none"><path d="M0,0h24v24h-24v-24Z"></path><path stroke="#323232" stroke-linecap="round" stroke-linejoin="round" stroke-width="1.5" d="M17,21c-2.761,0 -5,-2.239 -5,-5c0,-2.761 2.239,-5 5,-5c2.762,0 5,2.239 5,5c0,2.761 -2.238,5 -5,5"></path><path stroke="#323232" stroke-linecap="round" stroke-linejoin="round" stroke-width="1.5" d="M19.222,14.889l-2.778,2.778l-1.666,-1.667"></path><path stroke="#323232" stroke-linecap="round" stroke-linejoin="round" stroke-width="1.5" d="M7.849,7.735c0.146,0.146 0.146,0.384 0,0.53c-0.146,0.146 -0.384,0.146 -0.53,0c-0.146,-0.146 -0.146,-0.384 0,-0.53c0.146,-0.147 0.383,-0.147 0.53,0"></path><path stroke="#323232" stroke-linecap="round" stroke-linejoin="round" stroke-width="1.5" d="M12.265,7.735c0.146,0.146 0.146,0.384 0,0.53c-0.146,0.146 -0.384,0.146 -0.53,0c-0.146,-0.146 -0.146,-0.384 0,-0.53c0.146,-0.147 0.384,-0.147 0.53,0"></path><path stroke="#323232" stroke-linecap="round" stroke-linejoin="round" stroke-width="1.5" d="M16.682,7.735c0.146,0.146 0.146,0.384 0,0.53c-0.146,0.146 -0.384,0.146 -0.53,0c-0.146,-0.146 -0.146,-0.384 0,-0.53c0.146,-0.147 0.383,-0.147 0.53,0"></path><path stroke="#323232" stroke-linecap="round" stroke-linejoin="round" stroke-width="1.5" d="M9,13h-4c-1.105,0 -2,-0.895 -2,-2v-6c0,-1.105 0.895,-2 2,-2h14c1.105,0 2,0.895 2,2v3"></path></g></svg>