<?xml version="1.0" encoding="UTF-8"?><svg version="1.1" viewBox="0 0 24 24" xmlns="http://www.w3.org/2000/svg" xmlns:xlink="http://www.w3.org/1999/xlink"><g fill="none"><path d="M0 0h24v24h-24v-24Z"></path><path stroke="#323232" stroke-linecap="round" stroke-linejoin="round" stroke-width="1.5" d="M13.723 11.5v-1.277c0-.904-.771-1.723-1.723-1.723 -.952 0-1.723.771-1.723 1.723v1.277"></path><path stroke="#323232" stroke-linecap="round" stroke-linejoin="round" stroke-width="1.5" d="M14.026 15.5h-4.052c-.538 0-.974-.436-.974-.974v-2.052c0-.538.436-.974.974-.974h4.052c.538 0 .974.436.974.974v2.052c0 .538-.436.974-.974.974Z"></path><path stroke="#323232" stroke-linecap="round" stroke-linejoin="round" stroke-width="1.5" d="M3 13.882v-3.763c0-1.602.852-3.083 2.236-3.889l4.5-2.619c1.399-.814 3.128-.814 4.527 0l4.5 2.619c1.385.805 2.237 2.286 2.237 3.888v3.763c0 1.602-.852 3.083-2.236 3.889l-4.5 2.619c-1.399.814-3.128.814-4.527 0l-4.5-2.619c-1.385-.805-2.237-2.286-2.237-3.888Z"></path></g></svg>