<?xml version="1.0" encoding="UTF-8"?><svg version="1.1" viewBox="0 0 24 24" xmlns="http://www.w3.org/2000/svg" xmlns:xlink="http://www.w3.org/1999/xlink"><g fill="none"><path d="M0 0h24v24h-24Z"></path><rect width="6" height="4.2" x="9" y="11.37" rx=".662736" ry="0" stroke="#323232" stroke-linecap="round" stroke-linejoin="round" stroke-width="1.5"></rect><path stroke="#323232" stroke-linecap="round" stroke-linejoin="round" stroke-width="1.5" d="M10.2 11.37v-1.14l2.13163e-14-2.71792e-07c1.50107e-07-.994113.805888-1.8 1.8-1.8v0l-7.86805e-08 1.77636e-15c.994113-4.3454e-08 1.8.805887 1.8 1.8 0 0 0 1.77636e-15 0 1.77636e-15v0 1.14"></path><path stroke="#323232" stroke-linecap="round" stroke-linejoin="round" stroke-width="1.5" d="M18.249 16.5v3.5"></path><path stroke="#323232" stroke-linecap="round" stroke-linejoin="round" stroke-width="1.5" d="M16.5 18.249h3.5"></path><path stroke="#323232" stroke-linecap="round" stroke-linejoin="round" stroke-width="1.5" d="M13 20.938l-5.12224e-08 6.3506e-09c-.331749.0411305-.665711.0618362-1 .062l-3.93403e-07-7.10543e-15c-4.97056-2.1727e-07-9-4.02944-9-9 2.1727e-07-4.97056 4.02944-9 9-9 4.97056 2.1727e-07 9 4.02944 9 9l6.63454e-09-1.35644e-05c-.000163227.334289-.0208684.668251-.0619983 1"></path></g></svg>