<svg id="Layer_3" data-name="Layer 3" xmlns="http://www.w3.org/2000/svg" viewBox="0 0 24 24"><path d="M0,0H24V24H0Z" fill="none"/><path d="M17.79894,5.062,19,6.262l1.99893-2" fill="none" stroke="#323232" stroke-linecap="round" stroke-linejoin="round" stroke-width="1.5"/><path d="M21.05878,9.20594A9.33037,9.33037,0,0,1,21.5,12,9.5,9.5,0,1,1,12,2.5a9.33037,9.33037,0,0,1,2.79406.44122" fill="none" stroke="#323232" stroke-linecap="round" stroke-linejoin="round" stroke-width="1.5"/><rect x="8.5" y="11.5" width="7" height="4.5" rx="1.5" stroke-width="1.5" stroke="#323232" stroke-linecap="round" stroke-linejoin="round" fill="none"/><path d="M12,8h0a2,2,0,0,1,2,2v1.5a0,0,0,0,1,0,0H10a0,0,0,0,1,0,0V10A2,2,0,0,1,12,8Z" fill="none" stroke="#323232" stroke-linecap="round" stroke-linejoin="round" stroke-width="1.5"/></svg>