<svg id="Layer_3" data-name="Layer 3" xmlns="http://www.w3.org/2000/svg" viewBox="0 0 24 24"><rect x="5" y="10" width="14" height="11" rx="3" stroke-width="1.5" stroke="#323232" stroke-linecap="round" stroke-linejoin="round" fill="none"/><path d="M8,10V7H8a4,4,0,0,1,4-4h0a4,4,0,0,1,4,4h0v3" fill="none" stroke="#323232" stroke-linecap="round" stroke-linejoin="round" stroke-width="1.5"/><path d="M9.03533,14.96462a.05.05,0,1,1-.07071,0l0,0a.05.05,0,0,1,.07066,0" fill="none" stroke="#323232" stroke-linecap="round" stroke-linejoin="round" stroke-width="1.5"/><path d="M12.03533,14.96462a.05.05,0,1,1-.07071,0l0,0a.05.05,0,0,1,.07066,0" fill="none" stroke="#323232" stroke-linecap="round" stroke-linejoin="round" stroke-width="1.5"/><line x1="15" y1="17" x2="14" y2="17" fill="none" stroke="#323232" stroke-linecap="round" stroke-linejoin="round" stroke-width="1.5"/><rect width="24" height="24" fill="none"/></svg>