<?xml version="1.0" encoding="UTF-8"?><svg version="1.1" viewBox="0 0 24 24" xmlns="http://www.w3.org/2000/svg" xmlns:xlink="http://www.w3.org/1999/xlink"><g stroke-linecap="round" stroke-width="1.5" stroke="#323232" fill="none" stroke-linejoin="round"><path d="M13.723 13v-1.277c0-.904-.771-1.723-1.723-1.723 -.952 0-1.723.771-1.723 1.723v1.277"></path><path d="M14.026 17h-4.052c-.538 0-.974-.436-.974-.974v-2.052c0-.538.436-.974.974-.974h4.052c.538 0 .974.436.974.974v2.052c0 .538-.436.974-.974.974Z"></path><path d="M15.106 5.426l5.43 9.652c1.337 2.376-.38 5.314-3.107 5.314h-10.858c-2.728 0-4.444-2.936-3.107-5.314l5.43-9.652c1.36-2.424 4.849-2.424 6.212 1.77636e-15Z"></path></g><path fill="none" d="M24 24h-24v-24h24v24Z"></path></svg>