<svg id="Layer_3" data-name="Layer 3" xmlns="http://www.w3.org/2000/svg" viewBox="0 0 24 24"><path d="M0,0H24V24H0Z" fill="none"/><path d="M21,8.5H17.5a2,2,0,0,1-2-2V3" fill="none" stroke="#323232" stroke-linecap="round" stroke-linejoin="round" stroke-width="1.5"/><path d="M14,21h4a3,3,0,0,0,3-3V8.50932A3,3,0,0,0,20.12132,6.388L17.612,3.87869A3,3,0,0,0,15.49069,3H8A3,3,0,0,0,5,6V9" fill="none" stroke="#323232" stroke-linecap="round" stroke-linejoin="round" stroke-width="1.5"/><rect x="3" y="16.00001" width="7" height="5" rx="1.5" stroke-width="1.5" stroke="#323232" stroke-linecap="round" stroke-linejoin="round" fill="none"/><path d="M8.6,16V14.6a2.1,2.1,0,0,0-2.1-2.1h0a2.1,2.1,0,0,0-2.1,2.1V16" fill="none" stroke="#323232" stroke-linecap="round" stroke-linejoin="round" stroke-width="1.5"/></svg>