<?xml version="1.0" encoding="UTF-8"?><svg version="1.1" viewBox="0 0 24 24" xmlns="http://www.w3.org/2000/svg" xmlns:xlink="http://www.w3.org/1999/xlink"><!--Generated by IJSVG (https://github.com/iconjar/IJSVG)--><g fill="none"><path d="M0,0h24v24h-24v-24Z"></path><path stroke="#323232" stroke-linecap="round" stroke-linejoin="round" stroke-width="1.5" d="M20.536,10.536c-1.953,1.953 -5.118,1.953 -7.071,0c-1.953,-1.953 -1.953,-5.118 0,-7.071c1.953,-1.953 5.118,-1.953 7.071,0c1.952,1.952 1.952,5.118 0,7.071"></path><path stroke="#323232" stroke-linecap="round" stroke-linejoin="round" stroke-width="1.5" d="M18.125,5.297c0.781,0.781 0.781,2.046 0,2.827c-0.781,0.781 -2.046,0.781 -2.827,0c-0.781,-0.781 -0.781,-2.046 0,-2.827c0.78,-0.78 2.046,-0.78 2.827,8.88178e-16"></path><path stroke="#323232" stroke-linecap="round" stroke-linejoin="round" stroke-width="1.5" d="M19,9l-0.88,-0.88"></path><path stroke="#323232" stroke-linecap="round" stroke-linejoin="round" stroke-width="1.5" d="M20,21c1.105,0 2,-0.895 2,-2v-2c0,-1.105 -0.895,-2 -2,-2h-15c-1.105,0 -2,0.895 -2,2v2c0,1.105 0.895,2 2,2h15Z"></path><path stroke="#323232" stroke-linecap="round" stroke-linejoin="round" stroke-width="1.5" d="M9,10h-4c-1.105,0 -2,-0.895 -2,-2v-2c0,-1.105 0.895,-2 2,-2h4"></path></g></svg>