<svg id="Layer_3" data-name="Layer 3" xmlns="http://www.w3.org/2000/svg" viewBox="0 0 24 24"><line x1="3" y1="14.00001" x2="6" y2="21.00001" fill="none" stroke="#323232" stroke-linecap="round" stroke-linejoin="round" stroke-width="1.5"/><line x1="10" y1="14.00001" x2="7" y2="21.00001" fill="none" stroke="#323232" stroke-linecap="round" stroke-linejoin="round" stroke-width="1.5"/><line x1="7" y1="21.00001" x2="6" y2="21.00001" fill="none" stroke="#323232" stroke-linecap="round" stroke-linejoin="round" stroke-width="1.5"/><path d="M16.74542,3.48706,17,3.74553l.25458-.25848a2.46933,2.46933,0,0,1,3.5195,0v0a2.562,2.562,0,0,1,0,3.57355L18.07727,9.79881a1.51165,1.51165,0,0,1-2.15455,0L13.22591,7.06066a2.562,2.562,0,0,1,0-3.57357h0A2.46935,2.46935,0,0,1,16.74542,3.48706Z" fill="none" stroke="#323232" stroke-linecap="round" stroke-linejoin="round" stroke-width="1.5"/><polyline points="20 21 14 21 14 14 20 14" fill="none" stroke="#323232" stroke-linecap="round" stroke-linejoin="round" stroke-width="1.5"/><line x1="19" y1="17.50001" x2="14" y2="17.50001" fill="none" stroke="#323232" stroke-linecap="round" stroke-linejoin="round" stroke-width="1.5"/><polyline points="3 3 3 10 9 10" fill="none" stroke="#323232" stroke-linecap="round" stroke-linejoin="round" stroke-width="1.5"/><path d="M24,0H0V24H24Z" fill="none"/></svg>