<?xml version="1.0" encoding="UTF-8"?><svg version="1.1" viewBox="0 0 24 24" xmlns="http://www.w3.org/2000/svg" xmlns:xlink="http://www.w3.org/1999/xlink"><g stroke-linecap="round" stroke-width="1.5" stroke="#323232" fill="none" stroke-linejoin="round"><line x1="13.6" x2="13.6" y1="7.6" y2="3"></line><path d="M10.4 3v4.6c0 1.325-1.075 2.4-2.4 2.4v0"></path><path d="M16 10c-1.325 0-2.4-1.075-2.4-2.4"></path><path d="M16 13c-1.594 0-3.012-.703-4-1.802"></path><path d="M8 13c1.594 0 3.012-.703 4-1.802"></path><path d="M13.5 15.996v1.368c0 1.136.642 2.174 1.658 2.682l1.053.526c2.66 1.33 5.789-.603 5.789-3.576v-6.145c0-.908-.309-1.789-.877-2.498l-1.781-2.225c-.888-1.111-2.227-1.345-3.342-.947"></path><path d="M10.5 15.996v1.368c0 1.136-.642 2.174-1.658 2.682l-1.053.526c-2.66 1.33-5.789-.603-5.789-3.576v-6.145c0-.908.309-1.789.877-2.498l1.781-2.225c.888-1.111 2.227-1.345 3.342-.947"></path></g><path fill="none" d="M0 0h24v24h-24v-24Z"></path></svg>