<?xml version="1.0" encoding="UTF-8"?><svg version="1.1" viewBox="0 0 24 24" xmlns="http://www.w3.org/2000/svg" xmlns:xlink="http://www.w3.org/1999/xlink"><g stroke-linecap="round" stroke-width="1.5" stroke="#323232" fill="none" stroke-linejoin="round"><path d="M20 18h-16c-.552 0-1-.448-1-1v-12c0-.552.448-1 1-1h16c.552 0 1 .448 1 1v12c0 .552-.448 1-1 1Z"></path><line x1="5.38" x2="5.38" y1="4" y2="2"></line><line x1="18.62" x2="18.62" y1="4" y2="2"></line><line x1="4.5" x2="6.5" y1="21" y2="21"></line><line x1="5.5" x2="5.5" y1="18" y2="21"></line><line x1="17.5" x2="19.5" y1="21" y2="21"></line><line x1="18.5" x2="18.5" y1="18" y2="21"></line></g><path fill="none" d="M0 0h24v24h-24v-24Z"></path></svg>