<svg id="Layer_3" data-name="Layer 3" xmlns="http://www.w3.org/2000/svg" viewBox="0 0 24 24"><path d="M0,0H24V24H0Z" fill="none"/><line x1="8" y1="16" x2="10" y2="14" fill="none" stroke="#323232" stroke-linecap="round" stroke-linejoin="round" stroke-width="1.5"/><path d="M10.52016,9.62262a1,1,0,0,0,0,1.75476l1.12763.61665a.90093.90093,0,0,1,.35818.35818l.61665,1.12763a1,1,0,0,0,1.75476,0l.61665-1.12763a.90093.90093,0,0,1,.35818-.35818l1.12763-.61665a1,1,0,0,0,0-1.75476L15.35221,9.006a.90093.90093,0,0,1-.35818-.35818l-.61665-1.12763a1,1,0,0,0-1.75476,0L12.006,8.64779a.90093.90093,0,0,1-.35818.35818Z" fill="none" stroke="#323232" stroke-linecap="round" stroke-linejoin="round" stroke-width="1.5"/><rect x="3" y="3" width="18" height="18" rx="5" stroke-width="1.5" stroke="#323232" stroke-linecap="round" stroke-linejoin="round" fill="none"/></svg>