<svg xmlns="http://www.w3.org/2000/svg" viewBox="0 0 24 24"><g id="Layer_2" data-name="Layer 2"><path d="M0,0H24V24H0Z" fill="none"/><path d="M12.177,14.14825l-.55139-1.77384L9.85175,11.823a.5.5,0,0,1-.14029-.88571L11.2281,9.86476l-.02374-1.85742a.5.5,0,0,1,.799-.40711l1.48872,1.111,1.75917-.59655a.5.5,0,0,1,.6341.6341l-.59655,1.75917,1.111,1.48872a.5.5,0,0,1-.40711.799l-1.85742-.02374-1.07255,1.51664A.5.5,0,0,1,12.177,14.14825Z" fill="none" stroke="#323232" stroke-linecap="round" stroke-linejoin="round" stroke-width="1.5"/><line x1="8" y1="16" x2="9.5" y2="14.5" fill="none" stroke="#323232" stroke-linecap="round" stroke-linejoin="round" stroke-width="1.5"/><rect x="3" y="3" width="18" height="18" rx="5" stroke-width="1.5" stroke="#323232" stroke-linecap="round" stroke-linejoin="round" fill="none"/></g></svg>