<svg xmlns="http://www.w3.org/2000/svg" viewBox="0 0 24 24"><g id="Layer_2" data-name="Layer 2"><rect width="24" height="24" fill="none"/><rect x="10.31442" y="6.23203" width="10" height="14" rx="2" transform="translate(6.22942 -4.85335) rotate(22.5)" stroke-width="1.5" stroke="#323232" stroke-linecap="round" stroke-linejoin="round" fill="none"/><path d="M16.64847,11.49357l.54922,1.9564a.85162.85162,0,0,1-.39749.95962l-1.77174.995a.70941.70941,0,0,1-1.04809-.43413l-.54922-1.95641a.8516.8516,0,0,1,.39749-.95961l1.77174-.995A.70941.70941,0,0,1,16.64847,11.49357Z" fill="none" stroke="#323232" stroke-linecap="round" stroke-linejoin="round" stroke-width="1.5"/><path d="M7,6.35345,3.23517,7.9129a2,2,0,0,0-1.0824,2.61316l3.82684,9.23883a1.99988,1.99988,0,0,0,2.6131,1.08228L12,19.43591" fill="none" stroke="#323232" stroke-linecap="round" stroke-linejoin="round" stroke-width="1.5"/><path d="M17,6.35345V4.5a2,2,0,0,0-2-2H9a2,2,0,0,0-2,2v10a1.99681,1.99681,0,0,0,1.6521,1.96484" fill="none" stroke="#323232" stroke-linecap="round" stroke-linejoin="round" stroke-width="1.5"/></g></svg>