<?xml version="1.0" encoding="UTF-8"?><svg version="1.1" viewBox="0 0 24 24" xmlns="http://www.w3.org/2000/svg" xmlns:xlink="http://www.w3.org/1999/xlink"><g stroke-width="1.5" fill="none" stroke="#323232"><line x1="18.15" x2="14.83" y1="16.34" y2="13.03"></line><line x1="10.97" x2="7.66" y1="9.17" y2="5.86"></line><path d="M11.749 3.323l1.751 1.751 -5.95337e-09-5.95875e-09c.431059.431448.431059 1.13055 1.19067e-08 1.562l-5.016 5.015 2.44604e-07-2.4461e-07c-1.06727 1.0673-1.06727 2.7977-4.89209e-07 3.865v0l1.93099e-07 1.93095e-07c1.0673 1.06727 2.7977 1.06727 3.865-3.86189e-07l5.015-5.016 -8.67215e-08 8.66432e-08c.431448-.431059 1.13055-.431059 1.562-1.73286e-07l1.751 1.751 5.65776e-08 5.6188e-08c.431058.42809.433464 1.12457.00537425 1.55563 -.00178526.00179764-.00357673.0035891-.00537437.00537437l-5.016 5.016 4.42599e-08-4.42461e-08c-2.89672 2.89582-7.59228 2.89582-10.489 8.84921e-08v0l1.27598e-07 1.27638e-07c-2.89582-2.89672-2.89582-7.59228-2.55196e-07-10.489l5.016-5.016 6.78876e-08-6.83583e-08c.42809-.431058 1.12457-.433465 1.55563-.0053746 .00179772.00178534.00358926.00357688.00537459.00537459Z"></path></g><path fill="none" d="M0 0h24v24h-24Z"></path></svg>