<svg id="Layer_3" data-name="Layer 3" xmlns="http://www.w3.org/2000/svg" viewBox="0 0 24 24"><rect width="24" height="24" fill="none"/><line x1="10.33333" y1="11.5" x2="7" y2="11.5" fill="none" stroke="#323232" stroke-linecap="round" stroke-linejoin="round" stroke-width="1.5"/><line x1="17" y1="11.5" x2="13.66667" y2="11.5" fill="none" stroke="#323232" stroke-linecap="round" stroke-linejoin="round" stroke-width="1.5"/><path d="M7,12.5a5,5,0,0,0,5,5h0a5,5,0,0,0,5-5V9.61111A1.11111,1.11111,0,0,0,15.88889,8.5H14.77778a1.11111,1.11111,0,0,0-1.11111,1.11111V12.5A1.66668,1.66668,0,0,1,12,14.16667h0A1.66668,1.66668,0,0,1,10.33333,12.5V9.61111A1.11111,1.11111,0,0,0,9.22222,8.5H8.11111A1.11111,1.11111,0,0,0,7,9.61111Z" fill="none" stroke="#323232" stroke-linecap="round" stroke-linejoin="round" stroke-width="1.5"/><rect x="3" y="3" width="18" height="18" rx="8.99999" stroke-width="1.5" stroke="#323232" stroke-linecap="round" stroke-linejoin="round" fill="none"/></svg>