<?xml version="1.0" encoding="UTF-8"?><svg version="1.1" viewBox="0 0 24 24" xmlns="http://www.w3.org/2000/svg" xmlns:xlink="http://www.w3.org/1999/xlink"><!--Generated by IJSVG (https://github.com/iconjar/IJSVG)--><g stroke-linecap="round" stroke-width="1.5" stroke="#323232" fill="none" stroke-linejoin="round"><path d="M20.121,14.907c1.172,1.172 1.172,3.071 0,4.243c-1.172,1.172 -3.071,1.172 -4.243,0c-1.172,-1.172 -1.172,-3.071 0,-4.243c1.172,-1.172 3.072,-1.172 4.243,1.77636e-15"></path><path d="M20,11.028v-4.989"></path><path d="M11,17.028h-6c-1.105,0 -2,-0.895 -2,-2v-9.028"></path><path d="M17.989,4.028h-12.978c-1.111,0 -2.011,0.9 -2.011,2.011v0c0,0.667 0.331,1.29 0.883,1.664l5.357,3.631c1.365,0.925 3.157,0.925 4.522,0l5.356,-3.63c0.551,-0.374 0.882,-0.998 0.882,-1.664v-0.001c0,-1.111 -0.9,-2.011 -2.011,-2.011Z"></path><path d="M22,21.03l-1.88,-1.88"></path></g><path fill="none" d="M0,0.028h24v24h-24v-24Z"></path></svg>