<?xml version="1.0" encoding="UTF-8"?><svg version="1.1" viewBox="0 0 24 24" xmlns="http://www.w3.org/2000/svg" xmlns:xlink="http://www.w3.org/1999/xlink"><!--Generated by IJSVG (https://github.com/iconjar/IJSVG)--><g fill="none"><path d="M-0.01,0h24v24h-24v-24Z"></path><path stroke="#323232" stroke-linecap="round" stroke-linejoin="round" stroke-width="1.5" d="M19.99,11.028v-4.989"></path><path stroke="#323232" stroke-linecap="round" stroke-linejoin="round" stroke-width="1.5" d="M15.99,17l-2,2l2,2"></path><path stroke="#323232" stroke-linecap="round" stroke-linejoin="round" stroke-width="1.5" d="M17.989,4.028h-12.978c-1.111,0 -2.011,0.9 -2.011,2.011v0c0,0.667 0.331,1.29 0.883,1.664l5.357,3.631c1.365,0.925 3.157,0.925 4.522,0l5.356,-3.63c0.551,-0.374 0.882,-0.998 0.882,-1.664v-0.001c0,-1.111 -0.9,-2.011 -2.011,-2.011Z"></path><path stroke="#323232" stroke-linecap="round" stroke-linejoin="round" stroke-width="1.5" d="M11,17.028h-6c-1.105,0 -2,-0.895 -2,-2v-8.989"></path><path stroke="#323232" stroke-linecap="round" stroke-linejoin="round" stroke-width="1.5" d="M18,15.028h1c1.105,0 2,0.895 2,2v0c0,1.105 -0.895,2 -2,2h-0.49h0.49h-5.01"></path></g></svg>