<svg viewBox="0 0 24 24" xmlns="http://www.w3.org/2000/svg"><g stroke-linecap="round" stroke-width="1.5" stroke="#323232" fill="none" stroke-linejoin="round"><path d="M3 15h4.382l0 0c.37 0 .72.21.89.55l.44.89 -.01-.01c.16.33.51.55.89.55h4.763l-.01-.001c.37 0 .72-.22.89-.56l.44-.9 0-.001c.16-.34.51-.56.89-.56h4.38"/><path d="M21 6v12 0c0 1.65-1.35 3-3 3H6l-.01-.001c-1.66-.01-3-1.35-3-3 0 0 0-.001 0-.001v-12l0 0c-.01-1.66 1.34-3.01 2.99-3.01h12l-.01 0c1.65-.01 3 1.34 3 3Z"/><path d="M14.5 8.5L12 11l-1.51-1.5"/></g><path fill="none" d="M0 0h24v24H0Z"/></svg>