<?xml version="1.0" encoding="UTF-8"?><svg version="1.1" viewBox="0 0 24 24" xmlns="http://www.w3.org/2000/svg" xmlns:xlink="http://www.w3.org/1999/xlink"><!--Generated by IJSVG (https://github.com/iconjar/IJSVG)--><g fill="none"><path d="M0,0.028h24v24h-24v-24Z"></path><path stroke="#323232" stroke-linecap="round" stroke-linejoin="round" stroke-width="1.5" d="M19,8.028v-2.195"></path><path stroke="#323232" stroke-linecap="round" stroke-linejoin="round" stroke-width="1.5" d="M2,5.833v9.195c0,1.105 0.846,2 1.889,2h1.047"></path><path stroke="#323232" stroke-linecap="round" stroke-linejoin="round" stroke-width="1.5" d="M19,6.04v0c0,-1.111 -0.9,-2.011 -2.011,-2.011h-12.978c-1.111,-0.001 -2.011,0.899 -2.011,2.01v0"></path><path stroke="#323232" stroke-linecap="round" stroke-linejoin="round" stroke-width="1.5" d="M20,21.028h-13c-1.105,0 -2,-0.895 -2,-2v-9c0,-1.105 0.895,-2 2,-2h13c1.105,0 2,0.895 2,2v9c0,1.105 -0.895,2 -2,2Z"></path><path stroke="#323232" stroke-linecap="round" stroke-linejoin="round" stroke-width="1.5" d="M8.6,13.54l2.685,1.82c1.338,0.907 3.094,0.907 4.432,0l2.683,-1.82"></path></g></svg>