<svg viewBox="0 0 24 24" xmlns="http://www.w3.org/2000/svg"><g fill="none"><path d="M24 24H0V0h24Z"/><g stroke-linecap="round" stroke-width="1.5" stroke="#323232" fill="none" stroke-linejoin="round"><path d="M3 12V8l0 0c-.01-2.77 2.23-5.01 4.99-5.01h8l-.01 0c2.76-.01 5 2.23 5 4.99v8 0c0 2.76-2.24 5-5 5 0 0-.001 0-.001 0h-4"/><path d="M5.5 22l-.01 0c-1.94 0-3.51-1.57-3.51-3.51 -.01-1.94 1.56-3.51 3.5-3.51 1.93-.01 3.5 1.56 3.5 3.5 0 0 0 0-.001 0l0-.01c-.01 1.93-1.57 3.49-3.5 3.5"/><path d="M16.96 7.99l-3.59 3.58v0l-.01 0c-.76.75-2 .75-2.75-.01v0L7.02 7.97"/><path d="M6.5 11.85V9.34l0 0c-.01-1.11.89-2.01 1.99-2.01h7l-.01 0c1.1-.01 2 .89 2 1.99v5 0c0 1.1-.9 2-2 2h-3.5"/></g></g></svg>