<?xml version="1.0" encoding="UTF-8"?><svg version="1.1" viewBox="0 0 24 24" xmlns="http://www.w3.org/2000/svg" xmlns:xlink="http://www.w3.org/1999/xlink"><g fill="none"><path d="M0 0h24v24h-24Z"></path><path stroke="#323232" stroke-linecap="round" stroke-linejoin="round" stroke-width="1.5" d="M21 11v7 0c0 1.65685-1.34315 3-3 3h-12l-1.31134e-07-3.55271e-15c-1.65685-7.24234e-08-3-1.34315-3-3 0 0 0-3.55271e-15 0-3.55271e-15v-12l3.37508e-14 4.52987e-07c-2.50178e-07-1.65685 1.34315-3 3-3h6"></path><path stroke="#323232" stroke-linecap="round" stroke-linejoin="round" stroke-width="1.5" d="M3 15h4.382l1.66089e-08 5.56e-13c.378443 1.27056e-05.724457.213659.894.552l.447.895 -4.03648e-08-8.07779e-08c.169425.339052.515974.553177.895.553h4.763l-4.3935e-08-2.04707e-11c.379026.000176639.725575-.213948.895-.553l.447-.894 4.82157e-11-9.64864e-11c.169425-.339052.515974-.553177.895-.553h4.382"></path><path stroke="#323232" stroke-linecap="round" stroke-linejoin="round" stroke-width="1.5" d="M16.138 5.077l6.09658e-08-6.90487e-09c-2.2806.258296-4.00431 2.18682-4.006 4.482v.285l-1.60028e-07 1.9278e-07c.991233-1.1941 2.45431-1.89606 4.006-1.922v1.506l3.02192e-09-8.95275e-06c-.000108918.315355.255448.571088.570803.571197 .128103 4.42442e-05.252499-.0429895.35319-.122183l3.72801-2.94501 3.72517e-09-2.92781e-09c.238821-.187703.280261-.533469.0925584-.772291 -.000185943-.000236583-.000372081-.000473013-.000558412-.00070929l1.28928e-08 1.62262e-08c-.0270678-.0340659-.0579341-.0649322-.092-.092l-3.728-2.944 8.17893e-09 6.48097e-09c-.246732-.19551-.605239-.153986-.800749.0927458 -.0800856.101067-.123535.226304-.123251.355254Z"></path></g></svg>