<svg xmlns="http://www.w3.org/2000/svg" viewBox="0 0 24 24"><g id="Layer_2" data-name="Layer 2"><rect width="24" height="24" fill="none"/><rect x="3" y="3" width="18" height="18" rx="5" stroke-width="1.5" stroke="#323232" stroke-linecap="round" stroke-linejoin="round" fill="none"/><line x1="17" y1="8" x2="7" y2="8" fill="none" stroke="#323232" stroke-linecap="round" stroke-linejoin="round" stroke-width="1.5"/><path d="M10.99553,12.499,13,12.5l1.20711-1.20711A1,1,0,0,1,14.91421,11H16a1,1,0,0,1,1,1v3a1,1,0,0,1-1,1H8a1,1,0,0,1-1-1V12a1,1,0,0,1,1-1H9.08511a1,1,0,0,1,.70792.29371Z" fill="none" stroke="#323232" stroke-linecap="round" stroke-linejoin="round" stroke-width="1.5"/></g></svg>