<?xml version="1.0" encoding="UTF-8"?><svg version="1.1" viewBox="0 0 24 24" xmlns="http://www.w3.org/2000/svg" xmlns:xlink="http://www.w3.org/1999/xlink"><!--Generated by IJSVG (https://github.com/iconjar/IJSVG)--><g stroke-linecap="round" stroke-width="1.5" stroke="#323232" fill="none" stroke-linejoin="round"><path d="M19,13.028v-6.989"></path><path d="M14,17.028h-10c-1.105,0 -2,-0.895 -2,-2v-9"></path><path d="M16.989,4.028h-12.978c-1.111,0 -2.011,0.9 -2.011,2.011v0c0,0.667 0.331,1.29 0.883,1.664l5.357,3.631c1.365,0.925 3.157,0.925 4.522,0l5.356,-3.63c0.551,-0.374 0.882,-0.998 0.882,-1.664v-0.001c0,-1.111 -0.9,-2.011 -2.011,-2.011Z"></path><path d="M20.828,14.2c1.562,1.562 1.562,4.095 0,5.657c-1.562,1.562 -4.095,1.562 -5.657,0c-1.562,-1.562 -1.562,-4.095 0,-5.657c1.562,-1.562 4.095,-1.562 5.657,0"></path><path d="M19.555,16.25l-1.945,1.945l-1.166,-1.167"></path></g><path fill="none" d="M0,0.028h24v24h-24v-24Z"></path></svg>