<svg id="Layer_3" data-name="Layer 3" xmlns="http://www.w3.org/2000/svg" viewBox="0 0 24 24"><rect width="24" height="24" fill="none"/><path d="M8,11.5v-3a1,1,0,0,1,1-1h6a1,1,0,0,1,1,1v3" fill="none" stroke="#323232" stroke-linecap="round" stroke-linejoin="round" stroke-width="1.5"/><path d="M10.99553,12.999,13,13l1.20711-1.20711a1,1,0,0,1,.7071-.29289H16a1,1,0,0,1,1,1v3a1,1,0,0,1-1,1H8a1,1,0,0,1-1-1v-3a1,1,0,0,1,1-1H9.08511a1,1,0,0,1,.70792.29371Z" fill="none" stroke="#323232" stroke-linecap="round" stroke-linejoin="round" stroke-width="1.5"/><circle cx="12" cy="12" r="9.5" fill="none" stroke="#323232" stroke-linecap="round" stroke-linejoin="round" stroke-width="1.5"/></svg>