<?xml version="1.0" encoding="UTF-8"?><svg version="1.1" viewBox="0 0 24 24" xmlns="http://www.w3.org/2000/svg" xmlns:xlink="http://www.w3.org/1999/xlink"><g fill="none"><path d="M0 0h24v24h-24v-24Z"></path><path stroke="#323232" stroke-linecap="round" stroke-linejoin="round" stroke-width="1.5" d="M3 9v9c0 1.657 1.343 3 3 3h12c1.657 0 3-1.343 3-3v-8.765"></path><path stroke="#323232" stroke-linecap="round" stroke-linejoin="round" stroke-width="1.5" d="M4.399 6.766l5.863-4.204c1.046-.75 2.453-.749 3.498.001l5.838 4.192c1.869 1.342 1.869 3.538-.002 4.879l-5.852 4.196c-1.046.75-2.453.749-3.498-.001l-5.849-4.201c-1.863-1.337-1.863-3.525.002-4.862Z"></path><polyline stroke="#323232" stroke-linecap="round" stroke-linejoin="round" stroke-width="1.5" points="9.216,8 12.005,6 14.784,7.996"></polyline><line x1="12" x2="12" y1="6" y2="12" stroke="#323232" stroke-linecap="round" stroke-linejoin="round" stroke-width="1.5"></line></g></svg>