<?xml version="1.0" encoding="UTF-8"?><svg version="1.1" viewBox="0 0 24 24" xmlns="http://www.w3.org/2000/svg" xmlns:xlink="http://www.w3.org/1999/xlink"><!--Generated by IJSVG (https://github.com/iconjar/IJSVG)--><g fill="none"><path d="M0,0h24v24h-24Z"></path><path stroke="#323232" stroke-linecap="round" stroke-linejoin="round" stroke-width="1.5" d="M3.689,3.689v0c-0.918,0.918 -0.918,2.407 0,3.325v0c0.918,0.918 0.918,2.407 0,3.325v0c-0.918,0.918 -0.918,2.407 0,3.325v0c0.918,0.918 0.918,2.407 0,3.325v0c-0.918,0.918 -0.918,2.407 0,3.325v0c0.918,0.918 2.407,0.918 3.325,0v0c0.918,-0.918 2.407,-0.918 3.325,0v0c0.918,0.918 2.407,0.918 3.325,0v0c0.918,-0.918 2.407,-0.918 3.325,0v0c0.918,0.918 2.407,0.918 3.325,0v0c0.918,-0.918 0.918,-2.407 0,-3.325v0c-0.918,-0.918 -0.918,-2.407 0,-3.325v0c0.918,-0.918 0.918,-2.407 0,-3.325v0c-0.918,-0.918 -0.918,-2.407 0,-3.325v0c0.918,-0.918 0.918,-2.407 0,-3.325v0c-0.918,-0.918 -2.407,-0.918 -3.325,0v0c-0.918,0.918 -2.407,0.918 -3.325,0v0c-0.918,-0.918 -2.407,-0.918 -3.325,0v0c-0.918,0.918 -2.407,0.918 -3.325,0v0c-0.919,-0.919 -2.407,-0.919 -3.325,-1.77636e-15Z"></path><path stroke="#323232" stroke-linecap="round" stroke-linejoin="round" stroke-width="1.5" d="M15,16.028h-6c-0.552,0 -1,-0.448 -1,-1v-6c0,-0.552 0.448,-1 1,-1h6c0.552,0 1,0.448 1,1v6c0,0.552 -0.448,1 -1,1Z"></path></g></svg>