<?xml version="1.0" encoding="UTF-8"?><svg version="1.1" viewBox="0 0 24 24" xmlns="http://www.w3.org/2000/svg" xmlns:xlink="http://www.w3.org/1999/xlink"><!--Generated by IJSVG (https://github.com/iconjar/IJSVG)--><g stroke-linecap="round" stroke-width="1.5" stroke="#323232" fill="none" stroke-linejoin="round"><path d="M14.625,15.53h-5.25c-0.966,0 -1.749,-0.783 -1.749,-1.749v-3.502c0,-0.966 0.783,-1.749 1.749,-1.749h5.252c0.966,0 1.749,0.783 1.749,1.749v3.502c-0.001,0.965 -0.784,1.749 -1.751,1.749Z"></path><path d="M7.696,9.812l3.231,2.311c0.638,0.457 1.496,0.457 2.135,0.002l3.242,-2.312"></path><path d="M5.16,6.188c0.461,-0.54 0.986,-1.021 1.562,-1.438"></path><path d="M17,19.51c-1.43,0.958 -3.149,1.518 -5,1.518c-0.912,0 -1.791,-0.138 -2.62,-0.39"></path><path d="M6.349,19.028c-1.281,-1.035 -2.265,-2.417 -2.826,-4"></path><path d="M3.523,9.028c-0.333,0.94 -0.523,1.946 -0.523,3"></path><path d="M19.463,17.028c0.964,-1.431 1.537,-3.145 1.537,-5c0,-4.971 -4.029,-9 -9,-9"></path></g><path fill="none" d="M0,0.028h24v24h-24v-24Z"></path></svg>