<?xml version="1.0" encoding="UTF-8"?><svg version="1.1" viewBox="0 0 24 24" xmlns="http://www.w3.org/2000/svg" xmlns:xlink="http://www.w3.org/1999/xlink"><g fill="none"><path d="M0 0h24v24h-24v-24Z"></path><path stroke="#323232" stroke-linecap="round" stroke-linejoin="round" stroke-width="1.5" d="M6.828 19.828l-2.657-2.657c-.75-.75-1.171-1.767-1.171-2.828v-4.686c0-1.061.421-2.078 1.172-2.828l2.657-2.657c.75-.751 1.767-1.172 2.828-1.172h4.685c1.061 0 2.078.421 2.828 1.172l2.658 2.658c.751.75 1.172 1.767 1.172 2.828v4.684c0 1.061-.421 2.078-1.171 2.828l-2.657 2.658c-.75.75-1.768 1.172-2.829 1.172h-4.686c-1.061 0-2.078-.421-2.829-1.172Z"></path><path stroke="#323232" stroke-linecap="round" stroke-linejoin="round" stroke-width="1.5" d="M7.503 8.781c.638.584 2.136 1.954 3.375 3.083 .636.58 1.609.581 2.245.001 1.283-1.17 2.749-2.511 3.375-3.084"></path><path stroke="#323232" stroke-linecap="round" stroke-linejoin="round" stroke-width="1.5" d="M15.333 15.696h-6.666c-.921 0-1.667-.747-1.667-1.667v-4.058c0-.92.746-1.667 1.667-1.667h6.667c.92 0 1.667.746 1.667 1.667v4.058c-.001.92-.747 1.667-1.668 1.667Z"></path><path stroke="#323232" stroke-linecap="round" stroke-linejoin="round" stroke-width="1.5" d="M12.977 11.984c1.06.893 2.824 2.561 3.527 3.23"></path><path stroke="#323232" stroke-linecap="round" stroke-linejoin="round" stroke-width="1.5" d="M11.023 11.983c-1.06.893-2.825 2.561-3.528 3.23"></path></g></svg>