<?xml version="1.0" encoding="UTF-8"?><svg version="1.1" viewBox="0 0 24 24" xmlns="http://www.w3.org/2000/svg" xmlns:xlink="http://www.w3.org/1999/xlink"><g stroke-linecap="round" stroke-width="1.5" stroke="#323232" fill="none" stroke-linejoin="round"><path d="M16.293 9.707l4.414-4.414c.391-.391.391-1.024 0-1.414l-1.586-1.586c-.391-.391-1.024-.391-1.414 0l-4.414 4.414c-.188.188-.293.442-.293.707v2.586h2.586c.265 0 .519-.105.707-.293Z"></path><path d="M3 15h4.382c.379 0 .725.214.894.553l.447.894c.17.339.516.553.895.553h4.764c.379 0 .725-.214.894-.553l.447-.894c.17-.339.516-.553.895-.553h4.382"></path><path d="M21 11v8c0 1.105-.895 2-2 2h-14c-1.105 0-2-.895-2-2v-14c0-1.105.895-2 2-2h6"></path></g><path fill="none" d="M0 0h24v24h-24v-24Z"></path></svg>