<?xml version="1.0" encoding="UTF-8"?><svg version="1.1" viewBox="0 0 24 24" xmlns="http://www.w3.org/2000/svg" xmlns:xlink="http://www.w3.org/1999/xlink"><!--Generated by IJSVG (https://github.com/iconjar/IJSVG)--><g stroke-linecap="round" stroke-width="1.5" stroke="#323232" fill="none" stroke-linejoin="round"><path d="M20.383,3.645c0.823,0.823 0.823,2.156 0,2.979c-0.823,0.823 -2.156,0.823 -2.979,0c-0.823,-0.823 -0.823,-2.156 0,-2.979c0.823,-0.823 2.157,-0.823 2.979,-4.44089e-16"></path><path d="M19.969,11.483v7.424c0,1.172 -0.949,2.121 -2.121,2.121h-12.727c-1.172,0 -2.121,-0.949 -2.121,-2.121v-12.727c0,-1.172 0.949,-2.121 2.121,-2.121h7.424"></path><path d="M13.201,16.687c-0.562,0.232 -1.144,0.341 -1.717,0.341c-2.476,-3.55271e-15 -4.484,-2.008 -4.484,-4.485c0,-2.477 2.008,-4.485 4.485,-4.485c2.477,0 4.485,2.008 4.485,4.485v0.747c0,0.774 -0.628,1.401 -1.401,1.401c-0.773,0 -1.401,-0.628 -1.401,-1.401v-0.747c0,-0.929 -0.753,-1.682 -1.682,-1.682v0c-0.929,0 -1.682,0.753 -1.682,1.682c0,0.929 0.753,1.682 1.682,1.682c0.929,0 1.682,-0.753 1.682,-1.682"></path></g><path fill="none" d="M0,0.028h24v24h-24Z"></path></svg>