<svg id="Layer_3" data-name="Layer 3" xmlns="http://www.w3.org/2000/svg" viewBox="0 0 24 24"><path d="M0,0H24V24H0Z" fill="none"/><line x1="4" y1="5" x2="19" y2="20" fill="none" stroke="#323232" stroke-linecap="round" stroke-linejoin="round" stroke-width="1.5"/><line x1="4.63801" y1="19.51922" x2="11.57861" y2="12.57861" fill="none" stroke="#323232" stroke-linecap="round" stroke-linejoin="round" stroke-width="1.5"/><path d="M14.65681,4.78341l1.75-1.39995a1.75,1.75,0,0,1,2.18638,0l1.75,1.4A1.75,1.75,0,0,1,21,6.14995V9a1,1,0,0,1-1,1H15a1,1,0,0,1-1-1V6.14995A1.75,1.75,0,0,1,14.65681,4.78341Z" fill="none" stroke="#323232" stroke-linecap="round" stroke-linejoin="round" stroke-width="1.5"/><path d="M21,14v2a5,5,0,0,1-5,5H8a5,5,0,0,1-5-5V8A5,5,0,0,1,8,3h3" fill="none" stroke="#323232" stroke-linecap="round" stroke-linejoin="round" stroke-width="1.5"/></svg>