<svg id="Layer_3" data-name="Layer 3" xmlns="http://www.w3.org/2000/svg" viewBox="0 0 24 24"><path d="M0,24V0H24V24Z" fill="none"/><path d="M15,5.64995V7.75A1.25,1.25,0,0,0,16.25,9h3.5A1.25,1.25,0,0,0,21,7.75V5.64995a1.25,1.25,0,0,0-.46915-.9761l-1.75-1.39995a1.25,1.25,0,0,0-1.5617,0l-1.75,1.4A1.25,1.25,0,0,0,15,5.64995Z" fill="none" stroke="#323232" stroke-linecap="round" stroke-linejoin="round" stroke-width="1.5"/><line x1="9" y1="19.10783" x2="9" y2="3.05127" fill="none" stroke="#323232" stroke-linecap="round" stroke-linejoin="round" stroke-width="1.5"/><line x1="15" y1="13" x2="15" y2="20.99994" fill="none" stroke="#323232" stroke-linecap="round" stroke-linejoin="round" stroke-width="1.5"/><path d="M12,3.946,9.31628,3.05127a1.00119,1.00119,0,0,0-.63256,0l-5,1.667A.99977.99977,0,0,0,3,5.66687V19.6665a1.00005,1.00005,0,0,0,1.31628.94873L8.6839,19.15918a.99955.99955,0,0,1,.63257,0l5.367,1.78931a.99712.99712,0,0,0,.63178.00024c1.71472-.57153,3.46667-1.15576,5.00616-1.66894A.99339.99339,0,0,0,21,18.33276V12" fill="none" stroke="#323232" stroke-linecap="round" stroke-linejoin="round" stroke-width="1.5"/></svg>