<svg id="Layer_3" data-name="Layer 3" xmlns="http://www.w3.org/2000/svg" viewBox="0 0 24 24"><path d="M0,0H24V24H0Z" fill="none"/><line x1="14.40689" y1="13.40689" x2="4" y2="3" fill="none" stroke="#323232" stroke-linecap="round" stroke-linejoin="round" stroke-width="1.5"/><path d="M14.5453,18.11291c.76443.76443,2.40662.36163,3.66793-.89968s1.66411-2.9035.89968-3.66793a3.23538,3.23538,0,1,0-4.56761,4.56761Z" fill="none" stroke="#323232" stroke-linecap="round" stroke-linejoin="round" stroke-width="1.5"/><path d="M16.98737,18.10864l2.452,2.452a1.5,1.5,0,0,0,2.12132,0h0a1.5,1.5,0,0,0,0-2.12133l-2.452-2.452" fill="none" stroke="#323232" stroke-linecap="round" stroke-linejoin="round" stroke-width="1.5"/><line x1="9.59311" y1="13.40689" x2="20" y2="3" fill="none" stroke="#323232" stroke-linecap="round" stroke-linejoin="round" stroke-width="1.5"/><path d="M9.4547,18.11291c-.76443.76443-2.40662.36163-3.66793-.89968s-1.66411-2.9035-.89968-3.66793a3.332,3.332,0,0,1,4.706-.13841A3.332,3.332,0,0,1,9.4547,18.11291Z" fill="none" stroke="#323232" stroke-linecap="round" stroke-linejoin="round" stroke-width="1.5"/><path d="M7.01263,18.10864l-2.452,2.452a1.5,1.5,0,0,1-2.12132,0h0a1.5,1.5,0,0,1,0-2.12133l2.452-2.452" fill="none" stroke="#323232" stroke-linecap="round" stroke-linejoin="round" stroke-width="1.5"/></svg>