<?xml version="1.0" encoding="UTF-8"?><svg version="1.1" viewBox="0 0 24 24" xmlns="http://www.w3.org/2000/svg" xmlns:xlink="http://www.w3.org/1999/xlink"><!--Generated by IJSVG (https://github.com/iconjar/IJSVG)--><g stroke-linecap="round" stroke-width="1.5" stroke="#323232" fill="none" stroke-linejoin="round"><path d="M16,3v7.74"></path><path d="M8,10.74v-7.74"></path><path d="M11.999,19.326l3.008,1.581c0.586,0.308 1.27,-0.19 1.158,-0.842l-0.575,-3.349l2.434,-2.371c0.474,-0.462 0.213,-1.267 -0.442,-1.362l-3.363,-0.489l-1.504,-3.049c-0.293,-0.594 -1.139,-0.594 -1.432,0l-1.503,3.049l-3.363,0.489c-0.655,0.095 -0.916,0.9 -0.442,1.362l2.434,2.371l-0.575,3.349c-0.112,0.652 0.572,1.149 1.158,0.842l3.008,-1.581"></path><path d="M10.062,11.922l-4.057,-2.326c-0.621,-0.356 -1.005,-1.018 -1.005,-1.735v-2.861c0,-1.105 0.895,-2 2,-2h10c1.105,0 2,0.895 2,2v2.861c0,0.717 -0.383,1.379 -1.005,1.735l-4.057,2.326"></path></g><path fill="none" d="M0,0h24v24h-24Z"></path></svg>