<svg id="Layer_3" data-name="Layer 3" xmlns="http://www.w3.org/2000/svg" viewBox="0 0 24 24"><path d="M0,0H24V24H0Z" fill="none"/><line x1="8.5" y1="16.00001" x2="11" y2="16.00001" fill="none" stroke="#323232" stroke-linecap="round" stroke-linejoin="round" stroke-width="1.5"/><line x1="12" y1="13.00001" x2="8.5" y2="13.00001" fill="none" stroke="#323232" stroke-linecap="round" stroke-linejoin="round" stroke-width="1.5"/><line x1="10" y1="9.50001" x2="10" y2="6.50001" fill="none" stroke="#323232" stroke-linecap="round" stroke-linejoin="round" stroke-width="1.5"/><line x1="11.5" y1="8.00001" x2="8.5" y2="8.00001" fill="none" stroke="#323232" stroke-linecap="round" stroke-linejoin="round" stroke-width="1.5"/><path d="M14.5,21h6a.5.5,0,0,0,.5-.5v-.406A2.1,2.1,0,0,0,18.906,18H16.094A2.1,2.1,0,0,0,14,20.094V20.5A.5.5,0,0,0,14.5,21Z" fill="none" stroke="#323232" stroke-linecap="round" stroke-linejoin="round" stroke-width="1.5"/><circle cx="17.5" cy="13.50001" r="2" fill="none" stroke="#323232" stroke-linecap="round" stroke-linejoin="round" stroke-width="1.5"/><path d="M21,9V8.50932a3,3,0,0,0-.87867-2.1213L17.612,3.87868A3,3,0,0,0,15.49069,3H7A3,3,0,0,0,4,6V18a3,3,0,0,0,3,3h3" fill="none" stroke="#323232" stroke-linecap="round" stroke-linejoin="round" stroke-width="1.5"/></svg>