<?xml version="1.0" encoding="UTF-8"?><svg version="1.1" viewBox="0 0 24 24" xmlns="http://www.w3.org/2000/svg" xmlns:xlink="http://www.w3.org/1999/xlink"><!--Generated by IJSVG (https://github.com/iconjar/IJSVG)--><g stroke-linecap="round" stroke-width="1.5" stroke="#323232" fill="none" stroke-linejoin="round"><path d="M3.086,4.965c0.02,0.02 0.02,0.051 0,0.071c-0.02,0.02 -0.051,0.02 -0.071,0c-0.02,-0.02 -0.02,-0.051 0,-0.071c0.02,-0.02 0.052,-0.02 0.071,0"></path><path d="M6.501,5h13.499"></path><path d="M3.086,9.964c0.02,0.02 0.02,0.051 0,0.071c-0.02,0.02 -0.051,0.02 -0.071,0c-0.02,-0.02 -0.02,-0.051 0,-0.071c0.02,-0.02 0.052,-0.02 0.071,0"></path><path d="M6.501,9.999l7.499,0.001"></path><path d="M3.086,14.964c0.02,0.02 0.02,0.051 0,0.071c-0.02,0.02 -0.051,0.02 -0.071,0c-0.02,-0.02 -0.02,-0.051 0,-0.071c0.02,-0.02 0.052,-0.02 0.071,0"></path><path d="M6.501,14.999l2.499,0.001"></path><path d="M15.061,18.439c0.586,0.586 0.586,1.536 0,2.121c-0.586,0.586 -1.536,0.586 -2.121,0c-0.586,-0.586 -0.586,-1.536 0,-2.121c0.585,-0.585 1.535,-0.585 2.121,0"></path><path d="M20.561,17.439c0.586,0.586 0.586,1.536 0,2.121c-0.586,0.586 -1.536,0.586 -2.121,0c-0.586,-0.586 -0.586,-1.536 0,-2.121c0.585,-0.585 1.535,-0.585 2.121,0"></path><path d="M15.5,19.5v-4.823c0,-0.409 0.249,-0.777 0.629,-0.928l3.5,-1.4c0.657,-0.263 1.371,0.221 1.371,0.928v5.223"></path></g><path fill="none" d="M0,0h24v24h-24v-24Z"></path></svg>