<?xml version="1.0" encoding="UTF-8"?><svg version="1.1" viewBox="0 0 24 24" xmlns="http://www.w3.org/2000/svg" xmlns:xlink="http://www.w3.org/1999/xlink"><g stroke-linecap="round" stroke-width="1.5" stroke="#323232" fill="none" stroke-linejoin="round"><rect width="16" height="12" x="4" y="9" rx="1.10456" ry="0"></rect><line x1="6.5" x2="17.5" y1="6" y2="6"></line><line x1="8" x2="16" y1="3" y2="3"></line><path d="M15.368 14.931h-3.01609e-09c-.0381076 1.66574e-09-.069.0308924-.069.069 1.66574e-09.0381076.0308924.069.069.069 .0381076-1.66574e-09.069-.0308924.069-.069h1.77636e-15c0-.0381076-.0308924-.069-.069-.069 0 0-1.77636e-15 0-1.77636e-15 0"></path><path d="M8.631 14.931l-3.96485e-09-4.29878e-13c-.0375554-4.05895e-06-.0680033.0304373-.0680073.0679927 -3.62928e-08.000335798 2.41478e-06.000671592 7.35301e-06.00100735l-3.80545e-10-7.23633e-06c5.75409e-09.0381076.0308924.069.069.069 .0381076-5.75409e-09.069-.0308924.069-.069 -5.75409e-09-.0381076-.0308924-.069-.069-.069 -.000330931 4.99689e-11-.000661857 2.38086e-06-.000992754 7.14226e-06"></path><path d="M11.931 15v1.04187e-08c5.75409e-09.0381076.0308924.069.069.069 .0381076-5.75409e-09.069-.0308924.069-.069 -5.75409e-09-.0381076-.0308924-.069-.069-.069h-3.01609e-09c-.0381076 1.66574e-09-.069.0308924-.069.069 0 0 0 1.77636e-15 0 1.77636e-15"></path></g><path fill="none" d="M0 0h24v24h-24Z"></path></svg>