<svg id="Layer_3" data-name="Layer 3" xmlns="http://www.w3.org/2000/svg" viewBox="0 0 24 24"><path d="M15.75,10.25A.75.75,0,0,0,15,9.5H13.5V8a.75.75,0,0,0-.75-.75h-1.5A.75.75,0,0,0,10.5,8V9.5H9a.75.75,0,0,0-.75.75v1.5A.75.75,0,0,0,9,12.5h1.5V14a.75.75,0,0,0,.75.75h1.5A.75.75,0,0,0,13.5,14V12.5H15a.75.75,0,0,0,.75-.75Z" fill="none" stroke="#323232" stroke-linecap="round" stroke-linejoin="round" stroke-width="1.5"/><path d="M18.0104,4.98159h0a8.4534,8.4534,0,0,1,0,11.98217h0l-3.51881,3.50751a3.53173,3.53173,0,0,1-4.97146.01166l-.01174-.01166L5.98958,16.9638A8.45357,8.45357,0,0,1,5.98952,4.98159h0A8.5195,8.5195,0,0,1,17.982,4.95346l.02832.02813Z" fill="none" stroke="#323232" stroke-linecap="round" stroke-linejoin="round" stroke-width="1.5"/></svg>