<svg id="Layer_3" data-name="Layer 3" xmlns="http://www.w3.org/2000/svg" viewBox="0 0 24 24"><path d="M21,21l-7-.0001" fill="none" stroke="#323232" stroke-linecap="round" stroke-linejoin="round" stroke-width="1.5"/><path d="M19.78,21V10.98706" fill="none" stroke="#323232" stroke-linecap="round" stroke-linejoin="round" stroke-width="1.5"/><path d="M2.27578,7.47765A2.33858,2.33858,0,0,0,2.113,9.28433a2.4607,2.4607,0,0,0,4.7201-.10092.14405.14405,0,0,1,.27625,0,2.46262,2.46262,0,0,0,4.75259-.00051.144.144,0,0,1,.27621,0,2.46264,2.46264,0,0,0,4.75263-.00017.14407.14407,0,0,1,.27626,0,2.46068,2.46068,0,0,0,4.71992.10108,2.3386,2.3386,0,0,0-.16272-1.807L20.01752,4.09822A2,2,0,0,0,18.23236,3H5.76809A2,2,0,0,0,3.98293,4.09822Z" fill="none" stroke="#323232" stroke-linecap="round" stroke-linejoin="round" stroke-width="1.5"/><path d="M13,14h3v3H14" fill="none" stroke="#323232" stroke-linecap="round" stroke-linejoin="round" stroke-width="1.5"/><path d="M10,17.5a.75.75,0,0,0-.75-.75H7.75v-1.5A.75.75,0,0,0,7,14.5H5.5a.75.75,0,0,0-.75.75v1.5H3.25a.75.75,0,0,0-.75.75V19a.75.75,0,0,0,.75.75h1.5v1.5A.75.75,0,0,0,5.5,22H7a.75.75,0,0,0,.75-.75v-1.5h1.5A.75.75,0,0,0,10,19Z" fill="none" stroke="#323232" stroke-linecap="round" stroke-linejoin="round" stroke-width="1.5"/><rect width="24" height="24" fill="none"/></svg>