<svg id="Layer_3" data-name="Layer 3" xmlns="http://www.w3.org/2000/svg" viewBox="0 0 24 24"><path d="M0,0H24V24H0Z" fill="none"/><path d="M21,16.2a.8.8,0,0,0-.8-.8H18.6V13.8a.8.8,0,0,0-.8-.8H16.2a.8.8,0,0,0-.8.8v1.6H13.8a.8.8,0,0,0-.8.8v1.6a.8.8,0,0,0,.8.8h1.6v1.6a.8.8,0,0,0,.8.8h1.6a.8.8,0,0,0,.8-.8V18.6h1.6a.8.8,0,0,0,.8-.8Z" fill="none" stroke="#323232" stroke-linecap="round" stroke-linejoin="round" stroke-width="1.5"/><path d="M11,21H5a2,2,0,0,1-2-2V6A2,2,0,0,1,5,4H9.04345a2,2,0,0,1,1.65355.87494l1.14822,1.68759A1,1,0,0,0,12.672,7H19a2,2,0,0,1,2,2v2" fill="none" stroke="#323232" stroke-linecap="round" stroke-linejoin="round" stroke-width="1.5"/></svg>