<svg id="Layer_3" data-name="Layer 3" xmlns="http://www.w3.org/2000/svg" viewBox="0 0 24 24"><path d="M0,0H24V24H0Z" fill="none"/><path d="M9.57082,12.47051l-2.2484,2.2484a.5.5,0,0,0,0,.70714L8.574,16.67764a.5.5,0,0,0,.70713,0l2.24838-2.24844a.5.5,0,0,0,0-.70713L10.278,12.47051A.5.5,0,0,0,9.57082,12.47051Z" fill="none" stroke="#323232" stroke-linecap="round" stroke-linejoin="round" stroke-width="1.5"/><path d="M7.03867,21.70712a1,1,0,0,0,1.41421,0L21.70711,8.4529a1,1,0,0,0,0-1.41421l-.919-.919a.47746.47746,0,0,0-.58558-.08673,1.62537,1.62537,0,0,1-2.24371-2.24372.47747.47747,0,0,0-.08673-.58557l-.9108-.9108a1,1,0,0,0-1.4142,0L2.29291,15.54711a1,1,0,0,0,0,1.41423l.91893.91893a.47743.47743,0,0,0,.58551.08675,1.62544,1.62544,0,0,1,2.24382,2.24382.47743.47743,0,0,0,.08674.58551Z" fill="none" stroke="#323232" stroke-linecap="round" stroke-linejoin="round" stroke-width="1.5"/><path d="M14.42918,11.52951l2.24841-2.2484a.5.5,0,0,0,0-.70714L15.426,7.32238a.5.5,0,0,0-.70714,0L12.47049,9.57083a.5.5,0,0,0,0,.70713l1.25156,1.25155A.5.5,0,0,0,14.42918,11.52951Z" fill="none" stroke="#323232" stroke-linecap="round" stroke-linejoin="round" stroke-width="1.5"/></svg>