<?xml version="1.0" encoding="UTF-8"?><svg version="1.1" viewBox="0 0 24 24" xmlns="http://www.w3.org/2000/svg" xmlns:xlink="http://www.w3.org/1999/xlink"><g stroke-linecap="round" stroke-width="1.5" stroke="#323232" fill="none" stroke-linejoin="round"><path d="M21 12v0c0 4.971-4.029 9-9 9v0c-4.971 0-9-4.029-9-9v0c0-4.971 4.029-9 9-9v0c4.971 0 9 4.029 9 9Z"></path><path d="M11.625 12.001c0 .207.168.375.375.373 .207 0 .375-.168.375-.375 0-.207-.168-.375-.375-.375 -.207.001-.375.169-.375.377"></path><path d="M11.625 8.001c0 .207.168.375.375.373 .207 0 .375-.168.375-.375 0-.207-.168-.375-.375-.375 -.207.001-.375.169-.375.377"></path><path d="M11.625 16.001c0 .207.168.375.375.373 .207 0 .375-.168.375-.375 0-.207-.168-.375-.375-.375 -.207.001-.375.169-.375.377"></path></g><path fill="none" d="M0 24v-24h24v24h-24Z"></path></svg>