<svg id="Layer_3" data-name="Layer 3" xmlns="http://www.w3.org/2000/svg" viewBox="0 0 24 24"><rect width="24" height="24" fill="none"/><path d="M12,14a4.85832,4.85832,0,0,0,4.20807-2.40836h0a2.187,2.187,0,0,0,0-2.18328h0a4.88051,4.88051,0,0,0-8.41614,0h0a2.187,2.187,0,0,0,0,2.18328h0A4.85831,4.85831,0,0,0,12,14Z" fill="none" stroke="#323232" stroke-linecap="round" stroke-linejoin="round" stroke-width="1.5"/><path d="M13.5,18,9.80839,20.89264A.5.5,0,0,1,9,20.49908V18H6a3,3,0,0,1-3-3V6A3,3,0,0,1,6,3H18a3,3,0,0,1,3,3v9a3,3,0,0,1-3,3Z" fill="none" stroke="#323232" stroke-linecap="round" stroke-linejoin="round" stroke-width="1.5"/><path d="M12.005,10.5,12,10.505l-.005-.005L12,10.495l.005.005" fill="none" stroke="#323232" stroke-linecap="round" stroke-linejoin="round" stroke-width="1.5"/></svg>