<svg id="Layer_3" data-name="Layer 3" xmlns="http://www.w3.org/2000/svg" viewBox="0 0 24 24"><path d="M4.62892,17.16368a8.99979,8.99979,0,1,1,2.20679,2.2067l-2.83727.63045Z" fill="none" stroke="#323232" stroke-linecap="round" stroke-linejoin="round" stroke-width="1.5"/><path d="M7.5,10.17971v1.27292a5.625,5.625,0,0,0,3.64993,5.26685l.65257.24471a.5625.5625,0,0,0,.395,0l.65257-.24471A5.625,5.625,0,0,0,16.5,11.45263V10.17971a1.125,1.125,0,0,0-.78945-1.07381l-3.375-1.05469a1.12494,1.12494,0,0,0-.6711,0L8.28945,9.1059A1.125,1.125,0,0,0,7.5,10.17971Z" fill="none" stroke="#323232" stroke-linecap="round" stroke-linejoin="round" stroke-width="1.5"/><rect width="24" height="24" fill="none"/></svg>