<svg id="Layer_3" data-name="Layer 3" xmlns="http://www.w3.org/2000/svg" viewBox="0 0 24 24"><path d="M0,0H24V24H0Z" fill="none"/><circle cx="17.5" cy="6.5" r="4.5" fill="none" stroke="#323232" stroke-linecap="round" stroke-linejoin="round" stroke-width="1.5"/><path d="M17.50977,6.05V4.8" fill="none" stroke="#323232" stroke-linecap="round" stroke-linejoin="round" stroke-width="1.5"/><path d="M17.50535,8.20029a.05.05,0,1,0,.04436.05506v-.0107a.05.05,0,0,0-.04436-.04436" fill="none" stroke="#323232" stroke-linecap="round" stroke-linejoin="round" stroke-width="1.5"/><path d="M21,13v2a3,3,0,0,1-3,3H12.5L8.80839,20.89264A.5.5,0,0,1,8,20.49908V18H6a3,3,0,0,1-3-3V6A3,3,0,0,1,6,3h5" fill="none" stroke="#323232" stroke-linecap="round" stroke-linejoin="round" stroke-width="1.5"/></svg>