<svg xmlns="http://www.w3.org/2000/svg" viewBox="0 0 24 24"><g id="Layer_2" data-name="Layer 2"><path d="M0,0H24V24H0Z" fill="none"/><path d="M12.5,18,8.80839,20.89264A.5.5,0,0,1,8,20.49908V18H6a3,3,0,0,1-3-3V6A3,3,0,0,1,6,3H18a3,3,0,0,1,3,3v9a3,3,0,0,1-3,3Z" fill="none" stroke="#323232" stroke-linecap="round" stroke-linejoin="round" stroke-width="1.5"/><path d="M12,14a5.16794,5.16794,0,0,1-4.42684-2.40836l-.0309-.0507a2,2,0,0,1,0-2.08189l.0309-.05069A5.16794,5.16794,0,0,1,12,7" fill="none" stroke="#323232" stroke-linecap="round" stroke-linejoin="round" stroke-width="1.5"/><path d="M12,7a5.16794,5.16794,0,0,1,4.42684,2.40836l.0309.05068a2,2,0,0,1,0,2.08191l-.0309.05069A5.16794,5.16794,0,0,1,12,14" fill="none" stroke="#323232" stroke-linecap="round" stroke-linejoin="round" stroke-width="1.5"/><path d="M11.99952,10.625A.125.125,0,1,1,12.125,10.5a.12434.12434,0,0,1-.12548.125" fill="none" stroke="#323232" stroke-linecap="round" stroke-linejoin="round" stroke-width="1.5"/></g></svg>