<svg id="Layer_3" data-name="Layer 3" xmlns="http://www.w3.org/2000/svg" viewBox="0 0 24 24"><path d="M0,0H24V24H0Z" fill="none"/><line x1="7" y1="9" x2="9" y2="9" fill="none" stroke="#323232" stroke-linecap="round" stroke-linejoin="round" stroke-width="1.5"/><line x1="7" y1="13" x2="12" y2="13" fill="none" stroke="#323232" stroke-linecap="round" stroke-linejoin="round" stroke-width="1.5"/><path d="M16.25,6l1,1,1.5-1.5" fill="none" stroke="#323232" stroke-linecap="round" stroke-linejoin="round" stroke-width="1.5"/><path d="M13,6.99782v-2.55a1.5,1.5,0,0,1,.9915-1.4115l2.2875-.82349a3.59992,3.59992,0,0,1,2.439,0l2.2905.825A1.5,1.5,0,0,1,22,4.44784v2.55c0,1.9095-2.6715,3.3225-3.9,3.873a1.458,1.458,0,0,1-1.2,0C15.6715,10.32032,13,8.90432,13,6.99782Z" fill="none" stroke="#323232" stroke-linecap="round" stroke-linejoin="round" stroke-width="1.5"/><path d="M10,3H6A3,3,0,0,0,3,6v9a3,3,0,0,0,3,3H8.007v2.4429a.5561.5561,0,0,0,.90349.43424L12.507,18H18a3,3,0,0,0,3-3V13" fill="none" stroke="#323232" stroke-linecap="round" stroke-linejoin="round" stroke-width="1.5"/></svg>