<?xml version="1.0" encoding="UTF-8"?><svg version="1.1" viewBox="0 0 24 24" xmlns="http://www.w3.org/2000/svg" xmlns:xlink="http://www.w3.org/1999/xlink"><!--Generated by IJSVG (https://github.com/iconjar/IJSVG)--><g stroke-linecap="round" stroke-width="1.5" stroke="#323232" fill="none" stroke-linejoin="round"><path d="M14,20h5c1.105,0 2,-0.895 2,-2v-12c0,-1.105 -0.895,-2 -2,-2h-14c-1.105,0 -2,0.895 -2,2v12c0,1.105 0.895,2 2,2h5l2,2l2,-2Z"></path><path d="M12.177,11.823c0.098,0.098 0.098,0.256 0,0.354c-0.098,0.098 -0.256,0.098 -0.354,0c-0.098,-0.098 -0.098,-0.256 0,-0.354c0.098,-0.097 0.256,-0.097 0.354,0"></path><path d="M16.177,11.823c0.098,0.098 0.098,0.256 0,0.354c-0.098,0.098 -0.256,0.098 -0.354,0c-0.098,-0.098 -0.098,-0.256 0,-0.354c0.098,-0.097 0.256,-0.097 0.354,0"></path><path d="M8.177,11.823c0.098,0.098 0.098,0.256 0,0.354c-0.098,0.098 -0.256,0.098 -0.354,0c-0.098,-0.098 -0.098,-0.256 0,-0.354c0.098,-0.097 0.256,-0.097 0.354,0"></path></g><path fill="none" d="M0,0h24v24h-24v-24Z"></path></svg>