<?xml version="1.0" encoding="UTF-8"?><svg version="1.1" viewBox="0 0 24 24" xmlns="http://www.w3.org/2000/svg" xmlns:xlink="http://www.w3.org/1999/xlink"><g fill="none"><path d="M0 0h24v24h-24Z"></path><path stroke="#323232" stroke-linecap="round" stroke-linejoin="round" stroke-width="1.5" d="M10.889 14.722h-.278l-1.57842e-07-1.77636e-15c-1.9943-8.71736e-08-3.611-1.6167-3.611-3.611 0 0 0-1.77636e-15 0-1.77636e-15h-2.66454e-15l3.73035e-14-3.87404e-07c3.01131e-07-1.9943 1.6167-3.611 3.611-3.611h2.389l-1.74846e-07 3.55271e-15c2.20914-9.65645e-08 4 1.79086 4 4v0l1.03003e-08 8.98609e-06c.00159077 1.38917-.717681 2.67969-1.90001 3.409l-4.21099 2.591v-2.778"></path><path stroke="#323232" stroke-linecap="round" stroke-linejoin="round" stroke-width="1.5" d="M21 12v0l1.74244e-08.000560017c0 4.97025-4.02919 8.99944-8.99944 8.99944 -.000373345 0-.00074669-2.32325e-08-.00112003-6.96976e-08v0l-4.00408e-07 2.49081e-11c-4.97025.000309068-8.99969-4.02863-9-8.99888 -2.32159e-08-.000373345-2.31993e-08-.00074669 4.98339e-11-.00112003h.000560017l-1.74243e-08-.000558659c-7.50487e-07-4.97025 4.02919-8.99944 8.99944-8.99944 .000373345-5.63727e-11.00074669 2.31198e-08.00112003 6.95284e-08v0l-1.07291e-07 1.59872e-14c4.97025-8.09757e-07 8.99944 4.02919 8.99944 8.99944 3.05072e-11.000187253-5.78331e-09.000374506-1.74414e-08.000561759Z"></path></g></svg>