<?xml version="1.0" encoding="UTF-8"?><svg version="1.1" viewBox="0 0 24 24" xmlns="http://www.w3.org/2000/svg" xmlns:xlink="http://www.w3.org/1999/xlink"><g stroke-linecap="round" stroke-width="1.5" stroke="#323232" fill="none" stroke-linejoin="round"><path d="M14.3621 5.9978l-.38639-1.93195 1.673e-08 8.36337e-08c-.092949-.464655-.544976-.765982-1.00963-.673033 -.0747536.0149536-.147181.0398033-.215369.0738928l-4.74077 2.37037 1.07947e-07-5.39731e-08c-1.01657.508279-1.94454 1.17712-2.7482 1.98079v0l4.54127e-07-4.54128e-07c-3.01559 3.0156-3.01559 7.90483-9.08254e-07 10.9204v0l-5.19241e-07-5.19239e-07c3.0156 3.01559 7.90483 3.01559 10.9204 1.03848e-06v0l-5.93395e-08 5.93391e-08c.803666-.803662 1.47251-1.73163 1.98079-2.7482l2.37037-4.74074 3.24006e-09-6.48099e-09c.211894-.423845.0400739-.939213-.383771-1.15111 -.0681881-.0340895-.140615-.0589392-.215369-.0738928l-1.932-.38639 2.89093-5.36886 -1.75108e-08 3.25226e-08c.224643-.417228.0685219-.937567-.348706-1.16221 -.253934-.136723-.55957-.136723-.813504-3.50215e-08Z"></path><circle cx="10.5" cy="13.5" r="4"></circle></g><path fill="none" d="M0 0h24v24h-24Z"></path></svg>