<svg id="Layer_3" data-name="Layer 3" xmlns="http://www.w3.org/2000/svg" viewBox="0 0 24 24"><path d="M0,24V0H24V24Z" fill="none"/><line x1="12" y1="6.49999" x2="12" y2="10.99999" fill="none" stroke="#323232" stroke-linecap="round" stroke-linejoin="round" stroke-width="1.5"/><line x1="15" y1="9" x2="15" y2="9.99999" fill="none" stroke="#323232" stroke-linecap="round" stroke-linejoin="round" stroke-width="1.5"/><line x1="9" y1="14.49999" x2="9" y2="9.49999" fill="none" stroke="#323232" stroke-linecap="round" stroke-linejoin="round" stroke-width="1.5"/><path d="M3,16v2a3,3,0,0,0,3,3H8" fill="none" stroke="#323232" stroke-linecap="round" stroke-linejoin="round" stroke-width="1.5"/><path d="M3,8V6A3,3,0,0,1,6,3H8" fill="none" stroke="#323232" stroke-linecap="round" stroke-linejoin="round" stroke-width="1.5"/><path d="M16,3h2a3,3,0,0,1,3,3V8" fill="none" stroke="#323232" stroke-linecap="round" stroke-linejoin="round" stroke-width="1.5"/><line x1="6" y1="12.99999" x2="6" y2="10.99999" fill="none" stroke="#323232" stroke-linecap="round" stroke-linejoin="round" stroke-width="1.5"/><path d="M13,14.93751V16.069a5,5,0,0,0,3.24438,4.68164l.58006.21752a.50007.50007,0,0,0,.35112,0l.58006-.21752A5,5,0,0,0,21,16.069V14.93751a1,1,0,0,0-.70173-.9545l-3-.9375a1,1,0,0,0-.59654,0l-3,.9375A1,1,0,0,0,13,14.93751Z" fill="none" stroke="#323232" stroke-linecap="round" stroke-linejoin="round" stroke-width="1.5"/></svg>