<?xml version="1.0" encoding="UTF-8"?><svg version="1.1" viewBox="0 0 24 24" xmlns="http://www.w3.org/2000/svg" xmlns:xlink="http://www.w3.org/1999/xlink"><g stroke-linecap="round" stroke-width="1.5" stroke="#323232" fill="none" stroke-linejoin="round"><path d="M10.5 12.604c0 .828.672 1.5 1.5 1.5v0c.828 0 1.5-.672 1.5-1.5v-4.033c0-.828-.672-1.5-1.5-1.5v0c-.828 0-1.5.672-1.5 1.5v4.033Z"></path><path d="M18.364 5.63604c3.51472 3.51472 3.51472 9.2132 0 12.7279 -3.51472 3.51472-9.2132 3.51472-12.7279 0 -3.51472-3.51472-3.51472-9.2132-1.77636e-15-12.7279 3.51472-3.51472 9.2132-3.51472 12.7279-1.77636e-15"></path><path d="M16.25 12.035v.532c0 2.347-1.903 4.25-4.25 4.25v0c-2.347 0-4.25-1.903-4.25-4.25v-.532"></path></g><path fill="none" d="M0 0h24v24h-24v-24Z"></path></svg>