<svg viewBox="0 0 24 24" xmlns="http://www.w3.org/2000/svg"><g fill="none"><path d="M24 0v24H0V0Z"/><g stroke-linecap="round" stroke-width="1.5" stroke="#323232" fill="none" stroke-linejoin="round"><path d="M5 19l0 1"/><path d="M19 19l0 1"/><path d="M4 4h16l-.01 0c1.1-.01 2 .89 2 1.99v11 0c0 1.1-.9 2-2 2h-16l-.01-.001c-1.11-.01-2-.9-2-2.01 0 0 0 0 0 0v-11l0 0c-.01-1.11.89-2.01 1.99-2.01Z"/><path d="M17 8l2 0"/><path d="M18 12v0"/><path d="M18 15v0"/><path d="M10.5 12.76l0 0c-.54-.27-1.15-.34-1.73-.21l-1.56.36 0-.01c-.59.13-1.2.06-1.73-.2"/><path d="M10.5 9.81l0 0c-.55-.22-1.15-.28-1.73-.17l-1.56.29 0-.01c-.58.11-1.18.05-1.73-.17"/><path d="M14 4l0 15"/></g></g></svg>