<?xml version="1.0" encoding="UTF-8"?><svg version="1.1" viewBox="0 0 24 24" xmlns="http://www.w3.org/2000/svg" xmlns:xlink="http://www.w3.org/1999/xlink"><g stroke-linecap="round" stroke-width="1.5" stroke="#323232" fill="none" stroke-linejoin="round"><path d="M12 19v3"></path><path d="M9 22h6"></path><path d="M8.36 4.36c.627-1.389 2.017-2.36 3.64-2.36 2.209 0 4 1.791 4 4v6"></path><path d="M4.25 4.25l15.5 15.5"></path><path d="M8 8v4c0 2.209 1.791 4 4 4 1.105 0 2.105-.448 2.828-1.172"></path><path d="M19.1 11v.9c0 .947-.189 1.848-.525 2.674"></path><path d="M4.9 11v.9c0 3.921 3.179 7.1 7.1 7.1 1.935 0 3.687-.776 4.968-2.032"></path></g><path fill="none" d="M0 0h24v24h-24v-24Z"></path></svg>