<?xml version="1.0" encoding="UTF-8"?><svg version="1.1" viewBox="0 0 24 24" xmlns="http://www.w3.org/2000/svg" xmlns:xlink="http://www.w3.org/1999/xlink"><g fill="none"><path d="M0 0h24v24h-24Z"></path><path stroke="#323232" stroke-linecap="round" stroke-linejoin="round" stroke-width="1.5" d="M9 15v0l-1.31134e-07-3.55271e-15c-1.65685-7.24234e-08-3-1.34315-3-3 0 0 0-1.77636e-15 0-1.77636e-15v-6l3.37508e-14 4.52987e-07c-2.50178e-07-1.65685 1.34315-3 3-3h4.52987e-07l-1.31134e-07 3.55271e-15c1.65685-7.24234e-08 3 1.34315 3 3v6l3.55271e-15 1.31134e-07c0 1.65685-1.34315 3-3 3 -4.06383e-08 0-9.04958e-08-1.77636e-15-1.31134e-07-3.55271e-15Z"></path><path stroke="#323232" stroke-linecap="round" stroke-linejoin="round" stroke-width="1.5" d="M21 3l-3 3 -1.8-1.8"></path><path stroke="#323232" stroke-linecap="round" stroke-linejoin="round" stroke-width="1.5" d="M15 11v1 0c0 3.31371-2.68629 6-6 6v0l-2.62268e-07-7.10543e-15c-3.31371-1.44847e-07-6-2.68629-6-6 0 0 0-1.77636e-15 0-1.77636e-15v-1"></path><path stroke="#323232" stroke-linecap="round" stroke-linejoin="round" stroke-width="1.5" d="M9 18v3"></path><path stroke="#323232" stroke-linecap="round" stroke-linejoin="round" stroke-width="1.5" d="M6 21h6"></path></g></svg>