<?xml version="1.0" encoding="UTF-8"?><svg version="1.1" viewBox="0 0 24 24" xmlns="http://www.w3.org/2000/svg" xmlns:xlink="http://www.w3.org/1999/xlink"><g fill="none"><rect width="24" height="24"></rect><path stroke="#323232" stroke-linecap="round" stroke-linejoin="round" stroke-width="1.5" d="M16.25 11.997c0 2.347-1.903 4.25-4.25 4.25v0c-2.347 0-4.25-1.903-4.25-4.25"></path><path stroke="#323232" stroke-linecap="round" stroke-linejoin="round" stroke-width="1.5" d="M10.5 12.034c0 .828.672 1.5 1.5 1.5v0c.828 0 1.5-.672 1.5-1.5v-4.033c0-.828-.672-1.5-1.5-1.5v0c-.828 0-1.5.672-1.5 1.5v4.033Z"></path><circle cx="12" cy="12" r="9" stroke="#323232" stroke-linecap="round" stroke-linejoin="round" stroke-width="1.5"></circle><line x1="12" x2="12" y1="16.43" y2="17.68" stroke="#323232" stroke-linecap="round" stroke-linejoin="round" stroke-width="1.5"></line><line x1="7.75" x2="7.75" y1="11.47" y2="12" stroke="#323232" stroke-linecap="round" stroke-linejoin="round" stroke-width="1.5"></line><line x1="16.25" x2="16.25" y1="11.47" y2="12" stroke="#323232" stroke-linecap="round" stroke-linejoin="round" stroke-width="1.5"></line></g></svg>