<?xml version="1.0" encoding="UTF-8"?><svg version="1.1" viewBox="0 0 24 24" xmlns="http://www.w3.org/2000/svg" xmlns:xlink="http://www.w3.org/1999/xlink"><!--Generated by IJSVG (https://github.com/iconjar/IJSVG)--><defs><path d="M0,0h24v24h-24Z" id="a"></path></defs><g stroke-linecap="round" stroke-width="1.5" stroke="#323232" fill="none" stroke-linejoin="round"><path d="M19,21h-14c-1.105,0 -2,-0.895 -2,-2v-14c0,-1.105 0.895,-2 2,-2h14c1.105,0 2,0.895 2,2v14c0,1.105 -0.895,2 -2,2Z"></path><path d="M7,9h3"></path><path d="M7,18h3c0.552,0 1,-0.448 1,-1v-3.015c0,-0.654 -0.08,-1.306 -0.239,-1.94l-0.612,-2.448c-0.099,-0.397 -0.149,-0.804 -0.149,-1.213v-1.384c0,-0.552 -0.448,-1 -1,-1h-1c-0.552,0 -1,0.448 -1,1v1.384c0,0.409 -0.05,0.816 -0.149,1.212l-0.612,2.448c-0.159,0.635 -0.239,1.287 -0.239,1.941v3.015c0,0.552 0.448,1 1,1Z"></path><path d="M17,18h-2c-0.552,0 -1,-0.448 -1,-1v-5c0,-0.552 0.448,-1 1,-1h2c0.552,0 1,0.448 1,1v5c0,0.552 -0.448,1 -1,1Z"></path></g><use fill="none" transform="matrix(4.50198e-11,1,-1,4.50198e-11,24,-1.0807e-09)" xlink:href="#a"></use><use transform="matrix(4.50198e-11,1,-1,4.50198e-11,24,-1.0807e-09)" xlink:href="#a" fill="none"></use></svg>