<svg id="Layer_3" data-name="Layer 3" xmlns="http://www.w3.org/2000/svg" viewBox="0 0 24 24"><path d="M0,0H24V24H0Z" fill="none"/><line x1="10" y1="7" x2="12" y2="7" fill="none" stroke="#323232" stroke-linecap="round" stroke-linejoin="round" stroke-width="1.5"/><line x1="12" y1="10" x2="14" y2="10" fill="none" stroke="#323232" stroke-linecap="round" stroke-linejoin="round" stroke-width="1.5"/><path d="M19.7067,4.29277,21.707,6.29251a1,1,0,0,1,.0002,1.41421L19.70747,9.707a1,1,0,0,1-1.41422.0002L16.293,7.70749a1,1,0,0,1-.0002-1.41421L18.29249,4.293A1,1,0,0,1,19.7067,4.29277Z" fill="none" stroke="#323232" stroke-linecap="round" stroke-linejoin="round" stroke-width="1.5"/><line x1="12" y1="3.96714" x2="14" y2="3.96714" fill="none" stroke="#323232" stroke-linecap="round" stroke-linejoin="round" stroke-width="1.5"/><path d="M8,18h4" fill="none" stroke="#323232" stroke-linecap="round" stroke-linejoin="round" stroke-width="1.5"/><path d="M16,13v5.5A2.5,2.5,0,0,1,13.5,21h-7A2.5,2.5,0,0,1,4,18.5V5.5A2.5,2.5,0,0,1,6.5,3H8" fill="none" stroke="#323232" stroke-linecap="round" stroke-linejoin="round" stroke-width="1.5"/></svg>