<svg id="Layer_3" data-name="Layer 3" xmlns="http://www.w3.org/2000/svg" viewBox="0 0 24 24"><path d="M20,14V10" fill="none" stroke="#323232" stroke-linecap="round" stroke-linejoin="round" stroke-width="1.5"/><path d="M20,4a6.5799,6.5799,0,0,0-2.121.367A5.68733,5.68733,0,0,0,14.366,7.88,6.59593,6.59593,0,0,0,14,10" fill="none" stroke="#323232" stroke-linecap="round" stroke-linejoin="round" stroke-width="1.5"/><path d="M17,10a2.92625,2.92625,0,0,1,3-3" fill="none" stroke="#323232" stroke-linecap="round" stroke-linejoin="round" stroke-width="1.5"/><path d="M8.2,20H3.8A1.8,1.8,0,0,1,2,18.2V9.8A1.8,1.8,0,0,1,3.8,8H8.2A1.8,1.8,0,0,1,10,9.8v8.4A1.8,1.8,0,0,1,8.2,20Z" fill="none" stroke="#323232" stroke-linecap="round" stroke-linejoin="round" stroke-width="1.5"/><path d="M4.75,17.4999l2.5.0001" fill="none" stroke="#323232" stroke-linecap="round" stroke-linejoin="round" stroke-width="1.5"/><path d="M13,20h7a2,2,0,0,0,2-2V16a2,2,0,0,0-2-2H13" fill="none" stroke="#323232" stroke-linecap="round" stroke-linejoin="round" stroke-width="1.5"/><rect width="24" height="24" fill="none"/></svg>