<?xml version="1.0" encoding="UTF-8"?><svg version="1.1" viewBox="0 0 24 24" xmlns="http://www.w3.org/2000/svg" xmlns:xlink="http://www.w3.org/1999/xlink"><g stroke-linecap="round" stroke-width="1.5" stroke="#323232" fill="none" stroke-linejoin="round"><path d="M8.5 3v1.8l-3.03311e-08 3.6816e-07c-.0249563.302922.197544.569922.5.6h4l-3.08771e-09 3.07058e-10c.302457-.030078.524956-.297078.5-.6v-1.8"></path><path d="M13.673 20h-6.673l-8.74228e-08-3.55271e-15c-1.10457-4.82823e-08-2-.895431-2-2 0 0 0 0 0 0v-13l2.30926e-14 3.01992e-07c-1.66785e-07-1.10457.89543-2 2-2h8l-8.74228e-08 1.77636e-15c1.10457-4.82823e-08 2 .89543 2 2v7.018"></path><path d="M16.5 21l-1.96701e-07-3.55271e-15c-2.48528-1.08635e-07-4.5-2.01472-4.5-4.5 0 0 0-3.55271e-15 0-3.55271e-15l3.09039e-08-2.06144e-06c.037026-2.46978 2.03022-4.46297 4.5-4.5l2.47973e-07 1.24345e-14c2.48528 1.87634e-07 4.5 2.01472 4.5 4.5 -1.87634e-07 2.48528-2.01472 4.5-4.5 4.5"></path><path d="M18 15.75l-1.874 1.875 -1.126-1.125"></path></g><path fill="none" d="M0 0h24v24h-24Z"></path></svg>