<svg id="Layer_3" data-name="Layer 3" xmlns="http://www.w3.org/2000/svg" viewBox="0 0 24 24"><rect width="24" height="24" fill="none"/><path d="M10,17v2a2,2,0,0,0,2,2h8a2,2,0,0,0,2-2V5a2,2,0,0,0-2-2H12a2,2,0,0,0-2,2V9" fill="none" stroke="#323232" stroke-linecap="round" stroke-linejoin="round" stroke-width="1.5"/><path d="M7,21H4a2,2,0,0,1-2-2V5A2,2,0,0,1,4,3H7" fill="none" stroke="#323232" stroke-linecap="round" stroke-linejoin="round" stroke-width="1.5"/><path d="M18.5,3V5a.5.5,0,0,1-.5.5H14a.5.5,0,0,1-.5-.5V3" fill="none" stroke="#323232" stroke-linecap="round" stroke-linejoin="round" stroke-width="1.5"/><polyline points="8 11 6 13 8 15" fill="none" stroke="#323232" stroke-linecap="round" stroke-linejoin="round" stroke-width="1.5"/><line x1="11" y1="13" x2="6" y2="13" fill="none" stroke="#323232" stroke-linecap="round" stroke-linejoin="round" stroke-width="1.5"/></svg>