<?xml version="1.0" encoding="UTF-8"?><svg version="1.1" viewBox="0 0 24 24" xmlns="http://www.w3.org/2000/svg" xmlns:xlink="http://www.w3.org/1999/xlink"><!--Generated by IJSVG (https://github.com/iconjar/IJSVG)--><g fill="none"><path d="M0,0h24v24h-24Z"></path><path stroke="#323232" stroke-linecap="round" stroke-linejoin="round" stroke-width="1.5" d="M13.696,3.287c1.754,0.142 3.468,0.868 4.811,2.211c1.342,1.342 2.067,3.055 2.208,4.808"></path><path stroke="#323232" stroke-linecap="round" stroke-linejoin="round" stroke-width="1.5" d="M10.324,20.713c-1.76,-0.139 -3.482,-0.866 -4.829,-2.213c-1.347,-1.347 -2.072,-3.067 -2.21,-4.826"></path><path stroke="#323232" stroke-linecap="round" stroke-linejoin="round" stroke-width="1.5" d="M14.63,16.13l1.5,-1.5"></path><path stroke="#323232" stroke-linecap="round" stroke-linejoin="round" stroke-width="1.5" d="M5.289,8.711l3.422,-3.422c0.781,-0.781 2.047,-0.781 2.828,0l7.172,7.172c0.781,0.781 0.781,2.047 0,2.828l-3.422,3.422c-0.781,0.781 -2.047,0.781 -2.828,0l-7.172,-7.172c-0.781,-0.781 -0.781,-2.047 8.88178e-16,-2.828Z"></path></g></svg>