<?xml version="1.0" encoding="UTF-8"?><svg version="1.1" viewBox="0 0 24 24" xmlns="http://www.w3.org/2000/svg" xmlns:xlink="http://www.w3.org/1999/xlink"><g fill="none"><path d="M24 24h-24v-24h24Z"></path><path stroke="#323232" stroke-linecap="round" stroke-linejoin="round" stroke-width="1.5" d="M4 4l1 1"></path><path stroke="#323232" stroke-linecap="round" stroke-linejoin="round" stroke-width="1.5" d="M3 8h1"></path><path stroke="#323232" stroke-linecap="round" stroke-linejoin="round" stroke-width="1.5" d="M8 3v1"></path><path stroke="#323232" stroke-linecap="round" stroke-linejoin="round" stroke-width="1.5" d="M12 3h4l-2.18557e-07 5.32907e-15c2.76142-1.20706e-07 5 2.23858 5 5v8 1.77636e-15c0 2.76142-2.23858 5-5 5 0 0-1.77636e-15 0-1.77636e-15 0h-8l-2.18557e-07-7.10543e-15c-2.76142-1.20706e-07-5-2.23858-5-5 0 0 0-1.77636e-15 0-1.77636e-15v-4"></path><path stroke="#323232" stroke-linecap="round" stroke-linejoin="round" stroke-width="1.5" d="M8 21v-11l2.30926e-14 3.01992e-07c-1.66785e-07-1.10457.89543-2 2-2h11"></path><path stroke="#323232" stroke-linecap="round" stroke-linejoin="round" stroke-width="1.5" d="M10 8h3.25l-7.64949e-08 1.77636e-15c.966498-4.2247e-08 1.75.783502 1.75 1.75v3.5l1.77636e-15 7.64949e-08c0 .966498-.783502 1.75-1.75 1.75 -2.37057e-08 0-5.27893e-08 0-7.64949e-08-1.77636e-15h-3.5l-7.64949e-08-1.77636e-15c-.966498-4.2247e-08-1.75-.783502-1.75-1.75v-3.25l2.13163e-14 3.01992e-07c-1.66785e-07-1.10457.89543-2 2-2Z"></path></g></svg>