<svg id="Layer_3" data-name="Layer 3" xmlns="http://www.w3.org/2000/svg" viewBox="0 0 24 24"><path d="M0,0H24V24H0Z" fill="none"/><path d="M13.5,3V5a.5.5,0,0,1-.5.5H9A.5.5,0,0,1,8.5,5V3" fill="none" stroke="#323232" stroke-linecap="round" stroke-linejoin="round" stroke-width="1.5"/><path d="M17,18v1a2,2,0,0,1-2,2H7a2,2,0,0,1-2-2V5A2,2,0,0,1,7,3h8a2,2,0,0,1,2,2V6" fill="none" stroke="#323232" stroke-linecap="round" stroke-linejoin="round" stroke-width="1.5"/><path d="M14.29163,10.53241a1,1,0,0,1,1.24079-1.2408l1.18646.34756a.99989.99989,0,0,0,.56226,0l1.18646-.34756a1,1,0,0,1,1.24079,1.2408l-.34756,1.18646a1,1,0,0,0,0,.56225l.34756,1.18646a1,1,0,0,1-1.24079,1.2408l-1.18646-.34756a.99989.99989,0,0,0-.56226,0l-1.18646.34756a1,1,0,0,1-1.24079-1.2408l.34756-1.18646a1,1,0,0,0,0-.56225Z" fill="none" stroke="#323232" stroke-linecap="round" stroke-linejoin="round" stroke-width="1.5"/></svg>