<svg id="Layer_3" data-name="Layer 3" xmlns="http://www.w3.org/2000/svg" viewBox="0 0 24 24"><path d="M0,0H24V24H0Z" fill="none"/><path d="M15,10.6319v1.7c0,1.271,1.781,2.215,2.6,2.582a.972.972,0,0,0,.8,0c.819-.367,2.6-1.309,2.6-2.582v-1.7a1,1,0,0,0-.661-.94l-1.527-.55a2.4,2.4,0,0,0-1.626,0l-1.525.549A1,1,0,0,0,15,10.6319Z" fill="none" stroke="#323232" stroke-linecap="round" stroke-linejoin="round" stroke-width="1.5"/><path d="M18,18v1a2,2,0,0,1-2,2H8a2,2,0,0,1-2-2V5A2,2,0,0,1,8,3h8a2,2,0,0,1,2,2V6" fill="none" stroke="#323232" stroke-linecap="round" stroke-linejoin="round" stroke-width="1.5"/><path d="M14.5,3V5a.5.5,0,0,1-.5.5H10A.5.5,0,0,1,9.5,5V3" fill="none" stroke="#323232" stroke-linecap="round" stroke-linejoin="round" stroke-width="1.5"/></svg>