<svg id="Layer_3" data-name="Layer 3" xmlns="http://www.w3.org/2000/svg" viewBox="0 0 24 24"><path d="M0,0H24V24H0Z" fill="none"/><path d="M18,6V5a2,2,0,0,0-2-2H5A2,2,0,0,0,3,5v7a2,2,0,0,0,2,2h5.05882" fill="none" stroke="#323232" stroke-linecap="round" stroke-linejoin="round" stroke-width="1.5"/><line x1="6.46588" y1="17.5" x2="10.05882" y2="17.5" fill="none" stroke="#323232" stroke-linecap="round" stroke-linejoin="round" stroke-width="1.5"/><line x1="8" y1="14" x2="7.5" y2="17.5" fill="none" stroke="#323232" stroke-linecap="round" stroke-linejoin="round" stroke-width="1.5"/><path d="M19.2,21H14.7a1.8,1.8,0,0,1-1.8-1.8V11.1a1.8,1.8,0,0,1,1.8-1.8h4.5A1.8,1.8,0,0,1,21,11.1v8.1A1.8,1.8,0,0,1,19.2,21Z" fill="none" stroke="#323232" stroke-linecap="round" stroke-linejoin="round" stroke-width="1.5"/><path d="M15.7,18.4999l2.5.0001" fill="none" stroke="#323232" stroke-linecap="round" stroke-linejoin="round" stroke-width="1.5"/></svg>