<svg id="Layer_3" data-name="Layer 3" xmlns="http://www.w3.org/2000/svg" viewBox="0 0 24 24"><path d="M18,19a2,2,0,0,1-2,2H8a2,2,0,0,1-2-2V5A2,2,0,0,1,8,3h8a2,2,0,0,1,2,2" fill="none" stroke="#323232" stroke-linecap="round" stroke-linejoin="round" stroke-width="1.5"/><path d="M14.5,3V5a.5.5,0,0,1-.5.5H10A.5.5,0,0,1,9.5,5V3" fill="none" stroke="#323232" stroke-linecap="round" stroke-linejoin="round" stroke-width="1.5"/><path d="M18,5v.5" fill="none" stroke="#323232" stroke-linecap="round" stroke-linejoin="round" stroke-width="1.5"/><path d="M18,18.5V19" fill="none" stroke="#323232" stroke-linecap="round" stroke-linejoin="round" stroke-width="1.5"/><path d="M17.18639,8.91822a.75.75,0,0,1,1.34528,0l.544,1.10271a.75.75,0,0,0,.56476.41042l1.21663.17683a.75.75,0,0,1,.41582,1.27916l-.88057.85889a.75.75,0,0,0-.21554.66373l.20783,1.21153a.75.75,0,0,1-1.08817.79073l-1.08843-.572a.75.75,0,0,0-.69788,0l-1.08843.572a.75.75,0,0,1-1.08817-.79073L15.54132,13.41a.75.75,0,0,0-.21554-.66373l-.88057-.85889a.75.75,0,0,1,.41583-1.27916l1.21662-.17683a.75.75,0,0,0,.56476-.41042Z" fill="none" stroke="#323232" stroke-linecap="round" stroke-linejoin="round" stroke-width="1.5"/><rect width="24" height="24" fill="none"/></svg>