<?xml version="1.0" encoding="UTF-8"?><svg version="1.1" viewBox="0 0 24 24" xmlns="http://www.w3.org/2000/svg" xmlns:xlink="http://www.w3.org/1999/xlink"><!--Generated by IJSVG (https://github.com/iconjar/IJSVG)--><g stroke-linecap="round" stroke-width="1.5" stroke="#323232" fill="none" stroke-linejoin="round"><path d="M12.875,19h-7.875c-1.105,0 -2,-0.895 -2,-2v-12c0,-1.105 0.895,-2 2,-2h9c1.105,0 2,0.895 2,2"></path><path d="M16,5v3"></path><path d="M9.499,15.833c-0.092,0 -0.167,0.075 -0.166,0.167c0,0.092 0.075,0.167 0.167,0.167c0.092,0 0.167,-0.075 0.167,-0.167c0,-0.092 -0.075,-0.167 -0.168,-0.167"></path><path d="M14.875,8h4.125c1.105,0 2,0.895 2,2v9c0,1.105 -0.895,2 -2,2h-4.125c-1.105,0 -2,-0.895 -2,-2v-9c0,-1.105 0.895,-2 2,-2Z"></path><path d="M16.06,18.75h1.75"></path></g><path fill="none" d="M0,0h24v24h-24Z"></path></svg>