<svg id="Layer_3" data-name="Layer 3" xmlns="http://www.w3.org/2000/svg" viewBox="0 0 24 24"><rect width="24" height="24" fill="none"/><path d="M11,17v2a2,2,0,0,0,2,2h7a2,2,0,0,0,2-2V5a2,2,0,0,0-2-2H13a2,2,0,0,0-2,2V7" fill="none" stroke="#323232" stroke-linecap="round" stroke-linejoin="round" stroke-width="1.5"/><path d="M8,21H4a2,2,0,0,1-2-2V5A2,2,0,0,1,4,3H8" fill="none" stroke="#323232" stroke-linecap="round" stroke-linejoin="round" stroke-width="1.5"/><path d="M18.75,3V5a.5.5,0,0,1-.5.5h-3.5a.5.5,0,0,1-.5-.5V3" fill="none" stroke="#323232" stroke-linecap="round" stroke-linejoin="round" stroke-width="1.5"/><path d="M8,5.5H5.75a.5.5,0,0,1-.5-.5V3" fill="none" stroke="#323232" stroke-linecap="round" stroke-linejoin="round" stroke-width="1.5"/><line x1="9.25" y1="12" x2="12.75" y2="12" fill="none" stroke="#323232" stroke-linecap="round" stroke-linejoin="round" stroke-width="1.5"/><line x1="11" y1="13.75" x2="11" y2="10.25" fill="none" stroke="#323232" stroke-linecap="round" stroke-linejoin="round" stroke-width="1.5"/></svg>