<svg id="Layer_3" data-name="Layer 3" xmlns="http://www.w3.org/2000/svg" viewBox="0 0 24 24"><path d="M0,0H24V24H0Z" fill="none"/><path d="M9,21H7a2,2,0,0,1-2-2V5A2,2,0,0,1,7,3h8a2,2,0,0,1,2,2v5" fill="none" stroke="#323232" stroke-linecap="round" stroke-linejoin="round" stroke-width="1.5"/><path d="M13.5,3V5a.5.5,0,0,1-.5.5H9A.5.5,0,0,1,8.5,5V3" fill="none" stroke="#323232" stroke-linecap="round" stroke-linejoin="round" stroke-width="1.5"/><rect x="13" y="17" width="6" height="4" rx="1.25" stroke-width="1.5" stroke="#323232" stroke-linecap="round" stroke-linejoin="round" fill="none"/><path d="M14.25,17V15.75A1.75,1.75,0,0,1,16,14h0a1.75,1.75,0,0,1,1.75,1.75V17" fill="none" stroke="#323232" stroke-linecap="round" stroke-linejoin="round" stroke-width="1.5"/></svg>