<?xml version="1.0" encoding="UTF-8"?><svg version="1.1" viewBox="0 0 24 24" xmlns="http://www.w3.org/2000/svg" xmlns:xlink="http://www.w3.org/1999/xlink"><g stroke-linecap="round" stroke-width="1.5" stroke="#323232" fill="none" stroke-linejoin="round"><path d="M9.8 9v1.98l-2.52861e-10 3.08738e-09c-.0272865.333162.217379.626761.55.66h3.3l3.14306e-08-3.14091e-09c.332621-.0332393.577286-.326838.55-.66v-1.98"></path><path d="M6.5 18.978v-7.778l2.4869e-14-3.32191e-07c1.83464e-07-1.21503.984974-2.2 2.2-2.2h6.6l-9.61651e-08 1.77636e-15c1.21503-5.31105e-08 2.2.984973 2.2 2.2v7.921"></path><circle cx="12" cy="12" r="9"></circle></g><path fill="none" d="M0 0h24v24h-24Z"></path></svg>