<svg id="Layer_3" data-name="Layer 3" xmlns="http://www.w3.org/2000/svg" viewBox="0 0 24 24"><path d="M0,0H24V24H0Z" fill="none"/><path d="M8.5,3V4.8a.557.557,0,0,0,.5.6h4a.557.557,0,0,0,.5-.6V3" fill="none" stroke="#323232" stroke-linecap="round" stroke-linejoin="round" stroke-width="1.5"/><path d="M17,7V5a2,2,0,0,0-2-2H7A2,2,0,0,0,5,5V19a2,2,0,0,0,2,2h8a2,2,0,0,0,2-2V17" fill="none" stroke="#323232" stroke-linecap="round" stroke-linejoin="round" stroke-width="1.5"/><path d="M13,13.5v-3a1,1,0,0,1,1-1h2.5A1.5,1.5,0,0,1,18,11v2a1.5,1.5,0,0,1-1.5,1.5H14A1,1,0,0,1,13,13.5Z" fill="none" stroke="#323232" stroke-linecap="round" stroke-linejoin="round" stroke-width="1.5"/><path d="M13.03175,13.75H11.5a1,1,0,0,1-1-1v-1.5a1,1,0,0,1,1-1h1.53169" fill="none" stroke="#323232" stroke-linecap="round" stroke-linejoin="round" stroke-width="1.5"/><path d="M21,12H18" fill="none" stroke="#323232" stroke-linecap="round" stroke-linejoin="round" stroke-width="1.5"/></svg>