<svg id="Layer_3" data-name="Layer 3" xmlns="http://www.w3.org/2000/svg" viewBox="0 0 24 24"><path d="M0,0H24V24H0Z" fill="none"/><path d="M8.50191,3.10183V4.90046A.55657.55657,0,0,0,9.00153,5.5h3.99694a.55657.55657,0,0,0,.49962-.59954V3.10183" fill="none" stroke="#323232" stroke-linecap="round" stroke-linejoin="round" stroke-width="1.5"/><path d="M10,21H7a2,2,0,0,1-2-2V5A2,2,0,0,1,7,3h8a2,2,0,0,1,2,2V9" fill="none" stroke="#323232" stroke-linecap="round" stroke-linejoin="round" stroke-width="1.5"/><path d="M13,14.93751V16.069a5,5,0,0,0,3.24438,4.68164l.58006.21752a.50007.50007,0,0,0,.35112,0l.58006-.21752A5,5,0,0,0,21,16.069V14.93751a1,1,0,0,0-.70173-.9545l-3-.9375a1,1,0,0,0-.59654,0l-3,.9375A1,1,0,0,0,13,14.93751Z" fill="none" stroke="#323232" stroke-linecap="round" stroke-linejoin="round" stroke-width="1.5"/></svg>