<svg id="Layer_3" data-name="Layer 3" xmlns="http://www.w3.org/2000/svg" viewBox="0 0 24 24"><path d="M0,0H24V24H0Z" fill="none"/><path d="M16,18v1a2,2,0,0,1-2,2H6a2,2,0,0,1-2-2V5A2,2,0,0,1,6,3h8a2,2,0,0,1,2,2V6" fill="none" stroke="#323232" stroke-linecap="round" stroke-linejoin="round" stroke-width="1.5"/><path d="M12.5,3V5a.5.5,0,0,1-.5.5H8.00191a.5.5,0,0,1-.5-.5V3" fill="none" stroke="#323232" stroke-linecap="round" stroke-linejoin="round" stroke-width="1.5"/><path d="M18.49571,11.99786l.00429.00428.00429-.00428L18.5,11.99357l-.00429.00429" fill="none" stroke="#323232" stroke-linecap="round" stroke-linejoin="round" stroke-width="1.5"/><path d="M15.99571,11.99786,16,12.00214l.00429-.00428L16,11.99357l-.00429.00429" fill="none" stroke="#323232" stroke-linecap="round" stroke-linejoin="round" stroke-width="1.5"/><rect x="11" y="9" width="10" height="6" rx="1.5" stroke-width="1.5" stroke="#323232" stroke-linecap="round" stroke-linejoin="round" fill="none"/><path d="M13.49571,12.00214l.00429.00429.00429-.00429L13.5,11.99786l-.00429.00428" fill="none" stroke="#323232" stroke-linecap="round" stroke-linejoin="round" stroke-width="1.5"/></svg>