<?xml version="1.0" encoding="UTF-8"?><svg version="1.1" viewBox="0 0 24 24" xmlns="http://www.w3.org/2000/svg" xmlns:xlink="http://www.w3.org/1999/xlink"><!--Generated by IJSVG (https://github.com/iconjar/IJSVG)--><g stroke-linecap="round" stroke-width="1.5" stroke="#323232" fill="none" stroke-linejoin="round"><path d="M8.75,18.5h2.5"></path><path d="M15,12.977v6.023c0,1.105 -0.895,2 -2,2h-6c-1.105,0 -2,-0.895 -2,-2v-12c0,-1.105 0.895,-2 2,-2h3.6"></path><path d="M19.3891,3.61091c2.14788,2.14788 2.14788,5.63029 0,7.77817c-2.14788,2.14788 -5.63029,2.14788 -7.77817,0c-2.14788,-2.14788 -2.14788,-5.63029 -1.77636e-15,-7.77817c2.14788,-2.14788 5.63029,-2.14788 7.77817,-1.33227e-15"></path><path d="M15.5,10.415c-0.03,0 -0.055,0.025 -0.055,0.055c0,0.03 0.025,0.055 0.055,0.055c0.03,0 0.055,-0.025 0.055,-0.055c0,-0.03 -0.025,-0.055 -0.055,-0.055v0"></path><path d="M15.5,8.188c0.949,0 1.719,-0.77 1.719,-1.719c0,-0.949 -0.769,-1.719 -1.719,-1.719c-0.926,0 -1.675,0.733 -1.712,1.65"></path></g><path fill="none" d="M0,24v-24h24v24h-24Z"></path></svg>