<svg id="Layer_3" data-name="Layer 3" xmlns="http://www.w3.org/2000/svg" viewBox="0 0 24 24"><line x1="8.5" y1="12" x2="11.5" y2="12" fill="none" stroke="#323232" stroke-linecap="round" stroke-linejoin="round" stroke-width="1.5"/><path d="M9,21H6a2,2,0,0,1-2-2V5A2,2,0,0,1,6,3h8a2,2,0,0,1,2,2V7" fill="none" stroke="#323232" stroke-linecap="round" stroke-linejoin="round" stroke-width="1.5"/><path d="M15,16.99976l-.58546-.58549a1.41436,1.41436,0,0,0-2.00023,0h0a1.41435,1.41435,0,0,0-.17678,1.78455l1.94005,2.91047A2.00007,2.00007,0,0,0,15.8418,22h3.79608a2,2,0,0,0,1.98455-1.752l.362-2.89685a2,2,0,0,0-1.66266-2.22186L18,14.75067V12.5A1.5,1.5,0,0,0,16.5,11h0A1.5,1.5,0,0,0,15,12.5Z" fill="none" stroke="#323232" stroke-linecap="round" stroke-linejoin="round" stroke-width="1.5"/><path d="M12.5,3V5a.5.5,0,0,1-.5.5H8A.5.5,0,0,1,7.5,5V3" fill="none" stroke="#323232" stroke-linecap="round" stroke-linejoin="round" stroke-width="1.5"/><line x1="10" y1="10.5" x2="10" y2="13.5" fill="none" stroke="#323232" stroke-linecap="round" stroke-linejoin="round" stroke-width="1.5"/><path d="M24,0H0V24H24Z" fill="none"/></svg>