<svg id="Layer_3" data-name="Layer 3" xmlns="http://www.w3.org/2000/svg" viewBox="0 0 24 24"><rect width="24" height="24" fill="none"/><circle cx="12" cy="12" r="9.5" fill="none" stroke="#323232" stroke-linecap="round" stroke-linejoin="round" stroke-width="1.5"/><line x1="12" y1="7" x2="12" y2="6.5" fill="none" stroke="#323232" stroke-linecap="round" stroke-linejoin="round" stroke-width="1.5"/><line x1="15" y1="8" x2="15.5" y2="7.5" fill="none" stroke="#323232" stroke-linecap="round" stroke-linejoin="round" stroke-width="1.5"/><path d="M6.5,19.74438V13a2,2,0,0,1,2-2h7a2,2,0,0,1,2,2v6.74508" fill="none" stroke="#323232" stroke-linecap="round" stroke-linejoin="round" stroke-width="1.5"/><path d="M9.5,11h5a0,0,0,0,1,0,0v2a.5.5,0,0,1-.5.5H10a.5.5,0,0,1-.5-.5V11A0,0,0,0,1,9.5,11Z" fill="none" stroke="#323232" stroke-linecap="round" stroke-linejoin="round" stroke-width="1.5"/><line x1="9" y1="8" x2="8.5" y2="7.5" fill="none" stroke="#323232" stroke-linecap="round" stroke-linejoin="round" stroke-width="1.5"/></svg>