<?xml version="1.0" encoding="UTF-8"?><svg version="1.1" viewBox="0 0 24 24" xmlns="http://www.w3.org/2000/svg" xmlns:xlink="http://www.w3.org/1999/xlink"><g fill="none"><rect width="24" height="24"></rect><path stroke="#323232" stroke-linecap="round" stroke-linejoin="round" stroke-width="1.5" d="M11 21v-11.172l4.56117e-08.000427138c0-.53039-.210679-1.03906-.585698-1.41413l-3.4143-3.4143 -3.414 3.414 1.68553e-07-1.68502e-07c-.375099.374985-.585887.88361-.586 1.414v11.172"></path><line x1="7" x2="7" y1="12" y2="20" stroke="#323232" stroke-linecap="round" stroke-linejoin="round" stroke-width="1.5"></line><line x1="3.18" x2="10.82" y1="9" y2="9" stroke="#323232" stroke-linecap="round" stroke-linejoin="round" stroke-width="1.5"></line><line x1="7" x2="7" y1="3" y2="5" stroke="#323232" stroke-linecap="round" stroke-linejoin="round" stroke-width="1.5"></line><path stroke="#323232" stroke-linecap="round" stroke-linejoin="round" stroke-width="1.5" d="M14 21v-9.932l-1.08307e-08 3.00514e-05c.000190749-.552285.448061-.999845 1.00035-.999655 .119742 4.13565e-05.238502.021588.350627.063614l5 1.875 -4.01273e-08-1.50417e-08c.39024.146281.648844.519245.649.936v8.05701"></path><line x1="22" x2="2" y1="21" y2="21" stroke="#323232" stroke-linecap="round" stroke-linejoin="round" stroke-width="1.5"></line><line x1="16.5" x2="18.5" y1="15" y2="15" stroke="#323232" stroke-linecap="round" stroke-linejoin="round" stroke-width="1.5"></line><line x1="16.5" x2="18.5" y1="18" y2="18" stroke="#323232" stroke-linecap="round" stroke-linejoin="round" stroke-width="1.5"></line></g></svg>