<?xml version="1.0" encoding="UTF-8"?><svg version="1.1" viewBox="0 0 24 24" xmlns="http://www.w3.org/2000/svg" xmlns:xlink="http://www.w3.org/1999/xlink"><g fill="none"><path d="M0 0h24v24h-24Z"></path><rect width="10" height="3" x="7" y="6" rx=".55228" ry="0" stroke="#323232" stroke-linecap="round" stroke-linejoin="round" stroke-width="1.5"></rect><path stroke="#323232" stroke-linecap="round" stroke-linejoin="round" stroke-width="1.5" d="M8.08209 9l-2.59747 2.96851 -1.31217e-07 1.49964e-07c-1.60432 1.83353-1.94063 4.45515-.85108 6.63427l.093.186 -1.68773e-07-3.37564e-07c.677549 1.35517 2.06261 2.21121 3.57772 2.21122h7.40308l-2.23676e-07-1.52411e-12c1.51509 1.03611e-05 2.90014-.856021 3.57766-2.21118l.08143-.16284 -3.283e-08 6.5658e-08c1.09539-2.19072.749188-4.82733-.87464-6.661l-2.62558-2.96498"></path><path stroke="#323232" stroke-linecap="round" stroke-linejoin="round" stroke-width="1.5" d="M15.451 6l.79578-1.54126 6.76131e-09-1.30965e-08c.253355-.490744.0609134-1.09396-.429831-1.34731 -.141826-.0732201-.299118-.111428-.458729-.111429h-6.7165l-3.40425e-09 6.9722e-14c-.552285 1.13482e-05-.999991.447736-.999979 1.00002 3.27958e-06.159608.0382109.316897.111429.458719l.79583 1.54126"></path></g></svg>