<?xml version="1.0" encoding="UTF-8"?><svg version="1.1" viewBox="0 0 24 24" xmlns="http://www.w3.org/2000/svg" xmlns:xlink="http://www.w3.org/1999/xlink"><g fill="none"><path d="M0 0h24v24h-24v-24Z"></path><path stroke="#323232" stroke-linecap="round" stroke-linejoin="round" stroke-width="1.5" d="M7.5 3h-2.25c-1.243 0-2.25 1.007-2.25 2.25v2.25"></path><path stroke="#323232" stroke-linecap="round" stroke-linejoin="round" stroke-width="1.5" d="M3 16.5v2.25c0 1.243 1.007 2.25 2.25 2.25h2.25"></path><path stroke="#323232" stroke-linecap="round" stroke-linejoin="round" stroke-width="1.5" d="M16.5 21h2.25c1.243 0 2.25-1.007 2.25-2.25v-2.25"></path><line x1="6" x2="18" y1="12" y2="12" stroke="#323232" stroke-linecap="round" stroke-linejoin="round" stroke-width="1.5"></line><path stroke="#323232" stroke-linecap="round" stroke-linejoin="round" stroke-width="1.5" d="M16 16.333v-8.666c0-.921-.746-1.667-1.667-1.667h-4.666c-.921 0-1.667.746-1.667 1.667v8.667c0 .92.746 1.666 1.667 1.666h4.667c.92 0 1.666-.746 1.666-1.667Z"></path><path stroke="#323232" stroke-linecap="round" stroke-linejoin="round" stroke-width="1.5" d="M21 7.5v-2.25c0-1.243-1.007-2.25-2.25-2.25h-2.25"></path></g></svg>