<svg id="Layer_3" data-name="Layer 3" xmlns="http://www.w3.org/2000/svg" viewBox="0 0 24 24"><line x1="17" y1="6" x2="16.15385" y2="6" fill="none" stroke="#323232" stroke-linecap="round" stroke-linejoin="round" stroke-width="1.5"/><line x1="6.15385" y1="11" x2="7" y2="11" fill="none" stroke="#323232" stroke-linecap="round" stroke-linejoin="round" stroke-width="1.5"/><path d="M8.92308,14H5a2,2,0,0,1-2-2V5A2,2,0,0,1,5,3H18a2,2,0,0,1,2,2V6.9" fill="none" stroke="#323232" stroke-linecap="round" stroke-linejoin="round" stroke-width="1.5"/><path d="M10,14H5.11538A2.11538,2.11538,0,0,1,3,11.88462V5.11538A2.11538,2.11538,0,0,1,5.11538,3H17.88462A2.11538,2.11538,0,0,1,20,5.11538V6.9" fill="none" stroke="#323232" stroke-linecap="round" stroke-linejoin="round" stroke-width="1.5"/><path d="M10.08579,9.91421a2,2,0,0,1,2.82842-2.82842" fill="none" stroke="#323232" stroke-linecap="round" stroke-linejoin="round" stroke-width="1.5"/><path d="M21,11v9a1,1,0,0,1-1,1H14a1,1,0,0,1-1-1V11a1,1,0,0,1,1-1h6A1,1,0,0,1,21,11Z" fill="none" stroke="#323232" stroke-linecap="round" stroke-linejoin="round" stroke-width="1.5"/><path d="M21,14H13" fill="none" stroke="#323232" stroke-linecap="round" stroke-linejoin="round" stroke-width="1.5"/><path d="M15.75,16.3a.05.05,0,1,0,.05.05h0a.05.05,0,0,0-.05-.05" fill="none" stroke="#323232" stroke-linecap="round" stroke-linejoin="round" stroke-width="1.5"/><path d="M18.25,16.3a.05.05,0,1,0,.05.05h0a.05.05,0,0,0-.05-.05" fill="none" stroke="#323232" stroke-linecap="round" stroke-linejoin="round" stroke-width="1.5"/><path d="M15.75,18.6a.05.05,0,1,0,.05.05h0a.05.05,0,0,0-.05-.05" fill="none" stroke="#323232" stroke-linecap="round" stroke-linejoin="round" stroke-width="1.5"/><path d="M18.25,18.6a.05.05,0,1,0,.05.05h0a.05.05,0,0,0-.05-.05" fill="none" stroke="#323232" stroke-linecap="round" stroke-linejoin="round" stroke-width="1.5"/><rect width="24" height="24" fill="none"/></svg>