<?xml version="1.0" encoding="UTF-8"?><svg version="1.1" viewBox="0 0 24 24" xmlns="http://www.w3.org/2000/svg" xmlns:xlink="http://www.w3.org/1999/xlink"><g stroke-linecap="round" stroke-width="1.5" stroke="#323232" fill="none" stroke-linejoin="round"><path d="M13.5 14.5c-1.933 0-3.5-1.567-3.5-3.5 0-1.933 1.567-3.5 3.5-3.5 1.934 0 3.5 1.567 3.5 3.5 0 1.933-1.566 3.5-3.5 3.5"></path><path d="M21 7v10c0 2.209-1.791 4-4 4h-10c-2.209 0-4-1.791-4-4v-10c0-2.209 1.791-4 4-4h10c2.209 0 4 1.791 4 4Z"></path><path d="M10.33 9.518c-1.852.09-3.33 1.608-3.33 3.482 0 1.933 1.567 3.5 3.5 3.5 1.397 0 2.593-.824 3.155-2.008"></path></g><path fill="none" d="M0 0h24v24h-24v-24Z"></path></svg>