<svg id="Layer_3" data-name="Layer 3" xmlns="http://www.w3.org/2000/svg" viewBox="0 0 24 24"><path d="M0,0H24V24H0Z" fill="none"/><rect x="5.99998" y="6" width="10" height="3" rx="1" stroke-width="1.5" stroke="#323232" stroke-linecap="round" stroke-linejoin="round" fill="none"/><path d="M7.08207,9,4.48465,11.96846a6,6,0,0,0-.85113,6.63432h0A4.33659,4.33659,0,0,0,7.51229,21h6.488" fill="none" stroke="#323232" stroke-linecap="round" stroke-linejoin="round" stroke-width="1.5"/><path d="M7.40853,6,6.61275,4.45879A1,1,0,0,1,7.50129,3h6.99733a1,1,0,0,1,.88856,1.45876L14.59144,6" fill="none" stroke="#323232" stroke-linecap="round" stroke-linejoin="round" stroke-width="1.5"/><circle cx="17.00001" cy="16.99999" r="5" fill="none" stroke="#323232" stroke-linecap="round" stroke-linejoin="round" stroke-width="1.5"/><path d="M18.68125,16.01l-2.1,2.09876L15.31876,16.85" fill="none" stroke="#323232" stroke-linecap="round" stroke-linejoin="round" stroke-width="1.5"/><line x1="14.86621" y1="9" x2="17.68052" y2="12.04593" fill="none" stroke="#323232" stroke-linecap="round" stroke-linejoin="round" stroke-width="1.5"/></svg>