<?xml version="1.0" encoding="UTF-8"?><svg version="1.1" viewBox="0 0 24 24" xmlns="http://www.w3.org/2000/svg" xmlns:xlink="http://www.w3.org/1999/xlink"><g fill="none"><path d="M0 0h24v24h-24v-24Z"></path><path stroke="#323232" stroke-linecap="round" stroke-linejoin="round" stroke-width="1.5" d="M13.679 12.971c.927.927.927 2.431 0 3.359 -.927.927-2.431.927-3.359 0 -.927-.927-.927-2.431 0-3.359 .928-.928 2.432-.928 3.359 1.77636e-15"></path><line x1="7" x2="6" y1="18" y2="18" stroke="#323232" stroke-linecap="round" stroke-linejoin="round" stroke-width="1.5"></line><line x1="18" x2="17" y1="11" y2="11" stroke="#323232" stroke-linecap="round" stroke-linejoin="round" stroke-width="1.5"></line><path stroke="#323232" stroke-linecap="round" stroke-linejoin="round" stroke-width="1.5" d="M19 20.9h-14.1c-1.049 0-1.9-.851-1.9-1.9v-9.1c0-1.049.851-1.9 1.9-1.9h14.2c1.049 0 1.9.851 1.9 1.9v9c0 1.105-.895 2-2 2Z"></path><path stroke="#323232" stroke-linecap="round" stroke-linejoin="round" stroke-width="1.5" d="M19 5h-14"></path><path stroke="#323232" stroke-linecap="round" stroke-linejoin="round" stroke-width="1.5" d="M18 2h-12"></path></g></svg>