<svg id="Layer_3" data-name="Layer 3" xmlns="http://www.w3.org/2000/svg" viewBox="0 0 24 24"><path d="M17.5,21.5,16,20l1.5-1.5" fill="none" stroke="#323232" stroke-linecap="round" stroke-linejoin="round" stroke-width="1.5"/><path d="M16,20h2a3,3,0,0,0,3-3" fill="none" stroke="#323232" stroke-linecap="round" stroke-linejoin="round" stroke-width="1.5"/><path d="M6.5,2.5,8,4,6.5,5.5" fill="none" stroke="#323232" stroke-linecap="round" stroke-linejoin="round" stroke-width="1.5"/><path d="M8,4H6A3,3,0,0,0,3,7" fill="none" stroke="#323232" stroke-linecap="round" stroke-linejoin="round" stroke-width="1.5"/><path d="M14,13v4.55415A1.44585,1.44585,0,0,1,12.55415,19H4.44585A1.44585,1.44585,0,0,1,3,17.55415v-5.1083A1.44585,1.44585,0,0,1,4.44585,11H12A2,2,0,0,1,14,13Z" fill="none" stroke="#323232" stroke-linecap="round" stroke-linejoin="round" stroke-width="1.5"/><circle cx="8.5" cy="15" r="1.5" fill="none" stroke="#323232" stroke-linecap="round" stroke-linejoin="round" stroke-width="1.5"/><path d="M10,8V6.44585A1.44585,1.44585,0,0,1,11.44585,5H19a2,2,0,0,1,2,2v4.55415A1.44585,1.44585,0,0,1,19.55415,13H17" fill="none" stroke="#323232" stroke-linecap="round" stroke-linejoin="round" stroke-width="1.5"/><path d="M14.43934,7.93934a1.5,1.5,0,1,1,2.12132,2.12132" fill="none" stroke="#323232" stroke-linecap="round" stroke-linejoin="round" stroke-width="1.5"/><rect width="24" height="24" fill="none"/></svg>