<?xml version="1.0" encoding="UTF-8"?><svg version="1.1" viewBox="0 0 24 24" xmlns="http://www.w3.org/2000/svg" xmlns:xlink="http://www.w3.org/1999/xlink"><g fill="none"><path d="M0 0h24v24h-24v-24Z"></path><path stroke="#323232" stroke-linecap="round" stroke-linejoin="round" stroke-width="1.5" d="M18 8h1c1.105 0 2 .895 2 2v7c0 1.105-.895 2-2 2h-11c-1.105 0-2-.895-2-2v-1.583"></path><path stroke="#323232" stroke-linecap="round" stroke-linejoin="round" stroke-width="1.5" d="M6.125 9.167v2.083"></path><path stroke="#323232" stroke-linecap="round" stroke-linejoin="round" stroke-width="1.5" d="M14.979 9.167v2.083"></path><path stroke="#323232" stroke-linecap="round" stroke-linejoin="round" stroke-width="1.5" d="M5.083 15.417h10.833c1.151 0 2.083-.933 2.083-2.083v-6.25c.001-1.151-.932-2.084-2.082-2.084h-10.834c-1.15 0-2.083.933-2.083 2.083v6.25c0 1.151.933 2.084 2.083 2.084Z"></path><path stroke="#323232" stroke-linecap="round" stroke-linejoin="round" stroke-width="1.5" d="M11.657 9.103c.61.61.61 1.6 0 2.21 -.61.61-1.6.61-2.21 0 -.61-.61-.61-1.6 0-2.21 .61-.61 1.6-.61 2.21 1.77636e-15"></path></g></svg>