<svg id="Layer_3" data-name="Layer 3" xmlns="http://www.w3.org/2000/svg" viewBox="0 0 24 24"><path d="M19,8V5.428A2.428,2.428,0,0,0,16.572,3H4.428A2.428,2.428,0,0,0,2,5.428v8.144A2.428,2.428,0,0,0,4.428,16H10" fill="none" stroke="#323232" stroke-linecap="round" stroke-linejoin="round" stroke-width="1.5"/><line x1="5.928" y1="20" x2="9" y2="20" fill="none" stroke="#323232" stroke-linecap="round" stroke-linejoin="round" stroke-width="1.5"/><line x1="8" y1="16" x2="7.5" y2="20" fill="none" stroke="#323232" stroke-linecap="round" stroke-linejoin="round" stroke-width="1.5"/><line x1="17.00037" y1="20" x2="17.00037" y2="18" fill="none" stroke="#323232" stroke-linecap="round" stroke-linejoin="round" stroke-width="1.5"/><path d="M12,20H22" fill="none" stroke="#323232" stroke-linecap="round" stroke-linejoin="round" stroke-width="1.5"/><line x1="21" y1="20" x2="21" y2="14.86576" fill="none" stroke="#323232" stroke-linecap="round" stroke-linejoin="round" stroke-width="1.5"/><line x1="13" y1="20" x2="13" y2="14.86551" fill="none" stroke="#323232" stroke-linecap="round" stroke-linejoin="round" stroke-width="1.5"/><path d="M13.64477,14.99964a1.62815,1.62815,0,0,0,1.26466-.60362.4802.4802,0,0,1,.82573,0,1.62662,1.62662,0,0,0,2.52932,0,.48019.48019,0,0,1,.82572,0,1.62817,1.62817,0,0,0,1.26466.60362A1.66057,1.66057,0,0,0,21.956,13.73328a1.53164,1.53164,0,0,0-.14691-1.08423l-.41662-.82477A1.50105,1.50105,0,0,0,20.05264,11H13.94688a1.5,1.5,0,0,0-1.3389.82372l-.41707.8257a1.53164,1.53164,0,0,0-.14691,1.08423A1.66064,1.66064,0,0,0,13.64514,15" fill="none" stroke="#323232" stroke-linecap="round" stroke-linejoin="round" stroke-width="1.5"/><path d="M0,0H24V24H0Z" fill="none"/></svg>