<svg id="Layer_3" data-name="Layer 3" xmlns="http://www.w3.org/2000/svg" viewBox="0 0 24 24"><line x1="14" y1="17.00001" x2="14.5" y2="21.00001" fill="none" stroke="#323232" stroke-linecap="round" stroke-linejoin="round" stroke-width="1.5"/><line x1="10" y1="17.00001" x2="9.5" y2="21.00001" fill="none" stroke="#323232" stroke-linecap="round" stroke-linejoin="round" stroke-width="1.5"/><line x1="8.143" y1="21.00001" x2="15.857" y2="21.00001" fill="none" stroke="#323232" stroke-linecap="round" stroke-linejoin="round" stroke-width="1.5"/><line x1="10" y1="6.00001" x2="12" y2="6.00001" fill="none" stroke="#323232" stroke-linecap="round" stroke-linejoin="round" stroke-width="1.5"/><line x1="11" y1="9.00001" x2="12" y2="9.00001" fill="none" stroke="#323232" stroke-linecap="round" stroke-linejoin="round" stroke-width="1.5"/><path d="M21,13v1.428A2.57112,2.57112,0,0,1,18.42976,17H5.571A2.5709,2.5709,0,0,1,3,14.42921V5.571A2.5709,2.5709,0,0,1,5.5708,3H12" fill="none" stroke="#323232" stroke-linecap="round" stroke-linejoin="round" stroke-width="1.5"/><path d="M15,6.99485c0,1.68348,2.11839,2.92962,3.06072,3.40086a.977.977,0,0,0,.87921-.00035C19.88257,9.92386,22,8.68059,22,6.99485l0-2.397a.51159.51159,0,0,0-.47317-.49442,4.98271,4.98271,0,0,1-2.45661-.91868.97233.97233,0,0,0-1.1404,0,4.98271,4.98271,0,0,1-2.45661.91868A.51159.51159,0,0,0,15,4.59784Z" fill="none" stroke="#323232" stroke-linecap="round" stroke-linejoin="round" stroke-width="1.5"/><path d="M0,0H24V24H0Z" fill="none"/></svg>