<?xml version="1.0" encoding="UTF-8"?><svg version="1.1" viewBox="0 0 24 24" xmlns="http://www.w3.org/2000/svg" xmlns:xlink="http://www.w3.org/1999/xlink"><g stroke-linecap="round" stroke-width="1.5" stroke="#323232" fill="none" stroke-linejoin="round"><line x1="8.5" x2="8" y1="16" y2="20"></line><path d="M20 10v-4.572l3.55271e-15 1.77636e-15c0-1.34095-1.08705-2.428-2.428-2.428 0 0 0 0 0 0h-12.572l-1.06131e-07 1.77636e-15c-1.34095 5.86147e-08-2.428 1.08705-2.428 2.428 0 0 0 0 0 0v8.144l2.4869e-14 2.60487e-07c2.02477e-07 1.34095 1.08705 2.428 2.428 2.428h8"></path><line x1="6.5" x2="13" y1="20" y2="20"></line><rect width="8.909" height="12" x="13" y="10" rx=".82842" ry="0"></rect><line x1="16.41" x2="18.41" y1="19.75" y2="19.75"></line></g><rect width="24" height="24" fill="none"></rect></svg>