<svg id="Layer_3" data-name="Layer 3" xmlns="http://www.w3.org/2000/svg" viewBox="0 0 24 24"><path d="M0,0H24V24H0Z" fill="none"/><path d="M21,11v3.428A2.57112,2.57112,0,0,1,18.429,17H5.571A2.5709,2.5709,0,0,1,3,14.429V5.571A2.5709,2.5709,0,0,1,5.571,3H11" fill="none" stroke="#323232" stroke-linecap="round" stroke-linejoin="round" stroke-width="1.5"/><path d="M15,3.95314v.84861A3.75,3.75,0,0,0,17.43328,8.313l.43505.16314a.37494.37494,0,0,0,.26334,0l.43505-.16314A3.75,3.75,0,0,0,21,4.80175V3.95314a.75.75,0,0,0-.5263-.71588l-2.25-.70312a.75.75,0,0,0-.4474,0l-2.25.70312A.75.75,0,0,0,15,3.95314Z" fill="none" stroke="#323232" stroke-linecap="round" stroke-linejoin="round" stroke-width="1.5"/><line x1="14" y1="17" x2="14.5" y2="21" fill="none" stroke="#323232" stroke-linecap="round" stroke-linejoin="round" stroke-width="1.5"/><line x1="10" y1="17" x2="9.5" y2="21" fill="none" stroke="#323232" stroke-linecap="round" stroke-linejoin="round" stroke-width="1.5"/><line x1="8" y1="21" x2="16" y2="21" fill="none" stroke="#323232" stroke-linecap="round" stroke-linejoin="round" stroke-width="1.5"/><line x1="21" y1="13.5" x2="3" y2="13.5" fill="none" stroke="#323232" stroke-linecap="round" stroke-linejoin="round" stroke-width="1.5"/></svg>