<svg xmlns="http://www.w3.org/2000/svg" viewBox="0 0 24 24"><g id="Layer_2" data-name="Layer 2"><path d="M21,6v8a3,3,0,0,1-3,3H6a3,3,0,0,1-3-3V6A3,3,0,0,1,6,3H18A3,3,0,0,1,21,6Z" fill="none" stroke="#323232" stroke-linecap="round" stroke-linejoin="round" stroke-width="1.5"/><line x1="14" y1="17" x2="14.5" y2="21" fill="none" stroke="#323232" stroke-linecap="round" stroke-linejoin="round" stroke-width="1.5"/><line x1="10" y1="17" x2="9.5" y2="21" fill="none" stroke="#323232" stroke-linecap="round" stroke-linejoin="round" stroke-width="1.5"/><line x1="8.143" y1="21" x2="15.857" y2="21" fill="none" stroke="#323232" stroke-linecap="round" stroke-linejoin="round" stroke-width="1.5"/><rect x="7.5" y="6.5" width="9" height="7" rx="2" stroke-width="1.5" stroke="#323232" stroke-linecap="round" stroke-linejoin="round" fill="none"/><path d="M10,9l1.5.866a1,1,0,0,0,1,0L14,9" fill="none" stroke="#323232" stroke-linecap="round" stroke-linejoin="round" stroke-width="1.5"/><path d="M0,0H24V24H0Z" fill="none"/></g></svg>