<svg id="Layer_3" data-name="Layer 3" xmlns="http://www.w3.org/2000/svg" viewBox="0 0 24 24"><path d="M0,0H24V24H0Z" fill="none"/><path d="M19.71166,7.19612,18.19612,8.71166a.98447.98447,0,0,1-1.39224,0L15.28834,7.19612a.98447.98447,0,0,1,0-1.39224l1.51554-1.51554a.98447.98447,0,0,1,1.39224,0l1.51554,1.51554A.98447.98447,0,0,1,19.71166,7.19612Z" fill="none" stroke="#323232" stroke-linecap="round" stroke-linejoin="round" stroke-width="1.5"/><path d="M10.81356,4.71952a.49921.49921,0,0,0-.56573-.70323A8.23115,8.23115,0,0,0,6.46185,6.17a8.1473,8.1473,0,0,0-.15094,11.51906A8.1473,8.1473,0,0,0,17.83,17.53815a8.231,8.231,0,0,0,2.15374-3.78591.49921.49921,0,0,0-.70322-.56574,6.43115,6.43115,0,0,1-7.286-1.181A6.431,6.431,0,0,1,10.81356,4.71952Z" fill="none" stroke="#323232" stroke-linecap="round" stroke-linejoin="round" stroke-width="1.5"/></svg>