<svg id="Layer_3" data-name="Layer 3" xmlns="http://www.w3.org/2000/svg" viewBox="0 0 24 24"><path d="M17.0078,12.81417a.3431.3431,0,0,1,.48335.38894A5.66606,5.66606,0,0,1,16.01,15.80629,5.52819,5.52819,0,1,1,8.19543,7.99017a5.661,5.661,0,0,1,2.5891-1.4775.35.35,0,0,1,.39693.49286,4.33812,4.33812,0,0,0,5.82634,5.80864Z" fill="none" stroke="#323232" stroke-linecap="round" stroke-linejoin="round" stroke-width="1.5"/><rect x="3" y="2.99999" width="18" height="18" rx="5" stroke-width="1.5" stroke="#323232" stroke-linecap="round" stroke-linejoin="round" fill="none"/><path d="M17.27456,8.79374l-.98333.98333a.76667.76667,0,0,1-1.08423,0l-.98334-.98333a.76667.76667,0,0,1,0-1.08423l.98334-.98334a.76667.76667,0,0,1,1.08423,0l.98333.98334A.76667.76667,0,0,1,17.27456,8.79374Z" fill="none" stroke="#323232" stroke-linecap="round" stroke-linejoin="round" stroke-width="1.5"/><path d="M0,0H24V24H0Z" fill="none"/></svg>