<svg id="Layer_3" data-name="Layer 3" xmlns="http://www.w3.org/2000/svg" viewBox="0 0 24 24"><path d="M16,3H8A5,5,0,0,0,3,8v8a5,5,0,0,0,5,5h8a5,5,0,0,0,5-5V8A5,5,0,0,0,16,3Z" fill="none" stroke="#323232" stroke-linecap="round" stroke-linejoin="round" stroke-width="1.5"/><path d="M7.4321,12.73356a.31252.31252,0,0,0-.42147.37336,5.14677,5.14677,0,0,0,1.34325,2.354,5.02716,5.02716,0,1,0,7.107-7.107A5.14665,5.14665,0,0,0,13.107,7.01063a.31252.31252,0,0,0-.37337.42146A3.94589,3.94589,0,0,1,7.4321,12.73356Z" fill="none" stroke="#323232" stroke-linecap="round" stroke-linejoin="round" stroke-width="1.5"/><path d="M0,0H24V24H0Z" fill="none"/></svg>