<?xml version="1.0" encoding="UTF-8"?><svg version="1.1" viewBox="0 0 24 24" xmlns="http://www.w3.org/2000/svg" xmlns:xlink="http://www.w3.org/1999/xlink"><g stroke-linecap="round" stroke-width="1.5" stroke="#323232" fill="none" stroke-linejoin="round"><path d="M4.937 9h14.126l-8.4669e-08 1.77636e-15c1.06978-4.67614e-08 1.937.867224 1.937 1.937 0 0 0 1.77636e-15 0 1.77636e-15v0 8.4669e-08c0 3.90079-3.16221 7.063-7.063 7.063 0 0-8.4669e-08 0-8.4669e-08 0h-3.874l-3.08734e-07-7.10543e-15c-3.90079-1.70509e-07-7.063-3.16221-7.063-7.063 0 0 0-3.55271e-15 0-3.55271e-15v0l-2.22045e-15 1.62547e-08c1.61532e-07-1.06978.867225-1.937 1.937-1.937Z"></path><path d="M15.346 9l3.168-3.169 1.29712e-07-1.29712e-07c.647554-.647554.647554-1.69745-2.28294e-07-2.345 -.647554-.647554-1.69745-.647554-2.345 2.28294e-07l-5.515 5.514"></path></g><g transform="matrix(1 0 0 1 24 39)"><path fill="none" stroke="#323232" stroke-linecap="round" stroke-linejoin="round" stroke-width="1.5" d="M7.646 18h8.709 -2.82376e-08c.356776-1.55952e-08.646.289224.646.646 0 0 0 3.55271e-15 0 3.55271e-15v.354 0c0 1.10457-.895431 2-2 2h-6.001l-8.74228e-08-3.55271e-15c-1.10457-4.82823e-08-2-.895431-2-2 0 0 0 0 0 0v-.354l8.88178e-16-1.01205e-08c5.38717e-08-.356776.289224-.646.646-.646Z" transform="matrix(-1 -1.22465e-16 1.22465e-16 -1 0 0)"></path></g><rect width="24.002" height="24" x="-.002" fill="none"></rect></svg>