<svg viewBox="0 0 24 24" xmlns="http://www.w3.org/2000/svg"><g fill="none"><path d="M0 0h24v24H0Z"/><path fill="none" stroke="#323232" stroke-linecap="round" stroke-linejoin="round" stroke-width="1.5" d="M5 17.5V19l-.01-.01c0 1.1.89 1.99 1.99 2h12l-.01 0c1.1-.01 1.99-.9 2-2v-14 0c0-1.11-.9-2-2-2h-12l-.01 0c-1.11 0-2 .89-2 2 0 0 0 0 0 0v1.49"/></g><g transform="translate(-7.5 16.5)"><rect width="11" height="3" x="-1" y="10.5" rx=".5" fill="none" stroke="#323232" stroke-linecap="round" stroke-linejoin="round" stroke-width="1.5" transform="rotate(-90)"/></g><g stroke-linecap="round" stroke-width="1.5" stroke="#323232" fill="none" stroke-linejoin="round"><rect width="4" height="4" x="13" y="6.999" rx=".933"/><path d="M13.5 10.89l0 1.11"/><path d="M16.5 10.89l0 1.11"/><path d="M13.5 6l0 1.11"/><path d="M16.5 6l0 1.11"/><path d="M13.11 7.5L12 7.5"/><path d="M13.11 10.5l-1.11 0"/><path d="M18 7.5l-1.11 0"/><path d="M18 10.5l-1.11 0"/></g><g transform="translate(27 6)"><rect width="3" height="3" x="9" y="15" rx=".5" fill="none" stroke="#323232" stroke-linecap="round" stroke-linejoin="round" stroke-width="1.5" transform="rotate(90)"/></g><g stroke-linecap="round" stroke-width="1.5" stroke="#323232" fill="none" stroke-linejoin="round"><path d="M15 15l3 0"/><path d="M15 18l3 0"/><path d="M9 7l0 4"/></g></svg>