<?xml version="1.0" encoding="UTF-8"?><svg version="1.1" viewBox="0 0 24 24" xmlns="http://www.w3.org/2000/svg" xmlns:xlink="http://www.w3.org/1999/xlink"><g fill="none"><path d="M0 0h24v24h-24Z"></path><path stroke="#323232" stroke-linecap="round" stroke-linejoin="round" stroke-width="1.5" d="M3.619 8.726l-7.95366e-08 2.03135e-07c-1.81224 4.62842.470734 9.84961 5.09916 11.6618 4.62842 1.81224 9.84961-.470734 11.6618-5.09916 .826-2.10959.826-4.4531-1.59073e-07-6.56269"></path><path stroke="#323232" stroke-linecap="round" stroke-linejoin="round" stroke-width="1.5" d="M5.636 5.636l3.17451e-07-3.17505e-07c3.51442-3.51502 9.21291-3.5155 12.7279-.00107735 .000359359.000359298.000718687.000718626.00107798.00107798"></path><path stroke="#323232" stroke-linecap="round" stroke-linejoin="round" stroke-width="1.5" d="M12 17v0l-4.21526e-08-1.29248e-10c-1.9697-.00603957-3.56496-1.6013-3.571-3.571v-2.857l-3.34117e-08 1.19954e-05c.00548414-1.97009 1.6009-3.56596 3.57099-3.57201v0l1.56011e-07 4.78369e-10c1.9697.00603963 3.56496 1.6013 3.571 3.571v2.857l3.44003e-08-1.23504e-05c-.00548401 1.97009-1.60089 3.56596-3.57098 3.57201Z"></path><path stroke="#323232" stroke-linecap="round" stroke-linejoin="round" stroke-width="1.5" d="M12 9.857v1.429"></path></g></svg>