<?xml version="1.0" encoding="UTF-8"?><svg version="1.1" viewBox="0 0 24 24" xmlns="http://www.w3.org/2000/svg" xmlns:xlink="http://www.w3.org/1999/xlink"><g stroke-linecap="round" stroke-width="1.5" stroke="#323232" fill="none" stroke-linejoin="round"><path d="M18.364 5.63604c3.51472 3.51472 3.51472 9.2132 0 12.7279 -3.51472 3.51472-9.2132 3.51472-12.7279 0 -3.51472-3.51472-3.51472-9.2132-1.77636e-15-12.7279 3.51472-3.51472 9.2132-3.51472 12.7279-1.77636e-15"></path><path d="M12.625 15.125h-4.375c-.69 0-1.25-.56-1.25-1.25v-3.75c0-.69.56-1.25 1.25-1.25h4.375c.69 0 1.25.56 1.25 1.25v3.75c0 .69-.56 1.25-1.25 1.25Z"></path><path d="M13.875 12.61l2.108 1.697c.409.329 1.017.038 1.017-.487v-3.64c0-.525-.608-.816-1.017-.487l-2.108 1.697"></path></g><path fill="none" d="M0 0h24v24h-24Z"></path></svg>