<svg xmlns="http://www.w3.org/2000/svg" viewBox="0 0 24 24"><g id="Layer_2" data-name="Layer 2"><path d="M22,14V4a2,2,0,0,0-2-2H4A2,2,0,0,0,2,4V14" fill="none" stroke="#323232" stroke-linecap="round" stroke-linejoin="round" stroke-width="1.5"/><path d="M9.99994,10.84906V7.15094a.65.65,0,0,1,.97525-.56276l3.2,1.849a.65.65,0,0,1,0,1.12554l-3.2,1.84905A.65.65,0,0,1,9.99994,10.84906Z" fill="none" stroke="#323232" stroke-linecap="round" stroke-linejoin="round" stroke-width="1.5"/><path d="M7,22V21a1,1,0,0,0-1-1H3a1,1,0,0,0-1,1v1" fill="none" stroke="#323232" stroke-linecap="round" stroke-linejoin="round" stroke-width="1.5"/><path d="M22,22V21a1,1,0,0,0-1-1H18a1,1,0,0,0-1,1v1" fill="none" stroke="#323232" stroke-linecap="round" stroke-linejoin="round" stroke-width="1.5"/><path d="M14.5,22V21a1,1,0,0,0-1-1h-3a1,1,0,0,0-1,1v1" fill="none" stroke="#323232" stroke-linecap="round" stroke-linejoin="round" stroke-width="1.5"/><path d="M10.5,17.5v-1a1,1,0,0,0-1-1h-3a1,1,0,0,0-1,1v1" fill="none" stroke="#323232" stroke-linecap="round" stroke-linejoin="round" stroke-width="1.5"/><path d="M18,17.5v-1a1,1,0,0,0-1-1H14a1,1,0,0,0-1,1v1" fill="none" stroke="#323232" stroke-linecap="round" stroke-linejoin="round" stroke-width="1.5"/><rect width="24" height="24" fill="none"/></g></svg>