<?xml version="1.0" encoding="UTF-8"?><svg version="1.1" viewBox="0 0 24 24" xmlns="http://www.w3.org/2000/svg" xmlns:xlink="http://www.w3.org/1999/xlink"><g stroke-linecap="round" stroke-width="1.5" stroke="#323232" fill="none" stroke-linejoin="round"><path d="M9.926 12.074c.669.669.669 1.755 0 2.424 -.669.669-1.755.669-2.424 0 -.669-.669-.669-1.755 0-2.424 .67-.67 1.755-.67 2.424 0"></path><path d="M13 7.857l-2.571-.857v6.286"></path><path d="M13 21.16h-6.16c-2.209 0-4-1.791-4-4v-10.32c0-2.209 1.791-4 4-4h10.32c2.209 0 4 1.791 4 4v5.16"></path><path d="M18.5 15.706c.268-.298.731-.635 1.437-.635 1.234 0 2.063 1.104 2.063 2.132 -.001 2.15-2.808 3.797-3.5 3.797 -.692 0-3.5-1.647-3.5-3.796 0-1.029.828-2.132 2.063-2.132 .705 0 1.169.336 1.437.634Z"></path></g><path fill="none" d="M0 0h24v24h-24v-24Z"></path></svg>