<?xml version="1.0" encoding="UTF-8"?><svg version="1.1" viewBox="0 0 24 24" xmlns="http://www.w3.org/2000/svg" xmlns:xlink="http://www.w3.org/1999/xlink"><g stroke-linecap="round" stroke-width="1.5" stroke="#323232" fill="none" stroke-linejoin="round"><path d="M17 2c2.761 0 5 2.239 5 5"></path><path d="M17 5c1.105 0 2 .895 2 2"></path><path d="M10.257 13.858c.604.604.604 1.584 0 2.189 -.604.604-1.584.604-2.189 0 -.604-.604-.604-1.584 0-2.189 .605-.604 1.585-.604 2.189 0"></path><path d="M15.931 12.827c.604.604.604 1.584 0 2.189 -.604.604-1.584.604-2.189 0 -.604-.604-.604-1.584 0-2.189 .605-.605 1.585-.605 2.189 0"></path><path d="M10.71 14.953v-4.976c0-.422.257-.802.649-.957l3.611-1.444c.678-.271 1.414.228 1.414.957v5.389"></path><path d="M12 3h-5c-2.209 0-4 1.791-4 4v9c0 2.761 2.239 5 5 5h9c2.209 0 4-1.791 4-4v-5"></path></g><path fill="none" d="M0 0h24v24h-24v-24Z"></path></svg>