<svg viewBox="0 0 24 24" xmlns="http://www.w3.org/2000/svg"><g stroke-linecap="round" stroke-width="1.5" stroke="#323232" fill="none" stroke-linejoin="round"><path d="M21 12l0-.01c0 4.97-4.03 9-9.01 9 -.09 0-.18-.01-.26-.01l-.01-.01c-4.75-.19-8.56-4-8.75-8.75l0 0c-.15-4.97 3.77-9.12 8.74-9.26 .08-.01.16-.01.25-.01"/><path d="M19.65 2.38l.55 1 -.01-.01c.09.16.22.3.39.39l1 .54 0 0c.36.19.49.65.29 1.01 -.07.12-.18.22-.3.29l-1.01.54 0-.01c-.17.09-.31.22-.4.39l-.56 1 0-.01c-.2.36-.66.49-1.02.29 -.13-.07-.23-.18-.3-.3l-.55-1.01 0 0c-.1-.17-.23-.31-.4-.4l-1.01-.56 0 0c-.37-.2-.5-.66-.3-1.02 .06-.13.17-.23.29-.3l1-.56 0-.01c.16-.1.3-.23.39-.4l.54-1.01 -.01 0c.19-.37.65-.5 1.01-.3 .12.06.22.17.29.29Z"/><path d="M11.1 7.5h1.8l-.01 0c1.02-.01 1.85.82 1.85 1.84v4.9 -.001c0 1.38-1.12 2.5-2.5 2.5h-.5l-.01-.001c-1.39-.01-2.5-1.12-2.5-2.51 0 0 0-.001 0-.001v-4.9l0 0c-.01-1.03.82-1.86 1.84-1.86Z"/><path d="M14.75 11.91l-.01-.01c.16.07.32.16.48.25l0 0c.87.54 1.4 1.5 1.39 2.54l-.01 5.01"/><path d="M7.38 19.69l-.01-4.98 -.01-.01c-.01-1.04.52-2 1.4-2.54l0-.01c.15-.1.31-.19.48-.26"/></g><path fill="none" d="M0 0h24v24H0Z"/></svg>