<?xml version="1.0" encoding="UTF-8"?><svg version="1.1" viewBox="0 0 24 24" xmlns="http://www.w3.org/2000/svg" xmlns:xlink="http://www.w3.org/1999/xlink"><rect width="18" height="18" x="3" y="3" rx="2.7614" ry="0" stroke-linecap="round" stroke-width="1.5" stroke="#323232" fill="none" stroke-linejoin="round"></rect><g transform="matrix(1 0 0 1 10.694 -7.944)"><rect width="7.571" height="2.642" x="11.151" y="7.616" fill="none" rx=".729562" ry="0" stroke="#323232" stroke-linecap="round" stroke-linejoin="round" stroke-width="1.5" transform="matrix(.707107 .707107 -.707107 .707107 0 0)"></rect></g><path d="M13.119 8.987l-5.568 5.568 1.19428e-08-1.19207e-08c-.139794.139536-.235136.317345-.274.511l-.267 1.334 -4.33134e-09 2.17571e-08c-.0539156.270828.121927.534084.392754.588 .0644495.0128304.130796.0128304.195246-8.66268e-09l1.336-.267 6.82151e-08-1.36897e-08c.193655-.0388636.371464-.134205.511-.274l5.568-5.568" stroke-linecap="round" stroke-width="1.5" stroke="#323232" fill="none" stroke-linejoin="round"></path><rect width="24" height="24" fill="none"></rect></svg>