<svg id="Layer_3" data-name="Layer 3" xmlns="http://www.w3.org/2000/svg" viewBox="0 0 24 24"><line x1="6" y1="5.5" x2="6" y2="7.5" fill="none" stroke="#323232" stroke-linecap="round" stroke-linejoin="round" stroke-width="1.5"/><path d="M6,2.5H6A3.00622,3.00622,0,0,1,8.97544,5.89068L7.11657,20.51344a1.12514,1.12514,0,0,1-2.23314,0L3.02456,5.89068A3.00622,3.00622,0,0,1,6,2.5Z" fill="none" stroke="#323232" stroke-linecap="round" stroke-linejoin="round" stroke-width="1.5"/><path d="M13.5,18h6a0,0,0,0,1,0,0v2a1,1,0,0,1-1,1h-4a1,1,0,0,1-1-1V18A0,0,0,0,1,13.5,18Z" fill="none" stroke="#323232" stroke-linecap="round" stroke-linejoin="round" stroke-width="1.5"/><path d="M14,6.02258V4a1,1,0,0,1,1-1h3a1,1,0,0,1,1,1V6.02258" fill="none" stroke="#323232" stroke-linecap="round" stroke-linejoin="round" stroke-width="1.5"/><path d="M19.23151,6.02258h-5.463a1,1,0,0,0-.992.8739l-1.26834,9.97741A1,1,0,0,0,12.50015,18h7.9997a1,1,0,0,0,.992-1.12611L20.22352,6.89648A1,1,0,0,0,19.23151,6.02258Z" fill="none" stroke="#323232" stroke-linecap="round" stroke-linejoin="round" stroke-width="1.5"/><line x1="11.8766" y1="13.97533" x2="21.36462" y2="15.87291" fill="none" stroke="#323232" stroke-linecap="round" stroke-linejoin="round" stroke-width="1.5"/><line x1="12.24851" y1="11.04973" x2="20.97331" y2="12.79466" fill="none" stroke="#323232" stroke-linecap="round" stroke-linejoin="round" stroke-width="1.5"/><line x1="20.582" y1="9.71641" x2="12.62042" y2="8.12407" fill="none" stroke="#323232" stroke-linecap="round" stroke-linejoin="round" stroke-width="1.5"/><rect width="24" height="24" fill="none"/></svg>