<?xml version="1.0" encoding="UTF-8"?><svg version="1.1" viewBox="0 0 24 24" xmlns="http://www.w3.org/2000/svg" xmlns:xlink="http://www.w3.org/1999/xlink"><g stroke-linecap="round" stroke-width="1.5" stroke="#323232" fill="none" stroke-linejoin="round"><line x1="14" x2="12" y1="6" y2="4"></line><line x1="10" x2="12" y1="6" y2="4"></line><line x1="8" x2="6" y1="9.68" y2="7.68"></line><line x1="4" x2="6" y1="9.68" y2="7.68"></line><line x1="20" x2="18" y1="9.68" y2="7.68"></line><line x1="16" x2="18" y1="9.68" y2="7.68"></line><path d="M6.005 7.676h-.005v3.324l5.68434e-14 7.54979e-07c4.16963e-07 2.76142 2.23858 5 5 5h2l-2.18557e-07-5.32907e-15c2.76142 1.20706e-07 5-2.23858 5-5v-3.324 0"></path><line x1="15" x2="9" y1="19" y2="19"></line><line x1="12" x2="12" y1="21" y2="4"></line></g><g transform="matrix(1 0 0 1 0 24)"><rect width="24" height="24" fill="none" transform="matrix(6.12323e-17 -1 1 6.12323e-17 0 0)"></rect></g></svg>