<?xml version="1.0" encoding="UTF-8"?><svg version="1.1" viewBox="0 0 24 24" xmlns="http://www.w3.org/2000/svg" xmlns:xlink="http://www.w3.org/1999/xlink"><g stroke-linecap="round" stroke-width="1.5" stroke="#323232" fill="none" stroke-linejoin="round"><path d="M19 21v0c1.105 0 2-.895 2-2v-6c0-.552-.448-1-1-1h-3v7c0 1.105.895 2 2 2Z"></path><path d="M7 8h6"></path><path d="M7 11.87h6"></path><path d="M7 16.06h3"></path><path d="M17 12v-7c0-.552-.448-1-1-1h-12c-.552 0-1 .448-1 1v14c0 1.105.895 2 2 2h14"></path></g><path fill="none" d="M0 0h24v24h-24Z"></path></svg>