<svg id="Layer_3" data-name="Layer 3" xmlns="http://www.w3.org/2000/svg" viewBox="0 0 24 24"><path d="M13.14716,7a7.37673,7.37673,0,0,1,1.852,5,7.37673,7.37673,0,0,1-1.852,5" fill="none" stroke="#323232" stroke-linecap="round" stroke-linejoin="round" stroke-width="1.5"/><path d="M11.16556,8.667A5.24583,5.24583,0,0,1,12.27656,12a5.24583,5.24583,0,0,1-1.111,3.333" fill="none" stroke="#323232" stroke-linecap="round" stroke-linejoin="round" stroke-width="1.5"/><path d="M4.17157,6.82843,6.82843,4.17157A4,4,0,0,1,9.65685,3h4.6853a4,4,0,0,1,2.82842,1.17157l2.65786,2.65786A4,4,0,0,1,21,9.65785v4.68329a4,4,0,0,1-1.17156,2.82843l-2.65886,2.65886A4,4,0,0,1,14.34115,21H9.65786A4,4,0,0,1,6.83,19.829l-2.6579-2.6569A4,4,0,0,1,3,14.34315V9.65686A4,4,0,0,1,4.17157,6.82843Z" fill="none" stroke="#323232" stroke-linecap="round" stroke-linejoin="round" stroke-width="1.5"/><path d="M9,10.333a2.777,2.777,0,0,1,0,3.334" fill="none" stroke="#323232" stroke-linecap="round" stroke-linejoin="round" stroke-width="1.5"/><path d="M24,0V24H0V0Z" fill="none"/></svg>