<?xml version="1.0" encoding="UTF-8"?><svg version="1.1" viewBox="0 0 24 24" xmlns="http://www.w3.org/2000/svg" xmlns:xlink="http://www.w3.org/1999/xlink"><!--Generated by IJSVG (https://github.com/iconjar/IJSVG)--><g stroke-linecap="round" stroke-width="1.5" stroke="#323232" fill="none" stroke-linejoin="round"><path d="M5.636,5.636c3.515,-3.515 9.214,-3.515 12.728,0c3.514,3.515 3.515,9.214 0,12.728c-3.515,3.514 -9.214,3.515 -12.728,0c-3.515,-3.515 -3.515,-9.213 -8.88178e-16,-12.728"></path><path d="M6.38,4.97l1.24,1.58"></path><path d="M17.62,19.03l-1.24,-1.58"></path><path d="M8.4,17.02h4.417c0.552,0 1,-0.448 1,-1v-5.29c0,-0.552 -0.448,-1 -1,-1h-4.417c-0.552,0 -1,0.448 -1,1v5.291c0,0.552 0.447,0.999 1,0.999Z"></path><path d="M10.15,9.73v-1.75c0,-0.552 0.448,-1 1,-1h4.45c0.552,0 1,0.448 1,1v5.291c0,0.552 -0.448,1 -1,1h-1.784"></path></g><path fill="none" d="M0,0h24v24h-24Z"></path></svg>