<svg id="Layer_3" data-name="Layer 3" xmlns="http://www.w3.org/2000/svg" viewBox="0 0 24 24"><line x1="18.71751" y1="18.71752" x2="5.28249" y2="5.2825" fill="none" stroke="#323232" stroke-linecap="round" stroke-linejoin="round" stroke-width="1.5"/><circle cx="12" cy="12.00001" r="9.5" fill="none" stroke="#323232" stroke-linecap="round" stroke-linejoin="round" stroke-width="1.5"/><path d="M11,11h6a.5.5,0,0,1,.5.5v2a.5.5,0,0,1-.5.5H14" fill="none" stroke="#323232" stroke-linecap="round" stroke-linejoin="round" stroke-width="1.5"/><path d="M10.5,14H7a.5.5,0,0,1-.5-.5v-2A.5.5,0,0,1,7,11h.5" fill="none" stroke="#323232" stroke-linecap="round" stroke-linejoin="round" stroke-width="1.5"/><path d="M13.5,5.5v.025A1.48766,1.48766,0,0,0,15,7h0a1.48766,1.48766,0,0,1,1.5,1.475V8.5" fill="none" stroke="#323232" stroke-linecap="round" stroke-linejoin="round" stroke-width="1.5"/><path d="M0,0H24V24H0Z" fill="none"/></svg>