<?xml version="1.0" encoding="UTF-8"?><svg version="1.1" viewBox="0 0 24 24" xmlns="http://www.w3.org/2000/svg" xmlns:xlink="http://www.w3.org/1999/xlink"><g stroke-linecap="round" stroke-width="1.5" stroke="#323232" fill="none" stroke-linejoin="round"><path d="M19 16h-3.465l3.77439e-08 5.64881e-12c-.334279-5.00359e-05-.646475.16693-.832.445l-.406.609 -2.17191e-08 3.25532e-08c-.185525.27807-.497721.44505-.832.445h-4.93l3.77439e-08-5.64881e-12c-.334279 5.00359e-05-.646475-.16693-.832-.445l-.403-.609 -1.98201e-08-2.97076e-08c-.186309-.279252-.500305-.446391-.836-.445h-3.464 -4.37114e-08c-.552285 2.41411e-08-1 .447715-1 1 0 0 0 3.55271e-15 0 3.55271e-15v1l2.4869e-14 3.01992e-07c1.66785e-07 1.10457.895431 2 2 2h14l-8.74228e-08-3.55271e-15c1.10457 4.82823e-08 2-.89543 2-2v-1h3.55271e-15c0-.552285-.447715-1-1-1Z"></path><path d="M19 16v-3"></path><path d="M8.958 8l2 2 -2 2"></path><path d="M10.96 10h-3.7"></path><path d="M19 7v-1 0c0-1.10457-.895431-2-2-2h-12l-8.74228e-08 1.77636e-15c-1.10457 4.82823e-08-2 .895431-2 2 0 0 0 8.88178e-16 0 8.88178e-16v10"></path><path d="M14 8.5v3l1.77636e-14 2.26494e-07c1.25089e-07.828427.671573 1.5 1.5 1.5h5l6.55671e-08-1.06581e-14c.828427-1.61301e-07 1.5-.671573 1.5-1.5v-3 6.55671e-08c0-.828427-.671573-1.5-1.5-1.5h-5l4.76798e-08 2.66454e-15c-.828427-6.25445e-08-1.5.671573-1.5 1.5 0 2.03192e-08-1.77636e-15 4.52479e-08-3.55271e-15 6.55671e-08Z"></path><path d="M22 9.5h-8"></path></g><path fill="none" d="M0 0h24v24h-24Z"></path></svg>