<?xml version="1.0" encoding="UTF-8"?><svg version="1.1" viewBox="0 0 24 24" xmlns="http://www.w3.org/2000/svg" xmlns:xlink="http://www.w3.org/1999/xlink"><!--Generated by IJSVG (https://github.com/iconjar/IJSVG)--><g stroke-linecap="round" stroke-width="1.5" stroke="#323232" fill="none" stroke-linejoin="round"><path d="M7,3h-2c-1.105,0 -2,0.895 -2,2v14c0,1.105 0.895,2 2,2h12c1.105,0 2,-0.895 2,-2v-1"></path><path d="M13,17l3.15,-0.389c0.221,-0.027 0.427,-0.128 0.585,-0.285l4.631,-4.631c0.845,-0.845 0.845,-2.215 0,-3.061v0c-0.845,-0.845 -2.215,-0.845 -3.061,0l-4.56,4.56c-0.153,0.153 -0.252,0.351 -0.283,0.566l-0.462,3.24Z"></path><path d="M13.5,4.5h-5c-0.828,0 -1.5,-0.672 -1.5,-1.5v0c0,-0.828 0.672,-1.5 1.5,-1.5h5c0.828,0 1.5,0.672 1.5,1.5v0c0,0.828 -0.672,1.5 -1.5,1.5Z"></path><path d="M7,8h6"></path><path d="M7,12h4"></path><path d="M15,3h2c1.105,0 2,0.895 2,2"></path></g><path fill="none" d="M0,24v-24h24v24h-24Z"></path><path d="M0,0h24v24h-24v-24Z" fill="none"></path></svg>