<svg id="Layer_3" data-name="Layer 3" xmlns="http://www.w3.org/2000/svg" viewBox="0 0 24 24"><path d="M3,5.71439V18.28561a2,2,0,0,0,1.85751,1.99492l10,.71428A2,2,0,0,0,17,18.9999V5.0001a2,2,0,0,0-2.14249-1.99491l-10,.71428A2,2,0,0,0,3,5.71439Z" fill="none" stroke="#323232" stroke-linecap="round" stroke-linejoin="round" stroke-width="1.5"/><path d="M16.937,4.5H19a2,2,0,0,1,2,2v11a2,2,0,0,1-2,2H16.937" fill="none" stroke="#323232" stroke-linecap="round" stroke-linejoin="round" stroke-width="1.5"/><line x1="7" y1="20.43356" x2="7" y2="3.56644" fill="none" stroke="#323232" stroke-linecap="round" stroke-linejoin="round" stroke-width="1.5"/><path d="M0,0H24V24H0Z" fill="none"/></svg>