<svg id="Layer_3" data-name="Layer 3" xmlns="http://www.w3.org/2000/svg" viewBox="0 0 24 24"><path d="M0,0H24V24H0Z" fill="none"/><path d="M10,18.49993V14" fill="none" stroke="#323232" stroke-linecap="round" stroke-linejoin="round" stroke-width="1.5"/><path d="M9.26776,16.73224a2.5,2.5,0,1,1-3.53553,0,2.5,2.5,0,0,1,3.53553,0" fill="none" stroke="#323232" stroke-linecap="round" stroke-linejoin="round" stroke-width="1.5"/><path d="M19.26777,14.73224a2.5,2.5,0,1,1-3.53553,0,2.5,2.5,0,0,1,3.53553,0" fill="none" stroke="#323232" stroke-linecap="round" stroke-linejoin="round" stroke-width="1.5"/><path d="M20,16.50054V6.00092a1,1,0,0,0-1.356-.93449L14,6.83549" fill="none" stroke="#323232" stroke-linecap="round" stroke-linejoin="round" stroke-width="1.5"/><path d="M7.25,11.5A4.25,4.25,0,1,1,11.5,7.25,4.25019,4.25019,0,0,1,7.25,11.5" fill="none" stroke="#323232" stroke-linecap="round" stroke-linejoin="round" stroke-width="1.5"/><path d="M8.66631,6.54131,6.89619,8.3125,5.83369,7.25" fill="none" stroke="#323232" stroke-linecap="round" stroke-linejoin="round" stroke-width="1.5"/></svg>