<svg id="Layer_3" data-name="Layer 3" xmlns="http://www.w3.org/2000/svg" viewBox="0 0 24 24"><path d="M17,2a5,5,0,0,1,5,5" fill="none" stroke="#323232" stroke-linecap="round" stroke-linejoin="round" stroke-width="1.5"/><path d="M17,5a2,2,0,0,1,2,2" fill="none" stroke="#323232" stroke-linecap="round" stroke-linejoin="round" stroke-width="1.5"/><path d="M12,3H8A5,5,0,0,0,3,8v8a5,5,0,0,0,5,5h8a5,5,0,0,0,5-5V12" fill="none" stroke="#323232" stroke-linecap="round" stroke-linejoin="round" stroke-width="1.5"/><path d="M9.8105,13.9395a1.49977,1.49977,0,1,1-2.121,0,1.49923,1.49923,0,0,1,2.121,0" fill="none" stroke="#323232" stroke-linecap="round" stroke-linejoin="round" stroke-width="1.5"/><path d="M15.3105,12.9395a1.49977,1.49977,0,1,1-2.121,0,1.49923,1.49923,0,0,1,2.121,0" fill="none" stroke="#323232" stroke-linecap="round" stroke-linejoin="round" stroke-width="1.5"/><path d="M10.2495,14.86937V10.40061a.99824.99824,0,0,1,.629-.928l3.5-1.4a.99949.99949,0,0,1,1.371.928v4.84955" fill="none" stroke="#323232" stroke-linecap="round" stroke-linejoin="round" stroke-width="1.5"/><path d="M0,0H24V24H0Z" fill="none"/></svg>