<?xml version="1.0" encoding="UTF-8"?><svg version="1.1" viewBox="0 0 24 24" xmlns="http://www.w3.org/2000/svg" xmlns:xlink="http://www.w3.org/1999/xlink"><g stroke-linecap="round" stroke-width="1.5" stroke="#323232" fill="none" stroke-linejoin="round"><path d="M9 21h-3c-1.105 0-2-.895-2-2v-14c0-1.105.895-2 2-2h11c1.105 0 2 .895 2 2v4"></path><path d="M21 17c-.108.979-.515 1.931-1.266 2.682 -1.757 1.757-4.607 1.757-6.364 0 -.313-.313-.567-.661-.768-1.03"></path><path d="M20.502 14.348c-.201-.369-.456-.717-.768-1.03 -1.757-1.757-4.607-1.757-6.364 0 -.751.751-1.16 1.703-1.269 2.682"></path><polyline points="18.776,14.348 20.764,14.348 20.764,12.359"></polyline><polyline points="14.328,18.652 12.34,18.652 12.34,20.641"></polyline><line x1="2.5" x2="5.5" y1="7" y2="7"></line><line x1="2.5" x2="5.3" y1="17" y2="17"></line><line x1="2.5" x2="5.3" y1="12" y2="12"></line></g><rect width="24" height="24" fill="none"></rect></svg>