<svg id="Layer_3" data-name="Layer 3" xmlns="http://www.w3.org/2000/svg" viewBox="0 0 24 24"><path d="M0,0H24V24H0Z" fill="none"/><rect width="24" height="24" fill="none"/><path d="M12.91084,12.50931l5.975-5.975a1.82423,1.82423,0,0,1,2.57984,0h0a1.82423,1.82423,0,0,1,0,2.57985l-5.975,5.975a2.50005,2.50005,0,0,1-1.41422.7071l-1.38224.19747a.60808.60808,0,0,1-.688-.688l.19747-1.38224A2.50005,2.50005,0,0,1,12.91084,12.50931Z" fill="none" stroke="#323232" stroke-linecap="round" stroke-linejoin="round" stroke-width="1.5"/><line x1="9" y1="16" x2="7" y2="16" fill="none" stroke="#323232" stroke-linecap="round" stroke-linejoin="round" stroke-width="1.5"/><line x1="9" y1="12.5" x2="7" y2="12.5" fill="none" stroke="#323232" stroke-linecap="round" stroke-linejoin="round" stroke-width="1.5"/><line x1="12" y1="9" x2="7" y2="9" fill="none" stroke="#323232" stroke-linecap="round" stroke-linejoin="round" stroke-width="1.5"/><path d="M19,6.42983V5a2,2,0,0,0-2-2H5A2,2,0,0,0,3,5V19a2,2,0,0,0,2,2H17a2,2,0,0,0,2-2V11.57983" fill="none" stroke="#323232" stroke-linecap="round" stroke-linejoin="round" stroke-width="1.5"/></svg>