<svg id="Layer_3" data-name="Layer 3" xmlns="http://www.w3.org/2000/svg" viewBox="0 0 24 24"><path d="M18.88586,12.5343l-5.95575,5.95575a2.5,2.5,0,0,0-.70711,1.41421l-.21784,1.5249a.5.5,0,0,0,.56568.56568l1.5249-.21784A2.5,2.5,0,0,0,15.51,21.06989l5.95574-5.95574a1.82423,1.82423,0,0,0,0-2.57985h0A1.82423,1.82423,0,0,0,18.88586,12.5343Z" fill="none" stroke="#323232" stroke-linecap="round" stroke-linejoin="round" stroke-width="1.5"/><path d="M9,10h6" fill="none" stroke="#323232" stroke-linecap="round" stroke-linejoin="round" stroke-width="1.5"/><path d="M9,14h2" fill="none" stroke="#323232" stroke-linecap="round" stroke-linejoin="round" stroke-width="1.5"/><path d="M9,21H6a1.99944,1.99944,0,0,1-2-1.9989V5A1.99944,1.99944,0,0,1,5.9989,3H18a1.99944,1.99944,0,0,1,2,1.9989V9" fill="none" stroke="#323232" stroke-linecap="round" stroke-linejoin="round" stroke-width="1.5"/><path d="M3,8H5.33" fill="none" stroke="#323232" stroke-linecap="round" stroke-linejoin="round" stroke-width="1.5"/><path d="M3,12H5.33" fill="none" stroke="#323232" stroke-linecap="round" stroke-linejoin="round" stroke-width="1.5"/><path d="M2.88,16H5.33" fill="none" stroke="#323232" stroke-linecap="round" stroke-linejoin="round" stroke-width="1.5"/><path d="M0,0H24V24H0Z" fill="none"/></svg>