<?xml version="1.0" encoding="UTF-8"?><svg version="1.1" viewBox="0 0 24 24" xmlns="http://www.w3.org/2000/svg" xmlns:xlink="http://www.w3.org/1999/xlink"><g stroke-linecap="round" stroke-width="1.5" stroke="#323232" fill="none" stroke-linejoin="round"><line x1="7" x2="7" y1="7.91" y2="20.72"></line><line x1="3.22" x2="7" y1="4.81" y2="7.91"></line><line x1="20.95" x2="7" y1="7.09" y2="7.91"></line><line x1="11.86" x2="11.86" y1="10.95" y2="17.33"></line><path d="M16.635 10.673v6.234l-1.10177e-09 1.78959e-07c-.000584868.0949912-.0780646.171523-.173056.170938 -.0577055-.000355297-.111387-.0296245-.142944-.0779381l-3.926-6.079"></path><line x1="12.39" x2="11.25" y1="10.92" y2="10.99"></line><path d="M19.132 20.305l-6.00812e-08 3.97388e-09c1.05271-.0696282 1.8703-.944991 1.868-2v-10.845l8.87049e-10-2.5644e-06c.000224957-.651545-.316937-1.26236-.850002-1.637l-2.982-2.1 1.49631e-08 1.05098e-08c-.755482-.530637-1.67126-.783607-2.592-.716l-9.722.71 -1.07025e-08 7.83361e-10c-1.04679.0766189-1.85627.949409-1.854 1.999v10.068l-1.59315e-08 8.14876e-06c-.000858815.439732.144028.867353.412005 1.216l1.888 2.43899 -1.52231e-07-1.9817e-07c.811794 1.05677 2.09726 1.63892 3.427 1.552Z"></path><line x1="16.02" x2="17.25" y1="10.71" y2="10.64"></line><path d="M11.25 17.363l1.134-.075"></path></g><path fill="none" d="M0 24v-24h24v24Z"></path></svg>