<svg id="Layer_3" data-name="Layer 3" xmlns="http://www.w3.org/2000/svg" viewBox="0 0 24 24"><rect width="24" height="24" fill="none"/><path d="M13.842,7H13a1,1,0,0,1-1-1V5.157A3.157,3.157,0,0,1,15.157,2H16a1,1,0,0,1,1,1v.842A3.158,3.158,0,0,1,13.842,7Z" fill="none" stroke="#323232" stroke-linecap="round" stroke-linejoin="round" stroke-width="1.5"/><path d="M5.03,13.43A5.4362,5.4362,0,0,0,5,14c0,4.42,3.13,8,7,8s7-3.58,7-8a5.4362,5.4362,0,0,0-.03-.57" fill="none" stroke="#323232" stroke-linecap="round" stroke-linejoin="round" stroke-width="1.5"/><path d="M12,7.00006c-3.86356,0-7.10043,2.08691-7.94879,4.89056a1.209,1.209,0,0,0,1.15211,1.55577,8.02247,8.02247,0,0,0,3.76475-1.00917l.01286-.00582-.01286.00582h0a3.10907,3.10907,0,0,0,6.06384,0h0l-.01286-.00582.01286.00582a8.02247,8.02247,0,0,0,3.76475,1.00917,1.209,1.209,0,0,0,1.15211-1.55577C19.10043,9.087,15.86356,7.00006,12,7.00006" fill="none" stroke="#323232" stroke-linecap="round" stroke-linejoin="round" stroke-width="1.5"/><path d="M12,7.00006V5.5A2.5,2.5,0,0,0,9.5,3H9" fill="none" stroke="#323232" stroke-linecap="round" stroke-linejoin="round" stroke-width="1.5"/></svg>