<svg id="Layer_3" data-name="Layer 3" xmlns="http://www.w3.org/2000/svg" viewBox="0 0 24 24"><path d="M16,2,14,4l2,2" fill="none" stroke="#323232" stroke-linecap="round" stroke-linejoin="round" stroke-width="1.5"/><path d="M20,4H14" fill="none" stroke="#323232" stroke-linecap="round" stroke-linejoin="round" stroke-width="1.5"/><path d="M20.05829,7.99644a8.998,8.998,0,1,1-10.0558-4.77" fill="none" stroke="#323232" stroke-linecap="round" stroke-linejoin="round" stroke-width="1.5"/><path d="M15.92258,13.394,13.394,15.92258a1.97143,1.97143,0,0,1-2.788,0L8.07742,13.394a1.97143,1.97143,0,0,1,0-2.788L10.606,8.07742a1.97143,1.97143,0,0,1,2.788,0L15.92258,10.606A1.97143,1.97143,0,0,1,15.92258,13.394Z" fill="none" stroke="#323232" stroke-linecap="round" stroke-linejoin="round" stroke-width="1.5"/><path d="M24,24H0V0H24Z" fill="none"/><path d="M24,24H0V0H24Z" fill="none"/></svg>