<?xml version="1.0" encoding="UTF-8"?><svg version="1.1" viewBox="0 0 24 24" xmlns="http://www.w3.org/2000/svg" xmlns:xlink="http://www.w3.org/1999/xlink"><g stroke-linecap="round" stroke-width="1.5" stroke="#323232" fill="none" stroke-linejoin="round"><rect width="14" height="14" x="7" y="7" rx="1.65684" ry="0"></rect><path d="M7 17h-1l-1.31134e-07-3.55271e-15c-1.65685-7.24234e-08-3-1.34315-3-3 0 0 0-1.77636e-15 0-1.77636e-15v-8l3.37508e-14 4.52987e-07c-2.50178e-07-1.65685 1.34315-3 3-3h8l-1.31134e-07 2.66454e-15c1.65685-7.24234e-08 3 1.34315 3 3 0 0 0 1.77636e-15 0 1.77636e-15v1"></path><path d="M17.368 13.931h-3.01609e-09c-.0381076 1.66574e-09-.069.0308924-.069.069 1.66574e-09.0381076.0308924.069.069.069 .0381076-1.66574e-09.069-.0308924.069-.069 0 0 0 0 0 0v-1.77636e-15c0-.0381076-.0308924-.069-.069-.069"></path><path d="M10.631 13.931l-3.96486e-09-4.29878e-13c-.0375554-4.05895e-06-.0680033.0304373-.0680073.0679927 -3.62928e-08.000335798 2.41478e-06.000671592 7.35301e-06.00100735l-3.80545e-10-7.23633e-06c5.75409e-09.0381076.0308924.069.069.069 .0381076-5.75409e-09.069-.0308924.069-.069 -5.75409e-09-.0381076-.0308924-.069-.069-.069 -.000330931 4.99689e-11-.000661857 2.38086e-06-.000992754 7.14226e-06"></path><path d="M13.931 14l-3.97586e-10 7.34308e-06c-5.6707e-09.0375554.0304446.068.068.068 .000335798 5.07043e-11.000671592-2.48726e-06.00100735-7.46173e-06l-1.66692e-09 3.53495e-13c.0381076-8.05724e-06.0689935-.0309069.0689854-.0690146 -8.05724e-06-.0381076-.0309069-.0689935-.0690146-.0689854 -.0381076 8.05724e-06-.0689935.0309069-.0689854.0690146 6.94598e-08.000328518 2.4851e-06.000657032 7.24674e-06.000985516"></path><path d="M13.931 10.632v-1.04187e-08c-5.75409e-09.0381076.0308923.069.069.069 .0381076 5.75409e-09.069-.0308923.069-.069 5.75409e-09-.0381076-.0308923-.069-.069-.069 0 0 0 0 0 0l-3.01609e-09 1.77636e-15c-.0381076 1.66574e-09-.069.0308924-.069.069 0 0 0 1.77636e-15 0 1.77636e-15"></path><path d="M13.931 17.369l-3.97586e-10 7.34308e-06c-5.6707e-09.0375554.0304446.068.068.068 .000335798 5.07043e-11.000671592-2.48726e-06.00100735-7.46173e-06l-3.15444e-09 3.33955e-13c.0381076-4.00053e-06.0689968-.0308996.0689928-.0690072 -4.00053e-06-.0381076-.0308996-.0689968-.0690072-.0689928 -.0381076 4.00053e-06-.0689968.0308996-.0689928.0690072 3.4741e-08.000330931 2.45025e-06.000661857 7.24633e-06.000992753"></path></g><rect width="24" height="24" fill="none"></rect></svg>