<?xml version="1.0" encoding="UTF-8"?><svg version="1.1" viewBox="0 0 24 24" xmlns="http://www.w3.org/2000/svg" xmlns:xlink="http://www.w3.org/1999/xlink"><g stroke-linecap="round" stroke-width="1.5" stroke="#323232" fill="none" stroke-linejoin="round"><path d="M20.389 12.611l5.0866e-08 5.08637e-08c2.14793 2.14784 2.14801 5.63024.000174489 7.77817 -2.14784 2.14793-5.63024 2.14801-7.77817.000174489 -2.14793-2.14784-2.14801-5.63024-.000174489-7.77817 5.81957e-05-5.81983e-05.000116393-.000116395.000174591-.000174591l-1.59056e-07 1.59048e-07c2.14786-2.14777 5.63014-2.14777 7.778-3.18097e-07"></path><path d="M9 21h-1l-2.18557e-07-7.10543e-15c-2.76142-1.20706e-07-5-2.23858-5-5 0 0 0-1.77636e-15 0-1.77636e-15v-8l5.68434e-14 7.54979e-07c-4.16963e-07-2.76142 2.23858-5 5-5h8l-2.18557e-07 5.32907e-15c2.76142-1.20706e-07 5 2.23858 5 5v1"></path><path d="M16.5 16.45h-2.18557e-09c-.0276142 1.20706e-09-.05.0223858-.05.05 0 0 0 3.55271e-15 0 3.55271e-15v-7.54979e-09c-4.16963e-09.0276142.0223858.05.05.05 0 0 0 0 0 0h-2.18557e-09c.0276142 1.20706e-09.05-.0223858.05-.05 0 0 0 0 0 0l-8.81297e-10-4.53729e-08c-.000532035-.0273908-.0226092-.049468-.05-.05"></path><path d="M18.945 16.45h-2.18557e-09c-.0276142 1.20706e-09-.05.0223858-.05.05 0 0 0 3.55271e-15 0 3.55271e-15v-7.54979e-09c-4.16963e-09.0276142.0223858.05.05.05 0 0 0 0 0 0l6.49788e-10 6.53131e-11c.0274758.00276177.0519882-.0172729.0547499-.0447487 .000175386-.00174485.000258856-.00349771.000250064-.00525133l-8.81297e-10-4.53729e-08c-.000532035-.0273908-.0226092-.049468-.05-.05"></path><path d="M14.056 16.45h-2.18557e-09c-.0276142 1.20706e-09-.05.0223858-.05.05 1.20706e-09.0276142.0223858.05.05.05h-2.18557e-09c.0276142 1.20706e-09.05-.0223858.05-.05 0 0 0 0 0 0v-3.55271e-15c0-.0276142-.0223858-.05-.05-.05 0 0-1.77636e-15 0-1.77636e-15 0"></path></g><path fill="none" d="M0 0h24v24h-24Z"></path></svg>