<?xml version="1.0" encoding="UTF-8"?><svg version="1.1" viewBox="0 0 24 24" xmlns="http://www.w3.org/2000/svg" xmlns:xlink="http://www.w3.org/1999/xlink"><!--Generated by IJSVG (https://github.com/iconjar/IJSVG)--><path d="M15.038,2.833h-6.076c-0.486,0 -0.953,0.193 -1.296,0.537l-4.296,4.296c-0.344,0.344 -0.537,0.81 -0.537,1.296v6.075c0,0.486 0.193,0.953 0.537,1.296l4.296,4.296c0.344,0.344 0.81,0.537 1.296,0.537h6.075c0.486,0 0.953,-0.193 1.296,-0.537l4.296,-4.296c0.344,-0.344 0.537,-0.81 0.537,-1.296v-6.075c0,-0.486 -0.193,-0.953 -0.537,-1.296l-4.295,-4.296c-0.344,-0.344 -0.81,-0.537 -1.296,-0.537Z" stroke-linecap="round" stroke-width="1.5" stroke="#323232" fill="none" stroke-linejoin="round"></path><path fill="none" d="M0,0h24v24h-24Z"></path></svg>