<svg id="Layer_3" data-name="Layer 3" xmlns="http://www.w3.org/2000/svg" viewBox="0 0 24 24"><path d="M24,0H0V24H24Z" fill="none"/><path d="M15,12.5V8a1,1,0,0,0-1-1H10A1,1,0,0,0,9,8v2.3706" fill="none" stroke="#323232" stroke-linecap="round" stroke-linejoin="round" stroke-width="1.5"/><path d="M20.582,9.353A8.839,8.839,0,0,1,21,12a9,9,0,1,1-9-9,8.839,8.839,0,0,1,2.647.418" fill="none" stroke="#323232" stroke-linecap="round" stroke-linejoin="round" stroke-width="1.5"/><path d="M17.79894,5.062,19,6.262l1.99893-2" fill="none" stroke="#323232" stroke-linecap="round" stroke-linejoin="round" stroke-width="1.5"/><path d="M14,16h2a1,1,0,0,0,1-1V13a.5.5,0,0,0-.5-.5h-2a.5.5,0,0,0-.5.5v3" fill="none" stroke="#323232" stroke-linecap="round" stroke-linejoin="round" stroke-width="1.5"/><path d="M11.00012,16l-.02537-5.00295a1,1,0,0,0-1.44718-.89021l-1.97476.98732A1,1,0,0,0,7,11.9886V15a1,1,0,0,0,1,1h6" fill="none" stroke="#323232" stroke-linecap="round" stroke-linejoin="round" stroke-width="1.5"/></svg>