<?xml version="1.0" encoding="UTF-8"?><svg version="1.1" viewBox="0 0 24 24" xmlns="http://www.w3.org/2000/svg" xmlns:xlink="http://www.w3.org/1999/xlink"><g stroke-linecap="round" stroke-width="1.5" stroke="#323232" fill="none" stroke-linejoin="round"><rect width="18" height="18" x="3" y="3" rx="2.7614" ry="0"></rect><path d="M16.71 16h-3l1.515-1.768 3.06746e-07-3.5768e-07c.680108-.793038 1.05398-1.80327 1.054-2.848v-.184 0c0-2.31297-1.87503-4.188-4.188-4.188v0l-1.91281e-07 2.66454e-15c-2.4168 1.05642e-07-4.376 1.9592-4.376 4.376 0 0 0 1.77636e-15 0 1.77636e-15v0l-8.11532e-10-8.36088e-05c1.5775e-07 1.04473.373852 2.05497 1.05395 2.84802l1.51805 1.76406h-3"></path></g><path fill="none" d="M24 0v24h-24v-24Z"></path></svg>