<svg id="Layer_3" data-name="Layer 3" xmlns="http://www.w3.org/2000/svg" viewBox="0 0 24 24"><path d="M19,6h1a2,2,0,0,1,2,2V19a2,2,0,0,1-2,2H4a2,2,0,0,1-2-2V8A2,2,0,0,1,4,6H5" fill="none" stroke="#323232" stroke-linecap="round" stroke-linejoin="round" stroke-width="1.5"/><line x1="12" y1="20" x2="12" y2="5.83902" fill="none" stroke="#323232" stroke-linecap="round" stroke-linejoin="round" stroke-width="1.5"/><path d="M12,5.839h0a8.308,8.308,0,0,1,4.97709-2.69657l.87457-.13118A1,1,0,0,1,19,4.00021v12.1386a1,1,0,0,1-.85166.98894l-1.17125.17569A8.30806,8.30806,0,0,0,12,20h0" fill="none" stroke="#323232" stroke-linecap="round" stroke-linejoin="round" stroke-width="1.5"/><path d="M12,5.839h0A8.30806,8.30806,0,0,0,7.02291,3.14245l-.87457-.13118A1,1,0,0,0,5,4.00021v12.1386a1,1,0,0,0,.85166.98894l1.17125.17569A8.30806,8.30806,0,0,1,12,20h0" fill="none" stroke="#323232" stroke-linecap="round" stroke-linejoin="round" stroke-width="1.5"/><path d="M0,0H24V24H0Z" fill="none"/></svg>