<svg id="Layer_3" data-name="Layer 3" xmlns="http://www.w3.org/2000/svg" viewBox="0 0 24 24"><rect y="0.00001" width="24" height="24" fill="none"/><path d="M18.0104,4.47977h0a8.443,8.443,0,0,1,0,11.97353h0L14.47,19.97976a3.5,3.5,0,0,1-4.93584.00411l-.02579-.0256L5.98958,16.45333A8.44316,8.44316,0,0,1,5.98952,4.47977h0A8.52387,8.52387,0,0,1,17.982,4.45166l.02832.02811Z" fill="none" stroke="#323232" stroke-linecap="round" stroke-linejoin="round" stroke-width="1.5"/><path d="M8,7.99273c0,1.14619,0,3.91568,0,5.05693a.50251.50251,0,0,0,.50046.497A6.6466,6.6466,0,0,1,12,14.5a6.64663,6.64663,0,0,1,3.49949-.95336A.50563.50563,0,0,0,16,13.04821l0-5.04656a.49993.49993,0,0,0-.51217-.50115A7.153,7.153,0,0,0,12,8.445a7.155,7.155,0,0,0-3.49141-.94465A.49158.49158,0,0,0,8,7.99273Z" fill="none" stroke="#323232" stroke-linecap="round" stroke-linejoin="round" stroke-width="1.5"/><line x1="12.00002" y1="8.44208" x2="12.00002" y2="14.50001" fill="none" stroke="#323232" stroke-linecap="round" stroke-linejoin="round" stroke-width="1.5"/></svg>