<?xml version="1.0" encoding="UTF-8"?><svg version="1.1" viewBox="0 0 24 24" xmlns="http://www.w3.org/2000/svg" xmlns:xlink="http://www.w3.org/1999/xlink"><!--Generated by IJSVG (https://github.com/iconjar/IJSVG)--><g stroke-linecap="round" stroke-width="1.5" stroke="#323232" fill="none" stroke-linejoin="round"><path d="M18.364,5.63604c3.51472,3.51472 3.51472,9.2132 0,12.7279c-3.51472,3.51472 -9.2132,3.51472 -12.7279,0c-3.51472,-3.51472 -3.51472,-9.2132 -1.77636e-15,-12.7279c3.51472,-3.51472 9.2132,-3.51472 12.7279,-1.77636e-15"></path><path d="M19.0962,6.91166c2.53841,2.81021 2.53841,7.36647 0,10.1767c-2.53841,2.81021 -6.65398,2.81021 -9.19239,0c-2.53841,-2.81021 -2.53841,-7.36647 -1.77636e-15,-10.1767c2.53841,-2.81021 6.65398,-2.81021 9.19239,-2.66454e-15"></path><path d="M14.8284,8.32304c1.5621,2.03073 1.5621,5.32318 0,7.35391c-1.5621,2.03073 -4.09476,2.03073 -5.65685,0c-1.5621,-2.03073 -1.5621,-5.32318 -1.77636e-15,-7.35391c1.5621,-2.03073 4.09476,-2.03073 5.65685,0"></path></g><path fill="none" d="M0,0h24v24h-24Z"></path></svg>