<?xml version="1.0" encoding="UTF-8"?><svg version="1.1" viewBox="0 0 24 24" xmlns="http://www.w3.org/2000/svg" xmlns:xlink="http://www.w3.org/1999/xlink"><!--Generated by IJSVG (https://github.com/iconjar/IJSVG)--><g fill="none"><path d="M0,0h24v24h-24Z"></path><path stroke="#323232" stroke-linecap="round" stroke-linejoin="round" stroke-width="1.5" d="M16.2426,7.75736c2.34315,2.34315 2.34315,6.14214 0,8.48528c-2.34315,2.34315 -6.14214,2.34315 -8.48528,0c-2.34315,-2.34315 -2.34315,-6.14214 -1.77636e-15,-8.48528c2.34315,-2.34315 6.14214,-2.34315 8.48528,-1.77636e-15"></path><path stroke="#323232" stroke-linecap="round" stroke-linejoin="round" stroke-width="1.5" d="M16.7309,8.6073c1.69214,1.87374 1.69214,4.91166 0,6.7854c-1.69214,1.87374 -4.43565,1.87374 -6.12779,0c-1.69214,-1.87374 -1.69214,-4.91166 0,-6.7854c1.69214,-1.87374 4.43565,-1.87374 6.12779,0"></path><path stroke="#323232" stroke-linecap="round" stroke-linejoin="round" stroke-width="1.5" d="M13.8859,9.54846c1.04153,1.35395 1.04153,3.54913 0,4.90308c-1.04153,1.35395 -2.73018,1.35395 -3.77171,0c-1.04153,-1.35395 -1.04153,-3.54913 -1.77636e-15,-4.90308c1.04153,-1.35395 2.73018,-1.35395 3.77171,0"></path><path stroke="#323232" stroke-linecap="round" stroke-linejoin="round" stroke-width="1.5" d="M7.5,3h9.004c2.483,0 4.496,2.013 4.496,4.496v9.009c0,2.482 -2.013,4.495 -4.496,4.495h-9.008c-2.483,0 -4.496,-2.013 -4.496,-4.496v-9.004c0,-2.485 2.015,-4.5 4.5,-4.5Z"></path></g></svg>