<?xml version="1.0" encoding="UTF-8"?><svg version="1.1" viewBox="0 0 24 24" xmlns="http://www.w3.org/2000/svg" xmlns:xlink="http://www.w3.org/1999/xlink"><g stroke-linecap="round" stroke-width="1.5" stroke="#323232" fill="none" stroke-linejoin="round"><path d="M15 3.077v3.489 0c0 .552285-.447715 1-1 1h-4l-4.37114e-08-8.88178e-16c-.552285-2.41411e-08-1-.447715-1-1 0 0 0 0 0 0v-3.566"></path><path d="M21 10.434v-5.434 0c0-1.10457-.895431-2-2-2h-14l-8.74228e-08 1.77636e-15c-1.10457 4.82823e-08-2 .895431-2 2 0 0 0 0 0 0v13l2.30926e-14 3.01992e-07c1.66785e-07 1.10457.895431 2 2 2h6"></path><path d="M19.428 15.7v-1.737 -1.77636e-15c0-1.08413-.878865-1.963-1.963-1.963 0 0-3.55271e-15 0-3.55271e-15 0v0l-2.11827e-08-2.1581e-11c-1.08413-.00110456-1.96389.876865-1.965 1.961 -6.79571e-07.000667006-1.01918e-06.00133401-1.01883e-06.00200102v1.737"></path><path d="M19.714 15.7h-4.5l-5.62128e-08 3.55271e-15c-.710238 3.10455e-08-1.286.575762-1.286 1.286 0 0 0 0 0 0v2.731l-4.99564e-08-2.14912e-05c.00164231.709066.57691 1.28301 1.28598 1.28302h4.5l-1.40455e-08 2.15579e-11c.70979-.00108945 1.28492-.57621 1.28602-1.286v-2.731l4.99061e-08 2.14698e-05c-.00164229-.709066-.57691-1.28301-1.28598-1.28302Z"></path></g><path fill="none" d="M0 0h24v24h-24Z"></path></svg>