<?xml version="1.0" encoding="UTF-8"?><svg version="1.1" viewBox="0 0 24 24" xmlns="http://www.w3.org/2000/svg" xmlns:xlink="http://www.w3.org/1999/xlink"><g stroke-linecap="round" stroke-width="1.5" stroke="#323232" fill="none" stroke-linejoin="round"><path d="M22 16.267l-1.244-1.244 -1.245 1.244"></path><path d="M13.023 16.756l1.244 1.244 1.244-1.244"></path><path d="M14.267 18v-3.318l-5.19259e-09-8.64406e-06c-.000547677-.915688.74132-1.65844 1.65701-1.65899 .000666868-3.98857e-07.00133374-3.9538e-07.0020006 1.04302e-08h3.1"></path><path d="M20.756 15.023v3.318l1.5809e-08-5.28429e-06c-.00273277.913935-.742066 1.65461-1.65599 1.65901h-3.07701"></path><path d="M15 3.077v3.489 0c0 .552285-.447715 1-1 1h-4l-4.37114e-08-8.88178e-16c-.552285-2.41411e-08-1-.447715-1-1 0 0 0 0 0 0v-3.566"></path><path d="M21 10v-5 0c0-1.10457-.895431-2-2-2h-14l-8.74228e-08 1.77636e-15c-1.10457 4.82823e-08-2 .895431-2 2 0 0 0 0 0 0v13l2.30926e-14 3.01992e-07c1.66785e-07 1.10457.895431 2 2 2h6"></path></g><path fill="none" d="M0 0h24v24h-24Z"></path></svg>