<?xml version="1.0" encoding="UTF-8"?><svg version="1.1" viewBox="0 0 24 24" xmlns="http://www.w3.org/2000/svg" xmlns:xlink="http://www.w3.org/1999/xlink"><g stroke-linecap="round" stroke-width="1.5" stroke="#323232" fill="none" stroke-linejoin="round"><path d="M9 21h-4.286 -7.49213e-08c-.946616-4.13779e-08-1.714-.767384-1.714-1.714 0 0 0-3.55271e-15 0-3.55271e-15v-4.286"></path><path d="M3 4.355v5.145l5.32907e-15 7.54979e-08c4.16963e-08.276142.223858.5.5.5h6.053 -2.18557e-08c.276142 1.20706e-08.5-.223858.5-.5v-5.145"></path><path d="M2 5l4.592-3 4.408 3"></path><path d="M16 3h3.286l-7.49213e-08 1.33227e-15c.946616-4.13779e-08 1.714.767384 1.714 1.714v3.286"></path><path d="M17 13v2.22"></path><path d="M21 16.717v0c0-.490981-.398019-.889-.889-.889h-6.222 -3.88594e-08c-.490981 2.14615e-08-.889.398019-.889.889"></path><path d="M20.111 21h-6.111 -4.37114e-08c-.552285-2.41411e-08-1-.447715-1-1 0 0 0-3.55271e-15 0-3.55271e-15v-4.556l-5.71971e-08.000451861c3.63266e-08-.24058.0485784-.478684.142823-.700036l.486-1.138 -1.22428e-09 2.86456e-09c.15742-.36833.519441-.607185.92-.607h4.9l1.06668e-08 5.74296e-12c.400196.000215523.761723.239005.919.607l.487 1.139 2.81579e-08 6.60881e-08c.0943005.221328.142939.459419.143.7v4.666l-9.98792e-09 2.09614e-05c-.000239243.48997-.396875.887375-.886844.888563Z"></path></g><path fill="none" d="M0 0h24v24h-24Z"></path></svg>