<?xml version="1.0" encoding="UTF-8"?><svg version="1.1" viewBox="0 0 24 24" xmlns="http://www.w3.org/2000/svg" xmlns:xlink="http://www.w3.org/1999/xlink"><defs><path d="M0 0h24v24h-24Z" id="a"></path></defs><g fill="none"><use xlink:href="#a"></use><use xlink:href="#a"></use><path stroke="#323232" stroke-linecap="round" stroke-linejoin="round" stroke-width="1.5" d="M16 10h3l-8.74228e-08 1.77636e-15c1.10457-4.82823e-08 2 .89543 2 2v7 0c0 1.10457-.895431 2-2 2h-3l-8.74228e-08-3.55271e-15c-1.10457-4.82823e-08-2-.895431-2-2 0 0 0 0 0 0v-7l2.13163e-14 3.01992e-07c-1.66785e-07-1.10457.89543-2 2-2Z"></path><path stroke="#323232" stroke-linecap="round" stroke-linejoin="round" stroke-width="1.5" d="M16.75 18.75h1.5"></path><path stroke="#323232" stroke-linecap="round" stroke-linejoin="round" stroke-width="1.5" d="M18.951 7v-1.794l2.13163e-14-2.82167e-07c0-.978649-.793351-1.772-1.772-1.772 -.000333427 0-.000666855 9.41088e-08-.00100028 2.82326e-07h-12.406l-7.74566e-08 1.77636e-15c-.978649 4.27781e-08-1.772.793352-1.772 1.772v12.022l2.04281e-14-2.67565e-07c-1.47772e-07.978649.793351 1.772 1.772 1.772h6.228"></path><path stroke="#323232" stroke-linecap="round" stroke-linejoin="round" stroke-width="1.5" d="M13.634 3.5v2.614 8.88178e-16c0 .489324-.396676.886-.886.886 0 0-1.77636e-15 0-1.77636e-15 0h-3.548 -3.87283e-08c-.489324-2.1389e-08-.886-.396676-.886-.886v-2.68"></path><line x1="6" x2="8" y1="16" y2="16" stroke="#323232" stroke-linecap="round" stroke-linejoin="round" stroke-width="1.5"></line></g></svg>