<?xml version="1.0" encoding="UTF-8"?><svg version="1.1" viewBox="0 0 24 24" xmlns="http://www.w3.org/2000/svg" xmlns:xlink="http://www.w3.org/1999/xlink"><g stroke-linecap="round" stroke-width="1.5" stroke="#323232" fill="none" stroke-linejoin="round"><path d="M21 21l-1.9-1.9"></path><path d="M16.167 12l-1.82145e-07 3.55271e-15c2.30137-1.00596e-07 4.167 1.86563 4.167 4.167l1.63953e-07-1.10894e-05c-.0338126 2.28722-1.87977 4.13319-4.16699 4.16701l-1.82145e-07-3.55271e-15c-2.30137-1.00596e-07-4.167-1.86563-4.167-4.167 1.00596e-07-2.30137 1.86563-4.167 4.167-4.167"></path><path d="M17.307 15.6l-1.425 1.425 -.856-.855"></path><path d="M3 16v2l2.30926e-14 3.01992e-07c1.66785e-07 1.10457.895431 2 2 2h4"></path><path d="M21 10v-5 0c0-1.10457-.895431-2-2-2h-4"></path><path d="M7.5 3v3.182"></path><path d="M9 12h-4.875l-4.91753e-08-1.77636e-15c-.62132-2.71588e-08-1.125-.50368-1.125-1.125v-5.126l-1.64132e-08 2.35658e-05c.000186581-.270169.0549452-.537516.160991-.786002l.547-1.28 -3.60456e-08 8.42356e-08c.177265-.414254.584421-.682944 1.03501-.683022h5.514l-2.05576e-09-9.76108e-13c.450296.000213839.857084.268914 1.034.683l.548 1.281 4.51329e-08 1.05752e-07c.106048.248485.16081.515831.161.786v3.25"></path><path d="M12 7.182v0c0-.552285-.447715-1-1-1h-7l-4.37114e-08 8.88178e-16c-.552285 2.41411e-08-1 .447715-1 1 0 0 0 0 0 0"></path></g><path fill="none" d="M0 0h24v24h-24Z"></path></svg>