<?xml version="1.0" encoding="UTF-8"?><svg version="1.1" viewBox="0 0 24 24" xmlns="http://www.w3.org/2000/svg" xmlns:xlink="http://www.w3.org/1999/xlink"><!--Generated by IJSVG (https://github.com/iconjar/IJSVG)--><g fill="none"><path d="M0,0h24v24h-24Z"></path><path stroke="#323232" stroke-linecap="round" stroke-linejoin="round" stroke-width="1.5" d="M4,8.25v10.75c0,1.105 0.895,2 2,2h11c1.657,0 3,-1.343 3,-3v0c0,-1.657 -1.343,-3 -3,-3h-4"></path><path stroke="#323232" stroke-linecap="round" stroke-linejoin="round" stroke-width="1.5" d="M20,12v-3.75"></path><path stroke="#323232" stroke-linecap="round" stroke-linejoin="round" stroke-width="1.5" d="M15,13l-2,2l2,2"></path><path stroke="#323232" stroke-linecap="round" stroke-linejoin="round" stroke-width="1.5" d="M20,8.25h-16c-0.552,0 -1,-0.448 -1,-1v-2.25c0,-0.552 0.448,-1 1,-1h16c0.552,0 1,0.448 1,1v2.25c0,0.552 -0.448,1 -1,1Z"></path></g></svg>