<?xml version="1.0" encoding="UTF-8"?><svg version="1.1" viewBox="0 0 24 24" xmlns="http://www.w3.org/2000/svg" xmlns:xlink="http://www.w3.org/1999/xlink"><g fill="none"><path d="M0 0h24v24h-24Z"></path><path stroke="#323232" stroke-linecap="round" stroke-linejoin="round" stroke-width="1.5" d="M5 3l-8.74228e-08 1.77636e-15c-1.10457 4.82823e-08-2 .895431-2 2 0 0 0 8.88178e-16 0 8.88178e-16"></path><path stroke="#323232" stroke-linecap="round" stroke-linejoin="round" stroke-width="1.5" d="M3 8.33v2"></path><path stroke="#323232" stroke-linecap="round" stroke-linejoin="round" stroke-width="1.5" d="M8.33 3h2"></path><path stroke="#323232" stroke-linecap="round" stroke-linejoin="round" stroke-width="1.5" d="M19 21l-8.74228e-08-3.55271e-15c1.10457 4.82823e-08 2-.89543 2-2"></path><path stroke="#323232" stroke-linecap="round" stroke-linejoin="round" stroke-width="1.5" d="M21 15.67v-2"></path><path stroke="#323232" stroke-linecap="round" stroke-linejoin="round" stroke-width="1.5" d="M15.67 21h-2"></path><path stroke="#323232" stroke-linecap="round" stroke-linejoin="round" stroke-width="1.5" d="M7 13v2.828"></path><path stroke="#323232" stroke-linecap="round" stroke-linejoin="round" stroke-width="1.5" d="M11 16.717v0c0-.490981-.398019-.889-.889-.889h-6.222 -3.88594e-08c-.490981 2.14615e-08-.889.398019-.889.889"></path><path stroke="#323232" stroke-linecap="round" stroke-linejoin="round" stroke-width="1.5" d="M10.111 21h-6.111 -4.37114e-08c-.552285-2.41411e-08-1-.447715-1-1 0 0 0-3.55271e-15 0-3.55271e-15v-4.556l-5.71971e-08.000451861c3.63266e-08-.24058.0485784-.478684.142823-.700036l.486-1.138 -6.91589e-09 1.61534e-08c.157624-.36816.519694-.606772.920177-.606416h4.9l1.06668e-08 5.74296e-12c.400196.000215523.761723.239005.919.607l.487 1.139 2.81579e-08 6.60881e-08c.0943005.221328.142939.459419.143.7v4.666l2.98289e-08-2.6946e-05c-.00053479.489811-.397163.886911-.886973.888027Z"></path><path stroke="#323232" stroke-linecap="round" stroke-linejoin="round" stroke-width="1.5" d="M17 2l4.77291e-07-5.00891e-07c-2.66768 2.79959-2.66768 7.20041-9.54581e-07 10l-2.03348e-08 2.13403e-08c2.66768-2.79959 2.66768-7.20041 5.32349e-07-10Z"></path><path stroke="#323232" stroke-linecap="round" stroke-linejoin="round" stroke-width="1.5" d="M17 12l-2.03348e-08 2.13403e-08c2.66768-2.79959 2.66768-7.20041 4.06695e-08-10"></path><path stroke="#323232" stroke-linecap="round" stroke-linejoin="round" stroke-width="1.5" d="M22 7v0c0 2.76142-2.23858 5-5 5 -2.76142 0-5-2.23858-5-5 0-2.76142 2.23858-5 5-5l-1.72394e-07 2.76497e-10c2.757-.00442192 4.99558 2.22699 5 4.98399 8.56092e-06.00533761 8.56111e-06.0106752 5.49928e-10.0160128Z"></path><path stroke="#323232" stroke-linecap="round" stroke-linejoin="round" stroke-width="1.5" d="M12 7h10"></path></g></svg>