<?xml version="1.0" encoding="UTF-8"?><svg version="1.1" viewBox="0 0 24 24" xmlns="http://www.w3.org/2000/svg" xmlns:xlink="http://www.w3.org/1999/xlink"><g fill="none"><path d="M0 0h24v24h-24Z"></path><path stroke="#323232" stroke-linecap="round" stroke-linejoin="round" stroke-width="1.5" d="M19.714 9.612v-5.612 0c0-.552285-.447715-1-1-1h-1.857l-4.37114e-08 8.88178e-16c-.552285 2.41411e-08-1 .447715-1 1 0 0 0 0 0 0v2.306"></path><path stroke="#323232" stroke-linecap="round" stroke-linejoin="round" stroke-width="1.5" d="M17.5 14v3.222"></path><path stroke="#323232" stroke-linecap="round" stroke-linejoin="round" stroke-width="1.5" d="M21 18v0c0-.429678-.348322-.778-.778-.778h-5.444 -3.40075e-08c-.429678 1.87818e-08-.778.348322-.778.778"></path><path stroke="#323232" stroke-linecap="round" stroke-linejoin="round" stroke-width="1.5" d="M15 21h5 -4.37114e-08c.552285 2.41411e-08 1-.447715 1-1v-3.565l4.68751e-08.000530949c0-.405224-.0819038-.806268-.240792-1.17904l-.278-.649 -8.0004e-09-1.87468e-08c-.157157-.368256-.51882-.607273-.919208-.607488h-4.124l5.1342e-08 2.36948e-11c-.400559-.000184872-.76258.23867-.92.607l-.277.648 -1.56109e-07 3.66076e-07c-.158954.372747-.240928.773776-.241 1.179v3.566l1.06581e-14 1.50996e-07c8.33927e-08.552285.447715 1 1 1Z"></path><path stroke="#323232" stroke-linecap="round" stroke-linejoin="round" stroke-width="1.5" d="M3 10.714l7.7-6.6 -1.6308e-07 1.39489e-07c.748448-.640176 1.85155-.640176 2.6-3.03292e-07l7.7 6.6"></path><path stroke="#323232" stroke-linecap="round" stroke-linejoin="round" stroke-width="1.5" d="M4.286 9.612v9.388l2.30926e-14 3.01992e-07c1.66785e-07 1.10457.895431 2 2 2h4.714"></path></g></svg>