<?xml version="1.0" encoding="UTF-8"?><svg version="1.1" viewBox="0 0 24 24" xmlns="http://www.w3.org/2000/svg" xmlns:xlink="http://www.w3.org/1999/xlink"><g fill="none"><path d="M0 0h24v24h-24Z"></path><path stroke="#323232" stroke-linecap="round" stroke-linejoin="round" stroke-width="1.5" d="M5 3l-8.74228e-08 1.77636e-15c-1.10457 4.82823e-08-2 .895431-2 2 0 0 0 8.88178e-16 0 8.88178e-16"></path><path stroke="#323232" stroke-linecap="round" stroke-linejoin="round" stroke-width="1.5" d="M3 8.33v2"></path><path stroke="#323232" stroke-linecap="round" stroke-linejoin="round" stroke-width="1.5" d="M8.33 3h2"></path><path stroke="#323232" stroke-linecap="round" stroke-linejoin="round" stroke-width="1.5" d="M19 21l-8.74228e-08-3.55271e-15c1.10457 4.82823e-08 2-.89543 2-2"></path><path stroke="#323232" stroke-linecap="round" stroke-linejoin="round" stroke-width="1.5" d="M21 15.67v-2"></path><path stroke="#323232" stroke-linecap="round" stroke-linejoin="round" stroke-width="1.5" d="M15.67 21h-2"></path><path stroke="#323232" stroke-linecap="round" stroke-linejoin="round" stroke-width="1.5" d="M14 4.355v4.645l1.06581e-14 1.50996e-07c8.33927e-08.552285.447715 1 1 1h5.053l-4.37114e-08-1.77636e-15c.552285 2.41411e-08 1-.447715 1-1v-4.645"></path><path stroke="#323232" stroke-linecap="round" stroke-linejoin="round" stroke-width="1.5" d="M13 5l4.592-3 4.408 3"></path><path stroke="#323232" stroke-linecap="round" stroke-linejoin="round" stroke-width="1.5" d="M7 13v3"></path><path stroke="#323232" stroke-linecap="round" stroke-linejoin="round" stroke-width="1.5" d="M11 16.889h-1.77636e-15c0-.490981-.398019-.889-.889-.889 0 0 0 0 0 0h-6.222 -3.88594e-08c-.490981 2.14615e-08-.889.398019-.889.889"></path><path stroke="#323232" stroke-linecap="round" stroke-linejoin="round" stroke-width="1.5" d="M4.143 21h5.714 -4.99621e-08c.631261 2.75933e-08 1.143-.511738 1.143-1.143v-4.074l6.03864e-08.000643905c0-.463355-.0937995-.921915-.275747-1.34805l-.317-.741 2.60453e-08 6.10676e-08c-.179645-.421208-.593335-.694545-1.05125-.694592h-4.713l-6.52696e-09 4.43556e-12c-.457604.000311068-.870998.273285-1.051.694l-.316.74 5.19272e-08-1.21555e-07c-.182028.426103-.275913.884645-.276 1.348v4.075l5.32907e-15-4.04064e-08c-9.53178e-08.631261.511738 1.143 1.143 1.143 4.39008e-08 7.10543e-15 8.82562e-08 1.06581e-14 1.32157e-07 1.42109e-14Z"></path></g></svg>