<?xml version="1.0" encoding="UTF-8"?><svg version="1.1" viewBox="0 0 24 24" xmlns="http://www.w3.org/2000/svg" xmlns:xlink="http://www.w3.org/1999/xlink"><g stroke-linecap="round" stroke-width="1.5" stroke="#323232" fill="none" stroke-linejoin="round"><path d="M12 7.5v2.5"></path><path d="M16.5 15.182v-3.5 0c0-.552285-.447715-1-1-1h-7l-4.37114e-08 1.77636e-15c-.552285 2.41411e-08-1 .447715-1 1 0 0 0 0 0 0v3.5"></path><path d="M15.5 16.5h-6.875 -4.91753e-08c-.62132-2.71588e-08-1.125-.50368-1.125-1.125v-5.126l-1.64132e-08 2.35658e-05c.000186581-.270169.0549452-.537516.160991-.786002l.547-1.28 -3.60456e-08 8.42356e-08c.177265-.414254.584421-.682944 1.03501-.683022h5.514l-2.05576e-09-9.76108e-13c.450296.000213839.857084.268914 1.034.683l.548 1.281 6.45696e-08 1.51295e-07c.106048.248485.16081.515831.161.786v5.25 7.10543e-15c0 .552285-.447715 1-1 1Z"></path><circle cx="12" cy="12" r="9"></circle></g><path fill="none" d="M0 0h24v24h-24Z"></path></svg>