<svg id="Layer_3" data-name="Layer 3" xmlns="http://www.w3.org/2000/svg" viewBox="0 0 24 24"><path d="M12,21a9,9,0,1,1,9-9" fill="none" stroke="#323232" stroke-linecap="round" stroke-linejoin="round" stroke-width="1.5"/><path d="M12,7.5v3" fill="none" stroke="#323232" stroke-linecap="round" stroke-linejoin="round" stroke-width="1.5"/><path d="M12,16.5H8.625A1.125,1.125,0,0,1,7.5,15.375V10.249a2.006,2.006,0,0,1,.161-.786l.547-1.28A1.126,1.126,0,0,1,9.243,7.5h5.514a1.125,1.125,0,0,1,1.034.683l.548,1.281a2.006,2.006,0,0,1,.161.786V12" fill="none" stroke="#323232" stroke-linecap="round" stroke-linejoin="round" stroke-width="1.5"/><path d="M20.38739,17.394l-1.76571.74212a.90341.90341,0,0,0-.48268.4825l-.74424,1.76912a1,1,0,0,1-1.88112-.10535L14.042,15.2837A1,1,0,0,1,15.28364,14.042l4.99856,1.47079A1,1,0,0,1,20.38739,17.394Z" fill="none" stroke="#323232" stroke-linecap="round" stroke-linejoin="round" stroke-width="1.5"/><path d="M16.5,12v-.5a1,1,0,0,0-1-1h-7a1,1,0,0,0-1,1V12" fill="none" stroke="#323232" stroke-linecap="round" stroke-linejoin="round" stroke-width="1.5"/><rect width="24" height="24" fill="none"/></svg>