<?xml version="1.0" encoding="UTF-8"?><svg version="1.1" viewBox="0 0 24 24" xmlns="http://www.w3.org/2000/svg" xmlns:xlink="http://www.w3.org/1999/xlink"><g fill="none"><path d="M0 0h24v24h-24Z"></path><circle cx="10.456" cy="10.384" r="2.483" stroke="#323232" stroke-linecap="round" stroke-linejoin="round" stroke-width="1.5"></circle><path stroke="#323232" stroke-linecap="round" stroke-linejoin="round" stroke-width="1.5" d="M17.889 10.924l-1.38834e-07 2.17125e-06c.262626-4.10724-2.85405-7.64971-6.96129-7.91234 -4.10724-.262626-7.64971 2.85405-7.91234 6.96129 -.136868 2.1405.655199 4.23618 2.17362 5.75105l5.267 5.276"></path><path stroke="#323232" stroke-linecap="round" stroke-linejoin="round" stroke-width="1.5" d="M17.5 14v3"></path><path stroke="#323232" stroke-linecap="round" stroke-linejoin="round" stroke-width="1.5" d="M21 17.778h-3.55271e-15c0-.429678-.348322-.778-.778-.778 0 0 0 0 0 0h-5.444 -3.40075e-08c-.429678 1.87818e-08-.778.348322-.778.778"></path><path stroke="#323232" stroke-linecap="round" stroke-linejoin="round" stroke-width="1.5" d="M15 21h5 -4.37114e-08c.552285 2.41411e-08 1-.447715 1-1v-3.565l4.68751e-08.000530949c0-.405224-.0819038-.806268-.240792-1.17904l-.278-.649 -8.0004e-09-1.87468e-08c-.157157-.368256-.51882-.607273-.919208-.607488h-4.124l5.1342e-08 2.36948e-11c-.400559-.000184872-.76258.23867-.92.607l-.277.648 -1.56109e-07 3.66076e-07c-.158954.372747-.240928.773776-.241 1.179v3.566l1.06581e-14 1.50996e-07c8.33927e-08.552285.447715 1 1 1Z"></path></g></svg>