<?xml version="1.0" encoding="UTF-8"?><svg version="1.1" viewBox="0 0 24 24" xmlns="http://www.w3.org/2000/svg" xmlns:xlink="http://www.w3.org/1999/xlink"><g stroke-linecap="round" stroke-width="1.5" stroke="#323232" fill="none" stroke-linejoin="round"><path d="M3 12v-3.86l-2.85108e-08 7.85634e-05c.000104981-.303957.0620156-.604719.181969-.884006l1.235-2.89 -8.63264e-08 2.01909e-07c.354169-.828367 1.16813-1.36578 2.06903-1.36607h11.029l8.89794e-08 5.48663e-11c.900796.000555454 1.7146.537848 2.069 1.366l1.235 2.89 5.08413e-08 1.19122e-07c.119275.279463.18084.580148.181.884v10.61h-3.55271e-15c0 1.24264-1.00736 2.25-2.25 2.25 0 0-6.79883e-11 0-6.79883e-11 0h-3.75"></path><path d="M5.5 16.685l1.846-3.021 4.44064e-08-7.22244e-08c.390508-.635138 1.22196-.833449 1.8571-.442942 .397373.244321.64046.676475.642905 1.14294v1.595h1.51l-7.22938e-08-3.37899e-11c.453794.000212092.877308.227738 1.128.606l-2.51881e-08-3.78632e-08c.223101.335368.287805.751743.177 1.139l-.732 2.562 6.72804e-09-2.34491e-08c-.123914.431874-.518701.729596-.968.73h-3.579l5.1334e-08-6.07479e-11c-.292113.000345671-.575136-.101543-.8-.288l-1.082-.9"></path><path d="M5 21h-1.5 -2.18557e-08c-.276142-1.20706e-08-.5-.223858-.5-.5 0 0 0 0 0 0v-4.5l5.77316e-15 7.54979e-08c-4.16963e-08-.276142.223858-.5.5-.5h1.5l-2.18557e-08 1.77636e-15c.276142-1.20706e-08.5.223858.5.5 0 0 0 1.77636e-15 0 1.77636e-15v4.5l8.88178e-16 2.18557e-08c0 .276142-.223858.5-.5.5 -6.77306e-09 0-1.50826e-08 0-2.18557e-08 0Z"></path><path d="M12 8v-5"></path><path d="M16 17h1"></path><path d="M3 12v-2l2.30926e-14 3.01992e-07c-1.66785e-07-1.10457.89543-2 2-2h14l-8.74228e-08 1.77636e-15c1.10457-4.82823e-08 2 .89543 2 2v7"></path></g><path fill="none" d="M24 24h-24v-24h24Z"></path></svg>