<?xml version="1.0" encoding="UTF-8"?><svg version="1.1" viewBox="0 0 24 24" xmlns="http://www.w3.org/2000/svg" xmlns:xlink="http://www.w3.org/1999/xlink"><g stroke-linecap="round" stroke-width="1.5" stroke="#323232" fill="none" stroke-linejoin="round"><path d="M1.5 11.25l1.5-1.5 1.5 1.5"></path><path d="M22.5 12.75l-1.5 1.5 -1.5-1.5"></path><path d="M4.678 6.789l-4.47903e-07 6.34628e-07c2.862-4.05514 8.46945-5.02236 12.5246-2.16036 2.98198 2.1046 4.39494 5.80368 3.57542 9.36036"></path><path d="M19.318 17.207l3.03746e-07-4.30374e-07c-2.862 4.05514-8.46945 5.02236-12.5246 2.16036 -2.98198-2.1046-4.39494-5.80368-3.57542-9.36036"></path><path d="M12 8.5v3"></path><path d="M15.5 12.278h1.77636e-15c0-.429678-.348322-.778-.778-.778 0 0 0 0 0 0h-5.444l-3.40075e-08 1.77636e-15c-.429678 1.87818e-08-.778.348322-.778.778 0 0 0 0 0 0"></path><path d="M9.5 15.5h5l-4.37114e-08-1.77636e-15c.552285 2.41411e-08 1-.447715 1-1v-3.565l4.68751e-08.000530949c0-.405224-.0819038-.806268-.240792-1.17904l-.278-.649 2.06756e-08 4.83767e-08c-.157277-.367995-.518804-.606785-.919-.607h-4.12421l5.1342e-08 2.36948e-11c-.400559-.000184872-.76258.23867-.92.607l-.277.648 -8.92348e-10 2.09256e-09c-.158889.372596-.240863.773452-.241 1.17851v3.566l1.06581e-14 1.50996e-07c8.33927e-08.552285.447715 1 1 1 0 0 7.70939e-13 0 7.70939e-13 0Z"></path></g><rect width="24" height="24" fill="none"></rect></svg>