<?xml version="1.0" encoding="UTF-8"?><svg version="1.1" viewBox="0 0 24 24" xmlns="http://www.w3.org/2000/svg" xmlns:xlink="http://www.w3.org/1999/xlink"><g fill="none"><path d="M0 0h24v24h-24Z"></path><path stroke="#323232" stroke-linecap="round" stroke-linejoin="round" stroke-width="1.5" d="M4.875 3v3l1.06581e-14 1.50996e-07c8.33927e-08.552285.447715 1 1 1h12l-4.37114e-08-8.88178e-16c.552285 2.41411e-08 1-.447715 1-1v-3"></path><path stroke="#323232" stroke-linecap="round" stroke-linejoin="round" stroke-width="1.5" d="M18.875 21v-3 0c0-.552285-.447715-1-1-1h-12 -4.37114e-08c-.552285 2.41411e-08-1 .447715-1 1 0 0 0 3.55271e-15 0 3.55271e-15v3"></path><path stroke="#323232" stroke-linecap="round" stroke-linejoin="round" stroke-width="1.5" d="M2 10.536v2.928l1.11022e-14-1.50996e-07c-8.33927e-08.552285.447715 1 1 1 .21637 3.2671e-08.426904-.0701778.6-.2l1.952-1.464 5.57032e-08-4.17774e-08c.441828-.331371.531371-.958172.2-1.4 -.0568543-.0758057-.124194-.143146-.2-.2l-1.952-1.464 5.57032e-08 4.17774e-08c-.441828-.331371-1.06863-.241828-1.4.2 -.129822.173096-.2.38363-.2.6Z"></path><path stroke="#323232" stroke-linecap="round" stroke-linejoin="round" stroke-width="1.5" d="M22 13.464v-2.928 -1.77636e-15c0-.552285-.447715-1-1-1 -.21637 0-.426904.0701779-.6.2l-1.952 1.464 -7.79577e-08 5.84683e-08c-.441828.331371-.531371.958172-.2 1.4 .0568543.0758057.124194.143146.2.2l1.952 1.464 -7.79577e-08-5.84683e-08c.441828.331371 1.06863.241828 1.4-.2 .129822-.173096.2-.38363.2-.6Z"></path></g></svg>