<?xml version="1.0" encoding="UTF-8"?><svg version="1.1" viewBox="0 0 24 24" xmlns="http://www.w3.org/2000/svg" xmlns:xlink="http://www.w3.org/1999/xlink"><!--Generated by IJSVG (https://github.com/iconjar/IJSVG)--><g fill="none"><path d="M0,0h24v24h-24Z"></path><path stroke="#323232" stroke-linecap="round" stroke-linejoin="round" stroke-width="1.5" d="M6.374,17.25c-0.207,0.001 -0.374,0.169 -0.374,0.376c0,0.207 0.168,0.374 0.375,0.374c0.207,0 0.375,-0.168 0.375,-0.375c0,-0.207 -0.168,-0.375 -0.376,-0.375"></path><path stroke="#323232" stroke-linecap="round" stroke-linejoin="round" stroke-width="1.5" d="M6.5,21v0c-1.933,0 -3.5,-1.567 -3.5,-3.5v-12.5c0,-1.105 0.895,-2 2,-2h3c1.105,0 2,0.895 2,2v12.5c0,1.933 -1.567,3.5 -3.5,3.5Z"></path><path stroke="#323232" stroke-linecap="round" stroke-linejoin="round" stroke-width="1.5" d="M8.975,19.975l9.711,-9.711c0.781,-0.781 0.781,-2.047 0,-2.828l-2.121,-2.121c-0.781,-0.781 -2.047,-0.781 -2.828,0l-3.737,3.735"></path><path stroke="#323232" stroke-linecap="round" stroke-linejoin="round" stroke-width="1.5" d="M14.95,14h4.05c1.105,0 2,0.895 2,2v3c0,1.105 -0.895,2 -2,2h-12.5"></path></g></svg>