<?xml version="1.0" encoding="UTF-8"?><svg version="1.1" viewBox="0 0 24 24" xmlns="http://www.w3.org/2000/svg" xmlns:xlink="http://www.w3.org/1999/xlink"><g fill="none"><path d="M24 24h-24v-24h24v24Z"></path><path stroke="#323232" stroke-linecap="round" stroke-linejoin="round" stroke-width="1.5" d="M20.667 20.125h-17.334"></path><path stroke="#323232" stroke-linecap="round" stroke-linejoin="round" stroke-width="1.5" d="M20.667 14.708h-17.334"></path><path stroke="#323232" stroke-linecap="round" stroke-linejoin="round" stroke-width="1.5" d="M20.667 9.292h-4.333"></path><path stroke="#323232" stroke-linecap="round" stroke-linejoin="round" stroke-width="1.5" d="M20.667 3.875h-4.333"></path><path stroke="#323232" stroke-linecap="round" stroke-linejoin="round" stroke-width="1.5" d="M9.292 6.042h2.708c.299 0 .542.243.542.542v2.166c0 .299-.243.542-.542.542h-2.167c-.299 0-.542-.243-.542-.542v-2.708"></path><path stroke="#323232" stroke-linecap="round" stroke-linejoin="round" stroke-width="1.5" d="M9.292 6.042c0-2.167.406-2.527 1.625-3.25"></path><path stroke="#323232" stroke-linecap="round" stroke-linejoin="round" stroke-width="1.5" d="M3.333 6.042h2.708c.299 0 .542.243.542.542v2.166c0 .299-.243.542-.542.542h-2.166c-.299 0-.542-.243-.542-.542v-2.708"></path><path stroke="#323232" stroke-linecap="round" stroke-linejoin="round" stroke-width="1.5" d="M3.333 6.042c0-2.167.406-2.527 1.625-3.25"></path></g></svg>