<?xml version="1.0" encoding="UTF-8"?><svg version="1.1" viewBox="0 0 24 24" xmlns="http://www.w3.org/2000/svg" xmlns:xlink="http://www.w3.org/1999/xlink"><g fill="none"><path d="M0 0h24v24h-24v-24Z"></path><path stroke="#323232" stroke-linecap="round" stroke-linejoin="round" stroke-width="1.5" d="M3.333 3.875h17.333"></path><path stroke="#323232" stroke-linecap="round" stroke-linejoin="round" stroke-width="1.5" d="M3.333 9.292h17.333"></path><path stroke="#323232" stroke-linecap="round" stroke-linejoin="round" stroke-width="1.5" d="M3.333 14.708h4.333"></path><path stroke="#323232" stroke-linecap="round" stroke-linejoin="round" stroke-width="1.5" d="M3.333 20.125h4.333"></path><path stroke="#323232" stroke-linecap="round" stroke-linejoin="round" stroke-width="1.5" d="M17.417 16.875h2.708c.299 0 .542.243.542.542v2.167c0 .299-.243.542-.542.542h-2.167c-.299 0-.542-.243-.542-.542v-2.709"></path><path stroke="#323232" stroke-linecap="round" stroke-linejoin="round" stroke-width="1.5" d="M17.417 16.875c0-2.167.406-2.527 1.625-3.25"></path><path stroke="#323232" stroke-linecap="round" stroke-linejoin="round" stroke-width="1.5" d="M11.458 16.875h2.708c.299 0 .542.243.542.542v2.167c0 .299-.243.542-.542.542h-2.166c-.299 0-.542-.243-.542-.542v-2.709"></path><path stroke="#323232" stroke-linecap="round" stroke-linejoin="round" stroke-width="1.5" d="M11.458 16.875c0-2.167.406-2.527 1.625-3.25"></path></g></svg>