<svg id="Layer_3" data-name="Layer 3" xmlns="http://www.w3.org/2000/svg" viewBox="0 0 24 24"><rect x="4" y="3" width="16" height="18" rx="2" stroke-width="1.5" stroke="#323232" stroke-linecap="round" stroke-linejoin="round" fill="none"/><path d="M8.5,10.8872V8.90388a1.16665,1.16665,0,0,1,.77116-1.09783l1.77917-.6405a2.79986,2.79986,0,0,1,1.897,0l1.7815.64166A1.16668,1.16668,0,0,1,15.5,8.90388V10.8872c0,1.48516-2.07784,2.58416-3.03334,3.01233a1.134,1.134,0,0,1-.93333,0C10.57785,13.47136,8.5,12.37,8.5,10.8872Z" fill="none" stroke="#323232" stroke-linecap="round" stroke-linejoin="round" stroke-width="1.5"/><polyline points="11 10.25 11.8 11.05 13 9.85" fill="none" stroke="#323232" stroke-linecap="round" stroke-linejoin="round" stroke-width="1.5"/><line x1="16" y1="17" x2="8" y2="17" fill="none" stroke="#323232" stroke-linecap="round" stroke-linejoin="round" stroke-width="1.5"/><path d="M0,0H24V24H0Z" fill="none"/></svg>