<svg id="Layer_3" data-name="Layer 3" xmlns="http://www.w3.org/2000/svg" viewBox="0 0 24 24"><path d="M16.8231,16.17648a.25005.25005,0,1,1,.3538,0,.25018.25018,0,0,1-.3538,0" fill="none" stroke="#323232" stroke-linecap="round" stroke-linejoin="round" stroke-width="1.5"/><path d="M11.8231,16.17648a.25005.25005,0,1,1,.3538,0,.25018.25018,0,0,1-.3538,0" fill="none" stroke="#323232" stroke-linecap="round" stroke-linejoin="round" stroke-width="1.5"/><path d="M6.8231,16.17648a.25005.25005,0,1,1,.3538,0,.25018.25018,0,0,1-.3538,0" fill="none" stroke="#323232" stroke-linecap="round" stroke-linejoin="round" stroke-width="1.5"/><path d="M12,11h7a1.99945,1.99945,0,0,1,2,2v6a1.99945,1.99945,0,0,1-2,2H5a1.99945,1.99945,0,0,1-2-2V15" fill="none" stroke="#323232" stroke-linecap="round" stroke-linejoin="round" stroke-width="1.5"/><path d="M9.72941,3.293a1,1,0,0,1,1.41432-.00013l1.56338,1.56338A1,1,0,0,1,12.707,6.27058L7.26812,11.70723A1,1,0,0,1,6.56114,12H4.5a.5.5,0,0,1-.5-.5V9.43909a1,1,0,0,1,.29276-.707Z" fill="none" stroke="#323232" stroke-linecap="round" stroke-linejoin="round" stroke-width="1.5"/><path d="M0,0H24V24H0Z" fill="none"/></svg>