<?xml version="1.0" encoding="UTF-8"?><svg version="1.1" viewBox="0 0 24 24" xmlns="http://www.w3.org/2000/svg" xmlns:xlink="http://www.w3.org/1999/xlink"><g stroke-linecap="round" stroke-width="1.5" stroke="#323232" fill="none" stroke-linejoin="round"><path d="M7.849 11.735c.146.146.146.384 0 .53 -.146.146-.384.146-.53 0 -.146-.146-.146-.384 0-.53 .146-.147.383-.147.53 0"></path><path d="M12.265 11.735c.146.146.146.384 0 .53 -.146.146-.384.146-.53 0 -.146-.146-.146-.384 0-.53 .146-.147.384-.147.53 0"></path><path d="M16 14.5v-5"></path><path d="M16 21h-8c-2.761 0-5-2.239-5-5v-8c0-2.761 2.239-5 5-5h8c2.761 0 5 2.239 5 5v8c0 2.761-2.239 5-5 5Z"></path></g><path fill="none" d="M0 0h24v24h-24v-24Z"></path></svg>