<svg id="Layer_3" data-name="Layer 3" xmlns="http://www.w3.org/2000/svg" viewBox="0 0 24 24"><path d="M0,0H24V24H0Z" fill="none"/><path d="M9,14H6a3,3,0,0,1-3-3V6A3,3,0,0,1,6,3H18a3,3,0,0,1,3,3v4" fill="none" stroke="#323232" stroke-linecap="round" stroke-linejoin="round" stroke-width="1.5"/><path d="M15,15.99976l-.58547-.58549a1.41435,1.41435,0,0,0-2.00022,0h0a1.41435,1.41435,0,0,0-.17677,1.78455l1.94,2.91047A2.00007,2.00007,0,0,0,15.84179,21h3.79608a2,2,0,0,0,1.98455-1.752l.36195-2.89685a2,2,0,0,0-1.66266-2.22186L18,13.75067V11.5A1.5,1.5,0,0,0,16.5,10h0A1.5,1.5,0,0,0,15,11.5Z" fill="none" stroke="#323232" stroke-linecap="round" stroke-linejoin="round" stroke-width="1.5"/><path d="M10.01033,8.46462a.05.05,0,1,1-.07071,0l0,0a.05.05,0,0,1,.07066,0" fill="none" stroke="#323232" stroke-linecap="round" stroke-linejoin="round" stroke-width="1.5"/><path d="M13.01033,8.46462a.05.05,0,1,1-.07071,0l0,0a.05.05,0,0,1,.07066,0" fill="none" stroke="#323232" stroke-linecap="round" stroke-linejoin="round" stroke-width="1.5"/><path d="M7.01033,8.46462a.05.05,0,1,1-.07071,0l0,0a.05.05,0,0,1,.07066,0" fill="none" stroke="#323232" stroke-linecap="round" stroke-linejoin="round" stroke-width="1.5"/></svg>