<?xml version="1.0" encoding="UTF-8"?><svg version="1.1" viewBox="0 0 24 24" xmlns="http://www.w3.org/2000/svg" xmlns:xlink="http://www.w3.org/1999/xlink"><g fill="none"><path d="M0 0h24v24h-24Z"></path><path stroke="#323232" stroke-linecap="round" stroke-linejoin="round" stroke-width="1.5" d="M4.575 19.896l-.471-.471c-1.562-1.562-1.562-4.095 0-5.657l9.664-9.664c1.562-1.562 4.095-1.562 5.657 0l.471.471c1.562 1.562 1.562 4.095 0 5.657l-9.664 9.664c-1.562 1.562-4.095 1.562-5.657 0Z"></path><path stroke="#323232" stroke-linecap="round" stroke-linejoin="round" stroke-width="1.5" d="M12 5.87l6.13 6.13"></path><path stroke="#323232" stroke-linecap="round" stroke-linejoin="round" stroke-width="1.5" d="M10.088 11.912c-.049-.049-.128-.049-.176 0 -.049.049-.049.128 0 .177 .049.049.128.049.177 0 .048-.049.048-.128-.001-.177"></path><path stroke="#323232" stroke-linecap="round" stroke-linejoin="round" stroke-width="1.5" d="M12.088 13.912c-.049-.049-.128-.049-.176 0 -.049.049-.049.128 0 .177 .049.049.128.049.177 0 .048-.049.048-.128-.001-.177"></path><path stroke="#323232" stroke-linecap="round" stroke-linejoin="round" stroke-width="1.5" d="M12.088 9.912c-.049-.049-.128-.049-.176 0 -.049.049-.049.128 0 .177 .049.049.128.049.177 0 .048-.049.048-.128-.001-.177"></path><path stroke="#323232" stroke-linecap="round" stroke-linejoin="round" stroke-width="1.5" d="M14.088 11.912c-.049-.049-.128-.049-.176 0 -.049.049-.049.128 0 .177 .049.049.128.049.177 0 .048-.049.048-.128-.001-.177"></path><path stroke="#323232" stroke-linecap="round" stroke-linejoin="round" stroke-width="1.5" d="M12 18.13l-6.13-6.13"></path></g></svg>