<svg id="Layer_3" data-name="Layer 3" xmlns="http://www.w3.org/2000/svg" viewBox="0 0 24 24"><path d="M0,0,0,24l24,0L24,0Z" fill="none"/><path d="M14,14H10a2,2,0,0,0-2,2H8" fill="none" stroke="#323232" stroke-linecap="round" stroke-linejoin="round" stroke-width="1.5"/><circle cx="12.00003" cy="9.24999" r="2.25" fill="none" stroke="#323232" stroke-linecap="round" stroke-linejoin="round" stroke-width="1.5"/><path d="M12,7a2.25,2.25,0,0,1,0,4.5" fill="none" stroke="#323232" stroke-linecap="round" stroke-linejoin="round" stroke-width="1.5"/><path d="M19.1759,20.71157a1.32308,1.32308,0,0,1-.93517.3873h0a1.3231,1.3231,0,0,1-.93517-.3873l-1.51983-1.51983a1.72857,1.72857,0,0,1-.1837-2.2902,1.66351,1.66351,0,0,1,2.46628-.13135l.00463.00463.16779.16779.10294-.10294a1.72858,1.72858,0,0,1,2.2902-.1837,1.66352,1.66352,0,0,1,.13134,2.46629l-.00463.00463Z" fill="none" stroke="#323232" stroke-linecap="round" stroke-linejoin="round" stroke-width="1.5"/><path d="M21.27573,14a9.52154,9.52154,0,1,0-7.1646,7.25647" fill="none" stroke="#323232" stroke-linecap="round" stroke-linejoin="round" stroke-width="1.5"/></svg>