<?xml version="1.0" encoding="UTF-8"?><svg version="1.1" viewBox="0 0 24 24" xmlns="http://www.w3.org/2000/svg" xmlns:xlink="http://www.w3.org/1999/xlink"><g fill="none"><path d="M24 24h-24v-24h24v24Z"></path><path stroke="#323232" stroke-linecap="round" stroke-linejoin="round" stroke-width="1.5" d="M10.293 16.707l6.414-6.414c.391-.391.391-1.024 0-1.414l-1.586-1.586c-.391-.391-1.024-.391-1.414 0l-6.414 6.414c-.188.188-.293.442-.293.707v2.586h2.586c.265 0 .519-.105.707-.293Z"></path><path stroke="#323232" stroke-linecap="round" stroke-linejoin="round" stroke-width="1.5" d="M14 17h3"></path><path stroke="#323232" stroke-linecap="round" stroke-linejoin="round" stroke-width="1.5" d="M3 18v-12c0-1.657 1.343-3 3-3h12c1.657 0 3 1.343 3 3v12c0 1.657-1.343 3-3 3h-12c-1.657 0-3-1.343-3-3Z"></path></g></svg>