<?xml version="1.0" encoding="UTF-8"?><svg version="1.1" viewBox="0 0 24 24" xmlns="http://www.w3.org/2000/svg" xmlns:xlink="http://www.w3.org/1999/xlink"><g stroke-linecap="round" stroke-width="1.5" stroke="#323232" fill="none" stroke-linejoin="round"><line x1="14.4" x2="12.04" y1="11.96" y2="9.6"></line><path d="M8.223 16.51l1.663-.333 1.33822e-07-2.65804e-08c.241258-.04792.462915-.16623.637-.34l5.534-5.537 3.64406e-08-3.63941e-08c.65142-.650588.652094-1.70607.0015064-2.35749 -.000501837-.000502478-.00100399-.00100464-.00150647-.00150647v0l5.2542e-08 5.26092e-08c-.650588-.65142-1.70607-.652094-2.35749-.00150658 -.000502478.000501837-.00100464.00100399-.00150647.00150647l-5.535 5.536 1.01737e-07-1.01922e-07c-.17377.174085-.29208.395742-.34.637l-.333 1.663 -2.12592e-08 1.06389e-07c-.0674216.337403.151442.665578.488845.733 .0805886.0161036.163567.0161036.244155-4.85763e-08Z"></path><path d="M18.364 5.636l-3.84004e-08-3.84008e-08c3.5147 3.51474 3.51466 9.21322-7.78621e-05 12.7279 -3.51474 3.5147-9.21322 3.51466-12.7279-7.78621e-05 -3.51467-3.51471-3.51467-9.21313-7.68007e-08-12.7278l-5.17951e-07 5.17958e-07c3.5147-3.51474 9.21318-3.51478 12.7279-7.89748e-05 2.59798e-05 2.59794e-05 5.19595e-05 5.19591e-05 7.79389e-05 7.79389e-05"></path></g><path fill="none" d="M0 0h24v24h-24Z"></path></svg>