<svg id="Layer_3" data-name="Layer 3" xmlns="http://www.w3.org/2000/svg" viewBox="0 0 24 24"><path d="M11.44293,10.17109l2.38876,2.38876" fill="none" stroke="#323232" stroke-linecap="round" stroke-linejoin="round" stroke-width="1.5"/><path d="M15.35522,11.03591l.78928.78929h0a1.21556,1.21556,0,0,1,0,1.718L15.055,14.6327" fill="none" stroke="#323232" stroke-linecap="round" stroke-linejoin="round" stroke-width="1.5"/><path d="M13.61285,7.99566l-5.308,5.31112A2.75,2.75,0,0,0,7.5,15.25074V16.25a.25.25,0,0,0,.25.25h.99929a2.75,2.75,0,0,0,1.944-.80489l5.3111-5.308a1.69106,1.69106,0,0,0,.00036-2.39184h0A1.691,1.691,0,0,0,13.61285,7.99566Z" fill="none" stroke="#323232" stroke-linecap="round" stroke-linejoin="round" stroke-width="1.5"/><rect x="3" y="3.00001" width="18" height="18" rx="5" stroke-width="1.5" stroke="#323232" stroke-linecap="round" stroke-linejoin="round" fill="none"/><rect y="0.00001" width="24" height="24" fill="none"/></svg>