<?xml version="1.0" encoding="UTF-8"?><svg version="1.1" viewBox="0 0 24 24" xmlns="http://www.w3.org/2000/svg" xmlns:xlink="http://www.w3.org/1999/xlink"><g stroke-linecap="round" stroke-width="1.5" stroke="#323232" fill="none" stroke-linejoin="round"><line x1="14" x2="15.5" y1="16.5" y2="16.5"></line><circle cx="12" cy="12" r="9"></circle><path d="M12.8786 8.12117l-3.782 3.78219 9.30802e-08-9.30837e-08c-.512601.51262-.87625 1.15491-1.05207 1.85821l-.52918 2.11671 -1.40807e-09 5.63247e-09c-.0669721.267898.0959105.539364.363809.606336 .0796255.0199057.162927.0199036.242551-6.00701e-06l2.11662-.52923 1.78133e-07-4.45399e-08c.703278-.175846 1.34555-.539508 1.85815-1.05211l3.78209-3.7821 1.30212e-07-1.30205e-07c.828433-.828383.828549-2.17147.00025974-3v0l1.25043e-07 1.24983e-07c-.828609-.828205-2.17162-.828205-3.00023 5.28519e-07Z"></path></g><rect width="24" height="24" fill="none"></rect></svg>