<svg id="Layer_3" data-name="Layer 3" xmlns="http://www.w3.org/2000/svg" viewBox="0 0 24 24"><line x1="7.75736" y1="16.24264" x2="8.46447" y2="15.53554" fill="none" stroke="#323232" stroke-linecap="round" stroke-linejoin="round" stroke-width="1.5"/><line x1="12.00001" y1="18" x2="12.00001" y2="17" fill="none" stroke="#323232" stroke-linecap="round" stroke-linejoin="round" stroke-width="1.5"/><line x1="6" y1="12.00001" x2="7" y2="12.00001" fill="none" stroke="#323232" stroke-linecap="round" stroke-linejoin="round" stroke-width="1.5"/><line x1="16.24265" y1="16.24263" x2="15.53554" y2="15.53553" fill="none" stroke="#323232" stroke-linecap="round" stroke-linejoin="round" stroke-width="1.5"/><line x1="8.46446" y1="8.46447" x2="7.75735" y2="7.75737" fill="none" stroke="#323232" stroke-linecap="round" stroke-linejoin="round" stroke-width="1.5"/><rect x="3" y="3" width="18" height="18" rx="5" transform="translate(0 24) rotate(-90.00001)" stroke-width="1.5" stroke="#323232" stroke-linecap="round" stroke-linejoin="round" fill="none"/><path d="M14.59472,6,12.23479,8.35994a2.40783,2.40783,0,0,0-.6585,1.23041l-.56667,2.83336a.48158.48158,0,0,0,.56667.56667l2.83336-.56667a2.4079,2.4079,0,0,0,1.23041-.6585L18,9.40527" fill="none" stroke="#323232" stroke-linecap="round" stroke-linejoin="round" stroke-width="1.5"/><path d="M24,0V24H0V0Z" fill="none"/></svg>