<svg id="Layer_3" data-name="Layer 3" xmlns="http://www.w3.org/2000/svg" viewBox="0 0 24 24"><path d="M0,24H24V0H0Z" fill="none"/><rect x="3" y="2.99999" width="18" height="18" rx="5" transform="translate(24 23.99998) rotate(180)" stroke-width="1.5" stroke="#323232" stroke-linecap="round" stroke-linejoin="round" fill="none"/><line x1="17.06833" y1="15.99999" x2="7.06833" y2="15.99999" fill="none" stroke="#323232" stroke-linecap="round" stroke-linejoin="round" stroke-width="1.5"/><line x1="17" y1="11.99999" x2="15" y2="11.99999" fill="none" stroke="#323232" stroke-linecap="round" stroke-linejoin="round" stroke-width="1.5"/><line x1="17" y1="7.99999" x2="14" y2="7.99999" fill="none" stroke="#323232" stroke-linecap="round" stroke-linejoin="round" stroke-width="1.5"/><path d="M7.29288,9.22131l.92842-.92842a.99963.99963,0,0,1,1.414.00016l2.07177,2.07177A1,1,0,0,1,12,11.07193V12.75a.25.25,0,0,1-.25.25H10.07192a1,1,0,0,1-.70711-.29289L7.293,10.63533A.99963.99963,0,0,1,7.29288,9.22131Z" fill="none" stroke="#323232" stroke-linecap="round" stroke-linejoin="round" stroke-width="1.5"/></svg>