<?xml version="1.0" encoding="UTF-8"?><svg version="1.1" viewBox="0 0 24 24" xmlns="http://www.w3.org/2000/svg" xmlns:xlink="http://www.w3.org/1999/xlink"><g stroke-linecap="round" stroke-width="1.5" stroke="#323232" fill="none" stroke-linejoin="round"><path d="M20.63 5.257l-.888-.887c-.391-.391-1.024-.391-1.414 0l-7.328 7.328v2.302h2.302l7.328-7.328c.39-.391.39-1.024 0-1.415Z"></path><path d="M20.767 11c.662 2.915-.133 6.094-2.403 8.364"></path><path d="M14 4.233c-2.915-.662-6.094.133-8.364 2.403 -3.515 3.515-3.515 9.213 0 12.728"></path><path d="M3.5 20h3v-3"></path></g><path fill="none" d="M5.636 19.364c.228.227.465.438.709.636"></path><path d="M16.85 5.85l2.3 2.3" stroke-linecap="round" stroke-width="1.5" stroke="#323232" fill="none" stroke-linejoin="round"></path><path fill="none" d="M0 0h24v24h-24v-24Z"></path></svg>