<?xml version="1.0" encoding="UTF-8"?><svg version="1.1" viewBox="0 0 24 24" xmlns="http://www.w3.org/2000/svg" xmlns:xlink="http://www.w3.org/1999/xlink"><g stroke-linecap="round" stroke-width="1.5" stroke="#323232" fill="none" stroke-linejoin="round"><path d="M8 21l3.15-.389 6.84205e-09-8.38487e-10c.221321-.0271226.427228-.127436.585-.285l8.631-8.626 -4.80641e-09 4.80884e-09c.84497-.845397.84497-2.2156 9.61283e-09-3.061v0l2.91457e-08 2.9131e-08c-.845397-.84497-2.2156-.84497-3.061-5.82621e-08l-8.56 8.56 -8.88156e-08 8.87827e-08c-.153115.153058-.252422.351673-.283.566Z"></path><line x1="3" x2="16" y1="4" y2="4"></line><line x1="3" x2="12" y1="8" y2="8"></line><line x1="3" x2="8" y1="12" y2="12"></line></g><rect width="24" height="24" fill="none"></rect></svg>