<?xml version="1.0" encoding="UTF-8"?><svg version="1.1" viewBox="0 0 24 24" xmlns="http://www.w3.org/2000/svg" xmlns:xlink="http://www.w3.org/1999/xlink"><g fill="none"><path d="M0 0h24v24h-24v-24Z"></path><path stroke="#323232" stroke-linecap="round" stroke-linejoin="round" stroke-width="1.5" d="M11.159 15.427h-2.586v-2.586c0-.265.105-.52.293-.707l4-4c.391-.391 1.024-.391 1.414 0l1.586 1.586c.391.391.391 1.024 0 1.414l-4 4c-.187.187-.442.293-.707.293Z"></path><path stroke="#323232" stroke-linecap="round" stroke-linejoin="round" stroke-width="1.5" d="M14 21h-4c-3.866 0-7-3.134-7-7v-4c0-3.866 3.134-7 7-7h4c3.866 0 7 3.134 7 7v4c0 3.866-3.134 7-7 7Z"></path></g></svg>