<?xml version="1.0" encoding="UTF-8"?><svg version="1.1" viewBox="0 0 24 24" xmlns="http://www.w3.org/2000/svg" xmlns:xlink="http://www.w3.org/1999/xlink"><!--Generated by IJSVG (https://github.com/iconjar/IJSVG)--><g stroke-linecap="round" stroke-width="1.5" stroke="#323232" fill="none" stroke-linejoin="round"><path d="M9.613,18v3h4.774v-3l1.582,-3.208l-3.969,-5.792l-3.969,5.792Z"></path><path d="M13.019,5.393h-2c-0.276,0 -0.5,-0.224 -0.5,-0.5v-2c0,-0.276 0.224,-0.5 0.5,-0.5h2c0.276,0 0.5,0.224 0.5,0.5v2c0,0.276 -0.224,0.5 -0.5,0.5Z"></path><path d="M2.766,14.563h2c0.276,0 0.5,-0.224 0.5,-0.5v-2c0,-0.276 -0.224,-0.5 -0.5,-0.5h-2c-0.276,0 -0.5,0.224 -0.5,0.5v2c0,0.276 0.224,0.5 0.5,0.5Z"></path><path d="M21.231,14.563h-2c-0.276,0 -0.5,-0.224 -0.5,-0.5v-2c0,-0.276 0.224,-0.5 0.5,-0.5h2c0.276,0 0.5,0.224 0.5,0.5v2c0,0.276 -0.224,0.5 -0.5,0.5Z"></path><path d="M10.519,3.95c-3.813,0.445 -6.773,3.681 -6.773,7.613"></path><path d="M20.251,11.563c0,-3.918 -2.94,-7.144 -6.732,-7.607"></path><path d="M9.61,18h4.78"></path><path d="M12,15v-6"></path></g><path fill="none" d="M0,0h24v24h-24Z"></path></svg>