<?xml version="1.0" encoding="UTF-8"?><svg version="1.1" viewBox="0 0 24 24" xmlns="http://www.w3.org/2000/svg" xmlns:xlink="http://www.w3.org/1999/xlink"><g fill="none"><rect width="24" height="24"></rect><path stroke="#323232" stroke-linecap="round" stroke-linejoin="round" stroke-width="1.5" d="M5.636 18.364c1.629 1.629 3.879 2.636 6.364 2.636 4.971 0 9-4.029 9-9v0c0-4.971-4.029-9-9-9v0c-4.971 0-9 4.029-9 9"></path><line x1="11" x2="14" y1="10" y2="13" stroke="#323232" stroke-linecap="round" stroke-linejoin="round" stroke-width="1.5"></line><path stroke="#323232" stroke-linecap="round" stroke-linejoin="round" stroke-width="1.5" d="M6.163 14.837l5.751-5.751c.828-.828 2.172-.828 3 0v0c.828.828.828 2.172 0 3l-5.751 5.751c-.168.168-.389.27-.625.29l-2.902.238 .238-2.902c.019-.237.122-.459.289-.626Z"></path></g></svg>