<svg id="Layer_3" data-name="Layer 3" xmlns="http://www.w3.org/2000/svg" viewBox="0 0 24 24"><line x1="12" y1="18" x2="12" y2="17" fill="none" stroke="#323232" stroke-linecap="round" stroke-linejoin="round" stroke-width="1.5"/><line x1="16.24264" y1="16.24264" x2="15.53554" y2="15.53553" fill="none" stroke="#323232" stroke-linecap="round" stroke-linejoin="round" stroke-width="1.5"/><line x1="7.75736" y1="16.24265" x2="8.46447" y2="15.53554" fill="none" stroke="#323232" stroke-linecap="round" stroke-linejoin="round" stroke-width="1.5"/><line x1="18" y1="12" x2="17" y2="12" fill="none" stroke="#323232" stroke-linecap="round" stroke-linejoin="round" stroke-width="1.5"/><line x1="7" y1="12" x2="6" y2="12" fill="none" stroke="#323232" stroke-linecap="round" stroke-linejoin="round" stroke-width="1.5"/><path d="M7,6H6A3,3,0,0,0,3,9v9a3,3,0,0,0,3,3H18a3,3,0,0,0,3-3V9a3,3,0,0,0-3-3H17" fill="none" stroke="#323232" stroke-linecap="round" stroke-linejoin="round" stroke-width="1.5"/><path d="M12,2h0a2,2,0,0,0-2,2v6.19723a2,2,0,0,0,.3359,1.1094l.832,1.24807a1,1,0,0,0,1.6641,0l.832-1.24807A2,2,0,0,0,14,10.19723V4A2,2,0,0,0,12,2Z" fill="none" stroke="#323232" stroke-linecap="round" stroke-linejoin="round" stroke-width="1.5"/><path d="M0,24V0H24V24Z" fill="none"/></svg>