<svg id="Layer_3" data-name="Layer 3" xmlns="http://www.w3.org/2000/svg" viewBox="0 0 24 24"><rect width="24" height="24" fill="none"/><path d="M16.26,12.26,20.7,7.82a1.026,1.026,0,0,0,0-1.45L17.63,3.3a1.026,1.026,0,0,0-1.45,0L11.74,7.74" fill="none" stroke="#323232" stroke-linecap="round" stroke-linejoin="round" stroke-width="1.5"/><path d="M7.7768,11.7768,3.3,16.18a1.026,1.026,0,0,0,0,1.45L6.37,20.7a1.026,1.026,0,0,0,1.45,0l4.44-4.44" fill="none" stroke="#323232" stroke-linecap="round" stroke-linejoin="round" stroke-width="1.5"/><line x1="19.20909" y1="15.37032" x2="15.37034" y2="19.20907" fill="none" stroke="#323232" stroke-linecap="round" stroke-linejoin="round" stroke-width="1.5"/><line x1="8.67157" y1="4.67157" x2="4.67157" y2="8.67157" fill="none" stroke="#323232" stroke-linecap="round" stroke-linejoin="round" stroke-width="1.5"/><path d="M18.622,14.622,7.58579,3.58579a2,2,0,0,0-2.82843,0L3.58579,4.75736a2,2,0,0,0,0,2.82843L14.622,18.622a4,4,0,0,0,1.56352.96631l4.1555,1.38517a.5.5,0,0,0,.63246-.63246l-1.38517-4.1555A4,4,0,0,0,18.622,14.622Z" fill="none" stroke="#323232" stroke-linecap="round" stroke-linejoin="round" stroke-width="1.5"/></svg>