<?xml version="1.0" encoding="UTF-8"?><svg version="1.1" viewBox="0 0 24 24" xmlns="http://www.w3.org/2000/svg" xmlns:xlink="http://www.w3.org/1999/xlink"><g stroke-linecap="round" stroke-width="1.5" stroke="#323232" fill="none" stroke-linejoin="round"><line x1="14" x2="16.87" y1="12.08" y2="12.08"></line><line x1="14" x2="16.82" y1="17.81" y2="17.81"></line><line x1="14" x2="15.91" y1="14.95" y2="14.94"></line><line x1="14" x2="15.91" y1="9.22" y2="9.22"></line><line x1="14" x2="16.82" y1="6.42" y2="6.42"></line><rect width="6" height="18" x="14" y="3" rx=".55228" ry="0"></rect><path d="M4 6.513h5.03l1.09347e-08 1.49569e-11c.806269.00110279 1.45945.654731 1.46 1.461v4.026"></path><path d="M8 5.027v12.829l1.94309e-08-.00027879c0 .323634-.0785375.642433-.22887.929032l-.881 1.68 -2.92901e-08 5.59668e-08c-.256086.489324-.860361.678401-1.34969.422315 -.180504-.0944661-.327849-.241811-.422315-.422315l-.881-1.68 2.22222e-09 4.14652e-09c-.153159-.285786-.234539-.604524-.237129-.928753l-1.849e-09-12.822 -1.46969e-08-2.96556e-05c-.00053991-1.10593.8941-2.00368 2.00003-2.00697h-2.96554e-05l-8.74228e-08 1.77636e-15c1.10457-4.82823e-08 2 .89543 2 2Z"></path></g><path fill="none" d="M0 0h24v24h-24Z"></path></svg>