<?xml version="1.0" encoding="UTF-8"?><svg version="1.1" viewBox="0 0 24 24" xmlns="http://www.w3.org/2000/svg" xmlns:xlink="http://www.w3.org/1999/xlink"><!--Generated by IJSVG (https://github.com/iconjar/IJSVG)--><g stroke-linecap="round" stroke-width="1.5" stroke="#323232" fill="none" stroke-linejoin="round"><path d="M10.631,17.437l8.489,-8.489c0.391,-0.391 1.024,-0.391 1.414,0l1.078,1.078c0.391,0.391 0.391,1.024 0,1.414l-8.491,8.491c-0.263,0.263 -0.594,0.447 -0.955,0.532l-1.648,0.389c-0.484,0.114 -0.919,-0.32 -0.806,-0.805l0.386,-1.651c0.085,-0.363 0.27,-0.695 0.533,-0.959Z"></path><path d="M17.53,10.53l2.5,2.5"></path><path d="M7,21h-0.151c-2.678,0 -4.849,-2.171 -4.849,-4.849v0c0,-1.916 1.128,-3.653 2.88,-4.431l3.96,-1.76c1.314,-0.584 2.16,-1.886 2.16,-3.323v0c0,-2.009 -1.628,-3.637 -3.637,-3.637h-0.363"></path></g><path fill="none" d="M0,0h24v24h-24Z"></path></svg>