<svg id="Layer_3" data-name="Layer 3" xmlns="http://www.w3.org/2000/svg" viewBox="0 0 24 24"><rect width="24" height="24" fill="none"/><path d="M15,2h-.5A2.5,2.5,0,0,0,12,4.5V5" fill="none" stroke="#323232" stroke-linecap="round" stroke-linejoin="round" stroke-width="1.5"/><path d="M12,21h0a3.39833,3.39833,0,0,1-3.3721-2.97683L7.62017,9.96138A4.41391,4.41391,0,0,1,12,5h0a4.41391,4.41391,0,0,1,4.37982,4.96138L15.3721,18.02317A3.39833,3.39833,0,0,1,12,21Z" fill="none" stroke="#323232" stroke-linecap="round" stroke-linejoin="round" stroke-width="1.5"/><path d="M9.46,19.86A2.67015,2.67015,0,0,1,4.9,18.65L3.1,10.72A3.66621,3.66621,0,0,1,3,9.86,3.87122,3.87122,0,0,1,8.72,6.47" fill="none" stroke="#323232" stroke-linecap="round" stroke-linejoin="round" stroke-width="1.5"/><path d="M15.28,6.47A3.87122,3.87122,0,0,1,21,9.86a3.66621,3.66621,0,0,1-.1.86l-1.8,7.93a2.67015,2.67015,0,0,1-4.56,1.21" fill="none" stroke="#323232" stroke-linecap="round" stroke-linejoin="round" stroke-width="1.5"/></svg>