<?xml version="1.0" encoding="UTF-8"?><svg version="1.1" viewBox="0 0 24 24" xmlns="http://www.w3.org/2000/svg" xmlns:xlink="http://www.w3.org/1999/xlink"><!--Generated by IJSVG (https://github.com/iconjar/IJSVG)--><g fill="none"><path d="M24,0v24h-24v-24h24Z"></path><path stroke="#323232" stroke-linecap="round" stroke-linejoin="round" stroke-width="1.5" d="M5.257,13.969l-1.544,1.544c-1.387,-3.278 -0.751,-7.208 1.921,-9.879c3.246,-3.246 8.351,-3.489 11.882,-0.741"></path><path stroke="#323232" stroke-linecap="round" stroke-linejoin="round" stroke-width="1.5" d="M6.484,19.108c3.533,2.747 8.637,2.506 11.882,-0.741c2.671,-2.671 3.308,-6.601 1.921,-9.879l-1.544,1.544"></path><path stroke="#323232" stroke-linecap="round" stroke-linejoin="round" stroke-width="1.5" d="M9.899,14.1l4.2,-4.2"></path><path stroke="#323232" stroke-linecap="round" stroke-linejoin="round" stroke-width="1.5" d="M14.297,13.946c0.098,0.098 0.098,0.256 0,0.353c-0.098,0.098 -0.256,0.098 -0.353,0c-0.098,-0.098 -0.098,-0.256 0,-0.353c0.096,-0.098 0.255,-0.098 0.353,0"></path><path stroke="#323232" stroke-linecap="round" stroke-linejoin="round" stroke-width="1.5" d="M10.057,9.7c0.098,0.098 0.098,0.257 0,0.354c-0.098,0.098 -0.257,0.098 -0.354,0c-0.098,-0.098 -0.098,-0.257 0,-0.354c0.098,-0.097 0.256,-0.097 0.354,0"></path></g></svg>