<svg id="Layer_3" data-name="Layer 3" xmlns="http://www.w3.org/2000/svg" viewBox="0 0 24 24"><line x1="12" y1="17.07964" x2="12" y2="21" fill="none" stroke="#323232" stroke-linecap="round" stroke-linejoin="round" stroke-width="1.5"/><path d="M3,21V19.5285a3,3,0,0,1,2.41165-2.94174l2.846-.56919a.90452.90452,0,0,1,.67912.13434h0a5.52239,5.52239,0,0,0,6.12653,0h0a.90452.90452,0,0,1,.67912-.13434l2.846.56919A3,3,0,0,1,21,19.5285V21" fill="none" stroke="#323232" stroke-linecap="round" stroke-linejoin="round" stroke-width="1.5"/><path d="M16,7.39834V10a4,4,0,0,1-4,4h0a4,4,0,0,1-4-4V7.39834" fill="none" stroke="#323232" stroke-linecap="round" stroke-linejoin="round" stroke-width="1.5"/><line x1="14.10125" y1="13.4054" x2="14.82533" y2="16.30188" fill="none" stroke="#323232" stroke-linecap="round" stroke-linejoin="round" stroke-width="1.5"/><line x1="9.90123" y1="13.4054" x2="9.17718" y2="16.30176" fill="none" stroke="#323232" stroke-linecap="round" stroke-linejoin="round" stroke-width="1.5"/><path d="M6.09686,6.45618l4.45453,2.20523a3.26815,3.26815,0,0,0,2.89722,0l4.45453-2.20523a1.06434,1.06434,0,0,0,0-1.91236L13.44861,2.33859a3.26815,3.26815,0,0,0-2.89722,0L6.09686,4.54382A1.06434,1.06434,0,0,0,6.09686,6.45618Z" fill="none" stroke="#323232" stroke-linecap="round" stroke-linejoin="round" stroke-width="1.5"/><path d="M18.5,5.53453v2.6" fill="none" stroke="#323232" stroke-linecap="round" stroke-linejoin="round" stroke-width="1.5"/><path d="M24,0H0V24H24Z" fill="none"/></svg>