<?xml version="1.0" encoding="UTF-8"?><svg version="1.1" viewBox="0 0 24 24" xmlns="http://www.w3.org/2000/svg" xmlns:xlink="http://www.w3.org/1999/xlink"><!--Generated by IJSVG (https://github.com/iconjar/IJSVG)--><g stroke-linecap="round" stroke-width="1.5" stroke="#323232" fill="none" stroke-linejoin="round"><path d="M5.882,21h-1.882c-0.552,0 -1,-0.448 -1,-1v-1.882c0,-0.552 0.448,-1 1,-1h1.882c0.552,0 1,0.448 1,1v1.882c0,0.552 -0.447,1 -1,1Z"></path><path d="M5.882,6.882h-1.882c-0.552,0 -1,-0.448 -1,-1v-1.882c0,-0.552 0.448,-1 1,-1h1.882c0.552,0 1,0.448 1,1v1.882c0,0.553 -0.447,1 -1,1Z"></path><path d="M20,19.235h-1.882c-0.552,0 -1,-0.448 -1,-1v-1.882c0,-0.552 0.448,-1 1,-1h1.882c0.552,0 1,0.448 1,1v1.882c0,0.553 -0.448,1 -1,1Z"></path><path d="M20,8.647h-1.882c-0.552,0 -1,-0.448 -1,-1v-1.882c0,-0.552 0.448,-1 1,-1h1.882c0.552,0 1,0.448 1,1v1.882c0,0.552 -0.448,1 -1,1Z"></path><path d="M19.06,15.35v-6.7"></path><path d="M4.94,6.88v10.24"></path><path d="M6.88,4.8l10.24,2.05"></path><path d="M17.12,17.15l-10.24,2.05"></path></g><path fill="none" d="M0,0h24v24h-24Z"></path></svg>