<?xml version="1.0" encoding="UTF-8"?><svg version="1.1" viewBox="0 0 24 24" xmlns="http://www.w3.org/2000/svg" xmlns:xlink="http://www.w3.org/1999/xlink"><!--Generated by IJSVG (https://github.com/iconjar/IJSVG)--><g stroke-linecap="round" stroke-width="1.5" stroke="#323232" fill="none" stroke-linejoin="round"><path d="M19,4.72l-15,15.01"></path><path d="M10.361,17.364c1.979,1.511 4.102,2.477 6.083,2.852c1.06,0.2 2.129,-0.109 2.87,-0.85l0.651,-0.651c0.781,-0.781 0.781,-2.047 0,-2.829l-1.173,-1.173c-0.586,-0.586 -1.536,-0.586 -2.121,0l-0.903,0.904c-0.217,0.217 -0.546,0.29 -0.827,0.166c-0.65,-0.287 -1.296,-0.647 -1.923,-1.074"></path><path d="M10.868,12.856c-1.034,-1.096 -1.836,-2.299 -2.375,-3.521c-0.123,-0.28 -0.051,-0.609 0.166,-0.826l0.819,-0.819c0.671,-0.671 0.671,-1.62 0.085,-2.206l-1.173,-1.174c-0.781,-0.781 -2.047,-0.781 -2.828,0l-0.652,0.652c-0.741,0.741 -1.05,1.81 -0.85,2.87c0.475,2.514 1.907,5.253 4.195,7.639"></path></g><path fill="none" d="M0,0h24v24h-24Z"></path></svg>