<?xml version="1.0" encoding="UTF-8"?><svg version="1.1" viewBox="0 0 24 24" xmlns="http://www.w3.org/2000/svg" xmlns:xlink="http://www.w3.org/1999/xlink"><g fill="none"><path d="M0 0h24v24h-24Z"></path><path stroke="#323232" stroke-linecap="round" stroke-linejoin="round" stroke-width="1.5" d="M10.111 11h3.778l-8.74228e-08 1.77636e-15c1.10457-4.82823e-08 2 .89543 2 2v7 0c0 1.10457-.895431 2-2 2h-3.778l-8.74228e-08-3.55271e-15c-1.10457-4.82823e-08-2-.895431-2-2 0 0 0 0 0 0v-7l2.30926e-14 3.01992e-07c-1.66785e-07-1.10457.89543-2 2-2Z"></path><path stroke="#323232" stroke-linecap="round" stroke-linejoin="round" stroke-width="1.5" d="M11.25 19.75h1.5"></path><path stroke="#323232" stroke-linecap="round" stroke-linejoin="round" stroke-width="1.5" d="M9 6.243l-3.53064e-07 3.53171e-07c1.65635-1.65685 4.34224-1.65726 5.99909-.000906843 .000302091.000302.000604137.000604046.000906137.000906137"></path><path stroke="#323232" stroke-linecap="round" stroke-linejoin="round" stroke-width="1.5" d="M10.5 8.243l-7.36061e-08 7.35589e-08c.828582-.828052 2.17142-.828052 3-1.47118e-07"></path><path stroke="#323232" stroke-linecap="round" stroke-linejoin="round" stroke-width="1.5" d="M8.111 13.5h-1.111l-8.74228e-08-1.77636e-15c-1.10457-4.82823e-08-2-.895431-2-2 0 0 0 0 0 0v-8l2.30926e-14 3.01992e-07c-1.66785e-07-1.10457.89543-2 2-2h10l-8.74228e-08 1.77636e-15c1.10457-4.82823e-08 2 .89543 2 2v8 0c0 1.10457-.895431 2-2 2h-1.111"></path></g></svg>