<?xml version="1.0" encoding="UTF-8"?><svg version="1.1" viewBox="0 0 24 24" xmlns="http://www.w3.org/2000/svg" xmlns:xlink="http://www.w3.org/1999/xlink"><g fill="none"><path d="M0 24v-24h24v24Z"></path><path stroke="#323232" stroke-linecap="round" stroke-linejoin="round" stroke-width="1.5" d="M21 11v5 0c0 2.76142-2.23858 5-5 5h-8l-2.18557e-07-7.10543e-15c-2.76142-1.20706e-07-5-2.23858-5-5 0 0 0-1.77636e-15 0-1.77636e-15v-8l5.68434e-14 7.54979e-07c-4.16963e-07-2.76142 2.23858-5 5-5h5"></path><path stroke="#323232" stroke-linecap="round" stroke-linejoin="round" stroke-width="1.5" d="M14.546 9.454l5.92086e-08 5.9228e-08c1.40566 1.40612 1.40529 3.68551-.000831362 5.09117 -1.40612 1.40566-3.68551 1.40529-5.09117-.000831362 -1.40533-1.40579-1.40533-3.68455 1.18417e-07-5.09034l-1.3001e-07 1.30053e-07c1.40566-1.40612 3.68505-1.40649 5.09117-.000831503 .000277126.000277036.000554207.000554117.000831243.000831243"></path><line x1="17" x2="22" y1="4.5" y2="4.5" stroke="#323232" stroke-linecap="round" stroke-linejoin="round" stroke-width="1.5"></line><line x1="19.5" x2="19.5" y1="7" y2="2" stroke="#323232" stroke-linecap="round" stroke-linejoin="round" stroke-width="1.5"></line></g></svg>