<svg id="Layer_3" data-name="Layer 3" xmlns="http://www.w3.org/2000/svg" viewBox="0 0 24 24"><path d="M0,0H24V24H0Z" fill="none"/><path d="M8.82832,18.65675h-2.485a1,1,0,0,1-1-1v-2.485a1,1,0,0,0-.29289-.70711L3.2929,12.70712a1,1,0,0,1,0-1.41422L5.05038,9.53543a1,1,0,0,0,.29289-.70711v-2.485a1,1,0,0,1,1-1h2.485a1,1,0,0,0,.7071-.29289L11.2929,3.2929a1,1,0,0,1,1.41422,0l1.75747,1.75748a1,1,0,0,0,.70711.29289h2.485a1,1,0,0,1,1,1v2.485a1,1,0,0,0,.29289.70711l1.75747,1.75747a1,1,0,0,1,0,1.41422L18.94964,14.4646a1,1,0,0,0-.29289.7071v2.485a1,1,0,0,1-1,1h-2.485a1,1,0,0,0-.70711.29289l-1.75747,1.75748a1,1,0,0,1-1.41422,0L9.53542,18.94964A1,1,0,0,0,8.82832,18.65675Z" fill="none" stroke="#323232" stroke-linecap="round" stroke-linejoin="round" stroke-width="1.5"/><path d="M10,8.55476a3.96739,3.96739,0,0,1,0,6.89044" fill="none" stroke="#323232" stroke-linecap="round" stroke-linejoin="round" stroke-width="1.5"/><path d="M10,8.55476A3.9588,3.9588,0,0,1,12,8a4,4,0,0,1,0,8,3.95885,3.95885,0,0,1-2-.55481" fill="none" stroke="#323232" stroke-linecap="round" stroke-linejoin="round" stroke-width="1.5"/></svg>