<?xml version="1.0" encoding="UTF-8"?><svg version="1.1" viewBox="0 0 24 24" xmlns="http://www.w3.org/2000/svg" xmlns:xlink="http://www.w3.org/1999/xlink"><g fill="none"><path d="M0 .014h24v24h-24Z"></path><path stroke="#323232" stroke-linecap="round" stroke-linejoin="round" stroke-width="1.5" d="M21 16.014l-4.293-4.293c-.391-.391-1.024-.391-1.414 0l-4.293 4.293"></path><path stroke="#323232" stroke-linecap="round" stroke-linejoin="round" stroke-width="1.5" d="M18 21.014h-12c-1.657 0-3-1.343-3-3v-12c0-1.657 1.343-3 3-3h12c1.657 0 3 1.343 3 3v12c0 1.657-1.343 3-3 3Z"></path><path stroke="#323232" stroke-linecap="round" stroke-linejoin="round" stroke-width="1.5" d="M16 21.014l-6.293-6.293c-.391-.391-1.024-.391-1.414 0l-4.847 4.847"></path><path stroke="#323232" stroke-linecap="round" stroke-linejoin="round" stroke-width="1.5" d="M9.26517 8.74883c.146447.146447.146447.383883 0 .53033 -.146447.146447-.383883.146447-.53033 0 -.146447-.146447-.146447-.383883 0-.53033 .146447-.146447.383883-.146447.53033 0"></path></g></svg>