<?xml version="1.0" encoding="UTF-8"?><svg version="1.1" viewBox="0 0 24 24" xmlns="http://www.w3.org/2000/svg" xmlns:xlink="http://www.w3.org/1999/xlink"><!--Generated by IJSVG (https://github.com/iconjar/IJSVG)--><g stroke-linecap="round" stroke-width="1.5" stroke="#323232" fill="none" stroke-linejoin="round"><path d="M19.997,21h-15.994c-1.105,0 -2,-0.895 -2,-2v-14c0,-1.105 0.895,-2 2,-2h15.994c1.105,0 2,0.895 2,2v14c0,1.105 -0.896,2 -2,2Z"></path><path d="M9.41421,7.58579c0.781049,0.781049 0.781049,2.04738 0,2.82843c-0.781049,0.781049 -2.04738,0.781049 -2.82843,0c-0.781049,-0.781049 -0.781049,-2.04738 -8.88178e-16,-2.82843c0.781049,-0.781049 2.04738,-0.781049 2.82843,-8.88178e-16"></path><path d="M22,16l-4.219,-3.375c-0.431,-0.345 -1.061,-0.275 -1.406,0.156l-3.336,4.17c-0.345,0.431 -0.974,0.501 -1.406,0.156l-1.868,-1.495c-0.425,-0.34 -1.044,-0.278 -1.393,0.141l-4.372,5.247"></path></g><path fill="none" d="M0,0h24v24h-24Z"></path></svg>