<?xml version="1.0" encoding="UTF-8"?><svg version="1.1" viewBox="0 0 24 24" xmlns="http://www.w3.org/2000/svg" xmlns:xlink="http://www.w3.org/1999/xlink"><g stroke-linecap="round" stroke-width="1.5" stroke="#323232" fill="none" stroke-linejoin="round"><path d="M14.728 14.728c.208-.588.4-1.2.571-1.844 1.326-4.946.922-9.352-.9-9.84l1.18047e-08 1.27935e-09c-.828729-.0898144-1.64357.263095-2.145.929"></path><path d="M11.745 20.027l3.71249e-08-4.92781e-08c-.501554.665742-1.3163 1.01861-2.145.929 -1.822-.488-2.225-4.894-.9-9.84 .17-.64.363-1.256.571-1.844"></path><path d="M11 15.726c.614-.114 1.244-.255 1.883-.426 4.946-1.326 8.56-3.878 8.072-5.7 -.174-.651-.856-1.118-1.877-1.392"></path><path d="M4.921 15.793c-1.021-.275-1.7-.742-1.877-1.393 -.488-1.822 3.126-4.374 8.072-5.7 .639-.171 1.268-.312 1.883-.426"></path><path d="M8.274 13c.406.475.843.949 1.311 1.417 3.621 3.621 7.637 5.475 8.971 4.141l4.47688e-08-6.12668e-08c.491957-.673251.593383-1.55569.267-2.323"></path><path d="M5.177 7.766l-1.34e-07-3.15027e-07c-.326383-.767309-.224957-1.64975.267-2.323 1.334-1.334 5.35.52 8.971 4.141 .468.468.905.943 1.311 1.417"></path><path d="M12.25 12v0c0 .138071-.111929.25-.25.25 -.138071 0-.25-.111929-.25-.25 0-.138071.111929-.25.25-.25h-1.09278e-08c.138071-6.03528e-09.25.111929.25.25v0"></path></g><path fill="none" d="M0 0h24v24h-24Z"></path></svg>