<svg viewBox="0 0 24 24" xmlns="http://www.w3.org/2000/svg"><g fill="none"><path d="M24 24H0V0h24Z"/><g stroke-linecap="round" stroke-width="1.5" stroke="#323232" fill="none" stroke-linejoin="round"><path d="M21 17v0c0 2.2-1.8 4-4 4H7l-.01-.001c-2.21-.01-4-1.8-4-4.01 0 0 0 0 0 0v-10l0 0c-.01-2.21 1.79-4.01 3.99-4.01h10l-.01 0c2.2-.01 4 1.79 4 3.99Z"/><path d="M3 13l1.29-1.3 -.01 0c.94-.95 2.46-.95 3.4-.01 0 0 0 0 0 0l4.29 4.29"/><path d="M7.003 21l6.29-6.3 0-.01c.94-.95 2.46-.95 3.4 0l3.93 3.93"/></g></g></svg>