<svg id="Layer_3" data-name="Layer 3" xmlns="http://www.w3.org/2000/svg" viewBox="0 0 24 24"><rect width="24" height="24" fill="none"/><path d="M19.74781,9.57969l-.17533-.29221A8.83093,8.83093,0,0,0,12,5h0A8.83094,8.83094,0,0,0,4.42752,9.28748l-.17533.29221a.93294.93294,0,0,1-.6153.45321,2.00117,2.00117,0,1,0,2.13987,2.88623.246.246,0,0,1,.44648,0,2.00075,2.00075,0,0,0,3.55352,0,.246.246,0,0,1,.44648,0,2.00075,2.00075,0,0,0,3.55352,0,.246.246,0,0,1,.44648,0,2.00075,2.00075,0,0,0,3.55352,0,.246.246,0,0,1,.44648,0,2.00086,2.00086,0,1,0,2.13987-2.88623A.93294.93294,0,0,1,19.74781,9.57969Z" fill="none" stroke="#323232" stroke-linecap="round" stroke-linejoin="round" stroke-width="1.5"/><line x1="9" y1="8.50003" x2="8.5" y2="9.00003" fill="none" stroke="#323232" stroke-linecap="round" stroke-linejoin="round" stroke-width="1.5"/><line x1="12" y1="8.50003" x2="12" y2="9.00003" fill="none" stroke="#323232" stroke-linecap="round" stroke-linejoin="round" stroke-width="1.5"/><line x1="15" y1="8.50003" x2="15.5" y2="9.00003" fill="none" stroke="#323232" stroke-linecap="round" stroke-linejoin="round" stroke-width="1.5"/><path d="M20,14.00238l-.6852,4.45382A3,3,0,0,1,16.34968,21h-8.699A3,3,0,0,1,4.68556,18.4562L4,14" fill="none" stroke="#323232" stroke-linecap="round" stroke-linejoin="round" stroke-width="1.5"/></svg>