<svg id="Layer_3" data-name="Layer 3" xmlns="http://www.w3.org/2000/svg" viewBox="0 0 24 24"><path d="M0,0H24V24H0Z" fill="none"/><path d="M17.02641,6.58587l3.38772,3.38772a2,2,0,0,1-.30481,3.07826l-2.45515,1.63677a2,2,0,0,0-.83088,1.179l-1.09356,4.37423a1,1,0,0,1-1.67722.46456L6.29356,12.94749a1,1,0,0,1,.46456-1.67722l4.37423-1.09356a2,2,0,0,0,1.179-.83088l1.63677-2.45515A2,2,0,0,1,17.02641,6.58587Z" fill="none" stroke="#323232" stroke-linecap="round" stroke-linejoin="round" stroke-width="1.5"/><line x1="3" y1="3" x2="6" y2="6" fill="none" stroke="#323232" stroke-linecap="round" stroke-linejoin="round" stroke-width="1.5"/><line x1="3" y1="6" x2="6" y2="3" fill="none" stroke="#323232" stroke-linecap="round" stroke-linejoin="round" stroke-width="1.5"/><line x1="10.17077" y1="16.82923" x2="6.05611" y2="20.94389" fill="none" stroke="#323232" stroke-linecap="round" stroke-linejoin="round" stroke-width="1.5"/></svg>