<?xml version="1.0" encoding="UTF-8"?><svg version="1.1" viewBox="0 0 24 24" xmlns="http://www.w3.org/2000/svg" xmlns:xlink="http://www.w3.org/1999/xlink"><g fill="none"><path d="M0 0h24v24h-24v-24Z"></path><path stroke="#323232" stroke-linecap="round" stroke-linejoin="round" stroke-width="1.5" d="M18 21h-12c-1.657 0-3-1.343-3-3v-12c0-1.657 1.343-3 3-3h12c1.657 0 3 1.343 3 3v12c0 1.657-1.343 3-3 3Z"></path><path stroke="#323232" stroke-linecap="round" stroke-linejoin="round" stroke-width="1.5" d="M17.352 10.931c.197.197.197.516 0 .713l-.441.441c-.12.12-.29.171-.456.138l-1.947-.39 -1.606 1.606 .39 1.947c.033.165-.019.337-.138.456l-.441.441c-.197.197-.516.197-.713 0l-4.283-4.283c-.197-.197-.197-.516 0-.713l.441-.441c.12-.12.29-.171.456-.138l1.947.39 1.606-1.606 -.39-1.947c-.033-.165.019-.337.138-.456l.441-.441c.197-.197.516-.197.713 0l4.283 4.283"></path><path stroke="#323232" stroke-linecap="round" stroke-linejoin="round" stroke-width="1.5" d="M7.5 16.5l2.357-2.357"></path></g></svg>