<?xml version="1.0" encoding="UTF-8"?><svg version="1.1" viewBox="0 0 24 24" xmlns="http://www.w3.org/2000/svg" xmlns:xlink="http://www.w3.org/1999/xlink"><path d="M17.494 5.276v0l2.61723e-07 2.61744e-07c3.03408 3.03432 3.03408 7.95368-5.23445e-07 10.988v0l-4.2 4.2 1.91897e-08-1.91834e-08c-.715001.714767-1.874.714767-2.589 3.83668e-08l-4.2-4.2 -3.43261e-07-3.43112e-07c-3.03425-3.03293-3.03532-7.95136-.00238862-10.9856 .000796263-.000796609.0015927-.00159304.00238931-.00238931v0l6.55781e-08-6.56185e-08c3.03266-3.03453 7.95108-3.03605 10.9856-.00338928 .00113017.00112947.00226.0022593.00338947.00338947Z" stroke-linecap="round" stroke-width="1.5" stroke="#323232" fill="none" stroke-linejoin="round"></path><rect width="24" height="24" fill="none"></rect><g stroke-linecap="round" stroke-width="1.5" stroke="#323232" fill="none" stroke-linejoin="round"><path d="M14.13 14h-4.261l-2.13939e-08-1.1747e-11c-.315593-.000173299-.592044-.211505-.675-.516l-.668-2.45 -1.45524e-08-5.34968e-08c-.101401-.372764.118343-.757205.491-.859l-4.74959e-10 1.34383e-10c.0595321-.0168438.121131-.025259.183-.025h5.6 -3.0598e-08c.386599-1.68988e-08.7.313401.7.7l2.21608e-08 5.74904e-05c2.14464e-05.0621154-.00805144.123969-.0240148.183998l-.668 2.45 2.31571e-08-8.49746e-08c-.0832665.305545-.361299.517128-.677985.515945Z"></path><path d="M9.129 10.167l1.979-2.715 -9.06699e-09 1.23842e-08c.358779-.490038 1.04682-.596579 1.537-.238l7.73547e-09 5.69272e-09c.0908791.0668801.17112.147121.238.238l1.987 2.717"></path></g></svg>