<svg id="Layer_3" data-name="Layer 3" xmlns="http://www.w3.org/2000/svg" viewBox="0 0 24 24"><path d="M0,0H24V24H0Z" fill="none"/><line x1="5" y1="20" x2="9.32449" y2="15.67551" fill="none" stroke="#323232" stroke-linecap="round" stroke-linejoin="round" stroke-width="1.5"/><path d="M13.70605,7.13027a1.17583,1.17583,0,0,0,.34582-.96138L13.879,4.65419a.58789.58789,0,0,1,1.00115-.48069l5.9464,5.94639a.5879.5879,0,0,1-.4807,1.00116l-1.51469-.17292a1.17578,1.17578,0,0,0-.96138.34583" fill="none" stroke="#323232" stroke-linecap="round" stroke-linejoin="round" stroke-width="1.5"/><path d="M15.494,13.66975a1.16888,1.16888,0,0,0-.34582.8317v4.16023a1.17752,1.17752,0,0,1-2.00922.8317l-7.62709-7.634a1.17753,1.17753,0,0,1,.8317-2.00922h4.16023a1.16885,1.16885,0,0,0,.82648-.3441" fill="none" stroke="#323232" stroke-linecap="round" stroke-linejoin="round" stroke-width="1.5"/><path d="M13.41816,7.41816l.28789-.28789" fill="none" stroke="#323232" stroke-linecap="round" stroke-linejoin="round" stroke-width="1.5"/><path d="M17.86978,11.294l-.28792.2879" fill="none" stroke="#323232" stroke-linecap="round" stroke-linejoin="round" stroke-width="1.5"/><line x1="20" y1="18" x2="7" y2="5" fill="none" stroke="#323232" stroke-linecap="round" stroke-linejoin="round" stroke-width="1.5"/></svg>