<svg id="Layer_3" data-name="Layer 3" xmlns="http://www.w3.org/2000/svg" viewBox="0 0 24 24"><path d="M0,0H24V24H0Z" fill="none"/><line x1="8" y1="17" x2="16" y2="17" fill="none" stroke="#323232" stroke-linecap="round" stroke-linejoin="round" stroke-width="1.5"/><line x1="12" y1="14.5" x2="12" y2="12.5" fill="none" stroke="#323232" stroke-linecap="round" stroke-linejoin="round" stroke-width="1.5"/><path d="M14.20623,9.70651,15.428,11.74274a.5.5,0,0,1-.42875.75726H9.00079a.5.5,0,0,1-.42876-.75728L9.79377,9.70651a1,1,0,0,0,.12309-.7106L9.65691,7.69605A1,1,0,0,1,10.63745,6.5h2.7251a1,1,0,0,1,.98054,1.196l-.25995,1.29986A1,1,0,0,0,14.20623,9.70651Z" fill="none" stroke="#323232" stroke-linecap="round" stroke-linejoin="round" stroke-width="1.5"/><rect x="3" y="3" width="18" height="18" rx="5" stroke-width="1.5" stroke="#323232" stroke-linecap="round" stroke-linejoin="round" fill="none"/></svg>