<?xml version="1.0" encoding="UTF-8"?><svg version="1.1" viewBox="0 0 24 24" xmlns="http://www.w3.org/2000/svg" xmlns:xlink="http://www.w3.org/1999/xlink"><g stroke-linecap="round" stroke-width="1.5" stroke="#323232" fill="none" stroke-linejoin="round"><path d="M13.85 10.15c1.022 1.022 1.022 2.679 0 3.7 -1.022 1.021-2.679 1.022-3.7 0 -1.021-1.022-1.022-2.679 0-3.7 1.022-1.021 2.678-1.022 3.7-1.77636e-15"></path><path d="M12 14.616v6.384"></path><path d="M8 20.05c-.852-.42-1.654-.976-2.364-1.686 -3.515-3.515-3.515-9.213 0-12.728 3.515-3.515 9.213-3.515 12.728 0 3.515 3.515 3.515 9.213 0 12.728 -.71.71-1.512 1.266-2.364 1.686"></path></g><path fill="none" d="M0 0h24v24h-24v-24Z"></path></svg>