<?xml version="1.0" encoding="UTF-8"?><svg version="1.1" viewBox="0 0 24 24" xmlns="http://www.w3.org/2000/svg" xmlns:xlink="http://www.w3.org/1999/xlink"><g stroke-linecap="round" stroke-width="1.5" stroke="#323232" fill="none" stroke-linejoin="round"><line x1="10.5" x2="13.5" y1="18.5" y2="21.5"></line><line x1="10.5" x2="13.5" y1="21.5" y2="18.5"></line><path d="M16 20h4"></path><path d="M4 20h4"></path><path d="M13.061 6.814c.586.586.586 1.536 0 2.121 -.586.585-1.536.586-2.121 0 -.586-.586-.586-1.536 0-2.121 .585-.586 1.535-.586 2.121 8.88178e-16"></path><path d="M17.093 7.996v0c0 1.384-.615 2.695-1.677 3.581l-1.67 1.392c-.666.555-1.163 1.284-1.437 2.107l-.309.924 -.308-.925c-.274-.822-.772-1.552-1.437-2.107l-1.67-1.392c-1.064-.886-1.678-2.197-1.678-3.58v0 .026c0-3.178 2.631-5.022 5.093-5.022 2.462 0 5.093 1.844 5.093 5.022"></path></g><path fill="none" d="M0 0h24v24h-24v-24Z"></path></svg>