<?xml version="1.0" encoding="UTF-8"?><svg version="1.1" viewBox="0 0 24 24" xmlns="http://www.w3.org/2000/svg" xmlns:xlink="http://www.w3.org/1999/xlink"><g fill="none"><path d="M0 0h24v24h-24v-24Z"></path><path stroke="#323232" stroke-linecap="round" stroke-linejoin="round" stroke-width="1.5" d="M13.061 9.67c.586.586.586 1.536 0 2.121 -.586.586-1.536.586-2.121 0 -.586-.586-.586-1.536 0-2.121 .585-.585 1.535-.585 2.121 0"></path><path stroke="#323232" stroke-linecap="round" stroke-linejoin="round" stroke-width="1.5" d="M16.702 10.612v0c0 1.277-.567 2.488-1.548 3.305l-1.541 1.285c-.615.512-1.074 1.185-1.327 1.944l-.286.854 -.285-.854c-.253-.759-.713-1.433-1.327-1.944l-1.542-1.285c-.981-.817-1.548-2.028-1.548-3.305v0 .024c0-2.934 2.43-4.636 4.702-4.636 2.272 0 4.702 1.702 4.702 4.636"></path><circle cx="12" cy="12" r="9.5" stroke="#323232" stroke-linecap="round" stroke-linejoin="round" stroke-width="1.5"></circle></g></svg>