<?xml version="1.0" encoding="UTF-8"?><svg version="1.1" viewBox="0 0 24 24" xmlns="http://www.w3.org/2000/svg" xmlns:xlink="http://www.w3.org/1999/xlink"><g stroke-linecap="round" stroke-width="1.5" stroke="#323232" fill="none" stroke-linejoin="round"><path d="M13.85 7.766c1.022 1.022 1.022 2.679 0 3.7 -1.022 1.021-2.679 1.022-3.7 0 -1.021-1.022-1.022-2.679 0-3.7 1.022-1.021 2.678-1.022 3.7-8.88178e-16"></path><path d="M12 12.232v4.384"></path><path d="M21 7v10c0 2.209-1.791 4-4 4h-10c-2.209 0-4-1.791-4-4v-10c0-2.209 1.791-4 4-4h10c2.209 0 4 1.791 4 4Z"></path></g><path fill="none" d="M0 0h24v24h-24v-24Z"></path></svg>