<svg id="Layer_3" data-name="Layer 3" xmlns="http://www.w3.org/2000/svg" viewBox="0 0 24 24"><path d="M6.00047,12a2.0002,2.0002,0,0,0-1.961,1.608l-.99995,4.99977A2,2,0,0,0,5.00068,21H18.99932a2,2,0,0,0,1.96116-2.39223l-1-4.99977A2.0002,2.0002,0,0,0,17.99953,12" fill="none" stroke="#323232" stroke-linecap="round" stroke-linejoin="round" stroke-width="1.5"/><line x1="8.5" y1="17" x2="15.5" y2="17" fill="none" stroke="#323232" stroke-linecap="round" stroke-linejoin="round" stroke-width="1.5"/><path d="M7.5,7.5v0A4.5,4.5,0,0,1,12,3h0a4.5,4.5,0,0,1,4.5,4.5h0c0,1.98666-2.24014,4.1071-3.56036,5.18391a1.55644,1.55644,0,0,1-1.88108-.00047C9.73949,11.60648,7.5,9.48637,7.5,7.5Z" fill="none" stroke="#323232" stroke-linecap="round" stroke-linejoin="round" stroke-width="1.5"/><path d="M11.99905,7.25A.25.25,0,1,0,12.25,7.5a.24869.24869,0,0,0-.25095-.25" fill="none" stroke="#323232" stroke-linecap="round" stroke-linejoin="round" stroke-width="1.5"/><rect width="24" height="24" fill="none"/></svg>