<?xml version="1.0" encoding="UTF-8"?><svg version="1.1" viewBox="0 0 24 24" xmlns="http://www.w3.org/2000/svg" xmlns:xlink="http://www.w3.org/1999/xlink"><g stroke-linecap="round" stroke-width="1.5" stroke="#323232" fill="none" stroke-linejoin="round"><path d="M6 14l-1.74846e-07 3.55271e-15c2.20914-9.65645e-08 4 1.79086 4 4 9.65645e-08 2.20914-1.79086 4-4 4 -2.20914 9.65645e-08-4-1.79086-4-4l4.57412e-14 6.03983e-07c-3.33571e-07-2.20914 1.79086-4 4-4"></path><path d="M4.822 18h2.356"></path><path d="M6 19.178v-2.356"></path><path d="M5.76 14.01l-9.00875e-08-1.97274e-07c-.503076-1.10164-.762318-2.29893-.76-3.51l5.32907e-14 4.08046e-07c-7.08838e-07-4.69442 3.80558-8.5 8.5-8.5 4.69442-7.08838e-07 8.5 3.80558 8.5 8.5 7.08838e-07 4.69442-3.80558 8.5-8.5 8.5 -2.93775e-07 4.26326e-14-5.79968e-07 7.4607e-14-8.73743e-07 8.88178e-14l1.26261e-07-2.41645e-10c-1.21107.00231782-2.40836-.256924-3.51-.759999"></path><path d="M14.454 14.6l2.5-6.756 3.00221e-08-8.04949e-08c.119273-.319793-.0432811-.675727-.363074-.795 -.139289-.0519504-.292637-.0519504-.431926 8.23512e-08l-6.759 2.503 -7.9822e-10 2.95355e-10c-.320102.118443-.483578.473954-.365135.794055 .0707695.19126.231338.335294.429135.384945l3.045.766 .76 3.035 1.9035e-08 8.09843e-08c.0782221.332795.411417.539167.744212.460945 .203963-.0479407.36983-.195805.440788-.392945Z"></path></g><path fill="none" d="M0 0h24v24h-24Z"></path></svg>