<svg viewBox="0 0 24 24" xmlns="http://www.w3.org/2000/svg"><g stroke-linecap="round" stroke-width="1.5" stroke="#323232" fill="none" stroke-linejoin="round"><path d="M5 20l4.32-4.32"/><path d="M11.33 9.5l2.37-2.38 -.01 0c.25-.26.38-.61.34-.97l-.18-1.52 -.01-.01c-.04-.33.19-.62.51-.66 .17-.03.35.04.48.16l5.94 5.94 0 0c.23.22.23.6 0 .83 -.13.12-.31.19-.49.16l-1.52-.18 0 0c-.36-.04-.72.09-.97.34l-2.38 2.37 -.01 0c-.23.21-.35.51-.35.83v4.16l-.01 0c-.01.65-.53 1.17-1.18 1.17 -.32-.01-.61-.13-.83-.35L5.4 11.756l0 0c-.46-.47-.46-1.21 0-1.67 .22-.22.51-.35.82-.35h4.16l-.01 0c.31-.01.6-.13.82-.35Z"/></g><path fill="none" d="M0 0h24v24H0Z"/></svg>