<svg viewBox="0 0 24 24" xmlns="http://www.w3.org/2000/svg"><g fill="none"><path d="M0 0h24v24H0Z"/><g stroke-linecap="round" stroke-width="1.5" stroke="#323232" fill="none" stroke-linejoin="round"><path d="M13.414 10.586l0 0c.78.78.78 2.04 0 2.82 -.79.78-2.05.78-2.83 0 -.79-.79-.79-2.05-.01-2.83l0-.01 -.01 0c.78-.79 2.04-.79 2.82-.01"/><path d="M12 14v3"/><path d="M7 12l-1 0"/><path d="M18 12l-1 0"/><path d="M12 6l0 1"/><path d="M16.24 7.76l-.7.7"/><path d="M7.76 7.76l.7.7"/><rect width="18" height="18" x="3" y="3" rx="5"/></g></g></svg>