<?xml version="1.0" encoding="UTF-8"?><svg version="1.1" viewBox="0 0 24 24" xmlns="http://www.w3.org/2000/svg" xmlns:xlink="http://www.w3.org/1999/xlink"><g fill="none"><rect width="24" height="24"></rect><path stroke="#323232" stroke-linecap="round" stroke-linejoin="round" stroke-width="1.5" d="M11.7916 9.8683l1.33639-1.33637 2.29142e-08-2.29154e-08c.142172-.142179.21201-.341273.18981-.54111l-.0947-.85225 -2.61318e-09-2.35347e-08c-.0201703-.181657.11074-.34527.292397-.36544 .0998925-.0110916.199413.0238131.270493.0948702l3.346 3.346 5.83817e-11 5.838e-11c.129243.129237.129248.338777 1.04155e-05.46802 -.0710909.0710941-.170646.106016-.27057.0949102l-.85225-.0947 3.29774e-09 3.6634e-10c-.199837-.0221996-.398931.0476383-.54111.18981l-1.33638 1.33635 2.13451e-08-2.13449e-08c-.124123.124121-.193856.292465-.19386.468v2.34011l2.92351e-10-1.96724e-05c0 .365546-.296334.66188-.66188.66188 -.175535 0-.343881-.0697283-.468006-.193846l-4.29247-4.29245 -5.51666e-08-5.51665e-08c-.25848-.25848-.25848-.677559-2.17588e-07-.93604 .124122-.124122.292466-.193855.468-.19386h2.34009l2.11225e-08 7.76268e-13c.175549 6.4532e-06.343909-.0697276.46804-.19386Z"></path><line x1="8.23" x2="10.66" y1="15.77" y2="13.34" stroke="#323232" stroke-linecap="round" stroke-linejoin="round" stroke-width="1.5"></line><rect width="18" height="18" x="3" y="3" rx="2.7614" ry="0" stroke="#323232" stroke-linecap="round" stroke-linejoin="round" stroke-width="1.5"></rect></g></svg>