<svg id="Layer_3" data-name="Layer 3" xmlns="http://www.w3.org/2000/svg" viewBox="0 0 24 24"><line x1="12" y1="17" x2="12" y2="14" fill="none" stroke="#323232" stroke-linecap="round" stroke-linejoin="round" stroke-width="1.5"/><rect x="3" y="3" width="18" height="18" rx="5" stroke-width="1.5" stroke="#323232" stroke-linecap="round" stroke-linejoin="round" fill="none"/><path d="M14.50319,7H9.49681a.5.5,0,0,0-.49029.59806l.53728,2.68629a1,1,0,0,1-.12309.71062L8.072,13.24275A.5.5,0,0,0,8.50077,14h6.99846a.5.5,0,0,0,.42874-.75725L14.57929,10.995a1,1,0,0,1-.12309-.71062l.53728-2.68629A.5.5,0,0,0,14.50319,7Z" fill="none" stroke="#323232" stroke-linecap="round" stroke-linejoin="round" stroke-width="1.5"/><path d="M24,24H0V0H24Z" fill="none"/><path d="M24,24H0V0H24Z" fill="none"/></svg>