<?xml version="1.0" encoding="UTF-8"?><svg version="1.1" viewBox="0 0 24 24" xmlns="http://www.w3.org/2000/svg" xmlns:xlink="http://www.w3.org/1999/xlink"><g fill="none"><rect width="24" height="24"></rect><path stroke="#323232" stroke-linecap="round" stroke-linejoin="round" stroke-width="1.5" d="M12 11.069l-1.97989e-09-2.13163e-13c.0375554 4.06223e-06.0680033-.0304373.0680074-.0679926 3.63221e-08-.000335798-2.41472e-06-.000671592-7.35292e-06-.00100735l3.80549e-10 7.24675e-06c0-.0381076-.0308924-.069-.069-.069 -.0381076 0-.069.0308924-.069.069 0 .0381076.0308924.069.069.069 .000330931 0 .000661857-2.38076e-06.000992754-7.14211e-06"></path><path stroke="#323232" stroke-linecap="round" stroke-linejoin="round" stroke-width="1.5" d="M17.494 5.276v0l2.61723e-07 2.61744e-07c3.03408 3.03432 3.03408 7.95368-5.23445e-07 10.988v0l-4.2 4.2 1.91897e-08-1.91834e-08c-.715001.714767-1.874.714767-2.589 3.83668e-08l-4.2-4.2 -3.43261e-07-3.43112e-07c-3.03425-3.03293-3.03532-7.95136-.00238862-10.9856 .000796263-.000796609.0015927-.00159304.00238931-.00238931v0l6.55781e-08-6.56185e-08c3.03266-3.03453 7.95108-3.03605 10.9856-.00338928 .00113017.00112947.00226.0022593.00338947.00338947Z"></path><path stroke="#323232" stroke-linecap="round" stroke-linejoin="round" stroke-width="1.5" d="M8.632 11.069h-3.01608e-09c.0381076 1.66574e-09.069-.0308923.069-.069 1.66574e-09-.0381076-.0308923-.069-.069-.069 -.0381076-1.66574e-09-.069.0308923-.069.069 0 0 0 0 0 0l1.77636e-15-1.04187e-08c-5.75409e-09.0381076.0308923.069.069.069 0 0 1.77636e-15 0 1.77636e-15 0"></path><path stroke="#323232" stroke-linecap="round" stroke-linejoin="round" stroke-width="1.5" d="M15.369 11.069l-1.9799e-09-2.13163e-13c.0375554 4.06223e-06.0680033-.0304373.0680074-.0679926 3.63221e-08-.000335798-2.41472e-06-.000671592-7.35292e-06-.00100735l3.80549e-10 7.24675e-06c0-.0381076-.0308924-.069-.069-.069 -.0381076 0-.069.0308924-.069.069 0 .0381076.0308924.069.069.069 .000330931 0 .000661857-2.38076e-06.000992754-7.14211e-06"></path></g></svg>