<svg xmlns="http://www.w3.org/2000/svg" viewBox="0 0 24 24"><g id="Layer_2" data-name="Layer 2"><line x1="14.72731" y1="17.72731" x2="6.27273" y2="9.27273" fill="none" stroke="#323232" stroke-linecap="round" stroke-linejoin="round" stroke-width="1.5"/><path d="M8.483,5.48291c3.07886-3.07886,7.821-3.32855,10.5918-.55774s2.52118,7.513-.55774,10.59186" fill="none" stroke="#323232" stroke-linecap="round" stroke-linejoin="round" stroke-width="1.5"/><path d="M8.483,5.48291a7.84394,7.84394,0,0,0-1.88645,8.59645.976.976,0,0,1-.33007,1.16057L3.8,17.08974A2,2,0,0,0,3.58583,20.104l.31021.31021A2,2,0,0,0,6.91025,20.2l1.84987-2.46648a.976.976,0,0,1,1.16058-.33A7.84388,7.84388,0,0,0,18.517,15.517" fill="none" stroke="#323232" stroke-linecap="round" stroke-linejoin="round" stroke-width="1.5"/><path d="M0,0H24V24H0Z" fill="none"/></g></svg>