<?xml version="1.0" encoding="UTF-8"?><svg version="1.1" viewBox="0 0 24 24" xmlns="http://www.w3.org/2000/svg" xmlns:xlink="http://www.w3.org/1999/xlink"><!--Generated by IJSVG (https://github.com/iconjar/IJSVG)--><g stroke-linecap="round" stroke-width="1.5" fill-rule="evenodd" stroke="#323232" fill="none" stroke-linejoin="round"><path d="M12,21l-4,1v-1.768c0,-0.147 0.065,-0.287 0.177,-0.382l1.841,-1.556v-4.816l-7.317,3.214c-0.33,0.145 -0.701,-0.097 -0.701,-0.458v-1.699c0,-0.335 0.167,-0.647 0.446,-0.833l7.572,-5.038v-4.681"></path><path d="M10.018,3.983c0,-1.095 0.888,-1.983 1.982,-1.983"></path><path d="M13.982,3.983v4.683l7.572,5.038c0.279,0.185 0.446,0.497 0.446,0.832v1.699c0,0.361 -0.371,0.603 -0.701,0.458l-7.317,-3.214v4.816l1.841,1.556c0.112,0.094 0.177,0.234 0.177,0.381v1.768l-4,-1"></path><path d="M12,2c1.094,0 1.982,0.888 1.982,1.983"></path></g><path fill="none" d="M0,0h24v24h-24Z"></path></svg>