<?xml version="1.0" encoding="UTF-8"?><svg version="1.1" viewBox="0 0 24 24" xmlns="http://www.w3.org/2000/svg" xmlns:xlink="http://www.w3.org/1999/xlink"><!--Generated by IJSVG (https://github.com/iconjar/IJSVG)--><g fill="none"><path d="M0,0h24v24h-24Z"></path><path stroke="#323232" stroke-linecap="round" stroke-linejoin="round" stroke-width="1.5" d="M2,18h7"></path><path stroke="#323232" stroke-linecap="round" stroke-linejoin="round" stroke-width="1.5" d="M4.636,12.636l-2.636,-2.636l1.553,-0.776c0.282,-0.141 0.613,-0.141 0.894,0l1.553,0.776l3.192,-1.977l-4.192,-4l3,-1.023l5,3l4.707,-2.69c1.151,-0.658 2.612,-0.034 2.933,1.252v0c0.214,0.854 -0.157,1.748 -0.912,2.201l-8.403,5.042c-0.215,0.129 -0.453,0.217 -0.7,0.258l-5.118,0.853c-0.318,0.052 -0.643,-0.052 -0.871,-0.28Z"></path><path stroke="#323232" stroke-linecap="round" stroke-linejoin="round" stroke-width="1.5" d="M17.5,22c-2.485,0 -4.5,-2.014 -4.5,-4.499c0,-2.434 2.07,-4.503 4.504,-4.501c2.484,0.002 4.496,2.016 4.496,4.5c0,2.485 -2.014,4.5 -4.5,4.5"></path><path stroke="#323232" stroke-linecap="round" stroke-linejoin="round" stroke-width="1.5" d="M19.5,16.5l-2.5,2.5l-1.5,-1.5"></path></g></svg>