<svg id="Layer_3" data-name="Layer 3" xmlns="http://www.w3.org/2000/svg" viewBox="0 0 24 24"><rect y="0.00001" width="24" height="24" fill="none"/><path d="M13.5,14,9.79289,10.2929A1,1,0,0,0,9.08579,10H8.00134a1,1,0,0,0-.88833,1.4592L8.42642,14" fill="none" stroke="#323232" stroke-linecap="round" stroke-linejoin="round" stroke-width="1.5"/><path d="M22,11H18.25A1.25,1.25,0,0,1,17,9.75v-1A1.25,1.25,0,0,0,15.75,7.5h-1A1.25,1.25,0,0,1,13.5,6.25v-4.235" fill="none" stroke="#323232" stroke-linecap="round" stroke-linejoin="round" stroke-width="1.5"/><path d="M5.76038,7A8.49614,8.49614,0,0,1,22,10.5V11" fill="none" stroke="#323232" stroke-linecap="round" stroke-linejoin="round" stroke-width="1.5"/><path d="M12.5,18,8.79289,21.70712A1,1,0,0,1,8.08579,22H7.00134a1,1,0,0,1-.88833-1.4592L7.42642,18H5.05486a2,2,0,0,1-1.89737-1.36754L2.05208,13.31624A1,1,0,0,1,3.00077,12h.99454a1,1,0,0,1,.89442.55279L5.61334,14H16a2,2,0,0,1,2,2h0a2,2,0,0,1-2,2Z" fill="none" stroke="#323232" stroke-linecap="round" stroke-linejoin="round" stroke-width="1.5"/></svg>