<?xml version="1.0" encoding="UTF-8"?><svg version="1.1" viewBox="0 0 24 24" xmlns="http://www.w3.org/2000/svg" xmlns:xlink="http://www.w3.org/1999/xlink"><!--Generated by IJSVG (https://github.com/iconjar/IJSVG)--><g fill="none"><path d="M0,0h24v24h-24v-24Z"></path><path stroke="#323232" stroke-linecap="round" stroke-linejoin="round" stroke-width="1.5" d="M18.99,21h-13.98c-1.11,0 -2.01,-0.895 -2.01,-2v-8c0,-1.105 0.9,-2 2.01,-2h13.98c1.11,0 2.01,0.895 2.01,2v8c0,1.105 -0.901,2 -2.01,2Z"></path><path stroke="#323232" stroke-linecap="round" stroke-linejoin="round" stroke-width="1.5" d="M11.285,13.14l2.62,1.55c0.331,0.196 0.331,0.676 0,0.871l-2.62,1.55c-0.337,0.2 -0.764,-0.044 -0.764,-0.436v-3.099c0,-0.392 0.427,-0.636 0.764,-0.436Z"></path><path stroke="#323232" stroke-linecap="round" stroke-linejoin="round" stroke-width="1.5" d="M4.782,9v-1c0,-1.105 0.895,-2 2,-2h10.435c1.105,0 2,0.895 2,2v1"></path><path stroke="#323232" stroke-linecap="round" stroke-linejoin="round" stroke-width="1.5" d="M6.516,6v-1c0,-1.105 0.895,-2 2,-2h6.969c1.105,0 2,0.895 2,2v1"></path></g></svg>