<?xml version="1.0" encoding="UTF-8"?><svg version="1.1" viewBox="0 0 24 24" xmlns="http://www.w3.org/2000/svg" xmlns:xlink="http://www.w3.org/1999/xlink"><!--Generated by IJSVG (https://github.com/iconjar/IJSVG)--><g fill="none"><path d="M0,0h24v24h-24Z"></path><path stroke="#323232" stroke-linecap="round" stroke-linejoin="round" stroke-width="1.5" d="M19,21.1h-11c-1.105,0 -2,-0.895 -2,-2v-11.1c0,-1.105 0.895,-2 2,-2h11c1.105,0 2,0.895 2,2v11.1c0,1.105 -0.895,2 -2,2Z"></path><path stroke="#323232" stroke-linecap="round" stroke-linejoin="round" stroke-width="1.5" d="M19,6v-1c0,-1.105 -0.895,-2 -2,-2h-12c-1.105,0 -2,0.895 -2,2v12c0,1.105 0.895,2 2,2h1"></path><path stroke="#323232" stroke-linecap="round" stroke-linejoin="round" stroke-width="1.5" d="M13.4142,14.5858c0.781049,0.781049 0.781049,2.04738 0,2.82843c-0.781049,0.781049 -2.04738,0.781049 -2.82843,0c-0.781049,-0.781049 -0.781049,-2.04738 0,-2.82843c0.781049,-0.781049 2.04738,-0.781049 2.82843,0"></path><path stroke="#323232" stroke-linecap="round" stroke-linejoin="round" stroke-width="1.5" d="M17,10l-3,-1v7"></path></g></svg>