<?xml version="1.0" encoding="UTF-8"?><svg version="1.1" viewBox="0 0 24 24" xmlns="http://www.w3.org/2000/svg" xmlns:xlink="http://www.w3.org/1999/xlink"><g fill="none"><path d="M0 0h24v24h-24v-24Z"></path><line x1="17.5" x2="20.5" y1="5" y2="5" stroke="#323232" stroke-linecap="round" stroke-linejoin="round" stroke-width="1.5"></line><line x1="19" x2="19" y1="6.5" y2="3.5" stroke="#323232" stroke-linecap="round" stroke-linejoin="round" stroke-width="1.5"></line><path stroke="#323232" stroke-linecap="round" stroke-linejoin="round" stroke-width="1.5" d="M19 9c-2.209 0-4-1.791-4-4 0-2.209 1.791-4 4-4 2.209 0 4 1.791 4 4 0 2.209-1.791 4-4 4"></path><path stroke="#323232" stroke-linecap="round" stroke-linejoin="round" stroke-width="1.5" d="M15.006 4.765c-1.07-.486-2.254-.765-3.506-.765 -4.694 0-8.5 3.806-8.5 8.5 0 4.694 3.806 8.5 8.5 8.5 4.694 0 8.5-3.806 8.5-8.5 0-1.252-.279-2.436-.765-3.506"></path><path stroke="#323232" stroke-linecap="round" stroke-linejoin="round" stroke-width="1.5" d="M10.5 9.721l3.666 2.168c.464.274.464.945 0 1.219l-3.666 2.17c-.472.28-1.069-.061-1.069-.61v-4.336c-1.77636e-15-.549.597-.89 1.069-.611Z"></path></g></svg>