<?xml version="1.0" encoding="UTF-8"?><svg version="1.1" viewBox="0 0 24 24" xmlns="http://www.w3.org/2000/svg" xmlns:xlink="http://www.w3.org/1999/xlink"><!--Generated by IJSVG (https://github.com/iconjar/IJSVG)--><g fill="none"><path d="M0,0h24v24h-24v-24Z"></path><path stroke="#323232" stroke-linecap="round" stroke-linejoin="round" stroke-width="1.5" d="M19.119,6v12c0,1.105 -0.895,2 -2,2h-10.238c-1.105,0 -2,-0.895 -2,-2v-12c0,-1.105 0.895,-2 2,-2h10.239c1.104,0 1.999,0.895 1.999,2Z"></path><path stroke="#323232" stroke-linecap="round" stroke-linejoin="round" stroke-width="1.5" d="M19.119,6h0.881c1.105,0 2,0.895 2,2v8c0,1.105 -0.895,2 -2,2h-0.881"></path><path stroke="#323232" stroke-linecap="round" stroke-linejoin="round" stroke-width="1.5" d="M4.881,18h-0.881c-1.105,0 -2,-0.895 -2,-2v-8c0,-1.105 0.895,-2 2,-2h0.881"></path><path stroke="#323232" stroke-linecap="round" stroke-linejoin="round" stroke-width="1.5" d="M10.941,9.058l3.882,2.296c0.491,0.29 0.491,1.001 0,1.291l-3.882,2.296c-0.5,0.296 -1.132,-0.065 -1.132,-0.646v-4.591c-1.77636e-15,-0.581 0.632,-0.942 1.132,-0.646Z"></path></g></svg>