<svg xmlns="http://www.w3.org/2000/svg" viewBox="0 0 24 24"><g id="Layer_2" data-name="Layer 2"><line x1="12.00001" y1="10.5" x2="12.00001" y2="11" fill="none" stroke="#323232" stroke-linecap="round" stroke-linejoin="round" stroke-width="1.5"/><path d="M10.20156,7.5h3.59688a2,2,0,0,1,1.24938.43826l1.203.96236A1.99638,1.99638,0,0,1,17,10.45954V14.5a2,2,0,0,1-2,2H9a2,2,0,0,1-2-2l0-4.03875a2,2,0,0,1,.75061-1.56175l1.20155-.96125A2,2,0,0,1,10.20156,7.5Z" fill="none" stroke="#323232" stroke-linecap="round" stroke-linejoin="round" stroke-width="1.5"/><rect x="3" y="3" width="18" height="18" rx="5" stroke-width="1.5" stroke="#323232" stroke-linecap="round" stroke-linejoin="round" fill="none"/><line x1="10.00001" y1="13" x2="10.00001" y2="13.5" fill="none" stroke="#323232" stroke-linecap="round" stroke-linejoin="round" stroke-width="1.5"/><line x1="14.00001" y1="13" x2="14.00001" y2="13.5" fill="none" stroke="#323232" stroke-linecap="round" stroke-linejoin="round" stroke-width="1.5"/><path d="M0,0H24V24H0Z" fill="none"/></g></svg>