<?xml version="1.0" encoding="UTF-8"?><svg version="1.1" viewBox="0 0 24 24" xmlns="http://www.w3.org/2000/svg" xmlns:xlink="http://www.w3.org/1999/xlink"><!--Generated by IJSVG (https://github.com/iconjar/IJSVG)--><g stroke-linecap="round" stroke-width="1.5" stroke="#323232" fill="none" stroke-linejoin="round"><path d="M7,3v16"></path><path d="M16,14.558v-11.558"></path><path d="M14.126,19h-9.126c-1.105,0 -2,-0.895 -2,-2v-12c0,-1.105 0.895,-2 2,-2h13c1.105,0 2,0.895 2,2v9.535"></path><path d="M7,7h-4"></path><path d="M7,15h-4"></path><path d="M16,7h4"></path><path d="M20,11h-17"></path></g><path fill="none" stroke="#323232" stroke-width="1.5" d="M18,22c-2.209,0 -4,-1.791 -4,-4c0,-2.164 1.84,-4.002 4.004,-4c2.208,0.002 3.996,1.792 3.996,4c0,2.209 -1.79,4 -4,4"></path><g stroke-linecap="round" stroke-width="1.5" stroke="#323232" fill="none" stroke-linejoin="round"><path d="M18,16.4v3.2"></path><path d="M19.6,18h-3.2"></path></g><path fill="none" d="M0,0h24v24h-24v-24Z"></path></svg>