<svg id="Layer_3" data-name="Layer 3" xmlns="http://www.w3.org/2000/svg" viewBox="0 0 24 24"><path d="M8,21V15a1,1,0,0,1,1-1h3" fill="none" stroke="#323232" stroke-linecap="round" stroke-linejoin="round" stroke-width="1.5"/><path d="M19.25,17.4l-1.56227,1.5L16.75,18.00018" fill="none" stroke="#323232" stroke-linecap="round" stroke-linejoin="round" stroke-width="1.5"/><circle cx="18" cy="18" r="4" fill="none" stroke="#323232" stroke-linecap="round" stroke-linejoin="round" stroke-width="1.5"/><line x1="3" y1="8" x2="3" y2="21" fill="none" stroke="#323232" stroke-linecap="round" stroke-linejoin="round" stroke-width="1.5"/><line x1="21" y1="11" x2="21" y2="8" fill="none" stroke="#323232" stroke-linecap="round" stroke-linejoin="round" stroke-width="1.5"/><path d="M8.9765,8H3A1,1,0,0,1,2,7V6A1,1,0,0,1,3,5H8.25" fill="none" stroke="#323232" stroke-linecap="round" stroke-linejoin="round" stroke-width="1.5"/><path d="M15.75,5H21a1,1,0,0,1,1,1V7a1,1,0,0,1-1,1H15.02671" fill="none" stroke="#323232" stroke-linecap="round" stroke-linejoin="round" stroke-width="1.5"/><line x1="11" y1="21" x2="2" y2="21" fill="none" stroke="#323232" stroke-linecap="round" stroke-linejoin="round" stroke-width="1.5"/><path d="M15.75,6.24352c0,1.80837-2.27428,3.1415-3.28238,3.64526a1.03878,1.03878,0,0,1-.9345.0004C10.52538,9.38573,8.25,8.04949,8.25,6.24352l0-2.05A.51235.51235,0,0,1,8.72617,3.697a5.33871,5.33871,0,0,0,2.68648-1.00416.99111.99111,0,0,1,1.1747,0A5.33871,5.33871,0,0,0,15.27383,3.697a.51235.51235,0,0,1,.47613.49654Z" fill="none" stroke="#323232" stroke-linecap="round" stroke-linejoin="round" stroke-width="1.5"/><path d="M0,0H24V24H0Z" fill="none"/></svg>