<?xml version="1.0" encoding="UTF-8"?><svg version="1.1" viewBox="0 0 24 24" xmlns="http://www.w3.org/2000/svg" xmlns:xlink="http://www.w3.org/1999/xlink"><g stroke-linecap="round" stroke-width="1.5" stroke="#323232" fill="none" stroke-linejoin="round"><path d="M20 11l-1.858.9"></path><path d="M5.867 11.9l-1.867-.9"></path><path d="M18.141 11.9l-.755-3.61c-.218-1.043-1.138-1.79-2.203-1.79h-6.272c-1.045 0-1.953.72-2.191 1.738l-.856 3.662"></path><path d="M15.223 6.5l-.349-1.671c-.102-.483-.527-.829-1.021-.829h-3.666c-.483 0-.903.333-1.014.804l-.396 1.696"></path><line x1="12" x2="12" y1="6.5" y2="4"></line><path d="M8 18.278v1.722c0 .552-.448 1-1 1h-2c-.552 0-1-.448-1-1v-2.402"></path><path d="M20 17.598v2.402c0 .552-.448 1-1 1h-2c-.552 0-1-.448-1-1v-1.722"></path><path d="M20.5 16.278v-1.678c0-1.491-1.209-2.7-2.7-2.7h-11.6c-1.491 0-2.7 1.209-2.7 2.7v1.678c0 1.105.895 2 2 2h13c1.105 0 2-.896 2-2Z"></path><line x1="6.33" x2="8" y1="14.86" y2="15.11"></line><line x1="16.08" x2="17.67" y1="15.11" y2="14.86"></line></g><path fill="none" d="M0 0h24v24h-24v-24Z"></path></svg>