<svg id="Layer_3" data-name="Layer 3" xmlns="http://www.w3.org/2000/svg" viewBox="0 0 24 24"><path d="M18.84037,7.99945a1.88618,1.88618,0,0,0-1.14918-1.98908l-.03972-.01643a1.88608,1.88608,0,0,1-1.022-1.022l-.01653-.04a1.88587,1.88587,0,0,0-1.98873-1.149l-.04592.006a1.89059,1.89059,0,0,1-1.398-.37486L13.14877,3.39a1.88547,1.88547,0,0,0-2.29648,0l-.03572.02743A1.88432,1.88432,0,0,1,9.42321,3.791l-.04733-.00623A1.88514,1.88514,0,0,0,7.38744,4.9344l-.01588.03846A1.88465,1.88465,0,0,1,6.3487,5.99571l-.03846.01588A1.88515,1.88515,0,0,0,5.16058,8" fill="none" stroke="#323232" stroke-linecap="round" stroke-linejoin="round" stroke-width="1.5"/><path d="M5.00021,8H18.99979a1,1,0,0,1,.98837,1.15206l-1.69231,11A1,1,0,0,1,17.30748,21H6.69252a1,1,0,0,1-.98837-.84794l-1.69231-11A1,1,0,0,1,5.00021,8Z" fill="none" stroke="#323232" stroke-linecap="round" stroke-linejoin="round" stroke-width="1.5"/><path d="M14.5,21l1-13" fill="none" stroke="#323232" stroke-linecap="round" stroke-linejoin="round" stroke-width="1.5"/><path d="M9.5,21,8.5,8" fill="none" stroke="#323232" stroke-linecap="round" stroke-linejoin="round" stroke-width="1.5"/><path d="M0,0H24V24H0Z" fill="none"/></svg>