<?xml version="1.0" encoding="UTF-8"?><svg version="1.1" viewBox="0 0 24 24" xmlns="http://www.w3.org/2000/svg" xmlns:xlink="http://www.w3.org/1999/xlink"><!--Generated by IJSVG (https://github.com/iconjar/IJSVG)--><g stroke-linecap="round" stroke-width="1.5" stroke="#323232" fill="none" stroke-linejoin="round"><path d="M7,21h-3c-0.552,0 -1,-0.448 -1,-1v-3"></path><path d="M7,17l2,-2"></path><path d="M3,7v-3c0,-0.552 0.448,-1 1,-1h3"></path><path d="M7,7l2,2"></path><path d="M17,3h3c0.552,0 1,0.448 1,1v3"></path><path d="M17,7l-2,2"></path><path d="M21,17v3c0,0.552 -0.448,1 -1,1h-3"></path><path d="M17,17l-2,-2"></path></g><path fill="none" d="M0,0h24v24h-24Z"></path></svg>