<?xml version="1.0" encoding="UTF-8"?><svg version="1.1" viewBox="0 0 24 24" xmlns="http://www.w3.org/2000/svg" xmlns:xlink="http://www.w3.org/1999/xlink"><g stroke-linecap="round" stroke-width="1.5" stroke="#323232" fill="none" stroke-linejoin="round"><path d="M3 8v-3l2.30926e-14 3.01992e-07c-1.66785e-07-1.10457.89543-2 2-2h3"></path><path d="M16 3h3l-8.74228e-08 1.77636e-15c1.10457-4.82823e-08 2 .89543 2 2v3"></path><path d="M21 16v3 0c0 1.10457-.895431 2-2 2h-3"></path><path d="M8 21h-3l-8.74228e-08-3.55271e-15c-1.10457-4.82823e-08-2-.895431-2-2 0 0 0 0 0 0v-3"></path><circle cx="12" cy="12" r="3"></circle><line x1="12" x2="12" y1="7" y2="9"></line><line x1="12" x2="12" y1="15" y2="17"></line><line x1="17" x2="15" y1="12" y2="12"></line><line x1="9" x2="7" y1="12" y2="12"></line></g><path fill="none" d="M0 0h24v24h-24Z"></path></svg>