<?xml version="1.0" encoding="UTF-8"?><svg version="1.1" viewBox="0 0 24 24" xmlns="http://www.w3.org/2000/svg" xmlns:xlink="http://www.w3.org/1999/xlink"><!--Generated by IJSVG (https://github.com/iconjar/IJSVG)--><g fill="none"><path d="M0,0h24v24h-24Z"></path><path stroke="#323232" stroke-linecap="round" stroke-linejoin="round" stroke-width="1.5" d="M13.914,16.62c-0.627,0.259 -1.276,0.38 -1.914,0.38c-2.761,0 -5,-2.239 -5,-5c0,-2.761 2.239,-5 5,-5c2.761,0 5,2.239 5,5v0.833c0,0.767 -0.622,1.389 -1.389,1.389c-0.767,0 -1.389,-0.622 -1.389,-1.389v-0.833c0,-1.227 -0.995,-2.222 -2.222,-2.222v0c-1.227,0 -2.222,0.995 -2.222,2.222c0,1.227 0.995,2.222 2.222,2.222c1.227,0 2.222,-0.995 2.222,-2.222"></path><path stroke="#323232" stroke-linecap="round" stroke-linejoin="round" stroke-width="1.5" d="M3.689,3.689v0c-0.918,0.918 -0.918,2.407 0,3.325v0c0.918,0.918 0.918,2.407 0,3.325v0c-0.918,0.918 -0.918,2.407 0,3.325v0c0.918,0.918 0.918,2.407 0,3.325v0c-0.918,0.918 -0.918,2.407 0,3.325v0c0.918,0.918 2.407,0.918 3.325,0v0c0.918,-0.918 2.407,-0.918 3.325,0v0c0.918,0.918 2.407,0.918 3.325,0v0c0.918,-0.918 2.407,-0.918 3.325,0v0c0.918,0.918 2.407,0.918 3.325,0v0c0.918,-0.918 0.918,-2.407 0,-3.325v0c-0.918,-0.918 -0.918,-2.407 0,-3.325v0c0.918,-0.918 0.918,-2.407 0,-3.325v0c-0.918,-0.918 -0.918,-2.407 0,-3.325v0c0.918,-0.918 0.918,-2.407 0,-3.325v0c-0.918,-0.918 -2.407,-0.918 -3.325,0v0c-0.918,0.918 -2.407,0.918 -3.325,0v0c-0.918,-0.918 -2.407,-0.918 -3.325,0v0c-0.918,0.918 -2.407,0.918 -3.325,0v0c-0.919,-0.919 -2.407,-0.919 -3.325,-1.77636e-15Z"></path></g></svg>