<svg viewBox="0 0 24 24" xmlns="http://www.w3.org/2000/svg"><g stroke-linecap="round" stroke-width="1.5" stroke="#323232" fill="none" stroke-linejoin="round"><path d="M8 6H4l-.01-.001c-.56-.01-1-.45-1-1.01 0 0 0 0 0 0v-1l0 0c-.01-.56.44-1.01.99-1.01h5"/><path d="M20 17L4 17 4 6l5 0"/><path d="M21 17L3 17"/><path d="M12 17l0 2"/><path d="M12 19a1.5 1.5 0 1 0 0 3 1.5 1.5 0 1 0 0-3Z"/><path d="M20 11l0 6"/><path d="M20.15 8.08L18.24 6.9V4.74l1.9-1.173 0-.01c.26-.17.6-.08.76.18 .05.08.08.18.08.29v3.55l0 0c0 .3-.25.55-.56.55 -.11 0-.21-.03-.3-.09Z"/><rect width="6.25" height="5.666" x="12" y="3" rx="1.25"/></g><path fill="none" d="M0 0h24v24H0Z"/></svg>