<?xml version="1.0" encoding="UTF-8"?><svg version="1.1" viewBox="0 0 24 24" xmlns="http://www.w3.org/2000/svg" xmlns:xlink="http://www.w3.org/1999/xlink"><g fill="none"><path d="M0 0h24v24h-24Z"></path><line x1="4.5" x2="6.5" y1="21" y2="21" stroke="#323232" stroke-linecap="round" stroke-linejoin="round" stroke-width="1.5"></line><line x1="17.5" x2="19.5" y1="21" y2="21" stroke="#323232" stroke-linecap="round" stroke-linejoin="round" stroke-width="1.5"></line><line x1="5.5" x2="5.5" y1="18.5" y2="21" stroke="#323232" stroke-linecap="round" stroke-linejoin="round" stroke-width="1.5"></line><line x1="18.5" x2="18.5" y1="18.5" y2="21" stroke="#323232" stroke-linecap="round" stroke-linejoin="round" stroke-width="1.5"></line><circle cx="13.5" cy="10.5" r="4" stroke="#323232" stroke-linecap="round" stroke-linejoin="round" stroke-width="1.5"></circle><line x1="6" x2="8" y1="15.5" y2="15.5" stroke="#323232" stroke-linecap="round" stroke-linejoin="round" stroke-width="1.5"></line><path stroke="#323232" stroke-linecap="round" stroke-linejoin="round" stroke-width="1.5" d="M13.677 10.323l2.20687e-09 2.21245e-09c.0975076.0977544.0973075.256046-.000446896.353553 -.0977544.0975076-.256046.0973075-.353553-.000446896 -.0973333-.0975797-.0973333-.255527 4.41373e-09-.353106v0l-4.3151e-09 4.258e-09c.0981335-.0968348.255866-.0968348.354-8.51599e-09"></path><line x1="13.5" x2="13.5" y1="3" y2="4" stroke="#323232" stroke-linecap="round" stroke-linejoin="round" stroke-width="1.5"></line><line x1="17.21" x2="16.5" y1="4.29" y2="5" stroke="#323232" stroke-linecap="round" stroke-linejoin="round" stroke-width="1.5"></line><line x1="9.79" x2="10.5" y1="4.29" y2="5" stroke="#323232" stroke-linecap="round" stroke-linejoin="round" stroke-width="1.5"></line><path stroke="#323232" stroke-linecap="round" stroke-linejoin="round" stroke-width="1.5" d="M17.5 10.5h1.5l-8.74228e-08 1.77636e-15c1.10457-4.82823e-08 2 .89543 2 2v4 0c0 1.10457-.895431 2-2 2h-14l-8.74228e-08-3.55271e-15c-1.10457-4.82823e-08-2-.895431-2-2 0 0 0 0 0 0v-4l2.30926e-14 3.01992e-07c-1.66785e-07-1.10457.89543-2 2-2h4.5"></path></g></svg>