<?xml version="1.0" encoding="UTF-8"?><svg version="1.1" viewBox="0 0 24 24" xmlns="http://www.w3.org/2000/svg" xmlns:xlink="http://www.w3.org/1999/xlink"><g fill="none"><path d="M0 0h24v24h-24Z"></path><path stroke="#323232" stroke-linecap="round" stroke-linejoin="round" stroke-width="1.5" d="M7 8v-4l1.06581e-14 1.50996e-07c-8.33927e-08-.552285.447715-1 1-1h8l-4.37114e-08 8.88178e-16c.552285-2.41411e-08 1 .447715 1 1v4"></path><path stroke="#323232" stroke-linecap="round" stroke-linejoin="round" stroke-width="1.5" d="M7 17h-2l-8.74228e-08-3.55271e-15c-1.10457-4.82823e-08-2-.895431-2-2 0 0 0 0 0 0v-5l2.30926e-14 3.01992e-07c-1.66785e-07-1.10457.89543-2 2-2h14l-8.74228e-08 1.77636e-15c1.10457-4.82823e-08 2 .89543 2 2v1"></path><path stroke="#323232" stroke-linecap="round" stroke-linejoin="round" stroke-width="1.5" d="M7 11h1"></path><path stroke="#323232" stroke-linecap="round" stroke-linejoin="round" stroke-width="1.5" d="M11 21h-3 -4.37114e-08c-.552285-2.41411e-08-1-.447715-1-1 0 0 0-3.55271e-15 0-3.55271e-15v-6h4"></path><path stroke="#323232" stroke-linecap="round" stroke-linejoin="round" stroke-width="1.5" d="M14.318 20.682l-2.58976e-07-2.58979e-07c-1.75735-1.75737-1.75733-4.60661 3.94874e-05-6.36396 1.75737-1.75735 4.60661-1.75733 6.36396 3.94874e-05 1.75733 1.75735 1.75733 4.60657-5.17951e-07 6.36392l-1.92002e-08 1.92004e-08c-1.75735 1.75737-4.60659 1.75739-6.36396 3.8931e-05 -1.29899e-05-1.29897e-05-2.59797e-05-2.59796e-05-3.89694e-05-3.89694e-05"></path><path stroke="#323232" stroke-linecap="round" stroke-linejoin="round" stroke-width="1.5" d="M20.682 14.318l-6.364 6.364"></path></g></svg>