<svg id="Layer_3" data-name="Layer 3" xmlns="http://www.w3.org/2000/svg" viewBox="0 0 24 24"><rect width="24" height="24" fill="none"/><path d="M9.41042,17.999,14.58579,18l1.2071-1.20711A1,1,0,0,1,16.5,16.5h1a1,1,0,0,1,1,1V20a1,1,0,0,1-1,1H6.5a1,1,0,0,1-1-1V17.5a1,1,0,0,1,1-1h1a1,1,0,0,1,.70792.29371Z" fill="none" stroke="#323232" stroke-linecap="round" stroke-linejoin="round" stroke-width="1.5"/><line x1="22" y1="13" x2="2" y2="13" fill="none" stroke="#323232" stroke-linecap="round" stroke-linejoin="round" stroke-width="1.5"/><path d="M5,6H19a3,3,0,0,1,3,3V19a2,2,0,0,1-2,2H4a2,2,0,0,1-2-2V9A3,3,0,0,1,5,6Z" fill="none" stroke="#323232" stroke-linecap="round" stroke-linejoin="round" stroke-width="1.5"/><path d="M7,2H17a1,1,0,0,1,1,1V6H6V3A1,1,0,0,1,7,2Z" fill="none" stroke="#323232" stroke-linecap="round" stroke-linejoin="round" stroke-width="1.5"/><line x1="6" y1="9" x2="8" y2="9" fill="none" stroke="#323232" stroke-linecap="round" stroke-linejoin="round" stroke-width="1.5"/><line x1="18.5" y1="9" x2="18.5" y2="9" fill="none" stroke="#323232" stroke-linecap="round" stroke-linejoin="round" stroke-width="1.5"/><line x1="16" y1="9" x2="16" y2="9" fill="none" stroke="#323232" stroke-linecap="round" stroke-linejoin="round" stroke-width="1.5"/></svg>