<?xml version="1.0" encoding="UTF-8"?><svg version="1.1" viewBox="0 0 24 24" xmlns="http://www.w3.org/2000/svg" xmlns:xlink="http://www.w3.org/1999/xlink"><g stroke-linecap="round" stroke-width="1.5" stroke="#323232" fill="none" stroke-linejoin="round"><path d="M7 6v-2c0-.552-.448-1-1-1h-2c-.552 0-1 .448-1 1v2c0 .552.448 1 1 1h2c.552 0 1-.448 1-1Z"></path><path d="M7.846 14v-1.846c0-.552-.448-1-1-1h-1.846c-.552 0-1 .448-1 1v1.846c0 .552.448 1 1 1h1.846c.552 0 1-.448 1-1Z"></path><path d="M14 9v-2c0-.552-.448-1-1-1h-2c-.552 0-1 .448-1 1v2c0 .552.448 1 1 1h2c.552 0 1-.448 1-1Z"></path><path d="M13 17v-3c0-.552.448-1 1-1h3v-3c0-.552.448-1 1-1h2c.552 0 1 .448 1 1v10c0 .552-.448 1-1 1h-10c-.552 0-1-.448-1-1v-2c0-.552.448-1 1-1h3Z"></path></g><rect width="24" height="24" fill="none"></rect></svg>