<svg xmlns="http://www.w3.org/2000/svg" viewBox="0 0 24 24"><g id="Layer_2" data-name="Layer 2"><path d="M20,9V5a2,2,0,0,0-2-2H5A2,2,0,0,0,3,5V19a2,2,0,0,0,2,2h5" fill="none" stroke="#323232" stroke-linecap="round" stroke-linejoin="round" stroke-width="1.5"/><path d="M7,7,8.49116,8.49116,7,9.98232" fill="none" stroke="#323232" stroke-linecap="round" stroke-linejoin="round" stroke-width="1.5"/><path d="M10.5,11H12" fill="none" stroke="#323232" stroke-linecap="round" stroke-linejoin="round" stroke-width="1.5"/><path d="M16.94935,13.55758a1,1,0,0,1,1.79356,0L19.2517,14.589a.99993.99993,0,0,0,.753.54717l1.13813.16542a1,1,0,0,1,.55438,1.70539l-.8239.80362a.99994.99994,0,0,0-.28735.88489l.1944,1.13328A1,1,0,0,1,19.32954,20.883l-1.0182-.53514a.99992.99992,0,0,0-.93042,0l-1.0182.53514A1,1,0,0,1,14.912,19.82877l.1944-1.13328a.99994.99994,0,0,0-.28735-.88489l-.8239-.80362a1,1,0,0,1,.55438-1.70539l1.13813-.16542a.99993.99993,0,0,0,.753-.54717Z" fill="none" stroke="#323232" stroke-linecap="round" stroke-linejoin="round" stroke-width="1.5"/><path d="M24,24H0V0H24Z" fill="none"/></g></svg>