<?xml version="1.0" encoding="UTF-8"?><svg version="1.1" viewBox="0 0 24 24" xmlns="http://www.w3.org/2000/svg" xmlns:xlink="http://www.w3.org/1999/xlink"><g stroke-linecap="round" stroke-width="1.5" stroke="#323232" fill="none" stroke-linejoin="round"><path d="M7 3h10l-1.74846e-07 3.55271e-15c2.20914-9.65645e-08 4 1.79086 4 4v10 0c0 2.20914-1.79086 4-4 4h-10l-1.74846e-07-3.55271e-15c-2.20914-9.65645e-08-4-1.79086-4-4 0 0 0 0 0 0v-10l4.52971e-14 6.03983e-07c-3.33571e-07-2.20914 1.79086-4 4-4Z"></path><line x1="12" x2="17" y1="12" y2="12"></line><path d="M15 7h2"></path><path d="M7 7h5"></path><path d="M7 12h2"></path><path d="M7 17h5"></path><path d="M15 17h2"></path></g><path fill="none" d="M0 0h24v24h-24Z"></path></svg>