<svg id="Layer_3" data-name="Layer 3" xmlns="http://www.w3.org/2000/svg" viewBox="0 0 24 24"><rect width="24" height="24" fill="none"/><path d="M7,20a2.5,2.5,0,0,1-2.5-2.5v-3A2.5,2.5,0,0,0,2,12,2.5,2.5,0,0,0,4.5,9.5v-3A2.5,2.5,0,0,1,7,4" fill="none" stroke="#323232" stroke-linecap="round" stroke-linejoin="round" stroke-width="1.5"/><path d="M11.99942,10.31358l.00116,3.9278" fill="none" stroke="#323232" stroke-linecap="round" stroke-linejoin="round" stroke-width="1.5"/><path d="M10.03609,12.27806l3.92781-.00116" fill="none" stroke="#323232" stroke-linecap="round" stroke-linejoin="round" stroke-width="1.5"/><path d="M17,4a2.5,2.5,0,0,1,2.5,2.5v3A2.5,2.5,0,0,0,22,12a2.5,2.5,0,0,0-2.5,2.5v3A2.5,2.5,0,0,1,17,20" fill="none" stroke="#323232" stroke-linecap="round" stroke-linejoin="round" stroke-width="1.5"/></svg>