<svg id="Layer_3" data-name="Layer 3" xmlns="http://www.w3.org/2000/svg" viewBox="0 0 24 24"><rect width="24" height="24" fill="none"/><path d="M7,20a2.5,2.5,0,0,1-2.5-2.5v-3A2.5,2.5,0,0,0,2,12,2.5,2.5,0,0,0,4.5,9.5v-3A2.5,2.5,0,0,1,7,4" fill="none" stroke="#323232" stroke-linecap="round" stroke-linejoin="round" stroke-width="1.5"/><path d="M13.38828,10.88839l-2.77656,2.77819" fill="none" stroke="#323232" stroke-linecap="round" stroke-linejoin="round" stroke-width="1.5"/><path d="M10.6109,10.8892l2.7782,2.77656" fill="none" stroke="#323232" stroke-linecap="round" stroke-linejoin="round" stroke-width="1.5"/><path d="M17,4a2.5,2.5,0,0,1,2.5,2.5v3A2.5,2.5,0,0,0,22,12a2.5,2.5,0,0,0-2.5,2.5v3A2.5,2.5,0,0,1,17,20" fill="none" stroke="#323232" stroke-linecap="round" stroke-linejoin="round" stroke-width="1.5"/></svg>