<?xml version="1.0" encoding="UTF-8"?><svg version="1.1" viewBox="0 0 24 24" xmlns="http://www.w3.org/2000/svg" xmlns:xlink="http://www.w3.org/1999/xlink"><g fill="none"><rect width="24" height="24"></rect><path stroke="#323232" stroke-linecap="round" stroke-linejoin="round" stroke-width="1.5" d="M7 20l-1.09278e-07-3.55271e-15c-1.38071-6.03528e-08-2.5-1.11929-2.5-2.5 0 0 0 0 0 0v-3l2.66454e-15 1.09278e-07c0-1.38071-1.11929-2.5-2.5-2.5l7.94663e-08-5.32907e-15c1.38071-1.04241e-07 2.5-1.11929 2.5-2.5v-3l2.66454e-14-2.98023e-07c2.08482e-07-1.38071 1.11929-2.5 2.5-2.5"></path><path stroke="#323232" stroke-linecap="round" stroke-linejoin="round" stroke-width="1.5" d="M17 4l-1.09278e-07 3.55271e-15c1.38071-6.03528e-08 2.5 1.11929 2.5 2.5v3l2.84217e-14-2.68211e-07c-2.08482e-07 1.38071 1.11929 2.5 2.5 2.5 3.38653e-08 5.32907e-15 7.54132e-08 1.06581e-14 1.09278e-07 1.42109e-14l-1.09278e-07 3.55271e-15c-1.38071 6.03528e-08-2.5 1.11929-2.5 2.5 0 0 0 1.77636e-15 0 1.77636e-15v3l3.55271e-15-1.09278e-07c0 1.38071-1.11929 2.5-2.5 2.5"></path><path stroke="#323232" stroke-linecap="round" stroke-linejoin="round" stroke-width="1.5" d="M8.675 12.082v0c0-.0276142-.0223858-.05-.05-.05 -.0276142 0-.05.0223858-.05.05 0 .0276142.0223858.05.05.05h-2.18557e-09c.0276142 1.20706e-09.05-.0223858.05-.05 0 0 0-1.77636e-15 0-1.77636e-15"></path><path stroke="#323232" stroke-linecap="round" stroke-linejoin="round" stroke-width="1.5" d="M12.05 12.073v4.27737e-09c0-.0276142-.0223858-.05-.05-.05 -.0276142 0-.05.0223858-.05.05v3.27242e-09c4.16963e-09.0276142.0223858.05.05.05 .0276142-4.16963e-09.05-.0223858.05-.05"></path><path stroke="#323232" stroke-linecap="round" stroke-linejoin="round" stroke-width="1.5" d="M15.05 12.073v4.27737e-09c0-.0276142-.0223858-.05-.05-.05 -.0276142 0-.05.0223858-.05.05v3.27242e-09c4.16963e-09.0276142.0223858.05.05.05 .0276142-4.16963e-09.05-.0223858.05-.05"></path></g></svg>