<?xml version="1.0" encoding="UTF-8"?><svg version="1.1" viewBox="0 0 24 24" xmlns="http://www.w3.org/2000/svg" xmlns:xlink="http://www.w3.org/1999/xlink"><g stroke-linecap="round" stroke-width="1.5" stroke="#323232" fill="none" stroke-linejoin="round"><path d="M18 17h2c.552 0 1 .448 1 1v2c0 .552-.448 1-1 1h-2c-.552 0-1-.448-1-1v-2c0-.552.448-1 1-1Z"></path><path d="M4 3h2c.552 0 1 .448 1 1v2c0 .552-.448 1-1 1h-2c-.552 0-1-.448-1-1v-2c0-.552.448-1 1-1Z"></path><path d="M11 10h2c.552 0 1 .448 1 1v2c0 .552-.448 1-1 1h-2c-.552 0-1-.448-1-1v-2c0-.552.448-1 1-1Z"></path><path d="M11 5h8c1.105 0 2 .895 2 2v3c0 1.105-.895 2-2 2h-2"></path><path d="M13 19h-8c-1.105 0-2-.895-2-2v-3c0-1.105.895-2 2-2h2"></path></g><rect width="24" height="24" fill="none" transform="matrix(-1 -1.22465e-16 1.22465e-16 -1 24 24)"></rect></svg>