<svg viewBox="0 0 24 24" xmlns="http://www.w3.org/2000/svg"><path fill="none" stroke="#323232" stroke-linecap="round" stroke-linejoin="round" stroke-width="1.5" d="M19 6.94h-6.471l-.01-.001c-.34-.01-.65-.17-.83-.44l-1.41-2.07 -.01-.01c-.19-.28-.5-.44-.83-.44h-4.48l-.01-.001c-1.11-.01-2 .89-2 1.99 -.01 0-.01 0 0 0v12l-.01 0c-.01 1.1.89 1.99 1.99 1.99 0 0 0-.01 0-.01h13.99l0 0c1.1 0 1.99-.9 1.99-2 0-.01 0-.01-.001-.01V8.87l0 0c0-1.11-.9-2-2-2.01Z"/><g fill="none"><path d="M0 0h24v24H0Z"/><g stroke-linecap="round" stroke-width="1.5" stroke="#323232" fill="none" stroke-linejoin="round"><path d="M13 16h2"/><path d="M9 11l2 2 -2 2"/></g></g></svg>