<svg id="Layer_3" data-name="Layer 3" xmlns="http://www.w3.org/2000/svg" viewBox="0 0 24 24"><path d="M24,0H0V24H24Z" fill="none"/><polyline points="6.516 18.5 8.016 17 6.516 15.5" fill="none" stroke="#323232" stroke-linecap="round" stroke-linejoin="round" stroke-width="1.5"/><path d="M9.04544,13H4.95456A1.95456,1.95456,0,0,0,3,14.95456v4.09088A1.95456,1.95456,0,0,0,4.95455,21H9.04544A1.95456,1.95456,0,0,0,11,19.04544V14.95456A1.95456,1.95456,0,0,0,9.04544,13Z" fill="none" stroke="#323232" stroke-linecap="round" stroke-linejoin="round" stroke-width="1.5"/><path d="M21,13v5a3,3,0,0,1-3,3H14" fill="none" stroke="#323232" stroke-linecap="round" stroke-linejoin="round" stroke-width="1.5"/><path d="M14.5,10v1.499a.5.5,0,0,0,.81572.38771L17.63263,10H20a2,2,0,0,0,2-2V4a2,2,0,0,0-2-2H13a2,2,0,0,0-2,2V8a2,2,0,0,0,2,2Z" fill="none" stroke="#323232" stroke-linecap="round" stroke-linejoin="round" stroke-width="1.5"/><path d="M3,10V6A3,3,0,0,1,6,3H8" fill="none" stroke="#323232" stroke-linecap="round" stroke-linejoin="round" stroke-width="1.5"/></svg>