<?xml version="1.0" encoding="UTF-8"?><svg version="1.1" viewBox="0 0 24 24" xmlns="http://www.w3.org/2000/svg" xmlns:xlink="http://www.w3.org/1999/xlink"><g fill="none"><path d="M0 0h24v24h-24v-24Z"></path><path stroke="#323232" stroke-linecap="round" stroke-linejoin="round" stroke-width="1.5" d="M15.375 16h-10.75c-.898 0-1.625-.727-1.625-1.625v-9.75c0-.898.727-1.625 1.625-1.625h10.75c.898 0 1.625.727 1.625 1.625v9.75c0 .898-.727 1.625-1.625 1.625Z"></path><path stroke="#323232" stroke-linecap="round" stroke-linejoin="round" stroke-width="1.5" d="M11 12h2"></path><path stroke="#323232" stroke-linecap="round" stroke-linejoin="round" stroke-width="1.5" d="M7 7l2 2 -2 2"></path><path stroke="#323232" stroke-linecap="round" stroke-linejoin="round" stroke-width="1.5" d="M17 8h2.375c.898 0 1.625.727 1.625 1.625v9.75c0 .898-.727 1.625-1.625 1.625h-11.75c-.898 0-1.625-.727-1.625-1.625v-3.375"></path></g></svg>