<?xml version="1.0" encoding="UTF-8"?><svg version="1.1" viewBox="0 0 24 24" xmlns="http://www.w3.org/2000/svg" xmlns:xlink="http://www.w3.org/1999/xlink"><g fill="none"><path d="M0 0h24v24h-24Z"></path><line x1="3.1" x2="20.76" y1="8" y2="8" stroke="#323232" stroke-linecap="round" stroke-linejoin="round" stroke-width="1.5"></line><line x1="12" x2="12" y1="21" y2="8" stroke="#323232" stroke-linecap="round" stroke-linejoin="round" stroke-width="1.5"></line><path stroke="#323232" stroke-linecap="round" stroke-linejoin="round" stroke-width="1.5" d="M7 3h10l1.28392e-08 9.9476e-13c2.20914.000171081 3.99986 1.79117 3.99969 4.00031 -1.4371e-05.18557-.0129423.370915-.0386902.55469l-1.1 7.832 1.73116e-08-1.23209e-07c-.183842 1.30842-1.00195 2.44165-2.186 3.028l-4.8 2.379 -3.51843e-08 1.76044e-08c-.549526.274954-1.19647.274954-1.746-3.52088e-08l-4.8-2.379 1.6707e-07 8.27425e-08c-1.18431-.586541-2.00247-1.7202-2.186-3.029l-1.1-7.831 -3.6144e-08-2.57976e-07c-.306519-2.18777 1.21854-4.20979 3.40631-4.51631 .182454-.0255629.366457-.0384897.550693-.0386882Z"></path></g></svg>