<svg viewBox="0 0 24 24" xmlns="http://www.w3.org/2000/svg"><g fill="none"><path d="M0 0h24v24H0Z"/><g stroke-linecap="round" stroke-width="1.5" stroke="#323232" fill="none" stroke-linejoin="round"><path d="M18 17H6l-.01-.001c-1.66-.01-3-1.35-3-3 0 0 0-.001 0-.001v-8l0 0c-.01-1.66 1.34-3.01 2.99-3.01h12l-.01 0c1.65-.01 3 1.34 3 3v8l0 0c0 1.65-1.35 3-3 3 -.01 0-.01 0-.01-.001Z"/><path d="M14 17l.5 4"/><path d="M10 17l-.5 4"/><path d="M7.2 21h9.6"/><path d="M11 12h2"/><path d="M7 7l2 2 -2 2"/></g></g></svg>