<?xml version="1.0" encoding="UTF-8"?><svg version="1.1" viewBox="0 0 24 24" xmlns="http://www.w3.org/2000/svg" xmlns:xlink="http://www.w3.org/1999/xlink"><g stroke-linecap="round" stroke-width="1.5" stroke="#323232" fill="none" stroke-linejoin="round"><path d="M6.5 2.5l1.5 1.5 -1.5 1.5"></path><path d="M8 4h-2c-1.657 0-3 1.343-3 3"></path><path d="M17.5 21.5l-1.5-1.5 1.5-1.5"></path><path d="M16 20h2c1.657 0 3-1.343 3-3"></path><path d="M11 10v-4c0-1.105.895-2 2-2h6c1.105 0 2 .895 2 2v6c0 1.105-.895 2-2 2h-6"></path><path d="M11.093 20h-6.186c-1.053 0-1.907-.854-1.907-1.907v-6.186c0-1.053.854-1.907 1.907-1.907h6.186c1.053 0 1.907.854 1.907 1.907v6.186c0 1.053-.854 1.907-1.907 1.907Z"></path><polyline points="7.333,13 9.333,15 7.333,17"></polyline></g><path fill="none" d="M0 0h24v24h-24v-24Z"></path></svg>