<?xml version="1.0" encoding="UTF-8"?><svg version="1.1" viewBox="0 0 24 24" xmlns="http://www.w3.org/2000/svg" xmlns:xlink="http://www.w3.org/1999/xlink"><g fill="none"><path d="M0 0h24v24h-24v-24Z"></path><path stroke="#323232" stroke-linecap="round" stroke-linejoin="round" stroke-width="1.5" d="M5 12v-7c0-1.105.895-2 2-2h12c1.105 0 2 .895 2 2v11c0 1.105-.895 2-2 2h-7"></path><path stroke="#323232" stroke-linecap="round" stroke-linejoin="round" stroke-width="1.5" d="M5 8h16"></path><path stroke="#323232" stroke-linecap="round" stroke-linejoin="round" stroke-width="1.5" d="M10.284 21h-5.568c-.948 0-1.716-.768-1.716-1.716v-5.568c0-.948.768-1.716 1.716-1.716h5.568c.948 0 1.716.768 1.716 1.716v5.568c0 .948-.768 1.716-1.716 1.716Z"></path><polyline stroke="#323232" stroke-linecap="round" stroke-linejoin="round" stroke-width="1.5" points="6.9,14.7 8.7,16.5 6.9,18.3"></polyline></g></svg>