<svg id="Layer_3" data-name="Layer 3" xmlns="http://www.w3.org/2000/svg" viewBox="0 0 24 24"><path d="M20,21H6a2,2,0,0,1-2-2H4a2,2,0,0,1,2-2H20" fill="none" stroke="#323232" stroke-linecap="round" stroke-linejoin="round" stroke-width="1.5"/><line x1="19" y1="21" x2="19" y2="17" fill="none" stroke="#323232" stroke-linecap="round" stroke-linejoin="round" stroke-width="1.5"/><path d="M20,17V5a2,2,0,0,0-2-2H6A2,2,0,0,0,4,5V19" fill="none" stroke="#323232" stroke-linecap="round" stroke-linejoin="round" stroke-width="1.5"/><path d="M15,9.62875V12a1,1,0,0,1-1,1H10a1,1,0,0,1-1-1V9.57113a1,1,0,0,1,.37532-.78088l1.964-1.57113a1,1,0,0,1,1.24936,0l2.036,1.62875A1,1,0,0,1,15,9.62875Z" fill="none" stroke="#323232" stroke-linecap="round" stroke-linejoin="round" stroke-width="1.5"/><rect width="24" height="24" fill="none"/></svg>