<svg id="Layer_3" data-name="Layer 3" xmlns="http://www.w3.org/2000/svg" viewBox="0 0 24 24"><path d="M24,23.99941l0-24-24,0,0,24Z" fill="none"/><line x1="16.50002" y1="15.5" x2="7.50002" y2="15.5" fill="none" stroke="#323232" stroke-linecap="round" stroke-linejoin="round" stroke-width="1.5"/><line x1="16.50002" y1="8.5" x2="14.50002" y2="8.5" fill="none" stroke="#323232" stroke-linecap="round" stroke-linejoin="round" stroke-width="1.5"/><line x1="16.50002" y1="12" x2="14.50002" y2="12" fill="none" stroke="#323232" stroke-linecap="round" stroke-linejoin="round" stroke-width="1.5"/><path d="M9.26465,11.9767h0A2.19516,2.19516,0,0,1,7.5,9.82417V9.15A1.15,1.15,0,0,1,8.65,8h1.7A1.15,1.15,0,0,1,11.5,9.15v.67417a2.19514,2.19514,0,0,1-1.7646,2.15251h0A1.2,1.2,0,0,1,9.26465,11.9767Z" fill="none" stroke="#323232" stroke-linecap="round" stroke-linejoin="round" stroke-width="1.5"/><rect x="3.00002" y="3" width="18" height="18" rx="5" transform="translate(24.00002 -0.00002) rotate(90)" stroke-width="1.5" stroke="#323232" stroke-linecap="round" stroke-linejoin="round" fill="none"/></svg>