<?xml version="1.0" encoding="UTF-8"?><svg version="1.1" viewBox="0 0 24 24" xmlns="http://www.w3.org/2000/svg" xmlns:xlink="http://www.w3.org/1999/xlink"><!--Generated by IJSVG (https://github.com/iconjar/IJSVG)--><g stroke-linecap="round" stroke-width="1.5" stroke="#323232" fill="none" stroke-linejoin="round"><path d="M18.364,5.636c3.515,3.515 3.515,9.214 0,12.728c-3.515,3.515 -9.214,3.515 -12.728,0c-3.514,-3.515 -3.515,-9.214 0,-12.728c3.515,-3.514 9.213,-3.515 12.728,-8.88178e-16"></path><path d="M6.475,14v-3.996v-0.004"></path><path d="M6.475,10h2.953c0.578,0 1.047,0.469 1.047,1.047v0.406c0,0.578 -0.469,1.047 -1.047,1.047h-2.953"></path><path d="M13.196,14v-4l2.152,1.833l2.152,-1.833v4"></path></g><path fill="none" d="M0,0h24v24h-24Z"></path></svg>