<svg id="Layer_3" data-name="Layer 3" xmlns="http://www.w3.org/2000/svg" viewBox="0 0 24 24"><path d="M10.33,20.56A4.0141,4.0141,0,0,1,8.5,21C5.46,21,3,17.64,3,13.5S5.46,6,8.5,6a4.0141,4.0141,0,0,1,1.83.44" fill="none" stroke="#323232" stroke-linecap="round" stroke-linejoin="round" stroke-width="1.5"/><path d="M13.67,6.44A4.0141,4.0141,0,0,1,15.5,6C18.54,6,21,9.36,21,13.5S18.54,21,15.5,21a4.0141,4.0141,0,0,1-1.83-.44" fill="none" stroke="#323232" stroke-linecap="round" stroke-linejoin="round" stroke-width="1.5"/><ellipse cx="12" cy="13.5" rx="5.02232" ry="7.5" fill="none" stroke="#323232" stroke-linecap="round" stroke-linejoin="round" stroke-width="1.5"/><path d="M12,6V5.5A2.5,2.5,0,0,1,14.5,3h.56667" fill="none" stroke="#323232" stroke-linecap="round" stroke-linejoin="round" stroke-width="1.5"/><rect width="24" height="24" fill="none"/></svg>