<?xml version="1.0" encoding="UTF-8"?><svg version="1.1" viewBox="0 0 24 24" xmlns="http://www.w3.org/2000/svg" xmlns:xlink="http://www.w3.org/1999/xlink"><g stroke-linecap="round" stroke-width="1.5" stroke="#323232" fill="none" stroke-linejoin="round"><path d="M5.167 10.498c-.437-.089-.911-.072-1.4.091 -.827.276-1.482.987-1.687 1.835 -.422 1.743.887 3.299 2.559 3.299 .181 0 .357-.019.528-.053v3.22c-8.88178e-16 1.165.945 2.11 2.111 2.11h11.611c1.166 0 2.111-.945 2.111-2.111v-11.611c0-1.166-.945-2.111-2.111-2.111h-3.22c.089-.437.072-.911-.091-1.4 -.277-.827-.988-1.482-1.835-1.687 -1.743-.422-3.299.887-3.299 2.559 0 .181.019.357.053.528h-3.22c-1.166 0-2.111.945-2.111 2.111v3.22Z"></path><path d="M15.501 11.093l-2.813 2.813 -1.688-1.687"></path></g><path fill="none" d="M0 0h24v24h-24v-24Z"></path></svg>