<svg id="Layer_3" data-name="Layer 3" xmlns="http://www.w3.org/2000/svg" viewBox="0 0 24 24"><g id="Layer_22" data-name="Layer 22"><path d="M7,6v8a3,3,0,0,0,3,3h8a3,3,0,0,0,3-3V6a3,3,0,0,0-3-3H10A3,3,0,0,0,7,6Z" fill="none" stroke="#323232" stroke-linecap="round" stroke-linejoin="round" stroke-width="1.5"/><path d="M15.8,8.61278A1.72247,1.72247,0,0,0,13.98563,7,1.75822,1.75822,0,0,0,12.2,8.35931" fill="none" stroke="#323232" stroke-linecap="round" stroke-linejoin="round" stroke-width="1.5"/><path d="M15.8,8.61279h0a1.56436,1.56436,0,0,1-.80464,1.3675L14,10.53329" fill="none" stroke="#323232" stroke-linecap="round" stroke-linejoin="round" stroke-width="1.5"/><path d="M14.07509,12.92509A.075.075,0,1,1,14,12.85a.075.075,0,0,1,.0751.07509" fill="none" stroke="#323232" stroke-linecap="round" stroke-linejoin="round" stroke-width="1.5"/><path d="M17,17v1a3,3,0,0,1-3,3H6a3,3,0,0,1-3-3V10A3,3,0,0,1,6,7H7" fill="none" stroke="#323232" stroke-linecap="round" stroke-linejoin="round" stroke-width="1.5"/><path d="M0,24V0H24V24Z" fill="none"/></g></svg>