<svg id="Layer_3" data-name="Layer 3" xmlns="http://www.w3.org/2000/svg" viewBox="0 0 24 24"><path d="M0,0H24V24H0Z" fill="none"/><path d="M13,20.938A8.15936,8.15936,0,0,1,12,21a9,9,0,1,1,9-9,8.15936,8.15936,0,0,1-.062,1" fill="none" stroke="#323232" stroke-linecap="round" stroke-linejoin="round" stroke-width="1.5"/><path d="M20,17l-2.5,2.5L16,18" fill="none" stroke="#323232" stroke-linecap="round" stroke-linejoin="round" stroke-width="1.5"/><path d="M12,12.71108l1.327-.73725A2.08588,2.08588,0,0,0,14.4,10.15038,2.29663,2.29663,0,0,0,11.98085,8,2.34428,2.34428,0,0,0,9.6,9.81241" fill="none" stroke="#323232" stroke-linecap="round" stroke-linejoin="round" stroke-width="1.5"/><path d="M12.10013,15.90013A.1.1,0,1,1,12,15.8a.1.1,0,0,1,.10013.10013" fill="none" stroke="#323232" stroke-linecap="round" stroke-linejoin="round" stroke-width="1.5"/></svg>