<svg viewBox="0 0 24 24" xmlns="http://www.w3.org/2000/svg"><g stroke-linecap="round" stroke-width="1.5" stroke="#323232" fill="none" stroke-linejoin="round"><path d="M20.21 13.21l0-.01c1.77-3.43.44-7.65-2.99-9.43 -2.02-1.05-4.43-1.05-6.45 0"/><path d="M10 16.86l-.01-.001c-.03 0-.05.02-.05.05 0 .02.02.05.05.05 .02-.01.05-.03.05-.05V16.9c0-.03-.03-.05-.05-.05 0 0-.001 0-.001 0"/><path d="M8.2 12.2l-.01 0c.18-.8.9-1.35 1.72-1.32l-.01 0c.91-.06 1.69.64 1.75 1.55 0 1.16-1.68 1.55-1.68 2.33"/><rect width="14" height="14" x="3" y="7" rx="6.999"/></g><path fill="none" d="M0 0h24v24H0Z"/></svg>