<?xml version="1.0" encoding="UTF-8"?><svg version="1.1" viewBox="0 0 24 24" xmlns="http://www.w3.org/2000/svg" xmlns:xlink="http://www.w3.org/1999/xlink"><g stroke-linecap="round" stroke-width="1.5" stroke="#323232" fill="none" stroke-linejoin="round"><path d="M14.734 7.262l-1.123 1.946 6.22167e-09-1.10966e-08c-.0636883.113591-.0282447.257115.081.328l3.52545e-08 2.39428e-08c.749028.508697 1.2271 1.3295 1.3 2.232l-2.18627e-09-8.64363e-08c.00319837.126452.105525.227897.232.23h2.076c.467 0 .7-.239.679-.523l1.59254e-07 1.81027e-06c-.155275-1.76504-1.08376-3.37086-2.536-4.386l1.00794e-08 6.58556e-09c-.231137-.151017-.540931-.0861038-.692.145Z"></path><path d="M9.266 7.262l1.24 2.154 -1.93235e-07 1.10273e-07c-.928273.529737-1.50263 1.51522-1.506 2.584h-2.477 -2.18557e-08c-.276142-1.20706e-08-.5-.223858-.5-.5 0 0 0-1.77636e-15 0-1.77636e-15 0-.008 0-.016 0-.024l3.37472e-08-3.83475e-07c.155308-1.76479 1.08335-3.37047 2.535-4.386l5.64089e-09-3.67678e-09c.231339-.150788.541113-.0854893.691902.145849 3.27632e-05 5.02651e-05 6.55173e-05.000100536 9.82623e-05.000150813Z"></path><path d="M14.735 16.735l-1.009-1.747 1.86412e-08 3.38256e-08c-.117192-.212652-.373122-.306493-.6-.22l-2.20166e-07 9.39854e-08c-.719269.307045-1.53273.307045-2.252-1.87971e-07l-6.16557e-09-2.35051e-09c-.226878-.0864931-.482808.00734791-.6.22l-1.009 1.747 -9.84547e-09 1.65692e-08c-.140961.237228-.0630868.543802.174.685l.026.015 3.25941e-07 1.53022e-07c1.60401.75305 3.45999.75305 5.064-3.06045e-07l2.10325e-08-1.0564e-08c.246765-.123942.346332-.42446.22239-.671225 -.000129863-.000258553-.00025995-.000516993-.000390262-.00077532Z"></path><path d="M12.25 12v0c0 .138071-.111929.25-.25.25 -.138071 0-.25-.111929-.25-.25 0-.138071.111929-.25.25-.25h-1.09278e-08c.138071-6.03528e-09.25.111929.25.25v0"></path><path d="M12 21v0l-3.93403e-07-7.10543e-15c-4.97056-2.1727e-07-9-4.02944-9-9 0 0 0-5.32907e-15 0-5.32907e-15h-8.88178e-15l1.03029e-13 1.35896e-06c-7.50534e-07-4.97056 4.02944-9 9-9v0l-3.93403e-07 8.88178e-15c4.97056-2.1727e-07 9 4.02944 9 9v0l3.55271e-14 7.86805e-07c0 4.97056-4.02944 9-9 9Z"></path></g><path fill="none" d="M0 0h24v24h-24Z"></path></svg>