<?xml version="1.0" encoding="UTF-8"?><svg version="1.1" viewBox="0 0 24 24" xmlns="http://www.w3.org/2000/svg" xmlns:xlink="http://www.w3.org/1999/xlink"><!--Generated by IJSVG (https://github.com/iconjar/IJSVG)--><g stroke-linecap="round" stroke-width="1.5" stroke="#323232" fill="none" stroke-linejoin="round"><path d="M17.896,18.913l1.969,1.026c0.383,0.2 0.831,-0.123 0.758,-0.546l-0.376,-2.175l1.593,-1.54c0.31,-0.3 0.139,-0.823 -0.29,-0.885l-2.201,-0.318l-0.985,-1.981c-0.192,-0.386 -0.746,-0.386 -0.937,0l-0.985,1.981l-2.201,0.318c-0.428,0.062 -0.6,0.585 -0.29,0.885l1.593,1.54l-0.376,2.175c-0.073,0.423 0.375,0.747 0.758,0.546l1.969,-1.026"></path><path d="M11.999,10.707l1.969,1.026c0.383,0.2 0.831,-0.123 0.758,-0.546l-0.376,-2.175l1.593,-1.54c0.31,-0.3 0.139,-0.823 -0.29,-0.885l-2.2,-0.317l-0.985,-1.981c-0.192,-0.386 -0.746,-0.386 -0.937,0l-0.984,1.981l-2.202,0.318c-0.428,0.062 -0.6,0.585 -0.29,0.885l1.593,1.54l-0.376,2.175c-0.073,0.423 0.375,0.747 0.758,0.546l1.969,-1.026"></path><path d="M6.102,18.913l1.969,1.026c0.383,0.2 0.831,-0.123 0.758,-0.546l-0.376,-2.175l1.593,-1.54c0.31,-0.3 0.139,-0.823 -0.29,-0.885l-2.201,-0.318l-0.985,-1.981c-0.192,-0.386 -0.746,-0.386 -0.937,0l-0.985,1.981l-2.201,0.318c-0.428,0.062 -0.6,0.585 -0.29,0.885l1.593,1.54l-0.376,2.175c-0.073,0.423 0.375,0.747 0.758,0.546l1.969,-1.026"></path></g><path fill="none" d="M0,0h24v24h-24Z"></path></svg>