<svg viewBox="0 0 24 24" xmlns="http://www.w3.org/2000/svg"><g stroke-linecap="round" stroke-width="1.5" stroke="#323232" fill="none" stroke-linejoin="round"><path d="M4.5 16.5l3 3"/><path d="M10.09 16.91L6 21"/><path d="M7.09 13.91L3 18"/><path d="M9.13 10.48l-1.62 1.61 0-.01c-.71.7-.71 1.84-.01 2.55 0 0 0 0 0 0l1.82 1.82 0 0c.7.7 1.84.7 2.55-.01l1.61-1.62"/></g><g transform="translate(-2.91991 12.8494)"><rect width="7.699" height="14.299" x="10.2" y="2.799" rx="2" fill="none" stroke="#323232" stroke-linecap="round" stroke-linejoin="round" stroke-width="1.5" transform="matrix(.7071-.70711.7071.7071 0 0)"/></g><path fill="none" stroke="#323232" stroke-linecap="round" stroke-linejoin="round" stroke-width="1.5" d="M17.03 12.93l-5.96-5.96"/><path fill="none" d="M0 0h24v24H0Z"/></svg>