<svg viewBox="0 0 24 24" xmlns="http://www.w3.org/2000/svg"><g fill="none"><path d="M0 0h24v24H0Z"/><g stroke-linecap="round" stroke-width="1.5" stroke="#323232" fill="none" stroke-linejoin="round"><path d="M6.34 8.72c-2.71.7-4.48 1.9-4.48 3.27 0 2.17 4.53 3.94 10.13 3.94 .76 0 1.5-.04 2.21-.1"/><path d="M9.78 15.84c-.42-.59-.82-1.22-1.2-1.88C5.78 9.11 5.03 4.29 6.92 3.2c1.17-.69 3.1.25 5.06 2.23"/><path d="M6.33 15.27c-.74 2.69-.59 4.82.59 5.5 1.88 1.08 5.68-1.96 8.48-6.81 .38-.67.72-1.33 1.02-1.98"/><path d="M12 18.54c1.96 1.98 3.88 2.92 5.06 2.23 1.88-1.09 1.14-5.91-1.66-10.76 -.39-.67-.79-1.29-1.2-1.88"/><path d="M17.66 15.27c2.69-.71 4.47-1.91 4.47-3.28 0-2.18-4.54-3.95-10.14-3.95 -.77 0-1.51.03-2.22.09"/><path d="M7.56 12c.3-.66.64-1.31 1.02-1.98 2.79-4.85 6.59-7.9 8.48-6.81 1.17.68 1.33 2.81.59 5.5"/><path d="M12.25 12l-.01 0c-.01.13-.12.24-.26.24 -.14-.01-.25-.12-.25-.26s.11-.25.24-.25l-.01 0c.13-.01.25.11.25.24 0 0 0 0 0 0"/></g></g></svg>