<svg viewBox="0 0 24 24" xmlns="http://www.w3.org/2000/svg"><g fill="none"><path d="M24 24H0V0h24Z"/><g stroke-linecap="round" stroke-width="1.5" stroke="#323232" fill="none" stroke-linejoin="round"><path d="M15.75 10h-7.5"/><path d="M8 3h8l-.01 0c2.76-.01 5 2.23 5 4.99v8 0c0 2.76-2.24 5-5 5 0 0-.001 0-.001 0h-8l-.01-.001c-2.77-.01-5-2.24-5-5.01 0 0 0-.001 0-.001v-8l0 0C2.96 5.2 5.2 2.96 7.96 2.96Z"/><path d="M8.25 10a2.25 2.25 0 1 0 0 4.5 2.25 2.25 0 1 0 0-4.5Z"/><path d="M15.75 10a2.25 2.25 0 1 0 0 4.5 2.25 2.25 0 1 0 0-4.5Z"/></g></g></svg>