<?xml version="1.0" encoding="UTF-8"?><svg version="1.1" viewBox="0 0 24 24" xmlns="http://www.w3.org/2000/svg" xmlns:xlink="http://www.w3.org/1999/xlink"><g fill="none"><path d="M0 0h24v24h-24v-24Z"></path><path stroke="#323232" stroke-linecap="round" stroke-linejoin="round" stroke-width="1.5" d="M8 15h8"></path><path stroke="#323232" stroke-linecap="round" stroke-linejoin="round" stroke-width="1.5" d="M13.25 8.5l-2.5 2.5"></path><path stroke="#323232" stroke-linecap="round" stroke-linejoin="round" stroke-width="1.5" d="M13.25 11l-2.5-2.5"></path><path stroke="#323232" stroke-linecap="round" stroke-linejoin="round" stroke-width="1.5" d="M4 4.778v14.722c0 .743.782 1.227 1.447.894l.771-.386c.282-.141.613-.141.894 0l1.773.886c.281.141.613.141.894 0l1.773-.886c.281-.141.613-.141.894 0l1.773.886c.282.141.613.141.895 0l1.771-.886c.282-.141.613-.141.895 0l.772.386c.666.333 1.448-.151 1.448-.894v-14.722c0-.982-.796-1.778-1.778-1.778h-12.444c-.982 0-1.778.796-1.778 1.778Z"></path></g></svg>