<?xml version="1.0" encoding="UTF-8"?><svg version="1.1" viewBox="0 0 24 24" xmlns="http://www.w3.org/2000/svg" xmlns:xlink="http://www.w3.org/1999/xlink"><g fill="none"><path d="M0 0h24v24h-24v-24Z"></path><path stroke="#323232" stroke-linecap="round" stroke-linejoin="round" stroke-width="1.5" d="M16 8h-8"></path><path stroke="#323232" stroke-linecap="round" stroke-linejoin="round" stroke-width="1.5" d="M16 12h-8"></path><path stroke="#323232" stroke-linecap="round" stroke-linejoin="round" stroke-width="1.5" d="M16 16h-8"></path><path stroke="#323232" stroke-linecap="round" stroke-linejoin="round" stroke-width="1.5" d="M12.447 3.992l1.773-.886c.281-.141.613-.141.894 0l1.773.886c.282.141.613.141.894 0l.771-.386c.666-.333 1.448.15 1.448.894v15c0 .743-.782 1.227-1.447.894l-.772-.386c-.282-.141-.613-.141-.895 0l-1.771.886c-.282.141-.613.141-.895 0l-1.773-.886c-.281-.141-.613-.141-.894 0l-1.773.886c-.281.141-.613.141-.894 0l-1.773-.886c-.282-.141-.613-.141-.894 0l-.771.386c-.666.333-1.448-.15-1.448-.894v-15c0-.743.782-1.227 1.447-.894l.773.386c.282.141.613.141.895 0l1.771-.886c.282-.141.613-.141.895 0l1.773.886c.28.14.612.14.893 0Z"></path></g></svg>