<?xml version="1.0" encoding="UTF-8"?><svg version="1.1" viewBox="0 0 24 24" xmlns="http://www.w3.org/2000/svg" xmlns:xlink="http://www.w3.org/1999/xlink"><g fill="none"><path d="M24 0v24h-24v-24Z"></path><path stroke="#323232" stroke-linecap="round" stroke-linejoin="round" stroke-width="1.5" d="M14.218 15.218l1.19404e-07-9.02302e-08c-.667718.504577-1.48108.778973-2.318.782l7.45218e-08 1.13554e-10c-2.15417-.00328248-3.9012-1.74584-3.91-3.9l.01-1.6 -1.333 1.334"></path><path stroke="#323232" stroke-linecap="round" stroke-linejoin="round" stroke-width="1.5" d="M12 21l-3.93403e-07-7.10543e-15c-4.97056-2.1727e-07-9-4.02944-9-9 2.1727e-07-4.97056 4.02944-9 9-9 4.97056 2.1727e-07 9 4.02944 9 9v0c0 4.97056-4.02944 9-9 9"></path><path stroke="#323232" stroke-linecap="round" stroke-linejoin="round" stroke-width="1.5" d="M17.333 12.166l-1.333 1.334 .014-1.6 -2.69578e-09-6.21163e-07c-.00935475-2.15549-1.75849-3.89837-3.914-3.9l-2.08842e-07 7.54874e-10c-.837533.00302735-1.65153.277401-2.32.782"></path></g></svg>