<?xml version="1.0" encoding="UTF-8"?><svg version="1.1" viewBox="0 0 24 24" xmlns="http://www.w3.org/2000/svg" xmlns:xlink="http://www.w3.org/1999/xlink"><g stroke-linecap="round" stroke-width="1.5" stroke="#323232" fill="none" stroke-linejoin="round"><path d="M8.008 14.506c.531.847 1.286 1.579 2.666 1.959 1.393.383 2.933.207 4.101-.644 1.107-.806 1.713-1.955 1.883-3.153"></path><path d="M7.342 11.332c.171-1.202.781-2.352 1.889-3.157 1.166-.847 2.702-1.018 4.092-.636 1.386.38 2.142 1.11 2.669 1.955"></path><path d="M7.824 16.506v-2h2"></path><path d="M16.176 7.494v2h-2"></path><path d="M12 21v0c-4.971 0-9-4.029-9-9v0c0-4.971 4.029-9 9-9v0c4.971 0 9 4.029 9 9v0c0 4.971-4.029 9-9 9Z"></path></g><path fill="none" d="M0 0h24v24h-24v-24Z"></path></svg>