<?xml version="1.0" encoding="UTF-8"?><svg version="1.1" viewBox="0 0 24 24" xmlns="http://www.w3.org/2000/svg" xmlns:xlink="http://www.w3.org/1999/xlink"><defs><path d="M19.139 4.829c.622.622.622 1.632 0 2.254 -.622.622-1.632.622-2.254 0 -.622-.622-.622-1.632 0-2.254 .622-.623 1.632-.623 2.254-8.88178e-16" id="a"></path></defs><g stroke-linecap="round" stroke-width="1.5" stroke="#323232" fill="none" stroke-linejoin="round"><use xlink:href="#a"></use><use xlink:href="#a"></use><path d="M9.523 20.133c.783.238 1.613.368 2.474.368h.002c2.176 0 4.352-.83 6.012-2.49 2.044-2.043 2.824-4.867 2.352-7.512"></path><path d="M5.538 6.486c.435-.51.931-.964 1.475-1.358"></path><path d="M3.992 9.168c-.314.888-.494 1.838-.494 2.833"></path><path d="M7.013 18.876c-1.379-1.001-2.439-2.407-3.019-4.041"></path><path d="M14.121 9.879c1.172 1.172 1.172 3.071 0 4.243 -1.172 1.172-3.071 1.172-4.243 0 -1.172-1.172-1.172-3.071 0-4.243 1.172-1.172 3.072-1.172 4.243 0"></path><path d="M9.523 3.87c.783-.238 1.613-.368 2.474-.368l.003.001c1.667.001 3.335.488 4.77 1.464"></path></g><path fill="none" d="M0 0h24v24h-24v-24Z"></path></svg>