<?xml version="1.0" encoding="UTF-8"?><svg version="1.1" viewBox="0 0 24 24" xmlns="http://www.w3.org/2000/svg" xmlns:xlink="http://www.w3.org/1999/xlink"><!--Generated by IJSVG (https://github.com/iconjar/IJSVG)--><g fill="none"><path d="M24,0v24h-24v-24h24Z"></path><path stroke="#323232" stroke-linecap="round" stroke-linejoin="round" stroke-width="1.5" d="M5.544,13.885l-1.478,1.478c-1.328,-3.138 -0.719,-6.901 1.839,-9.458c3.108,-3.108 7.995,-3.34 11.376,-0.709"></path><path stroke="#323232" stroke-linecap="round" stroke-linejoin="round" stroke-width="1.5" d="M14.207,11.793l0.793,-0.793c0.552,-0.552 0.552,-1.448 0,-2v0c-0.552,-0.552 -1.448,-0.552 -2,0l-0.793,0.793"></path><path stroke="#323232" stroke-linecap="round" stroke-linejoin="round" stroke-width="1.5" d="M9.793,12.207l-0.793,0.793c-0.552,0.552 -0.552,1.448 0,2v0c0.552,0.552 1.448,0.552 2,0l0.793,-0.793"></path><path stroke="#323232" stroke-linecap="round" stroke-linejoin="round" stroke-width="1.5" d="M10.5,7.75v0.5"></path><path stroke="#323232" stroke-linecap="round" stroke-linejoin="round" stroke-width="1.5" d="M8.25,10.5h-0.5"></path><path stroke="#323232" stroke-linecap="round" stroke-linejoin="round" stroke-width="1.5" d="M15.75,13.5h0.5"></path><path stroke="#323232" stroke-linecap="round" stroke-linejoin="round" stroke-width="1.5" d="M13.5,16.25v-0.5"></path><path stroke="#323232" stroke-linecap="round" stroke-linejoin="round" stroke-width="1.5" d="M6.719,18.805c3.382,2.63 8.269,2.399 11.376,-0.709c2.557,-2.557 3.167,-6.32 1.839,-9.458l-1.478,1.478"></path></g></svg>