<?xml version="1.0" encoding="UTF-8"?><svg version="1.1" viewBox="0 0 24 24" xmlns="http://www.w3.org/2000/svg" xmlns:xlink="http://www.w3.org/1999/xlink"><!--Generated by IJSVG (https://github.com/iconjar/IJSVG)--><g fill="none"><path d="M0,0h24v24h-24v-24Z"></path><path stroke="#323232" stroke-linecap="round" stroke-linejoin="round" stroke-width="1.5" d="M10.489,14h3.022c0.884,0 1.6,0.716 1.6,1.6v3.289c0,1.718 -1.393,3.111 -3.111,3.111v0c-1.718,0 -3.111,-1.393 -3.111,-3.111v-3.289c0,-0.884 0.716,-1.6 1.6,-1.6Z"></path><path stroke="#323232" stroke-linecap="round" stroke-linejoin="round" stroke-width="1.5" d="M9,8.243c1.657,-1.657 4.343,-1.657 6,0"></path><path stroke="#323232" stroke-linecap="round" stroke-linejoin="round" stroke-width="1.5" d="M10.5,10.243c0.828,-0.828 2.172,-0.828 3,0"></path><path stroke="#323232" stroke-linecap="round" stroke-linejoin="round" stroke-width="1.5" d="M6.021,18.021h-1.133c-1.043,0 -1.888,-0.84 -1.888,-1.877v-11.266c0,-1.038 0.845,-1.878 1.888,-1.878h14.224c1.043,0 1.888,0.84 1.888,1.878v11.266c0,1.037 -0.845,1.878 -1.888,1.878h-1.007"></path><path stroke="#323232" stroke-linecap="round" stroke-linejoin="round" stroke-width="1.5" d="M11.999,17.611c-0.107,0 -0.194,0.087 -0.194,0.194c0.001,0.108 0.088,0.195 0.195,0.195c0.107,0 0.194,-0.087 0.194,-0.194c0,-0.107 -0.087,-0.195 -0.195,-0.195"></path></g></svg>