<svg id="Layer_3" data-name="Layer 3" xmlns="http://www.w3.org/2000/svg" viewBox="0 0 24 24"><path d="M0,24V0H24V24Z" fill="none"/><path d="M10.01843,9.83563l-5.304,3.52558a1.5968,1.5968,0,0,0,1.59521,2.75946l5.69055-2.83118" fill="none" stroke="#323232" stroke-linecap="round" stroke-linejoin="round" stroke-width="1.5"/><path d="M10.01843,9.83563l.39215-6.324a1.59678,1.59678,0,0,1,3.18732-.00177l.4,6.33636" fill="none" stroke="#323232" stroke-linecap="round" stroke-linejoin="round" stroke-width="1.5"/><path d="M13.99792,9.84625l5.2898,3.50769a1.59674,1.59674,0,0,1,.50043,2.12915v.00006a1.59691,1.59691,0,0,1-2.09259.632l-5.69538-2.82568" fill="none" stroke="#323232" stroke-linecap="round" stroke-linejoin="round" stroke-width="1.5"/><circle cx="12" cy="10.99086" r="2" fill="none" stroke="#323232" stroke-linecap="round" stroke-linejoin="round" stroke-width="1.5"/><line x1="21" y1="22.00001" x2="3" y2="22.00001" fill="none" stroke="#323232" stroke-linecap="round" stroke-linejoin="round" stroke-width="1.5"/><line x1="14.26825" y1="21.9837" x2="13.77496" y2="14.17004" fill="none" stroke="#323232" stroke-linecap="round" stroke-linejoin="round" stroke-width="1.5"/><line x1="10.21423" y1="14.17804" x2="9.72919" y2="22" fill="none" stroke="#323232" stroke-linecap="round" stroke-linejoin="round" stroke-width="1.5"/></svg>