<?xml version="1.0" encoding="UTF-8"?><svg version="1.1" viewBox="0 0 24 24" xmlns="http://www.w3.org/2000/svg" xmlns:xlink="http://www.w3.org/1999/xlink"><g stroke-linecap="round" stroke-width="1.5" stroke="#323232" fill="none" stroke-linejoin="round"><path d="M13 6.9h-6l-1.31134e-07 3.55271e-15c-1.65685 7.24234e-08-3 1.34315-3 3 0 0 0 1.77636e-15 0 1.77636e-15v2"></path><line x1="14" x2="11.5" y1="6.9" y2="4.23"></line><line x1="11.5" x2="14" y1="9.57" y2="6.9"></line><path d="M7 17.9h10l-1.31134e-07-3.55271e-15c1.65685 7.24234e-08 3-1.34315 3-3v-2"></path><line x1="6" x2="8.5" y1="17.9" y2="20.57"></line><line x1="8.5" x2="6" y1="15.23" y2="17.9"></line><polyline points="20,9 20,3.9 18,5.9"></polyline></g><path fill="none" d="M24 24h-24v-24h24Z"></path></svg>