<?xml version="1.0" encoding="UTF-8"?><svg version="1.1" viewBox="0 0 24 24" xmlns="http://www.w3.org/2000/svg" xmlns:xlink="http://www.w3.org/1999/xlink"><g fill="none"><path d="M0 0h24v24h-24v-24Z"></path><path stroke="#323232" stroke-linecap="round" stroke-linejoin="round" stroke-width="1.5" d="M13.333 6.667l1.333 1.337 -4.767-.015c-2.144 0-3.899 1.76-3.899 3.91 0 .87.297 1.668.782 2.32"></path><path stroke="#323232" stroke-linecap="round" stroke-linejoin="round" stroke-width="1.5" d="M17.218 9.782c.485.651.782 1.449.782 2.319 0 2.15-1.755 3.909-3.899 3.909l-4.767-.014 1.333 1.337"></path><path stroke="#323232" stroke-linecap="round" stroke-linejoin="round" stroke-width="1.5" d="M17.16 21.16h-10.32c-2.209 0-4-1.791-4-4v-10.32c0-2.209 1.791-4 4-4h10.32c2.209 0 4 1.791 4 4v10.32c0 2.209-1.791 4-4 4Z"></path></g></svg>