<?xml version="1.0" encoding="UTF-8"?><svg version="1.1" viewBox="0 0 24 24" xmlns="http://www.w3.org/2000/svg" xmlns:xlink="http://www.w3.org/1999/xlink"><g fill="none"><path d="M0 0h24v24h-24Z"></path><rect width="18" height="18" x="3" y="3" rx="2.7614" ry="0" stroke="#323232" stroke-linecap="round" stroke-linejoin="round" stroke-width="1.5"></rect><path stroke="#323232" stroke-linecap="round" stroke-linejoin="round" stroke-width="1.5" d="M16.218 9.782l8.58303e-08 1.13581e-07c.504577.667718.778973 1.48108.782 2.318l1.29436e-07-7.31331e-05c-.00379179 2.15378-1.74616 3.90024-3.89993 3.90907l-3.10007-.00899984 1.334 1.336"></path><path stroke="#323232" stroke-linecap="round" stroke-linejoin="round" stroke-width="1.5" d="M12.666 6.667l1.334 1.333 -3.1-.014 1.76154e-07-7.64472e-10c-2.15549.00935431-3.89837 1.75849-3.9 3.914l-1.36107e-07-3.77061e-05c.00301915.837533.277384 1.65153.781977 2.32001"></path></g></svg>