<?xml version="1.0" encoding="UTF-8"?><svg version="1.1" viewBox="0 0 24 24" xmlns="http://www.w3.org/2000/svg" xmlns:xlink="http://www.w3.org/1999/xlink"><defs><path d="M0 0h24v24h-24v-24Z" id="a"></path></defs><g fill="none"><use xlink:href="#a"></use><path stroke="#323232" stroke-linecap="round" stroke-linejoin="round" stroke-width="1.5" d="M18.4 5.6c3.5 3.5 3.5 9.2 0 12.7 -3.5 3.5-9.2 3.5-12.7 0 -3.5-3.5-3.5-9.2 0-12.7 3.5-3.5 9.1-3.5 12.7 1.77636e-15"></path><path stroke="#323232" stroke-linecap="round" stroke-linejoin="round" stroke-width="1.5" d="M12.3 12.6c-2.2 0-4.1.8-5.1 3.1v-.7c0-3.4 2.3-5.5 5.1-5.5 0 0 0-1.5 0-1.5 0-.5.6-.8 1-.5l3.7 3.1c.3.2.3.7 0 .9l-3.7 3.4c-.4.4-1 .1-1-.5v-1.8Z"></path><use xlink:href="#a"></use></g></svg>