<?xml version="1.0" encoding="UTF-8"?><svg version="1.1" viewBox="0 0 24 24" xmlns="http://www.w3.org/2000/svg" xmlns:xlink="http://www.w3.org/1999/xlink"><g stroke-linecap="round" stroke-width="1.5" stroke="#323232" fill="none" stroke-linejoin="round"><path d="M6 20h-2 -4.37114e-08c-.552285-2.41411e-08-1-.447715-1-1 0 0 0-3.55271e-15 0-3.55271e-15v-2"></path><path d="M21 17v2 0c0 .552285-.447715 1-1 1h-2"></path><line x1="21" x2="3" y1="12" y2="12"></line><line x1="21" x2="21" y1="10" y2="14"></line><path d="M3 7v-2l1.15463e-14 1.50996e-07c-8.33927e-08-.552285.447715-1 1-1h2"></path><path d="M18 4h2l-4.37114e-08 8.88178e-16c.552285-2.41411e-08 1 .447715 1 1v2"></path><line x1="3" x2="3" y1="10" y2="14"></line></g><rect width="24" height="24" fill="none"></rect></svg>