<svg id="Layer_3" data-name="Layer 3" xmlns="http://www.w3.org/2000/svg" viewBox="0 0 24 24"><path d="M0,0H24V24H0Z" fill="none"/><path d="M5.6827,9a6.99407,6.99407,0,0,0,11.21173,8" fill="none" stroke="#323232" stroke-linecap="round" stroke-linejoin="round" stroke-width="1.5"/><path d="M11.11925,2.5222a1.00387,1.00387,0,0,1,1.76154,0l.77757,1.42188a1,1,0,0,0,.39757.39757l1.42188.77757a1.00387,1.00387,0,0,1,0,1.76154l-1.42188.77757a1.00006,1.00006,0,0,0-.39757.39757l-.77757,1.42188a1.00387,1.00387,0,0,1-1.76154,0L10.34168,8.0559a1.00006,1.00006,0,0,0-.39757-.39757L8.52223,6.88076a1.00387,1.00387,0,0,1,0-1.76154l1.42188-.77757a1,1,0,0,0,.39757-.39757Z" fill="none" stroke="#323232" stroke-linecap="round" stroke-linejoin="round" stroke-width="1.5"/><path d="M17.94954,9.32637a.62742.62742,0,0,1,1.101,0l.486.88867a.625.625,0,0,0,.24849.24849l.88867.486a.62742.62742,0,0,1,0,1.101l-.88867.486a.625.625,0,0,0-.24849.24849l-.486.88867a.62742.62742,0,0,1-1.101,0l-.486-.88867a.625.625,0,0,0-.24849-.24849l-.88867-.486a.62742.62742,0,0,1,0-1.101l.88867-.486a.625.625,0,0,0,.24849-.24849Z" fill="none" stroke="#323232" stroke-linecap="round" stroke-linejoin="round" stroke-width="1.5"/><path d="M6,21H5a2,2,0,0,1-2-2V18" fill="none" stroke="#323232" stroke-linecap="round" stroke-linejoin="round" stroke-width="1.5"/><path d="M18,3h1a2,2,0,0,1,2,2V6" fill="none" stroke="#323232" stroke-linecap="round" stroke-linejoin="round" stroke-width="1.5"/><path d="M18,21h1a2,2,0,0,0,2-2V18" fill="none" stroke="#323232" stroke-linecap="round" stroke-linejoin="round" stroke-width="1.5"/><path d="M6,3H5A2,2,0,0,0,3,5V6" fill="none" stroke="#323232" stroke-linecap="round" stroke-linejoin="round" stroke-width="1.5"/></svg>