<?xml version="1.0" encoding="UTF-8"?><svg version="1.1" viewBox="0 0 24 24" xmlns="http://www.w3.org/2000/svg" xmlns:xlink="http://www.w3.org/1999/xlink"><g stroke-linecap="round" stroke-width="1.5" stroke="#323232" fill="none" stroke-linejoin="round"><path d="M8 13l1.10722e-07 1.10845e-07c-.551851-.552464-.551851-1.44754-2.21444e-07-2l3-3 -1.22783e-07 1.22647e-07c.552464-.551851 1.44754-.551851 2-2.45294e-07l3 3 -1.9331e-08-1.93525e-08c.551851.552464.551851 1.44754 3.8662e-08 2l-3 3 3.52634e-08-3.52243e-08c-.552464.551851-1.44754.551851-2 7.04485e-08Z"></path><path d="M3 7l4.61853e-14 6.03983e-07c-3.33571e-07-2.20914 1.79086-4 4-4h10l-1.74846e-07 3.55271e-15c2.20914-9.65645e-08 4 1.79086 4 4v10 0c0 2.20914-1.79086 4-4 4h-10l-1.74846e-07-3.55271e-15c-2.20914-9.65645e-08-4-1.79086-4-4 0 0 0 0 0 0Z"></path></g><path fill="none" d="M0 24v-24h24v24Z"></path></svg>