<svg id="Layer_3" data-name="Layer 3" xmlns="http://www.w3.org/2000/svg" viewBox="0 0 24 24"><rect width="24" height="24" fill="none"/><path d="M16.5,16h1a1,1,0,0,1,1,1v3.5A1.5,1.5,0,0,1,17,22h0a1.5,1.5,0,0,1-1.5-1.5V17A1,1,0,0,1,16.5,16Z" fill="none" stroke="#323232" stroke-linecap="round" stroke-linejoin="round" stroke-width="1.5"/><path d="M7.5,18v2.5A1.5,1.5,0,0,1,6,22H6a1.5,1.5,0,0,1-1.5-1.5V18" fill="none" stroke="#323232" stroke-linecap="round" stroke-linejoin="round" stroke-width="1.5"/><line x1="17" y1="2" x2="17" y2="16" fill="none" stroke="#323232" stroke-linecap="round" stroke-linejoin="round" stroke-width="1.5"/><path d="M21,6.4A4.21442,4.21442,0,0,0,17,2a4.21442,4.21442,0,0,0-4,4.4c0,3.6454,1.79086,6.6,4,6.6S21,10.0454,21,6.4Z" fill="none" stroke="#323232" stroke-linecap="round" stroke-linejoin="round" stroke-width="1.5"/><rect x="3" y="6" width="6" height="12" rx="1" stroke-width="1.5" stroke="#323232" stroke-linecap="round" stroke-linejoin="round" fill="none"/><path d="M4.5,6V3.5A1.5,1.5,0,0,1,6,2H6A1.5,1.5,0,0,1,7.5,3.5V6" fill="none" stroke="#323232" stroke-linecap="round" stroke-linejoin="round" stroke-width="1.5"/></svg>