<?xml version="1.0" encoding="UTF-8"?><svg version="1.1" viewBox="0 0 24 24" xmlns="http://www.w3.org/2000/svg" xmlns:xlink="http://www.w3.org/1999/xlink"><!--Generated by IJSVG (https://github.com/iconjar/IJSVG)--><g stroke-linecap="round" stroke-width="1.5" stroke="#323232" fill="none" stroke-linejoin="round"><path d="M4,4.5v14.5c0,1.105 0.895,2 2,2h12c1.105,0 2,-0.895 2,-2v-11c0,-1.105 -0.895,-2 -2,-2h-12.5c-0.828,0 -1.5,-0.672 -1.5,-1.5v0c0,-0.828 0.672,-1.5 1.5,-1.5h12.5"></path><path d="M13.479,10.5c1.27,0 2.121,1.117 2.121,2.158c0,2.112 -3.536,3.842 -3.6,3.842c-0.064,0 -3.6,-1.73 -3.6,-3.842c0,-1.041 0.852,-2.158 2.121,-2.158c0.726,0 1.203,0.339 1.479,0.642c0.276,-0.303 0.752,-0.642 1.479,-0.642Z"></path></g><path fill="none" d="M0,0h24v24h-24Z"></path></svg>