<?xml version="1.0" encoding="UTF-8"?><svg version="1.1" viewBox="0 0 24 24" xmlns="http://www.w3.org/2000/svg" xmlns:xlink="http://www.w3.org/1999/xlink"><!--Generated by IJSVG (https://github.com/iconjar/IJSVG)--><g fill="none"><path d="M0,0h24v24h-24v-24Z"></path><path stroke="#323232" stroke-linecap="round" stroke-linejoin="round" stroke-width="1.5" d="M11.444,22h-6.333c-1.166,0 -2.111,-0.945 -2.111,-2.111v-10.556c0,-1.166 0.945,-2.111 2.111,-2.111h6.333c1.166,0 2.111,0.945 2.111,2.111v10.556c0.001,1.166 -0.945,2.111 -2.111,2.111Z"></path><path stroke="#323232" stroke-linecap="round" stroke-linejoin="round" stroke-width="1.5" d="M9.752,7.222l0.979,-3.657c0.302,-1.126 1.46,-1.795 2.586,-1.493l6.117,1.639c1.126,0.302 1.795,1.459 1.493,2.586l-2.732,10.196c-0.302,1.126 -1.459,1.795 -2.585,1.493l-2.055,-0.55"></path></g></svg>