<?xml version="1.0" encoding="UTF-8"?><svg version="1.1" viewBox="0 0 24 24" xmlns="http://www.w3.org/2000/svg" xmlns:xlink="http://www.w3.org/1999/xlink"><g stroke-linecap="round" stroke-width="1.5" stroke="#323232" fill="none" stroke-linejoin="round"><path d="M15.222 9.861l-3.889 3.889 -2.333-2.333"></path><path d="M13.09 5.5l1.5-1.5 -1.5-1.5"></path><path d="M10.91 18.5l-1.5 1.5 1.5 1.5"></path><path d="M17.674 6.371c1.435 1.446 2.326 3.431 2.326 5.629 0 4.418-3.582 8-8 8 -.786 0-1.543-.118-2.261-.329"></path><path d="M6.254 17.562c-1.394-1.44-2.254-3.4-2.254-5.562 0-4.418 3.582-8 8-8 .786 0 1.543.118 2.261.329"></path></g><path fill="none" d="M0 0h24v24h-24Z"></path></svg>