<?xml version="1.0" encoding="UTF-8"?><svg version="1.1" viewBox="0 0 24 24" xmlns="http://www.w3.org/2000/svg" xmlns:xlink="http://www.w3.org/1999/xlink"><g fill="none"><path d="M0 0h24v24h-24Z"></path><path stroke="#323232" stroke-linecap="round" stroke-linejoin="round" stroke-width="1.5" d="M16.5 12l-1.96701e-07 3.55271e-15c2.48528-1.08635e-07 4.5 2.01472 4.5 4.5 1.08635e-07 2.48528-2.01472 4.5-4.5 4.5 -2.48528 1.08635e-07-4.5-2.01472-4.5-4.5l4.79616e-14 4.8278e-07c-3.75267e-07-2.48528 2.01472-4.5 4.5-4.5 6.09575e-08-8.88178e-15 1.35744e-07-1.95399e-14 1.96701e-07-2.66454e-14"></path><path stroke="#323232" stroke-linecap="round" stroke-linejoin="round" stroke-width="1.5" d="M17.722 16.45h-2.18557e-09c-.0276142 1.20706e-09-.05.0223858-.05.05 1.20706e-09.0276142.0223858.05.05.05h-2.18557e-09c.0276142 1.20706e-09.05-.0223858.05-.05 1.20706e-09-.0276142-.0223858-.05-.05-.05"></path><path stroke="#323232" stroke-linecap="round" stroke-linejoin="round" stroke-width="1.5" d="M15.277 16.45l-2.63515e-09-5.47118e-13c-.027062-5.6347e-06-.0490046.0219278-.0490102.0489898 -7.01188e-08.000336762 3.33145e-06.000673515 1.02042e-05.00101021l1.77636e-15-7.54979e-09c-4.16963e-09.0276142.0223858.05.05.05 0 0 1.77636e-15 0 1.77636e-15 0h-2.18557e-09c.0276142 1.20706e-09.05-.0223858.05-.05 1.20706e-09-.0276142-.0223858-.05-.05-.05"></path><path stroke="#323232" stroke-linecap="round" stroke-linejoin="round" stroke-width="1.5" d="M9 20.477l-6.73433e-10-2.37453e-10c-4.6877-1.65288-7.1479-6.79292-5.49503-11.4806 1.65288-4.6877 6.79292-7.1479 11.4806-5.49503 2.1034.741656 3.85649 2.2379 4.91941 4.19865"></path><polyline stroke="#323232" stroke-linecap="round" stroke-linejoin="round" stroke-width="1.5" points="20.424,4.803 20.424,7.696 17.531,7.696"></polyline></g></svg>