<svg xmlns="http://www.w3.org/2000/svg" viewBox="0 0 24 24"><g id="Layer_2" data-name="Layer 2"><path d="M0,0H24V24H0Z" fill="none"/><circle cx="18.5" cy="19" r="2.5" fill="none" stroke="#323232" stroke-linecap="round" stroke-linejoin="round" stroke-width="1.5"/><path d="M6.50048,5.375A.125.125,0,1,1,6.375,5.5a.12433.12433,0,0,1,.12548-.125" fill="none" stroke="#323232" stroke-linecap="round" stroke-linejoin="round" stroke-width="1.5"/><path d="M10,5.5C10,7.16138,8.1435,8.93827,7.13391,9.7815a1.03021,1.03021,0,0,1-1.26926-.00034C4.856,8.93783,3,7.16117,3,5.5H3A3.5,3.5,0,0,1,6.5,2h0A3.5,3.5,0,0,1,10,5.5Z" fill="none" stroke="#323232" stroke-linecap="round" stroke-linejoin="round" stroke-width="1.5"/><path d="M12,19H9a3,3,0,0,1-3-3H6a3,3,0,0,1,3-3h6a3,3,0,0,0,3-3h0a3,3,0,0,0-3-3H13" fill="none" stroke="#323232" stroke-linecap="round" stroke-linejoin="round" stroke-width="1.5"/></g></svg>