<svg id="Layer_3" data-name="Layer 3" xmlns="http://www.w3.org/2000/svg" viewBox="0 0 24 24"><rect width="24" height="24" fill="none"/><path d="M12,18.99992H7.46951A3.46956,3.46956,0,0,1,4,15.53037v-.08126A3.46956,3.46956,0,0,1,7.45216,11.9796L15.565,11.939a3.46955,3.46955,0,0,0,3.45217-3.48677h0A3.46955,3.46955,0,0,0,15.54762,5H11" fill="none" stroke="#323232" stroke-linecap="round" stroke-linejoin="round" stroke-width="1.5"/><path d="M3.73557,6.625h4.125" fill="none" stroke="#323232" stroke-linecap="round" stroke-linejoin="round" stroke-width="1.5"/><line x1="8.5" y1="8" x2="6" y2="2.5" fill="none" stroke="#323232" stroke-linecap="round" stroke-linejoin="round" stroke-width="1.5"/><line x1="5.5" y1="2.5" x2="3" y2="8" fill="none" stroke="#323232" stroke-linecap="round" stroke-linejoin="round" stroke-width="1.5"/><line x1="6" y1="2.5" x2="5.5" y2="2.5" fill="none" stroke="#323232" stroke-linecap="round" stroke-linejoin="round" stroke-width="1.5"/><path d="M16,15h3.15066a1.524,1.524,0,0,1,1.524,1.524v0a1.524,1.524,0,0,1-1.524,1.524H16a0,0,0,0,1,0,0V15A0,0,0,0,1,16,15Z" fill="none" stroke="#323232" stroke-linecap="round" stroke-linejoin="round" stroke-width="1.5"/><path d="M16,18.048h3.524A1.476,1.476,0,0,1,21,19.524v0A1.476,1.476,0,0,1,19.524,21H16a0,0,0,0,1,0,0V18.048a0,0,0,0,1,0,0Z" fill="none" stroke="#323232" stroke-linecap="round" stroke-linejoin="round" stroke-width="1.5"/></svg>