<?xml version="1.0" encoding="UTF-8"?><svg version="1.1" viewBox="0 0 24 24" xmlns="http://www.w3.org/2000/svg" xmlns:xlink="http://www.w3.org/1999/xlink"><!--Generated by IJSVG (https://github.com/iconjar/IJSVG)--><g stroke-linecap="round" stroke-width="1.5" stroke="#323232" fill="none" stroke-linejoin="round"><path d="M3.868,12.354l1.414,-1.414c0.781,-0.781 2.047,-0.781 2.828,0l4.95,4.95c0.781,0.781 0.781,2.047 0,2.828l-1.414,1.414c-0.781,0.781 -2.047,0.781 -2.828,0l-4.95,-4.95c-0.781,-0.781 -0.781,-2.047 4.44089e-16,-2.828Z"></path><path d="M4.57,15.89l-2.12,2.12"></path><path d="M6.26,21.81l2.12,-2.12"></path><path d="M16.596,3.868l-1.414,-1.414c-0.391,-0.391 -1.024,-0.391 -1.414,0l-1.121,1.121c-0.188,0.188 -0.293,0.442 -0.293,0.707v2.414l-1.414,1.414c-0.391,0.391 -0.391,1.024 0,1.414l3.536,3.536c0.391,0.391 1.024,0.391 1.414,0l1.414,-1.414h2.414c0.265,0 0.52,-0.105 0.707,-0.293l1.121,-1.121c0.391,-0.391 0.391,-1.024 0,-1.414l-1.414,-1.414"></path><path d="M15.25,9.75l-1,-1"></path><path d="M16,22v-1"></path><path d="M22,16h-1"></path><path d="M21,21l-1,-1"></path><path d="M8,2v1"></path><path d="M2,8h1"></path><path d="M3,3l1,1"></path><path d="M7.5,14.5l2,2"></path><path d="M21.546,5.99l-2.121,2.121c-0.391,0.391 -1.024,0.391 -1.414,0l-2.122,-2.121c-0.391,-0.391 -0.391,-1.024 0,-1.414l2.121,-2.121"></path></g><path fill="none" d="M0,0h24v24h-24Z"></path></svg>