<?xml version="1.0" encoding="UTF-8"?><svg version="1.1" viewBox="0 0 24 24" xmlns="http://www.w3.org/2000/svg" xmlns:xlink="http://www.w3.org/1999/xlink"><!--Generated by IJSVG (https://github.com/iconjar/IJSVG)--><g fill="none"><path d="M0,0h24v24h-24v-24Z"></path><path stroke="#323232" stroke-linecap="round" stroke-linejoin="round" stroke-width="1.5" d="M13.431,20.952l6,-1.325c0.917,-0.202 1.569,-1.014 1.569,-1.953v-11.348c0,-0.938 -0.652,-1.751 -1.569,-1.953l-6,-1.325c-1.248,-0.276 -2.431,0.674 -2.431,1.953v13.998c0,1.279 1.183,2.229 2.431,1.953Z"></path><path stroke="#323232" stroke-linecap="round" stroke-linejoin="round" stroke-width="1.5" d="M15.716,13.976l1,-0.221c0.458,-0.101 0.784,-0.507 0.784,-0.976v-1.558c0,-0.469 -0.326,-0.875 -0.784,-0.976l-1,-0.221c-0.625,-0.138 -1.216,0.337 -1.216,0.976v2c0,0.639 0.591,1.114 1.216,0.976Z"></path><path stroke="#323232" stroke-linecap="round" stroke-linejoin="round" stroke-width="1.5" d="M6,20v1"></path><path stroke="#323232" stroke-linecap="round" stroke-linejoin="round" stroke-width="1.5" d="M19,19.72v1.28"></path><path stroke="#323232" stroke-linecap="round" stroke-linejoin="round" stroke-width="1.5" d="M11,5.001h-6c-1.105,0 -2,0.895 -2,2v10.999c0,1.105 0.895,2 2,2h6.272"></path></g></svg>