<svg id="Layer_3" data-name="Layer 3" xmlns="http://www.w3.org/2000/svg" viewBox="0 0 24 24"><rect width="24" height="24" fill="none"/><path d="M19.99146,12H4.00854a1.00647,1.00647,0,0,0-.9986,1.13879A7.99911,7.99911,0,0,0,6.99969,18.962V20a1,1,0,0,0,1,1h8.00062a1,1,0,0,0,1-1V18.962a7.99911,7.99911,0,0,0,3.98975-5.82324A1.00647,1.00647,0,0,0,19.99146,12Z" fill="none" stroke="#323232" stroke-linecap="round" stroke-linejoin="round" stroke-width="1.5"/><path d="M5.26,12A6.96194,6.96194,0,0,1,4,8,1,1,0,0,1,5,7a7.00027,7.00027,0,0,1,6.7063,5" fill="none" stroke="#323232" stroke-linecap="round" stroke-linejoin="round" stroke-width="1.5"/><path d="M12.2793,12A7.97278,7.97278,0,0,0,15,6a1,1,0,0,0-1-1A7.97209,7.97209,0,0,0,8.017,7.702" fill="none" stroke="#323232" stroke-linecap="round" stroke-linejoin="round" stroke-width="1.5"/><path d="M18.85681,12a3.97361,3.97361,0,0,0-3.92572-4.99347" fill="none" stroke="#323232" stroke-linecap="round" stroke-linejoin="round" stroke-width="1.5"/></svg>