<?xml version="1.0" encoding="UTF-8"?><svg version="1.1" viewBox="0 0 24 24" xmlns="http://www.w3.org/2000/svg" xmlns:xlink="http://www.w3.org/1999/xlink"><g stroke-linecap="round" stroke-width="1.5" stroke="#323232" fill="none" stroke-linejoin="round"><path d="M3.521 13.463l1.2 1.564 .258 1.945 1.76004e-08 1.34005e-07c.14166 1.07857.98885 1.92821 2.067 2.073l1.948.26 1.559 1.2 -1.37202e-07-1.0539e-07c.862168.662265 2.06183.662265 2.924 2.1078e-07l1.561-1.2v0l1.944-.258 1.22817e-10-1.63602e-11c1.07852-.143656 1.92687-.992415 2.07-2.071l.259-1.951 1.2-1.562 -2.46214e-08 3.22728e-08c.659136-.863971.659136-2.06203 4.92428e-08-2.926l-1.2-1.564 -.257-1.945 6.2941e-08 4.7783e-07c-.142092-1.07872-.989623-1.9283-2.068-2.073l-1.951-.255 -1.559-1.2 8.42553e-08 6.47198e-08c-.862168-.662265-2.06183-.662265-2.924-1.2944e-07l-1.561 1.2v0l-1.944.258 -4.36797e-08 5.82431e-09c-1.07653.143546-1.92389.989681-2.069 2.066l-.26 1.951 -1.2 1.562 -7.29854e-08 8.96915e-08c-.693638.852409-.692384 2.07501.00300015 2.926Z"></path><path d="M14.564 15.725h-5.128l-2.45315e-08 8.75744e-13c-.379704 1.35627e-05-.712556-.253822-.813-.62l-.8-2.948 -2.63013e-08-9.66929e-08c-.122056-.44872.142758-.911425.591478-1.03348 .0725241-.0197272.147363-.0296552.222522-.0295194h6.735l2.84454e-08-1.75842e-11c.465024-.000287452.842233.376456.84252.841479 4.62519e-05.0748239-.00988129.14932-.0295204.221521l-.8 2.948 2.78403e-08-1.01513e-07c-.101216.36906-.438329.623641-.821.62Z"></path><path d="M8.675 11.094l2.688-3.08 -6.89356e-08 7.88784e-08c.306012-.350149.837934-.385929 1.18808-.0799171 .0283988.0248191.0550979.0515182.079917.079917l2.7 3.081"></path></g><path fill="none" d="M0 0h24v24h-24Z"></path></svg>