<svg id="Layer_3" data-name="Layer 3" xmlns="http://www.w3.org/2000/svg" viewBox="0 0 24 24"><path d="M0,0H24V24H0Z" fill="none"/><path d="M13.5354,10.46469a.05.05,0,1,1-.00009-.00009l.00009.00009" fill="none" stroke="#323232" stroke-linecap="round" stroke-linejoin="round" stroke-width="1.5"/><path d="M11.95541,7.91863h2.789a1.33657,1.33657,0,0,1,1.3365,1.33664v2.78828a1.33764,1.33764,0,0,1-.39309.94548L12.15,16.52721a1.33737,1.33737,0,0,1-1.89075,0l-2.787-2.78631a1.33772,1.33772,0,0,1,0-1.891L11.01,8.31176A1.33736,1.33736,0,0,1,11.95541,7.91863Z" fill="none" stroke="#323232" stroke-linecap="round" stroke-linejoin="round" stroke-width="1.5"/><path d="M15,21H8a5,5,0,0,1-5-5V8A5,5,0,0,1,8,3h8a5,5,0,0,1,5,5v5" fill="none" stroke="#323232" stroke-linecap="round" stroke-linejoin="round" stroke-width="1.5"/><line x1="19" y1="20" x2="19" y2="16" fill="none" stroke="#323232" stroke-linecap="round" stroke-linejoin="round" stroke-width="1.5"/><polyline points="21 18 19 16 17 18" fill="none" stroke="#323232" stroke-linecap="round" stroke-linejoin="round" stroke-width="1.5"/></svg>