<?xml version="1.0" encoding="UTF-8"?><svg version="1.1" viewBox="0 0 24 24" xmlns="http://www.w3.org/2000/svg" xmlns:xlink="http://www.w3.org/1999/xlink"><!--Generated by IJSVG (https://github.com/iconjar/IJSVG)--><g fill="none"><path d="M0,0h24v24h-24Z"></path><path stroke="#323232" stroke-linecap="round" stroke-linejoin="round" stroke-width="1.5" d="M3,8v8c0,2.761 2.239,5 5,5h8c2.761,0 5,-2.239 5,-5v-8c0,-2.761 -2.239,-5 -5,-5h-8c-2.761,0 -5,2.239 -5,5Z"></path><path stroke="#323232" stroke-linecap="round" stroke-linejoin="round" stroke-width="1.5" d="M15,11.434h-6c-0.552,0 -1,-0.448 -1,-1v0c0,-2.209 1.791,-4 4,-4v0c2.209,0 4,1.791 4,4v0c0,0.553 -0.448,1 -1,1Z"></path><path stroke="#323232" stroke-linecap="round" stroke-linejoin="round" stroke-width="1.5" d="M12,11.43l1,-2"></path></g></svg>