<?xml version="1.0" encoding="UTF-8"?><svg version="1.1" viewBox="0 0 24 24" xmlns="http://www.w3.org/2000/svg" xmlns:xlink="http://www.w3.org/1999/xlink"><!--Generated by IJSVG (https://github.com/iconjar/IJSVG)--><g stroke-linecap="round" stroke-width="1.5" stroke="#323232" fill="none" stroke-linejoin="round"><path d="M21.0884,20.9116c0.0488155,0.0488155 0.0488155,0.127961 0,0.176777c-0.0488155,0.0488155 -0.127961,0.0488155 -0.176777,0c-0.0488155,-0.0488155 -0.0488155,-0.127961 0,-0.176777c0.0488155,-0.0488155 0.127961,-0.0488155 0.176777,0"></path><path d="M21.0884,11.9116c0.0488155,0.0488155 0.0488155,0.127961 0,0.176777c-0.0488155,0.0488155 -0.127961,0.0488155 -0.176777,0c-0.0488155,-0.0488155 -0.0488155,-0.127961 0,-0.176777c0.0488155,-0.0488155 0.127961,-0.0488155 0.176777,0"></path><path d="M21.0884,16.4116c0.0488155,0.0488155 0.0488155,0.127961 0,0.176777c-0.0488155,0.0488155 -0.127961,0.0488155 -0.176777,0c-0.0488155,-0.0488155 -0.0488155,-0.127961 0,-0.176777c0.0488155,-0.0488155 0.127961,-0.0488155 0.176777,0"></path><path d="M21.0884,7.41161c0.0488155,0.0488155 0.0488155,0.127961 0,0.176777c-0.0488155,0.0488155 -0.127961,0.0488155 -0.176777,0c-0.0488155,-0.0488155 -0.0488155,-0.127961 0,-0.176777c0.0488155,-0.0488155 0.127961,-0.0488155 0.176777,0"></path><path d="M16.5884,20.9116c0.0488155,0.0488155 0.0488155,0.127961 0,0.176777c-0.0488155,0.0488155 -0.127961,0.0488155 -0.176777,0c-0.0488155,-0.0488155 -0.0488155,-0.127961 0,-0.176777c0.0488155,-0.0488155 0.127961,-0.0488155 0.176777,0"></path><path d="M3.08839,2.91161c0.0488155,0.0488155 0.0488155,0.127961 0,0.176777c-0.0488155,0.0488155 -0.127961,0.0488155 -0.176777,0c-0.0488155,-0.0488155 -0.0488155,-0.127961 0,-0.176777c0.0488155,-0.0488155 0.127961,-0.0488155 0.176777,0"></path><path d="M21.0884,2.91161c0.0488155,0.0488155 0.0488155,0.127961 0,0.176777c-0.0488155,0.0488155 -0.127961,0.0488155 -0.176777,0c-0.0488155,-0.0488155 -0.0488155,-0.127961 0,-0.176777c0.0488155,-0.0488155 0.127961,-0.0488155 0.176777,0"></path><path d="M12.0884,2.91161c0.0488155,0.0488155 0.0488155,0.127961 0,0.176777c-0.0488155,0.0488155 -0.127961,0.0488155 -0.176777,0c-0.0488155,-0.0488155 -0.0488155,-0.127961 0,-0.176777c0.0488155,-0.0488155 0.127961,-0.0488155 0.176777,0"></path><path d="M7.58839,2.91161c0.0488155,0.0488155 0.0488155,0.127961 0,0.176777c-0.0488155,0.0488155 -0.127961,0.0488155 -0.176777,0c-0.0488155,-0.0488155 -0.0488155,-0.127961 0,-0.176777c0.0488155,-0.0488155 0.127961,-0.0488155 0.176777,0"></path><path d="M16.5884,2.91161c0.0488155,0.0488155 0.0488155,0.127961 0,0.176777c-0.0488155,0.0488155 -0.127961,0.0488155 -0.176777,0c-0.0488155,-0.0488155 -0.0488155,-0.127961 0,-0.176777c0.0488155,-0.0488155 0.127961,-0.0488155 0.176777,0"></path><path d="M3.08839,7.41161c0.0488155,0.0488155 0.0488155,0.127961 0,0.176777c-0.0488155,0.0488155 -0.127961,0.0488155 -0.176777,0c-0.0488155,-0.0488155 -0.0488155,-0.127961 0,-0.176777c0.0488155,-0.0488155 0.127961,-0.0488155 0.176777,0"></path><path d="M10.194,21h-5.388c-0.997,0 -1.806,-0.809 -1.806,-1.806v-5.388c0,-0.997 0.809,-1.806 1.806,-1.806h5.388c0.997,0 1.806,0.809 1.806,1.806v5.388c0,0.997 -0.809,1.806 -1.806,1.806Z"></path><path d="M11.47,12.53l4.53,-4.53"></path><path d="M16,12v-4"></path><path d="M12,8h4"></path></g><path fill="none" d="M0,0h24v24h-24Z"></path></svg>