<?xml version="1.0" encoding="UTF-8"?><svg version="1.1" viewBox="0 0 24 24" xmlns="http://www.w3.org/2000/svg" xmlns:xlink="http://www.w3.org/1999/xlink"><g stroke-linecap="round" stroke-width="1.5" stroke="#323232" fill="none" stroke-linejoin="round"><path d="M10.5 21v-3.5l1.77636e-14 2.26494e-07c-1.25089e-07-.828427.671573-1.5 1.5-1.5v0h-6.55671e-08c.828427-3.62117e-08 1.5.671573 1.5 1.5v3.5"></path><path d="M7 21v-9.5l-1.5754e-08.000250728c1.03031e-07-.682343.347875-1.3176.922789-1.68512l3-1.917 8.80743e-08-5.6286e-08c.656677-.419665 1.49732-.419665 2.154 1.12572e-07l3 1.917 5.48026e-08 3.50133e-08c.575.367366.923033 1.00253.923211 1.68486v9.5"></path><polyline points="12,3 16,3 16,5.5 12,5.5"></polyline><line x1="12" x2="12" y1="7.58" y2="3"></line><path d="M12 11.333l2.39865e-09-1.43636e-11c-.0922299.000552283-.166549.0757671-.165997.167997 .000552283.0922299.0757671.166549.167997.165997 .0918385-.000549939.165998-.0751539.166-.166994l-1.70639e-09 2.79834e-07c.000559115-.0916776-.073307-.16645-.164985-.167009 -.00100506-6.1296e-06-.00201016-3.13101e-06-.00301517 8.99541e-06"></path><line x1="17" x2="19" y1="14.45" y2="14.45"></line><line x1="17" x2="19" y1="17.45" y2="17.45"></line><line x1="5" x2="7" y1="14.45" y2="14.45"></line><line x1="5" x2="7" y1="17.45" y2="17.45"></line><line x1="2" x2="22" y1="21" y2="21"></line><path d="M3 21v-9l1.15463e-14 1.50996e-07c-8.33927e-08-.552285.447715-1 1-1h3"></path><path d="M21 21v-9 0c0-.552285-.447715-1-1-1h-3"></path></g><path fill="none" d="M0 0h24v24h-24Z"></path></svg>