<svg id="Layer_3" data-name="Layer 3" xmlns="http://www.w3.org/2000/svg" viewBox="0 0 24 24"><path d="M16,9h1.2918a2.99994,2.99994,0,0,1,1.34162.31671l.654.327a3,3,0,0,1,1.15453,1.01919L22,13" fill="none" stroke="#323232" stroke-linecap="round" stroke-linejoin="round" stroke-width="1.5"/><path d="M16,18.82843V19a1.5,1.5,0,0,1-1.5,1.5H3.5A1.5,1.5,0,0,1,2,19V4.5A1.5,1.5,0,0,1,3.5,3h11A1.5,1.5,0,0,1,16,4.5v9" fill="none" stroke="#323232" stroke-linecap="round" stroke-linejoin="round" stroke-width="1.5"/><path d="M20,21l-4.68314-2.54244A4.0001,4.0001,0,0,1,13.94415,17.23l-2.66962-3.82882a1.52749,1.52749,0,0,1,.17289-1.95375h0a1.52751,1.52751,0,0,1,2.16-.00022l2.0536,2.05277L17,13.50006" fill="none" stroke="#323232" stroke-linecap="round" stroke-linejoin="round" stroke-width="1.5"/><line x1="5" y1="14" x2="7" y2="14" fill="none" stroke="#323232" stroke-linecap="round" stroke-linejoin="round" stroke-width="1.5"/><line x1="5" y1="17" x2="9" y2="17" fill="none" stroke="#323232" stroke-linecap="round" stroke-linejoin="round" stroke-width="1.5"/><path d="M5.28222,9.2H8.70667" fill="none" stroke="#323232" stroke-linecap="round" stroke-linejoin="round" stroke-width="1.5"/><polyline points="9 10 7.56 6 6.44 6 5 10" fill="none" stroke="#323232" stroke-linecap="round" stroke-linejoin="round" stroke-width="1.5"/><rect width="24" height="24" fill="none"/></svg>