<?xml version="1.0" encoding="UTF-8"?><svg version="1.1" viewBox="0 0 24 24" xmlns="http://www.w3.org/2000/svg" xmlns:xlink="http://www.w3.org/1999/xlink"><g stroke-linecap="round" stroke-width="1.5" stroke="#323232" fill="none" stroke-linejoin="round"><path d="M8.79185 15.4412c1.0962 1.0962 1.0962 2.8735 0 3.9697 -1.0962 1.0962-2.8735 1.0962-3.9697 3.55271e-15 -1.0962-1.0962-1.0962-2.8735-8.88178e-16-3.9697 1.0962-1.0962 2.8735-1.0962 3.9697 0"></path><path d="M8.79185 4.58915c1.0962 1.0962 1.0962 2.8735 0 3.9697 -1.0962 1.0962-2.8735 1.0962-3.9697 0 -1.0962-1.0962-1.0962-2.8735-8.88178e-16-3.9697 1.0962-1.0962 2.8735-1.0962 3.9697-8.88178e-16"></path><path d="M20 16.86l-14.6-7.85"></path><path d="M20 7.14l-14.6 7.85"></path></g><path fill="none" d="M0 0h24v24h-24Z"></path></svg>