<svg viewBox="0 0 24 24" xmlns="http://www.w3.org/2000/svg" xmlns:xlink="http://www.w3.org/1999/xlink"><defs><path d="M18.31 11.57L14 17.5" id="a"/></defs><g stroke-linecap="round" stroke-width="1.5" stroke="#323232" fill="none" stroke-linejoin="round"><path d="M8.25 17.5l5.75 0"/><path d="M19.2 16.03L17.2 6"/><path d="M18.2 6l-3 0"/><path d="M19.5 16a1.5 1.5 0 1 0 0 3 1.5 1.5 0 1 0 0-3Z"/><path d="M4.5 16a1.5 1.5 0 1 0 0 3 1.5 1.5 0 1 0 0-3Z"/><path d="M4.5 13.75l-.01 0c2.07-.01 3.75 1.67 3.75 3.74"/><path d="M15.82 15l-8.53 0"/><use xlink:href="#a"/><use xlink:href="#a"/></g><path fill="none" d="M0 0h24v24H0Z"/></svg>