<?xml version="1.0" encoding="UTF-8"?><svg version="1.1" viewBox="0 0 24 24" xmlns="http://www.w3.org/2000/svg" xmlns:xlink="http://www.w3.org/1999/xlink"><g stroke-linecap="round" stroke-width="1.5" stroke="#323232" fill="none" stroke-linejoin="round"><line x1="13" x2="13" y1="7" y2="9"></line><line x1="16" x2="16" y1="7" y2="9"></line><line x1="10" x2="10" y1="7" y2="9"></line><path d="M8.414 3.586l-2.828 2.828 1.68553e-07-1.68502e-07c-.375099.374985-.585887.88361-.586 1.414v11.172l2.4869e-14 3.01992e-07c1.66785e-07 1.10457.895431 2 2 2h10l-8.74228e-08-3.55271e-15c1.10457 4.82823e-08 2-.89543 2-2v-14 0c0-1.10457-.895431-2-2-2h-7.172l4.3004e-08-9.18376e-12c-.53039.000113263-1.03901.210901-1.414.586Z"></path></g><rect width="24" height="24" fill="none"></rect></svg>