<?xml version="1.0" encoding="UTF-8"?><svg version="1.1" viewBox="0 0 24 24" xmlns="http://www.w3.org/2000/svg" xmlns:xlink="http://www.w3.org/1999/xlink"><g fill="none"><rect width="24" height="24"></rect><path stroke="#323232" stroke-linecap="round" stroke-linejoin="round" stroke-width="1.5" d="M21 6v7c0 1.65685-2.68629 3-6 3"></path><ellipse cx="9" rx="6" ry="3.5" cy="10.5" stroke="#323232" stroke-linecap="round" stroke-linejoin="round" stroke-width="1.5"></ellipse><path stroke="#323232" stroke-linecap="round" stroke-linejoin="round" stroke-width="1.5" d="M15 10.5v7.5c0 1.65685-2.68629 3-6 3 -3.31371 0-6-1.34315-6-3v-7.5"></path><line x1="10.32" x2="7.68" y1="10.5" y2="10.5" stroke="#323232" stroke-linecap="round" stroke-linejoin="round" stroke-width="1.5"></line><path stroke="#323232" stroke-linecap="round" stroke-linejoin="round" stroke-width="1.5" d="M9.36 7.01l-5.9609e-08-7.3849e-08c-.230974-.286151-.357906-.642268-.36-1.01 0-1.66 2.69-3 6-3 3.31 0 6 1.34 6 3 0 1.66-2.69 3-6 3 -.2 0-.41-.01-.6-.02"></path></g></svg>