<svg id="Layer_3" data-name="Layer 3" xmlns="http://www.w3.org/2000/svg" viewBox="0 0 24 24"><path d="M24,24H0V0H24Z" fill="none"/><path d="M14,8.974a3.55392,3.55392,0,1,1-5.026,0,3.55372,3.55372,0,0,1,5.026,0" fill="none" stroke="#323232" stroke-linecap="round" stroke-linejoin="round" stroke-width="1.5"/><path d="M16,16l-2-2Z" fill="none" stroke="#323232" stroke-linecap="round" stroke-linejoin="round" stroke-width="1.5"/><path d="M3,12a9.02358,9.02358,0,0,0,.20365,1.89474" fill="none" stroke="#323232" stroke-linecap="round" stroke-linejoin="round" stroke-width="1.5"/><path d="M12,3a9,9,0,0,0-9,9" fill="none" stroke="#323232" stroke-linecap="round" stroke-linejoin="round" stroke-width="1.5"/><path d="M21,12a9,9,0,0,0-9-9" fill="none" stroke="#323232" stroke-linecap="round" stroke-linejoin="round" stroke-width="1.5"/><path d="M10.10526,20.79635A8.99186,8.99186,0,0,0,21,12" fill="none" stroke="#323232" stroke-linecap="round" stroke-linejoin="round" stroke-width="1.5"/><path d="M8,17.91813V17.211a.625.625,0,0,0-.43858-.59656l-1.875-.58594a.625.625,0,0,0-.37284,0l-1.875.58594A.625.625,0,0,0,3,17.211v.70718a3.125,3.125,0,0,0,2.02774,2.926l.36254.136a.31246.31246,0,0,0,.21944,0l.36254-.136A3.125,3.125,0,0,0,8,17.91813Z" fill="none" stroke="#323232" stroke-linecap="round" stroke-linejoin="round" stroke-width="1.5"/></svg>