<?xml version="1.0" encoding="UTF-8"?><svg version="1.1" viewBox="0 0 24 24" xmlns="http://www.w3.org/2000/svg" xmlns:xlink="http://www.w3.org/1999/xlink"><g fill="none"><path d="M24 24h-24v-24h24v24Z"></path><path stroke="#323232" stroke-linecap="round" stroke-linejoin="round" stroke-width="1.5" d="M12 7h-7c-1.1 0-2 .9-2 2v10c0 1.1.9 2 2 2h10c1.1 0 2-.9 2-2v-7"></path><path stroke="#323232" stroke-linecap="round" stroke-linejoin="round" stroke-width="1.5" d="M16.5 12v0c-2.5 0-4.5-2-4.5-4.5v0c0-2.5 2-4.5 4.5-4.5v0c2.5 0 4.5 2 4.5 4.5v0c0 2.5-2 4.5-4.5 4.5Z"></path><path stroke="#323232" stroke-linecap="round" stroke-linejoin="round" stroke-width="1.5" d="M15 7.1h.1c1.1 0 1.9.9 1.9 1.9v0"></path><path stroke="#323232" stroke-linecap="round" stroke-linejoin="round" stroke-width="1.5" d="M22 13l-2.3-2.3"></path></g></svg>