<svg id="Layer_3" data-name="Layer 3" xmlns="http://www.w3.org/2000/svg" viewBox="0 0 24 24"><path d="M0,0H24V24H0Z" fill="none"/><path d="M10,4.08789a7.05512,7.05512,0,1,0,8.11765,6.97093" fill="none" stroke="#323232" stroke-linecap="round" stroke-linejoin="round" stroke-width="1.5"/><path d="M15.41815,4.533l.18222.18506.19816-.19768a1.78429,1.78429,0,0,1,2.52725.011h0a1.84963,1.84963,0,0,1,0,2.58022L16.65413,8.80872a1.47882,1.47882,0,0,1-2.10752,0L12.87369,7.1104a1.84779,1.84779,0,0,1,0-2.57765h0A1.78515,1.78515,0,0,1,15.41815,4.533Z" fill="none" stroke="#323232" stroke-linecap="round" stroke-linejoin="round" stroke-width="1.5"/><line x1="20" y1="20" x2="16.04988" y2="16.04988" fill="none" stroke="#323232" stroke-linecap="round" stroke-linejoin="round" stroke-width="1.5"/></svg>