<?xml version="1.0" encoding="UTF-8"?><svg version="1.1" viewBox="0 0 24 24" xmlns="http://www.w3.org/2000/svg" xmlns:xlink="http://www.w3.org/1999/xlink"><g fill="none"><path d="M0 0h24v24h-24v-24Z"></path><path stroke="#323232" stroke-linecap="round" stroke-linejoin="round" stroke-width="1.5" d="M18.934 11.467v0c0 4.124-3.343 7.467-7.467 7.467v0c-4.124 0-7.467-3.343-7.467-7.467v0c0-4.124 3.343-7.467 7.467-7.467v0c4.124 0 7.467 3.343 7.467 7.467Z"></path><path stroke="#323232" stroke-linecap="round" stroke-linejoin="round" stroke-width="1.5" d="M11.467 7.467v1.336"></path><path stroke="#323232" stroke-linecap="round" stroke-linejoin="round" stroke-width="1.5" d="M11.467 14.131v1.336"></path><path stroke="#323232" stroke-linecap="round" stroke-linejoin="round" stroke-width="1.5" d="M9.579 13.355l-.944.944"></path><path stroke="#323232" stroke-linecap="round" stroke-linejoin="round" stroke-width="1.5" d="M14.299 8.635l-.944.944"></path><path stroke="#323232" stroke-linecap="round" stroke-linejoin="round" stroke-width="1.5" d="M8.803 11.467h-1.336"></path><path stroke="#323232" stroke-linecap="round" stroke-linejoin="round" stroke-width="1.5" d="M15.467 11.467h-1.336"></path><path stroke="#323232" stroke-linecap="round" stroke-linejoin="round" stroke-width="1.5" d="M8.635 8.635l.944.944"></path><path stroke="#323232" stroke-linecap="round" stroke-linejoin="round" stroke-width="1.5" d="M13.355 13.355l.944.944"></path><path stroke="#323232" stroke-linecap="round" stroke-linejoin="round" stroke-width="1.5" d="M13.352 9.582c1.041 1.041 1.041 2.73 0 3.771 -1.041 1.041-2.73 1.041-3.771 0 -1.041-1.041-1.041-2.73 0-3.771 1.042-1.042 2.73-1.042 3.771 0"></path><path stroke="#323232" stroke-linecap="round" stroke-linejoin="round" stroke-width="1.5" d="M20 20l-3.25-3.25"></path></g></svg>