<svg id="Layer_3" data-name="Layer 3" xmlns="http://www.w3.org/2000/svg" viewBox="0 0 24 24"><path d="M24,24H0V0H24Z" fill="none"/><path d="M14,8.974a3.55392,3.55392,0,1,1-5.026,0,3.55372,3.55372,0,0,1,5.026,0" fill="none" stroke="#323232" stroke-linecap="round" stroke-linejoin="round" stroke-width="1.5"/><path d="M16,16l-2-2Z" fill="none" stroke="#323232" stroke-linecap="round" stroke-linejoin="round" stroke-width="1.5"/><path d="M5.3303,16.76723l.1697.1723.17541-.1854a1.59479,1.59479,0,0,1,2.305-.02314l.03566.03621a1.70808,1.70808,0,0,1,0,2.38246L6.26178,20.93093a1.06892,1.06892,0,0,1-1.52357,0L2.984,19.1497a1.70809,1.70809,0,0,1,0-2.38247h0A1.64617,1.64617,0,0,1,5.3303,16.76723Z" fill="none" stroke="#323232" stroke-linecap="round" stroke-linejoin="round" stroke-width="1.5"/><path d="M3,12a9.02358,9.02358,0,0,0,.20365,1.89474" fill="none" stroke="#323232" stroke-linecap="round" stroke-linejoin="round" stroke-width="1.5"/><path d="M12,3a9,9,0,0,0-9,9" fill="none" stroke="#323232" stroke-linecap="round" stroke-linejoin="round" stroke-width="1.5"/><path d="M21,12a9,9,0,0,0-9-9" fill="none" stroke="#323232" stroke-linecap="round" stroke-linejoin="round" stroke-width="1.5"/><path d="M10.10526,20.79635A8.99186,8.99186,0,0,0,21,12" fill="none" stroke="#323232" stroke-linecap="round" stroke-linejoin="round" stroke-width="1.5"/></svg>