<?xml version="1.0" encoding="UTF-8"?><svg version="1.1" viewBox="0 0 24 24" xmlns="http://www.w3.org/2000/svg" xmlns:xlink="http://www.w3.org/1999/xlink"><g stroke-linecap="round" stroke-width="1.5" stroke="#323232" fill="none" stroke-linejoin="round"><line x1="9.75" x2="21" y1="9.15" y2="9.15"></line><line x1="3" x2="14.1" y1="14.18" y2="14.18"></line><path d="M20.885 12.8l2.55122e-07-2.9018e-06c-.434501 4.94211-4.79311 8.59625-9.73522 8.16175 -1.00619-.088462-1.99025-.345989-2.91078-.761745"></path><path d="M3.115 10.159l-1.3101e-07 6.32628e-07c1.00583-4.85701 5.75861-7.97902 10.6156-6.97319 .479975.0993973.951008.237921 1.40838.414184"></path><path d="M18.006 4.867l-2.27149e-09-7.37188e-14c-.0684833-2.22574e-06-.124002.0555127-.124004.123996 -1.08773e-08.000334682 1.33323e-06.000669362 4.03228e-06.00100403l-6.40021e-11-3.98119e-06c1.04241e-08.0690356.0559644.125.125.125 .0690356-1.04241e-08.125-.0559644.125-.125 -1.04241e-08-.0690356-.0559644-.125-.125-.125 -.000332004 5.01306e-11-.000664007 1.32282e-06-.000996 3.96828e-06"></path><path d="M5.4 18.591h-5.46392e-09c-.0690356 3.01764e-09-.125.0559644-.125.125 3.01764e-09.0690356.0559644.125.125.125 .0690356-3.01764e-09.125-.0559644.125-.125v0c0-.0690356-.0559644-.125-.125-.125"></path></g><path fill="none" d="M0 24v-24h24v24Z"></path></svg>