<?xml version="1.0" encoding="UTF-8"?><svg version="1.1" viewBox="0 0 24 24" xmlns="http://www.w3.org/2000/svg" xmlns:xlink="http://www.w3.org/1999/xlink"><defs><path d="M7 21v0l-1.74846e-07-3.55271e-15c-2.20914-9.65645e-08-4-1.79086-4-4 0 0 0 0 0 0h-3.9968e-15" id="a"></path></defs><g stroke-linecap="round" stroke-width="1.5" stroke="#323232" fill="none" stroke-linejoin="round"><use xlink:href="#a"></use><line x1="10" x2="14" y1="3" y2="3"></line><line x1="3" x2="3" y1="10" y2="14"></line><path d="M21 15.5v0c0 3.03757-2.46243 5.5-5.5 5.5 -3.03757 0-5.5-2.46243-5.5-5.5 0-3.03757 2.46243-5.5 5.5-5.5l-2.40413e-07 5.32907e-15c3.03757-1.32776e-07 5.5 2.46243 5.5 5.5 0 0 0 1.77636e-15 0 1.77636e-15"></path><path d="M15.5 15.45l2.0918e-09-1.77636e-15c-.0276142 1.20706e-09-.05.0223858-.05.05 1.20706e-09.0276142.0223858.05.05.05l-5.02476e-10 1.77636e-15c.0276142-2.08482e-09.05-.0223858.05-.05 -2.08482e-09-.0276142-.0223858-.05-.05-.05"></path><path d="M17.945 15.45l2.0918e-09-1.77636e-15c-.0276142 1.20706e-09-.05.0223858-.05.05 1.20706e-09.0276142.0223858.05.05.05l-5.02478e-10 1.77636e-15c.0276142-2.08482e-09.05-.0223858.05-.05 -2.08482e-09-.0276142-.0223858-.05-.05-.05"></path><path d="M13.056 15.45h-2.18557e-09c-.0276142 1.20706e-09-.05.0223858-.05.05 1.20706e-09.0276142.0223858.05.05.05 .0276142-1.20706e-09.05-.0223858.05-.05v0c0-.0276142-.0223858-.05-.05-.05 0 0-1.77636e-15 0-1.77636e-15 0"></path><use xlink:href="#a"></use><path d="M17 3v0l-1.74846e-07 3.9968e-15c2.20914-9.65645e-08 4 1.79086 4 4v0"></path><path d="M3 7v0l4.57412e-14 6.03983e-07c-3.33571e-07-2.20914 1.79086-4 4-4h6.03983e-07"></path></g><path fill="none" d="M0 0h24v24h-24Z"></path></svg>