<?xml version="1.0" encoding="UTF-8"?><svg version="1.1" viewBox="0 0 24 24" xmlns="http://www.w3.org/2000/svg" xmlns:xlink="http://www.w3.org/1999/xlink"><g stroke-linecap="round" stroke-width="1.5" stroke="#323232" fill="none" stroke-linejoin="round"><line x1="3" x2="3" y1="6" y2="15"></line><line x1="18" x2="18" y1="6" y2="9.8"></line><line x1="6" x2="9.8" y1="18" y2="18"></line><line x1="6" x2="15" y1="3" y2="3"></line><path d="M15 21v0l-2.62268e-07-7.10543e-15c-3.31371-1.44847e-07-6-2.68629-6-6 0 0 0-1.77636e-15 0-1.77636e-15h-7.10543e-15l6.75016e-14 9.05975e-07c-5.00356e-07-3.31371 2.68629-6 6-6v0l-2.62268e-07 7.10543e-15c3.31371-1.44847e-07 6 2.68629 6 6 0 0 0 3.55271e-15 0 3.55271e-15v0l2.13163e-14 5.24537e-07c0 3.31371-2.68629 6-6 6Z"></path><path d="M16.415 16.414l-2.83-2.828"></path><path d="M16.414 13.585l-2.828 2.83"></path></g><path fill="none" d="M0 0h24v24h-24Z"></path></svg>