<?xml version="1.0" encoding="UTF-8"?><svg version="1.1" viewBox="0 0 24 24" xmlns="http://www.w3.org/2000/svg" xmlns:xlink="http://www.w3.org/1999/xlink"><!--Generated by IJSVG (https://github.com/iconjar/IJSVG)--><g stroke-linecap="round" stroke-width="1.5" stroke="#323232" fill="none" stroke-linejoin="round"><path d="M7.26777,3.73223c0.976311,0.976311 0.976311,2.55922 0,3.53553c-0.976311,0.976311 -2.55922,0.976311 -3.53553,0c-0.976311,-0.976311 -0.976311,-2.55922 -4.44089e-16,-3.53553c0.976311,-0.976311 2.55922,-0.976311 3.53553,-4.44089e-16"></path><path d="M20.2678,16.7322c0.976311,0.976311 0.976311,2.55922 0,3.53553c-0.976311,0.976311 -2.55922,0.976311 -3.53553,0c-0.976311,-0.976311 -0.976311,-2.55922 0,-3.53553c0.976311,-0.976311 2.55922,-0.976311 3.53553,0"></path><path d="M5,11v2"></path><path d="M19,11v2"></path><path d="M7.26777,16.7322c0.976311,0.976311 0.976311,2.55922 0,3.53553c-0.976311,0.976311 -2.55922,0.976311 -3.53553,0c-0.976311,-0.976311 -0.976311,-2.55922 -4.44089e-16,-3.53553c0.976311,-0.976311 2.55922,-0.976311 3.53553,0"></path><path d="M20.2678,3.73223c0.976311,0.976311 0.976311,2.55922 0,3.53553c-0.976311,0.976311 -2.55922,0.976311 -3.53553,0c-0.976311,-0.976311 -0.976311,-2.55922 0,-3.53553c0.976311,-0.976311 2.55922,-0.976311 3.53553,-4.44089e-16"></path><path d="M11,19h2"></path><path d="M11,5h2"></path></g><path fill="none" d="M0,0h24v24h-24Z"></path></svg>