<?xml version="1.0" encoding="UTF-8"?><svg version="1.1" viewBox="0 0 24 24" xmlns="http://www.w3.org/2000/svg" xmlns:xlink="http://www.w3.org/1999/xlink"><g stroke-linecap="round" stroke-width="1.5" stroke="#323232" fill="none" stroke-linejoin="round"><rect width="18" height="18" x="3" y="3" rx="2.7614" ry="0"></rect><path d="M13.566 16.459l-5-1.111 6.26133e-09 1.39186e-09c-.913423-.203049-1.56397-1.01228-1.566-1.948v-2.8l-6.90782e-08 3.19193e-05c.00201757-.935717.652549-1.74496 1.56597-1.94802l5-1.111 -1.35543e-07 3.01332e-08c1.07825-.239709 2.14666.440059 2.38637 1.5183 .0316557.142392.0476387.28782.0476637.433688v5.014l2.94229e-08-.000343062c0 1.10457-.895431 2-2 2 -.145858 0-.291278-.0159557-.433665-.0475824Z"></path><line x1="18.5" x2="5.5" y1="12" y2="12"></line><line x1="12" x2="12" y1="5.5" y2="18.5"></line></g><path fill="none" d="M0 0h24v24h-24Z"></path></svg>