<?xml version="1.0" encoding="UTF-8"?><svg version="1.1" viewBox="0 0 24 24" xmlns="http://www.w3.org/2000/svg" xmlns:xlink="http://www.w3.org/1999/xlink"><defs><path d="M21 18c0 1.657-1.343 3-3 3" id="a"></path><path d="M3 6c0-1.657 1.343-3 3-3" id="b"></path></defs><g fill="none"><path d="M0 0h24v24h-24v-24Z"></path><use stroke="#323232" stroke-linecap="round" stroke-linejoin="round" stroke-width="1.5" xlink:href="#a"></use><use stroke="#323232" stroke-linecap="round" stroke-linejoin="round" stroke-width="1.5" xlink:href="#a"></use><use stroke="#323232" stroke-linecap="round" stroke-linejoin="round" stroke-width="1.5" xlink:href="#b"></use><use stroke="#323232" stroke-linecap="round" stroke-linejoin="round" stroke-width="1.5" xlink:href="#b"></use><path stroke="#323232" stroke-linecap="round" stroke-linejoin="round" stroke-width="1.5" d="M6 21c-1.657 0-3-1.343-3-3"></path><path stroke="#323232" stroke-linecap="round" stroke-linejoin="round" stroke-width="1.5" d="M18 3c1.657 0 3 1.343 3 3"></path><path stroke="#323232" stroke-linecap="round" stroke-linejoin="round" stroke-width="1.5" d="M3 13.625v1.25"></path><path stroke="#323232" stroke-linecap="round" stroke-linejoin="round" stroke-width="1.5" d="M3 9.125v1.25"></path><path stroke="#323232" stroke-linecap="round" stroke-linejoin="round" stroke-width="1.5" d="M21 10.375v-1.25"></path><path stroke="#323232" stroke-linecap="round" stroke-linejoin="round" stroke-width="1.5" d="M21 14.875v-1.25"></path><path stroke="#323232" stroke-linecap="round" stroke-linejoin="round" stroke-width="1.5" d="M13.625 21h1.25"></path><path stroke="#323232" stroke-linecap="round" stroke-linejoin="round" stroke-width="1.5" d="M9.125 21h1.25"></path><path stroke="#323232" stroke-linecap="round" stroke-linejoin="round" stroke-width="1.5" d="M10.375 3h-1.25"></path><path stroke="#323232" stroke-linecap="round" stroke-linejoin="round" stroke-width="1.5" d="M14.875 3h-1.25"></path></g></svg>