<?xml version="1.0" encoding="UTF-8"?><svg version="1.1" viewBox="0 0 24 24" xmlns="http://www.w3.org/2000/svg" xmlns:xlink="http://www.w3.org/1999/xlink"><g stroke-linecap="round" stroke-width="1.5" stroke="#323232" fill="none" stroke-linejoin="round"><path d="M10.31 12.57l.895 4.028c.111.502.779.61 1.043.169l4.17-6.95c.227-.379-.046-.861-.488-.861h-7.86c-.507 0-.761.613-.402.971l2.642 2.643Z"></path><path d="M16.42 9.236l-6.11 3.33"></path><path d="M21 7v10c0 2.209-1.791 4-4 4h-10c-2.209 0-4-1.791-4-4v-10c0-2.209 1.791-4 4-4h10c2.209 0 4 1.791 4 4Z"></path></g><path fill="none" d="M0 0h24v24h-24v-24Z"></path></svg>