<svg viewBox="0 0 24 24" xmlns="http://www.w3.org/2000/svg"><g stroke-linecap="round" stroke-width="1.5" stroke="#323232" fill="none" stroke-linejoin="round"><path d="M3 12l0 0c-.01-4.98 4.02-9.01 8.99-9.01 4.97-.01 9 4.02 9 8.99 0 4.97-4.03 9-9 9"/><path d="M9.845 15.491l-.82-2.68 -2.33-.73 -.01-.01c-.16-.05-.25-.22-.2-.37 .02-.09.09-.16.17-.19l8.85-3.42 0-.01c.22-.09.48.02.57.25 .02.07.03.16.02.24l-1.487 7 0-.01c-.07.31-.38.51-.69.44 -.09-.02-.16-.06-.23-.11l-2.112-1.56 -1.25 1.21 0-.01c-.13.12-.34.12-.46-.01 -.04-.04-.07-.08-.08-.13Z"/><path d="M4 20l3-3"/><path d="M8 21l1-1"/><path d="M3 16l1-1"/></g><path fill="none" d="M0 0h24v24H0Z"/></svg>