<svg viewBox="0 0 24 24" xmlns="http://www.w3.org/2000/svg" xmlns:xlink="http://www.w3.org/1999/xlink"><defs><path d="M0 0h24v24H0Z" id="a"/></defs><g fill="none"><use xlink:href="#a"/><use xlink:href="#a"/><g stroke-linecap="round" stroke-width="1.5" stroke="#323232" fill="none" stroke-linejoin="round"><path d="M12 3H7l0-.001c-2.21 0-4 1.79-4 4v9l-.01-.01c0 2.76 2.23 4.99 4.99 5h9l0-.001c2.2-.01 3.99-1.8 4-4v-5"/><path d="M16.55 2v0l-.01 0c3-.01 5.44 2.43 5.44 5.44v0"/><path d="M16.55 5v0l-.01 0c1.35-.01 2.44 1.09 2.44 2.44 0 0 0 0 0 0v0"/><path d="M6.99 14.045v0l-.01 0c-.01 1.35 1.09 2.45 2.45 2.45h5.09l-.01 0c1.35-.01 2.45-1.1 2.45-2.46v0l0-.01c0-1.36-1.1-2.46-2.46-2.46 -.01 0-.01 0-.01 0h-5.1l-.01-.001c-1.36-.01-2.46 1.09-2.46 2.45Z"/><path d="M16.99 13.846l-.35-4.51 0 0c-.09-1.05-.95-1.85-2-1.85h-5.3l0-.001c-1.05 0-1.92.8-2 1.84l-.35 4.5"/><path d="M14.414 13.96l-.01 0c.01-.02.05-.02.07-.01l0 0c.01.01.01.05-.01.07 -.02.01-.06.01-.08-.01 -.02-.02-.02-.06 0-.08"/></g></g></svg>