<?xml version="1.0" encoding="UTF-8"?><svg version="1.1" viewBox="0 0 24 24" xmlns="http://www.w3.org/2000/svg" xmlns:xlink="http://www.w3.org/1999/xlink"><g stroke-linecap="round" stroke-width="1.5" stroke="#323232" fill="none" stroke-linejoin="round"><path d="M16.75 5.205h-4.221c-.331 0-.641-.164-.827-.438l-.905-1.33c-.186-.273-.495-.437-.826-.437h-2.721c-1.105 0-2 .895-2 2v8c0 1.105.895 2 2 2h9.5c1.105 0 2-.895 2-2v-5.795c0-1.104-.895-2-2-2Z"></path><path d="M12 15.02v1.5"></path><path d="M16 20h4"></path><line x1="10.5" x2="13.5" y1="18.5" y2="21.5"></line><line x1="10.5" x2="13.5" y1="21.5" y2="18.5"></line><path d="M4 20h4"></path></g><path fill="none" d="M0 0h24v24h-24v-24Z"></path></svg>