<svg viewBox="0 0 24 24" xmlns="http://www.w3.org/2000/svg"><g fill="none"><path d="M0 0h24v24H0Z"/><g stroke-linecap="round" stroke-width="1.5" stroke="#323232" fill="none" stroke-linejoin="round"><path d="M16 2a4 4 0 1 0 0 8 4 4 0 1 0 0-8Z"/><path d="M21 11l-2.17-2.17"/><path d="M15 21h3l-.01-.001c1.65 0 3-1.35 3-3v-3"/><path d="M3 10V7l0 0c-.01-1.66 1.34-3.01 2.99-3.01h2"/><path d="M3 18.81v0l-.01-.01c0 1.21.99 2.18 2.2 2.18h4.58l-.01-.001c1.21 0 2.2-.97 2.21-2.19v0l0 0c-.01-1.22-1-2.19-2.21-2.19 -.01 0-.01 0-.01 0H5.16l-.01-.001c-1.22-.01-2.21.96-2.21 2.18Z"/><path d="M9.46 18.8l0-.01c.01-.02.04-.02.06 0l0 0c.01.01.01.04-.01.06 -.02.01-.05.01-.07-.01 -.02-.02-.02-.05 0-.07"/><path d="M9.46 18.78l0-.01c.01-.02.04-.02.06 0l0 0c.01.01.01.04-.01.06 -.02.01-.05.01-.07-.01 -.02-.02-.02-.05 0-.07"/><path d="M11.99 18.64l-.32-4.01 0 0c-.08-.94-.87-1.65-1.8-1.65H5.1l0 0c-.94-.01-1.72.7-1.8 1.64l-.32 4"/></g></g></svg>