<?xml version="1.0" encoding="UTF-8"?><svg version="1.1" viewBox="0 0 24 24" xmlns="http://www.w3.org/2000/svg" xmlns:xlink="http://www.w3.org/1999/xlink"><!--Generated by IJSVG (https://github.com/iconjar/IJSVG)--><g stroke-linecap="round" stroke-width="1.5" stroke="#323232" fill="none" stroke-linejoin="round"><path d="M16,3h-10c-2.209,0 -4,1.791 -4,4v0c0,2.209 1.791,4 4,4h10c2.209,0 4,-1.791 4,-4v0c0,-2.209 -1.791,-4 -4,-4Z"></path><path d="M6,11c-2.209,0 -4,1.791 -4,4v0c0,2.209 1.791,4 4,4h7"></path><path d="M17,21c-2.761,0 -5,-2.239 -5,-5c0,-2.761 2.239,-5 5,-5c2.762,0 5,2.239 5,5c0,2.761 -2.238,5 -5,5"></path><path d="M19.222,14.889l-2.778,2.778l-1.666,-1.667"></path><path d="M10,7h6"></path><path d="M6.03536,6.96464c0.0195262,0.0195262 0.0195262,0.0511845 0,0.0707107c-0.0195262,0.0195262 -0.0511845,0.0195262 -0.0707107,0c-0.0195262,-0.0195262 -0.0195262,-0.0511845 0,-0.0707107c0.0195262,-0.0195262 0.0511845,-0.0195262 0.0707107,0"></path><path d="M10,15h2.1"></path><path d="M6.03536,14.9646c0.0195262,0.0195262 0.0195262,0.0511845 0,0.0707107c-0.0195262,0.0195262 -0.0511845,0.0195262 -0.0707107,0c-0.0195262,-0.0195262 -0.0195262,-0.0511845 0,-0.0707107c0.0195262,-0.0195262 0.0511845,-0.0195262 0.0707107,0"></path></g><path fill="none" d="M0,0h24v24h-24v-24Z"></path></svg>