<?xml version="1.0" encoding="UTF-8"?><svg version="1.1" viewBox="0 0 24 24" xmlns="http://www.w3.org/2000/svg" xmlns:xlink="http://www.w3.org/1999/xlink"><g stroke-linecap="round" stroke-width="1.5" stroke="#323232" fill="none" stroke-linejoin="round"><polyline points="6,8.25 3,8.25 3,5.25"></polyline><path d="M7.467 19.924c.9.521 1.897.89 2.959 1.076"></path><path d="M3.482 15.173c.366 1.004.896 1.927 1.57 2.73"></path><path d="M13.574 21c1.062-.186 2.058-.555 2.959-1.076"></path><path d="M18.948 17.903c.674-.803 1.204-1.726 1.57-2.73"></path><path d="M21 12c0-4.971-4.029-9-9-9 -3.63 0-6.751 2.154-8.174 5.25"></path><path d="M14.121 9.879c1.172 1.172 1.172 3.071 0 4.243 -1.172 1.172-3.071 1.172-4.243 0 -1.172-1.172-1.172-3.071 0-4.243 1.172-1.172 3.072-1.172 4.243 0"></path><path d="M12 9v-1"></path><path d="M12 15v1"></path><path d="M15 12h1"></path><path d="M9 12h-1"></path><path d="M14.12 9.88l.71-.71"></path><path d="M9.88 14.12l-.71.71"></path><path d="M14.12 14.12l.71.71"></path><path d="M9.88 9.88l-.71-.71"></path></g><rect width="24" height="24" fill="none"></rect></svg>