<svg id="Layer_3" data-name="Layer 3" xmlns="http://www.w3.org/2000/svg" viewBox="0 0 24 24"><path d="M0,24V0H24V24Z" fill="none"/><circle cx="19" cy="5" r="2" fill="none" stroke="#323232" stroke-linecap="round" stroke-linejoin="round" stroke-width="1.5"/><path d="M14.11111,2.77935A9.30913,9.30913,0,0,0,12,2.5,9.5,9.5,0,1,0,21.5,12a9.30868,9.30868,0,0,0-.27935-2.11111" fill="none" stroke="#323232" stroke-linecap="round" stroke-linejoin="round" stroke-width="1.5"/><path d="M16.5,14.39286C16.5,15.28064,14.48529,16,12,16s-4.5-.71936-4.5-1.60714V9.60714C7.5,8.71936,9.51471,8,12,8s4.5.71936,4.5,1.60714Z" fill="none" stroke="#323232" stroke-linecap="round" stroke-linejoin="round" stroke-width="1.5"/><path d="M16.5,10.89286C16.5,11.78064,14.48529,12.5,12,12.5s-4.5-.71936-4.5-1.60714" fill="none" stroke="#323232" stroke-linecap="round" stroke-linejoin="round" stroke-width="1.5"/></svg>