<?xml version="1.0" encoding="UTF-8"?><svg version="1.1" viewBox="0 0 24 24" xmlns="http://www.w3.org/2000/svg" xmlns:xlink="http://www.w3.org/1999/xlink"><g fill="none"><path d="M0 0h24v24h-24v-24Z"></path><line x1="14.53" x2="9.89" y1="17.54" y2="17.54" stroke="#323232" stroke-linecap="round" stroke-linejoin="round" stroke-width="1.5"></line><ellipse cx="18" rx="3.473" ry="3.459" cy="17.541" stroke="#323232" stroke-linecap="round" stroke-linejoin="round" stroke-width="1.5"></ellipse><line x1="18" x2="18" y1="10" y2="14.08" stroke="#323232" stroke-linecap="round" stroke-linejoin="round" stroke-width="1.5"></line><ellipse cx="6" rx="3.473" ry="3.459" cy="6.459" stroke="#323232" stroke-linecap="round" stroke-linejoin="round" stroke-width="1.5"></ellipse><line x1="6" x2="6" y1="14" y2="10" stroke="#323232" stroke-linecap="round" stroke-linejoin="round" stroke-width="1.5"></line><path stroke="#323232" stroke-linecap="round" stroke-linejoin="round" stroke-width="1.5" d="M8 21h-4c-1.105 0-2-.895-2-2v0c0-1.105.895-2 2-2h4c1.105 0 2 .895 2 2v0c0 1.105-.895 2-2 2Z"></path><path stroke="#323232" stroke-linecap="round" stroke-linejoin="round" stroke-width="1.5" d="M2.007 18.834l.236-2.991c.081-1.041.95-1.843 1.993-1.843h3.527c1.044 0 1.912.802 1.994 1.843l.236 2.991"></path><path stroke="#323232" stroke-linecap="round" stroke-linejoin="round" stroke-width="1.5" d="M20 10h-4c-1.105 0-2-.895-2-2v0c0-1.105.895-2 2-2h4c1.105 0 2 .895 2 2v0c0 1.105-.895 2-2 2Z"></path><path stroke="#323232" stroke-linecap="round" stroke-linejoin="round" stroke-width="1.5" d="M14.007 7.834l.236-2.991c.081-1.041.95-1.843 1.993-1.843h3.527c1.044 0 1.912.802 1.994 1.843l.236 2.991"></path></g></svg>