<svg viewBox="0 0 24 24" xmlns="http://www.w3.org/2000/svg"><g stroke-linecap="round" stroke-width="1.5" stroke="#323232" fill="none" stroke-linejoin="round"><path d="M11.05 18.98H4.5h-.01c-.83-.01-1.5-.68-1.5-1.5 0 0 0 0 0 0v-5l0 0c-.01-.83.67-1.51 1.49-1.51h11.31"/><path d="M19.56 14.76l2.24 3.99 0 0c.4.72.14 1.64-.58 2.04 -.23.12-.48.19-.74.19h-4.49l0-.001c-.84 0-1.51-.68-1.51-1.51 -.01-.26.06-.52.19-.74l2.24-4 -.01 0c.4-.73 1.32-.99 2.04-.58 .24.13.43.33.57.57Z"/><rect width="18" height="8" x="3" y="3" rx="1.5"/><path d="M6.49 6.49l0 1"/><path d="M9.49 6.49l0 1"/><path d="M6.49 14.49l0 1"/><path d="M9.49 14.49l0 1"/><path d="M18 7l-5 0"/></g><path fill="none" d="M0 0h24v24H0Z"/></svg>