<svg id="Layer_3" data-name="Layer 3" xmlns="http://www.w3.org/2000/svg" viewBox="0 0 24 24"><rect width="24" height="24" fill="none"/><line x1="6.4875" y1="14.4875" x2="6.4875" y2="15.4875" fill="none" stroke="#323232" stroke-linecap="round" stroke-linejoin="round" stroke-width="1.5"/><line x1="9.4875" y1="14.4875" x2="9.4875" y2="15.4875" fill="none" stroke="#323232" stroke-linecap="round" stroke-linejoin="round" stroke-width="1.5"/><path d="M13,7.0125h5.0125" fill="none" stroke="#323232" stroke-linecap="round" stroke-linejoin="round" stroke-width="1.5"/><line x1="6.5" y1="6.5125" x2="6.5" y2="7.5125" fill="none" stroke="#323232" stroke-linecap="round" stroke-linejoin="round" stroke-width="1.5"/><line x1="9.5" y1="6.5125" x2="9.5" y2="7.5125" fill="none" stroke="#323232" stroke-linecap="round" stroke-linejoin="round" stroke-width="1.5"/><path d="M10,11H4.5A1.5,1.5,0,0,1,3,9.5v-5A1.5,1.5,0,0,1,4.5,3h15A1.5,1.5,0,0,1,21,4.5V9" fill="none" stroke="#323232" stroke-linecap="round" stroke-linejoin="round" stroke-width="1.5"/><path d="M14,15.5h0A3.5,3.5,0,0,1,17.5,12h0A3.5,3.5,0,0,1,21,15.5h0" fill="none" stroke="#323232" stroke-linecap="round" stroke-linejoin="round" stroke-width="1.5"/><path d="M14,15.5c0,1.66118,1.85606,3.43784,2.86468,4.28117a1.03021,1.03021,0,0,0,1.26926.00034C19.14351,18.93828,21,17.16139,21,15.5" fill="none" stroke="#323232" stroke-linecap="round" stroke-linejoin="round" stroke-width="1.5"/><path d="M17.32263,15.32382l.00043-.00044a.25236.25236,0,1,1-.00043.00044" fill="none" stroke="#323232" stroke-linecap="round" stroke-linejoin="round" stroke-width="1.5"/><path d="M10,11H4.5A1.5,1.5,0,0,0,3,12.5v5A1.5,1.5,0,0,0,4.5,19H10" fill="none" stroke="#323232" stroke-linecap="round" stroke-linejoin="round" stroke-width="1.5"/></svg>