<svg id="Layer_3" data-name="Layer 3" xmlns="http://www.w3.org/2000/svg" viewBox="0 0 24 24"><path d="M14.5,13.95a.05.05,0,1,0,.05.05.05.05,0,0,0-.05-.05" fill="none" stroke="#323232" stroke-linecap="round" stroke-linejoin="round" stroke-width="1.5"/><path d="M7,14.045H7A2.45448,2.45448,0,0,0,9.45375,16.5h5.0905A2.456,2.456,0,0,0,17,14.046h0a2.4547,2.4547,0,0,0-2.45475-2.455H9.45475A2.45448,2.45448,0,0,0,7,14.045Z" fill="none" stroke="#323232" stroke-linecap="round" stroke-linejoin="round" stroke-width="1.5"/><path d="M16.991,13.846l-.34893-4.5006A2,2,0,0,0,14.64805,7.5H9.351A2,2,0,0,0,7.357,9.3454L7.008,13.847" fill="none" stroke="#323232" stroke-linecap="round" stroke-linejoin="round" stroke-width="1.5"/><rect x="3" y="3" width="18" height="18" rx="5" stroke-width="1.5" stroke="#323232" stroke-linecap="round" stroke-linejoin="round" fill="none"/><path d="M24,0H0V24H24Z" fill="none"/></svg>