<?xml version="1.0" encoding="UTF-8"?><svg version="1.1" viewBox="0 0 24 24" xmlns="http://www.w3.org/2000/svg" xmlns:xlink="http://www.w3.org/1999/xlink"><!--Generated by IJSVG (https://github.com/iconjar/IJSVG)--><g stroke-linecap="round" stroke-width="1.5" stroke="#323232" fill="none" stroke-linejoin="round"><path d="M20.976,11.619l-0.675,-5.957c-0.171,-1.516 -1.454,-2.662 -2.98,-2.662h-10.642c-1.526,0 -2.809,1.146 -2.981,2.662l-0.675,5.957"></path><path d="M18,15h-12c-1.657,0 -3,1.343 -3,3v0c0,1.657 1.343,3 3,3h12c1.657,0 3,-1.343 3,-3v0c0,-1.657 -1.343,-3 -3,-3Z"></path><path d="M18,9h-12c-1.657,0 -3,1.343 -3,3v0c0,1.657 1.343,3 3,3h12c1.657,0 3,-1.343 3,-3v0c0,-1.657 -1.343,-3 -3,-3Z"></path><path d="M11,12h7"></path><path d="M6.03536,11.9646c0.0195262,0.0195262 0.0195262,0.0511845 0,0.0707107c-0.0195262,0.0195262 -0.0511845,0.0195262 -0.0707107,0c-0.0195262,-0.0195262 -0.0195262,-0.0511845 0,-0.0707107c0.0195262,-0.0195262 0.0511845,-0.0195262 0.0707107,0"></path><path d="M11.07,18h7"></path><path d="M6.10136,17.9646c0.0195262,0.0195262 0.0195262,0.0511845 0,0.0707107c-0.0195262,0.0195262 -0.0511845,0.0195262 -0.0707107,0c-0.0195262,-0.0195262 -0.0195262,-0.0511845 0,-0.0707107c0.0195262,-0.0195262 0.0511845,-0.0195262 0.0707107,0"></path></g><path fill="none" d="M0,0h24v24h-24v-24Z"></path></svg>