<svg id="Layer_3" data-name="Layer 3" xmlns="http://www.w3.org/2000/svg" viewBox="0 0 24 24"><path d="M17.25,6.74929l2.5-2.5" fill="none" stroke="#323232" stroke-linecap="round" stroke-linejoin="round" stroke-width="1.5"/><path d="M17.25,4.25071l2.5,2.5" fill="none" stroke="#323232" stroke-linecap="round" stroke-linejoin="round" stroke-width="1.5"/><path d="M3,9.21429C3,10.20071,5.23857,11,8,11" fill="none" stroke="#323232" stroke-linecap="round" stroke-linejoin="round" stroke-width="1.5"/><rect x="11" y="16" width="10" height="5" rx="2.5" stroke-width="1.5" stroke="#323232" stroke-linecap="round" stroke-linejoin="round" fill="none"/><path d="M20.99107,18.347l-.3486-4.50143A2,2,0,0,0,18.64844,12h-5.2978a2,2,0,0,0-1.994,1.84558L11.008,18.347" fill="none" stroke="#323232" stroke-linecap="round" stroke-linejoin="round" stroke-width="1.5"/><path d="M18.41451,18.46421a.05143.05143,0,0,1,.071,0,.05014.05014,0,1,1-.071,0" fill="none" stroke="#323232" stroke-linecap="round" stroke-linejoin="round" stroke-width="1.5"/><path d="M8,15c-2.76143,0-5-.79929-5-1.78571V4.78571C3,3.79929,5.23857,3,8,3s5,.79929,5,1.78571V9" fill="none" stroke="#323232" stroke-linecap="round" stroke-linejoin="round" stroke-width="1.5"/><path d="M3,5.5c0,.98643,2.23857,1.78571,5,1.78571S13,6.48643,13,5.5" fill="none" stroke="#323232" stroke-linecap="round" stroke-linejoin="round" stroke-width="1.5"/><path d="M0,0H24V24H0Z" fill="none"/><path d="M0,0H24V24H0Z" fill="none"/></svg>