<svg id="Layer_3" data-name="Layer 3" xmlns="http://www.w3.org/2000/svg" viewBox="0 0 24 24"><path d="M0,0H24V24H0Z" fill="none"/><path d="M16.5,13.045h0A2.3416,2.3416,0,0,1,14.29162,15.5H9.71018A2.34272,2.34272,0,0,1,7.5,13.046h0a2.34171,2.34171,0,0,1,2.20928-2.455h4.58144A2.34141,2.34141,0,0,1,16.5,13.045Z" fill="none" stroke="#323232" stroke-linecap="round" stroke-linejoin="round" stroke-width="1.5"/><path d="M16.4928,12.847l-.24327-3.4862A2,2,0,0,0,14.25438,7.5H9.74647A2,2,0,0,0,7.75132,9.36078L7.50812,12.846" fill="none" stroke="#323232" stroke-linecap="round" stroke-linejoin="round" stroke-width="1.5"/><path d="M3.5,10.767a10.60888,10.60888,0,0,0,6.89228,9.93655l.03007.01125a4.5,4.5,0,0,0,3.15565-.001l.02436-.00913A10.62689,10.62689,0,0,0,20.5,10.75363V7.03023a2,2,0,0,0-1.40372-1.90905l-6.5-2.03023a2,2,0,0,0-1.19254,0l-6.5,2.03017A2,2,0,0,0,3.5,7.03017Z" fill="none" stroke="#323232" stroke-linecap="round" stroke-linejoin="round" stroke-width="1.5"/><path d="M10.05,13.00006A.05.05,0,1,1,9.99994,12.95a.05.05,0,0,1,.05006.05006" fill="none" stroke="#323232" stroke-linecap="round" stroke-linejoin="round" stroke-width="1.5"/></svg>