<?xml version="1.0" encoding="UTF-8"?><svg version="1.1" viewBox="0 0 24 24" xmlns="http://www.w3.org/2000/svg" xmlns:xlink="http://www.w3.org/1999/xlink"><!--Generated by IJSVG (https://github.com/iconjar/IJSVG)--><g fill="none"><path d="M0,0h24v24h-24v-24Z"></path><path stroke="#323232" stroke-linecap="round" stroke-linejoin="round" stroke-width="1.5" d="M17,2c-2.761,0 -5,2.239 -5,5c0,2.761 2.239,5 5,5c2.762,0 5,-2.239 5,-5c0,-2.761 -2.238,-5 -5,-5"></path><path stroke="#323232" stroke-linecap="round" stroke-linejoin="round" stroke-width="1.5" d="M18,15h-12c-1.657,0 -3,1.343 -3,3v0c0,1.657 1.343,3 3,3h12c1.657,0 3,-1.343 3,-3v0c0,-1.657 -1.343,-3 -3,-3Z"></path><path stroke="#323232" stroke-linecap="round" stroke-linejoin="round" stroke-width="1.5" d="M18,18h-7"></path><path stroke="#323232" stroke-linecap="round" stroke-linejoin="round" stroke-width="1.5" d="M6.035,17.965c0.02,0.02 0.02,0.051 0,0.071c-0.02,0.02 -0.051,0.02 -0.071,0c-0.02,-0.02 -0.02,-0.051 0,-0.071c0.02,-0.02 0.052,-0.02 0.071,0"></path><path stroke="#323232" stroke-linecap="round" stroke-linejoin="round" stroke-width="1.5" d="M12.422,5h-6.571c-1.045,0 -1.913,0.804 -1.994,1.845l-0.847,10.912"></path><path stroke="#323232" stroke-linecap="round" stroke-linejoin="round" stroke-width="1.5" d="M20.99,17.76l-0.55,-7.14"></path><path stroke="#323232" stroke-linecap="round" stroke-linejoin="round" stroke-width="1.5" d="M17,9.65c-0.027,0 -0.05,0.023 -0.05,0.05c0,0.027 0.023,0.05 0.05,0.05c0.027,0 0.05,-0.023 0.05,-0.05c0,-0.027 -0.023,-0.05 -0.05,-0.05v0"></path><path stroke="#323232" stroke-linecap="round" stroke-linejoin="round" stroke-width="1.5" d="M17,7.625c0.863,0 1.563,-0.7 1.563,-1.563c0,-0.863 -0.699,-1.563 -1.563,-1.563c-0.842,0 -1.523,0.666 -1.556,1.5"></path></g></svg>