<?xml version="1.0" encoding="UTF-8"?><svg version="1.1" viewBox="0 0 24 24" xmlns="http://www.w3.org/2000/svg" xmlns:xlink="http://www.w3.org/1999/xlink"><!--Generated by IJSVG (https://github.com/iconjar/IJSVG)--><g stroke-linecap="round" stroke-width="1.5" stroke="#323232" fill="none" stroke-linejoin="round"><path d="M16,10h3c1.105,0 2,-0.895 2,-2v-3c0,-1.105 -0.895,-2 -2,-2h-3c-1.105,0 -2,0.895 -2,2v3c0,1.105 0.895,2 2,2Z"></path><path d="M4,18.5h5c0.552,0 1,-0.448 1,-1v-2.5c0,-0.552 -0.448,-1 -1,-1h-5c-0.552,0 -1,0.448 -1,1v2.5c0,0.552 0.448,1 1,1Z"></path><path d="M8.5,21h-4"></path><path d="M20.5,15v2c0,1.105 -0.895,2 -2,2h-3.5"></path><path d="M17,17l-2,2l2,2"></path><path d="M7,7l2,-2l-2,-2"></path><path d="M3.5,9v-2c0,-1.105 0.895,-2 2,-2h3.5"></path></g><path fill="none" d="M0,0h24v24h-24Z"></path></svg>