<svg id="Layer_3" data-name="Layer 3" xmlns="http://www.w3.org/2000/svg" viewBox="0 0 24 24"><line x1="6.5" y1="14.5" x2="6.5" y2="15.5" fill="none" stroke="#323232" stroke-linecap="round" stroke-linejoin="round" stroke-width="1.5"/><line x1="9.5" y1="14.5" x2="9.5" y2="15.5" fill="none" stroke="#323232" stroke-linecap="round" stroke-linejoin="round" stroke-width="1.5"/><path d="M13,7.0125h5.0125" fill="none" stroke="#323232" stroke-linecap="round" stroke-linejoin="round" stroke-width="1.5"/><line x1="6.5" y1="6.5" x2="6.5" y2="7.5" fill="none" stroke="#323232" stroke-linecap="round" stroke-linejoin="round" stroke-width="1.5"/><line x1="9.5" y1="6.5" x2="9.5" y2="7.5" fill="none" stroke="#323232" stroke-linecap="round" stroke-linejoin="round" stroke-width="1.5"/><rect x="3" y="3" width="18" height="8" rx="1.5" stroke-width="1.5" stroke="#323232" stroke-linecap="round" stroke-linejoin="round" fill="none"/><path d="M8,11H4.5A1.5,1.5,0,0,0,3,12.5v5A1.5,1.5,0,0,0,4.5,19H10" fill="none" stroke="#323232" stroke-linecap="round" stroke-linejoin="round" stroke-width="1.5"/><path d="M19.55662,14.5H16.44338a1,1,0,0,0-.866.5L14.134,17.5a1,1,0,0,0,0,1L15.57735,21a1,1,0,0,0,.866.5h3.11324a1,1,0,0,0,.866-.5L21.866,18.5a1,1,0,0,0,0-1L20.42265,15A1,1,0,0,0,19.55662,14.5Z" fill="none" stroke="#323232" stroke-linecap="round" stroke-linejoin="round" stroke-width="1.5"/><path d="M18.005,18,18,18.005,17.995,18,18,17.995l.005.005" fill="none" stroke="#323232" stroke-linecap="round" stroke-linejoin="round" stroke-width="1.5"/><rect width="24" height="24" fill="none"/></svg>