<svg viewBox="0 0 24 24" xmlns="http://www.w3.org/2000/svg"><g fill="none"><path d="M0 0h24v24H0Z"/><g stroke-linecap="round" stroke-width="1.5" stroke="#323232" fill="none" stroke-linejoin="round"><path d="M19 7v11.97l0-.01c0 1.11-.91 2.02-2.03 2.02H7.01l0 0c-1.12-.01-2.03-.91-2.03-2.03V6.97"/><path d="M6 8h11.99l-.01-.001c.55 0 1-.45 1-1 0-.22-.08-.43-.21-.61l-1.96-2.61 0 0c-.38-.51-.97-.8-1.6-.8H8.72l0-.001c-.63 0-1.22.29-1.6.79l-1.96 2.6 -.01 0c-.34.44-.25 1.06.19 1.4 .17.13.38.2.6.2Z"/><path d="M16 18l-1 0"/><path d="M9 18l-1 0"/><path d="M5 11.5l14 0"/><path d="M5 15l14 0"/><path d="M12.5 18l-1 0"/></g></g></svg>