<?xml version="1.0" encoding="UTF-8"?><svg version="1.1" viewBox="0 0 24 24" xmlns="http://www.w3.org/2000/svg" xmlns:xlink="http://www.w3.org/1999/xlink"><!--Generated by IJSVG (https://github.com/iconjar/IJSVG)--><g stroke-linecap="round" stroke-width="1.5" stroke="#323232" fill="none" stroke-linejoin="round"><path d="M19,21v0c-1.105,0 -2,-0.895 -2,-2v0c0,-1.105 0.895,-2 2,-2v0c1.105,0 2,0.895 2,2v0c0,1.105 -0.895,2 -2,2Z"></path><path d="M12,11v6"></path><path d="M12,21v0c-1.105,0 -2,-0.895 -2,-2v0c0,-1.105 0.895,-2 2,-2v0c1.105,0 2,0.895 2,2v0c0,1.105 -0.895,2 -2,2Z"></path><path d="M5,21v0c-1.105,0 -2,-0.895 -2,-2v0c0,-1.105 0.895,-2 2,-2v0c1.105,0 2,0.895 2,2v0c0,1.105 -0.895,2 -2,2Z"></path><path d="M5,17v-2c0,-0.552 0.448,-1 1,-1h12c0.552,0 1,0.448 1,1v2"></path><path d="M17,3h-10c-2.209,0 -4,1.791 -4,4v0c0,2.209 1.791,4 4,4h10c2.209,0 4,-1.791 4,-4v0c0,-2.209 -1.791,-4 -4,-4Z"></path><path d="M11,7h6"></path><path d="M7.035,6.965c0.02,0.02 0.02,0.051 0,0.071c-0.02,0.02 -0.051,0.02 -0.071,0c-0.02,-0.02 -0.02,-0.051 0,-0.071c0.02,-0.02 0.052,-0.02 0.071,0"></path></g><path fill="none" d="M0,0h24v24h-24v-24Z"></path></svg>