<svg xmlns="http://www.w3.org/2000/svg" viewBox="0 0 24 24"><g id="Layer_2" data-name="Layer 2"><path d="M24,24H0V0H24Z" fill="none"/><path d="M12,21H8a5,5,0,0,1-5-5V8A5,5,0,0,1,8,3h8a5,5,0,0,1,5,5v3" fill="none" stroke="#323232" stroke-linecap="round" stroke-linejoin="round" stroke-width="1.5"/><path d="M7,10.2c0,.99432,2.23857,1.8,5,1.8s5-.80568,5-1.8" fill="none" stroke="#323232" stroke-linecap="round" stroke-linejoin="round" stroke-width="1.5"/><path d="M17,10.2V9.3c0-.99432-2.23857-1.8-5-1.8S7,8.30568,7,9.3v5.4c0,.99432,2.23857,1.8,5,1.8" fill="none" stroke="#323232" stroke-linecap="round" stroke-linejoin="round" stroke-width="1.5"/><path d="M20.04975,14.29288a1,1,0,0,0-1.41416,0l-2.84268,2.84268a1.00007,1.00007,0,0,0-.29291.70716V20h2.15727a1,1,0,0,0,.70715-.29291l2.84269-2.84269a1,1,0,0,0,0-1.41422Z" fill="none" stroke="#323232" stroke-linecap="round" stroke-linejoin="round" stroke-width="1.5"/></g></svg>