<?xml version="1.0" encoding="UTF-8"?><svg version="1.1" viewBox="0 0 24 24" xmlns="http://www.w3.org/2000/svg" xmlns:xlink="http://www.w3.org/1999/xlink"><g fill="none"><path d="M0 0h24v24h-24v-24Z"></path><path stroke="#323232" stroke-linecap="round" stroke-linejoin="round" stroke-width="1.5" d="M17 9.5v-4c0-1.381-3.134-2.5-7-2.5 -3.866 0-7 1.119-7 2.5v8c0 1.381 3.134 2.5 7 2.5 .699 0 1.373-.038 2.011-.106"></path><line x1="15.13" x2="18.88" y1="16" y2="16" stroke="#323232" stroke-linecap="round" stroke-linejoin="round" stroke-width="1.5"></line><line x1="17" x2="17" y1="17.88" y2="14.12" stroke="#323232" stroke-linecap="round" stroke-linejoin="round" stroke-width="1.5"></line><path stroke="#323232" stroke-linecap="round" stroke-linejoin="round" stroke-width="1.5" d="M17.001 11c-2.761 0-5 2.239-5 5 0 2.761 2.239 5 5 5 2.762 0 5-2.239 5-5 0-2.761-2.238-5-5-5"></path><path stroke="#323232" stroke-linecap="round" stroke-linejoin="round" stroke-width="1.5" d="M17 5.5c0 1.381-3.134 2.5-7 2.5 -3.866 0-7-1.119-7-2.5"></path><path stroke="#323232" stroke-linecap="round" stroke-linejoin="round" stroke-width="1.5" d="M17 9.5c0 1.381-3.134 2.5-7 2.5 -3.866 0-7-1.119-7-2.5"></path></g></svg>