<?xml version="1.0" encoding="UTF-8"?><svg version="1.1" viewBox="0 0 24 24" xmlns="http://www.w3.org/2000/svg" xmlns:xlink="http://www.w3.org/1999/xlink"><!--Generated by IJSVG (https://github.com/iconjar/IJSVG)--><g stroke-linecap="round" stroke-width="1.5" stroke="#323232" fill="none" stroke-linejoin="round"><path d="M16,3h-10c-2.209,0 -4,1.791 -4,4v0c0,2.209 1.791,4 4,4h10c2.209,0 4,-1.791 4,-4v0c0,-2.209 -1.791,-4 -4,-4Z"></path><path d="M6,11c-2.209,0 -4,1.791 -4,4v0c0,2.209 1.791,4 4,4h7"></path><path d="M17,21c-2.761,0 -5,-2.239 -5,-5c0,-2.761 2.239,-5 5,-5c2.762,0 5,2.239 5,5c0,2.761 -2.238,5 -5,5"></path><path d="M18.125,14.297c0.781,0.781 0.781,2.046 0,2.827c-0.781,0.781 -2.046,0.781 -2.827,0c-0.781,-0.781 -0.781,-2.046 0,-2.827c0.78,-0.78 2.046,-0.78 2.827,-1.77636e-15"></path><path d="M19,18l-0.88,-0.88"></path><path d="M10,7h6"></path><path d="M6.035,6.965c0.02,0.02 0.02,0.051 0,0.071c-0.02,0.02 -0.051,0.02 -0.071,0c-0.02,-0.02 -0.02,-0.051 0,-0.071c0.02,-0.02 0.052,-0.02 0.071,0"></path><path d="M10,15h2.1"></path><path d="M6.035,14.965c0.02,0.02 0.02,0.051 0,0.071c-0.02,0.02 -0.051,0.02 -0.071,0c-0.02,-0.02 -0.02,-0.051 0,-0.071c0.02,-0.02 0.052,-0.02 0.071,0"></path></g><path fill="none" d="M0,0h24v24h-24v-24Z"></path></svg>