<svg id="Layer_3" data-name="Layer 3" xmlns="http://www.w3.org/2000/svg" viewBox="0 0 24 24"><path d="M0,0H24V24H0Z" fill="none"/><path d="M7.5,13.5h0A2.5,2.5,0,0,1,10,11h4a2.5,2.5,0,0,1,2.5,2.5h0" fill="none" stroke="#323232" stroke-linecap="round" stroke-linejoin="round" stroke-width="1.5"/><path d="M16.5,13.5h0A2.5,2.5,0,0,1,14,16H10a2.5,2.5,0,0,1-2.5-2.5h0l.25235-3.63838A2,2,0,0,1,9.74756,8h4.51021a2,2,0,0,1,1.99541,1.86453Z" fill="none" stroke="#323232" stroke-linecap="round" stroke-linejoin="round" stroke-width="1.5"/><path d="M10.1,13.50006a.05.05,0,1,1-.05006-.05006.05.05,0,0,1,.05006.05006" fill="none" stroke="#323232" stroke-linecap="round" stroke-linejoin="round" stroke-width="1.5"/><path d="M6.82843,19.82843,4.17157,17.17157A4,4,0,0,1,3,14.34315V9.65785A4,4,0,0,1,4.17157,6.82943L6.82943,4.17157A4,4,0,0,1,9.65785,3h4.6843a4,4,0,0,1,2.82842,1.17157l2.65786,2.65786A4,4,0,0,1,21,9.65785v4.68539a4,4,0,0,1-1.17114,2.828L17.17292,19.828A4,4,0,0,1,14.34405,21H9.65685A4,4,0,0,1,6.82843,19.82843Z" fill="none" stroke="#323232" stroke-linecap="round" stroke-linejoin="round" stroke-width="1.5"/></svg>