<?xml version="1.0" encoding="UTF-8"?><svg version="1.1" viewBox="0 0 24 24" xmlns="http://www.w3.org/2000/svg" xmlns:xlink="http://www.w3.org/1999/xlink"><g stroke-linecap="round" stroke-width="1.5" stroke="#323232" fill="none" stroke-linejoin="round"><path d="M15.5 16c0 1.105-1.567 2-3.5 2 -1.933 0-3.5-.896-3.5-2"></path><path d="M8.5 13c0 1.105 1.567 2 3.5 2 1.933 0 3.5-.895 3.5-2"></path><path d="M8.5 13v6c0 1.104 1.566 2 3.499 2 1.933 0 3.5-.895 3.5-2v-6c.001-1.105-1.567-2-3.499-2 -1.932 0-3.499.896-3.5 2Z"></path><path d="M19 16.859c1.722-.446 3-1.997 3-3.859 0-2.209-1.791-4-4-4 0-3.314-2.686-6-6-6 -2.637-1.77636e-15-4.871 1.703-5.676 4.068 -2.439.333-4.324 2.402-4.324 4.932 0 2.047 1.238 3.796 3 4.569"></path></g><rect width="24" height="24" fill="none"></rect></svg>