<svg viewBox="0 0 24 24" xmlns="http://www.w3.org/2000/svg"><g fill="none"><path d="M0 0h24v24H0Z"/><g stroke-linecap="round" stroke-width="1.5" stroke="#323232" fill="none" stroke-linejoin="round"><path d="M14.49 14.01l-.01 0c.01-.02.05-.02.07-.01l0 0c.01.01.01.05-.01.07 -.02.01-.06.01-.08-.01 -.02-.02-.02-.06 0-.08"/><path d="M16.991 13.846l-.35-4.51 0 0c-.09-1.05-.95-1.85-2-1.85h-5.3l-.01 0c-1.05 0-1.92.8-2 1.84l-.35 4.5"/><rect width="10" height="4.87" x="7" y="11.629" rx="2.435"/><path d="M20.58 9.35l0 0c.27.85.41 1.74.41 2.64v0c0 4.97-4.03 9-9 9 -4.98 0-9-4.03-9-9 0-4.98 4.02-9 9-9l-.01-.001c.89 0 1.79.14 2.64.41"/><path d="M21 4.274l-1.99 1.98 -1.28-1.28"/></g></g></svg>