<?xml version="1.0" encoding="UTF-8"?><svg version="1.1" viewBox="0 0 24 24" xmlns="http://www.w3.org/2000/svg" xmlns:xlink="http://www.w3.org/1999/xlink"><!--Generated by IJSVG (https://github.com/iconjar/IJSVG)--><g fill="none"><path d="M0,0h24v24h-24v-24Z"></path><path stroke="#323232" stroke-linecap="round" stroke-linejoin="round" stroke-width="1.5" d="M18,15h-12c-1.657,0 -3,1.343 -3,3v0c0,1.657 1.343,3 3,3h12c1.657,0 3,-1.343 3,-3v0c0,-1.657 -1.343,-3 -3,-3Z"></path><path stroke="#323232" stroke-linecap="round" stroke-linejoin="round" stroke-width="1.5" d="M18,18h-7"></path><path stroke="#323232" stroke-linecap="round" stroke-linejoin="round" stroke-width="1.5" d="M6.035,17.965c0.02,0.02 0.02,0.051 0,0.071c-0.02,0.02 -0.051,0.02 -0.071,0c-0.02,-0.02 -0.02,-0.051 0,-0.071c0.02,-0.02 0.052,-0.02 0.071,0"></path><path stroke="#323232" stroke-linecap="round" stroke-linejoin="round" stroke-width="1.5" d="M17,12c2.75,0 5,-2.25 5,-5c0,-2.75 -2.25,-5 -5,-5c-2.75,0 -5,2.25 -5,5c0,1.122 0.379,2.157 1.009,2.993c0.914,1.215 2.363,2.007 3.991,2.007Z"></path><path stroke="#323232" stroke-linecap="round" stroke-linejoin="round" stroke-width="1.5" d="M19,8.333h-4l1.333,1.334"></path><path stroke="#323232" stroke-linecap="round" stroke-linejoin="round" stroke-width="1.5" d="M17.667,4.333l1.333,1.334h-4"></path><path stroke="#323232" stroke-linecap="round" stroke-linejoin="round" stroke-width="1.5" d="M12.422,5h-6.571c-1.045,0 -1.913,0.804 -1.994,1.845l-0.847,10.912"></path><path stroke="#323232" stroke-linecap="round" stroke-linejoin="round" stroke-width="1.5" d="M20.99,17.76l-0.55,-7.14"></path><path d="M0,24h24v-24h-24v24Z"></path></g></svg>