<svg id="Layer_3" data-name="Layer 3" xmlns="http://www.w3.org/2000/svg" viewBox="0 0 24 24"><path d="M0,0H24V24H0" fill="none"/><path d="M7.05272,11.14063,6.84,10.90073A1.35,1.35,0,0,1,6.6809,9.33l.3473-.60154A1.35,1.35,0,0,1,8.468,8.08089l.31419.06429a1.29524,1.29524,0,0,0,.9073-.14725h0a1.29523,1.29523,0,0,0,.58113-.7121l.1014-.30419a1.35,1.35,0,0,1,1.28072-.92309h.6946a1.35,1.35,0,0,1,1.28072.92309l.1014.30419a1.29523,1.29523,0,0,0,.58113.7121h0a1.29524,1.29524,0,0,0,.9073.14725l.31419-.06429a1.35,1.35,0,0,1,1.43976.6476l.3473.60154a1.35,1.35,0,0,1-.15908,1.5707l-.21274.2399A1.29521,1.29521,0,0,0,16.62112,12h0a1.29521,1.29521,0,0,0,.32616.85937l.21274.2399A1.35,1.35,0,0,1,17.3191,14.67l-.3473.60154a1.35,1.35,0,0,1-1.43976.6476l-.31431-.06431a1.29506,1.29506,0,0,0-.90716.14721h0a1.29511,1.29511,0,0,0-.58114.71209l-.10142.30424a1.35,1.35,0,0,1-1.28072.92311h-.69458a1.35,1.35,0,0,1-1.28072-.92311l-.10142-.30424a1.29511,1.29511,0,0,0-.58114-.71209h0a1.29506,1.29506,0,0,0-.90716-.14721l-.31431.06431a1.35,1.35,0,0,1-1.43976-.6476L6.6809,14.67A1.35,1.35,0,0,1,6.84,13.09927l.21274-.2399A1.29521,1.29521,0,0,0,7.37888,12h0A1.29521,1.29521,0,0,0,7.05272,11.14063Z" fill="none" stroke="#323232" stroke-linecap="round" stroke-linejoin="round" stroke-width="1.5"/><circle cx="12" cy="12" r="1.75" fill="none" stroke="#323232" stroke-linecap="round" stroke-linejoin="round" stroke-width="1.5"/><rect x="3" y="3" width="18" height="18" rx="5" stroke-width="1.5" stroke="#323232" stroke-linecap="round" stroke-linejoin="round" fill="none"/></svg>