<?xml version="1.0" encoding="UTF-8"?><svg version="1.1" viewBox="0 0 24 24" xmlns="http://www.w3.org/2000/svg" xmlns:xlink="http://www.w3.org/1999/xlink"><g fill="none"><path d="M24 24h-24v-24h24Z"></path><path stroke="#323232" stroke-linecap="round" stroke-linejoin="round" stroke-width="1.5" d="M11.278 10.536l2.974-2.974 7.56149e-10-7.58426e-10c.0315849-.03168.0315077-.0829663-.000172256-.114551 -.00689021-.00686952-.0149617-.0124415-.0238277-.0164488l-2.08376e-07-8.95819e-08c-1.75526-.754596-3.79265-.371549-5.154.969l-2.31749e-07 2.26538e-07c-1.30438 1.27505-1.72365 3.20463-1.066 4.906l-4.456 4.459 -2.06823e-08 2.07075e-08c-.735839.736734-.735839 1.93027 4.13647e-08 2.667v0l4.78632e-09 4.78051e-09c.736734.735839 1.93027.735839 2.667-9.56102e-09l4.492-4.492 -5.21902e-08-1.94205e-08c2.40689.895629 5.08411-.329488 5.97974-2.73638 .421235-1.13201.385466-2.38352-.0997366-3.48962l-1.99962e-09-4.03577e-09c-.0201061-.0405794-.0693014-.0571763-.109881-.0370703 -.00737448.00365387-.0141569.00839711-.0201192.0140703l-3.049 2.978v0l-1.066-1.069Z"></path><path stroke="#323232" stroke-linecap="round" stroke-linejoin="round" stroke-width="1.5" d="M7.105 19.546l6.59456e-08 4.28547e-08c4.17709 2.71448 9.7638 1.52879 12.4783-2.64829 2.71448-4.17709 1.52879-9.7638-2.64829-12.4783 -4.17709-2.71448-9.7638-1.52879-12.4783 2.64829 -1.93694 2.98061-1.9427 6.82087-.014709 9.80728"></path></g></svg>