<?xml version="1.0" encoding="UTF-8"?><svg version="1.1" viewBox="0 0 24 24" xmlns="http://www.w3.org/2000/svg" xmlns:xlink="http://www.w3.org/1999/xlink"><g fill="none"><path d="M0 0h24v24h-24Z"></path><path stroke="#323232" stroke-linecap="round" stroke-linejoin="round" stroke-width="1.5" d="M10.545 16.115l.326.734 -9.43654e-09-2.1211e-08c.19841.445976.64088.733249 1.129.733v0l-1.3532e-08-6.88871e-12c.48812.000248602.93059-.287024 1.129-.733l.326-.734 -6.85816e-08 1.54194e-07c.115831-.260426.311172-.477471.558-.62v0l-1.13531e-07 6.57521e-08c.248242-.14377.535708-.205045.821-.175l.8.085 -9.0129e-09-9.60583e-10c.485669.0517619.956166-.187799 1.2-.611v0l2.50473e-09-4.33955e-09c.243964-.422677.21614-.94938-.071-1.344l-.473-.649 -4.84628e-08-6.71932e-08c-.167919-.232818-.257561-.512949-.256-.8v0l-2.47567e-08-9.40281e-06c-.00075569-.287396.0899554-.567578.259006-.799998l.473-.649 3.69796e-08-5.07908e-08c.28733-.394643.314778-.921643.0699999-1.344v0l6.71379e-09 1.16383e-08c-.244019-.423006-.71438-.662498-1.2-.611l-.8.085 4.60812e-08-4.85197e-09c-.284847.029992-.571879-.0309149-.82-.174v0l-9.67546e-08-5.62268e-08c-.24733-.14373-.442698-.362206-.558-.624l-.329-.734 -1.64233e-09-3.68269e-09c-.198712-.445584-.641121-.73242-1.12901-.731992v0l5.27884e-08 2.68869e-11c-.48812-.000248618-.93059.287024-1.129.733l-.326.734 -3.16373e-08 7.15534e-08c-.115652.261568-.310933.479947-.558.624v0l9.06487e-08-5.21467e-08c-.24853.14297-.535841.203861-.821.174l-.8-.085 -8.97013e-09-9.51241e-10c-.48562-.0514978-.955981.187994-1.2.611v0l2.45139e-08-4.22981e-08c-.244778.422357-.21733.949357.0699999 1.344l.473.649 4.55345e-08 6.26044e-08c.169049.232421.259758.512604.259.8v0l2.45972e-08 9.34213e-06c.000755703.287396-.0899554.567578-.259006.799998l-.473.649 -1.39108e-08 1.91063e-08c-.28733.394643-.314778.921643-.07 1.344v0l-9.74464e-08-1.68923e-07c.244019.423006.714379.662498 1.2.611l.8-.085 -3.18406e-09 3.35255e-10c.284847-.029992.571879.0309149.82.174v0l4.58112e-09 2.65286e-09c.246766.142899.442331.359799.559006.619992Z"></path><path stroke="#323232" stroke-linecap="round" stroke-linejoin="round" stroke-width="1.5" d="M6.536 19.536l-2.072-2.072 -4.08831e-08-4.08938e-08c-.93738-.937627-1.46398-2.20917-1.464-3.535v-3.858l-4.58961e-10 6.69959e-05c2.00195e-07-1.32583.526585-2.59738 1.46395-3.53502l2.07205-2.07205 -1.27253e-09 1.27219e-09c.937627-.93738 2.20917-1.46398 3.535-1.464h3.857l-2.01326e-08-2.73559e-13c1.32583 1.79599e-05 2.59737.52662 3.535 1.464l2.073 2.073 -4.14187e-08-4.14296e-08c.93738.937627 1.46398 2.20917 1.464 3.535v3.856l4.59018e-10-6.77509e-05c0 1.32583-.526585 2.59738-1.46395 3.53502l-2.071 2.072 -7.08591e-08 7.08824e-08c-.937713.938021-2.2097 1.46503-3.53605 1.46505h-3.858l1.79067e-07 2.42295e-12c-1.32583-1.79178e-05-2.59737-.52662-3.535-1.464Z"></path><path stroke="#323232" stroke-linecap="round" stroke-linejoin="round" stroke-width="1.5" d="M12 11.75l4.6214e-09-1.84848e-11c-.13807.000552282-.24955.112928-.248998.250998 .000552282.13807.112928.24955.250998.248998 .137679-.000550718.248999-.112316.249-.249996l7.21973e-09-1.78492e-06c.000555747-.137518-.110474-.249448-.247992-.250004 -.00100337-4.05488e-06-.00200675-2.04494e-06-.00301009 6.02972e-06"></path></g></svg>