<?xml version="1.0" encoding="UTF-8"?><svg version="1.1" viewBox="0 0 24 24" xmlns="http://www.w3.org/2000/svg" xmlns:xlink="http://www.w3.org/1999/xlink"><g stroke-linecap="round" stroke-width="1.5" stroke="#323232" fill="none" stroke-linejoin="round"><path d="M5 6v-3"></path><path d="M5 21v-11"></path><path d="M12 14v-11"></path><path d="M12 21v-3"></path><path d="M19 6v-3"></path><path d="M19 21v-11"></path><path d="M6.41421 6.58579c.781049.781049.781049 2.04738 0 2.82843 -.781049.781049-2.04738.781049-2.82843 0 -.781049-.781049-.781049-2.04738-4.44089e-16-2.82843 .781049-.781049 2.04738-.781049 2.82843-8.88178e-16"></path><path d="M13.4142 14.5858c.781049.781049.781049 2.04738 0 2.82843 -.781049.781049-2.04738.781049-2.82843 0 -.781049-.781049-.781049-2.04738 0-2.82843 .781049-.781049 2.04738-.781049 2.82843 0"></path><path d="M20.4142 6.58579c.781049.781049.781049 2.04738 0 2.82843 -.781049.781049-2.04738.781049-2.82843 0 -.781049-.781049-.781049-2.04738 0-2.82843 .781049-.781049 2.04738-.781049 2.82843-8.88178e-16"></path></g><path fill="none" d="M0 0h24v24h-24Z"></path></svg>