<svg id="Layer_3" data-name="Layer 3" xmlns="http://www.w3.org/2000/svg" viewBox="0 0 24 24"><path d="M0,0H24V24H0Z" fill="none"/><rect x="3" y="3" width="18" height="18" rx="5" stroke-width="1.5" stroke="#323232" stroke-linecap="round" stroke-linejoin="round" fill="none"/><path d="M10.232,17H13.768A2,2,0,0,0,15.5,16l1.73205-3a2,2,0,0,0,0-2L15.5,8a2,2,0,0,0-1.732-1H10.232A2,2,0,0,0,8.5,8L6.768,11a2,2,0,0,0,0,2L8.5,16A2,2,0,0,0,10.232,17Z" fill="none" stroke="#323232" stroke-linecap="round" stroke-linejoin="round" stroke-width="1.5"/></svg>