<?xml version="1.0" encoding="UTF-8"?><svg version="1.1" viewBox="0 0 24 24" xmlns="http://www.w3.org/2000/svg" xmlns:xlink="http://www.w3.org/1999/xlink"><path d="M9.25 15h-2.25m2.25 0l1.95399e-14 2.64243e-07c1.45937e-07.966498.783502 1.75 1.75 1.75 .966498-1.45937e-07 1.75-.783502 1.75-1.75m-3.5 0l1.95399e-14 2.64243e-07c-1.45937e-07-.966498.783501-1.75 1.75-1.75 .966498-1.45937e-07 1.75.783501 1.75 1.75 0 0 0 1.77636e-15 0 1.77636e-15m4.25 5.28485e-07h-4.25m8.25-3v0c0 4.97056-4.02944 9-9 9 -4.97056 0-9-4.02944-9-9 0-4.97056 4.02944-9 9-9l-3.93403e-07 8.88178e-15c4.97056-2.1727e-07 9 4.02944 9 9 0 0 0 3.55271e-15 0 3.55271e-15Zm-9.75-3h-4.25m4.25 0l1.95399e-14 2.64243e-07c1.45937e-07.966498.783502 1.75 1.75 1.75 .966498-1.45937e-07 1.75-.783502 1.75-1.75m-3.5 0l1.95399e-14 2.64243e-07c-1.45937e-07-.966498.783501-1.75 1.75-1.75 .966498-1.45937e-07 1.75.783501 1.75 1.75 0 0 0 1.77636e-15 0 1.77636e-15m2.25 5.28485e-07h-2.25" stroke-linecap="round" stroke-width="1.5" stroke="#323232" fill="none" stroke-linejoin="round"></path><path fill="none" d="M0 0h24v24h-24Z"></path></svg>