<svg id="Layer_3" data-name="Layer 3" xmlns="http://www.w3.org/2000/svg" viewBox="0 0 24 24"><path d="M0,0H24V24H0Z" fill="none"/><path d="M13.5102,7.38425H10.4898a2,2,0,0,0-1.73206,1L7.24754,11a2,2,0,0,0,0,2l1.5102,2.61575a2,2,0,0,0,1.73206,1h3.0204a2,2,0,0,0,1.73206-1L16.75246,13a2,2,0,0,0,0-2l-1.5102-2.61575A2,2,0,0,0,13.5102,7.38425Z" fill="none" stroke="#323232" stroke-linecap="round" stroke-linejoin="round" stroke-width="1.5"/><circle cx="12" cy="12" r="9" fill="none" stroke="#323232" stroke-linecap="round" stroke-linejoin="round" stroke-width="1.5"/></svg>