<?xml version="1.0" encoding="UTF-8"?><svg version="1.1" viewBox="0 0 24 24" xmlns="http://www.w3.org/2000/svg" xmlns:xlink="http://www.w3.org/1999/xlink"><g fill="none"><path d="M0 0h24v24h-24v-24Z"></path><path stroke="#323232" stroke-linecap="round" stroke-linejoin="round" stroke-width="1.5" d="M13.5 13.7l-6.8 6.8c-.9.9-2.3.9-3.2 0v0c-.9-.9-.9-2.3 0-3.2l6.8-6.8c-.8-2-.3-4.3 1.3-5.9 1.7-1.7 4.2-2 6.2-1.2 .1 0 .1.1 0 .2l-3.6 3.6c0 0 1.3 1.3 1.3 1.3l1.3 1.3v0l3.7-3.6c0 0 .1 0 .2 0 1 2 .5 4.5-1.2 6.2 -1.7 1.6-4 2-6 1.3Z"></path></g></svg>