<svg id="Layer_3" data-name="Layer 3" xmlns="http://www.w3.org/2000/svg" viewBox="0 0 24 24"><path d="M4.506,10.69825l-.34376-.38764a2,2,0,0,1-.23567-2.327L4.485,7.01632a2,2,0,0,1,2.133-.95941l.50768.10388A1.962,1.962,0,0,0,8.5,5.93774h0A1.962,1.962,0,0,0,9.3803,4.85906l.16385-.49153A2,2,0,0,1,11.44151,3h1.117a2,2,0,0,1,1.89736,1.36753l.16385.49153A1.962,1.962,0,0,0,15.5,5.93773h0a1.962,1.962,0,0,0,1.37435.22305l.50768-.10388a2,2,0,0,1,2.133.95941l.55848.96732a2,2,0,0,1-.23567,2.327l-.34376.38764A1.962,1.962,0,0,0,19,12h0a1.962,1.962,0,0,0,.49405,1.30175l.34376.38764a2,2,0,0,1,.23567,2.327l-.55849.96733a2,2,0,0,1-2.133.95941l-.50786-.10392a1.96185,1.96185,0,0,0-1.37415.223h0a1.96186,1.96186,0,0,0-.8803,1.07866l-.16387.49161A2,2,0,0,1,12.55847,21H11.44153a2,2,0,0,1-1.89737-1.36756l-.16387-.49161A1.96186,1.96186,0,0,0,8.5,18.06217h0a1.96185,1.96185,0,0,0-1.37415-.223L6.618,17.9431a2,2,0,0,1-2.133-.95941l-.55849-.96733a2,2,0,0,1,.23567-2.327l.34376-.38764A1.962,1.962,0,0,0,5,12H5A1.962,1.962,0,0,0,4.506,10.69825Z" fill="none" stroke="#323232" stroke-linecap="round" stroke-linejoin="round" stroke-width="1.5"/><circle cx="12" cy="12" r="3" fill="none" stroke="#323232" stroke-linecap="round" stroke-linejoin="round" stroke-width="1.5"/><path d="M0,0H24V24H0" fill="none"/></svg>