<?xml version="1.0" encoding="UTF-8"?><svg version="1.1" viewBox="0 0 24 24" xmlns="http://www.w3.org/2000/svg" xmlns:xlink="http://www.w3.org/1999/xlink"><g stroke-linecap="round" stroke-width="1.5" stroke="#323232" fill="none" stroke-linejoin="round"><path d="M10.05 17.296l1.35-.71c.376-.198.825-.198 1.201 0l1.35.71c.435.229.962.19 1.359-.098l.503-.366c.397-.289.596-.778.513-1.262l-.258-1.503c-.072-.419.067-.846.371-1.142l1.092-1.064c.352-.343.478-.856.327-1.323l-.192-.592c-.152-.467-.556-.808-1.042-.878l-1.509-.219c-.42-.061-.784-.325-.972-.706l-.675-1.367c-.217-.44-.666-.719-1.157-.719h-.622c-.491 0-.94.279-1.157.719l-.675 1.367c-.188.381-.551.645-.971.706l-1.509.219c-.486.071-.89.411-1.042.878l-.192.592c-.152.467-.025.98.327 1.323l1.092 1.064c.304.296.443.724.371 1.142l-.259 1.503c-.083.484.116.973.513 1.262l.503.366c.398.288.925.326 1.36.098Z"></path><path d="M12 21v0c-4.971 0-9-4.029-9-9v0c0-4.971 4.029-9 9-9v0c4.971 0 9 4.029 9 9v0c0 4.971-4.029 9-9 9Z"></path><path d="M12.354 11.646c.195.195.195.512 0 .707 -.195.195-.512.195-.707 0 -.195-.195-.195-.512 0-.707 .195-.195.511-.195.707 0"></path></g><path fill="none" d="M0 0h24v24h-24Z"></path></svg>