<?xml version="1.0" encoding="UTF-8"?><svg version="1.1" viewBox="0 0 24 24" xmlns="http://www.w3.org/2000/svg" xmlns:xlink="http://www.w3.org/1999/xlink"><g stroke-linecap="round" stroke-width="1.5" stroke="#323232" fill="none" stroke-linejoin="round"><path d="M8.5 14.5c0-1.933 1.567-3.5 3.5-3.5v0c1.933 0 3.5 1.567 3.5 3.5"></path><path d="M15.5 9.5v5c0 1.933-1.567 3.5-3.5 3.5v0c-1.933 0-3.5-1.567-3.5-3.5v-5c0-1.933 1.567-3.5 3.5-3.5v0c1.933 0 3.5 1.567 3.5 3.5Z"></path><path d="M21 8v8c0 2.761-2.239 5-5 5h-8c-2.761 0-5-2.239-5-5v-8c0-2.761 2.239-5 5-5h8c2.761 0 5 2.239 5 5Z"></path></g><path fill="none" d="M0 24v-24h24v24h-24Z"></path></svg>