<svg id="Layer_3" data-name="Layer 3" xmlns="http://www.w3.org/2000/svg" viewBox="0 0 24 24"><path d="M9.9671,8.4789l.32658-.8709a1.5,1.5,0,0,1,1.4045-.97332h.60365a1.5,1.5,0,0,1,1.40449.97332l.32658.8709" fill="none" stroke="#323232" stroke-linecap="round" stroke-linejoin="round" stroke-width="1.5"/><path d="M14.0329,15.5211l-.32658.8709a1.5,1.5,0,0,1-1.40449.97332h-.60365a1.5,1.5,0,0,1-1.4045-.97332l-.32658-.8709" fill="none" stroke="#323232" stroke-linecap="round" stroke-linejoin="round" stroke-width="1.5"/><path d="M9.9671,8.4789l-.91752-.15263a1.5,1.5,0,0,0-1.54519.72966l-.30183.52279a1.5,1.5,0,0,0,.14066,1.703L7.93415,12" fill="none" stroke="#323232" stroke-linecap="round" stroke-linejoin="round" stroke-width="1.5"/><path d="M16.06586,12l.5909.71825a1.5,1.5,0,0,1,.14068,1.703l-.30184.5228a1.5,1.5,0,0,1-1.54515.72967l-.91755-.15261" fill="none" stroke="#323232" stroke-linecap="round" stroke-linejoin="round" stroke-width="1.5"/><path d="M16.06586,12l.59093-.71831a1.5,1.5,0,0,0,.14066-1.703l-.30184-.52279a1.5,1.5,0,0,0-1.54518-.72966l-.91753.15263" fill="none" stroke="#323232" stroke-linecap="round" stroke-linejoin="round" stroke-width="1.5"/><path d="M9.9671,15.5211l-.91755.15261A1.5,1.5,0,0,1,7.50441,14.944l-.30184-.5228a1.5,1.5,0,0,1,.14067-1.703L7.93415,12" fill="none" stroke="#323232" stroke-linecap="round" stroke-linejoin="round" stroke-width="1.5"/><rect x="3" y="3" width="18" height="18" rx="5" stroke-width="1.5" stroke="#323232" stroke-linecap="round" stroke-linejoin="round" fill="none"/><path d="M12.00048,11.875A.125.125,0,1,1,11.875,12a.12434.12434,0,0,1,.12548-.125" fill="none" stroke="#323232" stroke-linecap="round" stroke-linejoin="round" stroke-width="1.5"/><path d="M24,0V24H0V0Z" fill="none"/></svg>