<?xml version="1.0" encoding="UTF-8"?><svg version="1.1" viewBox="0 0 24 24" xmlns="http://www.w3.org/2000/svg" xmlns:xlink="http://www.w3.org/1999/xlink"><g fill="none"><path d="M0 0h24v24h-24Z"></path><path stroke="#323232" stroke-linecap="round" stroke-linejoin="round" stroke-width="1.5" d="M14.485 4h-4.97c-.53 0-1.039.211-1.414.586l-3.515 3.515c-.375.375-.586.883-.586 1.414v4.971c0 .53.211 1.039.586 1.414l3.515 3.515c.375.374.883.585 1.414.585h4.971c.53 0 1.039-.211 1.414-.586l3.515-3.515c.374-.375.585-.883.585-1.414v-4.97c0-.53-.211-1.039-.586-1.414l-3.515-3.515c-.375-.375-.883-.586-1.414-.586Z"></path><path stroke="#323232" stroke-linecap="round" stroke-linejoin="round" stroke-width="1.5" d="M14.8284 9.17157c1.5621 1.5621 1.5621 4.09476 0 5.65685 -1.5621 1.5621-4.09476 1.5621-5.65685 0 -1.5621-1.5621-1.5621-4.09476-1.77636e-15-5.65685 1.5621-1.5621 4.09476-1.5621 5.65685-1.77636e-15"></path></g></svg>