<?xml version="1.0" encoding="UTF-8"?><svg version="1.1" viewBox="0 0 24 24" xmlns="http://www.w3.org/2000/svg" xmlns:xlink="http://www.w3.org/1999/xlink"><path d="M14 14h2c.552 0 1 .448 1 1v4c0 .552-.448 1-1 1h-2c-.552 0-1-.448-1-1v-4c0-.552.448-1 1-1Z" stroke-linecap="round" stroke-width="1.5" fill-rule="evenodd" stroke="#323232" fill="none" stroke-linejoin="round"></path><path fill="none" stroke="#323232" stroke-linecap="round" stroke-linejoin="round" stroke-width="1.5" d="M21 17h-4"></path><g stroke-linecap="round" stroke-width="1.5" stroke="#323232" fill="none" stroke-linejoin="round"><path d="M13 17h-10"></path><path fill-rule="evenodd" d="M10 10h-2c-.552 0-1-.448-1-1v-4c0-.552.448-1 1-1h2c.552 0 1 .448 1 1v4c0 .552-.448 1-1 1Z"></path><path d="M3 7h4"></path><path d="M11 7h10"></path></g><path fill="none" d="M0 0h24v24h-24Z"></path></svg>