<svg id="Layer_3" data-name="Layer 3" xmlns="http://www.w3.org/2000/svg" viewBox="0 0 24 24"><path d="M20.53787,14.598l-.46159.26649a3,3,0,0,0-1.5,2.598v.533a3,3,0,0,1-4.49992,2.598l-.46162-.26651a2.99993,2.99993,0,0,0-2.99994,0l-.46162.26651a3,3,0,0,1-4.49992-2.598v-.533a3,3,0,0,0-1.5-2.598L3.69171,14.598a3,3,0,0,1,0-5.19608l.46159-.26649a3,3,0,0,0,1.5-2.598v-.533a3,3,0,0,1,4.49992-2.598l.46162.26651a2.99993,2.99993,0,0,0,2.99994,0l.46162-.26651a3,3,0,0,1,4.49992,2.598v.533a3,3,0,0,0,1.5,2.598l.46159.26649A3,3,0,0,1,20.53787,14.598Z" fill="none" stroke="#323232" stroke-linecap="round" stroke-linejoin="round" stroke-width="1.5"/><circle cx="12" cy="12" r="3" fill="none" stroke="#323232" stroke-linecap="round" stroke-linejoin="round" stroke-width="1.5"/><rect width="24" height="24" fill="none"/></svg>