<?xml version="1.0" encoding="UTF-8"?><svg version="1.1" viewBox="0 0 24 24" xmlns="http://www.w3.org/2000/svg" xmlns:xlink="http://www.w3.org/1999/xlink"><g stroke-linecap="round" stroke-width="1.5" stroke="#323232" fill="none" stroke-linejoin="round"><path d="M6.5 3h10.5c1.933 0 3.5 1.567 3.5 3.5v0c0 1.933-1.567 3.5-3.5 3.5h-10.5c-1.933 0-3.5-1.567-3.5-3.5v0c0-1.933 1.567-3.5 3.5-3.5Z"></path><path d="M17 21h-10.5c-1.933 0-3.5-1.567-3.5-3.5v0c0-1.933 1.567-3.5 3.5-3.5h10.5c1.933 0 3.5 1.567 3.5 3.5v0c0 1.933-1.567 3.5-3.5 3.5Z"></path><path d="M16.998 17c-.276 0-.5.224-.498.5 0 .276.224.5.5.5 .276 0 .5-.224.5-.5 0-.276-.224-.5-.502-.5"></path><path d="M6.498 6c-.276 0-.5.224-.498.5 0 .276.224.5.5.5 .276 0 .5-.224.5-.5 0-.276-.224-.5-.502-.5"></path></g><path fill="none" d="M0 0h24v24h-24v-24Z"></path></svg>