<?xml version="1.0" encoding="UTF-8"?><svg version="1.1" viewBox="0 0 24 24" xmlns="http://www.w3.org/2000/svg" xmlns:xlink="http://www.w3.org/1999/xlink"><g fill="none"><path d="M0 0h24v24h-24Z"></path><path stroke="#323232" stroke-linecap="round" stroke-linejoin="round" stroke-width="1.5" d="M14.1213 9.87868c1.17157 1.17157 1.17157 3.07107 0 4.24264 -1.17157 1.17157-3.07107 1.17157-4.24264 0 -1.17157-1.17157-1.17157-3.07107 0-4.24264 1.17157-1.17157 3.07107-1.17157 4.24264 0"></path><path stroke="#323232" stroke-linecap="round" stroke-linejoin="round" stroke-width="1.5" d="M16.18 18.725v0c.503.503 1.32.503 1.823 0l.722-.722c.503-.503.503-1.32 0-1.823v0c-.382-.382-.494-.955-.284-1.453 .022-.053.044-.106.065-.16 .183-.466.637-.766 1.137-.766h.067c.712 0 1.289-.577 1.289-1.289v-1.021c0-.712-.577-1.289-1.289-1.289h-.067c-.5 0-.954-.301-1.137-.766 -.021-.054-.043-.107-.065-.16 -.21-.498-.098-1.071.284-1.453v0c.503-.503.503-1.32 0-1.823l-.722-.722c-.503-.503-1.32-.503-1.823 0v0c-.382.382-.955.494-1.453.284 -.053-.022-.106-.044-.16-.065 -.466-.186-.767-.641-.767-1.141v-.067c0-.712-.577-1.289-1.289-1.289h-1.021c-.713 0-1.29.577-1.29 1.289v.067c0 .5-.301.954-.766 1.137 -.054.022-.107.043-.16.066 -.498.21-1.071.098-1.453-.284v0c-.503-.503-1.32-.503-1.823 0l-.723.722c-.503.503-.503 1.32 0 1.823v0c.382.382.494.955.284 1.453 -.023.054-.044.107-.065.161 -.183.465-.638.766-1.138.766h-.067c-.712 0-1.289.577-1.289 1.289v1.021c0 .713.577 1.29 1.289 1.29h.067c.5 0 .954.301 1.137.766 .021.054.043.107.065.16 .21.498.098 1.071-.284 1.453v0c-.503.503-.503 1.32 0 1.823l.722.722c.503.503 1.32.503 1.823 0v0c.382-.382.955-.494 1.453-.284 .053.022.106.044.16.065 .466.183.766.637.766 1.137v.067c0 .712.577 1.289 1.289 1.289h1.021c.712 0 1.289-.577 1.289-1.289v-.067c0-.5.301-.954.766-1.137 .054-.021.107-.043.16-.065 .501-.209 1.074-.097 1.457.285Z"></path></g></svg>