<?xml version="1.0" encoding="UTF-8"?><svg version="1.1" viewBox="0 0 24 24" xmlns="http://www.w3.org/2000/svg" xmlns:xlink="http://www.w3.org/1999/xlink"><g stroke-linecap="round" stroke-width="1.5" stroke="#323232" fill="none" stroke-linejoin="round"><path d="M13.273 10.727c.703.703.703 1.843 0 2.546 -.703.703-1.843.703-2.546 0 -.703-.703-.703-1.843 0-2.546 .703-.703 1.843-.703 2.546 0"></path><path d="M7.5 12c0 .198.018.396.042.588l-.784.613c-.393.307-.499.856-.25 1.288l.592 1.026c.249.431.777.613 1.239.428l.624-.251c.187-.075.396-.045.564.066 .147.097.299.187.456.267 .18.091.311.255.339.455l.095.663c.072.492.494.857.991.857h1.183c.497 0 .919-.365.99-.858l.095-.663c.029-.2.161-.365.341-.455 .157-.079.308-.167.454-.264 .169-.112.379-.144.567-.068l.623.25c.462.186.99.003 1.239-.428l.592-1.026c.249-.432.143-.981-.25-1.288l-.784-.613c.024-.191.042-.389.042-.587 0-.198-.018-.396-.042-.588l.784-.613c.393-.307.499-.856.25-1.288l-.592-1.026c-.249-.431-.777-.613-1.239-.428l-.623.25c-.188.075-.397.044-.567-.068 -.146-.097-.297-.185-.454-.264 -.181-.091-.313-.255-.341-.455l-.095-.662c-.07-.492-.492-.858-.99-.858h-1.182c-.497 0-.919.365-.99.858l-.095.664c-.029.199-.16.363-.339.455 -.157.08-.309.17-.456.267 -.169.111-.378.141-.565.065l-.625-.251c-.461-.185-.989-.003-1.238.428l-.592 1.025c-.249.432-.143.981.25 1.288l.784.613c-.025.192-.043.39-.043.588Z"></path><path d="M17 21h-10c-2.209 0-4-1.791-4-4v-10c0-2.209 1.791-4 4-4h10c2.209 0 4 1.791 4 4v10c0 2.209-1.791 4-4 4Z"></path></g><path fill="none" d="M0 0h24v24h-24v-24Z"></path></svg>