<svg viewBox="0 0 24 24" xmlns="http://www.w3.org/2000/svg"><g stroke-linecap="round" stroke-width="1.5" stroke="#323232" fill="none" stroke-linejoin="round"><path d="M10.436 16.423l.35.78 0 0c.21.47.68.78 1.21.78v0l-.01-.001c.52 0 .99-.31 1.21-.79l.35-.79 0-.01c.12-.29.33-.52.6-.67v0l-.01 0c.26-.16.57-.22.88-.19l.85.09 0 0c.52.05 1.03-.2 1.29-.66v0l0-.01c.26-.46.23-1.03-.08-1.45l-.51-.7 0 0c-.19-.25-.29-.55-.29-.86v0l-.01 0c0-.31.09-.61.27-.86l.5-.7 0-.01c.3-.43.34-.99.08-1.45v0l0 0c-.27-.46-.77-.72-1.29-.66l-.86.09 0-.01c-.31.03-.62-.04-.89-.19v0l0 0c-.27-.16-.48-.39-.61-.67l-.36-.79 0 0c-.22-.49-.7-.8-1.23-.79v0l0 0c-.53-.01-1 .3-1.22.78l-.36.78 -.01 0c-.13.28-.34.51-.6.67v0l0-.01c-.27.15-.58.21-.89.18l-.86-.09 -.01-.01c-.53-.06-1.04.19-1.3.65v0l0-.01c-.27.45-.24 1.02.07 1.44l.508.7 0 0c.18.24.28.54.28.85v0l0-.01c-.01.3-.1.6-.28.85l-.508.7 0-.01c-.31.42-.35.98-.09 1.44v0l-.01-.01c.26.45.76.71 1.28.65l.859-.09 -.01 0c.3-.04.61.03.88.18v0l0 0c.26.15.48.38.6.67Z"/><path d="M12 3a9 9 0 1 0 0 18 9 9 0 1 0 0-18Z"/></g><g fill="none"><path d="M0 0h24v24H0Z"/><path fill="none" stroke="#323232" stroke-linecap="round" stroke-linejoin="round" stroke-width="1.5" d="M12.25 12l-.01 0c-.01.13-.12.24-.26.24 -.14-.01-.25-.12-.25-.26s.11-.25.24-.25l-.01 0c.13-.01.25.11.25.24 0 0 0 0 0 0"/></g></svg>