<?xml version="1.0" encoding="UTF-8"?><svg version="1.1" viewBox="0 0 24 24" xmlns="http://www.w3.org/2000/svg" xmlns:xlink="http://www.w3.org/1999/xlink"><g fill="none"><path d="M0 0h24v24h-24Z"></path><path stroke="#323232" stroke-linecap="round" stroke-linejoin="round" stroke-width="1.5" d="M15.052 4h-9.552c-1.381 0-2.5 1.119-2.5 2.5v0c0 1.381 1.119 2.5 2.5 2.5h9.552"></path><path stroke="#323232" stroke-linecap="round" stroke-linejoin="round" stroke-width="1.5" d="M19.9749 4.02513c1.36684 1.36684 1.36684 3.58291 0 4.94975 -1.36684 1.36684-3.58291 1.36684-4.94975 1.77636e-15 -1.36684-1.36684-1.36684-3.58291-1.77636e-15-4.94975 1.36684-1.36684 3.58291-1.36684 4.94975-8.88178e-16"></path><path stroke="#323232" stroke-linecap="round" stroke-linejoin="round" stroke-width="1.5" d="M8.948 20h9.552c1.381 0 2.5-1.119 2.5-2.5v0c0-1.381-1.119-2.5-2.5-2.5h-9.552"></path><path stroke="#323232" stroke-linecap="round" stroke-linejoin="round" stroke-width="1.5" d="M8.97487 15.0251c1.36684 1.36684 1.36684 3.58291 0 4.94975 -1.36684 1.36684-3.58291 1.36684-4.94975 0 -1.36684-1.36684-1.36684-3.58291-8.88178e-16-4.94975 1.36684-1.36684 3.58291-1.36684 4.94975-1.77636e-15"></path></g></svg>