<?xml version="1.0" encoding="UTF-8"?><svg version="1.1" viewBox="0 0 24 24" xmlns="http://www.w3.org/2000/svg" xmlns:xlink="http://www.w3.org/1999/xlink"><g stroke-linecap="round" stroke-width="1.5" stroke="#323232" fill="none" stroke-linejoin="round"><path d="M18.364 5.636l-3.84004e-08-3.84008e-08c3.5147 3.51474 3.51466 9.21322-7.78621e-05 12.7279 -3.51474 3.5147-9.21322 3.51466-12.7279-7.78621e-05 -3.51467-3.51471-3.51467-9.21313-7.68007e-08-12.7278l-5.17951e-07 5.17958e-07c3.5147-3.51474 9.21318-3.51478 12.7279-7.89748e-05 2.59798e-05 2.59794e-05 5.19595e-05 5.19591e-05 7.79389e-05 7.79389e-05"></path><rect width="3.275" height="3.275" x="7.327" y="12.685" rx=".55228" ry="0"></rect><circle cx="14.977" cy="14.324" r="1.831"></circle><path d="M11.863 6.808l-1.791 3.1 -7.69448e-09 1.33272e-08c-.0690359.119573-.0280674.272471.0915056.341507 .03815.022026.0814426.0335805.125494.0334934h3.58l6.26897e-09 1.23848e-11c.138071.000272787.250221-.111435.250493-.249506 8.70332e-05-.0440518-.0114674-.0873444-.0334935-.125494l-1.79-3.1 -3.59499e-09-6.22597e-09c-.0690417-.11957-.221941-.160531-.341511-.091489 -.0379962.0219397-.0695493.0534928-.091489.091489Z"></path></g><path fill="none" d="M24 24h-24v-24h24Z"></path></svg>