<?xml version="1.0" encoding="UTF-8"?><svg version="1.1" viewBox="0 0 24 24" xmlns="http://www.w3.org/2000/svg" xmlns:xlink="http://www.w3.org/1999/xlink"><g fill="none"><path d="M0 0h24v24h-24Z"></path><path stroke="#323232" stroke-linecap="round" stroke-linejoin="round" stroke-width="1.5" d="M14.0606 17.4546v0l1.82263e-07-5.09459e-12c-2.17561 6.08528e-05-3.93934-1.76357-3.9394-3.93918 -2.0512e-09-7.33344e-05-2.05459e-09-.000146669-1.01803e-11-.000220003v0l-1.53582e-09-.000109407c-3.28507e-07-2.1756 1.76368-3.93928 3.93928-3.93928 7.66678e-05-1.15783e-11.000153336 2.21505e-09.000230003 6.67989e-09v0l9.14765e-08-2.46914e-13c2.1756-5.80083e-06 3.93927 1.76366 3.93928 3.93926 1.15904e-10 4.34692e-05-4.87709e-10 8.69385e-05-1.81084e-09.000130408v0l1.825e-09.00011991c0 2.1756-1.76368 3.93928-3.93928 3.93928 -7.66373e-05 0-.000153275-2.23643e-09-.000229912-6.70928e-09Z"></path><rect width="18" height="18" x="3" y="3" rx="2.7614" ry="0" stroke="#323232" stroke-linecap="round" stroke-linejoin="round" stroke-width="1.5"></rect><path stroke="#323232" stroke-linecap="round" stroke-linejoin="round" stroke-width="1.5" d="M10.1836 6.54545l-4.18364 7.27273h8.48485Z"></path></g></svg>