<?xml version="1.0" encoding="UTF-8"?><svg version="1.1" viewBox="0 0 24 24" xmlns="http://www.w3.org/2000/svg" xmlns:xlink="http://www.w3.org/1999/xlink"><g stroke-linecap="round" stroke-width="1.5" stroke="#323232" fill="none" stroke-linejoin="round"><path d="M16 19v1 0c0 .552285-.447715 1-1 1h-11 -4.37114e-08c-.552285-2.41411e-08-1-.447715-1-1 0 0 0-3.55271e-15 0-3.55271e-15v-11l1.15463e-14 1.50996e-07c-8.33927e-08-.552285.447715-1 1-1h1"></path><rect width="8" height="8" x="8" y="8" rx=".55228" ry="0"></rect><path d="M19 16h1l-4.37114e-08-1.77636e-15c.552285 2.41411e-08 1-.447715 1-1v-11 0c0-.552285-.447715-1-1-1h-11l-4.37114e-08 8.88178e-16c-.552285 2.41411e-08-1 .447715-1 1 0 0 0 0 0 0v1"></path></g><g transform="matrix(1 0 0 1 24 24)"><rect width="24" height="24" fill="none" transform="matrix(-1 1.22465e-16 -1.22465e-16 -1 0 0)"></rect></g></svg>