<?xml version="1.0" encoding="UTF-8"?><svg version="1.1" viewBox="0 0 24 24" xmlns="http://www.w3.org/2000/svg" xmlns:xlink="http://www.w3.org/1999/xlink"><g stroke-linecap="round" stroke-width="1.5" stroke="#323232" fill="none" stroke-linejoin="round"><path d="M12 4l-2-2 -2 2"></path><path d="M10 12v-10"></path><path d="M8 17v3c0 .552.448 1 1 1h10c.552 0 1-.448 1-1v-9c0-.552-.448-1-1-1h-3"></path><path d="M13 7h2c.552 0 1 .448 1 1v8c0 .552-.448 1-1 1h-10c-.552 0-1-.448-1-1v-8c0-.552.448-1 1-1h2"></path></g><path fill="none" d="M0 0h24v24h-24v-24Z"></path></svg>