<?xml version="1.0" encoding="UTF-8"?><svg version="1.1" viewBox="0 0 24 24" xmlns="http://www.w3.org/2000/svg" xmlns:xlink="http://www.w3.org/1999/xlink"><defs><path d="M0 0h24v24h-24v-24Z" id="a"></path></defs><g fill="none"><use xlink:href="#a"></use><use xlink:href="#a"></use><path stroke="#323232" stroke-linecap="round" stroke-linejoin="round" stroke-width="1.5" d="M17 3h1c1.657 0 3 1.343 3 3v12c0 1.657-1.343 3-3 3h-12c-1.657 0-3-1.343-3-3v-1.014"></path><path stroke="#323232" stroke-linecap="round" stroke-linejoin="round" stroke-width="1.5" d="M10 5.637c-3.825 0-7 1.952-7 6.511v.915c1.294-2.994 3.98-3.299 7-3.299v1.886c0 .651.772.993 1.254.556l4.5-4.079c.336-.304.327-.834-.018-1.128l-4.5-3.819c-.488-.414-1.236-.068-1.236.571 0 0 0 1.886 0 1.886Z"></path></g></svg>