<?xml version="1.0" encoding="UTF-8"?><svg version="1.1" viewBox="0 0 24 24" xmlns="http://www.w3.org/2000/svg" xmlns:xlink="http://www.w3.org/1999/xlink"><g fill="none"><path d="M0 0h24v24h-24Z"></path><path stroke="#323232" stroke-linecap="round" stroke-linejoin="round" stroke-width="1.5" d="M8.55285 10.1141c1.04153 1.04153 1.04153 2.73018 0 3.77171 -1.04153 1.04153-2.73018 1.04153-3.77171 0 -1.04153-1.04153-1.04153-2.73018-8.88178e-16-3.77171 1.04153-1.04153 2.73018-1.04153 3.77171-1.77636e-15"></path><path stroke="#323232" stroke-linecap="round" stroke-linejoin="round" stroke-width="1.5" d="M19.2189 4.78115c1.04153 1.04153 1.04153 2.73018 0 3.77171 -1.04153 1.04153-2.73018 1.04153-3.77171 0 -1.04153-1.04153-1.04153-2.73018-1.77636e-15-3.77171 1.04153-1.04153 2.73018-1.04153 3.77171-8.88178e-16"></path><path stroke="#323232" stroke-linecap="round" stroke-linejoin="round" stroke-width="1.5" d="M19.2189 15.4471c1.04153 1.04153 1.04153 2.73018 0 3.77171 -1.04153 1.04153-2.73018 1.04153-3.77171 0 -1.04153-1.04153-1.04153-2.73018-1.77636e-15-3.77171 1.04153-1.04153 2.73018-1.04153 3.77171-1.77636e-15"></path><path stroke="#323232" stroke-linecap="round" stroke-linejoin="round" stroke-width="1.5" d="M9.04 10.81l5.92-2.96"></path><path stroke="#323232" stroke-linecap="round" stroke-linejoin="round" stroke-width="1.5" d="M9.04 13.19l5.92 2.96"></path></g></svg>