<?xml version="1.0" encoding="UTF-8"?><svg version="1.1" viewBox="0 0 24 24" xmlns="http://www.w3.org/2000/svg" xmlns:xlink="http://www.w3.org/1999/xlink"><g stroke-linecap="round" stroke-width="1.5" stroke="#323232" fill="none" stroke-linejoin="round"><path d="M15 9h2l-8.74228e-08 1.77636e-15c1.10457-4.82823e-08 2 .89543 2 2v8 0c0 1.10457-.895431 2-2 2h-10l-8.74228e-08-3.55271e-15c-1.10457-4.82823e-08-2-.895431-2-2 0 0 0 0 0 0v-8l2.30926e-14 3.01992e-07c-1.66785e-07-1.10457.89543-2 2-2h2"></path><line x1="12" x2="12" y1="15" y2="3"></line><polyline points="15,6 12,3 9,6"></polyline></g><path fill="none" d="M0 0h24v24h-24Z"></path></svg>