<?xml version="1.0" encoding="UTF-8"?><svg version="1.1" viewBox="0 0 24 24" xmlns="http://www.w3.org/2000/svg" xmlns:xlink="http://www.w3.org/1999/xlink"><g fill="none"><path d="M0 0h24v24h-24v-24Z"></path><path stroke="#323232" stroke-linecap="round" stroke-linejoin="round" stroke-width="1.5" d="M12 3v0c4.971 0 9 4.029 9 9v0c0 4.971-4.029 9-9 9v0c-4.971 0-9-4.029-9-9v0c0-4.971 4.029-9 9-9Z"></path><path stroke="#323232" stroke-linecap="round" stroke-linejoin="round" stroke-width="1.5" d="M9.262 14.475c-.145 0-.262.118-.261.262 -.001.145.117.263.261.263 .144 0 .262-.118.262-.262 0-.144-.117-.263-.262-.263"></path><path stroke="#323232" stroke-linecap="round" stroke-linejoin="round" stroke-width="1.5" d="M12.5 15c-.045-2.049-1.451-3.455-3.5-3.5"></path><path stroke="#323232" stroke-linecap="round" stroke-linejoin="round" stroke-width="1.5" d="M9 8c.885.01 1.715.16 2.474.428 1.943.687 3.412 2.155 4.098 4.098 .268.759.418 1.589.428 2.474"></path></g></svg>