<?xml version="1.0" encoding="UTF-8"?><svg version="1.1" viewBox="0 0 24 24" xmlns="http://www.w3.org/2000/svg" xmlns:xlink="http://www.w3.org/1999/xlink"><g stroke-linecap="round" stroke-width="1.5" stroke="#323232" fill="none" stroke-linejoin="round"><path d="M10 12l2-2 -5.89381e-08 5.89976e-08c1.10345-1.10457 2.89341-1.10547 3.99798-.00201889 .000673263.000672583.00134619.00134551.00201877.00201877v0l-9.07841e-08-9.06925e-08c1.10457 1.10345 1.10547 2.89341.00201895 3.99798 -.000672583.000673263-.00134551.00134619-.00201877.00201877v0l-3 3"></path><path d="M14 12l-2 2 3.35796e-09-3.36136e-09c-1.10345 1.10457-2.89341 1.10547-3.99798.00201878 -.000673263-.000672583-.00134619-.00134551-.00201877-.00201877h-3.35796e-09l3.51479e-08 3.51124e-08c-1.10457-1.10345-1.10547-2.89341-.00201884-3.99798 .000672583-.000673263.00134551-.00134619.00201877-.00201877h3.51479e-08l3-3"></path><rect width="18" height="18" x="3" y="3" rx="2.7614" ry="0"></rect></g><path fill="none" d="M0 24v-24h24v24Z"></path></svg>