<?xml version="1.0" encoding="UTF-8"?><svg version="1.1" viewBox="0 0 24 24" xmlns="http://www.w3.org/2000/svg" xmlns:xlink="http://www.w3.org/1999/xlink"><g fill="none"><path d="M0 0h24v24h-24Z"></path><path stroke="#323232" stroke-linecap="round" stroke-linejoin="round" stroke-width="1.5" d="M13 20.938l4.59159e-07-5.69293e-08c-.331749.0411322-.665711.0618379-1 .0620001l-3.93403e-07-1.06581e-14c-4.97056-2.1727e-07-9-4.02944-9-9 2.1727e-07-4.97056 4.02944-9 9-9 4.97056 2.1727e-07 9 4.02944 9 9l-1.25578e-08 2.58019e-05c-.000163227.334289-.02087.668251-.0620032 1"></path><path stroke="#323232" stroke-linecap="round" stroke-linejoin="round" stroke-width="1.5" d="M20 17l-2.5 2.5 -1.5-1.5"></path><path stroke="#323232" stroke-linecap="round" stroke-linejoin="round" stroke-width="1.5" d="M7.99794 12.069v-2.1315l-1.70405e-10-1.83106e-05c-6.60446e-08-.437394.284261-.824033.701747-.954487l3-.9375 6.65067e-09-2.07822e-09c.194219-.0606902.402331-.0606902.59655 4.15644e-09l3 .9375 2.27224e-08 7.10089e-09c.417473.130463.701721.517096.70172.95448v2.13153l2.34301e-12-4.84082e-06c0 2.08422-1.29286 3.94982-3.24438 4.68164l-.58.21752 -3.56402e-08 1.33654e-08c-.113195.0424488-.237935.0424488-.35113-2.67307e-08l-.58-.21752 2.67866e-07 1.00441e-07c-1.95157-.731776-3.24449-2.59739-3.24451-4.68164Z"></path></g></svg>