<?xml version="1.0" encoding="UTF-8"?><svg version="1.1" viewBox="0 0 24 24" xmlns="http://www.w3.org/2000/svg" xmlns:xlink="http://www.w3.org/1999/xlink"><defs><path d="M0 0h24v24h-24Z" id="a"></path></defs><g fill="none"><use xlink:href="#a"></use><use xlink:href="#a"></use><path stroke="#323232" stroke-linecap="round" stroke-linejoin="round" stroke-width="1.5" d="M4 11.243v-4.331l-2.9403e-08-4.14916e-06c-.00364428-.514409.387668-.945719.900004-.991996l2.1197e-07-1.6598e-08c2.38516-.186766 4.64887-1.12826 6.463-2.688l-5.02503e-09 4.21647e-09c.36841-.30913.90559-.30913 1.274-8.43295e-09l-6.80447e-07-5.85271e-07c1.81387 1.56016 4.07772 2.50171 6.463 2.688l1.75113e-09 1.59808e-10c.512492.0467706.903689.478391.9.993v4.331l-2.4907e-07 1.01032e-05c-.111284 4.51404-3.13801 8.43417-7.47701 9.68399l7.10365e-08-1.99551e-08c-.34172.0959937-.70328.0959937-1.045 3.99102e-08l-1.7074e-07-4.91629e-08c-4.33973-1.24958-7.36701-5.17031-7.47799-9.685Z"></path><path stroke="#323232" stroke-linecap="round" stroke-linejoin="round" stroke-width="1.5" d="M10 12h4"></path><path stroke="#323232" stroke-linecap="round" stroke-linejoin="round" stroke-width="1.5" d="M12 14v-4"></path></g></svg>