<svg id="Layer_3" data-name="Layer 3" xmlns="http://www.w3.org/2000/svg" viewBox="0 0 24 24"><path d="M0,0H24V24H0Z" fill="none"/><line x1="12" y1="8" x2="12" y2="8.80786" fill="none" stroke="#323232" stroke-linecap="round" stroke-linejoin="round" stroke-width="1.5"/><path d="M10,10.42358a1.83893,1.83893,0,0,1,2-1.61572" fill="none" stroke="#323232" stroke-linecap="round" stroke-linejoin="round" stroke-width="1.5"/><line x1="12" y1="16" x2="12" y2="15.19214" fill="none" stroke="#323232" stroke-linecap="round" stroke-linejoin="round" stroke-width="1.5"/><path d="M14,13.57642a1.83893,1.83893,0,0,1-2,1.61572" fill="none" stroke="#323232" stroke-linecap="round" stroke-linejoin="round" stroke-width="1.5"/><path d="M13.94907,10.07108A1.95077,1.95077,0,0,0,12,8.80786" fill="none" stroke="#323232" stroke-linecap="round" stroke-linejoin="round" stroke-width="1.5"/><path d="M10.05093,13.92892A1.95077,1.95077,0,0,0,12,15.19214" fill="none" stroke="#323232" stroke-linecap="round" stroke-linejoin="round" stroke-width="1.5"/><path d="M10,10.42358h0a1.435,1.435,0,0,0,1.15357,1.40713l1.69286.33858A1.435,1.435,0,0,1,14,13.57642h0" fill="none" stroke="#323232" stroke-linecap="round" stroke-linejoin="round" stroke-width="1.5"/><path d="M20,13.02084l0-6.45146a1.01223,1.01223,0,0,0-.9021-.99168,11.3925,11.3925,0,0,1-5.8725-2.17177,2.05249,2.05249,0,0,0-2.45076,0A11.3925,11.3925,0,0,1,4.90212,5.5777,1.01223,1.01223,0,0,0,4,6.56938l0,6.45146c0,3.77091,4.65012,6.58183,6.86365,7.70657a2.50476,2.50476,0,0,0,2.27647-.00195C15.35515,19.59962,20,16.79555,20,13.02084Z" fill="none" stroke="#323232" stroke-linecap="round" stroke-linejoin="round" stroke-width="1.5"/></svg>