<svg xmlns="http://www.w3.org/2000/svg" viewBox="0 0 24 24"><g id="Layer_2" data-name="Layer 2"><path d="M21,8.5H17.5a2,2,0,0,1-2-2V3" fill="none" stroke="#323232" stroke-linecap="round" stroke-linejoin="round" stroke-width="1.5"/><path d="M14,21h4a3,3,0,0,0,3-3V8.50932A3,3,0,0,0,20.12132,6.388L17.612,3.87867A3,3,0,0,0,15.49067,3H8A3,3,0,0,0,5,6v4" fill="none" stroke="#323232" stroke-linecap="round" stroke-linejoin="round" stroke-width="1.5"/><path d="M4,17.49484c0,1.68347,2.11839,2.92962,3.06072,3.40085a.977.977,0,0,0,.87921-.00034C8.88257,20.42384,11,19.18058,11,17.49484l0-2.397a.51159.51159,0,0,0-.47317-.49442,4.98261,4.98261,0,0,1-2.45661-.91867.9723.9723,0,0,0-1.1404,0,4.98261,4.98261,0,0,1-2.45661.91867A.51159.51159,0,0,0,4,15.09782Z" fill="none" stroke="#323232" stroke-linecap="round" stroke-linejoin="round" stroke-width="1.5"/><rect width="24" height="24" fill="none"/><path d="M24,0H0V24H24Z" fill="none"/></g></svg>