<svg id="Layer_3" data-name="Layer 3" xmlns="http://www.w3.org/2000/svg" viewBox="0 0 24 24"><path d="M8,10.43752V11.569a5,5,0,0,0,3.24438,4.68164l.58006.21752a.50007.50007,0,0,0,.35112,0l.58006-.21752A5,5,0,0,0,16,11.569V10.43752a1,1,0,0,0-.70173-.9545l-3-.9375a1,1,0,0,0-.59654,0l-3,.9375A1,1,0,0,0,8,10.43752Z" fill="none" stroke="#323232" stroke-linecap="round" stroke-linejoin="round" stroke-width="1.5"/><circle cx="18.36633" cy="5.60002" r="2" fill="none" stroke="#323232" stroke-linecap="round" stroke-linejoin="round" stroke-width="1.5"/><path d="M16.77979,4.38385a9.06612,9.06612,0,1,0,4.07153,6.02661" fill="none" stroke="#323232" stroke-linecap="round" stroke-linejoin="round" stroke-width="1.5"/><path d="M0,0H24V24H0Z" fill="none"/></svg>