<svg id="Layer_3" data-name="Layer 3" xmlns="http://www.w3.org/2000/svg" viewBox="0 0 24 24"><path d="M5.05292,6.27748a9.01163,9.01163,0,0,1,3.949-2.75562" fill="none" stroke="#323232" stroke-linecap="round" stroke-linejoin="round" stroke-width="1.5"/><path d="M5.05292,17.7212a9.01077,9.01077,0,0,0,3.949,2.75574" fill="none" stroke="#323232" stroke-linecap="round" stroke-linejoin="round" stroke-width="1.5"/><path d="M3.33533,9.59254a8.80539,8.80539,0,0,0,0,4.81372" fill="none" stroke="#323232" stroke-linecap="round" stroke-linejoin="round" stroke-width="1.5"/><path d="M12,2.9994a9,9,0,0,1,0,18" fill="none" stroke="#323232" stroke-linecap="round" stroke-linejoin="round" stroke-width="1.5"/><path d="M11.47046,16.947h0A4.93909,4.93909,0,0,1,7.5,12.1038V10.4994a2.5,2.5,0,0,1,2.5-2.5h4a2.5,2.5,0,0,1,2.5,2.5v1.60439a4.93907,4.93907,0,0,1-3.97034,4.84315l-.00011,0A2.69992,2.69992,0,0,1,11.47046,16.947Z" fill="none" stroke="#323232" stroke-linecap="round" stroke-linejoin="round" stroke-width="1.5"/><path d="M0,23.9994v-24H24v24Z" fill="none"/></svg>