<svg id="Layer_3" data-name="Layer 3" xmlns="http://www.w3.org/2000/svg" viewBox="0 0 24 24"><polyline points="7.521 8 8.779 8 9.78 13 14.825 13 15.521 9.5 9.079 9.5" fill="none" stroke="#323232" stroke-linecap="round" stroke-linejoin="round" stroke-width="1.5"/><path d="M14.349,15.41479a.05.05,0,1,1-.00029-.00029l.00029.00029" fill="none" stroke="#323232" stroke-linecap="round" stroke-linejoin="round" stroke-width="1.5"/><path d="M10.321,15.41479a.05.05,0,1,1-.00029-.00029l.00029.00029" fill="none" stroke="#323232" stroke-linecap="round" stroke-linejoin="round" stroke-width="1.5"/><path d="M3.5,10.767a10.60888,10.60888,0,0,0,6.89228,9.93655l.03007.01125a4.5,4.5,0,0,0,3.15565-.001l.02436-.00913A10.6269,10.6269,0,0,0,20.5,10.75363V7.03023a2,2,0,0,0-1.40372-1.90905l-6.5-2.03023a2,2,0,0,0-1.19254,0l-6.5,2.03017A2,2,0,0,0,3.5,7.03017Z" fill="none" stroke="#323232" stroke-linecap="round" stroke-linejoin="round" stroke-width="1.5"/><path d="M0,0H24V24H0Z" fill="none"/></svg>