<svg id="Layer_3" data-name="Layer 3" xmlns="http://www.w3.org/2000/svg" viewBox="0 0 24 24"><path d="M7,10.21983v2.8333c0,2.11834,2.96833,3.69167,4.33333,4.30334a1.62007,1.62007,0,0,0,1.33334,0C14.03167,16.7448,17,15.1748,17,13.05313v-2.8333a1.66667,1.66667,0,0,0-1.10167-1.56667l-2.545-.91667a4.00007,4.00007,0,0,0-2.71,0l-2.54166.915A1.66667,1.66667,0,0,0,7,10.21983Z" fill="none" stroke="#323232" stroke-linecap="round" stroke-linejoin="round" stroke-width="1.5"/><path d="M6.82843,19.82843,4.17157,17.17157A4,4,0,0,1,3,14.34315V9.65785A4,4,0,0,1,4.17157,6.82943L6.82943,4.17157A4,4,0,0,1,9.65785,3h4.6843a4,4,0,0,1,2.82842,1.17157l2.65786,2.65786A4,4,0,0,1,21,9.65785v4.68539a4,4,0,0,1-1.17114,2.828L17.17292,19.828A4,4,0,0,1,14.34405,21H9.65685A4,4,0,0,1,6.82843,19.82843Z" fill="none" stroke="#323232" stroke-linecap="round" stroke-linejoin="round" stroke-width="1.5"/><polyline points="10.75 12.153 11.75 13.153 13.25 11.653" fill="none" stroke="#323232" stroke-linecap="round" stroke-linejoin="round" stroke-width="1.5"/><path d="M0,24V0H24V24Z" fill="none"/><rect width="24" height="24" fill="none"/></svg>