<svg id="Layer_3" data-name="Layer 3" xmlns="http://www.w3.org/2000/svg" viewBox="0 0 24 24"><path d="M20.582,9.353A8.84326,8.84326,0,0,1,21,12a9,9,0,1,1-9-9,8.84326,8.84326,0,0,1,2.647.418" fill="none" stroke="#323232" stroke-linecap="round" stroke-linejoin="round" stroke-width="1.5"/><polyline points="21 4.274 19.012 6.262 17.737 4.987" fill="none" stroke="#323232" stroke-linecap="round" stroke-linejoin="round" stroke-width="1.5"/><path d="M7.5,10.17971v1.27292a5.625,5.625,0,0,0,3.64993,5.26685l.65257.24471a.5625.5625,0,0,0,.395,0l.65257-.24471A5.625,5.625,0,0,0,16.5,11.45263V10.17971a1.125,1.125,0,0,0-.78945-1.07381l-3.375-1.05469a1.12494,1.12494,0,0,0-.6711,0L8.28945,9.1059A1.125,1.125,0,0,0,7.5,10.17971Z" fill="none" stroke="#323232" stroke-linecap="round" stroke-linejoin="round" stroke-width="1.5"/><path d="M0,0H24V24H0Z" fill="none"/></svg>