<svg xmlns="http://www.w3.org/2000/svg" viewBox="0 0 24 24"><g id="Layer_2" data-name="Layer 2"><path d="M17,9.604v2.93916c0,2.14686-3.03924,3.72887-4.38123,4.32471a1.51509,1.51509,0,0,1-1.23446.00137C10.04389,16.27455,7,14.6883,7,12.54318V9.60233A1.5,1.5,0,0,1,7.99192,8.191l2.65154-.95455a4,4,0,0,1,2.71036.00022l2.65449.9561A1.5,1.5,0,0,1,17,9.604Z" fill="none" stroke="#323232" stroke-linecap="round" stroke-linejoin="round" stroke-width="1.5"/><line x1="10.5" y1="12.00005" x2="13.5" y2="11.99995" fill="none" stroke="#323232" stroke-linecap="round" stroke-linejoin="round" stroke-width="1.5"/><rect x="3" y="3" width="18" height="18" rx="5" stroke-width="1.5" stroke="#323232" stroke-linecap="round" stroke-linejoin="round" fill="none"/><path d="M0,24V0H24V24Z" fill="none"/></g></svg>