<svg id="Layer_3" data-name="Layer 3" xmlns="http://www.w3.org/2000/svg" viewBox="0 0 24 24"><rect x="0.07584" y="-0.11429" width="24" height="24" fill="none"/><path d="M4.51236,16.72373A8.97718,8.97718,0,1,1,7.22184,19.4509l-2.565.42859a.5.5,0,0,1-.57556-.57556Z" fill="none" stroke="#323232" stroke-linecap="round" stroke-linejoin="round" stroke-width="1.5"/><path d="M8,12.5c0,1.90546,2.37467,3.32069,3.46667,3.87089a1.16608,1.16608,0,0,0,1.06666,0C13.62533,15.8207,16,14.40847,16,12.5l0-2.70692a.51035.51035,0,0,0-.47647-.49526,5.69471,5.69471,0,0,1-2.93634-1.10274.98117.98117,0,0,0-1.17433,0A5.6945,5.6945,0,0,1,8.47649,9.29782.50355.50355,0,0,0,8,9.79308Z" fill="none" stroke="#323232" stroke-linecap="round" stroke-linejoin="round" stroke-width="1.5"/></svg>