<svg id="Layer_3" data-name="Layer 3" xmlns="http://www.w3.org/2000/svg" viewBox="0 0 24 24"><path d="M0,0H24V24H0Z" fill="none"/><line x1="17.75" y1="17.75" x2="19.25" y2="19.25" fill="none" stroke="#323232" stroke-linecap="round" stroke-linejoin="round" stroke-width="1.5"/><path d="M21.5,12a9.38028,9.38028,0,0,1-1.03262,4.24516" fill="none" stroke="#323232" stroke-linecap="round" stroke-linejoin="round" stroke-width="1.5"/><path d="M16.24522,20.46744A9.38123,9.38123,0,0,1,12,21.5" fill="none" stroke="#323232" stroke-linecap="round" stroke-linejoin="round" stroke-width="1.5"/><path d="M12,2.5a9.38028,9.38028,0,0,1,4.24516,1.03262" fill="none" stroke="#323232" stroke-linecap="round" stroke-linejoin="round" stroke-width="1.5"/><path d="M20.46744,7.75478A9.38123,9.38123,0,0,1,21.5,12" fill="none" stroke="#323232" stroke-linecap="round" stroke-linejoin="round" stroke-width="1.5"/><line x1="6.25" y1="6.25" x2="4.75" y2="4.75" fill="none" stroke="#323232" stroke-linecap="round" stroke-linejoin="round" stroke-width="1.5"/><path d="M2.5,12A9.38028,9.38028,0,0,1,3.53262,7.75484" fill="none" stroke="#323232" stroke-linecap="round" stroke-linejoin="round" stroke-width="1.5"/><path d="M7.75478,3.53256A9.38123,9.38123,0,0,1,12,2.5" fill="none" stroke="#323232" stroke-linecap="round" stroke-linejoin="round" stroke-width="1.5"/><path d="M12,21.5a9.38028,9.38028,0,0,1-4.24516-1.03262" fill="none" stroke="#323232" stroke-linecap="round" stroke-linejoin="round" stroke-width="1.5"/><path d="M3.53256,16.24522A9.38123,9.38123,0,0,1,2.5,12" fill="none" stroke="#323232" stroke-linecap="round" stroke-linejoin="round" stroke-width="1.5"/><line x1="17.75" y1="6.25" x2="19.25" y2="4.75" fill="none" stroke="#323232" stroke-linecap="round" stroke-linejoin="round" stroke-width="1.5"/><line x1="6.25" y1="17.75" x2="4.75" y2="19.25" fill="none" stroke="#323232" stroke-linecap="round" stroke-linejoin="round" stroke-width="1.5"/><path d="M11.5293,16.45339h0A4.39029,4.39029,0,0,1,8,12.14835V10.72222A2.22222,2.22222,0,0,1,10.22222,8.5h3.55556A2.22222,2.22222,0,0,1,16,10.72222v1.42612a4.39029,4.39029,0,0,1-3.5292,4.305l-.0001,0A2.39972,2.39972,0,0,1,11.5293,16.45339Z" fill="none" stroke="#323232" stroke-linecap="round" stroke-linejoin="round" stroke-width="1.5"/></svg>