<?xml version="1.0" encoding="UTF-8"?><svg version="1.1" viewBox="0 0 24 24" xmlns="http://www.w3.org/2000/svg" xmlns:xlink="http://www.w3.org/1999/xlink"><g stroke-linecap="round" stroke-width="1.5" stroke="#323232" fill="none" stroke-linejoin="round"><line x1="13.5" x2="10.5" y1="13" y2="10"></line><line x1="13.5" x2="10.5" y1="10" y2="13"></line><path d="M4 11.138v-4.263l-4.0094e-10-3.97461e-05c-1.32089e-07-.874785.568518-1.64806 1.40349-1.90897l6-1.875 2.8122e-08-8.78812e-09c.388438-.121387.804662-.121387 1.1931 1.75762e-08l6 1.875 -1.55727e-07-4.8668e-08c.834954.260941 1.40344 1.03423 1.40341 1.90901v4.263l5.8975e-13-3.43165e-06c0 4.16845-2.58573 7.89965-6.48877 9.36329l-1.16011.435 -5.37752e-09 2.01655e-09c-.226383.0848927-.475857.0848927-.70224-4.0331e-09l-1.16011-.435 3.55006e-07 1.33127e-07c-3.90304-1.46364-6.48877-5.19484-6.48877-9.36329Z"></path></g><path fill="none" d="M0 0h24v24h-24Z"></path></svg>