<svg id="Layer_3" data-name="Layer 3" xmlns="http://www.w3.org/2000/svg" viewBox="0 0 24 24"><path d="M14.59674,13.2646a3.08392,3.08392,0,1,1,0-4.36132,3.08393,3.08393,0,0,1,0,4.36132" fill="none" stroke="#323232" stroke-linecap="round" stroke-linejoin="round" stroke-width="1.5"/><path d="M4,13.885V7.35172A2.66665,2.66665,0,0,1,5.76267,4.84239l4.06667-1.464a6.4,6.4,0,0,1,4.336,0l4.072,1.46667A2.66666,2.66666,0,0,1,20,7.35172V13.885c0,3.39467-4.74933,5.90667-6.93333,6.88534a2.592,2.592,0,0,1-2.13334,0C8.74933,19.79168,4,17.27435,4,13.885Z" fill="none" stroke="#323232" stroke-linecap="round" stroke-linejoin="round" stroke-width="1.5"/><path d="M8.5,15l1.73547-1.73547Z" fill="none" stroke="#323232" stroke-linecap="round" stroke-linejoin="round" stroke-width="1.5"/><path d="M0,0H24V24H0Z" fill="none"/></svg>