<?xml version="1.0" encoding="UTF-8"?><svg version="1.1" viewBox="0 0 24 24" xmlns="http://www.w3.org/2000/svg" xmlns:xlink="http://www.w3.org/1999/xlink"><g fill="none"><path d="M0 0h24v24h-24v-24Z"></path><path stroke="#323232" stroke-linecap="round" stroke-linejoin="round" stroke-width="1.5" d="M13 21h4.714c1.105 0 2-.895 2-2v-15c0-.552-.448-1-1-1h-1.857c-.552 0-1 .448-1 1v2.306"></path><path stroke="#323232" stroke-linecap="round" stroke-linejoin="round" stroke-width="1.5" d="M3 10.714l7.698-6.598c.749-.642 1.854-.642 2.603 0l7.699 6.598"></path><path stroke="#323232" stroke-linecap="round" stroke-linejoin="round" stroke-width="1.5" d="M3 18.949c0 1.453 2.035 2.533 2.969 2.952 .295.132.623.132.918 0 .934-.419 2.969-1.499 2.969-2.952v-3.084c0-.482-.302-.912-.756-1.075l-1.745-.627c-.601-.216-1.258-.216-1.859 0l-1.742.627c-.452.163-.754.593-.754 1.075v3.084Z"></path></g></svg>