<svg id="Layer_3" data-name="Layer 3" xmlns="http://www.w3.org/2000/svg" viewBox="0 0 24 24"><path d="M0,0H24V24H0Z" fill="none"/><path d="M20,13.02084l0-6.45146a1.01223,1.01223,0,0,0-.9021-.99168,11.3925,11.3925,0,0,1-5.8725-2.17177,2.05249,2.05249,0,0,0-2.45076,0A11.3925,11.3925,0,0,1,4.90212,5.5777,1.01223,1.01223,0,0,0,4,6.56938l0,6.45146c0,3.77091,4.65012,6.58183,6.86365,7.70657a2.50476,2.50476,0,0,0,2.27647-.00195C15.35515,19.59962,20,16.79555,20,13.02084Z" fill="none" stroke="#323232" stroke-linecap="round" stroke-linejoin="round" stroke-width="1.5"/><path d="M9.5,13.5,10.99888,15" fill="none" stroke="#323232" stroke-linecap="round" stroke-linejoin="round" stroke-width="1.5"/><path d="M14.5,13.5h-5" fill="none" stroke="#323232" stroke-linecap="round" stroke-linejoin="round" stroke-width="1.5"/><path d="M14.5,10.5,13.00112,9" fill="none" stroke="#323232" stroke-linecap="round" stroke-linejoin="round" stroke-width="1.5"/><path d="M9.5,10.5h5" fill="none" stroke="#323232" stroke-linecap="round" stroke-linejoin="round" stroke-width="1.5"/></svg>