<?xml version="1.0" encoding="UTF-8"?><svg version="1.1" viewBox="0 0 24 24" xmlns="http://www.w3.org/2000/svg" xmlns:xlink="http://www.w3.org/1999/xlink"><g fill="none"><path d="M24 24h-24v-24h24Z"></path><path stroke="#323232" stroke-linecap="round" stroke-linejoin="round" stroke-width="1.5" d="M7.99794 11.569v-2.1315l-1.70405e-10-1.83106e-05c-6.60446e-08-.437394.284261-.824033.701747-.954487l3-.9375 6.65067e-09-2.07822e-09c.194219-.0606902.402331-.0606902.59655 4.15644e-09l3 .9375 2.27224e-08 7.10089e-09c.417473.130463.701721.517096.70172.95448v2.13153l2.34301e-12-4.84082e-06c0 2.08422-1.29286 3.94982-3.24438 4.68164l-.58.21752 -3.56402e-08 1.33654e-08c-.113195.0424488-.237935.0424488-.35113-2.67307e-08l-.58-.21752 2.67866e-07 1.00441e-07c-1.95157-.731776-3.24449-2.59739-3.24451-4.68164Z"></path><rect width="18" height="18" x="2.9" y="3.00138" rx="2.7614" ry="0" stroke="#323232" stroke-linecap="round" stroke-linejoin="round" stroke-width="1.5"></rect></g></svg>