<svg xmlns="http://www.w3.org/2000/svg" viewBox="0 0 24 24"><g id="Layer_2" data-name="Layer 2"><path d="M0,0H24V24H0Z" fill="none"/><rect x="3" y="3" width="18" height="18" rx="5" stroke-width="1.5" stroke="#323232" stroke-linecap="round" stroke-linejoin="round" fill="none"/><path d="M8.10245,15.89755h0a.34975.34975,0,0,0,.45978.03052l.9766-.74681a4.05163,4.05163,0,0,1,4.92234,0l.9766.74681a.34975.34975,0,0,0,.45978-.03052h0a.34975.34975,0,0,0,.03052-.45978l-.74681-.9766a4.05163,4.05163,0,0,1,0-4.92234l.74681-.9766a.34975.34975,0,0,0-.03052-.45978h0a.34975.34975,0,0,0-.45978-.03052l-.9766.74681a4.05163,4.05163,0,0,1-4.92234,0l-.9766-.74681a.34975.34975,0,0,0-.45978.03052h0a.34975.34975,0,0,0-.03052.45978l.74681.9766a4.05163,4.05163,0,0,1,0,4.92234l-.74681.9766A.34975.34975,0,0,0,8.10245,15.89755Z" fill="none" stroke="#323232" stroke-linecap="round" stroke-linejoin="round" stroke-width="1.5"/></g></svg>