<?xml version="1.0" encoding="UTF-8"?><svg version="1.1" viewBox="0 0 24 24" xmlns="http://www.w3.org/2000/svg" xmlns:xlink="http://www.w3.org/1999/xlink"><g fill="none"><rect width="24" height="24"></rect><path stroke="#323232" stroke-linecap="round" stroke-linejoin="round" stroke-width="1.5" d="M12 9l-3.02986.75746 4.79511e-08-1.19879e-08c-.535793.13395-1.07873-.191807-1.21268-.7276l-.61621-2.46486 -7.16879e-09-2.86756e-08c-.092251-.369009-.0773621-.756673.04292-1.11752l.58791-1.76372 -1.63443e-08 4.90307e-08c.136118-.408336.518254-.68376.94868-.68376h6.55848l2.55054e-08 6.4837e-14c.430429 1.11003e-06.812566.27543.94868.68377l.68 2.04 1.40428e-09 4.21239e-09c.060148.180425.0675924.374263.02146.55877l-.68683 2.74735 3.16696e-09-1.26675e-08c-.133952.535793-.676887.86155-1.21268.7276Z"></path><line x1="10.5" x2="13.5" y1="12" y2="12" stroke="#323232" stroke-linecap="round" stroke-linejoin="round" stroke-width="1.5"></line><line x1="10.5" x2="9" y1="12" y2="21" stroke="#323232" stroke-linecap="round" stroke-linejoin="round" stroke-width="1.5"></line><line x1="13.5" x2="15" y1="12" y2="21" stroke="#323232" stroke-linecap="round" stroke-linejoin="round" stroke-width="1.5"></line><line x1="14.67" x2="13.5" y1="9.67" y2="12" stroke="#323232" stroke-linecap="round" stroke-linejoin="round" stroke-width="1.5"></line><line x1="9.33" x2="10.5" y1="9.67" y2="12" stroke="#323232" stroke-linecap="round" stroke-linejoin="round" stroke-width="1.5"></line><path stroke="#323232" stroke-linecap="round" stroke-linejoin="round" stroke-width="1.5" d="M7.08232 6h-1.08232l-1.31134e-07 3.55271e-15c-1.65685 7.24234e-08-3 1.34315-3 3 0 0 0 1.77636e-15 0 1.77636e-15v9l3.37508e-14-4.52987e-07c-2.50178e-07 1.65685 1.34315 3 3 3h12l-1.31134e-07-3.55271e-15c1.65685 7.24234e-08 3-1.34315 3-3v-9 0c0-1.65685-1.34315-3-3-3h-1.04077"></path><polyline stroke="#323232" stroke-linecap="round" stroke-linejoin="round" stroke-width="1.5" points="15.87,3.195 12,9 8.13,3.195"></polyline></g></svg>