<svg xmlns="http://www.w3.org/2000/svg" viewBox="0 0 24 24"><g id="Layer_2" data-name="Layer 2"><rect width="24" height="24" fill="none"/><path d="M17,13V10a2.5,2.5,0,0,0-2.5-2.5h-5A2.5,2.5,0,0,0,7,10v4a2.5,2.5,0,0,0,2.5,2.5H13" fill="none" stroke="#323232" stroke-linecap="round" stroke-linejoin="round" stroke-width="1.5"/><path d="M10,10.5a2,2,0,0,0,4,0" fill="none" stroke="#323232" stroke-linecap="round" stroke-linejoin="round" stroke-width="1.5"/><path d="M12,21H8a5,5,0,0,1-5-5V8A5,5,0,0,1,8,3h8a5,5,0,0,1,5,5v4" fill="none" stroke="#323232" stroke-linecap="round" stroke-linejoin="round" stroke-width="1.5"/><path d="M18.29283,20.70711l2.91428-2.91428a1,1,0,0,0,0-1.41423l-1.08581-1.08575a1,1,0,0,0-1.41415,0l-2.91424,2.91424a1,1,0,0,0-.29289.7071V20.75a.25.25,0,0,0,.25.25h1.83573A1,1,0,0,0,18.29283,20.70711Z" fill="none" stroke="#323232" stroke-linecap="round" stroke-linejoin="round" stroke-width="1.5"/></g></svg>