<svg id="Layer_3" data-name="Layer 3" xmlns="http://www.w3.org/2000/svg" viewBox="0 0 24 24"><path d="M24,24H0V0H24Z" fill="none"/><path d="M13.9695,17.0961h-3.939A2.53042,2.53042,0,0,1,7.505,14.40785l.27265-4.36272a1.01217,1.01217,0,0,1,1.01019-.949h6.42426a1.01216,1.01216,0,0,1,1.01019.949l.27265,4.36274A2.53039,2.53039,0,0,1,13.9695,17.0961Z" fill="none" stroke="#323232" stroke-linecap="round" stroke-linejoin="round" stroke-width="1.5"/><path d="M12,6h0a2,2,0,0,1,2,2V9.09612a0,0,0,0,1,0,0H10a0,0,0,0,1,0,0V8A2,2,0,0,1,12,6Z" fill="none" stroke="#323232" stroke-linecap="round" stroke-linejoin="round" stroke-width="1.5"/><path d="M18.364,5.63605a9,9,0,1,1-12.7279,0,9,9,0,0,1,12.7279,0" fill="none" stroke="#323232" stroke-linecap="round" stroke-linejoin="round" stroke-width="1.5"/></svg>