<svg id="Layer_3" data-name="Layer 3" xmlns="http://www.w3.org/2000/svg" viewBox="0 0 24 24"><path d="M24,24H0V0H24Z" fill="none"/><path d="M20.04975,14.29288a1,1,0,0,0-1.41416,0l-2.84268,2.84268a1.00007,1.00007,0,0,0-.29291.70716V20h2.15727a1,1,0,0,0,.70715-.29291l2.84269-2.84269a1,1,0,0,0,0-1.41422Z" fill="none" stroke="#323232" stroke-linecap="round" stroke-linejoin="round" stroke-width="1.5"/><path d="M12,21a9.00011,9.00011,0,1,1,8.9-10" fill="none" stroke="#323232" stroke-linecap="round" stroke-linejoin="round" stroke-width="1.5"/><path d="M10,10.5a2,2,0,0,0,4,0" fill="none" stroke="#323232" stroke-linecap="round" stroke-linejoin="round" stroke-width="1.5"/><path d="M17,12V10a2.5,2.5,0,0,0-2.5-2.5h-5A2.5,2.5,0,0,0,7,10v4a2.5,2.5,0,0,0,2.5,2.5H12" fill="none" stroke="#323232" stroke-linecap="round" stroke-linejoin="round" stroke-width="1.5"/></svg>