<svg viewBox="0 0 24 24" xmlns="http://www.w3.org/2000/svg"><g fill="none"><path d="M0 0h24v24H0Z"/><g stroke-linecap="round" stroke-width="1.5" stroke="#323232" fill="none" stroke-linejoin="round"><path d="M10.425 8.32l0-.01c0-.87.7-1.58 1.57-1.58 .86 0 1.57.7 1.57 1.57"/><rect width="8" height="7" x="8" y="9.25" rx=".979"/><path d="M13.57 8.32l0 .93"/><path d="M10.43 8.32l0 .93"/><path d="M20.58 9.35l0 0c.27.85.41 1.74.41 2.64v0c0 4.97-4.03 9-9 9 -4.98 0-9-4.03-9-9 0-4.98 4.02-9 9-9l0 0c.89 0 1.79.14 2.64.41"/><path d="M21 4.274l-1.99 1.98 -1.28-1.28"/></g></g></svg>