<svg id="Layer_3" data-name="Layer 3" xmlns="http://www.w3.org/2000/svg" viewBox="0 0 24 24"><path d="M5,11V9A2,2,0,0,1,7,7H18a2,2,0,0,1,2,2V19a2,2,0,0,1-2,2H12" fill="none" stroke="#323232" stroke-linecap="round" stroke-linejoin="round" stroke-width="1.5"/><path d="M9,7V6a3.5,3.5,0,0,1,3.5-3.5h0A3.5,3.5,0,0,1,16,6h0V7" fill="none" stroke="#323232" stroke-linecap="round" stroke-linejoin="round" stroke-width="1.5"/><path d="M10,18a4,4,0,1,1-4-4,4,4,0,0,1,4,4v0h0" fill="none" stroke="#323232" stroke-linecap="round" stroke-linejoin="round" stroke-width="1.5"/><path d="M4.95663,16.875H6.9542" fill="none" stroke="#323232" stroke-linecap="round" stroke-linejoin="round" stroke-width="1.5"/><line x1="4.9542" y1="19.12502" x2="6.95177" y2="19.12502" fill="none" stroke="#323232" stroke-linecap="round" stroke-linejoin="round" stroke-width="1.5"/><path d="M0,0H24V24H0Z" fill="none"/></svg>