<?xml version="1.0" encoding="UTF-8"?><svg version="1.1" viewBox="0 0 24 24" xmlns="http://www.w3.org/2000/svg" xmlns:xlink="http://www.w3.org/1999/xlink"><!--Generated by IJSVG (https://github.com/iconjar/IJSVG)--><g fill="none"><path d="M0,0h24v24h-24v-24Z"></path><path stroke="#323232" stroke-linecap="round" stroke-linejoin="round" stroke-width="1.5" d="M7.409,14.246l-1.535,-7.246h12.626c0.651,0 1.128,0.611 0.97,1.243l-1.348,5.392c-0.205,0.819 -0.901,1.421 -1.741,1.505l-6.816,0.682c-1.016,0.101 -1.945,-0.578 -2.156,-1.576Z"></path><path stroke="#323232" stroke-linecap="round" stroke-linejoin="round" stroke-width="1.5" d="M5.874,7l-0.65,-3h-1.724"></path><path stroke="#323232" stroke-linecap="round" stroke-linejoin="round" stroke-width="1.5" d="M17.109,19.267c-0.202,0 -0.366,0.164 -0.364,0.366c0,0.202 0.164,0.366 0.366,0.366c0.202,0 0.366,-0.164 0.366,-0.366c-0.001,-0.202 -0.165,-0.366 -0.368,-0.366"></path><path stroke="#323232" stroke-linecap="round" stroke-linejoin="round" stroke-width="1.5" d="M8.697,19.267c-0.202,0 -0.366,0.164 -0.364,0.366c-0.002,0.203 0.163,0.367 0.365,0.367c0.202,0 0.366,-0.164 0.366,-0.366c0,-0.203 -0.164,-0.367 -0.367,-0.367"></path></g></svg>