<svg id="Layer_3" data-name="Layer 3" xmlns="http://www.w3.org/2000/svg" viewBox="0 0 24 24"><rect width="24" height="24" fill="none"/><polyline points="7.521 8 8.779 8 9.78 13 14.825 13 15.521 9.5 9.079 9.5" fill="none" stroke="#323232" stroke-linecap="round" stroke-linejoin="round" stroke-width="1.5"/><path d="M17.97091,4.98159h0a8.4927,8.4927,0,0,1,0,11.98217h0L14.4751,20.47127a3.49239,3.49239,0,0,1-4.939.01166l-.01167-.01166L6.02865,16.9638A8.49287,8.49287,0,0,1,6.02859,4.98159h0a8.42459,8.42459,0,0,1,11.91414-.02813l.02813.02813Z" fill="none" stroke="#323232" stroke-linecap="round" stroke-linejoin="round" stroke-width="1.5"/><path d="M14.349,15.41479a.05.05,0,1,1-.00029-.00029l.00029.00029" fill="none" stroke="#323232" stroke-linecap="round" stroke-linejoin="round" stroke-width="1.5"/><path d="M10.321,15.41479a.05.05,0,1,1-.00029-.00029l.00029.00029" fill="none" stroke="#323232" stroke-linecap="round" stroke-linejoin="round" stroke-width="1.5"/></svg>