<svg id="Layer_3" data-name="Layer 3" xmlns="http://www.w3.org/2000/svg" viewBox="0 0 24 24"><path d="M0,0H24V24H0Z" fill="none"/><path d="M12,21H6a2,2,0,0,1-2-2V9A2,2,0,0,1,6,7H18a2,2,0,0,1,2,2v1" fill="none" stroke="#323232" stroke-linecap="round" stroke-linejoin="round" stroke-width="1.5"/><path d="M15.5,7V6A3.5,3.5,0,0,0,12,2.5h0A3.5,3.5,0,0,0,8.5,6h0V7" fill="none" stroke="#323232" stroke-linecap="round" stroke-linejoin="round" stroke-width="1.5"/><path d="M17.501,16.25a.25.25,0,1,1-.251.25.24868.24868,0,0,1,.251-.25" fill="none" stroke="#323232" stroke-linecap="round" stroke-linejoin="round" stroke-width="1.5"/><path d="M14,16.5h0A3.5,3.5,0,0,1,17.5,13h0A3.5,3.5,0,0,1,21,16.5h0" fill="none" stroke="#323232" stroke-linecap="round" stroke-linejoin="round" stroke-width="1.5"/><path d="M14,16.5c0,1.66118,1.85606,3.43784,2.86468,4.28117a1.0302,1.0302,0,0,0,1.26925.00034c1.0096-.84323,2.86612-2.62012,2.86612-4.2815" fill="none" stroke="#323232" stroke-linecap="round" stroke-linejoin="round" stroke-width="1.5"/></svg>