<svg id="Layer_3" data-name="Layer 3" xmlns="http://www.w3.org/2000/svg" viewBox="0 0 24 24"><path d="M15,12h4a2.5,2.5,0,0,0,2.5-2.5v-5A2.5,2.5,0,0,0,19,2H13a2.5,2.5,0,0,0-2.5,2.5V5" fill="none" stroke="#323232" stroke-linecap="round" stroke-linejoin="round" stroke-width="1.5"/><path d="M18,5.5a2,2,0,0,1-4,0" fill="none" stroke="#323232" stroke-linecap="round" stroke-linejoin="round" stroke-width="1.5"/><path d="M10,21H5a2,2,0,0,1-2-2V10A2,2,0,0,1,5,8h5a2,2,0,0,1,2,2v9A2,2,0,0,1,10,21Z" fill="none" stroke="#323232" stroke-linecap="round" stroke-linejoin="round" stroke-width="1.5"/><path d="M6,18.49991,9,18.5" fill="none" stroke="#323232" stroke-linecap="round" stroke-linejoin="round" stroke-width="1.5"/><path d="M16.925,17.575,15.5,19l1.425,1.425" fill="none" stroke="#323232" stroke-linecap="round" stroke-linejoin="round" stroke-width="1.5"/><path d="M20.25,16.15v.00036A2.84982,2.84982,0,0,1,17.4,19H15.5" fill="none" stroke="#323232" stroke-linecap="round" stroke-linejoin="round" stroke-width="1.5"/><path d="M0,0H24V24H0Z" fill="none"/></svg>