<?xml version="1.0" encoding="UTF-8"?><svg version="1.1" viewBox="0 0 24 24" xmlns="http://www.w3.org/2000/svg" xmlns:xlink="http://www.w3.org/1999/xlink"><g stroke-linecap="round" stroke-width="1.5" stroke="#323232" fill="none" stroke-linejoin="round"><path d="M14.048 16.075v0l1.04809e-07-1.74829e-08c-1.19193.198823-2.31936-.60625-2.51818-1.79818 -.0198356-.118913-.0298093-.239263-.0298193-.359819v-3.834l-7.46286e-09.000180384c1.82463e-07-1.2084.979601-2.188 2.188-2.188 .120556 1.82035e-08.240907.0099638.359822.0297896v0l2.91442e-07 4.85509e-08c1.99213.331866 3.45227 2.05545 3.45218 4.07503v0l4.11432e-09.000184371c0 2.01951-1.46012 3.74299-3.45218 4.07485Z"></path><line x1="7" x2="9" y1="10" y2="9.5"></line><line x1="7" x2="9" y1="12.5" y2="12"></line><path d="M12 21v0l-3.93403e-07-7.10543e-15c-4.97056-2.1727e-07-9-4.02944-9-9 0 0 0-5.32907e-15 0-5.32907e-15h-8.88178e-15l1.03029e-13 1.35896e-06c-7.50534e-07-4.97056 4.02944-9 9-9v0l-3.93403e-07 8.88178e-15c4.97056-2.1727e-07 9 4.02944 9 9v0l3.55271e-14 7.86805e-07c0 4.97056-4.02944 9-9 9Z"></path><line x1="7" x2="9" y1="15" y2="14.5"></line></g><path fill="none" d="M0 0h24v24h-24Z"></path></svg>