<svg xmlns="http://www.w3.org/2000/svg" viewBox="0 0 24 24"><g id="Layer_2" data-name="Layer 2"><rect width="24" height="24" fill="none"/><path d="M10.5,21V3.5A1.5,1.5,0,0,1,12,2h0a1.5,1.5,0,0,1,1.5,1.5V21" fill="none" stroke="#323232" stroke-linecap="round" stroke-linejoin="round" stroke-width="1.5"/><line x1="20" y1="21" x2="4" y2="21" fill="none" stroke="#323232" stroke-linecap="round" stroke-linejoin="round" stroke-width="1.5"/><path d="M10.5,11h-5a1,1,0,0,1-.70711-.29289l-1.5-1.5a1,1,0,0,1,0-1.41422l1.5-1.5A1,1,0,0,1,5.5,6h5" fill="none" stroke="#323232" stroke-linecap="round" stroke-linejoin="round" stroke-width="1.5"/><path d="M13.5,11h5a1,1,0,0,0,.70711-.29289l1.5-1.5a1,1,0,0,0,0-1.41422l-1.5-1.5A1,1,0,0,0,18.5,6h-5" fill="none" stroke="#323232" stroke-linecap="round" stroke-linejoin="round" stroke-width="1.5"/></g></svg>