<?xml version="1.0" encoding="UTF-8"?><svg version="1.1" viewBox="0 0 24 24" xmlns="http://www.w3.org/2000/svg" xmlns:xlink="http://www.w3.org/1999/xlink"><!--Generated by IJSVG (https://github.com/iconjar/IJSVG)--><g fill="none"><path d="M18.364,5.636c3.346,3.346 3.499,8.667 0.475,12.203"></path><path d="M5.636,5.636c-3.346,3.346 -3.499,8.666 -0.475,12.202"></path><path d="M15.889,8.111c1.977,1.977 2.111,5.071 0.449,7.228"></path><path d="M0,0h24v24h-24v-24Z"></path><path stroke="#323232" stroke-linecap="round" stroke-linejoin="round" stroke-width="1.5" d="M5.161,17.839c-3.024,-3.537 -2.87,-8.857 0.475,-12.203c3.515,-3.515 9.213,-3.515 12.728,0c3.346,3.346 3.499,8.667 0.475,12.203"></path><path stroke="#323232" stroke-linecap="round" stroke-linejoin="round" stroke-width="1.5" d="M7.661,15.339c-1.661,-2.157 -1.526,-5.252 0.45,-7.228c2.148,-2.148 5.63,-2.148 7.778,0c1.977,1.977 2.111,5.071 0.449,7.228"></path><path stroke="#323232" stroke-linecap="round" stroke-linejoin="round" stroke-width="1.5" d="M13.579,10.421c0.872,0.872 0.872,2.286 0,3.158c-0.872,0.872 -2.286,0.872 -3.158,0c-0.872,-0.872 -0.872,-2.286 0,-3.158c0.872,-0.872 2.286,-0.872 3.158,0"></path><path stroke="#323232" stroke-linecap="round" stroke-linejoin="round" stroke-width="1.5" d="M12,14.23v6.77"></path><path stroke="#323232" stroke-linecap="round" stroke-linejoin="round" stroke-width="1.5" d="M9,21h6"></path></g></svg>