<?xml version="1.0" encoding="UTF-8"?><svg version="1.1" viewBox="0 0 24 24" xmlns="http://www.w3.org/2000/svg" xmlns:xlink="http://www.w3.org/1999/xlink"><g stroke-linecap="round" stroke-width="1.5" stroke="#323232" fill="none" stroke-linejoin="round"><path d="M8.641 5.939c-1.005.899-1.641 2.201-1.641 3.656 0 1.455.636 2.757 1.641 3.656"></path><path d="M15.359 13.251c1.005-.899 1.641-2.202 1.641-3.656 0-1.454-.636-2.757-1.641-3.656"></path><path d="M6.236 3c-1.977 1.576-3.236 3.944-3.236 6.595 0 2.651 1.259 5.019 3.236 6.595"></path><path d="M17.764 16.19c1.977-1.576 3.236-3.945 3.236-6.595 0-2.65-1.259-5.019-3.236-6.595"></path><line x1="12" x2="12" y1="9.6" y2="21"></line></g><rect width="24" height="24" fill="none"></rect></svg>