<svg id="Layer_3" data-name="Layer 3" xmlns="http://www.w3.org/2000/svg" viewBox="0 0 24 24"><path d="M0,0H24V24H0Z" fill="none"/><line x1="20.29412" y1="17.17647" x2="3.70588" y2="17.17647" fill="none" stroke="#323232" stroke-linecap="round" stroke-linejoin="round" stroke-width="1.5"/><path d="M21,20,17.37873,5.51493A2,2,0,0,0,15.43845,4H8.56155A2,2,0,0,0,6.62127,5.51493L3,20" fill="none" stroke="#323232" stroke-linecap="round" stroke-linejoin="round" stroke-width="1.5"/><path d="M8.56155,4h6.51729a1.5,1.5,0,0,1,1.45521,1.8638L13,20" fill="none" stroke="#323232" stroke-linecap="round" stroke-linejoin="round" stroke-width="1.5"/><line x1="10.40371" y1="10.38531" x2="10.97138" y2="8.11459" fill="none" stroke="#323232" stroke-linecap="round" stroke-linejoin="round" stroke-width="1.5"/><path d="M9.74922,12.89228a.11115.11115,0,0,0-.11115.11113v.0014a.11185.11185,0,1,0,.11114-.11392" fill="none" stroke="#323232" stroke-linecap="round" stroke-linejoin="round" stroke-width="1.5"/></svg>