<?xml version="1.0" encoding="UTF-8"?><svg version="1.1" viewBox="0 0 24 24" xmlns="http://www.w3.org/2000/svg" xmlns:xlink="http://www.w3.org/1999/xlink"><!--Generated by IJSVG (https://github.com/iconjar/IJSVG)--><g fill="none"><path d="M0,0h24v24h-24Z"></path><path stroke="#323232" stroke-linecap="round" stroke-linejoin="round" stroke-width="1.5" d="M8.614,21h-4.681c-0.515,0 -0.933,-0.418 -0.933,-0.933v-5.133c0,-0.516 0.418,-0.934 0.933,-0.934h6.533c0.515,0 0.933,0.418 0.933,0.933v3.338c0,0.253 -0.102,0.494 -0.284,0.67l-1.853,1.795c-0.173,0.17 -0.406,0.264 -0.648,0.264Z"></path><path stroke="#323232" stroke-linecap="round" stroke-linejoin="round" stroke-width="1.5" d="M15.386,3h4.681c0.515,0 0.933,0.418 0.933,0.933v5.133c0,0.516 -0.418,0.934 -0.933,0.934h-6.533c-0.516,0 -0.934,-0.418 -0.934,-0.933v-3.338c0,-0.253 0.102,-0.494 0.284,-0.67l1.853,-1.795c0.174,-0.17 0.407,-0.264 0.649,-0.264Z"></path><path stroke="#323232" stroke-linecap="round" stroke-linejoin="round" stroke-width="1.5" d="M4,10c0,-3.314 2.686,-6 6,-6"></path><path stroke="#323232" stroke-linecap="round" stroke-linejoin="round" stroke-width="1.5" d="M20,14c0,3.314 -2.686,6 -6,6"></path></g></svg>