<?xml version="1.0" encoding="UTF-8"?><svg version="1.1" viewBox="0 0 24 24" xmlns="http://www.w3.org/2000/svg" xmlns:xlink="http://www.w3.org/1999/xlink"><g fill="none"><rect width="24" height="24"></rect><path stroke="#323232" stroke-linecap="round" stroke-linejoin="round" stroke-width="1.5" d="M14 8v-4l-1.08307e-08 3.00514e-05c.000190749-.552285.448061-.999845 1.00035-.999655 .119742 4.13565e-05.238502.021588.350627.063614l5 1.875 -1.73103e-08-6.48815e-09c.390597.146402.649289.519878.649028.937011v15.124"></path><path stroke="#323232" stroke-linecap="round" stroke-linejoin="round" stroke-width="1.5" d="M9.2 8h5.6 -5.24537e-08c.662742-2.89694e-08 1.2.537258 1.2 1.2 0 0 0 0 0 0v11.8h-8v-11.8l1.24345e-14-1.81195e-07c1.00071e-07-.662742.537258-1.2 1.2-1.2Z"></path><path stroke="#323232" stroke-linecap="round" stroke-linejoin="round" stroke-width="1.5" d="M11 8v-2 0c0-.552285-.447715-1-1-1h-4l-4.37114e-08 8.88178e-16c-.552285 2.41411e-08-1 .447715-1 1 0 0 0 0 0 0v5"></path><line x1="8" x2="8" y1="3" y2="5" stroke="#323232" stroke-linecap="round" stroke-linejoin="round" stroke-width="1.5"></line><line x1="22" x2="2" y1="21" y2="21" stroke="#323232" stroke-linecap="round" stroke-linejoin="round" stroke-width="1.5"></line><line x1="10.5" x2="13.5" y1="13.7" y2="13.7" stroke="#323232" stroke-linecap="round" stroke-linejoin="round" stroke-width="1.5"></line><line x1="10.5" x2="13.5" y1="11" y2="11" stroke="#323232" stroke-linecap="round" stroke-linejoin="round" stroke-width="1.5"></line><line x1="10.5" x2="13.5" y1="16.4" y2="16.4" stroke="#323232" stroke-linecap="round" stroke-linejoin="round" stroke-width="1.5"></line><path stroke="#323232" stroke-linecap="round" stroke-linejoin="round" stroke-width="1.5" d="M3 21v-9l1.15463e-14 1.50996e-07c-8.33927e-08-.552285.447715-1 1-1h4"></path></g></svg>