<?xml version="1.0" encoding="UTF-8"?><svg version="1.1" viewBox="0 0 24 24" xmlns="http://www.w3.org/2000/svg" xmlns:xlink="http://www.w3.org/1999/xlink"><g fill="none"><rect width="24" height="24"></rect><line x1="22" x2="2" y1="21" y2="21" stroke="#323232" stroke-linecap="round" stroke-linejoin="round" stroke-width="1.5"></line><line x1="19.49" x2="19.49" y1="18" y2="21" stroke="#323232" stroke-linecap="round" stroke-linejoin="round" stroke-width="1.5"></line><rect width="5" height="7" x="17" y="11" rx="1.3807" ry="0" stroke="#323232" stroke-linecap="round" stroke-linejoin="round" stroke-width="1.5"></rect><path stroke="#323232" stroke-linecap="round" stroke-linejoin="round" stroke-width="1.5" d="M9 4h2l-4.37114e-08 8.88178e-16c.552285-2.41411e-08 1 .447715 1 1v2h-4v-2l1.06581e-14 1.50996e-07c-8.33927e-08-.552285.447715-1 1-1Z"></path><line x1="10" x2="10" y1="2" y2="4" stroke="#323232" stroke-linecap="round" stroke-linejoin="round" stroke-width="1.5"></line><path stroke="#323232" stroke-linecap="round" stroke-linejoin="round" stroke-width="1.5" d="M6 21v-13l1.15463e-14 1.50996e-07c-8.33927e-08-.552285.447715-1 1-1h6 -4.37114e-08c.552285-2.41411e-08 1 .447715 1 1v13"></path><line x1="8.5" x2="11.5" y1="16" y2="16" stroke="#323232" stroke-linecap="round" stroke-linejoin="round" stroke-width="1.5"></line><line x1="8.5" x2="11.5" y1="13" y2="13" stroke="#323232" stroke-linecap="round" stroke-linejoin="round" stroke-width="1.5"></line><line x1="8.5" x2="11.5" y1="10" y2="10" stroke="#323232" stroke-linecap="round" stroke-linejoin="round" stroke-width="1.5"></line><line x1="10" x2="10" y1="19.5" y2="21" stroke="#323232" stroke-linecap="round" stroke-linejoin="round" stroke-width="1.5"></line><path stroke="#323232" stroke-linecap="round" stroke-linejoin="round" stroke-width="1.5" d="M6 13h-2l-4.37114e-08 1.77636e-15c-.552285 2.41411e-08-1 .447715-1 1 0 0 0 0 0 0v7"></path></g></svg>