<svg id="Layer_3" data-name="Layer 3" xmlns="http://www.w3.org/2000/svg" viewBox="0 0 24 24"><path d="M0,24V0H24V24Z" fill="none"/><path d="M12.01887,12.01916a7.22972,7.22972,0,0,0,1.271-8.30016.49926.49926,0,0,1,.56523-.70416,9.25844,9.25844,0,0,1,4.37881,2.45121,9.15,9.15,0,0,1,.17068,12.93813A9.15068,9.15068,0,0,1,5.46637,18.2348a9.26352,9.26352,0,0,1-2.4515-4.37836A.49924.49924,0,0,1,3.719,13.2912,7.22749,7.22749,0,0,0,12.01887,12.01916Z" fill="none" stroke="#323232" stroke-linecap="round" stroke-linejoin="round" stroke-width="1.5"/><path d="M3.219,10.29232l-.005.005-.005-.005.005-.005.005.005" fill="none" stroke="#323232" stroke-linecap="round" stroke-linejoin="round" stroke-width="1.5"/><path d="M4.541,7.06012l-.005.005-.005-.005.005-.005.005.005" fill="none" stroke="#323232" stroke-linecap="round" stroke-linejoin="round" stroke-width="1.5"/><path d="M6.9994,4.57972l-.005.005-.005-.005.005-.005.005.005" fill="none" stroke="#323232" stroke-linecap="round" stroke-linejoin="round" stroke-width="1.5"/><path d="M10.2203,3.22942l-.005.005-.005-.005.005-.005.005.005" fill="none" stroke="#323232" stroke-linecap="round" stroke-linejoin="round" stroke-width="1.5"/></svg>