<?xml version="1.0" encoding="UTF-8"?><svg version="1.1" viewBox="0 0 24 24" xmlns="http://www.w3.org/2000/svg" xmlns:xlink="http://www.w3.org/1999/xlink"><g stroke-linecap="round" stroke-width="1.5" stroke="#323232" fill="none" stroke-linejoin="round"><path d="M15 18v1c0 1.105-.895 2-2 2h-8c-1.105 0-2-.895-2-2v-7c0-1.105.895-2 2-2v0"></path><path d="M19 15h-9c-1.105 0-2-.895-2-2v-8c0-1.105.895-2 2-2h9c1.105 0 2 .895 2 2v8c0 1.105-.895 2-2 2Z"></path></g><path fill="none" d="M0 0h24v24h-24v-24Z"></path></svg>