<svg id="Layer_3" data-name="Layer 3" xmlns="http://www.w3.org/2000/svg" viewBox="0 0 24 24"><path d="M22,13.09476V11.41641a5.99994,5.99994,0,0,0-.63344-2.68328L19.27639,4.55279A1,1,0,0,0,18.382,4H16.41421a1,1,0,0,0-.7071.29289L14,6H9L7.29289,4.29289A1,1,0,0,0,6.58579,4h-1.865a1,1,0,0,0-.94868.68377L2.3079,9.0763A6.00008,6.00008,0,0,0,2,10.97367v2.12109" fill="none" stroke="#323232" stroke-linecap="round" stroke-linejoin="round" stroke-width="1.5"/><path d="M6.09476,9H17.90524A4.09476,4.09476,0,0,1,22,13.09476V17a4,4,0,0,1-4,4H6a4,4,0,0,1-4-4V13.09476A4.09476,4.09476,0,0,1,6.09476,9Z" fill="none" stroke="#323232" stroke-linecap="round" stroke-linejoin="round" stroke-width="1.5"/><path d="M22,13H19a1,1,0,0,0-1,1v2a1,1,0,0,0,1,1h3" fill="none" stroke="#323232" stroke-linecap="round" stroke-linejoin="round" stroke-width="1.5"/><path d="M2,17H5a1,1,0,0,0,1-1V14a1,1,0,0,0-1-1H2" fill="none" stroke="#323232" stroke-linecap="round" stroke-linejoin="round" stroke-width="1.5"/><line x1="10" y1="15" x2="14" y2="15" fill="none" stroke="#323232" stroke-linecap="round" stroke-linejoin="round" stroke-width="1.5"/><path d="M0,0H24V24H0Z" fill="none"/></svg>