<svg id="Layer_3" data-name="Layer 3" xmlns="http://www.w3.org/2000/svg" viewBox="0 0 24 24"><path d="M0,0H24V24H0Z" fill="none"/><path d="M8.86291,6h6.27418a2.8629,2.8629,0,0,1,1.537.44758h0A2.86292,2.86292,0,0,1,18,8.86291v6.27418a2.86292,2.86292,0,0,1-1.32589,2.41533h0A2.8629,2.8629,0,0,1,15.13709,18H8.86291a2.8629,2.8629,0,0,1-1.537-.44758h0A2.86292,2.86292,0,0,1,6,15.13709V8.86291A2.86292,2.86292,0,0,1,7.32589,6.44758h0A2.8629,2.8629,0,0,1,8.86291,6Z" fill="none" stroke="#323232" stroke-linecap="round" stroke-linejoin="round" stroke-width="1.5"/><path d="M7.99675,17.86532l.5714,2.36914A1,1,0,0,0,9.54027,21h4.91946a1,1,0,0,0,.97212-.76554l.57157-2.36984" fill="none" stroke="#323232" stroke-linecap="round" stroke-linejoin="round" stroke-width="1.5"/><path d="M16.00325,6.13468l-.5714-2.36914A1,1,0,0,0,14.45973,3H9.54027a1,1,0,0,0-.97212.76554L7.99658,6.13538" fill="none" stroke="#323232" stroke-linecap="round" stroke-linejoin="round" stroke-width="1.5"/><path d="M9,12h1.12485l1.12522,1.6875,1.49986-3.375L13.87515,12H15" fill="none" stroke="#323232" stroke-linecap="round" stroke-linejoin="round" stroke-width="1.5"/></svg>