<?xml version="1.0" encoding="UTF-8"?><svg version="1.1" viewBox="0 0 24 24" xmlns="http://www.w3.org/2000/svg" xmlns:xlink="http://www.w3.org/1999/xlink"><!--Generated by IJSVG (https://github.com/iconjar/IJSVG)--><g stroke-linecap="round" stroke-width="1.5" stroke="#323232" fill="none" stroke-linejoin="round"><path d="M15.013,4c1.762,0 3.19,1.428 3.19,3.19v7.606c0,3.427 -2.777,6.204 -6.203,6.204v0c-3.426,0 -6.203,-2.777 -6.203,-6.203v-7.607c0,-1.762 1.428,-3.19 3.19,-3.19"></path><path d="M13.818,12.611c1.00404,1.00404 1.00404,2.63191 0,3.63594c-1.00404,1.00404 -2.63191,1.00404 -3.63594,0c-1.00404,-1.00404 -1.00404,-2.63191 0,-3.63594c1.00404,-1.00404 2.63191,-1.00404 3.63594,0"></path><path d="M13,7h-2c-1.105,0 -2,-0.895 -2,-2v-1c0,-0.552 0.448,-1 1,-1h4c0.552,0 1,0.448 1,1v1c0,1.105 -0.895,2 -2,2Z"></path></g><path fill="none" d="M0,0h24v24h-24v-24Z"></path></svg>