<?xml version="1.0" encoding="UTF-8"?><svg version="1.1" viewBox="0 0 24 24" xmlns="http://www.w3.org/2000/svg" xmlns:xlink="http://www.w3.org/1999/xlink"><g stroke-linecap="round" stroke-width="1.5" stroke="#323232" fill="none" stroke-linejoin="round"><path d="M12 21h6c1.657 0 3-1.343 3-3v-7.333c0-.926-.427-1.8-1.158-2.368l-6-4.667c-1.083-.843-2.6-.843-3.684 0l-6 4.667c-.731.568-1.158 1.442-1.158 2.368v1.333"></path><path d="M3.225 20.55c.124 0 .225.102.225.225 -.001.124-.102.225-.225.225 -.124 0-.225-.101-.224-.225 -.001-.124.099-.225.224-.225"></path><path d="M3 18c1.756.039 2.961 1.244 3 3"></path><path d="M9 21c-.009-.759-.137-1.47-.367-2.121 -.588-1.665-1.847-2.924-3.513-3.513 -.65-.229-1.361-.357-2.12-.366"></path></g><rect width="24" height="24" fill="none"></rect></svg>