<?xml version="1.0" encoding="UTF-8"?><svg version="1.1" viewBox="0 0 24 24" xmlns="http://www.w3.org/2000/svg" xmlns:xlink="http://www.w3.org/1999/xlink"><!--Generated by IJSVG (https://github.com/iconjar/IJSVG)--><g stroke-width="1.5" fill="none" stroke="#323232"><path d="M19.842,8.299l-6,-4.667c-1.083,-0.843 -2.6,-0.843 -3.684,0l-6,4.667c-0.731,0.568 -1.158,1.442 -1.158,2.368v7.333c0,1.657 1.343,3 3,3h12c1.657,0 3,-1.343 3,-3v-7.333c0,-0.926 -0.427,-1.8 -1.158,-2.368Z"></path><path stroke-linecap="round" stroke-linejoin="round" d="M14,12.287h-4c-0.631,0 -1.143,0.512 -1.143,1.143v2.427c0,0.631 0.512,1.143 1.143,1.143h4c0.631,0 1.143,-0.512 1.143,-1.143v-2.427c0,-0.631 -0.512,-1.143 -1.143,-1.143Z"></path><path stroke-linecap="round" stroke-linejoin="round" d="M13.745,12.286v-1.541c0,-0.963 -0.782,-1.745 -1.745,-1.745v0c-0.638,0 -1.19,0.346 -1.495,0.857"></path></g><path fill="none" d="M0,0h24v24h-24v-24Z"></path></svg>