<?xml version="1.0" encoding="UTF-8"?><svg version="1.1" viewBox="0 0 24 24" xmlns="http://www.w3.org/2000/svg" xmlns:xlink="http://www.w3.org/1999/xlink"><!--Generated by IJSVG (https://github.com/iconjar/IJSVG)--><g stroke-width="1.5" fill="none" stroke="#323232"><path d="M19.842,8.299l-6,-4.667c-1.083,-0.843 -2.6,-0.843 -3.684,0l-6,4.667c-0.731,0.568 -1.158,1.442 -1.158,2.368v7.333c0,1.657 1.343,3 3,3h12c1.657,0 3,-1.343 3,-3v-7.333c0,-0.926 -0.427,-1.8 -1.158,-2.368Z"></path><path stroke-linecap="round" stroke-linejoin="round" d="M16.875,12.664c-2.843,-2.219 -6.907,-2.219 -9.75,0"></path><path stroke-linecap="round" stroke-linejoin="round" d="M9.157,15.503c1.658,-1.293 4.028,-1.293 5.687,0"></path></g><path fill="none" d="M0,0h24v24h-24v-24Z"></path></svg>