<?xml version="1.0" encoding="UTF-8"?><svg version="1.1" viewBox="0 0 24 24" xmlns="http://www.w3.org/2000/svg" xmlns:xlink="http://www.w3.org/1999/xlink"><!--Generated by IJSVG (https://github.com/iconjar/IJSVG)--><g fill="none"><path d="M0,0h24v24h-24Z"></path><path stroke="#323232" stroke-linecap="round" stroke-linejoin="round" stroke-width="1.5" d="M12.666,2c-3.387,-0.005 -6.51,1.828 -8.157,4.788c-1.647,2.96 -1.558,6.581 0.232,9.456l-1.741,4.756l4.755,-1.741c3.364,2.085 7.678,1.821 10.762,-0.66c3.084,-2.481 4.267,-6.638 2.951,-10.371c-1.315,-3.734 -4.844,-6.23 -8.802,-6.228v0Z"></path><path stroke="#323232" stroke-linecap="round" stroke-linejoin="round" stroke-width="1.5" d="M16,14.688c0,0 -1.313,1.312 -3.5,1.312c-2.188,0 -3.5,-1.312 -3.5,-1.312"></path><path stroke="#323232" stroke-linecap="round" stroke-linejoin="round" stroke-width="1.5" d="M17.5,9.24c-0.395,0.485 -0.935,0.76 -1.5,0.76c-0.565,0 -1.09,-0.275 -1.5,-0.76"></path><path stroke="#323232" stroke-linecap="round" stroke-linejoin="round" stroke-width="1.5" d="M10.5,9.24c-0.395,0.485 -0.935,0.76 -1.5,0.76c-0.565,0 -1.09,-0.275 -1.5,-0.76"></path></g></svg>