<?xml version="1.0" encoding="UTF-8"?><svg version="1.1" viewBox="0 0 24 24" xmlns="http://www.w3.org/2000/svg" xmlns:xlink="http://www.w3.org/1999/xlink"><g stroke-linecap="round" stroke-width="1.5" stroke="#323232" fill="none" stroke-linejoin="round"><path d="M14 11l-3.96447 3.96447 -8.93464e-08 8.9347e-08c-1.37781 1.37782-1.38112 3.61066-.00740982 4.99256v0l-9.21257e-08-9.26745e-08c1.3766 1.3848 3.61516 1.39145 4.99996.0148499 .00248425-.00246953.00496482-.00494276.00744172-.00741967l4.7929-4.7929 -1.48016e-08 1.48015e-08c.750144-.75014 1.17157-1.76755 1.17158-2.82841v-8.34315 0c0-.552285-.447715-1-1-1h-5l-4.37114e-08 8.88178e-16c-.552285 2.41411e-08-1 .447715-1 1 0 0 0 0 0 0Z"></path><line x1="21" x2="14" y1="7" y2="7"></line><path d="M11 3h-2 -4.37114e-08c-.552285 2.41411e-08-1 .447715-1 1 0 0 0 0 0 0v6.03553l-3.96447 3.96447 -8.93464e-08 8.9347e-08c-1.37781 1.37782-1.38112 3.61066-.00740982 4.99256v0"></path><line x1="11" x2="8" y1="7" y2="7"></line><path d="M6.53185 20.0354l-8.86878e-08 2.5004e-11c-.940267.000265048-1.84166-.375184-2.50372-1.04285"></path></g><g transform="matrix(1 0 0 1 24 24)"><rect width="24" height="24" fill="none" transform="matrix(-1 -1.22465e-16 1.22465e-16 -1 0 0)"></rect></g></svg>