<svg id="Layer_3" data-name="Layer 3" xmlns="http://www.w3.org/2000/svg" viewBox="0 0 24 24"><path d="M18,15H6V12.5A1.50055,1.50055,0,0,0,4.5,11h-1A1.50055,1.50055,0,0,0,2,12.5V17a1.99945,1.99945,0,0,0,2,2H20a1.99945,1.99945,0,0,0,2-2V12.5A1.50055,1.50055,0,0,0,20.5,11h-1A1.50055,1.50055,0,0,0,18,12.5Z" fill="none" stroke="#323232" stroke-linecap="round" stroke-linejoin="round" stroke-width="1.5"/><path d="M5,19v2" fill="none" stroke="#323232" stroke-linecap="round" stroke-linejoin="round" stroke-width="1.5"/><path d="M19,19v2" fill="none" stroke="#323232" stroke-linecap="round" stroke-linejoin="round" stroke-width="1.5"/><path d="M4,11V8A2,2,0,0,1,6,6h4a2,2,0,0,1,2,2v7" fill="none" stroke="#323232" stroke-linecap="round" stroke-linejoin="round" stroke-width="1.5"/><path d="M20,11V8a2,2,0,0,0-2-2H14a2,2,0,0,0-2,2v7" fill="none" stroke="#323232" stroke-linecap="round" stroke-linejoin="round" stroke-width="1.5"/><path d="M0,0H24V24H0Z" fill="none"/></svg>