<?xml version="1.0" encoding="UTF-8"?><svg version="1.1" viewBox="0 0 24 24" xmlns="http://www.w3.org/2000/svg" xmlns:xlink="http://www.w3.org/1999/xlink"><!--Generated by IJSVG (https://github.com/iconjar/IJSVG)--><g stroke-linecap="round" stroke-width="1.5" stroke="#323232" fill="none" stroke-linejoin="round"><path d="M18,14h-12v-2.5c0,-0.828 -0.672,-1.5 -1.5,-1.5h-1c-0.828,0 -1.5,0.672 -1.5,1.5v4.5c0,1.105 0.895,2 2,2h16c1.105,0 2,-0.895 2,-2v-4.5c0,-0.828 -0.672,-1.5 -1.5,-1.5h-1c-0.828,0 -1.5,0.672 -1.5,1.5v2.5Z"></path><path d="M5,18v2"></path><path d="M19,18v2"></path><path d="M4,10v-2c0,-1.657 1.343,-3 3,-3h10c1.657,0 3,1.343 3,3v2"></path></g><path fill="none" d="M0,0h24v24h-24Z"></path></svg>