<?xml version="1.0" encoding="UTF-8"?><svg version="1.1" viewBox="0 0 24 24" xmlns="http://www.w3.org/2000/svg" xmlns:xlink="http://www.w3.org/1999/xlink"><g stroke-linecap="round" stroke-width="1.5" stroke="#323232" fill="none" stroke-linejoin="round"><path d="M7.94 13.9085l-4.45826e-07-5.40111e-07c-2.49705-3.02513-2.59219-7.36843-.229999-10.5l-5.24293e-08 6.89739e-08c.345638-.454709.994448-.543127 1.44916-.197489 .0392228.0298145.076265.0623938.110843.0974888l10.42 10.42 4.70352e-09 4.63428e-09c.406856.400867.41171 1.05566.0108434 1.46251 -.0345785.0350951-.0716206.0676743-.110843.0974888l1.94451e-07-1.47307e-07c-1.65948 1.25714-3.72553 1.85558-5.8 1.68"></path><path d="M6 21l2.27543-8.34332 -5.75391e-08 2.10976e-07c.26676-.978117 1.15517-1.65668 2.16901-1.65668v0l7.97668e-08-1.65201e-13c1.01384-2.09892e-06 1.90225.678563 2.169 1.65668l2.27545 8.34332"></path><line x1="21" x2="3" y1="21" y2="21"></line><path d="M17.5438 7.68088l-1.56006 2.33381 -3-3 2.33381-1.56 6.80857e-08-4.5513e-08c.396681-.265168.925444-.213143 1.26284.12425l.83916.83915 1.884e-08 1.88412e-08c.337367.337388.38939.866119.12425 1.26279Z"></path></g><rect width="24" height="24" fill="none"></rect><path d="M0 0h24v24h-24Z" fill="none"></path></svg>