<?xml version="1.0" encoding="UTF-8"?><svg version="1.1" viewBox="0 0 24 24" xmlns="http://www.w3.org/2000/svg" xmlns:xlink="http://www.w3.org/1999/xlink"><g stroke-linecap="round" stroke-width="1.5" stroke="#323232" fill="none" stroke-linejoin="round"><rect width="18" height="18" x="3" y="3" rx="2.7614" ry="0"></rect><path d="M7.95035 6.32884l-3.42637e-08 6.38001e-08c.163028-.303563.541275-.41749.844838-.254462 .107973.0579864.196475.146489.254462.254462l.48477.88718 -1.37083e-08-2.50904e-08c.0575698.10537.14419.19199.24956.24956l.88718.48477 2.57493e-08 1.38286e-08c.303563.163028.41749.541275.254462.844838 -.0579864.107973-.146489.196475-.254462.254462l-.88716.48477 -1.1263e-07 6.15364e-08c-.10537.0575699-.19199.14419-.24956.24956l-.48477.88718 8.45751e-09-1.57482e-08c-.163028.303563-.541275.41749-.844838.254462 -.107973-.0579864-.196475-.146489-.254462-.254462l-.48479-.88716 1.541e-08 2.82065e-08c-.0575722-.10538-.1442-.192008-.24958-.24958l-.88718-.48477 -7.38012e-08-3.96348e-08c-.303563-.163028-.41749-.541275-.254462-.844838 .0579864-.107973.146489-.196475.254462-.254462l.88718-.48477 1.33274e-08-7.28111e-09c.10538-.0575722.192008-.1442.24958-.24958Z"></path><path d="M15.5603 8.92974l-2.41895e-10 4.50454e-10c.130411-.242851.432999-.334001.675849-.203591 .0863892.046391.1572.117201.203591.203591l.38782.70974 -3.59306e-08-6.59876e-08c.045944.0843776.115265.153702.19964.19965l.70975.38781 4.14154e-10 2.22409e-10c.242853.130417.334001.433013.203584.675866 -.0463907.0863854-.117198.157193-.203584.203584l-.70975.38781 -3.45395e-08 1.88092e-08c-.0843752.0459483-.153696.115272-.19964.19965l-.38782.70974 7.74762e-09-1.44276e-08c-.130411.242851-.432999.334001-.675849.203591 -.0863892-.046391-.1572-.117201-.203591-.203591l-.38782-.70974 1.50646e-08 2.76666e-08c-.045944-.0843776-.115265-.153702-.19964-.19965l-.70975-.38781 1.07704e-08 5.78443e-09c-.242853-.130429-.333992-.433034-.203563-.675887 .0463889-.0863742.117188-.157174.203563-.203563l.70975-.38781 4.84724e-08-2.63967e-08c.0843752-.0459483.153696-.115272.19964-.19965Z"></path><path d="M10.9504 13.3288l-3.42637e-08 6.38001e-08c.163028-.303563.541275-.41749.844838-.254462 .107973.0579864.196475.146489.254462.254462l.48477.88718 -1.37083e-08-2.50904e-08c.0575698.10537.14419.19199.24956.24956l.88718.48477 2.57493e-08 1.38286e-08c.303563.163028.41749.541275.254462.844838 -.0579864.107973-.146489.196475-.254462.254462l-.88718.48477 -1.1263e-07 6.15364e-08c-.10537.0575699-.19199.14419-.24956.24956l-.48477.88718 8.45751e-09-1.57482e-08c-.163028.303563-.541275.41749-.844838.254462 -.107973-.0579864-.196475-.146489-.254462-.254462l-.48477-.88718 2.32623e-08 4.2577e-08c-.0575698-.10537-.14419-.19199-.24956-.24956l-.88718-.48477 -7.38012e-08-3.96348e-08c-.303563-.163028-.41749-.541275-.254462-.844838 .0579864-.107973.146489-.196475.254462-.254462l.88718-.48477 6.45365e-08-3.52601e-08c.10537-.0575699.19199-.14419.24956-.24956Z"></path><path d="M6.08333 14.0333h-8.88178e-16c0 .0276142-.0223858.05-.05.05 -.0276142 0-.05-.0223858-.05-.05 0-.0276142.0223858-.05.05-.05"></path><path d="M6.03333 13.9833h-2.18557e-09c.0276142-1.20706e-09.05.0223858.05.05 0 0 0 0 0 0"></path><path d="M17.0833 16h3.55271e-15c0 .0276142-.0223858.05-.05.05 -.0276142 0-.05-.0223858-.05-.05 0-.0276142.0223858-.05.05-.05"></path><path d="M17.0333 15.95l-2.18557e-09 1.77636e-15c.0276142-1.20706e-09.05.0223858.05.05"></path><path d="M14.0833 5.96667v0c0 .0276142-.0223858.05-.05.05 -.0276142 0-.05-.0223858-.05-.05 0-.0276142.0223858-.05.05-.05"></path><path d="M14.0333 5.91667h-2.18557e-09c.0276142-1.20706e-09.05.0223858.05.05 0 0 0 0 0 0"></path></g><rect width="24" height="24" fill="none"></rect></svg>