<svg id="Layer_3" data-name="Layer 3" xmlns="http://www.w3.org/2000/svg" viewBox="0 0 24 24"><path d="M0,24l24,0L24,0" fill="none"/><path d="M4.67349,17.2052l1.76586-1.76586a1.5,1.5,0,0,1,2.12132,0h0a1.5,1.5,0,0,1,0,2.12132L6.81415,19.30718" fill="none" stroke="#323232" stroke-linecap="round" stroke-linejoin="round" stroke-width="1.5"/><line x1="8.56067" y1="15.43934" x2="10.90702" y2="13.093" fill="none" stroke="#323232" stroke-linecap="round" stroke-linejoin="round" stroke-width="1.5"/><path d="M11.56019,7.86768l.32659-.32658a1.8474,1.8474,0,0,1,2.61264,0L16.4589,9.50058a1.8474,1.8474,0,0,1,0,2.61264l-.32661.32661a5.86922,5.86922,0,0,1-2.29419,1.41789h0a2.77111,2.77111,0,0,1-2.83579-.66943l-.19059-.19059a2.77114,2.77114,0,0,1-.66944-2.8358h0A5.86949,5.86949,0,0,1,11.56019,7.86768Z" fill="none" stroke="#323232" stroke-linecap="round" stroke-linejoin="round" stroke-width="1.5"/><circle cx="12" cy="12" r="9" fill="none" stroke="#323232" stroke-linecap="round" stroke-linejoin="round" stroke-width="1.5"/></svg>