<svg id="Layer_3" data-name="Layer 3" xmlns="http://www.w3.org/2000/svg" viewBox="0 0 24 24"><rect width="24" height="24" transform="translate(24 24) rotate(180)" fill="none"/><rect x="5" y="2" width="3" height="8" rx="1.5" transform="translate(12.99999 12) rotate(-180)" stroke-width="1.5" stroke="#323232" stroke-linecap="round" stroke-linejoin="round" fill="none"/><line x1="6.5" y1="10" x2="6.5" y2="14" fill="none" stroke="#323232" stroke-linecap="round" stroke-linejoin="round" stroke-width="1.5"/><path d="M3,18.5V19a2,2,0,0,0,2,2H8a2,2,0,0,0,2-2v-.50005a6.35407,6.35407,0,0,0-.67082-2.84163h0A3,3,0,0,0,6.6459,14H6.35411a3,3,0,0,0-2.68329,1.65836h0A6.3542,6.3542,0,0,0,3,18.5Z" fill="none" stroke="#323232" stroke-linecap="round" stroke-linejoin="round" stroke-width="1.5"/><rect x="15.5" y="2" width="3" height="8" rx="1.5" stroke-width="1.5" stroke="#323232" stroke-linecap="round" stroke-linejoin="round" fill="none"/><line x1="17" y1="10" x2="17" y2="15.66667" fill="none" stroke="#323232" stroke-linecap="round" stroke-linejoin="round" stroke-width="1.5"/><line x1="8" y1="5" x2="15.5" y2="5" fill="none" stroke="#323232" stroke-linecap="round" stroke-linejoin="round" stroke-width="1.5"/><line x1="18.5" y1="5" x2="21" y2="5" fill="none" stroke="#323232" stroke-linecap="round" stroke-linejoin="round" stroke-width="1.5"/><line x1="3" y1="5" x2="5" y2="5" fill="none" stroke="#323232" stroke-linecap="round" stroke-linejoin="round" stroke-width="1.5"/><path d="M14,16h6a1,1,0,0,1,1,1v0a4,4,0,0,1-4,4h0a4,4,0,0,1-4-4v0a1,1,0,0,1,1-1Z" fill="none" stroke="#323232" stroke-linecap="round" stroke-linejoin="round" stroke-width="1.5"/></svg>