<?xml version="1.0" encoding="UTF-8"?><svg version="1.1" viewBox="0 0 24 24" xmlns="http://www.w3.org/2000/svg" xmlns:xlink="http://www.w3.org/1999/xlink"><g fill="none"><path d="M0 0h24v24h-24v-24Z"></path><circle cx="12" cy="10" r="4.038" stroke="#323232" stroke-linecap="round" stroke-linejoin="round" stroke-width="1.5"></circle><line x1="16" x2="8" y1="21" y2="21" stroke="#323232" stroke-linecap="round" stroke-linejoin="round" stroke-width="1.5"></line><path stroke="#323232" stroke-linecap="round" stroke-linejoin="round" stroke-width="1.5" d="M18 17h-12c-1.105 0-2-.895-2-2v-10c0-1.105.895-2 2-2h12c1.105 0 2 .895 2 2v10c0 1.105-.895 2-2 2Z"></path><line x1="14" x2="14" y1="17" y2="21" stroke="#323232" stroke-linecap="round" stroke-linejoin="round" stroke-width="1.5"></line><line x1="10" x2="10" y1="17" y2="21" stroke="#323232" stroke-linecap="round" stroke-linejoin="round" stroke-width="1.5"></line><path stroke="#323232" stroke-linecap="round" stroke-linejoin="round" stroke-width="1.5" d="M11.999 9.75c-.138 0-.25.112-.248.25 0 .138.112.25.25.25 .138 0 .25-.112.25-.25 -.001-.138-.113-.25-.252-.25"></path></g></svg>