<?xml version="1.0" encoding="UTF-8"?><svg version="1.1" viewBox="0 0 24 24" xmlns="http://www.w3.org/2000/svg" xmlns:xlink="http://www.w3.org/1999/xlink"><g fill="none"><path d="M0 0h24v24h-24Z"></path><circle cx="12" cy="12.5" r="1.75" stroke="#323232" stroke-linecap="round" stroke-linejoin="round" stroke-width="1.5"></circle><line x1="12" x2="12" y1="6.5" y2="7.5" stroke="#323232" stroke-linecap="round" stroke-linejoin="round" stroke-width="1.5"></line><line x1="7.76" x2="8.46" y1="8.26" y2="8.97" stroke="#323232" stroke-linecap="round" stroke-linejoin="round" stroke-width="1.5"></line><line x1="13.24" x2="16.24" y1="11.26" y2="8.26" stroke="#323232" stroke-linecap="round" stroke-linejoin="round" stroke-width="1.5"></line><line x1="8.5" x2="15.5" y1="17" y2="17" stroke="#323232" stroke-linecap="round" stroke-linejoin="round" stroke-width="1.5"></line><line x1="18" x2="17" y1="12.5" y2="12.5" stroke="#323232" stroke-linecap="round" stroke-linejoin="round" stroke-width="1.5"></line><line x1="7" x2="6" y1="12.5" y2="12.5" stroke="#323232" stroke-linecap="round" stroke-linejoin="round" stroke-width="1.5"></line><path stroke="#323232" stroke-linecap="round" stroke-linejoin="round" stroke-width="1.5" d="M11.719 3.5l-5.49036e-07 2.29663e-08c-4.83069.202069-8.66 4.14645-8.719 8.981l2.57353e-08-8.38727e-06c-.00890076 2.90036 1.38373 5.6264 3.73899 7.319l3.4575e-07 2.41531e-07c.666724.465754 1.46277.710585 2.276.7h5.978l1.62647e-07 2.43487e-09c.794741.0118975 1.57334-.224795 2.227-.677l-2.85461e-07 2.02814e-07c4.04975-2.87726 5.00023-8.4927 2.12298-12.5424 -1.74681-2.45864-4.60955-3.8782-7.62397-3.78055Z"></path></g></svg>