<svg id="Layer_3" data-name="Layer 3" xmlns="http://www.w3.org/2000/svg" viewBox="0 0 24 24"><rect width="24" height="24" fill="none"/><line x1="10" y1="5.5" x2="13" y2="5.5" fill="none" stroke="#323232" stroke-linecap="round" stroke-linejoin="round" stroke-width="1.5"/><rect x="15.5" y="1.5" width="3" height="8" rx="1.5" transform="translate(11.5 22.5) rotate(-90)" stroke-width="1.5" stroke="#323232" stroke-linecap="round" stroke-linejoin="round" fill="none"/><ellipse cx="6.5" cy="5.5" rx="3.5" ry="2.5" fill="none" stroke="#323232" stroke-linecap="round" stroke-linejoin="round" stroke-width="1.5"/><path d="M6.99969,19a8.04289,8.04289,0,0,1-3.98975-5.855A1.01006,1.01006,0,0,1,4.00854,12H19.99146a1.01006,1.01006,0,0,1,.9986,1.145A8.04289,8.04289,0,0,1,17.00031,19v1a1,1,0,0,1-1,1H7.99969a1,1,0,0,1-1-1Z" fill="none" stroke="#323232" stroke-linecap="round" stroke-linejoin="round" stroke-width="1.5"/></svg>