<svg id="Layer_3" data-name="Layer 3" xmlns="http://www.w3.org/2000/svg" viewBox="0 0 24 24"><path d="M0,0H24V24H0Z" fill="none"/><path d="M18.76114,11.05971l-.89482.22371A24.00015,24.00015,0,0,1,12.04546,12h-.09092a24.00015,24.00015,0,0,1-5.82086-.71658l-.89482-.22371A2,2,0,0,0,4.75379,11H4a2,2,0,0,0-2,2v3.5a2,2,0,0,0,2,2H20a2,2,0,0,0,2-2V13a2,2,0,0,0-2-2h-.75379A2,2,0,0,0,18.76114,11.05971Z" fill="none" stroke="#323232" stroke-linecap="round" stroke-linejoin="round" stroke-width="1.5"/><path d="M22,17v3a1,1,0,0,1-1,1H18a1,1,0,0,1-1-1V18.5" fill="none" stroke="#323232" stroke-linecap="round" stroke-linejoin="round" stroke-width="1.5"/><path d="M7,18.5V20a1,1,0,0,1-1,1H3a1,1,0,0,1-1-1V17" fill="none" stroke="#323232" stroke-linecap="round" stroke-linejoin="round" stroke-width="1.5"/><line x1="19" y1="15" x2="17" y2="15" fill="none" stroke="#323232" stroke-linecap="round" stroke-linejoin="round" stroke-width="1.5"/><line x1="7" y1="15" x2="5" y2="15" fill="none" stroke="#323232" stroke-linecap="round" stroke-linejoin="round" stroke-width="1.5"/><path d="M9,18.5V18a3,3,0,0,1,3-3h0a3,3,0,0,1,3,3v.5" fill="none" stroke="#323232" stroke-linecap="round" stroke-linejoin="round" stroke-width="1.5"/><line x1="18.88889" y1="9" x2="21" y2="9" fill="none" stroke="#323232" stroke-linecap="round" stroke-linejoin="round" stroke-width="1.5"/><line x1="3" y1="9" x2="5.11111" y2="9" fill="none" stroke="#323232" stroke-linecap="round" stroke-linejoin="round" stroke-width="1.5"/><path d="M20,11,18.643,8.55743A4,4,0,0,0,15.14639,6.5H8.85361A4,4,0,0,0,5.357,8.55743L4,11" fill="none" stroke="#323232" stroke-linecap="round" stroke-linejoin="round" stroke-width="1.5"/></svg>