<svg xmlns="http://www.w3.org/2000/svg" viewBox="0 0 24 24"><g id="Layer_2" data-name="Layer 2"><path d="M14.35,8.03323a.05.05,0,1,0,.05-.05013.05.05,0,0,0-.05.05013" fill="none" stroke="#323232" stroke-linecap="round" stroke-linejoin="round" stroke-width="1.5"/><path d="M16.9,8.03341a.05.05,0,1,0,.05-.05013.05.05,0,0,0-.05.05013" fill="none" stroke="#323232" stroke-linecap="round" stroke-linejoin="round" stroke-width="1.5"/><path d="M16.94987,10.51629a.05.05,0,1,0,.05013.05.05.05,0,0,0-.05013-.05" fill="none" stroke="#323232" stroke-linecap="round" stroke-linejoin="round" stroke-width="1.5"/><path d="M8.5,10.5V8.25a.75.75,0,0,1,.75-.75h1.5a.75.75,0,0,1,.75.75V10.5" fill="none" stroke="#323232" stroke-linecap="round" stroke-linejoin="round" stroke-width="1.5"/><rect x="7" y="10.5" width="6" height="6" rx="1.28571" stroke-width="1.5" stroke="#323232" stroke-linecap="round" stroke-linejoin="round" fill="none"/><rect x="2.5" y="2.5" width="19" height="19" rx="9.49999" stroke-width="1.5" stroke="#323232" stroke-linecap="round" stroke-linejoin="round" fill="none"/><rect width="24" height="24" fill="none"/></g></svg>