<?xml version="1.0" encoding="UTF-8"?><svg version="1.1" viewBox="0 0 24 24" xmlns="http://www.w3.org/2000/svg" xmlns:xlink="http://www.w3.org/1999/xlink"><g stroke-linecap="round" stroke-width="1.5" stroke="#323232" fill="none" stroke-linejoin="round"><line x1="7.75" x2="10.31" y1="7.76" y2="10.31"></line><line x1="13.69" x2="16.25" y1="13.69" y2="16.24"></line><line x1="10.31" x2="7.75" y1="13.69" y2="16.24"></line><line x1="16.25" x2="13.69" y1="7.76" y2="10.31"></line><line x1="18" x2="14" y1="12" y2="12"></line><line x1="10" x2="6.01" y1="12" y2="12"></line><line x1="12" x2="12" y1="6.01" y2="10.01"></line><line x1="12" x2="12" y1="13.99" y2="17.99"></line><rect width="18" height="18" x="3" y="3" rx="2.7614" ry="0"></rect><path fill-rule="evenodd" d="M13.691 13.688l-1.01979e-07 2.69082e-07c.20439-.539306.309091-1.11126.309-1.688v-2.87758e-07l-4.79089e-08 8.12735e-05c.000344028-.575279-.103663-1.14585-.306971-1.68401l-5.00549e-08-1.89758e-08c-.540902-.205056-1.11456-.310121-1.69303-.310076h-6.97048e-07l-2.82869e-07-3.2975e-10c-.57717-.00067281-1.14971.102994-1.69.306l6.34887e-08-1.67976e-07c-.203901.539474-.308913 1.11128-.31 1.688v1.79574e-07l-3.58494e-08-4.21642e-05c.000486596.575294.104821 1.14578.307985 1.684l2.34306e-07 8.87787e-08c.540609.204837 1.1139.309885 1.69201.310039h5.01827e-07l1.529e-07 2.91823e-10c.577533.00110227 1.15048-.102576 1.691-.306Z"></path></g><path fill="none" d="M0 24v-24h24v24Z"></path></svg>