<svg id="Layer_3" data-name="Layer 3" xmlns="http://www.w3.org/2000/svg" viewBox="0 0 24 24"><path d="M0,0H24V24H0Z" fill="none"/><rect x="3" y="3" width="18" height="18" rx="5" stroke-width="1.5" stroke="#323232" stroke-linecap="round" stroke-linejoin="round" fill="none"/><path d="M5.96549,14H7.85a1,1,0,0,0,1-1h0v-.009a.99552.99552,0,0,0-.99551-.99552h-1.009A.99551.99551,0,0,1,5.85,11h0a1,1,0,0,1,1-1H8.51667" fill="none" stroke="#323232" stroke-linecap="round" stroke-linejoin="round" stroke-width="1.5"/><path d="M10.86549,14H12.75a1,1,0,0,0,1-1h0v-.009a.99552.99552,0,0,0-.99551-.99552h-1.009A.99551.99551,0,0,1,10.75,11h0a1,1,0,0,1,1-1h1.66667" fill="none" stroke="#323232" stroke-linecap="round" stroke-linejoin="round" stroke-width="1.5"/><polyline points="18.25 14 16.1 14 16.1 10" fill="none" stroke="#323232" stroke-linecap="round" stroke-linejoin="round" stroke-width="1.5"/></svg>