<svg viewBox="0 0 24 24" xmlns="http://www.w3.org/2000/svg"><g stroke-linecap="round" stroke-width="1.5" stroke="#323232" fill="none" stroke-linejoin="round"><path d="M16 14l0-.001c.55-.01 1 .44 1 .99 0 .05-.01.11-.02.16l-.24 1.42 0-.01c-.05.24-.25.41-.49.42H7.69l0 0c-.25-.01-.47-.19-.5-.43L7 15.1l-.01-.01c-.08-.55.31-1.05.86-1.13 .04-.01.08-.01.12-.01h8Z"/><path d="M8 14l0 0c-.56-.01-1.01.44-1.01.99 -.01.04 0 .08 0 .13l.19 1.43 0 0c.03.24.24.43.49.43h8.56l0 0c.24 0 .45-.18.49-.42l.23-1.42 -.01 0c.09-.55-.28-1.06-.83-1.16 -.06-.01-.11-.02-.17-.02Z"/></g><g stroke-width="1.5" fill="none" stroke="#323232"><rect width="18" height="18" x="3" y="3" rx="5"/><path d="M13.44 14l.9-4.08 0-.01c.28-1.3-.53-2.59-1.83-2.88 -1.3-.29-2.59.52-2.88 1.82 -.08.34-.08.7 0 1.04l.9 4.07"/></g><path fill="none" d="M0 0h24v24H0Z"/></svg>