<?xml version="1.0" encoding="UTF-8"?><svg version="1.1" viewBox="0 0 24 24" xmlns="http://www.w3.org/2000/svg" xmlns:xlink="http://www.w3.org/1999/xlink"><g stroke-linecap="round" stroke-width="1.5" stroke="#323232" fill="none" stroke-linejoin="round"><polyline points="20,9.357 20,13 10,13"></polyline><path d="M5 14h1l-8.74228e-08 1.77636e-15c1.10457-4.82823e-08 2 .89543 2 2h12l-4.37114e-08 1.77636e-15c.552285-2.41411e-08 1 .447715 1 1v2 0c0 .552285-.447715 1-1 1h-15l-8.74228e-08-3.55271e-15c-1.10457-4.82823e-08-2-.895431-2-2 0 0 0 0 0 0v-2l2.30926e-14 3.01992e-07c-1.66785e-07-1.10457.89543-2 2-2Z"></path><path d="M3.664 9.763l13.173-4.7 5.512e-08-2.04054e-08c.107633-.0398456.221244-.0611476.336-.063h2.827l-4.37114e-08 8.88178e-16c.552285-2.41411e-08 1 .447715 1 1v2.3l9.52351e-09.000138011c0 .422795-.265896.799904-.66413.941908l-13.3359 4.75795h-2l-8.74228e-08-1.77636e-15c-1.10457-4.82823e-08-2-.895431-2-2 0 0 0 0 0 0v-1.295l-9.5235e-09-.00013786c-6.38403e-08-.422795.265895-.799904.66413-.941908Z"></path></g><path fill="none" d="M0 0h24v24h-24Z"></path></svg>