<?xml version="1.0" encoding="UTF-8"?><svg version="1.1" viewBox="0 0 24 24" xmlns="http://www.w3.org/2000/svg" xmlns:xlink="http://www.w3.org/1999/xlink"><!--Generated by IJSVG (https://github.com/iconjar/IJSVG)--><g stroke-linecap="round" stroke-width="1.5" stroke="#323232" fill="none" stroke-linejoin="round"><path d="M11.999,14.384l2.021,1.054c0.393,0.205 0.853,-0.126 0.778,-0.561l-0.386,-2.233l1.635,-1.581c0.318,-0.308 0.143,-0.845 -0.297,-0.908l-2.259,-0.325l-1.011,-2.033c-0.197,-0.396 -0.766,-0.396 -0.962,0l-1.009,2.033l-2.259,0.326c-0.44,0.063 -0.616,0.6 -0.297,0.908l1.635,1.581l-0.386,2.233c-0.075,0.435 0.385,0.766 0.778,0.561l2.021,-1.054"></path><path d="M10.58,20.912l-7.491,-7.492c-0.785,-0.785 -0.785,-2.057 -4.44089e-16,-2.841l7.491,-7.49c0.785,-0.785 2.057,-0.785 2.842,0l7.491,7.49c0.785,0.785 0.785,2.057 0,2.841l-7.491,7.49c-0.785,0.786 -2.057,0.786 -2.842,0.002Z"></path></g><path fill="none" d="M0,0h24v24h-24Z"></path></svg>