<svg id="Layer_3" data-name="Layer 3" xmlns="http://www.w3.org/2000/svg" viewBox="0 0 24 24"><path d="M0,0H24V24H0Z" fill="none"/><path d="M18.499,7.25V3.75" fill="none" stroke="#323232" stroke-linecap="round" stroke-linejoin="round" stroke-width="1.5"/><path d="M16.75,5.501h3.5" fill="none" stroke="#323232" stroke-linecap="round" stroke-linejoin="round" stroke-width="1.5"/><path d="M11.10318,8.22833a1,1,0,0,1,1.79364,0l.61572,1.24817a1,1,0,0,0,.753.5472l1.3772.20017a1,1,0,0,1,.5544,1.70547l-.99686.97231a1,1,0,0,0-.28737.88494l.23526,1.37138a1,1,0,0,1-1.45084,1.05427l-1.23208-.64755a.99994.99994,0,0,0-.93046,0l-1.23208.64755A1,1,0,0,1,8.85185,15.158l.23526-1.37138a1,1,0,0,0-.28737-.88494l-.99686-.97231a1,1,0,0,1,.5544-1.70547l1.3772-.20017a1,1,0,0,0,.753-.5472Z" fill="none" stroke="#323232" stroke-linecap="round" stroke-linejoin="round" stroke-width="1.5"/><path d="M14,3.23822A8.81046,8.81046,0,0,0,12,3a9,9,0,1,0,9,9,8.81046,8.81046,0,0,0-.23822-2" fill="none" stroke="#323232" stroke-linecap="round" stroke-linejoin="round" stroke-width="1.5"/></svg>