<?xml version="1.0" encoding="UTF-8"?><svg version="1.1" viewBox="0 0 24 24" xmlns="http://www.w3.org/2000/svg" xmlns:xlink="http://www.w3.org/1999/xlink"><g fill="none"><path d="M0 0h24v24h-24Z"></path><line x1="21" x2="14.47" y1="18" y2="18" stroke="#323232" stroke-linecap="round" stroke-linejoin="round" stroke-width="1.5"></line><line x1="21" x2="14.47" y1="15" y2="15" stroke="#323232" stroke-linecap="round" stroke-linejoin="round" stroke-width="1.5"></line><line x1="18.82" x2="14.47" y1="21" y2="21" stroke="#323232" stroke-linecap="round" stroke-linejoin="round" stroke-width="1.5"></line><path stroke="#323232" stroke-linecap="round" stroke-linejoin="round" stroke-width="1.5" d="M10.835 17.073l-3.456 1.8 6.73133e-08-3.55358e-08c-.522593.275885-1.16989.0758896-1.44577-.446703 -.109322-.207082-.147693-.44431-.109228-.675297l.776-4.462 -3.274-3.162 1.0301e-08 9.95154e-09c-.42183-.40752-.433432-1.07984-.0259119-1.50167 .165531-.171344.383867-.282052.619912-.314329l4.517-.651 2.018-4.066 1.77654e-08-3.54565e-08c.266206-.531298.91271-.746198 1.44401-.479992 .207596.104016.375976.272395.479992.479992l2.021 4.066 4.517.65 6.45615e-08 8.88479e-09c.58105.0799627.987262.615819.907299 1.19687 -.0323785.235279-.142687.452915-.313299.618131l-1.845 1.784"></path></g></svg>