<svg xmlns="http://www.w3.org/2000/svg" viewBox="0 0 24 24"><g id="Layer_2" data-name="Layer 2"><path d="M0,24H24V0H0Z" fill="none"/><path d="M20.76929,10A9.02818,9.02818,0,1,1,14,3.23071" fill="none" stroke="#323232" stroke-linecap="round" stroke-linejoin="round" stroke-width="1.5"/><path d="M17.50061,6.5006l2.5-2.5" fill="none" stroke="#323232" stroke-linecap="round" stroke-linejoin="round" stroke-width="1.5"/><path d="M20.00061,6.5006l-2.5-2.5" fill="none" stroke="#323232" stroke-linecap="round" stroke-linejoin="round" stroke-width="1.5"/><path d="M10.99113,7.82727a1.12494,1.12494,0,0,1,2.01774,0l.57239,1.16034a1.125,1.125,0,0,0,.84707.61557l1.2804.1861a1.12495,1.12495,0,0,1,.62368,1.91856l-.92689.90407a1.125,1.125,0,0,0-.32327.99551l.21871,1.27494a1.12495,1.12495,0,0,1-1.63212,1.186l-1.14548-.602a1.12493,1.12493,0,0,0-1.04672,0l-1.14548.602a1.12495,1.12495,0,0,1-1.63212-1.186l.21871-1.27494a1.125,1.125,0,0,0-.32327-.99551l-.92689-.90407a1.12495,1.12495,0,0,1,.62368-1.91856l1.2804-.1861a1.125,1.125,0,0,0,.84707-.61557Z" fill="none" stroke="#323232" stroke-linecap="round" stroke-linejoin="round" stroke-width="1.5"/></g></svg>