<?xml version="1.0" encoding="UTF-8"?><svg version="1.1" viewBox="0 0 24 24" xmlns="http://www.w3.org/2000/svg" xmlns:xlink="http://www.w3.org/1999/xlink"><g stroke-linecap="round" stroke-width="1.5" stroke="#323232" fill="none" stroke-linejoin="round"><path d="M12 16l4.61853e-14 6.03983e-07c-3.33571e-07-2.20914 1.79086-4 4-4l-1.74846e-07-3.55271e-15c-2.20914-9.65645e-08-4-1.79086-4-4 0 0 0-1.77636e-15 0-1.77636e-15v8.88178e-16c0 2.20914-1.79086 4-4 4 0 0-1.77636e-15 0-1.77636e-15 0l-4.76995e-08 7.10543e-15c2.20914-3.59914e-07 4 1.79086 4 4 4.26326e-14 2.61532e-07 6.03961e-14 5.17296e-07 5.15143e-14 7.78829e-07Z"></path><path d="M18.937 8.062l3.55271e-14 4.52987e-07c-2.50178e-07-1.65685 1.34315-3 3-3l-1.31134e-07-3.55271e-15c-1.65685-7.24234e-08-3-1.34315-3-3 0 0 0-8.88178e-16 0-8.88178e-16v0c0 1.65685-1.34315 3-3 3l-3.57746e-08 5.32907e-15c1.65685-2.69936e-07 3 1.34315 3 3 3.19744e-14 1.96149e-07 4.26326e-14 3.87972e-07 3.90799e-14 5.84122e-07Z"></path><path d="M21 11v6 0c0 2.20914-1.79086 4-4 4h-10l-1.74846e-07-3.55271e-15c-2.20914-9.65645e-08-4-1.79086-4-4 0 0 0 0 0 0v-10l4.52971e-14 6.03983e-07c-3.33571e-07-2.20914 1.79086-4 4-4h6"></path></g><rect width="24" height="24" fill="none"></rect></svg>