<?xml version="1.0" encoding="UTF-8"?><svg version="1.1" viewBox="0 0 24 24" xmlns="http://www.w3.org/2000/svg" xmlns:xlink="http://www.w3.org/1999/xlink"><g stroke-linecap="round" stroke-width="1.5" stroke="#323232" fill="none" stroke-linejoin="round"><path d="M11.172 8.189l-5.37572e-08 1.08534e-07c.226499-.457292.78082-.644387 1.23811-.417888 .181287.0897924.328095.2366.417888.417888l.672 1.369 -2.02982e-08-4.11025e-08c.135265.273903.397415.463025.7.505l1.511.22 5.7118e-08 8.3499e-09c.504398.0737364.853518.542407.779781 1.0468 -.0293058.200468-.123756.385725-.268781.527196l-1.093 1.066 6.92011e-08-6.77631e-08c-.216929.212422-.315946.517691-.265.817l.258 1.5 5.35737e-08 3.14495e-07c.0856961.503064-.252648.980349-.755712 1.06604 -.199264.0339442-.404161.00161058-.583289-.0920453l-1.352-.711 1.64413e-08 8.63063e-09c-.26862-.141008-.58938-.141008-.858-1.72613e-08l-1.352.711 3.79117e-08-1.98219e-08c-.452229.236445-1.01051.0615176-1.24695-.390711 -.0936558-.179128-.125989-.384025-.0920451-.583289l.258-1.5 -1.78114e-08 1.04643e-07c.0509458-.299309-.0480706-.604578-.265-.817l-1.095-1.066 -5.72756e-08-5.58717e-08c-.364898-.355954-.37215-.94032-.0161957-1.30522 .141471-.145026.326728-.239476.527196-.268781l1.511-.22 5.28861e-09-7.33639e-10c.302585-.0419748.564735-.231097.7-.505Z"></path><rect width="18" height="18" x="3" y="3" rx="2.7614" ry="0"></rect></g><rect width="24" height="24" fill="none"></rect></svg>