<?xml version="1.0" encoding="UTF-8"?><svg version="1.1" viewBox="0 0 24 24" xmlns="http://www.w3.org/2000/svg" xmlns:xlink="http://www.w3.org/1999/xlink"><g stroke-linecap="round" stroke-width="1.5" stroke="#323232" fill="none" stroke-linejoin="round"><path d="M11.377 17.952l-3.695 1.916 9.04873e-08-4.78749e-08c-.557978.295215-1.24963.0822029-1.54484-.475775 -.116165-.21956-.157644-.470986-.118158-.716225l.825-4.744 -3.495-3.359 -3.68439e-09-3.54055e-09c-.448794-.431273-.462997-1.14471-.0317241-1.5935 .177279-.184481.412053-.30315.665724-.336497l4.83-.692 2.157-4.32 -5.30618e-08 1.0447e-07c.288367-.567749.982386-.794232 1.55013-.505865 .217992.110721.395144.287873.505865.505865l2.162 4.32 4.83.69 8.65507e-08 1.13805e-08c.617113.0811439 1.0516.647193.970458 1.26431 -.0332892.25317-.151566.48753-.335458.664694l-1.972 1.895"></path><path d="M18.592 15.408l-8.21107e-09-8.19282e-09c1.05168 1.04934 1.05357 2.75255.00423215 3.80423 -1.04934 1.05168-2.75255 1.05357-3.80423.00423215 -1.05168-1.04934-1.05357-2.75255-.00423215-3.80423 .00140914-.00141228.00281985-.00282299.00423213-.00423213l-2.16087e-07 2.15766e-07c1.0498-1.04824 2.7502-1.04824 3.8-4.31533e-07"></path><line x1="20.38" x2="18.59" y1="21" y2="19.21"></line></g><path fill="none" d="M0 0h24v24h-24Z"></path></svg>