<svg id="Layer_3" data-name="Layer 3" xmlns="http://www.w3.org/2000/svg" viewBox="0 0 24 24"><path d="M13,21H8a5,5,0,0,1-5-5V8A5,5,0,0,1,8,3h8a5,5,0,0,1,5,5v5A8,8,0,0,1,13,21Z" fill="none" stroke="#323232" stroke-linecap="round" stroke-linejoin="round" stroke-width="1.5"/><path d="M21,8v5a2,2,0,0,1-2,2H17a3,3,0,0,0-3,3v1a2,2,0,0,1-2,2H8" fill="none" stroke="#323232" stroke-linecap="round" stroke-linejoin="round" stroke-width="1.5"/><path d="M11.41845,15.68484l-1.27264.66887a1.25,1.25,0,0,1-1.81356-1.31785l.243-1.41646A1.25,1.25,0,0,0,8.216,12.51321L7.18624,11.50878a1.25,1.25,0,0,1,.693-2.13186l1.42254-.20675a1.25,1.25,0,0,0,.94124-.684L10.879,7.197a1.25,1.25,0,0,1,2.24208,0L13.757,8.48615a1.25,1.25,0,0,0,.94124.684l1.42254.20675a1.25,1.25,0,0,1,.693,2.13186L15.784,12.51321" fill="none" stroke="#323232" stroke-linecap="round" stroke-linejoin="round" stroke-width="1.5"/><path d="M0,0H24V24H0Z" fill="none"/></svg>