<?xml version="1.0" encoding="UTF-8"?><svg version="1.1" viewBox="0 0 24 24" xmlns="http://www.w3.org/2000/svg" xmlns:xlink="http://www.w3.org/1999/xlink"><g fill="none"><path d="M0 0h24v24h-24Z"></path><path stroke="#323232" stroke-linecap="round" stroke-linejoin="round" stroke-width="1.5" d="M15.9916 8.00838c2.20451 2.20451 2.20451 5.77873 0 7.98324 -2.20451 2.20451-5.77873 2.20451-7.98324 0 -2.20451-2.20451-2.20451-5.77873 0-7.98324 2.20451-2.20451 5.77873-2.20451 7.98324 0"></path><path stroke="#323232" stroke-linecap="round" stroke-linejoin="round" stroke-width="1.5" d="M8.613 20.37c-1.805-.726-3.389-2.035-4.438-3.851 -1.027-1.778-1.371-3.758-1.128-5.648"></path><path stroke="#323232" stroke-linecap="round" stroke-linejoin="round" stroke-width="1.5" d="M6.448 4.88c1.531-1.2 3.457-1.918 5.554-1.918 2.053 0 3.94.692 5.455 1.847"></path><path stroke="#323232" stroke-linecap="round" stroke-linejoin="round" stroke-width="1.5" d="M15.391 20.37c1.805-.726 3.389-2.035 4.438-3.851 1.027-1.778 1.371-3.758 1.128-5.648"></path></g></svg>