<svg id="Layer_3" data-name="Layer 3" xmlns="http://www.w3.org/2000/svg" viewBox="0 0 24 24"><rect width="24" height="24" fill="none"/><path d="M13.5,8.06337V6.25A1.25,1.25,0,0,0,12.25,5h-.5A1.25,1.25,0,0,0,10.5,6.25V8" fill="none" stroke="#323232" stroke-linecap="round" stroke-linejoin="round" stroke-width="1.5"/><line x1="12" y1="3" x2="12" y2="5" fill="none" stroke="#323232" stroke-linecap="round" stroke-linejoin="round" stroke-width="1.5"/><line x1="11.15207" y1="5.15207" x2="10" y2="4" fill="none" stroke="#323232" stroke-linecap="round" stroke-linejoin="round" stroke-width="1.5"/><line x1="12.84851" y1="5.15149" x2="14" y2="4" fill="none" stroke="#323232" stroke-linecap="round" stroke-linejoin="round" stroke-width="1.5"/><line x1="22" y1="21" x2="3" y2="21" fill="none" stroke="#323232" stroke-linecap="round" stroke-linejoin="round" stroke-width="1.5"/><path d="M15.01838,14.98919l4.68873-4.68872a1,1,0,0,0,0-1.41421L18.11374,7.29289a1,1,0,0,0-1.40655-.00757L14.81148,9.14027" fill="none" stroke="#323232" stroke-linecap="round" stroke-linejoin="round" stroke-width="1.5"/><path d="M5.5,1.62132H7a0,0,0,0,1,0,0v1.5a1.5,1.5,0,0,1-1.5,1.5h0a1.5,1.5,0,0,1-1.5-1.5v0a1.5,1.5,0,0,1,1.5-1.5Z" transform="translate(-0.59619 4.8033) rotate(-45)" fill="none" stroke="#323232" stroke-linecap="round" stroke-linejoin="round" stroke-width="1.5"/><polyline points="8 21 8 19 15 11.591" fill="none" stroke="#323232" stroke-linecap="round" stroke-linejoin="round" stroke-width="1.5"/><path d="M15,17h2a1,1,0,0,0,1-1V12" fill="none" stroke="#323232" stroke-linecap="round" stroke-linejoin="round" stroke-width="1.5"/><path d="M9,17.94161V12L5,8V5H6L9,8h4a2,2,0,0,1,2,2V21" fill="none" stroke="#323232" stroke-linecap="round" stroke-linejoin="round" stroke-width="1.5"/></svg>