<?xml version="1.0" encoding="UTF-8"?><svg version="1.1" viewBox="0 0 24 24" xmlns="http://www.w3.org/2000/svg" xmlns:xlink="http://www.w3.org/1999/xlink"><g stroke-linecap="round" stroke-width="1.5" stroke="#323232" fill="none" stroke-linejoin="round"><path d="M19.788 7.5l-7.55735e-08-1.30057e-07c.794164 1.36671 1.21233 2.91931 1.212 4.5"></path><path d="M7.5 19.788l-3.81884e-07-2.21222e-07c-1.36418-.790255-2.49774-1.92382-3.288-3.288"></path><path d="M16.5 4.212l2.53087e-07 1.47063e-07c-1.36671-.794164-2.91931-1.21233-4.5-1.212"></path><path d="M12 21l-2.54047e-07 4.84491e-10c3.21212-.00612573 6.17856-1.72017 7.788-4.5"></path><path d="M7.5 4.212l3.64363e-07-2.10956e-07c-2.77983 1.60944-4.49387 4.57588-4.5 7.788"></path><circle cx="12" cy="12" r="5"></circle></g><rect width="24" height="24" fill="none"></rect></svg>