<svg id="Layer_3" data-name="Layer 3" xmlns="http://www.w3.org/2000/svg" viewBox="0 0 24 24"><path d="M5.02319,12.5a6.96771,6.96771,0,0,0,5.20551,6.26581V16.5a4,4,0,0,0-4-4Z" fill="none" stroke="#323232" stroke-linecap="round" stroke-linejoin="round" stroke-width="1.5"/><path d="M5.4646,9.5A6.99319,6.99319,0,0,1,16.94983,7.04858l.00085.00086A6.96588,6.96588,0,0,1,18.5354,9.5Z" fill="none" stroke="#323232" stroke-linecap="round" stroke-linejoin="round" stroke-width="1.5"/><path d="M18.97681,12.5A6.96687,6.96687,0,0,1,13.75,18.771V16.5a4,4,0,0,1,4-4Z" fill="none" stroke="#323232" stroke-linecap="round" stroke-linejoin="round" stroke-width="1.5"/><circle cx="12" cy="12" r="10" fill="none" stroke="#323232" stroke-linecap="round" stroke-linejoin="round" stroke-width="1.5"/><path d="M0,0H24V24H0Z" fill="none"/></svg>