<svg id="Layer_3" data-name="Layer 3" xmlns="http://www.w3.org/2000/svg" viewBox="0 0 24 24"><rect x="3" y="3" width="18" height="18" rx="5" stroke-width="1.5" stroke="#323232" stroke-linecap="round" stroke-linejoin="round" fill="none"/><path d="M9.75005,11.25v1.25625a1.50136,1.50136,0,0,0,.3285.93675l.195.24375a1.49938,1.49938,0,0,0,1.1715.56325h1.11a1.49938,1.49938,0,0,0,1.1715-.56325l.195-.24375a1.50136,1.50136,0,0,0,.3285-.93675V11.25a1.49959,1.49959,0,0,0-1.5-1.5h-1.5A1.49959,1.49959,0,0,0,9.75005,11.25Z" fill="none" stroke="#323232" stroke-linecap="round" stroke-linejoin="round" stroke-width="1.5"/><path d="M14.25005,11.5h3.72818" fill="none" stroke="#323232" stroke-linecap="round" stroke-linejoin="round" stroke-width="1.5"/><line x1="7.75825" y1="16.24264" x2="10.2926" y2="13.71037" fill="none" stroke="#323232" stroke-linecap="round" stroke-linejoin="round" stroke-width="1.5"/><line x1="16.24175" y1="16.24264" x2="13.7074" y2="13.71037" fill="none" stroke="#323232" stroke-linecap="round" stroke-linejoin="round" stroke-width="1.5"/><path d="M6.02177,11.5H9.75005" fill="none" stroke="#323232" stroke-linecap="round" stroke-linejoin="round" stroke-width="1.5"/><circle cx="12" cy="12" r="6" fill="none" stroke="#323232" stroke-linecap="round" stroke-linejoin="round" stroke-width="1.5"/><path d="M0,0H24V24H0Z" fill="none"/></svg>