<svg id="Layer_3" data-name="Layer 3" xmlns="http://www.w3.org/2000/svg" viewBox="0 0 24 24"><path d="M0,0H24V24H0Z" fill="none"/><path d="M13,17H10a3,3,0,0,1-3-3V10a3,3,0,0,1,3-3h4a3,3,0,0,1,3,3v3A4,4,0,0,1,13,17Z" fill="none" stroke="#323232" stroke-linecap="round" stroke-linejoin="round" stroke-width="1.5"/><circle cx="12" cy="12" r="9.5" fill="none" stroke="#323232" stroke-linecap="round" stroke-linejoin="round" stroke-width="1.5"/><path d="M17,10v1.25a1.25,1.25,0,0,1-1.25,1.25h-1a2.25,2.25,0,0,0-2.25,2.25v1A1.25,1.25,0,0,1,11.25,17h-.91667" fill="none" stroke="#323232" stroke-linecap="round" stroke-linejoin="round" stroke-width="1.5"/></svg>