<?xml version="1.0" encoding="UTF-8"?><svg version="1.1" viewBox="0 0 24 24" xmlns="http://www.w3.org/2000/svg" xmlns:xlink="http://www.w3.org/1999/xlink"><g fill="none"><path d="M0 0h24v24h-24Z"></path><line x1="19.5" x2="19.5" y1="6" y2="3" stroke="#323232" stroke-linecap="round" stroke-linejoin="round" stroke-width="1.5"></line><line x1="18" x2="21" y1="4.5" y2="4.5" stroke="#323232" stroke-linecap="round" stroke-linejoin="round" stroke-width="1.5"></line><path stroke="#323232" stroke-linecap="round" stroke-linejoin="round" stroke-width="1.5" d="M8.5 9v1"></path><path stroke="#323232" stroke-linecap="round" stroke-linejoin="round" stroke-width="1.5" d="M15.5 9v1"></path><path stroke="#323232" stroke-linecap="round" stroke-linejoin="round" stroke-width="1.5" d="M15.5 14.688l-1.59414e-07 1.39075e-07c-2.00539 1.74953-4.99461 1.74953-7-2.7815e-07"></path><path stroke="#323232" stroke-linecap="round" stroke-linejoin="round" stroke-width="1.5" d="M20.582 9.353l1.52846e-07 4.79138e-07c.273053.855961.414006 1.74855.418 2.647v0c0 4.97056-4.02944 9-9 9 -4.97056 0-9-4.02944-9-9 0-4.97056 4.02944-9 9-9l1.268e-07 5.63633e-10c.898449.00399366 1.79104.144946 2.647.418"></path></g></svg>