<svg id="Layer_3" data-name="Layer 3" xmlns="http://www.w3.org/2000/svg" viewBox="0 0 24 24"><path d="M0,0H24V24H0Z" fill="none"/><path d="M13,17H10a3,3,0,0,1-3-3V10a3,3,0,0,1,3-3h4a3,3,0,0,1,3,3v3A4,4,0,0,1,13,17Z" fill="none" stroke="#323232" stroke-linecap="round" stroke-linejoin="round" stroke-width="1.5"/><rect x="3" y="3" width="18" height="18" rx="5" stroke-width="1.5" stroke="#323232" stroke-linecap="round" stroke-linejoin="round" fill="none"/><path d="M17,10.33333v1.22223a1,1,0,0,1-1,1H14.77778a2.22221,2.22221,0,0,0-2.22222,2.22222V16a1,1,0,0,1-1,1H10.33333" fill="none" stroke="#323232" stroke-linecap="round" stroke-linejoin="round" stroke-width="1.5"/></svg>