<?xml version="1.0" encoding="UTF-8"?><svg version="1.1" viewBox="0 0 24 24" xmlns="http://www.w3.org/2000/svg" xmlns:xlink="http://www.w3.org/1999/xlink"><!--Generated by IJSVG (https://github.com/iconjar/IJSVG)--><g stroke-linecap="round" stroke-width="1.5" stroke="#323232" fill="none" stroke-linejoin="round"><path d="M20.683,8.367l-2.13,-4.261c-0.339,-0.678 -1.032,-1.106 -1.789,-1.106h-9.528c-0.758,0 -1.45,0.428 -1.789,1.106l-2.13,4.261c-0.209,0.416 -0.317,0.875 -0.317,1.341v9.292c0,1.105 0.895,2 2,2h14c1.105,0 2,-0.895 2,-2v-9.292c0,-0.466 -0.108,-0.925 -0.317,-1.341Z"></path><path d="M13.4142,7.58579c0.781049,0.781049 0.781049,2.04738 0,2.82843c-0.781049,0.781049 -2.04738,0.781049 -2.82843,0c-0.781049,-0.781049 -0.781049,-2.04738 0,-2.82843c0.781049,-0.781049 2.04738,-0.781049 2.82843,-8.88178e-16"></path><path d="M7,16h10"></path></g><path fill="none" d="M0,0h24v24h-24v-24Z"></path></svg>