<svg id="Layer_3" data-name="Layer 3" xmlns="http://www.w3.org/2000/svg" viewBox="0 0 24 24"><path d="M24,24H0V0H24Z" fill="none"/><path d="M12.78968,6.00141a5.49816,5.49816,0,1,0-6.78827,6.78827" fill="none" stroke="#323232" stroke-linecap="round" stroke-linejoin="round" stroke-width="1.5"/><line x1="16.0009" y1="21" x2="16.0009" y2="18.68674" fill="none" stroke="#323232" stroke-linecap="round" stroke-linejoin="round" stroke-width="1.5"/><path d="M20.99624,21V14.7359" fill="none" stroke="#323232" stroke-linecap="round" stroke-linejoin="round" stroke-width="1.5"/><polyline points="7.134 5.079 7.134 7.869 9.45 7.869" fill="none" stroke="#323232" stroke-linecap="round" stroke-linejoin="round" stroke-width="1.5"/><path d="M10.0018,21H22" fill="none" stroke="#323232" stroke-linecap="round" stroke-linejoin="round" stroke-width="1.5"/><path d="M12.54638,10c1.84284.00011,4.7919.00019,6.90652.00021a1.97915,1.97915,0,0,1,1.768,1.09036l.55,1.08878a1.83788,1.83788,0,0,1,.17631,1.30106,1.97151,1.97151,0,0,1-3.79815.14449.14522.14522,0,0,0-.27254,0,1.96805,1.96805,0,0,1-3.753-.00033.14523.14523,0,0,0-.27255,0A1.97151,1.97151,0,0,1,10.0528,13.48a1.83789,1.83789,0,0,1,.17631-1.30106l.5501-1.089A1.978,1.978,0,0,1,12.54638,10Z" fill="none" stroke="#323232" stroke-linecap="round" stroke-linejoin="round" stroke-width="1.5"/><line x1="11" y1="21" x2="11" y2="14.7359" fill="none" stroke="#323232" stroke-linecap="round" stroke-linejoin="round" stroke-width="1.5"/></svg>