<svg viewBox="0 0 24 24" xmlns="http://www.w3.org/2000/svg"><g stroke-linecap="round" stroke-width="1.5" stroke="#323232" fill="none" stroke-linejoin="round"><path d="M7.5 3.5L9 5 7.5 6.5"/><path d="M9 5H7l0 0c-1.66-.01-3 1.34-3 2.99 0 0-.001 0-.001 0v0"/><path d="M17.5 20.49l-1.5-1.5 1.5-1.5"/><path d="M16 18.99h2l-.01-.001c1.65 0 2.99-1.35 3-3 0-.01 0-.01 0-.01v-.01"/><path d="M4 16.14v4.85"/><path d="M12 21v-4.86"/><path d="M8 21l0-2"/><path d="M3.52 21h8.96"/><path d="M4.516 16.24v0l0 0c-.84-.01-1.52-.69-1.52-1.52 0-.24.05-.48.16-.69l.65-1.31 -.01 0c.22-.46.69-.74 1.2-.74h5.95l0-.001c.5-.01.97.28 1.2.73l.65 1.3 -.01-.01c.37.74.07 1.66-.67 2.03 -.22.1-.45.16-.69.16l-.01 0c-.75 0-1.42-.48-1.66-1.19l-.01-.01c-.03-.06-.09-.08-.14-.06 -.03.01-.05.02-.06.05l0-.01c-.31.91-1.3 1.4-2.22 1.09 -.52-.18-.92-.58-1.1-1.1l-.01-.01c-.03-.06-.09-.08-.14-.06 -.03.01-.05.02-.06.05l0-.01c-.25.7-.91 1.18-1.66 1.18"/><path d="M17.5 2a4.5 4.5 0 1 0 0 9 4.5 4.5 0 1 0 0-9Z"/><path d="M17.199 4.518l0 2.28 1.89 0"/></g><path fill="none" d="M0 0h24v24H0Z"/></svg>