<svg id="Layer_3" data-name="Layer 3" xmlns="http://www.w3.org/2000/svg" viewBox="0 0 24 24"><path d="M11,13H8v3h2" fill="none" stroke="#323232" stroke-linecap="round" stroke-linejoin="round" stroke-width="1.5"/><path d="M3,20.0001,10,20" fill="none" stroke="#323232" stroke-linecap="round" stroke-linejoin="round" stroke-width="1.5"/><path d="M4.22,20V9.98706" fill="none" stroke="#323232" stroke-linecap="round" stroke-linejoin="round" stroke-width="1.5"/><path d="M21.72427,6.47765A2.33862,2.33862,0,0,1,21.887,8.28433a2.4607,2.4607,0,0,1-4.7201-.10092.14405.14405,0,0,0-.27625,0A2.46262,2.46262,0,0,1,12.1381,8.1829a.144.144,0,0,0-.27621,0,2.46264,2.46264,0,0,1-4.75263-.00017.14407.14407,0,0,0-.27626,0,2.46068,2.46068,0,0,1-4.71992.10108,2.3386,2.3386,0,0,1,.16272-1.807L3.98252,3.09822A2,2,0,0,1,5.76768,2H18.232a2,2,0,0,1,1.78515,1.09822Z" fill="none" stroke="#323232" stroke-linecap="round" stroke-linejoin="round" stroke-width="1.5"/><path d="M18.5,16.45a.05.05,0,1,0,.05.05.05.05,0,0,0-.05-.05h0" fill="none" stroke="#323232" stroke-linecap="round" stroke-linejoin="round" stroke-width="1.5"/><path d="M15.1976,17.615l-1.90543,1.90931A1,1,0,0,0,13,20.23065V21a1,1,0,0,0,1,1h.77115a1,1,0,0,0,.70783-.29362l1.9024-1.9063" fill="none" stroke="#323232" stroke-linecap="round" stroke-linejoin="round" stroke-width="1.5"/><path d="M15.19849,17.61584A3.464,3.464,0,0,1,15,16.5,3.5,3.5,0,1,1,18.5,20a3.46477,3.46477,0,0,1-1.11786-.19916" fill="none" stroke="#323232" stroke-linecap="round" stroke-linejoin="round" stroke-width="1.5"/><path d="M0,0H24V24H0Z" fill="none"/></svg>