<svg id="Layer_3" data-name="Layer 3" xmlns="http://www.w3.org/2000/svg" viewBox="0 0 24 24"><path d="M3,20h9" fill="none" stroke="#323232" stroke-linecap="round" stroke-linejoin="round" stroke-width="1.5"/><path d="M4,20l.0001-10.01254" fill="none" stroke="#323232" stroke-linecap="round" stroke-linejoin="round" stroke-width="1.5"/><path d="M21.72427,6.47765A2.33862,2.33862,0,0,1,21.887,8.28433a2.4607,2.4607,0,0,1-4.7201-.10092.14405.14405,0,0,0-.27625,0A2.46262,2.46262,0,0,1,12.1381,8.1829a.144.144,0,0,0-.27621,0,2.46264,2.46264,0,0,1-4.75263-.00017.14407.14407,0,0,0-.27626,0,2.46068,2.46068,0,0,1-4.71992.10108,2.3386,2.3386,0,0,1,.16272-1.807L3.98252,3.09822A2,2,0,0,1,5.76768,2H18.232a2,2,0,0,1,1.78515,1.09822Z" fill="none" stroke="#323232" stroke-linecap="round" stroke-linejoin="round" stroke-width="1.5"/><path d="M15,16.5c0,1.63851,1.788,3.38881,2.808,4.25435a1.09611,1.09611,0,0,0,1.383,0C20.212,19.88882,22,18.13852,22,16.5" fill="none" stroke="#323232" stroke-linecap="round" stroke-linejoin="round" stroke-width="1.5"/><path d="M18.50019,16.45a.05.05,0,1,1-.05019.05.04974.04974,0,0,1,.05019-.05" fill="none" stroke="#323232" stroke-linecap="round" stroke-linejoin="round" stroke-width="1.5"/><path d="M15,16.5h0A3.5,3.5,0,0,1,18.5,13h0A3.5,3.5,0,0,1,22,16.5h0" fill="none" stroke="#323232" stroke-linecap="round" stroke-linejoin="round" stroke-width="1.5"/><path d="M11,13H8v3h2" fill="none" stroke="#323232" stroke-linecap="round" stroke-linejoin="round" stroke-width="1.5"/><rect width="24" height="24" fill="none"/></svg>