<svg id="Layer_3" data-name="Layer 3" xmlns="http://www.w3.org/2000/svg" viewBox="0 0 24 24"><path d="M24,24H0V0H24Z" fill="none"/><path d="M16,11.86075V15.4A1.6,1.6,0,0,1,14.4,17H9.6A1.6,1.6,0,0,1,8,15.4V11.86075" fill="none" stroke="#323232" stroke-linecap="round" stroke-linejoin="round" stroke-width="1.5"/><circle cx="12" cy="12" r="9.5" fill="none" stroke="#323232" stroke-linecap="round" stroke-linejoin="round" stroke-width="1.5"/><path d="M8.66667,12h0A1.66667,1.66667,0,0,1,7,10.33333V9.288a1.5,1.5,0,0,1,.43934-1.06066l.788-.788A1.5,1.5,0,0,1,9.288,7h5.424a1.5,1.5,0,0,1,1.06066.43934l.788.788A1.5,1.5,0,0,1,17,9.288v1.04534A1.66666,1.66666,0,0,1,15.33334,12h0" fill="none" stroke="#323232" stroke-linecap="round" stroke-linejoin="round" stroke-width="1.5"/><path d="M15.33333,12a1.66666,1.66666,0,0,1-1.66666-1.66666" fill="none" stroke="#323232" stroke-linecap="round" stroke-linejoin="round" stroke-width="1.5"/><path d="M10.33333,10.33334A1.66666,1.66666,0,0,1,8.66667,12" fill="none" stroke="#323232" stroke-linecap="round" stroke-linejoin="round" stroke-width="1.5"/><path d="M13.66667,10.33334A1.66666,1.66666,0,0,1,12,12h0a1.66666,1.66666,0,0,1-1.66667-1.66666" fill="none" stroke="#323232" stroke-linecap="round" stroke-linejoin="round" stroke-width="1.5"/></svg>