<svg viewBox="0 0 24 24" xmlns="http://www.w3.org/2000/svg"><g fill="none"><path d="M0 0h24v24H0Z"/><g stroke-linecap="round" stroke-width="1.5" stroke="#323232" fill="none" stroke-linejoin="round"><path d="M14 19.91h7"/><path d="M19.78 9.78v10.13"/><path d="M13 13h3v3h-2"/><path d="M14.58 9.78l-.01-.001c-1.43-.01-2.59-1.16-2.59-2.59 0 0 0-.001 0-.001v-.01c0 1.42-1.16 2.58-2.59 2.58s-2.59-1.16-2.59-2.59l0-.01c-.01 1.42-1.16 2.57-2.59 2.57v0l-.01 0c-1.25 0-2.26-1.01-2.26-2.26 -.01-.36.08-.71.24-1.02l1.73-3.42 -.01 0c.34-.68 1.03-1.1 1.78-1.1h12.47l0 0c.75 0 1.44.42 1.78 1.09l1.73 3.41 0 0c.56 1.1.12 2.46-.99 3.02 -.32.16-.67.24-1.02.24v0 0 0l0-.001c-1.43 0-2.59-1.16-2.59-2.59 -.001-.01 0-.01 0-.01l0-.01c-.01 1.42-1.16 2.57-2.59 2.57"/><path d="M6.5 13a4.5 4.5 0 1 0 0 9 4.5 4.5 0 1 0 0-9Z"/><path d="M6.199 15.51l0 2.28 1.89 0"/></g></g></svg>