<?xml version="1.0" encoding="UTF-8"?><svg version="1.1" viewBox="0 0 24 24" xmlns="http://www.w3.org/2000/svg" xmlns:xlink="http://www.w3.org/1999/xlink"><g fill="none"><path d="M0 0h24v24h-24Z"></path><path stroke="#323232" stroke-linecap="round" stroke-linejoin="round" stroke-width="1.5" d="M16 3h3.286l-7.49213e-08 1.33227e-15c.946616-4.13779e-08 1.714.767384 1.714 1.714v3.286"></path><path stroke="#323232" stroke-linecap="round" stroke-linejoin="round" stroke-width="1.5" d="M8 21h-3.286 -7.49213e-08c-.946616-4.13779e-08-1.714-.767384-1.714-1.714 0 0 0-3.55271e-15 0-3.55271e-15v-3.286"></path><path stroke="#323232" stroke-linecap="round" stroke-linejoin="round" stroke-width="1.5" d="M18.694 12.605l3.046 5.413 -2.3315e-08-4.13668e-08c.542344.962256.201939 2.18198-.760317 2.72432 -.299037.168542-.63642.257282-.979683.25768h-6.095l7.21298e-08-4.24194e-12c-1.10457 6.49991e-05-2.00005-.895313-2.00012-1.99988 -2.02252e-05-.343699.0885331-.681604.257118-.981118l3.046-5.414 1.10284e-07-1.9599e-07c.541676-.962632 1.76116-1.30388 2.72379-.762209 .319039.179524.582685.44317.762209.762209Z"></path><path stroke="#323232" stroke-linecap="round" stroke-linejoin="round" stroke-width="1.5" d="M16.951 16.42v-1.835"></path><path stroke="#323232" stroke-linecap="round" stroke-linejoin="round" stroke-width="1.5" d="M16.95 18.445l-2.12589e-09-1.3145e-13c-.0497056-3.06717e-06-.0900025.0402888-.0900056.0899944 -2.06837e-08.000335193 1.83121e-06.000670384 5.55558e-06.00100556l-1.65887e-10-5.48093e-06c7.58873e-09.0502579.0407421.091.091.091 .0502579-7.58873e-09.091-.0407421.091-.091 -7.58873e-09-.0502579-.0407421-.091-.091-.091 -.000331509 5.00542e-11-.000663016 1.81161e-06-.000994505 5.4346e-06"></path><path stroke="#323232" stroke-linecap="round" stroke-linejoin="round" stroke-width="1.5" d="M3.6 6.148v4.852"></path><path stroke="#323232" stroke-linecap="round" stroke-linejoin="round" stroke-width="1.5" d="M11.516 8v-1.852"></path><path stroke="#323232" stroke-linecap="round" stroke-linejoin="round" stroke-width="1.5" d="M5.8 5h.057l7.71136e-08 2.85197e-07c.205464.759887.913942 1.27291 1.7 1.231l8.49313e-08 4.32653e-09c.784596.0399685 1.49085-.472646 1.696-1.231h.057l-1.24705e-08-4.7337e-08c.201023.763069.912268 1.27851 1.7 1.232l-6.9161e-08-2.46158e-09c.816864.0290738 1.50263-.609556 1.53171-1.42642 .00843195-.236906-.0401668-.472371-.141706-.686579l-.659-1.3 -2.47504e-08-4.85748e-08c-.256813-.504017-.77533-.820695-1.341-.819h-5.7l-1.28397e-08-4.11049e-12c-.565033-.000180897-1.08223.317171-1.338.821l-.658 1.3 -3.05589e-08 6.46339e-08c-.34914.738452-.0335403 1.62012.704912 1.96926 .215643.101956.452747.150242.691089.140741l5.00359e-08 2.91278e-09c.787208.0458264 1.4979-.468798 1.7-1.231Z"></path><path stroke="#323232" stroke-linecap="round" stroke-linejoin="round" stroke-width="1.5" d="M11.516 11v-4.852"></path><line x1="7.56" x2="7.56" y1="11" y2="9" stroke="#323232" stroke-linecap="round" stroke-linejoin="round" stroke-width="1.5"></line><path stroke="#323232" stroke-linecap="round" stroke-linejoin="round" stroke-width="1.5" d="M3 11h9.112"></path></g></svg>