<svg id="Layer_3" data-name="Layer 3" xmlns="http://www.w3.org/2000/svg" viewBox="0 0 24 24"><path d="M24,0H0V24H24Z" fill="none"/><path d="M4,14v4.16667a1.75,1.75,0,0,0,1.75,1.75H9.91667L12,22l2.08333-2.08333H18.25a1.75,1.75,0,0,0,1.75-1.75V14" fill="none" stroke="#323232" stroke-linecap="round" stroke-linejoin="round" stroke-width="1.5"/><line x1="8.5" y1="15.75" x2="15.5" y2="15.75" fill="none" stroke="#323232" stroke-linecap="round" stroke-linejoin="round" stroke-width="1.5"/><path d="M21.72427,7.47765A2.33862,2.33862,0,0,1,21.887,9.28433a2.4607,2.4607,0,0,1-4.7201-.10092.14405.14405,0,0,0-.27625,0A2.46262,2.46262,0,0,1,12.1381,9.1829a.144.144,0,0,0-.27621,0,2.46264,2.46264,0,0,1-4.75263-.00017.14407.14407,0,0,0-.27626,0,2.46068,2.46068,0,0,1-4.71992.10108,2.3386,2.3386,0,0,1,.16272-1.807L3.98252,4.09822A2,2,0,0,1,5.76768,3H18.232a2,2,0,0,1,1.78515,1.09822Z" fill="none" stroke="#323232" stroke-linecap="round" stroke-linejoin="round" stroke-width="1.5"/></svg>