<svg id="Layer_3" data-name="Layer 3" xmlns="http://www.w3.org/2000/svg" viewBox="0 0 24 24"><path d="M0,0H24V24H0Z" fill="none"/><path d="M13,13h3v3H14" fill="none" stroke="#323232" stroke-linecap="round" stroke-linejoin="round" stroke-width="1.5"/><path d="M6.77389,15.15748,7,15.38707l.22614-.22962a2.18706,2.18706,0,0,1,3.12635,0h0a2.2692,2.2692,0,0,1,0,3.17449L8.23743,20.47955a1.73131,1.73131,0,0,1-2.47486,0L3.64751,18.332a2.2692,2.2692,0,0,1,0-3.17451h0A2.18708,2.18708,0,0,1,6.77389,15.15748Z" fill="none" stroke="#323232" stroke-linecap="round" stroke-linejoin="round" stroke-width="1.5"/><path d="M21,20.0001,14,20" fill="none" stroke="#323232" stroke-linecap="round" stroke-linejoin="round" stroke-width="1.5"/><path d="M19.78,20V9.98706" fill="none" stroke="#323232" stroke-linecap="round" stroke-linejoin="round" stroke-width="1.5"/><path d="M2.27578,6.47765A2.33858,2.33858,0,0,0,2.113,8.28433a2.4607,2.4607,0,0,0,4.7201-.10092.14405.14405,0,0,1,.27625,0,2.46262,2.46262,0,0,0,4.75259-.00051.144.144,0,0,1,.27621,0,2.46264,2.46264,0,0,0,4.75263-.00017.14407.14407,0,0,1,.27626,0,2.46068,2.46068,0,0,0,4.71992.10108,2.3386,2.3386,0,0,0-.16272-1.807L20.01752,3.09822A2,2,0,0,0,18.23236,2H5.76809A2,2,0,0,0,3.98293,3.09822Z" fill="none" stroke="#323232" stroke-linecap="round" stroke-linejoin="round" stroke-width="1.5"/></svg>