<svg id="Layer_3" data-name="Layer 3" xmlns="http://www.w3.org/2000/svg" viewBox="0 0 24 24"><path d="M24,24H0V0H24Z" fill="none"/><path d="M17,12.29212V15.5a2,2,0,0,1-2,2H9a2,2,0,0,1-2-2V12.29212" fill="none" stroke="#323232" stroke-linecap="round" stroke-linejoin="round" stroke-width="1.5"/><path d="M16.5,2.5h-9a5,5,0,0,0-5,5v9a5,5,0,0,0,5,5h9a5,5,0,0,0,5-5v-9A5,5,0,0,0,16.5,2.5Z" fill="none" stroke="#323232" stroke-linecap="round" stroke-linejoin="round" stroke-width="1.5"/><path d="M8,12.5H8a2,2,0,0,1-2-2V9.32844a2,2,0,0,1,.58579-1.41422l.82842-.82842A2,2,0,0,1,8.82843,6.5h6.34314a2,2,0,0,1,1.41422.58579l.82842.82842A2,2,0,0,1,18,9.32844V10.5a2,2,0,0,1-2,2h0" fill="none" stroke="#323232" stroke-linecap="round" stroke-linejoin="round" stroke-width="1.5"/><path d="M16,12.5a2,2,0,0,1-2-2" fill="none" stroke="#323232" stroke-linecap="round" stroke-linejoin="round" stroke-width="1.5"/><path d="M10,10.5a2,2,0,0,1-2,2" fill="none" stroke="#323232" stroke-linecap="round" stroke-linejoin="round" stroke-width="1.5"/><path d="M14,10.5a2,2,0,0,1-2,2h0a2,2,0,0,1-2-2" fill="none" stroke="#323232" stroke-linecap="round" stroke-linejoin="round" stroke-width="1.5"/></svg>