<?xml version="1.0" encoding="UTF-8"?><svg version="1.1" viewBox="0 0 24 24" xmlns="http://www.w3.org/2000/svg" xmlns:xlink="http://www.w3.org/1999/xlink"><g fill="none"><path d="M0 0h24v24h-24v-24Z"></path><path stroke="#323232" stroke-linecap="round" stroke-linejoin="round" stroke-width="1.5" d="M6.5 22v0c-2.209 0-4-1.791-4-4v0c0-2.209 1.791-4 4-4v0c2.209 0 4 1.791 4 4v0c0 2.209-1.791 4-4 4Z"></path><path stroke="#323232" stroke-linecap="round" stroke-linejoin="round" stroke-width="1.5" d="M17.5 11v0c-2.209 0-4-1.791-4-4v0c0-2.209 1.791-4 4-4v0c2.209 0 4 1.791 4 4v0c0 2.209-1.791 4-4 4Z"></path><path stroke="#323232" stroke-width="1.5" d="M21.5 18c0-2.208-1.789-3.998-3.997-4 -2.164-.002-4.004 1.837-4.003 4 0 2.209 1.791 4 4 4 2.21 0 4-1.791 4-4Z"></path><path stroke="#323232" stroke-linecap="round" stroke-linejoin="round" stroke-width="1.5" d="M17.5 19.598v-3.196"></path><path stroke="#323232" stroke-linecap="round" stroke-linejoin="round" stroke-width="1.5" d="M15.902 18h3.196"></path><path stroke="#323232" stroke-width="1.5" d="M6.5 11c-2.209 0-4-1.791-4-4 0-2.164 1.84-4.002 4.003-4 2.208.002 3.997 1.792 3.997 4 0 2.209-1.79 4-4 4"></path></g></svg>