<?xml version="1.0" encoding="UTF-8"?><svg version="1.1" viewBox="0 0 24 24" xmlns="http://www.w3.org/2000/svg" xmlns:xlink="http://www.w3.org/1999/xlink"><g fill="none"><path d="M0 0h24v24h-24Z"></path><path stroke="#323232" stroke-linecap="round" stroke-linejoin="round" stroke-width="1.5" d="M17 3.767c-3.017-2.021-6.983-2.021-10 0"></path><path stroke="#323232" stroke-linecap="round" stroke-linejoin="round" stroke-width="1.5" d="M15.98 19.32c3.258-1.602 5.241-5.037 5-8.66"></path><path stroke="#323232" stroke-linecap="round" stroke-linejoin="round" stroke-width="1.5" d="M8.02 19.32c-3.258-1.602-5.241-5.037-5-8.66"></path><path stroke="#323232" stroke-linecap="round" stroke-linejoin="round" stroke-width="1.5" d="M20.8547 5.68834c.585786.585786.585786 1.53553 0 2.12132 -.585786.585786-1.53553.585786-2.12132 0 -.585786-.585786-.585786-1.53553 0-2.12132 .585786-.585786 1.53553-.585786 2.12132 0"></path><path stroke="#323232" stroke-linecap="round" stroke-linejoin="round" stroke-width="1.5" d="M5.27266 5.68834c.585786.585786.585786 1.53553 0 2.12132 -.585786.585786-1.53553.585786-2.12132 0 -.585786-.585786-.585786-1.53553-4.44089e-16-2.12132 .585786-.585786 1.53553-.585786 2.12132 0"></path><path stroke="#323232" stroke-linecap="round" stroke-linejoin="round" stroke-width="1.5" d="M13.0637 19.1883c.585786.585786.585786 1.53553 0 2.12132 -.585786.585786-1.53553.585786-2.12132 0 -.585786-.585786-.585786-1.53553 0-2.12132 .585786-.585786 1.53553-.585786 2.12132 0"></path><path stroke="#323232" stroke-linecap="round" stroke-linejoin="round" stroke-width="1.5" d="M14.475 8.774c1.367 1.367 1.367 3.583 0 4.95 -1.367 1.367-3.583 1.367-4.95 0 -1.367-1.367-1.367-3.583 0-4.95 1.367-1.367 3.583-1.367 4.95-1.77636e-15"></path></g></svg>