<?xml version="1.0" encoding="UTF-8"?><svg version="1.1" viewBox="0 0 24 24" xmlns="http://www.w3.org/2000/svg" xmlns:xlink="http://www.w3.org/1999/xlink"><g stroke-linecap="round" stroke-width="1.5" stroke="#323232" fill="none" stroke-linejoin="round"><path d="M7.268 3.732c.976.976.976 2.559 0 3.536 -.976.977-2.559.976-3.536 0 -.976-.976-.976-2.559 0-3.536 .977-.976 2.559-.976 3.536-4.44089e-16"></path><path d="M20.268 16.732c.976.976.976 2.559 0 3.536 -.976.977-2.559.976-3.536 0 -.977-.976-.976-2.559 0-3.536 .976-.977 2.559-.976 3.536 0"></path><path d="M7.268 16.732c.976.976.976 2.559 0 3.536 -.976.977-2.559.976-3.536 0 -.976-.976-.976-2.559 0-3.536 .976-.977 2.559-.976 3.536 0"></path><path d="M20.268 3.732c.976.976.976 2.559 0 3.536 -.976.977-2.559.976-3.536 0 -.977-.976-.976-2.559 0-3.536 .977-.976 2.559-.976 3.536-4.44089e-16"></path><path d="M11 18.92c.327.047.66.08 1 .08 .34 0 .673-.033 1-.08"></path><path d="M11 5.08c.327-.047.66-.08 1-.08 .34 0 .673.033 1 .08"></path><path d="M18.92 13c.047-.327.08-.66.08-1 0-.34-.033-.673-.08-1"></path><path d="M5.08 13c-.047-.327-.08-.66-.08-1 0-.34.033-.673.08-1"></path></g><path fill="none" d="M0 0h24v24h-24v-24Z"></path></svg>