<?xml version="1.0" encoding="UTF-8"?><svg version="1.1" viewBox="0 0 24 24" xmlns="http://www.w3.org/2000/svg" xmlns:xlink="http://www.w3.org/1999/xlink"><g stroke-linecap="round" stroke-width="1.5" stroke="#323232" fill="none" stroke-linejoin="round"><path d="M8.5 11.5c0-1.933 1.567-3.5 3.5-3.5 1.933 0 3.5 1.567 3.5 3.5"></path><line x1="19" x2="21" y1="11" y2="11"></line><line x1="3" x2="5" y1="11" y2="11"></line><line x1="12" x2="12" y1="4" y2="2"></line><line x1="16.95" x2="18.36" y1="6.05" y2="4.64"></line><line x1="5.64" x2="7.05" y1="4.64" y2="6.05"></line><line x1="3" x2="13" y1="15" y2="15"></line><line x1="17" x2="21" y1="15" y2="15"></line><line x1="20" x2="11" y1="18" y2="18"></line><line x1="4" x2="7" y1="18" y2="18"></line><line x1="6" x2="18" y1="21" y2="21"></line></g><path fill="none" d="M0 0h24v24h-24v-24Z"></path></svg>