<?xml version="1.0" encoding="UTF-8"?><svg version="1.1" viewBox="0 0 24 24" xmlns="http://www.w3.org/2000/svg" xmlns:xlink="http://www.w3.org/1999/xlink"><!--Generated by IJSVG (https://github.com/iconjar/IJSVG)--><g stroke-linecap="round" stroke-width="1.5" stroke="#323232" fill="none" stroke-linejoin="round"><path d="M12,5v-2"></path><path d="M2,13h2"></path><path d="M4.89,5.89l1.11,1.11"></path><path d="M19.11,5.89l-1.11,1.11"></path><path d="M22,12.88h-2"></path><path d="M3,17.382v0c1.146,-0.509 2.454,-0.509 3.6,0v0c1.146,0.509 2.454,0.509 3.6,0v0c1.146,-0.509 2.454,-0.509 3.6,0v0c1.146,0.509 2.454,0.509 3.6,0v0c1.146,-0.509 2.454,-0.509 3.6,0v0"></path><path d="M6.6,20.618v0c1.146,0.509 2.454,0.509 3.6,0v0c1.146,-0.509 2.454,-0.509 3.6,0v0c1.146,0.509 2.454,0.509 3.6,0v0"></path><path d="M7,13c0,-2.761 2.239,-5 5,-5c2.761,0 5,2.239 5,5"></path></g><path fill="none" d="M0,0h24v24h-24Z"></path></svg>