<?xml version="1.0" encoding="UTF-8"?><svg version="1.1" viewBox="0 0 24 24" xmlns="http://www.w3.org/2000/svg" xmlns:xlink="http://www.w3.org/1999/xlink"><!--Generated by IJSVG (https://github.com/iconjar/IJSVG)--><g stroke-linecap="round" stroke-width="1.5" stroke="#323232" fill="none" stroke-linejoin="round"><path d="M7.633,10.726c0,-0.814 0.66,-1.474 1.474,-1.474c0.814,0 1.474,0.66 1.474,1.474c0,1.842 -2.948,1.842 -2.948,4.024h2.948"></path><path d="M15.532,14.75c0,0 0,-0.874 0,-1.255h0.835h-0.835h-2.364c-0.424,0 -0.691,-0.456 -0.478,-0.823c0.591,-1.017 1.275,-2.168 1.902,-3.182c0.269,-0.436 0.94,-0.24 0.94,0.272v3.733"></path><path d="M20.424,4.803v2.893h-2.893h2.893"></path><path d="M19.905,7.696c-1.526,-2.797 -4.493,-4.696 -7.905,-4.696c-4.971,0 -9,4.03 -9,9c0,4.97 4.029,9 9,9c4.971,0 9,-4.03 9,-9"></path></g><path fill="none" d="M0,0h24v24h-24v-24Z"></path></svg>