<svg id="Layer_3" data-name="Layer 3" xmlns="http://www.w3.org/2000/svg" viewBox="0 0 24 24"><path d="M17.98737,12.00021l.00015,7.5428a1.97448,1.97448,0,0,1-1.45373,1.92641,19.74276,19.74276,0,0,1-9.09257,0A1.97448,1.97448,0,0,1,5.98748,19.543l.00015-7.54279" fill="none" stroke="#323232" stroke-linecap="round" stroke-linejoin="round" stroke-width="1.5"/><path d="M15.5,3.05582h0A2.94417,2.94417,0,0,1,12.55583,6H11.44417A2.94417,2.94417,0,0,1,8.5,3.05583h0" fill="none" stroke="#323232" stroke-linecap="round" stroke-linejoin="round" stroke-width="1.5"/><path d="M17.98752,19h2.06137a1,1,0,0,0,.98223-.81233l.89782-4.69913a4.00005,4.00005,0,0,0-.06109-1.77037l-1.303-4.94231a3.96973,3.96973,0,0,0-2.148-2.57977l-1.53738-.72362A4.96219,4.96219,0,0,0,14.76626,3H9.23374a4.96219,4.96219,0,0,0-2.11323.47247l-1.53738.72362a3.96973,3.96973,0,0,0-2.148,2.57977l-1.303,4.94239A3.9998,3.9998,0,0,0,2.071,13.48853l.89784,4.69914A1,1,0,0,0,3.95111,19H5.98748" fill="none" stroke="#323232" stroke-linecap="round" stroke-linejoin="round" stroke-width="1.5"/><rect width="24" height="24" transform="translate(24 24) rotate(-180)" fill="none"/></svg>