<svg id="Layer_3" data-name="Layer 3" xmlns="http://www.w3.org/2000/svg" viewBox="0 0 24 24"><rect width="24" height="24" fill="none"/><path d="M17.8803,4.60274a6.13111,6.13111,0,0,1-11.7606,0" fill="none" stroke="#323232" stroke-linecap="round" stroke-linejoin="round" stroke-width="1.5"/><line x1="12" y1="9" x2="12" y2="13" fill="none" stroke="#323232" stroke-linecap="round" stroke-linejoin="round" stroke-width="1.5"/><path d="M21,18V7.20414a2,2,0,0,0-1.25722-1.85695L16.74947,4.14988a1.8988,1.8988,0,0,0-1.34989-.04769,10.82153,10.82153,0,0,1-6.79925,0,1.8988,1.8988,0,0,0-1.34987.0477L4.25722,5.34719A2,2,0,0,0,3,7.20414V18a2,2,0,0,0,2,2H19A2,2,0,0,0,21,18Z" fill="none" stroke="#323232" stroke-linecap="round" stroke-linejoin="round" stroke-width="1.5"/></svg>