<svg xmlns="http://www.w3.org/2000/svg" viewBox="0 0 24 24"><g id="Layer_2" data-name="Layer 2"><rect width="24" height="24" fill="none"/><line x1="10.5" y1="8.00011" x2="10.5" y2="10.00011" fill="none" stroke="#323232" stroke-linecap="round" stroke-linejoin="round" stroke-width="1.5"/><line x1="13.5" y1="8.00011" x2="13.5" y2="10.00011" fill="none" stroke="#323232" stroke-linecap="round" stroke-linejoin="round" stroke-width="1.5"/><line x1="19.15494" y1="8" x2="4.84507" y2="8" fill="none" stroke="#323232" stroke-linecap="round" stroke-linejoin="round" stroke-width="1.5"/><path d="M11.68592,14h.62816a.5.5,0,0,1,.48937.39744L13.811,19.20508a1,1,0,0,0,1.10512.78686l5.21025-.66381A.99672.99672,0,0,0,21,18.32518,34.3243,34.3243,0,0,0,18.54077,6.34766l-.289-.72011A1,1,0,0,0,17.32373,5H6.67627a1,1,0,0,0-.928.62755l-.289.72011A34.3243,34.3243,0,0,0,3,18.32518a.99672.99672,0,0,0,.87366,1.003l5.21025.66381a1,1,0,0,0,1.10512-.78686l1.00752-4.80764A.5.5,0,0,1,11.68592,14Z" fill="none" stroke="#323232" stroke-linecap="round" stroke-linejoin="round" stroke-width="1.5"/></g></svg>