<svg id="Layer_3" data-name="Layer 3" xmlns="http://www.w3.org/2000/svg" viewBox="0 0 24 24"><path d="M24,24H0V0H24Z" fill="none"/><path d="M8,3h8a5.00054,5.00054,0,0,1,5,5v8a5.00054,5.00054,0,0,1-5,5H8a5.00054,5.00054,0,0,1-5-5V8A5.00054,5.00054,0,0,1,8,3Z" fill="none" stroke="#323232" stroke-linecap="round" stroke-linejoin="round" stroke-width="1.5"/><path d="M14.5,15.5A3.5,3.5,0,0,1,11,12h0a3.5,3.5,0,0,1,3.5-3.5" fill="none" stroke="#323232" stroke-linecap="round" stroke-linejoin="round" stroke-width="1.5"/><rect x="6" y="8.5" width="12" height="7" rx="3.5" stroke-width="1.5" stroke="#323232" stroke-linecap="round" stroke-linejoin="round" fill="none"/></svg>