<svg id="Layer_3" data-name="Layer 3" xmlns="http://www.w3.org/2000/svg" viewBox="0 0 24 24"><line x1="2.249" y1="17" x2="22" y2="17" fill="none" stroke="#323232" stroke-linecap="round" stroke-linejoin="round" stroke-width="1.5"/><path d="M2,20.61824H2a5.42986,5.42986,0,0,1,4,0H6a5.42991,5.42991,0,0,0,4,0h0a5.42991,5.42991,0,0,1,4,0h0a5.42991,5.42991,0,0,0,4,0h0a5.42991,5.42991,0,0,1,4,0h0" fill="none" stroke="#323232" stroke-linecap="round" stroke-linejoin="round" stroke-width="1.5"/><rect width="24" height="24" fill="none"/><path d="M21,17V14a1,1,0,0,0-1-1H14.14657a2,2,0,0,1-1.07868-.31582L10.5411,11.06582A2,2,0,0,0,9.46243,10.75H4a1,1,0,0,0-1,1V17Z" fill="none" stroke="#323232" stroke-linecap="round" stroke-linejoin="round" stroke-width="1.5"/><path d="M6.74512,7.39984A4.533,4.533,0,0,0,3.09937,7.375a1.0063,1.0063,0,0,0-.36445,1.56653L4.25238,10.75" fill="none" stroke="#323232" stroke-linecap="round" stroke-linejoin="round" stroke-width="1.5"/><path d="M8.30731,10.75,6.09521,6.00616A.98833.98833,0,0,1,6.741,4.61633a5.24212,5.24212,0,0,1,4.56653,1.21674" fill="none" stroke="#323232" stroke-linecap="round" stroke-linejoin="round" stroke-width="1.5"/><path d="M15.09827,13a4.35209,4.35209,0,0,1,.75848-2.12445,4.39951,4.39951,0,0,1,4.96149-1.66107,1.004,1.004,0,0,1,.49969,1.52844L19.73749,13" fill="none" stroke="#323232" stroke-linecap="round" stroke-linejoin="round" stroke-width="1.5"/><path d="M17.91223,9.28A6.0332,6.0332,0,0,0,11.9776,3.00012a.99231.99231,0,0,0-.96216,1.17639l1.42981,8.10883" fill="none" stroke="#323232" stroke-linecap="round" stroke-linejoin="round" stroke-width="1.5"/></svg>