<svg id="Layer_3" data-name="Layer 3" xmlns="http://www.w3.org/2000/svg" viewBox="0 0 24 24"><rect width="24" height="24" fill="none"/><path d="M15.5,3.01987h0A2.98013,2.98013,0,0,1,12.51987,6H11.48013A2.98013,2.98013,0,0,1,8.5,3.01987h0" fill="none" stroke="#323232" stroke-linecap="round" stroke-linejoin="round" stroke-width="1.5"/><path d="M17.98759,13.996l3.24144-.76354a1,1,0,0,0,.74087-1.2159L20.67418,6.83366a4,4,0,0,0-2.16609-2.64379l-1.69431-.80381A4.00006,4.00006,0,0,0,15.09929,3H8.90071a4.00006,4.00006,0,0,0-1.71449.38606l-1.69431.80381A4,4,0,0,0,3.32582,6.83366L2.0301,12.01653a1,1,0,0,0,.74087,1.2159l3.2165.75767" fill="none" stroke="#323232" stroke-linecap="round" stroke-linejoin="round" stroke-width="1.5"/><path d="M4.16358,5.19811,5.63159,8.807A4.99986,4.99986,0,0,1,6.00012,10.691L6,19.54327A1.97448,1.97448,0,0,0,7.454,21.46972a19.748,19.748,0,0,0,9.09225-.00023A1.97446,1.97446,0,0,0,18,19.54308l-.0001-8.85227a4.99986,4.99986,0,0,1,.36853-1.88405l1.468-3.60884" fill="none" stroke="#323232" stroke-linecap="round" stroke-linejoin="round" stroke-width="1.5"/></svg>