<?xml version="1.0" encoding="UTF-8"?><svg version="1.1" viewBox="0 0 24 24" xmlns="http://www.w3.org/2000/svg" xmlns:xlink="http://www.w3.org/1999/xlink"><g stroke-linecap="round" stroke-width="1.5" stroke="#323232" fill="none" stroke-linejoin="round"><path d="M11 18h-6.125l2.82641e-08-1.50848e-11c-1.03498.000552448-1.87445-.838018-1.875-1.873 -3.55945e-07-.000666845-3.55955e-07-.00133369-3.01714e-11-.00200053v-11.25l-4.36332e-08-8.53918e-05c-.000505272-1.03498.838103-1.87441 1.87308-1.87491 .000666845-3.25549e-07.00133369-2.95164e-07.00200053 9.11575e-08h11.25l-2.23938e-08 1.09335e-11c1.03498-.000505284 1.87441.838103 1.87491 1.87308 3.11646e-07.00063835 2.97126e-07.0012767-4.35617e-08.00191505v6.125"></path><path d="M18.293 20.707l3.414-3.414 -3.0608e-08 3.06172e-08c.390382-.3905.390382-1.0235 6.1216e-08-1.414l-1.586-1.586 4.18572e-08 4.18445e-08c-.3905-.390382-1.0235-.390382-1.414-8.3689e-08l-3.414 3.414 8.42765e-08-8.4251e-08c-.187549.187493-.292943.441805-.293.707v2.586h2.586l5.69877e-08-1.21751e-11c.265195-5.66717e-05.519507-.105451.707-.293Z"></path><path d="M10.5 6.7h-2.18557e-09c-.0276142 1.20706e-09-.05.0223858-.05.05 1.20706e-09.0276142.0223858.05.05.05 .0276142-1.20706e-09.05-.0223858.05-.05v0c0-.0276142-.0223858-.05-.05-.05 0 0 0 0 0 0"></path><path d="M10.5 14.2h-2.18557e-09c-.0276142 1.20706e-09-.05.0223858-.05.05 1.20706e-09.0276142.0223858.05.05.05 .0276142-1.20706e-09.05-.0223858.05-.05v0c0-.0276142-.0223858-.05-.05-.05 0 0-1.77636e-15 0-1.77636e-15 0"></path><path d="M10.5 10.45h-2.18557e-09c-.0276142 1.20706e-09-.05.0223858-.05.05 1.20706e-09.0276142.0223858.05.05.05 .0276142-1.20706e-09.05-.0223858.05-.05v0c0-.0276142-.0223858-.05-.05-.05 0 0-1.77636e-15 0-1.77636e-15 0"></path><path d="M14.3 10.5v0c0-.0276142-.0223858-.05-.05-.05 -.0276142 0-.05.0223858-.05.05 0 .0276142.0223858.05.05.05h-2.18557e-09c.0276142 1.20706e-09.05-.0223858.05-.05 0 0 0-1.77636e-15 0-1.77636e-15"></path><path d="M6.8 10.5v0c0-.0276142-.0223858-.05-.05-.05 -.0276142 0-.05.0223858-.05.05 0 .0276142.0223858.05.05.05h-2.18557e-09c.0276142 1.20706e-09.05-.0223858.05-.05 0 0 0 0 0 0"></path></g><path fill="none" d="M0 0h24v24h-24Z"></path></svg>