<?xml version="1.0" encoding="UTF-8"?><svg version="1.1" viewBox="0 0 24 24" xmlns="http://www.w3.org/2000/svg" xmlns:xlink="http://www.w3.org/1999/xlink"><defs><path d="M0 0h24v24h-24Z" id="a"></path></defs><g fill="none"><use xlink:href="#a"></use><path stroke="#323232" stroke-linecap="round" stroke-linejoin="round" stroke-width="1.5" d="M9 18h-4.125l2.82641e-08-1.50848e-11c-1.03498.000552448-1.87445-.838018-1.875-1.873 -3.55945e-07-.000666845-3.55955e-07-.00133369-3.01714e-11-.00200053v-11.25l-4.36332e-08-8.53918e-05c-.000505272-1.03498.838103-1.87441 1.87308-1.87491 .000666845-3.25549e-07.00133369-2.95164e-07.00200053 9.11575e-08h11.25l-2.23938e-08 1.09335e-11c1.03498-.000505284 1.87441.838103 1.87491 1.87308 3.11646e-07.00063835 2.97126e-07.0012767-4.35617e-08.00191505v4.125"></path><path stroke="#323232" stroke-linecap="round" stroke-linejoin="round" stroke-width="1.5" d="M10.5 6.7h-2.18557e-09c-.0276142 1.20706e-09-.05.0223858-.05.05 1.20706e-09.0276142.0223858.05.05.05 .0276142-1.20706e-09.05-.0223858.05-.05v0c0-.0276142-.0223858-.05-.05-.05 0 0 0 0 0 0"></path><path stroke="#323232" stroke-linecap="round" stroke-linejoin="round" stroke-width="1.5" d="M10.5 14.2h-2.18557e-09c-.0276142 1.20706e-09-.05.0223858-.05.05 1.20706e-09.0276142.0223858.05.05.05 .0276142-1.20706e-09.05-.0223858.05-.05v0c0-.0276142-.0223858-.05-.05-.05 0 0-1.77636e-15 0-1.77636e-15 0"></path><path stroke="#323232" stroke-linecap="round" stroke-linejoin="round" stroke-width="1.5" d="M10.5 10.45h-2.18557e-09c-.0276142 1.20706e-09-.05.0223858-.05.05 1.20706e-09.0276142.0223858.05.05.05 .0276142-1.20706e-09.05-.0223858.05-.05v0c0-.0276142-.0223858-.05-.05-.05 0 0-1.77636e-15 0-1.77636e-15 0"></path><path stroke="#323232" stroke-linecap="round" stroke-linejoin="round" stroke-width="1.5" d="M14.3 10.5v0c0-.0276142-.0223858-.05-.05-.05 -.0276142 0-.05.0223858-.05.05 0 .0276142.0223858.05.05.05h-2.18557e-09c.0276142 1.20706e-09.05-.0223858.05-.05 0 0 0-1.77636e-15 0-1.77636e-15"></path><path stroke="#323232" stroke-linecap="round" stroke-linejoin="round" stroke-width="1.5" d="M6.8 10.5v0c0-.0276142-.0223858-.05-.05-.05 -.0276142 0-.05.0223858-.05.05 0 .0276142.0223858.05.05.05h-2.18557e-09c.0276142 1.20706e-09.05-.0223858.05-.05 0 0 0 0 0 0"></path><path stroke="#323232" stroke-linecap="round" stroke-linejoin="round" stroke-width="1.5" d="M14.472 21h.758l3.13473e-08-2.02185e-11c.285057-.000183861.558393-.113474.76-.315l4.695-4.695 4.80444e-08-4.80882e-08c.419742-.420125.419742-1.10088-9.60888e-08-1.521l-1.775-1.776 1.0795e-09 1.07793e-09c-.420468-.419857-1.10153-.419857-1.522-2.15586e-09l-5.073 5.073 1.31727e-08-1.31919e-08c-.419857.420468-.419857 1.10153-2.63454e-08 1.522l1.4 1.4 -2.77838e-09-2.75541e-09c.201359.199693.473411.311821.757.312Z"></path><path stroke="#323232" stroke-linecap="round" stroke-linejoin="round" stroke-width="1.5" d="M14.775 15.3l3.3 3.3"></path><line x1="20" x2="15" y1="21" y2="21" stroke="#323232" stroke-linecap="round" stroke-linejoin="round" stroke-width="1.5"></line><use xlink:href="#a"></use></g></svg>