<svg xmlns="http://www.w3.org/2000/svg" viewBox="0 0 24 24"><g id="Layer_2" data-name="Layer 2"><rect width="24" height="24" fill="none"/><path d="M12,14a2,2,0,0,1,0-4" fill="none" stroke="#323232" stroke-linecap="round" stroke-linejoin="round" stroke-width="1.5"/><path d="M18.20711,10H21.4992a.5.5,0,0,1,.424.765L21.15132,12l.77188,1.235a.5.5,0,0,1-.424.765H18.20711a.5.5,0,0,1-.35356-.14645L16,12l1.85355-1.85355A.5.5,0,0,1,18.20711,10Z" fill="none" stroke="#323232" stroke-linecap="round" stroke-linejoin="round" stroke-width="1.5"/><line x1="14" y1="12" x2="16" y2="12" fill="none" stroke="#323232" stroke-linecap="round" stroke-linejoin="round" stroke-width="1.5"/><path d="M15.76709,8a5.5,5.5,0,1,0,0,8" fill="none" stroke="#323232" stroke-linecap="round" stroke-linejoin="round" stroke-width="1.5"/><path d="M19.48236,7a9,9,0,1,0,0,10" fill="none" stroke="#323232" stroke-linecap="round" stroke-linejoin="round" stroke-width="1.5"/></g></svg>