<svg id="Layer_3" data-name="Layer 3" xmlns="http://www.w3.org/2000/svg" viewBox="0 0 24 24"><path d="M8,5H6A2,2,0,0,0,4,7V19a2,2,0,0,0,2,2h4" fill="none" stroke="#323232" stroke-linecap="round" stroke-linejoin="round" stroke-width="1.5"/><rect x="8" y="3.00001" width="8" height="4" rx="1" stroke-width="1.5" stroke="#323232" stroke-linecap="round" stroke-linejoin="round" fill="none"/><path d="M16,5h2a2,2,0,0,1,2,2v3" fill="none" stroke="#323232" stroke-linecap="round" stroke-linejoin="round" stroke-width="1.5"/><line x1="17.56066" y1="17.56067" x2="15.43934" y2="15.43935" fill="none" stroke="#323232" stroke-linecap="round" stroke-linejoin="round" stroke-width="1.5"/><line x1="15.43934" y1="17.56067" x2="17.56066" y2="15.43935" fill="none" stroke="#323232" stroke-linecap="round" stroke-linejoin="round" stroke-width="1.5"/><path d="M21,16.5h0A4.5,4.5,0,0,1,16.5,21h0A4.5,4.5,0,0,1,12,16.5h0A4.5,4.5,0,0,1,16.5,12h0A4.5,4.5,0,0,1,21,16.5Z" fill="none" stroke="#323232" stroke-linecap="round" stroke-linejoin="round" stroke-width="1.5"/><rect y="0.00001" width="24" height="24" fill="none"/></svg>