<?xml version="1.0" encoding="UTF-8"?><svg version="1.1" viewBox="0 0 24 24" xmlns="http://www.w3.org/2000/svg" xmlns:xlink="http://www.w3.org/1999/xlink"><g fill="none"><path d="M0 0h24v24h-24v-24Z"></path><path stroke="#323232" stroke-linecap="round" stroke-linejoin="round" stroke-width="1.5" d="M8 4l1.3-1.625c.19-.237.477-.375.781-.375h3.839c.304 0 .591.138.781.375l1.299 1.625v0 1c0 .552-.448 1-1 1h-6c-.552 0-1-.448-1-1v-1 0Z"></path><path stroke="#323232" stroke-linecap="round" stroke-linejoin="round" stroke-width="1.5" d="M20 12v-6c0-1.105-.895-2-2-2h-2"></path><path stroke="#323232" stroke-linecap="round" stroke-linejoin="round" stroke-width="1.5" d="M8 4h-2c-1.105 0-2 .895-2 2v13c0 1.105.895 2 2 2h6"></path><path stroke="#323232" stroke-linecap="round" stroke-linejoin="round" stroke-width="1.5" d="M14.767 18.691c-.274-.416-.274-.964 0-1.38 .848-1.283 2.18-2.311 3.513-2.311 1.333 0 2.664 1.028 3.513 2.31 .275.416.275.965 0 1.38 -.85 1.282-2.181 2.31-3.513 2.31 -1.333.001-2.665-1.027-3.513-2.309Z"></path><path stroke="#323232" stroke-linecap="round" stroke-linejoin="round" stroke-width="1.5" d="M18.379 17.901c.056.056.056.145 0 .201 -.056.056-.145.056-.201 0 -.056-.056-.056-.145 0-.201 .057-.056.147-.056.201 0"></path><path stroke="#323232" stroke-linecap="round" stroke-linejoin="round" stroke-width="1.5" d="M8 11h8"></path><path stroke="#323232" stroke-linecap="round" stroke-linejoin="round" stroke-width="1.5" d="M8 16h2"></path></g></svg>