<?xml version="1.0" encoding="UTF-8"?><svg version="1.1" viewBox="0 0 24 24" xmlns="http://www.w3.org/2000/svg" xmlns:xlink="http://www.w3.org/1999/xlink"><g stroke-linecap="round" stroke-width="1.5" stroke="#323232" fill="none" stroke-linejoin="round"><path d="M20.625 5.149c0-.98-.794-1.774-1.774-1.774h-13.702c-.98 0-1.774.794-1.774 1.774v13.702c0 .98.794 1.774 1.774 1.774h13.702c.98 0 1.774-.794 1.774-1.774v-13.702 -8.88178e-16Z"></path><path d="M16.89 12h-5.26"></path><path d="M7.67678 11.8232c.0976311.0976311.0976311.255922 0 .353553 -.0976311.0976311-.255922.0976311-.353553 0 -.0976311-.0976311-.0976311-.255922 0-.353553 .0976311-.0976311.255922-.0976311.353553 0"></path><path d="M16.89 7.5h-5.26"></path><path d="M7.67678 7.32622c.0976311.0976311.0976311.255922 0 .353553 -.0976311.0976311-.255922.0976311-.353553 0 -.0976311-.0976311-.0976311-.255922 0-.353553 .0976311-.0976311.255922-.0976311.353553 0"></path><path d="M16.98 16.5h-5.26"></path><path d="M7.76478 16.3272c.0976311.0976311.0976311.255922 0 .353553 -.0976311.0976311-.255922.0976311-.353553 0 -.0976311-.0976311-.0976311-.255922 0-.353553 .0976311-.0976311.255922-.0976311.353553 0"></path></g><path fill="none" d="M0 0h24v24h-24v-24Z"></path></svg>