<svg viewBox="0 0 24 24" xmlns="http://www.w3.org/2000/svg"><g fill="none"><path d="M0 0h24v24H0Z"/><g stroke-linecap="round" stroke-width="1.5" stroke="#323232" fill="none" stroke-linejoin="round"><path d="M16.5 17.029v0h-.01c-1.1-.01-1.99-.89-1.99-1.99v-3.31l0-.01c0-1.1.88-1.99 1.98-1.99v0l-.01 0c1.09-.01 1.98.88 1.98 1.98v3.3 0c0 1.09-.89 1.98-1.99 1.98 -.01 0-.01-.001-.01-.001Z"/><path d="M21 15.15v-.001c0 2.48-2.02 4.5-4.5 4.5v0l-.01-.001c-2.49-.01-4.5-2.02-4.5-4.51 0 0 0-.001 0-.001"/><path d="M16.5 21l0-1.35"/><path d="M11 9L7 9"/><path d="M9 12.88l-2 0"/><path d="M12 21H8l-.01-.001c-2.77-.01-5-2.24-5-5.01 0 0 0-.001 0-.001v-8l0 0c-.01-2.77 2.23-5.01 4.99-5.01h8l-.01 0c2.76-.01 5 2.23 5 4.99v3"/></g></g></svg>