<svg id="Layer_3" data-name="Layer 3" xmlns="http://www.w3.org/2000/svg" viewBox="0 0 24 24"><path d="M16.91677,15.93439l1.05682-.24184A3.89534,3.89534,0,0,0,21,11.89536h0A2.89535,2.89535,0,0,0,18.10465,9H15.5" fill="none" stroke="#323232" stroke-linecap="round" stroke-linejoin="round" stroke-width="1.5"/><path d="M4,9H16a1,1,0,0,1,1,1v5a6,6,0,0,1-6,6H9a6,6,0,0,1-6-6V10A1,1,0,0,1,4,9Z" fill="none" stroke="#323232" stroke-linecap="round" stroke-linejoin="round" stroke-width="1.5"/><path d="M13.5,6a1.25,1.25,0,0,1,0-2,1.25,1.25,0,0,0,0-2" fill="none" stroke="#323232" stroke-linecap="round" stroke-linejoin="round" stroke-width="1.5"/><path d="M10,6a1.25,1.25,0,0,1,0-2,1.25,1.25,0,0,0,0-2" fill="none" stroke="#323232" stroke-linecap="round" stroke-linejoin="round" stroke-width="1.5"/><path d="M6.5,6a1.25,1.25,0,0,1,0-2,1.25,1.25,0,0,0,0-2" fill="none" stroke="#323232" stroke-linecap="round" stroke-linejoin="round" stroke-width="1.5"/><line x1="9" y1="9" x2="9" y2="12" fill="none" stroke="#323232" stroke-linecap="round" stroke-linejoin="round" stroke-width="1.5"/><rect x="7" y="12" width="4" height="4" rx="1" stroke-width="1.5" stroke="#323232" stroke-linecap="round" stroke-linejoin="round" fill="none"/><path d="M0,0H24V24H0Z" fill="none"/></svg>