<?xml version="1.0" encoding="UTF-8"?><svg version="1.1" viewBox="0 0 24 24" xmlns="http://www.w3.org/2000/svg" xmlns:xlink="http://www.w3.org/1999/xlink"><g fill="none"><rect width="24" height="24"></rect><path stroke="#323232" stroke-linecap="round" stroke-linejoin="round" stroke-width="1.5" d="M13.21 11.93l-5.81928e-09-6.01881e-09c.0362415.0374841.0696657.0775932.1.12l5.73976e-08 7.06542e-08c.540264.665044.43911 1.64214-.225934 2.1824 -.665044.540264-1.64214.43911-2.1824-.225934 -.501673-.61754-.454876-1.51449.108338-2.07647l-1.3508e-07 1.32734e-07c.610605-.600002 1.58939-.600003 2.2-2.65468e-07"></path></g><g transform="matrix(1 0 0 1 -2.16356 6.68309)"><rect width="2.80044" height="4.6674" x="14.7088" y="6.57313" fill="none" rx=".515542" ry="0" stroke="#323232" stroke-linecap="round" stroke-linejoin="round" stroke-width="1.5" transform="matrix(.927184 -.374607 .374607 .927184 0 0)"></rect></g><g stroke-linecap="round" stroke-width="1.5" stroke="#323232" fill="none" stroke-linejoin="round"><line x1="11.01" x2="8.99" y1="14.14" y2="17"></line><line x1="13.21" x2="15.35" y1="14.14" y2="17"></line><path d="M10.56 13.16l-.61.25 -7.43551e-08 3.04824e-08c-.508072.208288-1.0888-.0347352-1.29708-.542807 -.000981382-.00239386-.00195342-.00479155-.00291608-.007193l-.66-1.61 -1.88351e-08-4.70811e-08c-.204933-.512261.0442057-1.09366.556467-1.29859 .00117692-.000470833.00235473-.000939425.00353343-.00140577l5.09649-2.06243 2.05615e-08-8.32078e-09c.255977-.103588.547462.0199477.65105.275925 3.44191e-06 8.50533e-06 6.88359e-06 1.70108e-05 1.0325e-05 2.55163e-05l1.0249 2.53295 1.0501e-08 2.59601e-08c.103547.255984-.0200209.547442-.276.651l-1.73645.70253"></path><path d="M7.92236 10.9531l-1.34228.54688 8.22083e-08-3.3848e-08c-.473376.194905-.701041.735051-.51 1.21l.16992.44 -8.74234e-09-2.05439e-08c.201135.472653.74232.698887 1.22.51l1.34009-.54"></path><rect width="18" height="18" x="3" y="3" rx="2.7614" ry="0"></rect><rect width="18" height="18" x="3" y="3" rx="2.7614" ry="0"></rect></g></svg>