<?xml version="1.0" encoding="UTF-8"?><svg version="1.1" viewBox="0 0 24 24" xmlns="http://www.w3.org/2000/svg" xmlns:xlink="http://www.w3.org/1999/xlink"><!--Generated by IJSVG (https://github.com/iconjar/IJSVG)--><defs><path d="M18.364,5.63604c3.51472,3.51472 3.51472,9.2132 0,12.7279c-3.51472,3.51472 -9.2132,3.51472 -12.7279,0c-3.51472,-3.51472 -3.51472,-9.2132 -1.77636e-15,-12.7279c3.51472,-3.51472 9.2132,-3.51472 12.7279,-1.77636e-15" id="a"></path></defs><g stroke-linecap="round" stroke-width="1.5" fill-rule="evenodd" stroke="#323232" fill="none" stroke-linejoin="round"><use xlink:href="#a"></use><use xlink:href="#a"></use></g><path fill="none" stroke="#323232" stroke-linecap="round" stroke-linejoin="round" stroke-width="1.5" d="M18,5.305c-1.837,1.648 -3,4.033 -3,6.695c0,2.662 1.163,5.047 3,6.695"></path><path d="M6,18.695c1.837,-1.648 3,-4.033 3,-6.695c0,-2.662 -1.163,-5.047 -3,-6.695" stroke-linecap="round" stroke-width="1.5" stroke="#323232" fill="none" stroke-linejoin="round"></path><path fill="none" d="M0,0h24v24h-24Z" transform="matrix(6.12323e-17,-1,1,6.12323e-17,0,24)"></path></svg>