<svg id="Layer_3" data-name="Layer 3" xmlns="http://www.w3.org/2000/svg" viewBox="0 0 24 24"><line x1="8.49533" y1="16.90954" x2="6.09041" y2="14.50462" fill="none" stroke="#323232" stroke-linecap="round" stroke-linejoin="round" stroke-width="1.5"/><path d="M2.79979,19.60062l.59959.59959a1.02355,1.02355,0,0,0,1.44752,0L6.90908,18.138a7.96138,7.96138,0,0,1,5.62954-2.33183h1.30829A6.65309,6.65309,0,0,0,20.5,9.15311v0A6.65309,6.65309,0,0,0,13.84691,2.5h0A6.65309,6.65309,0,0,0,7.1938,9.15309v1.30829A7.96138,7.96138,0,0,1,4.862,16.09092L2.79979,18.1531A1.02355,1.02355,0,0,0,2.79979,19.60062Z" fill="none" stroke="#323232" stroke-linecap="round" stroke-linejoin="round" stroke-width="1.5"/><line x1="11.46488" y1="15.87909" x2="7.12093" y2="11.53514" fill="none" stroke="#323232" stroke-linecap="round" stroke-linejoin="round" stroke-width="1.5"/><circle cx="19.5" cy="19.5" r="2" fill="none" stroke="#323232" stroke-linecap="round" stroke-linejoin="round" stroke-width="1.5"/><path d="M0,0H24V24H0Z" fill="none"/></svg>