<svg id="Layer_3" data-name="Layer 3" xmlns="http://www.w3.org/2000/svg" viewBox="0 0 24 24"><path d="M7,6h5.875a3,3,0,0,1,3,3V9a3,3,0,0,1-3,3H7a0,0,0,0,1,0,0V6A0,0,0,0,1,7,6Z" fill="none" stroke="#323232" stroke-linecap="round" stroke-linejoin="round" stroke-width="1.5"/><path d="M7,12h7a3,3,0,0,1,3,3v0a3,3,0,0,1-3,3H7a0,0,0,0,1,0,0V12A0,0,0,0,1,7,12Z" fill="none" stroke="#323232" stroke-linecap="round" stroke-linejoin="round" stroke-width="1.5"/><path d="M0,0H24V24H0Z" fill="none"/><path d="M0,0H24V24H0Z" fill="none"/></svg>