<svg id="Layer_3" data-name="Layer 3" xmlns="http://www.w3.org/2000/svg" viewBox="0 0 24 24"><path d="M0,0H24V24H0Z" fill="none"/><line x1="7" y1="7" x2="12" y2="7" fill="none" stroke="#323232" stroke-linecap="round" stroke-linejoin="round" stroke-width="1.5"/><line x1="7" y1="10" x2="10" y2="10" fill="none" stroke="#323232" stroke-linecap="round" stroke-linejoin="round" stroke-width="1.5"/><line x1="7" y1="13" x2="8" y2="13" fill="none" stroke="#323232" stroke-linecap="round" stroke-linejoin="round" stroke-width="1.5"/><path d="M21,11V5a2,2,0,0,0-2-2H5A2,2,0,0,0,3,5V16a2,2,0,0,0,2,2H7" fill="none" stroke="#323232" stroke-linecap="round" stroke-linejoin="round" stroke-width="1.5"/><path d="M18.55585,21H13.958a2,2,0,0,1-1.66413-.89069L10.26117,17.06a1.55449,1.55449,0,0,1,.3598-2.10529,1.63221,1.63221,0,0,1,2.10956.22162L13.5542,16V10.5a1.5,1.5,0,0,1,3,0v2.52191l2.76758.45136a2,2,0,0,1,1.6626,2.22192l-.444,3.5528A2,2,0,0,1,18.55585,21Z" fill="none" stroke="#323232" stroke-linecap="round" stroke-linejoin="round" stroke-width="1.5"/></svg>