<svg id="Layer_3" data-name="Layer 3" xmlns="http://www.w3.org/2000/svg" viewBox="0 0 24 24"><path d="M7.03213,4.72914,5.45289,3.1499a.51178.51178,0,0,0-.72376,0L3.1499,4.72914a.51176.51176,0,0,0,0,.72376L4.72913,7.03213a.51178.51178,0,0,1,0,.72376L3.1499,9.33513a.51178.51178,0,0,0,0,.72376l1.57923,1.57923a.51178.51178,0,0,1,0,.72376L3.1499,13.94111a.51179.51179,0,0,0,0,.72377l1.57923,1.57923a.51178.51178,0,0,1,0,.72376L3.1499,18.5471a.51178.51178,0,0,0,0,.72376L4.72913,20.8501a.51178.51178,0,0,0,.72376,0l1.57924-1.57924a.51178.51178,0,0,1,.72376,0L9.33512,20.8501a.51179.51179,0,0,0,.72377,0l1.57923-1.57924a.51178.51178,0,0,1,.72376,0l1.57924,1.57924a.51178.51178,0,0,0,.72376,0l1.57923-1.57924a.51178.51178,0,0,1,.72376,0l1.57924,1.57924a.51178.51178,0,0,0,.72376,0l1.57923-1.57924a.51176.51176,0,0,0,0-.72376l-1.57923-1.57923a.51178.51178,0,0,1,0-.72376l1.57923-1.57924a.51177.51177,0,0,0,0-.72376l-1.57923-1.57923a.51178.51178,0,0,1,0-.72376l1.57923-1.57923a.51179.51179,0,0,0,0-.72377L18.909,7.394,20.8501,5.4529a.51178.51178,0,0,0,0-.72376L19.27087,3.1499a.51178.51178,0,0,0-.72376,0L16.96787,4.72914a.51178.51178,0,0,1-.72376,0L14.66488,3.1499a.51179.51179,0,0,0-.72377,0L12.36188,4.72914a.51178.51178,0,0,1-.72376,0L10.05888,3.1499a.51178.51178,0,0,0-.72376,0L7.75589,4.72914A.51178.51178,0,0,1,7.03213,4.72914Z" fill="none" stroke="#323232" stroke-linecap="round" stroke-linejoin="round" stroke-width="1.5"/><rect width="24" height="24" fill="none"/></svg>