<svg viewBox="0 0 24 24" xmlns="http://www.w3.org/2000/svg"><g stroke-linecap="round" stroke-width="1.5" stroke="#323232" fill="none" stroke-linejoin="round"><path d="M10.66 7H7.49l-.01 0c-.28 0-.5.22-.5.5 0 0 0 0 0 0V10l0 0c0 .27.22.49.5.49h3.16 -.01c.27 0 .5-.23.5-.5v-2.5 -.001c0-.28-.23-.5-.5-.5 -.01 0-.01 0-.01 0Z"/><path d="M14 7h3"/><path d="M14 10.33h3"/><path d="M7 13.67l10 0"/><path d="M7 17h4.16"/><rect width="18" height="18" x="3" y="3" rx="4"/></g><path fill="none" d="M0 0h24v24H0Z"/></svg>