<svg id="Layer_3" data-name="Layer 3" xmlns="http://www.w3.org/2000/svg" viewBox="0 0 24 24"><path d="M10.26733,10.46535a.03465.03465,0,1,1-.03466.03465.03465.03465,0,0,1,.03466-.03465" fill="none" stroke="#323232" stroke-linecap="round" stroke-linejoin="round" stroke-width="1.5"/><path d="M12,8.73267a.03466.03466,0,1,1-.03465.03466A.03465.03465,0,0,1,12,8.73267" fill="none" stroke="#323232" stroke-linecap="round" stroke-linejoin="round" stroke-width="1.5"/><path d="M13.73267,10.46535A.03465.03465,0,1,1,13.698,10.5a.03465.03465,0,0,1,.03465-.03465" fill="none" stroke="#323232" stroke-linecap="round" stroke-linejoin="round" stroke-width="1.5"/><path d="M8.56931,8.76733a.03466.03466,0,1,1-.03466-.03466.03465.03465,0,0,1,.03466.03466" fill="none" stroke="#323232" stroke-linecap="round" stroke-linejoin="round" stroke-width="1.5"/><path d="M15.46535,8.73267a.03466.03466,0,1,1-.03466.03466.03466.03466,0,0,1,.03466-.03466" fill="none" stroke="#323232" stroke-linecap="round" stroke-linejoin="round" stroke-width="1.5"/><path d="M12,12.26733a.03466.03466,0,1,1,.03465-.03466A.03465.03465,0,0,1,12,12.26733" fill="none" stroke="#323232" stroke-linecap="round" stroke-linejoin="round" stroke-width="1.5"/><path d="M15.43069,12.23267a.03466.03466,0,1,1,.03466.03466.03465.03465,0,0,1-.03466-.03466" fill="none" stroke="#323232" stroke-linecap="round" stroke-linejoin="round" stroke-width="1.5"/><path d="M8.53465,12.26733a.03466.03466,0,1,1,.03466-.03466.03466.03466,0,0,1-.03466.03466" fill="none" stroke="#323232" stroke-linecap="round" stroke-linejoin="round" stroke-width="1.5"/><path d="M10.26733,13.93069a.03466.03466,0,1,1-.03466.03465.03465.03465,0,0,1,.03466-.03465" fill="none" stroke="#323232" stroke-linecap="round" stroke-linejoin="round" stroke-width="1.5"/><path d="M13.73267,13.93069a.03466.03466,0,1,1-.03465.03465.03466.03466,0,0,1,.03465-.03465" fill="none" stroke="#323232" stroke-linecap="round" stroke-linejoin="round" stroke-width="1.5"/><path d="M13.73267,7.06931a.03466.03466,0,1,1,.03466-.03465.03465.03465,0,0,1-.03466.03465" fill="none" stroke="#323232" stroke-linecap="round" stroke-linejoin="round" stroke-width="1.5"/><path d="M10.26733,7.06931a.03466.03466,0,1,1,.03465-.03465.03466.03466,0,0,1-.03465.03465" fill="none" stroke="#323232" stroke-linecap="round" stroke-linejoin="round" stroke-width="1.5"/><path d="M20,18.09147,18.45065,6.47135A4,4,0,0,0,14.48574,3H9.5143A4,4,0,0,0,5.54939,6.47135L4,18.09177" fill="none" stroke="#323232" stroke-linecap="round" stroke-linejoin="round" stroke-width="1.5"/><rect x="3" y="18" width="18" height="3" rx="1.5" stroke-width="1.5" stroke="#323232" stroke-linecap="round" stroke-linejoin="round" fill="none"/><rect width="24" height="24" fill="none"/></svg>