<?xml version="1.0" encoding="UTF-8"?><svg version="1.1" viewBox="0 0 24 24" xmlns="http://www.w3.org/2000/svg" xmlns:xlink="http://www.w3.org/1999/xlink"><g stroke-linecap="round" stroke-width="1.5" stroke="#323232" fill="none" stroke-linejoin="round"><line x1="7.25" x2="7.25" y1="11.75" y2="15.75"></line><path d="M15.75 10.747h-2.05v-1.7l2.45339e-08 8.6046e-06c-.0016455-.577947-.470043-1.04591-1.04799-1.04701h-.4l-3.80395e-08-7.97939e-12c-.351544-7.37414e-05-.677307.184449-.858.486l-1.60901 2.675 1.71634e-08-2.86692e-08c-.18617.310974-.284656.666558-.285 1.029v2.81l1.06581e-14 1.50996e-07c8.33927e-08.552285.447715 1 1 1h4.179l-8.70071e-09-9.99911e-12c.334633.000384567.647279-.166635.833-.445l1.07-1.606 5.04614e-08-7.56772e-08c.109586-.164347.168044-.357468.168-.555v-1.647l-3.55271e-15-1.06581e-14c0-.552285-.447715-1-1-1 -4.85381e-08 0-9.78504e-08 3.55271e-15-1.46389e-07 1.06581e-14Z"></path><rect width="18" height="18" x="3" y="3" rx="2.7614" ry="0"></rect></g><path fill="none" d="M0 0h24v24h-24Z"></path></svg>