<svg id="Layer_3" data-name="Layer 3" xmlns="http://www.w3.org/2000/svg" viewBox="0 0 24 24"><path d="M0,24H24V0H0Z" fill="none"/><path d="M19.33031,3.01724l.1697.17231.17541-.18541a1.59479,1.59479,0,0,1,2.305-.02314l.03566.03621a1.70808,1.70808,0,0,1,0,2.38246L20.26179,7.18094a1.06892,1.06892,0,0,1-1.52357,0L16.984,5.39971a1.70809,1.70809,0,0,1,0-2.38247h0A1.64617,1.64617,0,0,1,19.33031,3.01724Z" fill="none" stroke="#323232" stroke-linecap="round" stroke-linejoin="round" stroke-width="1.5"/><path d="M13.89475,3.2125A9.02038,9.02038,0,1,0,20.7693,10" fill="none" stroke="#323232" stroke-linecap="round" stroke-linejoin="round" stroke-width="1.5"/><line x1="10.09991" y1="10.24792" x2="10.09991" y2="15.94836" fill="none" stroke="#323232" stroke-linecap="round" stroke-linejoin="round" stroke-width="1.5"/><path d="M14.902,16a1.5,1.5,0,0,0,1.46489-1.1775l.59747-2.71419a1.5,1.5,0,0,0-1.46489-1.82242H13.91662l0-2.1329a1,1,0,0,0-.553-.89453l-.253-.12641a1.25,1.25,0,0,0-1.6669.54l-1.34375,2.57586H8a.75.75,0,0,0-.75.75V15.25A.75.75,0,0,0,8,16Z" fill="none" stroke="#323232" stroke-linecap="round" stroke-linejoin="round" stroke-width="1.5"/></svg>