<svg id="Layer_3" data-name="Layer 3" xmlns="http://www.w3.org/2000/svg" viewBox="0 0 24 24"><path d="M0,0H24V24H0Z" fill="none"/><path d="M9.58582,19l1.70709,1.70709a1,1,0,0,0,1.41418,0L14.41418,19H18a3,3,0,0,0,3-3V6a3,3,0,0,0-3-3H6A3,3,0,0,0,3,6V16a3,3,0,0,0,3,3Z" fill="none" stroke="#323232" stroke-linecap="round" stroke-linejoin="round" stroke-width="1.5"/><line x1="10.09991" y1="9.24792" x2="10.09991" y2="14.94836" fill="none" stroke="#323232" stroke-linecap="round" stroke-linejoin="round" stroke-width="1.5"/><path d="M14.902,15a1.5,1.5,0,0,0,1.46489-1.1775l.59747-2.71419a1.5,1.5,0,0,0-1.46489-1.82242H13.91662l0-2.1329a1,1,0,0,0-.553-.89453l-.253-.12641a1.25,1.25,0,0,0-1.6669.54L10.09991,9.24792H8a.75.75,0,0,0-.75.75V14.25A.75.75,0,0,0,8,15Z" fill="none" stroke="#323232" stroke-linecap="round" stroke-linejoin="round" stroke-width="1.5"/></svg>