<svg viewBox="0 0 24 24" xmlns="http://www.w3.org/2000/svg"><g stroke-linecap="round" stroke-width="1.5" stroke="#323232" fill="none" stroke-linejoin="round"><path d="M13.42 3.06l0 0c4.9.82 8.2 5.46 7.38 10.36 -.83 4.9-5.47 8.2-10.37 7.38 -3.79-.64-6.76-3.61-7.39-7.39"/><path d="M8.79 3.5l0-.01c.52-.2 1.07-.35 1.63-.44"/><path d="M6.19 5l0-.01c-.44.36-.84.76-1.21 1.19"/><path d="M3.49 8.8l-.01 0c-.2.52-.35 1.07-.44 1.63"/><path d="M11.41 6.51l0 5.602 4.65 0"/></g><path fill="none" d="M24 24H0V0h24Z"/></svg>