<?xml version="1.0" encoding="UTF-8"?><svg version="1.1" viewBox="0 0 24 24" xmlns="http://www.w3.org/2000/svg" xmlns:xlink="http://www.w3.org/1999/xlink"><!--Generated by IJSVG (https://github.com/iconjar/IJSVG)--><g stroke-linecap="round" stroke-width="1.5" stroke="#323232" fill="none" stroke-linejoin="round"><path d="M12,21.5v-4v4Z"></path><path d="M12,2.5v4"></path><path d="M18.718,18.718l-2.828,-2.828l2.828,2.828Z"></path><path d="M5.28,5.28l2.83,2.83"></path><path d="M21.5,12h-4h4Z"></path><path d="M2.5,12h4"></path><path d="M18.718,5.282l-2.828,2.828l2.828,-2.828Z"></path><path d="M5.28,18.72l2.83,-2.83"></path><path d="M15.635,20.777l-0.765,-1.848l0.765,1.848Z"></path><path d="M8.36,3.22l0.77,1.85"></path><path d="M20.777,15.635l-1.848,-0.765l1.848,0.765Z"></path><path d="M3.22,8.36l1.85,0.77"></path><path d="M20.777,8.365l-1.848,0.765l1.848,-0.765Z"></path><path d="M3.22,15.64l1.85,-0.77"></path><path d="M15.635,3.223l-0.765,1.848l0.765,-1.848Z"></path><path d="M8.36,20.78l0.77,-1.85"></path></g><path fill="none" d="M0,0h24v24h-24Z"></path></svg>