<svg id="Layer_3" data-name="Layer 3" xmlns="http://www.w3.org/2000/svg" viewBox="0 0 24 24"><path d="M24,24H0V0H24Z" fill="none"/><path d="M22,17V14c0-.82929-1.68-1.5-3.75-1.5s-3.74893.67179-3.75,1.5v6c.00107.82822,1.67893,1.5,3.75,1.5S21.99893,20.82821,22,20V14" fill="none" stroke="#323232" stroke-linecap="round" stroke-linejoin="round" stroke-width="1.5"/><path d="M7.63,13.866l3.656-2.229V6.986" fill="none" stroke="#323232" stroke-linecap="round" stroke-linejoin="round" stroke-width="1.5"/><path d="M19.76929,9A8.99748,8.99748,0,1,0,11,20" fill="none" stroke="#323232" stroke-linecap="round" stroke-linejoin="round" stroke-width="1.5"/><path d="M14.50107,14c0,.82821,1.67893,1.5,3.75,1.5S22,14.82821,22,14" fill="none" stroke="#323232" stroke-linecap="round" stroke-linejoin="round" stroke-width="1.5"/><path d="M14.50107,17c0,.82821,1.67893,1.5,3.75,1.5s3.75-.67179,3.75-1.5" fill="none" stroke="#323232" stroke-linecap="round" stroke-linejoin="round" stroke-width="1.5"/></svg>