<?xml version="1.0" encoding="UTF-8"?><svg version="1.1" viewBox="0 0 24 24" xmlns="http://www.w3.org/2000/svg" xmlns:xlink="http://www.w3.org/1999/xlink"><g fill="none"><path d="M0 0h24v24h-24Z"></path><path stroke="#323232" stroke-linecap="round" stroke-linejoin="round" stroke-width="1.5" d="M12 13.352h-3.01608e-09c-.0381076 1.66574e-09-.069.0308924-.069.069 1.66574e-09.0381076.0308924.069.069.069 .0381076-1.66574e-09.069-.0308924.069-.069l1.77636e-15 3.01609e-09c0-.0381076-.0308924-.069-.069-.069"></path><line x1="12" x2="12" y1="5.84" y2="3" stroke="#323232" stroke-linecap="round" stroke-linejoin="round" stroke-width="1.5"></line><path stroke="#323232" stroke-linecap="round" stroke-linejoin="round" stroke-width="1.5" d="M12 5.842l-3.31289e-07 7.10543e-15c4.18577-1.82966e-07 7.579 3.39323 7.579 7.579 1.82966e-07 4.18577-3.39323 7.579-7.579 7.579 -4.18577 1.82966e-07-7.579-3.39323-7.579-7.579l7.90479e-14 8.13109e-07c-6.32033e-07-4.18577 3.39323-7.579 7.579-7.579 1.02666e-07-1.5099e-14 2.28623e-07-3.28626e-14 3.31289e-07-4.35207e-14"></path><path stroke="#323232" stroke-linecap="round" stroke-linejoin="round" stroke-width="1.5" d="M10.105 3h3.795"></path><path stroke="#323232" stroke-linecap="round" stroke-linejoin="round" stroke-width="1.5" d="M20.329 6.592l-1.5-1.5 .75.75"></path><path stroke="#323232" stroke-linecap="round" stroke-linejoin="round" stroke-width="1.5" d="M3.671 6.592l1.5-1.5 -.75.75"></path><path stroke="#323232" stroke-linecap="round" stroke-linejoin="round" stroke-width="1.5" d="M15.369 13.352h-3.01609e-09c-.0381076 1.66574e-09-.069.0308924-.069.069 1.66574e-09.0381076.0308924.069.069.069 .0381076-1.66574e-09.069-.0308924.069-.069h1.77636e-15c0-.0381076-.0308924-.069-.069-.069 0 0-1.77636e-15 0-1.77636e-15 0"></path><path stroke="#323232" stroke-linecap="round" stroke-linejoin="round" stroke-width="1.5" d="M8.632 13.352h-3.01609e-09c-.0381076 1.66574e-09-.069.0308924-.069.069 1.66574e-09.0381076.0308924.069.069.069 .0381076-1.66574e-09.069-.0308924.069-.069h1.77636e-15c0-.0381076-.0308924-.069-.069-.069 0 0-1.77636e-15 0-1.77636e-15 0"></path></g></svg>