<svg id="Layer_3" data-name="Layer 3" xmlns="http://www.w3.org/2000/svg" viewBox="0 0 24 24"><g id="Layer_2" data-name="Layer 2"><path d="M24,0H0V24H24Z" fill="none"/><path d="M21,12a9,9,0,1,0-9,9" fill="none" stroke="#323232" stroke-linecap="round" stroke-linejoin="round" stroke-width="1.5"/><polyline points="8 12.391 12.391 12.391 12.391 7" fill="none" stroke="#323232" stroke-linecap="round" stroke-linejoin="round" stroke-width="1.5"/><path d="M20.55785,16.75426a.85.85,0,0,1,0,1.49148l-1.27138.69527a.86889.86889,0,0,0-.34546.34546l-.69527,1.27138a.85.85,0,0,1-1.49148,0L16.059,19.28647a.86889.86889,0,0,0-.34546-.34546l-1.27138-.69527a.85.85,0,0,1,0-1.49148l1.27138-.69527a.86889.86889,0,0,0,.34546-.34546l.69527-1.27138a.85.85,0,0,1,1.49148,0l.69527,1.27138a.86889.86889,0,0,0,.34546.34546Z" fill="none" stroke="#323232" stroke-linecap="round" stroke-linejoin="round" stroke-width="1.5"/></g></svg>