<?xml version="1.0" encoding="UTF-8"?><svg version="1.1" viewBox="0 0 24 24" xmlns="http://www.w3.org/2000/svg" xmlns:xlink="http://www.w3.org/1999/xlink"><path d="M17.91 14l1.95529e-07-1.22652e-06c-.196193 1.23069-.781456 2.36617-1.67 3.24l-1.8978e-07 1.90252e-07c-2.33672 2.34253-6.13001 2.34725-8.47255.0105226 -.884337-.882143-1.47083-2.01864-1.67745-3.25052" stroke-linecap="round" stroke-width="1.5" stroke="#323232" fill="none" stroke-linejoin="round"></path><g transform="matrix(1 0 0 1 -.75 24.75)"><rect width="2.5" height="14.5" x="10.75" y="5.5" fill="none" rx=".69035" ry="0" stroke="#323232" stroke-linecap="round" stroke-linejoin="round" stroke-width="1.5" transform="matrix(6.12323e-17 -1 1 6.12323e-17 0 0)"></rect></g><g stroke-linecap="round" stroke-width="1.5" stroke="#323232" fill="none" stroke-linejoin="round"><path d="M9.5 3h5l-1.31134e-07 3.10862e-15c1.65685-7.24234e-08 3 1.34315 3 3v5.5h-11v-5.5l3.37508e-14 4.52987e-07c-2.50178e-07-1.65685 1.34315-3 3-3Z"></path><line x1="14.53" x2="13.53" y1="6" y2="6"></line><path d="M16.08 17.39l.68 3.41 -1.86314e-08-9.12749e-08c.110457.541126-.238669 1.06934-.779796 1.1798 -.0658857.0134489-.13296.0202178-.200204.0202041h-7.56l5.46616e-08-1.11626e-11c-.552285.000112755-1.00009-.447511-1.0002-.999796 -1.37287e-05-.0672443.00675522-.134318.0202041-.200204l.68-3.41"></path></g><rect width="24" height="24" fill="none"></rect></svg>