<?xml version="1.0" encoding="UTF-8"?><svg version="1.1" viewBox="0 0 24 24" xmlns="http://www.w3.org/2000/svg" xmlns:xlink="http://www.w3.org/1999/xlink"><defs><path d="M24 0v24h-24v-24Z" id="a"></path></defs><g fill="none"><use xlink:href="#a"></use><path stroke="#323232" stroke-linecap="round" stroke-linejoin="round" stroke-width="1.5" d="M14.784 17.544l.86-.86 4.01385e-08-4.03154e-08c.412926-.414746.412926-1.08525-8.0277e-08-1.5l-5.944-5.952 -2.83429e-08-2.82186e-08c-.414746-.412926-1.08525-.412926-1.5 5.64371e-08l-3.242 3.235 2.84049e-08-2.853e-08c-.412926.414746-.412926 1.08525-5.68097e-08 1.5l3.911 3.912 1.10611e-09 1.09715e-09c.415197.411833 1.0848.411833 1.5-2.1943e-09l1.279-1.28 1.835 1.1 -6.26211e-08-3.80002e-08c.417746.253499.954505.18955 1.301-.155Z"></path><path stroke="#323232" stroke-linecap="round" stroke-linejoin="round" stroke-width="1.5" d="M13.161 12.7l3.612-3.613 2.36 2.607 -4.70068e-08-4.68884e-08c.414519.413475 1.08548.413475 1.5 9.37769e-08l.616-.616 4.22718e-09-4.2073e-09c.324225-.3227.404859-.816989.2-1.226l-1.478-3.9 -2.159-2.16 1.92211e-08 1.92129e-08c-.460387-.46019-1.20661-.46019-1.667-3.84258e-08l-5.951 5.951"></path><path stroke="#323232" stroke-linecap="round" stroke-linejoin="round" stroke-width="1.5" d="M5.462 14.474l-2.679 2.68 -1.19196e-07 1.19045e-07c-.460329.459746-.460802 1.20561-.00105652 1.66594 .000352029.000352476.000704282.000704729.00105676.00105676l1.279 1.279 -8.9352e-08-8.94654e-08c.459746.460329 1.20561.460803 1.66594.00105694 .000352476-.000352029.000704729-.000704282.00105676-.00105676h.029l2.665-2.665"></path><use xlink:href="#a"></use></g></svg>