<?xml version="1.0" encoding="UTF-8"?><svg version="1.1" viewBox="0 0 24 24" xmlns="http://www.w3.org/2000/svg" xmlns:xlink="http://www.w3.org/1999/xlink"><g fill="none"><path d="M0 0h24v24h-24Z"></path><path stroke="#323232" stroke-linecap="round" stroke-linejoin="round" stroke-width="1.5" d="M17.5 11l-1.96701e-07-3.55271e-15c-2.48528-1.08635e-07-4.5-2.01472-4.5-4.5 1.08635e-07-2.48528 2.01472-4.5 4.5-4.5 2.48528 1.08635e-07 4.5 2.01472 4.5 4.5l7.10543e-15-1.96701e-07c0 2.48528-2.01472 4.5-4.5 4.5"></path><path stroke="#323232" stroke-linecap="round" stroke-linejoin="round" stroke-width="1.5" d="M13.231 5.077l-2.89277e-07 3.75616e-08c-.189743.0246375-.377772.061041-.563.109l-.954.268 5.49819e-08-1.54228e-08c-.470585.132002-.968415.132002-1.439 3.08456e-08l-.954-.268 3.52349e-07 9.85186e-08c-2.64879-.740614-5.39644.806265-6.13705 3.45505 -.121875.435883-.183761.886347-.183947 1.33895v.093l9.44297e-08-7.90654e-05c-.00367681 3.0741.614721 6.11717 1.81797 8.94601l.328.77 1.88467e-08 4.43077e-08c.312335.734284 1.03308 1.211 1.83103 1.21107v0l-1.70654e-08 8.30624e-12c.815126-.000396712 1.54768-.497613 1.849-1.255l.949-2.39 -2.89711e-08 7.36163e-08c.264946-.673235 1.02549-1.00422 1.69873-.739272 .33834.133151.606121.400932.739272.739272l.949 2.39 -6.89967e-08-1.73254e-07c.301684.757544 1.03459 1.25474 1.85 1.255v0l4.29198e-08-4.11049e-12c.797923-7.64414e-05 1.51865-.476755 1.831-1.211l.328-.77 -6.30322e-07 1.48693e-06c1.11295-2.62546 1.72351-5.43641 1.8-8.287"></path><line x1="17.5" x2="17.5" y1="5" y2="8" stroke="#323232" stroke-linecap="round" stroke-linejoin="round" stroke-width="1.5"></line><line x1="19" x2="16" y1="6.5" y2="6.5" stroke="#323232" stroke-linecap="round" stroke-linejoin="round" stroke-width="1.5"></line></g></svg>