<?xml version="1.0" encoding="UTF-8"?><svg version="1.1" viewBox="0 0 24 24" xmlns="http://www.w3.org/2000/svg" xmlns:xlink="http://www.w3.org/1999/xlink"><g stroke-linecap="round" stroke-width="1.5" stroke="#323232" fill="none" stroke-linejoin="round"><line x1="10.12" x2="17" y1="8.5" y2="8.5"></line><line x1="16" x2="10.12" y1="12" y2="12"></line><line x1="10.12" x2="11" y1="15.5" y2="15.5"></line><path d="M13 21h-5l-2.18557e-07-7.10543e-15c-2.76142-1.20706e-07-5-2.23858-5-5 0 0 0-1.77636e-15 0-1.77636e-15v-8l5.68434e-14 7.54979e-07c-4.16963e-07-2.76142 2.23858-5 5-5h8l-2.18557e-07 5.32907e-15c2.76142-1.20706e-07 5 2.23858 5 5v4"></path><path d="M19.434 20.516l9.93084e-08-9.92328e-08c-.310367.310131-.731241.484236-1.17.484v0l4.80483e-08-1.83675e-12c-.438715 1.67688e-05-.859509-.174055-1.17-.484l-1.988-1.984 -3.52919e-08-3.64639e-08c-.799685-.826241-.778158-2.14431.0480833-2.944 .807222-.781278 2.08869-.781278 2.89592 7.05839e-08l.21.209 .21-.209 1.86238e-08-1.80252e-08c.826241-.799685 2.14431-.778158 2.944.0480833 .781278.807222.781278 2.08869-3.60505e-08 2.89592Z"></path><path d="M7.311 11.75l4.62141e-09-1.84848e-11c-.13807.000552282-.24955.112928-.248998.250998 .000552282.13807.112928.24955.250998.248998 .137679-.000550718.248999-.112316.249-.249996l7.20102e-09-1.7803e-06c.000555747-.137518-.110474-.249448-.247992-.250004 -.00100337-4.05487e-06-.00200675-2.04494e-06-.00301009 6.02968e-06"></path><path d="M7.311 8.25l4.62141e-09-1.84848e-11c-.13807.000552282-.24955.112928-.248998.250998 .000552282.13807.112928.24955.250998.248998 .137679-.000550718.248999-.112316.249-.249996l7.20102e-09-1.7803e-06c.000555747-.137518-.110474-.249448-.247992-.250004 -.00100337-4.05487e-06-.00200675-2.04494e-06-.00301009 6.02968e-06"></path><path d="M7.311 15.25l4.62141e-09-1.84848e-11c-.13807.000552282-.24955.112928-.248998.250998 .000552282.13807.112928.24955.250998.248998 .137679-.000550718.248999-.112316.249-.249996l7.20102e-09-1.7803e-06c.000555747-.137518-.110474-.249448-.247992-.250004 -.00100337-4.05487e-06-.00200675-2.04494e-06-.00301009 6.02968e-06"></path></g><rect width="24" height="24" fill="none"></rect></svg>