<?xml version="1.0" encoding="UTF-8"?><svg version="1.1" viewBox="0 0 24 24" xmlns="http://www.w3.org/2000/svg" xmlns:xlink="http://www.w3.org/1999/xlink"><!--Generated by IJSVG (https://github.com/iconjar/IJSVG)--><g stroke-linecap="round" stroke-width="1.5" stroke="#323232" fill="none" stroke-linejoin="round"><path d="M8,4l-1.5,1.5"></path><path d="M6.5,2.5l1.5,1.5"></path><path d="M8,4h-2c-1.657,0 -3,1.343 -3,3"></path><path d="M16,20l1.5,-1.5"></path><path d="M17.5,21.5l-1.5,-1.5"></path><path d="M16,20h2c1.657,0 3,-1.343 3,-3"></path><path d="M10.153,6.153c0.142,-0.187 0.288,-0.372 0.458,-0.542c2.139,-2.139 5.639,-2.139 7.778,0c2.139,2.139 2.139,5.639 0,7.778c-0.171,0.171 -0.358,0.314 -0.547,0.453"></path><path d="M9.5,20c3.025,0 5.501,-2.475 5.501,-5.499c0,-3.024 -2.476,-5.501 -5.501,-5.501c-3.025,0 -5.499,2.475 -5.499,5.501c0,1.234 0.417,2.372 1.109,3.292c1.006,1.336 2.6,2.207 4.39,2.207"></path><path d="M9.5,12.251v-0.5"></path><path d="M9.5,16.751v0.5"></path><path d="M8.198,16.214c0.194,0.318 0.526,0.538 0.927,0.538h0.375h0.447c0.582,0 1.053,-0.472 1.053,-1.053c0,-0.483 -0.329,-0.904 -0.797,-1.022l-1.406,-0.353c-0.468,-0.117 -0.797,-0.538 -0.797,-1.021c0,-0.582 0.472,-1.053 1.053,-1.053h0.447h0.375c0.4,0 0.731,0.219 0.925,0.536"></path></g><path fill="none" d="M0,0h24v24h-24Z"></path></svg>