<svg id="Layer_3" data-name="Layer 3" xmlns="http://www.w3.org/2000/svg" viewBox="0 0 24 24"><rect width="24" height="24" fill="none"/><path d="M14.18748,9.5V7.625A.625.625,0,0,0,13.5625,7h-3.125a.625.625,0,0,0-.625.625V9.5" fill="none" stroke="#323232" stroke-linecap="round" stroke-linejoin="round" stroke-width="1.5"/><line x1="16.44444" y1="9.5" x2="7.55556" y2="9.5" fill="none" stroke="#323232" stroke-linecap="round" stroke-linejoin="round" stroke-width="1.5"/><path d="M15.7019,9.5l-.48809,6.34583A1.25,1.25,0,0,1,13.96747,17H10.03253a1.25,1.25,0,0,1-1.24634-1.15417L8.2981,9.5" fill="none" stroke="#323232" stroke-linecap="round" stroke-linejoin="round" stroke-width="1.5"/><path d="M3,16V8A5.00054,5.00054,0,0,1,8,3h8a5.00054,5.00054,0,0,1,5,5v8a5.00054,5.00054,0,0,1-5,5H8A5.00054,5.00054,0,0,1,3,16Z" fill="none" stroke="#323232" stroke-linecap="round" stroke-linejoin="round" stroke-width="1.5"/></svg>