<svg id="Layer_3" data-name="Layer 3" xmlns="http://www.w3.org/2000/svg" viewBox="0 0 24 24"><path d="M15.54143,21H8.45857A2.25,2.25,0,0,1,6.2152,18.92257L5.25,6.375h13.5l-.9652,12.54757A2.25,2.25,0,0,1,15.54143,21Z" fill="none" stroke="#323232" stroke-linecap="round" stroke-linejoin="round" stroke-width="1.5"/><line x1="20" y1="6.375" x2="4" y2="6.375" fill="none" stroke="#323232" stroke-linecap="round" stroke-linejoin="round" stroke-width="1.5"/><path d="M9.1875,3h5.625a1.125,1.125,0,0,1,1.125,1.125v2.25a0,0,0,0,1,0,0H8.0625a0,0,0,0,1,0,0V4.125A1.125,1.125,0,0,1,9.1875,3Z" fill="none" stroke="#323232" stroke-linecap="round" stroke-linejoin="round" stroke-width="1.5"/><line x1="13.96875" y1="10.875" x2="13.96875" y2="16.5" fill="none" stroke="#323232" stroke-linecap="round" stroke-linejoin="round" stroke-width="1.5"/><line x1="10.03125" y1="10.875" x2="10.03125" y2="16.5" fill="none" stroke="#323232" stroke-linecap="round" stroke-linejoin="round" stroke-width="1.5"/><rect width="24" height="24" fill="none"/></svg>