<svg id="Layer_3" data-name="Layer 3" xmlns="http://www.w3.org/2000/svg" viewBox="0 0 24 24"><path d="M15.54143,21H8.45857A2.25,2.25,0,0,1,6.2152,18.92257L5.25,6.375h13.5l-.9652,12.54757A2.25,2.25,0,0,1,15.54143,21Z" fill="none" stroke="#323232" stroke-linecap="round" stroke-linejoin="round" stroke-width="1.5"/><line x1="20" y1="6.375" x2="4" y2="6.375" fill="none" stroke="#323232" stroke-linecap="round" stroke-linejoin="round" stroke-width="1.5"/><path d="M9.18749,3h5.625a1.125,1.125,0,0,1,1.125,1.125v2.25a0,0,0,0,1,0,0h-7.875a0,0,0,0,1,0,0V4.125A1.125,1.125,0,0,1,9.18749,3Z" fill="none" stroke="#323232" stroke-linecap="round" stroke-linejoin="round" stroke-width="1.5"/><line x1="10.5" y1="12.15812" x2="13.5" y2="14.84188" fill="none" stroke="#323232" stroke-linecap="round" stroke-linejoin="round" stroke-width="1.5"/><line x1="10.65812" y1="15" x2="13.34188" y2="12" fill="none" stroke="#323232" stroke-linecap="round" stroke-linejoin="round" stroke-width="1.5"/><rect width="24" height="24" fill="none"/></svg>