<?xml version="1.0" encoding="UTF-8"?><svg version="1.1" viewBox="0 0 24 24" xmlns="http://www.w3.org/2000/svg" xmlns:xlink="http://www.w3.org/1999/xlink"><g fill="none"><path d="M0 0h24v24h-24v-24Z"></path><path stroke="#323232" stroke-linecap="round" stroke-linejoin="round" stroke-width="1.5" d="M6.828 19.828l-2.657-2.657c-.75-.75-1.171-1.767-1.171-2.828v-4.686c0-1.061.421-2.078 1.172-2.828l2.657-2.657c.75-.751 1.767-1.172 2.828-1.172h4.685c1.061 0 2.078.421 2.828 1.172l2.658 2.658c.751.75 1.172 1.767 1.172 2.828v4.684c0 1.061-.421 2.078-1.171 2.828l-2.657 2.658c-.75.75-1.768 1.172-2.829 1.172h-4.686c-1.061 0-2.078-.421-2.829-1.172Z"></path><path stroke="#323232" stroke-linecap="round" stroke-linejoin="round" stroke-width="1.5" d="M8 9.934h8"></path><path stroke="#323232" stroke-linecap="round" stroke-linejoin="round" stroke-width="1.5" d="M10.25 9.934v-1.5c0-.552.392-1 .875-1h1.75c.483 0 .875.448.875 1v1.5"></path><path stroke="#323232" stroke-linecap="round" stroke-linejoin="round" stroke-width="1.5" d="M8.875 9.934v5.75c0 .552.448 1 1 1h4.25c.552 0 1-.448 1-1v-5.75"></path></g></svg>