<?xml version="1.0" encoding="UTF-8"?><svg version="1.1" viewBox="0 0 24 24" xmlns="http://www.w3.org/2000/svg" xmlns:xlink="http://www.w3.org/1999/xlink"><g fill="none"><path d="M0 0h24v24h-24Z"></path><path stroke="#323232" stroke-linecap="round" stroke-linejoin="round" stroke-width="1.5" d="M12 3l4.56955e-07 5.90294e-10c-4.97056-.00642111-9.0052 4.01781-9.01162 8.98837 -.00642111 4.97056 4.01781 9.0052 8.98837 9.01162 4.97056.00642111 9.0052-4.01781 9.01162-8.98837 .00425898-3.29686-1.79445-6.33219-4.68837-7.91162"></path><path stroke="#323232" stroke-linecap="round" stroke-linejoin="round" stroke-width="1.5" d="M8 9.934h8"></path><path stroke="#323232" stroke-linecap="round" stroke-linejoin="round" stroke-width="1.5" d="M10.25 9.934v-1.5l-2.94575e-08-4.75299e-07c-.0320372-.516925.358397-.963135.875001-1h1.75l-3.71204e-08-2.64888e-09c.516603.0368643.907038.483075.875 1v1.5"></path><path stroke="#323232" stroke-linecap="round" stroke-linejoin="round" stroke-width="1.5" d="M8.875 9.934v5.75l1.06581e-14 1.50996e-07c8.33927e-08.552285.447715 1 1 1h4.25 -4.37114e-08c.552285 2.41411e-08 1-.447715 1-1v-5.75"></path><polyline stroke="#323232" stroke-linecap="round" stroke-linejoin="round" stroke-width="1.5" points="19.197,3.576 16.304,3.576 16.304,6.469"></polyline></g></svg>