<?xml version="1.0" encoding="UTF-8"?><svg version="1.1" viewBox="0 0 24 24" xmlns="http://www.w3.org/2000/svg" xmlns:xlink="http://www.w3.org/1999/xlink"><!--Generated by IJSVG (https://github.com/iconjar/IJSVG)--><g stroke-linecap="round" stroke-width="1.5" stroke="#323232" fill="none" stroke-linejoin="round"><path d="M5.25,12h3.129c1.171,0 2.121,-0.95 2.121,-2.121v0c0,-0.563 -0.223,-1.102 -0.621,-1.5l-1.841,-1.841"></path><path d="M16.719,16.828l-1.333,-1.999c-0.241,-0.362 -0.647,-0.579 -1.082,-0.579v0c-0.493,0 -0.943,-0.278 -1.163,-0.719l-0.1,-0.199c-0.183,-0.366 -0.183,-0.797 0,-1.163l0.85,-1.699c0.22,-0.441 0.671,-0.719 1.163,-0.719h3.306"></path><path d="M12,5.25c3.737,0 6.75,3.013 6.75,6.75c0,3.737 -3.013,6.75 -6.75,6.75"></path><path d="M12,18.75c-3.737,0 -6.75,-3.013 -6.75,-6.75c0,-3.737 3.013,-6.75 6.75,-6.75"></path><path d="M4.59,5.673c0.5,-0.585 1.069,-1.106 1.692,-1.558"></path><path d="M17.417,20.106c-1.55,1.037 -3.412,1.644 -5.417,1.644c-0.988,0 -1.94,-0.15 -2.839,-0.423"></path><path d="M5.878,19.583c-1.388,-1.122 -2.454,-2.618 -3.061,-4.333"></path><path d="M2.817,8.75c-0.361,1.018 -0.567,2.109 -0.567,3.25"></path><path d="M20.085,17.417c1.044,-1.55 1.665,-3.407 1.665,-5.417c0,-5.385 -4.365,-9.75 -9.75,-9.75"></path></g><path fill="none" d="M0,0h24v24h-24Z"></path></svg>