<svg id="Layer_3" data-name="Layer 3" xmlns="http://www.w3.org/2000/svg" viewBox="0 0 24 24"><path d="M0,0H24V24H0Z" fill="none"/><path d="M19.264,18.434V21a1,1,0,0,1-1,1h-2a1,1,0,0,1-1-1V19.5" fill="none" stroke="#323232" stroke-linecap="round" stroke-linejoin="round" stroke-width="1.5"/><path d="M8.736,19.5V21a1,1,0,0,1-1,1h-2a1,1,0,0,1-1-1V18.434" fill="none" stroke="#323232" stroke-linecap="round" stroke-linejoin="round" stroke-width="1.5"/><path d="M19.5,12.5H21a1,1,0,0,0,1-1v-3a1,1,0,0,0-1-1H19.23183" fill="none" stroke="#323232" stroke-linecap="round" stroke-linejoin="round" stroke-width="1.5"/><path d="M4.5,12.5H3a1,1,0,0,1-1-1v-3a1,1,0,0,1,1-1H4.76956" fill="none" stroke="#323232" stroke-linecap="round" stroke-linejoin="round" stroke-width="1.5"/><path d="M19,7.178V4.1a1.6,1.6,0,0,0-1.6-1.6H6.6A1.6,1.6,0,0,0,5,4.1V7.178" fill="none" stroke="#323232" stroke-linecap="round" stroke-linejoin="round" stroke-width="1.5"/><path d="M4.5,12.5a56.49972,56.49972,0,0,0,15,0" fill="none" stroke="#323232" stroke-linecap="round" stroke-linejoin="round" stroke-width="1.5"/><line x1="16.884" y1="16" x2="15" y2="16" fill="none" stroke="#323232" stroke-linecap="round" stroke-linejoin="round" stroke-width="1.5"/><line x1="9" y1="16" x2="7" y2="16" fill="none" stroke="#323232" stroke-linecap="round" stroke-linejoin="round" stroke-width="1.5"/><rect x="4.5" y="6.5" width="15" height="13" rx="2" stroke-width="1.5" stroke="#323232" stroke-linecap="round" stroke-linejoin="round" fill="none"/></svg>