<?xml version="1.0" encoding="UTF-8"?><svg version="1.1" viewBox="0 0 24 24" xmlns="http://www.w3.org/2000/svg" xmlns:xlink="http://www.w3.org/1999/xlink"><!--Generated by IJSVG (https://github.com/iconjar/IJSVG)--><path d="M7.5,3h9.004c2.483,0 4.496,2.013 4.496,4.496v9.009c0,2.482 -2.013,4.495 -4.496,4.495h-9.008c-2.483,0 -4.496,-2.013 -4.496,-4.496v-9.004c0,-2.485 2.015,-4.5 4.5,-4.5Z" stroke-linecap="round" stroke-width="1.5" fill-rule="evenodd" stroke="#323232" fill="none" stroke-linejoin="round"></path><path fill="none" stroke="#323232" stroke-linecap="round" stroke-linejoin="round" stroke-width="1.5" d="M11.1,7.759v0.641c0,0.994 -0.806,1.8 -1.8,1.8h0.173h-0.173h4.95"></path><path d="M14.25,15.87c-0.365,0.365 -0.87,0.591 -1.427,0.591c-0.951,0 -1.723,-0.771 -1.723,-1.723v-0.038v-7.2" stroke-linecap="round" stroke-width="1.5" stroke="#323232" fill="none" stroke-linejoin="round"></path><path fill="none" d="M0,0h24v24h-24Z" transform="matrix(6.12323e-17,-1,1,6.12323e-17,0,24)"></path></svg>