<?xml version="1.0" encoding="UTF-8"?><svg version="1.1" viewBox="0 0 24 24" xmlns="http://www.w3.org/2000/svg" xmlns:xlink="http://www.w3.org/1999/xlink"><!--Generated by IJSVG (https://github.com/iconjar/IJSVG)--><defs><path d="M16,7v3" id="a"></path></defs><g stroke-linecap="round" stroke-width="1.5" stroke="#323232" fill="none" stroke-linejoin="round"><use xlink:href="#a"></use><use xlink:href="#a"></use><path d="M12,7v3"></path><path d="M19.707,13.293l-3.414,3.414c-0.188,0.188 -0.442,0.293 -0.707,0.293h-3.586l-4,4v-4h-3c-0.552,0 -1,-0.448 -1,-1v-8.586c0,-0.265 0.105,-0.52 0.293,-0.707l3.414,-3.414c0.188,-0.188 0.442,-0.293 0.707,-0.293h10.586c0.552,0 1,0.448 1,1v8.586c0,0.265 -0.105,0.519 -0.293,0.707Z"></path></g><path fill="none" d="M0,0h24v24h-24Z"></path></svg>