<?xml version="1.0" encoding="UTF-8"?><svg version="1.1" viewBox="0 0 24 24" xmlns="http://www.w3.org/2000/svg" xmlns:xlink="http://www.w3.org/1999/xlink"><!--Generated by IJSVG (https://github.com/iconjar/IJSVG)--><g fill="none"><path d="M0,24v-24h24v24h-24Z"></path><path stroke="#323232" stroke-linecap="round" stroke-linejoin="round" stroke-width="1.5" d="M7.5,3h9.004c2.483,0 4.496,2.013 4.496,4.496v9.009c0,2.482 -2.013,4.495 -4.496,4.495h-9.008c-2.483,0 -4.496,-2.013 -4.496,-4.496v-9.004c0,-2.485 2.015,-4.5 4.5,-4.5Z"></path><path stroke="#323232" stroke-linecap="round" stroke-linejoin="round" stroke-width="1.5" d="M17.05,10.55c0,4.2 -2.4,7.2 -6.6,7.2c-2.4,0 -3.362,-1.253 -4.2,-2.4m-8.88178e-16,0c0.019,-0.003 1.8,-0.6 1.8,-0.6c-2.004,-2.026 -2.156,-5.027 -0.6,-7.2c0.738,1.373 2.116,2.639 3.6,3c0.057,-1.733 1.233,-3 3,-3c1.203,0 1.911,0.459 2.4,1.2h1.8l-1.2,1.8"></path></g></svg>