<svg viewBox="0 0 24 24" xmlns="http://www.w3.org/2000/svg"><g fill="none"><path d="M0 0h24v24H0Z"/><g stroke-linecap="round" stroke-width="1.5" stroke="#323232" fill="none" stroke-linejoin="round"><path d="M16.4 3.18a2.15 2.08 0 1 0 0 4.16 2.15 2.08 0 1 0 0-4.17Z"/><path d="M4.3 9.91a2.15 2.08 0 1 0 0 4.16 2.15 2.08 0 1 0 0-4.17Z"/><path d="M16.41 16.65a2.15 2.08 0 1 0 0 4.16 2.15 2.08 0 1 0 0-4.17Z"/><path d="M14.41 4.48l0 0c-1.34-.34-2.73-.35-4.06-.02"/><path d="M18.1 6.53l-.01-.01c.96.93 1.66 2.09 2.03 3.38"/><path d="M4.6 14.05l0 0c.36 1.28 1.06 2.45 2.01 3.39"/><path d="M4.6 9.94l-.01 0c.36-1.29 1.06-2.46 2.01-3.4"/><path d="M18.1 17.45l0-.01c.96-.94 1.66-2.1 2.03-3.39"/><path d="M14.42 19.51l-.01 0c-1.34.33-2.73.34-4.06.01"/></g></g></svg>