<?xml version="1.0" encoding="UTF-8"?><svg version="1.1" viewBox="0 0 24 24" xmlns="http://www.w3.org/2000/svg" xmlns:xlink="http://www.w3.org/1999/xlink"><g transform="matrix(1 0 0 1 0 24)"><rect width="24" height="24" fill="none" transform="matrix(6.12323e-17 -1 1 6.12323e-17 0 0)"></rect></g><g stroke-linecap="round" stroke-width="1.5" stroke="#323232" fill="none" stroke-linejoin="round"><path d="M4 4l2.05207e-07 1.95449e-07c3.86599 3.68217 4.01501 9.80116.33285 13.6672 -.108232.113635-.219215.224618-.33285.33285"></path><path d="M20 18l1.72987e-08 1.64762e-08c-3.86599-3.68217-4.01502-9.80116-.33285-13.6671 .108232-.113635.219215-.224618.33285-.33285"></path><line x1="17" x2="7" y1="11" y2="11"></line><line x1="12" x2="12" y1="4" y2="15"></line><circle cx="12" cy="17.5" r="2.5"></circle></g></svg>