<svg id="Layer_3" data-name="Layer 3" xmlns="http://www.w3.org/2000/svg" viewBox="0 0 24 24"><rect width="24" height="24" fill="none"/><line x1="18" y1="12" x2="17.5" y2="12" fill="none" stroke="#323232" stroke-linecap="round" stroke-linejoin="round" stroke-width="1.5"/><line x1="6.5" y1="12" x2="6" y2="12" fill="none" stroke="#323232" stroke-linecap="round" stroke-linejoin="round" stroke-width="1.5"/><line x1="16.24264" y1="7.75736" x2="15.88909" y2="8.11091" fill="none" stroke="#323232" stroke-linecap="round" stroke-linejoin="round" stroke-width="1.5"/><path d="M12.5,17.5h-1a2,2,0,0,1-2-2v-2A.5.5,0,0,1,10,13h4a.5.5,0,0,1,.5.5v2A2,2,0,0,1,12.5,17.5Z" fill="none" stroke="#323232" stroke-linecap="round" stroke-linejoin="round" stroke-width="1.5"/><path d="M11,10h2a.5.5,0,0,1,.5.5V13a0,0,0,0,1,0,0h-3a0,0,0,0,1,0,0V10.5A.5.5,0,0,1,11,10Z" fill="none" stroke="#323232" stroke-linecap="round" stroke-linejoin="round" stroke-width="1.5"/><path d="M12,17.5v3.23969a.25808.25808,0,0,1-.26183.25657A9.02186,9.02186,0,1,1,16,20.05341" fill="none" stroke="#323232" stroke-linecap="round" stroke-linejoin="round" stroke-width="1.5"/><line x1="7.75736" y1="7.75736" x2="8.11091" y2="8.11091" fill="none" stroke="#323232" stroke-linecap="round" stroke-linejoin="round" stroke-width="1.5"/><line x1="12" y1="6" x2="12" y2="6.5" fill="none" stroke="#323232" stroke-linecap="round" stroke-linejoin="round" stroke-width="1.5"/></svg>