<svg id="Layer_3" data-name="Layer 3" xmlns="http://www.w3.org/2000/svg" viewBox="0 0 24 24"><path d="M24,24H0V0H24Z" fill="none"/><path d="M10.5,7h3a.5.5,0,0,1,.5.5V10a0,0,0,0,1,0,0H10a0,0,0,0,1,0,0V7.5A.5.5,0,0,1,10.5,7Z" fill="none" stroke="#323232" stroke-linecap="round" stroke-linejoin="round" stroke-width="1.5"/><path d="M3,12a9,9,0,0,1,18,0" fill="none" stroke="#323232" stroke-linecap="round" stroke-linejoin="round" stroke-width="1.5"/><circle cx="19" cy="18.50001" r="3" fill="none" stroke="#323232" stroke-linecap="round" stroke-linejoin="round" stroke-width="1.5"/><path d="M12,15v4.9303a1.0066,1.0066,0,0,1-1.12465.99969A9.03456,9.03456,0,0,1,3,12" fill="none" stroke="#323232" stroke-linecap="round" stroke-linejoin="round" stroke-width="1.5"/><path d="M12.6,15H11.4A2.4,2.4,0,0,1,9,12.6v-2a.6.6,0,0,1,.6-.6h4.8a.6.6,0,0,1,.6.6v2A2.4,2.4,0,0,1,12.6,15Z" fill="none" stroke="#323232" stroke-linecap="round" stroke-linejoin="round" stroke-width="1.5"/></svg>