<svg id="Layer_3" data-name="Layer 3" xmlns="http://www.w3.org/2000/svg" viewBox="0 0 24 24"><path d="M24,0H0V24H24Z" fill="none"/><rect width="24" height="24" fill="none"/><path d="M0,0H24V24H0Z" fill="none"/><path d="M7,17a2.5,2.5,0,0,1,2.5-2.5H11" fill="none" stroke="#323232" stroke-linecap="round" stroke-linejoin="round" stroke-width="1.4824"/><circle cx="12" cy="9.5" r="2.5" fill="none" stroke="#323232" stroke-linecap="round" stroke-linejoin="round" stroke-width="1.5"/><path d="M11,21H8a5,5,0,0,1-5-5V8A5,5,0,0,1,8,3h8a5,5,0,0,1,5,5v4" fill="none" stroke="#323232" stroke-linecap="round" stroke-linejoin="round" stroke-width="1.5"/><path d="M17.5,15.82432a6.22787,6.22787,0,0,1,2.9861-.82385A.49961.49961,0,0,1,21,15.5017v4.04924a.61283.61283,0,0,1-.57886.61874A5.75486,5.75486,0,0,0,17.5,21" fill="none" stroke="#323232" stroke-linecap="round" stroke-linejoin="round" stroke-width="1.5"/><path d="M17.5,15.82432a6.22787,6.22787,0,0,0-2.9861-.82385A.49961.49961,0,0,0,14,15.5017V19.669a.50434.50434,0,0,0,.49905.4982A5.78859,5.78859,0,0,1,17.5,21" fill="none" stroke="#323232" stroke-linecap="round" stroke-linejoin="round" stroke-width="1.5"/><line x1="17.5" y1="15.82432" x2="17.5" y2="21.00001" fill="none" stroke="#323232" stroke-linecap="round" stroke-linejoin="round" stroke-width="1.5"/></svg>