<svg id="Layer_3" data-name="Layer 3" xmlns="http://www.w3.org/2000/svg" viewBox="0 0 24 24"><path d="M0,24V0H24V24" fill="none"/><path d="M16.55558,2h0A5.44444,5.44444,0,0,1,22,7.44446h0" fill="none" stroke="#323232" stroke-linecap="round" stroke-linejoin="round" stroke-width="1.5"/><path d="M16.55558,5h0A2.44444,2.44444,0,0,1,19,7.44446h0" fill="none" stroke="#323232" stroke-linecap="round" stroke-linejoin="round" stroke-width="1.5"/><path d="M0,24V0H24V24" fill="none"/><path d="M12,3h-.5A8.5,8.5,0,0,0,3,11.5v0A9.5,9.5,0,0,0,12.5,21h0A8.5,8.5,0,0,0,21,12.5V12" fill="none" stroke="#323232" stroke-linecap="round" stroke-linejoin="round" stroke-width="1.5"/><path d="M0,24V0H24V24" fill="none"/><path d="M16.55558,2h0A5.44444,5.44444,0,0,1,22,7.44446h0" fill="none" stroke="#323232" stroke-linecap="round" stroke-linejoin="round" stroke-width="1.5"/><path d="M16.55558,5h0A2.44444,2.44444,0,0,1,19,7.44446h0" fill="none" stroke="#323232" stroke-linecap="round" stroke-linejoin="round" stroke-width="1.5"/><path d="M0,24V0H24V24" fill="none"/><path d="M12,3h-.5A8.5,8.5,0,0,0,3,11.5v0A9.5,9.5,0,0,0,12.5,21h0A8.5,8.5,0,0,0,21,12.5V12" fill="none" stroke="#323232" stroke-linecap="round" stroke-linejoin="round" stroke-width="1.5"/><path d="M7.5,16a2.49821,2.49821,0,0,1,2.28894-1.5h4.42212A2.49821,2.49821,0,0,1,16.5,16" fill="none" stroke="#323232" stroke-linecap="round" stroke-linejoin="round" stroke-width="1.5"/><circle cx="12" cy="9.5" r="2.5" fill="none" stroke="#323232" stroke-linecap="round" stroke-linejoin="round" stroke-width="1.5"/></svg>