<?xml version="1.0" encoding="UTF-8"?><svg version="1.1" viewBox="0 0 24 24" xmlns="http://www.w3.org/2000/svg" xmlns:xlink="http://www.w3.org/1999/xlink"><!--Generated by IJSVG (https://github.com/iconjar/IJSVG)--><g fill="none"><path d="M0,0h24v24h-24Z"></path><path stroke="#323232" stroke-linecap="round" stroke-linejoin="round" stroke-width="1.5" d="M12,16.001h-2.508c-0.756,0 -1.484,0.286 -2.039,0.799l-0.064,0.06c-0.352,0.326 -0.626,0.726 -0.804,1.172l-0.35,0.879"></path><path stroke="#323232" stroke-linecap="round" stroke-linejoin="round" stroke-width="1.5" d="M13.186,13.186c1.345,-0.485 2.314,-1.751 2.314,-3.265c0,-1.933 -1.567,-3.501 -3.501,-3.501c-1.514,0 -2.78,0.969 -3.265,2.315"></path><path stroke="#323232" stroke-linecap="round" stroke-linejoin="round" stroke-width="1.5" d="M3.96,7.961c-1.695,3.374 -1.141,7.589 1.675,10.405c2.817,2.817 7.033,3.37 10.407,1.674"></path><path stroke="#323232" stroke-linecap="round" stroke-linejoin="round" stroke-width="1.5" d="M5.634,5.635c0,0 0,0 0,0c3.516,-3.516 9.216,-3.516 12.731,0c3.515,3.515 3.515,9.214 0.001,12.73"></path><path stroke="#323232" stroke-linecap="round" stroke-linejoin="round" stroke-width="1.5" d="M20,20l-16,-16"></path></g></svg>