<svg viewBox="0 0 24 24" xmlns="http://www.w3.org/2000/svg"><g stroke-linecap="round" stroke-width="1.5" stroke="#323232" fill="none" stroke-linejoin="round"><path d="M12 7.5l-.01 0c1.22-.01 2.22.99 2.22 2.22 0 1.22-1 2.22-2.23 2.22s-2.23-1-2.23-2.23l-.01 0c0-1.23.99-2.23 2.22-2.23"/><path d="M16 15.5l-.01-.01c-.12-.3-.3-.56-.53-.77v0l-.01-.01c-.39-.37-.91-.57-1.44-.57H9.93l0-.001c-.54 0-1.05.2-1.44.56v0l0-.01c-.24.21-.42.47-.53.76"/><path d="M17.65 6.34l0 0c3.12 3.12 3.12 8.18 0 11.31 -3.13 3.12-8.19 3.12-11.32 0C3.2 14.52 3.2 9.46 6.32 6.33c0-.01 0-.01 0-.01l-.01 0c3.12-3.13 8.18-3.13 11.31-.01"/><path d="M12 21v-2"/><path d="M12 3v2"/><path d="M5 12H3"/><path d="M21 12h-2"/></g><path fill="none" d="M0 0h24v24H0Z"/></svg>