<svg id="Layer_3" data-name="Layer 3" xmlns="http://www.w3.org/2000/svg" viewBox="0 0 24 24"><path d="M24,24H0V0H24Z" fill="none"/><path d="M21,11V8a5,5,0,0,0-5-5H8A5,5,0,0,0,3,8v8a5,5,0,0,0,5,5h4" fill="none" stroke="#323232" stroke-linecap="round" stroke-linejoin="round" stroke-width="1.5"/><path d="M12,14H10a2,2,0,0,0-2,2H8" fill="none" stroke="#323232" stroke-linecap="round" stroke-linejoin="round" stroke-width="1.5"/><circle cx="12" cy="9.25" r="2.25" fill="none" stroke="#323232" stroke-linecap="round" stroke-linejoin="round" stroke-width="1.5"/><path d="M17.61743,21.00584h0a3.84152,3.84152,0,0,1-3.08812-3.76692V15.99106a1.94443,1.94443,0,0,1,1.94444-1.94444h3.11111a1.94444,1.94444,0,0,1,1.94445,1.94444v1.24785a3.84151,3.84151,0,0,1-3.088,3.7669l-.00009,0A2.10018,2.10018,0,0,1,17.61743,21.00584Z" fill="none" stroke="#323232" stroke-linecap="round" stroke-linejoin="round" stroke-width="1.5"/></svg>