<svg id="Layer_3" data-name="Layer 3" xmlns="http://www.w3.org/2000/svg" viewBox="0 0 24 24"><path d="M24,24H0V0H24Z" fill="none"/><path d="M21,11V8a5,5,0,0,0-5-5H8A5,5,0,0,0,3,8v8a5,5,0,0,0,5,5h4" fill="none" stroke="#323232" stroke-linecap="round" stroke-linejoin="round" stroke-width="1.5"/><path d="M12,14H10a2,2,0,0,0-2,2H8" fill="none" stroke="#323232" stroke-linecap="round" stroke-linejoin="round" stroke-width="1.4824"/><circle cx="12" cy="9.25" r="2.25" fill="none" stroke="#323232" stroke-linecap="round" stroke-linejoin="round" stroke-width="1.5"/><path d="M15,17.99485c0,1.68345,2.11834,2.92958,3.06071,3.40083a.977.977,0,0,0,.87925-.00035c.9427-.47153,3.06-1.71478,3.06-3.40048l0-2.397a.51156.51156,0,0,0-.47315-.49441,4.98286,4.98286,0,0,1-2.45664-.91868.9723.9723,0,0,0-1.14038,0,4.98286,4.98286,0,0,1-2.45664.91868A.51156.51156,0,0,0,15,15.59783Z" fill="none" stroke="#323232" stroke-linecap="round" stroke-linejoin="round" stroke-width="1.5"/></svg>