<?xml version="1.0" encoding="UTF-8"?><svg version="1.1" viewBox="0 0 24 24" xmlns="http://www.w3.org/2000/svg" xmlns:xlink="http://www.w3.org/1999/xlink"><!--Generated by IJSVG (https://github.com/iconjar/IJSVG)--><g stroke-linecap="round" stroke-width="1.5" stroke="#323232" fill="none" stroke-linejoin="round"><path d="M17.763,18.91l-0.35,-0.879c-0.177,-0.446 -0.452,-0.846 -0.804,-1.172l-0.064,-0.059c-0.554,-0.514 -1.282,-0.8 -2.038,-0.8h-5.014c-0.756,0 -1.484,0.286 -2.039,0.799l-0.064,0.06c-0.352,0.326 -0.626,0.726 -0.804,1.172l-0.35,0.879"></path><path d="M14.4749,7.44713c1.36684,1.36684 1.36684,3.58291 0,4.94975c-1.36684,1.36684 -3.58291,1.36684 -4.94975,1.77636e-15c-1.36684,-1.36684 -1.36684,-3.58291 -1.77636e-15,-4.94975c1.36684,-1.36684 3.58291,-1.36684 4.94975,-8.88178e-16"></path><path d="M18.364,5.63604c3.51472,3.51472 3.51472,9.2132 0,12.7279c-3.51472,3.51472 -9.2132,3.51472 -12.7279,0c-3.51472,-3.51472 -3.51472,-9.2132 -1.77636e-15,-12.7279c3.51472,-3.51472 9.2132,-3.51472 12.7279,-1.77636e-15"></path></g><path fill="none" d="M0,0h24v24h-24Z"></path></svg>