<svg id="Layer_3" data-name="Layer 3" xmlns="http://www.w3.org/2000/svg" viewBox="0 0 24 24"><path d="M0,0H24V24H0Z" fill="none"/><path d="M14.0605,18.4395a1.49977,1.49977,0,1,1-2.121,0,1.49923,1.49923,0,0,1,2.121,0" fill="none" stroke="#323232" stroke-linecap="round" stroke-linejoin="round" stroke-width="1.5"/><path d="M19.5605,17.4395a1.49977,1.49977,0,1,1-2.121,0,1.49923,1.49923,0,0,1,2.121,0" fill="none" stroke="#323232" stroke-linecap="round" stroke-linejoin="round" stroke-width="1.5"/><path d="M4,18H4a3.98337,3.98337,0,0,1,4-4h3.11111" fill="none" stroke="#323232" stroke-linecap="round" stroke-linejoin="round" stroke-width="1.5"/><circle cx="11" cy="7.00001" r="4" fill="none" stroke="#323232" stroke-linecap="round" stroke-linejoin="round" stroke-width="1.5"/><path d="M14.4995,19.36937V14.90061a.99824.99824,0,0,1,.629-.928l3.5-1.4a.99949.99949,0,0,1,1.371.928v4.84955" fill="none" stroke="#323232" stroke-linecap="round" stroke-linejoin="round" stroke-width="1.5"/></svg>