<?xml version="1.0" encoding="UTF-8"?><svg version="1.1" viewBox="0 0 24 24" xmlns="http://www.w3.org/2000/svg" xmlns:xlink="http://www.w3.org/1999/xlink"><!--Generated by IJSVG (https://github.com/iconjar/IJSVG)--><g stroke-linecap="round" stroke-width="1.5" stroke="#323232" fill="none" stroke-linejoin="round"><path d="M6.245,21v0c0,-2.019 1.637,-3.656 3.656,-3.656h4.198c2.019,0 3.656,1.637 3.656,3.656v0"></path><path d="M14.4416,9.01136c1.34848,1.34848 1.34848,3.5348 0,4.88328c-1.34848,1.34848 -3.5348,1.34848 -4.88328,0c-1.34848,-1.34848 -1.34848,-3.5348 0,-4.88328c1.34848,-1.34848 3.5348,-1.34848 4.88328,0"></path><path d="M10,5h-5c-1.105,0 -2,0.895 -2,2v12c0,1.105 0.895,2 2,2h14c1.105,0 2,-0.895 2,-2v-12c0,-1.105 -0.895,-2 -2,-2h-5l-2,-2l-2,2Z"></path></g><path fill="none" d="M0,0h24v24h-24Z"></path></svg>