<svg id="Layer_3" data-name="Layer 3" xmlns="http://www.w3.org/2000/svg" viewBox="0 0 24 24"><path d="M24,0H0V24H24Z" fill="none"/><rect x="0.00002" y="0.00002" width="24" height="24" fill="none"/><path d="M0,0H24V24H0Z" fill="none"/><path d="M12,21H8a5,5,0,0,1-5-5V8A5,5,0,0,1,8,3h8a5,5,0,0,1,5,5v2.43422" fill="none" stroke="#323232" stroke-linecap="round" stroke-linejoin="round" stroke-width="1.5"/><circle cx="12" cy="9.50001" r="2.5" fill="none" stroke="#323232" stroke-linecap="round" stroke-linejoin="round" stroke-width="1.5"/><path d="M7,17H7a2.5,2.5,0,0,1,2.5-2.5H11" fill="none" stroke="#323232" stroke-linecap="round" stroke-linejoin="round" stroke-width="1.5"/><path d="M14.5,16.5c0,1.63851,1.788,3.38881,2.808,4.25435a1.09611,1.09611,0,0,0,1.383,0C19.712,19.88883,21.5,18.13853,21.5,16.5" fill="none" stroke="#323232" stroke-linecap="round" stroke-linejoin="round" stroke-width="1.5"/><path d="M18.001,16.24a.26.26,0,1,1-.261.26.25863.25863,0,0,1,.261-.26" fill="none" stroke="#323232" stroke-linecap="round" stroke-linejoin="round" stroke-width="1.5"/><path d="M14.5,16.5h0A3.5,3.5,0,0,1,18,13h0a3.5,3.5,0,0,1,3.5,3.5h0" fill="none" stroke="#323232" stroke-linecap="round" stroke-linejoin="round" stroke-width="1.5"/></svg>