<?xml version="1.0" encoding="UTF-8"?><svg version="1.1" viewBox="0 0 24 24" xmlns="http://www.w3.org/2000/svg" xmlns:xlink="http://www.w3.org/1999/xlink"><path d="M10.754 21h2.492l-6.05278e-09 2.93809e-12c.50322-.000244431.936357-.355543 1.035-.849l.564-2.821 3.89674e-08-1.94957e-07c.186861-.934881 1.00763-1.6079 1.961-1.608h.44l1.09872e-07 1.90126e-09c1.7438.0301753 3.24828-1.21768 3.541-2.937l-1.6706e-09 1.1598e-08c.208167-1.44518-.525747-2.86276-1.826-3.527l-1.25601e-07 1.0659e-07c1.02746-.87194 1.15354-2.41171.281599-3.43917 -.848362-.999679-2.3351-1.15019-3.3666-.340826l9.51527e-08 8.53732e-07c-.238587-2.14066-2.16734-3.68259-4.308-3.444 -1.81185.20194-3.24206 1.63215-3.444 3.444l1.05668e-07 8.29118e-08c-1.06017-.831859-2.59397-.646773-3.42583.413401 -.809365 1.03151-.658849 2.51824.340831 3.3666l-3.4931e-07 1.78585e-07c-1.42572.728899-2.15432 2.34987-1.753 3.9l1.72928e-08 6.11019e-08c.437117 1.5445 1.86324 2.59805 3.468 2.562h.44l-9.12455e-08-2.7649e-11c.953988.000289045 1.77497.674321 1.961 1.61l.564 2.821 7.12793e-09 3.56574e-08c.0986425.493457.53178.848756 1.035.849Z" stroke-linecap="round" stroke-width="1.5" stroke="#323232" fill="none" stroke-linejoin="round"></path><rect width="24" height="24" fill="none"></rect></svg>