<?xml version="1.0" encoding="UTF-8"?><svg version="1.1" viewBox="0 0 24 24" xmlns="http://www.w3.org/2000/svg" xmlns:xlink="http://www.w3.org/1999/xlink"><g stroke-linecap="round" stroke-width="1.5" stroke="#323232" fill="none" stroke-linejoin="round"><path d="M9 7l3.37508e-14 4.52987e-07c-2.50178e-07-1.65685 1.34315-3 3-3 1.65685-2.50178e-07 3 1.34315 3 3 0 0 0 2.66454e-15 0 2.66454e-15l-1.23638e-07 1.23638e-07c.828427-.828427 2.17157-.828428 3-7.33143e-07 1.61781e-07 1.6178e-07 3.24086e-07 3.24086e-07 4.85867e-07 4.85867e-07"></path><path d="M9 13l3.37508e-14 4.52987e-07c-2.50178e-07-1.65685 1.34315-3 3-3 1.65685-2.50178e-07 3 1.34315 3 3 0 0 0 1.77636e-15 0 1.77636e-15"></path><path d="M12 10l2.75918e-08.000406906c0-1.65708-1.34332-3.0004-3.0004-3.0004 -1.38528 0-2.59048.948377-2.91625 2.29481l-1.41894e-09 5.90752e-09c-.0612799.255129-.31778.412274-.572908.350994 -.0315824-.00758585-.0623037-.0183905-.0916817-.0322444l-1.43466e-07-5.82135e-08c-.8995-.364986-1.92457.0683239-2.28955.967824 -.265513.654352-.113634 1.40407.385614 1.9035l.68067.68067"></path><path d="M18 7l4.47994e-08 4.43912e-08c.652954.647004.810818 1.64276.39 2.46"></path><path d="M19.8 18.6v0l2.11282e-08-2.81709e-08c-1.13313 1.51084-2.91146 2.4-4.8 2.4h-6l-2.62268e-07-7.10543e-15c-1.88854-8.25509e-08-3.66687-.889165-4.8-2.4v0l4.65241e-07 6.20321e-07c-.778933-1.03858-1.2-2.30178-1.2-3.6h-4.9738e-14l2.30926e-14 3.01992e-07c-1.66785e-07-1.10457.89543-2 2-2h14l-8.74228e-08 1.77636e-15c1.10457-4.82823e-08 2 .89543 2 2v0l3.90799e-14-6.87979e-07c0 1.29822-.421067 2.56142-1.2 3.6Z"></path><path d="M19.9829 13.2681l2.16508e-07-2.96628e-07c.593478-.8131.914037-1.79335.91565-2.8v-.6 1.77636e-15c0-.331371-.268629-.6-.6-.6 0 0 0 0 0 0h-.60009l1.76952e-07-1.73005e-10c-2.23688.00218696-4.1751 1.55067-4.67113 3.73187"></path></g><path fill="none" d="M0 0h24v24h-24Z"></path></svg>