<svg viewBox="0 0 24 24" xmlns="http://www.w3.org/2000/svg"><g fill="none"><path d="M0 0h24v24H0Z"/><g stroke-linecap="round" stroke-width="1.5" stroke="#323232" fill="none" stroke-linejoin="round"><path d="M12 3v18"/><path d="M21.9 16.73l-4.96-9.96 0 0c-.13-.25-.43-.35-.68-.23 -.17.08-.28.25-.28.44V17.1l-.01 0c-.01.48.39.87.87.87 0 0 0-.001 0-.001h4.24l0-.001c.48-.01.87-.4.87-.88 -.01-.14-.04-.27-.1-.39Z"/><path d="M2.87 18h4.24l0-.001c.48-.01.87-.4.87-.88 -.001-.01-.01-.01-.01-.01V6.97l0-.01c0-.28-.23-.5-.5-.5 -.19 0-.37.1-.45.27l-4.96 9.95 -.01 0c-.22.43-.04.95.39 1.17 .12.06.25.09.38.09Z"/></g></g></svg>