<?xml version="1.0" encoding="UTF-8"?><svg version="1.1" viewBox="0 0 24 24" xmlns="http://www.w3.org/2000/svg" xmlns:xlink="http://www.w3.org/1999/xlink"><!--Generated by IJSVG (https://github.com/iconjar/IJSVG)--><g stroke-linecap="round" stroke-width="1.5" stroke="#323232" fill="none" stroke-linejoin="round"><path d="M20.811,17h-17.622c-0.657,0 -1.189,-0.532 -1.189,-1.189v-11.622c0,-0.657 0.532,-1.189 1.189,-1.189h17.622c0.657,0 1.189,0.532 1.189,1.189v11.622c0,0.657 -0.532,1.189 -1.189,1.189Z"></path><path d="M6.92,7.37v5.55"></path><path d="M6.92,10.15h3.69"></path><path d="M10.61,7.37v5.55"></path><path d="M15.235,12.918h-1.848v-5.545h1.848c1.021,0 1.848,0.828 1.848,1.848v1.848c0,1.022 -0.828,1.849 -1.848,1.849Z"></path><path d="M8,20h8"></path></g><path fill="none" d="M0,0h24v24h-24Z"></path></svg>