<?xml version="1.0" encoding="UTF-8"?><svg version="1.1" viewBox="0 0 24 24" xmlns="http://www.w3.org/2000/svg" xmlns:xlink="http://www.w3.org/1999/xlink"><!--Generated by IJSVG (https://github.com/iconjar/IJSVG)--><g stroke-linecap="round" stroke-width="1.5" stroke="#323232" fill="none" stroke-linejoin="round"><path d="M11,19h-6.3c-0.939,0 -1.7,-0.796 -1.7,-1.778v-12.444c0,-0.982 0.761,-1.778 1.7,-1.778h13.6c0.939,0 1.7,0.796 1.7,1.778v5.222"></path><path d="M3,7.444h17"></path><path d="M8.1,7.444l0.85,-4.444"></path><path d="M14.05,7.444l0.85,-4.444"></path><path d="M17.293,20.707l4.414,-4.414c0.391,-0.391 0.391,-1.024 0,-1.414l-1.586,-1.586c-0.391,-0.391 -1.024,-0.391 -1.414,0l-4.414,4.414c-0.188,0.188 -0.293,0.442 -0.293,0.707v2.586h2.586c0.265,0 0.519,-0.105 0.707,-0.293Z"></path></g><path fill="none" d="M0,0h24v24h-24v-24Z"></path></svg>