<?xml version="1.0" encoding="UTF-8"?><svg version="1.1" viewBox="0 0 24 24" xmlns="http://www.w3.org/2000/svg" xmlns:xlink="http://www.w3.org/1999/xlink"><!--Generated by IJSVG (https://github.com/iconjar/IJSVG)--><g stroke-linecap="round" stroke-width="1.5" stroke="#323232" fill="none" stroke-linejoin="round"><path d="M14.1,11c-0.381,-0.592 -1.174,-1 -2.097,-1c-0.923,0 -1.716,0.408 -2.102,1"></path><path d="M16.652,8.972c-1.024,-1.191 -2.722,-1.972 -4.65,-1.972c-1.93,0 -3.63,0.783 -4.654,1.975"></path><path d="M14.333,16h5.739c1.065,0 1.928,-0.863 1.928,-1.927v-9.146c0,-1.064 -0.863,-1.927 -1.927,-1.927h-16.146c-1.064,0 -1.927,0.863 -1.927,1.927v9.146c0,1.064 0.863,1.927 1.927,1.927h5.739"></path><path d="M13.167,21h-2.333c-0.644,0 -1.167,-0.522 -1.167,-1.167v-4.667c0,-0.644 0.522,-1.167 1.167,-1.167h2.333c0.644,0 1.167,0.522 1.167,1.167v4.667c-0.001,0.645 -0.523,1.167 -1.167,1.167Z"></path></g><path fill="none" d="M0,0h24v24h-24Z"></path></svg>