<?xml version="1.0" encoding="UTF-8"?><svg version="1.1" viewBox="0 0 24 24" xmlns="http://www.w3.org/2000/svg" xmlns:xlink="http://www.w3.org/1999/xlink"><!--Generated by IJSVG (https://github.com/iconjar/IJSVG)--><g stroke-linecap="round" stroke-width="1.5" stroke="#323232" fill="none" stroke-linejoin="round"><path d="M12.442,21c0.991,0 1.795,-0.804 1.795,-1.795v-0.703"></path><path d="M9.464,6.6h-4.169c-0.991,0 -1.795,0.804 -1.795,1.795v10.811c0,0.99 0.804,1.794 1.795,1.794h7.147"></path><path d="M8.554,16.971l6.914,1.863c0.955,0.257 1.936,-0.313 2.192,-1.273l2.779,-10.431c0.256,-0.96 -0.311,-1.947 -1.265,-2.205l-6.914,-1.863c-0.955,-0.257 -1.936,0.313 -2.192,1.273l-2.779,10.432c-0.256,0.96 0.31,1.947 1.265,2.204Z"></path></g><path fill="none" d="M0,0h24v24h-24Z"></path></svg>