<?xml version="1.0" encoding="UTF-8"?><svg version="1.1" viewBox="0 0 24 24" xmlns="http://www.w3.org/2000/svg" xmlns:xlink="http://www.w3.org/1999/xlink"><!--Generated by IJSVG (https://github.com/iconjar/IJSVG)--><g stroke-linecap="round" stroke-width="1.5" stroke="#323232" fill="none" stroke-linejoin="round"><path d="M8,14h-3c-1.105,0 -2,0.895 -2,2v0c0,1.105 0.895,2 2,2h14c1.105,0 2,0.895 2,2v0c0,1.105 -0.895,2 -2,2h-4"></path><path d="M19.2426,3.75736c2.34315,2.34315 2.34315,6.14214 0,8.48528c-2.34315,2.34315 -6.14214,2.34315 -8.48528,1.77636e-15c-2.34315,-2.34315 -2.34315,-6.14214 -1.77636e-15,-8.48528c2.34315,-2.34315 6.14214,-2.34315 8.48528,0"></path><path d="M15,5v1"></path><path d="M15,10v1"></path><path d="M18,8h-1"></path><path d="M13,8h-1"></path></g><path fill="none" d="M0,0h24v24h-24Z"></path></svg>