<svg id="Layer_3" data-name="Layer 3" xmlns="http://www.w3.org/2000/svg" viewBox="0 0 24 24"><rect width="24" height="24" fill="none"/><circle cx="12" cy="12" r="9.5" fill="none" stroke="#323232" stroke-linecap="round" stroke-linejoin="round" stroke-width="1.5"/><path d="M12.08833,13.91156a.125.125,0,1,1-.17678.00012h0v-.00012a.125.125,0,0,1,.17668,0" fill="none" stroke="#323232" stroke-linecap="round" stroke-linejoin="round" stroke-width="1.5"/><path d="M15.33333,10.83333H8.66667A1.66666,1.66666,0,0,1,7,9.16667V8.61111A1.11111,1.11111,0,0,1,8.11111,7.5h7.77778A1.11111,1.11111,0,0,1,17,8.61111v.55556A1.66666,1.66666,0,0,1,15.33333,10.83333Z" fill="none" stroke="#323232" stroke-linecap="round" stroke-linejoin="round" stroke-width="1.5"/><path d="M8.131,10.73743A4.45512,4.45512,0,0,0,7.5,13a4.5,4.5,0,0,0,9,0,4.45512,4.45512,0,0,0-.631-2.26257" fill="none" stroke="#323232" stroke-linecap="round" stroke-linejoin="round" stroke-width="1.5"/></svg>