<svg id="Layer_3" data-name="Layer 3" xmlns="http://www.w3.org/2000/svg" viewBox="0 0 24 24"><path d="M0,0H24V24H0Z" fill="none"/><path d="M3,13V6A3,3,0,0,1,6,3H18a3,3,0,0,1,3,3v7a3,3,0,0,1-3,3H6A3,3,0,0,1,3,13Z" fill="none" stroke="#323232" stroke-linecap="round" stroke-linejoin="round" stroke-width="1.5"/><path d="M10.12255,11.34908V7.65092a.65011.65011,0,0,1,.97544-.56271l3.19979,1.84908a.64987.64987,0,0,1,0,1.12542L11.098,11.91179A.65011.65011,0,0,1,10.12255,11.34908Z" fill="none" stroke="#323232" stroke-linecap="round" stroke-linejoin="round" stroke-width="1.5"/><path d="M20,20H10" fill="none" stroke="#323232" stroke-linecap="round" stroke-linejoin="round" stroke-width="1.5"/><path d="M4,20H7" fill="none" stroke="#323232" stroke-linecap="round" stroke-linejoin="round" stroke-width="1.5"/><line x1="7" y1="21" x2="7" y2="19" fill="none" stroke="#323232" stroke-linecap="round" stroke-linejoin="round" stroke-width="1.5"/></svg>