<?xml version="1.0" encoding="UTF-8"?><svg version="1.1" viewBox="0 0 24 24" xmlns="http://www.w3.org/2000/svg" xmlns:xlink="http://www.w3.org/1999/xlink"><g stroke-linecap="round" stroke-width="1.5" stroke="#323232" fill="none" stroke-linejoin="round"><line x1="5" x2="5" y1="6" y2="8"></line><path d="M10 20v-12.5 0c0-1.38071-1.11929-2.5-2.5-2.5v0l-1.09278e-07 2.66454e-15c-1.38071 6.03528e-08-2.5 1.11929-2.5 2.5 0 0 0 8.88178e-16 0 8.88178e-16v12.5"></path><path d="M15 20v-12.5 0c0-1.38071-1.11929-2.5-2.5-2.5v0l-1.09278e-07 2.66454e-15c-1.38071 6.03528e-08-2.5 1.11929-2.5 2.5 0 0 0 8.88178e-16 0 8.88178e-16"></path><path d="M13 14h4.5l-1.09278e-07-3.55271e-15c1.38071 6.03528e-08 2.5-1.11929 2.5-2.5v-4l3.55271e-15-1.09278e-07c0-1.38071-1.11929-2.5-2.5-2.5 -3.38653e-08 0-7.54132e-08 1.77636e-15-1.09278e-07 2.66454e-15v0 8.88178e-16c-1.38071 6.03528e-08-2.5 1.11929-2.5 2.5"></path><path d="M5 6v0c0-1.10457-.895431-2-2-2"></path></g><g transform="matrix(1 0 0 1 0 24)"><rect width="24" height="24" fill="none" transform="matrix(6.12323e-17 -1 1 6.12323e-17 0 0)"></rect></g></svg>