<?xml version="1.0" encoding="UTF-8"?><svg version="1.1" viewBox="0 0 24 24" xmlns="http://www.w3.org/2000/svg" xmlns:xlink="http://www.w3.org/1999/xlink"><g stroke-linecap="round" stroke-width="1.5" stroke="#323232" fill="none" stroke-linejoin="round"><path d="M17.5 20v0l-1.09278e-07-3.55271e-15c-1.38071-6.03528e-08-2.5-1.11929-2.5-2.5 0 0 0 0 0 0v-9.75 0c0-1.38071-1.11929-2.5-2.5-2.5v0l-1.09278e-07 2.66454e-15c-1.38071 6.03528e-08-2.5 1.11929-2.5 2.5 0 0 0 1.77636e-15 0 1.77636e-15v11.25"></path><path d="M13 21l5.832-8.748 2.91951e-08-4.38162e-08c.64065-.961493.380556-2.26029-.580937-2.90094 -.343291-.228738-.746546-.350877-1.15906-.351062v0l1.11946e-07 5.35465e-11c-1.15483-.000552404-2.09145.935172-2.092 2.09 -3.1895e-07.000666781-3.18964e-07.00133356-4.2208e-11.00200034"></path><path d="M20 17.5v0 0c0 1.38071-1.11929 2.5-2.5 2.5"></path><path d="M10 15.744v-7.994 0c0-1.38071-1.11929-2.5-2.5-2.5v0l-1.09278e-07 2.66454e-15c-1.38071 6.03528e-08-2.5 1.11929-2.5 2.5 0 0 0 8.88178e-16 0 8.88178e-16v11.25"></path><path d="M5 7.75v-1.75 0c0-1.10457-.895431-2-2-2"></path></g><path fill="none" d="M24 24h-24v-24h24Z"></path></svg>