<?xml version="1.0" encoding="UTF-8"?><svg version="1.1" viewBox="0 0 24 24" xmlns="http://www.w3.org/2000/svg" xmlns:xlink="http://www.w3.org/1999/xlink"><!--Generated by IJSVG (https://github.com/iconjar/IJSVG)--><g stroke-linecap="round" stroke-width="1.5" fill-rule="evenodd" stroke="#323232" fill="none" stroke-linejoin="round"><path d="M8.82843,9.17157c1.5621,1.5621 1.5621,4.09476 0,5.65685c-1.5621,1.5621 -4.09476,1.5621 -5.65685,0c-1.5621,-1.5621 -1.5621,-4.09476 -8.88178e-16,-5.65685c1.5621,-1.5621 4.09476,-1.5621 5.65685,-1.77636e-15"></path><path d="M20.8284,9.17157c1.5621,1.5621 1.5621,4.09476 0,5.65685c-1.5621,1.5621 -4.09476,1.5621 -5.65685,0c-1.5621,-1.5621 -1.5621,-4.09476 -1.77636e-15,-5.65685c1.5621,-1.5621 4.09476,-1.5621 5.65685,-1.77636e-15"></path></g><path fill="none" stroke="#323232" stroke-linecap="round" stroke-linejoin="round" stroke-width="1.5" d="M18,16h-12"></path><g stroke-linecap="round" stroke-width="1.5" stroke="#323232" fill="none" stroke-linejoin="round"><path d="M3,3h19"></path><path d="M3,21h19"></path></g><path fill="none" d="M0,0h24v24h-24Z"></path></svg>