<?xml version="1.0" encoding="UTF-8"?><svg version="1.1" viewBox="0 0 24 24" xmlns="http://www.w3.org/2000/svg" xmlns:xlink="http://www.w3.org/1999/xlink"><g fill="none"><path d="M0 24v-24h24v24"></path><path stroke="#323232" stroke-linecap="round" stroke-linejoin="round" stroke-width="1.5" d="M19.891 15.247c1.478-1.894 1.478-4.601 0-6.495"></path><path stroke="#323232" stroke-linecap="round" stroke-linejoin="round" stroke-width="1.5" d="M17.354 10.107c.861 1.104.861 2.683 0 3.788"></path><path stroke="#323232" stroke-linecap="round" stroke-linejoin="round" stroke-width="1.5" d="M20 18v0c0 1.657-1.343 3-3 3h-11c-1.657 0-3-1.343-3-3v-12c0-1.657 1.343-3 3-3h11c1.657 0 3 1.343 3 3v0"></path><path stroke="#323232" stroke-linecap="round" stroke-linejoin="round" stroke-width="1.5" d="M11.25 14.012l2.5 2v-8.024l-2.5 2.025h-1.5c-.552 0-1 .448-1 1v2c0 .552.448 1 1 1h1.5v-.001Z"></path></g></svg>