<?xml version="1.0" encoding="UTF-8"?><svg version="1.1" viewBox="0 0 24 24" xmlns="http://www.w3.org/2000/svg" xmlns:xlink="http://www.w3.org/1999/xlink"><!--Generated by IJSVG (https://github.com/iconjar/IJSVG)--><g stroke-linecap="round" stroke-width="1.5" stroke="#323232" fill="none" stroke-linejoin="round"><path d="M10.5,20.865c-2.711,-0.456 -5.009,-2.118 -6.321,-4.422"></path><path d="M5.15,6.17c-1.338,1.571 -2.15,3.604 -2.15,5.83c0,0.555 0.058,1.096 0.154,1.624"></path><path d="M13.5,20.865c2.711,-0.456 5.009,-2.118 6.321,-4.422"></path><path d="M16.55,4.244c-1.336,-0.786 -2.888,-1.244 -4.55,-1.244c-1.662,0 -3.214,0.458 -4.55,1.244"></path><path d="M18.85,6.17c1.338,1.571 2.15,3.604 2.15,5.83c0,0.555 -0.058,1.096 -0.154,1.624"></path><path d="M11.25,14.012l2.5,2v-8.024l-2.5,2.025h-1.5c-0.552,0 -1,0.448 -1,1v2c0,0.552 0.448,1 1,1h1.5Z"></path></g><path fill="none" d="M0,0h24v24h-24v-24Z"></path></svg>