<svg id="Layer_3" data-name="Layer 3" xmlns="http://www.w3.org/2000/svg" viewBox="0 0 24 24"><rect width="24" height="24" fill="none"/><rect width="24" height="24" fill="none"/><path d="M3,17.6V6.4C3,4.52223,7.02944,3,12,3s9,1.52223,9,3.4V17.6" fill="none" stroke="#323232" stroke-linecap="round" stroke-linejoin="round" stroke-width="1.5"/><circle cx="12" cy="12" r="1.5" fill="none" stroke="#323232" stroke-linecap="round" stroke-linejoin="round" stroke-width="1.5"/><path d="M12,16.5a6.24735,6.24735,0,0,1-5.41037-3.09646h0a2.81185,2.81185,0,0,1,0-2.80708h0A6.24733,6.24733,0,0,1,12,7.5" fill="none" stroke="#323232" stroke-linecap="round" stroke-linejoin="round" stroke-width="1.5"/><path d="M12,7.5a6.24735,6.24735,0,0,1,5.41037,3.09646h0a2.81185,2.81185,0,0,1,0,2.80708h0A6.24733,6.24733,0,0,1,12,16.5" fill="none" stroke="#323232" stroke-linecap="round" stroke-linejoin="round" stroke-width="1.5"/><path d="M7.54669,14.64789C4.83307,15.2334,3,16.3349,3,17.6c0,1.8778,4.02942,3.4,9,3.4s9-1.52222,9-3.4c0-1.26508-1.83307-2.36658-4.54669-2.95209" fill="none" stroke="#323232" stroke-linecap="round" stroke-linejoin="round" stroke-width="1.5"/></svg>