<svg id="Layer_3" data-name="Layer 3" xmlns="http://www.w3.org/2000/svg" viewBox="0 0 24 24"><path d="M24,24H0V0H24Z" fill="none"/><rect x="3" y="3" width="18" height="18" rx="5" stroke-width="1.5" stroke="#323232" stroke-linecap="round" stroke-linejoin="round" fill="none"/><path d="M17,13.59091V15a2,2,0,0,1-2,2H9a2,2,0,0,1-2-2V9A2,2,0,0,1,9,7h6a2,2,0,0,1,2,2v1.40909" fill="none" stroke="#323232" stroke-linecap="round" stroke-linejoin="round" stroke-width="1.5"/><path d="M16,10.5h1.5a.5.5,0,0,1,.5.5v2a.5.5,0,0,1-.5.5H16A1.5,1.5,0,0,1,14.5,12v0A1.5,1.5,0,0,1,16,10.5Z" fill="none" stroke="#323232" stroke-linecap="round" stroke-linejoin="round" stroke-width="1.5"/></svg>