<svg xmlns="http://www.w3.org/2000/svg" viewBox="0 0 24 24"><g id="Layer_2" data-name="Layer 2"><path d="M24,24H0V0H24Z" fill="none"/><path d="M21,9.5v-3A2.5,2.5,0,0,0,18.5,4H5.5A2.5,2.5,0,0,0,3,6.5V8" fill="none" stroke="#323232" stroke-linecap="round" stroke-linejoin="round" stroke-width="1.5"/><path d="M21,14.5v3A2.5,2.5,0,0,1,18.5,20H16" fill="none" stroke="#323232" stroke-linecap="round" stroke-linejoin="round" stroke-width="1.5"/><path d="M19.5,9.5H21a1,1,0,0,1,1,1v3a1,1,0,0,1-1,1H19.5A2.5,2.5,0,0,1,17,12v0a2.5,2.5,0,0,1,2.5-2.5Z" fill="none" stroke="#323232" stroke-linecap="round" stroke-linejoin="round" stroke-width="1.5"/><path d="M6.49923,17.5l3-3" fill="none" stroke="#323232" stroke-linecap="round" stroke-linejoin="round" stroke-width="1.5"/><path d="M6.25,14.32472a.075.075,0,1,1,0,.00056v-.00056" fill="none" stroke="#323232" stroke-linecap="round" stroke-linejoin="round" stroke-width="1.5"/><rect x="3" y="11" width="10" height="10" rx="3" stroke-width="1.5" stroke="#323232" stroke-linecap="round" stroke-linejoin="round" fill="none"/><path d="M9.75,17.67528a.075.075,0,1,1,0-.00056v.00056" fill="none" stroke="#323232" stroke-linecap="round" stroke-linejoin="round" stroke-width="1.5"/></g></svg>