<svg id="Layer_3" data-name="Layer 3" xmlns="http://www.w3.org/2000/svg" viewBox="0 0 24 24"><path d="M17,13.59092V15a2,2,0,0,1-2,2H9a2,2,0,0,1-2-2V9A2,2,0,0,1,9,7h6a2,2,0,0,1,2,2V10.4091" fill="none" stroke="#323232" stroke-linecap="round" stroke-linejoin="round" stroke-width="1.5"/><path d="M16.09091,10.4091H17.5a.5.5,0,0,1,.5.5v2.18182a.5.5,0,0,1-.5.5H16.09091A1.59091,1.59091,0,0,1,14.5,12v0a1.59091,1.59091,0,0,1,1.59091-1.59091Z" fill="none" stroke="#323232" stroke-linecap="round" stroke-linejoin="round" stroke-width="1.5"/><circle cx="12" cy="12.00001" r="9.5" fill="none" stroke="#323232" stroke-linecap="round" stroke-linejoin="round" stroke-width="1.5"/><path d="M24,0H0V24H24Z" fill="none"/><path d="M0,0H24V24H0Z" fill="none"/></svg>