<svg id="Layer_3" data-name="Layer 3" xmlns="http://www.w3.org/2000/svg" viewBox="0 0 24 24"><path d="M0,0H24V24H0Z" fill="none"/><path d="M0,0H24V24H0Z" fill="none"/><path d="M21,9.90053V8.70042a3,3,0,0,0-1.58809-2.647l-6-3.20042a3,3,0,0,0-2.82382,0l-6,3.20042A3,3,0,0,0,3,8.70042V19a2,2,0,0,0,2,2h6" fill="none" stroke="#323232" stroke-linecap="round" stroke-linejoin="round" stroke-width="1.5"/><path d="M12.00183,13H8a1,1,0,0,0-1,1v7" fill="none" stroke="#323232" stroke-linecap="round" stroke-linejoin="round" stroke-width="1.5"/><path d="M17,21H15a1,1,0,0,1-1-1V18a1,1,0,0,1,1-1h2a1,1,0,0,1,1,1v2A1,1,0,0,1,17,21Z" fill="none" stroke="#323232" stroke-linecap="round" stroke-linejoin="round" stroke-width="1.5"/><path d="M21,21H19a1,1,0,0,1-1-1V18a1,1,0,0,1,1-1h2a1,1,0,0,1,1,1v2A1,1,0,0,1,21,21Z" fill="none" stroke="#323232" stroke-linecap="round" stroke-linejoin="round" stroke-width="1.5"/><path d="M19,17H17a1,1,0,0,1-1-1V14a1,1,0,0,1,1-1h2a1,1,0,0,1,1,1v2A1,1,0,0,1,19,17Z" fill="none" stroke="#323232" stroke-linecap="round" stroke-linejoin="round" stroke-width="1.5"/><line x1="11" y1="17.00001" x2="7" y2="17.00001" fill="none" stroke="#323232" stroke-linecap="round" stroke-linejoin="round" stroke-width="1.5"/><line x1="10" y1="9.00001" x2="14" y2="9.00001" fill="none" stroke="#323232" stroke-linecap="round" stroke-linejoin="round" stroke-width="1.5"/></svg>