<?xml version="1.0" encoding="UTF-8"?><svg version="1.1" viewBox="0 0 24 24" xmlns="http://www.w3.org/2000/svg" xmlns:xlink="http://www.w3.org/1999/xlink"><g stroke-linecap="round" stroke-width="1.5" stroke="#323232" fill="none" stroke-linejoin="round"><path d="M12 14v3"></path><path d="M15.5 17.778h1.77636e-15c0-.429678-.348322-.778-.778-.778h-5.444 -3.40075e-08c-.429678 1.87818e-08-.778.348322-.778.778"></path><path d="M9.5 21h5 -4.37114e-08c.552285 2.41411e-08 1-.447715 1-1v-3.565l4.68751e-08.000530949c0-.405224-.0819038-.806268-.240792-1.17904l-.278-.649 -8.0004e-09-1.87468e-08c-.157157-.368256-.51882-.607273-.919208-.607488h-4.124l5.1342e-08 2.36948e-11c-.400559-.000184872-.76258.23867-.92.607l-.277.648 -1.56109e-07 3.66076e-07c-.158954.372747-.240928.773776-.241 1.179v3.566l1.06581e-14 1.50996e-07c8.33927e-08.552285.447715 1 1 1Z"></path><path d="M6 21h-2 -4.37114e-08c-.552285-2.41411e-08-1-.447715-1-1 0 0 0-3.55271e-15 0-3.55271e-15v-11.112l2.77737e-08-5.86523e-05c.000354289-.725713.393797-1.39429 1.02805-1.74697l7-3.889 -2.71904e-07 1.51101e-07c.604156-.335739 1.33884-.335739 1.943-3.74224e-07l7 3.889 1.67257e-07 9.2891e-08c.634932.352628 1.0288 1.02175 1.02895 1.74803v11.111 0c0 .552285-.447715 1-1 1h-2"></path><path d="M10.624 9h2.752"></path></g><path fill="none" d="M0 0h24v24h-24Z"></path></svg>