<?xml version="1.0" encoding="UTF-8"?><svg version="1.1" viewBox="0 0 24 24" xmlns="http://www.w3.org/2000/svg" xmlns:xlink="http://www.w3.org/1999/xlink"><g stroke-linecap="round" stroke-width="1.5" stroke="#323232" fill="none" stroke-linejoin="round"><path d="M12 11.669v-3.269"></path><path d="M17.782 5.107l-2.21824e-07-1.86365e-07c-3.80571-3.19736-9.48281-2.70419-12.6802 1.10151 -3.19736 3.80571-2.70419 9.48281 1.10151 12.6802 3.80571 3.19736 9.48281 2.70419 12.6802-1.10151 1.01627-1.20963 1.69621-2.66546 1.97149-4.22117"></path><line x1="21" x2="17.64" y1="9.34" y2="9.34"></line><line x1="19.32" x2="19.32" y1="7.66" y2="11.02"></line><path d="M12 15.278l4.71877e-09 3.67706e-13c-.0883656-6.90644e-06-.160006.0716219-.160013.159987 -5.24323e-08.000670853 4.1143e-06.0013417 1.24999e-05.0020125l-6.09742e-09-3.34278e-07c.0015995.0876944.0723053.1584.16.16l7.25196e-09-1.77636e-15c.0894701-6.75481e-09.162-.0725299.162-.162 -6.75481e-09-.0894701-.0725299-.162-.162-.162"></path></g><path fill="none" d="M0 0h24v24h-24Z"></path></svg>