<svg id="Layer_3" data-name="Layer 3" xmlns="http://www.w3.org/2000/svg" viewBox="0 0 24 24"><path d="M12,12a9.5625,9.5625,0,0,1,0-9" fill="none" stroke="#323232" stroke-linecap="round" stroke-linejoin="round" stroke-width="1.5"/><path d="M7.1073,4.45245A15.90157,15.90157,0,0,0,8.66541,15.2243" fill="none" stroke="#323232" stroke-linecap="round" stroke-linejoin="round" stroke-width="1.5"/><path d="M12,12a9.56249,9.56249,0,0,1,7.79423,4.5" fill="none" stroke="#323232" stroke-linecap="round" stroke-linejoin="round" stroke-width="1.5"/><path d="M20.98272,11.53657A15.90161,15.90161,0,0,0,10.875,7.5" fill="none" stroke="#323232" stroke-linecap="round" stroke-linejoin="round" stroke-width="1.5"/><path d="M12,12a9.56249,9.56249,0,0,1-7.79423,4.5" fill="none" stroke="#323232" stroke-linecap="round" stroke-linejoin="round" stroke-width="1.5"/><path d="M19.78613,16.5a9,9,0,1,0-15.57226,0" fill="none" stroke="#323232" stroke-linecap="round" stroke-linejoin="round" stroke-width="1.5"/><path d="M21,20.625h0a4.5075,4.5075,0,0,1-3.6,0h0a4.5075,4.5075,0,0,0-3.6,0h0a4.5075,4.5075,0,0,1-3.6,0h0a4.5075,4.5075,0,0,0-3.6,0h0a4.5075,4.5075,0,0,1-3.6,0H3" fill="none" stroke="#323232" stroke-linecap="round" stroke-linejoin="round" stroke-width="1.5"/><path d="M16.45966,13.2757A12.81625,12.81625,0,0,1,13.84259,16.5" fill="none" stroke="#323232" stroke-linecap="round" stroke-linejoin="round" stroke-width="1.5"/><rect width="24" height="24" fill="none"/></svg>