<?xml version="1.0" encoding="UTF-8"?><svg version="1.1" viewBox="0 0 24 24" xmlns="http://www.w3.org/2000/svg" xmlns:xlink="http://www.w3.org/1999/xlink"><g stroke-linecap="round" stroke-width="1.5" stroke="#323232" fill="none" stroke-linejoin="round"><circle cx="12" cy="12" r="9"></circle><path d="M12 12.167l3.90799e-14 5.28485e-07c-2.91874e-07-1.933 1.567-3.5 3.5-3.5"></path><path d="M12 16.4342l3.90799e-14 5.28485e-07c-2.91874e-07-1.933 1.567-3.5 3.5-3.5"></path><path d="M12 16.4342v0c0-1.933-1.567-3.5-3.5-3.5"></path><path d="M12 12.167v0c0-1.933-1.567-3.5-3.5-3.5"></path><line x1="12" x2="12" y1="21" y2="7"></line><path d="M15.5 7.5v7 0c0 1.933-1.567 3.5-3.5 3.5v0l-1.5299e-07-3.55271e-15c-1.933-8.4494e-08-3.5-1.567-3.5-3.5 0 0 0-1.77636e-15 0-1.77636e-15v-7"></path></g><path fill="none" d="M24 24h-24v-24h24Z"></path></svg>