<svg id="Layer_3" data-name="Layer 3" xmlns="http://www.w3.org/2000/svg" viewBox="0 0 24 24"><circle cx="12" cy="12.00001" r="9.99946" transform="translate(-3.12089 4.29553) rotate(-18)" fill="none" stroke="#323232" stroke-linecap="round" stroke-linejoin="round" stroke-width="1.5"/><circle cx="12" cy="12.00001" r="2" fill="none" stroke="#323232" stroke-linecap="round" stroke-linejoin="round" stroke-width="1.5"/><path d="M17.30325,6.6967a7.5,7.5,0,1,1-10.6066,0,7.5,7.5,0,0,1,10.6066,0" fill="none" stroke="#323232" stroke-linecap="round" stroke-linejoin="round" stroke-width="1.5"/><path d="M14.90179,18.91389l-1.75891-2.06928a1.49993,1.49993,0,0,0-2.28576,0L9.09821,18.91389" fill="none" stroke="#323232" stroke-linecap="round" stroke-linejoin="round" stroke-width="1.5"/><path d="M19.47021,11.37757l-2.50952,1.03254a1.5,1.5,0,0,0-.70636,2.17395l1.42139,2.30719" fill="none" stroke="#323232" stroke-linecap="round" stroke-linejoin="round" stroke-width="1.5"/><path d="M13.71667,4.70667l.2063,2.70215a1.49994,1.49994,0,0,0,1.84925,1.34357l2.634-.639" fill="none" stroke="#323232" stroke-linecap="round" stroke-linejoin="round" stroke-width="1.5"/><path d="M5.59369,8.11341l2.63409.639A1.49994,1.49994,0,0,0,10.077,7.40882l.2063-2.70215" fill="none" stroke="#323232" stroke-linecap="round" stroke-linejoin="round" stroke-width="1.5"/><path d="M4.52966,11.37751l2.50965,1.0326a1.5,1.5,0,0,1,.70636,2.17395L6.32428,16.89131" fill="none" stroke="#323232" stroke-linecap="round" stroke-linejoin="round" stroke-width="1.5"/><path d="M0,0H24V24H0Z" fill="none"/></svg>