<?xml version="1.0" encoding="UTF-8"?><svg version="1.1" viewBox="0 0 24 24" xmlns="http://www.w3.org/2000/svg" xmlns:xlink="http://www.w3.org/1999/xlink"><!--Generated by IJSVG (https://github.com/iconjar/IJSVG)--><g stroke-linecap="round" stroke-width="1.5" stroke="#323232" fill="none" stroke-linejoin="round"><path d="M12,10v-5"></path><path d="M12,19v-5"></path><path d="M13.41,10.59l3.54,-3.54"></path><path d="M7.05,16.95l3.54,-3.54"></path><path d="M14,12h5"></path><path d="M5,12h5"></path><path d="M13.41,13.41l3.54,3.54"></path><path d="M7.05,7.05l3.54,3.54"></path><path d="M19.0711,4.92893c3.90524,3.90524 3.90524,10.2369 0,14.1421c-3.90524,3.90524 -10.2369,3.90524 -14.1421,0c-3.90524,-3.90524 -3.90524,-10.2369 -1.77636e-15,-14.1421c3.90524,-3.90524 10.2369,-3.90524 14.1421,-1.77636e-15"></path><path d="M16.9497,7.05025c2.73367,2.73367 2.73367,7.16582 0,9.89949c-2.73367,2.73367 -7.16582,2.73367 -9.89949,3.55271e-15c-2.73367,-2.73367 -2.73367,-7.16582 -1.77636e-15,-9.89949c2.73367,-2.73367 7.16582,-2.73367 9.89949,-1.77636e-15"></path><path d="M13.4142,10.5858c0.781049,0.781049 0.781049,2.04738 0,2.82843c-0.781049,0.781049 -2.04738,0.781049 -2.82843,0c-0.781049,-0.781049 -0.781049,-2.04738 0,-2.82843c0.781049,-0.781049 2.04738,-0.781049 2.82843,0"></path></g><path fill="none" d="M0,0h24v24h-24Z"></path></svg>