<?xml version="1.0" encoding="UTF-8"?><svg version="1.1" viewBox="0 0 24 24" xmlns="http://www.w3.org/2000/svg" xmlns:xlink="http://www.w3.org/1999/xlink"><g stroke-linecap="round" stroke-width="1.5" stroke="#323232" fill="none" stroke-linejoin="round"><path d="M5.398 5.898c-1.484 1.605-2.398 3.744-2.398 6.102 0 2.358.914 4.497 2.398 6.102"></path><path d="M7.519 8.019c-.942 1.06-1.519 2.451-1.519 3.981 0 1.53.577 2.921 1.519 3.981"></path><path d="M12.406 9.041c1.329.182 2.372 1.224 2.553 2.553"></path><path d="M7.549 4.184c1.314-.75 2.83-1.184 4.451-1.184 4.971 0 9 4.029 9 9 0 1.621-.434 3.137-1.184 4.451"></path><path d="M17.575 14.21c.271-.685.425-1.429.425-2.21 0-3.314-2.686-6-6-6 -.781 0-1.525.154-2.21.425"></path><path d="M9.654 10.154c-.927 1.177-.861 2.882.225 3.967 1.086 1.085 2.79 1.152 3.967.225"></path><line x1="20" x2="3" y1="20.5" y2="3.5"></line></g><rect width="24" height="24" fill="none"></rect></svg>