<svg viewBox="0 0 24 24" xmlns="http://www.w3.org/2000/svg"><g stroke-linecap="round" stroke-width="1.5" stroke="#323232" fill="none" stroke-linejoin="round"><path d="M19.48 17l-2.5 2.5 -1.5-1.5"/><path d="M12.48 20.938l0-.01c-.34.04-.67.06-1 .06l-.01-.001c-4.98-.01-9-4.03-9-9.01 0-4.98 4.02-9 9-9 4.97 0 9 4.02 8.99 9v0l0-.01c-.01.33-.03.66-.07 1"/><path d="M11.48 15.7l0 0c.16 0 .29.13.28.29 -.01.16-.14.29-.3.28 -.16-.01-.29-.14-.29-.3l0-.01c0-.17.13-.3.3-.3"/><path d="M16.36 10.37l0 0c-2.88-2.22-6.88-2.22-9.75-.01"/><path d="M8.64 13.212l-.01 0c1.67-1.3 4.01-1.3 5.68-.01"/></g><path fill="none" d="M0 0h24v24H0Z"/></svg>