<svg viewBox="0 0 24 24" xmlns="http://www.w3.org/2000/svg"><g stroke-linecap="round" stroke-width="1.5" stroke="#323232" fill="none" stroke-linejoin="round"><path d="M7.818 12.54l-.01 0c1.77-2.32 5.08-2.75 7.39-.98 .36.28.69.6.97.97"/><path d="M9.54 14.39l-.01 0c.89-1.36 2.71-1.74 4.07-.84 .33.21.61.5.83.83"/><path d="M12.81 16.14l4.39-4.68 0-.01c.41-.45.39-1.15-.06-1.57 -.01-.01-.02-.01-.02-.02l0 0c-2.9-2.69-7.38-2.69-10.27-.01l-.01 0c-.46.4-.5 1.1-.09 1.56 0 0 0 .01.01.01l4.39 4.67 -.01-.01c.41.44 1.1.47 1.55.06 .02-.03.04-.05.06-.07Z"/><rect width="18" height="18" x="3" y="3" rx="5"/></g><path fill="none" d="M0 0h24v24H0Z"/></svg>