<?xml version="1.0" encoding="UTF-8"?><svg version="1.1" viewBox="0 0 24 24" xmlns="http://www.w3.org/2000/svg" xmlns:xlink="http://www.w3.org/1999/xlink"><g stroke-linecap="round" stroke-width="1.5" stroke="#323232" fill="none" stroke-linejoin="round"><path d="M12 15.704c.168 0 .305.132.305.294 0 .162-.137.294-.305.294 -.168 0-.305-.132-.305-.294 0-.162.137-.294.305-.294"></path><path d="M16.875 10.373c-2.843-2.219-6.907-2.219-9.75 0"></path><path d="M9.157 13.212c1.658-1.293 4.028-1.293 5.687 0"></path><path d="M18.364 5.63604c3.51472 3.51472 3.51472 9.2132 0 12.7279 -3.51472 3.51472-9.2132 3.51472-12.7279 0 -3.51472-3.51472-3.51472-9.2132-1.77636e-15-12.7279 3.51472-3.51472 9.2132-3.51472 12.7279-1.77636e-15"></path></g><path fill="none" d="M0 0h24v24h-24Z"></path></svg>