<svg id="Layer_3" data-name="Layer 3" xmlns="http://www.w3.org/2000/svg" viewBox="0 0 24 24"><path d="M0,0H24V24H0Z" fill="none"/><path d="M11.999,11V8" fill="none" stroke="#323232" stroke-linecap="round" stroke-linejoin="round" stroke-width="1.5"/><path d="M11.99923,13.74846a.12421.12421,0,0,0-.12423.12421v.00156a.125.125,0,1,0,.12422-.12577" fill="none" stroke="#323232" stroke-linecap="round" stroke-linejoin="round" stroke-width="1.5"/><path d="M2.52158,10.61857A2.01906,2.01906,0,0,1,2.64568,7.785,13.63525,13.63525,0,0,1,12,4a13.635,13.635,0,0,1,9.35433,3.78505,2.019,2.019,0,0,1,.124,2.83365l-8.00446,8.73268a2,2,0,0,1-2.94878-.00009Z" fill="none" stroke="#323232" stroke-linecap="round" stroke-linejoin="round" stroke-width="1.5"/></svg>