<?xml version="1.0" encoding="UTF-8"?><svg version="1.1" viewBox="0 0 24 24" xmlns="http://www.w3.org/2000/svg" xmlns:xlink="http://www.w3.org/1999/xlink"><g stroke-linecap="round" stroke-width="1.5" stroke="#323232" fill="none" stroke-linejoin="round"><path d="M14.673 21h-8.673l-1.31134e-07-3.55271e-15c-1.65685-7.24234e-08-3-1.34315-3-3 0 0 0-3.55271e-15 0-3.55271e-15v-12l3.37508e-14 4.52987e-07c-2.50178e-07-1.65685 1.34315-3 3-3h12l-1.31134e-07 2.66454e-15c1.65685-7.24234e-08 3 1.34315 3 3v8.673"></path><line x1="21" x2="3" y1="8" y2="8"></line><path d="M17.5 13l-1.96701e-07 3.55271e-15c2.48528-1.08635e-07 4.5 2.01472 4.5 4.5 1.08635e-07 2.48528-2.01472 4.5-4.5 4.5 -2.48528 1.08635e-07-4.5-2.01472-4.5-4.5l4.79616e-14 4.8278e-07c-3.75267e-07-2.48528 2.01472-4.5 4.5-4.5 6.09575e-08-8.88178e-15 1.35744e-07-1.95399e-14 1.96701e-07-2.66454e-14"></path><path d="M18.722 17.45h-2.18557e-09c-.0276142 1.20706e-09-.05.0223858-.05.05 1.20706e-09.0276142.0223858.05.05.05h-2.18557e-09c.0276142 1.20706e-09.05-.0223858.05-.05 1.20706e-09-.0276142-.0223858-.05-.05-.05"></path><path d="M16.277 17.45l-2.63515e-09-5.47118e-13c-.027062-5.6347e-06-.0490046.0219278-.0490102.0489898 -7.01188e-08.000336762 3.33145e-06.000673515 1.02042e-05.00101021l-3.55271e-15-7.54979e-09c-4.16963e-09.0276142.0223858.05.05.05 0 0 0 0 0 0h-2.18557e-09c.0276142 1.20706e-09.05-.0223858.05-.05 1.20706e-09-.0276142-.0223858-.05-.05-.05"></path></g><rect width="24" height="24" fill="none"></rect></svg>