<svg viewBox="0 0 24 24" xmlns="http://www.w3.org/2000/svg"><g fill="none"><path d="M0 0h24v24H0Z"/><g stroke-linecap="round" stroke-width="1.5" stroke="#323232" fill="none" stroke-linejoin="round"><path d="M9 21H6l-.01-.001c-1.66-.01-3-1.35-3-3 0 0 0-.001 0-.001v-12l0 0c-.01-1.66 1.34-3.01 2.99-3.01h12l-.01 0c1.65-.01 3 1.34 3 3v4"/><path d="M21 8L3 8"/><path d="M12 16h9"/><path d="M19.5 21h-6 -.01c-.83-.01-1.5-.68-1.5-1.5 0 0 0 0 0 0v-5l0-.01c0-.83.67-1.5 1.5-1.5h6l-.01-.001c.82 0 1.49.67 1.49 1.5v5 0c0 .82-.68 1.5-1.5 1.5 -.01 0-.01 0-.01 0Z"/></g></g></svg>