<svg viewBox="0 0 24 24" xmlns="http://www.w3.org/2000/svg"><g fill="none"><path d="M0 0h24v24H0Z"/><g stroke-linecap="round" stroke-width="1.5" stroke="#323232" fill="none" stroke-linejoin="round"><path d="M15.66 21l0 0c-1.48-.01-2.67-1.2-2.67-2.67v0l-.01 0c0-1.48 1.19-2.67 2.66-2.67"/><path d="M18.33 15.66l-.01-.001c1.47 0 2.66 1.19 2.66 2.66v0l0-.01c-.01 1.47-1.2 2.66-2.67 2.66"/><path d="M15.67 18.33l2.66 0"/><path d="M10 21H6l-.01-.001c-1.66-.01-3-1.35-3-3 0 0 0-.001 0-.001v-12l0 0c-.01-1.66 1.34-3.01 2.99-3.01h12l-.01 0c1.65-.01 3 1.34 3 3v7"/><path d="M21 8L3 8"/></g></g></svg>