<?xml version="1.0" encoding="UTF-8"?><svg version="1.1" viewBox="0 0 24 24" xmlns="http://www.w3.org/2000/svg" xmlns:xlink="http://www.w3.org/1999/xlink"><!--Generated by IJSVG (https://github.com/iconjar/IJSVG)--><g stroke-linecap="round" stroke-width="1.5" stroke="#323232" fill="none" stroke-linejoin="round"><path d="M5,11h5.061c0.768,0 1.536,-0.293 2.121,-0.879c1.172,-1.172 1.172,-3.071 0,-4.243c-1.172,-1.172 -3.071,-1.172 -4.243,0"></path><path d="M3,15h8.665c0.64,0 1.28,0.244 1.768,0.732c0.976,0.976 0.976,2.559 0,3.536c-0.976,0.977 -2.559,0.976 -3.536,0"></path><path d="M15,13h3.657c0.6,0 1.199,-0.229 1.657,-0.686c0.915,-0.915 0.915,-2.399 0,-3.314c-0.915,-0.915 -2.399,-0.915 -3.314,0"></path></g><path fill="none" d="M0,0h24v24h-24Z"></path></svg>