<?xml version="1.0" encoding="UTF-8"?><svg version="1.1" viewBox="0 0 24 24" xmlns="http://www.w3.org/2000/svg" xmlns:xlink="http://www.w3.org/1999/xlink"><g fill="none"><path d="M24 24h-24v-24"></path><path stroke="#323232" stroke-linecap="round" stroke-linejoin="round" stroke-width="1.5" d="M9.5 15.5l-2.5 2.5 -1.5-1.5"></path><path stroke="#323232" stroke-linecap="round" stroke-linejoin="round" stroke-width="1.5" d="M9.75 21h-4.5c-1.243 0-2.25-1.007-2.25-2.25v-4.5c0-1.243 1.007-2.25 2.25-2.25h4.5c1.243 0 2.25 1.007 2.25 2.25v4.5c0 1.243-1.007 2.25-2.25 2.25Z"></path><line x1="14" x2="17" y1="10" y2="7" stroke="#323232" stroke-linecap="round" stroke-linejoin="round" stroke-width="1.5"></line><polyline stroke="#323232" stroke-linecap="round" stroke-linejoin="round" stroke-width="1.5" points="17,10 17,7 14,7"></polyline><path stroke="#323232" stroke-linecap="round" stroke-linejoin="round" stroke-width="1.5" d="M15 21h2c2.209 0 4-1.791 4-4v-10c0-2.209-1.791-4-4-4h-10c-2.209 0-4 1.791-4 4v2"></path></g></svg>