<svg id="Layer_3" data-name="Layer 3" xmlns="http://www.w3.org/2000/svg" viewBox="0 0 24 24"><rect width="24" height="24" fill="none"/><path d="M18.0104,4.48159h0a8.4534,8.4534,0,0,1,0,11.98217h0l-3.51881,3.5075a3.53173,3.53173,0,0,1-4.97146.01167l-.01174-.01167L5.98958,16.46379a8.45355,8.45355,0,0,1-.00006-11.9822h0A8.5195,8.5195,0,0,1,17.982,4.45346l.02832.02813Z" fill="none" stroke="#323232" stroke-linecap="round" stroke-linejoin="round" stroke-width="1.5"/><path d="M13.8,8.5V7a1,1,0,0,0-1-1H11.2a1,1,0,0,0-1,1V8.5" fill="none" stroke="#323232" stroke-linecap="round" stroke-linejoin="round" stroke-width="1.5"/><rect x="8" y="8.5" width="8" height="5.5" rx="1.25" stroke-width="1.5" stroke="#323232" stroke-linecap="round" stroke-linejoin="round" fill="none"/></svg>