<?xml version="1.0" encoding="UTF-8"?><svg version="1.1" viewBox="0 0 24 24" xmlns="http://www.w3.org/2000/svg" xmlns:xlink="http://www.w3.org/1999/xlink"><g fill="none"><path d="M0 0h24v24h-24v-24Z"></path><path stroke="#323232" stroke-linecap="round" stroke-linejoin="round" stroke-width="1.5" d="M6 3h12c1.657 0 3 1.343 3 3v12c0 1.657-1.343 3-3 3h-12c-1.657 0-3-1.343-3-3v-12c0-1.657 1.343-3 3-3Z"></path><path stroke="#323232" stroke-linecap="round" stroke-linejoin="round" stroke-width="1.5" d="M14 3v2.176c0 .265.105.52.293.707l1.102 1.102c.804.804.804 2.108 0 2.912v0c-.804.804-2.108.804-2.912 0l-.486-.486 -.486.486c-.804.804-2.108.804-2.912 0v0c-.804-.804-.804-2.108 0-2.912l1.102-1.102c.189-.188.294-.442.294-.707v-2.176"></path><path stroke="#323232" stroke-linecap="round" stroke-linejoin="round" stroke-width="1.5" d="M18 21h-12c-1.657 0-3-1.343-3-3v-12c0-1.657 1.343-3 3-3h12c1.657 0 3 1.343 3 3v12c0 1.657-1.343 3-3 3Z"></path><path stroke="#323232" stroke-linecap="round" stroke-linejoin="round" stroke-width="1.5" d="M10 21v-2.176c0-.265-.105-.52-.293-.707l-1.102-1.102c-.804-.804-.804-2.108 0-2.912v0c.804-.804 2.108-.804 2.912 0l.486.486 .486-.486c.804-.804 2.108-.804 2.912 0v0c.804.804.804 2.108 0 2.912l-1.102 1.102c-.188.188-.293.442-.293.707v2.176"></path></g></svg>