<?xml version="1.0" encoding="UTF-8"?><svg version="1.1" viewBox="0 0 24 24" xmlns="http://www.w3.org/2000/svg" xmlns:xlink="http://www.w3.org/1999/xlink"><!--Generated by IJSVG (https://github.com/iconjar/IJSVG)--><g stroke-linecap="round" stroke-width="1.5" stroke="#323232" fill="none" stroke-linejoin="round"><path d="M20,15v-4"></path><path d="M19.999,17.75c-0.138,0 -0.25,0.112 -0.249,0.25c0,0.138 0.112,0.25 0.25,0.25c0.138,0 0.25,-0.112 0.25,-0.25c0,-0.138 -0.112,-0.25 -0.251,-0.25"></path><path d="M3,6h6"></path><path d="M13,8h5"></path><path d="M6,6l5,8l5,-6"></path><path d="M11,18v-4"></path><path d="M7,18h8"></path></g><path fill="none" d="M0,0h24v24h-24Z" transform="matrix(6.12323e-17,-1,1,6.12323e-17,0,24)"></path></svg>