<?xml version="1.0" encoding="UTF-8"?><svg version="1.1" viewBox="0 0 24 24" xmlns="http://www.w3.org/2000/svg" xmlns:xlink="http://www.w3.org/1999/xlink"><!--Generated by IJSVG (https://github.com/iconjar/IJSVG)--><g fill="none"><path d="M0,0h24v24h-24Z"></path><path stroke="#323232" stroke-linecap="round" stroke-linejoin="round" stroke-width="1.5" d="M19.0711,4.92893c3.90524,3.90524 3.90524,10.2369 0,14.1421c-3.90524,3.90524 -10.2369,3.90524 -14.1421,0c-3.90524,-3.90524 -3.90524,-10.2369 -1.77636e-15,-14.1421c3.90524,-3.90524 10.2369,-3.90524 14.1421,-1.77636e-15"></path><path stroke="#323232" stroke-linecap="round" stroke-linejoin="round" stroke-width="1.5" d="M17.75,8.624c-0.137,-0.602 -0.544,-1.078 -1.061,-1.241c-0.936,-0.292 -4.689,-0.292 -4.689,-0.292c0,0 -3.751,0 -4.688,0.292c-0.516,0.161 -0.923,0.636 -1.062,1.241c-0.25,1.093 -0.25,3.376 -0.25,3.376c0,0 0,2.283 0.25,3.376c0.137,0.602 0.544,1.078 1.061,1.241c0.938,0.292 4.689,0.292 4.689,0.292c0,0 3.753,0 4.688,-0.292c0.515,-0.161 0.922,-0.636 1.061,-1.241c0.251,-1.093 0.251,-3.376 0.251,-3.376c0,0 0,-2.283 -0.25,-3.376Z"></path><path stroke="#323232" stroke-linecap="round" stroke-linejoin="round" stroke-width="1.5" d="M10.577,14.273l3.937,-2.273l-3.936,-2.273v4.546Z"></path></g></svg>