<?xml version="1.0" encoding="UTF-8"?><svg version="1.1" viewBox="0 0 24 24" xmlns="http://www.w3.org/2000/svg" xmlns:xlink="http://www.w3.org/1999/xlink"><path d="M11.5 3v1.15463m1 .86765v1.25m-1 .86764v1.25m1 .86765v1.25m-1 .86765v1.25m1 .86764v1.25m-1 5.103v1.15414m1-3.27184v1.25m-4.5-15.9782h8l-2.18557e-07 5.32907e-15c2.76142-1.20706e-07 5 2.23858 5 5v8 1.77636e-15c0 2.76142-2.23858 5-5 5 0 0-1.77636e-15 0-1.77636e-15 0h-8l-2.18557e-07-7.10543e-15c-2.76142-1.20706e-07-5-2.23858-5-5 0 0 0-1.77636e-15 0-1.77636e-15v-8l5.68434e-14 7.54979e-07c-4.16963e-07-2.76142 2.23858-5 5-5Zm3.5 12.6105v1.25" stroke-linecap="round" stroke-width="1.5" stroke="#323232" fill="none" stroke-linejoin="round"></path><path fill="none" d="M0 0h24v24h-24Z"></path></svg>