<svg xmlns="http://www.w3.org/2000/svg" viewBox="0 0 24 24"><g id="Layer_2" data-name="Layer 2"><rect width="24" height="24" fill="none"/><rect width="24" height="24" transform="translate(24 24) rotate(-180)" fill="none"/><path d="M17.9875,12l.00013,7.54307A1.97441,1.97441,0,0,1,16.534,21.4694a19.7434,19.7434,0,0,1-9.09291,0,1.97442,1.97442,0,0,1-1.45368-1.92633L5.9875,12" fill="none" stroke="#323232" stroke-linecap="round" stroke-linejoin="round" stroke-width="1.5"/><line x1="15" y1="6" x2="15" y2="9" fill="none" stroke="#323232" stroke-linecap="round" stroke-linejoin="round" stroke-width="1.5"/><line x1="9" y1="6" x2="9" y2="9" fill="none" stroke="#323232" stroke-linecap="round" stroke-linejoin="round" stroke-width="1.5"/><path d="M17,5l1.96757.60432A2,2,0,0,1,20.295,6.93819l1.5343,5.08259a3.99983,3.99983,0,0,1,.09961,1.90663l-.813,4.25507A1.00634,1.00634,0,0,1,20.12749,19H17.98763" fill="none" stroke="#323232" stroke-linecap="round" stroke-linejoin="round" stroke-width="1.5"/><path d="M7,5l-1.96757.60432A2,2,0,0,0,3.705,6.93819l-1.5343,5.08259a3.99983,3.99983,0,0,0-.09961,1.90663l.813,4.25507A1.00634,1.00634,0,0,0,3.87251,19H5.98738" fill="none" stroke="#323232" stroke-linecap="round" stroke-linejoin="round" stroke-width="1.5"/><path d="M14.8,15.33333,14.1,14.4a1,1,0,0,0-.8-.4H10.7a1,1,0,0,0-.8.4l-.7.93333a1,1,0,0,0-.2.6V18a1,1,0,0,0,1,1h4a1,1,0,0,0,1-1V15.93333A1,1,0,0,0,14.8,15.33333Z" fill="none" stroke="#323232" stroke-linecap="round" stroke-linejoin="round" stroke-width="1.5"/><path d="M7,5l3.6896,1.27931a4,4,0,0,0,2.6208,0L17,5" fill="none" stroke="#323232" stroke-linecap="round" stroke-linejoin="round" stroke-width="1.5"/><path d="M17,5V4.36932A2,2,0,0,0,15.48507,2.429h0a14.36933,14.36933,0,0,0-6.97013,0h0A2,2,0,0,0,7,4.36932V5" fill="none" stroke="#323232" stroke-linecap="round" stroke-linejoin="round" stroke-width="1.5"/></g></svg>