<?xml version="1.0" encoding="UTF-8"?><svg version="1.1" viewBox="0 0 24 24" xmlns="http://www.w3.org/2000/svg" xmlns:xlink="http://www.w3.org/1999/xlink"><!--Generated by IJSVG (https://github.com/iconjar/IJSVG)--><g stroke-linecap="round" stroke-width="1.5" stroke="#323232" fill="none" stroke-linejoin="round"><path d="M12.286,22h-9.143c-0.632,0 -1.143,-0.511 -1.143,-1.143v-5.714c0,-0.632 0.511,-1.143 1.143,-1.143h9.143c0.631,0 1.143,0.511 1.143,1.143v5.714c-1.77636e-15,0.632 -0.512,1.143 -1.143,1.143Z"></path><path d="M20.857,10h-9.143c-0.631,0 -1.143,-0.511 -1.143,-1.143v-5.714c1.77636e-15,-0.632 0.512,-1.143 1.143,-1.143h9.143c0.632,0 1.143,0.511 1.143,1.143v5.714c0,0.632 -0.511,1.143 -1.143,1.143Z"></path><path d="M12.857,4.75v2.5"></path><path d="M19.714,4.75v2.5"></path><path d="M2.5,8.5l1.5,1.5l1.5,-1.5"></path><path d="M4,10v-2c0,-1.657 1.343,-3 3,-3"></path><path d="M21.5,15.5l-1.5,-1.5l-1.5,1.5"></path><path d="M20,14v2c0,1.657 -1.343,3 -3,3"></path><path d="M11.0354,16.4646c0.0195262,0.0195262 0.0195262,0.0511845 0,0.0707107c-0.0195262,0.0195262 -0.0511845,0.0195262 -0.0707107,0c-0.0195262,-0.0195262 -0.0195262,-0.0511845 0,-0.0707107c0.0195262,-0.0195262 0.0511845,-0.0195262 0.0707107,0"></path><path d="M4.46436,19.4646c0.0195262,0.0195262 0.0195262,0.0511845 0,0.0707107c-0.0195262,0.0195262 -0.0511845,0.0195262 -0.0707107,0c-0.0195262,-0.0195262 -0.0195262,-0.0511845 0,-0.0707107c0.0195262,-0.0195262 0.0511845,-0.0195262 0.0707107,0"></path><path d="M8.59788,17.1161c0.488155,0.488155 0.488155,1.27961 0,1.76777c-0.488155,0.488155 -1.27961,0.488155 -1.76777,0c-0.488155,-0.488155 -0.488155,-1.27961 0,-1.76777c0.488155,-0.488155 1.27961,-0.488155 1.76777,0"></path><path d="M17.1699,5.11612c0.488155,0.488155 0.488155,1.27961 0,1.76777c-0.488155,0.488155 -1.27961,0.488155 -1.76777,0c-0.488155,-0.488155 -0.488155,-1.27961 0,-1.76777c0.488155,-0.488155 1.27961,-0.488155 1.76777,0"></path></g><path fill="none" d="M0,0h24v24h-24Z"></path></svg>