<?xml version="1.0" encoding="UTF-8"?><svg version="1.1" viewBox="0 0 24 24" xmlns="http://www.w3.org/2000/svg" xmlns:xlink="http://www.w3.org/1999/xlink"><!--Generated by IJSVG (https://github.com/iconjar/IJSVG)--><g fill="none"><path d="M0,0h24v24h-24Z"></path><path stroke="#323232" stroke-linecap="round" stroke-linejoin="round" stroke-width="1.5" d="M9,16l2,2l-2,2"></path><path stroke="#323232" stroke-linecap="round" stroke-linejoin="round" stroke-width="1.5" d="M4,13v3c0,1.105 0.895,2 2,2h5"></path><path stroke="#323232" stroke-linecap="round" stroke-linejoin="round" stroke-width="1.5" d="M15,8l-2,-2l2,-2"></path><path stroke="#323232" stroke-linecap="round" stroke-linejoin="round" stroke-width="1.5" d="M20,11v-3c0,-1.105 -0.895,-2 -2,-2h-5"></path><path stroke="#323232" stroke-linecap="round" stroke-linejoin="round" stroke-width="1.5" d="M8,10h-3c-1.105,0 -2,-0.895 -2,-2v-3c0,-1.105 0.895,-2 2,-2h3c1.105,0 2,0.895 2,2v3c0,1.105 -0.895,2 -2,2Z"></path><path stroke="#323232" stroke-linecap="round" stroke-linejoin="round" stroke-width="1.5" d="M19,21h-3c-1.105,0 -2,-0.895 -2,-2v-3c0,-1.105 0.895,-2 2,-2h3c1.105,0 2,0.895 2,2v3c0,1.105 -0.895,2 -2,2Z"></path></g></svg>