<?xml version="1.0" encoding="UTF-8"?><svg version="1.1" viewBox="0 0 24 24" xmlns="http://www.w3.org/2000/svg" xmlns:xlink="http://www.w3.org/1999/xlink"><defs><path d="M21 18c0 1.657-1.343 3-3 3" id="a"></path><path d="M3 6c0-1.657 1.343-3 3-3" id="b"></path></defs><g stroke-linecap="round" stroke-width="1.5" stroke="#323232" fill="none" stroke-linejoin="round"><use xlink:href="#a"></use><use xlink:href="#a"></use><use xlink:href="#b"></use><use xlink:href="#b"></use><path d="M6 21c-1.657 0-3-1.343-3-3"></path><path d="M18 3c1.657 0 3 1.343 3 3"></path><path d="M3 13.625v1.25"></path><path d="M3 9.125v1.25"></path><path d="M21 10.375v-1.25"></path><path d="M21 14.875v-1.25"></path><path d="M13.625 21h1.25"></path><path d="M9.125 21h1.25"></path><path d="M10.375 3h-1.25"></path><path d="M14.875 3h-1.25"></path><path d="M9.899 14.1l4.2-4.2"></path><path d="M14.289 13.953c.094.094.094.246 0 .339 -.094.094-.246.094-.339 0 -.094-.094-.094-.246 0-.339 .093-.094.245-.094.339 0"></path><path d="M10.049 9.708c.094.094.094.246 0 .339 -.094.094-.246.094-.339 0 -.093-.094-.094-.246 0-.339 .094-.093.246-.094.339 0"></path></g><rect width="24" height="24" fill="none"></rect></svg>