<svg width="20" height="18" viewBox="0 0 20 18" fill="none" xmlns="http://www.w3.org/2000/svg">
<path d="M16.8266 3.95719C15.171 0.467773 14.18 0.467773 13.7516 0.467773C13.6755 0.467773 13.5999 0.474297 13.5256 0.486602C12.8186 0.604336 11.9094 1.34719 10.8185 2.69672H9.99993H9.18063C8.09044 1.34719 7.18056 0.604297 6.47356 0.486602C6.3997 0.474297 6.32399 0.467773 6.24864 0.467773H6.23888C5.80497 0.467773 4.81653 0.493125 3.17251 3.95719C1.33548 5.42988 -1.26913 9.01965 0.706689 13.3004C2.65966 17.532 8.18423 17.532 9.99993 17.532C11.8152 17.532 17.3402 17.532 19.2932 13.3008C21.2693 9.01965 18.6644 5.42988 16.8266 3.95719ZM18.2834 12.8343C16.676 16.3161 11.9783 16.4193 9.99997 16.4193C8.02239 16.4193 3.32395 16.3161 1.71724 12.8343C-0.508116 8.01273 4.06571 4.67469 4.06571 4.67469C4.06571 4.67469 5.49349 1.58043 6.24833 1.58043L6.29106 1.58406C7.03286 1.70758 8.64028 3.80941 8.64028 3.80941H9.99997H11.3597C11.3597 3.80941 12.9671 1.70758 13.7089 1.58406L13.7516 1.58043C14.5057 1.58043 15.9342 4.67469 15.9342 4.67469C15.9342 4.67469 20.5088 8.01273 18.2834 12.8343Z" fill="white"/>
<path d="M3.04688 11.2794L7.09914 11.5985L7.12812 11.2287L3.07586 10.9099L3.04688 11.2794Z" fill="white"/>
<path d="M2.97656 12.8863L3.01602 13.2551L6.97051 12.8331L6.93102 12.4644L2.97656 12.8863Z" fill="white"/>
<path d="M12.9011 11.5985L16.9526 11.2794L16.9236 10.9099L12.8721 11.2287L12.9011 11.5985Z" fill="white"/>
<path d="M13.0295 12.8331L16.9841 13.2551L17.0235 12.8863L13.069 12.4644L13.0295 12.8331Z" fill="white"/>
<path d="M12.3916 13.3932C12.0797 13.4678 11.8168 13.4989 11.5977 13.4989C11.3068 13.4989 11.0964 13.4446 10.9388 13.3653C10.7052 13.2458 10.5694 13.0676 10.4763 12.8379C10.3854 12.6101 10.3524 12.3359 10.3528 12.0896C10.3528 11.9353 10.3658 11.7995 10.3799 11.6861L11.033 11.0331C11.1532 10.9128 11.1894 10.7317 11.1242 10.5749C11.059 10.4177 10.9062 10.3152 10.7359 10.3152H9.26394C9.09012 10.3152 8.93437 10.4224 8.87207 10.5847C8.80902 10.7469 8.85324 10.9309 8.98219 11.0476L9.61094 11.6169C9.62906 11.7386 9.64715 11.9031 9.64679 12.0903C9.64855 12.4199 9.58699 12.7941 9.41422 13.0505C9.32765 13.1802 9.21828 13.2856 9.06109 13.3652C8.90387 13.4446 8.69312 13.4989 8.40262 13.4989C8.18383 13.4989 7.92055 13.4677 7.60863 13.3928C7.43914 13.3522 7.2689 13.4569 7.22832 13.626C7.18812 13.7955 7.29281 13.9658 7.46195 14.0064C7.81258 14.09 8.12371 14.1291 8.40262 14.1295C8.77168 14.1295 9.08605 14.0589 9.34504 13.9285C9.6489 13.7763 9.86152 13.5431 10.0035 13.2899C10.0238 13.3258 10.0368 13.3627 10.0593 13.3978C10.198 13.6083 10.3961 13.7981 10.6547 13.9285C10.9141 14.0589 11.2285 14.1299 11.5975 14.1295C11.8764 14.1295 12.1875 14.09 12.5382 14.006C12.7077 13.9654 12.812 13.7955 12.7714 13.626C12.731 13.4569 12.5607 13.3526 12.3916 13.3932Z" fill="white"/>
<path d="M5.96648 3.12915L5.41016 4.51997L6.80102 4.24181L5.96648 3.12915Z" fill="white"/>
<path d="M14.0337 3.12915L13.1992 4.24181L14.59 4.51997L14.0337 3.12915Z" fill="white"/>
<path d="M5.7041 8.44568C5.7041 8.99189 6.14742 9.43486 6.69363 9.43486C7.2398 9.43486 7.68242 8.99189 7.68242 8.44568C7.68242 7.89947 7.2398 7.45654 6.69363 7.45654C6.14742 7.45654 5.7041 7.89947 5.7041 8.44568Z" fill="white"/>
<path d="M13.3065 9.43486C13.8527 9.43486 14.2957 8.99189 14.2957 8.44568C14.2957 7.89947 13.8527 7.45654 13.3065 7.45654C12.7603 7.45654 12.3174 7.89951 12.3174 8.44568C12.3174 8.99189 12.7603 9.43486 13.3065 9.43486Z" fill="white"/>
</svg>
