<svg width="40" height="40" viewBox="0 0 40 40" fill="none" xmlns="http://www.w3.org/2000/svg">
<rect width="40" height="40" rx="20" fill="white"/>
<path opacity="0.967" fill-rule="evenodd" clip-rule="evenodd" d="M21.0278 9.98093C21.8525 10.0329 22.4427 10.4272 22.7984 11.1639C23.244 13.4908 22.5229 15.3671 20.6349 16.7929C19.5176 17.2282 18.6459 16.9314 18.0196 15.9025C17.5354 14.1122 17.902 12.5111 19.1192 11.0993C19.6536 10.5263 20.2898 10.1535 21.0278 9.98093Z" fill="#CD1F46"/>
<path opacity="0.957" fill-rule="evenodd" clip-rule="evenodd" d="M14.3239 10.3902C16.181 10.785 16.9856 11.9413 16.7377 13.8591C16.6054 15.4861 15.8404 16.7043 14.4429 17.5138C12.5918 17.2566 11.7045 16.1787 11.781 14.2797C11.8257 12.4177 12.6734 11.1212 14.3239 10.3902Z" fill="#CD1F46"/>
<path opacity="0.962" fill-rule="evenodd" clip-rule="evenodd" d="M25.8355 13.6089C27.9895 13.8452 28.6093 14.9592 27.6951 16.951C26.8417 18.7256 25.4346 19.6348 23.4739 19.6786C21.8963 18.8143 21.565 17.572 22.4802 15.9515C23.3298 14.7601 24.4481 13.9792 25.8355 13.6089Z" fill="#CD1F46"/>
<path opacity="0.982" fill-rule="evenodd" clip-rule="evenodd" d="M18.755 18.2095C19.8784 18.6154 20.6444 19.374 21.0531 20.4854C22.0372 23.6981 21.73 26.7385 20.1315 29.6065C19.06 30.3489 17.9947 30.3317 16.9353 29.5553C16.2141 28.7422 15.4931 27.9289 14.7719 27.1158C12.9757 26.6158 11.3502 25.79 9.89529 24.6385C8.97062 23.5309 8.94021 22.3899 9.80408 21.2152C12.4218 19.054 15.4055 18.052 18.755 18.2095Z" fill="#CD1F46"/>
<path opacity="0.966" fill-rule="evenodd" clip-rule="evenodd" d="M27.0265 20.2974C29.9266 20.8473 30.5233 22.3449 28.8171 24.7901C27.4656 26.3547 25.8563 26.7315 23.9894 25.9207C22.9563 24.7841 22.8785 23.5673 23.7557 22.2705C24.6493 21.2613 25.7397 20.6035 27.0265 20.2974Z" fill="#CD1F46"/>
</svg>
