<svg width="28" height="27" viewBox="0 0 28 27" fill="none" xmlns="http://www.w3.org/2000/svg">
<g clip-path="url(#clip0_95_5098)">
<path d="M23.216 6.6924C20.9809 1.98169 19.6431 1.98169 19.0646 1.98169C18.9619 1.98169 18.8598 1.9905 18.7596 2.00711C17.8051 2.16605 16.5777 3.1689 15.105 4.99077H13.9999H12.8939C11.4221 3.1689 10.1938 2.166 9.23931 2.00711C9.13959 1.9905 9.03739 1.98169 8.93567 1.98169H8.92248C8.33671 1.98169 7.00232 2.01591 4.78289 6.6924C2.3029 8.68054 -1.21333 13.5267 1.45403 19.3058C4.09054 25.0184 11.5487 25.0184 13.9999 25.0184C16.4506 25.0184 23.9093 25.0184 26.5458 19.3063C29.2136 13.5267 25.697 8.68054 23.216 6.6924ZM25.1826 18.6765C23.0126 23.3769 16.6707 23.5162 14 23.5162C11.3302 23.5162 4.98734 23.3769 2.81827 18.6765C-0.185957 12.1674 5.98871 7.66102 5.98871 7.66102C5.98871 7.66102 7.91621 3.48378 8.93524 3.48378L8.99294 3.48868C9.99436 3.65543 12.1644 6.4929 12.1644 6.4929H14H15.8355C15.8355 6.4929 18.0056 3.65543 19.007 3.48868L19.0647 3.48378C20.0827 3.48378 22.0112 7.66102 22.0112 7.66102C22.0112 7.66102 28.1868 12.1674 25.1826 18.6765Z" fill="#07082F"/>
<path d="M4.61328 16.5774L10.0838 17.0082L10.123 16.5089L4.65241 16.0786L4.61328 16.5774Z" fill="#07082F"/>
<path d="M4.51831 18.7469L4.57157 19.2447L9.91014 18.6751L9.85682 18.1772L4.51831 18.7469Z" fill="#07082F"/>
<path d="M17.9161 17.0082L23.3856 16.5774L23.3466 16.0786L17.877 16.5089L17.9161 17.0082Z" fill="#07082F"/>
<path d="M18.0898 18.6751L23.4285 19.2447L23.4817 18.7469L18.1432 18.1772L18.0898 18.6751Z" fill="#07082F"/>
<path d="M17.2281 19.4309C16.8071 19.5316 16.4521 19.5737 16.1563 19.5737C15.7636 19.5737 15.4796 19.5003 15.2669 19.3932C14.9515 19.2319 14.7681 18.9914 14.6425 18.6813C14.5197 18.3738 14.4752 18.0036 14.4757 17.6711C14.4757 17.4628 14.4933 17.2794 14.5124 17.1264L15.394 16.2448C15.5563 16.0824 15.6052 15.838 15.5172 15.6262C15.4291 15.414 15.2228 15.2756 14.993 15.2756H13.0058C12.7711 15.2756 12.5609 15.4204 12.4768 15.6395C12.3916 15.8585 12.4513 16.1069 12.6254 16.2644L13.4742 17.033C13.4987 17.1973 13.5231 17.4193 13.5226 17.672C13.525 18.117 13.4419 18.6221 13.2087 18.9683C13.0918 19.1434 12.9441 19.2857 12.7319 19.3932C12.5197 19.5003 12.2352 19.5736 11.843 19.5736C11.5476 19.5736 11.1922 19.5316 10.7711 19.4304C10.5423 19.3756 10.3125 19.517 10.2577 19.7453C10.2034 19.9741 10.3448 20.2039 10.5731 20.2587C11.0464 20.3717 11.4665 20.4245 11.843 20.4249C12.3412 20.4249 12.7656 20.3296 13.1153 20.1536C13.5255 19.9482 13.8125 19.6333 14.0042 19.2915C14.0316 19.3399 14.0492 19.3898 14.0795 19.4372C14.2668 19.7213 14.5342 19.9775 14.8833 20.1536C15.2334 20.3296 15.6579 20.4255 16.1561 20.4249C16.5327 20.4249 16.9526 20.3717 17.426 20.2582C17.6548 20.2035 17.7956 19.9741 17.7409 19.7453C17.6863 19.517 17.4565 19.3762 17.2281 19.4309Z" fill="#07082F"/>
<path d="M8.55475 5.57471L7.80371 7.45231L9.68137 7.07679L8.55475 5.57471Z" fill="#07082F"/>
<path d="M19.4452 5.57471L18.3186 7.07679L20.1962 7.45231L19.4452 5.57471Z" fill="#07082F"/>
<path d="M8.2002 12.7516C8.2002 13.489 8.79868 14.087 9.53606 14.087C10.2734 14.087 10.8709 13.489 10.8709 12.7516C10.8709 12.0142 10.2734 11.4163 9.53606 11.4163C8.79868 11.4163 8.2002 12.0142 8.2002 12.7516Z" fill="#07082F"/>
<path d="M18.4642 14.087C19.2016 14.087 19.7996 13.489 19.7996 12.7516C19.7996 12.0142 19.2016 11.4163 18.4642 11.4163C17.7269 11.4163 17.1289 12.0143 17.1289 12.7516C17.1289 13.489 17.7269 14.087 18.4642 14.087Z" fill="#07082F"/>
</g>
<defs>
<clipPath id="clip0_95_5098">
<rect width="27" height="27" fill="white" transform="translate(0.5)"/>
</clipPath>
</defs>
</svg>
