<svg width="36" height="36" viewBox="0 0 36 36" fill="none" xmlns="http://www.w3.org/2000/svg">
<path d="M28.5478 10.3705C28.9871 9.93118 29.6994 9.93118 30.1387 10.3705C30.5381 10.7699 30.5745 11.3949 30.2477 11.8353L30.1387 11.9615L18.8047 23.2955C18.4053 23.6949 17.7802 23.7312 17.3398 23.4044L17.2136 23.2954L11.5481 17.6284C11.1089 17.189 11.109 16.4767 11.5484 16.0374C11.9478 15.6381 12.5728 15.6018 13.0132 15.9287L13.1394 16.0376L18.0092 20.907L28.5478 10.3705Z" fill="white"/>
<path d="M18 3.375C20.2971 3.375 22.5254 3.91806 24.5594 4.94093C25.1145 5.22007 25.3382 5.89635 25.0591 6.45143C24.7799 7.00651 24.1037 7.23021 23.5486 6.95107C21.8241 6.08387 19.9412 5.625 18 5.625C11.1648 5.625 5.625 11.1648 5.625 18C5.625 24.8352 11.1648 30.375 18 30.375C24.8352 30.375 30.375 24.8352 30.375 18C30.375 17.3787 30.8787 16.875 31.5 16.875C32.1213 16.875 32.625 17.3787 32.625 18C32.625 26.0778 26.0778 32.625 18 32.625C9.92218 32.625 3.375 26.0778 3.375 18C3.375 9.92218 9.92218 3.375 18 3.375Z" fill="white"/>
</svg>
