<svg width="25" height="24" viewBox="0 0 25 24" fill="none" xmlns="http://www.w3.org/2000/svg">
<path fill-rule="evenodd" clip-rule="evenodd" d="M8.60456 6.25H20.3954C21.4197 6.25 22.25 7.08031 22.25 8.10456V19.8954C22.25 20.9197 21.4197 21.75 20.3954 21.75H8.60456C7.58031 21.75 6.75 20.9197 6.75 19.8954V8.10456C6.75 7.08031 7.58031 6.25 8.60456 6.25ZM20.3954 7.75H8.60456C8.40874 7.75 8.25 7.90874 8.25 8.10456V19.8954C8.25 20.0913 8.40874 20.25 8.60456 20.25H20.3954C20.5913 20.25 20.75 20.0913 20.75 19.8954V8.10456C20.75 7.90874 20.5913 7.75 20.3954 7.75Z" fill="#CD1F46"/>
<path d="M15.5 2.25C16.9625 2.25 18.1584 3.3917 18.245 4.83248L18.25 5V7C18.25 7.41421 17.9142 7.75 17.5 7.75C17.1203 7.75 16.8065 7.46785 16.7568 7.10177L16.75 7V5C16.75 4.35279 16.2581 3.82047 15.6278 3.75645L15.5 3.75H5.5C4.85279 3.75 4.32047 4.24187 4.25645 4.87219L4.25 5V15C4.25 15.6472 4.74187 16.1795 5.37219 16.2435L5.5 16.25H7.5C7.91421 16.25 8.25 16.5858 8.25 17C8.25 17.3797 7.96785 17.6935 7.60177 17.7432L7.5 17.75H5.5C4.03747 17.75 2.8416 16.6083 2.75502 15.1675L2.75 15V5C2.75 3.53747 3.8917 2.3416 5.33248 2.25502L5.5 2.25H15.5Z" fill="#CD1F46"/>
</svg>
