<svg width="111" height="77" viewBox="0 0 111 77" fill="none" xmlns="http://www.w3.org/2000/svg">
<path d="M0.386711 16.5397C6.09418 14.1029 11.1462 13.9212 17.1684 15.3748C18.0997 15.2223 16.8861 14.4014 16.5844 14.1451C13.8231 11.9614 9.32592 11.9062 5.77619 12.0912C14.378 7.0943 25.3322 2.81451 35.3032 3.91772C46.8804 4.96577 58.8567 13.2398 60.041 25.4237C52.8701 27.9709 45.6052 32.3999 41.9127 39.3014C37.9996 48.63 47.6559 53.3479 55.4821 47.6923C61.8288 43.1043 65.1482 35.2163 65.4013 27.4679C95.4799 21.4035 115.084 47.5268 108.79 75.8565C108.781 75.8911 108.779 75.9271 108.784 75.9624C108.789 75.9978 108.802 76.0317 108.82 76.062C108.839 76.0924 108.864 76.1186 108.893 76.1391C108.923 76.1595 108.956 76.1738 108.991 76.181C109.025 76.1903 109.06 76.1927 109.094 76.1883C109.129 76.1838 109.162 76.1725 109.193 76.155C109.223 76.1374 109.249 76.1141 109.27 76.0862C109.291 76.0584 109.307 76.0266 109.315 75.9928C117.197 46.5826 96.5733 18.9148 65.2098 24.0999C64.1877 15.0763 57.7697 7.36037 49.7844 3.44074C35.5628 -3.7593 16.9024 1.14024 4.92284 10.7511C5.22784 9.12875 6.1396 7.6751 6.4511 6.05923C6.81451 4.16756 6.09743 0.705444 5.23757 1.7762C4.8559 3.58065 4.3363 5.35315 3.68335 7.07808C3.05387 8.83347 2.28812 10.7965 1.57752 12.5195L1.43475 12.844L0.0265503 16.1471C0.00270081 16.1988 -0.00532532 16.2564 0.00346375 16.3126C0.0122604 16.3689 0.0374908 16.4213 0.0759811 16.4632C0.114471 16.5052 0.164497 16.5348 0.219788 16.5484C0.275078 16.562 0.333145 16.559 0.386711 16.5397ZM56.621 39.4442C51.7831 48.7403 40.7219 47.1861 47.088 38.4351C50.581 34.3083 55.0394 31.1083 60.0669 29.1195C59.726 32.7799 58.5469 36.3127 56.621 39.4442Z" fill="#CD1F46"/>
<path d="M104.458 33.1787C104.435 33.2069 104.405 33.2288 104.371 33.2424C104.338 33.2561 104.301 33.261 104.265 33.2569C104.229 33.2527 104.194 33.2394 104.164 33.2184C104.135 33.1974 104.111 33.1692 104.095 33.1365C101.132 27.1922 94.5032 22.9189 88.627 22.4776C88.5742 22.4743 88.5246 22.4509 88.4885 22.4124C88.4523 22.3738 88.4322 22.3228 88.4323 22.2699C88.4329 22.2168 88.451 22.1654 88.4839 22.1238C88.5168 22.0821 88.5625 22.0525 88.614 22.0395C95.3728 20.3783 102.242 26.8093 104.513 32.7698C104.54 32.8378 104.547 32.9117 104.535 32.9836C104.523 33.0556 104.492 33.123 104.445 33.1787H104.458Z" fill="#CD1F46"/>
<path d="M41.1145 52.8125C37.2468 53.2408 34.849 48.351 36.679 45.1452C36.6907 45.1233 36.7095 45.1059 36.7323 45.0959C36.7551 45.086 36.7807 45.084 36.8047 45.0904C36.8288 45.0968 36.85 45.1112 36.8649 45.1311C36.8797 45.1511 36.8874 45.1755 36.8867 45.2004C36.8867 48.3575 38.0872 51.3654 41.1405 52.5984C41.1644 52.6066 41.1847 52.6228 41.1981 52.6441C41.2114 52.6655 41.2171 52.6909 41.214 52.7159C41.211 52.741 41.1995 52.7642 41.1814 52.7818C41.1633 52.7994 41.1397 52.8102 41.1145 52.8125Z" fill="#CD1F46"/>
<path d="M105.191 35.1611C105.499 35.1343 105.806 35.2234 106.051 35.4109C106.237 35.5446 106.378 35.7312 106.457 35.9463C106.532 36.1547 106.542 36.381 106.486 36.5953C106.411 36.8862 106.248 37.1468 106.019 37.3416C105.744 37.2665 105.488 37.1362 105.266 36.9587C105.116 36.84 105.002 36.6817 104.937 36.5016C104.872 36.3215 104.859 36.127 104.899 35.9398C104.961 35.6683 105.059 35.4063 105.191 35.1611Z" fill="#CD1F46"/>
<path d="M37.1105 43.0847C37.1073 43.1031 37.0984 43.1199 37.0851 43.1329C37.0717 43.1458 37.0545 43.1541 37.0361 43.1567C37.0176 43.1592 36.9989 43.1558 36.9825 43.1469C36.9661 43.1381 36.953 43.1242 36.945 43.1074C36.856 42.9306 36.8041 42.7373 36.7925 42.5396C36.7785 42.2721 36.816 42.0045 36.9028 41.7511C36.9894 41.4988 37.125 41.2661 37.3019 41.0665C37.4314 40.9166 37.5905 40.7951 37.7692 40.7096C37.7856 40.7026 37.8038 40.7006 37.8214 40.7039C37.839 40.7072 37.8552 40.7156 37.868 40.7281C37.8808 40.7406 37.8897 40.7566 37.8935 40.774C37.8972 40.7915 37.8958 40.8097 37.8892 40.8264C37.8081 40.9951 37.7432 41.1509 37.6783 41.3066C37.5907 41.5175 37.5161 41.7284 37.4415 41.9393C37.3668 42.1502 37.2987 42.3611 37.2371 42.5883C37.1916 42.744 37.1494 42.903 37.1105 43.0847Z" fill="#CD1F46"/>
<path d="M38.697 7.87313C33.6644 6.61093 26.4254 6.88024 21.7919 9.28458C21.7821 9.29147 21.7698 9.29414 21.758 9.29201C21.7461 9.28988 21.7356 9.28312 21.7287 9.27323C21.7218 9.26333 21.7191 9.25111 21.7212 9.23924C21.7234 9.22738 21.7301 9.21685 21.74 9.20996C25.7246 5.7089 34.1057 5.33576 38.7262 7.78877C38.7354 7.79403 38.7424 7.80233 38.7461 7.81224C38.7498 7.82215 38.75 7.83305 38.7465 7.84305C38.7431 7.85306 38.7362 7.86153 38.7272 7.86703C38.7181 7.87252 38.7074 7.87467 38.697 7.87313Z" fill="#CD1F46"/>
</svg>
