<svg width="33" height="32" viewBox="0 0 33 32" fill="none" xmlns="http://www.w3.org/2000/svg">
<path d="M19.5661 11.5195C19.9566 11.1289 20.5898 11.1289 20.9803 11.5195C21.3354 11.8745 21.3676 12.43 21.0772 12.8215L20.9803 12.9337L13.4337 20.4803C13.0431 20.8709 12.41 20.8709 12.0195 20.4803C11.6644 20.1253 11.6322 19.5698 11.9226 19.1783L12.0195 19.0661L19.5661 11.5195Z" fill="#FF4141"/>
<path d="M12.0195 11.5195C12.3745 11.1644 12.93 11.1322 13.3215 11.4226L13.4337 11.5195L20.9803 19.0661C21.3709 19.4566 21.3709 20.0898 20.9803 20.4803C20.6253 20.8354 20.0698 20.8676 19.6783 20.5772L19.5661 20.4803L12.0195 12.9337C11.6289 12.5431 11.6289 11.91 12.0195 11.5195Z" fill="#FF4141"/>
<path fill-rule="evenodd" clip-rule="evenodd" d="M16.1317 3.00522L16.5 3C23.5376 3 29.2913 8.59902 29.4948 15.6317L29.5 16C29.5 23.0376 23.901 28.7913 16.8683 28.9948L16.5 29C9.46243 29 3.70871 23.401 3.50522 16.3683L3.5 16C3.5 8.96243 9.09902 3.20871 16.1317 3.00522ZM16.5 5L16.1751 5.0047C10.2377 5.17658 5.5 10.0452 5.4999 15.9855L5.5047 16.3249C5.67658 22.2623 10.5452 27 16.4855 27.0001L16.8249 26.9953C22.7623 26.8234 27.5 21.9548 27.5001 16.0145L27.4953 15.6751C27.3234 9.73772 22.4548 5 16.5 5Z" fill="#FF4141"/>
</svg>
