<svg width="28" height="28" viewBox="0 0 28 28" fill="none" xmlns="http://www.w3.org/2000/svg">
<path fill-rule="evenodd" clip-rule="evenodd" d="M15.8166 2.625C17.1265 2.62338 18.2978 3.417 18.7892 4.6166L18.8647 4.82022L19.2978 6.125L22.75 6.125C23.2332 6.125 23.625 6.51675 23.625 7C23.625 7.44298 23.2958 7.80908 22.8687 7.86702L22.75 7.875H5.25C4.76675 7.875 4.375 7.48325 4.375 7C4.375 6.55703 4.70418 6.19093 5.13127 6.13299L5.25 6.125L8.70217 6.125L9.13784 4.8195C9.55142 3.57775 10.6741 2.71891 11.9656 2.63223L12.1823 2.625L15.8166 2.625ZM21 9.625C21.443 9.625 21.8091 9.95418 21.867 10.3813L21.875 10.5V22.1667C21.875 23.873 20.543 25.2681 18.8621 25.3691L18.6667 25.375H9.33333C7.62705 25.375 6.23186 24.043 6.13086 22.3621L6.125 22.1667V10.5C6.125 10.0168 6.51675 9.625 7 9.625C7.44298 9.625 7.80907 9.95418 7.86701 10.3813L7.875 10.5V22.1667C7.875 22.9217 8.44885 23.5428 9.18423 23.6175L9.33333 23.625H18.6667C19.4217 23.625 20.0428 23.0511 20.1175 22.3158L20.125 22.1667V10.5C20.125 10.0168 20.5168 9.625 21 9.625ZM16.3281 10.7915C16.7711 10.7915 17.1372 11.1207 17.1951 11.5478L17.2031 11.6665V19.8332C17.2031 20.3164 16.8114 20.7082 16.3281 20.7082C15.8851 20.7082 15.5191 20.379 15.4611 19.9519L15.4531 19.8332V11.6665C15.4531 11.1832 15.8449 10.7915 16.3281 10.7915ZM12.5389 11.5478C12.4809 11.1207 12.1149 10.7915 11.6719 10.7915C11.1886 10.7915 10.7969 11.1832 10.7969 11.6665V19.8332L10.8049 19.9519C10.8628 20.379 11.2289 20.7082 11.6719 20.7082C12.1551 20.7082 12.5469 20.3164 12.5469 19.8332V11.6665L12.5389 11.5478ZM12.1862 4.375L15.8218 4.375L15.9775 4.38308C16.5419 4.44257 17.0262 4.82589 17.2083 5.3725L17.4574 6.125H10.5508L10.8022 5.3727L10.8592 5.22787C11.0941 4.71253 11.6106 4.37486 12.1862 4.375Z" fill="#FF4141"/>
</svg>
