<svg width="32" height="33" viewBox="0 0 32 33" fill="none" xmlns="http://www.w3.org/2000/svg">
<path fill-rule="evenodd" clip-rule="evenodd" d="M18.0761 3.5C19.5732 3.49815 20.9118 4.40515 21.4734 5.77611L21.5597 6.00882L22.0547 7.5L26 7.5C26.5523 7.5 27 7.94772 27 8.5C27 9.00626 26.6238 9.42466 26.1357 9.49087L26 9.5H6C5.44772 9.5 5 9.05229 5 8.5C5 7.99374 5.37621 7.57535 5.86431 7.50913L6 7.5L9.94533 7.5L10.4432 6.008C10.9159 4.58886 12.199 3.60733 13.675 3.50827L13.9227 3.5L18.0761 3.5ZM24 11.5C24.5063 11.5 24.9247 11.8762 24.9909 12.3643L25 12.5V25.8333C25 27.7834 23.4777 29.3779 21.5567 29.4933L21.3333 29.5H10.6667C8.71662 29.5 7.12213 27.9777 7.00669 26.0567L7 25.8333V12.5C7 11.9477 7.44772 11.5 8 11.5C8.50626 11.5 8.92465 11.8762 8.99087 12.3643L9 12.5V25.8333C9 26.6963 9.65583 27.406 10.4963 27.4914L10.6667 27.5H21.3333C22.1963 27.5 22.906 26.8442 22.9914 26.0037L23 25.8333V12.5C23 11.9477 23.4477 11.5 24 11.5ZM18.666 12.8334C19.1723 12.8334 19.5907 13.2096 19.6569 13.6977L19.666 13.8334V23.1668C19.666 23.719 19.2183 24.1668 18.666 24.1668C18.1598 24.1668 17.7414 23.7906 17.6751 23.3025L17.666 23.1668V13.8334C17.666 13.2811 18.1137 12.8334 18.666 12.8334ZM14.3249 13.6977C14.2586 13.2096 13.8402 12.8334 13.334 12.8334C12.7817 12.8334 12.334 13.2811 12.334 13.8334V23.1668L12.3431 23.3025C12.4093 23.7906 12.8277 24.1668 13.334 24.1668C13.8863 24.1668 14.334 23.719 14.334 23.1668V13.8334L14.3249 13.6977ZM13.9218 5.5H18.0767L18.2547 5.50923C18.8998 5.57722 19.4532 6.0153 19.6613 6.64001L19.9461 7.5H12.0527L12.3401 6.64023L12.4052 6.47471C12.6737 5.88574 13.264 5.49984 13.9218 5.5Z" fill="#393959"/>
</svg>
