<svg width="24" height="24" viewBox="0 0 24 24" fill="none" xmlns="http://www.w3.org/2000/svg">
<path fill-rule="evenodd" clip-rule="evenodd" d="M13.5571 2.25C14.6799 2.24861 15.6839 2.92886 16.1051 3.95708L16.1698 4.13162L16.541 5.25L19.5 5.25C19.9142 5.25 20.25 5.58579 20.25 6C20.25 6.3797 19.9678 6.69349 19.6018 6.74316L19.5 6.75H4.5C4.08579 6.75 3.75 6.41422 3.75 6C3.75 5.62031 4.03215 5.30651 4.39823 5.25685L4.5 5.25L7.459 5.25L7.83243 4.131C8.18693 3.06664 9.14922 2.3305 10.2562 2.2562L10.442 2.25L13.5571 2.25ZM18 8.25C18.3797 8.25 18.6935 8.53215 18.7432 8.89823L18.75 9V19C18.75 20.4625 17.6083 21.6584 16.1675 21.745L16 21.75H8C6.53747 21.75 5.3416 20.6083 5.25502 19.1675L5.25 19V9C5.25 8.58579 5.58579 8.25 6 8.25C6.3797 8.25 6.69349 8.53215 6.74315 8.89823L6.75 9V19C6.75 19.6472 7.24187 20.1795 7.87219 20.2435L8 20.25H16C16.6472 20.25 17.1795 19.7581 17.2435 19.1278L17.25 19V9C17.25 8.58579 17.5858 8.25 18 8.25ZM13.9961 9.24986C14.3758 9.24986 14.6896 9.53201 14.7392 9.89809L14.7461 9.99986V16.9999C14.7461 17.4141 14.4103 17.7499 13.9961 17.7499C13.6164 17.7499 13.3026 17.4677 13.2529 17.1016L13.2461 16.9999V9.99986C13.2461 9.58565 13.5819 9.24986 13.9961 9.24986ZM10.7471 9.89809C10.6974 9.53201 10.3836 9.24986 10.0039 9.24986C9.58969 9.24986 9.25391 9.58565 9.25391 9.99986V16.9999L9.26075 17.1016C9.31042 17.4677 9.62421 17.7499 10.0039 17.7499C10.4181 17.7499 10.7539 17.4141 10.7539 16.9999V9.99986L10.7471 9.89809ZM10.4448 3.75H13.561L13.6945 3.75692C14.1782 3.80791 14.5933 4.13648 14.7494 4.605L14.963 5.25H9.04297L9.25848 4.60517L9.30729 4.48103C9.5087 4.03931 9.95139 3.74988 10.4448 3.75Z" fill="#FF4141"/>
</svg>
