<svg width="24" height="24" viewBox="0 0 24 24" fill="none" xmlns="http://www.w3.org/2000/svg">
<path fill-rule="evenodd" clip-rule="evenodd" d="M19.1074 17.6476C18.1909 16.8559 16.8045 16.8954 15.934 17.766C15.022 18.6764 15.022 20.1546 15.934 21.0666C16.8445 21.9786 18.3227 21.9786 19.2346 21.0666L19.3533 20.939C20.1447 20.0229 20.1051 18.6365 19.2346 17.766L19.1074 17.6476ZM16.9942 18.827C17.2935 18.5278 17.7619 18.5028 18.0883 18.7516L18.1703 18.8223L18.2487 18.9121C18.4977 19.2392 18.4729 19.7075 18.1744 20.0055C17.8479 20.332 17.3201 20.332 16.9951 20.0064C16.6686 19.6799 16.6686 19.1521 16.9942 18.827Z" fill="white"/>
<path fill-rule="evenodd" clip-rule="evenodd" d="M8.23421 17.7656C7.32266 16.854 5.84611 16.8545 4.93397 17.7651C4.02192 18.6757 4.02238 20.1536 4.93312 21.0658C5.84404 21.9782 7.32224 21.9782 8.23421 21.0662C9.14617 20.1557 9.14617 18.6775 8.23421 17.7656ZM5.99378 18.8267C6.29312 18.5278 6.76127 18.5028 7.08814 18.7516L7.17355 18.8262L7.24826 18.9117C7.49732 19.2388 7.47245 19.7072 7.17397 20.0051C6.84751 20.3316 6.31971 20.3316 5.99463 20.006C5.66868 19.6795 5.66852 19.1514 5.99378 18.8267Z" fill="white"/>
<path d="M14 3.25C14.9179 3.25 15.6712 3.95737 15.7442 4.85651L15.75 5V15C15.75 15.3797 15.4678 15.6935 15.1018 15.7432L15 15.75H2C1.58579 15.75 1.25 15.4142 1.25 15C1.25 14.6203 1.53215 14.3065 1.89823 14.2568L2 14.25H14.25V5C14.25 4.8819 14.1676 4.78258 14.0572 4.75662L14 4.75H10C9.58579 4.75 9.25 4.41421 9.25 4C9.25 3.6203 9.53215 3.30651 9.89823 3.25685L10 3.25H14Z" fill="white"/>
<path d="M2 12.25C2.3797 12.25 2.69349 12.5322 2.74315 12.8982L2.75 13V18.416C2.75 18.5341 2.83244 18.6334 2.94277 18.6594L3 18.666H5C5.41421 18.666 5.75 19.0018 5.75 19.416C5.75 19.7957 5.46785 20.1095 5.10177 20.1592L5 20.166H3C2.0821 20.166 1.32883 19.4586 1.2558 18.5595L1.25 18.416V13C1.25 12.5858 1.58579 12.25 2 12.25Z" fill="white"/>
<path d="M19.323 6.25C19.9881 6.25 20.5911 6.62632 20.8851 7.21168L20.9473 7.3504L22.5538 11.3655C22.6573 11.6253 22.7208 11.8988 22.742 12.1763L22.75 12.385V18.333C22.75 19.2509 22.0426 20.0042 21.1435 20.0772L21 20.083H19.169C18.7548 20.083 18.419 19.7472 18.419 19.333C18.419 18.9533 18.7012 18.6395 19.0672 18.5898L19.169 18.583H21C21.1181 18.583 21.2174 18.5006 21.2434 18.3902L21.25 18.333V12.385C21.25 12.2798 21.2364 12.1746 21.21 12.0723L21.1607 11.9216L19.554 7.90596C19.5241 7.83078 19.4596 7.77607 19.3827 7.7572L19.323 7.75H15C14.5858 7.75 14.25 7.41421 14.25 7C14.25 6.6203 14.5322 6.30651 14.8982 6.25685L15 6.25H19.323Z" fill="white"/>
<path d="M16.0019 18.6699C16.4161 18.6699 16.7519 19.0057 16.7519 19.4199C16.7519 19.7996 16.4697 20.1134 16.1036 20.1631L16.0019 20.1699H8.17188C7.75766 20.1699 7.42188 19.8341 7.42188 19.4199C7.42188 19.0402 7.70403 18.7264 8.0701 18.6768L8.17188 18.6699H16.0019Z" fill="white"/>
<path d="M21.2 9.25C21.6142 9.25 21.95 9.58579 21.95 10C21.95 10.3797 21.6678 10.6935 21.3018 10.7432L21.2 10.75H18.75V13.25H22C22.3797 13.25 22.6935 13.5322 22.7432 13.8982L22.75 14C22.75 14.3797 22.4678 14.6935 22.1018 14.7432L22 14.75H18C17.6203 14.75 17.3065 14.4678 17.2568 14.1018L17.25 14V10C17.25 9.6203 17.5322 9.30651 17.8982 9.25685L18 9.25H21.2Z" fill="white"/>
<path d="M7 3.25C7.41421 3.25 7.75 3.58579 7.75 4C7.75 4.3797 7.46785 4.69349 7.10177 4.74315L7 4.75H2C1.58579 4.75 1.25 4.41421 1.25 4C1.25 3.6203 1.53215 3.30651 1.89823 3.25685L2 3.25H7Z" fill="white"/>
<path d="M5 6.25C5.41421 6.25 5.75 6.58579 5.75 7C5.75 7.3797 5.46785 7.69349 5.10177 7.74315L5 7.75H2C1.58579 7.75 1.25 7.41421 1.25 7C1.25 6.6203 1.53215 6.30651 1.89823 6.25685L2 6.25H5Z" fill="white"/>
<path d="M3 9.25C3.41421 9.25 3.75 9.58579 3.75 10C3.75 10.3797 3.46785 10.6935 3.10177 10.7432L3 10.75H2C1.58579 10.75 1.25 10.4142 1.25 10C1.25 9.6203 1.53215 9.30651 1.89823 9.25685L2 9.25H3Z" fill="white"/>
</svg>
