<svg width="36" height="36" viewBox="0 0 36 36" fill="none" xmlns="http://www.w3.org/2000/svg">
<path fill-rule="evenodd" clip-rule="evenodd" d="M28.6612 26.4714C27.2864 25.2838 25.2067 25.3432 23.901 26.6489C22.533 28.0147 22.533 30.232 23.901 31.5999C25.2667 32.9679 27.484 32.9679 28.852 31.5999L29.03 31.4086C30.2171 30.0344 30.1577 27.9547 28.852 26.6489L28.6612 26.4714ZM25.4913 28.2406C25.9402 27.7917 26.6428 27.7543 27.1324 28.1273L27.2555 28.2334L27.373 28.3681C27.7466 28.8588 27.7093 29.5613 27.2616 30.0083C26.7719 30.498 25.9802 30.498 25.4926 30.0096C25.0029 29.5199 25.0029 28.7282 25.4913 28.2406Z" fill="white"/>
<path fill-rule="evenodd" clip-rule="evenodd" d="M12.3513 26.6484C10.984 25.281 8.76917 25.2817 7.40096 26.6477C6.03289 28.0136 6.03357 30.2304 7.39967 31.5987C8.76605 32.9673 10.9834 32.9673 12.3513 31.5994C13.7193 30.2336 13.7193 28.0163 12.3513 26.6484ZM8.99066 28.24C9.43967 27.7917 10.1419 27.7542 10.6322 28.1274L10.7603 28.2394L10.8724 28.3676C11.246 28.8582 11.2087 29.5607 10.761 30.0077C10.2713 30.4974 9.47957 30.4974 8.99195 30.009C8.50302 29.5193 8.50278 28.7271 8.99066 28.24Z" fill="white"/>
<path d="M21 4.875C22.3769 4.875 23.5067 5.93605 23.6163 7.28477L23.625 7.5V22.5C23.625 23.0695 23.2018 23.5402 22.6527 23.6147L22.5 23.625H3C2.37868 23.625 1.875 23.1213 1.875 22.5C1.875 21.9305 2.29823 21.4598 2.84734 21.3853L3 21.375H21.375V7.5C21.375 7.32285 21.2513 7.17387 21.0858 7.13493L21 7.125H15C14.3787 7.125 13.875 6.62132 13.875 6C13.875 5.43046 14.2982 4.95976 14.8473 4.88527L15 4.875H21Z" fill="white"/>
<path d="M3 18.375C3.56954 18.375 4.04024 18.7982 4.11473 19.3473L4.125 19.5V27.624C4.125 27.8012 4.24866 27.9501 4.41415 27.9891L4.5 27.999H7.5C8.12132 27.999 8.625 28.5027 8.625 29.124C8.625 29.6935 8.20177 30.1642 7.65266 30.2387L7.5 30.249H4.5C3.12315 30.249 1.99325 29.188 1.8837 27.8392L1.875 27.624V19.5C1.875 18.8787 2.37868 18.375 3 18.375Z" fill="white"/>
<path d="M28.9845 9.375C29.9822 9.375 30.8867 9.93948 31.3276 10.8175L31.421 11.0256L33.8306 17.0482C33.9859 17.438 34.0811 17.8483 34.113 18.2645L34.125 18.5775V27.4995C34.125 28.8764 33.0639 30.0062 31.7152 30.1158L31.5 30.1245H28.7535C28.1322 30.1245 27.6285 29.6208 27.6285 28.9995C27.6285 28.43 28.0517 27.9593 28.6008 27.8848L28.7535 27.8745H31.5C31.6772 27.8745 31.8261 27.7508 31.8651 27.5853L31.875 27.4995V18.5775C31.875 18.4197 31.8547 18.2619 31.815 18.1085L31.741 17.8824L29.331 11.8589C29.2862 11.7462 29.1894 11.6641 29.074 11.6358L28.9845 11.625H22.5C21.8787 11.625 21.375 11.1213 21.375 10.5C21.375 9.93046 21.7982 9.45976 22.3473 9.38527L22.5 9.375H28.9845Z" fill="white"/>
<path d="M23.9989 28.0059C24.6202 28.0059 25.1239 28.5095 25.1239 29.1309C25.1239 29.7004 24.7007 30.1711 24.1516 30.2456L23.9989 30.2559H12.2539C11.6326 30.2559 11.1289 29.7522 11.1289 29.1309C11.1289 28.5613 11.5521 28.0906 12.1013 28.0161L12.2539 28.0059H23.9989Z" fill="white"/>
<path d="M31.8 13.875C32.4213 13.875 32.925 14.3787 32.925 15C32.925 15.5695 32.5018 16.0402 31.9527 16.1147L31.8 16.125H28.125V19.875H33C33.5695 19.875 34.0402 20.2982 34.1147 20.8473L34.125 21C34.125 21.5695 33.7018 22.0402 33.1527 22.1147L33 22.125H27C26.4305 22.125 25.9598 21.7018 25.8853 21.1527L25.875 21V15C25.875 14.4305 26.2982 13.9598 26.8473 13.8853L27 13.875H31.8Z" fill="white"/>
<path d="M10.5 4.875C11.1213 4.875 11.625 5.37868 11.625 6C11.625 6.56954 11.2018 7.04024 10.6527 7.11473L10.5 7.125H3C2.37868 7.125 1.875 6.62132 1.875 6C1.875 5.43046 2.29823 4.95976 2.84734 4.88527L3 4.875H10.5Z" fill="white"/>
<path d="M7.5 9.375C8.12132 9.375 8.625 9.87868 8.625 10.5C8.625 11.0695 8.20177 11.5402 7.65266 11.6147L7.5 11.625H3C2.37868 11.625 1.875 11.1213 1.875 10.5C1.875 9.93046 2.29823 9.45976 2.84734 9.38527L3 9.375H7.5Z" fill="white"/>
<path d="M4.5 13.875C5.12132 13.875 5.625 14.3787 5.625 15C5.625 15.5695 5.20177 16.0402 4.65266 16.1147L4.5 16.125H3C2.37868 16.125 1.875 15.6213 1.875 15C1.875 14.4305 2.29823 13.9598 2.84734 13.8853L3 13.875H4.5Z" fill="white"/>
</svg>
