<svg width="27" height="26" viewBox="0 0 27 26" fill="none" xmlns="http://www.w3.org/2000/svg">
<g clip-path="url(#clip0_95_5081)">
<path d="M24.1475 11.1951C24.0093 11.1678 23.87 11.147 23.7308 11.1242C23.7899 10.8907 23.8395 10.6536 23.8786 10.4131C24.5022 8.27658 24.2245 5.77025 22.8446 4.27427C22.6514 4.06482 22.4067 4.18499 22.3184 4.38597C21.3414 4.80706 20.6648 5.47931 20.2642 6.42254C18.8575 5.89521 17.3748 5.95127 15.9149 6.23345C15.7408 6.26709 15.3253 6.47189 14.9476 6.6026C14.8464 6.6123 14.7745 6.6082 14.751 6.5825C14.2048 5.98408 13.5481 5.42531 13.2262 4.65954C13.1198 4.40661 12.7569 4.45132 12.7232 4.6754C12.6537 4.59802 12.591 4.51613 12.5159 4.44257C12.2794 4.21097 11.9551 4.34782 11.8424 4.62044C11.6099 5.1829 11.4869 5.81496 11.4082 6.45426C11.1914 7.14906 11.1405 7.88994 11.2164 8.63219C11.2046 8.77274 11.1949 8.92381 11.1878 9.08309C10.7889 9.05 10.3888 9.01377 9.98495 8.97891C9.71575 8.9558 9.65341 9.40862 9.92097 9.45155C10.3366 9.5184 10.7586 9.57473 11.1827 9.62081C11.1863 9.71405 11.196 9.80469 11.2053 9.89561C10.9443 9.75602 10.6419 9.65553 10.2696 9.60454C10.0019 9.56776 9.83443 9.8319 10.0107 10.0493C10.0919 10.1494 10.1669 10.252 10.2399 10.3555C10.2525 10.7131 10.2987 11.0443 10.3917 11.3693C9.77987 11.2889 9.1671 11.216 8.5602 11.0949C8.41528 11.0659 8.27774 11.1599 8.2288 11.2811C7.95604 11.2918 7.7753 11.657 7.92733 11.8816C8.05516 12.0705 8.18081 12.2406 8.31821 12.3991C7.99186 12.5279 7.65581 12.713 7.34628 12.9167C5.12131 11.7606 3.89658 14.1766 3.31019 16.522C3.19603 16.9402 3.10908 17.3237 3.04851 17.6254C2.78738 18.9262 2.3764 21.1685 3.32468 22.2963C3.6241 22.6525 3.99953 22.9275 4.39793 23.0994C4.77131 23.3229 5.12883 23.37 5.44971 23.29C6.02598 23.2439 6.55727 22.927 6.89579 22.2624C7.73483 23.2082 8.83077 23.9164 10.136 24.222C11.0277 24.4308 11.948 24.3908 12.8321 24.1679C12.8253 24.2191 12.829 24.2731 12.8558 24.3273C13.6004 25.8339 15.4822 26.5382 16.8931 25.5249C17.4376 25.1339 17.6947 24.5348 17.4795 23.8887C17.3335 23.4504 16.9861 23.1047 16.6221 22.7877C18.5518 23.8914 19.3494 20.8028 19.5424 19.0706C19.8074 17.9951 19.8957 16.6396 19.6555 15.4437C19.6813 15.4408 19.7047 15.4444 19.7321 15.437C21.1926 15.0414 22.2335 14.1812 22.9216 13.0749C23.153 13.1438 23.3838 13.2152 23.6173 13.2764C23.8861 13.3465 23.994 12.9461 23.7312 12.8631C23.536 12.8014 23.3395 12.7435 23.1432 12.6847C23.3417 12.306 23.5026 11.9039 23.6299 11.4857C23.7872 11.5014 23.9444 11.5192 24.1022 11.5278C24.2922 11.538 24.3349 11.2326 24.1475 11.1951ZM11.9404 9.68958C12.5728 9.73018 13.2065 9.72799 13.8328 9.6651C13.825 9.67153 13.8171 9.67727 13.8094 9.68356C13.6825 9.66606 13.5438 9.7012 13.4393 9.78583C13.1534 10.0177 12.8927 10.2665 12.6585 10.5393C12.5579 10.612 12.4589 10.6874 12.36 10.763C12.2965 10.7215 12.2326 10.6808 12.1689 10.64C12.0759 10.3518 11.997 10.0636 11.9353 9.77571C11.9365 9.74713 11.9389 9.71829 11.9404 9.68958ZM6.03774 21.8506C4.40709 23.4111 3.74523 20.7585 3.7883 19.567C3.81933 18.7102 3.95646 17.8609 4.13625 17.0243C4.43826 15.6188 4.9176 13.674 6.43217 13.6332C6.41836 13.6465 6.40141 13.6609 6.38829 13.6738C5.34621 14.694 5.07893 15.9263 5.07414 17.3484C5.06922 18.8093 5.49059 20.2306 6.24842 21.4119C6.17938 21.5562 6.11198 21.7076 6.03774 21.8506ZM16.4571 24.3169C16.4471 24.3746 16.4317 24.4313 16.4118 24.4861C16.4362 24.4193 16.3737 24.556 16.3588 24.5802C16.307 24.6662 16.3428 24.613 16.2915 24.6718C16.1864 24.7925 16.1597 24.808 16.0385 24.8836C15.8412 25.0065 15.5937 25.0773 15.3784 25.093C15.1875 25.1071 15.0013 25.0863 14.8245 25.0375C14.7191 25.0035 14.6149 24.9616 14.5123 24.9134C14.2867 24.7928 14.0864 24.6162 13.9307 24.3802C13.8289 24.226 13.7522 24.063 13.6854 23.8956C13.9709 23.782 14.2498 23.6505 14.5194 23.5007C14.7781 23.9692 15.1605 24.3651 15.6483 24.5978C15.8646 24.7011 16.113 24.4301 15.9171 24.2493C15.5604 23.9205 15.1849 23.6435 14.9116 23.264C15.0615 23.1682 15.2071 23.0674 15.3494 22.9613C15.4651 23.0283 15.5785 23.0988 15.689 23.1743C15.9823 23.3745 16.2414 23.6203 16.3952 23.9342C16.4066 23.9576 16.4211 24.0002 16.4404 24.0706C16.446 24.0912 16.4494 24.1125 16.4537 24.1335C16.4531 24.1364 16.4593 24.1811 16.4598 24.1896C16.4611 24.2105 16.4556 24.3007 16.4571 24.3169ZM10.1773 23.0044C7.04098 22.3238 5.47186 17.3572 6.77711 14.6536C7.41081 13.988 8.72126 13.6712 9.17325 12.9401C9.42687 12.911 9.69429 12.9008 9.98495 12.9238C10.2265 12.9429 10.3634 12.6001 10.1842 12.4426C10.0789 12.3501 9.97087 12.2615 9.86423 12.1708C10.2246 12.1766 10.5854 12.1759 10.9475 12.1662C11.0847 12.1625 11.189 12.096 11.2523 12.0018C11.3066 12.0113 11.361 12.0189 11.4153 12.0292C11.6085 12.0663 11.8423 11.8556 11.6997 11.6593C11.5453 11.4464 11.4063 11.2277 11.2697 11.008C11.635 11.2305 11.9951 11.4613 12.3512 11.7015C12.5327 11.824 12.7884 11.7353 12.8949 11.5589C13.038 11.3219 13.2071 11.1123 13.3936 10.9191C13.4014 11.1683 13.413 11.4301 13.4582 11.6642C13.246 11.847 13.1857 12.2135 13.5025 12.3865C15.2916 13.3635 16.5132 15.1704 16.8339 17.1341C16.8298 17.6165 16.7683 18.1236 16.647 18.6545C15.9698 21.6194 13.2035 23.661 10.1773 23.0044ZM18.7774 17.9635C18.7656 18.4157 18.7275 19.0927 18.6125 19.771C18.1612 21.031 17.4129 22.4189 16.7252 21.6262C17.1025 21.1439 17.4126 20.6196 17.6282 20.0659C18.0413 19.0057 18.0329 17.836 17.7446 16.6992C17.6913 15.6325 17.3767 14.5903 16.8126 13.6691C16.796 13.642 16.7765 13.6172 16.7591 13.5907C17.5465 13.8162 18.1042 14.1239 18.4766 15.1056C18.8177 16.0046 18.8021 17.017 18.7774 17.9635ZM22.9987 9.416C21.6617 9.62067 20.3312 9.73661 18.9688 9.782C18.8672 9.78542 18.867 9.93676 18.9688 9.93991C20.2837 9.9827 21.6586 10.0716 22.9644 9.82903C22.9191 10.2373 22.8334 10.6135 22.7129 10.9627C21.6113 10.8131 20.4991 10.7198 19.3967 10.6113C19.2786 10.5997 19.2525 10.7963 19.3687 10.8182C20.4228 11.0163 21.4845 11.2248 22.5518 11.3697C22.3944 11.7203 22.2001 12.0433 21.9744 12.3442C21.1287 12.1073 20.2788 11.8831 19.4305 11.6631C19.2701 11.6214 19.206 11.8597 19.3627 11.9096C20.1425 12.1575 20.9167 12.4307 21.6948 12.6903C21.6824 12.7045 21.6706 12.719 21.658 12.7329C21.0437 13.3489 20.217 13.7917 19.1347 13.9652C19.1291 13.9661 19.1257 13.969 19.1205 13.9704C18.5675 13.0287 17.6378 12.4322 16.1882 12.6001C16.1034 12.6099 16.0368 12.662 15.9923 12.7275C15.7557 12.5206 15.5043 12.33 15.243 12.1572C14.9328 11.9521 14.2554 11.9299 14.3954 11.4605C14.4598 11.2443 14.4663 11.0078 14.4502 10.7684C14.7134 10.6694 14.964 10.532 15.1758 10.3862C15.2765 10.3166 15.2173 10.1402 15.0887 10.18C14.8617 10.2504 14.6359 10.3153 14.4081 10.3714C14.3839 10.1956 14.3567 10.0228 14.3389 9.86102C14.3269 9.75151 14.2707 9.6692 14.1956 9.62135C14.5928 9.56502 14.9867 9.486 15.3733 9.36801C15.5688 9.30827 15.4831 9.04344 15.2913 9.07065C14.1744 9.22938 13.0827 9.21133 11.9854 9.1401C12.0193 8.82004 12.0606 8.506 12.0863 8.21656C12.152 7.47377 12.1648 6.63568 12.3123 5.85816C12.3555 5.76478 12.3972 5.6714 12.446 5.57884C12.9683 6.23605 13.3975 6.96887 13.9536 7.60324C14.092 7.76102 14.311 7.74885 14.4836 7.6716C14.9115 7.48006 15.3535 7.32146 15.803 7.19705C17.0701 6.95424 18.285 7.00045 19.5848 7.11338C19.762 7.15891 19.9389 7.20744 20.1138 7.26842C20.2364 7.41047 20.4961 7.42961 20.6285 7.23752C21.0591 6.61353 22.2208 5.06806 22.6923 6.51851C22.9981 7.45969 23.0478 8.43901 22.9987 9.416Z" fill="#07082F"/>
<path d="M15.2806 15.8758C12.6159 16.3833 10.4004 16.756 7.67806 16.3253C7.46232 16.2913 7.36757 16.5939 7.58605 16.6589C7.83214 16.7319 8.08699 16.7904 8.34265 16.847C8.13976 17.4163 8.41169 18.0388 9.02064 18.2451C9.85627 18.5281 10.9272 18.1651 11.4274 17.4408C11.5345 17.2857 11.3274 17.0958 11.1753 17.1887C10.628 17.523 10.1901 17.8632 9.51707 17.8674C8.87476 17.871 8.63714 17.437 8.58068 16.9021C8.91427 16.9683 9.25457 17.0176 9.59801 17.0546C9.61687 17.2235 9.6356 17.3925 9.65447 17.5616C9.67115 17.7116 9.8709 17.7116 9.88758 17.5616C9.90549 17.401 9.9234 17.2404 9.94117 17.0798C10.7761 17.1459 11.6265 17.1365 12.4614 17.0325C12.5656 17.5426 12.7994 18.019 13.3515 18.1655C14.0355 18.3471 14.7224 17.7451 15.0573 17.2231C15.1714 17.0453 14.9249 16.8834 14.7798 17.009C14.4109 17.3281 14.0199 17.7649 13.4944 17.7624C13.1074 17.7604 12.895 17.3559 12.777 16.9919C13.079 16.946 13.3762 16.8845 13.6707 16.8156C13.652 16.8437 13.639 16.8767 13.6435 16.9203C13.651 16.9915 13.6586 17.0629 13.6661 17.1341C13.6891 17.3518 13.9815 17.3518 14.0045 17.1341C14.012 17.0629 14.0195 16.9915 14.027 16.9203C14.0362 16.8336 13.9874 16.7792 13.9228 16.7532C14.4448 16.6177 14.9523 16.4486 15.4311 16.2334C15.6459 16.1366 15.4843 15.8369 15.2806 15.8758Z" fill="#07082F"/>
<path d="M12.3378 19.8657C11.92 19.8931 11.4914 19.917 11.0941 20.0563C10.858 19.8767 10.5126 20.0634 10.418 20.3173C10.306 20.618 10.5075 21.0169 10.6283 21.2861C10.8064 21.6832 11.1004 22.0081 11.4512 22.259C11.6764 22.4202 11.9784 22.2883 12.1154 22.0848C12.4618 21.5706 12.6848 21.0832 12.7974 20.4692C12.8495 20.1844 12.6698 19.8439 12.3378 19.8657Z" fill="#07082F"/>
<path d="M19.1828 11.9997C18.8376 12.004 18.502 12.0681 18.1628 11.9742C17.9574 11.9174 17.8001 11.8056 17.6762 11.6613C17.7462 11.6151 17.8076 11.5521 17.8388 11.4594C18.0225 10.9168 18.2616 10.4467 18.267 9.86089C18.2689 9.67291 18.0981 9.47671 17.8993 9.49326C17.7212 9.50789 17.5533 9.50009 17.3766 9.49257C17.3504 9.49134 17.3256 9.49613 17.3017 9.50255C17.22 9.37773 17.0939 9.31019 16.8995 9.40015C16.5852 9.54576 16.6505 9.99064 16.6833 10.2693C16.7216 10.5943 16.812 10.9011 16.948 11.1913C16.8886 11.2185 16.8458 11.2747 16.8522 11.3581C16.8609 11.4743 16.8996 11.9249 16.7484 11.9355C16.6431 11.943 16.5351 11.8871 16.4441 11.841C16.2601 11.7482 16.0842 11.6404 15.8991 11.549C15.6228 11.4127 15.345 11.7468 15.5663 11.9799C15.885 12.3155 16.4154 12.6181 16.8958 12.4815C17.2551 12.3793 17.3314 12.0524 17.3068 11.7275C17.6695 12.4266 18.4847 12.7793 19.2913 12.3988C19.489 12.3056 19.3863 11.997 19.1828 11.9997Z" fill="#07082F"/>
<path d="M16.9819 2.76214C15.8256 1.99734 14.619 1.24388 13.6006 0.296963C13.4475 0.154638 13.2666 0.110614 13.0975 0.133173C13.0031 0.0732902 12.8929 0.0289932 12.7655 0.0127236C11.189 -0.188527 9.29039 2.05011 8.25816 3.01302C7.55857 3.66558 6.85666 4.50367 6.03416 5.00201C5.58695 5.27299 5.02654 5.67891 4.76116 6.13241C4.45546 6.65454 4.9538 7.21208 5.503 7.09751C6.63791 6.86057 7.91445 5.49365 8.7174 4.75893C9.49725 4.04512 10.2638 3.32009 11.0739 2.64019C11.6122 2.1882 12.3364 1.89097 12.8838 1.44718C13.5385 2.34378 14.5016 3.02013 15.3857 3.66107C16.0276 4.12633 16.6989 4.55398 17.3583 4.99422C17.8356 5.31291 18.3175 5.81987 18.9309 5.57965C19.2176 5.4674 19.405 5.26151 19.4168 4.94158C19.4535 3.9326 17.6986 3.23629 16.9819 2.76214Z" fill="#07082F"/>
</g>
<defs>
<clipPath id="clip0_95_5081">
<rect width="26" height="26" fill="white" transform="translate(0.5)"/>
</clipPath>
</defs>
</svg>
