<svg width="26" height="26" viewBox="0 0 26 26" fill="none" xmlns="http://www.w3.org/2000/svg">
<g clip-path="url(#clip0_203_590)">
<path d="M23.6473 11.1951C23.5091 11.1678 23.3698 11.147 23.2306 11.1242C23.2896 10.8907 23.3393 10.6536 23.3784 10.4131C24.0019 8.27658 23.7243 5.77025 22.3444 4.27427C22.1512 4.06482 21.9065 4.18499 21.8181 4.38597C20.8411 4.80706 20.1645 5.47931 19.7639 6.42254C18.3572 5.89521 16.8745 5.95127 15.4146 6.23345C15.2406 6.26709 14.8251 6.47189 14.4473 6.6026C14.3462 6.6123 14.2743 6.6082 14.2507 6.5825C13.7045 5.98408 13.0479 5.42531 12.7259 4.65954C12.6195 4.40661 12.2567 4.45132 12.2229 4.6754C12.1535 4.59802 12.0907 4.51613 12.0157 4.44257C11.7791 4.21097 11.4548 4.34782 11.3422 4.62044C11.1096 5.1829 10.9867 5.81496 10.908 6.45426C10.6911 7.14906 10.6403 7.88994 10.7161 8.63219C10.7044 8.77274 10.6947 8.92381 10.6876 9.08309C10.2886 9.05 9.88858 9.01377 9.48471 8.97891C9.21551 8.9558 9.15317 9.40862 9.42072 9.45155C9.83635 9.5184 10.2584 9.57473 10.6825 9.62081C10.6861 9.71405 10.6958 9.80469 10.7051 9.89561C10.4441 9.75602 10.1416 9.65553 9.76936 9.60454C9.50166 9.56776 9.33418 9.8319 9.51041 10.0493C9.59162 10.1494 9.66668 10.252 9.73969 10.3555C9.75227 10.7131 9.79848 11.0443 9.89145 11.3693C9.27963 11.2889 8.66686 11.216 8.05996 11.0949C7.91504 11.0659 7.7775 11.1599 7.72855 11.2811C7.4558 11.2918 7.27506 11.657 7.42709 11.8816C7.55492 12.0705 7.68056 12.2406 7.81797 12.3991C7.49162 12.5279 7.15556 12.713 6.84603 12.9167C4.62107 11.7606 3.39634 14.1766 2.80995 16.522C2.69579 16.9402 2.60883 17.3237 2.54827 17.6254C2.28713 18.9262 1.87616 21.1685 2.82444 22.2963C3.12386 22.6525 3.49929 22.9275 3.89769 23.0994C4.27106 23.3229 4.62859 23.37 4.94946 23.29C5.52574 23.2439 6.05703 22.927 6.39554 22.2624C7.23459 23.2082 8.33053 23.9164 9.63578 24.222C10.5275 24.4308 11.4477 24.3908 12.3319 24.1679C12.325 24.2191 12.3287 24.2731 12.3555 24.3273C13.1001 25.8339 14.9819 26.5382 16.3929 25.5249C16.9374 25.1339 17.1944 24.5348 16.9792 23.8887C16.8332 23.4504 16.4858 23.1047 16.1219 22.7877C18.0515 23.8914 18.8491 20.8028 19.0422 19.0706C19.3072 17.9951 19.3955 16.6396 19.1553 15.4437C19.1811 15.4408 19.2045 15.4444 19.2318 15.437C20.6924 15.0414 21.7332 14.1812 22.4213 13.0749C22.6528 13.1438 22.8836 13.2152 23.1171 13.2764C23.3859 13.3465 23.4938 12.9461 23.231 12.8631C23.0358 12.8014 22.8393 12.7435 22.643 12.6847C22.8415 12.306 23.0024 11.9039 23.1297 11.4857C23.2869 11.5014 23.4441 11.5192 23.6019 11.5278C23.7919 11.538 23.8346 11.2326 23.6473 11.1951ZM11.4402 9.68958C12.0725 9.73018 12.7062 9.72799 13.3325 9.6651C13.3247 9.67153 13.3168 9.67727 13.3092 9.68356C13.1823 9.66606 13.0435 9.7012 12.9391 9.78583C12.6532 10.0177 12.3925 10.2665 12.1583 10.5393C12.0576 10.612 11.9586 10.6874 11.8598 10.763C11.7962 10.7215 11.7324 10.6808 11.6687 10.64C11.5757 10.3518 11.4968 10.0636 11.435 9.77571C11.4362 9.74713 11.4387 9.71829 11.4402 9.68958ZM5.53749 21.8506C3.90685 23.4111 3.24499 20.7585 3.28805 19.567C3.31909 18.7102 3.45622 17.8609 3.636 17.0243C3.93802 15.6188 4.41735 13.674 5.93193 13.6332C5.91812 13.6465 5.90117 13.6609 5.88804 13.6738C4.84597 14.694 4.57868 15.9263 4.5739 17.3484C4.56898 18.8093 4.99034 20.2306 5.74818 21.4119C5.67913 21.5562 5.61173 21.7076 5.53749 21.8506ZM15.9569 24.3169C15.9469 24.3746 15.9314 24.4313 15.9116 24.4861C15.9359 24.4193 15.8735 24.556 15.8586 24.5802C15.8067 24.6662 15.8426 24.613 15.7913 24.6718C15.6861 24.7925 15.6595 24.808 15.5382 24.8836C15.3409 25.0065 15.0935 25.0773 14.8781 25.093C14.6873 25.1071 14.5011 25.0863 14.3243 25.0375C14.2189 25.0035 14.1147 24.9616 14.012 24.9134C13.7864 24.7928 13.5861 24.6162 13.4304 24.3802C13.3287 24.226 13.252 24.063 13.1851 23.8956C13.4706 23.782 13.7495 23.6505 14.0191 23.5007C14.2778 23.9692 14.6602 24.3651 15.148 24.5978C15.3643 24.7011 15.6127 24.4301 15.4168 24.2493C15.0601 23.9205 14.6847 23.6435 14.4114 23.264C14.5612 23.1682 14.7068 23.0674 14.8492 22.9613C14.9648 23.0283 15.0783 23.0988 15.1888 23.1743C15.482 23.3745 15.7411 23.6203 15.8949 23.9342C15.9064 23.9576 15.9209 24.0002 15.9402 24.0706C15.9458 24.0912 15.9492 24.1125 15.9534 24.1335C15.9529 24.1364 15.959 24.1811 15.9596 24.1896C15.9608 24.2105 15.9553 24.3007 15.9569 24.3169ZM9.67707 23.0044C6.54074 22.3238 4.97161 17.3572 6.27687 14.6536C6.91056 13.988 8.22102 13.6712 8.67301 12.9401C8.92662 12.911 9.19404 12.9008 9.48471 12.9238C9.72629 12.9429 9.86315 12.6001 9.68391 12.4426C9.57864 12.3501 9.47063 12.2615 9.36399 12.1708C9.72438 12.1766 10.0852 12.1759 10.4472 12.1662C10.5845 12.1626 10.6888 12.096 10.7521 12.0018C10.8064 12.0113 10.8608 12.0189 10.9151 12.0292C11.1082 12.0663 11.342 11.8556 11.1994 11.6593C11.0451 11.4464 10.906 11.2277 10.7695 11.008C11.1348 11.2305 11.4949 11.4613 11.8509 11.7015C12.0325 11.824 12.2881 11.7353 12.3946 11.5589C12.5378 11.3219 12.7069 11.1123 12.8934 10.9191C12.9012 11.1683 12.9128 11.4301 12.9579 11.6642C12.7457 11.847 12.6854 12.2135 13.0022 12.3865C14.7913 13.3635 16.0129 15.1704 16.3337 17.1341C16.3296 17.6165 16.268 18.1236 16.1468 18.6545C15.4696 21.6194 12.7032 23.661 9.67707 23.0044ZM18.2771 17.9635C18.2654 18.4157 18.2272 19.0927 18.1122 19.771C17.6609 21.031 16.9127 22.4189 16.225 21.6262C16.6023 21.1439 16.9124 20.6196 17.128 20.0659C17.541 19.0057 17.5327 17.836 17.2443 16.6992C17.191 15.6325 16.8764 14.5903 16.3123 13.6691C16.2958 13.642 16.2762 13.6172 16.2589 13.5907C17.0462 13.8162 17.6039 14.1239 17.9763 15.1056C18.3174 16.0046 18.3019 17.017 18.2771 17.9635ZM22.4985 9.416C21.1615 9.62067 19.8309 9.73661 18.4685 9.782C18.3669 9.78542 18.3668 9.93676 18.4685 9.93991C19.7835 9.9827 21.1583 10.0716 22.4641 9.82903C22.4189 10.2373 22.3332 10.6135 22.2127 10.9627C21.111 10.8131 19.9988 10.7198 18.8964 10.6113C18.7783 10.5997 18.7522 10.7963 18.8684 10.8182C19.9225 11.0163 20.9843 11.2248 22.0515 11.3697C21.8942 11.7203 21.6999 12.0433 21.4742 12.3443C20.6284 12.1073 19.7786 11.8831 18.9302 11.6631C18.7698 11.6214 18.7057 11.8597 18.8624 11.9096C19.6423 12.1575 20.4165 12.4307 21.1946 12.6903C21.1821 12.7045 21.1704 12.719 21.1578 12.7329C20.5435 13.3489 19.7168 13.7917 18.6345 13.9652C18.6289 13.9661 18.6255 13.969 18.6203 13.9704C18.0673 13.0287 17.1376 12.4322 15.6879 12.6001C15.6032 12.6099 15.5366 12.662 15.492 12.7275C15.2555 12.5206 15.0041 12.33 14.7428 12.1572C14.4326 11.9521 13.7551 11.9299 13.8951 11.4605C13.9595 11.2443 13.9661 11.0078 13.95 10.7684C14.2131 10.6694 14.4637 10.532 14.6755 10.3862C14.7763 10.3166 14.7171 10.1402 14.5884 10.18C14.3615 10.2504 14.1356 10.3153 13.9078 10.3714C13.8836 10.1956 13.8564 10.0228 13.8387 9.86102C13.8266 9.75151 13.7704 9.6692 13.6954 9.62135C14.0926 9.56502 14.4864 9.486 14.8731 9.36801C15.0686 9.30827 14.9829 9.04344 14.791 9.07065C13.6742 9.22938 12.5825 9.21133 11.4852 9.1401C11.5191 8.82004 11.5604 8.506 11.5861 8.21656C11.6517 7.47377 11.6646 6.63568 11.8121 5.85816C11.8553 5.76478 11.897 5.6714 11.9458 5.57884C12.4681 6.23605 12.8972 6.96887 13.4534 7.60324C13.5918 7.76102 13.8108 7.74885 13.9833 7.6716C14.4112 7.48006 14.8533 7.32146 15.3028 7.19705C16.5699 6.95424 17.7848 7.00045 19.0846 7.11338C19.2618 7.15891 19.4387 7.20744 19.6135 7.26842C19.7362 7.41047 19.9958 7.42961 20.1283 7.23752C20.5588 6.61353 21.7205 5.06806 22.1921 6.51851C22.4979 7.45969 22.5475 8.43901 22.4985 9.416Z" fill="white"/>
<path d="M14.7801 15.8758C12.1155 16.3833 9.89992 16.756 7.17757 16.3253C6.96183 16.2913 6.86708 16.5939 7.08556 16.6589C7.33165 16.7319 7.5865 16.7904 7.84216 16.847C7.63927 17.4163 7.91121 18.0388 8.52015 18.2451C9.35578 18.5281 10.4267 18.1651 10.927 17.4408C11.034 17.2857 10.8269 17.0958 10.6748 17.1887C10.1276 17.523 9.68965 17.8632 9.01658 17.8674C8.37427 17.871 8.13666 17.437 8.08019 16.9021C8.41379 16.9683 8.75408 17.0176 9.09752 17.0546C9.11638 17.2235 9.13511 17.3925 9.15398 17.5616C9.17066 17.7116 9.37041 17.7116 9.38709 17.5616C9.405 17.401 9.42291 17.2404 9.44068 17.0798C10.2756 17.1459 11.126 17.1365 11.961 17.0325C12.0651 17.5426 12.2989 18.019 12.851 18.1655C13.535 18.3471 14.2219 17.7451 14.5568 17.2231C14.6709 17.0453 14.4244 16.8834 14.2793 17.009C13.9104 17.3281 13.5194 17.7649 12.9939 17.7624C12.607 17.7604 12.3945 17.3559 12.2765 16.9919C12.5785 16.946 12.8757 16.8845 13.1702 16.8156C13.1515 16.8437 13.1385 16.8767 13.143 16.9203C13.1506 16.9915 13.1581 17.0629 13.1656 17.1341C13.1886 17.3518 13.481 17.3518 13.504 17.1341C13.5115 17.0629 13.519 16.9915 13.5265 16.9203C13.5357 16.8336 13.4869 16.7792 13.4224 16.7532C13.9443 16.6177 14.4518 16.4486 14.9306 16.2334C15.1454 16.1366 14.9838 15.8369 14.7801 15.8758Z" fill="white"/>
<path d="M11.8378 19.8657C11.42 19.8931 10.9914 19.917 10.5941 20.0563C10.358 19.8767 10.0126 20.0634 9.91799 20.3173C9.80602 20.618 10.0075 21.0169 10.1283 21.2861C10.3064 21.6832 10.6004 22.0081 10.9512 22.259C11.1764 22.4202 11.4784 22.2883 11.6154 22.0848C11.9618 21.5706 12.1848 21.0832 12.2974 20.4692C12.3495 20.1844 12.1698 19.8439 11.8378 19.8657Z" fill="white"/>
<path d="M18.6826 11.9997C18.3374 12.004 18.0017 12.0681 17.6625 11.9742C17.4572 11.9174 17.2998 11.8056 17.1759 11.6613C17.2459 11.6151 17.3073 11.5521 17.3385 11.4594C17.5223 10.9168 17.7614 10.4467 17.7667 9.86089C17.7686 9.67291 17.5979 9.47671 17.3991 9.49326C17.2209 9.50789 17.053 9.50009 16.8764 9.49257C16.8501 9.49134 16.8254 9.49613 16.8015 9.50255C16.7197 9.37773 16.5937 9.31019 16.3992 9.40015C16.0849 9.54576 16.1503 9.99064 16.1831 10.2693C16.2214 10.5943 16.3117 10.9011 16.4478 11.1913C16.3883 11.2185 16.3455 11.2747 16.3519 11.3581C16.3607 11.4743 16.3994 11.9249 16.2482 11.9355C16.1429 11.943 16.0349 11.8871 15.9438 11.841C15.7598 11.7482 15.584 11.6404 15.3989 11.549C15.1226 11.4127 14.8448 11.7468 15.0661 11.9799C15.3848 12.3155 15.9151 12.6181 16.3956 12.4815C16.7549 12.3793 16.8311 12.0524 16.8065 11.7275C17.1692 12.4266 17.9845 12.7793 18.791 12.3988C18.9887 12.3056 18.886 11.997 18.6826 11.9997Z" fill="white"/>
<path d="M16.4819 2.76214C15.3256 1.99734 14.119 1.24388 13.1006 0.296963C12.9475 0.154638 12.7666 0.110614 12.5975 0.133173C12.5031 0.0732902 12.3929 0.0289932 12.2655 0.0127236C10.689 -0.188527 8.79039 2.05011 7.75816 3.01302C7.05857 3.66558 6.35666 4.50367 5.53416 5.00201C5.08695 5.27299 4.52654 5.67891 4.26116 6.13241C3.95546 6.65454 4.4538 7.21208 5.003 7.09751C6.13791 6.86057 7.41445 5.49365 8.2174 4.75893C8.99725 4.04512 9.76383 3.32009 10.5739 2.64019C11.1122 2.1882 11.8364 1.89097 12.3838 1.44718C13.0385 2.34378 14.0016 3.02013 14.8857 3.66107C15.5276 4.12633 16.1989 4.55398 16.8583 4.99422C17.3356 5.31291 17.8175 5.81987 18.4309 5.57965C18.7176 5.4674 18.905 5.26151 18.9168 4.94158C18.9535 3.9326 17.1986 3.23629 16.4819 2.76214Z" fill="white"/>
</g>
<defs>
<clipPath id="clip0_203_590">
<rect width="26" height="26" fill="white"/>
</clipPath>
</defs>
</svg>
