<svg width="33" height="32" viewBox="0 0 33 32" fill="none" xmlns="http://www.w3.org/2000/svg">
<path fill-rule="evenodd" clip-rule="evenodd" d="M16.1317 3.00522L16.5 3C23.5376 3 29.2913 8.59902 29.4948 15.6317L29.5 16C29.5 23.0376 23.901 28.7913 16.8683 28.9948L16.5 29C9.46243 29 3.70871 23.401 3.50522 16.3683L3.5 16C3.5 8.96243 9.09902 3.20871 16.1317 3.00522ZM16.5 5L16.1751 5.0047C10.2377 5.17658 5.5 10.0452 5.4999 15.9855L5.5047 16.3249C5.67658 22.2623 10.5452 27 16.4855 27.0001L16.8249 26.9953C22.7623 26.8234 27.5 21.9548 27.5001 16.0145L27.4953 15.6751C27.3234 9.73772 22.4548 5 16.5 5Z" fill="#22C581"/>
<path d="M21.1256 12.6261C21.5161 12.2356 22.1493 12.2356 22.5398 12.6261C22.8948 12.9812 22.9271 13.5367 22.6366 13.9282L22.5398 14.0404L15.8731 20.707C15.5181 21.062 14.9625 21.0943 14.5711 20.8039L14.4589 20.707L10.4589 16.707C10.0684 16.3165 10.0684 15.6833 10.4589 15.2928C10.8139 14.9378 11.3695 14.9055 11.761 15.196L11.8731 15.2928L15.166 18.5853L21.1256 12.6261Z" fill="#22C581"/>
</svg>
