<svg width="24" height="24" viewBox="0 0 24 24" fill="none" xmlns="http://www.w3.org/2000/svg">
<path fill-rule="evenodd" clip-rule="evenodd" d="M7 3.75H17C19.6234 3.75 21.75 5.87665 21.75 8.5V15.5C21.75 18.1234 19.6234 20.25 17 20.25H7C4.37665 20.25 2.25 18.1234 2.25 15.5V8.5C2.25 5.87665 4.37665 3.75 7 3.75ZM17 5.25H7C5.20507 5.25 3.75 6.70507 3.75 8.5V15.5C3.75 17.2949 5.20507 18.75 7 18.75H17C18.7949 18.75 20.25 17.2949 20.25 15.5V8.5C20.25 6.70507 18.7949 5.25 17 5.25Z" fill="white"/>
<path d="M6.31245 8.68408C6.4642 8.33603 6.84826 8.16115 7.20367 8.26194L7.2997 8.29634L11.5043 10.1296C11.7764 10.2482 12.0801 10.2655 12.3615 10.1815L12.5 10.1311L16.7023 8.31405C17.0825 8.14966 17.524 8.3246 17.6883 8.70479C17.839 9.0533 17.7046 9.45331 17.3883 9.64418L17.2976 9.69085L13.0954 11.5079C12.4598 11.7827 11.7465 11.8067 11.0975 11.5801L10.9048 11.5046L6.70019 9.67133C6.3205 9.50578 6.1469 9.06377 6.31245 8.68408Z" fill="white"/>
</svg>
