<svg width="119" height="41" viewBox="0 0 119 41" fill="none" xmlns="http://www.w3.org/2000/svg">
<path d="M24.1973 27.2808C24.0355 27.7323 23.8589 28.1556 23.7412 28.593C23.6382 28.9457 23.4911 29.2984 23.3734 29.6511C23.1821 30.2437 22.9761 30.8222 22.7849 31.4148C22.7407 31.5418 22.6966 31.57 22.5642 31.57C21.1223 31.57 19.6657 31.57 18.2238 31.57C18.1649 31.57 18.0914 31.57 17.9884 31.57C18.1649 31.697 18.3268 31.8098 18.4739 31.9086C19.445 32.5858 20.416 33.2631 21.4018 33.9403C21.4754 33.9967 21.549 34.0532 21.6372 34.0955C21.8285 34.1801 21.8285 34.3071 21.7697 34.4764C21.5195 35.1819 21.2694 35.9014 21.034 36.621C21.0046 36.7198 20.9604 36.748 20.8574 36.7762C20.2983 36.9032 19.7245 37.016 19.136 37.0866C18.7682 37.1289 18.3856 37.1571 18.0178 37.1854C17.3851 37.2418 16.7672 37.2277 16.1345 37.1995C15.5901 37.1854 15.0457 37.1289 14.5161 37.0443C13.7951 36.9455 13.0742 36.8044 12.3679 36.621C11.7941 36.4658 11.2203 36.2824 10.6759 36.0566C9.8814 35.7321 9.13103 35.3371 8.43951 34.8574C7.88041 34.4764 7.39488 34.0532 6.93877 33.5734C6.40909 33.0091 5.90884 32.4165 5.46745 31.7675C4.92306 30.9492 4.48166 30.0744 4.20211 29.1291C4.01084 28.5083 3.87843 27.8875 3.80486 27.2385C3.74601 26.7447 3.68716 26.2509 3.65773 25.743C3.59888 24.6283 3.59888 23.5137 3.59888 22.3991C3.59888 16.1629 3.59888 9.94088 3.59888 3.7047C3.59888 3.53539 3.6283 3.47895 3.81957 3.47895C6.62979 3.47895 9.4253 3.47895 12.2355 3.47895C12.3974 3.47895 12.4268 3.50717 12.4268 3.66236C12.4268 10.5334 12.4121 17.4186 12.4268 24.2897C12.4268 25.1786 12.5445 26.0534 12.824 26.914C13.0447 27.6053 13.3831 28.2261 13.9128 28.7341C14.4425 29.2279 15.0899 29.5101 15.8108 29.6511C16.3846 29.764 16.9584 29.764 17.5175 29.7076C18.2826 29.637 19.0036 29.4254 19.6215 28.9457C20.2395 28.466 20.622 27.8452 20.8574 27.1256C21.0046 26.6742 21.0929 26.2086 21.1517 25.7288C21.1958 25.3761 21.1958 25.0234 21.2253 24.6707C21.2841 24.0075 21.2547 23.3444 21.2547 22.6813C21.2547 16.3464 21.2547 10.0114 21.2547 3.67648C21.2547 3.50717 21.2988 3.46484 21.4754 3.46484C24.2856 3.46484 27.0811 3.46484 29.8913 3.46484C30.0385 3.46484 30.0826 3.49306 30.0826 3.64826C30.0826 10.35 30.0826 17.0659 30.0826 23.7677C30.0826 24.1486 30.0679 24.5296 30.0532 24.9105C30.009 25.4749 29.9796 26.0392 29.9061 26.5895C29.7589 27.7041 29.5382 28.8046 29.141 29.8769C28.935 30.413 28.6849 30.921 28.3906 31.4148C28.3465 31.4853 28.2876 31.4994 28.214 31.4994C27.4195 31.4994 26.625 31.4994 25.8305 31.4994C25.7275 31.4994 25.6981 31.4712 25.6687 31.3724C25.4185 30.6388 25.1684 29.891 24.9183 29.1573C24.7123 28.5506 24.5063 27.9581 24.3003 27.3514C24.2562 27.3937 24.2268 27.3514 24.1973 27.2808Z" fill="white"/>
<path d="M45.3108 31.6117C45.6492 31.8515 46.0023 32.0914 46.3407 32.3313C47.1794 32.9238 48.018 33.5023 48.8714 34.0949C49.1215 34.2642 49.1068 34.2642 49.0185 34.5464C48.7684 35.2659 48.5183 35.9855 48.2829 36.705C48.2387 36.8179 48.1946 36.8744 48.0622 36.9026C47.5472 37.0013 47.0175 37.0719 46.4879 37.1283C45.4726 37.2412 44.4721 37.2412 43.4569 37.213C42.8831 37.1989 42.3093 37.1424 41.7502 37.0578C41.0293 36.959 40.323 36.8179 39.6168 36.6345C39.0577 36.4934 38.5133 36.2818 37.9689 36.056C37.4245 35.8303 36.9096 35.5481 36.4093 35.2377C36.0415 34.9979 35.6737 34.7439 35.35 34.4476C35.1881 34.3065 35.0116 34.1654 34.8644 34.0102C33.9669 33.1072 33.2754 32.0773 32.7899 30.9204C32.4956 30.2431 32.3043 29.5377 32.1572 28.8181C32.0689 28.409 32.0395 27.9857 31.9954 27.5624C31.9512 26.9698 31.9954 26.3631 31.9659 25.7706C31.9659 25.6577 31.9954 25.6295 32.1131 25.6295C34.938 25.6295 37.7629 25.6295 40.5879 25.6295C40.735 25.6295 40.7203 25.6859 40.735 25.7847C40.7791 26.7018 40.9116 27.6047 41.3677 28.4231C42.2357 29.9327 44.0455 30.5112 45.6051 29.8904C46.4437 29.5518 47.047 28.9592 47.4001 28.1268C47.6208 27.6188 47.6649 27.1109 47.6355 26.5889C47.5766 25.7988 47.1794 25.178 46.5026 24.7124C45.6933 24.1339 44.7811 23.7389 43.8689 23.3438C43.0008 22.977 42.1328 22.6102 41.25 22.2574C40.3083 21.8765 39.352 21.5096 38.4545 21.0582C37.7924 20.7337 37.1744 20.3668 36.5712 19.9435C36.2328 19.7037 35.9091 19.4497 35.5854 19.1817C34.5849 18.3351 33.8051 17.3475 33.2607 16.1906C32.8782 15.3863 32.6722 14.5539 32.5545 13.6791C32.4809 13.0583 32.4662 12.4376 32.525 11.8309C32.6427 10.5893 32.9959 9.40412 33.6727 8.31772C33.9669 7.85213 34.2906 7.40064 34.6585 6.97737C35.0263 6.5541 35.4235 6.17316 35.8649 5.82044C36.7036 5.1291 37.6305 4.57885 38.631 4.12736C40.0141 3.52067 41.4559 3.13972 42.9714 2.98452C43.7365 2.89987 44.5016 2.87165 45.2667 2.91398C46.9145 3.01274 48.5036 3.32314 50.019 3.95805C51.0637 4.39543 52.0347 4.95979 52.9028 5.67935C53.8592 6.48356 54.6095 7.44297 55.1539 8.52936C55.5217 9.26303 55.7866 10.039 55.9337 10.8573C56.0073 11.3371 56.0661 11.8168 56.1103 12.2965C56.1397 12.5504 56.0956 12.8044 56.1691 13.0584C56.1986 13.143 56.1544 13.1994 56.0514 13.1853C55.9484 13.1712 55.8454 13.1853 55.7277 13.1853C53.0205 13.1853 50.3133 13.1853 47.6061 13.1853C47.4736 13.1853 47.4295 13.1712 47.4001 13.016C47.3118 12.4517 47.1941 11.9014 46.9293 11.3794C46.5173 10.5893 45.8552 10.1378 44.9577 10.0108C43.9572 9.85561 43.0303 10.039 42.2357 10.6598C41.7355 11.0408 41.4118 11.5346 41.3235 12.1413C41.25 12.5928 41.2647 13.0584 41.4118 13.4957C41.5737 14.0178 41.9562 14.3846 42.3976 14.695C43.1185 15.2029 43.913 15.5839 44.7076 15.9366C45.3402 16.2188 45.9729 16.5151 46.6056 16.7972C47.7238 17.2911 48.8714 17.7567 49.9749 18.3069C50.9607 18.8007 51.9023 19.351 52.7851 19.9859C53.3295 20.3809 53.8444 20.8183 54.3006 21.298C54.9921 22.0317 55.5365 22.85 55.8896 23.7812C56.1103 24.3738 56.2574 24.9805 56.3457 25.6154C56.4193 26.1233 56.4634 26.6312 56.4487 27.1532C56.4193 27.8164 56.3751 28.4795 56.2427 29.1426C56.1103 29.8904 55.8749 30.61 55.5953 31.3295C55.5365 31.4847 55.4482 31.5553 55.2569 31.5553C54.5507 31.5411 53.8297 31.5411 53.1235 31.5553C53.0058 31.5553 52.9617 31.527 52.9175 31.4142C52.5497 30.2996 52.1671 29.1849 51.7846 28.0703C51.711 27.8446 51.6375 27.633 51.5639 27.4072C51.5492 27.379 51.5786 27.3084 51.5198 27.3226C51.4756 27.3226 51.4609 27.3649 51.4462 27.4072C51.3285 27.7599 51.2108 28.0986 51.0931 28.4372C50.7694 29.4107 50.431 30.3983 50.1073 31.3859C50.0632 31.5129 50.0043 31.5553 49.8572 31.5553C48.4153 31.5553 46.9881 31.5553 45.5462 31.5553C45.4874 31.5553 45.4138 31.5553 45.3549 31.5553C45.3108 31.5835 45.3108 31.5976 45.3108 31.6117Z" fill="white"/>
<path d="M79.6661 14.7939C79.6661 11.1256 79.6661 7.47133 79.6661 3.80299C79.6661 3.63368 79.7102 3.60547 79.8721 3.60547C85.007 3.60547 90.1566 3.60547 95.2915 3.60547C95.468 3.60547 95.4975 3.64779 95.4975 3.80299C95.4975 5.32676 95.4975 6.86464 95.4975 8.38842C95.4975 8.55772 95.4681 8.60005 95.2768 8.60005C92.0693 8.60005 88.8471 8.60005 85.6396 8.60005C85.4189 8.60005 85.4189 8.60005 85.4189 8.81169C85.4189 10.533 85.4189 12.2684 85.4189 13.9897C85.4189 14.1449 85.4631 14.1731 85.6102 14.1731C88.4351 14.1731 91.2601 14.1731 94.085 14.159C94.2763 14.159 94.3057 14.2154 94.3057 14.3706C94.3057 15.8662 94.3057 17.3759 94.3057 18.8714C94.3057 19.0125 94.2763 19.0548 94.1144 19.0548C91.2895 19.0548 88.4498 19.0548 85.6249 19.0407C85.4631 19.0407 85.4189 19.0689 85.4189 19.2241C85.4337 19.7321 85.4337 20.2541 85.4189 20.762C85.4189 20.9172 85.4631 20.9454 85.6102 20.9454C88.9795 20.9454 92.3489 20.9454 95.7182 20.9454C95.9536 20.9454 95.9536 20.9454 95.9536 21.1712C95.9536 22.695 95.9536 24.2046 95.9536 25.7284C95.9536 25.8836 95.9242 25.94 95.7476 25.94C90.4508 25.94 85.1541 25.94 79.8426 25.94C79.6955 25.94 79.6514 25.9118 79.6514 25.7566C79.6661 22.1306 79.6661 18.4622 79.6661 14.7939Z" fill="white"/>
<path d="M60.7596 14.7794C60.7596 11.1252 60.7596 7.47096 60.7596 3.81673C60.7596 3.63331 60.8184 3.60509 60.995 3.60509C63.2167 3.60509 65.4237 3.59098 67.6454 3.6192C69.1461 3.63331 70.6174 3.81672 72.0446 4.29643C73.1775 4.67737 74.2074 5.19941 75.1197 5.9613C75.87 6.58209 76.4733 7.30165 76.9294 8.13408C77.3561 8.89596 77.6356 9.70018 77.7975 10.5608C77.8563 10.8994 77.8857 11.2381 77.9299 11.5626C77.974 12.0141 77.9887 12.4655 77.9593 12.9311C77.9299 13.3685 77.8857 13.8059 77.7975 14.2433C77.7239 14.6101 77.6356 14.9769 77.5179 15.3297C77.3561 15.8376 77.1207 16.3173 76.8558 16.7829C76.6204 17.1921 76.3409 17.573 76.0319 17.9257C75.7082 18.2926 75.3551 18.6312 74.9578 18.9416C74.6047 19.2097 74.2516 19.4636 73.869 19.6752C72.8685 20.2537 71.7798 20.6205 70.6321 20.8604C70.073 20.9733 69.4992 21.0579 68.9254 21.1003C68.175 21.1708 67.4099 21.1708 66.6596 21.1567C66.5272 21.1567 66.4977 21.1849 66.4977 21.3119C66.4977 22.8074 66.4977 24.303 66.5124 25.7986C66.5124 25.9538 66.4683 25.9961 66.3065 25.9961C64.5115 25.9961 62.7312 25.9961 60.9362 25.9961C60.7743 25.9961 60.7449 25.9537 60.7449 25.8127C60.7596 22.1161 60.7596 18.4478 60.7596 14.7794ZM66.5124 12.3668C66.5124 13.5802 66.5124 14.7794 66.5124 15.9928C66.5124 16.0916 66.4977 16.1621 66.6449 16.1621C67.4247 16.148 68.1897 16.1762 68.9695 16.0492C69.8523 15.894 70.6616 15.626 71.2648 14.9487C71.4855 14.7089 71.6473 14.4549 71.7651 14.1586C72.0152 13.5237 72.0887 12.8606 72.0593 12.1834C72.0446 11.7742 71.9858 11.365 71.8828 10.97C71.7062 10.3069 71.3237 9.77072 70.7351 9.37567C69.9259 8.82542 68.9843 8.68433 68.0132 8.62789C67.5865 8.59968 67.1598 8.62789 66.7331 8.59967C66.5566 8.59967 66.5124 8.62789 66.5124 8.81131C66.5272 9.99646 66.5124 11.1816 66.5124 12.3668Z" fill="white"/>
<path d="M106.238 3.60547C109.24 3.60547 112.226 3.60547 115.228 3.60547C115.39 3.60547 115.434 3.64779 115.434 3.80299C115.434 5.34087 115.434 6.87876 115.434 8.43075C115.434 8.58595 115.39 8.61417 115.243 8.61417C113.271 8.61417 111.299 8.61417 109.328 8.61417C109.166 8.61417 109.122 8.65649 109.122 8.81169C109.122 14.4694 109.122 20.113 109.137 25.7707C109.137 25.94 109.092 25.9965 108.916 25.9965C107.15 25.9824 105.37 25.9965 103.604 25.9965C103.428 25.9965 103.384 25.9682 103.384 25.7848C103.384 20.1412 103.384 14.4835 103.384 8.83991C103.384 8.61416 103.384 8.61417 103.148 8.61417C101.191 8.61417 99.2346 8.61417 97.2778 8.61417C97.1012 8.61417 97.0718 8.57184 97.0718 8.40253C97.0718 6.86465 97.0718 5.32676 97.0718 3.80299C97.0718 3.64779 97.1012 3.60547 97.2631 3.60547C100.25 3.60547 103.251 3.60547 106.238 3.60547Z" fill="white"/>
<path d="M102.295 32.9378C102.295 31.4987 102.295 30.0737 102.295 28.6346C102.295 28.4935 102.324 28.4512 102.471 28.4512C104.443 28.4512 106.429 28.4512 108.401 28.4512C108.548 28.4512 108.592 28.4935 108.577 28.6346C108.563 29.1425 108.563 29.6504 108.577 30.1584C108.577 30.2995 108.533 30.3277 108.401 30.3277C107.165 30.3277 105.914 30.3277 104.678 30.3277C104.517 30.3277 104.458 30.3559 104.458 30.5393C104.472 31.2165 104.472 31.8938 104.458 32.571C104.458 32.7403 104.487 32.7967 104.678 32.7967C105.738 32.7826 106.812 32.7967 107.871 32.7826C108.033 32.7826 108.092 32.8109 108.077 32.9802C108.062 33.4599 108.062 33.9537 108.077 34.4334C108.077 34.5745 108.048 34.6309 107.886 34.6309C106.797 34.6168 105.723 34.6309 104.634 34.6309C104.487 34.6309 104.443 34.6591 104.443 34.8002C104.458 34.9977 104.458 35.2094 104.443 35.4069C104.428 35.548 104.487 35.5762 104.62 35.5762C105.914 35.5762 107.224 35.5762 108.519 35.5762C108.754 35.5762 108.754 35.5762 108.754 35.802C108.754 36.3099 108.754 36.8037 108.754 37.3116C108.754 37.4245 108.739 37.4668 108.607 37.4668C106.547 37.4668 104.487 37.4668 102.427 37.4668C102.28 37.4668 102.266 37.4104 102.266 37.2975C102.295 35.8161 102.295 34.377 102.295 32.9378Z" fill="white"/>
<path d="M67.204 31.4709C67.204 30.5115 67.204 29.5662 67.204 28.6068C67.204 28.4798 67.2334 28.4375 67.3658 28.4516C67.9838 28.4657 68.6017 28.4657 69.2197 28.4516C69.3521 28.4516 69.3815 28.4939 69.3815 28.6068C69.3815 30.4974 69.3668 32.388 69.3815 34.2786C69.3815 34.8994 69.6317 35.365 70.2496 35.5343C70.7351 35.6754 71.2207 35.6754 71.7062 35.5484C72.2065 35.4215 72.5007 35.097 72.589 34.6031C72.6184 34.3915 72.6479 34.1799 72.6479 33.9682C72.6479 32.1905 72.6479 30.3986 72.6479 28.6209C72.6479 28.4798 72.6773 28.4375 72.8391 28.4375C73.4571 28.4516 74.0603 28.4516 74.6783 28.4375C74.8107 28.4375 74.8401 28.4657 74.8401 28.5927C74.8401 30.4692 74.8548 32.3457 74.8254 34.2222C74.8254 34.97 74.6194 35.6754 74.1192 36.268C73.7072 36.7759 73.1775 37.1004 72.5449 37.298C72.1035 37.439 71.6327 37.4955 71.1618 37.5096C70.5439 37.5237 69.9553 37.4673 69.3815 37.2697C68.8666 37.1004 68.4105 36.8324 68.0573 36.4514C67.6307 35.9999 67.3658 35.4497 67.2628 34.843C67.204 34.5044 67.204 34.1658 67.204 33.8271C67.204 33.0511 67.204 32.261 67.204 31.4709Z" fill="white"/>
<path d="M76.0907 32.9237C76.0907 31.4987 76.0907 30.0737 76.0907 28.6487C76.0907 28.5076 76.1054 28.4512 76.282 28.4512C77.1795 28.4653 78.077 28.4371 78.9745 28.4653C79.8426 28.4935 80.6812 28.6346 81.4316 29.1002C82.2261 29.5799 82.6822 30.2712 82.8588 31.146C82.947 31.5552 82.9765 31.9502 82.9323 32.3594C82.7705 33.6715 82.079 34.6027 80.7842 35.1106C80.181 35.3505 79.5336 35.4492 78.8862 35.4633C78.6802 35.4633 78.4154 35.3928 78.3124 35.4916C78.18 35.6044 78.283 35.8584 78.2682 36.0559C78.2682 36.451 78.2535 36.8601 78.2682 37.2552C78.2682 37.4104 78.2241 37.4386 78.077 37.4386C77.4737 37.4245 76.8705 37.4245 76.282 37.4386C76.1348 37.4386 76.0907 37.4104 76.0907 37.2693C76.1054 35.8161 76.0907 34.3628 76.0907 32.9237ZM78.2682 31.9643C78.2682 32.4581 78.2682 32.9519 78.2682 33.4599C78.2682 33.5304 78.2535 33.601 78.3712 33.601C78.8126 33.601 79.254 33.6151 79.666 33.4881C80.078 33.3611 80.4164 33.1354 80.5782 32.7262C80.7254 32.3453 80.7253 31.9502 80.6665 31.5552C80.5929 31.0896 80.3428 30.765 79.9014 30.5675C79.4306 30.3559 78.9303 30.3559 78.4301 30.3418C78.2977 30.3418 78.2535 30.37 78.2682 30.497C78.283 30.9626 78.2682 31.4705 78.2682 31.9643Z" fill="white"/>
<path d="M83.8152 32.9233C83.8152 31.4842 83.8152 30.0592 83.8152 28.6201C83.8152 28.479 83.8593 28.4508 84.0064 28.4508C84.9187 28.4508 85.8162 28.4367 86.7284 28.4649C87.7142 28.4931 88.6558 28.6906 89.4503 29.2832C90.0389 29.7347 90.392 30.3273 90.5685 31.0327C90.6715 31.4278 90.6862 31.8228 90.6715 32.232C90.6274 32.9516 90.392 33.6147 89.8917 34.1791C89.2738 34.8704 88.4793 35.209 87.567 35.3642C87.1109 35.4489 86.6548 35.4489 86.184 35.4489C86.0516 35.4489 86.0075 35.4771 86.0075 35.6182C86.0222 36.1684 86.0075 36.7187 86.0075 37.283C86.0075 37.41 85.978 37.4523 85.8456 37.4382C85.2276 37.4241 84.595 37.4241 83.977 37.4382C83.8446 37.4382 83.8152 37.41 83.8152 37.283C83.8152 35.8298 83.8152 34.3766 83.8152 32.9233ZM86.0075 31.9357C86.0075 32.4436 86.0075 32.9375 86.0075 33.4454C86.0075 33.5018 85.978 33.5865 86.0957 33.5865C86.5518 33.5865 87.0079 33.6006 87.4493 33.4595C87.8613 33.3184 88.185 33.0785 88.3321 32.6694C88.4793 32.2602 88.494 31.8511 88.391 31.4278C88.2586 30.9058 87.9054 30.5954 87.3758 30.4402C86.9785 30.3273 86.5813 30.3132 86.1693 30.3132C86.0516 30.3132 86.0075 30.3414 86.0075 30.4543C86.0075 30.9481 86.0075 31.4419 86.0075 31.9357Z" fill="white"/>
<path d="M63.0401 28.3535C63.6875 28.3676 64.3055 28.4664 64.8499 28.8332C65.2765 29.1013 65.5708 29.4963 65.8356 29.8914C65.8798 29.9619 65.8651 30.0043 65.7915 30.0466C65.2765 30.3711 64.7616 30.6815 64.2319 31.006C64.1289 31.0766 64.1142 30.9778 64.0848 30.9355C63.9523 30.6956 63.7905 30.484 63.5551 30.357C63.2461 30.1877 62.9077 30.1736 62.5987 30.3288C62.2015 30.5263 62.1721 31.1189 62.5546 31.387C62.8194 31.5845 63.1284 31.6974 63.4227 31.8243C64.1583 32.1206 64.894 32.4169 65.4972 32.9107C65.9239 33.2635 66.2182 33.7149 66.3065 34.2652C66.3359 34.4909 66.38 34.7026 66.38 34.9283C66.3359 35.9442 65.8798 36.8189 64.7174 37.2704C64.2613 37.4397 63.7905 37.5244 63.305 37.5385C62.5252 37.5667 61.7748 37.4538 61.0833 37.1011C60.4065 36.7625 59.9062 36.2405 59.5678 35.5914C59.509 35.4927 59.5972 35.4645 59.6414 35.4504C60.0386 35.2246 60.4506 35.013 60.8626 34.7872C60.9656 34.7308 61.0686 34.6885 61.1568 34.6179C61.2746 34.5192 61.3334 34.5192 61.4217 34.6602C61.7159 35.1399 62.0985 35.5209 62.7017 35.6197C63.1284 35.6902 63.5698 35.7043 63.9376 35.4221C64.2908 35.1541 64.3055 34.6461 63.9229 34.3781C63.3932 34.0112 62.7606 33.8278 62.1721 33.5597C61.3481 33.1929 60.6272 32.7132 60.3182 31.8384C60.1711 31.4293 60.1122 31.006 60.1711 30.5545C60.2299 30.1595 60.3329 29.7926 60.5683 29.4681C60.995 28.8614 61.5835 28.5369 62.3192 28.41C62.5399 28.3817 62.79 28.3535 63.0401 28.3535Z" fill="white"/>
<path d="M112.638 28.3535C113.168 28.3676 113.683 28.4382 114.168 28.6639C114.654 28.9038 115.037 29.2565 115.316 29.7221C115.493 30.0043 115.478 30.0043 115.169 30.1877C114.742 30.4416 114.316 30.6956 113.904 30.9637C113.771 31.0483 113.727 31.0201 113.668 30.9073C113.521 30.6533 113.344 30.4275 113.05 30.3006C112.756 30.1736 112.256 30.2018 112.05 30.4134C111.755 30.7238 111.858 31.2176 112.27 31.4575C112.785 31.7538 113.359 31.9372 113.904 32.1912C114.404 32.431 114.889 32.685 115.272 33.08C115.713 33.5315 115.934 34.0536 115.949 34.6744C115.963 35.14 115.934 35.6055 115.713 36.0429C115.478 36.5085 115.14 36.8612 114.669 37.1011C114.11 37.3974 113.506 37.5244 112.874 37.5526C112.094 37.5667 111.344 37.4679 110.637 37.1011C110.049 36.8048 109.593 36.3674 109.269 35.8031C109.092 35.4927 109.107 35.5068 109.446 35.3375C109.769 35.1682 110.093 34.9847 110.402 34.8013C110.49 34.7449 110.593 34.7167 110.681 34.6461C110.858 34.5192 110.902 34.5333 111.02 34.7167C111.285 35.1117 111.594 35.4504 112.079 35.5914C112.55 35.7325 113.05 35.7466 113.477 35.4786C113.845 35.2528 113.948 34.8437 113.595 34.4909C113.3 34.1946 112.888 34.0677 112.506 33.9125C111.917 33.6726 111.314 33.4328 110.799 33.0518C110.24 32.6286 109.887 32.0783 109.784 31.4011C109.71 30.8226 109.754 30.2582 110.034 29.7362C110.402 29.0449 111.02 28.678 111.785 28.4946C112.064 28.3958 112.359 28.3535 112.638 28.3535Z" fill="white"/>
<path d="M91.5396 32.9519C91.5396 31.5128 91.5396 30.0737 91.5396 28.6346C91.5396 28.4935 91.569 28.4512 91.7161 28.4512C92.3193 28.4653 92.9226 28.4653 93.5258 28.4512C93.673 28.4512 93.7171 28.4794 93.7171 28.6205C93.7171 30.8497 93.7171 33.0789 93.7171 35.3082C93.7171 35.5762 93.6877 35.548 93.9672 35.548C95.1884 35.548 96.3949 35.548 97.6161 35.548C97.7779 35.548 97.8221 35.6044 97.8221 35.7455C97.8074 36.2535 97.8221 36.7614 97.8221 37.2693C97.8221 37.3822 97.8074 37.4386 97.6602 37.4386C95.674 37.4386 93.6877 37.4386 91.7014 37.4386C91.569 37.4386 91.5543 37.3963 91.5543 37.2834C91.5395 35.8302 91.5396 34.3911 91.5396 32.9519Z" fill="white"/>
<path d="M98.7784 32.9237C98.7784 31.4846 98.7784 30.0596 98.7784 28.6205C98.7784 28.4794 98.8226 28.4512 98.9697 28.4512C99.5877 28.4653 100.191 28.4512 100.809 28.4512C100.927 28.4512 100.971 28.4794 100.971 28.5923C100.971 31.4846 100.971 34.377 100.971 37.2693C100.971 37.3963 100.927 37.4104 100.809 37.4104C100.191 37.4104 99.5877 37.3963 98.9697 37.4104C98.8226 37.4104 98.7784 37.3822 98.7784 37.2411C98.7784 35.8161 98.7784 34.3628 98.7784 32.9237Z" fill="white"/>
</svg>
