<svg width="128" height="44" viewBox="0 0 128 44" fill="none" xmlns="http://www.w3.org/2000/svg">
<path d="M26.0274 29.2754C25.8533 29.76 25.6634 30.2142 25.5368 30.6836C25.426 31.0621 25.2678 31.4406 25.1412 31.8192C24.9354 32.4551 24.7139 33.0759 24.5081 33.7118C24.4606 33.8481 24.4132 33.8784 24.2707 33.8784C22.7198 33.8784 21.153 33.8784 19.6021 33.8784C19.5388 33.8784 19.4597 33.8784 19.3489 33.8784C19.5388 34.0147 19.7129 34.1358 19.8711 34.2418C20.9156 34.9686 21.9602 35.6954 23.0205 36.4222C23.0996 36.4827 23.1787 36.5433 23.2737 36.5887C23.4794 36.6796 23.4794 36.8158 23.4161 36.9975C23.1471 37.7546 22.8781 38.5268 22.6248 39.299C22.5932 39.405 22.5457 39.4353 22.4349 39.4656C21.8335 39.6018 21.2163 39.723 20.5833 39.7987C20.1876 39.8441 19.7762 39.8744 19.3805 39.9047C18.7 39.9652 18.0353 39.9501 17.3548 39.9198C16.7692 39.9047 16.1837 39.8441 15.6139 39.7533C14.8385 39.6473 14.063 39.4959 13.3034 39.299C12.6861 39.1325 12.0689 38.9356 11.4834 38.6934C10.6288 38.3451 9.82164 37.9212 9.07783 37.4063C8.47644 36.9975 7.95419 36.5433 7.46358 36.0285C6.89385 35.4228 6.35576 34.7869 5.88099 34.0904C5.29543 33.2122 4.82065 32.2734 4.51995 31.2589C4.31422 30.5927 4.17179 29.9265 4.09266 29.23C4.02935 28.7001 3.96605 28.1701 3.9344 27.625C3.87109 26.4288 3.87109 25.2327 3.87109 24.0365C3.87109 17.344 3.87109 10.6667 3.87109 3.9742C3.87109 3.79251 3.90275 3.73193 4.10848 3.73193C7.13124 3.73193 10.1382 3.73193 13.1609 3.73193C13.335 3.73193 13.3667 3.76222 13.3667 3.92877C13.3667 11.3026 13.3508 18.6916 13.3667 26.0655C13.3667 27.0194 13.4933 27.9581 13.794 28.8818C14.0314 29.6237 14.3953 30.2899 14.9651 30.835C15.5348 31.3649 16.2312 31.6678 17.0066 31.8192C17.6238 31.9403 18.2411 31.9403 18.8424 31.8797C19.6654 31.804 20.4409 31.5769 21.1055 31.0621C21.7702 30.5473 22.1817 29.8811 22.4349 29.1089C22.5932 28.6244 22.6881 28.1247 22.7514 27.6099C22.7989 27.2313 22.7989 26.8528 22.8306 26.4743C22.8939 25.7626 22.8622 25.051 22.8622 24.3393C22.8622 17.5409 22.8622 10.7424 22.8622 3.94392C22.8622 3.76222 22.9097 3.7168 23.0996 3.7168C26.1224 3.7168 29.1293 3.7168 32.1521 3.7168C32.3103 3.7168 32.3578 3.74708 32.3578 3.91363C32.3578 11.1058 32.3578 18.3131 32.3578 25.5052C32.3578 25.914 32.342 26.3229 32.3261 26.7317C32.2787 27.3373 32.247 27.943 32.1679 28.5335C32.0096 29.7297 31.7722 30.9107 31.3449 32.0614C31.1234 32.6368 30.8543 33.1819 30.5378 33.7118C30.4903 33.7876 30.427 33.8027 30.3479 33.8027C29.4933 33.8027 28.6387 33.8027 27.7841 33.8027C27.6733 33.8027 27.6417 33.7724 27.61 33.6664C27.341 32.8791 27.0719 32.0766 26.8029 31.2892C26.5813 30.6381 26.3598 30.0022 26.1382 29.3511C26.0907 29.3966 26.0591 29.3511 26.0274 29.2754Z" fill="white"/>
<path d="M48.7377 33.9239C49.1017 34.1813 49.4815 34.4387 49.8455 34.6961C50.7476 35.332 51.6497 35.9528 52.5676 36.5888C52.8366 36.7705 52.8208 36.7705 52.7258 37.0733C52.4568 37.8455 52.1877 38.6177 51.9345 39.3899C51.887 39.511 51.8396 39.5716 51.6971 39.6019C51.1432 39.7079 50.5735 39.7836 50.0038 39.8442C48.9118 39.9653 47.8356 39.9653 46.7436 39.935C46.1264 39.9199 45.5092 39.8593 44.9078 39.7685C44.1323 39.6625 43.3727 39.511 42.613 39.3142C42.0117 39.1628 41.4261 38.9357 40.8405 38.6934C40.255 38.4512 39.7011 38.1483 39.163 37.8152C38.7673 37.5578 38.3717 37.2853 38.0235 36.9673C37.8494 36.8159 37.6595 36.6645 37.5013 36.4979C36.5359 35.5289 35.7921 34.4235 35.2698 33.182C34.9533 32.4552 34.7475 31.6981 34.5893 30.9259C34.4943 30.4868 34.4627 30.0326 34.4152 29.5783C34.3677 28.9424 34.4152 28.2913 34.3835 27.6554C34.3835 27.5342 34.4152 27.5039 34.5418 27.5039C37.5804 27.5039 40.619 27.5039 43.6575 27.5039C43.8158 27.5039 43.8 27.5645 43.8158 27.6705C43.8633 28.6547 44.0057 29.6237 44.4963 30.5019C45.4301 32.1221 47.3766 32.7429 49.0542 32.0766C49.9563 31.7132 50.6051 31.0773 50.985 30.184C51.2224 29.6389 51.2698 29.0938 51.2382 28.5336C51.1749 27.6856 50.7476 27.0194 50.0196 26.5198C49.1492 25.899 48.1679 25.475 47.1867 25.051C46.253 24.6574 45.3193 24.2637 44.3697 23.8852C43.3569 23.4763 42.3282 23.0827 41.3628 22.5981C40.6506 22.2499 39.9859 21.8562 39.3371 21.402C38.9731 21.1446 38.6249 20.872 38.2767 20.5843C37.2006 19.6759 36.3618 18.616 35.7762 17.3744C35.3648 16.5113 35.1432 15.618 35.0166 14.6792C34.9375 14.013 34.9216 13.3468 34.9849 12.6957C35.1115 11.3632 35.4914 10.0914 36.2194 8.92548C36.5359 8.42582 36.884 7.94129 37.2797 7.48705C37.6753 7.03281 38.1026 6.624 38.5774 6.24547C39.4795 5.50354 40.4765 4.91303 41.5527 4.4285C43.0403 3.77742 44.5913 3.3686 46.2214 3.20204C47.0443 3.1112 47.8673 3.08091 48.6902 3.12634C50.4627 3.23233 52.1719 3.56544 53.802 4.2468C54.9256 4.71619 55.9701 5.32184 56.9039 6.09405C57.9326 6.95711 58.7397 7.98672 59.3252 9.1526C59.7209 9.93995 60.0058 10.7727 60.164 11.6509C60.2431 12.1657 60.3064 12.6805 60.3539 13.1953C60.3856 13.4679 60.3381 13.7404 60.4172 14.013C60.4489 14.1038 60.4014 14.1644 60.2906 14.1493C60.1798 14.1341 60.0691 14.1493 59.9425 14.1493C57.0305 14.1493 54.1185 14.1493 51.2065 14.1493C51.0641 14.1493 51.0166 14.1341 50.985 13.9676C50.89 13.3619 50.7634 12.7714 50.4785 12.2112C50.0354 11.3632 49.3232 10.8787 48.3579 10.7424C47.2817 10.5759 46.2847 10.7727 45.4301 11.439C44.892 11.8478 44.5438 12.3777 44.4488 13.0288C44.3697 13.5133 44.3855 14.013 44.5438 14.4824C44.7179 15.0426 45.1294 15.4363 45.6041 15.7694C46.3796 16.3145 47.2342 16.7233 48.0888 17.1018C48.7693 17.4046 49.4498 17.7226 50.1304 18.0254C51.3331 18.5554 52.5676 19.0551 53.7545 19.6456C54.8148 20.1755 55.8277 20.766 56.7773 21.4474C57.3628 21.8714 57.9167 22.3407 58.4073 22.8555C59.1512 23.6429 59.7367 24.5211 60.1165 25.5204C60.3539 26.1564 60.5122 26.8074 60.6071 27.4888C60.6863 28.0339 60.7338 28.579 60.7179 29.1392C60.6863 29.8509 60.6388 30.5625 60.4964 31.2741C60.3539 32.0766 60.1007 32.8489 59.8 33.6211C59.7367 33.7876 59.6418 33.8633 59.436 33.8633C58.6764 33.8482 57.9009 33.8482 57.1413 33.8633C57.0146 33.8633 56.9672 33.833 56.9197 33.7119C56.524 32.5157 56.1126 31.3196 55.7011 30.1234C55.622 29.8811 55.5428 29.654 55.4637 29.4118C55.4479 29.3815 55.4795 29.3058 55.4162 29.3209C55.3688 29.3209 55.3529 29.3663 55.3371 29.4118C55.2105 29.7903 55.0839 30.1537 54.9573 30.5171C54.6091 31.5618 54.2451 32.6217 53.8969 33.6816C53.8495 33.8179 53.7862 33.8633 53.6279 33.8633C52.077 33.8633 50.5418 33.8633 48.9909 33.8633C48.9276 33.8633 48.8485 33.8633 48.7852 33.8633C48.7377 33.8936 48.7377 33.9087 48.7377 33.9239Z" fill="white"/>
<path d="M85.6911 15.8743C85.6911 11.9375 85.6911 8.01592 85.6911 4.07916C85.6911 3.89746 85.7386 3.86719 85.9127 3.86719C91.4359 3.86719 96.975 3.86719 102.498 3.86719C102.688 3.86719 102.72 3.91261 102.72 4.07916C102.72 5.71443 102.72 7.36484 102.72 9.00011C102.72 9.1818 102.688 9.22723 102.482 9.22723C99.0324 9.22723 95.5665 9.22723 92.1165 9.22723C91.8791 9.22723 91.8791 9.22723 91.8791 9.45435C91.8791 11.3016 91.8791 13.164 91.8791 15.0112C91.8791 15.1778 91.9265 15.2081 92.0848 15.2081C95.1234 15.2081 98.162 15.2081 101.201 15.1929C101.406 15.1929 101.438 15.2535 101.438 15.4201C101.438 17.025 101.438 18.6452 101.438 20.2502C101.438 20.4016 101.406 20.447 101.232 20.447C98.1936 20.447 95.1392 20.447 92.1006 20.4318C91.9265 20.4318 91.8791 20.4621 91.8791 20.6287C91.8949 21.1738 91.8949 21.734 91.8791 22.2791C91.8791 22.4456 91.9265 22.4759 92.0848 22.4759C95.7089 22.4759 99.3331 22.4759 102.957 22.4759C103.21 22.4759 103.21 22.4759 103.21 22.7182C103.21 24.3535 103.21 25.9736 103.21 27.6089C103.21 27.7754 103.179 27.836 102.989 27.836C97.2915 27.836 91.5942 27.836 85.881 27.836C85.7228 27.836 85.6753 27.8057 85.6753 27.6391C85.6911 23.7478 85.6911 19.811 85.6911 15.8743Z" fill="white"/>
<path d="M65.3549 15.861C65.3549 11.9394 65.3549 8.01776 65.3549 4.09614C65.3549 3.8993 65.4182 3.86902 65.6082 3.86902C67.9979 3.86902 70.3718 3.85388 72.7615 3.88416C74.3757 3.8993 75.9583 4.09614 77.4934 4.61094C78.712 5.01976 79.8199 5.58 80.8011 6.39763C81.6082 7.06385 82.257 7.83606 82.7477 8.7294C83.2066 9.54703 83.5073 10.4101 83.6814 11.3337C83.7447 11.6971 83.7763 12.0605 83.8238 12.4087C83.8713 12.8933 83.8871 13.3778 83.8555 13.8775C83.8238 14.3468 83.7763 14.8162 83.6814 15.2856C83.6023 15.6793 83.5073 16.073 83.3807 16.4515C83.2066 16.9966 82.9534 17.5114 82.6685 18.0111C82.4153 18.4502 82.1146 18.859 81.7823 19.2375C81.4341 19.6312 81.0543 19.9946 80.627 20.3277C80.2472 20.6154 79.8673 20.8879 79.4559 21.115C78.3797 21.7358 77.2086 22.1295 75.9742 22.3869C75.3728 22.508 74.7556 22.5989 74.1383 22.6443C73.3312 22.72 72.5083 22.72 71.7011 22.7049C71.5587 22.7049 71.5271 22.7352 71.5271 22.8714C71.5271 24.4764 71.5271 26.0814 71.5429 27.6864C71.5429 27.8529 71.4954 27.8984 71.3213 27.8984C69.3906 27.8984 67.4756 27.8984 65.5449 27.8984C65.3708 27.8984 65.3391 27.8529 65.3391 27.7015C65.3549 23.7345 65.3549 19.7977 65.3549 15.861ZM71.5429 13.2718C71.5429 14.574 71.5429 15.861 71.5429 17.1631C71.5429 17.2691 71.5271 17.3448 71.6853 17.3448C72.5241 17.3297 73.347 17.36 74.1858 17.2237C75.1354 17.0572 76.0058 16.7695 76.6547 16.0427C76.8921 15.7853 77.0661 15.5127 77.1927 15.1948C77.4618 14.5134 77.5409 13.8018 77.5093 13.075C77.4934 12.6359 77.4301 12.1968 77.3194 11.7728C77.1294 11.0612 76.718 10.4858 76.0849 10.0618C75.2145 9.47132 74.2016 9.31991 73.1571 9.25935C72.6982 9.22906 72.2392 9.25934 71.7803 9.22906C71.5904 9.22906 71.5429 9.25934 71.5429 9.45618C71.5587 10.7281 71.5429 11.9999 71.5429 13.2718Z" fill="white"/>
<path d="M114.273 3.86719C117.501 3.86719 120.714 3.86719 123.943 3.86719C124.117 3.86719 124.164 3.91261 124.164 4.07916C124.164 5.72957 124.164 7.37999 124.164 9.04554C124.164 9.21209 124.117 9.24237 123.958 9.24237C121.838 9.24237 119.717 9.24237 117.596 9.24237C117.422 9.24237 117.375 9.28779 117.375 9.45435C117.375 15.526 117.375 21.5826 117.391 27.6543C117.391 27.836 117.343 27.8965 117.153 27.8965C115.254 27.8814 113.339 27.8965 111.44 27.8965C111.25 27.8965 111.203 27.8663 111.203 27.6694C111.203 21.6129 111.203 15.5412 111.203 9.48463C111.203 9.24237 111.203 9.24237 110.949 9.24237C108.845 9.24237 106.74 9.24237 104.635 9.24237C104.445 9.24237 104.413 9.19695 104.413 9.01525C104.413 7.36484 104.413 5.71443 104.413 4.07916C104.413 3.91261 104.445 3.86719 104.619 3.86719C107.832 3.86719 111.06 3.86719 114.273 3.86719Z" fill="white"/>
<path d="M110.032 35.3462C110.032 33.8018 110.032 32.2725 110.032 30.7281C110.032 30.5767 110.063 30.5312 110.222 30.5312C112.342 30.5312 114.479 30.5312 116.599 30.5312C116.758 30.5312 116.805 30.5767 116.789 30.7281C116.773 31.2732 116.773 31.8183 116.789 32.3634C116.789 32.5148 116.742 32.5451 116.599 32.5451C115.27 32.5451 113.925 32.5451 112.595 32.5451C112.421 32.5451 112.358 32.5753 112.358 32.7722C112.374 33.499 112.374 34.2257 112.358 34.9525C112.358 35.1342 112.39 35.1948 112.595 35.1948C113.735 35.1796 114.89 35.1948 116.03 35.1797C116.204 35.1797 116.267 35.2099 116.251 35.3916C116.235 35.9064 116.235 36.4364 116.251 36.9512C116.251 37.1026 116.22 37.1632 116.046 37.1632C114.874 37.148 113.719 37.1632 112.548 37.1632C112.39 37.1632 112.342 37.1935 112.342 37.3449C112.358 37.5568 112.358 37.784 112.342 37.9959C112.326 38.1474 112.39 38.1776 112.532 38.1776C113.925 38.1776 115.333 38.1776 116.726 38.1776C116.979 38.1776 116.979 38.1776 116.979 38.4199C116.979 38.965 116.979 39.4949 116.979 40.04C116.979 40.1612 116.963 40.2066 116.821 40.2066C114.605 40.2066 112.39 40.2066 110.174 40.2066C110.016 40.2066 110 40.146 110 40.0249C110.032 38.435 110.032 36.8906 110.032 35.3462Z" fill="white"/>
<path d="M72.2866 33.773C72.2866 32.7434 72.2866 31.7289 72.2866 30.6993C72.2866 30.563 72.3183 30.5176 72.4607 30.5327C73.1254 30.5479 73.7901 30.5479 74.4548 30.5327C74.5972 30.5327 74.6289 30.5781 74.6289 30.6993C74.6289 32.7282 74.613 34.7572 74.6289 36.7861C74.6289 37.4523 74.8979 37.952 75.5626 38.1337C76.0849 38.2851 76.6071 38.2851 77.1294 38.1488C77.6674 38.0126 77.984 37.6643 78.0789 37.1344C78.1106 36.9072 78.1422 36.6801 78.1422 36.453C78.1422 34.5452 78.1422 32.6222 78.1422 30.7144C78.1422 30.563 78.1739 30.5176 78.348 30.5176C79.0126 30.5327 79.6615 30.5327 80.3262 30.5176C80.4686 30.5176 80.5003 30.5479 80.5003 30.6841C80.5003 32.6979 80.5161 34.7117 80.4845 36.7255C80.4845 37.528 80.2629 38.2851 79.7248 38.921C79.2817 39.4661 78.712 39.8144 78.0314 40.0264C77.5567 40.1778 77.0502 40.2383 76.5438 40.2535C75.8791 40.2686 75.2461 40.2081 74.6289 39.9961C74.075 39.8144 73.5843 39.5267 73.2045 39.1179C72.7456 38.6334 72.4607 38.0428 72.3499 37.3918C72.2866 37.0284 72.2866 36.665 72.2866 36.3016C72.2866 35.4688 72.2866 34.6209 72.2866 33.773Z" fill="white"/>
<path d="M81.8455 35.3311C81.8455 33.8018 81.8455 32.2725 81.8455 30.7432C81.8455 30.5918 81.8613 30.5312 82.0512 30.5312C83.0166 30.5464 83.982 30.5161 84.9473 30.5464C85.8811 30.5767 86.7832 30.7281 87.5903 31.2278C88.4449 31.7426 88.9355 32.4845 89.1254 33.4233C89.2204 33.8624 89.252 34.2863 89.2045 34.7254C89.0304 36.1336 88.2866 37.1329 86.8939 37.678C86.2451 37.9354 85.5487 38.0414 84.8524 38.0565C84.6308 38.0565 84.346 37.9808 84.2352 38.0868C84.0927 38.2079 84.2035 38.4805 84.1877 38.6925C84.1877 39.1164 84.1719 39.5555 84.1877 39.9795C84.1877 40.146 84.1402 40.1763 83.982 40.1763C83.3331 40.1612 82.6842 40.1612 82.0512 40.1763C81.8929 40.1763 81.8455 40.146 81.8455 39.9946C81.8613 38.435 81.8455 36.8755 81.8455 35.3311ZM84.1877 34.3015C84.1877 34.8314 84.1877 35.3613 84.1877 35.9064C84.1877 35.9821 84.1719 36.0578 84.2985 36.0578C84.7733 36.0578 85.248 36.073 85.6912 35.9367C86.1343 35.8004 86.4983 35.5582 86.6724 35.1191C86.8306 34.7103 86.8306 34.2863 86.7673 33.8624C86.6882 33.3627 86.4192 33.0144 85.9444 32.8025C85.4379 32.5753 84.8999 32.5753 84.3618 32.5602C84.2193 32.5602 84.1719 32.5905 84.1877 32.7267C84.2035 33.2264 84.1877 33.7715 84.1877 34.3015Z" fill="white"/>
<path d="M90.1541 35.3329C90.1541 33.7885 90.1541 32.2592 90.1541 30.7148C90.1541 30.5634 90.2015 30.5331 90.3598 30.5331C91.341 30.5331 92.3064 30.5179 93.2876 30.5482C94.3479 30.5785 95.3608 30.7905 96.2154 31.4264C96.8484 31.9109 97.2283 32.5469 97.4182 33.3039C97.5289 33.7279 97.5448 34.1519 97.5289 34.591C97.4815 35.3632 97.2282 36.0748 96.6902 36.6805C96.0255 37.4224 95.1709 37.7858 94.1897 37.9523C93.6991 38.0432 93.2085 38.0432 92.702 38.0432C92.5596 38.0432 92.5121 38.0735 92.5121 38.2249C92.5279 38.8154 92.5121 39.4059 92.5121 40.0116C92.5121 40.1479 92.4805 40.1933 92.338 40.1781C91.6733 40.163 90.9928 40.163 90.3281 40.1781C90.1857 40.1781 90.1541 40.1479 90.1541 40.0116C90.1541 38.452 90.1541 36.8925 90.1541 35.3329ZM92.5121 34.273C92.5121 34.8181 92.5121 35.348 92.5121 35.8931C92.5121 35.9537 92.4805 36.0445 92.6071 36.0445C93.0977 36.0445 93.5883 36.0597 94.0631 35.9083C94.5062 35.7569 94.8544 35.4995 95.0126 35.0604C95.1709 34.6213 95.1867 34.1822 95.0759 33.7279C94.9335 33.1677 94.5537 32.8346 93.9839 32.668C93.5566 32.5469 93.1293 32.5317 92.6862 32.5317C92.5596 32.5317 92.5121 32.562 92.5121 32.6832C92.5121 33.2131 92.5121 33.7431 92.5121 34.273Z" fill="white"/>
<path d="M67.808 30.4258C68.5044 30.4409 69.169 30.5469 69.7546 30.9406C70.2136 31.2283 70.5301 31.6522 70.8149 32.0762C70.8624 32.1519 70.8466 32.1973 70.7675 32.2427C70.2136 32.591 69.6596 32.9241 69.0899 33.2724C68.9791 33.3481 68.9633 33.2421 68.9317 33.1967C68.7892 32.9393 68.6151 32.7121 68.3619 32.5759C68.0296 32.3942 67.6656 32.379 67.3332 32.5456C66.9059 32.7576 66.8743 33.3935 67.2858 33.6812C67.5706 33.8932 67.903 34.0143 68.2195 34.1506C69.0108 34.4685 69.8021 34.7865 70.4509 35.3165C70.9099 35.695 71.2264 36.1795 71.3214 36.77C71.353 37.0123 71.4005 37.2394 71.4005 37.4817C71.353 38.5718 70.8624 39.5106 69.6122 39.9951C69.1216 40.1768 68.6151 40.2677 68.0929 40.2828C67.2541 40.3131 66.447 40.192 65.7032 39.8134C64.9752 39.45 64.4371 38.8898 64.0731 38.1933C64.0098 38.0873 64.1047 38.057 64.1522 38.0419C64.5795 37.7996 65.0226 37.5725 65.4658 37.3303C65.5766 37.2697 65.6873 37.2243 65.7823 37.1486C65.9089 37.0426 65.9722 37.0426 66.0672 37.194C66.3837 37.7088 66.7952 38.1176 67.444 38.2236C67.903 38.2993 68.3777 38.3144 68.7734 38.0116C69.1532 37.7239 69.169 37.1788 68.7576 36.8911C68.1878 36.4975 67.5073 36.3006 66.8743 36.013C65.988 35.6193 65.2126 35.1045 64.8802 34.1657C64.722 33.7266 64.6586 33.2724 64.722 32.7878C64.7853 32.3639 64.896 31.9702 65.1493 31.622C65.6082 30.9709 66.2412 30.6226 67.0325 30.4864C67.2699 30.4561 67.539 30.4258 67.808 30.4258Z" fill="white"/>
<path d="M121.157 30.4258C121.727 30.4409 122.281 30.5166 122.803 30.7589C123.325 31.0163 123.737 31.3948 124.038 31.8945C124.228 32.1973 124.212 32.1973 123.879 32.3942C123.42 32.6667 122.961 32.9392 122.518 33.2269C122.376 33.3178 122.328 33.2875 122.265 33.1664C122.107 32.8938 121.917 32.6516 121.6 32.5153C121.284 32.379 120.746 32.4093 120.524 32.6364C120.208 32.9695 120.319 33.4995 120.762 33.7569C121.316 34.0749 121.933 34.2717 122.518 34.5442C123.056 34.8016 123.579 35.0742 123.99 35.4981C124.465 35.9827 124.702 36.5429 124.718 37.2091C124.734 37.7088 124.702 38.2084 124.465 38.6778C124.212 39.1775 123.848 39.556 123.341 39.8134C122.74 40.1314 122.091 40.2677 121.41 40.298C120.572 40.3131 119.765 40.2071 119.005 39.8134C118.372 39.4955 117.881 39.0261 117.533 38.4204C117.343 38.0873 117.359 38.1025 117.723 37.9208C118.071 37.7391 118.419 37.5422 118.752 37.3454C118.847 37.2848 118.957 37.2545 119.052 37.1788C119.242 37.0426 119.29 37.0577 119.416 37.2545C119.701 37.6785 120.034 38.0419 120.556 38.1933C121.062 38.3447 121.6 38.3599 122.059 38.0722C122.455 37.8299 122.566 37.3908 122.186 37.0123C121.869 36.6943 121.426 36.558 121.015 36.3915C120.382 36.1341 119.733 35.8767 119.179 35.4679C118.578 35.0136 118.198 34.4231 118.087 33.6963C118.008 33.0755 118.055 32.4699 118.356 31.9096C118.752 31.1677 119.416 30.774 120.239 30.5772C120.54 30.4712 120.857 30.4258 121.157 30.4258Z" fill="white"/>
<path d="M98.4629 35.3614C98.4629 33.8169 98.4629 32.2725 98.4629 30.7281C98.4629 30.5767 98.4945 30.5312 98.6528 30.5312C99.3017 30.5464 99.9505 30.5464 100.599 30.5312C100.758 30.5312 100.805 30.5615 100.805 30.7129C100.805 33.1053 100.805 35.4976 100.805 37.89C100.805 38.1776 100.773 38.1474 101.074 38.1474C102.388 38.1474 103.685 38.1474 104.999 38.1474C105.173 38.1474 105.221 38.2079 105.221 38.3593C105.205 38.9044 105.221 39.4495 105.221 39.9946C105.221 40.1157 105.205 40.1763 105.046 40.1763C102.91 40.1763 100.773 40.1763 98.637 40.1763C98.4945 40.1763 98.4787 40.1309 98.4787 40.0098C98.4629 38.4502 98.4629 36.9058 98.4629 35.3614Z" fill="white"/>
<path d="M106.249 35.3311C106.249 33.7866 106.249 32.2574 106.249 30.7129C106.249 30.5615 106.297 30.5312 106.455 30.5312C107.12 30.5464 107.769 30.5312 108.433 30.5312C108.56 30.5312 108.607 30.5615 108.607 30.6827C108.607 33.7866 108.607 36.8906 108.607 39.9946C108.607 40.1309 108.56 40.146 108.433 40.146C107.769 40.146 107.12 40.1309 106.455 40.146C106.297 40.146 106.249 40.1157 106.249 39.9643C106.249 38.435 106.249 36.8755 106.249 35.3311Z" fill="white"/>
</svg>
