<svg width="24" height="24" viewBox="0 0 24 24" fill="none" xmlns="http://www.w3.org/2000/svg">
<path fill-rule="evenodd" clip-rule="evenodd" d="M12.169 5.26132C13.1521 4.35249 14.4248 3.81941 15.7621 3.75632L16.0304 3.75C17.5546 3.75 19.0152 4.36176 20.0999 5.46425L20.2827 5.6617C22.3114 7.95832 22.2322 11.4407 20.0843 13.6479L14.6918 19.1233C13.9823 19.8441 13.0132 20.25 12.0018 20.25C10.9904 20.25 10.0212 19.8441 9.31187 19.1234L3.91607 13.6446C1.69698 11.3641 1.69698 7.73147 3.93332 5.4339L4.13804 5.23712C5.18531 4.2811 6.55306 3.75 7.97308 3.75C9.48551 3.75 10.9352 4.35227 12.002 5.42269L12.169 5.26132ZM19.0154 6.50033C18.2281 5.70045 17.1527 5.25 16.0304 5.25C14.9081 5.25 13.8327 5.70044 13.0452 6.50046L12.5361 7.01738C12.2423 7.3157 11.7612 7.31569 11.4674 7.01737L10.9581 6.50025C10.1708 5.70041 9.0954 5.25 7.97308 5.25C6.92752 5.25 5.9204 5.64106 5.16395 6.33124L4.99109 6.49717C3.33865 8.19527 3.33865 10.9003 4.98795 12.5952L10.3807 18.071C10.8083 18.5054 11.3923 18.75 12.0018 18.75C12.6113 18.75 13.1953 18.5054 13.623 18.0709L19.0124 12.5986C20.6094 10.9575 20.6684 8.36406 19.1706 6.66819L19.0154 6.50033Z" fill="#CD1F46"/>
</svg>
