<svg width="20" height="20" viewBox="0 0 20 20" fill="none" xmlns="http://www.w3.org/2000/svg">
<path fill-rule="evenodd" clip-rule="evenodd" d="M10.1376 4.38444C10.9568 3.62707 12.0174 3.18284 13.1318 3.13027L13.3554 3.125C14.6256 3.125 15.8427 3.6348 16.7467 4.55354L16.899 4.71808C18.5896 6.63193 18.5236 9.53388 16.7337 11.3732L12.2399 15.936C11.6487 16.5367 10.8411 16.875 9.99823 16.875C9.15538 16.875 8.34779 16.5367 7.75663 15.9362L3.26014 11.3705C1.4109 9.47012 1.4109 6.44289 3.27451 4.52825L3.44511 4.36427C4.31784 3.56758 5.45763 3.125 6.64098 3.125C7.90134 3.125 9.10938 3.62689 9.99843 4.51891L10.1376 4.38444ZM15.8429 5.41694C15.1868 4.75037 14.2907 4.375 13.3554 4.375C12.4201 4.375 11.524 4.75037 10.8677 5.41705L10.4435 5.84782C10.1987 6.09641 9.7977 6.09641 9.55288 5.84781L9.12848 5.41687C8.47239 4.75034 7.57625 4.375 6.64098 4.375C5.76968 4.375 4.93042 4.70088 4.30003 5.27604L4.15599 5.41431C2.77895 6.82939 2.77895 9.08362 4.15337 10.496L8.64735 15.0592C9.00365 15.4211 9.49032 15.625 9.99823 15.625C10.5061 15.625 10.9928 15.4211 11.3492 15.059L15.8404 10.4988C17.1712 9.13122 17.2204 6.97005 15.9723 5.55683L15.8429 5.41694Z" fill="#CD1F46"/>
</svg>
