<svg width="36" height="36" viewBox="0 0 36 36" fill="none" xmlns="http://www.w3.org/2000/svg">
<path d="M18 12.375C18.5695 12.375 19.0402 12.7982 19.1147 13.3473L19.125 13.5V14.7118C19.125 15.3331 18.6213 15.8368 18 15.8368C17.4305 15.8368 16.9598 15.4136 16.8853 14.8644L16.875 14.7118V13.5C16.875 12.8787 17.3787 12.375 18 12.375Z" fill="white"/>
<path d="M18.1064 13.5918C18.7249 13.6505 19.1788 14.1995 19.1201 14.8181C19.0663 15.385 18.6005 15.8137 18.0468 15.836L17.8939 15.8318C17.069 15.7535 16.3268 16.3035 16.1471 17.094L16.1174 17.2669C16.0448 17.884 15.4856 18.3253 14.8686 18.2527C14.2515 18.18 13.8102 17.6209 13.8828 17.0039C14.1197 14.9916 15.8578 13.5146 17.8554 13.5761L18.1064 13.5918Z" fill="white"/>
<path d="M18 23.1641C18.5695 23.1641 19.0402 23.5873 19.1147 24.1364L19.125 24.2891V25.5009C19.125 26.1222 18.6213 26.6259 18 26.6259C17.4305 26.6259 16.9598 26.2026 16.8853 25.6535L16.875 25.5009V24.2891C16.875 23.6677 17.3787 23.1641 18 23.1641Z" fill="white"/>
<path d="M21.1316 20.7479C21.7487 20.8205 22.19 21.3796 22.1174 21.9967C21.8706 24.0928 19.995 25.6081 17.8938 25.4087C17.2753 25.35 16.8214 24.801 16.8801 24.1825C16.9339 23.6155 17.3997 23.1869 17.9534 23.1646L18.1063 23.1688C18.9312 23.247 19.6734 22.6971 19.8531 21.9066L19.8828 21.7336C19.9494 21.168 20.4247 20.75 20.9788 20.7402L21.1316 20.7479Z" fill="white"/>
<path d="M17.9297 13.5881C19.7091 13.4765 21.3524 14.5415 21.9773 16.2114C22.195 16.7933 21.8999 17.4416 21.3179 17.6593C20.7845 17.859 20.1954 17.6275 19.9331 17.1394L19.87 17C19.6153 16.3194 18.9802 15.8649 18.2667 15.832L18.0704 15.8337C17.4503 15.8725 16.9161 15.4014 16.8772 14.7813C16.8384 14.1611 17.3096 13.6269 17.9297 13.5881Z" fill="white"/>
<path d="M14.6802 21.3392C15.2136 21.1396 15.8028 21.371 16.065 21.8592L16.1282 21.9986C16.3828 22.6791 17.018 23.1337 17.7314 23.1666L17.9277 23.1649C18.5478 23.126 19.0821 23.5972 19.1209 24.2173C19.1598 24.8374 18.6886 25.3716 18.0685 25.4105C16.289 25.5221 14.6458 24.4571 14.0209 22.7872C13.8031 22.2053 14.0983 21.557 14.6802 21.3392Z" fill="white"/>
<path d="M15 16.0098C15.5695 16.0098 16.0402 16.433 16.1147 16.9821L16.125 17.1348C16.125 17.5701 16.3982 17.9517 16.7962 18.0986L16.951 18.1423L19.4903 18.6502C21.0223 18.9566 22.125 20.3017 22.125 21.864C22.125 22.4853 21.6213 22.989 21 22.989C20.4305 22.989 19.9598 22.5658 19.8853 22.0167L19.875 21.864C19.875 21.4287 19.6018 21.0471 19.2038 20.9002L19.049 20.8565L16.5097 20.3486C14.9777 20.0422 13.875 18.6971 13.875 17.1348C13.875 16.5134 14.3787 16.0098 15 16.0098Z" fill="white"/>
<path fill-rule="evenodd" clip-rule="evenodd" d="M6.04903 10.5154L12.6119 5.26504C15.762 2.74499 20.238 2.74499 23.388 5.26504L29.951 10.5154C31.6411 11.8676 32.625 13.9147 32.625 16.0791V25.5C32.625 29.435 29.435 32.625 25.5 32.625H10.5C6.56497 32.625 3.375 29.435 3.375 25.5V16.0791C3.375 13.9147 4.35888 11.8676 6.04903 10.5154ZM28.5454 12.2724L21.9824 7.02199C19.6542 5.15934 16.3458 5.15934 14.0175 7.02199L7.4546 12.2724C6.29818 13.1975 5.625 14.5982 5.625 16.0791V25.5C5.625 28.1924 7.80761 30.375 10.5 30.375H25.5C28.1924 30.375 30.375 28.1924 30.375 25.5V16.0791C30.375 14.5982 29.7018 13.1975 28.5454 12.2724Z" fill="white"/>
</svg>
