<svg width="24" height="24" viewBox="0 0 24 24" fill="none" xmlns="http://www.w3.org/2000/svg">
<path d="M8.64844 9.82422C9.02813 9.82422 9.34193 10.1064 9.39159 10.4724L9.39844 10.5742V15.4832C9.39844 15.8974 9.06265 16.2332 8.64844 16.2332C8.26874 16.2332 7.95495 15.9511 7.90528 15.585L7.89844 15.4832V10.5742C7.89844 10.16 8.23422 9.82422 8.64844 9.82422Z" fill="white"/>
<path d="M13.9669 9.82422C15.4539 9.82422 16.6688 10.9841 16.7568 12.4489L16.7619 12.6192V15.4832C16.7619 15.8974 16.4261 16.2332 16.0119 16.2332C15.6322 16.2332 15.3184 15.9511 15.2687 15.585L15.2619 15.4832V12.6192C15.2619 11.9034 14.6827 11.3242 13.9669 11.3242C13.2958 11.3242 12.7448 11.8333 12.6786 12.4867L12.6719 12.6192V15.4832C12.6719 15.8974 12.3361 16.2332 11.9219 16.2332C11.5422 16.2332 11.2284 15.9511 11.1787 15.585L11.1719 15.4832V12.6192C11.1719 11.075 12.4227 9.82422 13.9669 9.82422Z" fill="white"/>
<path d="M8.64542 6.85742C9.1706 6.85742 9.59678 7.28075 9.60142 7.81242C9.60142 8.33964 9.17363 8.76742 8.64641 8.76742C8.1192 8.76742 7.69142 8.33963 7.69144 7.81906C7.68708 7.32639 8.05721 6.91951 8.53369 6.8639L8.64542 6.85742Z" fill="white"/>
<path fill-rule="evenodd" clip-rule="evenodd" d="M19.6011 4.39842C15.4032 0.200527 8.59631 0.200527 4.39842 4.39842C0.200527 8.59631 0.200527 15.4032 4.39842 19.6011C8.59631 23.799 15.4032 23.799 19.6011 19.6011C23.799 15.4032 23.799 8.59631 19.6011 4.39842ZM5.45908 5.45908C9.00172 1.91644 14.7039 1.84831 18.3296 5.2547L18.5404 5.45908L18.7448 5.66993C22.1512 9.29563 22.0831 14.9978 18.5404 18.5404C14.9283 22.1525 9.07119 22.1525 5.45908 18.5404C1.84697 14.9283 1.84697 9.07119 5.45908 5.45908Z" fill="white"/>
</svg>
