<svg width="40" height="40" viewBox="0 0 40 40" fill="none" xmlns="http://www.w3.org/2000/svg">
<path d="M14.4141 16.373C15.0469 16.373 15.5699 16.8433 15.6527 17.4534L15.6641 17.623V25.8047C15.6641 26.4951 15.1044 27.0547 14.4141 27.0547C13.7812 27.0547 13.2582 26.5845 13.1755 25.9743L13.1641 25.8047V17.623C13.1641 16.9327 13.7237 16.373 14.4141 16.373Z" fill="white"/>
<path d="M23.2755 16.373C25.7539 16.373 27.7788 18.3061 27.9254 20.7475L27.9339 21.0314V25.8047C27.9339 26.4951 27.3742 27.0547 26.6839 27.0547C26.051 27.0547 25.528 26.5845 25.4453 25.9743L25.4339 25.8047V21.0314C25.4339 19.8384 24.4685 18.873 23.2755 18.873C22.1571 18.873 21.2387 19.7215 21.1283 20.8105L21.1172 21.0314V25.8047C21.1172 26.4951 20.5575 27.0547 19.8672 27.0547C19.2344 27.0547 18.7114 26.5845 18.6286 25.9743L18.6172 25.8047V21.0314C18.6172 18.4577 20.7018 16.373 23.2755 16.373Z" fill="white"/>
<path d="M14.4103 11.4297C15.2856 11.4297 15.9959 12.1352 16.0037 13.0214C16.0037 13.9 15.2907 14.613 14.412 14.613C13.5333 14.613 12.8203 13.9 12.8204 13.0324C12.8131 12.2113 13.43 11.5332 14.2241 11.4405L14.4103 11.4297Z" fill="white"/>
<path fill-rule="evenodd" clip-rule="evenodd" d="M32.6672 7.33135C25.6707 0.334862 14.3259 0.334862 7.3294 7.33135C0.332909 14.3278 0.332909 25.6726 7.3294 32.6691C14.3259 39.6656 25.6707 39.6656 32.6672 32.6691C39.6637 25.6726 39.6637 14.3278 32.6672 7.33135ZM9.09716 9.09912C15.0016 3.19471 24.5051 3.08117 30.548 8.75848L30.8994 9.09912L31.24 9.45053C36.9174 15.4934 36.8038 24.9969 30.8994 30.9014C24.8792 36.9215 15.1173 36.9215 9.09716 30.9014C3.07699 24.8812 3.07699 15.1193 9.09716 9.09912Z" fill="white"/>
</svg>
