<svg width="20" height="20" viewBox="0 0 20 20" fill="none" xmlns="http://www.w3.org/2000/svg">
<path d="M17.5013 9.375C17.8465 9.375 18.1263 9.65482 18.1263 10C18.1263 10.3164 17.8912 10.5779 17.5861 10.6193L17.5013 10.625H9.16797C8.82279 10.625 8.54297 10.3452 8.54297 10C8.54297 9.68359 8.7781 9.42209 9.08316 9.38071L9.16797 9.375H17.5013Z" fill="#CD1F46"/>
<path fill-rule="evenodd" clip-rule="evenodd" d="M5.78673 8.37968C4.89182 7.48477 3.44109 7.48477 2.54618 8.37968C1.65127 9.27459 1.65127 10.7253 2.54618 11.6202C3.44109 12.5151 4.89182 12.5151 5.78673 11.6202C6.68164 10.7253 6.68164 9.27459 5.78673 8.37968ZM3.43007 9.26356C3.80971 8.88392 4.40931 8.85862 4.81828 9.18764L4.90285 9.26356L4.97878 9.34813C5.3078 9.7571 5.28249 10.3567 4.90285 10.7363C4.49609 11.1431 3.83682 11.1431 3.43007 10.7363C3.02331 10.3296 3.02331 9.67032 3.43007 9.26356Z" fill="#CD1F46"/>
<path d="M17.5013 3.54175C17.8465 3.54175 18.1263 3.82157 18.1263 4.16675C18.1263 4.48316 17.8912 4.74466 17.5861 4.78604L17.5013 4.79175H9.16797C8.82279 4.79175 8.54297 4.51193 8.54297 4.16675C8.54297 3.85033 8.7781 3.58884 9.08316 3.54745L9.16797 3.54175H17.5013Z" fill="#CD1F46"/>
<path d="M6.2474 2.03556C6.5039 1.80458 6.89909 1.82527 7.13007 2.08177C7.34006 2.31496 7.34205 2.66276 7.14796 2.89761L7.08386 2.96445L4.31136 5.46111C4.09744 5.65376 3.78368 5.67305 3.54975 5.51897L3.47498 5.46119L2.09748 4.22119C1.84094 3.99025 1.82018 3.59507 2.05111 3.33852C2.26106 3.1053 2.60674 3.06694 2.8606 3.2354L2.93378 3.29215L3.8923 4.15501L6.2474 2.03556Z" fill="#CD1F46"/>
<path d="M17.5013 15.2083C17.8465 15.2083 18.1263 15.4881 18.1263 15.8333C18.1263 16.1497 17.8912 16.4112 17.5861 16.4525L17.5013 16.4583H9.16797C8.82279 16.4583 8.54297 16.1784 8.54297 15.8333C8.54297 15.5168 8.7781 15.2553 9.08316 15.214L9.16797 15.2083H17.5013Z" fill="#CD1F46"/>
<path fill-rule="evenodd" clip-rule="evenodd" d="M5.78673 14.2132C4.89182 13.3183 3.44109 13.3183 2.54618 14.2132C1.65127 15.1081 1.65127 16.5588 2.54618 17.4537C3.44109 18.3486 4.89182 18.3486 5.78673 17.4537C6.68164 16.5588 6.68164 15.1081 5.78673 14.2132ZM3.43007 15.0971C3.80971 14.7174 4.40931 14.6921 4.81828 15.0211L4.90285 15.0971L4.97878 15.1816C5.3078 15.5906 5.28249 16.1902 4.90285 16.5698C4.49609 16.9766 3.83682 16.9766 3.43007 16.5698C3.02331 16.1631 3.02331 15.5038 3.43007 15.0971Z" fill="#CD1F46"/>
</svg>
