<svg width="102" height="47" viewBox="0 0 102 47" fill="none" xmlns="http://www.w3.org/2000/svg">
<g clip-path="url(#clip0_202_582)">
<path opacity="0.989" fill-rule="evenodd" clip-rule="evenodd" d="M15.8856 2.2898C18.4092 2.03113 20.305 2.96054 21.5731 5.07805C23.9522 8.95105 24.0899 12.8679 21.9868 16.8285C20.8143 17.9661 19.4009 18.3312 17.747 17.9239C15.1561 16.8214 13.536 14.9294 12.8867 12.2478C11.9988 9.41093 12.2746 6.68908 13.714 4.08224C14.3558 3.36248 15.0797 2.76499 15.8856 2.2898Z" fill="#0F1035"/>
<path opacity="0.989" fill-rule="evenodd" clip-rule="evenodd" d="M31.1893 2.48899C34.1116 2.34568 35.8696 3.67342 36.4632 6.4722C37.1984 10.1181 36.3712 13.371 33.9813 16.2311C31.508 18.4047 29.095 18.3383 26.7426 16.0319C24.6684 11.504 25.3923 7.42122 28.9142 3.78353C29.6243 3.24368 30.3827 2.81216 31.1893 2.48899Z" fill="#0F1035"/>
<path opacity="0.988" fill-rule="evenodd" clip-rule="evenodd" d="M3.68325 11.4512C6.47276 11.2837 8.71332 12.2796 10.4049 14.4386C12.6619 17.6014 13.1445 20.9872 11.8527 24.5958C11.5424 25.16 11.0943 25.5916 10.5083 25.8903C7.3168 26.6623 4.73154 25.7661 2.75255 23.2017C0.826319 20.6948 0.136917 17.9066 0.684346 14.8369C1.14454 13.2343 2.14417 12.1057 3.68325 11.4512Z" fill="#0F1035"/>
<path opacity="0.99" fill-rule="evenodd" clip-rule="evenodd" d="M43.8082 13.2439C46.701 13.407 48.3901 14.8676 48.8753 17.6254C49.6368 21.533 48.4993 24.8191 45.4628 27.4839C42.5451 29.4235 39.891 29.1248 37.5002 26.5877C35.8845 22.9325 36.2981 19.4804 38.7411 16.2313C40.0792 14.6429 41.7683 13.6471 43.8082 13.2439Z" fill="#0F1035"/>
<path opacity="0.994" fill-rule="evenodd" clip-rule="evenodd" d="M22.299 21.0105C23.6497 20.9086 24.9595 21.0746 26.2286 21.5084C30.2721 23.7424 33.4088 26.8294 35.6389 30.7694C37.3204 33.375 38.3201 36.1963 38.6378 39.2337C38.6016 41.9608 37.2228 43.687 34.5014 44.4119C33.3294 44.5447 32.1575 44.5447 30.9855 44.4119C29.0709 43.7883 27.1404 43.2241 25.1945 42.719C22.6493 43.3036 20.0986 43.8678 17.5421 44.4119C14.7721 44.8413 12.1523 44.443 9.6829 43.2169C7.90424 41.8202 7.31826 40.061 7.92493 37.9392C9.82466 31.5971 13.513 26.4522 18.9898 22.5042C20.0867 21.9422 21.1898 21.4444 22.299 21.0105Z" fill="#0F1035"/>
</g>
<path d="M70.4022 18.2184C69.383 18.2184 68.4829 18.0927 67.7019 17.8412C66.921 17.5764 66.2591 17.186 65.7164 16.6697C65.187 16.1535 64.7833 15.5115 64.5053 14.7438C64.2406 13.9629 64.1082 13.0628 64.1082 12.0436V5.67017C64.1082 5.06128 64.267 4.60462 64.5847 4.30018C64.9024 3.98251 65.3524 3.82367 65.9348 3.82367C66.5305 3.82367 66.9805 3.98251 67.285 4.30018C67.6026 4.60462 67.7615 5.06128 67.7615 5.67017V12.0833C67.7615 13.1025 67.9865 13.8702 68.4365 14.3864C68.8866 14.9027 69.5418 15.1608 70.4022 15.1608C71.2493 15.1608 71.8979 14.9027 72.3479 14.3864C72.798 13.8702 73.023 13.1025 73.023 12.0833V5.67017C73.023 5.06128 73.1752 4.60462 73.4797 4.30018C73.7973 3.98251 74.2474 3.82367 74.8298 3.82367C75.4122 3.82367 75.8556 3.98251 76.1601 4.30018C76.4645 4.60462 76.6167 5.06128 76.6167 5.67017V12.0436C76.6167 13.4069 76.3785 14.5519 75.902 15.4784C75.4387 16.3918 74.7438 17.0801 73.8172 17.5433C72.8906 17.9934 71.7523 18.2184 70.4022 18.2184ZM84.2618 18.2184C83.7323 18.2184 83.1764 18.1787 82.594 18.0993C82.0248 18.0331 81.4821 17.9272 80.9659 17.7816C80.4496 17.636 79.9864 17.4639 79.576 17.2654C79.2186 17.0933 78.9671 16.8683 78.8215 16.5903C78.6759 16.2991 78.623 15.9947 78.6627 15.677C78.7024 15.3593 78.8149 15.0813 79.0002 14.8431C79.1855 14.5916 79.4304 14.4261 79.7349 14.3467C80.0393 14.2541 80.3835 14.2938 80.7673 14.4658C81.2703 14.7041 81.8395 14.8894 82.4748 15.0218C83.1102 15.1541 83.7058 15.2203 84.2618 15.2203C85.1354 15.2203 85.7443 15.1078 86.0884 14.8828C86.4458 14.6445 86.6245 14.3533 86.6245 14.0092C86.6245 13.7047 86.4987 13.4599 86.2472 13.2746C86.009 13.0892 85.5788 12.9304 84.9567 12.798L82.6337 12.3017C81.363 12.0369 80.4165 11.5737 79.7944 10.9118C79.1723 10.25 78.8613 9.39625 78.8613 8.35056C78.8613 7.66226 79.0002 7.04015 79.2782 6.48421C79.5694 5.91504 79.9731 5.43191 80.4893 5.03481C81.0188 4.63772 81.6409 4.33328 82.3557 4.12149C83.0837 3.89647 83.8911 3.78396 84.778 3.78396C85.4663 3.78396 86.1612 3.86338 86.8627 4.02222C87.5775 4.16782 88.193 4.39284 88.7092 4.69728C89.0137 4.85612 89.2321 5.07452 89.3644 5.35249C89.4968 5.63046 89.5498 5.92166 89.5233 6.2261C89.4968 6.5173 89.3909 6.77542 89.2056 7.00044C89.0335 7.22546 88.7953 7.37768 88.4908 7.4571C88.1996 7.52328 87.8489 7.47033 87.4385 7.29826C87.0547 7.12618 86.6179 7.00044 86.1281 6.92102C85.6516 6.82836 85.1883 6.78204 84.7383 6.78204C84.2485 6.78204 83.8316 6.8416 83.4874 6.96073C83.1433 7.06662 82.8785 7.22546 82.6932 7.43724C82.5212 7.64903 82.4351 7.8939 82.4351 8.17187C82.4351 8.44984 82.5476 8.6881 82.7726 8.88664C83.0109 9.07196 83.4411 9.23079 84.0632 9.36316L86.3664 9.85953C87.6503 10.1375 88.61 10.5942 89.2453 11.2295C89.8807 11.8649 90.1983 12.6921 90.1983 13.7114C90.1983 14.3997 90.0594 15.0218 89.7814 15.5777C89.5034 16.1336 89.1063 16.6102 88.5901 17.0073C88.0739 17.3911 87.4518 17.6889 86.7238 17.9007C85.9957 18.1125 85.1751 18.2184 84.2618 18.2184ZM66.0341 41.1787C65.4517 41.1787 65.0017 41.0199 64.684 40.7022C64.3663 40.3713 64.2075 39.9146 64.2075 39.3322V28.8489C64.2075 28.2532 64.3663 27.7966 64.684 27.4789C65.0149 27.1612 65.4716 27.0024 66.054 27.0024H70.9383C72.5266 27.0024 73.751 27.4127 74.6114 28.2334C75.485 29.0408 75.9218 30.1593 75.9218 31.5888C75.9218 33.0184 75.485 34.1435 74.6114 34.9641C73.751 35.7716 72.5266 36.1753 70.9383 36.1753H67.8608V39.3322C67.8608 39.9146 67.7085 40.3713 67.4041 40.7022C67.0997 41.0199 66.643 41.1787 66.0341 41.1787ZM67.8608 33.3758H70.3029C70.9912 33.3758 71.5207 33.2302 71.8913 32.9389C72.2619 32.6345 72.4472 32.1845 72.4472 31.5888C72.4472 30.9799 72.2619 30.5299 71.8913 30.2387C71.5207 29.9475 70.9912 29.8019 70.3029 29.8019H67.8608V33.3758ZM79.531 41C78.9089 41 78.4324 40.8412 78.1015 40.5235C77.7838 40.1926 77.625 39.7227 77.625 39.1138V28.8886C77.625 28.2797 77.7838 27.8164 78.1015 27.4987C78.4324 27.1678 78.9089 27.0024 79.531 27.0024H86.2618C86.7383 27.0024 87.0957 27.1215 87.334 27.3597C87.5722 27.598 87.6914 27.9422 87.6914 28.3922C87.6914 28.8555 87.5722 29.2129 87.334 29.4644C87.0957 29.7026 86.7383 29.8217 86.2618 29.8217H81.1194V32.4823H85.825C86.2883 32.4823 86.6391 32.6014 86.8773 32.8397C87.1288 33.0779 87.2546 33.4287 87.2546 33.892C87.2546 34.3553 87.1288 34.706 86.8773 34.9443C86.6391 35.1825 86.2883 35.3017 85.825 35.3017H81.1194V38.1806H86.2618C86.7383 38.1806 87.0957 38.3064 87.334 38.5579C87.5722 38.7961 87.6914 39.1403 87.6914 39.5903C87.6914 40.0536 87.5722 40.4044 87.334 40.6426C87.0957 40.8809 86.7383 41 86.2618 41H79.531ZM95.0404 41.1787C94.458 41.1787 94.008 41.0199 93.6903 40.7022C93.3726 40.3713 93.2138 39.9146 93.2138 39.3322V29.9806H90.0966C89.6068 29.9806 89.2296 29.8548 88.9649 29.6033C88.7134 29.3386 88.5876 28.968 88.5876 28.4915C88.5876 28.0017 88.7134 27.6311 88.9649 27.3796C89.2296 27.1281 89.6068 27.0024 90.0966 27.0024H99.9843C100.474 27.0024 100.845 27.1281 101.096 27.3796C101.361 27.6311 101.493 28.0017 101.493 28.4915C101.493 28.968 101.361 29.3386 101.096 29.6033C100.845 29.8548 100.474 29.9806 99.9843 29.9806H96.8671V39.3322C96.8671 39.9146 96.7149 40.3713 96.4104 40.7022C96.106 41.0199 95.6493 41.1787 95.0404 41.1787Z" fill="#0F1035"/>
<defs>
<clipPath id="clip0_202_582">
<rect width="49.637" height="43.0187" fill="white" transform="translate(0.0632324 1.99072)"/>
</clipPath>
</defs>
</svg>
