<svg width="122" height="43" viewBox="0 0 122 43" fill="none" xmlns="http://www.w3.org/2000/svg">
<path d="M24.8072 28.4457C24.6413 28.9082 24.4603 29.3418 24.3396 29.7898C24.234 30.1512 24.0832 30.5125 23.9625 30.8738C23.7664 31.4809 23.5552 32.0734 23.3591 32.6805C23.3139 32.8105 23.2686 32.8395 23.1329 32.8395C21.6546 32.8395 20.1613 32.8395 18.6831 32.8395C18.6227 32.8395 18.5473 32.8395 18.4417 32.8395C18.6227 32.9695 18.7886 33.0852 18.9395 33.1863C19.935 33.8801 20.9306 34.5738 21.9412 35.2676C22.0166 35.3254 22.0921 35.3832 22.1826 35.4266C22.3787 35.5133 22.3787 35.6434 22.3183 35.8168C22.0619 36.5395 21.8055 37.2766 21.5641 38.0137C21.534 38.1148 21.4887 38.1437 21.3831 38.1727C20.8099 38.3027 20.2216 38.4184 19.6183 38.4906C19.2412 38.534 18.849 38.5629 18.4719 38.5918C17.8233 38.6496 17.1897 38.6352 16.5411 38.6062C15.983 38.5918 15.4249 38.534 14.8819 38.4473C14.1427 38.3461 13.4036 38.2016 12.6796 38.0137C12.0913 37.8547 11.503 37.6668 10.9449 37.4355C10.1304 37.1031 9.36107 36.6984 8.65212 36.207C8.07892 35.8168 7.58115 35.3832 7.11354 34.8918C6.57051 34.3137 6.05766 33.7066 5.60513 33.0418C5.04702 32.2035 4.5945 31.3074 4.3079 30.3391C4.1118 29.7031 3.97605 29.0672 3.90063 28.4023C3.84029 27.8965 3.77996 27.3906 3.74979 26.8703C3.68945 25.7285 3.68945 24.5867 3.68945 23.4449C3.68945 17.0566 3.68945 10.6828 3.68945 4.29453C3.68945 4.1211 3.71962 4.06328 3.91571 4.06328C6.79678 4.06328 9.66276 4.06328 12.5438 4.06328C12.7098 4.06328 12.7399 4.09218 12.7399 4.25117C12.7399 11.2898 12.7248 18.343 12.7399 25.3816C12.7399 26.2922 12.8606 27.1883 13.1472 28.0699C13.3735 28.7781 13.7204 29.4141 14.2634 29.9344C14.8064 30.4402 15.4701 30.7293 16.2093 30.8738C16.7975 30.9895 17.3858 30.9895 17.959 30.9316C18.7434 30.8594 19.4825 30.6426 20.116 30.1512C20.7496 29.6598 21.1418 29.0238 21.3831 28.2867C21.534 27.8242 21.6245 27.3473 21.6848 26.8559C21.73 26.4945 21.73 26.1332 21.7602 25.7719C21.8205 25.0926 21.7904 24.4133 21.7904 23.734C21.7904 17.2445 21.7904 10.7551 21.7904 4.26562C21.7904 4.09219 21.8356 4.04883 22.0166 4.04883C24.8977 4.04883 27.7637 4.04883 30.6448 4.04883C30.7956 4.04883 30.8408 4.07773 30.8408 4.23672C30.8408 11.102 30.8408 17.9816 30.8408 24.8469C30.8408 25.2371 30.8258 25.6273 30.8107 26.0176C30.7654 26.5957 30.7353 27.1738 30.6598 27.7375C30.509 28.8793 30.2827 30.0066 29.8755 31.1051C29.6643 31.6543 29.4079 32.1746 29.1062 32.6805C29.0609 32.7527 29.0006 32.7672 28.9252 32.7672C28.1106 32.7672 27.2961 32.7672 26.4815 32.7672C26.3759 32.7672 26.3458 32.7383 26.3156 32.6371C26.0592 31.8855 25.8027 31.1195 25.5463 30.368C25.3351 29.7465 25.124 29.1395 24.9128 28.518C24.8675 28.5613 24.8374 28.518 24.8072 28.4457Z" fill="#0F1035"/>
<path d="M46.4528 32.8824C46.7997 33.1281 47.1617 33.3738 47.5087 33.6195C48.3685 34.2266 49.2282 34.8191 50.1031 35.4262C50.3596 35.5996 50.3445 35.5996 50.254 35.8887C49.9975 36.6258 49.7411 37.3629 49.4998 38.1C49.4545 38.2156 49.4093 38.2734 49.2735 38.3023C48.7456 38.4035 48.2025 38.4758 47.6595 38.5336C46.6187 38.6492 45.593 38.6492 44.5522 38.6203C43.9639 38.6059 43.3756 38.548 42.8024 38.4613C42.0633 38.3602 41.3393 38.2156 40.6152 38.0277C40.042 37.8832 39.4839 37.6664 38.9258 37.4352C38.3677 37.2039 37.8397 36.9148 37.3269 36.5969C36.9498 36.3512 36.5727 36.091 36.2408 35.7875C36.0749 35.643 35.8939 35.4984 35.7431 35.3395C34.8229 34.4145 34.114 33.3594 33.6162 32.1742C33.3145 31.4805 33.1184 30.7578 32.9676 30.0207C32.8771 29.6016 32.8469 29.168 32.8017 28.7344C32.7564 28.1273 32.8017 27.5059 32.7715 26.8988C32.7715 26.7832 32.8017 26.7543 32.9223 26.7543C35.8185 26.7543 38.7146 26.7543 41.6108 26.7543C41.7616 26.7543 41.7465 26.8121 41.7616 26.9133C41.8069 27.8527 41.9426 28.7777 42.4102 29.616C43.3002 31.1625 45.1555 31.7551 46.7545 31.1191C47.6142 30.7723 48.2327 30.1652 48.5947 29.3125C48.821 28.7922 48.8662 28.2719 48.8361 27.7371C48.7757 26.9277 48.3684 26.2918 47.6746 25.8148C46.845 25.2223 45.9097 24.8176 44.9745 24.4129C44.0846 24.0371 43.1946 23.6613 42.2896 23.3C41.3242 22.9098 40.3437 22.534 39.4236 22.0715C38.7448 21.7391 38.1113 21.3633 37.4928 20.9297C37.1459 20.684 36.814 20.4238 36.4822 20.1492C35.4565 19.282 34.657 18.2703 34.0989 17.0852C33.7067 16.2613 33.4955 15.4086 33.3748 14.5125C33.2994 13.8766 33.2843 13.2406 33.3447 12.6191C33.4654 11.3473 33.8274 10.1332 34.5212 9.02031C34.8229 8.54336 35.1548 8.08086 35.5319 7.64726C35.909 7.21367 36.3162 6.82344 36.7688 6.46211C37.6286 5.75391 38.5789 5.19024 39.6046 4.72774C41.0225 4.10625 42.5007 3.71601 44.0544 3.55703C44.8388 3.47031 45.6231 3.44141 46.4075 3.48476C48.0969 3.58594 49.726 3.90391 51.2797 4.5543C52.3507 5.00235 53.3462 5.58047 54.2362 6.31758C55.2166 7.14141 55.9859 8.12422 56.544 9.23711C56.9211 9.98867 57.1927 10.7836 57.3435 11.6219C57.4189 12.1133 57.4792 12.6047 57.5245 13.0961C57.5547 13.3562 57.5094 13.6164 57.5848 13.8766C57.615 13.9633 57.5698 14.0211 57.4642 14.0066C57.3586 13.9922 57.253 14.0066 57.1323 14.0066C54.3568 14.0066 51.5814 14.0066 48.8059 14.0066C48.6701 14.0066 48.6249 13.9922 48.5947 13.8332C48.5042 13.2551 48.3835 12.6914 48.112 12.1566C47.6897 11.3473 47.0109 10.8848 46.0907 10.7547C45.065 10.5957 44.1147 10.7836 43.3002 11.4195C42.7873 11.8098 42.4555 12.3156 42.365 12.9371C42.2896 13.3996 42.3046 13.8766 42.4555 14.3246C42.6214 14.8594 43.0136 15.2352 43.4661 15.5531C44.2052 16.0734 45.0198 16.4637 45.8343 16.825C46.4829 17.1141 47.1316 17.4176 47.7802 17.7066C48.9266 18.2125 50.1031 18.6895 51.2344 19.2531C52.2451 19.759 53.2104 20.3227 54.1155 20.973C54.6736 21.3777 55.2015 21.8258 55.6692 22.3172C56.3781 23.0687 56.9362 23.907 57.2982 24.8609C57.5245 25.468 57.6753 26.0895 57.7659 26.7398C57.8413 27.2602 57.8865 27.7805 57.8714 28.3152C57.8413 28.9945 57.796 29.6738 57.6603 30.3531C57.5245 31.1191 57.2832 31.8563 56.9966 32.5934C56.9362 32.7523 56.8457 32.8246 56.6496 32.8246C55.9256 32.8102 55.1865 32.8102 54.4624 32.8246C54.3418 32.8246 54.2965 32.7957 54.2513 32.6801C53.8742 31.5383 53.482 30.3965 53.0898 29.2547C53.0144 29.0234 52.9389 28.8066 52.8635 28.5754C52.8484 28.5465 52.8786 28.4742 52.8183 28.4887C52.773 28.4887 52.7579 28.532 52.7428 28.5754C52.6222 28.9367 52.5015 29.2836 52.3808 29.6305C52.049 30.6277 51.702 31.6395 51.3702 32.6512C51.3249 32.7812 51.2646 32.8246 51.1138 32.8246C49.6355 32.8246 48.1724 32.8246 46.6941 32.8246C46.6338 32.8246 46.5584 32.8246 46.498 32.8246C46.4528 32.8535 46.4528 32.868 46.4528 32.8824Z" fill="#0F1035"/>
<path d="M81.6743 15.6547C81.6743 11.8969 81.6743 8.15351 81.6743 4.3957C81.6743 4.22226 81.7195 4.19336 81.8854 4.19336C87.1498 4.19336 92.4292 4.19336 97.6936 4.19336C97.8746 4.19336 97.9048 4.23671 97.9048 4.3957C97.9048 5.95664 97.9048 7.53203 97.9048 9.09296C97.9048 9.2664 97.8746 9.30976 97.6785 9.30976C94.3902 9.30976 91.0868 9.30976 87.7984 9.30976C87.5722 9.30976 87.5722 9.30976 87.5722 9.52656C87.5722 11.2898 87.5722 13.0676 87.5722 14.8309C87.5722 14.9898 87.6174 15.0187 87.7682 15.0187C90.6644 15.0187 93.5605 15.0187 96.4567 15.0043C96.6528 15.0043 96.6829 15.0621 96.6829 15.2211C96.6829 16.7531 96.6829 18.2996 96.6829 19.8316C96.6829 19.9762 96.6528 20.0195 96.4869 20.0195C93.5907 20.0195 90.6795 20.0195 87.7833 20.0051C87.6174 20.0051 87.5722 20.034 87.5722 20.193C87.5872 20.7133 87.5872 21.248 87.5722 21.7684C87.5722 21.9273 87.6174 21.9562 87.7682 21.9562C91.2225 21.9562 94.6768 21.9562 98.131 21.9562C98.3724 21.9562 98.3724 21.9562 98.3724 22.1875C98.3724 23.7484 98.3724 25.2949 98.3724 26.8559C98.3724 27.0148 98.3422 27.0727 98.1612 27.0727C92.7309 27.0727 87.3006 27.0727 81.8553 27.0727C81.7044 27.0727 81.6592 27.0438 81.6592 26.8848C81.6743 23.1703 81.6743 19.4125 81.6743 15.6547Z" fill="#0F1035"/>
<path d="M62.2915 15.6399C62.2915 11.8966 62.2915 8.15322 62.2915 4.40987C62.2915 4.22197 62.3518 4.19307 62.5328 4.19307C64.8105 4.19307 67.0731 4.17861 69.3508 4.20752C70.8894 4.22197 72.3978 4.40986 73.861 4.90127C75.0224 5.2915 76.0783 5.82627 77.0135 6.60674C77.7828 7.24268 78.4013 7.97978 78.8689 8.83252C79.3063 9.61299 79.5929 10.4368 79.7589 11.3185C79.8192 11.6653 79.8494 12.0122 79.8946 12.3446C79.9399 12.8071 79.9549 13.2696 79.9248 13.7466C79.8946 14.1946 79.8494 14.6427 79.7589 15.0907C79.6834 15.4665 79.5929 15.8423 79.4722 16.2036C79.3063 16.7239 79.065 17.2153 78.7935 17.6923C78.5521 18.1114 78.2655 18.5017 77.9488 18.863C77.6169 19.2388 77.2549 19.5856 76.8476 19.9036C76.4856 20.1782 76.1236 20.4384 75.7314 20.6552C74.7057 21.2477 73.5894 21.6235 72.4129 21.8692C71.8397 21.9849 71.2514 22.0716 70.6631 22.1149C69.8938 22.1872 69.1095 22.1872 68.3402 22.1728C68.2044 22.1728 68.1743 22.2017 68.1743 22.3317C68.1743 23.8638 68.1743 25.3958 68.1893 26.9278C68.1893 27.0868 68.1441 27.1302 67.9782 27.1302C66.1379 27.1302 64.3127 27.1302 62.4725 27.1302C62.3065 27.1302 62.2764 27.0868 62.2764 26.9423C62.2915 23.1556 62.2915 19.3978 62.2915 15.6399ZM68.1893 13.1685C68.1893 14.4114 68.1893 15.6399 68.1893 16.8829C68.1893 16.9841 68.1743 17.0563 68.3251 17.0563C69.1246 17.0419 69.9089 17.0708 70.7084 16.9407C71.6134 16.7817 72.4431 16.5071 73.0615 15.8134C73.2878 15.5677 73.4537 15.3075 73.5744 15.004C73.8308 14.3536 73.9062 13.6743 73.876 12.9806C73.861 12.5614 73.8006 12.1423 73.695 11.7376C73.514 11.0583 73.1218 10.5091 72.5185 10.1044C71.6889 9.54072 70.7235 9.39619 69.7279 9.33838C69.2905 9.30947 68.853 9.33838 68.4156 9.30947C68.2346 9.30947 68.1893 9.33838 68.1893 9.52627C68.2044 10.7403 68.1893 11.9544 68.1893 13.1685Z" fill="#0F1035"/>
<path d="M108.916 4.19336C111.993 4.19336 115.055 4.19336 118.132 4.19336C118.298 4.19336 118.344 4.23671 118.344 4.3957C118.344 5.97109 118.344 7.54649 118.344 9.13633C118.344 9.29531 118.298 9.32422 118.147 9.32422C116.126 9.32422 114.105 9.32422 112.084 9.32422C111.918 9.32422 111.872 9.36757 111.872 9.52656C111.872 15.3223 111.872 21.1035 111.888 26.8992C111.888 27.0727 111.842 27.1305 111.661 27.1305C109.851 27.116 108.026 27.1305 106.216 27.1305C106.035 27.1305 105.99 27.1016 105.99 26.9137C105.99 21.1324 105.99 15.3367 105.99 9.55547C105.99 9.32422 105.99 9.32422 105.748 9.32422C103.742 9.32422 101.736 9.32422 99.7297 9.32422C99.5487 9.32422 99.5186 9.28086 99.5186 9.10742C99.5186 7.53203 99.5186 5.95664 99.5186 4.3957C99.5186 4.23671 99.5487 4.19336 99.7147 4.19336C102.777 4.19336 105.854 4.19336 108.916 4.19336Z" fill="#0F1035"/>
<path d="M104.873 34.2406C104.873 32.7664 104.873 31.3066 104.873 29.8324C104.873 29.6879 104.904 29.6445 105.054 29.6445C107.076 29.6445 109.112 29.6445 111.133 29.6445C111.284 29.6445 111.329 29.6879 111.314 29.8324C111.299 30.3527 111.299 30.8731 111.314 31.3934C111.314 31.5379 111.269 31.5668 111.133 31.5668C109.866 31.5668 108.584 31.5668 107.317 31.5668C107.151 31.5668 107.091 31.5957 107.091 31.7836C107.106 32.4773 107.106 33.1711 107.091 33.8648C107.091 34.0383 107.121 34.0961 107.317 34.0961C108.403 34.0816 109.504 34.0961 110.59 34.0816C110.756 34.0816 110.817 34.1106 110.801 34.284C110.786 34.7754 110.786 35.2813 110.801 35.7727C110.801 35.9172 110.771 35.975 110.605 35.975C109.489 35.9605 108.388 35.975 107.272 35.975C107.121 35.975 107.076 36.0039 107.076 36.1484C107.091 36.3508 107.091 36.5676 107.076 36.7699C107.061 36.9145 107.121 36.9434 107.257 36.9434C108.584 36.9434 109.927 36.9434 111.254 36.9434C111.495 36.9434 111.495 36.9434 111.495 37.1746C111.495 37.6949 111.495 38.2008 111.495 38.7211C111.495 38.8367 111.48 38.8801 111.345 38.8801C109.233 38.8801 107.121 38.8801 105.009 38.8801C104.858 38.8801 104.843 38.8223 104.843 38.7066C104.873 37.1891 104.873 35.7148 104.873 34.2406Z" fill="#0F1035"/>
<path d="M68.8979 32.7383C68.8979 31.7555 68.8979 30.7871 68.8979 29.8043C68.8979 29.6742 68.9281 29.6309 69.0639 29.6453C69.6974 29.6598 70.3309 29.6598 70.9645 29.6453C71.1002 29.6453 71.1304 29.6887 71.1304 29.8043C71.1304 31.741 71.1153 33.6777 71.1304 35.6144C71.1304 36.2504 71.3868 36.7273 72.0204 36.9008C72.5181 37.0453 73.0159 37.0453 73.5137 36.9152C74.0265 36.7852 74.3282 36.4527 74.4187 35.9469C74.4489 35.7301 74.4791 35.5133 74.4791 35.2965C74.4791 33.4754 74.4791 31.6398 74.4791 29.8187C74.4791 29.6742 74.5092 29.6309 74.6752 29.6309C75.3087 29.6453 75.9271 29.6453 76.5607 29.6309C76.6964 29.6309 76.7266 29.6598 76.7266 29.7898C76.7266 31.7121 76.7417 33.6344 76.7115 35.5566C76.7115 36.3227 76.5003 37.0453 75.9875 37.6523C75.5651 38.1727 75.0221 38.5051 74.3735 38.7074C73.921 38.852 73.4383 38.9098 72.9556 38.9242C72.322 38.9387 71.7187 38.8809 71.1304 38.6785C70.6025 38.5051 70.1348 38.2305 69.7728 37.8402C69.3354 37.3777 69.0639 36.8141 68.9583 36.1926C68.898 35.8457 68.8979 35.4988 68.8979 35.152C68.8979 34.357 68.8979 33.5477 68.8979 32.7383Z" fill="#0F1035"/>
<path d="M78.0088 34.2262C78.0088 32.7664 78.0088 31.3066 78.0088 29.8469C78.0088 29.7023 78.0239 29.6445 78.2049 29.6445C79.125 29.659 80.0451 29.6301 80.9653 29.659C81.8552 29.6879 82.715 29.8324 83.4843 30.3094C84.2989 30.8008 84.7665 31.509 84.9475 32.4051C85.038 32.8242 85.0682 33.2289 85.0229 33.648C84.857 34.9922 84.148 35.9461 82.8206 36.4664C82.2022 36.7121 81.5385 36.8133 80.8748 36.8277C80.6636 36.8277 80.3921 36.7555 80.2865 36.8566C80.1507 36.9723 80.2563 37.2324 80.2412 37.4348C80.2412 37.8395 80.2262 38.2586 80.2412 38.6633C80.2412 38.8223 80.196 38.8512 80.0451 38.8512C79.4267 38.8367 78.8082 38.8367 78.2049 38.8512C78.054 38.8512 78.0088 38.8223 78.0088 38.6777C78.0239 37.1891 78.0088 35.7004 78.0088 34.2262ZM80.2412 33.2434C80.2412 33.7492 80.2412 34.2551 80.2412 34.7754C80.2412 34.8477 80.2262 34.9199 80.3468 34.9199C80.7993 34.9199 81.2519 34.9344 81.6742 34.8043C82.0966 34.6742 82.4435 34.443 82.6094 34.0238C82.7603 33.6336 82.7603 33.2289 82.6999 32.8242C82.6245 32.3473 82.3681 32.0148 81.9156 31.8125C81.4329 31.5957 80.92 31.5957 80.4072 31.5813C80.2714 31.5813 80.2262 31.6102 80.2412 31.7402C80.2563 32.2172 80.2412 32.7375 80.2412 33.2434Z" fill="#0F1035"/>
<path d="M85.9282 34.2259C85.9282 32.7517 85.9282 31.2919 85.9282 29.8177C85.9282 29.6731 85.9735 29.6442 86.1243 29.6442C87.0595 29.6442 87.9797 29.6298 88.9149 29.6587C89.9255 29.6876 90.8909 29.8899 91.7054 30.497C92.3088 30.9595 92.6708 31.5665 92.8518 32.2892C92.9574 32.6938 92.9725 33.0985 92.9574 33.5177C92.9122 34.2548 92.6708 34.9341 92.1579 35.5122C91.5244 36.2204 90.7099 36.5673 89.7747 36.7263C89.3071 36.813 88.8395 36.813 88.3568 36.813C88.221 36.813 88.1758 36.8419 88.1758 36.9864C88.1908 37.5501 88.1758 38.1138 88.1758 38.6919C88.1758 38.822 88.1456 38.8653 88.0098 38.8509C87.3763 38.8364 86.7277 38.8364 86.0941 38.8509C85.9584 38.8509 85.9282 38.822 85.9282 38.6919C85.9282 37.2032 85.9282 35.7146 85.9282 34.2259ZM88.1758 33.2142C88.1758 33.7345 88.1758 34.2403 88.1758 34.7606C88.1758 34.8185 88.1456 34.9052 88.2663 34.9052C88.7339 34.9052 89.2015 34.9196 89.654 34.7751C90.0763 34.6306 90.4082 34.3849 90.559 33.9657C90.7099 33.5466 90.725 33.1274 90.6194 32.6939C90.4836 32.1591 90.1216 31.8411 89.5786 31.6821C89.1713 31.5665 88.764 31.552 88.3417 31.552C88.221 31.552 88.1758 31.581 88.1758 31.6966C88.1758 32.2024 88.1758 32.7083 88.1758 33.2142Z" fill="#0F1035"/>
<path d="M64.6293 29.543C65.293 29.5574 65.9265 29.6586 66.4846 30.0344C66.922 30.309 67.2237 30.7137 67.4952 31.1184C67.5405 31.1906 67.5254 31.234 67.45 31.2773C66.922 31.6098 66.3941 31.9277 65.8511 32.2602C65.7455 32.3324 65.7304 32.2313 65.7002 32.1879C65.5645 31.9422 65.3986 31.7254 65.1572 31.5953C64.8404 31.4219 64.4935 31.4074 64.1767 31.5664C63.7695 31.7687 63.7393 32.3758 64.1315 32.6504C64.403 32.8527 64.7198 32.9684 65.0214 33.0984C65.7757 33.402 66.5299 33.7055 67.1483 34.2113C67.5858 34.5727 67.8874 35.0352 67.9779 35.5988C68.0081 35.8301 68.0534 36.0469 68.0534 36.2781C68.0081 37.3188 67.5405 38.2148 66.3488 38.6773C65.8812 38.8508 65.3986 38.9375 64.9008 38.952C64.1013 38.9809 63.332 38.8652 62.6231 38.5039C61.9292 38.157 61.4163 37.6223 61.0694 36.9574C61.0091 36.8563 61.0996 36.8274 61.1448 36.8129C61.5521 36.5816 61.9745 36.3648 62.3968 36.1336C62.5024 36.0758 62.608 36.0324 62.6985 35.9602C62.8192 35.859 62.8795 35.859 62.97 36.0035C63.2717 36.4949 63.6639 36.8852 64.2823 36.9863C64.7198 37.0586 65.1723 37.0731 65.5494 36.784C65.9114 36.5094 65.9265 35.9891 65.5343 35.7145C64.9913 35.3387 64.3427 35.1508 63.7393 34.8762C62.8946 34.5004 62.1555 34.009 61.8387 33.1129C61.6879 32.6938 61.6275 32.2602 61.6879 31.7977C61.7482 31.393 61.8538 31.0172 62.0951 30.6848C62.5326 30.0633 63.1359 29.7309 63.8901 29.6008C64.1164 29.5719 64.3728 29.543 64.6293 29.543Z" fill="#0F1035"/>
<path d="M115.478 29.543C116.021 29.5574 116.549 29.6297 117.047 29.8609C117.544 30.1066 117.937 30.468 118.223 30.9449C118.404 31.234 118.389 31.234 118.072 31.4219C117.635 31.682 117.197 31.9422 116.775 32.2168C116.639 32.3035 116.594 32.2746 116.534 32.159C116.383 31.8988 116.202 31.6676 115.9 31.5375C115.599 31.4074 115.086 31.4363 114.874 31.6531C114.573 31.9711 114.678 32.477 115.101 32.7227C115.629 33.0262 116.217 33.2141 116.775 33.4742C117.288 33.7199 117.786 33.9801 118.178 34.3848C118.63 34.8473 118.857 35.382 118.872 36.018C118.887 36.4949 118.857 36.9719 118.63 37.4199C118.389 37.8969 118.042 38.2582 117.559 38.5039C116.986 38.8074 116.368 38.9375 115.719 38.9664C114.92 38.9809 114.15 38.8797 113.426 38.5039C112.823 38.2004 112.355 37.7524 112.024 37.1742C111.843 36.8563 111.858 36.8707 112.205 36.6973C112.536 36.5238 112.868 36.3359 113.185 36.148C113.276 36.0902 113.381 36.0613 113.472 35.9891C113.653 35.859 113.698 35.8734 113.819 36.0613C114.09 36.466 114.407 36.8129 114.905 36.9574C115.387 37.102 115.9 37.1164 116.338 36.8418C116.715 36.6105 116.82 36.1914 116.458 35.8301C116.157 35.5266 115.734 35.3965 115.342 35.2375C114.739 34.9918 114.12 34.7461 113.592 34.3559C113.019 33.9223 112.657 33.3586 112.552 32.6648C112.476 32.0723 112.521 31.4941 112.808 30.9594C113.185 30.2512 113.819 29.8754 114.603 29.6875C114.89 29.5863 115.191 29.543 115.478 29.543Z" fill="#0F1035"/>
<path d="M93.8472 34.2551C93.8472 32.7809 93.8472 31.3066 93.8472 29.8324C93.8472 29.6879 93.8773 29.6445 94.0282 29.6445C94.6466 29.659 95.2651 29.659 95.8835 29.6445C96.0344 29.6445 96.0796 29.6734 96.0796 29.818C96.0796 32.1016 96.0796 34.3852 96.0796 36.6688C96.0796 36.9434 96.0494 36.9145 96.336 36.9145C97.588 36.9145 98.8249 36.9145 100.077 36.9145C100.243 36.9145 100.288 36.9723 100.288 37.1168C100.273 37.6371 100.288 38.1574 100.288 38.6777C100.288 38.7934 100.273 38.8512 100.122 38.8512C98.0858 38.8512 96.0494 38.8512 94.0131 38.8512C93.8773 38.8512 93.8622 38.8078 93.8622 38.6922C93.8472 37.2035 93.8472 35.7293 93.8472 34.2551Z" fill="#0F1035"/>
<path d="M101.269 34.2262C101.269 32.752 101.269 31.2922 101.269 29.818C101.269 29.6734 101.314 29.6445 101.465 29.6445C102.098 29.659 102.717 29.6445 103.35 29.6445C103.471 29.6445 103.516 29.6734 103.516 29.7891C103.516 32.752 103.516 35.7148 103.516 38.6777C103.516 38.8078 103.471 38.8223 103.35 38.8223C102.717 38.8223 102.098 38.8078 101.465 38.8223C101.314 38.8223 101.269 38.7934 101.269 38.6488C101.269 37.1891 101.269 35.7004 101.269 34.2262Z" fill="#0F1035"/>
</svg>
