<svg width="79" height="28" viewBox="0 0 79 28" fill="none" xmlns="http://www.w3.org/2000/svg">
<path d="M16.0638 18.6298C15.9563 18.9382 15.8391 19.2272 15.761 19.5259C15.6926 19.7668 15.5949 20.0077 15.5168 20.2486C15.3898 20.6533 15.2531 21.0483 15.1261 21.453C15.0968 21.5397 15.0675 21.559 14.9796 21.559C14.0223 21.559 13.0554 21.559 12.0981 21.559C12.0591 21.559 12.0102 21.559 11.9419 21.559C12.0591 21.6457 12.1665 21.7228 12.2642 21.7902C12.9088 22.2527 13.5535 22.7152 14.2079 23.1777C14.2568 23.2163 14.3056 23.2548 14.3642 23.2837C14.4912 23.3415 14.4912 23.4283 14.4521 23.5439C14.2861 24.0257 14.12 24.5171 13.9637 25.0085C13.9442 25.0759 13.9149 25.0952 13.8465 25.1145C13.4754 25.2012 13.0944 25.2783 12.7037 25.3264C12.4595 25.3553 12.2056 25.3746 11.9614 25.3939C11.5414 25.4324 11.1311 25.4228 10.7111 25.4035C10.3497 25.3939 9.98834 25.3553 9.6367 25.2975C9.15809 25.2301 8.67948 25.1337 8.21063 25.0085C7.8297 24.9025 7.44876 24.7772 7.08736 24.623C6.55991 24.4014 6.06177 24.1316 5.60269 23.804C5.23152 23.5439 4.90919 23.2548 4.6064 22.9272C4.25477 22.5418 3.92267 22.1371 3.62964 21.6939C3.26824 21.135 2.97521 20.5376 2.78963 19.8921C2.66265 19.4681 2.57474 19.0441 2.52591 18.6009C2.48684 18.2637 2.44777 17.9264 2.42823 17.5796C2.38916 16.8184 2.38916 16.0572 2.38916 15.296C2.38916 11.0371 2.38916 6.78789 2.38916 2.52904C2.38916 2.41341 2.4087 2.37487 2.53567 2.37487C4.40128 2.37487 6.25712 2.37487 8.12273 2.37487C8.23017 2.37487 8.24971 2.39414 8.24971 2.50013C8.24971 7.19257 8.23994 11.8947 8.24971 16.5871C8.24971 17.1941 8.32785 17.7915 8.51343 18.3793C8.65995 18.8514 8.8846 19.2754 9.23623 19.6223C9.58786 19.9595 10.0176 20.1522 10.4962 20.2486C10.8772 20.3256 11.2581 20.3257 11.6293 20.2871C12.1372 20.2389 12.6158 20.0944 13.026 19.7668C13.4363 19.4392 13.6902 19.0152 13.8465 18.5238C13.9442 18.2155 14.0028 17.8975 14.0419 17.5699C14.0712 17.329 14.0712 17.0882 14.0907 16.8473C14.1298 16.3944 14.1103 15.9415 14.1103 15.4887C14.1103 11.1624 14.1103 6.83607 14.1103 2.50977C14.1103 2.39414 14.1396 2.36523 14.2568 2.36523C16.1224 2.36523 17.9782 2.36523 19.8438 2.36523C19.9415 2.36523 19.9708 2.3845 19.9708 2.49049C19.9708 7.06732 19.9708 11.6538 19.9708 16.2306C19.9708 16.4908 19.961 16.7509 19.9513 17.0111C19.922 17.3965 19.9024 17.7819 19.8536 18.1577C19.7559 18.9189 19.6094 19.6704 19.3457 20.4027C19.2089 20.7689 19.0429 21.1158 18.8475 21.453C18.8182 21.5012 18.7792 21.5108 18.7303 21.5108C18.2029 21.5108 17.6754 21.5108 17.148 21.5108C17.0796 21.5108 17.0601 21.4915 17.0405 21.4241C16.8745 20.923 16.7084 20.4124 16.5424 19.9113C16.4056 19.497 16.2689 19.0923 16.1321 18.678C16.1028 18.7069 16.0833 18.678 16.0638 18.6298Z" fill="#0F1035"/>
<path d="M30.0803 21.5883C30.3049 21.7521 30.5393 21.9159 30.764 22.0797C31.3207 22.4844 31.8775 22.8794 32.444 23.2841C32.6101 23.3997 32.6003 23.3997 32.5417 23.5924C32.3756 24.0839 32.2096 24.5753 32.0533 25.0667C32.024 25.1437 31.9947 25.1823 31.9068 25.2016C31.5649 25.269 31.2133 25.3172 30.8617 25.3557C30.1877 25.4328 29.5235 25.4328 28.8495 25.4135C28.4686 25.4039 28.0877 25.3654 27.7165 25.3076C27.2379 25.2401 26.7691 25.1437 26.3002 25.0185C25.929 24.9221 25.5676 24.7776 25.2062 24.6234C24.8448 24.4693 24.503 24.2766 24.1709 24.0646C23.9267 23.9008 23.6825 23.7273 23.4676 23.525C23.3602 23.4286 23.243 23.3323 23.1453 23.2263C22.5495 22.6096 22.0904 21.9062 21.7681 21.1161C21.5727 20.6536 21.4457 20.1719 21.348 19.6805C21.2894 19.401 21.2699 19.112 21.2406 18.8229C21.2113 18.4182 21.2406 18.0039 21.2211 17.5992C21.2211 17.5221 21.2406 17.5029 21.3187 17.5029C23.1941 17.5029 25.0695 17.5029 26.9449 17.5029C27.0425 17.5029 27.0328 17.5414 27.0425 17.6089C27.0718 18.2352 27.1598 18.8518 27.4626 19.4107C28.0388 20.4417 29.2403 20.8367 30.2756 20.4128C30.8324 20.1815 31.2328 19.7768 31.4673 19.2083C31.6138 18.8615 31.6431 18.5146 31.6235 18.1581C31.5845 17.6185 31.3207 17.1945 30.8714 16.8766C30.3342 16.4815 29.7286 16.2117 29.123 15.9419C28.5468 15.6914 27.9705 15.4409 27.3844 15.2C26.7593 14.9398 26.1244 14.6893 25.5286 14.381C25.089 14.1594 24.6788 13.9089 24.2783 13.6198C24.0537 13.456 23.8388 13.2826 23.6239 13.0995C22.9597 12.5214 22.442 11.8469 22.0806 11.0568C21.8267 10.5076 21.6899 9.93906 21.6118 9.34166C21.5629 8.91771 21.5532 8.49375 21.5922 8.07943C21.6704 7.23151 21.9048 6.42213 22.3541 5.68021C22.5495 5.36224 22.7643 5.0539 23.0085 4.76484C23.2527 4.47578 23.5164 4.21563 23.8095 3.97474C24.3662 3.50261 24.9816 3.12683 25.6458 2.81849C26.5639 2.40417 27.5212 2.14401 28.5272 2.03802C29.0351 1.98021 29.543 1.96094 30.051 1.98984C31.1449 2.05729 32.1998 2.26927 33.2059 2.70287C33.8994 3.00156 34.544 3.38698 35.1203 3.87839C35.7552 4.42761 36.2534 5.08281 36.6148 5.82474C36.859 6.32578 37.0348 6.85573 37.1325 7.41458C37.1813 7.74219 37.2204 8.06979 37.2497 8.3974C37.2692 8.57083 37.2399 8.74427 37.2887 8.91771C37.3083 8.97552 37.279 9.01406 37.2106 9.00443C37.1422 8.99479 37.0738 9.00443 36.9957 9.00443C35.1985 9.00443 33.4012 9.00443 31.604 9.00443C31.5161 9.00443 31.4868 8.99479 31.4673 8.8888C31.4087 8.50339 31.3305 8.1276 31.1547 7.77109C30.8812 7.23151 30.4417 6.92317 29.8458 6.83646C29.1816 6.73047 28.5663 6.85573 28.0388 7.27969C27.7067 7.53985 27.4919 7.87709 27.4332 8.29141C27.3844 8.59974 27.3942 8.91771 27.4919 9.21641C27.5993 9.57292 27.8533 9.82344 28.1463 10.0354C28.6249 10.3823 29.1523 10.6424 29.6798 10.8833C30.0998 11.076 30.5198 11.2784 30.9398 11.4711C31.6821 11.8083 32.444 12.1263 33.1766 12.5021C33.831 12.8393 34.4561 13.2151 35.0422 13.6487C35.4036 13.9185 35.7455 14.2172 36.0483 14.5448C36.5073 15.0458 36.8687 15.6047 37.1031 16.2406C37.2497 16.6453 37.3473 17.0596 37.4059 17.4932C37.4548 17.8401 37.4841 18.187 37.4743 18.5435C37.4548 18.9964 37.4255 19.4492 37.3376 19.9021C37.2497 20.4128 37.0934 20.9042 36.9078 21.3956C36.8687 21.5016 36.8101 21.5497 36.6831 21.5497C36.2143 21.5401 35.7357 21.5401 35.2668 21.5497C35.1887 21.5497 35.1594 21.5305 35.1301 21.4534C34.8859 20.6922 34.632 19.931 34.378 19.1698C34.3292 19.0156 34.2803 18.8711 34.2315 18.7169C34.2217 18.6977 34.2413 18.6495 34.2022 18.6591C34.1729 18.6591 34.1631 18.688 34.1533 18.7169C34.0752 18.9578 33.9971 19.1891 33.9189 19.4203C33.704 20.0852 33.4794 20.7596 33.2645 21.4341C33.2352 21.5208 33.1961 21.5497 33.0984 21.5497C32.1412 21.5497 31.1938 21.5497 30.2365 21.5497C30.1975 21.5497 30.1486 21.5497 30.1096 21.5497C30.0803 21.569 30.0803 21.5786 30.0803 21.5883Z" fill="#0F1035"/>
<path d="M52.8876 10.1018C52.8876 7.59661 52.8876 5.10104 52.8876 2.59583C52.8876 2.4802 52.9169 2.46094 53.0243 2.46094C56.4332 2.46094 59.8519 2.46094 63.2607 2.46094C63.378 2.46094 63.3975 2.48984 63.3975 2.59583C63.3975 3.63645 63.3975 4.68672 63.3975 5.72734C63.3975 5.84297 63.378 5.87187 63.251 5.87187C61.1217 5.87187 58.9826 5.87187 56.8532 5.87187C56.7067 5.87187 56.7067 5.87187 56.7067 6.0164C56.7067 7.19192 56.7067 8.37708 56.7067 9.5526C56.7067 9.65859 56.736 9.67786 56.8337 9.67786C58.7091 9.67786 60.5844 9.67786 62.4598 9.66823C62.5868 9.66823 62.6063 9.70677 62.6063 9.81276C62.6063 10.8341 62.6063 11.8651 62.6063 12.8865C62.6063 12.9828 62.5868 13.0117 62.4793 13.0117C60.604 13.0117 58.7188 13.0117 56.8434 13.0021C56.736 13.0021 56.7067 13.0214 56.7067 13.1273C56.7165 13.4742 56.7165 13.8307 56.7067 14.1776C56.7067 14.2836 56.736 14.3029 56.8337 14.3029C59.0705 14.3029 61.3072 14.3029 63.544 14.3029C63.7003 14.3029 63.7003 14.3029 63.7003 14.457C63.7003 15.4977 63.7003 16.5286 63.7003 17.5693C63.7003 17.6753 63.6808 17.7138 63.5635 17.7138C60.0472 17.7138 56.5309 17.7138 53.0048 17.7138C52.9071 17.7138 52.8778 17.6945 52.8778 17.5885C52.8876 15.1122 52.8876 12.607 52.8876 10.1018Z" fill="#0F1035"/>
<path d="M40.3362 10.0926C40.3362 7.59707 40.3362 5.1015 40.3362 2.60593C40.3362 2.48067 40.3753 2.46139 40.4925 2.46139C41.9674 2.46139 43.4325 2.45176 44.9074 2.47103C45.9037 2.48066 46.8805 2.60592 47.8279 2.93353C48.58 3.19368 49.2638 3.5502 49.8693 4.07051C50.3675 4.49447 50.768 4.98587 51.0708 5.55436C51.354 6.07467 51.5396 6.62389 51.647 7.21165C51.6861 7.4429 51.7056 7.67415 51.735 7.89577C51.7643 8.2041 51.774 8.51243 51.7545 8.8304C51.7349 9.1291 51.7056 9.4278 51.647 9.72649C51.5982 9.97702 51.5396 10.2275 51.4615 10.4684C51.354 10.8153 51.1977 11.1429 51.0219 11.4609C50.8656 11.7403 50.6801 12.0005 50.4749 12.2413C50.26 12.4919 50.0256 12.7231 49.7619 12.9351C49.5275 13.1182 49.2931 13.2916 49.0391 13.4361C48.3749 13.8312 47.6521 14.0817 46.8902 14.2455C46.5191 14.3226 46.1381 14.3804 45.7572 14.4093C45.259 14.4575 44.7511 14.4575 44.253 14.4478C44.1651 14.4478 44.1455 14.4671 44.1455 14.5538C44.1455 15.5752 44.1455 16.5965 44.1553 17.6179C44.1553 17.7239 44.126 17.7528 44.0186 17.7528C42.8269 17.7528 41.645 17.7528 40.4534 17.7528C40.346 17.7528 40.3264 17.7239 40.3264 17.6275C40.3362 15.1031 40.3362 12.5979 40.3362 10.0926ZM44.1553 8.44499C44.1553 9.27363 44.1553 10.0926 44.1553 10.9213C44.1553 10.9887 44.1455 11.0369 44.2432 11.0369C44.7609 11.0273 45.2688 11.0466 45.7865 10.9598C46.3725 10.8538 46.9098 10.6708 47.3102 10.2083C47.4567 10.0445 47.5642 9.87103 47.6423 9.66868C47.8084 9.23509 47.8572 8.78223 47.8377 8.31973C47.8279 8.0403 47.7888 7.76087 47.7205 7.49108C47.6033 7.03822 47.3493 6.67207 46.9586 6.40228C46.4214 6.0265 45.7963 5.93014 45.1516 5.8916C44.8683 5.87233 44.5851 5.8916 44.3018 5.87233C44.1846 5.87233 44.1553 5.8916 44.1553 6.01686C44.1651 6.82623 44.1553 7.63561 44.1553 8.44499Z" fill="#0F1035"/>
<path d="M70.5278 2.46094C72.5204 2.46094 74.5032 2.46094 76.4958 2.46094C76.6033 2.46094 76.6326 2.48984 76.6326 2.59583C76.6326 3.64609 76.6326 4.69636 76.6326 5.75625C76.6326 5.86224 76.6033 5.88151 76.5056 5.88151C75.1967 5.88151 73.8879 5.88151 72.579 5.88151C72.4716 5.88151 72.4423 5.91041 72.4423 6.0164C72.4423 9.8802 72.4423 13.7344 72.452 17.5982C72.452 17.7138 72.4227 17.7523 72.3055 17.7523C71.1334 17.7427 69.9515 17.7523 68.7794 17.7523C68.6622 17.7523 68.6329 17.7331 68.6329 17.6078C68.6329 13.7536 68.6329 9.88984 68.6329 6.03567C68.6329 5.88151 68.6329 5.88151 68.4766 5.88151C67.1776 5.88151 65.8785 5.88151 64.5794 5.88151C64.4622 5.88151 64.4426 5.8526 64.4426 5.73698C64.4426 4.68672 64.4426 3.63645 64.4426 2.59583C64.4426 2.48984 64.4622 2.46094 64.5696 2.46094C66.5524 2.46094 68.545 2.46094 70.5278 2.46094Z" fill="#0F1035"/>
<path d="M67.91 22.4937C67.91 21.5109 67.91 20.5378 67.91 19.5549C67.91 19.4586 67.9296 19.4297 68.0272 19.4297C69.3361 19.4297 70.6547 19.4297 71.9636 19.4297C72.0613 19.4297 72.0906 19.4586 72.0808 19.5549C72.071 19.9018 72.071 20.2487 72.0808 20.5956C72.0808 20.6919 72.0515 20.7112 71.9636 20.7112C71.1431 20.7112 70.3129 20.7112 69.4924 20.7112C69.3849 20.7112 69.3459 20.7305 69.3459 20.8557C69.3556 21.3182 69.3556 21.7807 69.3459 22.2432C69.3459 22.3589 69.3654 22.3974 69.4924 22.3974C70.1956 22.3878 70.9087 22.3974 71.6119 22.3878C71.7194 22.3878 71.7585 22.407 71.7487 22.5227C71.7389 22.8503 71.7389 23.1875 71.7487 23.5151C71.7487 23.6115 71.7292 23.65 71.6217 23.65C70.8989 23.6404 70.1859 23.65 69.4631 23.65C69.3654 23.65 69.3361 23.6693 69.3361 23.7656C69.3459 23.9005 69.3459 24.0451 69.3361 24.1799C69.3263 24.2763 69.3654 24.2956 69.4533 24.2956C70.3129 24.2956 71.1822 24.2956 72.0417 24.2956C72.198 24.2956 72.198 24.2956 72.198 24.4497C72.198 24.7966 72.198 25.1339 72.198 25.4807C72.198 25.5578 72.1882 25.5867 72.1003 25.5867C70.7329 25.5867 69.3654 25.5867 67.9979 25.5867C67.9003 25.5867 67.8905 25.5482 67.8905 25.4711C67.91 24.4594 67.91 23.4766 67.91 22.4937Z" fill="#0F1035"/>
<path d="M44.6144 21.4915C44.6144 20.8363 44.6144 20.1908 44.6144 19.5355C44.6144 19.4488 44.6339 19.4199 44.7218 19.4296C45.1321 19.4392 45.5423 19.4392 45.9525 19.4296C46.0404 19.4296 46.06 19.4585 46.06 19.5355C46.06 20.8267 46.0502 22.1178 46.06 23.409C46.06 23.8329 46.226 24.1509 46.6363 24.2665C46.9586 24.3629 47.2809 24.3629 47.6033 24.2762C47.9354 24.1894 48.1307 23.9678 48.1893 23.6306C48.2088 23.4861 48.2284 23.3415 48.2284 23.197C48.2284 21.9829 48.2284 20.7592 48.2284 19.5452C48.2284 19.4488 48.2479 19.4199 48.3554 19.4199C48.7656 19.4296 49.1661 19.4296 49.5763 19.4199C49.6642 19.4199 49.6838 19.4392 49.6838 19.5259C49.6838 20.8074 49.6935 22.0889 49.674 23.3704C49.674 23.8811 49.5372 24.3629 49.2051 24.7676C48.9316 25.1145 48.58 25.3361 48.16 25.471C47.867 25.5673 47.5544 25.6059 47.2419 25.6155C46.8316 25.6251 46.4409 25.5866 46.06 25.4517C45.7181 25.3361 45.4153 25.153 45.1809 24.8928C44.8976 24.5845 44.7218 24.2087 44.6535 23.7944C44.6144 23.5631 44.6144 23.3319 44.6144 23.1007C44.6144 22.5707 44.6144 22.0311 44.6144 21.4915Z" fill="#0F1035"/>
<path d="M50.514 22.4841C50.514 21.5109 50.514 20.5378 50.514 19.5646C50.514 19.4682 50.5238 19.4297 50.641 19.4297C51.2368 19.4393 51.8327 19.4201 52.4285 19.4393C53.0048 19.4586 53.5615 19.555 54.0597 19.8729C54.5871 20.2005 54.8899 20.6727 55.0071 21.2701C55.0657 21.5495 55.0853 21.8193 55.056 22.0987C54.9485 22.9948 54.4894 23.6307 53.6299 23.9776C53.2294 24.1414 52.7997 24.2089 52.3699 24.2185C52.2331 24.2185 52.0573 24.1703 51.9889 24.2378C51.901 24.3148 51.9694 24.4883 51.9596 24.6232C51.9596 24.893 51.9499 25.1724 51.9596 25.4422C51.9596 25.5482 51.9303 25.5674 51.8327 25.5674C51.4322 25.5578 51.0317 25.5578 50.641 25.5674C50.5433 25.5674 50.514 25.5482 50.514 25.4518C50.5238 24.4594 50.514 23.4669 50.514 22.4841ZM51.9596 21.8289C51.9596 22.1661 51.9596 22.5034 51.9596 22.8503C51.9596 22.8984 51.9499 22.9466 52.028 22.9466C52.321 22.9466 52.6141 22.9563 52.8876 22.8695C53.1611 22.7828 53.3857 22.6286 53.4931 22.3492C53.5908 22.0891 53.5908 21.8193 53.5518 21.5495C53.5029 21.2315 53.3369 21.0099 53.0438 20.875C52.7313 20.7305 52.3992 20.7305 52.0671 20.7208C51.9792 20.7208 51.9499 20.7401 51.9596 20.8268C51.9694 21.1448 51.9596 21.4917 51.9596 21.8289Z" fill="#0F1035"/>
<path d="M55.642 22.4846C55.642 21.5018 55.642 20.5286 55.642 19.5458C55.642 19.4494 55.6713 19.4301 55.7689 19.4301C56.3745 19.4301 56.9704 19.4205 57.5759 19.4398C58.2304 19.4591 58.8555 19.5939 59.3829 19.9986C59.7736 20.307 60.0081 20.7117 60.1253 21.1934C60.1937 21.4632 60.2034 21.733 60.1937 22.0124C60.1644 22.5038 60.0081 22.9567 59.676 23.3421C59.2657 23.8143 58.7383 24.0455 58.1327 24.1515C57.8299 24.2093 57.5271 24.2093 57.2145 24.2093C57.1266 24.2093 57.0973 24.2286 57.0973 24.3249C57.1071 24.7007 57.0973 25.0765 57.0973 25.4619C57.0973 25.5486 57.0778 25.5775 56.9899 25.5679C56.5796 25.5583 56.1596 25.5583 55.7494 25.5679C55.6615 25.5679 55.642 25.5486 55.642 25.4619C55.642 24.4695 55.642 23.477 55.642 22.4846ZM57.0973 21.8101C57.0973 22.157 57.0973 22.4942 57.0973 22.8411C57.0973 22.8796 57.0778 22.9374 57.1559 22.9374C57.4587 22.9374 57.7615 22.9471 58.0546 22.8507C58.328 22.7544 58.5429 22.5906 58.6406 22.3111C58.7383 22.0317 58.7481 21.7523 58.6797 21.4632C58.5918 21.1067 58.3573 20.8947 58.0057 20.7887C57.742 20.7117 57.4783 20.702 57.2048 20.702C57.1266 20.702 57.0973 20.7213 57.0973 20.7984C57.0973 21.1356 57.0973 21.4729 57.0973 21.8101Z" fill="#0F1035"/>
<path d="M41.8501 19.3633C42.2799 19.3729 42.6902 19.4404 43.0516 19.6909C43.3348 19.874 43.5302 20.1438 43.706 20.4135C43.7353 20.4617 43.7255 20.4906 43.6767 20.5195C43.3348 20.7411 42.9929 20.9531 42.6413 21.1747C42.5729 21.2229 42.5632 21.1555 42.5436 21.1266C42.4557 20.9628 42.3483 20.8182 42.192 20.7315C41.9869 20.6159 41.7622 20.6063 41.5571 20.7122C41.2934 20.8471 41.2739 21.2518 41.5278 21.4349C41.7036 21.5698 41.9087 21.6469 42.1041 21.7336C42.5925 21.9359 43.0809 22.1383 43.4813 22.4755C43.7646 22.7164 43.9599 23.0247 44.0185 23.4005C44.0381 23.5547 44.0674 23.6992 44.0674 23.8534C44.0381 24.5471 43.7353 25.1445 42.9636 25.4529C42.6609 25.5685 42.3483 25.6263 42.026 25.6359C41.5083 25.6552 41.0101 25.5781 40.5511 25.3372C40.1017 25.106 39.7696 24.7495 39.545 24.3063C39.5059 24.2388 39.5645 24.2195 39.5938 24.2099C39.8576 24.0557 40.1311 23.9112 40.4045 23.757C40.4729 23.7185 40.5413 23.6896 40.5999 23.6414C40.678 23.574 40.7171 23.574 40.7757 23.6703C40.9711 23.9979 41.225 24.2581 41.6255 24.3255C41.9088 24.3737 42.2018 24.3833 42.446 24.1906C42.6804 24.0076 42.6902 23.6607 42.4362 23.4776C42.0846 23.2271 41.6646 23.1018 41.2739 22.9188C40.7269 22.6682 40.2483 22.3406 40.0431 21.7432C39.9455 21.4638 39.9064 21.1747 39.9455 20.8664C39.9845 20.5966 40.0529 20.3461 40.2092 20.1245C40.4925 19.7102 40.8832 19.4885 41.3715 19.4018C41.518 19.3826 41.6841 19.3633 41.8501 19.3633Z" fill="#0F1035"/>
<path d="M74.7767 19.3633C75.1283 19.3729 75.4702 19.4211 75.7925 19.5753C76.1148 19.7391 76.3688 19.9799 76.5544 20.2979C76.6716 20.4906 76.6618 20.4906 76.4567 20.6159C76.1734 20.7893 75.8902 20.9628 75.6167 21.1458C75.5288 21.2036 75.4995 21.1844 75.4604 21.1073C75.3627 20.9339 75.2455 20.7797 75.0502 20.693C74.8548 20.6063 74.5227 20.6255 74.386 20.7701C74.1906 20.982 74.259 21.3193 74.5325 21.4831C74.8744 21.6854 75.2553 21.8107 75.6167 21.9841C75.9488 22.1479 76.2711 22.3214 76.5251 22.5911C76.8181 22.8995 76.9646 23.256 76.9744 23.68C76.9842 23.9979 76.9646 24.3159 76.8181 24.6146C76.6618 24.9326 76.4372 25.1734 76.1246 25.3372C75.7534 25.5396 75.353 25.6263 74.933 25.6456C74.4153 25.6552 73.9171 25.5878 73.4483 25.3372C73.0576 25.1349 72.7548 24.8362 72.5399 24.4508C72.4227 24.2388 72.4325 24.2484 72.6571 24.1328C72.872 24.0172 73.0869 23.8919 73.292 23.7667C73.3506 23.7281 73.419 23.7089 73.4776 23.6607C73.5948 23.574 73.6241 23.5836 73.7023 23.7089C73.8781 23.9786 74.0832 24.2099 74.4055 24.3063C74.7181 24.4026 75.0502 24.4122 75.3334 24.2292C75.5776 24.075 75.646 23.7956 75.4116 23.5547C75.2162 23.3523 74.9427 23.2656 74.6888 23.1596C74.2981 22.9958 73.8976 22.832 73.5557 22.5719C73.1846 22.2828 72.9501 21.907 72.8818 21.4445C72.8329 21.0495 72.8622 20.6641 73.0478 20.3076C73.292 19.8354 73.7023 19.5849 74.2102 19.4596C74.3957 19.3922 74.5911 19.3633 74.7767 19.3633Z" fill="#0F1035"/>
<path d="M60.77 22.5034C60.77 21.5206 60.77 20.5378 60.77 19.5549C60.77 19.4586 60.7895 19.4297 60.8872 19.4297C61.2877 19.4393 61.6882 19.4393 62.0886 19.4297C62.1863 19.4297 62.2156 19.449 62.2156 19.5453C62.2156 21.0677 62.2156 22.5901 62.2156 24.1125C62.2156 24.2956 62.1961 24.2763 62.3817 24.2763C63.1924 24.2763 63.9933 24.2763 64.804 24.2763C64.9115 24.2763 64.9408 24.3148 64.9408 24.4112C64.931 24.7581 64.9408 25.1049 64.9408 25.4518C64.9408 25.5289 64.931 25.5674 64.8333 25.5674C63.5147 25.5674 62.1961 25.5674 60.8775 25.5674C60.7896 25.5674 60.7798 25.5385 60.7798 25.4615C60.77 24.469 60.77 23.4862 60.77 22.5034Z" fill="#0F1035"/>
<path d="M65.5756 22.4841C65.5756 21.5013 65.5756 20.5281 65.5756 19.5453C65.5756 19.449 65.6049 19.4297 65.7025 19.4297C66.1128 19.4393 66.5133 19.4297 66.9235 19.4297C67.0016 19.4297 67.0309 19.449 67.0309 19.526C67.0309 21.5013 67.0309 23.4766 67.0309 25.4518C67.0309 25.5385 67.0016 25.5482 66.9235 25.5482C66.5133 25.5482 66.1128 25.5385 65.7025 25.5482C65.6049 25.5482 65.5756 25.5289 65.5756 25.4326C65.5756 24.4594 65.5756 23.4669 65.5756 22.4841Z" fill="#0F1035"/>
</svg>
