<svg width="24" height="25" viewBox="0 0 24 25" fill="none" xmlns="http://www.w3.org/2000/svg">
<path d="M19 11.75C19.4142 11.75 19.75 12.0858 19.75 12.5C19.75 12.8797 19.4678 13.1935 19.1018 13.2432L19 13.25H5C4.58579 13.25 4.25 12.9142 4.25 12.5C4.25 12.1203 4.53215 11.8065 4.89823 11.7568L5 11.75H19Z" fill="#07082F"/>
<path d="M9.46967 6.96967C9.76256 6.67678 10.2374 6.67678 10.5303 6.96967C10.7966 7.23594 10.8208 7.6526 10.6029 7.94621L10.5303 8.03033L5.53033 13.0303C5.23744 13.3232 4.76256 13.3232 4.46967 13.0303C4.2034 12.7641 4.1792 12.3474 4.39705 12.0538L4.46967 11.9697L9.46967 6.96967Z" fill="#07082F"/>
<path d="M4.46967 11.9697C4.73594 11.7034 5.1526 11.6792 5.44621 11.8971L5.53033 11.9697L10.5303 16.9697C10.8232 17.2626 10.8232 17.7374 10.5303 18.0303C10.2641 18.2966 9.8474 18.3208 9.55379 18.1029L9.46967 18.0303L4.46967 13.0303C4.17678 12.7374 4.17678 12.2626 4.46967 11.9697Z" fill="#07082F"/>
</svg>
