<svg width="20" height="20" viewBox="0 0 20 20" fill="none" xmlns="http://www.w3.org/2000/svg">
<path d="M15.8346 9.375C16.1798 9.375 16.4596 9.65482 16.4596 10C16.4596 10.3164 16.2245 10.5779 15.9194 10.6193L15.8346 10.625H4.16797C3.82279 10.625 3.54297 10.3452 3.54297 10C3.54297 9.68359 3.7781 9.42209 4.08316 9.38071L4.16797 9.375H15.8346Z" fill="#323232"/>
<path d="M7.89269 5.39131C8.13677 5.14723 8.5325 5.14723 8.77658 5.39131C8.99847 5.6132 9.01864 5.96042 8.83709 6.20509L8.77658 6.27519L4.60991 10.4419C4.36583 10.6859 3.9701 10.6859 3.72603 10.4419C3.50414 10.22 3.48397 9.87275 3.66551 9.62808L3.72603 9.55798L7.89269 5.39131Z" fill="#323232"/>
<path d="M3.72603 9.55806C3.94792 9.33617 4.29514 9.316 4.53981 9.49754L4.60991 9.55806L8.77658 13.7247C9.02065 13.9688 9.02065 14.3645 8.77658 14.6086C8.55469 14.8305 8.20747 14.8507 7.96279 14.6691L7.89269 14.6086L3.72603 10.4419C3.48195 10.1979 3.48195 9.80214 3.72603 9.55806Z" fill="#323232"/>
</svg>
