<svg width="40" height="40" viewBox="0 0 40 40" fill="none" xmlns="http://www.w3.org/2000/svg">
<path fill-rule="evenodd" clip-rule="evenodd" d="M11.6667 6.25H28.3333C32.7056 6.25 36.25 9.79441 36.25 14.1667V25.8333C36.25 30.2056 32.7056 33.75 28.3333 33.75H11.6667C7.29441 33.75 3.75 30.2056 3.75 25.8333V14.1667C3.75 9.79441 7.29441 6.25 11.6667 6.25ZM28.3333 8.75H11.6667C8.67512 8.75 6.25 11.1751 6.25 14.1667V25.8333C6.25 28.8249 8.67512 31.25 11.6667 31.25H28.3333C31.3249 31.25 33.75 28.8249 33.75 25.8333V14.1667C33.75 11.1751 31.3249 8.75 28.3333 8.75Z" fill="#0F1035"/>
<path d="M10.5225 14.4734C10.7754 13.8933 11.4155 13.6018 12.0078 13.7698L12.1679 13.8271L19.1756 16.8825C19.629 17.0802 20.1352 17.1091 20.6042 16.9691L20.8351 16.8851L27.8388 13.8567C28.4725 13.5827 29.2083 13.8742 29.4823 14.5079C29.7334 15.0888 29.5094 15.7554 28.9822 16.0736L28.8311 16.1513L21.8273 19.1797C20.768 19.6378 19.5792 19.6778 18.4975 19.3L18.1764 19.1742L11.1687 16.1188C10.5359 15.8429 10.2465 15.1062 10.5225 14.4734Z" fill="#0F1035"/>
</svg>
