<svg width="36" height="36" viewBox="0 0 36 36" fill="none" xmlns="http://www.w3.org/2000/svg">
<path d="M8.38435 19.9131C8.81852 19.4686 9.53079 19.4603 9.97523 19.8945C10.3793 20.2892 10.4229 20.9137 10.1013 21.3579L9.99384 21.4854L6.3001 25.2667L8.82891 26.7845C8.94766 26.8558 9.0519 26.9482 9.13667 27.0567L9.21478 27.1704L10.7041 29.6512L15.5338 24.581C15.9233 24.1719 16.5473 24.1203 16.9955 24.4362L17.1244 24.542C17.5334 24.9315 17.585 25.5554 17.2692 26.0037L17.1634 26.1325L11.3149 32.275C10.8417 32.7719 10.0517 32.7267 9.63219 32.2155L9.53542 32.078L7.4296 28.5682L3.92129 26.4639C3.34627 26.1189 3.20776 25.3618 3.58913 24.8386L3.69535 24.7131L8.38435 19.9131Z" fill="#323232"/>
<path d="M26.025 19.8945C26.429 19.4998 27.0544 19.4708 27.491 19.8027L27.6159 19.9131L32.3049 24.7131C32.7735 25.1928 32.7152 25.9602 32.2135 26.3694L32.0789 26.4639L28.5691 28.5682L26.4648 32.078C26.1118 32.6664 25.331 32.795 24.8098 32.388L24.6854 32.275L18.8369 26.1325C18.4084 25.6825 18.4259 24.9704 18.8759 24.542C19.2849 24.1525 19.9106 24.1315 20.3429 24.469L20.4664 24.581L25.2946 29.6512L26.7854 27.1704C26.8567 27.0517 26.949 26.9474 27.0576 26.8626L27.1713 26.7845L29.6986 25.2667L26.0064 21.4854C25.6117 21.0813 25.5827 20.4559 25.9146 20.0194L26.025 19.8945Z" fill="#323232"/>
<path fill-rule="evenodd" clip-rule="evenodd" d="M26.2201 6.77988C21.6803 2.24004 14.3197 2.24004 9.77988 6.77988C5.24004 11.3197 5.24004 18.6803 9.77988 23.2201C14.3197 27.76 21.6803 27.76 26.2201 23.2201C30.76 18.6803 30.76 11.3197 26.2201 6.77988ZM11.3709 8.37087C14.9405 4.80124 20.6726 4.712 24.3503 8.10315L24.6291 8.37087L24.8968 8.64965C28.288 12.3274 28.1988 18.0595 24.6291 21.6291C20.968 25.2903 15.032 25.2903 11.3709 21.6291C7.70971 17.968 7.70971 12.032 11.3709 8.37087Z" fill="#323232"/>
<path fill-rule="evenodd" clip-rule="evenodd" d="M12.8353 12.0802L15.2656 11.7249L16.3505 9.52502C17.0255 8.15575 18.9762 8.15575 19.6511 9.52487L20.7346 11.7249L23.1649 12.0787C24.6111 12.2895 25.2239 14.002 24.3112 15.0818L24.1835 15.2189L22.4266 16.9299L22.8409 19.348C23.0889 20.7919 21.6444 21.9064 20.3341 21.3653L20.1711 21.289L17.9986 20.1489L15.8296 21.2902C14.5331 21.9718 13.0268 20.9423 13.137 19.5285L13.1593 19.3499L13.5721 16.9314L11.8161 15.2198C10.77 14.1996 11.279 12.4534 12.6515 12.116L12.8353 12.0802ZM18.9801 13.2515L18.0001 11.2644L17.0216 13.2515C16.8578 13.5835 16.5412 13.8138 16.1749 13.8672L13.9816 14.1864L15.5675 15.7325C15.7949 15.954 15.9164 16.2593 15.9071 16.5719L15.8914 16.7285L15.5161 18.9129L17.4767 17.8826C17.7574 17.7351 18.085 17.7139 18.3791 17.8192L18.5231 17.8824L20.4826 18.9114L20.1088 16.727C20.0551 16.4141 20.1365 16.0957 20.3279 15.8484L20.4327 15.731L22.0186 14.1849L19.8273 13.8672C19.5131 13.8216 19.2355 13.6459 19.0594 13.3874L18.9801 13.2515Z" fill="#323232"/>
</svg>
