<svg width="88" height="38" viewBox="0 0 88 38" fill="none" xmlns="http://www.w3.org/2000/svg">
<path opacity="0.989" fill-rule="evenodd" clip-rule="evenodd" d="M11.5194 3.09028C13.3568 2.89625 14.7371 3.59339 15.6604 5.18168C17.3925 8.08673 17.4928 11.0246 15.9615 13.9955C15.1079 14.8487 14.0789 15.1226 12.8746 14.8171C10.9883 13.9901 9.80871 12.5709 9.33598 10.5596C8.68956 8.43168 8.89035 6.39008 9.9383 4.43475C10.4056 3.89487 10.9326 3.44671 11.5194 3.09028Z" fill="#0F1035"/>
<path opacity="0.989" fill-rule="evenodd" clip-rule="evenodd" d="M22.6626 3.23979C24.7903 3.1323 26.0702 4.12821 26.5024 6.22751C27.0377 8.9622 26.4354 11.4022 24.6954 13.5474C22.8946 15.1778 21.1378 15.128 19.4251 13.398C17.9149 10.0018 18.4419 6.93935 21.0062 4.2108C21.5231 3.80587 22.0753 3.4822 22.6626 3.23979Z" fill="#0F1035"/>
<path opacity="0.988" fill-rule="evenodd" clip-rule="evenodd" d="M2.63507 9.96204C4.66605 9.83646 6.29734 10.5834 7.52896 12.2028C9.1722 14.5752 9.52355 17.1148 8.58302 19.8215C8.35715 20.2447 8.03089 20.5685 7.60425 20.7925C5.28057 21.3716 3.39831 20.6993 1.95745 18.7758C0.55501 16.8955 0.053073 14.8041 0.451643 12.5016C0.786697 11.2995 1.51451 10.453 2.63507 9.96204Z" fill="#0F1035"/>
<path opacity="0.99" fill-rule="evenodd" clip-rule="evenodd" d="M31.8476 11.3066C33.9538 11.429 35.1836 12.5245 35.5369 14.5931C36.0913 17.5241 35.2631 19.989 33.0523 21.9877C30.928 23.4426 28.9956 23.2185 27.2549 21.3155C26.0786 18.5738 26.3797 15.9845 28.1584 13.5474C29.1327 12.356 30.3625 11.609 31.8476 11.3066Z" fill="#0F1035"/>
<path opacity="0.994" fill-rule="evenodd" clip-rule="evenodd" d="M16.1874 17.1326C17.1708 17.0562 18.1244 17.1807 19.0484 17.5061C21.9924 19.1818 24.2761 21.4972 25.8999 24.4526C27.1241 26.407 27.852 28.5232 28.0833 30.8015C28.0569 32.847 27.053 34.1417 25.0717 34.6855C24.2183 34.7851 23.3651 34.7851 22.5118 34.6855C21.1178 34.2178 19.7123 33.7946 18.2955 33.4157C16.4425 33.8542 14.5853 34.2774 12.724 34.6855C10.7072 35.0076 8.79985 34.7088 7.00192 33.7892C5.70692 32.7415 5.28028 31.422 5.72198 29.8305C7.10512 25.0734 9.79048 21.2143 13.7781 18.253C14.5767 17.8315 15.3798 17.4581 16.1874 17.1326Z" fill="#0F1035"/>
<path d="M54.2297 16.2272C53.1696 16.2272 52.2334 16.0964 51.4211 15.8348C50.6088 15.5594 49.9205 15.1533 49.356 14.6164C48.8053 14.0794 48.3854 13.4117 48.0963 12.6132C47.8209 11.8009 47.6833 10.8648 47.6833 9.80466V3.17565C47.6833 2.54235 47.8485 2.06737 48.1789 1.75072C48.5093 1.4203 48.9774 1.25509 49.5832 1.25509C50.2027 1.25509 50.6708 1.4203 50.9874 1.75072C51.3179 2.06737 51.4831 2.54235 51.4831 3.17565V9.84596C51.4831 10.9061 51.7171 11.7046 52.1852 12.2415C52.6533 12.7784 53.3348 13.0469 54.2297 13.0469C55.1108 13.0469 55.7854 12.7784 56.2535 12.2415C56.7216 11.7046 56.9556 10.9061 56.9556 9.84596V3.17565C56.9556 2.54235 57.1139 2.06737 57.4306 1.75072C57.761 1.4203 58.2291 1.25509 58.8349 1.25509C59.4406 1.25509 59.9018 1.4203 60.2185 1.75072C60.5351 2.06737 60.6935 2.54235 60.6935 3.17565V9.80466C60.6935 11.2227 60.4457 12.4136 59.95 13.3773C59.4682 14.3273 58.7454 15.0432 57.7817 15.525C56.8179 15.9931 55.6339 16.2272 54.2297 16.2272ZM68.6451 16.2272C68.0944 16.2272 67.5162 16.1859 66.9104 16.1033C66.3184 16.0344 65.754 15.9243 65.217 15.7728C64.6801 15.6214 64.1982 15.4424 63.7715 15.2359C63.3997 15.0569 63.1382 14.8229 62.9867 14.5338C62.8353 14.2309 62.7802 13.9142 62.8215 13.5838C62.8628 13.2534 62.9798 12.9643 63.1726 12.7165C63.3653 12.4549 63.62 12.2828 63.9367 12.2002C64.2533 12.1038 64.6113 12.1451 65.0105 12.3241C65.5337 12.5719 66.1257 12.7647 66.7865 12.9023C67.4474 13.04 68.0669 13.1088 68.6451 13.1088C69.5538 13.1088 70.1871 12.9918 70.545 12.7578C70.9167 12.51 71.1026 12.2071 71.1026 11.8491C71.1026 11.5325 70.9718 11.2778 70.7102 11.085C70.4624 10.8923 70.015 10.7271 69.3679 10.5894L66.9517 10.0731C65.6301 9.79778 64.6457 9.31592 63.9986 8.62755C63.3515 7.93918 63.028 7.05118 63.028 5.96355C63.028 5.24765 63.1726 4.60058 63.4617 4.02235C63.7646 3.43035 64.1845 2.92784 64.7214 2.51481C65.2721 2.10179 65.9192 1.78514 66.6626 1.56486C67.4198 1.33082 68.2596 1.21379 69.1821 1.21379C69.898 1.21379 70.6207 1.2964 71.3504 1.46161C72.0939 1.61305 72.734 1.84709 73.271 2.16374C73.5876 2.32895 73.8148 2.55612 73.9525 2.84523C74.0901 3.13435 74.1452 3.43723 74.1177 3.75388C74.0901 4.05676 73.98 4.32523 73.7873 4.55928C73.6083 4.79332 73.3605 4.95165 73.0438 5.03425C72.7409 5.10309 72.3761 5.04802 71.9493 4.86904C71.55 4.69007 71.0957 4.55927 70.5863 4.47667C70.0907 4.3803 69.6088 4.33211 69.1407 4.33211C68.6314 4.33211 68.1977 4.39407 67.8397 4.51797C67.4818 4.62811 67.2064 4.79332 67.0137 5.0136C66.8347 5.23388 66.7452 5.48858 66.7452 5.77769C66.7452 6.06681 66.8622 6.31462 67.0963 6.52113C67.3441 6.71388 67.7915 6.87909 68.4386 7.01676L70.8341 7.53304C72.1696 7.82215 73.1677 8.29713 73.8286 8.95797C74.4894 9.6188 74.8198 10.4793 74.8198 11.5394C74.8198 12.2553 74.6753 12.9023 74.3861 13.4806C74.097 14.0588 73.684 14.5544 73.1471 14.9674C72.6101 15.3667 71.9631 15.6765 71.2059 15.8967C70.4487 16.117 69.5951 16.2272 68.6451 16.2272ZM49.6864 35.1859C49.0807 35.1859 48.6126 35.0207 48.2821 34.6902C47.9517 34.346 47.7865 33.8711 47.7865 33.2653V22.3615C47.7865 21.742 47.9517 21.267 48.2821 20.9366C48.6263 20.6062 49.1013 20.441 49.7071 20.441H54.7872C56.4393 20.441 57.7128 20.8677 58.6077 21.7213C59.5164 22.5611 59.9707 23.7245 59.9707 25.2114C59.9707 26.6982 59.5164 27.8685 58.6077 28.7221C57.7128 29.5619 56.4393 29.9818 54.7872 29.9818H51.5863V33.2653C51.5863 33.8711 51.428 34.346 51.1113 34.6902C50.7947 35.0207 50.3197 35.1859 49.6864 35.1859ZM51.5863 27.07H54.1264C54.8423 27.07 55.393 26.9185 55.7785 26.6156C56.164 26.299 56.3567 25.8309 56.3567 25.2114C56.3567 24.5781 56.164 24.11 55.7785 23.8071C55.393 23.5042 54.8423 23.3528 54.1264 23.3528H51.5863V27.07ZM63.7247 35C63.0776 35 62.582 34.8348 62.2378 34.5044C61.9074 34.1602 61.7422 33.6714 61.7422 33.0381V22.4028C61.7422 21.7695 61.9074 21.2877 62.2378 20.9572C62.582 20.613 63.0776 20.441 63.7247 20.441H70.7254C71.221 20.441 71.5927 20.5649 71.8406 20.8127C72.0884 21.0605 72.2123 21.4184 72.2123 21.8865C72.2123 22.3684 72.0884 22.7401 71.8406 23.0017C71.5927 23.2495 71.221 23.3734 70.7254 23.3734H65.3768V26.1407H70.2711C70.7529 26.1407 71.1178 26.2646 71.3656 26.5124C71.6272 26.7602 71.758 27.125 71.758 27.6069C71.758 28.0888 71.6272 28.4536 71.3656 28.7014C71.1178 28.9492 70.7529 29.0731 70.2711 29.0731H65.3768V32.0675H70.7254C71.221 32.0675 71.5927 32.1983 71.8406 32.4599C72.0884 32.7077 72.2123 33.0657 72.2123 33.5338C72.2123 34.0156 72.0884 34.3805 71.8406 34.6283C71.5927 34.8761 71.221 35 70.7254 35H63.7247ZM79.8561 35.1859C79.2503 35.1859 78.7822 35.0207 78.4518 34.6902C78.1214 34.346 77.9562 33.8711 77.9562 33.2653V23.5386H74.714C74.2046 23.5386 73.8122 23.4078 73.5369 23.1463C73.2753 22.8709 73.1445 22.4854 73.1445 21.9898C73.1445 21.4804 73.2753 21.0949 73.5369 20.8333C73.8122 20.5717 74.2046 20.441 74.714 20.441H84.9982C85.5076 20.441 85.8931 20.5717 86.1547 20.8333C86.43 21.0949 86.5677 21.4804 86.5677 21.9898C86.5677 22.4854 86.43 22.8709 86.1547 23.1463C85.8931 23.4078 85.5076 23.5386 84.9982 23.5386H81.756V33.2653C81.756 33.8711 81.5977 34.346 81.281 34.6902C80.9644 35.0207 80.4894 35.1859 79.8561 35.1859Z" fill="#0F1035"/>
</svg>
