<svg width="319" height="92" viewBox="0 0 319 92" fill="none" xmlns="http://www.w3.org/2000/svg">
<path d="M23.724 77.4763C22.5224 78.5806 21.2244 79.2846 19.8301 79.5881C18.4476 79.8808 17.0705 79.7774 15.6987 79.2779C14.3161 78.7666 13.0294 77.863 11.8385 76.5671C10.9398 75.5893 10.2746 74.5818 9.84281 73.5444C9.40015 72.4953 9.18358 71.4557 9.19307 70.4256C9.20352 69.3729 9.43861 68.3637 9.89834 67.3979C10.359 66.4096 11.0429 65.4985 11.95 64.6649C13.1634 63.5497 14.4614 62.8458 15.8439 62.5531C17.2156 62.2486 18.5874 62.3462 19.9591 62.8457C21.3309 63.3452 22.6122 64.2429 23.8031 65.5387C24.7017 66.5165 25.3724 67.53 25.815 68.5791C26.2577 69.6283 26.4738 70.6792 26.4633 71.7319C26.4647 72.7737 26.235 73.7888 25.7743 74.7772C25.3146 75.743 24.6311 76.6427 23.724 77.4763ZM21.9376 75.5325C22.7034 74.8288 23.1889 74.0566 23.3942 73.216C23.6113 72.3645 23.5527 71.4732 23.2183 70.5418C22.8957 69.5997 22.3068 68.6632 21.4515 67.7326C20.1523 66.3189 18.8273 65.5156 17.4766 65.3227C16.1377 65.119 14.8909 65.5477 13.7364 66.6087C12.9825 67.3016 12.4969 68.0738 12.2798 68.9252C12.0519 69.7649 12.0992 70.6558 12.4218 71.598C12.7454 72.5175 13.3402 73.4485 14.2064 74.391C15.4947 75.7929 16.8197 76.5961 18.1812 76.8008C19.5428 77.0055 20.7949 76.5827 21.9376 75.5325Z" fill="#07082F"/>
<path d="M39.3537 64.4245C38.569 65.0048 37.8147 65.3437 37.0908 65.4413C36.3574 65.526 35.648 65.374 34.9626 64.9854C34.2901 64.5872 33.6351 63.9572 32.9977 63.0953L29.5442 58.4256C29.2398 58.0139 29.1191 57.6355 29.1823 57.2903C29.2359 56.9323 29.4557 56.6105 29.8416 56.3251C30.2275 56.0397 30.5995 55.9238 30.9575 55.9774C31.3189 56.0086 31.6519 56.2301 31.9563 56.6417L35.4383 61.3501C35.933 62.019 36.4344 62.4144 36.9424 62.5362C37.4504 62.658 38.0002 62.5001 38.592 62.0625C39.2352 61.5868 39.6009 60.9781 39.6891 60.2362C39.7678 59.4816 39.536 58.7376 38.9937 58.0043L35.8542 53.7591C35.5497 53.3474 35.4291 52.969 35.4922 52.6238C35.5458 52.2658 35.7656 51.9441 36.1515 51.6587C36.5374 51.3732 36.9094 51.2573 37.2675 51.311C37.6289 51.3422 37.9618 51.5636 38.2662 51.9753L43.6605 59.2693C44.2694 60.0927 44.1814 60.7945 43.3967 61.3748C43.0237 61.6507 42.6581 61.7618 42.3001 61.7082C41.9325 61.6418 41.6012 61.4091 41.3063 61.0103L40.2218 59.5438L40.92 59.9229C41.1636 60.8174 41.1468 61.6557 40.8695 62.4378C40.6051 63.2105 40.0998 63.8727 39.3537 64.4245Z" fill="#07082F"/>
<path d="M52.3736 55.3608C51.9522 55.6223 51.5584 55.7161 51.1923 55.642C50.8314 55.5459 50.5201 55.2872 50.2585 54.8657L45.4744 47.1578C45.2128 46.7363 45.1233 46.3494 45.2058 45.9968C45.2883 45.6443 45.5267 45.3457 45.9209 45.101C46.3151 44.8563 46.6885 44.7753 47.041 44.8578C47.3935 44.9403 47.7006 45.1922 47.9621 45.6137L48.7595 46.8983L48.5556 47.0249C48.2396 46.0911 48.2296 45.2405 48.5254 44.4732C48.8212 43.7058 49.406 42.9944 50.2798 42.3391C50.5484 42.1347 50.8191 42.0703 51.0919 42.1458C51.3699 42.1992 51.6322 42.3942 51.8787 42.7308C52.1169 43.0538 52.2083 43.3831 52.1529 43.7187C52.1028 44.0323 51.9068 44.3234 51.5651 44.592L51.1418 44.9112C50.3632 45.5075 49.8981 46.1539 49.7467 46.8505C49.5869 47.5335 49.7474 48.2624 50.2284 49.0373L52.8483 53.2584C53.1098 53.6798 53.2036 54.0735 53.1295 54.4397C53.047 54.7922 52.795 55.0992 52.3736 55.3608Z" fill="#07082F"/>
<path d="M75.7481 47.35C75.3095 47.5449 74.9212 47.5773 74.5833 47.4473C74.2454 47.3173 73.9758 47.0256 73.7744 46.5723L68.3276 34.3118C68.1262 33.8585 68.0906 33.4629 68.2206 33.125C68.3506 32.7871 68.6276 32.524 69.0517 32.3356C69.4903 32.1407 69.8786 32.1083 70.2165 32.2383C70.5544 32.3683 70.824 32.66 71.0254 33.1133L71.7854 34.824L71.2518 34.2732C71.1399 33.4301 71.3195 32.6324 71.7907 31.8804C72.2766 31.1218 72.9728 30.5411 73.8794 30.1384C74.8152 29.7226 75.7347 29.5855 76.6379 29.727C77.5558 29.862 78.3972 30.2585 79.1623 30.9165C79.9209 31.56 80.5567 32.4593 81.0699 33.6144C81.5766 34.7549 81.8209 35.8369 81.8029 36.8604C81.7784 37.8692 81.5158 38.7562 81.0154 39.5213C80.5149 40.2864 79.7894 40.88 78.839 41.3023C77.947 41.6985 77.0673 41.8267 76.1998 41.6869C75.3258 41.5324 74.6127 41.1489 74.0605 40.5363L74.3237 40.4194L76.516 45.3543C76.7174 45.8076 76.7458 46.2065 76.6011 46.5508C76.4711 46.8887 76.1868 47.1551 75.7481 47.35ZM77.1457 39.5597C77.6867 39.3193 78.1034 38.9766 78.3959 38.5315C78.6884 38.0864 78.8306 37.5593 78.8226 36.9501C78.8227 36.3198 78.6506 35.6171 78.3063 34.8421C77.7867 33.6724 77.1516 32.9128 76.4011 32.5634C75.6441 32.1994 74.8562 32.1993 74.0374 32.563C73.4964 32.8034 73.0796 33.1461 72.7871 33.5912C72.4881 34.0216 72.3386 34.552 72.3385 35.1823C72.3465 35.7916 72.5227 36.4836 72.867 37.2586C73.3801 38.4137 74.0185 39.1806 74.7819 39.5593C75.5389 39.9233 76.3268 39.9234 77.1457 39.5597Z" fill="#07082F"/>
<path d="M91.9306 36.0142C91.4621 36.1772 91.0574 36.1825 90.7164 36.0301C90.3852 35.8573 90.1381 35.5367 89.9751 35.0682L86.9939 26.5001C86.8309 26.0316 86.8283 25.6344 86.9859 25.3085C87.1436 24.9826 87.4415 24.7434 87.8798 24.5909C88.318 24.4385 88.7001 24.441 89.026 24.5987C89.3519 24.7564 89.5963 25.0694 89.7593 25.5379L90.2562 26.9659L90.0295 27.0448C89.9256 26.0645 90.1019 25.2323 90.5585 24.5483C91.0151 23.8643 91.7414 23.2981 92.7374 22.8499C93.0442 22.7093 93.3225 22.7057 93.5722 22.839C93.8317 22.952 94.045 23.1997 94.2119 23.5821C94.3736 23.9493 94.3907 24.2907 94.2632 24.606C94.1457 24.9011 93.8908 25.1422 93.4985 25.3295L93.0156 25.5484C92.1254 25.9598 91.5301 26.4887 91.2299 27.1353C90.9245 27.7668 90.9216 28.5132 91.2213 29.3745L92.8539 34.0666C93.0169 34.5351 93.0222 34.9398 92.8698 35.2808C92.7121 35.6067 92.3991 35.8512 91.9306 36.0142Z" fill="#07082F"/>
<path d="M108.892 30.8234C107.715 31.1284 106.631 31.1532 105.639 30.8978C104.647 30.6424 103.797 30.1355 103.088 29.3771C102.375 28.6032 101.862 27.6122 101.549 26.4041C101.312 25.4903 101.233 24.643 101.312 23.8623C101.402 23.0621 101.636 22.3402 102.015 21.6967C102.39 21.0376 102.899 20.4841 103.543 20.0362C104.184 19.5728 104.945 19.2267 105.828 18.9979C107.005 18.6929 108.09 18.6681 109.081 18.9235C110.073 19.1789 110.923 19.6858 111.632 20.4442C112.341 21.2026 112.852 22.1859 113.165 23.394C113.402 24.3078 113.475 25.1648 113.385 25.965C113.311 26.7612 113.086 27.4888 112.711 28.1479C112.333 28.7914 111.823 29.3449 111.183 29.8083C110.539 30.2563 109.775 30.5946 108.892 30.8234ZM108.32 28.6163C108.893 28.4678 109.361 28.1979 109.722 27.8068C110.084 27.4156 110.31 26.9189 110.402 26.3166C110.505 25.6948 110.451 24.9734 110.238 24.1525C109.917 22.9135 109.415 22.0601 108.732 21.5925C108.044 21.1094 107.267 20.9803 106.4 21.205C105.827 21.3535 105.36 21.6234 104.998 22.0145C104.633 22.3902 104.398 22.889 104.295 23.5108C104.203 24.113 104.264 24.8246 104.476 25.6455C104.793 26.8691 105.297 27.7302 105.989 28.2288C106.676 28.7118 107.453 28.841 108.32 28.6163Z" fill="#07082F"/>
<path d="M123.255 27.4098C122.78 27.4774 122.398 27.4025 122.108 27.1851C121.816 26.9519 121.635 26.5898 121.566 26.0987L120.288 17.1171C120.218 16.626 120.292 16.2358 120.509 15.9463C120.727 15.6568 121.065 15.4793 121.525 15.414C121.984 15.3487 122.358 15.4247 122.648 15.6421C122.937 15.8595 123.117 16.2137 123.187 16.7048L123.434 18.4393L123.071 17.7637C123.275 16.9266 123.677 16.231 124.277 15.677C124.877 15.123 125.636 14.7807 126.555 14.65C127.49 14.517 128.29 14.6295 128.955 14.9875C129.62 15.3454 130.136 15.9668 130.505 16.8518L130.172 16.8991C130.369 16.0145 130.799 15.2827 131.46 14.7039C132.118 14.1092 132.923 13.7442 133.873 13.609C134.761 13.4829 135.514 13.5535 136.134 13.8208C136.769 14.086 137.281 14.5547 137.667 15.2269C138.051 15.8834 138.32 16.7502 138.473 17.8273L139.291 23.5774C139.361 24.0685 139.28 24.4678 139.049 24.7754C138.832 25.0649 138.486 25.2435 138.011 25.3111C137.535 25.3786 137.153 25.3037 136.863 25.0863C136.572 24.8531 136.391 24.491 136.321 23.9999L135.52 18.3686C135.394 17.4815 135.151 16.8535 134.792 16.4844C134.448 16.1131 133.927 15.977 133.23 16.0762C132.454 16.1866 131.884 16.5505 131.519 17.168C131.152 17.7697 131.038 18.5537 131.175 19.5199L131.902 24.6285C131.971 25.1196 131.899 25.5178 131.684 25.8231C131.466 26.1126 131.12 26.2912 130.645 26.3588C130.169 26.4264 129.779 26.3526 129.474 26.1374C129.182 25.9042 129.001 25.542 128.931 25.051L128.13 19.4197C128.004 18.5326 127.761 17.9045 127.402 17.5355C127.058 17.1642 126.546 17.027 125.865 17.1239C125.088 17.2343 124.518 17.5982 124.153 18.2157C123.786 18.8174 123.672 19.6014 123.809 20.5676L124.536 25.6762C124.68 26.69 124.253 27.2679 123.255 27.4098Z" fill="#07082F"/>
<path d="M149.365 24.5014C148.886 24.5247 148.512 24.3986 148.242 24.1233C147.972 23.8481 147.825 23.4547 147.8 22.9433L147.374 14.1456C147.349 13.6183 147.457 13.2125 147.7 12.9285C147.942 12.6284 148.302 12.4668 148.782 12.4436C149.261 12.4204 149.636 12.5464 149.905 12.8217C150.19 13.0802 150.345 13.4731 150.371 14.0005L150.797 22.7982C150.822 23.3096 150.713 23.7153 150.471 24.0154C150.23 24.3154 149.861 24.4775 149.365 24.5014ZM148.674 10.2142C148.114 10.2413 147.668 10.1267 147.335 9.87051C147.018 9.59755 146.847 9.21336 146.823 8.71794C146.798 8.20654 146.931 7.80765 147.222 7.52126C147.528 7.2341 147.961 7.07698 148.52 7.04989C149.096 7.02203 149.542 7.13659 149.859 7.39357C150.175 7.65055 150.346 8.03473 150.371 8.54614C150.395 9.04156 150.262 9.44045 149.972 9.74282C149.682 10.0292 149.249 10.1863 148.674 10.2142Z" fill="#07082F"/>
<path d="M163.002 24.3488C162.314 24.3355 161.588 24.2494 160.823 24.0906C160.058 23.9317 159.375 23.6705 158.774 23.3068C158.521 23.1418 158.34 22.9543 158.232 22.7442C158.141 22.5184 158.105 22.3016 158.125 22.094C158.161 21.8706 158.245 21.6802 158.376 21.5227C158.523 21.3655 158.701 21.265 158.91 21.221C159.135 21.1774 159.374 21.222 159.628 21.3549C160.262 21.6713 160.857 21.8988 161.415 22.0376C161.972 22.1605 162.523 22.2271 163.067 22.2377C163.835 22.2525 164.405 22.1355 164.778 21.8867C165.167 21.6222 165.366 21.274 165.375 20.8421C165.382 20.4741 165.259 20.1917 165.007 19.9948C164.771 19.7822 164.406 19.6231 163.912 19.5175L161.521 19.0151C160.533 18.804 159.78 18.4293 159.263 17.8912C158.761 17.3374 158.519 16.6366 158.535 15.7887C158.55 15.0209 158.771 14.361 159.197 13.8092C159.64 13.2577 160.241 12.8372 160.998 12.5478C161.756 12.2584 162.623 12.1232 163.599 12.1421C164.302 12.1557 164.957 12.2484 165.562 12.4201C166.183 12.5761 166.778 12.8197 167.348 13.1508C167.585 13.2834 167.742 13.4545 167.818 13.664C167.91 13.8738 167.93 14.0902 167.877 14.3133C167.825 14.5203 167.726 14.7104 167.578 14.8836C167.431 15.0408 167.245 15.1412 167.02 15.1848C166.812 15.2128 166.573 15.1602 166.303 15.0269C165.812 14.7614 165.336 14.5681 164.874 14.4472C164.428 14.3265 163.998 14.2622 163.582 14.2541C162.798 14.2389 162.211 14.3636 161.822 14.6281C161.449 14.893 161.258 15.2493 161.249 15.6972C161.243 16.0332 161.349 16.3153 161.569 16.5436C161.789 16.7719 162.13 16.9305 162.592 17.0195L164.983 17.5218C166.019 17.7339 166.796 18.101 167.314 18.6232C167.848 19.1456 168.106 19.8387 168.09 20.7026C168.067 21.8704 167.593 22.7814 166.669 23.4356C165.744 24.0738 164.522 24.3782 163.002 24.3488Z" fill="#07082F"/>
<path d="M180.7 25.4473C179.379 25.3087 178.267 24.9427 177.364 24.3493C176.461 23.7558 175.795 22.978 175.365 22.0159C174.951 21.0555 174.809 19.9547 174.939 18.7135C175.066 17.5041 175.423 16.4718 176.012 15.6165C176.616 14.7629 177.383 14.1274 178.311 13.71C179.258 13.2784 180.296 13.1218 181.425 13.2403C182.253 13.3271 182.979 13.54 183.603 13.879C184.243 14.2196 184.767 14.6687 185.175 15.2263C185.599 15.7856 185.891 16.4438 186.053 17.2008C186.233 17.9436 186.275 18.7685 186.18 19.6755C186.15 19.9619 186.023 20.1738 185.8 20.3113C185.594 20.4344 185.308 20.4768 184.942 20.4384L177.28 19.6347L177.46 17.9161L184.167 18.6197L183.748 18.9377C183.824 18.2057 183.777 17.5814 183.606 17.0647C183.451 16.5497 183.18 16.1432 182.793 15.8452C182.424 15.533 181.937 15.3451 181.332 15.2817C180.664 15.2116 180.074 15.3106 179.563 15.5788C179.07 15.8328 178.666 16.2328 178.351 16.7789C178.054 17.3109 177.865 17.9667 177.783 18.7464L177.765 18.9135C177.629 20.2183 177.828 21.2287 178.365 21.9445C178.918 22.6461 179.792 23.0595 180.985 23.1847C181.399 23.2281 181.866 23.2288 182.385 23.1867C182.922 23.1304 183.434 22.9992 183.922 22.793C184.277 22.6371 184.579 22.5884 184.831 22.6469C185.083 22.6895 185.273 22.7979 185.4 22.9721C185.542 23.1479 185.617 23.3568 185.624 23.5988C185.632 23.825 185.56 24.0507 185.408 24.276C185.271 24.503 185.051 24.689 184.746 24.834C184.152 25.1257 183.48 25.3206 182.73 25.4189C181.997 25.5029 181.32 25.5124 180.7 25.4473Z" fill="#07082F"/>
<path d="M208.467 30.4038C207.456 30.1585 206.651 29.7819 206.049 29.2738C205.464 28.7695 205.087 28.1512 204.919 27.4189C204.755 26.671 204.791 25.8073 205.029 24.8278L206.235 19.8599L205.022 19.5656C204.649 19.4751 204.384 19.312 204.227 19.0764C204.074 18.8252 204.039 18.5285 204.122 18.1865C204.209 17.8288 204.376 17.5813 204.623 17.4437C204.87 17.3062 205.181 17.2827 205.554 17.3733L206.767 17.6676L207.282 15.5452C207.399 15.0632 207.612 14.728 207.921 14.5395C208.246 14.3549 208.641 14.3192 209.108 14.4324C209.574 14.5456 209.902 14.7567 210.09 15.0659C210.278 15.375 210.314 15.7706 210.197 16.2526L209.682 18.375L212.154 18.975C212.527 19.0655 212.793 19.2286 212.949 19.4643C213.106 19.6999 213.141 19.9965 213.054 20.3541C212.971 20.6962 212.804 20.9438 212.553 21.0969C212.306 21.2344 211.995 21.2579 211.622 21.1673L209.15 20.5674L207.984 25.372C207.803 26.1183 207.83 26.7177 208.066 27.1701C208.302 27.6225 208.786 27.9374 209.517 28.1147C209.781 28.1789 210.02 28.2121 210.233 28.2145C210.447 28.2169 210.633 28.2292 210.792 28.2514C210.983 28.2811 211.123 28.3811 211.214 28.5512C211.308 28.7058 211.306 28.9852 211.208 29.3895C211.132 29.7004 211.01 29.9671 210.841 30.1895C210.691 30.4001 210.472 30.5199 210.185 30.5491C209.968 30.5622 209.691 30.5525 209.353 30.5199C209.011 30.5029 208.716 30.4642 208.467 30.4038Z" fill="#07082F"/>
<path d="M221.814 34.284C220.66 33.9023 219.735 33.3353 219.04 32.5831C218.345 31.8308 217.905 30.9439 217.72 29.9223C217.541 28.8855 217.647 27.7747 218.039 26.5898C218.335 25.6935 218.728 24.9387 219.217 24.3253C219.727 23.7017 220.315 23.2222 220.982 22.8866C221.654 22.5359 222.383 22.3469 223.167 22.3198C223.956 22.2774 224.783 22.3994 225.649 22.6857C226.804 23.0675 227.729 23.6345 228.424 24.3867C229.119 25.1389 229.558 26.0258 229.743 27.0474C229.928 28.0691 229.824 29.1723 229.432 30.3572C229.136 31.2535 228.733 32.0134 228.223 32.6369C227.729 33.2655 227.146 33.7552 226.474 34.1059C225.807 34.4414 225.078 34.6304 224.289 34.6728C223.505 34.6999 222.68 34.5704 221.814 34.284ZM222.53 32.1193C223.092 32.3052 223.631 32.3317 224.147 32.1989C224.662 32.0661 225.122 31.7716 225.526 31.3152C225.95 30.8487 226.295 30.2129 226.561 29.4078C226.963 28.1925 227.004 27.2033 226.683 26.44C226.367 25.6616 225.784 25.1317 224.934 24.8504C224.371 24.6646 223.833 24.638 223.317 24.7708C222.806 24.8884 222.339 25.1805 221.915 25.647C221.511 26.1033 221.176 26.734 220.91 27.5392C220.513 28.7392 220.47 29.7361 220.781 30.5297C221.096 31.3082 221.679 31.838 222.53 32.1193Z" fill="#07082F"/>
<path d="M244.95 48.2353C244.635 48.0782 244.42 47.8638 244.306 47.592C244.184 47.3345 244.169 47.0591 244.262 46.7656C244.369 46.4793 244.562 46.2179 244.841 45.9814L247.918 43.4666L247.361 44.5834L247.961 33.5921C247.99 33.2128 248.093 32.8979 248.272 32.6472C248.45 32.3966 248.686 32.2461 248.98 32.1957C249.294 32.1381 249.645 32.2057 250.032 32.3985C250.361 32.5627 250.587 32.7736 250.708 33.031C250.838 33.2742 250.877 33.6426 250.828 34.1364L250.118 42.8203L249.474 42.499L256.058 36.7175C256.415 36.3951 256.737 36.2159 257.023 36.1798C257.316 36.1294 257.642 36.1935 258 36.372C258.315 36.5291 258.523 36.7399 258.623 37.0046C258.731 37.2549 258.738 37.5268 258.645 37.8203C258.56 38.0994 258.367 38.3608 258.067 38.6044L246.903 47.9219C246.517 48.23 246.181 48.4021 245.895 48.4382C245.609 48.4743 245.294 48.4066 244.95 48.2353Z" fill="#07082F"/>
<path d="M263.863 53.7325C262.827 53.0952 262.058 52.3306 261.555 51.4386C261.051 50.5466 260.828 49.5823 260.883 48.5456C260.947 47.4953 261.306 46.4387 261.96 45.3758C262.455 44.5719 263.011 43.9277 263.628 43.4434C264.267 42.9539 264.95 42.6226 265.677 42.4497C266.411 42.263 267.164 42.2468 267.933 42.4008C268.711 42.5412 269.488 42.8504 270.265 43.3284C271.3 43.9656 272.07 44.7303 272.573 45.6222C273.076 46.5142 273.3 47.4786 273.244 48.5152C273.189 49.5519 272.834 50.6017 272.18 51.6646C271.685 52.4686 271.118 53.1153 270.479 53.6049C269.853 54.1028 269.173 54.445 268.438 54.6317C267.712 54.8046 266.96 54.8209 266.182 54.6805C265.413 54.5264 264.639 54.2104 263.863 53.7325ZM265.058 51.7907C265.562 52.1009 266.08 52.2508 266.613 52.2403C267.145 52.2298 267.66 52.0489 268.158 51.6978C268.678 51.3414 269.16 50.802 269.605 50.0798C270.275 48.9897 270.543 48.0363 270.406 47.2198C270.278 46.3896 269.833 45.7398 269.07 45.2702C268.566 44.96 268.047 44.8101 267.515 44.8206C266.991 44.8175 266.469 44.9941 265.949 45.3505C265.451 45.7017 264.98 46.2384 264.535 46.9606C263.873 48.0371 263.602 48.9973 263.721 49.8411C263.849 50.6712 264.295 51.3211 265.058 51.7907Z" fill="#07082F"/>
<path d="M278.347 63.4882C277.567 62.9018 277.027 62.2757 276.727 61.6098C276.436 60.9311 276.38 60.2078 276.556 59.44C276.746 58.6818 277.163 57.8742 277.807 57.0172L281.296 52.3744C281.604 51.9651 281.932 51.7414 282.281 51.7034C282.64 51.6526 283.011 51.7713 283.394 52.0597C283.778 52.3481 283.995 52.6715 284.046 53.03C284.119 53.3853 284.002 53.7675 283.695 54.1768L280.176 58.8581C279.676 59.5231 279.441 60.1165 279.469 60.6381C279.497 61.1598 279.805 61.6417 280.394 62.0839C281.033 62.5645 281.721 62.7412 282.457 62.614C283.203 62.4739 283.85 62.0394 284.398 61.3103L287.57 57.0896C287.878 56.6803 288.206 56.4566 288.555 56.4186C288.913 56.3677 289.284 56.4865 289.668 56.7749C290.052 57.0633 290.269 57.3867 290.32 57.7452C290.393 58.1004 290.276 58.4827 289.968 58.892L284.518 66.1441C283.902 66.9626 283.205 67.0787 282.424 66.4923C282.054 66.2136 281.843 65.895 281.792 65.5365C281.751 65.1653 281.879 64.7814 282.177 64.3849L283.273 62.9268L283.109 63.7042C282.321 64.193 281.513 64.4162 280.684 64.3738C279.868 64.3409 279.089 64.0458 278.347 63.4882Z" fill="#07082F"/>
<path d="M295.167 77.2532C294.768 76.8835 294.559 76.4613 294.541 75.9865C294.535 75.5225 294.711 75.0968 295.07 74.7095C295.418 74.3338 295.818 74.1373 296.27 74.12C296.745 74.1018 297.182 74.2775 297.581 74.6472C297.992 75.0277 298.194 75.4445 298.189 75.8976C298.207 76.3498 298.041 76.7638 297.693 77.1394C297.335 77.5268 296.924 77.735 296.461 77.7641C296.009 77.804 295.578 77.6337 295.167 77.2532ZM299.534 81.2976C299.135 80.928 298.926 80.5057 298.908 80.0309C298.902 79.567 299.078 79.1413 299.437 78.7539C299.784 78.3783 300.185 78.1818 300.637 78.1645C301.112 78.1463 301.549 78.322 301.948 78.6917C302.358 79.0722 302.561 79.489 302.556 79.9421C302.573 80.3943 302.408 80.8082 302.06 81.1838C301.701 81.5712 301.29 81.7794 300.827 81.8085C300.376 81.8484 299.945 81.6782 299.534 81.2976ZM290.783 73.1924C290.384 72.8228 290.175 72.4005 290.157 71.9257C290.15 71.4617 290.327 71.0361 290.685 70.6487C291.033 70.2731 291.433 70.0766 291.886 70.0592C292.36 70.0411 292.797 70.2168 293.196 70.5864C293.607 70.967 293.81 71.3838 293.805 71.8369C293.822 72.2891 293.657 72.703 293.309 73.0786C292.95 73.466 292.539 73.6742 292.076 73.7033C291.625 73.7432 291.194 73.5729 290.783 73.1924Z" fill="#07082F"/>
</svg>
