<svg width="29" height="30" viewBox="0 0 29 30" fill="none" xmlns="http://www.w3.org/2000/svg">
<path opacity="0.967" fill-rule="evenodd" clip-rule="evenodd" d="M15.5429 2.88476C16.5268 2.94676 17.2309 3.41719 17.6552 4.2961C18.1869 7.07197 17.3265 9.31039 15.0742 11.0114C13.7413 11.5307 12.7014 11.1767 11.9542 9.94921C11.3765 7.81336 11.8138 5.9033 13.266 4.21903C13.9035 3.53535 14.6624 3.0906 15.5429 2.88476Z" fill="white"/>
<path opacity="0.957" fill-rule="evenodd" clip-rule="evenodd" d="M7.54565 3.37311C9.76115 3.84408 10.721 5.22353 10.4253 7.51148C10.2674 9.4524 9.35482 10.9057 7.6876 11.8715C5.47923 11.5647 4.42065 10.2787 4.51188 8.01325C4.5653 5.7919 5.57655 4.24518 7.54565 3.37311Z" fill="white"/>
<path opacity="0.962" fill-rule="evenodd" clip-rule="evenodd" d="M21.278 7.2129C23.8477 7.49477 24.5871 8.82377 23.4965 11.1999C22.4783 13.3171 20.7997 14.4017 18.4606 14.4539C16.5786 13.4228 16.1833 11.9408 17.2751 10.0076C18.2886 8.58623 19.6229 7.65466 21.278 7.2129Z" fill="white"/>
<path opacity="0.982" fill-rule="evenodd" clip-rule="evenodd" d="M12.8318 12.7013C14.172 13.1855 15.0858 14.0905 15.5734 15.4164C16.7475 19.2492 16.381 22.8763 14.4739 26.2979C13.1957 27.1835 11.9247 27.163 10.6609 26.2368C9.80049 25.2667 8.9403 24.2965 8.07996 23.3265C5.9371 22.7299 3.99783 21.7448 2.26218 20.371C1.15906 19.0497 1.12277 17.6885 2.15337 16.2871C5.27631 13.7087 8.83579 12.5134 12.8318 12.7013Z" fill="white"/>
<path opacity="0.966" fill-rule="evenodd" clip-rule="evenodd" d="M22.6986 15.1921C26.1584 15.8482 26.8703 17.6348 24.8348 20.5519C23.2224 22.4185 21.3025 22.868 19.0753 21.9007C17.8429 20.5447 17.7501 19.0931 18.7966 17.546C19.8627 16.342 21.1635 15.5574 22.6986 15.1921Z" fill="white"/>
</svg>
