<svg width="40" height="40" viewBox="0 0 40 40" fill="none" xmlns="http://www.w3.org/2000/svg">
<path fill-rule="evenodd" clip-rule="evenodd" d="M14.8484 15.0691L15.1364 15.6918C16.0666 17.596 17.3649 19.4108 18.9769 21.0227C20.7687 22.8146 22.8106 24.2199 24.946 25.163L24.9305 25.1546L26.44 23.6402C27.9032 22.1744 30.2786 22.1744 31.7435 23.6394L33.6985 25.5944C35.4883 27.3842 35.4883 30.2857 33.6985 32.0755L32.6135 33.1605C31.0884 34.6856 28.8908 35.3322 26.7141 34.9215C21.9474 34.0204 16.9834 31.2681 12.8574 27.1422C8.73145 23.0162 5.97922 18.0521 5.07798 13.285C4.66737 11.1088 5.314 8.91115 6.83909 7.38606L7.92575 6.2994C9.71558 4.50958 12.617 4.50958 14.4069 6.2994L16.3635 8.25606C17.8601 9.7526 17.7961 12.1262 16.2213 13.701L14.8484 15.0691ZM14.5958 10.0238L12.6391 8.06716C11.8256 7.25365 10.507 7.25365 9.69352 8.06716L8.60685 9.15383C7.67502 10.0857 7.27497 11.4453 7.53455 12.8211C8.33889 17.0757 10.843 21.5923 14.6252 25.3744C18.4073 29.1565 22.9239 31.6607 27.1781 32.465C28.5543 32.7246 29.9139 32.3246 30.8458 31.3927L31.9308 30.3077C32.7443 29.4942 32.7443 28.1757 31.9308 27.3622L29.9758 25.4072C29.4874 24.9188 28.6961 24.9188 28.209 25.4067L26.7035 26.9138C25.9782 27.6391 24.8795 27.8663 23.9363 27.45C21.5164 26.3812 19.218 24.7994 17.2091 22.7905C15.2005 20.7819 13.62 18.4834 12.5527 16.0629C12.1366 15.1201 12.3638 14.0214 13.0896 13.2955L14.4541 11.9327C15.0727 11.3141 15.094 10.5221 14.5958 10.0238Z" fill="#0F1035"/>
</svg>
