<svg width="24" height="24" viewBox="0 0 24 24" fill="none" xmlns="http://www.w3.org/2000/svg">
<path fill-rule="evenodd" clip-rule="evenodd" d="M3.38013 5.15523L4.03172 4.50464C5.10561 3.43075 6.84649 3.43075 7.92038 4.50464L9.09338 5.67764C9.9913 6.57556 9.95293 7.99974 9.00838 8.9443L8.18451 9.76697L8.35437 10.1322C8.85085 11.1497 9.52293 12.1256 10.3465 13.0103L10.6624 13.3376C11.7438 14.419 12.9782 15.2661 14.267 15.8304L14.2325 15.814L15.1403 14.9071C15.9764 14.0695 17.3089 14.0297 18.1932 14.7871L18.3224 14.9066L19.4957 16.08C20.5692 17.1549 20.5692 18.8955 19.4954 19.9693L18.8444 20.6203C17.9293 21.5353 16.6107 21.9233 15.3047 21.6769C12.4447 21.1362 9.4663 19.4849 6.99072 17.0093C4.51514 14.5337 2.8638 11.5553 2.32305 8.69502C2.07669 7.38929 2.46467 6.07069 3.38013 5.15523ZM8.03272 6.7383L6.85972 5.5653C6.37161 5.07719 5.58049 5.07719 5.09197 5.56571L4.44038 6.2163C3.88128 6.7754 3.64125 7.59118 3.79699 8.41665C4.2796 10.9694 5.78209 13.6794 8.05138 15.9486C10.3207 18.2179 13.0306 19.7204 15.5831 20.203C16.4088 20.3588 17.2246 20.1187 17.7837 19.5596L18.4347 18.9086C18.9229 18.4205 18.9229 17.6291 18.4347 17.1403L17.2617 15.9673C16.9687 15.6743 16.4939 15.6743 16.2014 15.9673L15.2794 16.8893C14.8558 17.3129 14.214 17.4458 13.6642 17.204C12.2042 16.5647 10.8144 15.611 9.60172 14.3983C8.39469 13.1913 7.4442 11.8081 6.80448 10.3551C6.55597 9.79494 6.69033 9.14103 7.12172 8.70964L7.94772 7.88364C8.31889 7.51247 8.33169 7.03727 8.03272 6.7383Z" fill="white"/>
<path d="M12.9898 6.24117C14.2541 6.224 15.4749 6.70633 16.3843 7.61577C16.6772 7.90866 16.6772 8.38353 16.3843 8.67643C16.0914 8.96932 15.6166 8.96932 15.3237 8.67643C14.7043 8.05706 13.8747 7.72929 13.0102 7.74103C12.596 7.74665 12.2557 7.41546 12.2501 7.00128C12.2444 6.5871 12.5756 6.24679 12.9898 6.24117Z" fill="white"/>
<path d="M13 2.21399C15.3138 2.21399 17.5427 3.11808 19.2123 4.78766C19.5052 5.08055 19.5052 5.55543 19.2123 5.84832C18.9194 6.14121 18.4446 6.14121 18.1517 5.84832C16.7663 4.4629 14.9199 3.71399 13 3.71399C12.5858 3.71399 12.25 3.3782 12.25 2.96399C12.25 2.54978 12.5858 2.21399 13 2.21399Z" fill="white"/>
<path d="M15.3237 7.61567C15.6166 7.32277 16.0914 7.32277 16.3843 7.61567C17.2938 8.5251 17.7761 9.74585 17.7589 11.0102C17.7533 11.4244 17.413 11.7556 16.9988 11.7499C16.5846 11.7443 16.2534 11.404 16.2591 10.9898C16.2708 10.1252 15.943 9.2957 15.3237 8.67633C15.0308 8.38343 15.0308 7.90856 15.3237 7.61567Z" fill="white"/>
<path d="M18.1518 4.78754C18.4447 4.49465 18.9196 4.49465 19.2125 4.78754C20.882 6.45712 21.7861 8.68609 21.7861 10.9999C21.7861 11.4141 21.4503 11.7499 21.0361 11.7499C20.6219 11.7499 20.2861 11.4141 20.2861 10.9999C20.2861 9.08002 19.5372 7.23362 18.1518 5.8482C17.8589 5.55531 17.8589 5.08043 18.1518 4.78754Z" fill="white"/>
</svg>
