<svg width="37" height="36" viewBox="0 0 37 36" fill="none" xmlns="http://www.w3.org/2000/svg">
<path fill-rule="evenodd" clip-rule="evenodd" d="M8.10519 7.04642L15.605 3.9775C17.5672 3.17417 19.7663 3.17417 21.7285 3.9775L29.2286 7.04656C30.7792 7.68161 31.7917 9.18941 31.7917 10.8641V16.7726C31.7917 24.1438 26.2744 30.9428 18.9135 32.5972C18.751 32.6338 18.5825 32.6338 18.42 32.5972C11.0591 30.9428 5.54175 24.1438 5.54175 16.7726V10.8641C5.54175 9.18874 6.55509 7.67924 8.10519 7.04642ZM28.3762 9.12883L20.876 6.05975C19.4602 5.48008 17.8733 5.48008 16.4573 6.05983L8.95645 9.12917C8.25223 9.41667 7.79175 10.1026 7.79175 10.8641V16.7726C7.79175 23.0848 12.5733 28.977 18.9135 30.402L18.6667 30.3431L18.8142 30.3072C24.8267 28.7648 29.346 23.1973 29.5356 17.1666L29.5417 16.7726V10.8641C29.5417 10.103 29.0815 9.41771 28.3762 9.12883Z" fill="#323232"/>
<path fill-rule="evenodd" clip-rule="evenodd" d="M18.879 12.8635C19.3577 12.5972 19.9038 12.4285 20.5126 12.3858L20.8222 12.375C23.2098 12.375 25.0417 14.4495 25.0417 16.737C25.0417 20.0683 20.9692 23.625 18.6667 23.625C16.3643 23.625 12.2917 20.0683 12.2917 16.737C12.2917 14.449 14.1226 12.375 16.5112 12.375C17.2459 12.375 17.896 12.5528 18.4545 12.8635L18.6667 12.99L18.879 12.8635ZM22.7917 16.737C22.7917 15.6342 21.9006 14.625 20.8222 14.625C20.2558 14.625 19.8333 14.8434 19.5082 15.2097L19.3896 15.3253C18.9317 15.7106 18.2356 15.6721 17.8253 15.2097L17.6987 15.0794C17.3923 14.7922 17.0069 14.625 16.5112 14.625C15.432 14.625 14.5417 15.6335 14.5417 16.737C14.5417 18.7527 17.5443 21.375 18.6667 21.375C19.7892 21.375 22.7917 18.7527 22.7917 16.737Z" fill="#323232"/>
</svg>
