<svg width="20" height="20" viewBox="0 0 20 20" fill="none" xmlns="http://www.w3.org/2000/svg">
<path fill-rule="evenodd" clip-rule="evenodd" d="M4.58398 5.20825H15.4175C16.4528 5.20863 17.2919 6.04777 17.2923 7.08325V15.8333C17.2923 16.4411 17.051 17.0241 16.6212 17.4538C16.1914 17.8837 15.6084 18.1251 15.0007 18.1249H5.00082C4.39294 18.1251 3.8099 17.8837 3.38006 17.4538C2.95031 17.0241 2.70898 16.4411 2.70898 15.8333V7.08302C2.70936 6.04777 3.54851 5.20863 4.58398 5.20825ZM15.4173 6.45825H4.58421C4.23896 6.45838 3.95911 6.73823 3.95898 7.08325V15.8333C3.95898 16.1097 4.06868 16.3747 4.26395 16.57C4.45928 16.7653 4.72423 16.875 5.00065 16.8749H15.0008C15.2771 16.875 15.542 16.7653 15.7374 16.57C15.9326 16.3747 16.0423 16.1097 16.0423 15.8333V7.08348C16.0422 6.73823 15.7623 6.45838 15.4173 6.45825Z" fill="white"/>
<path d="M10.2077 1.875C12.2196 1.87505 13.8614 3.4594 13.9536 5.44847L13.9577 5.625V5.83333C13.9577 6.17851 13.6779 6.45833 13.3327 6.45833C13.0163 6.45833 12.7548 6.22321 12.7134 5.91814L12.7077 5.83333V5.625C12.7077 4.29363 11.6669 3.20532 10.3546 3.12925L10.2077 3.125H9.79103C8.45962 3.12503 7.3713 4.1658 7.29526 5.47811L7.29102 5.625V5.83333C7.29102 6.17851 7.01119 6.45833 6.66602 6.45833C6.3496 6.45833 6.08811 6.22321 6.04672 5.91814L6.04102 5.83333V5.625C6.04102 3.61314 7.62538 1.97131 9.61449 1.87909L9.79102 1.875L10.2077 1.875Z" fill="white"/>
<path d="M12.5 13.2666C12.8452 13.2666 13.125 13.5464 13.125 13.8916C13.125 14.208 12.8899 14.4695 12.5848 14.5109L12.5 14.5166H7.5C7.15482 14.5166 6.875 14.2368 6.875 13.8916C6.875 13.5752 7.11013 13.3137 7.41519 13.2723L7.5 13.2666H12.5Z" fill="white"/>
<path d="M10.8906 9.2364C11.1346 8.99226 11.5304 8.99215 11.7745 9.23616C11.9965 9.45799 12.0167 9.80521 11.8352 10.0499L11.7747 10.12L10.109 11.7867C9.88717 12.0086 9.54 12.0289 9.29528 11.8475L9.22516 11.787L8.22427 10.787C7.98008 10.5431 7.97991 10.1473 8.22388 9.90314C8.44567 9.68116 8.79288 9.66083 9.03763 9.84227L9.10776 9.90275L9.66602 10.4608L10.8906 9.2364Z" fill="white"/>
</svg>
