<svg width="20" height="20" viewBox="0 0 20 20" fill="none" xmlns="http://www.w3.org/2000/svg">
<path d="M15.4175 5.20825C16.4097 5.20862 17.2217 5.9793 17.2879 6.95489L17.2923 7.08325V15.8333C17.2923 16.4411 17.051 17.0241 16.6212 17.4538C16.2305 17.8446 15.7131 18.0796 15.1657 18.119L15.0007 18.1249H13.334C12.9888 18.1249 12.709 17.8451 12.709 17.4999C12.709 17.1835 12.9441 16.922 13.2492 16.8806L13.334 16.8749H15.0008C15.2771 16.875 15.542 16.7653 15.7374 16.57C15.9047 16.4026 16.0092 16.184 16.0357 15.9509L16.0423 15.8333V7.08348C16.0422 6.767 15.807 6.50547 15.5021 6.46399L15.4173 6.45825H4.58421C4.26773 6.45837 4.00621 6.69353 3.96472 6.99848L3.95898 7.08325V14.1666C3.95898 14.5118 3.67916 14.7916 3.33398 14.7916C3.01757 14.7916 2.75608 14.5565 2.71469 14.2514L2.70898 14.1666L2.70898 7.08302C2.70935 6.09091 3.48003 5.2789 4.45562 5.21262L4.58398 5.20825L15.4175 5.20825Z" fill="white"/>
<path d="M10.0007 1.45825C11.8991 1.45825 13.4487 2.95201 13.5382 4.82832L13.5423 4.99992V5.83325C13.5423 6.17843 13.2625 6.45825 12.9173 6.45825C12.6009 6.45825 12.3394 6.22312 12.298 5.91806L12.2923 5.83325V4.99992C12.2923 3.73427 11.2663 2.70825 10.0007 2.70825C8.78187 2.70825 7.78531 3.65967 7.71317 4.86032L7.70898 4.99992V5.83325C7.70898 6.17843 7.42916 6.45825 7.08398 6.45825C6.76757 6.45825 6.50608 6.22312 6.46469 5.91806L6.45898 5.83325V4.99992C6.45898 3.04391 8.04464 1.45825 10.0007 1.45825Z" fill="white"/>
<path fill-rule="evenodd" clip-rule="evenodd" d="M9.83673 12.3021C10.1102 12.0286 10.4812 11.875 10.8679 11.875C11.2547 11.875 11.6256 12.0286 11.8991 12.3021L12.6979 13.1009C13.2674 13.6704 13.2674 14.5938 12.6979 15.1633L10.1633 17.6979C9.88978 17.9714 9.51884 18.125 9.13206 18.125H7.70833C7.2481 18.125 6.875 17.7519 6.875 17.2917V15.8679C6.875 15.4812 7.02864 15.1102 7.30213 14.8367L9.83673 12.3021ZM11.0152 13.186C10.9762 13.1469 10.9232 13.125 10.8679 13.125C10.8127 13.125 10.7597 13.1469 10.7206 13.186L8.18602 15.7206C8.14695 15.7597 8.125 15.8127 8.125 15.8679V16.8742L9.13206 16.875C9.1689 16.875 9.20473 16.8652 9.23611 16.8472L9.27939 16.814L11.814 14.2794C11.8953 14.198 11.8953 14.0661 11.814 13.9848L11.0152 13.186Z" fill="white"/>
<path d="M4.58188 16.8333C4.75897 16.833 4.92887 16.9033 5.05409 17.0285C5.12922 17.1036 5.18456 17.1949 5.21677 17.2941L5.24114 17.3956L5.24935 17.5007C5.24891 17.8687 4.9504 18.1667 4.58242 18.1666C4.21443 18.1664 3.91616 17.8682 3.91602 17.5002C3.91587 17.1322 4.2139 16.8337 4.58188 16.8333Z" fill="white"/>
<path d="M2.08188 16.8333C2.25897 16.833 2.42887 16.9033 2.55409 17.0285C2.62922 17.1036 2.68456 17.1949 2.71677 17.2941L2.74114 17.3956L2.74935 17.5007C2.74891 17.8687 2.4504 18.1667 2.08242 18.1666C1.71443 18.1664 1.41616 17.8682 1.41602 17.5002C1.41587 17.1322 1.7139 16.8337 2.08188 16.8333Z" fill="white"/>
</svg>
