<svg width="28" height="28" viewBox="0 0 28 28" fill="none" xmlns="http://www.w3.org/2000/svg">
<path d="M20.4167 6.59155C20.8999 6.59155 21.2917 6.9833 21.2917 7.46655C21.2917 9.23847 19.8552 10.6749 18.0833 10.6749C16.3114 10.6749 14.875 9.23847 14.875 7.46655C14.875 6.9833 15.2668 6.59155 15.75 6.59155C16.193 6.59155 16.5591 6.92073 16.617 7.34782L16.625 7.46655C16.625 8.27197 17.2779 8.92489 18.0833 8.92489C18.8384 8.92489 19.4595 8.35103 19.5341 7.61566L19.5417 7.46655C19.5417 6.9833 19.9334 6.59155 20.4167 6.59155Z" fill="#CD1F46"/>
<path d="M21.291 2.625C23.471 2.625 25.252 4.33332 25.3683 6.48429L25.3743 6.70833V11.8417C25.3743 14.0217 23.666 15.8026 21.5151 15.919L21.291 15.925H19.8327C19.3494 15.925 18.9577 15.5332 18.9577 15.05C18.9577 14.607 19.2869 14.2409 19.7139 14.183L19.8327 14.175H21.291C22.5211 14.175 23.5289 13.2231 23.6179 12.0158L23.6243 11.8417V6.70833C23.6243 5.47824 22.6725 4.47047 21.4652 4.3814L21.291 4.375H14.8743C13.6443 4.375 12.6365 5.32686 12.5474 6.53419L12.541 6.70833V8.16667C12.541 8.64992 12.1493 9.04167 11.666 9.04167C11.223 9.04167 10.8569 8.71249 10.799 8.2854L10.791 8.16667V6.70833C10.791 4.52834 12.4993 2.74735 14.6503 2.63104L14.8743 2.625H21.291Z" fill="#CD1F46"/>
<path d="M24.4993 17.7917C24.9423 17.7917 25.3084 18.1209 25.3664 18.548L25.3743 18.6667V21.0001C25.3743 23.3384 23.5399 25.2482 21.2317 25.369L20.9993 25.3751H18.666C18.1828 25.3751 17.791 24.9833 17.791 24.5001C17.791 24.0571 18.1202 23.691 18.5473 23.6331L18.666 23.6251H20.9993C22.3887 23.6251 23.5259 22.5457 23.6183 21.1798L23.6243 21.0001V18.6667C23.6243 18.1835 24.0161 17.7917 24.4993 17.7917Z" fill="#CD1F46"/>
<path d="M8.16667 2.625C8.64992 2.625 9.04167 3.01675 9.04167 3.5C9.04167 3.94298 8.71249 4.30907 8.2854 4.36701L8.16667 4.375H7C5.61066 4.375 4.47341 5.45436 4.38106 6.82028L4.375 7V9.33333C4.375 9.81658 3.98325 10.2083 3.5 10.2083C3.05702 10.2083 2.69093 9.87915 2.63299 9.45207L2.625 9.33333V7C2.625 4.6617 4.45942 2.75185 6.76765 2.63106L7 2.625H8.16667Z" fill="#CD1F46"/>
<path fill-rule="evenodd" clip-rule="evenodd" d="M5.83333 11.9583H12.8333C14.6052 11.9583 16.0417 13.3947 16.0417 15.1666V22.1666C16.0417 23.9385 14.6052 25.3749 12.8333 25.3749H5.83333C4.06142 25.3749 2.625 23.9385 2.625 22.1666V15.1666C2.625 13.3947 4.06142 11.9583 5.83333 11.9583ZM12.8333 13.7083H5.83333C5.02792 13.7083 4.375 14.3612 4.375 15.1666V22.1666C4.375 22.972 5.02792 23.6249 5.83333 23.6249H12.8333C13.6387 23.6249 14.2917 22.972 14.2917 22.1666V15.1666C14.2917 14.3612 13.6387 13.7083 12.8333 13.7083Z" fill="#CD1F46"/>
<path d="M11.6667 16.0417C12.1499 16.0417 12.5417 16.4335 12.5417 16.9167C12.5417 17.3597 12.2125 17.7258 11.7854 17.7838L11.6667 17.7917H7C6.51675 17.7917 6.125 17.4 6.125 16.9167C6.125 16.4738 6.45418 16.1077 6.88127 16.0497L7 16.0417H11.6667Z" fill="#CD1F46"/>
<path d="M11.6667 19.5417C12.1499 19.5417 12.5417 19.9335 12.5417 20.4167C12.5417 20.8597 12.2125 21.2258 11.7854 21.2838L11.6667 21.2917H7C6.51675 21.2917 6.125 20.9 6.125 20.4167C6.125 19.9738 6.45418 19.6077 6.88127 19.5497L7 19.5417H11.6667Z" fill="#CD1F46"/>
</svg>
