<svg width="32" height="32" viewBox="0 0 32 32" fill="none" xmlns="http://www.w3.org/2000/svg">
<path fill-rule="evenodd" clip-rule="evenodd" d="M7.33398 8.33325H24.6677C26.3241 8.33386 27.6667 9.67649 27.6673 11.3333V25.3333C27.6673 26.3059 27.2812 27.2386 26.5936 27.9262C25.9058 28.6139 24.973 29.0002 24.0007 28.9999H8.00093C7.02831 29.0002 6.09545 28.6139 5.40771 27.9262C4.72011 27.2386 4.33398 26.3059 4.33398 25.3333V11.3329C4.33459 9.67649 5.67722 8.33386 7.33398 8.33325ZM24.6673 10.3333H7.33435C6.78195 10.3335 6.33419 10.7812 6.33398 11.3333V25.3333C6.33398 25.7756 6.5095 26.1996 6.82192 26.512C7.13446 26.8245 7.55838 27 8.00065 26.9999H24.0009C24.4429 27 24.8668 26.8245 25.1794 26.512C25.4918 26.1996 25.6673 25.7756 25.6673 25.3333V11.3336C25.6671 10.7812 25.2194 10.3335 24.6673 10.3333Z" fill="#0F1035"/>
<path d="M16.3327 3C19.5517 3.00008 22.1787 5.53504 22.3262 8.71756L22.3327 9V9.33333C22.3327 9.88562 21.885 10.3333 21.3327 10.3333C20.8264 10.3333 20.408 9.95713 20.3418 9.46903L20.3327 9.33333V9C20.3327 6.86981 18.6674 5.1285 16.5677 5.0068L16.3327 5H15.666C13.5358 5.00005 11.7945 6.66528 11.6728 8.76497L11.666 9V9.33333C11.666 9.88562 11.2183 10.3333 10.666 10.3333C10.1598 10.3333 9.74136 9.95713 9.67514 9.46903L9.66602 9.33333V9C9.66602 5.78102 12.201 3.15409 15.3836 3.00654L15.666 3L16.3327 3Z" fill="#0F1035"/>
<path d="M20 21.2266C20.5523 21.2266 21 21.6743 21 22.2266C21 22.7328 20.6238 23.1512 20.1357 23.2174L20 23.2266H12C11.4477 23.2266 11 22.7788 11 22.2266C11 21.7203 11.3762 21.3019 11.8643 21.2357L12 21.2266H20Z" fill="#0F1035"/>
<path d="M17.4266 14.7782C17.817 14.3876 18.4501 14.3874 18.8408 14.7778C19.1959 15.1327 19.2283 15.6883 18.9379 16.0798L18.8412 16.192L16.1759 18.8587C15.821 19.2138 15.2656 19.2462 14.874 18.956L14.7618 18.8592L13.1604 17.2592C12.7697 16.8688 12.7694 16.2357 13.1598 15.845C13.5146 15.4898 14.0702 15.4573 14.4618 15.7476L14.574 15.8444L15.4672 16.7373L17.4266 14.7782Z" fill="#0F1035"/>
</svg>
