<svg width="20" height="20" viewBox="0 0 20 20" fill="none" xmlns="http://www.w3.org/2000/svg">
<path d="M13.1237 11.875C15.3643 11.875 17.1919 13.6436 17.2865 15.8609L17.2904 16.0417V16.6667C17.2904 17.0118 17.0105 17.2917 16.6654 17.2917C16.349 17.2917 16.0875 17.0565 16.0461 16.7515L16.0404 16.6667V16.0417C16.0404 14.4845 14.8201 13.2124 13.2837 13.1293L13.1237 13.125H6.8737C5.31656 13.125 4.04443 14.3452 3.96135 15.8816L3.95703 16.0417V16.6667C3.95703 17.0118 3.67721 17.2917 3.33203 17.2917C3.01562 17.2917 2.75412 17.0565 2.71274 16.7515L2.70703 16.6667V16.0417C2.70703 13.801 4.47562 11.9735 6.69296 11.8788L6.8737 11.875H13.1237Z" fill="#CD1F46"/>
<path fill-rule="evenodd" clip-rule="evenodd" d="M6.04297 5.83333C6.04297 3.64721 7.81517 1.875 10.0013 1.875C12.1874 1.875 13.9596 3.64721 13.9596 5.83333C13.9596 8.01946 12.1874 9.79167 10.0013 9.79167C7.81517 9.79167 6.04297 8.01946 6.04297 5.83333ZM12.7096 5.83333C12.7096 4.33756 11.4971 3.125 10.0013 3.125C8.50553 3.125 7.29297 4.33756 7.29297 5.83333C7.29297 7.3291 8.50553 8.54167 10.0013 8.54167C11.4971 8.54167 12.7096 7.3291 12.7096 5.83333Z" fill="#CD1F46"/>
</svg>
