<svg width="24" height="24" viewBox="0 0 24 24" fill="none" xmlns="http://www.w3.org/2000/svg">
<path d="M15.75 14.25C18.4388 14.25 20.6318 16.3723 20.7454 19.0331L20.75 19.25V20C20.75 20.4142 20.4142 20.75 20 20.75C19.6203 20.75 19.3065 20.4678 19.2568 20.1018L19.25 20V19.25C19.25 17.3814 17.7857 15.8549 15.942 15.7552L15.75 15.75H8.25C6.38144 15.75 4.85487 17.2143 4.75518 19.058L4.75 19.25V20C4.75 20.4142 4.41421 20.75 4 20.75C3.6203 20.75 3.30651 20.4678 3.25685 20.1018L3.25 20V19.25C3.25 16.5612 5.37231 14.3682 8.03311 14.2546L8.25 14.25H15.75Z" fill="#CD1F46"/>
<path fill-rule="evenodd" clip-rule="evenodd" d="M7.25 7C7.25 4.37665 9.37665 2.25 12 2.25C14.6234 2.25 16.75 4.37665 16.75 7C16.75 9.62335 14.6234 11.75 12 11.75C9.37665 11.75 7.25 9.62335 7.25 7ZM15.25 7C15.25 5.20507 13.7949 3.75 12 3.75C10.2051 3.75 8.75 5.20507 8.75 7C8.75 8.79493 10.2051 10.25 12 10.25C13.7949 10.25 15.25 8.79493 15.25 7Z" fill="#CD1F46"/>
</svg>
