<svg width="36" height="36" viewBox="0 0 36 36" fill="none" xmlns="http://www.w3.org/2000/svg">
<path fill-rule="evenodd" clip-rule="evenodd" d="M12.0389 11.1038L14.9759 5.24621C15.8036 3.5761 17.8285 2.89318 19.4986 3.72089C20.1602 4.04878 20.6961 4.5846 21.0217 5.24162L23.9594 11.1038L30.4681 12.0342C32.2338 12.2816 33.4877 13.8534 33.367 15.6051L33.342 15.8449C33.2364 16.5983 32.8794 17.2939 32.3308 17.817L27.6539 22.2968L28.7646 28.6611C29.0763 30.4165 27.9704 32.0958 26.2675 32.5237L26.0317 32.5742C25.2975 32.7045 24.5409 32.5881 23.884 32.2452L17.9984 29.2043L12.12 32.2416C10.5395 33.0666 8.60543 32.5166 7.68541 31.0211L7.56637 30.8114C7.22133 30.1504 7.10491 29.3937 7.23469 28.6629L8.34445 22.2968L3.67104 17.8189C2.38636 16.5938 2.27922 14.5977 3.38315 13.2452L3.55783 13.0473C4.08283 12.4968 4.77843 12.1398 5.52875 12.0346L12.0389 11.1038ZM19.0079 6.24533C18.8986 6.0248 18.72 5.84619 18.4995 5.73689L18.3582 5.67831C17.8331 5.50125 17.2447 5.7354 16.9897 6.24992L13.7872 12.6384C13.6219 12.968 13.3056 13.1958 12.9406 13.2479L5.8441 14.2624C5.59298 14.2976 5.36111 14.4166 5.18611 14.6001C4.75732 15.0497 4.77421 15.7618 5.22583 16.1925L10.3348 21.0885C10.6054 21.3478 10.7291 21.7249 10.6647 22.0941L9.45062 29.053C9.40716 29.2977 9.44597 29.5499 9.56098 29.7702C9.84849 30.321 10.5281 30.5345 11.0832 30.2447L17.4837 26.9387C17.8076 26.7714 18.1925 26.7714 18.5164 26.9388L24.921 30.2485C25.1414 30.3635 25.3936 30.4023 25.6383 30.3588C26.25 30.2502 26.6579 29.6662 26.5487 29.0511L25.3352 22.0941C25.2708 21.7249 25.3945 21.3478 25.6651 21.0885L30.776 16.1906C30.9596 16.0156 31.0786 15.7838 31.1138 15.5326C31.2 14.9173 30.7711 14.3486 30.1527 14.2619L23.0592 13.2479C22.6942 13.1958 22.378 12.968 22.2127 12.6384L19.0079 6.24533Z" fill="#323232"/>
</svg>
