<svg width="32" height="32" viewBox="0 0 32 32" fill="none" xmlns="http://www.w3.org/2000/svg">
<path fill-rule="evenodd" clip-rule="evenodd" d="M6.62139 8.33334H25.3334C25.9137 8.33334 26.3722 8.82571 26.3309 9.40457L25.1748 25.5941C25.0374 27.5132 23.4408 29 21.5174 29H10.4774C8.55779 29 6.96311 27.5189 6.82011 25.603L5.62411 9.40699C5.5813 8.82727 6.0401 8.33334 6.62139 8.33334ZM24.2587 10.332H7.69606L8.81462 25.4549C8.87533 26.2683 9.51115 26.9093 10.305 26.9912L10.4774 27H21.5174C22.3915 27 23.1174 26.324 23.1799 25.4515L24.2587 10.332Z" fill="#0F1035"/>
<path d="M16 13.6667C16.5063 13.6667 16.9247 14.0429 16.9909 14.531L17 14.6667V22.6667C17 23.2189 16.5523 23.6667 16 23.6667C15.4937 23.6667 15.0753 23.2905 15.0091 22.8024L15 22.6667V14.6667C15 14.1144 15.4477 13.6667 16 13.6667Z" fill="#0F1035"/>
<path d="M26.6666 8.33334C27.2189 8.33334 27.6666 8.78106 27.6666 9.33334C27.6666 9.8396 27.2904 10.258 26.8023 10.3242L26.6666 10.3333H5.33325C4.78097 10.3333 4.33325 9.88563 4.33325 9.33334C4.33325 8.82708 4.70946 8.40869 5.19756 8.34247L5.33325 8.33334H26.6666Z" fill="#0F1035"/>
<path d="M18.8186 3C20.2625 3 21.5627 3.84547 22.1552 5.14555L22.2523 5.37962L23.603 8.98229C23.7968 9.49942 23.5348 10.0758 23.0177 10.2697C22.5436 10.4474 22.0198 10.242 21.7864 9.80823L21.7303 9.68438L20.3797 6.08192C20.1557 5.48504 19.6148 5.07333 18.9907 5.00885L18.8186 5H13.1813C12.544 5 11.9686 5.36198 11.689 5.92369L11.6203 6.08171L10.2696 9.68438C10.0758 10.2015 9.49937 10.4636 8.98223 10.2697C8.50819 10.092 8.24849 9.59283 8.35783 9.11255L8.39692 8.98229L9.74767 5.37941C10.2549 4.02739 11.5031 3.10681 12.9281 3.0087L13.1813 3H18.8186Z" fill="#0F1035"/>
<path d="M20.6448 13.6692C21.1498 13.7054 21.5402 14.1106 21.5714 14.6022L21.5708 14.7382L20.9974 22.7382C20.958 23.289 20.4794 23.7036 19.9285 23.6641C19.4235 23.6279 19.0331 23.2228 19.002 22.7312L19.0025 22.5952L19.5759 14.5952C19.6154 14.0443 20.0939 13.6297 20.6448 13.6692Z" fill="#0F1035"/>
<path d="M11.3551 13.6692C11.86 13.633 12.3043 13.9784 12.4052 14.4605L12.424 14.5952L12.9973 22.5952C13.0368 23.1461 12.6222 23.6246 12.0714 23.6641C11.5664 23.7003 11.1222 23.355 11.0213 22.8728L11.0024 22.7382L10.4291 14.7382C10.3896 14.1873 10.8042 13.7087 11.3551 13.6692Z" fill="#0F1035"/>
</svg>
