<svg width="24" height="24" viewBox="0 0 24 24" fill="none" xmlns="http://www.w3.org/2000/svg">
<path fill-rule="evenodd" clip-rule="evenodd" d="M4.96586 6.25H18.9999C19.4351 6.25 19.779 6.61927 19.748 7.05342L18.8809 19.1956C18.7778 20.6349 17.5804 21.75 16.1379 21.75H7.85786C6.41816 21.75 5.22215 20.6392 5.1149 19.2022L4.2179 7.05523C4.18579 6.62045 4.52989 6.25 4.96586 6.25ZM18.1939 7.749H5.77186L6.61078 19.0912C6.65632 19.7012 7.13318 20.182 7.72858 20.2434L7.85786 20.25H16.1379C16.7935 20.25 17.3379 19.743 17.3848 19.0886L18.1939 7.749Z" fill="#0F1035"/>
<path d="M12 10.25C12.3797 10.25 12.6935 10.5322 12.7432 10.8982L12.75 11V17C12.75 17.4142 12.4142 17.75 12 17.75C11.6203 17.75 11.3065 17.4678 11.2568 17.1018L11.25 17V11C11.25 10.5858 11.5858 10.25 12 10.25Z" fill="#0F1035"/>
<path d="M20 6.25C20.4142 6.25 20.75 6.58579 20.75 7C20.75 7.3797 20.4678 7.69349 20.1018 7.74315L20 7.75H4C3.58579 7.75 3.25 7.41421 3.25 7C3.25 6.6203 3.53215 6.30651 3.89823 6.25685L4 6.25H20Z" fill="#0F1035"/>
<path d="M14.1142 2.25C15.1971 2.25 16.1723 2.8841 16.6166 3.85916L16.6895 4.03471L17.7025 6.73671C17.8479 7.12457 17.6513 7.55686 17.2635 7.70227C16.908 7.83556 16.5151 7.68152 16.3401 7.35618L16.2979 7.26329L15.285 4.56144C15.1171 4.11378 14.7113 3.805 14.2433 3.75664L14.1142 3.75H9.8862C9.40828 3.75 8.97671 4.02148 8.76702 4.44277L8.71547 4.56129L7.70247 7.26329C7.55706 7.65114 7.12477 7.84768 6.73692 7.70227C6.38139 7.56898 6.18661 7.19462 6.26862 6.83441L6.29794 6.73671L7.31099 4.03456C7.69141 3.02054 8.62754 2.33011 9.69631 2.25652L9.8862 2.25H14.1142Z" fill="#0F1035"/>
<path d="M15.4841 10.2519C15.8628 10.2791 16.1556 10.5829 16.179 10.9516L16.1786 11.0536L15.7486 17.0536C15.719 17.4668 15.36 17.7777 14.9469 17.7481C14.5681 17.7209 14.2753 17.4171 14.252 17.0484L14.2524 16.9464L14.6824 10.9464C14.712 10.5332 15.0709 10.2223 15.4841 10.2519Z" fill="#0F1035"/>
<path d="M8.51673 10.2519C8.89546 10.2248 9.22862 10.4838 9.30432 10.8454L9.31843 10.9464L9.74843 16.9464C9.77804 17.3595 9.46711 17.7185 9.05396 17.7481C8.67523 17.7752 8.34207 17.5162 8.26637 17.1546L8.25226 17.0536L7.82226 11.0536C7.79265 10.6405 8.10358 10.2815 8.51673 10.2519Z" fill="#0F1035"/>
</svg>
