<svg width="40" height="40" viewBox="0 0 40 40" fill="none" xmlns="http://www.w3.org/2000/svg">
<path fill-rule="evenodd" clip-rule="evenodd" d="M23.536 11.8809C21.5828 9.92773 18.418 9.92773 16.4649 11.8809C14.5117 13.834 14.5117 16.9988 16.4649 18.952C18.418 20.9051 21.5828 20.9051 23.536 18.952C25.4891 16.9988 25.4891 13.834 23.536 11.8809ZM18.2326 13.6486C19.1484 12.7329 20.596 12.6756 21.5782 13.4769L21.7682 13.6486L21.9399 13.8386C22.7412 14.8209 22.684 16.2684 21.7682 17.1842C20.7914 18.1611 19.2095 18.1611 18.2326 17.1842C17.2558 16.2074 17.2558 14.6255 18.2326 13.6486Z" fill="#0F1035"/>
<path d="M22.4273 22.2305C25.4342 22.2305 27.968 24.4259 28.4368 27.3724C28.5453 28.0542 28.0805 28.6948 27.3988 28.8033C26.717 28.9118 26.0764 28.447 25.9679 27.7652C25.7055 26.1164 24.351 24.8679 22.7044 24.7411L22.4273 24.7305H17.574C15.8032 24.7305 14.3105 26.0241 14.0335 27.7652C13.925 28.447 13.2844 28.9118 12.6026 28.8033C11.9208 28.6948 11.4561 28.0542 11.5645 27.3724C12.0167 24.5306 14.3877 22.3882 17.2536 22.2388L17.574 22.2305H22.4273Z" fill="#0F1035"/>
<path fill-rule="evenodd" clip-rule="evenodd" d="M11.6667 3.75H28.3333C32.7054 3.75 36.25 7.29464 36.25 11.6667V28.3333C36.25 32.7054 32.7054 36.25 28.3333 36.25H11.6667C7.29464 36.25 3.75 32.7054 3.75 28.3333V11.6667C3.75 7.29464 7.29464 3.75 11.6667 3.75ZM28.3333 6.25H11.6667C8.67536 6.25 6.25 8.67536 6.25 11.6667V28.3333C6.25 31.3246 8.67536 33.75 11.6667 33.75H28.3333C31.3246 33.75 33.75 31.3246 33.75 28.3333V11.6667C33.75 8.67536 31.3246 6.25 28.3333 6.25Z" fill="#0F1035"/>
</svg>
