<svg width="20" height="21" viewBox="0 0 20 21" fill="none" xmlns="http://www.w3.org/2000/svg">
<g clip-path="url(#clip0_285_3652)">
<path d="M19.6314 17.9997L17.6731 7.07409C17.4915 6.06108 16.6102 5.32372 15.5811 5.32372H13.1702C13.3526 4.90346 13.4541 4.44035 13.4541 3.95385C13.4541 2.04939 11.9048 0.5 10.0003 0.5C8.09583 0.5 6.54644 2.04939 6.54644 3.95385C6.54644 4.44035 6.6481 4.90346 6.83039 5.32372H4.41952C3.39035 5.32372 2.5091 6.06108 2.32753 7.07409L0.369289 17.9997C0.258274 18.6191 0.427453 19.2559 0.831272 19.7385C1.23509 20.2211 1.83203 20.5 2.46128 20.5H17.5393C18.1686 20.5 18.7655 20.2211 19.1693 19.7385C19.5732 19.2559 19.7424 18.6191 19.6314 17.9997ZM10.0003 2.62536C10.7328 2.62536 11.3288 3.22131 11.3288 3.95385C11.3288 4.68639 10.7328 5.28234 10.0003 5.28234C9.26775 5.28234 8.6718 4.68639 8.6718 3.95385C8.6718 3.22131 9.26782 2.62536 10.0003 2.62536ZM2.46128 18.3746L4.41959 7.44908H15.5811L17.5394 18.3746H2.46128Z" fill="#595A74"/>
</g>
<defs>
<clipPath id="clip0_285_3652">
<rect width="20" height="20" fill="white" transform="translate(0 0.5)"/>
</clipPath>
</defs>
</svg>
