<svg width="40" height="40" viewBox="0 0 40 40" fill="none" xmlns="http://www.w3.org/2000/svg">
<path fill-rule="evenodd" clip-rule="evenodd" d="M30.3396 9.60375C27.5963 6.85875 23.9479 5.34542 20.0613 5.34375C12.0496 5.34375 5.53125 11.8587 5.52958 19.8671C5.52625 22.4154 6.19458 24.9204 7.46792 27.1287L5.40625 34.6554L13.1096 32.6354C15.2413 33.7954 17.6279 34.4037 20.0546 34.4037H20.0613C28.0696 34.4037 34.5879 27.8871 34.5913 19.8787C34.5929 15.9987 33.0829 12.3504 30.3396 9.60375Z" stroke="#0F1035" stroke-width="2.4" stroke-linecap="round" stroke-linejoin="round"/>
<path d="M21.8242 22.6018L22.5009 21.9301C23.1226 21.3135 24.1059 21.2351 24.8226 21.7385C25.5159 22.2251 26.1426 22.6618 26.7259 23.0685C27.6526 23.7118 27.7642 25.0318 26.9659 25.8285L26.3676 26.4268" stroke="#0F1035" stroke-width="2.4" stroke-linecap="round" stroke-linejoin="round"/>
<path d="M13.5742 13.6326L14.1726 13.0343C14.9692 12.2376 16.2892 12.3493 16.9326 13.2743C17.3376 13.8576 17.7742 14.4843 18.2626 15.1776C18.7659 15.8943 18.6892 16.8776 18.0709 17.4993L17.3992 18.176" stroke="#0F1035" stroke-width="2.4" stroke-linecap="round" stroke-linejoin="round"/>
<path d="M26.3682 26.4262C23.8999 28.8829 19.7516 26.7962 16.4766 23.5195" stroke="#0F1035" stroke-width="2.4" stroke-linecap="round" stroke-linejoin="round"/>
<path d="M16.4801 23.5245C13.2051 20.2478 11.1184 16.1011 13.5751 13.6328" stroke="#0F1035" stroke-width="2.4" stroke-linecap="round" stroke-linejoin="round"/>
<path d="M17.3984 18.1758C17.9301 19.0141 18.6118 19.8441 19.3818 20.6141L19.3851 20.6174C20.1551 21.3874 20.9851 22.0691 21.8234 22.6008" stroke="#0F1035" stroke-width="2.4" stroke-linecap="round" stroke-linejoin="round"/>
</svg>
