<svg width="44" height="44" viewBox="0 0 44 44" fill="none" xmlns="http://www.w3.org/2000/svg">
<path fill-rule="evenodd" clip-rule="evenodd" d="M33.3739 10.5637C30.3563 7.54419 26.3431 5.87952 22.0678 5.87769C13.2549 5.87769 6.08477 13.0442 6.08293 21.8534C6.07927 24.6565 6.81443 27.412 8.2151 29.8412L5.94727 38.1205L14.4209 35.8985C16.7658 37.1745 19.3911 37.8437 22.0604 37.8437H22.0678C30.8769 37.8437 38.0471 30.6754 38.0508 21.8662C38.0526 17.5982 36.3916 13.585 33.3739 10.5637Z" stroke="#EEEEEE" stroke-width="1.5" stroke-linecap="round" stroke-linejoin="round"/>
<path d="M24.0076 24.8601L24.7519 24.1212C25.4357 23.4429 26.5174 23.3567 27.3057 23.9104C28.0684 24.4457 28.7577 24.9261 29.3994 25.3734C30.4187 26.0811 30.5416 27.5331 29.6634 28.4094L29.0052 29.0676" stroke="#EEEEEE" stroke-width="1.5" stroke-linecap="round" stroke-linejoin="round"/>
<path d="M14.9326 14.9948L15.5908 14.3367C16.4671 13.4603 17.9191 13.5832 18.6268 14.6007C19.0723 15.2423 19.5526 15.9317 20.0898 16.6943C20.6435 17.4827 20.5591 18.5643 19.879 19.2482L19.1401 19.9925" stroke="#EEEEEE" stroke-width="1.5" stroke-linecap="round" stroke-linejoin="round"/>
<path d="M29.0053 29.0676C26.2902 31.7699 21.727 29.4746 18.1245 25.8702" stroke="#EEEEEE" stroke-width="1.5" stroke-linecap="round" stroke-linejoin="round"/>
<path d="M18.1281 25.8757C14.5256 22.2714 12.2303 17.71 14.9326 14.9949" stroke="#EEEEEE" stroke-width="1.5" stroke-linecap="round" stroke-linejoin="round"/>
<path d="M19.1401 19.9926C19.725 20.9147 20.4748 21.8277 21.3218 22.6747L21.3255 22.6784C22.1725 23.5254 23.0855 24.2752 24.0076 24.8601" stroke="#EEEEEE" stroke-width="1.5" stroke-linecap="round" stroke-linejoin="round"/>
</svg>
