<svg width="32" height="32" viewBox="0 0 32 32" fill="none" xmlns="http://www.w3.org/2000/svg">
<path fill-rule="evenodd" clip-rule="evenodd" d="M24.2709 7.68339C22.0762 5.48739 19.1576 4.27672 16.0482 4.27539C9.63889 4.27539 4.42422 9.48739 4.42289 15.8941C4.42022 17.9327 4.95489 19.9367 5.97355 21.7034L4.32422 27.7247L10.4869 26.1087C12.1922 27.0367 14.1016 27.5234 16.0429 27.5234H16.0482C22.4549 27.5234 27.6696 22.3101 27.6722 15.9034C27.6736 12.7994 26.4656 9.88072 24.2709 7.68339Z" stroke="#0F1035" stroke-width="2" stroke-linecap="round" stroke-linejoin="round"/>
<path d="M17.4609 18.0799L18.0023 17.5425C18.4996 17.0492 19.2863 16.9865 19.8596 17.3892C20.4143 17.7785 20.9156 18.1279 21.3823 18.4532C22.1236 18.9679 22.2129 20.0239 21.5743 20.6612L21.0956 21.1399" stroke="#0F1035" stroke-width="2" stroke-linecap="round" stroke-linejoin="round"/>
<path d="M10.8594 10.9045L11.338 10.4259C11.9754 9.78854 13.0314 9.87788 13.546 10.6179C13.87 11.0845 14.2194 11.5859 14.61 12.1405C15.0127 12.7139 14.9514 13.5005 14.4567 13.9979L13.9194 14.5392" stroke="#0F1035" stroke-width="2" stroke-linecap="round" stroke-linejoin="round"/>
<path d="M21.093 21.1398C19.1184 23.1051 15.7997 21.4358 13.1797 18.8145" stroke="#0F1035" stroke-width="2" stroke-linecap="round" stroke-linejoin="round"/>
<path d="M13.1841 18.8176C10.5641 16.1963 8.89476 12.879 10.8601 10.9043" stroke="#0F1035" stroke-width="2" stroke-linecap="round" stroke-linejoin="round"/>
<path d="M13.9219 14.5391C14.3472 15.2097 14.8925 15.8737 15.5085 16.4897L15.5112 16.4924C16.1272 17.1084 16.7912 17.6537 17.4619 18.0791" stroke="#0F1035" stroke-width="2" stroke-linecap="round" stroke-linejoin="round"/>
</svg>
