<svg width="24" height="24" viewBox="0 0 24 24" fill="none" xmlns="http://www.w3.org/2000/svg">
<path fill-rule="evenodd" clip-rule="evenodd" d="M2.56798 11.9199C2.56907 6.7006 6.81597 2.45605 12.037 2.45605C14.5675 2.45714 16.9474 3.44373 18.7346 5.23205C20.5213 7.02086 21.5061 9.40066 21.505 11.9274C21.5028 17.1466 17.256 21.3921 12.037 21.3921C10.5535 21.3921 9.0953 21.0449 7.77453 20.3797L3.43422 21.5185C2.90853 21.6564 2.42797 21.2099 2.50043 20.6926L2.52063 20.5949L3.67698 16.3721L3.6595 16.3404C2.99674 15.084 2.62577 13.6942 2.5742 12.2752L2.56798 11.9199ZM12.036 3.95505L11.7892 3.95985C7.51051 4.09119 4.06888 7.6122 4.06798 11.921C4.06615 13.3185 4.4327 14.6919 5.13071 15.9024C5.23072 16.0759 5.25723 16.2821 5.20433 16.4752L4.30998 19.7371L7.67574 18.8556C7.82353 18.8168 7.97868 18.8243 8.12072 18.8756L8.22447 18.9223C9.39442 19.5589 10.7033 19.8921 12.037 19.8921C16.4278 19.8921 20.0032 16.3178 20.005 11.9267C20.0059 9.79784 19.179 7.79953 17.6735 6.29222C16.1676 4.78545 14.1691 3.95697 12.036 3.95505Z" fill="white"/>
<path d="M12.9728 12.6247C13.6037 11.9989 14.5978 11.9177 15.3249 12.4283L16.4637 13.2241C17.3614 13.8473 17.5076 15.0982 16.815 15.9132L16.7103 16.0265L16.3513 16.3855C16.0584 16.6784 15.5835 16.6784 15.2906 16.3855C15.0244 16.1192 15.0002 15.7026 15.218 15.409L15.2906 15.3249L15.6502 14.9653C15.7993 14.8165 15.7785 14.5744 15.6071 14.4554L14.4629 13.6559C14.351 13.5773 14.2034 13.5748 14.0916 13.6413L14.0293 13.6895L13.6233 14.0925C13.3294 14.3843 12.8545 14.3825 12.5627 14.0885C12.2974 13.8213 12.2747 13.4045 12.4937 13.1117L12.5666 13.0279L12.9728 12.6247Z" fill="white"/>
<path d="M7.97369 7.28979C8.78196 6.48152 10.1228 6.5971 10.7761 7.53639L11.5718 8.67507C12.0509 9.35728 12.0099 10.274 11.4864 10.9052L11.3753 11.0275L10.9723 11.4335C10.6805 11.7275 10.2056 11.7292 9.91166 11.4374C9.64441 11.1721 9.61866 10.7556 9.83542 10.4611L9.90773 10.3768L10.3113 9.97022C10.4239 9.85701 10.4389 9.67191 10.3448 9.538L9.5443 8.39235C9.44092 8.24372 9.24202 8.20911 9.09417 8.30253L9.03435 8.35045L8.67535 8.70945C8.38246 9.00234 7.90758 9.00234 7.61469 8.70945C7.34842 8.44318 7.32422 8.02652 7.54207 7.73291L7.61469 7.64879L7.97369 7.28979Z" fill="white"/>
<path d="M9.35579 13.5806C9.64876 13.2878 10.1236 13.2879 10.4165 13.5809C12.4093 15.5747 14.3471 16.2639 15.2919 15.3235C15.5855 15.0313 16.0604 15.0324 16.3526 15.326C16.6448 15.6196 16.6436 16.0945 16.3501 16.3867C14.6044 18.1241 11.8615 17.1485 9.35552 14.6413C9.0627 14.3483 9.06282 13.8734 9.35579 13.5806Z" fill="white"/>
<path d="M7.61344 7.65013C7.90564 7.35654 8.38051 7.35542 8.6741 7.64761C8.94099 7.91325 8.96619 8.32985 8.74903 8.62398L8.67661 8.70827C7.73638 9.65297 8.42494 11.5894 10.4185 13.584C10.7113 13.877 10.7112 14.3518 10.4182 14.6447C10.1253 14.9375 9.65038 14.9374 9.35756 14.6444C6.85094 12.1365 5.87631 9.3955 7.61344 7.65013Z" fill="white"/>
<path d="M10.0384 10.2718C10.3882 10.0499 10.8516 10.1536 11.0734 10.5034C11.2999 10.8605 11.5829 11.2235 11.9085 11.5758L12.1604 11.8378C12.5948 12.2722 13.0503 12.6437 13.4967 12.9268C13.8465 13.1486 13.9502 13.612 13.7284 13.9618C13.5066 14.3116 13.0432 14.4153 12.6934 14.1935C12.2405 13.9063 11.7895 13.5522 11.3581 13.1485L11.1017 12.9005C10.5922 12.391 10.1513 11.8503 9.80667 11.3068C9.58483 10.957 9.68856 10.4936 10.0384 10.2718Z" fill="white"/>
</svg>
